<?xml version="1.0" encoding="iso-8859-1"?>
<!-- Generator: Adobe Illustrator 24.0.1, SVG Export Plug-In . SVG Version: 6.00 Build 0)  -->
<svg version="1.1" id="Ebene_1" xmlns="http://www.w3.org/2000/svg" xmlns:xlink="http://www.w3.org/1999/xlink" x="0px" y="0px"
	 viewBox="0 0 1505 804" style="enable-background:new 0 0 1505 804;" xml:space="preserve">
<style  type="text/css">
	@font-face {font-family: "NeueHaasUnicaW06-ThinItalic";
	src: url("/Blog/main/fonts/NeueHaasUnicaW06/OnlineWebFonts_COM_0ed68d0a6f9c1234e2d43bdd27b951f2/@font-face/3842220656142ccef91508c98b0eb6ed.eot"); /* IE9*/
	src: url("/Blog/main/fonts/NeueHaasUnicaW06/OnlineWebFonts_COM_0ed68d0a6f9c1234e2d43bdd27b951f2/@font-face/3842220656142ccef91508c98b0eb6ed.eot?#iefix") format("embedded-opentype"), /* IE6-IE8 */
	url("/Blog/main/fonts/NeueHaasUnicaW06/OnlineWebFonts_COM_0ed68d0a6f9c1234e2d43bdd27b951f2/@font-face/3842220656142ccef91508c98b0eb6ed.woff2") format("woff2"), /* chrome?firefox */
	url("/Blog/main/fonts/NeueHaasUnicaW06/OnlineWebFonts_COM_0ed68d0a6f9c1234e2d43bdd27b951f2/@font-face/3842220656142ccef91508c98b0eb6ed.woff") format("woff"), /* chrome?firefox */
	url("/Blog/main/fonts/NeueHaasUnicaW06/OnlineWebFonts_COM_0ed68d0a6f9c1234e2d43bdd27b951f2/@font-face/3842220656142ccef91508c98b0eb6ed.ttf") format("truetype"), /* chrome?firefox?opera?Safari, Android, iOS 4.2+*/
	url("/Blog/main/fonts/NeueHaasUnicaW06/OnlineWebFonts_COM_0ed68d0a6f9c1234e2d43bdd27b951f2/@font-face/3842220656142ccef91508c98b0eb6ed.svg#Neue Haas Unica W06 Thin It") format("svg"); /* iOS 4.1- */
	}
	@font-face {font-family: "NeueHaasUnicaW06-ExtraBlack";
		src: url("/Blog/main/fonts/NeueHaasUnicaW06/OnlineWebFonts_COM_3dad734723cd1eada75c00f4d4322909/@font-face/46ff6b5a1511006aeadd4a46a3efd9ae.eot"); /* IE9*/
		src: url("/Blog/main/fonts/NeueHaasUnicaW06/OnlineWebFonts_COM_3dad734723cd1eada75c00f4d4322909/@font-face/46ff6b5a1511006aeadd4a46a3efd9ae.eot?#iefix") format("embedded-opentype"), /* IE6-IE8 */
		url("/Blog/main/fonts/NeueHaasUnicaW06/OnlineWebFonts_COM_3dad734723cd1eada75c00f4d4322909/@font-face/46ff6b5a1511006aeadd4a46a3efd9ae.woff") format("woff2"), /* chrome?firefox */
		url("/Blog/main/fonts/NeueHaasUnicaW06/OnlineWebFonts_COM_3dad734723cd1eada75c00f4d4322909/@font-face/46ff6b5a1511006aeadd4a46a3efd9ae.woff2") format("woff"), /* chrome?firefox */
		url("/Blog/main/fonts/NeueHaasUnicaW06/OnlineWebFonts_COM_3dad734723cd1eada75c00f4d4322909/@font-face/46ff6b5a1511006aeadd4a46a3efd9ae.ttf") format("truetype"), /* chrome?firefox?opera?Safari, Android, iOS 4.2+*/
		url("/Blog/main/fonts/NeueHaasUnicaW06/OnlineWebFonts_COM_3dad734723cd1eada75c00f4d4322909/@font-face/46ff6b5a1511006aeadd4a46a3efd9ae.svg#Neue Haas Unica W06 X Black") format("svg"); /* iOS 4.1- */
	}
	@font-face {font-family: "NeueHaasUnicaW06-Regular";
		src: url("/Blog/main/fonts/NeueHaasUnicaW06/OnlineWebFonts_COM_7a298e4d1b42d5d0485b479c3bcf69bf/@font-face/7250d52844cced73ed70675d1b78c60c.eot"); /* IE9*/
		src: url("/Blog/main/fonts/NeueHaasUnicaW06/OnlineWebFonts_COM_7a298e4d1b42d5d0485b479c3bcf69bf/@font-face/7250d52844cced73ed70675d1b78c60c.eot?#iefix") format("embedded-opentype"), /* IE6-IE8 */
		url("/Blog/main/fonts/NeueHaasUnicaW06/OnlineWebFonts_COM_7a298e4d1b42d5d0485b479c3bcf69bf/@font-face/7250d52844cced73ed70675d1b78c60c.woff") format("woff2"), /* chrome?firefox */
		url("/Blog/main/fonts/NeueHaasUnicaW06/OnlineWebFonts_COM_7a298e4d1b42d5d0485b479c3bcf69bf/@font-face/7250d52844cced73ed70675d1b78c60c.woff2") format("woff"), /* chrome?firefox */
		url("/Blog/main/fonts/NeueHaasUnicaW06/OnlineWebFonts_COM_7a298e4d1b42d5d0485b479c3bcf69bf/@font-face/7250d52844cced73ed70675d1b78c60c.ttf") format("truetype"), /* chrome?firefox?opera?Safari, Android, iOS 4.2+*/
		url("/Blog/main/fonts/NeueHaasUnicaW06/OnlineWebFonts_COM_7a298e4d1b42d5d0485b479c3bcf69bf/@font-face/7250d52844cced73ed70675d1b78c60c.svg#Neue Haas Unica W06 X Black") format("svg"); /* iOS 4.1- */
	}
	@font-face {font-family: "NeueHaasUnicaW06-XBlackIt";
		src: url("/Blog/main/fonts/NeueHaasUnicaW06/OnlineWebFonts_COM_7ded04d499cfd92c5afc12ffac484c5a/@font-face/5ef047f0e72e70adeba30f0c829c33e0.eot"); /* IE9*/
		src: url("/Blog/main/fonts/NeueHaasUnicaW06/OnlineWebFonts_COM_7ded04d499cfd92c5afc12ffac484c5a/@font-face/5ef047f0e72e70adeba30f0c829c33e0.eot?#iefix") format("embedded-opentype"), /* IE6-IE8 */
		url("/Blog/main/fonts/NeueHaasUnicaW06/OnlineWebFonts_COM_7ded04d499cfd92c5afc12ffac484c5a/@font-face/5ef047f0e72e70adeba30f0c829c33e0.woff") format("woff2"), /* chrome?firefox */
		url("/Blog/main/fonts/NeueHaasUnicaW06/OnlineWebFonts_COM_7ded04d499cfd92c5afc12ffac484c5a/@font-face/5ef047f0e72e70adeba30f0c829c33e0.woff2") format("woff"), /* chrome?firefox */
		url("/Blog/main/fonts/NeueHaasUnicaW06/OnlineWebFonts_COM_7ded04d499cfd92c5afc12ffac484c5a/@font-face/5ef047f0e72e70adeba30f0c829c33e0.ttf") format("truetype"), /* chrome?firefox?opera?Safari, Android, iOS 4.2+*/
		url("/Blog/main/fonts/NeueHaasUnicaW06/OnlineWebFonts_COM_7ded04d499cfd92c5afc12ffac484c5a/@font-face/5ef047f0e72e70adeba30f0c829c33e0.svg#Neue Haas Unica W06 X Black") format("svg"); /* iOS 4.1- */
	}
	@font-face {font-family: "NeueHaasUnicaW06-LightIt";
		src: url("/Blog/main/fonts/NeueHaasUnicaW06/OnlineWebFonts_COM_19d2b951c44c457e1bc515a2e9e486fb/@font-face/7f69054324b2adbc60f29dfd260c3d30.eot"); /* IE9*/
		src: url("/Blog/main/fonts/NeueHaasUnicaW06/OnlineWebFonts_COM_19d2b951c44c457e1bc515a2e9e486fb/@font-face/7f69054324b2adbc60f29dfd260c3d30.eot?#iefix") format("embedded-opentype"), /* IE6-IE8 */
		url("/Blog/main/fonts/NeueHaasUnicaW06/OnlineWebFonts_COM_19d2b951c44c457e1bc515a2e9e486fb/@font-face/7f69054324b2adbc60f29dfd260c3d30.woff") format("woff2"), /* chrome?firefox */
		url("/Blog/main/fonts/NeueHaasUnicaW06/OnlineWebFonts_COM_19d2b951c44c457e1bc515a2e9e486fb/@font-face/7f69054324b2adbc60f29dfd260c3d30.woff2") format("woff"), /* chrome?firefox */
		url("/Blog/main/fonts/NeueHaasUnicaW06/OnlineWebFonts_COM_19d2b951c44c457e1bc515a2e9e486fb/@font-face/7f69054324b2adbc60f29dfd260c3d30.ttf") format("truetype"), /* chrome?firefox?opera?Safari, Android, iOS 4.2+*/
		url("/Blog/main/fonts/NeueHaasUnicaW06/OnlineWebFonts_COM_19d2b951c44c457e1bc515a2e9e486fb/@font-face/7f69054324b2adbc60f29dfd260c3d30.svg#Neue Haas Unica W06 X Black") format("svg"); /* iOS 4.1- */
	}
	@font-face {font-family: "NeueHaasUnicaW06-Italic";
		src: url("/Blog/main/fonts/NeueHaasUnicaW06/OnlineWebFonts_COM_059c6c90764b5b58f635dc550a3dd784/@font-face/0aa6b2719638cacfa0e8abce9099a39b.eot"); /* IE9*/
		src: url("/Blog/main/fonts/NeueHaasUnicaW06/OnlineWebFonts_COM_059c6c90764b5b58f635dc550a3dd784/@font-face/0aa6b2719638cacfa0e8abce9099a39b.eot?#iefix") format("embedded-opentype"), /* IE6-IE8 */
		url("/Blog/main/fonts/NeueHaasUnicaW06/OnlineWebFonts_COM_059c6c90764b5b58f635dc550a3dd784/@font-face/0aa6b2719638cacfa0e8abce9099a39b.woff") format("woff2"), /* chrome?firefox */
		url("/Blog/main/fonts/NeueHaasUnicaW06/OnlineWebFonts_COM_059c6c90764b5b58f635dc550a3dd784/@font-face/0aa6b2719638cacfa0e8abce9099a39b.woff2") format("woff"), /* chrome?firefox */
		url("/Blog/main/fonts/NeueHaasUnicaW06/OnlineWebFonts_COM_059c6c90764b5b58f635dc550a3dd784/@font-face/0aa6b2719638cacfa0e8abce9099a39b.ttf") format("truetype"), /* chrome?firefox?opera?Safari, Android, iOS 4.2+*/
		url("/Blog/main/fonts/NeueHaasUnicaW06/OnlineWebFonts_COM_059c6c90764b5b58f635dc550a3dd784/@font-face/0aa6b2719638cacfa0e8abce9099a39b.svg#Neue Haas Unica W06 X Black") format("svg"); /* iOS 4.1- */
	}
	@font-face {font-family: "NeueHaasUnicaW06-Bold";
		src: url("/Blog/main/fonts/NeueHaasUnicaW06/OnlineWebFonts_COM_073d72f89a764f9fcbc574a8bd4cb553/@font-face/bb87c8dd3cc47b366f6bb7738fee180c.eot"); /* IE9*/
		src: url("/Blog/main/fonts/NeueHaasUnicaW06/OnlineWebFonts_COM_073d72f89a764f9fcbc574a8bd4cb553/@font-face/bb87c8dd3cc47b366f6bb7738fee180c.eot?#iefix") format("embedded-opentype"), /* IE6-IE8 */
		url("/Blog/main/fonts/NeueHaasUnicaW06/OnlineWebFonts_COM_073d72f89a764f9fcbc574a8bd4cb553/@font-face/bb87c8dd3cc47b366f6bb7738fee180c.woff") format("woff2"), /* chrome?firefox */
		url("/Blog/main/fonts/NeueHaasUnicaW06/OnlineWebFonts_COM_073d72f89a764f9fcbc574a8bd4cb553/@font-face/bb87c8dd3cc47b366f6bb7738fee180c.woff2") format("woff"), /* chrome?firefox */
		url("/Blog/main/fonts/NeueHaasUnicaW06/OnlineWebFonts_COM_073d72f89a764f9fcbc574a8bd4cb553/@font-face/bb87c8dd3cc47b366f6bb7738fee180c.ttf") format("truetype"), /* chrome?firefox?opera?Safari, Android, iOS 4.2+*/
		url("/Blog/main/fonts/NeueHaasUnicaW06/OnlineWebFonts_COM_073d72f89a764f9fcbc574a8bd4cb553/@font-face/bb87c8dd3cc47b366f6bb7738fee180c.svg#Neue Haas Unica W06 X Black") format("svg"); /* iOS 4.1- */
	}
	@font-face {font-family: "NeueHaasUnicaW06-Heavy";
		src: url("/Blog/main/fonts/NeueHaasUnicaW06/OnlineWebFonts_COM_559d73454fad999c45ebbdaaa3ebacdd/@font-face/d04fc9492a6f504ee79cb87d63393fe0.eot"); /* IE9*/
		src: url("/Blog/main/fonts/NeueHaasUnicaW06/OnlineWebFonts_COM_559d73454fad999c45ebbdaaa3ebacdd/@font-face/d04fc9492a6f504ee79cb87d63393fe0.eot?#iefix") format("embedded-opentype"), /* IE6-IE8 */
		url("/Blog/main/fonts/NeueHaasUnicaW06/OnlineWebFonts_COM_559d73454fad999c45ebbdaaa3ebacdd/@font-face/d04fc9492a6f504ee79cb87d63393fe0.woff") format("woff2"), /* chrome?firefox */
		url("/Blog/main/fonts/NeueHaasUnicaW06/OnlineWebFonts_COM_559d73454fad999c45ebbdaaa3ebacdd/@font-face/d04fc9492a6f504ee79cb87d63393fe0.woff2") format("woff"), /* chrome?firefox */
		url("/Blog/main/fonts/NeueHaasUnicaW06/OnlineWebFonts_COM_559d73454fad999c45ebbdaaa3ebacdd/@font-face/d04fc9492a6f504ee79cb87d63393fe0.ttf") format("truetype"), /* chrome?firefox?opera?Safari, Android, iOS 4.2+*/
		url("/Blog/main/fonts/NeueHaasUnicaW06/OnlineWebFonts_COM_559d73454fad999c45ebbdaaa3ebacdd/@font-face/d04fc9492a6f504ee79cb87d63393fe0.svg#Neue Haas Unica W06 X Black") format("svg"); /* iOS 4.1- */
	}
	@font-face {font-family: "NeueHaasUnicaW06-HeavyIt";
		src: url("/Blog/main/fonts/NeueHaasUnicaW06/OnlineWebFonts_COM_507355e12251f27746763ec4f975a633/@font-face/a9820d1a66a09f97371b7ec92a271a92.eot"); /* IE9*/
		src: url("/Blog/main/fonts/NeueHaasUnicaW06/OnlineWebFonts_COM_507355e12251f27746763ec4f975a633/@font-face/a9820d1a66a09f97371b7ec92a271a92.eot?#iefix") format("embedded-opentype"), /* IE6-IE8 */
		url("/Blog/main/fonts/NeueHaasUnicaW06/OnlineWebFonts_COM_507355e12251f27746763ec4f975a633/@font-face/a9820d1a66a09f97371b7ec92a271a92.woff") format("woff2"), /* chrome?firefox */
		url("/Blog/main/fonts/NeueHaasUnicaW06/OnlineWebFonts_COM_507355e12251f27746763ec4f975a633/@font-face/a9820d1a66a09f97371b7ec92a271a92.woff2") format("woff"), /* chrome?firefox */
		url("/Blog/main/fonts/NeueHaasUnicaW06/OnlineWebFonts_COM_507355e12251f27746763ec4f975a633/@font-face/a9820d1a66a09f97371b7ec92a271a92.ttf") format("truetype"), /* chrome?firefox?opera?Safari, Android, iOS 4.2+*/
		url("/Blog/main/fonts/NeueHaasUnicaW06/OnlineWebFonts_COM_507355e12251f27746763ec4f975a633/@font-face/a9820d1a66a09f97371b7ec92a271a92.svg#Neue Haas Unica W06 X Black") format("svg"); /* iOS 4.1- */
	}
	@font-face {font-family: "NeueHaasUnicaW06-Light";
		src: url("/Blog/main/fonts/NeueHaasUnicaW06/OnlineWebFonts_COM_c59b16964f2eec693c72eb9c925ef088/@font-face/145bf6f8eebf1ad036f74d821af7d94b.eot"); /* IE9*/
		src: url("/Blog/main/fonts/NeueHaasUnicaW06/OnlineWebFonts_COM_c59b16964f2eec693c72eb9c925ef088/@font-face/145bf6f8eebf1ad036f74d821af7d94b.eot?#iefix") format("embedded-opentype"), /* IE6-IE8 */
		url("/Blog/main/fonts/NeueHaasUnicaW06/OnlineWebFonts_COM_c59b16964f2eec693c72eb9c925ef088/@font-face/145bf6f8eebf1ad036f74d821af7d94b.woff") format("woff2"), /* chrome?firefox */
		url("/Blog/main/fonts/NeueHaasUnicaW06/OnlineWebFonts_COM_c59b16964f2eec693c72eb9c925ef088/@font-face/145bf6f8eebf1ad036f74d821af7d94b.woff2") format("woff"), /* chrome?firefox */
		url("/Blog/main/fonts/NeueHaasUnicaW06/OnlineWebFonts_COM_c59b16964f2eec693c72eb9c925ef088/@font-face/145bf6f8eebf1ad036f74d821af7d94b.ttf") format("truetype"), /* chrome?firefox?opera?Safari, Android, iOS 4.2+*/
		url("/Blog/main/fonts/NeueHaasUnicaW06/OnlineWebFonts_COM_c59b16964f2eec693c72eb9c925ef088/@font-face/145bf6f8eebf1ad036f74d821af7d94b.svg#Neue Haas Unica W06 X Black") format("svg"); /* iOS 4.1- */
	}
	@font-face {font-family: "NeueHaasUnicaW06-MediumIt";
		src: url("/Blog/main/fonts/NeueHaasUnicaW06/OnlineWebFonts_COM_d179b86ccc44b19f872ad2ce5d9141f0/@font-face/2a415f48f53c15b960c82ad93f0a2ee0.eot"); /* IE9*/
		src: url("/Blog/main/fonts/NeueHaasUnicaW06/OnlineWebFonts_COM_d179b86ccc44b19f872ad2ce5d9141f0/@font-face/2a415f48f53c15b960c82ad93f0a2ee0.eot?#iefix") format("embedded-opentype"), /* IE6-IE8 */
		url("/Blog/main/fonts/NeueHaasUnicaW06/OnlineWebFonts_COM_d179b86ccc44b19f872ad2ce5d9141f0/@font-face/2a415f48f53c15b960c82ad93f0a2ee0.woff") format("woff2"), /* chrome?firefox */
		url("/Blog/main/fonts/NeueHaasUnicaW06/OnlineWebFonts_COM_d179b86ccc44b19f872ad2ce5d9141f0/@font-face/2a415f48f53c15b960c82ad93f0a2ee0.woff2") format("woff"), /* chrome?firefox */
		url("/Blog/main/fonts/NeueHaasUnicaW06/OnlineWebFonts_COM_d179b86ccc44b19f872ad2ce5d9141f0/@font-face/2a415f48f53c15b960c82ad93f0a2ee0.ttf") format("truetype"), /* chrome?firefox?opera?Safari, Android, iOS 4.2+*/
		url("/Blog/main/fonts/NeueHaasUnicaW06/OnlineWebFonts_COM_d179b86ccc44b19f872ad2ce5d9141f0/@font-face/2a415f48f53c15b960c82ad93f0a2ee0.svg#Neue Haas Unica W06 X Black") format("svg"); /* iOS 4.1- */
	}
	@font-face {font-family: "NeueHaasUnicaW06-Thin";
		src: url("/Blog/main/fonts/NeueHaasUnicaW06/OnlineWebFonts_COM_e0d1d8bcd90f325e7a7f4a8b9636d78a/@font-face/740a2bcf13582a2a0ed99e15dffe7b9f.eot"); /* IE9*/
		src: url("/Blog/main/fonts/NeueHaasUnicaW06/OnlineWebFonts_COM_e0d1d8bcd90f325e7a7f4a8b9636d78a/@font-face/740a2bcf13582a2a0ed99e15dffe7b9f.eot?#iefix") format("embedded-opentype"), /* IE6-IE8 */
		url("/Blog/main/fonts/NeueHaasUnicaW06/OnlineWebFonts_COM_e0d1d8bcd90f325e7a7f4a8b9636d78a/@font-face/740a2bcf13582a2a0ed99e15dffe7b9f.woff") format("woff2"), /* chrome?firefox */
		url("/Blog/main/fonts/NeueHaasUnicaW06/OnlineWebFonts_COM_e0d1d8bcd90f325e7a7f4a8b9636d78a/@font-face/740a2bcf13582a2a0ed99e15dffe7b9f.woff2") format("woff"), /* chrome?firefox */
		url("/Blog/main/fonts/NeueHaasUnicaW06/OnlineWebFonts_COM_e0d1d8bcd90f325e7a7f4a8b9636d78a/@font-face/740a2bcf13582a2a0ed99e15dffe7b9f.ttf") format("truetype"), /* chrome?firefox?opera?Safari, Android, iOS 4.2+*/
		url("/Blog/main/fonts/NeueHaasUnicaW06/OnlineWebFonts_COM_e0d1d8bcd90f325e7a7f4a8b9636d78a/@font-face/740a2bcf13582a2a0ed99e15dffe7b9f.svg#Neue Haas Unica W06 X Black") format("svg"); /* iOS 4.1- */
	}
	@font-face {font-family: "NeueHaasUnicaW06-BoldItalic";
		src: url("/Blog/main/fonts/NeueHaasUnicaW06/OnlineWebFonts_COM_e4e54e1eb6c480425902156a32fef7d6/@font-face/61742cae2dd974e3c9604f614a4c57f1.eot"); /* IE9*/
		src: url("/Blog/main/fonts/NeueHaasUnicaW06/OnlineWebFonts_COM_e4e54e1eb6c480425902156a32fef7d6/@font-face/61742cae2dd974e3c9604f614a4c57f1.eot?#iefix") format("embedded-opentype"), /* IE6-IE8 */
		url("/Blog/main/fonts/NeueHaasUnicaW06/OnlineWebFonts_COM_e4e54e1eb6c480425902156a32fef7d6/@font-face/61742cae2dd974e3c9604f614a4c57f1.woff") format("woff2"), /* chrome?firefox */
		url("/Blog/main/fonts/NeueHaasUnicaW06/OnlineWebFonts_COM_e4e54e1eb6c480425902156a32fef7d6/@font-face/61742cae2dd974e3c9604f614a4c57f1.woff2") format("woff"), /* chrome?firefox */
		url("/Blog/main/fonts/NeueHaasUnicaW06/OnlineWebFonts_COM_e4e54e1eb6c480425902156a32fef7d6/@font-face/61742cae2dd974e3c9604f614a4c57f1.ttf") format("truetype"), /* chrome?firefox?opera?Safari, Android, iOS 4.2+*/
		url("/Blog/main/fonts/NeueHaasUnicaW06/OnlineWebFonts_COM_e4e54e1eb6c480425902156a32fef7d6/@font-face/61742cae2dd974e3c9604f614a4c57f1.svg#Neue Haas Unica W06 X Black") format("svg"); /* iOS 4.1- */
	}
	@font-face {font-family: "NeueHaasUnicaW06-Medium";
		src: url("/Blog/main/fonts/NeueHaasUnicaW06/OnlineWebFonts_COM_e009de3bc4003d481f48e90c6efd332f/@font-face/9c0afb6841117a1e2256b49b040cb768.eot"); /* IE9*/
		src: url("/Blog/main/fonts/NeueHaasUnicaW06/OnlineWebFonts_COM_e009de3bc4003d481f48e90c6efd332f/@font-face/9c0afb6841117a1e2256b49b040cb768.eot?#iefix") format("embedded-opentype"), /* IE6-IE8 */
		url("/Blog/main/fonts/NeueHaasUnicaW06/OnlineWebFonts_COM_e009de3bc4003d481f48e90c6efd332f/@font-face/9c0afb6841117a1e2256b49b040cb768.woff") format("woff2"), /* chrome?firefox */
		url("/Blog/main/fonts/NeueHaasUnicaW06/OnlineWebFonts_COM_e009de3bc4003d481f48e90c6efd332f/@font-face/9c0afb6841117a1e2256b49b040cb768.woff2") format("woff"), /* chrome?firefox */
		url("/Blog/main/fonts/NeueHaasUnicaW06/OnlineWebFonts_COM_e009de3bc4003d481f48e90c6efd332f/@font-face/9c0afb6841117a1e2256b49b040cb768.ttf") format("truetype"), /* chrome?firefox?opera?Safari, Android, iOS 4.2+*/
		url("/Blog/main/fonts/NeueHaasUnicaW06/OnlineWebFonts_COM_e009de3bc4003d481f48e90c6efd332f/@font-face/9c0afb6841117a1e2256b49b040cb768.svg#Neue Haas Unica W06 X Black") format("svg"); /* iOS 4.1- */
	}
	@font-face {font-family: "NeueHaasUnicaW06-BlackIt";
		src: url("/Blog/main/fonts/NeueHaasUnicaW06/OnlineWebFonts_COM_f0d250fc9c4208c6c78408a38db68150/@font-face/15e7a19454566924256299df2a72ab91.eot"); /* IE9*/
		src: url("/Blog/main/fonts/NeueHaasUnicaW06/OnlineWebFonts_COM_f0d250fc9c4208c6c78408a38db68150/@font-face/15e7a19454566924256299df2a72ab91.eot?#iefix") format("embedded-opentype"), /* IE6-IE8 */
		url("/Blog/main/fonts/NeueHaasUnicaW06/OnlineWebFonts_COM_f0d250fc9c4208c6c78408a38db68150/@font-face/15e7a19454566924256299df2a72ab91.woff") format("woff2"), /* chrome?firefox */
		url("/Blog/main/fonts/NeueHaasUnicaW06/OnlineWebFonts_COM_f0d250fc9c4208c6c78408a38db68150/@font-face/15e7a19454566924256299df2a72ab91.woff2") format("woff"), /* chrome?firefox */
		url("/Blog/main/fonts/NeueHaasUnicaW06/OnlineWebFonts_COM_f0d250fc9c4208c6c78408a38db68150/@font-face/15e7a19454566924256299df2a72ab91.ttf") format("truetype"), /* chrome?firefox?opera?Safari, Android, iOS 4.2+*/
		url("/Blog/main/fonts/NeueHaasUnicaW06/OnlineWebFonts_COM_f0d250fc9c4208c6c78408a38db68150/@font-face/15e7a19454566924256299df2a72ab91.svg#Neue Haas Unica W06 X Black") format("svg"); /* iOS 4.1- */
	}
</style>
<title>Problems</title>
<text transform="matrix(1 0 0 1 55.095 249.8)" style="fill:#1D1D1B; font-family:'NeueHaasUnicaW06-Regular'; font-size:56.69px;">1</text>
<text transform="matrix(1 0 0 1 55.095 451.4)" style="fill:#1D1D1B; font-family:'NeueHaasUnicaW06-Regular'; font-size:56.69px;">2</text>
<text transform="matrix(1 0 0 1 55.095 675.93)" style="fill:#1D1D1B; font-family:'NeueHaasUnicaW06-Regular'; font-size:56.69px;">3</text>
<path style="fill:#E2624A;" d="M224.725,547.83l-11.7-0.23c0.036-0.196-0.046-0.396-0.21-0.51c0-8.407,0-16.81,0-25.21v-25.93v-1.5
	v-25.2v-1.49v-24.48v-1.5v-26.69l0.3-22.84c0.199,0.035,0.402-0.033,0.54-0.18h11.8c0.311,1.265,0.525,2.552,0.64,3.85
	c0.11,6.39,0.13,12.77,0.18,19.16v3.72c0,7.907,0,15.817,0,23.73c-0.06,1.59-0.16,3.19-0.17,4.79v100.22L224.725,547.83z"/>
<path style="fill:#E0634B;" d="M193.505,441.78c0-8.387,0-16.78,0-25.18v-1.53c0.29-3.26,0.57-6.52,0.86-9.78h11
	c0.48,1,1.28,1.88,1.39,2.88c0.26,2.3,0.18,4.63,0.24,6.95v1.5c0,8.4,0,16.8,0,25.2v1.5v24.46v1.49v25.2v1.5v24.46v1.5l-0.04,25.15
	c-0.164,0.113-0.243,0.315-0.2,0.51h-13c0.05-0.19-0.026-0.391-0.19-0.5c0-8.4,0-16.803,0-25.21v-1.49c0-7.913,0-15.82,0-23.72
	v-28.93c0-7.913,0-15.82,0-23.72L193.505,441.78z"/>
<path style="fill:#698CC6;" d="M155.015,494.44c0-8.413,0-16.82,0-25.22v-27.41c0.133-0.078,0.287-0.11,0.44-0.09l1-0.64l12,0.71
	v1.48c0,8.16,0,16.317,0,24.47v1.49v49.68v3l-0.06,25.21c-0.177,0.093-0.262,0.3-0.2,0.49c-0.214-0.026-0.426,0.061-0.56,0.23
	c-0.068-0.159-0.111-0.328-0.13-0.5l-0.35-0.48l-0.25,0.56c0,0.14-0.08,0.29-0.11,0.43l-10.37-0.4l-1-1
	c-0.16-0.03-0.313-0.091-0.45-0.18c0-8.133,0-16.263,0-24.39v-2.23v-23L155.015,494.44z"/>
<path style="fill:#698CC6;" d="M186.115,547.81l-10.35-0.4l-1.15-1.05l-0.36-24.48l0.12-2.25v-1.44c0-6.667-0.017-13.37-0.05-20.11
	c0.06-0.199,0.06-0.411,0-0.61l-0.09-2.29v-0.74c0-8.4,0-16.803,0-25.21v-1.49l0.36-23l1.14-1.1h10.41l1.25,1.09l0.33,23v27.44
	v25.21v1.49l-0.27,24.48l-1.26,1C186.193,547.507,186.166,547.662,186.115,547.81z"/>
<path style="fill:#E56348;" d="M251.235,469.23v-17.57h13.64v16.81c0,0.26,0,0.51,0,0.77v25.19c-0.067,17.76-0.133,35.517-0.2,53.27
	h-13.44v-25.82c0-1.24,0-2.47,0-3.71v-20c0-1.24,0-2.48,0-3.71V469.23z"/>
<path style="fill:#E66449;" d="M329.285,547.87l-1.26-0.36c0.07-5.28,0.2-10.56,0.18-15.84c0-12.41-0.14-24.82-0.22-37.22v-11.5
	h13.91v11.45l-0.15,53.17l-1.34,0.24h-6.67L329.285,547.87z"/>
<path style="fill:#698CC6;" d="M149.005,473.69l0.3,20.75v2.22c0,7.673,0,15.34,0,23v2.23l-0.3,24.46c-3,0-5.94-0.09-8.89,0.07
	c-2.32,0.12-3-0.84-2.95-3c0.047-22.24,0.047-44.477,0-66.71c0-2.2,0.63-3.16,2.94-3C143.065,473.77,146.035,473.68,149.005,473.69z
	"/>
<path style="fill:#698CC6;" d="M385.885,494.45c0.15-2.42,0.29-4.83,0.45-7.39h12.7c0.14,2.56,0.28,5,0.42,7.39
	c-0.073,8.507-0.15,17.013-0.23,25.52c-0.087,9.24-0.183,18.483-0.29,27.73h-12.49c-0.1-3.32-0.28-6.64-0.3-10
	C386.018,523.3,385.932,508.883,385.885,494.45z"/>
<path style="fill:#E56349;" d="M308.795,494.45c0.16-3.3,0.33-6.59,0.5-10.09h13.37v10.08c-0.06,17.733-0.117,35.467-0.17,53.2
	l-2.85,0.2h-6.69l-3.86-0.41c0-7.07,0-14,0-20.83C309.025,515.88,308.895,505.16,308.795,494.45z"/>
<path style="fill:#698CC6;" d="M360.405,547.75l-11.1,0.1c-0.53-1.28-1.52-2.55-1.53-3.84c-0.18-16.52-0.22-33-0.29-49.58v-13.85
	h13.58v13.83c-0.113,8.46-0.22,16.92-0.32,25.38C360.638,529.11,360.525,538.43,360.405,547.75z"/>
<path style="fill:#E56145;" d="M418.265,477.39c0,5.673,0,11.34,0,17v51.96c-3.08,0-6.16-0.06-9.24,0
	c-1.84,0.05-2.66-0.57-2.66-2.54c0.047-21.333,0.047-42.637,0-63.91c0-2,0.79-2.61,2.65-2.56
	C412.105,477.45,415.185,477.39,418.265,477.39z"/>
<path style="fill:#698CC6;" d="M379.645,547.71h-12.47c-0.06-3.58-0.16-7.15-0.18-10.72c-0.08-14.187-0.15-28.37-0.21-42.55
	c0.12-2.92,0.243-5.84,0.37-8.76l11.82-0.17c0.38,3,0.77,5.95,1.15,8.93c-0.08,2-0.23,3.93-0.24,5.9
	C379.792,516.127,379.712,531.917,379.645,547.71z"/>
<path style="fill:#E56349;" d="M303.235,547.67l-2.13,0.17h-5.93l-5.31-0.39c0-1.68,0-3.14,0-4.6c-0.06-16.14-0.127-32.28-0.2-48.42
	c0.14-1.55,0.28-3.1,0.45-5.05h12.84c0.17,2,0.3,3.51,0.44,5.06L303.235,547.67z"/>
<path style="fill:#E56349;" d="M270.455,494.43c0.68-0.76,1.31-2.12,2.05-2.17c3.172-0.245,6.358-0.245,9.53,0
	c0.74,0.06,1.39,1.43,2.08,2.19l-0.16,53.23l-1.4,0.17l-11.82-0.12c0-2.84-0.09-5.68-0.1-8.51
	C270.575,524.293,270.515,509.363,270.455,494.43z"/>
<path style="fill:#698CC6;" d="M437.515,484.8l0.36,9.63c-0.07,1.59-0.19,3.18-0.2,4.78c-0.06,15.713-0.11,31.427-0.15,47.14
	c-2.71,0-5.43-0.17-8.12,0.05c-2.9,0.23-3.81-0.74-3.78-3.71c0.13-16.88,0.06-33.76,0.06-50.63c0-8.46,1.56-9.65,10.06-7.75
	C436.345,484.45,436.955,484.64,437.515,484.8z"/>
<path style="fill:#698CC6;" d="M456.705,486.33c0.12,2.7,0.25,5.41,0.37,8.11v2.23v23c0,9.173,0,18.34,0,27.5l-0.29-0.14
	c-2.92-0.21-5.84-0.57-8.77-0.57c-2.17,0-3.06-0.63-3.05-3c0.067-17.867,0.067-35.737,0-53.61c0-2.31,0.88-2.93,3.05-2.94
	C450.865,486.95,453.785,486.55,456.705,486.33z"/>
<path style="fill:#FDFDFD;" d="M226.095,547.54V447.32c0-1.6,0.11-3.2,0.17-4.79h5.74c0.06,2.09,0.16,4.19,0.17,6.28l0.12,98.18
	c-0.096,0.228-0.144,0.473-0.14,0.72v0.86h-5.94L226.095,547.54z"/>
<path style="fill:#698CC6;" d="M476.575,521.27l-0.12,25.82l-13.34,0.59c-0.005-0.229-0.115-0.444-0.3-0.58l-0.06-27.45v-8.7h13.71
	v8.67C476.505,520.19,476.535,520.73,476.575,521.27z"/>
<path style="fill:#FEFEFE;" d="M283.955,547.68l0.15-53.24h5.55c0.067,16.14,0.133,32.28,0.2,48.42c0,1.46,0,2.92,0,4.6l5.31,0.39
	c-0.46,0.48-1,1.41-1.36,1.36C290.525,548.8,287.245,548.21,283.955,547.68z"/>
<path style="fill:#FEFEFE;" d="M303.235,547.67l0.16-53.23h5.4c0.1,10.71,0.23,21.43,0.31,32.15c0,6.88,0,13.76,0,20.83l3.86,0.41
	c-0.33,0.46-0.73,1.35-1,1.31C309.055,548.74,306.145,548.18,303.235,547.67z"/>
<path style="fill:#FDFAF9;" d="M270.455,494.43c0.06,14.927,0.123,29.857,0.19,44.79c0,2.83,0.06,5.67,0.1,8.51
	c0,0.28,0,0.56,0,0.84l-6-0.87c0.06-17.747,0.127-35.503,0.2-53.27L270.455,494.43z"/>
<path style="fill:#698CC6;" d="M482.025,547.09v-21.7h13.46v21.7c-0.172,0.112-0.256,0.32-0.21,0.52h-13.07
	C482.298,547.417,482.218,547.184,482.025,547.09z"/>
<path style="fill:#FEFEFE;" d="M322.495,547.64c0.06-17.733,0.117-35.467,0.17-53.2h5.29c0.08,12.41,0.19,24.82,0.22,37.23
	c0,5.28-0.11,10.56-0.18,15.84L322.495,547.64z"/>
<path style="fill:#698CC6;" d="M149.005,473.69c-3,0-5.94,0.08-8.9-0.07c-2.31-0.12-3,0.84-2.94,3c0.047,22.24,0.047,44.477,0,66.71
	c0,2.2,0.63,3.16,2.95,3c3-0.16,5.92-0.06,8.89-0.07l0.27,0.75c-0.165,0.153-0.263,0.365-0.27,0.59l-13.05-0.08
	c0.08-0.157,0.017-0.35-0.14-0.43c0-8.4-0.023-16.803-0.07-25.21v-2.23v-23c0-0.74,0-1.48,0-2.22v-22.11c4.45,0,8.24,0,12,0.06
	C148.175,472.39,148.585,473.23,149.005,473.69z"/>
<path style="fill:#E15D42;" d="M413.825,547.8h-8.51v-4.49c0-14.813,0-29.627,0-44.44c0-1.48-0.14-2.95-0.22-4.43v-18.63l13.18,1.58
	c-3.08,0-6.16,0.06-9.23,0c-1.86-0.05-2.65,0.6-2.65,2.56c0.047,21.3,0.047,42.603,0,63.91c0,2,0.82,2.59,2.66,2.54
	c3.08-0.08,6.16,0,9.24,0l-3,1.45L413.825,547.8z"/>
<path style="fill:#698CC6;" d="M437.525,546.35v1.33l-13-0.35c-0.047-17.627-0.1-35.257-0.16-52.89v-11.49
	c4.39,0,8.27-0.05,12.14,0.08c0.37,0,0.71,1.16,1.06,1.78c-0.59-0.16-1.17-0.35-1.77-0.49c-8.5-1.9-10.06-0.71-10.06,7.75
	c0,16.87,0.07,33.75-0.06,50.63c0,3,0.88,3.94,3.78,3.71C432.095,546.18,434.815,546.35,437.525,546.35z"/>
<path style="fill:#698CC6;" d="M443.635,547.53l-0.2-53.09v-8.49l4.5-0.43h6.67l2.1,0.86c-2.92,0.22-5.84,0.6-8.76,0.61
	c-2.17,0-3.06,0.63-3.05,2.94c0.067,17.873,0.067,35.743,0,53.61c0,2.32,0.88,2.94,3.05,3c2.93,0,5.85,0.36,8.77,0.57
	L443.635,547.53z"/>
<path style="fill:#D99082;" d="M245.595,441.77v0.78c0,8.887,0.017,17.78,0.05,26.68c0,8.4,0,16.803,0,25.21c0,0.74,0,1.49,0,2.23
	c0,8.16,0,16.313,0,24.46v0.75c0,8.4,0,16.803,0,25.21c-0.112,0.211-0.18,0.442-0.2,0.68l0,0l-1.43,0.19h-10.39l-1.44-0.23
	c-0.004-0.247,0.044-0.492,0.14-0.72l0.63-0.06l0.31,0.09h0.33h10.43l0.7-0.68V432.88l-0.71-0.71h-10.41
	c-0.223-0.025-0.448,0.013-0.65,0.11h-0.62v-0.77c3.32,0,6.65,0.11,10-0.12c2.71-0.19,3.42,0.93,3.26,3.42
	C245.385,437.09,245.565,439.44,245.595,441.77z"/>
<path style="fill:#FEFEFE;" d="M232.315,431.47c0,0.26,0,0.51,0,0.77l-0.3,10.29h-5.74c0-7.907,0-15.817,0-23.73
	c0.47,1.09,1.32,2.18,1.35,3.28c0.14,5.41,0,10.82,0.08,16.23c0.064,1.112,0.187,2.221,0.37,3.32h1.53
	c-0.052-1.858,0.078-3.717,0.39-5.55C230.593,434.461,231.372,432.915,232.315,431.47z"/>
<path style="fill:#FEFEFE;" d="M270.705,548.57c0-0.28,0-0.56,0-0.84l11.82,0.12c-0.34,0.46-0.69,1.33-1,1.32
	C277.955,549.05,274.315,548.79,270.705,548.57z"/>
<path style="fill:#FEFEFE;" d="M251.255,518.17c0,1.24,0,2.47,0,3.71h-5v-0.74L251.255,518.17z"/>
<path style="fill:#FDFDFD;" d="M206.755,547.59c-0.043-0.195,0.036-0.397,0.2-0.51h5.86c0.164,0.114,0.246,0.314,0.21,0.51H206.755z
	"/>
<path style="fill:#FDFDFD;" d="M207.005,416.58v-1.5h5.77v1.49L207.005,416.58z"/>
<path style="fill:#FEFEFE;" d="M205.375,405.25h-11H205.375z"/>
<path style="fill:#FEFEFE;" d="M314.455,547.84h5.19C317.735,549.95,316.365,549.95,314.455,547.84z"/>
<path style="fill:#FEFEFE;" d="M296.655,547.84h4.45C299.625,550.127,298.142,550.127,296.655,547.84z"/>
<path style="fill:#FEFEFE;" d="M329.285,547.87h4.45C332.265,550.13,330.785,550.1,329.285,547.87z"/>
<path style="fill:#FEFEFE;" d="M335.955,547.84h4.45C338.955,550.12,337.445,550.13,335.955,547.84z"/>
<path style="fill:#FEFEFE;" d="M498.355,469.22l-1.47-0.75c0.535-0.51,1.121-0.962,1.75-1.35c0.17-0.09,0.69,0.49,1,0.77
	L498.355,469.22z"/>
<path style="fill:#FEFEFE;" d="M245.405,547.77c0.02-0.238,0.088-0.469,0.2-0.68h3.56v0.68H245.405z"/>
<path style="fill:#FEFEFE;" d="M244.005,547.95l1.43-0.19c-0.26,0.42-0.52,0.84-0.77,1.26L244.005,547.95z"/>
<path style="fill:#FEFEFE;" d="M226.095,547.54l0.11,1l-1.48-0.74L226.095,547.54z"/>
<path style="fill:#FEFEFE;" d="M232.185,547.71l1.44,0.23l-1.48,0.63L232.185,547.71z"/>
<path style="fill:#698CC6;" d="M155.495,546.45l1,1l-0.78-0.32l-0.1-0.2l-0.2-0.19L155.495,546.45z"/>
<path style="fill:#698CC6;" d="M155.605,546.89l0.1,0.21c-0.106,0.19-0.295,0.319-0.51,0.35l-0.09-0.28l0,0
	C155.281,547.095,155.449,547.001,155.605,546.89z"/>
<path style="fill:#698CC6;" d="M166.855,547.82c0-0.14,0.07-0.29,0.11-0.43l0.32,0.09l0.28-0.17c0.019,0.172,0.062,0.341,0.13,0.5
	L166.855,547.82z"/>
<path style="fill:#698CC6;" d="M156.495,441.08l-1,0.64L156.495,441.08z"/>
<path style="fill:#FDFDFD;" d="M246.235,521.14v0.74h-0.62c0-0.25,0-0.5,0-0.75L246.235,521.14z"/>
<path style="fill:#FFFFFF;" d="M245.635,494.44c0-8.413,0-16.817,0-25.21h5.59v25.21H245.635z"/>
<path style="fill:#FFFFFF;" d="M207.005,416.58h5.77c0,8.4,0,16.8,0,25.2h-5.75C207.018,433.38,207.012,424.98,207.005,416.58z"/>
<path style="fill:#FFFFFF;" d="M207.015,494.43v-25.2h5.75v25.2H207.015z"/>
<path style="fill:#FFFFFF;" d="M212.815,547.09h-5.86l0.06-25.19h5.76C212.788,530.287,212.802,538.683,212.815,547.09z"/>
<path style="fill:#FFFFFF;" d="M206.955,520.39v-24.44h5.79v24.46L206.955,520.39z"/>
<path style="fill:#FFFFFF;" d="M206.955,467.74v-24.46h5.79v24.46L206.955,467.74z"/>
<path style="fill:#FDFDFD;" d="M213.615,392.07L213.615,392.07z"/>
<path style="fill:#FDFDFD;" d="M212.785,443.28h-5.83v-1.5h5.75C212.775,442.28,212.785,442.78,212.785,443.28z"/>
<path style="fill:#FDFDFD;" d="M212.785,495.95h-5.83v-1.5h5.75L212.785,495.95z"/>
<path style="fill:#FDFDFD;" d="M206.955,467.74h5.79v1.49h-5.75L206.955,467.74z"/>
<path style="fill:#FDFDFD;" d="M206.955,520.39h5.79v1.49h-5.76L206.955,520.39z"/>
<path style="fill:#698CC6;" d="M167.565,547.31l-0.28,0.17l-0.32-0.09c0.08-0.18,0.16-0.37,0.25-0.56L167.565,547.31z"/>
<path style="fill:#698CC6;" d="M155.085,547.19c0-0.31,0-0.62,0-0.92c0.137,0.089,0.29,0.15,0.45,0.18l-0.09,0.26l0.2,0.19
	C155.468,547.014,155.281,547.112,155.085,547.19z"/>
<path style="fill:#698CC6;" d="M187.645,444.01l-0.22,0.73l-1.25-1.09L187.645,444.01z"/>
<path style="fill:#698CC6;" d="M174.625,444.74c0-0.43,0-0.86,0-1.29l1.1,0.19L174.625,444.74z"/>
<path style="fill:#698CC6;" d="M187.495,546.36l0.24,0.75l-1.5,0.28L187.495,546.36z"/>
<path style="fill:#FFFFFF;" d="M246.235,521.14h-0.6c0-8.153,0-16.307,0-24.46l5.64,1.48v20L246.235,521.14z"/>
<path style="fill:#FEFEFE;" d="M251.255,498.15l-5.64-1.48c0-0.74,0-1.49,0-2.23h5.6L251.255,498.15z"/>
<path style="fill:#E15D42;" d="M418.285,521.1c0.066,0.18,0.119,0.363,0.16,0.55c0,0.08-0.11,0.17-0.16,0.25V521.1z"/>
<path style="fill:#E46247;" d="M232.035,442.53l0.3-10.29h0.62l0.65-0.11h10.41l0.71,0.71v113.52c-0.23,0.23-0.46,0.46-0.7,0.68
	h-10.43l-0.64-0.09l-0.63,0.06l-0.12-98.18C232.195,446.72,232.095,444.62,232.035,442.53z"/>
<path style="fill:#E4583C;" d="M233.605,432.18l-0.65,0.11C233.157,432.193,233.382,432.155,233.605,432.18z"/>
<path style="fill:#E4583C;" d="M244.725,432.88l-0.71-0.71L244.725,432.88z"/>
<path style="fill:#E4583C;" d="M232.955,546.95l0.64,0.09h-0.33L232.955,546.95z"/>
<path style="fill:#E4583C;" d="M244.025,547.04c0.24-0.22,0.47-0.45,0.7-0.68L244.025,547.04z"/>
<path style="fill:#F8AE45;" d="M410.465,349.31c0.194-0.492,0.662-0.821,1.19-0.84c0.471-0.068,0.945-0.111,1.42-0.13
	c38.767,0,77.537,0,116.31,0c0.68,0,1.37,0,2.05,0.09c0.86,0.06,1.15,0.32,1.26,1.18c0.08,0.539,0.11,1.085,0.09,1.63
	c0.066,0.654-0.41,1.238-1.064,1.304c-0.035,0.004-0.071,0.006-0.106,0.006c-0.709,0.097-1.424,0.144-2.14,0.14h-21.52l-95.36-0.08
	h-0.72c-1.18,0-1.19,0-1.3-1.18C410.515,350.75,410.485,350.03,410.465,349.31z"/>
<path style="fill:#489341;" d="M281.325,261.5h-48.65h-10.46h-0.62c-1.44,0-1.72-0.37-1.59-1.81c0.03-0.58,0.03-1.16,0-1.74
	c-0.053-0.366,0.201-0.706,0.567-0.759c0.061-0.009,0.122-0.009,0.183-0.001h68.76h50.38c0.479-0.017,0.958,0.016,1.43,0.1
	c0.627,0.061,1.085,0.619,1.024,1.246c-0.005,0.049-0.013,0.097-0.024,0.144c0,0.71-0.09,1.42-0.12,2.14c0,0.46-0.22,0.69-0.69,0.68
	c-0.31,0-0.62,0-0.93,0H281.325z"/>
<path style="fill:#489341;" d="M403.855,243.2h-58.9c-0.31,0-0.62,0-0.92,0c-0.7-0.07-1.09-0.4-1.12-1.1
	c-0.03-0.716,0.01-1.432,0.12-2.14c0.11-0.77,0.37-1,1.16-1c0.54,0,1.09,0,1.64,0h116.49c0.37,0,0.75,0,1.13,0
	c1.05,0.06,1.48,0.48,1.48,1.55c0,0.61-0.1,1.22-0.16,1.83c-0.029,0.468-0.402,0.841-0.87,0.87c-0.442,0.047-0.886,0.063-1.33,0.05
	L403.855,243.2z"/>
<path style="fill:#F8AF48;" d="M255.325,351.95c-0.165,0.475-0.658,0.753-1.15,0.65c-0.41,0-0.82,0-1.23,0h-71.32h-45.26
	c-0.615,0.019-1.231-0.018-1.84-0.11c-0.706-0.028-1.256-0.623-1.228-1.33c0.002-0.057,0.008-0.114,0.018-0.17
	c0.012-0.513,0.059-1.024,0.14-1.53c0.12-0.79,0.42-1.07,1.21-1.13s1.3-0.05,2-0.05h115.61c0.54,0,1.09,0,1.64,0
	c0.715-0.052,1.354,0.444,1.48,1.15C255.365,350.28,255.345,351.1,255.325,351.95z"/>
<path style="fill:#489341;" d="M403.075,261.5h-47h-10.87h-0.83c-1.24,0-1.56-0.39-1.52-1.63c0-0.61,0-1.23,0-1.84
	c0-0.61,0.23-0.78,0.81-0.83c0.24,0,0.48,0,0.72,0h65.89h50.29c0.479-0.014,0.959,0.023,1.43,0.11
	c0.551,0.037,0.968,0.513,0.931,1.065c-0.002,0.032-0.006,0.064-0.011,0.095c0,0.79,0,1.58,0,2.36
	c0.037,0.34-0.209,0.646-0.549,0.683c-0.053,0.006-0.108,0.005-0.161-0.003h-59.13V261.5z"/>
<path style="fill:#F8AF48;" d="M259.235,343.08c-0.224,0.355-0.633,0.55-1.05,0.5c-0.41,0-0.82,0-1.23,0h-79.65
	c-11.26,0-22.517,0-33.77,0c-0.581,0.015-1.162-0.005-1.74-0.06c-0.773-0.013-1.389-0.651-1.376-1.424
	c0.001-0.062,0.006-0.124,0.016-0.186c0.027-0.513,0.084-1.024,0.17-1.53c0.1-0.69,0.35-1,1-1.06c0.578-0.063,1.159-0.087,1.74-0.07
	h113.77c0.702-0.058,1.404,0.114,2,0.49c0.078,0.396,0.131,0.797,0.16,1.2C259.255,341.66,259.235,342.37,259.235,343.08z"/>
<path style="fill:#489341;" d="M283.685,238.89h56.14c0.443-0.025,0.887-0.025,1.33,0c0.668-0.019,1.225,0.507,1.244,1.175
	c0.003,0.092-0.005,0.184-0.024,0.275c0,0.72-0.09,1.43-0.12,2.15c0.025,0.353-0.241,0.659-0.593,0.684
	c-0.042,0.003-0.085,0.002-0.127-0.004h-114.23c-1.55,0-1.81-0.29-1.74-1.8c0-0.54,0-1.09,0-1.64c0-0.71,0.13-0.84,0.83-0.86
	s1.23,0,1.85,0h55.42L283.685,238.89z"/>
<path style="fill:#489341;" d="M227.115,321.21c0.362-0.079,0.73-0.129,1.1-0.15c4.353,0,8.687,0,13,0h99
	c0.407-0.01,0.813,0.03,1.21,0.12c0.552,0.027,0.977,0.496,0.95,1.047c-0.002,0.034-0.005,0.069-0.01,0.103c0,0.78,0,1.56-0.05,2.34
	c0.035,0.352-0.221,0.666-0.573,0.701c-0.046,0.005-0.092,0.004-0.137-0.001h-87.15c-8.35,0-16.7,0.07-25,0.08
	c-0.671-0.036-1.339-0.116-2-0.24c0-0.82,0-1.64,0.12-2.45C227.657,322.201,227.489,321.634,227.115,321.21z"/>
<path style="fill:#489341;" d="M342.235,270.28c-0.53,0-0.9,0.06-1.26,0.06h-123.7c-0.41,0-0.82,0.07-1.23,0.1
	c-0.58,0.05-0.87-0.12-0.9-0.7c-0.06-0.88,0-1.77,0-2.66c-0.028-0.341,0.226-0.64,0.568-0.668c0.054-0.004,0.109-0.002,0.162,0.008
	c0.31,0,0.62,0,0.93,0h122.66c0.62,0,1.23-0.05,1.85-0.05s0.87,0.13,0.91,0.82C342.275,268.16,342.235,269.15,342.235,270.28z"/>
<path style="fill:#489341;" d="M285.325,247.73h54.71c0.41-0.025,0.82-0.025,1.23,0c0.613,0.006,1.105,0.508,1.099,1.121
	c0,0.043-0.003,0.086-0.009,0.129c0,0.78-0.07,1.56-0.1,2.34c0.025,0.353-0.241,0.659-0.593,0.684
	c-0.042,0.003-0.085,0.002-0.127-0.004h-110.35c-0.443,0.03-0.887,0.03-1.33,0c-0.656-0.038-1.157-0.601-1.119-1.257
	c0.002-0.031,0.005-0.062,0.009-0.093c0-0.72,0.09-1.43,0.11-2.15c0-0.49,0.22-0.77,0.74-0.76h55.73V247.73z"/>
<path style="fill:#489341;" d="M231.955,311.59h1.44h53.48h52.66c0.48,0,1,0,1.43,0c0.739-0.036,1.368,0.534,1.404,1.273
	c0.003,0.062,0.002,0.125-0.004,0.187c-0.016,0.67-0.079,1.339-0.19,2c-0.062,0.468-0.479,0.806-0.95,0.77c-0.51,0-1,0-1.54,0
	h-106.73c-0.467-0.028-0.932-0.092-1.39-0.19c0.83-0.19,0.84-0.19,0.85-0.93c-0.035-0.536-0.035-1.074,0-1.61
	C232.519,312.545,232.347,311.983,231.955,311.59z"/>
<path style="fill:#489341;" d="M397.135,247.73h52.35c0.41-0.025,0.82-0.025,1.23,0c0.63,0.008,1.134,0.524,1.126,1.154
	c-0.001,0.059-0.006,0.118-0.016,0.176c0,0.74,0,1.49-0.05,2.24c0.018,0.37-0.268,0.684-0.637,0.701
	c-0.028,0.001-0.055,0.001-0.083-0.001h-105.83c-0.409,0.03-0.821,0.03-1.23,0c-0.652-0.001-1.179-0.529-1.179-1.181
	c0-0.07,0.006-0.14,0.019-0.209c0-0.68,0-1.36,0-2s0.21-0.81,0.88-0.84h53.38L397.135,247.73z"/>
<path style="fill:#489341;" d="M233.855,302.95c0.328-0.095,0.662-0.165,1-0.21c0.72,0,1.44,0,2.16,0h94.94h8.32
	c0.306-0.02,0.614-0.02,0.92,0c0.652-0.014,1.191,0.503,1.205,1.154c0.002,0.072-0.003,0.144-0.015,0.216
	c0,0.72-0.09,1.43-0.11,2.14c0,0.5-0.22,0.78-0.73,0.78h-75.37h-30c-0.75,0.097-1.512-0.017-2.2-0.33c0-0.77,0.06-1.54,0-2.31
	C233.964,303.908,233.924,303.427,233.855,302.95z"/>
<path style="fill:#489341;" d="M394.455,225.18h-49.26c-0.38,0-0.76,0-1.13,0c-0.628,0.052-1.178-0.415-1.229-1.043
	c-0.007-0.089-0.004-0.179,0.01-0.267c0-0.72,0-1.43,0-2.14s0.23-0.81,0.81-0.83c0.58-0.02,1.3,0,1.95,0h97.59
	c0.479-0.012,0.958,0.022,1.43,0.1c0.615,0.062,1.064,0.611,1.003,1.226c-0.001,0.008-0.002,0.016-0.003,0.024
	c0,0.75-0.09,1.49-0.11,2.24c0.04,0.362-0.222,0.688-0.584,0.728c-0.065,0.007-0.131,0.005-0.196-0.008h-50.28V225.18z"/>
<path style="fill:#F8AF48;" d="M248.695,334.1c-0.361,0.089-0.729,0.149-1.1,0.18h-66.82c-10.54,0-21.077,0-31.61,0
	c-0.549,0.017-1.098-0.017-1.64-0.1c-0.645-0.031-1.143-0.58-1.112-1.225c0.001-0.012,0.001-0.023,0.002-0.035
	c-0.004-0.751,0.063-1.501,0.2-2.24c0.07-0.47,0.45-0.66,0.9-0.69s0.89,0,1.33,0h64.56h28.64c1.47,0,2.94-0.06,4.41-0.06
	c0.788-0.107,1.589,0.078,2.25,0.52C248.705,331.66,248.695,332.88,248.695,334.1z"/>
<path style="fill:#489341;" d="M291.325,225.18h-49.17c-0.41,0.025-0.82,0.025-1.23,0c-0.552,0.003-1.003-0.442-1.006-0.994
	c0-0.039,0.002-0.078,0.006-0.116c0-0.82,0-1.64,0-2.46c-0.042-0.34,0.2-0.649,0.54-0.691c0.053-0.007,0.107-0.006,0.16,0.001h99.33
	c0.479-0.017,0.958,0.016,1.43,0.1c0.611,0.05,1.065,0.586,1.015,1.197c-0.003,0.038-0.008,0.075-0.015,0.113
	c0,0.75-0.08,1.5-0.13,2.24c0.028,0.336-0.222,0.63-0.557,0.658c-0.024,0.002-0.048,0.003-0.073,0.002h-50.3V225.18z"/>
<path style="fill:#489341;" d="M444.225,279.26c-0.328,0.11-0.662,0.2-1,0.27c-0.376,0.02-0.754,0.02-1.13,0h-97.14
	c-1.91,0-2.22-0.36-2-2.25c0.02-0.373,0.02-0.747,0-1.12c0-0.72,0.18-0.92,0.89-0.94h89.93c2.94,0,5.88,0,8.83,0
	c0.618-0.074,1.235,0.144,1.67,0.59L444.225,279.26z"/>
<path style="fill:#489341;" d="M443.215,324.55c-0.25,0.544-0.827,0.861-1.42,0.78c-0.45,0-0.89,0-1.34,0h-73.18
	c-7.32,0-14.64,0.07-22,0.12c-2.19,0-2.57-0.38-2.45-2.58c0.005-0.067,0.005-0.133,0-0.2c0.11-1.34,0.37-1.59,1.71-1.63h88
	c3,0,6,0,8.93,0c0.691-0.113,1.386,0.178,1.79,0.75C443.245,322.69,443.235,323.62,443.215,324.55z"/>
<path style="fill:#489341;" d="M442.955,314.01c-0.038,0.057-0.062,0.122-0.07,0.19c-0.2,1.53-0.32,1.64-1.85,1.67h-96.76
	c-1-0.06-1.4-0.45-1.41-1.49c0.003-0.579,0.047-1.157,0.13-1.73c0.11-0.78,0.34-1,1.12-1.06c0.41,0,0.82,0,1.23,0h95.85
	c0.7,0,1.4,0,1.71,0.8L442.955,314.01z"/>
<path style="fill:#489341;" d="M452.305,270.34h-106.91c-0.441,0.005-0.882,0.035-1.32,0.09c-0.81,0.08-1-0.07-1.18-0.89
	c-0.131-1.036-0.032-2.087,0.29-3.08c0.189-0.031,0.379-0.051,0.57-0.06h105.7c0.62,0,1.23,0,1.85,0c0.87,0,1.06,0.09,1.1,1
	C452.445,268.31,452.355,269.22,452.305,270.34z"/>
<path style="fill:#F8AF48;" d="M430.055,339.34h0.93l90.64,0.07c0.89,0,1.78,0,2.67,0s1.15,0.27,1.25,1.14
	c0.06,0.51,0.11,1,0.12,1.54c0.122,0.741-0.381,1.441-1.122,1.562c-0.082,0.013-0.165,0.019-0.248,0.018
	c-0.306,0.025-0.614,0.025-0.92,0h-92.18c-0.48,0.025-0.96,0.025-1.44,0c-0.318-0.076-0.627-0.186-0.92-0.33c0-0.71,0-1.43,0-2.13
	C428.705,339.95,428.795,339.78,430.055,339.34z"/>
<path style="fill:#489341;" d="M343.135,230.13c0.205-0.04,0.412-0.066,0.62-0.08h39h63.2c0.71,0,1.43,0,2.15-0.08
	c0.72-0.08,0.91,0.1,0.95,0.77c0.06,1,0,2,0,3.16c-0.62,0-1.12,0.08-1.62,0.08h-100.89c-0.89,0-1.78,0.06-2.67,0.1
	c-0.61,0-0.79-0.08-0.92-0.7C342.759,232.298,342.82,231.184,343.135,230.13z"/>
<path style="fill:#489341;" d="M438.955,306.3c-0.292,0.524-0.876,0.814-1.47,0.73h-80h-12.62c-0.24,0-0.48,0-0.72,0
	c-0.81-0.06-1.19-0.39-1.22-1.21c-0.013-0.669,0.027-1.338,0.12-2c0.11-0.72,0.36-0.95,1.07-1c0.54-0.05,1.09,0,1.64,0h65.57
	c8.593,0,17.18,0,25.76,0c0.471,0,0.94,0.07,1.39,0.21c0.22,0.07,0.36,0.38,0.54,0.58c0,0.5,0,1,0,1.48l-0.06,1.08L438.955,306.3z"
	/>
<path style="fill:#489341;" d="M247.375,275.26h1.43h78.71h12.41h0.72c1.44,0,1.83,0.48,1.65,1.89c-0.06,0.5,0,1,0,1.53
	c0,0.71-0.14,0.84-0.82,0.88c-0.31,0-0.62,0-0.93,0h-92.39c-0.467-0.03-0.931-0.09-1.39-0.18c0.34,0,0.75,0,0.75-0.48
	C247.495,277.68,247.425,276.47,247.375,275.26z"/>
<path style="fill:#489341;" d="M237.955,230.08h102.07c0.45,0,0.89-0.06,1.33-0.07c0.59,0,0.84,0.16,0.86,0.76c0,0.89,0,1.77,0,2.66
	c0,0.38-0.24,0.55-0.59,0.57h-101.3c-0.55,0-1.09,0.07-1.63,0.1s-0.9-0.13-1-0.68C237.562,232.3,237.65,231.165,237.955,230.08z"/>
<path style="fill:#489341;" d="M438.955,333.77c-0.104,0.341-0.436,0.56-0.79,0.52h-54.72h-37.57c-0.68,0-1.37,0-2.05,0.06
	c-0.41,0.088-0.815-0.173-0.903-0.583c-0.01-0.048-0.016-0.098-0.017-0.147c-0.16-1.089-0.089-2.2,0.21-3.26
	c0.17-0.049,0.344-0.082,0.52-0.1h40.65c14.1,0,28.2,0,42.3,0c3.8,0,7.59,0,11.39-0.05c0.51,0,0.88,0.11,1,0.65l0.06,1.4l-0.09,1.13
	L438.955,333.77z"/>
<path style="fill:#489341;" d="M255.325,351.95c0-0.83,0-1.65,0.07-2.48c0.176-0.495,0.655-0.816,1.18-0.79
	c0.62,0,1.23-0.08,1.85-0.08h73.91h7.8c0.41-0.001,0.818,0.04,1.22,0.12c0.78,0.18,1,0.51,1,1.31s0,1.42-0.05,2.14
	c0,0.56-0.25,0.78-0.82,0.83c-0.17,0-0.34,0-0.52,0h-60.01h-22.9c-0.41,0-0.82,0-1.23,0
	C256.138,353.054,255.509,352.614,255.325,351.95z"/>
<path style="fill:#489341;" d="M251.435,284.79c0.54,0,1.09-0.08,1.63-0.08h87c0.3,0,0.61,0,0.92,0c1,0.1,1.42,0.6,1.32,1.65
	c-0.06,0.61-0.06,1.22-0.09,1.84c-0.03,0.62-0.12,0.77-0.77,0.8h-65h-23.4c-0.51,0-1-0.06-1.53-0.09
	c0.21-1.127,0.27-2.277,0.18-3.42C251.775,285.28,251.555,285.03,251.435,284.79z"/>
<path style="fill:#489341;" d="M433.375,288.28c-0.232,0.515-0.782,0.811-1.34,0.72c-0.41,0-0.82,0-1.23,0h-86
	c-0.306,0.025-0.614,0.025-0.92,0c-0.62-0.08-1-0.36-1-1c-0.008-0.748,0.029-1.496,0.11-2.24c0-0.552,0.448-1,1-1
	c0.512-0.053,1.026-0.077,1.54-0.07h85.8c0.8,0,1.59,0,2.07,0.81L433.375,288.28z"/>
<path style="fill:#489341;" d="M243.055,293.95c0.65,0,1.3,0,2,0h94.7c0.51,0,1,0,1.54,0c0.72,0,0.88,0.08,0.93,0.78
	c0.045,0.883,0.045,1.767,0,2.65c0,0.45-0.31,0.63-0.77,0.62c-1.36-0.05-2.73-0.08-4.1-0.08h-82.26c-3.22,0-6.43,0-9.65,0
	c-0.58,0-1.16,0.09-1.74,0.1c-0.233-0.01-0.464-0.044-0.69-0.1C243.321,296.616,243.335,295.26,243.055,293.95z"/>
<path style="fill:#489341;" d="M248.695,334.1c0-1.22,0-2.44,0-3.65c0.532-0.094,1.07-0.154,1.61-0.18c14.2,0,28.4,0,42.6,0h46.8
	c0.55,0,1.1,0,1.64,0c0.394-0.085,0.782,0.166,0.867,0.56c0.006,0.026,0.01,0.053,0.013,0.08c0.18,1.012,0.15,2.05-0.09,3.05
	c-0.07,0.38-0.41,0.41-0.74,0.4c-0.65,0-1.3,0-1.95,0h-69.58h-18.48c-0.58,0-1.16,0.05-1.74,0
	C249.322,334.298,249.004,334.211,248.695,334.1z"/>
<path style="fill:#489341;" d="M430.055,339.34c-1.26,0.44-1.35,0.6-1.25,1.91c0.06,0.7,0,1.42,0,2.13h-1.44h-63.18
	c-6.26,0-12.52,0.06-18.78,0.08c-0.546,0.003-1.092-0.043-1.63-0.14c-0.552-0.027-0.977-0.496-0.95-1.047
	c0.002-0.034,0.005-0.069,0.01-0.103c0-0.75,0-1.5,0-2.25s0.23-0.79,0.81-0.84c0.2,0,0.41,0,0.62,0h84
	C428.868,339.118,429.466,339.205,430.055,339.34z"/>
<path style="fill:#F8AF46;" d="M231.955,311.59c0.419,0.398,0.604,0.983,0.49,1.55c-0.035,0.536-0.035,1.074,0,1.61
	c0,0.74,0,0.74-0.85,0.93c-0.45,0-0.89-0.05-1.34-0.05h-76.36h-9.13c-0.28,0-0.55,0-0.82,0c-1.09-0.07-1.48-0.46-1.48-1.53
	c-0.008-0.515,0.018-1.029,0.08-1.54c0.1-0.79,0.32-1,1.11-1.05c0.51,0,1,0,1.54,0h79.74c1.54,0,3.08-0.07,4.62-0.07
	C230.315,311.44,231.125,311.53,231.955,311.59z"/>
<path style="fill:#F8AF47;" d="M227.115,321.21c0.344,0.426,0.49,0.979,0.4,1.52c-0.09,0.81-0.09,1.63-0.12,2.45
	c-0.47,0-0.94,0.13-1.42,0.13h-81.36c-2.09,0-2.28-0.19-2.19-2.3c0.07-1.86,0.22-2,2.12-2h69.16c3.93,0,7.86,0,11.8,0
	C226.045,321.042,226.583,321.109,227.115,321.21z"/>
<path style="fill:#489341;" d="M259.235,343.08c0-0.71,0-1.42,0-2.13c-0.029-0.403-0.082-0.804-0.16-1.2
	c0.269-0.409,0.731-0.648,1.22-0.63c0.41,0,0.83,0,1.24,0h78.72c1.93,0,2.21,0.32,2,2.22c-0.029,0.333-0.029,0.667,0,1
	c0.06,0.88-0.08,1-0.92,1.07h-0.51c-20.427,0-40.853,0-61.28,0c-6,0-12,0.07-18,0.1C260.75,343.585,259.95,343.436,259.235,343.08z"
	/>
<path style="fill:#F8AE45;" d="M233.855,302.95c0.09,0.482,0.15,0.97,0.18,1.46c0,0.77,0,1.54,0,2.31
	c-0.329,0.093-0.663,0.167-1,0.22c-0.58,0-1.16,0-1.74,0h-61.78h-15.5c-2,0-2.23-0.28-2.16-2.28s0.11-2,2.14-2h70
	c2.7,0,5.4-0.07,8.1-0.06C232.692,302.659,233.281,302.776,233.855,302.95z"/>
<path style="fill:#489341;" d="M430.105,297.46c-0.168,0.302-0.495,0.481-0.84,0.46c-1.57-0.06-3.14-0.08-4.71-0.08h-79.15
	c-0.441,0.005-0.882,0.035-1.32,0.09c-0.81,0.09-1.12-0.07-1.16-0.89c-0.04-0.82,0.06-2,0.1-3c0.51,0,0.91-0.1,1.31-0.1h83.45
	c0.48,0,1,0,1.44,0c0.412-0.082,0.812,0.185,0.894,0.596c0.002,0.011,0.004,0.022,0.006,0.034L430.105,297.46z"/>
<path style="fill:#489341;" d="M379.515,211.29h28.53h6.16c0.24,0,0.48,0,0.72,0c1.18,0.09,1.56,0.53,1.49,1.72
	c0,0.47,0,0.95-0.09,1.43c-0.08,0.79-0.36,1.1-1.14,1.19c-0.479,0.03-0.96,0.03-1.44,0h-68.44c-0.31,0-0.62,0-0.93,0
	c-1.2-0.06-1.57-0.47-1.53-1.67c0-0.58,0-1.16,0-1.74c-0.067-0.431,0.229-0.835,0.66-0.901c0.03-0.005,0.06-0.007,0.09-0.009
	c0.271-0.046,0.545-0.073,0.82-0.08h35.09L379.515,211.29z"/>
<path style="fill:#F8AF48;" d="M439.035,332.27l-0.06-1.4c0.247-0.541,0.807-0.869,1.4-0.82h0.93h71.33c0.37,0,0.75,0,1.13,0
	c0.497-0.011,0.909,0.383,0.92,0.88c0,0.01,0,0.02,0,0.03c0.077,0.711,0.113,1.425,0.11,2.14c0,0.83-0.39,1.15-1.21,1.25
	c-0.333,0.019-0.667,0.019-1,0h-10.09l-62.29-0.08c-0.52,0-1.05,0.08-1.25-0.59c0-0.12,0-0.24,0-0.37L439.035,332.27z"/>
<path style="fill:#F8AF48;" d="M443.215,324.55c0-0.93,0-1.86,0.05-2.78c0.352-0.482,0.938-0.735,1.53-0.66
	c0.85,0,1.71,0.06,2.56,0.06h69.38c2,0,2,0,2.06,2c0,0.34,0,0.69,0,1c0.062,0.654-0.417,1.235-1.072,1.298
	c-0.066,0.006-0.132,0.007-0.198,0.002c-0.31,0-0.62,0-0.92,0h-34.69h-26.58h-11C443.465,325.47,443.465,325.46,443.215,324.55z"/>
<path style="fill:#F8AE46;" d="M430.105,297.46v-3c0.28-0.568,0.893-0.891,1.52-0.8c1.85,0,3.7,0,5.54,0h64.79c2,0,2,0,2.12,1.95
	c0.05,0.505,0.05,1.015,0,1.52c-0.046,0.467-0.441,0.822-0.91,0.82c-0.376,0.02-0.754,0.02-1.13,0h-70.6
	C430.875,298.01,430.335,298.11,430.105,297.46z"/>
<path style="fill:#F8AF47;" d="M442.955,314.01l-0.06-1.65c0.275-0.573,0.892-0.898,1.52-0.8h72.16c0.3,0,0.61,0,0.92,0
	c0.92,0,1.17,0.26,1.25,1.14c0.052,0.578,0.068,1.16,0.05,1.74c0,0.87-0.28,1.14-1.15,1.28c-0.374,0.05-0.752,0.07-1.13,0.06h-4.61
	l-67.74-0.08h-1.1L442.955,314.01z"/>
<path style="fill:#F8AE45;" d="M243.055,293.95c0.28,1.278,0.28,2.602,0,3.88c-0.84,0-1.69,0.1-2.54,0.1
	c-3.69,0-7.39-0.07-11.08-0.07l-50.48,0.09h-7.39c-1.73,0-2-0.31-2-2c0-0.51,0.07-1,0.13-1.53c0.009-0.414,0.351-0.743,0.766-0.734
	c0.022,0,0.043,0.002,0.064,0.004h1.13c19.007,0,38.007,0,57,0c4,0,8.07-0.06,12.1-0.09
	C241.539,293.465,242.346,293.588,243.055,293.95z"/>
<path style="fill:#489341;" d="M308.545,215.68h-31.81c-0.21,0-0.41,0-0.62,0c-1.5,0-1.9-0.43-1.8-1.91c0-0.48,0.09-1,0.15-1.43
	c0.005-0.508,0.413-0.919,0.92-0.93c0.61-0.05,1.22-0.11,1.84-0.11h62.79c0.443-0.009,0.885,0.028,1.32,0.11
	c0.82,0.17,1.07,0.54,1,1.38c0,0.61,0,1.22,0,1.83c0.078,0.502-0.266,0.972-0.768,1.05c-0.034,0.005-0.068,0.009-0.102,0.01
	c-0.203,0.015-0.407,0.015-0.61,0L308.545,215.68z"/>
<path style="fill:#489341;" d="M410.465,349.31c0,0.72,0.05,1.44,0.07,2.16c-0.41,1.37-0.57,1.48-2.23,1.48h-33.57h-29.15h-0.72
	c-2,0.06-2.2-0.69-2-2.1c0.024-0.333,0.024-0.667,0-1c0-0.95,0.22-1.24,1.18-1.27c0.96-0.03,1.64,0,2.46,0c1.37,0,2.73,0,4.1,0
	c0.48,0,1-0.05,1.43-0.05h53c1.3,0,2.6,0,3.9,0C409.535,348.58,410.185,348.58,410.465,349.31z"/>
<path style="fill:#F8AF47;" d="M438.955,306.3v-0.22l0.06-1.08c0-0.49,0-1,0-1.48c0.308-0.591,0.963-0.915,1.62-0.8
	c3.29,0,6.57,0,9.85,0h56.94c1.84,0,1.92,0.07,2,1.87c0.025,0.476,0.025,0.954,0,1.43c0,0.552-0.448,1-1,1
	c-0.333,0.019-0.667,0.019-1,0h-67.19C439.535,307.05,439.045,307.03,438.955,306.3z"/>
<path style="fill:#F8AE46;" d="M251.435,284.79c0.12,0.24,0.34,0.49,0.33,0.73c0.09,1.143,0.03,2.293-0.18,3.42h-14.37h-47.61
	c-1.89,0-2.05-0.16-2-2c0-0.41,0-0.82,0.05-1.23c0.09-0.8,0.31-1,1.11-1c0.27,0,0.55,0,0.82,0h60.55
	C250.555,284.67,250.955,284.75,251.435,284.79z"/>
<path style="fill:#F8AE45;" d="M433.375,288.28v-2.78c0.285-0.567,0.904-0.882,1.53-0.78c2.36,0,4.72,0,7.08,0
	c4.65,0,9.3,0.08,13.95,0.07c12.24,0,24.483-0.023,36.73-0.07c0.511-0.003,1.022,0.023,1.53,0.08c0.72,0.08,0.87,0.23,0.93,1
	s0.06,1.3,0.05,2c0,1-0.34,1.36-1.35,1.39c-1.2,0-2.4,0-3.59,0h-0.72l-54.89-0.08C433.665,289.03,433.665,289.03,433.375,288.28z"/>
<path style="fill:#F8AE46;" d="M247.375,275.26c0.05,1.21,0.12,2.42,0.14,3.63c0,0.46-0.41,0.47-0.75,0.48h-1.23h-44.72
	c-1.12,0-1.31-0.19-1.34-1.31c0-0.69,0-1.37,0-2.05c0-0.68,0.24-0.92,1-0.95h45.65C246.547,275.085,246.966,275.152,247.375,275.26z
	"/>
<path style="fill:#489341;" d="M389.525,206.47h-1.57h-42.48c-0.48,0-1,0-1.43,0c-0.76-0.06-1.14-0.41-1.15-1.16
	c0.003-0.649,0.047-1.297,0.13-1.94c-0.002-0.447,0.36-0.811,0.807-0.813c0.024,0,0.049,0.001,0.073,0.003
	c0.61,0,1.22-0.1,1.84-0.11h25.44c5.2,0,10.4,0.07,15.6,0.09c0.578-0.004,1.155-0.037,1.73-0.1c1-0.1,1.24,0.1,1.31,1.08
	C389.93,204.513,389.828,205.518,389.525,206.47z"/>
<path style="fill:#489341;" d="M322.195,206.49h-18.68c-0.24,0.015-0.48,0.015-0.72,0c-0.469-0.011-0.841-0.4-0.83-0.869
	c0-0.004,0-0.007,0-0.011c-0.033-0.666-0.033-1.334,0-2c0.06-0.66,0.33-0.89,1-1c0.67-0.11,1.29-0.11,1.94-0.12h21.35
	c4.45,0,8.89,0.07,13.34,0.09c0.512-0.003,1.022-0.037,1.53-0.1c0.81-0.08,1,0,1.07,0.82c0.05,0.816,0.05,1.634,0,2.45
	c-0.05,0.71-0.16,0.78-0.9,0.78h-19.1L322.195,206.49z"/>
<path style="fill:#489341;" d="M358.585,197.66h-14.46c-0.93,0-1.25-0.33-1.26-1.23c-0.006-0.669,0.04-1.338,0.14-2
	c0.11-0.7,0.38-0.92,1.09-1c0.333-0.019,0.667-0.019,1,0h27.89c0.21,0,0.41,0,0.62,0c0.71,0.06,1,0.28,1.08,1
	c0.047,0.85-0.007,1.703-0.16,2.54c0,0.27-0.48,0.56-0.8,0.67c-0.429,0.102-0.87,0.139-1.31,0.11h-13.83V197.66z"/>
<path style="fill:#F8AE46;" d="M444.225,279.26v-3.45c0.049-0.45,0.454-0.775,0.904-0.726c0.032,0.004,0.064,0.009,0.096,0.016
	c0.75,0,1.5,0.08,2.25,0.08c8.127,0,16.263,0,24.41,0h1.34c0.29,1.229,0.344,2.501,0.16,3.75c-0.05,0.44-0.41,0.59-0.84,0.58h-1.64
	c-8.44,0-16.883,0-25.33,0C445.119,279.466,444.667,279.382,444.225,279.26z"/>
<path style="fill:#489341;" d="M332.365,197.65h-8c-1.27,0-1.48-0.22-1.48-1.5c0-0.51,0-1,0.05-1.54
	c-0.034-0.651,0.466-1.206,1.117-1.24c0.038-0.002,0.075-0.002,0.113,0c0.34,0,0.69,0,1,0h15.36c1.58,0,1.86,0.29,1.78,1.86
	c-0.022,0.442-0.069,0.883-0.14,1.32c0.006,0.567-0.434,1.038-1,1.07c-0.371,0.05-0.746,0.07-1.12,0.06h-7.68L332.365,197.65z"/>
<path style="fill:#489341;" d="M351.335,188.18h-6.87c-1.34,0-1.62-0.27-1.6-1.62c0.003-0.579,0.047-1.157,0.13-1.73
	c0.042-0.521,0.477-0.922,1-0.92c0.65,0,1.3-0.11,2-0.11c4.267,0,8.54,0,12.82,0c0.236-0.02,0.474-0.02,0.71,0
	c0.432,0.027,0.766,0.388,0.76,0.82c0,0.79,0,1.58,0,2.36s-0.31,0.92-1,1c-0.469,0.076-0.944,0.113-1.42,0.11h-6.46L351.335,188.18z
	"/>
<path style="fill:#489341;" d="M342.365,185.49c-0.05,0.53-0.1,1.07-0.14,1.61c0.011,0.51-0.39,0.934-0.9,0.95
	c-1.09,0.08-2.19,0.13-3.28,0.12c-0.287-0.056-0.525-0.257-0.63-0.53c-0.185-0.826-0.263-1.674-0.23-2.52
	c0.011-0.79,0.66-1.421,1.45-1.41c0.05,0.001,0.1,0.004,0.15,0.01c0.985-0.01,1.969,0.03,2.95,0.12c0.2,0,0.46,0.3,0.52,0.51
	C342.333,184.725,342.37,185.107,342.365,185.49z"/>
<path style="fill:#489341;" d="M345.495,174.95c0.51,0,1,0,1.53,0c0.83,0,1.12,0.29,1.15,1.1c0.04,0.613,0.04,1.227,0,1.84
	c-0.06,0.69-0.34,1-1,1c-1.019,0.075-2.041,0.075-3.06,0c-0.717,0.031-1.324-0.526-1.354-1.243
	c-0.004-0.086,0.001-0.172,0.014-0.257c0.007-0.615,0.074-1.228,0.2-1.83c0.07-0.44,0.45-0.57,0.85-0.59c0.58,0,1.16,0,1.74,0
	L345.495,174.95z"/>
<path style="fill:#FFFFFF;" d="M439.005,305l-0.06,1.08L439.005,305z"/>
<path style="fill:#FFFFFF;" d="M439.035,332.27l-0.09,1.13L439.035,332.27z"/>
<path style="fill:#698CC6;" d="M553.955,629.25"/>
<path style="fill:#698CC6;" d="M461.515,650.53l52.86-26.43c2.748-1.49,6.062-1.49,8.81,0c17.62,8.81,35.1,17.62,52.72,26.29
	c1.395,0.526,2.553,1.538,3.26,2.85v1.63c-0.942,1.01-1.988,1.918-3.12,2.71c-17.08,10.573-34.157,21.053-51.23,31.44
	c-3.65,2.44-8.41,2.44-12.06,0c-17.08-10.573-34.16-21.053-51.24-31.44"/>
<path style="fill:#698CC6;" d="M564.795,686.95c0,3.25-0.14,6.64,0,9.89c0.154,3.443-1.065,6.806-3.39,9.35
	c-3.141,3.626-7.021,6.538-11.38,8.54c-7.274,3.517-15.13,5.676-23.18,6.37c-10.648,1.189-21.427,0.032-31.58-3.39
	c-6.5-2.16-12.47-5.15-17.35-10c-2.3-2.3-4.2-4.87-4.74-8.26c-0.116-0.626-0.163-1.263-0.14-1.9v-20.73c0-1.08-0.13-2.44,1.09-3.11
	c1.22-0.67,2,0.27,3,0.81c11.11,6.78,22.36,13.69,33.48,20.6c5.553,3.387,11.11,3.387,16.67,0c11.65-7,23.17-14.23,34.83-21.28
	c0.299-0.237,0.638-0.419,1-0.54c0.81-0.27,1.35-0.14,1.63,0.81c0.108,0.489,0.151,0.99,0.13,1.49L564.795,686.95z"/>
<path style="fill:#698CC6;" d="M574.955,687.39v17.35c-0.062,0.758,0.3,1.489,0.94,1.9c2.85,1.928,3.597,5.801,1.669,8.651
	c-1.165,1.721-3.111,2.749-5.189,2.739c-3.44-0.039-6.198-2.859-6.159-6.3c0.023-2.043,1.047-3.945,2.739-5.09
	c0.691-0.368,1.088-1.122,1-1.9v-31.58c-0.13-1.511,0.658-2.953,2-3.66c0.678-0.275,1.317-0.638,1.9-1.08
	c0.68-0.41,1.09-0.14,1.22,0.68v1.08C574.955,675.87,574.955,681.7,574.955,687.39z"/>
<path style="fill:none;stroke:#6A8BC4;stroke-width:2.71;stroke-miterlimit:10;" d="M170.155,737.95"/>
<path style="fill:#698CC6;" d="M233.585,700.4c-1.722,5.339-4.486,10.285-8.13,14.55c-5.29,6-11.93,8.41-19.65,8.54
	c-9.986,0.172-19.97-0.477-29.85-1.94c-16.372-2.229-32.461-6.184-48-11.8c-4.346-1.555-8.56-3.457-12.6-5.69
	c-0.574-0.312-1.119-0.673-1.63-1.08c-0.332-0.122-0.511-0.481-0.41-0.82c0.14-0.4,0.55-0.27,0.82-0.27
	c1.007-0.041,2.016,0.05,3,0.27c11.25,2.44,22.63,4.34,34.15,6c10.17,1.49,20.33,2.84,30.63,2.44c8.27-0.27,16.13-1.76,23.45-6
	c6.91-3.93,11.66-9.89,15-16.94c1-2,1.63-2.44,3.66-1.35c4.538,2.094,7.95,6.046,9.36,10.84c-0.028,0.218,0.078,0.432,0.27,0.54
	C233.565,698.59,233.542,699.496,233.585,700.4z"/>
<path style="fill:#698CC6;" d="M127.595,700.4c-2.84-0.54-5.69-1.08-8.4-1.76c-4.2-1.08-6.37-3.66-6.1-8
	c0.82-15.31,5.42-29,17.62-39.3c6.559-5.413,14.55-8.804,23-9.76c10.878-1.553,21.972-0.342,32.26,3.52
	c14.91,5.56,23.58,16.54,27.65,31.72c2.17,8.13-1,14.23-6.51,19.65c-2.9,2.719-6.246,4.921-9.89,6.51c-0.95,0.4-1.22,0.4-1.36-0.68
	c-0.81-5.56-2.3-11-5.42-15.72c-1.781-3.113-4.414-5.653-7.59-7.32c-0.804-0.415-1.673-0.689-2.57-0.81c-0.41,0-0.82-0.14-1.09,0.27
	s0.14,0.67,0.27,1.08c2.592,3.682,4.775,7.635,6.51,11.79c1.694,3.641,2.791,7.531,3.25,11.52v0.54c0.14,1.63-0.13,1.77-1.62,2
	c-5.173,0.613-10.392,0.747-15.59,0.4c-2.85-0.13-5.83-0.4-8.68-0.54c-0.94,0-1.22-0.27-1.22-1.22c0.14-3,0.14-5.83,0.14-8.81
	c0-1.76-0.54-2.3-2.17-2.57l-7.72-1.22c-1.63-0.27-2,0.13-2,1.9c0,3.25-0.13,6.37-0.13,9.62c0,0.81-0.14,1-0.95,0.81
	c-2.85-0.41-5.83-1-8.67-1.22c-0.82-0.13-0.95-0.41-0.95-1.08c0-3.26,0.13-6.37,0.13-9.63c0-1.89-0.54-2.44-2.3-2.71
	c-2.58-0.4-5.15-0.81-7.59-1.22c-1.49-0.27-2,0.14-2,1.77c0,3.38,0,6.77-0.14,10.16C127.735,700,127.735,700.13,127.595,700.4z"/>
<path d="M400.835,698.09c-2.42,0.41-4.83,0.84-7.26,1.22c-1.87,0.3-3.75,0.62-5.64,0.77c-2.424,0.167-4.791-0.788-6.42-2.59
	l-23.13-22.83c-2.42-2.39-5.19-3-8.28-1.57c-4.18,2-8.25,4.18-12.36,6.28c-1.53,0.78-3,1.61-4.57,2.36
	c-3.228,1.682-7.208,0.429-8.89-2.799c-1.66-3.185-0.464-7.112,2.69-8.831c9.093-5.14,18.19-10.263,27.29-15.37
	c4.78-2.68,7.16-2.52,11.42,0.94c3.94,3.2,7.75,6.56,11.65,9.82c1.618,1.437,3.834,1.996,5.94,1.5c5.86-1.28,11.713-2.57,17.56-3.87
	V698.09z"/>
<path d="M292.215,701.22l-3.11-1.12l-3-1v-39.79c2.74,1,5.42,1.93,8.13,2.82c2.136,0.752,4.309,1.396,6.51,1.93
	c2.55,0.556,5.216,0.055,7.39-1.39c4.521-2.9,9.274-5.422,14.21-7.54c4.28-1.81,8.58-2.41,13-0.54c1.597,0.634,3.027,1.626,4.18,2.9
	l-1.23,0.7c-4.52,2.62-9.06,5.19-13.53,7.89c-3.692,2.047-5.914,6.002-5.74,10.22c0.157,6.114,5.154,10.991,11.27,11
	c1.813-0.155,3.584-0.633,5.23-1.41c3.68-1.54,7.26-3.28,10.89-4.94s6.39-1.16,9.16,1.61l21.24,21.23
	c2.093,1.869,2.275,5.08,0.406,7.173c-1.869,2.093-5.08,2.275-7.173,0.406c-0.127-0.113-0.248-0.233-0.363-0.359
	c-2.4-2.35-4.79-4.73-7.23-7c-0.457-0.287-0.961-0.491-1.49-0.6c0.16,0.52,0.17,1.18,0.51,1.54c2.19,2.4,4.44,4.74,6.69,7.08
	c2.45,2.54,2.29,6.22-0.37,8.1c-2.19,1.493-5.149,1.12-6.9-0.87c-2.84-2.82-5.693-5.617-8.56-8.39c-0.38-0.3-0.788-0.561-1.22-0.78
	l-0.35,0.35c0.404,0.701,0.862,1.37,1.37,2c2.07,2.25,4.19,4.46,6.32,6.66c2.02,1.931,2.092,5.134,0.161,7.154
	s-5.134,2.092-7.154,0.161c-0.033-0.031-0.065-0.063-0.097-0.095c-2.69-2.74-5.43-5.44-8.15-8.16
	c-0.207-0.216-0.446-0.398-0.71-0.54c-0.183-0.091-0.397-0.091-0.58,0c-0.14,0.16-0.26,0.51-0.17,0.66
	c0.29,0.521,0.643,1.004,1.05,1.44c1.84,2,3.73,3.86,5.58,5.82c1.423,1.358,1.871,3.448,1.13,5.27
	c-0.549,1.859-2.223,3.159-4.16,3.23c-1.202-0.086-2.379-0.381-3.48-0.87c-0.35-0.12-0.59-0.56-0.93-0.78
	c-2.3-1.5-2.22-3.83-2.45-6.21c-0.42-4.34-2.94-7.3-6.93-9c-0.624-0.207-1.107-0.708-1.29-1.34c-0.987-3.15-3.336-5.69-6.4-6.92
	c-0.504-0.242-0.905-0.657-1.13-1.17c-1.094-2.986-3.401-5.369-6.35-6.56c-0.488-0.213-0.877-0.602-1.09-1.09
	c-1.838-5.079-7.011-8.149-12.35-7.33c-4.742,0.428-8.817,3.539-10.48,8C292.435,700.87,292.345,701,292.215,701.22z"/>
<path d="M304.695,711.25l-2.57,0.72c-4.05,1.11-6.34-2.33-6.21-5.13c0.17-3.67,3.27-7.78,6.67-8.72c3.74-1,8.57,1.39,7.89,6.76
	c0,0.29-0.08,0.58-0.14,1c2.26-0.34,4.35-0.08,6,1.58c1.65,1.66,1.77,3.82,1.45,6.14c2.45-0.29,4.66,0,6.29,1.92
	c1.461,1.79,1.843,4.229,1,6.38c0.92-0.136,1.85-0.19,2.78-0.16c3.355,0.308,5.825,3.278,5.516,6.633
	c-0.043,0.465-0.139,0.924-0.286,1.367c-1.29,4.49-7.51,7.44-11.81,5.6c-1.944-0.836-3.025-2.931-2.58-5
	c0.33-1.22,0.84-2.38,1.27-3.57c-1.24,0.26-2.49,0.59-3.76,0.78c-2.407,0.466-4.737-1.107-5.203-3.515
	c-0.17-0.877-0.071-1.785,0.283-2.605c0.315-0.769,0.582-1.558,0.8-2.36c-0.93,0.23-1.73,0.45-2.54,0.64
	c-1.8,0.44-3.48,0.35-4.82-1.17c-1.288-1.331-1.63-3.315-0.86-5C304.165,712.82,304.385,712.12,304.695,711.25z"/>
<line style="fill:none;stroke:#E30613;stroke-width:4.47;stroke-miterlimit:10;" x1="293.675" y1="736.81" x2="393.065" y2="643.59"/>
<circle style="fill:none;stroke:#E30613;stroke-width:4.47;stroke-miterlimit:10;" cx="340.485" cy="687.58" r="68.81"/>
<rect x="93.775" y="42.52" style="fill:none;" width="1320.458" height="177.702"/>
<text transform="matrix(1 0 0 1 568.72 84.9044)" style="fill:#1D1D1B; font-family:'NeueHaasUnicaW06-Regular'; font-size:59.53px;">The Problems</text>
<rect x="797.19" y="213.461" style="fill:none;" width="591.19" height="51.084"/>
<text transform="matrix(1 0 0 1 797.1901 249.7868)" style="fill:#1D1D1B; font-family:'NeueHaasUnicaW06-Regular'; font-size:51.02px;">Demographic gap</text>
<rect x="802.044" y="415.075" style="fill:none;" width="591.19" height="51.084"/>
<text transform="matrix(1 0 0 1 802.0444 451.4011)" style="fill:#1D1D1B; font-family:'NeueHaasUnicaW06-Regular'; font-size:51.02px;">Vulnerable economy</text>
<rect x="802.044" y="640.096" style="fill:none;" width="591.19" height="51.084"/>
<text transform="matrix(1 0 0 1 802.0444 676.4224)" style="fill:#1D1D1B; font-family:'NeueHaasUnicaW06-Regular'; font-size:51.02px;">Education misfit</text>
</svg>
