<svg id="Ebene_1" data-name="Ebene 1" xmlns="http://www.w3.org/2000/svg" viewBox="0 0 1394.81 713.24"><defs><style>.cls-1{font-size:56.69px;}.cls-1,.cls-3{fill:#1d1d1b;font-family:NeueHaasUnicaW06-Regular;}.cls-2{letter-spacing:-0.02em;}.cls-3{font-size:51.02px;}.cls-4{letter-spacing:0.01em;}.cls-5{letter-spacing:0.01em;}.cls-6{letter-spacing:-0.02em;}.cls-7{letter-spacing:-0.05em;}.cls-8{letter-spacing:-0.02em;}.cls-9{letter-spacing:0.01em;}.cls-10{letter-spacing:-0.02em;}.cls-11{letter-spacing:-0.01em;}.cls-12{letter-spacing:-0.01em;}.cls-13{fill:#e2624a;}.cls-14{fill:#e0634b;}.cls-15{fill:#698cc6;}.cls-16{fill:#e56348;}.cls-17{fill:#e66449;}.cls-18{fill:#e56349;}.cls-19{fill:#e56145;}.cls-20{fill:#fdfdfd;}.cls-21{fill:#fefefe;}.cls-22{fill:#fdfaf9;}.cls-23{fill:#e15d42;}.cls-24{fill:#d99082;}.cls-25{fill:#fff;}.cls-26{fill:#e46247;}.cls-27{fill:#e4583c;}.cls-28{fill:#f8ae45;}.cls-29{fill:#489341;}.cls-30{fill:#f8af48;}.cls-31{fill:#f8af46;}.cls-32{fill:#f8af47;}.cls-33{fill:#f8ae46;}.cls-34,.cls-35{fill:none;stroke-miterlimit:10;}.cls-34{stroke:#6a8bc4;stroke-width:2.71px;}.cls-35{stroke:#e30613;stroke-width:4.47px;}</style></defs><title>Problems</title><text class="cls-1" transform="translate(553.26 48.53)">The P<tspan class="cls-2" x="145.76" y="0">r</tspan><tspan x="165.2" y="0">oblems</tspan></text><text class="cls-3" transform="translate(708.32 196.83)"><tspan class="cls-4">D</tspan><tspan x="37.4" y="0">em</tspan><tspan class="cls-5" x="109.49" y="0">o</tspan><tspan x="138.83" y="0">g</tspan><tspan class="cls-6" x="168.07" y="0">r</tspan><tspan x="185.37" y="0">aphic gap</tspan></text><text class="cls-3" transform="translate(712.91 405.91)"><tspan class="cls-7">V</tspan><tspan x="29.29" y="0">ulne</tspan><tspan class="cls-8" x="128.58" y="0">r</tspan><tspan x="145.88" y="0">able </tspan><tspan class="cls-4" x="254.6" y="0">e</tspan><tspan class="cls-9" x="283.18" y="0">c</tspan><tspan x="310.73" y="0">ono</tspan><tspan class="cls-10" x="397.77" y="0">m</tspan><tspan x="440.79" y="0">y</tspan></text><text class="cls-3" transform="translate(708.32 615.24)"><tspan class="cls-11">E</tspan><tspan x="30.87" y="0">duc</tspan><tspan class="cls-12" x="116.89" y="0">a</tspan><tspan x="143.48" y="0">tion misfit</tspan></text><text class="cls-1" transform="translate(0 204.42)">1</text><text class="cls-1" transform="translate(0 406.02)">2</text><text class="cls-1" transform="translate(0 630.55)">3</text><path class="cls-13" d="M216.77,519.88l-11.7-.23a.51.51,0,0,0-.21-.51q0-12.61,0-25.21V468l0-1.5v-25.2l0-1.49V415.33l0-1.5V387.14l.3-22.84a.6.6,0,0,0,.54-.18H217.5a25.56,25.56,0,0,1,.64,3.85c.11,6.39.13,12.77.18,19.16v3.72q0,11.86,0,23.73c-.06,1.59-.16,3.19-.17,4.79l0,100.22Z" transform="translate(-47.14 -17.43)"/><path class="cls-14" d="M185.55,413.83q0-12.58,0-25.18v-1.53c.29-3.26.57-6.52.86-9.78l11,0c.48,1,1.28,1.88,1.39,2.88.26,2.3.18,4.63.24,6.95v1.5q0,12.6,0,25.2l0,1.5v24.46l0,1.49v25.2l0,1.5v24.46l0,1.5L199,519.13a.49.49,0,0,0-.2.51h-13a.46.46,0,0,0-.19-.5q0-12.6,0-25.21v-1.49q0-11.87,0-23.72V439.79q0-11.87,0-23.72Z" transform="translate(-47.14 -17.43)"/><path class="cls-15" d="M147.06,466.49q0-12.62,0-25.22V413.86a.69.69,0,0,1,.44-.09l1-.64,12,.71,0,1.48q0,12.24,0,24.47l0,1.49,0,49.68,0,3-.06,25.21a.41.41,0,0,0-.2.49.62.62,0,0,0-.56.23,1.76,1.76,0,0,1-.13-.5l-.35-.48-.25.56c0,.14-.08.29-.11.43l-10.37-.4-1-1a1.25,1.25,0,0,1-.45-.18q0-12.2,0-24.39l0-2.23v-23Z" transform="translate(-47.14 -17.43)"/><path class="cls-15" d="M178.16,519.86l-10.35-.4-1.15-1.05-.36-24.48.12-2.25v-1.44q0-10-.05-20.11a1.06,1.06,0,0,0,0-.61l-.09-2.29v-.74q0-12.6,0-25.21v-1.49l.36-23,1.14-1.1h10.41l1.25,1.09.33,23,0,27.44,0,25.21,0,1.49-.27,24.48-1.26,1A1.45,1.45,0,0,1,178.16,519.86Z" transform="translate(-47.14 -17.43)"/><path class="cls-16" d="M243.28,441.28V423.71h13.64v16.81c0,.26,0,.51,0,.77l0,25.19q-.1,26.64-.2,53.27H243.28V493.93c0-1.24,0-2.47,0-3.71v-20c0-1.24,0-2.48,0-3.71Z" transform="translate(-47.14 -17.43)"/><path class="cls-17" d="M321.33,519.92l-1.26-.36c.07-5.28.2-10.56.18-15.84,0-12.41-.14-24.82-.22-37.22V455h13.91v11.45l-.15,53.17-1.34.24h-6.67Z" transform="translate(-47.14 -17.43)"/><path class="cls-15" d="M141.05,445.74l.3,20.75,0,2.22q0,11.51,0,23l0,2.23-.3,24.46c-3,0-5.94-.09-8.89.07-2.32.12-3-.84-2.95-3q.07-33.36,0-66.71c0-2.2.63-3.16,2.94-3C135.11,445.82,138.08,445.73,141.05,445.74Z" transform="translate(-47.14 -17.43)"/><path class="cls-15" d="M377.93,466.5c.15-2.42.29-4.83.45-7.39h12.7c.14,2.56.28,5,.42,7.39q-.11,12.76-.23,25.52-.13,13.86-.29,27.73H378.49c-.1-3.32-.28-6.64-.3-10Q378,488.15,377.93,466.5Z" transform="translate(-47.14 -17.43)"/><path class="cls-18" d="M300.84,466.5c.16-3.3.33-6.59.5-10.09h13.37v10.08q-.09,26.6-.17,53.2l-2.85.2H305l-3.86-.41c0-7.07,0-14,0-20.83C301.07,487.93,300.94,477.21,300.84,466.5Z" transform="translate(-47.14 -17.43)"/><path class="cls-15" d="M352.45,519.8l-11.1.1c-.53-1.28-1.52-2.55-1.53-3.84-.18-16.52-.22-33-.29-49.58V452.63h13.58v13.83q-.17,12.69-.32,25.38Q352.63,505.82,352.45,519.8Z" transform="translate(-47.14 -17.43)"/><path class="cls-19" d="M410.31,449.44q0,8.51,0,17V518.4c-3.08,0-6.16-.06-9.24,0-1.84.05-2.66-.57-2.66-2.54q.07-32,0-63.91c0-2,.79-2.61,2.65-2.56C404.15,449.5,407.23,449.44,410.31,449.44Z" transform="translate(-47.14 -17.43)"/><path class="cls-15" d="M371.69,519.76H359.22c-.06-3.58-.16-7.15-.18-10.72q-.12-21.28-.21-42.55.18-4.38.37-8.76l11.82-.17c.38,3,.77,5.95,1.15,8.93-.08,2-.23,3.93-.24,5.9Q371.79,496.07,371.69,519.76Z" transform="translate(-47.14 -17.43)"/><path class="cls-18" d="M295.28,519.72l-2.13.17h-5.93l-5.31-.39c0-1.68,0-3.14,0-4.6q-.09-24.21-.2-48.42c.14-1.55.28-3.1.45-5.05H295c.17,2,.3,3.51.44,5.06Z" transform="translate(-47.14 -17.43)"/><path class="cls-18" d="M262.5,466.48c.68-.76,1.31-2.12,2.05-2.17a61.87,61.87,0,0,1,9.53,0c.74.06,1.39,1.43,2.08,2.19L276,519.73l-1.4.17-11.82-.12c0-2.84-.09-5.68-.1-8.51Q262.59,488.88,262.5,466.48Z" transform="translate(-47.14 -17.43)"/><path class="cls-15" d="M429.56,456.85l.36,9.63c-.07,1.59-.19,3.18-.2,4.78q-.09,23.57-.15,47.14c-2.71,0-5.43-.17-8.12.05-2.9.23-3.81-.74-3.78-3.71.13-16.88.06-33.76.06-50.63,0-8.46,1.56-9.65,10.06-7.75C428.39,456.5,429,456.69,429.56,456.85Z" transform="translate(-47.14 -17.43)"/><path class="cls-15" d="M448.75,458.38c.12,2.7.25,5.41.37,8.11l0,2.23v23q0,13.76,0,27.5l-.29-.14c-2.92-.21-5.84-.57-8.77-.57-2.17,0-3.06-.63-3.05-3q.1-26.8,0-53.61c0-2.31.88-2.93,3.05-2.94C442.91,459,445.83,458.6,448.75,458.38Z" transform="translate(-47.14 -17.43)"/><path class="cls-20" d="M218.14,519.59l0-100.22c0-1.6.11-3.2.17-4.79h5.74c.06,2.09.16,4.19.17,6.28l.12,98.18a1.78,1.78,0,0,0-.14.72l0,.86h-5.94Z" transform="translate(-47.14 -17.43)"/><path class="cls-15" d="M468.62,493.32l-.12,25.82-13.34.59a.74.74,0,0,0-.3-.58l-.06-27.45V483h13.71v8.67C468.55,492.24,468.58,492.78,468.62,493.32Z" transform="translate(-47.14 -17.43)"/><path class="cls-21" d="M276,519.73l.15-53.24h5.55q.1,24.21.2,48.42c0,1.46,0,2.92,0,4.6l5.31.39c-.46.48-1,1.41-1.36,1.36C282.57,520.85,279.29,520.26,276,519.73Z" transform="translate(-47.14 -17.43)"/><path class="cls-21" d="M295.28,519.72l.16-53.23h5.4c.1,10.71.23,21.43.31,32.15,0,6.88,0,13.76,0,20.83l3.86.41c-.33.46-.73,1.35-1,1.31C301.1,520.79,298.19,520.23,295.28,519.72Z" transform="translate(-47.14 -17.43)"/><path class="cls-22" d="M262.5,466.48q.09,22.39.19,44.79c0,2.83.06,5.67.1,8.51,0,.28,0,.56,0,.84l-6-.87q.09-26.62.2-53.27Z" transform="translate(-47.14 -17.43)"/><path class="cls-15" d="M474.07,519.14v-21.7h13.46v21.7a.49.49,0,0,0-.21.52l-13.07,0A.39.39,0,0,0,474.07,519.14Z" transform="translate(-47.14 -17.43)"/><path class="cls-21" d="M314.54,519.69q.09-26.6.17-53.2H320c.08,12.41.19,24.82.22,37.23,0,5.28-.11,10.56-.18,15.84Z" transform="translate(-47.14 -17.43)"/><path class="cls-15" d="M141.05,445.74c-3,0-5.94.08-8.9-.07-2.31-.12-3,.84-2.94,3q.07,33.36,0,66.71c0,2.2.63,3.16,2.95,3,3-.16,5.92-.06,8.89-.07l.27.75a.84.84,0,0,0-.27.59L128,519.57a.32.32,0,0,0-.14-.43q0-12.6-.07-25.21l0-2.23v-23c0-.74,0-1.48,0-2.22V444.37c4.45,0,8.24,0,12,.06C140.22,444.44,140.63,445.28,141.05,445.74Z" transform="translate(-47.14 -17.43)"/><path class="cls-23" d="M405.87,519.85h-8.51v-4.49q0-22.22,0-44.44c0-1.48-.14-2.95-.22-4.43V447.86l13.18,1.58c-3.08,0-6.16.06-9.23,0-1.86-.05-2.65.6-2.65,2.56q.07,31.95,0,63.91c0,2,.82,2.59,2.66,2.54,3.08-.08,6.16,0,9.24,0l-3,1.45Z" transform="translate(-47.14 -17.43)"/><path class="cls-15" d="M429.57,518.4l0,1.33-13-.35q-.07-26.44-.16-52.89V455c4.39,0,8.27-.05,12.14.08.37,0,.71,1.16,1.06,1.78-.59-.16-1.17-.35-1.77-.49-8.5-1.9-10.06-.71-10.06,7.75,0,16.87.07,33.75-.06,50.63,0,3,.88,3.94,3.78,3.71C424.14,518.23,426.86,518.4,429.57,518.4Z" transform="translate(-47.14 -17.43)"/><path class="cls-15" d="M435.68,519.58l-.2-53.09V458l4.5-.43h6.67l2.1.86c-2.92.22-5.84.6-8.76.61-2.17,0-3.06.63-3.05,2.94q.1,26.81,0,53.61c0,2.32.88,2.94,3.05,3,2.93,0,5.85.36,8.77.57Z" transform="translate(-47.14 -17.43)"/><path class="cls-24" d="M237.64,413.82v.78q0,13.33.05,26.68,0,12.6,0,25.21c0,.74,0,1.49,0,2.23q0,12.24,0,24.46l0,.75q0,12.6,0,25.21a1.78,1.78,0,0,0-.2.68l0,0-1.43.19H225.67l-1.44-.23a1.78,1.78,0,0,1,.14-.72L225,519l.31.09h.33l10.43,0,.7-.68V404.93l-.71-.71H225.65a1.2,1.2,0,0,0-.65.11l-.62,0,0-.77c3.32,0,6.65.11,10-.12,2.71-.19,3.42.93,3.26,3.42C237.43,409.14,237.61,411.49,237.64,413.82Z" transform="translate(-47.14 -17.43)"/><path class="cls-21" d="M224.36,403.52c0,.26,0,.51,0,.77l-.3,10.29h-5.74q0-11.86,0-23.73c.47,1.09,1.32,2.18,1.35,3.28.14,5.41,0,10.82.08,16.23a31.21,31.21,0,0,0,.37,3.32l1.53,0a28.36,28.36,0,0,1,.39-5.55A23.05,23.05,0,0,1,224.36,403.52Z" transform="translate(-47.14 -17.43)"/><path class="cls-21" d="M262.75,520.62c0-.28,0-.56,0-.84l11.82.12c-.34.46-.69,1.33-1,1.32C270,521.1,266.36,520.84,262.75,520.62Z" transform="translate(-47.14 -17.43)"/><path class="cls-21" d="M243.3,490.22c0,1.24,0,2.47,0,3.71h-5v-.74Z" transform="translate(-47.14 -17.43)"/><path class="cls-20" d="M198.8,519.64a.49.49,0,0,1,.2-.51h5.86a.51.51,0,0,1,.21.51Z" transform="translate(-47.14 -17.43)"/><path class="cls-20" d="M199.05,388.63v-1.5h5.77v1.49Z" transform="translate(-47.14 -17.43)"/><path class="cls-21" d="M197.42,377.3l-11,0Z" transform="translate(-47.14 -17.43)"/><path class="cls-21" d="M306.5,519.89h5.19C309.78,522,308.41,522,306.5,519.89Z" transform="translate(-47.14 -17.43)"/><path class="cls-21" d="M288.7,519.89h4.45Q290.93,523.32,288.7,519.89Z" transform="translate(-47.14 -17.43)"/><path class="cls-21" d="M321.33,519.92l4.45,0C324.31,522.18,322.83,522.15,321.33,519.92Z" transform="translate(-47.14 -17.43)"/><path class="cls-21" d="M328,519.89h4.45C331,522.17,329.49,522.18,328,519.89Z" transform="translate(-47.14 -17.43)"/><path class="cls-21" d="M490.4,441.27l-1.47-.75a10.63,10.63,0,0,1,1.75-1.35c.17-.09.69.49,1,.77Z" transform="translate(-47.14 -17.43)"/><path class="cls-21" d="M237.45,519.82a1.78,1.78,0,0,1,.2-.68h3.56v.68Z" transform="translate(-47.14 -17.43)"/><path class="cls-21" d="M236.05,520l1.43-.19c-.26.42-.52.84-.77,1.26Z" transform="translate(-47.14 -17.43)"/><path class="cls-21" d="M218.14,519.59l.11,1-1.48-.74Z" transform="translate(-47.14 -17.43)"/><path class="cls-21" d="M224.23,519.76l1.44.23-1.48.63Z" transform="translate(-47.14 -17.43)"/><path class="cls-15" d="M147.54,518.5l1,1-.78-.32-.1-.2-.2-.19Z" transform="translate(-47.14 -17.43)"/><path class="cls-15" d="M147.65,518.94l.1.21a.7.7,0,0,1-.51.35l-.09-.28,0,0A2.7,2.7,0,0,0,147.65,518.94Z" transform="translate(-47.14 -17.43)"/><path class="cls-15" d="M158.9,519.87c0-.14.07-.29.11-.43l.32.09.28-.17a1.76,1.76,0,0,0,.13.5Z" transform="translate(-47.14 -17.43)"/><path class="cls-15" d="M148.54,413.13l-1,.64Z" transform="translate(-47.14 -17.43)"/><path class="cls-20" d="M238.28,493.19v.74h-.62c0-.25,0-.5,0-.75Z" transform="translate(-47.14 -17.43)"/><path class="cls-25" d="M237.68,466.49q0-12.62,0-25.21h5.59v25.21Z" transform="translate(-47.14 -17.43)"/><path class="cls-25" d="M199.05,388.63h5.77q0,12.6,0,25.2h-5.75Q199.06,401.23,199.05,388.63Z" transform="translate(-47.14 -17.43)"/><path class="cls-25" d="M199.06,466.48v-25.2h5.75v25.2Z" transform="translate(-47.14 -17.43)"/><path class="cls-25" d="M204.86,519.14H199l.06-25.19h5.76Q204.84,506.53,204.86,519.14Z" transform="translate(-47.14 -17.43)"/><path class="cls-25" d="M199,492.44V468h5.79v24.46Z" transform="translate(-47.14 -17.43)"/><path class="cls-25" d="M199,439.79V415.33h5.79v24.46Z" transform="translate(-47.14 -17.43)"/><path class="cls-20" d="M205.66,364.12h0Z" transform="translate(-47.14 -17.43)"/><path class="cls-20" d="M204.83,415.33H199l0-1.5h5.75C204.82,414.33,204.83,414.83,204.83,415.33Z" transform="translate(-47.14 -17.43)"/><path class="cls-20" d="M204.83,468H199l0-1.5h5.75Z" transform="translate(-47.14 -17.43)"/><path class="cls-20" d="M199,439.79h5.79l0,1.49h-5.75Z" transform="translate(-47.14 -17.43)"/><path class="cls-20" d="M199,492.44h5.79v1.49h-5.76Z" transform="translate(-47.14 -17.43)"/><path class="cls-15" d="M159.61,519.36l-.28.17-.32-.09c.08-.18.16-.37.25-.56Z" transform="translate(-47.14 -17.43)"/><path class="cls-15" d="M147.13,519.24c0-.31,0-.62,0-.92a1.25,1.25,0,0,0,.45.18l-.09.26.2.19A3.29,3.29,0,0,1,147.13,519.24Z" transform="translate(-47.14 -17.43)"/><path class="cls-15" d="M179.69,416.06l-.22.73-1.25-1.09Z" transform="translate(-47.14 -17.43)"/><path class="cls-15" d="M166.67,416.79c0-.43,0-.86,0-1.29l1.1.19Z" transform="translate(-47.14 -17.43)"/><path class="cls-15" d="M179.54,518.41l.24.75-1.5.28Z" transform="translate(-47.14 -17.43)"/><path class="cls-25" d="M238.28,493.19h-.6q0-12.23,0-24.46l5.64,1.48v20Z" transform="translate(-47.14 -17.43)"/><path class="cls-21" d="M243.3,470.2l-5.64-1.48c0-.74,0-1.49,0-2.23h5.6Z" transform="translate(-47.14 -17.43)"/><path class="cls-23" d="M410.33,493.15a4.21,4.21,0,0,1,.16.55c0,.08-.11.17-.16.25Z" transform="translate(-47.14 -17.43)"/><path class="cls-26" d="M224.08,414.58l.3-10.29.62,0,.65-.11h10.41l.71.71V518.41c-.23.23-.46.46-.7.68l-10.43,0L225,519l-.63.06-.12-98.18C224.24,418.77,224.14,416.67,224.08,414.58Z" transform="translate(-47.14 -17.43)"/><path class="cls-27" d="M225.65,404.23l-.65.11A1.2,1.2,0,0,1,225.65,404.23Z" transform="translate(-47.14 -17.43)"/><path class="cls-27" d="M236.77,404.93l-.71-.71Z" transform="translate(-47.14 -17.43)"/><path class="cls-27" d="M225,519l.64.09h-.33Z" transform="translate(-47.14 -17.43)"/><path class="cls-27" d="M236.07,519.09c.24-.22.47-.45.7-.68Z" transform="translate(-47.14 -17.43)"/><path class="cls-28" d="M402.51,321.36a1.33,1.33,0,0,1,1.19-.84,13.62,13.62,0,0,1,1.42-.13q58.15,0,116.31,0c.68,0,1.37,0,2.05.09.86.06,1.15.32,1.26,1.18a8.92,8.92,0,0,1,.09,1.63,1.19,1.19,0,0,1-1.17,1.31,15.28,15.28,0,0,1-2.14.14H500l-95.36-.08h-.72c-1.18,0-1.19,0-1.3-1.18C402.56,322.8,402.53,322.08,402.51,321.36Z" transform="translate(-47.14 -17.43)"/><path class="cls-29" d="M273.37,233.55H224.72l-10.46,0h-.62c-1.44,0-1.72-.37-1.59-1.81a16.82,16.82,0,0,0,0-1.74.67.67,0,0,1,.75-.76h68.76l50.38,0a6.79,6.79,0,0,1,1.43.1,1.14,1.14,0,0,1,1,1.39c0,.71-.09,1.42-.12,2.14,0,.46-.22.69-.69.68-.31,0-.62,0-.93,0Z" transform="translate(-47.14 -17.43)"/><path class="cls-29" d="M395.9,215.25H337c-.31,0-.62,0-.92,0-.7-.07-1.09-.4-1.12-1.1a10.94,10.94,0,0,1,.12-2.14c.11-.77.37-1,1.16-1,.54,0,1.09,0,1.64,0H454.37c.37,0,.75,0,1.13,0,1.05.06,1.48.48,1.48,1.55,0,.61-.1,1.22-.16,1.83a.93.93,0,0,1-.87.87,9.86,9.86,0,0,1-1.33.05Z" transform="translate(-47.14 -17.43)"/><path class="cls-30" d="M247.37,324a1,1,0,0,1-1.15.65c-.41,0-.82,0-1.23,0H173.67l-45.26,0a10.28,10.28,0,0,1-1.84-.11,1.28,1.28,0,0,1-1.21-1.5,11.3,11.3,0,0,1,.14-1.53c.12-.79.42-1.07,1.21-1.13s1.3-.05,2-.05H244.32c.54,0,1.09,0,1.64,0a1.4,1.4,0,0,1,1.48,1.15C247.41,322.33,247.39,323.15,247.37,324Z" transform="translate(-47.14 -17.43)"/><path class="cls-29" d="M395.12,233.55h-47l-10.87,0h-.83c-1.24,0-1.56-.39-1.52-1.63,0-.61,0-1.23,0-1.84s.23-.78.81-.83c.24,0,.48,0,.72,0h65.89l50.29,0a6.79,6.79,0,0,1,1.43.11,1,1,0,0,1,.92,1.16c0,.79,0,1.58,0,2.36a.62.62,0,0,1-.71.68H395.12Z" transform="translate(-47.14 -17.43)"/><path class="cls-30" d="M251.28,315.13a1.09,1.09,0,0,1-1.05.5c-.41,0-.82,0-1.23,0H169.35q-16.89,0-33.77,0a14.39,14.39,0,0,1-1.74-.06,1.4,1.4,0,0,1-1.36-1.61,13.26,13.26,0,0,1,.17-1.53c.1-.69.35-1,1-1.06a12.6,12.6,0,0,1,1.74-.07H249.16a3.25,3.25,0,0,1,2,.49,9.87,9.87,0,0,1,.16,1.2C251.3,313.71,251.28,314.42,251.28,315.13Z" transform="translate(-47.14 -17.43)"/><path class="cls-29" d="M275.73,210.94h56.14a11.81,11.81,0,0,1,1.33,0,1.21,1.21,0,0,1,1.22,1.45c0,.72-.09,1.43-.12,2.15a.64.64,0,0,1-.72.68H219.35c-1.55,0-1.81-.29-1.74-1.8,0-.54,0-1.09,0-1.64,0-.71.13-.84.83-.86s1.23,0,1.85,0h55.42Z" transform="translate(-47.14 -17.43)"/><path class="cls-29" d="M219.16,293.26a7.08,7.08,0,0,1,1.1-.15q6.53,0,13,0h99a4.92,4.92,0,0,1,1.21.12,1,1,0,0,1,.94,1.15c0,.78,0,1.56-.05,2.34a.64.64,0,0,1-.71.7H246.5c-8.35,0-16.7.07-25,.08a15.25,15.25,0,0,1-2-.24c0-.82,0-1.64.12-2.45A1.92,1.92,0,0,0,219.16,293.26Z" transform="translate(-47.14 -17.43)"/><path class="cls-29" d="M334.28,242.33c-.53,0-.9.06-1.26.06H209.32c-.41,0-.82.07-1.23.1-.58.05-.87-.12-.9-.7-.06-.88,0-1.77,0-2.66a.62.62,0,0,1,.73-.66c.31,0,.62,0,.93,0H331.51c.62,0,1.23-.05,1.85-.05s.87.13.91.82C334.32,240.21,334.28,241.2,334.28,242.33Z" transform="translate(-47.14 -17.43)"/><path class="cls-29" d="M277.37,219.78h54.71a10.06,10.06,0,0,1,1.23,0,1.11,1.11,0,0,1,1.09,1.25c0,.78-.07,1.56-.1,2.34a.64.64,0,0,1-.72.68H223.23a9.86,9.86,0,0,1-1.33,0,1.19,1.19,0,0,1-1.11-1.35c0-.72.09-1.43.11-2.15,0-.49.22-.77.74-.76h55.73Z" transform="translate(-47.14 -17.43)"/><path class="cls-29" d="M224,283.64l1.44,0h53.48l52.66,0c.48,0,1,0,1.43,0a1.34,1.34,0,0,1,1.4,1.46,14.07,14.07,0,0,1-.19,2,.89.89,0,0,1-.95.77c-.51,0-1,0-1.54,0H225a9.29,9.29,0,0,1-1.39-.19c.83-.19.84-.19.85-.93a12.32,12.32,0,0,1,0-1.61A1.68,1.68,0,0,0,224,283.64Z" transform="translate(-47.14 -17.43)"/><path class="cls-29" d="M389.18,219.78h52.35a10.06,10.06,0,0,1,1.23,0,1.14,1.14,0,0,1,1.11,1.33c0,.74,0,1.49-.05,2.24a.67.67,0,0,1-.72.7H337.27a8.43,8.43,0,0,1-1.23,0,1.18,1.18,0,0,1-1.16-1.39c0-.68,0-1.36,0-2s.21-.81.88-.84h53.38Z" transform="translate(-47.14 -17.43)"/><path class="cls-29" d="M225.9,275a6.86,6.86,0,0,1,1-.21c.72,0,1.44,0,2.16,0H324l8.32,0a7,7,0,0,1,.92,0,1.18,1.18,0,0,1,1.19,1.37c0,.72-.09,1.43-.11,2.14,0,.5-.22.78-.73.78H258.22l-30,0a4.06,4.06,0,0,1-2.2-.33c0-.77.06-1.54,0-2.31A11.88,11.88,0,0,0,225.9,275Z" transform="translate(-47.14 -17.43)"/><path class="cls-29" d="M386.5,197.23H337.24c-.38,0-.76,0-1.13,0a1.14,1.14,0,0,1-1.22-1.31c0-.72,0-1.43,0-2.14s.23-.81.81-.83,1.3,0,1.95,0h97.59a7.59,7.59,0,0,1,1.43.1,1.12,1.12,0,0,1,1,1.25c0,.75-.09,1.49-.11,2.24a.66.66,0,0,1-.78.72H386.5Z" transform="translate(-47.14 -17.43)"/><path class="cls-30" d="M240.74,306.15a7,7,0,0,1-1.1.18H172.82q-15.81,0-31.61,0a9,9,0,0,1-1.64-.1,1.17,1.17,0,0,1-1.11-1.26,12,12,0,0,1,.2-2.24c.07-.47.45-.66.9-.69s.89,0,1.33,0h64.56l28.64,0c1.47,0,2.94-.06,4.41-.06a3.26,3.26,0,0,1,2.25.52C240.75,303.71,240.74,304.93,240.74,306.15Z" transform="translate(-47.14 -17.43)"/><path class="cls-29" d="M283.37,197.23H234.2a10.11,10.11,0,0,1-1.23,0,1,1,0,0,1-1-1.11c0-.82,0-1.64,0-2.46a.62.62,0,0,1,.7-.69H332a6.79,6.79,0,0,1,1.43.1,1.11,1.11,0,0,1,1,1.31c0,.75-.08,1.5-.13,2.24a.61.61,0,0,1-.63.66H283.37Z" transform="translate(-47.14 -17.43)"/><path class="cls-29" d="M436.27,251.31a8.62,8.62,0,0,1-1,.27,10.63,10.63,0,0,1-1.13,0H337c-1.91,0-2.22-.36-2-2.25a10.51,10.51,0,0,0,0-1.12c0-.72.18-.92.89-.94h89.93c2.94,0,5.88,0,8.83,0a2,2,0,0,1,1.67.59Z" transform="translate(-47.14 -17.43)"/><path class="cls-29" d="M435.26,296.6a1.36,1.36,0,0,1-1.42.78c-.45,0-.89,0-1.34,0H359.32c-7.32,0-14.64.07-22,.12-2.19,0-2.57-.38-2.45-2.58a1.41,1.41,0,0,0,0-.2c.11-1.34.37-1.59,1.71-1.63h88c3,0,6,0,8.93,0a1.83,1.83,0,0,1,1.79.75C435.29,294.74,435.28,295.67,435.26,296.6Z" transform="translate(-47.14 -17.43)"/><path class="cls-29" d="M435,286.06a.44.44,0,0,0-.07.19c-.2,1.53-.32,1.64-1.85,1.67H336.32c-1-.06-1.4-.45-1.41-1.49a12.47,12.47,0,0,1,.13-1.73c.11-.78.34-1,1.12-1.06.41,0,.82,0,1.23,0h95.85c.7,0,1.4,0,1.71.8Z" transform="translate(-47.14 -17.43)"/><path class="cls-29" d="M444.35,242.39H337.44a11.71,11.71,0,0,0-1.32.09c-.81.08-1-.07-1.18-.89a7.11,7.11,0,0,1,.29-3.08,4.75,4.75,0,0,1,.57-.06H441.5c.62,0,1.23,0,1.85,0,.87,0,1.06.09,1.1,1S444.4,241.27,444.35,242.39Z" transform="translate(-47.14 -17.43)"/><path class="cls-30" d="M422.1,311.39l.93,0,90.64.07c.89,0,1.78,0,2.67,0s1.15.27,1.25,1.14c.06.51.11,1,.12,1.54a1.36,1.36,0,0,1-1.37,1.58,5.62,5.62,0,0,1-.92,0H423.24a13.8,13.8,0,0,1-1.44,0,4.4,4.4,0,0,1-.92-.33c0-.71,0-1.43,0-2.13C420.75,312,420.84,311.83,422.1,311.39Z" transform="translate(-47.14 -17.43)"/><path class="cls-29" d="M335.18,202.18a5,5,0,0,1,.62-.08l39,0H438c.71,0,1.43,0,2.15-.08s.91.1.95.77c.06,1,0,2,0,3.16-.62,0-1.12.08-1.62.08H338.59c-.89,0-1.78.06-2.67.1-.61,0-.79-.08-.92-.7A7,7,0,0,1,335.18,202.18Z" transform="translate(-47.14 -17.43)"/><path class="cls-29" d="M431,278.35a1.45,1.45,0,0,1-1.47.73h-80l-12.62,0c-.24,0-.48,0-.72,0-.81-.06-1.19-.39-1.22-1.21a12.63,12.63,0,0,1,.12-2c.11-.72.36-.95,1.07-1,.54-.05,1.09,0,1.64,0h65.57q12.89,0,25.76,0a4.68,4.68,0,0,1,1.39.21c.22.07.36.38.54.58,0,.5,0,1,0,1.48l-.06,1.08Z" transform="translate(-47.14 -17.43)"/><path class="cls-29" d="M239.42,247.31l1.43,0h78.71l12.41,0h.72c1.44,0,1.83.48,1.65,1.89-.06.5,0,1,0,1.53,0,.71-.14.84-.82.88-.31,0-.62,0-.93,0H240.2a11,11,0,0,1-1.39-.18c.34,0,.75,0,.75-.48C239.54,249.73,239.47,248.52,239.42,247.31Z" transform="translate(-47.14 -17.43)"/><path class="cls-29" d="M230,202.13H332.07c.45,0,.89-.06,1.33-.07.59,0,.84.16.86.76,0,.89,0,1.77,0,2.66,0,.38-.24.55-.59.57H232.37c-.55,0-1.09.07-1.63.1s-.9-.13-1-.68A8.59,8.59,0,0,1,230,202.13Z" transform="translate(-47.14 -17.43)"/><path class="cls-29" d="M431,305.82a.74.74,0,0,1-.79.52H375.49l-37.57,0c-.68,0-1.37,0-2.05.06a.76.76,0,0,1-.92-.73,7.82,7.82,0,0,1,.21-3.26,2.94,2.94,0,0,1,.52-.1h40.65q21.15,0,42.3,0c3.8,0,7.59,0,11.39-.05.51,0,.88.11,1,.65l.06,1.4-.09,1.13Z" transform="translate(-47.14 -17.43)"/><path class="cls-29" d="M247.37,324c0-.83,0-1.65.07-2.48a1.19,1.19,0,0,1,1.18-.79c.62,0,1.23-.08,1.85-.08h73.91l7.8,0a6.16,6.16,0,0,1,1.22.12c.78.18,1,.51,1,1.31s0,1.42-.05,2.14c0,.56-.25.78-.82.83-.17,0-.34,0-.52,0H273l-22.9,0c-.41,0-.82,0-1.23,0A1.44,1.44,0,0,1,247.37,324Z" transform="translate(-47.14 -17.43)"/><path class="cls-29" d="M243.48,256.84c.54,0,1.09-.08,1.63-.08h87c.3,0,.61,0,.92,0,1,.1,1.42.6,1.32,1.65-.06.61-.06,1.22-.09,1.84s-.12.77-.77.8h-65l-23.4,0c-.51,0-1-.06-1.53-.09a13.06,13.06,0,0,0,.18-3.42C243.82,257.33,243.6,257.08,243.48,256.84Z" transform="translate(-47.14 -17.43)"/><path class="cls-29" d="M425.42,260.33a1.25,1.25,0,0,1-1.34.72c-.41,0-.82,0-1.23,0h-86a5.66,5.66,0,0,1-.92,0c-.62-.08-1-.36-1-1a18.67,18.67,0,0,1,.11-2.24,1,1,0,0,1,1-1,13.23,13.23,0,0,1,1.54-.07h85.8c.8,0,1.59,0,2.07.81Z" transform="translate(-47.14 -17.43)"/><path class="cls-29" d="M235.1,266c.65,0,1.3,0,2,0H331.8c.51,0,1,0,1.54,0,.72,0,.88.08.93.78a26,26,0,0,1,0,2.65c0,.45-.31.63-.77.62-1.36-.05-2.73-.08-4.1-.08H247.14c-3.22,0-6.43,0-9.65,0-.58,0-1.16.09-1.74.1a3.48,3.48,0,0,1-.69-.1A9.07,9.07,0,0,0,235.1,266Z" transform="translate(-47.14 -17.43)"/><path class="cls-29" d="M240.74,306.15c0-1.22,0-2.44,0-3.65a12.79,12.79,0,0,1,1.61-.18q21.3,0,42.6,0h46.8c.55,0,1.1,0,1.64,0a.73.73,0,0,1,.88.64,7.46,7.46,0,0,1-.09,3.05c-.07.38-.41.41-.74.4-.65,0-1.3,0-1.95,0l-69.58,0-18.48,0c-.58,0-1.16.05-1.74,0A6.32,6.32,0,0,1,240.74,306.15Z" transform="translate(-47.14 -17.43)"/><path class="cls-29" d="M422.1,311.39c-1.26.44-1.35.6-1.25,1.91.06.7,0,1.42,0,2.13l-1.44,0H356.23c-6.26,0-12.52.06-18.78.08a8.9,8.9,0,0,1-1.63-.14,1,1,0,0,1-.94-1.15c0-.75,0-1.5,0-2.25s.23-.79.81-.84c.2,0,.41,0,.62,0h84A11.22,11.22,0,0,1,422.1,311.39Z" transform="translate(-47.14 -17.43)"/><path class="cls-31" d="M224,283.64a1.68,1.68,0,0,1,.49,1.55,12.32,12.32,0,0,0,0,1.61c0,.74,0,.74-.85.93-.45,0-.89-.05-1.34-.05l-76.36,0h-9.13c-.28,0-.55,0-.82,0-1.09-.07-1.48-.46-1.48-1.53a11.35,11.35,0,0,1,.08-1.54c.1-.79.32-1,1.11-1.05.51,0,1,0,1.54,0h79.74c1.54,0,3.08-.07,4.62-.07C222.36,283.49,223.17,283.58,224,283.64Z" transform="translate(-47.14 -17.43)"/><path class="cls-32" d="M219.16,293.26a1.92,1.92,0,0,1,.4,1.52c-.09.81-.09,1.63-.12,2.45-.47,0-.94.13-1.42.13H136.66c-2.09,0-2.28-.19-2.19-2.3.07-1.86.22-2,2.12-2h69.16c3.93,0,7.86,0,11.8,0A12.61,12.61,0,0,1,219.16,293.26Z" transform="translate(-47.14 -17.43)"/><path class="cls-29" d="M251.28,315.13c0-.71,0-1.42,0-2.13a9.87,9.87,0,0,0-.16-1.2,1.4,1.4,0,0,1,1.22-.63c.41,0,.83,0,1.24,0h78.72c1.93,0,2.21.32,2,2.22a5.83,5.83,0,0,0,0,1c.06.88-.08,1-.92,1.07h-.51q-30.64,0-61.28,0c-6,0-12,.07-18,.1A4.28,4.28,0,0,1,251.28,315.13Z" transform="translate(-47.14 -17.43)"/><path class="cls-28" d="M225.9,275a11.88,11.88,0,0,1,.18,1.46c0,.77,0,1.54,0,2.31a8.62,8.62,0,0,1-1,.22c-.58,0-1.16,0-1.74,0H161.56l-15.5,0c-2,0-2.23-.28-2.16-2.28s.11-2,2.14-2h70c2.7,0,5.4-.07,8.1-.06A9.16,9.16,0,0,1,225.9,275Z" transform="translate(-47.14 -17.43)"/><path class="cls-29" d="M422.15,269.51a.9.9,0,0,1-.84.46c-1.57-.06-3.14-.08-4.71-.08H337.45a11.71,11.71,0,0,0-1.32.09c-.81.09-1.12-.07-1.16-.89s.06-2,.1-3c.51,0,.91-.1,1.31-.1h83.45c.48,0,1,0,1.44,0a.76.76,0,0,1,.9.63Z" transform="translate(-47.14 -17.43)"/><path class="cls-29" d="M371.56,183.34h28.53l6.16,0c.24,0,.48,0,.72,0,1.18.09,1.56.53,1.49,1.72,0,.47,0,.95-.09,1.43-.08.79-.36,1.1-1.14,1.19a11.49,11.49,0,0,1-1.44,0H337.35c-.31,0-.62,0-.93,0-1.2-.06-1.57-.47-1.53-1.67,0-.58,0-1.16,0-1.74a.79.79,0,0,1,.75-.91,5.69,5.69,0,0,1,.82-.08h35.09Z" transform="translate(-47.14 -17.43)"/><path class="cls-30" d="M431.08,304.32l-.06-1.4a1.41,1.41,0,0,1,1.4-.82h.93l71.33,0c.37,0,.75,0,1.13,0a.9.9,0,0,1,.92.91,19.17,19.17,0,0,1,.11,2.14c0,.83-.39,1.15-1.21,1.25a8.86,8.86,0,0,1-1,0H494.54l-62.29-.08c-.52,0-1.05.08-1.25-.59,0-.12,0-.24,0-.37Z" transform="translate(-47.14 -17.43)"/><path class="cls-30" d="M435.26,296.6c0-.93,0-1.86.05-2.78a1.64,1.64,0,0,1,1.53-.66c.85,0,1.71.06,2.56.06l69.38,0c2,0,2,0,2.06,2,0,.34,0,.69,0,1a1.19,1.19,0,0,1-1.27,1.3c-.31,0-.62,0-.92,0l-34.69,0-26.58,0h-11C435.51,297.52,435.51,297.51,435.26,296.6Z" transform="translate(-47.14 -17.43)"/><path class="cls-33" d="M422.15,269.51l0-3a1.46,1.46,0,0,1,1.52-.8c1.85,0,3.7,0,5.54,0H494c2,0,2,0,2.12,1.95a7.72,7.72,0,0,1,0,1.52.91.91,0,0,1-.91.82,10.57,10.57,0,0,1-1.13,0l-70.6,0C422.92,270.06,422.38,270.16,422.15,269.51Z" transform="translate(-47.14 -17.43)"/><path class="cls-32" d="M435,286.06l-.06-1.65a1.44,1.44,0,0,1,1.52-.8h72.16c.3,0,.61,0,.92,0,.92,0,1.17.26,1.25,1.14a14.45,14.45,0,0,1,.05,1.74c0,.87-.28,1.14-1.15,1.28a7.07,7.07,0,0,1-1.13.06l-4.61,0-67.74-.08h-1.1Z" transform="translate(-47.14 -17.43)"/><path class="cls-28" d="M235.1,266a9.07,9.07,0,0,1,0,3.88c-.84,0-1.69.1-2.54.1-3.69,0-7.39-.07-11.08-.07L171,270l-7.39,0c-1.73,0-2-.31-2-2,0-.51.07-1,.13-1.53a.75.75,0,0,1,.83-.73l1.13,0q28.51,0,57,0c4,0,8.07-.06,12.1-.09A3.68,3.68,0,0,1,235.1,266Z" transform="translate(-47.14 -17.43)"/><path class="cls-29" d="M300.59,187.73H268.78c-.21,0-.41,0-.62,0-1.5,0-1.9-.43-1.8-1.91,0-.48.09-1,.15-1.43a.94.94,0,0,1,.92-.93c.61-.05,1.22-.11,1.84-.11h62.79a6.48,6.48,0,0,1,1.32.11c.82.17,1.07.54,1,1.38,0,.61,0,1.22,0,1.83a.92.92,0,0,1-.87,1.06,4.15,4.15,0,0,1-.61,0Z" transform="translate(-47.14 -17.43)"/><path class="cls-29" d="M402.51,321.36c0,.72.05,1.44.07,2.16-.41,1.37-.57,1.48-2.23,1.48H366.78l-29.15,0h-.72c-2,.06-2.2-.69-2-2.1a7,7,0,0,0,0-1c0-.95.22-1.24,1.18-1.27s1.64,0,2.46,0c1.37,0,2.73,0,4.1,0,.48,0,1-.05,1.43-.05h53c1.3,0,2.6,0,3.9,0C401.58,320.63,402.23,320.63,402.51,321.36Z" transform="translate(-47.14 -17.43)"/><path class="cls-32" d="M431,278.35v-.22l.06-1.08c0-.49,0-1,0-1.48a1.53,1.53,0,0,1,1.62-.8c3.29,0,6.57,0,9.85,0l56.94,0c1.84,0,1.92.07,2,1.87a13.62,13.62,0,0,1,0,1.43,1,1,0,0,1-1,1,8.8,8.8,0,0,1-1,0l-67.19,0C431.58,279.1,431.09,279.08,431,278.35Z" transform="translate(-47.14 -17.43)"/><path class="cls-33" d="M243.48,256.84c.12.24.34.49.33.73a13.06,13.06,0,0,1-.18,3.42l-14.37,0H181.65c-1.89,0-2.05-.16-2-2,0-.41,0-.82.05-1.23.09-.8.31-1,1.11-1,.27,0,.55,0,.82,0h60.55C242.6,256.72,243,256.8,243.48,256.84Z" transform="translate(-47.14 -17.43)"/><path class="cls-28" d="M425.42,260.33l0-2.78a1.45,1.45,0,0,1,1.53-.78c2.36,0,4.72,0,7.08,0,4.65,0,9.3.08,13.95.07q18.36,0,36.73-.07a13.07,13.07,0,0,1,1.53.08c.72.08.87.23.93,1s.06,1.3.05,2c0,1-.34,1.36-1.35,1.39-1.2,0-2.4,0-3.59,0l-.72,0-54.89-.08C425.71,261.08,425.71,261.08,425.42,260.33Z" transform="translate(-47.14 -17.43)"/><path class="cls-33" d="M239.42,247.31c.05,1.21.12,2.42.14,3.63,0,.46-.41.47-.75.48l-1.23,0H192.86c-1.12,0-1.31-.19-1.34-1.31,0-.69,0-1.37,0-2.05s.24-.92,1-.95h45.65A6.3,6.3,0,0,1,239.42,247.31Z" transform="translate(-47.14 -17.43)"/><path class="cls-29" d="M381.57,178.52H380l-42.48,0c-.48,0-1,0-1.43,0-.76-.06-1.14-.41-1.15-1.16a15.67,15.67,0,0,1,.13-1.94.81.81,0,0,1,.88-.81c.61,0,1.22-.1,1.84-.11h25.44c5.2,0,10.4.07,15.6.09a16.88,16.88,0,0,0,1.73-.1c1-.1,1.24.1,1.31,1.08A7.21,7.21,0,0,1,381.57,178.52Z" transform="translate(-47.14 -17.43)"/><path class="cls-29" d="M314.24,178.54H295.56a5.78,5.78,0,0,1-.72,0,.85.85,0,0,1-.83-.88,20,20,0,0,1,0-2c.06-.66.33-.89,1-1s1.29-.11,1.94-.12h21.35c4.45,0,8.89.07,13.34.09a13.1,13.1,0,0,0,1.53-.1c.81-.08,1,0,1.07.82a20,20,0,0,1,0,2.45c-.05.71-.16.78-.9.78h-19.1Z" transform="translate(-47.14 -17.43)"/><path class="cls-29" d="M350.63,169.71H336.17c-.93,0-1.25-.33-1.26-1.23a12.64,12.64,0,0,1,.14-2c.11-.7.38-.92,1.09-1a8.69,8.69,0,0,1,1,0l27.89,0c.21,0,.41,0,.62,0,.71.06,1,.28,1.08,1a10.79,10.79,0,0,1-.16,2.54c0,.27-.48.56-.8.67a4.39,4.39,0,0,1-1.31.11H350.63Z" transform="translate(-47.14 -17.43)"/><path class="cls-33" d="M436.27,251.31l0-3.45a.82.82,0,0,1,1-.71c.75,0,1.5.08,2.25.08q12.19,0,24.41,0h1.34a10,10,0,0,1,.16,3.75c-.05.44-.41.59-.84.58l-1.64,0q-12.66,0-25.33,0A7.93,7.93,0,0,1,436.27,251.31Z" transform="translate(-47.14 -17.43)"/><path class="cls-29" d="M324.41,169.7h-8c-1.27,0-1.48-.22-1.48-1.5,0-.51,0-1,.05-1.54a1.18,1.18,0,0,1,1.23-1.24c.34,0,.69,0,1,0l15.36,0c1.58,0,1.86.29,1.78,1.86a11.82,11.82,0,0,1-.14,1.32,1.06,1.06,0,0,1-1,1.07,7,7,0,0,1-1.12.06h-7.68Z" transform="translate(-47.14 -17.43)"/><path class="cls-29" d="M343.38,160.23h-6.87c-1.34,0-1.62-.27-1.6-1.62a12.47,12.47,0,0,1,.13-1.73,1,1,0,0,1,1-.92c.65,0,1.3-.11,2-.11q6.4,0,12.82,0a4.23,4.23,0,0,1,.71,0,.81.81,0,0,1,.76.82c0,.79,0,1.58,0,2.36s-.31.92-1,1a8.49,8.49,0,0,1-1.42.11h-6.46Z" transform="translate(-47.14 -17.43)"/><path class="cls-29" d="M334.41,157.54c-.05.53-.1,1.07-.14,1.61a.93.93,0,0,1-.9.95c-1.09.08-2.19.13-3.28.12a.85.85,0,0,1-.63-.53,9.78,9.78,0,0,1-.23-2.52,1.43,1.43,0,0,1,1.6-1.4,29.1,29.1,0,0,1,2.95.12c.2,0,.46.3.52.51A5.25,5.25,0,0,1,334.41,157.54Z" transform="translate(-47.14 -17.43)"/><path class="cls-29" d="M337.54,147c.51,0,1,0,1.53,0,.83,0,1.12.29,1.15,1.1a14.13,14.13,0,0,1,0,1.84c-.06.69-.34,1-1,1a20.82,20.82,0,0,1-3.06,0,1.3,1.3,0,0,1-1.34-1.5,9.49,9.49,0,0,1,.2-1.83c.07-.44.45-.57.85-.59.58,0,1.16,0,1.74,0Z" transform="translate(-47.14 -17.43)"/><path class="cls-25" d="M431.05,277.05l-.06,1.08Z" transform="translate(-47.14 -17.43)"/><path class="cls-25" d="M431.08,304.32l-.09,1.13Z" transform="translate(-47.14 -17.43)"/><path class="cls-15" d="M546,601.3" transform="translate(-47.14 -17.43)"/><path class="cls-15" d="M453.56,622.58l52.86-26.43a9.24,9.24,0,0,1,8.81,0c17.62,8.81,35.1,17.62,52.72,26.29a6.18,6.18,0,0,1,3.26,2.85v1.63a19.74,19.74,0,0,1-3.12,2.71q-25.62,15.86-51.23,31.44a10.85,10.85,0,0,1-12.06,0q-25.62-15.86-51.24-31.44" transform="translate(-47.14 -17.43)"/><path class="cls-15" d="M556.84,659c0,3.25-.14,6.64,0,9.89a13,13,0,0,1-3.39,9.35,33.62,33.62,0,0,1-11.38,8.54,66.33,66.33,0,0,1-23.18,6.37,73.38,73.38,0,0,1-31.58-3.39c-6.5-2.16-12.47-5.15-17.35-10-2.3-2.3-4.2-4.87-4.74-8.26a8.69,8.69,0,0,1-.14-1.9V648.87c0-1.08-.13-2.44,1.09-3.11s2,.27,3,.81c11.11,6.78,22.36,13.69,33.48,20.6q8.33,5.08,16.67,0c11.65-7,23.17-14.23,34.83-21.28a3.29,3.29,0,0,1,1-.54c.81-.27,1.35-.14,1.63.81a5.78,5.78,0,0,1,.13,1.49Z" transform="translate(-47.14 -17.43)"/><path class="cls-15" d="M567,659.44v17.35a2.06,2.06,0,0,0,.94,1.9,6.23,6.23,0,0,1-3.52,11.39A6.23,6.23,0,0,1,561,678.69a1.91,1.91,0,0,0,1-1.9V645.21a3.77,3.77,0,0,1,2-3.66,8.37,8.37,0,0,0,1.9-1.08c.68-.41,1.09-.14,1.22.68v1.08C567,647.92,567,653.75,567,659.44Z" transform="translate(-47.14 -17.43)"/><path class="cls-34" d="M162.2,710" transform="translate(-47.14 -17.43)"/><path class="cls-15" d="M225.63,672.45A42.47,42.47,0,0,1,217.5,687c-5.29,6-11.93,8.41-19.65,8.54A182.26,182.26,0,0,1,168,693.6a234.14,234.14,0,0,1-48-11.8,85.76,85.76,0,0,1-12.6-5.69,11.2,11.2,0,0,1-1.63-1.08.67.67,0,0,1-.41-.82c.14-.4.55-.27.82-.27a11.57,11.57,0,0,1,3,.27c11.25,2.44,22.63,4.34,34.15,6,10.17,1.49,20.33,2.84,30.63,2.44,8.27-.27,16.13-1.76,23.45-6,6.91-3.93,11.66-9.89,15-16.94,1-2,1.63-2.44,3.66-1.35a17.32,17.32,0,0,1,9.36,10.84.54.54,0,0,0,.27.54A18.51,18.51,0,0,0,225.63,672.45Z" transform="translate(-47.14 -17.43)"/><path class="cls-15" d="M119.64,672.45c-2.84-.54-5.69-1.08-8.4-1.76-4.2-1.08-6.37-3.66-6.1-8,.82-15.31,5.42-29,17.62-39.3a43.88,43.88,0,0,1,23-9.76,65.47,65.47,0,0,1,32.26,3.52c14.91,5.56,23.58,16.54,27.65,31.72,2.17,8.13-1,14.23-6.51,19.65a34.79,34.79,0,0,1-9.89,6.51c-.95.4-1.22.4-1.36-.68-.81-5.56-2.3-11-5.42-15.72a18.82,18.82,0,0,0-7.59-7.32,7.89,7.89,0,0,0-2.57-.81c-.41,0-.82-.14-1.09.27s.14.67.27,1.08a62,62,0,0,1,6.51,11.79,37.47,37.47,0,0,1,3.25,11.52v.54c.14,1.63-.13,1.77-1.62,2a84.68,84.68,0,0,1-15.59.4c-2.85-.13-5.83-.4-8.68-.54-.94,0-1.22-.27-1.22-1.22.14-3,.14-5.83.14-8.81,0-1.76-.54-2.3-2.17-2.57l-7.72-1.22c-1.63-.27-2,.13-2,1.9,0,3.25-.13,6.37-.13,9.62,0,.81-.14,1-.95.81-2.85-.41-5.83-1-8.67-1.22-.82-.13-.95-.41-.95-1.08,0-3.26.13-6.37.13-9.63,0-1.89-.54-2.44-2.3-2.71-2.58-.4-5.15-.81-7.59-1.22-1.49-.27-2,.14-2,1.77,0,3.38,0,6.77-.14,10.16C119.78,672.05,119.78,672.18,119.64,672.45Z" transform="translate(-47.14 -17.43)"/><path d="M392.88,670.14c-2.42.41-4.83.84-7.26,1.22-1.87.3-3.75.62-5.64.77a7.92,7.92,0,0,1-6.42-2.59l-23.13-22.83c-2.42-2.39-5.19-3-8.28-1.57-4.18,2-8.25,4.18-12.36,6.28-1.53.78-3,1.61-4.57,2.36a6.59,6.59,0,0,1-6.2-11.63q13.64-7.71,27.29-15.37c4.78-2.68,7.16-2.52,11.42.94,3.94,3.2,7.75,6.56,11.65,9.82a6.65,6.65,0,0,0,5.94,1.5q8.79-1.92,17.56-3.87Z" transform="translate(-47.14 -17.43)"/><path d="M284.26,673.27l-3.11-1.12-3-1V631.36c2.74,1,5.42,1.93,8.13,2.82a67.45,67.45,0,0,0,6.51,1.93,9.64,9.64,0,0,0,7.39-1.39,97.54,97.54,0,0,1,14.21-7.54c4.28-1.81,8.58-2.41,13-.54a11.21,11.21,0,0,1,4.18,2.9l-1.23.7c-4.52,2.62-9.06,5.19-13.53,7.89a11.16,11.16,0,0,0-5.74,10.22,11.29,11.29,0,0,0,11.27,11,15.31,15.31,0,0,0,5.23-1.41c3.68-1.54,7.26-3.28,10.89-4.94s6.39-1.16,9.16,1.61l21.24,21.23a5.08,5.08,0,1,1-7.13,7.22c-2.4-2.35-4.79-4.73-7.23-7a4.52,4.52,0,0,0-1.49-.6c.16.52.17,1.18.51,1.54,2.19,2.4,4.44,4.74,6.69,7.08,2.45,2.54,2.29,6.22-.37,8.1a5.25,5.25,0,0,1-6.9-.87q-4.26-4.23-8.56-8.39a7.25,7.25,0,0,0-1.22-.78l-.35.35a15.47,15.47,0,0,0,1.37,2c2.07,2.25,4.19,4.46,6.32,6.66a5.06,5.06,0,1,1-7.09,7.22c-2.69-2.74-5.43-5.44-8.15-8.16a2.84,2.84,0,0,0-.71-.54.65.65,0,0,0-.58,0c-.14.16-.26.51-.17.66a7.37,7.37,0,0,0,1.05,1.44c1.84,2,3.73,3.86,5.58,5.82a4.79,4.79,0,0,1,1.13,5.27,4.51,4.51,0,0,1-4.16,3.23,10.41,10.41,0,0,1-3.48-.87c-.35-.12-.59-.56-.93-.78-2.3-1.5-2.22-3.83-2.45-6.21-.42-4.34-2.94-7.3-6.93-9a2,2,0,0,1-1.29-1.34,11,11,0,0,0-6.4-6.92,2.34,2.34,0,0,1-1.13-1.17,11.25,11.25,0,0,0-6.35-6.56,2.11,2.11,0,0,1-1.09-1.09A11.31,11.31,0,0,0,295,664.82a12.37,12.37,0,0,0-10.48,8C284.48,672.92,284.39,673.05,284.26,673.27Z" transform="translate(-47.14 -17.43)"/><path d="M296.74,683.3l-2.57.72c-4.05,1.11-6.34-2.33-6.21-5.13.17-3.67,3.27-7.78,6.67-8.72,3.74-1,8.57,1.39,7.89,6.76,0,.29-.08.58-.14,1,2.26-.34,4.35-.08,6,1.58s1.77,3.82,1.45,6.14c2.45-.29,4.66,0,6.29,1.92a6.4,6.4,0,0,1,1,6.38,15.62,15.62,0,0,1,2.78-.16,6.1,6.1,0,0,1,5.23,8c-1.29,4.49-7.51,7.44-11.81,5.6a4.43,4.43,0,0,1-2.58-5c.33-1.22.84-2.38,1.27-3.57-1.24.26-2.49.59-3.76.78a4.44,4.44,0,0,1-4.92-6.12,20.24,20.24,0,0,0,.8-2.36c-.93.23-1.73.45-2.54.64-1.8.44-3.48.35-4.82-1.17a4.5,4.5,0,0,1-.86-5C296.21,684.87,296.43,684.17,296.74,683.3Z" transform="translate(-47.14 -17.43)"/><line class="cls-35" x1="238.58" y1="691.43" x2="337.97" y2="598.21"/><circle class="cls-35" cx="285.39" cy="642.2" r="68.81"/></svg>