<?xml version="1.0" encoding="utf-8"?>
<!-- Generator: Adobe Illustrator 24.0.1, SVG Export Plug-In . SVG Version: 6.00 Build 0)  -->
<svg version="1.1" id="Ebene_1" xmlns="http://www.w3.org/2000/svg" xmlns:xlink="http://www.w3.org/1999/xlink" x="0px" y="0px"
	 viewBox="0 0 1505 804" style="enable-background:new 0 0 1505 804;" xml:space="preserve">
<style type="text/css">
	.st0{fill:#1D1D1B;}
	.st1{font-family:'NeueHaasUnicaW06-Regular';}
	.st2{font-size:56.69px;}
	.st3{fill:#E2624A;}
	.st4{fill:#E0634B;}
	.st5{fill:#698CC6;}
	.st6{fill:#E56348;}
	.st7{fill:#E66449;}
	.st8{fill:#E56349;}
	.st9{fill:#E56145;}
	.st10{fill:#FDFDFD;}
	.st11{fill:#FEFEFE;}
	.st12{fill:#FDFAF9;}
	.st13{fill:#E15D42;}
	.st14{fill:#D99082;}
	.st15{fill:#FFFFFF;}
	.st16{fill:#E46247;}
	.st17{fill:#E4583C;}
	.st18{fill:#F8AE45;}
	.st19{fill:#489341;}
	.st20{fill:#F8AF48;}
	.st21{fill:#F8AF46;}
	.st22{fill:#F8AF47;}
	.st23{fill:#F8AE46;}
	.st24{fill:none;stroke:#6A8BC4;stroke-width:2.71;stroke-miterlimit:10;}
	.st25{fill:none;stroke:#E30613;stroke-width:4.47;stroke-miterlimit:10;}
	.st26{fill:none;}
	.st27{font-size:59.53px;}
	.st28{font-size:51.02px;}
</style>
<title>Problems</title>
<text transform="matrix(1 0 0 1 55.095 249.8)" class="st0 st1 st2">1</text>
<text transform="matrix(1 0 0 1 55.095 451.4)" class="st0 st1 st2">2</text>
<text transform="matrix(1 0 0 1 55.095 675.93)" class="st0 st1 st2">3</text>
<path class="st3" d="M224.7,547.8l-11.7-0.2c0-0.2,0-0.4-0.2-0.5c0-8.4,0-16.8,0-25.2V496v-1.5v-25.2v-1.5v-24.5v-1.5v-26.7
	l0.3-22.8c0.2,0,0.4,0,0.5-0.2h11.8c0.3,1.3,0.5,2.6,0.6,3.9c0.1,6.4,0.1,12.8,0.2,19.2v3.7c0,7.9,0,15.8,0,23.7
	c-0.1,1.6-0.2,3.2-0.2,4.8v100.2L224.7,547.8z"/>
<path class="st4" d="M193.5,441.8c0-8.4,0-16.8,0-25.2v-1.5c0.3-3.3,0.6-6.5,0.9-9.8h11c0.5,1,1.3,1.9,1.4,2.9
	c0.3,2.3,0.2,4.6,0.2,7v1.5c0,8.4,0,16.8,0,25.2v1.5v24.5v1.5v25.2v1.5v24.5v1.5l0,25.2c-0.2,0.1-0.2,0.3-0.2,0.5h-13
	c0.1-0.2,0-0.4-0.2-0.5c0-8.4,0-16.8,0-25.2v-1.5c0-7.9,0-15.8,0-23.7v-28.9c0-7.9,0-15.8,0-23.7L193.5,441.8z"/>
<path class="st5" d="M155,494.4c0-8.4,0-16.8,0-25.2v-27.4c0.1-0.1,0.3-0.1,0.4-0.1l1-0.6l12,0.7v1.5c0,8.2,0,16.3,0,24.5v1.5v49.7
	v3l-0.1,25.2c-0.2,0.1-0.3,0.3-0.2,0.5c-0.2,0-0.4,0.1-0.6,0.2c-0.1-0.2-0.1-0.3-0.1-0.5l-0.4-0.5l-0.3,0.6c0,0.1-0.1,0.3-0.1,0.4
	l-10.4-0.4l-1-1c-0.2,0-0.3-0.1-0.4-0.2c0-8.1,0-16.3,0-24.4v-2.2v-23L155,494.4z"/>
<path class="st5" d="M186.1,547.8l-10.4-0.4l-1.1-1l-0.4-24.5l0.1-2.3v-1.4c0-6.7,0-13.4-0.1-20.1c0.1-0.2,0.1-0.4,0-0.6l-0.1-2.3
	v-0.7c0-8.4,0-16.8,0-25.2v-1.5l0.4-23l1.1-1.1h10.4l1.3,1.1l0.3,23v27.4v25.2v1.5l-0.3,24.5l-1.3,1
	C186.2,547.5,186.2,547.7,186.1,547.8z"/>
<path class="st6" d="M251.2,469.2v-17.6h13.6v16.8c0,0.3,0,0.5,0,0.8v25.2c-0.1,17.8-0.1,35.5-0.2,53.3h-13.4v-25.8
	c0-1.2,0-2.5,0-3.7v-20c0-1.2,0-2.5,0-3.7V469.2z"/>
<path class="st7" d="M329.3,547.9l-1.3-0.4c0.1-5.3,0.2-10.6,0.2-15.8c0-12.4-0.1-24.8-0.2-37.2V483h13.9v11.5l-0.2,53.2l-1.3,0.2
	h-6.7L329.3,547.9z"/>
<path class="st5" d="M149,473.7l0.3,20.8v2.2c0,7.7,0,15.3,0,23v2.2l-0.3,24.5c-3,0-5.9-0.1-8.9,0.1c-2.3,0.1-3-0.8-2.9-3
	c0-22.2,0-44.5,0-66.7c0-2.2,0.6-3.2,2.9-3C143.1,473.8,146,473.7,149,473.7z"/>
<path class="st5" d="M385.9,494.5c0.2-2.4,0.3-4.8,0.5-7.4H399c0.1,2.6,0.3,5,0.4,7.4c-0.1,8.5-0.2,17-0.2,25.5
	c-0.1,9.2-0.2,18.5-0.3,27.7h-12.5c-0.1-3.3-0.3-6.6-0.3-10C386,523.3,385.9,508.9,385.9,494.5z"/>
<path class="st8" d="M308.8,494.5c0.2-3.3,0.3-6.6,0.5-10.1h13.4v10.1c-0.1,17.7-0.1,35.5-0.2,53.2l-2.8,0.2H313l-3.9-0.4
	c0-7.1,0-14,0-20.8C309,515.9,308.9,505.2,308.8,494.5z"/>
<path class="st5" d="M360.4,547.8l-11.1,0.1c-0.5-1.3-1.5-2.5-1.5-3.8c-0.2-16.5-0.2-33-0.3-49.6v-13.8h13.6v13.8
	c-0.1,8.5-0.2,16.9-0.3,25.4C360.6,529.1,360.5,538.4,360.4,547.8z"/>
<path class="st9" d="M418.3,477.4c0,5.7,0,11.3,0,17v52c-3.1,0-6.2-0.1-9.2,0c-1.8,0-2.7-0.6-2.7-2.5c0-21.3,0-42.6,0-63.9
	c0-2,0.8-2.6,2.6-2.6C412.1,477.5,415.2,477.4,418.3,477.4z"/>
<path class="st5" d="M379.6,547.7h-12.5c-0.1-3.6-0.2-7.2-0.2-10.7c-0.1-14.2-0.2-28.4-0.2-42.5c0.1-2.9,0.2-5.8,0.4-8.8l11.8-0.2
	c0.4,3,0.8,6,1.2,8.9c-0.1,2-0.2,3.9-0.2,5.9C379.8,516.1,379.7,531.9,379.6,547.7z"/>
<path class="st8" d="M303.2,547.7l-2.1,0.2h-5.9l-5.3-0.4c0-1.7,0-3.1,0-4.6c-0.1-16.1-0.1-32.3-0.2-48.4c0.1-1.5,0.3-3.1,0.5-5H303
	c0.2,2,0.3,3.5,0.4,5.1L303.2,547.7z"/>
<path class="st8" d="M270.5,494.4c0.7-0.8,1.3-2.1,2-2.2c3.2-0.2,6.4-0.2,9.5,0c0.7,0.1,1.4,1.4,2.1,2.2l-0.2,53.2l-1.4,0.2
	l-11.8-0.1c0-2.8-0.1-5.7-0.1-8.5C270.6,524.3,270.5,509.4,270.5,494.4z"/>
<path class="st5" d="M437.5,484.8l0.4,9.6c-0.1,1.6-0.2,3.2-0.2,4.8c-0.1,15.7-0.1,31.4-0.1,47.1c-2.7,0-5.4-0.2-8.1,0
	c-2.9,0.2-3.8-0.7-3.8-3.7c0.1-16.9,0.1-33.8,0.1-50.6c0-8.5,1.6-9.6,10.1-7.8C436.3,484.5,437,484.6,437.5,484.8z"/>
<path class="st5" d="M456.7,486.3c0.1,2.7,0.3,5.4,0.4,8.1v2.2v23c0,9.2,0,18.3,0,27.5l-0.3-0.1c-2.9-0.2-5.8-0.6-8.8-0.6
	c-2.2,0-3.1-0.6-3-3c0.1-17.9,0.1-35.7,0-53.6c0-2.3,0.9-2.9,3-2.9C450.9,487,453.8,486.6,456.7,486.3z"/>
<path class="st10" d="M226.1,547.5V447.3c0-1.6,0.1-3.2,0.2-4.8h5.7c0.1,2.1,0.2,4.2,0.2,6.3l0.1,98.2c-0.1,0.2-0.1,0.5-0.1,0.7v0.9
	h-5.9L226.1,547.5z"/>
<path class="st5" d="M476.6,521.3l-0.1,25.8l-13.3,0.6c0-0.2-0.1-0.4-0.3-0.6l-0.1-27.5V511h13.7v8.7
	C476.5,520.2,476.5,520.7,476.6,521.3z"/>
<path class="st11" d="M284,547.7l0.2-53.2h5.5c0.1,16.1,0.1,32.3,0.2,48.4c0,1.5,0,2.9,0,4.6l5.3,0.4c-0.5,0.5-1,1.4-1.4,1.4
	C290.5,548.8,287.2,548.2,284,547.7z"/>
<path class="st11" d="M303.2,547.7l0.2-53.2h5.4c0.1,10.7,0.2,21.4,0.3,32.1c0,6.9,0,13.8,0,20.8l3.9,0.4c-0.3,0.5-0.7,1.3-1,1.3
	C309.1,548.7,306.1,548.2,303.2,547.7z"/>
<path class="st12" d="M270.5,494.4c0.1,14.9,0.1,29.9,0.2,44.8c0,2.8,0.1,5.7,0.1,8.5c0,0.3,0,0.6,0,0.8l-6-0.9
	c0.1-17.7,0.1-35.5,0.2-53.3L270.5,494.4z"/>
<path class="st5" d="M482,547.1v-21.7h13.5v21.7c-0.2,0.1-0.3,0.3-0.2,0.5h-13.1C482.3,547.4,482.2,547.2,482,547.1z"/>
<path class="st11" d="M322.5,547.6c0.1-17.7,0.1-35.5,0.2-53.2h5.3c0.1,12.4,0.2,24.8,0.2,37.2c0,5.3-0.1,10.6-0.2,15.8L322.5,547.6
	z"/>
<path class="st5" d="M149,473.7c-3,0-5.9,0.1-8.9-0.1c-2.3-0.1-3,0.8-2.9,3c0,22.2,0,44.5,0,66.7c0,2.2,0.6,3.2,2.9,3
	c3-0.2,5.9-0.1,8.9-0.1l0.3,0.8c-0.2,0.2-0.3,0.4-0.3,0.6l-13.1-0.1c0.1-0.2,0-0.3-0.1-0.4c0-8.4,0-16.8-0.1-25.2v-2.2v-23
	c0-0.7,0-1.5,0-2.2v-22.1c4.5,0,8.2,0,12,0.1C148.2,472.4,148.6,473.2,149,473.7z"/>
<path class="st13" d="M413.8,547.8h-8.5v-4.5c0-14.8,0-29.6,0-44.4c0-1.5-0.1-3-0.2-4.4v-18.6l13.2,1.6c-3.1,0-6.2,0.1-9.2,0
	c-1.9,0-2.6,0.6-2.6,2.6c0,21.3,0,42.6,0,63.9c0,2,0.8,2.6,2.7,2.5c3.1-0.1,6.2,0,9.2,0l-3,1.5L413.8,547.8z"/>
<path class="st5" d="M437.5,546.4v1.3l-13-0.3c0-17.6-0.1-35.3-0.2-52.9V483c4.4,0,8.3,0,12.1,0.1c0.4,0,0.7,1.2,1.1,1.8
	c-0.6-0.2-1.2-0.4-1.8-0.5c-8.5-1.9-10.1-0.7-10.1,7.8c0,16.9,0.1,33.8-0.1,50.6c0,3,0.9,3.9,3.8,3.7
	C432.1,546.2,434.8,546.4,437.5,546.4z"/>
<path class="st5" d="M443.6,547.5l-0.2-53.1V486l4.5-0.4h6.7l2.1,0.9c-2.9,0.2-5.8,0.6-8.8,0.6c-2.2,0-3.1,0.6-3,2.9
	c0.1,17.9,0.1,35.7,0,53.6c0,2.3,0.9,2.9,3,3c2.9,0,5.9,0.4,8.8,0.6L443.6,547.5z"/>
<path class="st14" d="M245.6,441.8v0.8c0,8.9,0,17.8,0.1,26.7c0,8.4,0,16.8,0,25.2c0,0.7,0,1.5,0,2.2c0,8.2,0,16.3,0,24.5v0.8
	c0,8.4,0,16.8,0,25.2c-0.1,0.2-0.2,0.4-0.2,0.7l0,0L244,548h-10.4l-1.4-0.2c0-0.2,0-0.5,0.1-0.7l0.6-0.1l0.3,0.1h0.3H244l0.7-0.7
	V432.9l-0.7-0.7h-10.4c-0.2,0-0.4,0-0.6,0.1h-0.6v-0.8c3.3,0,6.6,0.1,10-0.1c2.7-0.2,3.4,0.9,3.3,3.4
	C245.4,437.1,245.6,439.4,245.6,441.8z"/>
<path class="st11" d="M232.3,431.5c0,0.3,0,0.5,0,0.8l-0.3,10.3h-5.7c0-7.9,0-15.8,0-23.7c0.5,1.1,1.3,2.2,1.4,3.3
	c0.1,5.4,0,10.8,0.1,16.2c0.1,1.1,0.2,2.2,0.4,3.3h1.5c-0.1-1.9,0.1-3.7,0.4-5.5C230.6,434.5,231.4,432.9,232.3,431.5z"/>
<path class="st11" d="M270.7,548.6c0-0.3,0-0.6,0-0.8l11.8,0.1c-0.3,0.5-0.7,1.3-1,1.3C278,549,274.3,548.8,270.7,548.6z"/>
<path class="st11" d="M251.3,518.2c0,1.2,0,2.5,0,3.7h-5v-0.7L251.3,518.2z"/>
<path class="st10" d="M206.8,547.6c0-0.2,0-0.4,0.2-0.5h5.9c0.2,0.1,0.2,0.3,0.2,0.5H206.8z"/>
<path class="st10" d="M207,416.6v-1.5h5.8v1.5L207,416.6z"/>
<path class="st11" d="M205.4,405.3h-11H205.4z"/>
<path class="st11" d="M314.5,547.8h5.2C317.7,550,316.4,550,314.5,547.8z"/>
<path class="st11" d="M296.7,547.8h4.5C299.6,550.1,298.1,550.1,296.7,547.8z"/>
<path class="st11" d="M329.3,547.9h4.5C332.3,550.1,330.8,550.1,329.3,547.9z"/>
<path class="st11" d="M336,547.8h4.5C339,550.1,337.4,550.1,336,547.8z"/>
<path class="st11" d="M498.4,469.2l-1.5-0.8c0.5-0.5,1.1-1,1.8-1.4c0.2-0.1,0.7,0.5,1,0.8L498.4,469.2z"/>
<path class="st11" d="M245.4,547.8c0-0.2,0.1-0.5,0.2-0.7h3.6v0.7H245.4z"/>
<path class="st11" d="M244,548l1.4-0.2c-0.3,0.4-0.5,0.8-0.8,1.3L244,548z"/>
<path class="st11" d="M226.1,547.5l0.1,1l-1.5-0.7L226.1,547.5z"/>
<path class="st11" d="M232.2,547.7l1.4,0.2l-1.5,0.6L232.2,547.7z"/>
<path class="st5" d="M155.5,546.5l1,1l-0.8-0.3l-0.1-0.2l-0.2-0.2L155.5,546.5z"/>
<path class="st5" d="M155.6,546.9l0.1,0.2c-0.1,0.2-0.3,0.3-0.5,0.3l-0.1-0.3l0,0C155.3,547.1,155.4,547,155.6,546.9z"/>
<path class="st5" d="M166.9,547.8c0-0.1,0.1-0.3,0.1-0.4l0.3,0.1l0.3-0.2c0,0.2,0.1,0.3,0.1,0.5L166.9,547.8z"/>
<path class="st5" d="M156.5,441.1l-1,0.6L156.5,441.1z"/>
<path class="st10" d="M246.2,521.1v0.7h-0.6c0-0.3,0-0.5,0-0.8L246.2,521.1z"/>
<path class="st15" d="M245.6,494.4c0-8.4,0-16.8,0-25.2h5.6v25.2H245.6z"/>
<path class="st15" d="M207,416.6h5.8c0,8.4,0,16.8,0,25.2H207C207,433.4,207,425,207,416.6z"/>
<path class="st15" d="M207,494.4v-25.2h5.8v25.2H207z"/>
<path class="st15" d="M212.8,547.1H207l0.1-25.2h5.8C212.8,530.3,212.8,538.7,212.8,547.1z"/>
<path class="st15" d="M207,520.4V496h5.8v24.5L207,520.4z"/>
<path class="st15" d="M207,467.7v-24.5h5.8v24.5L207,467.7z"/>
<path class="st10" d="M213.6,392.1L213.6,392.1z"/>
<path class="st10" d="M212.8,443.3H207v-1.5h5.8C212.8,442.3,212.8,442.8,212.8,443.3z"/>
<path class="st10" d="M212.8,496H207v-1.5h5.8L212.8,496z"/>
<path class="st10" d="M207,467.7h5.8v1.5H207L207,467.7z"/>
<path class="st10" d="M207,520.4h5.8v1.5H207L207,520.4z"/>
<path class="st5" d="M167.6,547.3l-0.3,0.2l-0.3-0.1c0.1-0.2,0.2-0.4,0.3-0.6L167.6,547.3z"/>
<path class="st5" d="M155.1,547.2c0-0.3,0-0.6,0-0.9c0.1,0.1,0.3,0.1,0.4,0.2l-0.1,0.3l0.2,0.2C155.5,547,155.3,547.1,155.1,547.2z"
	/>
<path class="st5" d="M187.6,444l-0.2,0.7l-1.3-1.1L187.6,444z"/>
<path class="st5" d="M174.6,444.7c0-0.4,0-0.9,0-1.3l1.1,0.2L174.6,444.7z"/>
<path class="st5" d="M187.5,546.4l0.2,0.8l-1.5,0.3L187.5,546.4z"/>
<path class="st15" d="M246.2,521.1h-0.6c0-8.2,0-16.3,0-24.5l5.6,1.5v20L246.2,521.1z"/>
<path class="st11" d="M251.3,498.2l-5.6-1.5c0-0.7,0-1.5,0-2.2h5.6L251.3,498.2z"/>
<path class="st13" d="M418.3,521.1c0.1,0.2,0.1,0.4,0.2,0.5c0,0.1-0.1,0.2-0.2,0.3V521.1z"/>
<path class="st16" d="M232,442.5l0.3-10.3h0.6l0.6-0.1H244l0.7,0.7v113.5c-0.2,0.2-0.5,0.5-0.7,0.7h-10.4L233,547l-0.6,0.1
	l-0.1-98.2C232.2,446.7,232.1,444.6,232,442.5z"/>
<path class="st17" d="M233.6,432.2l-0.6,0.1C233.2,432.2,233.4,432.2,233.6,432.2z"/>
<path class="st17" d="M244.7,432.9l-0.7-0.7L244.7,432.9z"/>
<path class="st17" d="M233,547l0.6,0.1h-0.3L233,547z"/>
<path class="st17" d="M244,547c0.2-0.2,0.5-0.5,0.7-0.7L244,547z"/>
<path class="st18" d="M410.5,349.3c0.2-0.5,0.7-0.8,1.2-0.8c0.5-0.1,0.9-0.1,1.4-0.1c38.8,0,77.5,0,116.3,0c0.7,0,1.4,0,2,0.1
	c0.9,0.1,1.2,0.3,1.3,1.2c0.1,0.5,0.1,1.1,0.1,1.6c0.1,0.7-0.4,1.2-1.1,1.3c0,0-0.1,0-0.1,0c-0.7,0.1-1.4,0.1-2.1,0.1H508l-95.4-0.1
	h-0.7c-1.2,0-1.2,0-1.3-1.2C410.5,350.8,410.5,350,410.5,349.3z"/>
<path class="st19" d="M281.3,261.5h-48.6h-10.5h-0.6c-1.4,0-1.7-0.4-1.6-1.8c0-0.6,0-1.2,0-1.7c-0.1-0.4,0.2-0.7,0.6-0.8
	c0.1,0,0.1,0,0.2,0h68.8h50.4c0.5,0,1,0,1.4,0.1c0.6,0.1,1.1,0.6,1,1.2c0,0,0,0.1,0,0.1c0,0.7-0.1,1.4-0.1,2.1
	c0,0.5-0.2,0.7-0.7,0.7c-0.3,0-0.6,0-0.9,0H281.3z"/>
<path class="st19" d="M403.9,243.2H345c-0.3,0-0.6,0-0.9,0c-0.7-0.1-1.1-0.4-1.1-1.1c0-0.7,0-1.4,0.1-2.1c0.1-0.8,0.4-1,1.2-1
	c0.5,0,1.1,0,1.6,0h116.5c0.4,0,0.8,0,1.1,0c1,0.1,1.5,0.5,1.5,1.6c0,0.6-0.1,1.2-0.2,1.8c0,0.5-0.4,0.8-0.9,0.9
	c-0.4,0-0.9,0.1-1.3,0.1L403.9,243.2z"/>
<path class="st20" d="M255.3,352c-0.2,0.5-0.7,0.8-1.1,0.6c-0.4,0-0.8,0-1.2,0h-71.3h-45.3c-0.6,0-1.2,0-1.8-0.1
	c-0.7,0-1.3-0.6-1.2-1.3c0-0.1,0-0.1,0-0.2c0-0.5,0.1-1,0.1-1.5c0.1-0.8,0.4-1.1,1.2-1.1s1.3,0,2,0h115.6c0.5,0,1.1,0,1.6,0
	c0.7-0.1,1.4,0.4,1.5,1.1C255.4,350.3,255.3,351.1,255.3,352z"/>
<path class="st19" d="M403.1,261.5h-47h-10.9h-0.8c-1.2,0-1.6-0.4-1.5-1.6c0-0.6,0-1.2,0-1.8c0-0.6,0.2-0.8,0.8-0.8
	c0.2,0,0.5,0,0.7,0h65.9h50.3c0.5,0,1,0,1.4,0.1c0.6,0,1,0.5,0.9,1.1c0,0,0,0.1,0,0.1c0,0.8,0,1.6,0,2.4c0,0.3-0.2,0.6-0.5,0.7
	c-0.1,0-0.1,0-0.2,0L403.1,261.5L403.1,261.5z"/>
<path class="st20" d="M259.2,343.1c-0.2,0.4-0.6,0.5-1.1,0.5c-0.4,0-0.8,0-1.2,0h-79.6c-11.3,0-22.5,0-33.8,0c-0.6,0-1.2,0-1.7-0.1
	c-0.8,0-1.4-0.7-1.4-1.4c0-0.1,0-0.1,0-0.2c0-0.5,0.1-1,0.2-1.5c0.1-0.7,0.4-1,1-1.1c0.6-0.1,1.2-0.1,1.7-0.1h113.8
	c0.7-0.1,1.4,0.1,2,0.5c0.1,0.4,0.1,0.8,0.2,1.2C259.3,341.7,259.2,342.4,259.2,343.1z"/>
<path class="st19" d="M283.7,238.9h56.1c0.4,0,0.9,0,1.3,0c0.7,0,1.2,0.5,1.2,1.2c0,0.1,0,0.2,0,0.3c0,0.7-0.1,1.4-0.1,2.1
	c0,0.4-0.2,0.7-0.6,0.7c0,0-0.1,0-0.1,0H227.3c-1.6,0-1.8-0.3-1.7-1.8c0-0.5,0-1.1,0-1.6c0-0.7,0.1-0.8,0.8-0.9s1.2,0,1.9,0
	L283.7,238.9L283.7,238.9z"/>
<path class="st19" d="M227.1,321.2c0.4-0.1,0.7-0.1,1.1-0.1c4.4,0,8.7,0,13,0h99c0.4,0,0.8,0,1.2,0.1c0.6,0,1,0.5,1,1
	c0,0,0,0.1,0,0.1c0,0.8,0,1.6,0,2.3c0,0.4-0.2,0.7-0.6,0.7c0,0-0.1,0-0.1,0h-87.2c-8.4,0-16.7,0.1-25,0.1c-0.7,0-1.3-0.1-2-0.2
	c0-0.8,0-1.6,0.1-2.5C227.7,322.2,227.5,321.6,227.1,321.2z"/>
<path class="st19" d="M342.2,270.3c-0.5,0-0.9,0.1-1.3,0.1H217.3c-0.4,0-0.8,0.1-1.2,0.1c-0.6,0.1-0.9-0.1-0.9-0.7
	c-0.1-0.9,0-1.8,0-2.7c0-0.3,0.2-0.6,0.6-0.7c0.1,0,0.1,0,0.2,0c0.3,0,0.6,0,0.9,0h122.7c0.6,0,1.2-0.1,1.9-0.1s0.9,0.1,0.9,0.8
	C342.3,268.2,342.2,269.1,342.2,270.3z"/>
<path class="st19" d="M285.3,247.7H340c0.4,0,0.8,0,1.2,0c0.6,0,1.1,0.5,1.1,1.1c0,0,0,0.1,0,0.1c0,0.8-0.1,1.6-0.1,2.3
	c0,0.4-0.2,0.7-0.6,0.7c0,0-0.1,0-0.1,0H231.2c-0.4,0-0.9,0-1.3,0c-0.7,0-1.2-0.6-1.1-1.3c0,0,0-0.1,0-0.1c0-0.7,0.1-1.4,0.1-2.1
	c0-0.5,0.2-0.8,0.7-0.8L285.3,247.7L285.3,247.7z"/>
<path class="st19" d="M232,311.6h1.4h53.5h52.7c0.5,0,1,0,1.4,0c0.7,0,1.4,0.5,1.4,1.3c0,0.1,0,0.1,0,0.2c0,0.7-0.1,1.3-0.2,2
	c-0.1,0.5-0.5,0.8-1,0.8c-0.5,0-1,0-1.5,0H233c-0.5,0-0.9-0.1-1.4-0.2c0.8-0.2,0.8-0.2,0.9-0.9c0-0.5,0-1.1,0-1.6
	C232.5,312.5,232.3,312,232,311.6z"/>
<path class="st19" d="M397.1,247.7h52.4c0.4,0,0.8,0,1.2,0c0.6,0,1.1,0.5,1.1,1.2c0,0.1,0,0.1,0,0.2c0,0.7,0,1.5,0,2.2
	c0,0.4-0.3,0.7-0.6,0.7c0,0-0.1,0-0.1,0H345.2c-0.4,0-0.8,0-1.2,0c-0.7,0-1.2-0.5-1.2-1.2c0-0.1,0-0.1,0-0.2c0-0.7,0-1.4,0-2
	s0.2-0.8,0.9-0.8L397.1,247.7L397.1,247.7z"/>
<path class="st19" d="M233.9,303c0.3-0.1,0.7-0.2,1-0.2c0.7,0,1.4,0,2.2,0H332h8.3c0.3,0,0.6,0,0.9,0c0.7,0,1.2,0.5,1.2,1.2
	c0,0.1,0,0.1,0,0.2c0,0.7-0.1,1.4-0.1,2.1c0,0.5-0.2,0.8-0.7,0.8h-75.4h-30c-0.7,0.1-1.5,0-2.2-0.3c0-0.8,0.1-1.5,0-2.3
	C234,303.9,233.9,303.4,233.9,303z"/>
<path class="st19" d="M394.5,225.2h-49.3c-0.4,0-0.8,0-1.1,0c-0.6,0.1-1.2-0.4-1.2-1c0-0.1,0-0.2,0-0.3c0-0.7,0-1.4,0-2.1
	s0.2-0.8,0.8-0.8c0.6,0,1.3,0,2,0h97.6c0.5,0,1,0,1.4,0.1c0.6,0.1,1.1,0.6,1,1.2c0,0,0,0,0,0c0,0.8-0.1,1.5-0.1,2.2
	c0,0.4-0.2,0.7-0.6,0.7c-0.1,0-0.1,0-0.2,0L394.5,225.2L394.5,225.2z"/>
<path class="st20" d="M248.7,334.1c-0.4,0.1-0.7,0.1-1.1,0.2h-66.8c-10.5,0-21.1,0-31.6,0c-0.5,0-1.1,0-1.6-0.1
	c-0.6,0-1.1-0.6-1.1-1.2c0,0,0,0,0,0c0-0.8,0.1-1.5,0.2-2.2c0.1-0.5,0.4-0.7,0.9-0.7s0.9,0,1.3,0h64.6H242c1.5,0,2.9-0.1,4.4-0.1
	c0.8-0.1,1.6,0.1,2.3,0.5C248.7,331.7,248.7,332.9,248.7,334.1z"/>
<path class="st19" d="M291.3,225.2h-49.2c-0.4,0-0.8,0-1.2,0c-0.6,0-1-0.4-1-1c0,0,0-0.1,0-0.1c0-0.8,0-1.6,0-2.5
	c0-0.3,0.2-0.6,0.5-0.7c0.1,0,0.1,0,0.2,0H340c0.5,0,1,0,1.4,0.1c0.6,0.1,1.1,0.6,1,1.2c0,0,0,0.1,0,0.1c0,0.8-0.1,1.5-0.1,2.2
	c0,0.3-0.2,0.6-0.6,0.7c0,0,0,0-0.1,0L291.3,225.2L291.3,225.2z"/>
<path class="st19" d="M444.2,279.3c-0.3,0.1-0.7,0.2-1,0.3c-0.4,0-0.8,0-1.1,0H345c-1.9,0-2.2-0.4-2-2.3c0-0.4,0-0.7,0-1.1
	c0-0.7,0.2-0.9,0.9-0.9h89.9c2.9,0,5.9,0,8.8,0c0.6-0.1,1.2,0.1,1.7,0.6L444.2,279.3z"/>
<path class="st19" d="M443.2,324.6c-0.2,0.5-0.8,0.9-1.4,0.8c-0.5,0-0.9,0-1.3,0h-73.2c-7.3,0-14.6,0.1-22,0.1
	c-2.2,0-2.6-0.4-2.5-2.6c0-0.1,0-0.1,0-0.2c0.1-1.3,0.4-1.6,1.7-1.6h88c3,0,6,0,8.9,0c0.7-0.1,1.4,0.2,1.8,0.8
	C443.2,322.7,443.2,323.6,443.2,324.6z"/>
<path class="st19" d="M443,314c0,0.1-0.1,0.1-0.1,0.2c-0.2,1.5-0.3,1.6-1.8,1.7h-96.8c-1-0.1-1.4-0.5-1.4-1.5c0-0.6,0-1.2,0.1-1.7
	c0.1-0.8,0.3-1,1.1-1.1c0.4,0,0.8,0,1.2,0h95.9c0.7,0,1.4,0,1.7,0.8L443,314z"/>
<path class="st19" d="M452.3,270.3H345.4c-0.4,0-0.9,0-1.3,0.1c-0.8,0.1-1-0.1-1.2-0.9c-0.1-1,0-2.1,0.3-3.1c0.2,0,0.4-0.1,0.6-0.1
	h105.7c0.6,0,1.2,0,1.9,0c0.9,0,1.1,0.1,1.1,1C452.4,268.3,452.4,269.2,452.3,270.3z"/>
<path class="st20" d="M430.1,339.3h0.9l90.6,0.1c0.9,0,1.8,0,2.7,0s1.2,0.3,1.3,1.1c0.1,0.5,0.1,1,0.1,1.5c0.1,0.7-0.4,1.4-1.1,1.6
	c-0.1,0-0.2,0-0.2,0c-0.3,0-0.6,0-0.9,0h-92.2c-0.5,0-1,0-1.4,0c-0.3-0.1-0.6-0.2-0.9-0.3c0-0.7,0-1.4,0-2.1
	C428.7,340,428.8,339.8,430.1,339.3z"/>
<path class="st19" d="M343.1,230.1c0.2,0,0.4-0.1,0.6-0.1h39H446c0.7,0,1.4,0,2.2-0.1c0.7-0.1,0.9,0.1,1,0.8c0.1,1,0,2,0,3.2
	c-0.6,0-1.1,0.1-1.6,0.1H346.5c-0.9,0-1.8,0.1-2.7,0.1c-0.6,0-0.8-0.1-0.9-0.7C342.8,232.3,342.8,231.2,343.1,230.1z"/>
<path class="st19" d="M439,306.3c-0.3,0.5-0.9,0.8-1.5,0.7h-80h-12.6c-0.2,0-0.5,0-0.7,0c-0.8-0.1-1.2-0.4-1.2-1.2
	c0-0.7,0-1.3,0.1-2c0.1-0.7,0.4-1,1.1-1c0.5,0,1.1,0,1.6,0h65.6c8.6,0,17.2,0,25.8,0c0.5,0,0.9,0.1,1.4,0.2c0.2,0.1,0.4,0.4,0.5,0.6
	c0,0.5,0,1,0,1.5l-0.1,1.1L439,306.3z"/>
<path class="st19" d="M247.4,275.3h1.4h78.7h12.4h0.7c1.4,0,1.8,0.5,1.7,1.9c-0.1,0.5,0,1,0,1.5c0,0.7-0.1,0.8-0.8,0.9
	c-0.3,0-0.6,0-0.9,0h-92.4c-0.5,0-0.9-0.1-1.4-0.2c0.3,0,0.8,0,0.8-0.5C247.5,277.7,247.4,276.5,247.4,275.3z"/>
<path class="st19" d="M238,230.1H340c0.5,0,0.9-0.1,1.3-0.1c0.6,0,0.8,0.2,0.9,0.8c0,0.9,0,1.8,0,2.7c0,0.4-0.2,0.6-0.6,0.6H240.3
	c-0.6,0-1.1,0.1-1.6,0.1s-0.9-0.1-1-0.7C237.6,232.3,237.6,231.2,238,230.1z"/>
<path class="st19" d="M439,333.8c-0.1,0.3-0.4,0.6-0.8,0.5h-54.7h-37.6c-0.7,0-1.4,0-2,0.1c-0.4,0.1-0.8-0.2-0.9-0.6
	c0,0,0-0.1,0-0.1c-0.2-1.1-0.1-2.2,0.2-3.3c0.2,0,0.3-0.1,0.5-0.1h40.6c14.1,0,28.2,0,42.3,0c3.8,0,7.6,0,11.4,0
	c0.5,0,0.9,0.1,1,0.6l0.1,1.4l-0.1,1.1L439,333.8z"/>
<path class="st19" d="M255.3,352c0-0.8,0-1.6,0.1-2.5c0.2-0.5,0.7-0.8,1.2-0.8c0.6,0,1.2-0.1,1.9-0.1h73.9h7.8c0.4,0,0.8,0,1.2,0.1
	c0.8,0.2,1,0.5,1,1.3s0,1.4,0,2.1c0,0.6-0.3,0.8-0.8,0.8c-0.2,0-0.3,0-0.5,0h-60h-22.9c-0.4,0-0.8,0-1.2,0
	C256.1,353.1,255.5,352.6,255.3,352z"/>
<path class="st19" d="M251.4,284.8c0.5,0,1.1-0.1,1.6-0.1h87c0.3,0,0.6,0,0.9,0c1,0.1,1.4,0.6,1.3,1.6c-0.1,0.6-0.1,1.2-0.1,1.8
	c0,0.6-0.1,0.8-0.8,0.8h-65H253c-0.5,0-1-0.1-1.5-0.1c0.2-1.1,0.3-2.3,0.2-3.4C251.8,285.3,251.6,285,251.4,284.8z"/>
<path class="st19" d="M433.4,288.3c-0.2,0.5-0.8,0.8-1.3,0.7c-0.4,0-0.8,0-1.2,0h-86c-0.3,0-0.6,0-0.9,0c-0.6-0.1-1-0.4-1-1
	c0-0.7,0-1.5,0.1-2.2c0-0.6,0.4-1,1-1c0.5-0.1,1-0.1,1.5-0.1h85.8c0.8,0,1.6,0,2.1,0.8L433.4,288.3z"/>
<path class="st19" d="M243.1,294c0.6,0,1.3,0,2,0h94.7c0.5,0,1,0,1.5,0c0.7,0,0.9,0.1,0.9,0.8c0,0.9,0,1.8,0,2.6
	c0,0.5-0.3,0.6-0.8,0.6c-1.4,0-2.7-0.1-4.1-0.1h-82.3c-3.2,0-6.4,0-9.6,0c-0.6,0-1.2,0.1-1.7,0.1c-0.2,0-0.5,0-0.7-0.1
	C243.3,296.6,243.3,295.3,243.1,294z"/>
<path class="st19" d="M248.7,334.1c0-1.2,0-2.4,0-3.6c0.5-0.1,1.1-0.2,1.6-0.2c14.2,0,28.4,0,42.6,0h46.8c0.5,0,1.1,0,1.6,0
	c0.4-0.1,0.8,0.2,0.9,0.6c0,0,0,0.1,0,0.1c0.2,1,0.1,2.1-0.1,3c-0.1,0.4-0.4,0.4-0.7,0.4c-0.7,0-1.3,0-2,0h-69.6h-18.5
	c-0.6,0-1.2,0-1.7,0C249.3,334.3,249,334.2,248.7,334.1z"/>
<path class="st19" d="M430.1,339.3c-1.3,0.4-1.4,0.6-1.3,1.9c0.1,0.7,0,1.4,0,2.1h-1.4h-63.2c-6.3,0-12.5,0.1-18.8,0.1
	c-0.5,0-1.1,0-1.6-0.1c-0.6,0-1-0.5-1-1c0,0,0-0.1,0-0.1c0-0.8,0-1.5,0-2.3s0.2-0.8,0.8-0.8c0.2,0,0.4,0,0.6,0h84
	C428.9,339.1,429.5,339.2,430.1,339.3z"/>
<path class="st21" d="M232,311.6c0.4,0.4,0.6,1,0.5,1.5c0,0.5,0,1.1,0,1.6c0,0.7,0,0.7-0.9,0.9c-0.4,0-0.9,0-1.3,0h-76.4h-9.1
	c-0.3,0-0.6,0-0.8,0c-1.1-0.1-1.5-0.5-1.5-1.5c0-0.5,0-1,0.1-1.5c0.1-0.8,0.3-1,1.1-1c0.5,0,1,0,1.5,0h79.7c1.5,0,3.1-0.1,4.6-0.1
	C230.3,311.4,231.1,311.5,232,311.6z"/>
<path class="st22" d="M227.1,321.2c0.3,0.4,0.5,1,0.4,1.5c-0.1,0.8-0.1,1.6-0.1,2.5c-0.5,0-0.9,0.1-1.4,0.1h-81.4
	c-2.1,0-2.3-0.2-2.2-2.3c0.1-1.9,0.2-2,2.1-2h69.2c3.9,0,7.9,0,11.8,0C226,321,226.6,321.1,227.1,321.2z"/>
<path class="st19" d="M259.2,343.1c0-0.7,0-1.4,0-2.1c0-0.4-0.1-0.8-0.2-1.2c0.3-0.4,0.7-0.6,1.2-0.6c0.4,0,0.8,0,1.2,0h78.7
	c1.9,0,2.2,0.3,2,2.2c0,0.3,0,0.7,0,1c0.1,0.9-0.1,1-0.9,1.1h-0.5c-20.4,0-40.9,0-61.3,0c-6,0-12,0.1-18,0.1
	C260.7,343.6,259.9,343.4,259.2,343.1z"/>
<path class="st18" d="M233.9,303c0.1,0.5,0.2,1,0.2,1.5c0,0.8,0,1.5,0,2.3c-0.3,0.1-0.7,0.2-1,0.2c-0.6,0-1.2,0-1.7,0h-61.8H154
	c-2,0-2.2-0.3-2.2-2.3s0.1-2,2.1-2h70c2.7,0,5.4-0.1,8.1-0.1C232.7,302.7,233.3,302.8,233.9,303z"/>
<path class="st19" d="M430.1,297.5c-0.2,0.3-0.5,0.5-0.8,0.5c-1.6-0.1-3.1-0.1-4.7-0.1h-79.2c-0.4,0-0.9,0-1.3,0.1
	c-0.8,0.1-1.1-0.1-1.2-0.9c0-0.8,0.1-2,0.1-3c0.5,0,0.9-0.1,1.3-0.1h83.5c0.5,0,1,0,1.4,0c0.4-0.1,0.8,0.2,0.9,0.6c0,0,0,0,0,0
	L430.1,297.5z"/>
<path class="st19" d="M379.5,211.3H408h6.2c0.2,0,0.5,0,0.7,0c1.2,0.1,1.6,0.5,1.5,1.7c0,0.5,0,0.9-0.1,1.4
	c-0.1,0.8-0.4,1.1-1.1,1.2c-0.5,0-1,0-1.4,0h-68.4c-0.3,0-0.6,0-0.9,0c-1.2-0.1-1.6-0.5-1.5-1.7c0-0.6,0-1.2,0-1.7
	c-0.1-0.4,0.2-0.8,0.7-0.9c0,0,0.1,0,0.1,0c0.3,0,0.5-0.1,0.8-0.1L379.5,211.3L379.5,211.3z"/>
<path class="st20" d="M439,332.3l-0.1-1.4c0.2-0.5,0.8-0.9,1.4-0.8h0.9h71.3c0.4,0,0.8,0,1.1,0c0.5,0,0.9,0.4,0.9,0.9c0,0,0,0,0,0
	c0.1,0.7,0.1,1.4,0.1,2.1c0,0.8-0.4,1.1-1.2,1.3c-0.3,0-0.7,0-1,0h-10.1l-62.3-0.1c-0.5,0-1,0.1-1.3-0.6c0-0.1,0-0.2,0-0.4
	L439,332.3z"/>
<path class="st20" d="M443.2,324.6c0-0.9,0-1.9,0-2.8c0.4-0.5,0.9-0.7,1.5-0.7c0.8,0,1.7,0.1,2.6,0.1h69.4c2,0,2,0,2.1,2
	c0,0.3,0,0.7,0,1c0.1,0.7-0.4,1.2-1.1,1.3c-0.1,0-0.1,0-0.2,0c-0.3,0-0.6,0-0.9,0h-34.7h-26.6h-11
	C443.5,325.5,443.5,325.5,443.2,324.6z"/>
<path class="st23" d="M430.1,297.5v-3c0.3-0.6,0.9-0.9,1.5-0.8c1.9,0,3.7,0,5.5,0H502c2,0,2,0,2.1,2c0,0.5,0,1,0,1.5
	c0,0.5-0.4,0.8-0.9,0.8c-0.4,0-0.8,0-1.1,0h-70.6C430.9,298,430.3,298.1,430.1,297.5z"/>
<path class="st22" d="M443,314l-0.1-1.6c0.3-0.6,0.9-0.9,1.5-0.8h72.2c0.3,0,0.6,0,0.9,0c0.9,0,1.2,0.3,1.3,1.1
	c0.1,0.6,0.1,1.2,0,1.7c0,0.9-0.3,1.1-1.2,1.3c-0.4,0.1-0.8,0.1-1.1,0.1h-4.6l-67.7-0.1h-1.1L443,314z"/>
<path class="st18" d="M243.1,294c0.3,1.3,0.3,2.6,0,3.9c-0.8,0-1.7,0.1-2.5,0.1c-3.7,0-7.4-0.1-11.1-0.1L179,298h-7.4
	c-1.7,0-2-0.3-2-2c0-0.5,0.1-1,0.1-1.5c0-0.4,0.4-0.7,0.8-0.7c0,0,0,0,0.1,0h1.1c19,0,38,0,57,0c4,0,8.1-0.1,12.1-0.1
	C241.5,293.5,242.3,293.6,243.1,294z"/>
<path class="st19" d="M308.5,215.7h-31.8c-0.2,0-0.4,0-0.6,0c-1.5,0-1.9-0.4-1.8-1.9c0-0.5,0.1-1,0.1-1.4c0-0.5,0.4-0.9,0.9-0.9
	c0.6-0.1,1.2-0.1,1.8-0.1H340c0.4,0,0.9,0,1.3,0.1c0.8,0.2,1.1,0.5,1,1.4c0,0.6,0,1.2,0,1.8c0.1,0.5-0.3,1-0.8,1c0,0-0.1,0-0.1,0
	c-0.2,0-0.4,0-0.6,0L308.5,215.7z"/>
<path class="st19" d="M410.5,349.3c0,0.7,0,1.4,0.1,2.2c-0.4,1.4-0.6,1.5-2.2,1.5h-33.6h-29.2h-0.7c-2,0.1-2.2-0.7-2-2.1
	c0-0.3,0-0.7,0-1c0-1,0.2-1.2,1.2-1.3c1,0,1.6,0,2.5,0c1.4,0,2.7,0,4.1,0c0.5,0,1,0,1.4,0h53c1.3,0,2.6,0,3.9,0
	C409.5,348.6,410.2,348.6,410.5,349.3z"/>
<path class="st22" d="M439,306.3v-0.2l0.1-1.1c0-0.5,0-1,0-1.5c0.3-0.6,1-0.9,1.6-0.8c3.3,0,6.6,0,9.9,0h56.9c1.8,0,1.9,0.1,2,1.9
	c0,0.5,0,1,0,1.4c0,0.6-0.4,1-1,1c-0.3,0-0.7,0-1,0h-67.2C439.5,307.1,439,307,439,306.3z"/>
<path class="st23" d="M251.4,284.8c0.1,0.2,0.3,0.5,0.3,0.7c0.1,1.1,0,2.3-0.2,3.4h-14.4h-47.6c-1.9,0-2.1-0.2-2-2
	c0-0.4,0-0.8,0.1-1.2c0.1-0.8,0.3-1,1.1-1c0.3,0,0.6,0,0.8,0h60.6C250.6,284.7,251,284.8,251.4,284.8z"/>
<path class="st18" d="M433.4,288.3v-2.8c0.3-0.6,0.9-0.9,1.5-0.8c2.4,0,4.7,0,7.1,0c4.6,0,9.3,0.1,14,0.1c12.2,0,24.5,0,36.7-0.1
	c0.5,0,1,0,1.5,0.1c0.7,0.1,0.9,0.2,0.9,1s0.1,1.3,0,2c0,1-0.3,1.4-1.4,1.4c-1.2,0-2.4,0-3.6,0h-0.7l-54.9-0.1
	C433.7,289,433.7,289,433.4,288.3z"/>
<path class="st23" d="M247.4,275.3c0.1,1.2,0.1,2.4,0.1,3.6c0,0.5-0.4,0.5-0.8,0.5h-1.2h-44.7c-1.1,0-1.3-0.2-1.3-1.3
	c0-0.7,0-1.4,0-2c0-0.7,0.2-0.9,1-1h45.7C246.5,275.1,247,275.2,247.4,275.3z"/>
<path class="st19" d="M389.5,206.5H388h-42.5c-0.5,0-1,0-1.4,0c-0.8-0.1-1.1-0.4-1.2-1.2c0-0.6,0-1.3,0.1-1.9c0-0.4,0.4-0.8,0.8-0.8
	c0,0,0,0,0.1,0c0.6,0,1.2-0.1,1.8-0.1h25.4c5.2,0,10.4,0.1,15.6,0.1c0.6,0,1.2,0,1.7-0.1c1-0.1,1.2,0.1,1.3,1.1
	C389.9,204.5,389.8,205.5,389.5,206.5z"/>
<path class="st19" d="M322.2,206.5h-18.7c-0.2,0-0.5,0-0.7,0c-0.5,0-0.8-0.4-0.8-0.9c0,0,0,0,0,0c0-0.7,0-1.3,0-2
	c0.1-0.7,0.3-0.9,1-1c0.7-0.1,1.3-0.1,1.9-0.1h21.4c4.5,0,8.9,0.1,13.3,0.1c0.5,0,1,0,1.5-0.1c0.8-0.1,1,0,1.1,0.8
	c0.1,0.8,0.1,1.6,0,2.4c0,0.7-0.2,0.8-0.9,0.8L322.2,206.5L322.2,206.5z"/>
<path class="st19" d="M358.6,197.7h-14.5c-0.9,0-1.3-0.3-1.3-1.2c0-0.7,0-1.3,0.1-2c0.1-0.7,0.4-0.9,1.1-1c0.3,0,0.7,0,1,0H373
	c0.2,0,0.4,0,0.6,0c0.7,0.1,1,0.3,1.1,1c0,0.9,0,1.7-0.2,2.5c0,0.3-0.5,0.6-0.8,0.7c-0.4,0.1-0.9,0.1-1.3,0.1L358.6,197.7
	L358.6,197.7z"/>
<path class="st23" d="M444.2,279.3v-3.5c0-0.5,0.5-0.8,0.9-0.7c0,0,0.1,0,0.1,0c0.8,0,1.5,0.1,2.3,0.1c8.1,0,16.3,0,24.4,0h1.3
	c0.3,1.2,0.3,2.5,0.2,3.8c0,0.4-0.4,0.6-0.8,0.6h-1.6c-8.4,0-16.9,0-25.3,0C445.1,279.5,444.7,279.4,444.2,279.3z"/>
<path class="st19" d="M332.4,197.6h-8c-1.3,0-1.5-0.2-1.5-1.5c0-0.5,0-1,0-1.5c0-0.7,0.5-1.2,1.1-1.2c0,0,0.1,0,0.1,0
	c0.3,0,0.7,0,1,0h15.4c1.6,0,1.9,0.3,1.8,1.9c0,0.4-0.1,0.9-0.1,1.3c0,0.6-0.4,1-1,1.1c-0.4,0-0.7,0.1-1.1,0.1L332.4,197.6
	L332.4,197.6z"/>
<path class="st19" d="M351.3,188.2h-6.9c-1.3,0-1.6-0.3-1.6-1.6c0-0.6,0-1.2,0.1-1.7c0-0.5,0.5-0.9,1-0.9c0.6,0,1.3-0.1,2-0.1
	c4.3,0,8.5,0,12.8,0c0.2,0,0.5,0,0.7,0c0.4,0,0.8,0.4,0.8,0.8c0,0.8,0,1.6,0,2.4s-0.3,0.9-1,1c-0.5,0.1-0.9,0.1-1.4,0.1L351.3,188.2
	L351.3,188.2z"/>
<path class="st19" d="M342.4,185.5c0,0.5-0.1,1.1-0.1,1.6c0,0.5-0.4,0.9-0.9,0.9c-1.1,0.1-2.2,0.1-3.3,0.1c-0.3-0.1-0.5-0.3-0.6-0.5
	c-0.2-0.8-0.3-1.7-0.2-2.5c0-0.8,0.7-1.4,1.4-1.4c0.1,0,0.1,0,0.2,0c1,0,2,0,3,0.1c0.2,0,0.5,0.3,0.5,0.5
	C342.3,184.7,342.4,185.1,342.4,185.5z"/>
<path class="st19" d="M345.5,174.9c0.5,0,1,0,1.5,0c0.8,0,1.1,0.3,1.2,1.1c0,0.6,0,1.2,0,1.8c-0.1,0.7-0.3,1-1,1c-1,0.1-2,0.1-3.1,0
	c-0.7,0-1.3-0.5-1.4-1.2c0-0.1,0-0.2,0-0.3c0-0.6,0.1-1.2,0.2-1.8c0.1-0.4,0.5-0.6,0.9-0.6C344.4,175,345,175,345.5,174.9
	L345.5,174.9z"/>
<path class="st15" d="M439,305l-0.1,1.1L439,305z"/>
<path class="st15" d="M439,332.3l-0.1,1.1L439,332.3z"/>
<path class="st5" d="M554,629.3"/>
<path class="st5" d="M461.5,650.5l52.9-26.4c2.7-1.5,6.1-1.5,8.8,0c17.6,8.8,35.1,17.6,52.7,26.3c1.4,0.5,2.6,1.5,3.3,2.8v1.6
	c-0.9,1-2,1.9-3.1,2.7c-17.1,10.6-34.2,21.1-51.2,31.4c-3.6,2.4-8.4,2.4-12.1,0c-17.1-10.6-34.2-21.1-51.2-31.4"/>
<path class="st5" d="M564.8,687c0,3.3-0.1,6.6,0,9.9c0.2,3.4-1.1,6.8-3.4,9.3c-3.1,3.6-7,6.5-11.4,8.5c-7.3,3.5-15.1,5.7-23.2,6.4
	c-10.6,1.2-21.4,0-31.6-3.4c-6.5-2.2-12.5-5.2-17.4-10c-2.3-2.3-4.2-4.9-4.7-8.3c-0.1-0.6-0.2-1.3-0.1-1.9v-20.7
	c0-1.1-0.1-2.4,1.1-3.1c1.2-0.7,2,0.3,3,0.8c11.1,6.8,22.4,13.7,33.5,20.6c5.6,3.4,11.1,3.4,16.7,0c11.7-7,23.2-14.2,34.8-21.3
	c0.3-0.2,0.6-0.4,1-0.5c0.8-0.3,1.3-0.1,1.6,0.8c0.1,0.5,0.2,1,0.1,1.5L564.8,687z"/>
<path class="st5" d="M575,687.4v17.3c-0.1,0.8,0.3,1.5,0.9,1.9c2.8,1.9,3.6,5.8,1.7,8.7c-1.2,1.7-3.1,2.7-5.2,2.7
	c-3.4,0-6.2-2.9-6.2-6.3c0-2,1-3.9,2.7-5.1c0.7-0.4,1.1-1.1,1-1.9v-31.6c-0.1-1.5,0.7-3,2-3.7c0.7-0.3,1.3-0.6,1.9-1.1
	c0.7-0.4,1.1-0.1,1.2,0.7v1.1C575,675.9,575,681.7,575,687.4z"/>
<path class="st24" d="M170.2,738"/>
<path class="st5" d="M233.6,700.4c-1.7,5.3-4.5,10.3-8.1,14.5c-5.3,6-11.9,8.4-19.6,8.5c-10,0.2-20-0.5-29.9-1.9
	c-16.4-2.2-32.5-6.2-48-11.8c-4.3-1.6-8.6-3.5-12.6-5.7c-0.6-0.3-1.1-0.7-1.6-1.1c-0.3-0.1-0.5-0.5-0.4-0.8c0.1-0.4,0.6-0.3,0.8-0.3
	c1,0,2,0,3,0.3c11.3,2.4,22.6,4.3,34.2,6c10.2,1.5,20.3,2.8,30.6,2.4c8.3-0.3,16.1-1.8,23.4-6c6.9-3.9,11.7-9.9,15-16.9
	c1-2,1.6-2.4,3.7-1.3c4.5,2.1,8,6,9.4,10.8c0,0.2,0.1,0.4,0.3,0.5C233.6,698.6,233.5,699.5,233.6,700.4z"/>
<path class="st5" d="M127.6,700.4c-2.8-0.5-5.7-1.1-8.4-1.8c-4.2-1.1-6.4-3.7-6.1-8c0.8-15.3,5.4-29,17.6-39.3
	c6.6-5.4,14.5-8.8,23-9.8c10.9-1.6,22-0.3,32.3,3.5c14.9,5.6,23.6,16.5,27.6,31.7c2.2,8.1-1,14.2-6.5,19.7c-2.9,2.7-6.2,4.9-9.9,6.5
	c-0.9,0.4-1.2,0.4-1.4-0.7c-0.8-5.6-2.3-11-5.4-15.7c-1.8-3.1-4.4-5.7-7.6-7.3c-0.8-0.4-1.7-0.7-2.6-0.8c-0.4,0-0.8-0.1-1.1,0.3
	s0.1,0.7,0.3,1.1c2.6,3.7,4.8,7.6,6.5,11.8c1.7,3.6,2.8,7.5,3.3,11.5v0.5c0.1,1.6-0.1,1.8-1.6,2c-5.2,0.6-10.4,0.7-15.6,0.4
	c-2.9-0.1-5.8-0.4-8.7-0.5c-0.9,0-1.2-0.3-1.2-1.2c0.1-3,0.1-5.8,0.1-8.8c0-1.8-0.5-2.3-2.2-2.6l-7.7-1.2c-1.6-0.3-2,0.1-2,1.9
	c0,3.3-0.1,6.4-0.1,9.6c0,0.8-0.1,1-0.9,0.8c-2.9-0.4-5.8-1-8.7-1.2c-0.8-0.1-0.9-0.4-0.9-1.1c0-3.3,0.1-6.4,0.1-9.6
	c0-1.9-0.5-2.4-2.3-2.7c-2.6-0.4-5.2-0.8-7.6-1.2c-1.5-0.3-2,0.1-2,1.8c0,3.4,0,6.8-0.1,10.2C127.7,700,127.7,700.1,127.6,700.4z"/>
<path d="M400.8,698.1c-2.4,0.4-4.8,0.8-7.3,1.2c-1.9,0.3-3.8,0.6-5.6,0.8c-2.4,0.2-4.8-0.8-6.4-2.6l-23.1-22.8
	c-2.4-2.4-5.2-3-8.3-1.6c-4.2,2-8.3,4.2-12.4,6.3c-1.5,0.8-3,1.6-4.6,2.4c-3.2,1.7-7.2,0.4-8.9-2.8c-1.7-3.2-0.5-7.1,2.7-8.8
	c9.1-5.1,18.2-10.3,27.3-15.4c4.8-2.7,7.2-2.5,11.4,0.9c3.9,3.2,7.8,6.6,11.7,9.8c1.6,1.4,3.8,2,5.9,1.5c5.9-1.3,11.7-2.6,17.6-3.9
	V698.1z"/>
<path d="M292.2,701.2l-3.1-1.1l-3-1v-39.8c2.7,1,5.4,1.9,8.1,2.8c2.1,0.8,4.3,1.4,6.5,1.9c2.5,0.6,5.2,0.1,7.4-1.4
	c4.5-2.9,9.3-5.4,14.2-7.5c4.3-1.8,8.6-2.4,13-0.5c1.6,0.6,3,1.6,4.2,2.9l-1.2,0.7c-4.5,2.6-9.1,5.2-13.5,7.9c-3.7,2-5.9,6-5.7,10.2
	c0.2,6.1,5.2,11,11.3,11c1.8-0.2,3.6-0.6,5.2-1.4c3.7-1.5,7.3-3.3,10.9-4.9s6.4-1.2,9.2,1.6l21.2,21.2c2.1,1.9,2.3,5.1,0.4,7.2
	c-1.9,2.1-5.1,2.3-7.2,0.4c-0.1-0.1-0.2-0.2-0.4-0.4c-2.4-2.3-4.8-4.7-7.2-7c-0.5-0.3-1-0.5-1.5-0.6c0.2,0.5,0.2,1.2,0.5,1.5
	c2.2,2.4,4.4,4.7,6.7,7.1c2.5,2.5,2.3,6.2-0.4,8.1c-2.2,1.5-5.1,1.1-6.9-0.9c-2.8-2.8-5.7-5.6-8.6-8.4c-0.4-0.3-0.8-0.6-1.2-0.8
	l-0.4,0.3c0.4,0.7,0.9,1.4,1.4,2c2.1,2.3,4.2,4.5,6.3,6.7c2,1.9,2.1,5.1,0.2,7.2s-5.1,2.1-7.2,0.2c0,0-0.1-0.1-0.1-0.1
	c-2.7-2.7-5.4-5.4-8.2-8.2c-0.2-0.2-0.4-0.4-0.7-0.5c-0.2-0.1-0.4-0.1-0.6,0c-0.1,0.2-0.3,0.5-0.2,0.7c0.3,0.5,0.6,1,1,1.4
	c1.8,2,3.7,3.9,5.6,5.8c1.4,1.4,1.9,3.4,1.1,5.3c-0.5,1.9-2.2,3.2-4.2,3.2c-1.2-0.1-2.4-0.4-3.5-0.9c-0.3-0.1-0.6-0.6-0.9-0.8
	c-2.3-1.5-2.2-3.8-2.5-6.2c-0.4-4.3-2.9-7.3-6.9-9c-0.6-0.2-1.1-0.7-1.3-1.3c-1-3.2-3.3-5.7-6.4-6.9c-0.5-0.2-0.9-0.7-1.1-1.2
	c-1.1-3-3.4-5.4-6.3-6.6c-0.5-0.2-0.9-0.6-1.1-1.1c-1.8-5.1-7-8.1-12.4-7.3c-4.7,0.4-8.8,3.5-10.5,8
	C292.4,700.9,292.3,701,292.2,701.2z"/>
<path d="M304.7,711.3l-2.6,0.7c-4,1.1-6.3-2.3-6.2-5.1c0.2-3.7,3.3-7.8,6.7-8.7c3.7-1,8.6,1.4,7.9,6.8c0,0.3-0.1,0.6-0.1,1
	c2.3-0.3,4.4-0.1,6,1.6c1.7,1.7,1.8,3.8,1.5,6.1c2.5-0.3,4.7,0,6.3,1.9c1.5,1.8,1.8,4.2,1,6.4c0.9-0.1,1.9-0.2,2.8-0.2
	c3.4,0.3,5.8,3.3,5.5,6.6c0,0.5-0.1,0.9-0.3,1.4c-1.3,4.5-7.5,7.4-11.8,5.6c-1.9-0.8-3-2.9-2.6-5c0.3-1.2,0.8-2.4,1.3-3.6
	c-1.2,0.3-2.5,0.6-3.8,0.8c-2.4,0.5-4.7-1.1-5.2-3.5c-0.2-0.9-0.1-1.8,0.3-2.6c0.3-0.8,0.6-1.6,0.8-2.4c-0.9,0.2-1.7,0.5-2.5,0.6
	c-1.8,0.4-3.5,0.3-4.8-1.2c-1.3-1.3-1.6-3.3-0.9-5C304.2,712.8,304.4,712.1,304.7,711.3z"/>
<line class="st25" x1="293.7" y1="736.8" x2="393.1" y2="643.6"/>
<circle class="st25" cx="340.5" cy="687.6" r="68.8"/>
<rect x="93.8" y="42.5" class="st26" width="1320.5" height="177.7"/>
<text transform="matrix(1 0 0 1 568.72 84.9044)" class="st0 st1 st27">The Problems</text>
<rect x="797.2" y="213.5" class="st26" width="591.2" height="51.1"/>
<text transform="matrix(1 0 0 1 797.1901 249.7868)" class="st0 st1 st28">Demographic gap</text>
<rect x="802" y="415.1" class="st26" width="591.2" height="51.1"/>
<text transform="matrix(1 0 0 1 802.0444 451.4011)" class="st0 st1 st28">Vulnerable economy</text>
<rect x="802" y="640.1" class="st26" width="591.2" height="51.1"/>
<text transform="matrix(1 0 0 1 802.0444 676.4224)" class="st0 st1 st28">Education misfit</text>
</svg>
