<?xml version="1.0" encoding="utf-8"?>
<!-- Generator: Adobe Illustrator 23.1.0, SVG Export Plug-In . SVG Version: 6.00 Build 0)  -->
<svg version="1.1" id="Ebene_1" xmlns="http://www.w3.org/2000/svg" xmlns:xlink="http://www.w3.org/1999/xlink" x="0px" y="0px"
	 viewBox="0 0 1505 804" style="enable-background:new 0 0 1505 804;" xml:space="preserve">
<style type="text/css">
	@font-face {font-family: "NeueHaasUnicaW06-ThinItalic";
	src: url("/Blog/main/fonts/NeueHaasUnicaW06/OnlineWebFonts_COM_0ed68d0a6f9c1234e2d43bdd27b951f2/@font-face/3842220656142ccef91508c98b0eb6ed.eot"); /* IE9*/
	src: url("/Blog/main/fonts/NeueHaasUnicaW06/OnlineWebFonts_COM_0ed68d0a6f9c1234e2d43bdd27b951f2/@font-face/3842220656142ccef91508c98b0eb6ed.eot?#iefix") format("embedded-opentype"), /* IE6-IE8 */
	url("/Blog/main/fonts/NeueHaasUnicaW06/OnlineWebFonts_COM_0ed68d0a6f9c1234e2d43bdd27b951f2/@font-face/3842220656142ccef91508c98b0eb6ed.woff2") format("woff2"), /* chrome、firefox */
	url("/Blog/main/fonts/NeueHaasUnicaW06/OnlineWebFonts_COM_0ed68d0a6f9c1234e2d43bdd27b951f2/@font-face/3842220656142ccef91508c98b0eb6ed.woff") format("woff"), /* chrome、firefox */
	url("/Blog/main/fonts/NeueHaasUnicaW06/OnlineWebFonts_COM_0ed68d0a6f9c1234e2d43bdd27b951f2/@font-face/3842220656142ccef91508c98b0eb6ed.ttf") format("truetype"), /* chrome、firefox、opera、Safari, Android, iOS 4.2+*/
	url("/Blog/main/fonts/NeueHaasUnicaW06/OnlineWebFonts_COM_0ed68d0a6f9c1234e2d43bdd27b951f2/@font-face/3842220656142ccef91508c98b0eb6ed.svg#Neue Haas Unica W06 Thin It") format("svg"); /* iOS 4.1- */
	}
	@font-face {font-family: "NeueHaasUnicaW06-ExtraBlack";
		src: url("/Blog/main/fonts/NeueHaasUnicaW06/OnlineWebFonts_COM_3dad734723cd1eada75c00f4d4322909/@font-face/46ff6b5a1511006aeadd4a46a3efd9ae.eot"); /* IE9*/
		src: url("/Blog/main/fonts/NeueHaasUnicaW06/OnlineWebFonts_COM_3dad734723cd1eada75c00f4d4322909/@font-face/46ff6b5a1511006aeadd4a46a3efd9ae.eot?#iefix") format("embedded-opentype"), /* IE6-IE8 */
		url("/Blog/main/fonts/NeueHaasUnicaW06/OnlineWebFonts_COM_3dad734723cd1eada75c00f4d4322909/@font-face/46ff6b5a1511006aeadd4a46a3efd9ae.woff") format("woff2"), /* chrome、firefox */
		url("/Blog/main/fonts/NeueHaasUnicaW06/OnlineWebFonts_COM_3dad734723cd1eada75c00f4d4322909/@font-face/46ff6b5a1511006aeadd4a46a3efd9ae.woff2") format("woff"), /* chrome、firefox */
		url("/Blog/main/fonts/NeueHaasUnicaW06/OnlineWebFonts_COM_3dad734723cd1eada75c00f4d4322909/@font-face/46ff6b5a1511006aeadd4a46a3efd9ae.ttf") format("truetype"), /* chrome、firefox、opera、Safari, Android, iOS 4.2+*/
		url("/Blog/main/fonts/NeueHaasUnicaW06/OnlineWebFonts_COM_3dad734723cd1eada75c00f4d4322909/@font-face/46ff6b5a1511006aeadd4a46a3efd9ae.svg#Neue Haas Unica W06 X Black") format("svg"); /* iOS 4.1- */
	}
	@font-face {font-family: "NeueHaasUnicaW06-Regular";
		src: url("/Blog/main/fonts/NeueHaasUnicaW06/OnlineWebFonts_COM_7a298e4d1b42d5d0485b479c3bcf69bf/@font-face/7250d52844cced73ed70675d1b78c60c.eot"); /* IE9*/
		src: url("/Blog/main/fonts/NeueHaasUnicaW06/OnlineWebFonts_COM_7a298e4d1b42d5d0485b479c3bcf69bf/@font-face/7250d52844cced73ed70675d1b78c60c.eot?#iefix") format("embedded-opentype"), /* IE6-IE8 */
		url("/Blog/main/fonts/NeueHaasUnicaW06/OnlineWebFonts_COM_7a298e4d1b42d5d0485b479c3bcf69bf/@font-face/7250d52844cced73ed70675d1b78c60c.woff") format("woff2"), /* chrome、firefox */
		url("/Blog/main/fonts/NeueHaasUnicaW06/OnlineWebFonts_COM_7a298e4d1b42d5d0485b479c3bcf69bf/@font-face/7250d52844cced73ed70675d1b78c60c.woff2") format("woff"), /* chrome、firefox */
		url("/Blog/main/fonts/NeueHaasUnicaW06/OnlineWebFonts_COM_7a298e4d1b42d5d0485b479c3bcf69bf/@font-face/7250d52844cced73ed70675d1b78c60c.ttf") format("truetype"), /* chrome、firefox、opera、Safari, Android, iOS 4.2+*/
		url("/Blog/main/fonts/NeueHaasUnicaW06/OnlineWebFonts_COM_7a298e4d1b42d5d0485b479c3bcf69bf/@font-face/7250d52844cced73ed70675d1b78c60c.svg#Neue Haas Unica W06 X Black") format("svg"); /* iOS 4.1- */
	}
	@font-face {font-family: "NeueHaasUnicaW06-XBlackIt";
		src: url("/Blog/main/fonts/NeueHaasUnicaW06/OnlineWebFonts_COM_7ded04d499cfd92c5afc12ffac484c5a/@font-face/5ef047f0e72e70adeba30f0c829c33e0.eot"); /* IE9*/
		src: url("/Blog/main/fonts/NeueHaasUnicaW06/OnlineWebFonts_COM_7ded04d499cfd92c5afc12ffac484c5a/@font-face/5ef047f0e72e70adeba30f0c829c33e0.eot?#iefix") format("embedded-opentype"), /* IE6-IE8 */
		url("/Blog/main/fonts/NeueHaasUnicaW06/OnlineWebFonts_COM_7ded04d499cfd92c5afc12ffac484c5a/@font-face/5ef047f0e72e70adeba30f0c829c33e0.woff") format("woff2"), /* chrome、firefox */
		url("/Blog/main/fonts/NeueHaasUnicaW06/OnlineWebFonts_COM_7ded04d499cfd92c5afc12ffac484c5a/@font-face/5ef047f0e72e70adeba30f0c829c33e0.woff2") format("woff"), /* chrome、firefox */
		url("/Blog/main/fonts/NeueHaasUnicaW06/OnlineWebFonts_COM_7ded04d499cfd92c5afc12ffac484c5a/@font-face/5ef047f0e72e70adeba30f0c829c33e0.ttf") format("truetype"), /* chrome、firefox、opera、Safari, Android, iOS 4.2+*/
		url("/Blog/main/fonts/NeueHaasUnicaW06/OnlineWebFonts_COM_7ded04d499cfd92c5afc12ffac484c5a/@font-face/5ef047f0e72e70adeba30f0c829c33e0.svg#Neue Haas Unica W06 X Black") format("svg"); /* iOS 4.1- */
	}
	@font-face {font-family: "NeueHaasUnicaW06-LightIt";
		src: url("/Blog/main/fonts/NeueHaasUnicaW06/OnlineWebFonts_COM_19d2b951c44c457e1bc515a2e9e486fb/@font-face/7f69054324b2adbc60f29dfd260c3d30.eot"); /* IE9*/
		src: url("/Blog/main/fonts/NeueHaasUnicaW06/OnlineWebFonts_COM_19d2b951c44c457e1bc515a2e9e486fb/@font-face/7f69054324b2adbc60f29dfd260c3d30.eot?#iefix") format("embedded-opentype"), /* IE6-IE8 */
		url("/Blog/main/fonts/NeueHaasUnicaW06/OnlineWebFonts_COM_19d2b951c44c457e1bc515a2e9e486fb/@font-face/7f69054324b2adbc60f29dfd260c3d30.woff") format("woff2"), /* chrome、firefox */
		url("/Blog/main/fonts/NeueHaasUnicaW06/OnlineWebFonts_COM_19d2b951c44c457e1bc515a2e9e486fb/@font-face/7f69054324b2adbc60f29dfd260c3d30.woff2") format("woff"), /* chrome、firefox */
		url("/Blog/main/fonts/NeueHaasUnicaW06/OnlineWebFonts_COM_19d2b951c44c457e1bc515a2e9e486fb/@font-face/7f69054324b2adbc60f29dfd260c3d30.ttf") format("truetype"), /* chrome、firefox、opera、Safari, Android, iOS 4.2+*/
		url("/Blog/main/fonts/NeueHaasUnicaW06/OnlineWebFonts_COM_19d2b951c44c457e1bc515a2e9e486fb/@font-face/7f69054324b2adbc60f29dfd260c3d30.svg#Neue Haas Unica W06 X Black") format("svg"); /* iOS 4.1- */
	}
	@font-face {font-family: "NeueHaasUnicaW06-Italic";
		src: url("/Blog/main/fonts/NeueHaasUnicaW06/OnlineWebFonts_COM_059c6c90764b5b58f635dc550a3dd784/@font-face/0aa6b2719638cacfa0e8abce9099a39b.eot"); /* IE9*/
		src: url("/Blog/main/fonts/NeueHaasUnicaW06/OnlineWebFonts_COM_059c6c90764b5b58f635dc550a3dd784/@font-face/0aa6b2719638cacfa0e8abce9099a39b.eot?#iefix") format("embedded-opentype"), /* IE6-IE8 */
		url("/Blog/main/fonts/NeueHaasUnicaW06/OnlineWebFonts_COM_059c6c90764b5b58f635dc550a3dd784/@font-face/0aa6b2719638cacfa0e8abce9099a39b.woff") format("woff2"), /* chrome、firefox */
		url("/Blog/main/fonts/NeueHaasUnicaW06/OnlineWebFonts_COM_059c6c90764b5b58f635dc550a3dd784/@font-face/0aa6b2719638cacfa0e8abce9099a39b.woff2") format("woff"), /* chrome、firefox */
		url("/Blog/main/fonts/NeueHaasUnicaW06/OnlineWebFonts_COM_059c6c90764b5b58f635dc550a3dd784/@font-face/0aa6b2719638cacfa0e8abce9099a39b.ttf") format("truetype"), /* chrome、firefox、opera、Safari, Android, iOS 4.2+*/
		url("/Blog/main/fonts/NeueHaasUnicaW06/OnlineWebFonts_COM_059c6c90764b5b58f635dc550a3dd784/@font-face/0aa6b2719638cacfa0e8abce9099a39b.svg#Neue Haas Unica W06 X Black") format("svg"); /* iOS 4.1- */
	}
	@font-face {font-family: "NeueHaasUnicaW06-Bold";
		src: url("/Blog/main/fonts/NeueHaasUnicaW06/OnlineWebFonts_COM_073d72f89a764f9fcbc574a8bd4cb553/@font-face/bb87c8dd3cc47b366f6bb7738fee180c.eot"); /* IE9*/
		src: url("/Blog/main/fonts/NeueHaasUnicaW06/OnlineWebFonts_COM_073d72f89a764f9fcbc574a8bd4cb553/@font-face/bb87c8dd3cc47b366f6bb7738fee180c.eot?#iefix") format("embedded-opentype"), /* IE6-IE8 */
		url("/Blog/main/fonts/NeueHaasUnicaW06/OnlineWebFonts_COM_073d72f89a764f9fcbc574a8bd4cb553/@font-face/bb87c8dd3cc47b366f6bb7738fee180c.woff") format("woff2"), /* chrome、firefox */
		url("/Blog/main/fonts/NeueHaasUnicaW06/OnlineWebFonts_COM_073d72f89a764f9fcbc574a8bd4cb553/@font-face/bb87c8dd3cc47b366f6bb7738fee180c.woff2") format("woff"), /* chrome、firefox */
		url("/Blog/main/fonts/NeueHaasUnicaW06/OnlineWebFonts_COM_073d72f89a764f9fcbc574a8bd4cb553/@font-face/bb87c8dd3cc47b366f6bb7738fee180c.ttf") format("truetype"), /* chrome、firefox、opera、Safari, Android, iOS 4.2+*/
		url("/Blog/main/fonts/NeueHaasUnicaW06/OnlineWebFonts_COM_073d72f89a764f9fcbc574a8bd4cb553/@font-face/bb87c8dd3cc47b366f6bb7738fee180c.svg#Neue Haas Unica W06 X Black") format("svg"); /* iOS 4.1- */
	}
	@font-face {font-family: "NeueHaasUnicaW06-Heavy";
		src: url("/Blog/main/fonts/NeueHaasUnicaW06/OnlineWebFonts_COM_559d73454fad999c45ebbdaaa3ebacdd/@font-face/d04fc9492a6f504ee79cb87d63393fe0.eot"); /* IE9*/
		src: url("/Blog/main/fonts/NeueHaasUnicaW06/OnlineWebFonts_COM_559d73454fad999c45ebbdaaa3ebacdd/@font-face/d04fc9492a6f504ee79cb87d63393fe0.eot?#iefix") format("embedded-opentype"), /* IE6-IE8 */
		url("/Blog/main/fonts/NeueHaasUnicaW06/OnlineWebFonts_COM_559d73454fad999c45ebbdaaa3ebacdd/@font-face/d04fc9492a6f504ee79cb87d63393fe0.woff") format("woff2"), /* chrome、firefox */
		url("/Blog/main/fonts/NeueHaasUnicaW06/OnlineWebFonts_COM_559d73454fad999c45ebbdaaa3ebacdd/@font-face/d04fc9492a6f504ee79cb87d63393fe0.woff2") format("woff"), /* chrome、firefox */
		url("/Blog/main/fonts/NeueHaasUnicaW06/OnlineWebFonts_COM_559d73454fad999c45ebbdaaa3ebacdd/@font-face/d04fc9492a6f504ee79cb87d63393fe0.ttf") format("truetype"), /* chrome、firefox、opera、Safari, Android, iOS 4.2+*/
		url("/Blog/main/fonts/NeueHaasUnicaW06/OnlineWebFonts_COM_559d73454fad999c45ebbdaaa3ebacdd/@font-face/d04fc9492a6f504ee79cb87d63393fe0.svg#Neue Haas Unica W06 X Black") format("svg"); /* iOS 4.1- */
	}
	@font-face {font-family: "NeueHaasUnicaW06-HeavyIt";
		src: url("/Blog/main/fonts/NeueHaasUnicaW06/OnlineWebFonts_COM_507355e12251f27746763ec4f975a633/@font-face/a9820d1a66a09f97371b7ec92a271a92.eot"); /* IE9*/
		src: url("/Blog/main/fonts/NeueHaasUnicaW06/OnlineWebFonts_COM_507355e12251f27746763ec4f975a633/@font-face/a9820d1a66a09f97371b7ec92a271a92.eot?#iefix") format("embedded-opentype"), /* IE6-IE8 */
		url("/Blog/main/fonts/NeueHaasUnicaW06/OnlineWebFonts_COM_507355e12251f27746763ec4f975a633/@font-face/a9820d1a66a09f97371b7ec92a271a92.woff") format("woff2"), /* chrome、firefox */
		url("/Blog/main/fonts/NeueHaasUnicaW06/OnlineWebFonts_COM_507355e12251f27746763ec4f975a633/@font-face/a9820d1a66a09f97371b7ec92a271a92.woff2") format("woff"), /* chrome、firefox */
		url("/Blog/main/fonts/NeueHaasUnicaW06/OnlineWebFonts_COM_507355e12251f27746763ec4f975a633/@font-face/a9820d1a66a09f97371b7ec92a271a92.ttf") format("truetype"), /* chrome、firefox、opera、Safari, Android, iOS 4.2+*/
		url("/Blog/main/fonts/NeueHaasUnicaW06/OnlineWebFonts_COM_507355e12251f27746763ec4f975a633/@font-face/a9820d1a66a09f97371b7ec92a271a92.svg#Neue Haas Unica W06 X Black") format("svg"); /* iOS 4.1- */
	}
	@font-face {font-family: "NeueHaasUnicaW06-Light";
		src: url("/Blog/main/fonts/NeueHaasUnicaW06/OnlineWebFonts_COM_c59b16964f2eec693c72eb9c925ef088/@font-face/145bf6f8eebf1ad036f74d821af7d94b.eot"); /* IE9*/
		src: url("/Blog/main/fonts/NeueHaasUnicaW06/OnlineWebFonts_COM_c59b16964f2eec693c72eb9c925ef088/@font-face/145bf6f8eebf1ad036f74d821af7d94b.eot?#iefix") format("embedded-opentype"), /* IE6-IE8 */
		url("/Blog/main/fonts/NeueHaasUnicaW06/OnlineWebFonts_COM_c59b16964f2eec693c72eb9c925ef088/@font-face/145bf6f8eebf1ad036f74d821af7d94b.woff") format("woff2"), /* chrome、firefox */
		url("/Blog/main/fonts/NeueHaasUnicaW06/OnlineWebFonts_COM_c59b16964f2eec693c72eb9c925ef088/@font-face/145bf6f8eebf1ad036f74d821af7d94b.woff2") format("woff"), /* chrome、firefox */
		url("/Blog/main/fonts/NeueHaasUnicaW06/OnlineWebFonts_COM_c59b16964f2eec693c72eb9c925ef088/@font-face/145bf6f8eebf1ad036f74d821af7d94b.ttf") format("truetype"), /* chrome、firefox、opera、Safari, Android, iOS 4.2+*/
		url("/Blog/main/fonts/NeueHaasUnicaW06/OnlineWebFonts_COM_c59b16964f2eec693c72eb9c925ef088/@font-face/145bf6f8eebf1ad036f74d821af7d94b.svg#Neue Haas Unica W06 X Black") format("svg"); /* iOS 4.1- */
	}
	@font-face {font-family: "NeueHaasUnicaW06-MediumIt";
		src: url("/Blog/main/fonts/NeueHaasUnicaW06/OnlineWebFonts_COM_d179b86ccc44b19f872ad2ce5d9141f0/@font-face/2a415f48f53c15b960c82ad93f0a2ee0.eot"); /* IE9*/
		src: url("/Blog/main/fonts/NeueHaasUnicaW06/OnlineWebFonts_COM_d179b86ccc44b19f872ad2ce5d9141f0/@font-face/2a415f48f53c15b960c82ad93f0a2ee0.eot?#iefix") format("embedded-opentype"), /* IE6-IE8 */
		url("/Blog/main/fonts/NeueHaasUnicaW06/OnlineWebFonts_COM_d179b86ccc44b19f872ad2ce5d9141f0/@font-face/2a415f48f53c15b960c82ad93f0a2ee0.woff") format("woff2"), /* chrome、firefox */
		url("/Blog/main/fonts/NeueHaasUnicaW06/OnlineWebFonts_COM_d179b86ccc44b19f872ad2ce5d9141f0/@font-face/2a415f48f53c15b960c82ad93f0a2ee0.woff2") format("woff"), /* chrome、firefox */
		url("/Blog/main/fonts/NeueHaasUnicaW06/OnlineWebFonts_COM_d179b86ccc44b19f872ad2ce5d9141f0/@font-face/2a415f48f53c15b960c82ad93f0a2ee0.ttf") format("truetype"), /* chrome、firefox、opera、Safari, Android, iOS 4.2+*/
		url("/Blog/main/fonts/NeueHaasUnicaW06/OnlineWebFonts_COM_d179b86ccc44b19f872ad2ce5d9141f0/@font-face/2a415f48f53c15b960c82ad93f0a2ee0.svg#Neue Haas Unica W06 X Black") format("svg"); /* iOS 4.1- */
	}
	@font-face {font-family: "NeueHaasUnicaW06-Thin";
		src: url("/Blog/main/fonts/NeueHaasUnicaW06/OnlineWebFonts_COM_e0d1d8bcd90f325e7a7f4a8b9636d78a/@font-face/740a2bcf13582a2a0ed99e15dffe7b9f.eot"); /* IE9*/
		src: url("/Blog/main/fonts/NeueHaasUnicaW06/OnlineWebFonts_COM_e0d1d8bcd90f325e7a7f4a8b9636d78a/@font-face/740a2bcf13582a2a0ed99e15dffe7b9f.eot?#iefix") format("embedded-opentype"), /* IE6-IE8 */
		url("/Blog/main/fonts/NeueHaasUnicaW06/OnlineWebFonts_COM_e0d1d8bcd90f325e7a7f4a8b9636d78a/@font-face/740a2bcf13582a2a0ed99e15dffe7b9f.woff") format("woff2"), /* chrome、firefox */
		url("/Blog/main/fonts/NeueHaasUnicaW06/OnlineWebFonts_COM_e0d1d8bcd90f325e7a7f4a8b9636d78a/@font-face/740a2bcf13582a2a0ed99e15dffe7b9f.woff2") format("woff"), /* chrome、firefox */
		url("/Blog/main/fonts/NeueHaasUnicaW06/OnlineWebFonts_COM_e0d1d8bcd90f325e7a7f4a8b9636d78a/@font-face/740a2bcf13582a2a0ed99e15dffe7b9f.ttf") format("truetype"), /* chrome、firefox、opera、Safari, Android, iOS 4.2+*/
		url("/Blog/main/fonts/NeueHaasUnicaW06/OnlineWebFonts_COM_e0d1d8bcd90f325e7a7f4a8b9636d78a/@font-face/740a2bcf13582a2a0ed99e15dffe7b9f.svg#Neue Haas Unica W06 X Black") format("svg"); /* iOS 4.1- */
	}
	@font-face {font-family: "NeueHaasUnicaW06-BoldItalic";
		src: url("/Blog/main/fonts/NeueHaasUnicaW06/OnlineWebFonts_COM_e4e54e1eb6c480425902156a32fef7d6/@font-face/61742cae2dd974e3c9604f614a4c57f1.eot"); /* IE9*/
		src: url("/Blog/main/fonts/NeueHaasUnicaW06/OnlineWebFonts_COM_e4e54e1eb6c480425902156a32fef7d6/@font-face/61742cae2dd974e3c9604f614a4c57f1.eot?#iefix") format("embedded-opentype"), /* IE6-IE8 */
		url("/Blog/main/fonts/NeueHaasUnicaW06/OnlineWebFonts_COM_e4e54e1eb6c480425902156a32fef7d6/@font-face/61742cae2dd974e3c9604f614a4c57f1.woff") format("woff2"), /* chrome、firefox */
		url("/Blog/main/fonts/NeueHaasUnicaW06/OnlineWebFonts_COM_e4e54e1eb6c480425902156a32fef7d6/@font-face/61742cae2dd974e3c9604f614a4c57f1.woff2") format("woff"), /* chrome、firefox */
		url("/Blog/main/fonts/NeueHaasUnicaW06/OnlineWebFonts_COM_e4e54e1eb6c480425902156a32fef7d6/@font-face/61742cae2dd974e3c9604f614a4c57f1.ttf") format("truetype"), /* chrome、firefox、opera、Safari, Android, iOS 4.2+*/
		url("/Blog/main/fonts/NeueHaasUnicaW06/OnlineWebFonts_COM_e4e54e1eb6c480425902156a32fef7d6/@font-face/61742cae2dd974e3c9604f614a4c57f1.svg#Neue Haas Unica W06 X Black") format("svg"); /* iOS 4.1- */
	}
	@font-face {font-family: "NeueHaasUnicaW06-Medium";
		src: url("/Blog/main/fonts/NeueHaasUnicaW06/OnlineWebFonts_COM_e009de3bc4003d481f48e90c6efd332f/@font-face/9c0afb6841117a1e2256b49b040cb768.eot"); /* IE9*/
		src: url("/Blog/main/fonts/NeueHaasUnicaW06/OnlineWebFonts_COM_e009de3bc4003d481f48e90c6efd332f/@font-face/9c0afb6841117a1e2256b49b040cb768.eot?#iefix") format("embedded-opentype"), /* IE6-IE8 */
		url("/Blog/main/fonts/NeueHaasUnicaW06/OnlineWebFonts_COM_e009de3bc4003d481f48e90c6efd332f/@font-face/9c0afb6841117a1e2256b49b040cb768.woff") format("woff2"), /* chrome、firefox */
		url("/Blog/main/fonts/NeueHaasUnicaW06/OnlineWebFonts_COM_e009de3bc4003d481f48e90c6efd332f/@font-face/9c0afb6841117a1e2256b49b040cb768.woff2") format("woff"), /* chrome、firefox */
		url("/Blog/main/fonts/NeueHaasUnicaW06/OnlineWebFonts_COM_e009de3bc4003d481f48e90c6efd332f/@font-face/9c0afb6841117a1e2256b49b040cb768.ttf") format("truetype"), /* chrome、firefox、opera、Safari, Android, iOS 4.2+*/
		url("/Blog/main/fonts/NeueHaasUnicaW06/OnlineWebFonts_COM_e009de3bc4003d481f48e90c6efd332f/@font-face/9c0afb6841117a1e2256b49b040cb768.svg#Neue Haas Unica W06 X Black") format("svg"); /* iOS 4.1- */
	}
	@font-face {font-family: "NeueHaasUnicaW06-BlackIt";
		src: url("/Blog/main/fonts/NeueHaasUnicaW06/OnlineWebFonts_COM_f0d250fc9c4208c6c78408a38db68150/@font-face/15e7a19454566924256299df2a72ab91.eot"); /* IE9*/
		src: url("/Blog/main/fonts/NeueHaasUnicaW06/OnlineWebFonts_COM_f0d250fc9c4208c6c78408a38db68150/@font-face/15e7a19454566924256299df2a72ab91.eot?#iefix") format("embedded-opentype"), /* IE6-IE8 */
		url("/Blog/main/fonts/NeueHaasUnicaW06/OnlineWebFonts_COM_f0d250fc9c4208c6c78408a38db68150/@font-face/15e7a19454566924256299df2a72ab91.woff") format("woff2"), /* chrome、firefox */
		url("/Blog/main/fonts/NeueHaasUnicaW06/OnlineWebFonts_COM_f0d250fc9c4208c6c78408a38db68150/@font-face/15e7a19454566924256299df2a72ab91.woff2") format("woff"), /* chrome、firefox */
		url("/Blog/main/fonts/NeueHaasUnicaW06/OnlineWebFonts_COM_f0d250fc9c4208c6c78408a38db68150/@font-face/15e7a19454566924256299df2a72ab91.ttf") format("truetype"), /* chrome、firefox、opera、Safari, Android, iOS 4.2+*/
		url("/Blog/main/fonts/NeueHaasUnicaW06/OnlineWebFonts_COM_f0d250fc9c4208c6c78408a38db68150/@font-face/15e7a19454566924256299df2a72ab91.svg#Neue Haas Unica W06 X Black") format("svg"); /* iOS 4.1- */
	}
	.st0{opacity:0.5;fill:#565656;}
	.st1{fill:none;stroke:#1D1D1B;stroke-miterlimit:10;}
	.st2{fill:#E2624A;}
	.st3{fill:#E0634B;}
	.st4{fill:#698CC6;}
	.st5{fill:#E56348;}
	.st6{fill:#E66449;}
	.st7{fill:#E56349;}
	.st8{fill:#E56145;}
	.st9{fill:#E15D42;}
	.st10{fill:#D99082;}
	.st11{fill:#E46247;}
	.st12{fill:#E4583C;}
	.st13{fill:#F8AE45;}
	.st14{fill:#489341;}
	.st15{fill:#F8AF48;}
	.st16{fill:#F8AF46;}
	.st17{fill:#F8AF47;}
	.st18{fill:#F8AE46;}
	.st19{fill:none;stroke:#6A8BC4;stroke-width:2.71;stroke-miterlimit:10;}
	.st20{fill:none;stroke:#E30613;stroke-width:4.47;stroke-miterlimit:10;}
	.st21{fill:#1D1D1B;}
	.st22{font-family:'NeueHaasUnicaW06-Regular';}
	.st23{font-size:24px;}
	.st24{font-size:18px;}
	.st25{enable-background:new    ;}
	.st26{font-family:'NeueHaasUnicaW06-Thin';}
</style>
<rect x="120.5" y="204.6" class="st0" width="291.1" height="275.7"/>
<rect x="607" y="204.6" class="st0" width="291.1" height="275.7"/>
<rect x="1094.9" y="204.6" class="st0" width="291.1" height="275.7"/>
<rect x="69.9" y="166.8" class="st1" width="390.6" height="508.6"/>
<rect x="557.5" y="166.8" class="st1" width="390.6" height="508.6"/>
<rect x="1045.1" y="166.8" class="st1" width="390.6" height="508.6"/>
<title>Problems</title>
<path class="st2" d="M691.9,451.4l-8.5-0.3c0-0.3,0-0.5-0.2-0.7c0-11.3,0-22.7,0-34v-35v-2v-34v-2v-33v-2v-36l0.2-30.8
	c0.1,0,0.3,0,0.4-0.2h8.6c0.2,1.7,0.4,3.4,0.5,5.2c0.1,8.6,0.1,17.2,0.1,25.9v5c0,10.7,0,21.4,0,32c0,2.1-0.1,4.3-0.1,6.5V451
	L691.9,451.4z"/>
<path class="st3" d="M669.1,308.2c0-11.3,0-22.7,0-34v-2.1c0.2-4.4,0.4-8.8,0.6-13.2h8c0.4,1.4,0.9,2.5,1,3.9
	c0.2,3.1,0.1,6.3,0.2,9.4v2c0,11.3,0,22.7,0,34v2v33v2v34v2v33v2l0,34c-0.1,0.2-0.2,0.4-0.1,0.7h-9.5c0-0.3,0-0.5-0.1-0.7
	c0-11.3,0-22.7,0-34v-2c0-10.7,0-21.4,0-32v-39.1c0-10.7,0-21.4,0-32L669.1,308.2z"/>
<path class="st4" d="M641,379.3c0-11.4,0-22.7,0-34v-37c0.1-0.1,0.2-0.1,0.3-0.1l0.7-0.9l8.8,1v2c0,11,0,22,0,33v2v67.1v4.1l0,34
	c-0.1,0.1-0.2,0.4-0.1,0.7c-0.2,0-0.3,0.1-0.4,0.3c0-0.2-0.1-0.4-0.1-0.7l-0.3-0.6l-0.2,0.8c0,0.2-0.1,0.4-0.1,0.6l-7.6-0.5
	l-0.7-1.4c-0.1,0-0.2-0.1-0.3-0.2c0-11,0-22,0-32.9v-3v-31.1L641,379.3z"/>
<path class="st4" d="M663.7,451.4l-7.6-0.5l-0.8-1.4l-0.3-33l0.1-3v-1.9c0-9,0-18,0-27.1c0-0.3,0-0.6,0-0.8l-0.1-3.1v-1
	c0-11.3,0-22.7,0-34v-2l0.3-31.1l0.8-1.5h7.6l0.9,1.5l0.2,31.1v37v34v2l-0.2,33l-0.9,1.4C663.8,451,663.7,451.2,663.7,451.4z"/>
<path class="st5" d="M711.3,345.3v-23.7h10v22.7c0,0.4,0,0.7,0,1v34c0,24-0.1,47.9-0.1,71.9h-9.8v-34.9c0-1.7,0-3.3,0-5v-27
	c0-1.7,0-3.3,0-5L711.3,345.3L711.3,345.3z"/>
<path class="st6" d="M768.3,451.5l-0.9-0.5c0.1-7.1,0.1-14.3,0.1-21.4c0-16.8-0.1-33.5-0.2-50.2v-15.5h10.2v15.5l-0.1,71.8l-1,0.3
	h-4.9L768.3,451.5z"/>
<path class="st4" d="M636.6,351.3l0.2,28v3c0,10.4,0,20.7,0,31.1v3l-0.2,33c-2.2,0-4.3-0.1-6.5,0.1c-1.7,0.2-2.2-1.1-2.2-4.1
	c0-30,0-60,0-90.1c0-3,0.5-4.3,2.1-4.1C632.3,351.4,634.4,351.3,636.6,351.3z"/>
<path class="st4" d="M809.6,379.4c0.1-3.3,0.2-6.5,0.3-10h9.3c0.1,3.5,0.2,6.8,0.3,10c-0.1,11.5-0.1,23-0.2,34.5
	c-0.1,12.5-0.1,25-0.2,37.4H810c-0.1-4.5-0.2-9-0.2-13.5C809.7,418.3,809.7,398.8,809.6,379.4z"/>
<path class="st7" d="M753.3,379.4c0.1-4.5,0.2-8.9,0.4-13.6h9.8v13.6c0,23.9-0.1,47.9-0.1,71.8l-2.1,0.3h-4.9l-2.8-0.6
	c0-9.5,0-18.9,0-28.1C753.5,408.3,753.4,393.8,753.3,379.4z"/>
<path class="st4" d="M791,451.3l-8.1,0.1c-0.4-1.7-1.1-3.4-1.1-5.2c-0.1-22.3-0.2-44.6-0.2-66.9v-18.7h9.9v18.7
	c-0.1,11.4-0.2,22.8-0.2,34.3C791.2,426.1,791.1,438.7,791,451.3z"/>
<path class="st8" d="M833.3,356.3c0,7.7,0,15.3,0,23v70.1c-2.2,0-4.5-0.1-6.7,0c-1.3,0.1-1.9-0.8-1.9-3.4c0-28.8,0-57.6,0-86.3
	c0-2.7,0.6-3.5,1.9-3.5C828.8,356.4,831,356.3,833.3,356.3z"/>
<path class="st4" d="M805.1,451.3H796c0-4.8-0.1-9.7-0.1-14.5c-0.1-19.2-0.1-38.3-0.2-57.4c0.1-3.9,0.2-7.9,0.3-11.8l8.6-0.2
	c0.3,4.1,0.6,8,0.8,12.1c-0.1,2.7-0.2,5.3-0.2,8C805.2,408.6,805.1,429.9,805.1,451.3z"/>
<path class="st7" d="M749.3,451.2l-1.6,0.2h-4.3l-3.9-0.5c0-2.3,0-4.2,0-6.2c0-21.8-0.1-43.6-0.1-65.4c0.1-2.1,0.2-4.2,0.3-6.8h9.4
	c0.1,2.7,0.2,4.7,0.3,6.8L749.3,451.2z"/>
<path class="st7" d="M725.3,379.3c0.5-1,1-2.9,1.5-2.9c2.3-0.3,4.6-0.3,7,0c0.5,0.1,1,1.9,1.5,3l-0.1,71.9l-1,0.2l-8.6-0.2
	c0-3.8-0.1-7.7-0.1-11.5C725.4,419.6,725.4,399.5,725.3,379.3z"/>
<path class="st4" d="M847.3,366.3l0.3,13c-0.1,2.1-0.1,4.3-0.1,6.5c0,21.2-0.1,42.4-0.1,63.6c-2,0-4-0.2-5.9,0.1
	c-2.1,0.3-2.8-1-2.8-5c0.1-22.8,0-45.6,0-68.4c0-11.4,1.1-13,7.3-10.5C846.5,365.9,846.9,366.1,847.3,366.3z"/>
<path class="st4" d="M861.3,368.4c0.1,3.6,0.2,7.3,0.3,10.9v3v31.1c0,12.4,0,24.8,0,37.1l-0.2-0.2c-2.1-0.3-4.3-0.8-6.4-0.8
	c-1.6,0-2.2-0.9-2.2-4.1c0-24.1,0-48.2,0-72.4c0-3.1,0.6-4,2.2-4C857.1,369.2,859.2,368.7,861.3,368.4z"/>
<path class="st4" d="M875.9,415.6l-0.1,34.9l-9.7,0.8c0-0.3-0.1-0.6-0.2-0.8l0-37.1v-11.7h10v11.7
	C875.8,414.1,875.8,414.8,875.9,415.6z"/>
<path class="st4" d="M879.8,450.4v-29.3h9.8v29.3c-0.1,0.2-0.2,0.4-0.2,0.7H880C880,450.9,880,450.5,879.8,450.4z"/>
<path class="st4" d="M636.6,351.3c-2.2,0-4.3,0.1-6.5-0.1c-1.7-0.2-2.2,1.1-2.1,4.1c0,30,0,60,0,90.1c0,3,0.5,4.3,2.2,4.1
	c2.2-0.2,4.3-0.1,6.5-0.1l0.2,1c-0.1,0.2-0.2,0.5-0.2,0.8l-9.5-0.1c0.1-0.2,0-0.5-0.1-0.6c0-11.3,0-22.7-0.1-34v-3v-31.1
	c0-1,0-2,0-3v-29.8c3.3,0,6,0,8.8,0.1C636,349.6,636.3,350.7,636.6,351.3z"/>
<path class="st9" d="M830,451.4h-6.2v-6.1c0-20,0-40,0-60c0-2-0.1-4-0.2-6v-25.2l9.6,2.1c-2.2,0-4.5,0.1-6.7,0
	c-1.4-0.1-1.9,0.8-1.9,3.5c0,28.8,0,57.5,0,86.3c0,2.7,0.6,3.5,1.9,3.4c2.2-0.1,4.5,0,6.7,0l-2.2,2L830,451.4z"/>
<path class="st4" d="M847.3,449.4v1.8l-9.5-0.5c0-23.8-0.1-47.6-0.1-71.4v-15.5c3.2,0,6-0.1,8.9,0.1c0.3,0,0.5,1.6,0.8,2.4
	c-0.4-0.2-0.9-0.5-1.3-0.7c-6.2-2.6-7.3-1-7.3,10.5c0,22.8,0.1,45.6,0,68.4c0,4.1,0.6,5.3,2.8,5
	C843.4,449.2,845.4,449.4,847.3,449.4z"/>
<path class="st4" d="M851.8,451l-0.1-71.7v-11.5l3.3-0.6h4.9l1.5,1.2c-2.1,0.3-4.3,0.8-6.4,0.8c-1.6,0-2.2,0.9-2.2,4
	c0,24.1,0,48.3,0,72.4c0,3.1,0.6,4,2.2,4.1c2.1,0,4.3,0.5,6.4,0.8L851.8,451z"/>
<path class="st2" d="M707.2,309.3v-1.1c0-3.1-0.2-6.3,0-9.4c0.1-3.4-0.4-4.9-2.4-4.6c-2.5,0.3-4.9,0.2-7.3,0.2v1h0.4l0.1,0
	c0,0-0.1,0-0.1,0.1h-0.4l-0.2,13.8c0,2.8,0.1,5.6,0.1,8.5l0.1,132.5c-0.1,0.3-0.1,0.6-0.1,1l1.1,0.3h7.6l1-0.3
	c0-0.3,0.1-0.6,0.1-0.9V345.3C707.2,333.3,707.2,321.3,707.2,309.3z M698.1,450.3l-0.2-0.1l0.5,0.1H698.1z M706.5,296.2l-0.5-1h-7.6
	c-0.1,0-0.1,0-0.2,0l0.2-0.1h7.6L706.5,296.2L706.5,296.2z"/>
<path class="st10" d="M697.9,295.4l0.1,0C698,295.3,698,295.4,697.9,295.4l-0.4,0v0H697.9z"/>
<path class="st10" d="M706.5,296.2L706.5,296.2l-0.5-0.9h-7.6c-0.1,0-0.1,0-0.2,0l0.2-0.1h7.6L706.5,296.2z"/>
<path class="st4" d="M641.3,449.6l0.7,1.4l-0.6-0.4l-0.1-0.3l-0.1-0.3L641.3,449.6z"/>
<path class="st4" d="M641.4,450.1l0.1,0.3c-0.1,0.3-0.2,0.4-0.4,0.5l-0.1-0.4l0,0C641.2,450.4,641.3,450.3,641.4,450.1z"/>
<path class="st4" d="M649.6,451.4c0-0.2,0.1-0.4,0.1-0.6l0.2,0.1l0.2-0.2c0,0.2,0,0.5,0.1,0.7L649.6,451.4z"/>
<path class="st4" d="M642.1,307.3l-0.7,0.9L642.1,307.3z"/>
<path class="st4" d="M650.2,450.7l-0.2,0.2l-0.2-0.1c0.1-0.2,0.1-0.5,0.2-0.8L650.2,450.7z"/>
<path class="st4" d="M641,450.6c0-0.4,0-0.8,0-1.2c0.1,0.1,0.2,0.2,0.3,0.2l-0.1,0.4l0.1,0.3C641.3,450.3,641.2,450.4,641,450.6z"/>
<path class="st4" d="M664.8,311.3l-0.2,1l-0.9-1.5L664.8,311.3z"/>
<path class="st4" d="M655.3,312.2c0-0.6,0-1.2,0-1.7l0.8,0.3L655.3,312.2z"/>
<path class="st4" d="M664.7,449.4l0.2,1l-1.1,0.4L664.7,449.4z"/>
<path class="st9" d="M833.3,415.3c0,0.2,0.1,0.5,0.1,0.7c0,0.1-0.1,0.2-0.1,0.3V415.3z"/>
<path class="st11" d="M697.9,295.4l0.1,0C698,295.3,698,295.4,697.9,295.4l-0.4,0v0H697.9z"/>
<path class="st11" d="M706.5,296.2L706.5,296.2l-0.5-0.9h-7.6c-0.1,0-0.1,0-0.2,0l0.2-0.1h7.6L706.5,296.2z"/>
<path class="st12" d="M698.4,295.3l-0.5,0.1C698.1,295.3,698.2,295.3,698.4,295.3z"/>
<path class="st12" d="M706.5,296.2l-0.5-1L706.5,296.2z"/>
<path class="st12" d="M697.9,450.2l0.5,0.1h-0.2L697.9,450.2z"/>
<path class="st12" d="M706,450.3c0.2-0.3,0.3-0.6,0.5-0.9L706,450.3z"/>
<path class="st13" d="M312,447.3c0.1-0.6,0.4-1,0.7-1c0.3-0.1,0.6-0.1,0.9-0.2c24.4,0,48.7,0,73.1,0c0.4,0,0.9,0,1.3,0.1
	c0.5,0.1,0.7,0.4,0.8,1.4c0.1,0.6,0.1,1.3,0.1,1.9c0,0.8-0.3,1.5-0.7,1.6c0,0,0,0-0.1,0c-0.4,0.1-0.9,0.2-1.3,0.2h-13.5l-59.9-0.1
	h-0.5c-0.7,0-0.7,0-0.8-1.4C312.1,449,312,448.2,312,447.3z"/>
<path class="st14" d="M230.9,342.4h-30.6h-6.6h-0.4c-0.9,0-1.1-0.4-1-2.2c0-0.7,0-1.4,0-2.1c0-0.4,0.1-0.8,0.4-0.9c0,0,0.1,0,0.1,0
	H236h31.7c0.3,0,0.6,0,0.9,0.1c0.4,0.1,0.7,0.7,0.6,1.5c0,0.1,0,0.1,0,0.2c0,0.8-0.1,1.7-0.1,2.6c0,0.5-0.1,0.8-0.4,0.8
	c-0.2,0-0.4,0-0.6,0L230.9,342.4L230.9,342.4z"/>
<path class="st14" d="M307.9,320.6h-37c-0.2,0-0.4,0-0.6,0c-0.4-0.1-0.7-0.5-0.7-1.3c0-0.9,0-1.7,0.1-2.6c0.1-0.9,0.2-1.2,0.7-1.2
	c0.3,0,0.7,0,1,0h73.2c0.2,0,0.5,0,0.7,0c0.7,0.1,0.9,0.6,0.9,1.9c0,0.7-0.1,1.5-0.1,2.2c0,0.6-0.3,1-0.5,1
	c-0.3,0.1-0.6,0.1-0.8,0.1L307.9,320.6z"/>
<path class="st15" d="M214.5,450.5c-0.1,0.6-0.4,0.9-0.7,0.8c-0.3,0-0.5,0-0.8,0h-44.8h-28.4c-0.4,0-0.8,0-1.2-0.1
	c-0.4,0-0.8-0.7-0.8-1.6c0-0.1,0-0.1,0-0.2c0-0.6,0-1.2,0.1-1.8c0.1-0.9,0.3-1.3,0.8-1.3c0.5-0.1,0.8-0.1,1.3-0.1h72.7
	c0.3,0,0.7,0,1,0c0.4-0.1,0.9,0.5,0.9,1.4C214.6,448.5,214.5,449.4,214.5,450.5z"/>
<path class="st14" d="M307.4,342.4h-29.5H271h-0.5c-0.8,0-1-0.5-1-1.9c0-0.7,0-1.5,0-2.2c0-0.7,0.1-0.9,0.5-1c0.2,0,0.3,0,0.5,0
	h41.4h31.6c0.3,0,0.6,0,0.9,0.1c0.3,0,0.6,0.6,0.6,1.3c0,0,0,0.1,0,0.1c0,0.9,0,1.9,0,2.8c0,0.4-0.1,0.8-0.3,0.8c0,0-0.1,0-0.1,0
	L307.4,342.4L307.4,342.4z"/>
<path class="st15" d="M217,439.9c-0.1,0.4-0.4,0.7-0.7,0.6c-0.3,0-0.5,0-0.8,0h-50.1c-7.1,0-14.2,0-21.2,0c-0.4,0-0.7,0-1.1-0.1
	c-0.5,0-0.9-0.8-0.9-1.7c0-0.1,0-0.1,0-0.2c0-0.6,0.1-1.2,0.1-1.8c0.1-0.8,0.2-1.2,0.6-1.3c0.4-0.1,0.7-0.1,1.1-0.1h71.5
	c0.4-0.1,0.9,0.1,1.3,0.6c0,0.5,0.1,1,0.1,1.4C217,438.2,217,439,217,439.9z"/>
<path class="st14" d="M232.4,315.4h35.3c0.3,0,0.6,0,0.8,0c0.4,0,0.8,0.6,0.8,1.4c0,0.1,0,0.2,0,0.3c0,0.9-0.1,1.7-0.1,2.6
	c0,0.4-0.2,0.8-0.4,0.8c0,0-0.1,0-0.1,0h-71.8c-1,0-1.1-0.3-1.1-2.1c0-0.6,0-1.3,0-2c0-0.8,0.1-1,0.5-1s0.8,0,1.2,0L232.4,315.4
	L232.4,315.4z"/>
<path class="st14" d="M196.8,413.7c0.2-0.1,0.5-0.2,0.7-0.2c2.7,0,5.5,0,8.2,0h62.2c0.3,0,0.5,0,0.8,0.1c0.3,0,0.6,0.6,0.6,1.3
	c0,0,0,0.1,0,0.1c0,0.9,0,1.9,0,2.8c0,0.4-0.1,0.8-0.4,0.8c0,0-0.1,0-0.1,0H214c-5.2,0-10.5,0.1-15.7,0.1c-0.4,0-0.8-0.1-1.3-0.3
	c0-1,0-2,0.1-2.9C197.1,414.9,197,414.2,196.8,413.7z"/>
<path class="st14" d="M269.1,352.9c-0.3,0-0.6,0.1-0.8,0.1h-77.7c-0.3,0-0.5,0.1-0.8,0.1c-0.4,0.1-0.5-0.1-0.6-0.8
	c0-1.1,0-2.1,0-3.2c0-0.4,0.1-0.8,0.4-0.8c0,0,0.1,0,0.1,0c0.2,0,0.4,0,0.6,0h77.1c0.4,0,0.8-0.1,1.2-0.1s0.5,0.2,0.6,1
	C269.2,350.4,269.1,351.6,269.1,352.9z"/>
<path class="st14" d="M233.4,326h34.4c0.3,0,0.5,0,0.8,0c0.4,0,0.7,0.6,0.7,1.3c0,0.1,0,0.1,0,0.2c0,0.9,0,1.9-0.1,2.8
	c0,0.4-0.2,0.8-0.4,0.8c0,0-0.1,0-0.1,0h-69.3c-0.3,0-0.6,0-0.8,0c-0.4,0-0.7-0.7-0.7-1.5c0,0,0-0.1,0-0.1c0-0.9,0.1-1.7,0.1-2.6
	c0-0.6,0.1-0.9,0.5-0.9L233.4,326L233.4,326z"/>
<path class="st14" d="M199.8,402.3h0.9h33.6h33.1c0.3,0,0.6,0,0.9,0c0.5,0,0.9,0.6,0.9,1.5c0,0.1,0,0.1,0,0.2c0,0.8,0,1.6-0.1,2.4
	c0,0.6-0.3,1-0.6,0.9c-0.3,0-0.6,0-1,0h-67.1c-0.3,0-0.6-0.1-0.9-0.2c0.5-0.2,0.5-0.2,0.5-1.1c0-0.6,0-1.3,0-1.9
	C200.2,403.4,200.1,402.7,199.8,402.3z"/>
<path class="st14" d="M303.6,326h32.9c0.3,0,0.5,0,0.8,0c0.4,0,0.7,0.6,0.7,1.4c0,0.1,0,0.1,0,0.2c0,0.9,0,1.8,0,2.7
	c0,0.4-0.2,0.8-0.4,0.8c0,0,0,0-0.1,0H271c-0.3,0-0.5,0-0.8,0c-0.4,0-0.7-0.6-0.7-1.4c0-0.1,0-0.2,0-0.2c0-0.8,0-1.6,0-2.4
	s0.1-1,0.6-1L303.6,326L303.6,326z"/>
<path class="st14" d="M201,391.9c0.2-0.1,0.4-0.2,0.6-0.3c0.5,0,0.9,0,1.4,0h59.7h5.2c0.2,0,0.4,0,0.6,0c0.4,0,0.7,0.6,0.8,1.4
	c0,0.1,0,0.2,0,0.3c0,0.9-0.1,1.7-0.1,2.6c0,0.6-0.1,0.9-0.5,0.9h-47.4h-18.9c-0.5,0.1-1,0-1.4-0.4c0-0.9,0-1.8,0-2.8
	C201.1,393.1,201.1,392.5,201,391.9z"/>
<path class="st14" d="M302,299.1h-31c-0.2,0-0.5,0-0.7,0c-0.4,0.1-0.7-0.5-0.8-1.2c0-0.1,0-0.2,0-0.3c0-0.9,0-1.7,0-2.6
	c0-0.8,0.1-1,0.5-1c0.4,0,0.8,0,1.2,0h61.3c0.3,0,0.6,0,0.9,0.1c0.4,0.1,0.7,0.7,0.6,1.5c0,0,0,0,0,0c0,0.9-0.1,1.8-0.1,2.7
	c0,0.4-0.1,0.8-0.4,0.9c0,0-0.1,0-0.1,0L302,299.1L302,299.1L302,299.1z"/>
<path class="st15" d="M210.4,429.1c-0.2,0.1-0.5,0.2-0.7,0.2h-42c-6.6,0-13.2,0-19.9,0c-0.3,0-0.7,0-1-0.1c-0.4,0-0.7-0.7-0.7-1.5
	c0,0,0,0,0,0c0-0.9,0-1.8,0.1-2.7c0-0.6,0.3-0.8,0.6-0.8c0.3,0,0.6,0,0.8,0h40.6h18c0.9,0,1.8-0.1,2.8-0.1c0.5-0.1,1,0.1,1.4,0.6
	C210.4,426.2,210.4,427.7,210.4,429.1z"/>
<path class="st14" d="M237.2,299.1h-30.9c-0.3,0-0.5,0-0.8,0c-0.3,0-0.6-0.5-0.6-1.2c0,0,0-0.1,0-0.1c0-1,0-2,0-2.9
	c0-0.4,0.1-0.8,0.3-0.8c0,0,0.1,0,0.1,0h62.4c0.3,0,0.6,0,0.9,0.1c0.4,0.1,0.7,0.7,0.6,1.4c0,0,0,0.1,0,0.1c0,0.9-0.1,1.8-0.1,2.7
	c0,0.4-0.1,0.8-0.4,0.8c0,0,0,0,0,0L237.2,299.1L237.2,299.1z"/>
<path class="st14" d="M333.2,363.6c-0.2,0.1-0.4,0.2-0.6,0.3c-0.2,0-0.5,0-0.7,0h-61c-1.2,0-1.4-0.4-1.3-2.7c0-0.4,0-0.9,0-1.3
	c0-0.9,0.1-1.1,0.6-1.1h56.5c1.8,0,3.7,0,5.5,0c0.4-0.1,0.8,0.2,1,0.7L333.2,363.6z"/>
<path class="st14" d="M332.6,417.7c-0.2,0.6-0.5,1-0.9,0.9c-0.3,0-0.6,0-0.8,0h-46c-4.6,0-9.2,0.1-13.8,0.1c-1.4,0-1.6-0.5-1.5-3.1
	c0-0.1,0-0.2,0-0.2c0.1-1.6,0.2-1.9,1.1-1.9h55.3c1.9,0,3.8,0,5.6,0c0.4-0.1,0.9,0.2,1.1,0.9C332.6,415.5,332.6,416.6,332.6,417.7z"
	/>
<path class="st14" d="M332.4,405.1c0,0.1,0,0.1,0,0.2c-0.1,1.8-0.2,2-1.2,2h-60.8c-0.6-0.1-0.9-0.5-0.9-1.8c0-0.7,0-1.4,0.1-2.1
	c0.1-0.9,0.2-1.2,0.7-1.3c0.3,0,0.5,0,0.8,0h60.2c0.4,0,0.9,0,1.1,1L332.4,405.1z"/>
<path class="st14" d="M338.3,353h-67.2c-0.3,0-0.6,0-0.8,0.1c-0.5,0.1-0.6-0.1-0.7-1.1c-0.1-1.2,0-2.5,0.2-3.7
	c0.1,0,0.2-0.1,0.4-0.1h66.4c0.4,0,0.8,0,1.2,0c0.5,0,0.7,0.1,0.7,1.2C338.4,350.6,338.3,351.7,338.3,353z"/>
<path class="st15" d="M324.3,435.4h0.6l57,0.1c0.6,0,1.1,0,1.7,0s0.7,0.3,0.8,1.4c0,0.6,0.1,1.2,0.1,1.8c0.1,0.9-0.2,1.7-0.7,1.9
	c-0.1,0-0.1,0-0.2,0c-0.2,0-0.4,0-0.6,0h-57.9c-0.3,0-0.6,0-0.9,0c-0.2-0.1-0.4-0.2-0.6-0.4c0-0.8,0-1.7,0-2.5
	C323.5,436.1,323.5,435.9,324.3,435.4z"/>
<path class="st14" d="M269.7,305c0.1,0,0.3-0.1,0.4-0.1h24.5h39.7c0.4,0,0.9,0,1.4-0.1c0.5-0.1,0.6,0.1,0.6,0.9c0,1.2,0,2.4,0,3.8
	c-0.4,0-0.7,0.1-1,0.1h-63.4c-0.6,0-1.1,0.1-1.7,0.1c-0.4,0-0.5-0.1-0.6-0.8C269.5,307.6,269.5,306.2,269.7,305z"/>
<path class="st14" d="M329.9,395.9c-0.2,0.6-0.6,1-0.9,0.9h-50.3h-7.9c-0.2,0-0.3,0-0.5,0c-0.5-0.1-0.7-0.5-0.8-1.4
	c0-0.8,0-1.6,0.1-2.4c0.1-0.9,0.2-1.1,0.7-1.2c0.3-0.1,0.7,0,1,0h41.2c5.4,0,10.8,0,16.2,0c0.3,0,0.6,0.1,0.9,0.3
	c0.1,0.1,0.2,0.5,0.3,0.7c0,0.6,0,1.2,0,1.8l0,1.3L329.9,395.9z"/>
<path class="st14" d="M209.5,358.9h0.9h49.5h7.8h0.5c0.9,0,1.1,0.6,1,2.3c0,0.6,0,1.2,0,1.8c0,0.8-0.1,1-0.5,1.1c-0.2,0-0.4,0-0.6,0
	H210c-0.3,0-0.6-0.1-0.9-0.2c0.2,0,0.5,0,0.5-0.6C209.6,361.8,209.6,360.3,209.5,358.9z"/>
<path class="st14" d="M203.6,304.9h64.1c0.3,0,0.6-0.1,0.8-0.1c0.4,0,0.5,0.2,0.5,0.9c0,1.1,0,2.1,0,3.2c0,0.5-0.2,0.7-0.4,0.7
	h-63.7c-0.3,0-0.7,0.1-1,0.1c-0.3,0-0.6-0.2-0.6-0.8C203.4,307.6,203.4,306.2,203.6,304.9z"/>
<path class="st14" d="M329.9,428.7c-0.1,0.4-0.3,0.7-0.5,0.6H295h-23.6c-0.4,0-0.9,0-1.3,0.1c-0.3,0.1-0.5-0.2-0.6-0.7
	c0-0.1,0-0.1,0-0.2c-0.1-1.3-0.1-2.6,0.1-3.9c0.1-0.1,0.2-0.1,0.3-0.1h25.5c8.9,0,17.7,0,26.6,0c2.4,0,4.8,0,7.2-0.1
	c0.3,0,0.6,0.1,0.6,0.8l0,1.7l-0.1,1.3L329.9,428.7z"/>
<path class="st14" d="M214.5,450.5c0-1,0-2,0-3c0.1-0.6,0.4-1,0.7-0.9c0.4,0,0.8-0.1,1.2-0.1h46.4h4.9c0.3,0,0.5,0,0.8,0.1
	c0.5,0.2,0.6,0.6,0.6,1.6c0,1,0,1.7,0,2.6c0,0.7-0.2,0.9-0.5,1c-0.1,0-0.2,0-0.3,0h-37.7h-14.4c-0.3,0-0.5,0-0.8,0
	C215,451.8,214.6,451.2,214.5,450.5z"/>
<path class="st14" d="M212.1,370.2c0.3,0,0.7-0.1,1-0.1h54.7c0.2,0,0.4,0,0.6,0c0.6,0.1,0.9,0.7,0.8,2c0,0.7,0,1.5-0.1,2.2
	c0,0.7-0.1,0.9-0.5,1h-40.8h-14.7c-0.3,0-0.6-0.1-1-0.1c0.1-1.3,0.2-2.7,0.1-4.1C212.3,370.8,212.2,370.5,212.1,370.2z"/>
<path class="st14" d="M326.4,374.4c-0.1,0.6-0.5,1-0.8,0.9c-0.3,0-0.5,0-0.8,0h-54c-0.2,0-0.4,0-0.6,0c-0.4-0.1-0.6-0.4-0.6-1.2
	c0-0.9,0-1.8,0.1-2.7c0-0.7,0.3-1.2,0.6-1.2c0.3-0.1,0.6-0.1,1-0.1h53.9c0.5,0,1,0,1.3,1L326.4,374.4z"/>
<path class="st14" d="M206.8,381.2c0.4,0,0.8,0,1.3,0h59.5c0.3,0,0.6,0,1,0c0.5,0,0.6,0.1,0.6,0.9c0,1.1,0,2.1,0,3.2
	c0,0.5-0.2,0.8-0.5,0.7c-0.9-0.1-1.7-0.1-2.6-0.1h-51.7c-2,0-4,0-6.1,0c-0.4,0-0.7,0.1-1.1,0.1c-0.1,0-0.3-0.1-0.4-0.1
	C207,384.4,207,382.8,206.8,381.2z"/>
<path class="st14" d="M210.4,429.1c0-1.5,0-2.9,0-4.4c0.3-0.1,0.7-0.2,1-0.2c8.9,0,17.8,0,26.8,0h29.4c0.3,0,0.7,0,1,0
	c0.2-0.1,0.5,0.2,0.5,0.7c0,0,0,0.1,0,0.1c0.1,1.2,0.1,2.4-0.1,3.6c0,0.5-0.3,0.5-0.5,0.5c-0.4,0-0.8,0-1.2,0h-43.7h-11.6
	c-0.4,0-0.7,0.1-1.1,0C210.8,429.4,210.6,429.3,210.4,429.1z"/>
<path class="st14" d="M324.3,435.4c-0.8,0.5-0.8,0.7-0.8,2.3c0,0.8,0,1.7,0,2.5h-0.9h-39.7c-3.9,0-7.9,0.1-11.8,0.1
	c-0.3,0-0.7-0.1-1-0.2c-0.3,0-0.6-0.6-0.6-1.3c0,0,0-0.1,0-0.1c0-0.9,0-1.8,0-2.7c0-0.9,0.1-0.9,0.5-1c0.1,0,0.3,0,0.4,0h52.8
	C323.6,435.1,324,435.2,324.3,435.4z"/>
<path class="st16" d="M199.8,402.3c0.3,0.5,0.4,1.2,0.3,1.9c0,0.6,0,1.3,0,1.9c0,0.9,0,0.9-0.5,1.1c-0.3,0-0.6-0.1-0.8-0.1h-48h-5.7
	c-0.2,0-0.3,0-0.5,0c-0.7-0.1-0.9-0.5-0.9-1.8c0-0.6,0-1.2,0.1-1.8c0.1-0.9,0.2-1.2,0.7-1.3c0.3,0,0.6,0,1,0h50.1
	c1,0,1.9-0.1,2.9-0.1C198.8,402.1,199.3,402.2,199.8,402.3z"/>
<path class="st17" d="M196.8,413.7c0.2,0.5,0.3,1.2,0.3,1.8c-0.1,1-0.1,1.9-0.1,2.9c-0.3,0-0.6,0.2-0.9,0.2H145
	c-1.3,0-1.4-0.2-1.4-2.7c0-2.2,0.1-2.4,1.3-2.4h43.5c2.5,0,4.9,0,7.4,0C196.1,413.5,196.5,413.6,196.8,413.7z"/>
<path class="st14" d="M217,439.9c0-0.8,0-1.7,0-2.5c0-0.5-0.1-1-0.1-1.4c0.2-0.5,0.5-0.8,0.8-0.8c0.3,0,0.5,0,0.8,0h49.5
	c1.2,0,1.4,0.4,1.3,2.7c0,0.4,0,0.8,0,1.2c0,1.1-0.1,1.2-0.6,1.3h-0.3c-12.8,0-25.7,0-38.5,0c-3.8,0-7.5,0.1-11.3,0.1
	C217.9,440.5,217.4,440.3,217,439.9z"/>
<path class="st13" d="M201,391.9c0.1,0.6,0.1,1.2,0.1,1.7c0,0.9,0,1.8,0,2.8c-0.2,0.1-0.4,0.2-0.6,0.3c-0.4,0-0.7,0-1.1,0h-38.8
	h-9.7c-1.3,0-1.4-0.3-1.4-2.7c0-2.4,0.1-2.4,1.3-2.4h44c1.7,0,3.4-0.1,5.1-0.1C200.3,391.6,200.7,391.7,201,391.9z"/>
<path class="st14" d="M324.4,385.4c-0.1,0.4-0.3,0.6-0.5,0.5c-1-0.1-2-0.1-3-0.1h-49.7c-0.3,0-0.6,0-0.8,0.1
	c-0.5,0.1-0.7-0.1-0.7-1.1c0-1,0-2.4,0.1-3.6c0.3,0,0.6-0.1,0.8-0.1h52.4c0.3,0,0.6,0,0.9,0c0.3-0.1,0.5,0.2,0.6,0.7c0,0,0,0,0,0
	L324.4,385.4z"/>
<path class="st14" d="M292.6,282.5h17.9h3.9c0.2,0,0.3,0,0.5,0c0.7,0.1,1,0.6,0.9,2.1c0,0.6,0,1.1-0.1,1.7c-0.1,0.9-0.2,1.3-0.7,1.4
	c-0.3,0-0.6,0-0.9,0h-43c-0.2,0-0.4,0-0.6,0c-0.8-0.1-1-0.6-1-2c0-0.7,0-1.4,0-2.1c0-0.5,0.1-1,0.4-1.1c0,0,0,0,0.1,0
	c0.2-0.1,0.3-0.1,0.5-0.1L292.6,282.5L292.6,282.5z"/>
<path class="st15" d="M330,426.9l0-1.7c0.2-0.6,0.5-1,0.9-1h0.6h44.8c0.2,0,0.5,0,0.7,0c0.3,0,0.6,0.5,0.6,1.1c0,0,0,0,0,0
	c0,0.8,0.1,1.7,0.1,2.6c0,1-0.2,1.4-0.8,1.5c-0.2,0-0.4,0-0.6,0h-6.3l-39.1-0.1c-0.3,0-0.7,0.1-0.8-0.7c0-0.1,0-0.3,0-0.4L330,426.9
	z"/>
<path class="st15" d="M332.6,417.7c0-1.1,0-2.2,0-3.3c0.2-0.6,0.6-0.9,1-0.8c0.5,0,1.1,0.1,1.6,0.1h43.6c1.3,0,1.3,0,1.3,2.4
	c0,0.4,0,0.8,0,1.2c0,0.8-0.3,1.5-0.7,1.6c0,0-0.1,0-0.1,0c-0.2,0-0.4,0-0.6,0h-21.8h-16.7h-6.9
	C332.8,418.8,332.8,418.8,332.6,417.7z"/>
<path class="st18" d="M324.4,385.4v-3.6c0.2-0.7,0.6-1.1,1-1c1.2,0,2.3,0,3.5,0h40.7c1.3,0,1.3,0,1.3,2.3c0,0.6,0,1.2,0,1.8
	c0,0.6-0.3,1-0.6,1c-0.2,0-0.5,0-0.7,0h-44.4C324.9,386,324.5,386.2,324.4,385.4z"/>
<path class="st17" d="M332.4,405.1l0-2c0.2-0.7,0.6-1.1,1-1h45.3c0.2,0,0.4,0,0.6,0c0.6,0,0.7,0.3,0.8,1.4c0,0.7,0,1.4,0,2.1
	c0,1-0.2,1.4-0.7,1.5c-0.2,0.1-0.5,0.1-0.7,0.1h-2.9l-42.6-0.1h-0.7L332.4,405.1z"/>
<path class="st13" d="M206.8,381.2c0.2,1.5,0.2,3.1,0,4.6c-0.5,0-1.1,0.1-1.6,0.1c-2.3,0-4.6-0.1-7-0.1l-31.7,0.1h-4.6
	c-1.1,0-1.3-0.4-1.3-2.4c0-0.6,0-1.2,0.1-1.8c0-0.5,0.2-0.9,0.5-0.9c0,0,0,0,0,0h0.7c11.9,0,23.9,0,35.8,0c2.5,0,5.1-0.1,7.6-0.1
	C205.9,380.6,206.4,380.8,206.8,381.2z"/>
<path class="st14" d="M248,287.7h-20c-0.1,0-0.3,0-0.4,0c-0.9,0-1.2-0.5-1.1-2.3c0-0.6,0.1-1.2,0.1-1.7c0-0.6,0.3-1.1,0.6-1.1
	c0.4-0.1,0.8-0.1,1.2-0.1h39.5c0.3,0,0.6,0,0.8,0.1c0.5,0.2,0.7,0.6,0.6,1.6c0,0.7,0,1.5,0,2.2c0,0.6-0.2,1.2-0.5,1.3c0,0,0,0-0.1,0
	c-0.1,0-0.3,0-0.4,0H248z"/>
<path class="st14" d="M312,447.3c0,0.9,0,1.7,0,2.6c-0.3,1.6-0.4,1.8-1.4,1.8h-21.1h-18.3h-0.5c-1.3,0.1-1.4-0.8-1.3-2.5
	c0-0.4,0-0.8,0-1.2c0-1.1,0.1-1.5,0.7-1.5s1,0,1.5,0c0.9,0,1.7,0,2.6,0c0.3,0,0.6-0.1,0.9-0.1h33.3c0.8,0,1.6,0,2.5,0
	C311.4,446.4,311.8,446.4,312,447.3z"/>
<path class="st17" d="M329.9,395.9v-0.3l0-1.3c0-0.6,0-1.2,0-1.8c0.2-0.7,0.6-1.1,1-1c2.1,0,4.1,0,6.2,0H373c1.2,0,1.2,0.1,1.3,2.2
	c0,0.6,0,1.1,0,1.7c0,0.7-0.3,1.2-0.6,1.2c-0.2,0-0.4,0-0.6,0h-42.2C330.3,396.8,330,396.8,329.9,395.9z"/>
<path class="st18" d="M212.1,370.2c0.1,0.3,0.2,0.6,0.2,0.9c0.1,1.4,0,2.7-0.1,4.1h-9h-29.9c-1.2,0-1.3-0.2-1.3-2.4c0-0.5,0-1,0-1.5
	c0.1-1,0.2-1.2,0.7-1.2c0.2,0,0.3,0,0.5,0h38.1C211.5,370.1,211.8,370.2,212.1,370.2z"/>
<path class="st13" d="M326.4,374.4v-3.3c0.2-0.7,0.6-1.1,1-0.9c1.5,0,3,0,4.4,0c2.9,0,5.8,0.1,8.8,0.1c7.7,0,15.4,0,23.1-0.1
	c0.3,0,0.6,0,1,0.1c0.5,0.1,0.5,0.3,0.6,1.2c0,0.9,0,1.6,0,2.4c0,1.2-0.2,1.6-0.8,1.7c-0.8,0-1.5,0-2.3,0h-0.5l-34.5-0.1
	C326.6,375.3,326.6,375.3,326.4,374.4z"/>
<path class="st18" d="M209.5,358.9c0,1.4,0.1,2.9,0.1,4.3c0,0.5-0.3,0.6-0.5,0.6h-0.8h-28.1c-0.7,0-0.8-0.2-0.8-1.6
	c0-0.8,0-1.6,0-2.4s0.2-1.1,0.6-1.1h28.7C209,358.7,209.3,358.7,209.5,358.9z"/>
<path class="st14" d="M298.9,276.7h-1h-26.7c-0.3,0-0.6,0-0.9,0c-0.5-0.1-0.7-0.5-0.7-1.4c0-0.8,0-1.5,0.1-2.3c0-0.5,0.2-1,0.5-1
	c0,0,0,0,0,0c0.4,0,0.8-0.1,1.2-0.1h16c3.3,0,6.5,0.1,9.8,0.1c0.4,0,0.7,0,1.1-0.1c0.6-0.1,0.8,0.1,0.8,1.3
	C299.1,274.4,299.1,275.6,298.9,276.7z"/>
<path class="st14" d="M256.6,276.7h-11.7c-0.2,0-0.3,0-0.5,0c-0.3,0-0.5-0.5-0.5-1c0,0,0,0,0,0c0-0.8,0-1.6,0-2.4
	c0-0.8,0.2-1.1,0.6-1.2c0.4-0.1,0.8-0.1,1.2-0.1h13.4c2.8,0,5.6,0.1,8.4,0.1c0.3,0,0.6,0,1-0.1c0.5-0.1,0.6,0,0.7,1c0,1,0,2,0,2.9
	c0,0.8-0.1,0.9-0.6,0.9L256.6,276.7L256.6,276.7z"/>
<path class="st14" d="M279.4,266.2h-9.1c-0.6,0-0.8-0.4-0.8-1.5c0-0.8,0-1.6,0.1-2.4c0.1-0.8,0.2-1.1,0.7-1.2c0.2,0,0.4,0,0.6,0
	h17.5c0.1,0,0.3,0,0.4,0c0.4,0.1,0.6,0.3,0.7,1.2c0,1,0,2-0.1,3c0,0.3-0.3,0.7-0.5,0.8c-0.3,0.1-0.5,0.2-0.8,0.1h-8.7V266.2z"/>
<path class="st18" d="M333.2,363.6v-4.1c0-0.5,0.3-0.9,0.6-0.9c0,0,0,0,0.1,0c0.5,0,0.9,0.1,1.4,0.1c5.1,0,10.2,0,15.3,0h0.8
	c0.2,1.5,0.2,3,0.1,4.5c0,0.5-0.3,0.7-0.5,0.7h-1c-5.3,0-10.6,0-15.9,0C333.8,363.9,333.5,363.8,333.2,363.6z"/>
<path class="st14" d="M262.9,266.2h-5c-0.8,0-0.9-0.3-0.9-1.8c0-0.6,0-1.2,0-1.8c0-0.8,0.3-1.4,0.7-1.5c0,0,0,0,0.1,0
	c0.2,0,0.4,0,0.6,0h9.7c1,0,1.2,0.3,1.1,2.2c0,0.5,0,1.1-0.1,1.6c0,0.7-0.3,1.2-0.6,1.3c-0.2,0.1-0.5,0.1-0.7,0.1L262.9,266.2
	L262.9,266.2z"/>
<path class="st14" d="M274.9,254.9h-4.3c-0.8,0-1-0.3-1-1.9c0-0.7,0-1.4,0.1-2.1c0-0.6,0.3-1.1,0.6-1.1c0.4,0,0.8-0.1,1.3-0.1
	c2.7,0,5.4,0,8.1,0c0.1,0,0.3,0,0.4,0c0.3,0,0.5,0.5,0.5,1c0,0.9,0,1.9,0,2.8s-0.2,1.1-0.6,1.2c-0.3,0.1-0.6,0.1-0.9,0.1h-4.1
	L274.9,254.9z"/>
<path class="st14" d="M269.2,251.7c0,0.6-0.1,1.3-0.1,1.9c0,0.6-0.2,1.1-0.6,1.1c-0.7,0.1-1.4,0.2-2.1,0.1c-0.2-0.1-0.3-0.3-0.4-0.6
	c-0.1-1-0.2-2-0.1-3c0-0.9,0.4-1.7,0.9-1.7c0,0,0.1,0,0.1,0c0.6,0,1.2,0,1.9,0.1c0.1,0,0.3,0.4,0.3,0.6
	C269.2,250.8,269.2,251.2,269.2,251.7z"/>
<path class="st14" d="M271.2,239.1c0.3,0,0.6,0,1,0c0.5,0,0.7,0.3,0.7,1.3c0,0.7,0,1.5,0,2.2c0,0.8-0.2,1.2-0.6,1.2
	c-0.6,0.1-1.3,0.1-1.9,0c-0.5,0-0.8-0.6-0.9-1.5c0-0.1,0-0.2,0-0.3c0-0.7,0-1.5,0.1-2.2c0-0.5,0.3-0.7,0.5-0.7
	C270.5,239.1,270.9,239.1,271.2,239.1L271.2,239.1z"/>
<path class="st4" d="M1354.4,307.6"/>
<path class="st4" d="M1294,321.5l34.5-17.3c1.8-1,4-1,5.8,0c11.5,5.8,22.9,11.5,34.4,17.2c0.9,0.3,1.7,1,2.1,1.9v1.1
	c-0.6,0.7-1.3,1.3-2,1.8c-11.2,6.9-22.3,13.7-33.4,20.5c-2.4,1.6-5.5,1.6-7.9,0c-11.2-6.9-22.3-13.7-33.5-20.5"/>
<path class="st4" d="M1361.4,345.3c0,2.1-0.1,4.3,0,6.5c0.1,2.2-0.7,4.4-2.2,6.1c-2.1,2.4-4.6,4.3-7.4,5.6
	c-4.7,2.3-9.9,3.7-15.1,4.2c-7,0.8-14,0-20.6-2.2c-4.2-1.4-8.1-3.4-11.3-6.5c-1.5-1.5-2.7-3.2-3.1-5.4c-0.1-0.4-0.1-0.8-0.1-1.2
	v-13.5c0-0.7-0.1-1.6,0.7-2c0.8-0.4,1.3,0.2,2,0.5c7.3,4.4,14.6,8.9,21.9,13.4c3.6,2.2,7.3,2.2,10.9,0c7.6-4.6,15.1-9.3,22.7-13.9
	c0.2-0.2,0.4-0.3,0.7-0.4c0.5-0.2,0.9-0.1,1.1,0.5c0.1,0.3,0.1,0.6,0.1,1L1361.4,345.3z"/>
<path class="st4" d="M1368.1,345.6v11.3c0,0.5,0.2,1,0.6,1.2c1.9,1.3,2.3,3.8,1.1,5.6c-0.8,1.1-2,1.8-3.4,1.8c-2.2,0-4-1.9-4-4.1
	c0-1.3,0.7-2.6,1.8-3.3c0.5-0.2,0.7-0.7,0.7-1.2v-20.6c-0.1-1,0.4-1.9,1.3-2.4c0.4-0.2,0.9-0.4,1.2-0.7c0.4-0.3,0.7-0.1,0.8,0.4v0.7
	C1368.1,338.1,1368.1,341.9,1368.1,345.6z"/>
<path class="st19" d="M1150.8,379.6"/>
<path class="st4" d="M1210.2,350.2c-1.4,4.2-3.5,8.1-6.4,11.4c-4.1,4.7-9.4,6.6-15.4,6.7c-7.8,0.1-15.7-0.4-23.4-1.5
	c-12.8-1.7-25.5-4.8-37.6-9.3c-3.4-1.2-6.7-2.7-9.9-4.5c-0.5-0.2-0.9-0.5-1.3-0.8c-0.3-0.1-0.4-0.4-0.3-0.6c0.1-0.3,0.4-0.2,0.6-0.2
	c0.8,0,1.6,0,2.4,0.2c8.8,1.9,17.7,3.4,26.8,4.7c8,1.2,15.9,2.2,24,1.9c6.5-0.2,12.6-1.4,18.4-4.7c5.4-3.1,9.1-7.8,11.8-13.3
	c0.8-1.6,1.3-1.9,2.9-1.1c3.6,1.6,6.2,4.7,7.3,8.5c0,0.2,0.1,0.3,0.2,0.4C1210.2,348.8,1210.2,349.5,1210.2,350.2z"/>
<path class="st4" d="M1127.1,350.2c-2.2-0.4-4.5-0.8-6.6-1.4c-3.3-0.8-5-2.9-4.8-6.3c0.6-12,4.2-22.7,13.8-30.8
	c5.1-4.2,11.4-6.9,18-7.7c8.5-1.2,17.2-0.3,25.3,2.8c11.7,4.4,18.5,13,21.7,24.9c1.7,6.4-0.8,11.2-5.1,15.4
	c-2.3,2.1-4.9,3.9-7.8,5.1c-0.7,0.3-1,0.3-1.1-0.5c-0.6-4.4-1.8-8.6-4.2-12.3c-1.4-2.4-3.5-4.4-6-5.7c-0.6-0.3-1.3-0.5-2-0.6
	c-0.3,0-0.6-0.1-0.9,0.2c-0.2,0.3,0.1,0.5,0.2,0.8c2,2.9,3.7,6,5.1,9.2c1.3,2.9,2.2,5.9,2.5,9v0.4c0.1,1.3-0.1,1.4-1.3,1.6
	c-4.1,0.5-8.1,0.6-12.2,0.3c-2.2-0.1-4.6-0.3-6.8-0.4c-0.7,0-1-0.2-1-1c0.1-2.4,0.1-4.6,0.1-6.9c0-1.4-0.4-1.8-1.7-2l-6.1-1
	c-1.3-0.2-1.6,0.1-1.6,1.5c0,2.5-0.1,5-0.1,7.5c0,0.6-0.1,0.8-0.7,0.6c-2.2-0.3-4.6-0.8-6.8-1c-0.6-0.1-0.7-0.3-0.7-0.8
	c0-2.6,0.1-5,0.1-7.6c0-1.5-0.4-1.9-1.8-2.1c-2-0.3-4-0.6-6-1c-1.2-0.2-1.6,0.1-1.6,1.4c0,2.7,0,5.3-0.1,8
	C1127.2,349.9,1127.2,350,1127.1,350.2z"/>
<path d="M1275.8,344.8c-1,0.2-2,0.3-3,0.5c-0.8,0.1-1.5,0.3-2.3,0.3c-1,0.1-2-0.3-2.6-1.1l-9.5-9.4c-1-1-2.1-1.2-3.4-0.6
	c-1.7,0.8-3.4,1.7-5.1,2.6c-0.6,0.3-1.2,0.7-1.9,1c-1.3,0.7-3,0.2-3.6-1.1c-0.7-1.3-0.2-2.9,1.1-3.6c3.7-2.1,7.5-4.2,11.2-6.3
	c2-1.1,2.9-1,4.7,0.4c1.6,1.3,3.2,2.7,4.8,4c0.7,0.6,1.6,0.8,2.4,0.6c2.4-0.5,4.8-1.1,7.2-1.6V344.8L1275.8,344.8z"/>
<path d="M1231.2,346.1l-1.3-0.5l-1.2-0.4v-16.3c1.1,0.4,2.2,0.8,3.3,1.2c0.9,0.3,1.8,0.6,2.7,0.8c1,0.2,2.1,0,3-0.6
	c1.9-1.2,3.8-2.2,5.8-3.1c1.8-0.7,3.5-1,5.3-0.2c0.7,0.3,1.2,0.7,1.7,1.2l-0.5,0.3c-1.9,1.1-3.7,2.1-5.6,3.2
	c-1.5,0.8-2.4,2.5-2.4,4.2c0.1,2.5,2.1,4.5,4.6,4.5c0.7-0.1,1.5-0.3,2.1-0.6c1.5-0.6,3-1.3,4.5-2c1.5-0.7,2.6-0.5,3.8,0.7l8.7,8.7
	c0.9,0.8,0.9,2.1,0.2,2.9c-0.8,0.9-2.1,0.9-2.9,0.2c-0.1,0-0.1-0.1-0.1-0.1c-1-1-2-1.9-3-2.9c-0.2-0.1-0.4-0.2-0.6-0.2
	c0.1,0.2,0.1,0.5,0.2,0.6c0.9,1,1.8,1.9,2.7,2.9c1,1,0.9,2.6-0.2,3.3c-0.9,0.6-2.1,0.5-2.8-0.4c-1.2-1.2-2.3-2.3-3.5-3.4
	c-0.2-0.1-0.3-0.2-0.5-0.3l-0.1,0.1c0.2,0.3,0.4,0.6,0.6,0.8c0.8,0.9,1.7,1.8,2.6,2.7c0.8,0.8,0.9,2.1,0.1,2.9
	c-0.8,0.8-2.1,0.9-2.9,0.1c0,0,0,0,0,0c-1.1-1.1-2.2-2.2-3.3-3.3c-0.1-0.1-0.2-0.2-0.3-0.2c-0.1,0-0.2,0-0.2,0
	c-0.1,0.1-0.1,0.2-0.1,0.3c0.1,0.2,0.3,0.4,0.4,0.6c0.8,0.8,1.5,1.6,2.3,2.4c0.6,0.6,0.8,1.4,0.5,2.2c-0.2,0.8-0.9,1.3-1.7,1.3
	c-0.5,0-1-0.2-1.4-0.4c-0.1,0-0.2-0.2-0.4-0.3c-0.9-0.6-0.9-1.6-1-2.5c-0.2-1.8-1.2-3-2.8-3.7c-0.3-0.1-0.5-0.3-0.5-0.5
	c-0.4-1.3-1.4-2.3-2.6-2.8c-0.2-0.1-0.4-0.3-0.5-0.5c-0.4-1.2-1.4-2.2-2.6-2.7c-0.2-0.1-0.4-0.2-0.4-0.4c-0.8-2.1-2.9-3.3-5.1-3
	c-1.9,0.2-3.6,1.5-4.3,3.3C1231.3,345.9,1231.3,346,1231.2,346.1z"/>
<path d="M1236.3,350.2l-1.1,0.3c-1.7,0.5-2.6-1-2.5-2.1c0.1-1.5,1.3-3.2,2.7-3.6c1.5-0.4,3.5,0.6,3.2,2.8c0,0.1,0,0.2-0.1,0.4
	c0.9-0.1,1.8,0,2.5,0.6c0.7,0.7,0.7,1.6,0.6,2.5c1-0.1,1.9,0,2.6,0.8c0.6,0.7,0.8,1.7,0.4,2.6c0.4-0.1,0.8-0.1,1.1-0.1
	c1.4,0.1,2.4,1.3,2.3,2.7c0,0.2-0.1,0.4-0.1,0.6c-0.5,1.8-3.1,3.1-4.8,2.3c-0.8-0.3-1.2-1.2-1.1-2.1c0.1-0.5,0.3-1,0.5-1.5
	c-0.5,0.1-1,0.2-1.5,0.3c-1,0.2-1.9-0.5-2.1-1.4c-0.1-0.4,0-0.7,0.1-1.1c0.1-0.3,0.2-0.6,0.3-1c-0.4,0.1-0.7,0.2-1,0.3
	c-0.7,0.2-1.4,0.1-2-0.5c-0.5-0.5-0.7-1.4-0.4-2.1C1236.1,350.9,1236.2,350.6,1236.3,350.2z"/>
<line class="st20" x1="1231.8" y1="360.7" x2="1272.6" y2="322.4"/>
<circle class="st20" cx="1251" cy="340.5" r="28.2"/>
<text transform="matrix(1 0 0 1 678.1057 84.9045)" class="st21 st22 st23">The Problems</text>
<text transform="matrix(1 0 0 1 120.4702 504.0597)" class="st21 st22 st24">Demographic gap</text>
<text transform="matrix(1 0 0 1 120.4702 532.4001)" class="st25"><tspan x="0" y="0" class="st21 st26 st24">Missing young population</tspan><tspan x="0" y="21.6" class="st21 st26 st24">Large elderly population</tspan></text>
<text transform="matrix(1 0 0 1 606.9581 532.4001)" class="st25"><tspan x="0" y="0" class="st21 st26 st24">Limited maneuverability</tspan><tspan x="0" y="21.6" class="st21 st26 st24">Robek</tspan></text>
<text transform="matrix(1 0 0 1 1094.9119 532.4001)" class="st25"><tspan x="0" y="0" class="st21 st26 st24">High school programs</tspan><tspan x="0" y="21.6" class="st21 st26 st24">Need for apprentices</tspan></text>
<text transform="matrix(1 0 0 1 606.9582 504.0598)" class="st21 st22 st24">Vulnerable economy</text>
<text transform="matrix(1 0 0 1 1094.9119 504.0597)" class="st21 st22 st24">Education misfit</text>
</svg>
