<svg id="Ebene_1" data-name="Ebene 1" xmlns="http://www.w3.org/2000/svg" viewBox="0 0 1449.35 517.26"><defs><style>.cls-1{font-size:56.69px;}.cls-1,.cls-3{fill:#1d1d1b;font-family:NeueHaasUnicaW06-Regular;}.cls-2{letter-spacing:-0.1em;}.cls-3{font-size:59.53px;}.cls-14,.cls-15,.cls-16,.cls-17,.cls-4,.cls-5,.cls-6{fill:#2b4c9a;font-family:NeueHaasUnicaW06-Black;font-weight:800;}.cls-5{letter-spacing:0em;}.cls-6{letter-spacing:0.01em;}.cls-7{letter-spacing:-0.01em;}.cls-8{letter-spacing:0em;}.cls-9{letter-spacing:-0.01em;}.cls-10{letter-spacing:-0.01em;}.cls-11{letter-spacing:-0.02em;}.cls-12{letter-spacing:0.01em;}.cls-13{letter-spacing:-0.02em;}.cls-14{letter-spacing:-0.01em;}.cls-15{letter-spacing:-0.01em;}.cls-16{letter-spacing:0em;}.cls-17{letter-spacing:0em;}</style></defs><title>Tasks</title><text class="cls-1" transform="translate(596.95 48.53)">The <tspan class="cls-2" x="110.83" y="0">T</tspan><tspan x="139.12" y="0">ask</tspan></text><text class="cls-3" transform="translate(63.72 362.73)">Find <tspan class="cls-4" x="130.9" y="0">p</tspan><tspan class="cls-5" x="167.92" y="0">r</tspan><tspan class="cls-4" x="193.7" y="0">oj</tspan><tspan class="cls-6" x="248.34" y="0">e</tspan><tspan class="cls-4" x="284.3" y="0">cts</tspan><tspan x="376.33" y="0" xml:space="preserve"> th</tspan><tspan class="cls-7" x="443.35" y="0">a</tspan><tspan x="474.37" y="0">t can d</tspan><tspan class="cls-8" x="652.77" y="0">ev</tspan><tspan x="713.13" y="0">elop </tspan><tspan class="cls-9" x="842" y="0">F</tspan><tspan class="cls-10" x="875.75" y="0">a</tspan><tspan x="906.59" y="0">us</tspan><tspan class="cls-11" x="970.28" y="0">k</tspan><tspan x="998.62" y="0">e as a ci</tspan><tspan class="cls-12" x="1211.37" y="0">t</tspan><tspan x="1231.31" y="0">y in </tspan><tspan class="cls-13" x="26.78" y="71.43">t</tspan><tspan x="44.88" y="71.43">erms of </tspan><tspan class="cls-4" x="259.12" y="71.43">i</tspan><tspan class="cls-14" x="276.97" y="71.43">n</tspan><tspan class="cls-4" x="313.17" y="71.43">f</tspan><tspan class="cls-15" x="335.79" y="71.43">r</tspan><tspan class="cls-4" x="361.03" y="71.43">astructu</tspan><tspan class="cls-5" x="610.38" y="71.43">r</tspan><tspan class="cls-16" x="636.16" y="71.43">e</tspan><tspan x="671.52" y="71.43">, </tspan><tspan class="cls-4" x="698.66" y="71.43">cultu</tspan><tspan class="cls-17" x="848.61" y="71.43">r</tspan><tspan class="cls-4" x="874.39" y="71.43">e</tspan><tspan x="909.75" y="71.43" xml:space="preserve"> and </tspan><tspan class="cls-4" x="1037.31" y="71.43">industry</tspan><tspan x="1281.67" y="71.43">.</tspan></text></svg>