<?xml version="1.0" standalone="no"?>
<!DOCTYPE svg PUBLIC "-//W3C//DTD SVG 1.1//EN" "http://www.w3.org/Graphics/SVG/1.1/DTD/svg11.dtd" >
<svg>
<metadata>
Created by FontForge 20120731 at Tue Jun 27 17:08:19 2017
 By www
Copyright (c) 2015 Monotype Imaging Inc.  All rights reserved.
</metadata>
<defs>
<font id="NeueHaasUnicaW06-ExtraBlack" horiz-adv-x="624" >
  <font-face 
    font-family="NeueHaasUnicaW06-ExtraBlack"
    font-weight="1000"
    font-stretch="normal"
    units-per-em="1000"
    panose-1="2 11 11 4 3 2 6 2 2 3"
    ascent="800"
    descent="-200"
    x-height="508"
    cap-height="712"
    bbox="-500 -340 1333 1166"
    underline-thickness="50"
    underline-position="-75"
    unicode-range="U+0020-FEFF"
  />
<missing-glyph horiz-adv-x="660" 
d="M612.5 739.5q37.5 -37.5 37.5 -102.5v-562q0 -64 -37.5 -102t-102.5 -38h-360q-64 0 -102 38t-38 102v562q0 65 38 102.5t102 37.5h360q65 0 102.5 -37.5zM106 681q-16 -16 -16 -44v-562q0 -28 16 -44t44 -16h360q28 0 44 16t16 44v562q0 28 -16 44t-44 16h-360
q-28 0 -44 -16zM470.5 606q51.5 -41 51.5 -114q0 -40 -14.5 -68.5t-52.5 -64.5q-39 -37 -52.5 -61.5t-13.5 -59.5h-127q-3 24 -3 51q0 38 10.5 61.5t45.5 59.5q29 29 38 45t9 36q0 18 -9.5 28.5t-24.5 10.5q-20 0 -32 -18t-11 -54h-155q0 91 52 140t146 49q91 0 142.5 -41z
M250 65v133h152v-133h-152z" />
    <glyph glyph-name="f_f.liga" unicode="ff" horiz-adv-x="765" 
d="M682.5 554.5q-17.5 -14.5 -18.5 -46.5h90v-154h-90v-354h-218v354h-147v-354h-218v354h-75v154h75v20q0 97 55 146t160 49q51 0 99 -11v-145q-8 2 -24 2q-36 0 -53.5 -14.5t-18.5 -46.5h147v20q0 97 55 146t160 49q51 0 99 -11v-145q-8 2 -24 2q-36 0 -53.5 -14.5z" />
    <glyph glyph-name="f_f_i.liga" unicode="ffi" horiz-adv-x="1077" 
d="M501 674q55 49 160 49q51 0 99 -11v-145q-8 2 -24 2q-36 0 -53.5 -14.5t-18.5 -46.5h90v-154h-90v-354h-218v354h-147v-354h-218v354h-75v154h75v20q0 97 55 146t160 49q51 0 99 -11v-145q-8 2 -24 2q-36 0 -53.5 -14.5t-18.5 -46.5h147v20q0 97 55 146zM1030 560h-218
v152h218v-152zM1030 508v-508h-218v508h218z" />
    <glyph glyph-name="f_f_l.liga" unicode="ffl" horiz-adv-x="1077" 
d="M682.5 554.5q-17.5 -14.5 -18.5 -46.5h90v-154h-90v-354h-218v354h-147v-354h-218v354h-75v154h75v20q0 97 55 146t160 49q51 0 99 -11v-145q-8 2 -24 2q-36 0 -53.5 -14.5t-18.5 -46.5h147v20q0 97 55 146t160 49q51 0 99 -11v-145q-8 2 -24 2q-36 0 -53.5 -14.5zM812 0
v712h218v-712h-218z" />
    <glyph glyph-name="f_i.liga" unicode="fi" horiz-adv-x="712" 
d="M136 674q55 49 160 49q51 0 99 -11v-145q-8 2 -24 2q-36 0 -53.5 -14.5t-18.5 -46.5h90v-154h-90v-354h-218v354h-75v154h75v20q0 97 55 146zM665 560h-218v152h218v-152zM665 508v-508h-218v508h218z" />
    <glyph glyph-name="f_l.liga" unicode="fl" horiz-adv-x="712" 
d="M317.5 554.5q-17.5 -14.5 -18.5 -46.5h90v-154h-90v-354h-218v354h-75v154h75v20q0 97 55 146t160 49q51 0 99 -11v-145q-8 2 -24 2q-36 0 -53.5 -14.5zM447 0v712h218v-712h-218z" />
    <glyph glyph-name=".notdef" horiz-adv-x="660" 
d="M612.5 739.5q37.5 -37.5 37.5 -102.5v-562q0 -64 -37.5 -102t-102.5 -38h-360q-64 0 -102 38t-38 102v562q0 65 38 102.5t102 37.5h360q65 0 102.5 -37.5zM106 681q-16 -16 -16 -44v-562q0 -28 16 -44t44 -16h360q28 0 44 16t16 44v562q0 28 -16 44t-44 16h-360
q-28 0 -44 -16zM470.5 606q51.5 -41 51.5 -114q0 -40 -14.5 -68.5t-52.5 -64.5q-39 -37 -52.5 -61.5t-13.5 -59.5h-127q-3 24 -3 51q0 38 10.5 61.5t45.5 59.5q29 29 38 45t9 36q0 18 -9.5 28.5t-24.5 10.5q-20 0 -32 -18t-11 -54h-155q0 91 52 140t146 49q91 0 142.5 -41z
M250 65v133h152v-133h-152z" />
    <glyph glyph-name="glyph1" horiz-adv-x="600" 
 />
    <glyph glyph-name="glyph1" horiz-adv-x="600" 
 />
    <glyph glyph-name="nonmarkingreturn" horiz-adv-x="333" 
 />
    <glyph glyph-name="space" unicode=" " horiz-adv-x="230" 
 />
    <glyph glyph-name="exclam" unicode="!" horiz-adv-x="389" 
d="M102 235l-30 477h245l-29 -477h-186zM84 0v176h222v-176h-222z" />
    <glyph glyph-name="quotedbl" unicode="&#x22;" horiz-adv-x="518" 
d="M61 418l-25 294h209l-26 -294h-158zM298 418l-25 294h209l-26 -294h-158z" />
    <glyph glyph-name="numbersign" unicode="#" horiz-adv-x="742" 
d="M575 288h93l-24 -144h-92l-23 -144h-164l23 144h-96l-23 -144h-164l23 144h-94l23 144h94l15 99h-93l23 144h93l23 143h164l-23 -143h96l23 143h164l-23 -143h94l-24 -144h-93zM331 387l-16 -99h96l16 99h-96z" />
    <glyph glyph-name="dollar" unicode="$" horiz-adv-x="684" 
d="M581 57q-61 -56 -173 -69v-87h-141v88q-109 15 -168 74t-59 153h235q0 -33 18 -48.5t57 -15.5q32 0 48.5 11t16.5 30q0 16 -10.5 25.5t-31.5 17t-70 20.5q-81 22 -131.5 44.5t-83.5 63.5t-33 108q0 86 54.5 141t157.5 71v80h141v-77q106 -11 164.5 -66.5t58.5 -150.5
h-227q0 30 -17 45t-50 15q-30 0 -46 -11t-16 -31q0 -15 10 -24.5t31.5 -16.5t68.5 -18q81 -19 135 -42.5t88 -66.5t34 -114q0 -93 -61 -149z" />
    <glyph glyph-name="percent" unicode="%" horiz-adv-x="980" 
d="M243 -30l358 734h136l-358 -734h-136zM375.5 641.5q49.5 -56.5 49.5 -159.5t-49.5 -159.5t-140.5 -56.5t-140.5 56.5t-49.5 159.5t49.5 159.5t140.5 56.5t140.5 -56.5zM192 482q0 -107 43 -107t43 107t-43 107t-43 -107zM885.5 351.5q49.5 -56.5 49.5 -159.5
t-49.5 -159.5t-140.5 -56.5t-140.5 56.5t-49.5 159.5t49.5 159.5t140.5 56.5t140.5 -56.5zM702 192q0 -107 43 -107t43 107t-43 107t-43 -107z" />
    <glyph glyph-name="ampersand" unicode="&#x26;" horiz-adv-x="809" 
d="M527 44q-88 -60 -205 -60q-138 0 -213 57.5t-75 155.5q0 62 33 110.5t102 86.5q-41 41 -57 74.5t-16 75.5q0 54 29.5 96t82 65t119.5 23q71 0 124.5 -21.5t83 -60.5t29.5 -90q0 -57 -33 -102.5t-96 -78.5l82 -78q10 24 10 74h203q0 -62 -17 -112.5t-53 -97.5l169 -161
h-256zM295.5 580q-12.5 -13 -12.5 -33t8 -37.5t29 -40.5q27 22 39 41t12 39q0 19 -12.5 31.5t-31.5 12.5t-31.5 -13zM410 157l-123 119q-19 -15 -27.5 -33t-8.5 -42q0 -32 23.5 -52t61.5 -20q46 0 74 28z" />
    <glyph glyph-name="quotesingle" unicode="'" horiz-adv-x="281" 
d="M61 418l-25 294h209l-26 -294h-158z" />
    <glyph glyph-name="parenleft" unicode="(" horiz-adv-x="391" 
d="M285 514q-23 -106 -23 -217q0 -110 23 -215.5t76 -228.5h-172q-80 111 -115 217.5t-35 226.5t35 227t115 217h172q-53 -121 -76 -227z" />
    <glyph glyph-name="parenright" unicode=")" horiz-adv-x="391" 
d="M317 524q35 -107 35 -227t-35 -226.5t-115 -217.5h-172q53 123 76 228.5t23 215.5q0 111 -23 217t-76 227h172q80 -110 115 -217z" />
    <glyph glyph-name="asterisk" unicode="*" horiz-adv-x="492" 
d="M424 642l50 -155l-152 -12l116 -101l-133 -96l-59 141l-58 -141l-133 96l116 101l-153 12l51 155l130 -79l-35 149h165l-36 -149z" />
    <glyph glyph-name="plus" unicode="+" horiz-adv-x="566" 
d="M516 402v-169h-145v-149h-176v149h-145v169h145v149h176v-149h145z" />
    <glyph glyph-name="comma" unicode="," horiz-adv-x="307" 
d="M141 -191h-127l98 191h-70v217h223v-217z" />
    <glyph glyph-name="hyphen" unicode="-" horiz-adv-x="370" 
d="M30 219v146h310v-146h-310z" />
    <glyph glyph-name="period" unicode="." horiz-adv-x="306" 
d="M42 0v217h222v-217h-222z" />
    <glyph glyph-name="slash" unicode="/" horiz-adv-x="534" 
d="M30 -89l297 834h156l-297 -834h-156z" />
    <glyph glyph-name="zero" unicode="0" horiz-adv-x="668" 
d="M562 598q80 -92 80 -261t-80 -261t-228 -92t-228 92t-80 261t80 261t228 92t228 -92zM271.5 480.5q-21.5 -50.5 -21.5 -143.5t21.5 -143.5t62.5 -50.5t62.5 50.5t21.5 143.5t-21.5 143.5t-62.5 50.5t-62.5 -50.5z" />
    <glyph glyph-name="one" unicode="1" horiz-adv-x="668" 
d="M256 0v391h-164v162q91 0 135 28.5t54 92.5h201v-674h-226z" />
    <glyph glyph-name="two" unicode="2" horiz-adv-x="668" 
d="M481 661.5q64 -28.5 98 -77.5t34 -109q0 -80 -47.5 -128.5t-137.5 -82.5q-55 -21 -83 -35.5t-38.5 -26.5t-13.5 -27h339v-175h-597q-2 24 -2 48q0 114 43.5 185t150.5 123q63 31 91.5 46.5t48 35t19.5 43.5q0 23 -14 36t-39 13q-31 0 -49.5 -22t-18.5 -64h-223
q-1 118 75 182t214 64q86 0 150 -28.5z" />
    <glyph glyph-name="three" unicode="3" horiz-adv-x="668" 
d="M479 666.5q64 -23.5 98.5 -67t34.5 -101.5q0 -54 -27 -89t-88 -57v-2q65 -21 94.5 -58t29.5 -96q0 -64 -36 -112t-101.5 -74t-153.5 -26q-150 0 -229.5 63.5t-79.5 184.5h228q0 -44 20.5 -66t59.5 -22q32 0 50 15t18 41q0 32 -22.5 47.5t-70.5 15.5h-16v154h24
q37 0 58.5 16t21.5 42t-16.5 40.5t-47.5 14.5q-38 0 -58 -22t-20 -61h-218q0 114 78 178.5t217 64.5q88 0 152 -23.5z" />
    <glyph glyph-name="four" unicode="4" horiz-adv-x="668" 
d="M533 119v-119h-216v119h-309v168l244 387h281v-394h122v-161h-122zM327 280v61q0 97 7 181h-2q-35 -74 -83 -149l-59 -93h137z" />
    <glyph glyph-name="five" unicode="5" horiz-adv-x="668" 
d="M271 498l-8 -90h2q61 47 138 47q66 0 117.5 -28t80 -78t28.5 -114q0 -76 -37 -132.5t-104.5 -87.5t-156.5 -31q-134 0 -212.5 58t-78.5 162h226q0 -30 18.5 -47.5t50.5 -17.5q35 0 54 21.5t19 62.5q0 40 -19.5 61t-51.5 21q-28 0 -45 -15.5t-24 -40.5l-216 14l37 411h493
v-176h-311z" />
    <glyph glyph-name="six" unicode="6" horiz-adv-x="668" 
d="M542 633.5q73 -56.5 81 -159.5h-223q-3 31 -18.5 47.5t-41.5 16.5q-36 0 -57.5 -37.5t-24.5 -114.5h2q56 55 150 55q63 0 113.5 -27.5t79 -76.5t28.5 -111q0 -70 -36 -125t-101 -86t-148 -31q-145 0 -225.5 88t-80.5 255q0 111 37.5 193t107.5 126t165 44
q119 0 192 -56.5zM299 274q-18 -21 -18 -55t19 -55.5t48 -21.5q28 0 46.5 21.5t18.5 53.5q0 35 -18.5 56.5t-48.5 21.5q-29 0 -47 -21z" />
    <glyph glyph-name="seven" unicode="7" horiz-adv-x="668" 
d="M484.5 273.5q-53.5 -132.5 -81.5 -273.5h-239q31 138 91.5 269t135.5 223h-347v182h568v-168q-74 -100 -127.5 -232.5z" />
    <glyph glyph-name="eight" unicode="8" horiz-adv-x="668" 
d="M480 666q63 -24 97 -67.5t34 -100.5q0 -55 -33 -94.5t-92 -52.5v-2q63 -12 102.5 -56.5t39.5 -106.5q0 -96 -77 -149t-217 -53t-217 53t-77 149q0 62 39.5 106.5t102.5 56.5v2q-59 13 -92 52.5t-33 94.5q0 57 34 100.5t97 67.5t146 24t146 -24zM283 521q-19 -17 -19 -46
q0 -26 19 -42.5t51 -16.5t51 16.5t19 42.5q0 29 -19 46t-51 17t-51 -17zM281 250q-19 -17 -19 -47q0 -29 19.5 -47t52.5 -18t52.5 18t19.5 47q0 30 -19 47t-53 17t-53 -17z" />
    <glyph glyph-name="nine" unicode="9" horiz-adv-x="668" 
d="M136 41.5q-73 56.5 -81 159.5h223q3 -31 18.5 -47.5t41.5 -16.5q36 0 57.5 37.5t24.5 114.5h-2q-56 -55 -150 -55q-63 0 -113.5 27.5t-79 76.5t-28.5 111q0 70 36 125t101 86t148 31q145 0 225.5 -88t80.5 -255q0 -111 -37.5 -193t-107.5 -126t-165 -44q-119 0 -192 56.5
zM379 401q18 21 18 55t-19 55.5t-48 21.5q-28 0 -46.5 -21.5t-18.5 -53.5q0 -35 18.5 -56.5t48.5 -21.5q29 0 47 21z" />
    <glyph glyph-name="colon" unicode=":" horiz-adv-x="306" 
d="M42 0v217h222v-217h-222zM42 291v217h222v-217h-222z" />
    <glyph glyph-name="semicolon" unicode=";" horiz-adv-x="307" 
d="M141 -191h-127l98 191h-70v217h223v-217zM42 291v217h222v-217h-222z" />
    <glyph glyph-name="less" unicode="&#x3c;" horiz-adv-x="566" 
d="M251 318v-2l265 -94v-176l-466 166v210l466 166v-176z" />
    <glyph glyph-name="equal" unicode="=" horiz-adv-x="566" 
d="M50 354v155h466v-155h-466zM50 124v155h466v-155h-466z" />
    <glyph glyph-name="greater" unicode="&#x3e;" horiz-adv-x="566" 
d="M516 212l-466 -166v176l265 94v2l-265 94v176l466 -166v-210z" />
    <glyph glyph-name="question" unicode="?" horiz-adv-x="615" 
d="M510.5 676q73.5 -52 73.5 -144q0 -50 -20.5 -86t-75.5 -79q-55 -45 -74 -74.5t-19 -69.5h-183q-4 28 -4 66q0 31 6.5 52.5t23.5 43t53 53.5q39 35 51 52.5t12 40.5q0 22 -13 35t-34 13q-63 0 -60 -93h-224q0 118 74.5 180t209.5 62q130 0 203.5 -52zM193 0v176h222v-176
h-222z" />
    <glyph glyph-name="at" unicode="@" horiz-adv-x="865" 
d="M655.5 668q90.5 -48 140 -135.5t49.5 -202.5q0 -87 -30 -147.5t-80 -90t-110 -29.5q-55 0 -90 19.5t-47 56.5h-2q-42 -76 -124 -76q-73 0 -114 51.5t-42 148.5q1 75 26.5 133t70.5 90t102 32q68 0 96 -56h2l9 46h148q-17 -81 -29 -161.5t-12 -119.5q0 -24 8.5 -34.5
t25.5 -10.5q36 0 60.5 38t24.5 110q0 83 -36 146.5t-102 98t-154 34.5q-101 0 -173.5 -43t-109.5 -118t-37 -169q0 -93 37.5 -161t106 -104t161.5 -36q128 0 215 50l48 -95q-110 -62 -263 -62q-125 0 -218 49t-143.5 141t-50.5 218q0 120 52 220t148.5 158.5t226.5 58.5
q119 0 209.5 -48zM386 353q-19 -28 -19 -83q0 -34 11.5 -52.5t32.5 -18.5q28 0 47 31.5t19 83.5q0 32 -11.5 49.5t-31.5 17.5q-29 0 -48 -28z" />
    <glyph glyph-name="A" unicode="A" horiz-adv-x="748" 
d="M263 105l-28 -105h-239l235 712h286l235 -712h-239l-28 105h-222zM427 328q-27 101 -52 221h-2q-25 -120 -52 -221l-13 -50h132z" />
    <glyph glyph-name="B" unicode="B" horiz-adv-x="691" 
d="M581 662.5q65 -49.5 65 -134.5q0 -62 -27.5 -100t-87.5 -57v-2q64 -15 99 -58.5t35 -107.5q0 -94 -72.5 -148.5t-200.5 -54.5h-329v712h324q129 0 194 -49.5zM279 435h63q43 0 63.5 14.5t20.5 43.5t-19.5 43.5t-59.5 14.5h-68v-116zM279 162h66q46 0 65.5 14t19.5 46
t-21 47t-67 15h-63v-122z" />
    <glyph glyph-name="C" unicode="C" horiz-adv-x="744" 
d="M618 652q91 -76 97 -214h-241q-5 49 -30 74.5t-69 25.5q-50 0 -79.5 -48.5t-29.5 -133.5q0 -84 30 -133t80 -49q42 0 69 28.5t31 78.5h243q-11 -143 -102.5 -220t-240.5 -77q-108 0 -186.5 45t-120 128.5t-41.5 198.5t42 199t120 128.5t185 44.5q152 0 243 -76z" />
    <glyph glyph-name="D" unicode="D" horiz-adv-x="759" 
d="M631 619.5q100 -92.5 100 -263.5t-100 -263.5t-284 -92.5h-284v712h284q184 0 284 -92.5zM289 189h50q73 0 114 44t41 123t-41 123t-114 44h-50v-334z" />
    <glyph glyph-name="E" unicode="E" horiz-adv-x="636" 
d="M289 528v-81h279v-179h-279v-84h305v-184h-531v712h526v-184h-300z" />
    <glyph glyph-name="F" unicode="F" horiz-adv-x="604" 
d="M289 520v-104h277v-190h-277v-226h-226v712h521v-192h-295z" />
    <glyph glyph-name="G" unicode="G" horiz-adv-x="765" 
d="M553 696.5q72 -31.5 114 -89t46 -132.5h-240q-5 36 -27 56.5t-59 20.5q-56 0 -88.5 -53.5t-32.5 -145.5q0 -94 33 -148.5t91 -54.5q47 0 77 30t33 77h-121v160h332v-417h-195v63h-2q-63 -78 -180 -78q-94 0 -163 44.5t-106 127.5t-37 196q0 116 43.5 200.5t124.5 129.5
t192 45q93 0 165 -31.5z" />
    <glyph glyph-name="H" unicode="H" horiz-adv-x="782" 
d="M493 0v270h-204v-270h-226v712h226v-253h204v253h226v-712h-226z" />
    <glyph glyph-name="I" unicode="I" horiz-adv-x="352" 
d="M63 0v712h226v-712h-226z" />
    <glyph glyph-name="J" unicode="J" horiz-adv-x="446" 
d="M322 56.5q-66 -67.5 -203 -67.5q-53 0 -104 12v182q22 -4 42 -4q41 0 63.5 13.5t32 44t9.5 85.5v390h226v-444q0 -144 -66 -211.5z" />
    <glyph glyph-name="K" unicode="K" horiz-adv-x="743" 
d="M740 0h-281l-168 311h-2v-311h-226v712h226v-294h2l162 294h276l-235 -335z" />
    <glyph glyph-name="L" unicode="L" horiz-adv-x="591" 
d="M584 189v-189h-521v712h226v-523h295z" />
    <glyph glyph-name="M" unicode="M" horiz-adv-x="1071" 
d="M800 0v335q0 130 6 257h-2q-21 -119 -52 -255l-77 -337h-279l-77 337q-31 136 -52 255h-2q6 -127 6 -257v-335h-208v712h359l67 -295q29 -124 46 -262h2q14 118 45 262l68 295h358v-712h-208z" />
    <glyph glyph-name="N" unicode="N" horiz-adv-x="852" 
d="M458 0l-97 265q-49 132 -88 267h-2q8 -125 8 -282v-250h-216v712h331l97 -265q49 -132 88 -267h2q-8 125 -8 282v250h216v-712h-331z" />
    <glyph glyph-name="O" unicode="O" horiz-adv-x="776" 
d="M577.5 682q81.5 -46 126 -130t44.5 -196t-44.5 -196t-126 -130t-189.5 -46t-189.5 46t-126 130t-44.5 196t44.5 196t126 130t189.5 46t189.5 -46zM297.5 491.5q-30.5 -46.5 -30.5 -135.5t30.5 -135.5t90.5 -46.5t90.5 46.5t30.5 135.5t-30.5 135.5t-90.5 46.5
t-90.5 -46.5z" />
    <glyph glyph-name="P" unicode="P" horiz-adv-x="691" 
d="M599.5 646q73.5 -66 73.5 -184t-73.5 -184t-219.5 -66h-91v-212h-226v712h317q146 0 219.5 -66zM289 386h59q92 0 92 76t-92 76h-59v-152z" />
    <glyph glyph-name="Q" unicode="Q" horiz-adv-x="776" 
d="M725 210q-23 -66 -66 -115l73 -82l-111 -99l-86 96q-67 -26 -148 -26q-108 0 -189 46t-125.5 130t-44.5 196q0 111 44.5 195.5t126 130.5t188.5 46q108 0 190 -46t126.5 -130t44.5 -196q0 -80 -23 -146zM403 158l-69 78l110 98l67 -75q10 37 10 90q0 92 -32.5 140.5
t-94.5 48.5t-94.5 -48.5t-32.5 -140.5q0 -93 32.5 -142t94.5 -49h9z" />
    <glyph glyph-name="R" unicode="R" horiz-adv-x="724" 
d="M608.5 659.5q64.5 -52.5 64.5 -153.5q0 -65 -35 -109t-99 -65v-2q39 -14 63.5 -47.5t51.5 -105.5l64 -177h-238l-48 145q-18 50 -41.5 70t-67.5 20h-34v-235h-226v712h344q137 0 201.5 -52.5zM289 394h76q90 0 90 79q0 74 -94 74h-72v-153z" />
    <glyph glyph-name="S" unicode="S" horiz-adv-x="676" 
d="M560 669q79 -59 79 -172h-241q0 31 -18 47t-52 16q-31 0 -47.5 -11.5t-16.5 -32.5q0 -16 10.5 -26t33.5 -17.5t72 -19.5q87 -21 143 -45.5t91.5 -70.5t35.5 -120q0 -110 -83 -171.5t-233 -61.5t-233.5 64.5t-83.5 180.5h248q0 -36 18.5 -53t59.5 -17q32 0 49.5 12
t17.5 33q0 18 -10.5 28.5t-32.5 18t-71 20.5q-88 24 -141 47t-87.5 66.5t-34.5 114.5q0 107 80.5 168t228.5 61q139 0 218 -59z" />
    <glyph glyph-name="T" unicode="T" horiz-adv-x="650" 
d="M438 523v-523h-226v523h-205v189h636v-189h-205z" />
    <glyph glyph-name="U" unicode="U" horiz-adv-x="738" 
d="M599.5 63q-81.5 -79 -230.5 -79t-230.5 79t-81.5 222v427h226v-425q0 -52 22 -79.5t64 -27.5t64 27.5t22 79.5v425h226v-427q0 -143 -81.5 -222z" />
    <glyph glyph-name="V" unicode="V" horiz-adv-x="712" 
d="M201 0l-200 712h242l62 -271q33 -140 50 -258h2q17 118 50 258l62 271h242l-200 -712h-310z" />
    <glyph glyph-name="W" unicode="W" horiz-adv-x="1060" 
d="M612 0l-48 290q-24 153 -33 250h-2q-9 -97 -33 -250l-48 -290h-309l-134 712h218l40 -252q20 -131 36 -278h2q15 142 39 278l44 252h292l44 -252q24 -136 39 -278h2q16 147 36 278l40 252h218l-134 -712h-309z" />
    <glyph glyph-name="X" unicode="X" horiz-adv-x="748" 
d="M749 0h-268l-106 233h-2l-106 -233h-268l218 372l-202 340h261l97 -221h2l97 221h261l-202 -340z" />
    <glyph glyph-name="Y" unicode="Y" horiz-adv-x="714" 
d="M470 0h-226v252l-245 460h247l50 -120q39 -94 60 -174h2q21 80 60 174l50 120h247l-245 -460v-252z" />
    <glyph glyph-name="Z" unicode="Z" horiz-adv-x="616" 
d="M292 186v-2h301v-184h-573v193l286 333v2h-273v184h544v-193z" />
    <glyph glyph-name="bracketleft" unicode="[" horiz-adv-x="417" 
d="M259 588v-594h127v-150h-331v897h332v-153h-128z" />
    <glyph glyph-name="backslash" unicode="\" horiz-adv-x="534" 
d="M504 -89h-156l-297 834h156z" />
    <glyph glyph-name="bracketright" unicode="]" horiz-adv-x="417" 
d="M362 -156h-331v150h127v594h-128v153h332v-897z" />
    <glyph glyph-name="asciicircum" unicode="^" horiz-adv-x="567" 
d="M364 371l-79 172h-2l-79 -172h-200l166 341h227l166 -341h-199z" />
    <glyph glyph-name="underscore" unicode="_" horiz-adv-x="500" 
d="M0 -170v120h500v-120h-500z" />
    <glyph glyph-name="grave" unicode="`" horiz-adv-x="407" 
d="M357 560h-164l-143 152h226z" />
    <glyph glyph-name="a" unicode="a" horiz-adv-x="590" 
d="M485 468.5q63 -55.5 63 -160.5v-156q0 -98 17 -152h-197q-8 27 -8 62h-2q-62 -77 -165 -77q-83 0 -131 45.5t-48 115.5q0 71 49.5 111t162.5 57q54 9 112 13v18q0 60 -48 60t-48 -59h-207q5 78 67 128t190 50q130 0 193 -55.5zM272 215q-46 -12 -46 -54q0 -21 12 -34
t34 -13q31 0 48 21q11 13 14.5 29t3.5 43v18q-37 -2 -66 -10z" />
    <glyph glyph-name="b" unicode="b" horiz-adv-x="634" 
d="M267 466q22 28 56 43t72 15q66 0 115.5 -33t76.5 -94t27 -143t-28 -143t-79 -94t-119 -33q-40 0 -74 17.5t-57 52.5h-2v-54h-208v712h218v-246h2zM271 331q-18 -29 -18 -77t18 -77t48 -29q31 0 48.5 28.5t17.5 77.5t-17.5 77.5t-48.5 28.5q-30 0 -48 -29z" />
    <glyph glyph-name="c" unicode="c" horiz-adv-x="602" 
d="M499.5 465q76.5 -59 86.5 -162h-225q-3 30 -17 45.5t-35 15.5q-29 0 -44 -27t-15 -80q0 -56 15.5 -84t44.5 -28q23 0 36.5 17.5t14.5 51.5h225q-8 -108 -83.5 -169t-197.5 -61q-86 0 -150.5 33t-99.5 95t-35 145q0 81 34.5 141.5t99 93t150.5 32.5q119 0 195.5 -59z" />
    <glyph glyph-name="d" unicode="d" horiz-adv-x="634" 
d="M379 0v54h-2q-23 -35 -57 -52.5t-74 -17.5q-68 0 -119 33t-79 94t-28 143t27 143t76.5 94t115.5 33q38 0 72 -15t56 -43h2v246h218v-712h-208zM266.5 331.5q-17.5 -28.5 -17.5 -77.5t17.5 -77.5t48.5 -28.5q30 0 48 29t18 77t-18 77t-48 29q-31 0 -48.5 -28.5z" />
    <glyph glyph-name="e" unicode="e" horiz-adv-x="605" 
d="M338.5 131q14.5 11 16.5 28h222q-11 -50 -49 -90t-96 -62.5t-127 -22.5q-91 0 -155.5 36t-97 98t-32.5 139q0 76 33 136.5t96.5 95.5t151.5 35q95 0 160.5 -39.5t97.5 -111.5q14 -32 20 -69.5t6 -93.5h-351q3 -51 20.5 -70.5t46.5 -19.5q23 0 37.5 11zM258 377
q-17 -17 -23 -60h131q-2 41 -20 59t-45 18q-26 0 -43 -17z" />
    <glyph glyph-name="f" unicode="f" horiz-adv-x="400" 
d="M317.5 554.5q-17.5 -14.5 -18.5 -46.5h90v-154h-90v-354h-218v354h-75v154h75v20q0 97 55 146t160 49q51 0 99 -11v-145q-8 2 -24 2q-36 0 -53.5 -14.5z" />
    <glyph glyph-name="g" unicode="g" 
d="M312.5 499.5q39.5 -23.5 60.5 -59.5h2v68h202v-472q0 -121 -71.5 -177.5t-212.5 -56.5q-110 0 -175 43t-76 123h203q2 -20 15 -31.5t36 -11.5q33 0 51 23t18 77v51h-2q-20 -31 -58.5 -50t-79.5 -19q-63 0 -109 32t-71 90t-25 136t25.5 136.5t73.5 90t112 31.5
q42 0 81.5 -23.5zM261 336.5q-18 -26.5 -18 -71.5q0 -44 18 -70t49 -26q29 0 45.5 26t16.5 70q0 45 -17 71.5t-45 26.5q-31 0 -49 -26.5z" />
    <glyph glyph-name="h" unicode="h" 
d="M267 467q22 26 54.5 41t75.5 15q87 0 136 -54.5t49 -155.5v-313h-218v285q0 71 -45 71q-28 0 -41 -26t-13 -84v-246h-218v712h218v-245h2z" />
    <glyph glyph-name="i" unicode="i" horiz-adv-x="312" 
d="M47 0v508h218v-508h-218zM47 560v152h218v-152h-218z" />
    <glyph glyph-name="j" unicode="j" horiz-adv-x="311" 
d="M205.5 -137q-58.5 -54 -155.5 -54q-62 0 -103 12v147q11 -3 24 -3q40 0 57.5 21.5t17.5 79.5v442h218v-482q0 -109 -58.5 -163zM46 560v152h218v-152h-218z" />
    <glyph glyph-name="k" unicode="k" horiz-adv-x="612" 
d="M356 0l-89 214h-2v-214h-218v712h218v-393h2l79 189h261l-158 -243l173 -265h-266z" />
    <glyph glyph-name="l" unicode="l" horiz-adv-x="312" 
d="M47 0v712h218v-712h-218z" />
    <glyph glyph-name="m" unicode="m" horiz-adv-x="930" 
d="M840.5 468.5q47.5 -54.5 47.5 -155.5v-313h-218v285q0 71 -40 71q-26 0 -39.5 -24.5t-13.5 -80.5v-251h-218v288q0 68 -41 68q-26 0 -39.5 -24.5t-13.5 -80.5v-251h-218v508h201v-58h2q24 34 62 53.5t85 19.5q49 0 87.5 -22t62.5 -68q24 41 66.5 65.5t96.5 24.5
q83 0 130.5 -54.5z" />
    <glyph glyph-name="n" unicode="n" 
d="M533 468.5q49 -54.5 49 -155.5v-313h-218v285q0 71 -45 71q-28 0 -41 -26t-13 -84v-246h-218v508h202v-55h2q54 70 146 70q87 0 136 -54.5z" />
    <glyph glyph-name="o" unicode="o" horiz-adv-x="632" 
d="M472 491q67 -33 103.5 -94t36.5 -143t-36.5 -143t-103.5 -94t-156 -33t-156 33t-103.5 94t-36.5 143t36.5 143t103.5 94t156 33t156 -33zM266.5 335q-16.5 -28 -16.5 -81t16.5 -81t49.5 -28t49.5 28t16.5 81t-16.5 81t-49.5 28t-49.5 -28z" />
    <glyph glyph-name="p" unicode="p" horiz-adv-x="634" 
d="M507 491q51 -33 79 -94t28 -143t-27 -143t-76.5 -94t-115.5 -33q-38 0 -72 15t-56 43h-2v-227h-218v693h208v-54h2q23 35 57 52.5t74 17.5q68 0 119 -33zM271 331q-18 -29 -18 -77t18 -77t48 -29q31 0 48.5 28.5t17.5 77.5t-17.5 77.5t-48.5 28.5q-30 0 -48 -29z" />
    <glyph glyph-name="q" unicode="q" horiz-adv-x="634" 
d="M320 506.5q34 -17.5 57 -52.5h2v54h208v-693h-218v227h-2q-22 -28 -56 -43t-72 -15q-66 0 -115.5 33t-76.5 94t-27 143t28 143t79 94t119 33q40 0 74 -17.5zM266.5 331.5q-17.5 -28.5 -17.5 -77.5t17.5 -77.5t48.5 -28.5q30 0 48 29t18 77t-18 77t-48 29
q-31 0 -48.5 -28.5z" />
    <glyph glyph-name="r" unicode="r" horiz-adv-x="460" 
d="M456 510v-185q-27 6 -65 6q-61 0 -93.5 -37t-32.5 -106v-188h-218v508h203v-67h2q28 39 65 57t87 18q28 0 52 -6z" />
    <glyph glyph-name="s" unicode="s" horiz-adv-x="577" 
d="M471 483q65 -41 65 -125h-206q0 47 -45 47q-37 0 -37 -27q0 -10 7 -17t26.5 -14t60.5 -18q64 -17 108.5 -36t74.5 -53t30 -86q0 -79 -67 -124.5t-192 -45.5q-138 0 -206 44.5t-68 136.5h217q0 -30 13 -42.5t44 -12.5q21 0 32.5 7.5t11.5 20.5q0 12 -9.5 20t-34 16
t-73.5 21q-58 15 -97 31.5t-65 49t-26 84.5q0 75 61.5 119.5t191.5 44.5q118 0 183 -41z" />
    <glyph glyph-name="t" unicode="t" horiz-adv-x="419" 
d="M394 164v-160q-21 -6 -50.5 -10t-52.5 -4q-111 0 -162 42.5t-51 134.5v187h-74v154h74v147h218v-147h93v-154h-93v-122q0 -39 14 -56t47 -17q20 0 37 5z" />
    <glyph glyph-name="u" unicode="u" 
d="M91 39.5q-49 54.5 -49 155.5v313h218v-285q0 -71 45 -71q28 0 41 26t13 84v246h218v-508h-202v55h-2q-54 -70 -146 -70q-87 0 -136 54.5z" />
    <glyph glyph-name="v" unicode="v" horiz-adv-x="578" 
d="M139 0l-149 508h237l30 -157q21 -113 31 -207h2q10 94 31 207l30 157h237l-149 -508h-300z" />
    <glyph glyph-name="w" unicode="w" horiz-adv-x="924" 
d="M525 0l-32 172q-19 100 -30 207h-2q-11 -107 -30 -207l-32 -172h-281l-115 508h208l22 -168q15 -103 21 -206h2q13 100 37 211l36 163h266l36 -163q24 -111 37 -211h2q6 103 21 206l22 168h208l-115 -508h-281z" />
    <glyph glyph-name="x" unicode="x" horiz-adv-x="588" 
d="M594 0h-242l-57 146h-2l-57 -146h-242l161 261l-150 247h243l45 -136h2l45 136h243l-150 -247z" />
    <glyph glyph-name="y" unicode="y" horiz-adv-x="583" 
d="M391.5 -101q-31.5 -49 -76.5 -70.5t-113 -21.5q-64 0 -113 11v152q24 -6 44 -6q23 0 35 8t12 26q0 11 -5.5 27.5t-30.5 82.5l-159 400h237l42 -169q27 -115 42 -210h2q9 78 33 212l31 167h221l-144 -474q-26 -86 -57.5 -135z" />
    <glyph glyph-name="z" unicode="z" horiz-adv-x="539" 
d="M306 164v-2h202v-162h-477v166l196 178v2h-190v162h465v-166z" />
    <glyph glyph-name="braceleft" unicode="{" horiz-adv-x="406" 
d="M320 600q-16 -15 -16 -55v-108q0 -62 -28.5 -96t-86.5 -46v-3q58 -13 86.5 -47t28.5 -96v-107q0 -41 16 -56t53 -17v-124h-27q-93 0 -144 20.5t-71.5 63t-20.5 116.5v101q0 39 -14.5 56.5t-55.5 27.5v126q41 9 55.5 26.5t14.5 57.5v100q0 74 20.5 117t71.5 63.5t144 20.5
h27v-124q-37 -2 -53 -17z" />
    <glyph glyph-name="bar" unicode="|" horiz-adv-x="302" 
d="M64 -205v937h174v-937h-174z" />
    <glyph glyph-name="braceright" unicode="}" horiz-adv-x="406" 
d="M204 720.5q51 -20.5 71.5 -63.5t20.5 -117v-100q0 -40 14.5 -57.5t55.5 -26.5v-126q-41 -10 -55.5 -27.5t-14.5 -56.5v-101q0 -74 -20.5 -116.5t-71.5 -63t-144 -20.5h-27v124q37 2 53 17t16 56v107q0 62 28.5 96t86.5 47v3q-58 12 -86.5 46t-28.5 96v108q0 40 -16 55
t-53 17v124h27q93 0 144 -20.5z" />
    <glyph glyph-name="asciitilde" unicode="~" horiz-adv-x="612" 
d="M275.5 426q26.5 -11 59.5 -30q23 -13 37.5 -19.5t27.5 -6.5q21 0 34.5 17t13.5 44h139q0 -68 -24.5 -120.5t-68 -81.5t-99.5 -29q-32 0 -58.5 10.5t-60.5 30.5q-24 14 -37.5 20t-26.5 6q-21 0 -34.5 -16.5t-13.5 -43.5h-139q0 68 24.5 120t68.5 81t99 29q32 0 58.5 -11z
" />
    <glyph glyph-name="uni00A0" unicode="&#xa0;" horiz-adv-x="230" 
 />
    <glyph glyph-name="exclamdown" unicode="&#xa1;" horiz-adv-x="389" 
d="M305 508v-176h-222v176h222zM287 273l30 -477h-245l29 477h186z" />
    <glyph glyph-name="cent" unicode="&#xa2;" horiz-adv-x="684" 
d="M387 238.5q14 17.5 15 51.5h225q-7 -91 -63 -149.5t-149 -74.5v-97h-141v98q-100 19 -156.5 89t-56.5 177q0 104 56.5 173t156.5 88v99h141v-99q91 -16 147.5 -72t64.5 -143h-225q-3 30 -17 45.5t-35 15.5q-29 0 -44 -27t-15 -80q0 -56 15.5 -84t44.5 -28q22 0 36 17.5z
" />
    <glyph glyph-name="sterling" unicode="&#xa3;" horiz-adv-x="684" 
d="M640 174v-174h-618v174q42 0 62.5 20t22.5 71h-85v151h85v9q0 124 73 194.5t202 70.5q77 0 136 -29t92 -81.5t33 -122.5h-207q0 31 -14 48t-41 17q-32 0 -46.5 -22.5t-14.5 -73.5v-10h133v-151h-133q-5 -63 -49 -89v-2h369z" />
    <glyph glyph-name="currency" unicode="&#xa4;" horiz-adv-x="684" 
d="M429 101q-39 -15 -87 -15q-49 0 -88 15l-85 -91l-101 92l83 90q-22 44 -22 99q0 54 22 100l-83 89l101 92l85 -91q39 15 88 15q48 0 87 -15l85 91l100 -92l-83 -89q22 -46 22 -100q0 -55 -22 -99l84 -90l-101 -92zM401 228q23 24 23 63t-23 63t-60 24t-60 -24t-23 -63
t23 -63t60 -24t60 24z" />
    <glyph glyph-name="yen" unicode="&#xa5;" horiz-adv-x="684" 
d="M604 332v-80h-149v-34h149v-80h-149v-138h-226v138h-149v80h149v34h-149v80h110l-166 342h243l24 -70q30 -86 50 -173h2q20 87 50 173l24 70h243l-166 -342h110z" />
    <glyph glyph-name="brokenbar" unicode="&#xa6;" horiz-adv-x="302" 
d="M64 382v350h174v-350h-174zM64 -205v350h174v-350h-174z" />
    <glyph glyph-name="section" unicode="&#xa7;" horiz-adv-x="675" 
d="M510 678q63 -50 69 -141h-203q-1 22 -11.5 34.5t-31.5 12.5q-18 0 -27.5 -9.5t-9.5 -24.5q0 -14 8 -23t30 -18.5t70 -26.5q63 -22 104.5 -43t72 -62t30.5 -105q0 -46 -18.5 -81t-53.5 -58v-2q54 -43 54 -115q0 -58 -31 -102.5t-88 -69t-132 -24.5q-120 0 -183.5 51.5
t-67.5 150.5h206q0 -55 42 -55q20 0 30 9t10 25q0 15 -8 25t-30.5 21.5t-76.5 34.5q-74 32 -112 54t-63 59.5t-25 97.5q0 45 20 78.5t53 48.5v2q-50 41 -50 113q0 90 66 141.5t178 51.5q116 0 179 -50zM238 317q0 -23 15.5 -37t66.5 -37l106 -47q20 19 20 47q0 24 -17 39.5
t-69 36.5q-51 20 -103 44q-19 -20 -19 -46z" />
    <glyph glyph-name="dieresis" unicode="&#xa8;" horiz-adv-x="528" 
d="M50 560v152h182v-152h-182zM296 560v152h182v-152h-182z" />
    <glyph glyph-name="copyright" unicode="&#xa9;" horiz-adv-x="790" 
d="M585.5 682.5q82.5 -46.5 127.5 -131t45 -195.5t-45 -195.5t-127.5 -131t-190.5 -46.5t-190.5 46.5t-127.5 131t-45 195.5t45 195.5t127.5 131t190.5 46.5t190.5 -46.5zM245.5 612.5q-64.5 -36.5 -100 -103t-35.5 -153.5t35.5 -153.5t100 -103t149.5 -36.5t149.5 36.5
t100 103t35.5 153.5t-35.5 153.5t-100 103t-149.5 36.5t-149.5 -36.5zM538.5 527q52.5 -44 56.5 -125h-148q-4 52 -50 52q-24 0 -39 -26t-15 -72q0 -45 15 -71.5t40 -26.5q21 0 34 14.5t15 40.5h150q-6 -84 -59 -128t-140 -44q-94 0 -148 57t-54 158q0 100 53.5 157.5
t147.5 57.5q89 0 141.5 -44z" />
    <glyph glyph-name="ordfeminine" unicode="&#xaa;" horiz-adv-x="435" 
d="M357.5 657q46.5 -40 46.5 -114v-104q0 -70 13 -109h-151q-6 17 -6 42h-2q-44 -53 -118 -53q-60 0 -95 32.5t-35 81.5q0 51 36 79t119 40q39 6 78 8v13q0 37 -30 37t-30 -38h-158q4 54 49.5 89.5t140.5 35.5q96 0 142.5 -40zM221 484q-13 -2 -21 -5q-28 -8 -28 -35
q0 -14 7.5 -22t21.5 -8q20 0 31 14q7 9 9 18.5t2 27.5v12q-9 0 -22 -2z" />
    <glyph glyph-name="guillemotleft" unicode="&#xab;" horiz-adv-x="647" 
d="M607 54h-183l-114 200l114 200h183l-102 -200zM337 54h-183l-114 200l114 200h183l-102 -200z" />
    <glyph glyph-name="logicalnot" unicode="&#xac;" horiz-adv-x="566" 
d="M347 114v196h-297v170h466v-366h-169z" />
    <glyph glyph-name="uni00AD" unicode="&#xad;" horiz-adv-x="370" 
d="M30 219v146h310v-146h-310z" />
    <glyph glyph-name="registered" unicode="&#xae;" horiz-adv-x="592" 
d="M428 696q57 -32 88 -90.5t31 -135.5t-31 -135.5t-88 -90.5t-132 -32t-132 32t-88 90.5t-31 135.5t31 135.5t88 90.5t132 32t132 -32zM186.5 659q-47.5 -27 -73.5 -76t-26 -113t26 -113t73.5 -76t109.5 -27t109.5 27t73.5 76t26 113t-26 113t-73.5 76t-109.5 27
t-109.5 -27zM399.5 606q27.5 -23 27.5 -64q0 -56 -62 -77v-2q18 -5 29 -19t24 -46l30 -76h-100l-25 64q-8 22 -19.5 31t-32.5 9h-15v-104h-96v307h159q53 0 80.5 -23zM256 491h33q46 0 46 37q0 15 -11.5 24t-32.5 9h-35v-70z" />
    <glyph glyph-name="macron" unicode="&#xaf;" horiz-adv-x="526" 
d="M50 572v127h426v-127h-426z" />
    <glyph glyph-name="degree" unicode="&#xb0;" horiz-adv-x="365" 
d="M260 701.5q35 -20.5 55.5 -56t20.5 -77.5t-20.5 -77t-55.5 -55.5t-77 -20.5t-77.5 20.5t-56 55.5t-20.5 77t20.5 77.5t56 56t77.5 20.5t77 -20.5zM141 610q-17 -17 -17 -42q0 -24 17 -41.5t42 -17.5t42 17.5t17 41.5q0 25 -17 42t-42 17t-42 -17z" />
    <glyph glyph-name="plusminus" unicode="&#xb1;" horiz-adv-x="566" 
d="M516 477v-163h-148v-118h-170v118h-148v163h148v118h170v-118h148zM50 0v163h466v-163h-466z" />
    <glyph glyph-name="uni00B2" unicode="&#xb2;" horiz-adv-x="497" 
d="M360 792.5q48 -20.5 73 -56t25 -77.5q0 -56 -35 -90t-101 -54q-57 -17 -75.5 -28.5t-21.5 -24.5h247v-132h-443q-2 18 -2 38q0 82 32 132t109 82q62 25 89.5 41.5t27.5 38.5q0 16 -9 24t-26 8q-20 0 -33 -14.5t-13 -41.5h-171q-1 83 55.5 129t159.5 46q64 0 112 -20.5z
" />
    <glyph glyph-name="uni00B3" unicode="&#xb3;" horiz-adv-x="488" 
d="M398 776.5q57 -36.5 57 -98.5q0 -37 -19.5 -61t-63.5 -40v-2q47 -15 68 -39.5t21 -65.5q0 -69 -58.5 -110t-157.5 -41q-112 0 -171 45t-59 130h175q0 -60 54 -60q22 0 34 9.5t12 26.5q0 21 -15.5 31t-47.5 10h-11v115h18q24 0 38.5 10t14.5 27q0 16 -11 25.5t-32 9.5
q-27 0 -40.5 -16t-13.5 -41h-167q0 80 58 126t161 46q99 0 156 -36.5z" />
    <glyph glyph-name="acute" unicode="&#xb4;" horiz-adv-x="407" 
d="M50 560l81 152h226l-143 -152h-164z" />
    <glyph glyph-name="uni00B5" unicode="&#xb5;" horiz-adv-x="653" 
d="M590 160q10 -11 30 -11q13 0 25 3v-145q-54 -19 -124 -19q-99 0 -139 64h-2q-29 -57 -88 -57q-16 0 -27 4v-184h-218v693h218v-276q0 -42 11 -61t34 -19q26 0 39 22t13 76v258h218v-310q0 -27 10 -38z" />
    <glyph glyph-name="paragraph" unicode="&#xb6;" horiz-adv-x="741" 
d="M623 574v-694h-149v694h-65v-694h-148v388h-9q-97 0 -154.5 60t-57.5 162q0 101 57.5 161.5t154.5 60.5h451v-138h-80z" />
    <glyph glyph-name="periodcentered" unicode="&#xb7;" horiz-adv-x="306" 
d="M42 197v217h222v-217h-222z" />
    <glyph glyph-name="cedilla" unicode="&#xb8;" horiz-adv-x="373" 
d="M230 -53q46 0 69.5 -21.5t23.5 -60.5q0 -49 -36.5 -79.5t-103.5 -30.5q-34 0 -69 9.5t-64 27.5l34 70q51 -23 83 -23q34 0 34 22q0 11 -9 17.5t-26 6.5t-29 -7l-47 36l50 86h92l-35 -58q18 5 33 5z" />
    <glyph glyph-name="uni00B9" unicode="&#xb9;" horiz-adv-x="352" 
d="M129 330v262h-118v124q66 0 98 20.5t39 65.5h154v-472h-173z" />
    <glyph glyph-name="ordmasculine" unicode="&#xba;" horiz-adv-x="456" 
d="M384 646q58 -51 58 -138t-58 -138t-156 -51t-156 51t-58 138t58 138t156 51t156 -51zM186 508q0 -67 42 -67t42 67t-42 67t-42 -67z" />
    <glyph glyph-name="guillemotright" unicode="&#xbb;" horiz-adv-x="647" 
d="M337 254l-114 -200h-183l102 200l-102 200h183zM607 254l-114 -200h-183l102 200l-102 200h183z" />
    <glyph glyph-name="onequarter" unicode="&#xbc;" horiz-adv-x="871" 
d="M111 270v227h-102v105q52 0 80.5 18t37.5 54h140v-404h-156zM151 0l350 674h119l-350 -674h-119zM782 67v-67h-140v67h-192v107l150 230h182v-235h79v-102h-79zM650 169v29q0 64 4 111h-2q-21 -46 -50 -91l-31 -49h79z" />
    <glyph glyph-name="onehalf" unicode="&#xbd;" horiz-adv-x="887" 
d="M111 270v227h-102v105q52 0 80.5 18t37.5 54h140v-404h-156zM151 0l350 674h119l-350 -674h-119zM770.5 396.5q40.5 -17.5 61.5 -48t21 -66.5q0 -47 -30 -76t-86 -48q-51 -17 -66.5 -26t-18.5 -21h213v-111h-380q-1 10 -1 32q0 69 27.5 110t93.5 72q57 26 79 40t22 32
q0 13 -8 20t-23 7q-17 0 -28.5 -12.5t-11.5 -36.5h-145q0 71 48.5 110.5t137.5 39.5q54 0 94.5 -17.5z" />
    <glyph glyph-name="threequarters" unicode="&#xbe;" horiz-adv-x="979" 
d="M339 651.5q50 -32.5 50 -86.5q0 -32 -17.5 -53t-55.5 -31v-2q41 -12 59.5 -34t18.5 -57q0 -62 -47 -95t-138 -33q-94 0 -145.5 39t-51.5 113h146q0 -51 51 -51q19 0 30.5 9t11.5 23q0 31 -53 31h-14v97h13q26 0 38.5 7.5t12.5 23.5q0 14 -11.5 22.5t-30.5 8.5
q-23 0 -35.5 -13t-12.5 -34h-139q0 70 50 109t139 39q81 0 131 -32.5zM259 0l350 674h119l-350 -674h-119zM890 67v-67h-140v67h-192v107l150 230h182v-235h79v-102h-79zM758 169v29q0 64 4 111h-2q-21 -46 -50 -91l-31 -49h79z" />
    <glyph glyph-name="questiondown" unicode="&#xbf;" horiz-adv-x="592" 
d="M422 508v-176h-222v176h222zM104.5 -168q-73.5 52 -73.5 144q0 50 20.5 86t75.5 79q55 45 74 74.5t19 69.5h183q4 -28 4 -66q0 -31 -6.5 -52.5t-23.5 -43t-53 -53.5q-39 -35 -51 -52.5t-12 -40.5q0 -22 13 -35t34 -13q63 0 60 93h224q0 -118 -74.5 -180t-209.5 -62
q-130 0 -203.5 52z" />
    <glyph glyph-name="Agrave" unicode="&#xc0;" horiz-adv-x="748" 
d="M263 105l-28 -105h-239l235 712h286l235 -712h-239l-28 105h-222zM427 328q-27 101 -52 221h-2q-25 -120 -52 -221l-13 -50h132zM491 760h-164l-143 161h226z" />
    <glyph glyph-name="Aacute" unicode="&#xc1;" horiz-adv-x="748" 
d="M263 105l-28 -105h-239l235 712h286l235 -712h-239l-28 105h-222zM427 328q-27 101 -52 221h-2q-25 -120 -52 -221l-13 -50h132zM257 760l81 161h226l-143 -161h-164z" />
    <glyph glyph-name="Acircumflex" unicode="&#xc2;" horiz-adv-x="748" 
d="M263 105l-28 -105h-239l235 712h286l235 -712h-239l-28 105h-222zM427 328q-27 101 -52 221h-2q-25 -120 -52 -221l-13 -50h132zM458 921l134 -161h-159l-59 84l-59 -84h-159l133 161h169z" />
    <glyph glyph-name="Atilde" unicode="&#xc3;" horiz-adv-x="748" 
d="M263 105l-28 -105h-239l235 712h286l235 -712h-239l-28 105h-222zM427 328q-27 101 -52 221h-2q-25 -120 -52 -221l-13 -50h132zM543.5 803.5q-34.5 -42.5 -98.5 -42.5q-23 0 -42 6t-43 17q-13 6 -25.5 10.5t-23.5 4.5q-31 0 -36 -38h-110q4 76 38.5 118t98.5 42
q23 0 42 -5.5t43 -16.5q34 -15 49 -15q17 0 25.5 9t10.5 28h110q-4 -75 -38.5 -117.5z" />
    <glyph glyph-name="Adieresis" unicode="&#xc4;" horiz-adv-x="748" 
d="M263 105l-28 -105h-239l235 712h286l235 -712h-239l-28 105h-222zM427 328q-27 101 -52 221h-2q-25 -120 -52 -221l-13 -50h132zM160 769v152h182v-152h-182zM406 769v152h182v-152h-182z" />
    <glyph glyph-name="Aring" unicode="&#xc5;" horiz-adv-x="748" 
d="M263 105l-28 -105h-239l235 712h286l235 -712h-239l-28 105h-222zM427 328q-27 101 -52 221h-2q-25 -120 -52 -221l-13 -50h132zM462.5 969q36.5 -37 36.5 -89q0 -34 -16.5 -62.5t-45.5 -45.5t-63 -17t-63 17t-46 46t-17 62q0 34 17 63t46 46t63 17q52 0 88.5 -37z
M331.5 922.5q-17.5 -17.5 -17.5 -42.5t17.5 -42.5t42.5 -17.5t42.5 17.5t17.5 42.5t-17.5 42.5t-42.5 17.5t-42.5 -17.5z" />
    <glyph glyph-name="AE" unicode="&#xc6;" horiz-adv-x="1001" 
d="M959 0h-433l-17 123h-227l-47 -123h-241l290 712h674v-184h-295l12 -81h257v-179h-233l13 -84h247v-184zM452 526h-14l-86 -224h132z" />
    <glyph glyph-name="Ccedilla" unicode="&#xc7;" horiz-adv-x="744" 
d="M627.5 70.5q-81.5 -76.5 -215.5 -85.5l-26 -43q18 5 33 5q46 0 69.5 -21.5t23.5 -60.5q0 -49 -36.5 -79.5t-103.5 -30.5q-34 0 -69 9.5t-64 27.5l34 70q51 -23 83 -23q34 0 34 22q0 11 -9 17.5t-26 6.5t-29 -7l-47 36l43 73q-139 17 -216.5 114t-77.5 255q0 115 42 199
t120 128.5t185 44.5q152 0 243 -76t97 -214h-241q-5 49 -30 74.5t-69 25.5q-50 0 -79.5 -48.5t-29.5 -133.5q0 -84 30 -133t80 -49q42 0 69 28.5t31 78.5h243q-10 -134 -91.5 -210.5z" />
    <glyph glyph-name="Egrave" unicode="&#xc8;" horiz-adv-x="636" 
d="M289 528v-81h279v-179h-279v-84h305v-184h-531v712h526v-184h-300zM446 760h-164l-143 161h226z" />
    <glyph glyph-name="Eacute" unicode="&#xc9;" horiz-adv-x="636" 
d="M289 528v-81h279v-179h-279v-84h305v-184h-531v712h526v-184h-300zM212 760l81 161h226l-143 -161h-164z" />
    <glyph glyph-name="Ecircumflex" unicode="&#xca;" horiz-adv-x="636" 
d="M289 528v-81h279v-179h-279v-84h305v-184h-531v712h526v-184h-300zM413 921l134 -161h-159l-59 84l-59 -84h-159l133 161h169z" />
    <glyph glyph-name="Edieresis" unicode="&#xcb;" horiz-adv-x="636" 
d="M289 528v-81h279v-179h-279v-84h305v-184h-531v712h526v-184h-300zM115 769v152h182v-152h-182zM361 769v152h182v-152h-182z" />
    <glyph glyph-name="Igrave" unicode="&#xcc;" horiz-adv-x="352" 
d="M63 0v712h226v-712h-226zM292 760h-164l-143 161h226z" />
    <glyph glyph-name="Iacute" unicode="&#xcd;" horiz-adv-x="352" 
d="M63 0v712h226v-712h-226zM58 760l81 161h226l-143 -161h-164z" />
    <glyph glyph-name="Icircumflex" unicode="&#xce;" horiz-adv-x="352" 
d="M63 0v712h226v-712h-226zM259 921l134 -161h-159l-59 84l-59 -84h-159l133 161h169z" />
    <glyph glyph-name="Idieresis" unicode="&#xcf;" horiz-adv-x="352" 
d="M63 0v712h226v-712h-226zM-39 769v152h182v-152h-182zM207 769v152h182v-152h-182z" />
    <glyph glyph-name="Eth" unicode="&#xd0;" horiz-adv-x="764" 
d="M636 619.5q100 -92.5 100 -263.5t-100 -263.5t-284 -92.5h-284v294h-58v130h58v288h284q184 0 284 -92.5zM458 233q41 44 41 123t-41 123t-114 44h-50v-99h127v-130h-127v-105h50q73 0 114 44z" />
    <glyph glyph-name="Ntilde" unicode="&#xd1;" horiz-adv-x="852" 
d="M458 0l-97 265q-49 132 -88 267h-2q8 -125 8 -282v-250h-216v712h331l97 -265q49 -132 88 -267h2q-8 125 -8 282v250h216v-712h-331zM595.5 803.5q-34.5 -42.5 -98.5 -42.5q-23 0 -42 6t-43 17q-13 6 -25.5 10.5t-23.5 4.5q-31 0 -36 -38h-110q4 76 38.5 118t98.5 42
q23 0 42 -5.5t43 -16.5q34 -15 49 -15q17 0 25.5 9t10.5 28h110q-4 -75 -38.5 -117.5z" />
    <glyph glyph-name="Ograve" unicode="&#xd2;" horiz-adv-x="776" 
d="M577.5 682q81.5 -46 126 -130t44.5 -196t-44.5 -196t-126 -130t-189.5 -46t-189.5 46t-126 130t-44.5 196t44.5 196t126 130t189.5 46t189.5 -46zM297.5 491.5q-30.5 -46.5 -30.5 -135.5t30.5 -135.5t90.5 -46.5t90.5 46.5t30.5 135.5t-30.5 135.5t-90.5 46.5
t-90.5 -46.5zM505 760h-164l-143 161h226z" />
    <glyph glyph-name="Oacute" unicode="&#xd3;" horiz-adv-x="776" 
d="M577.5 682q81.5 -46 126 -130t44.5 -196t-44.5 -196t-126 -130t-189.5 -46t-189.5 46t-126 130t-44.5 196t44.5 196t126 130t189.5 46t189.5 -46zM297.5 491.5q-30.5 -46.5 -30.5 -135.5t30.5 -135.5t90.5 -46.5t90.5 46.5t30.5 135.5t-30.5 135.5t-90.5 46.5
t-90.5 -46.5zM271 760l81 161h226l-143 -161h-164z" />
    <glyph glyph-name="Ocircumflex" unicode="&#xd4;" horiz-adv-x="776" 
d="M577.5 682q81.5 -46 126 -130t44.5 -196t-44.5 -196t-126 -130t-189.5 -46t-189.5 46t-126 130t-44.5 196t44.5 196t126 130t189.5 46t189.5 -46zM297.5 491.5q-30.5 -46.5 -30.5 -135.5t30.5 -135.5t90.5 -46.5t90.5 46.5t30.5 135.5t-30.5 135.5t-90.5 46.5
t-90.5 -46.5zM472 921l134 -161h-159l-59 84l-59 -84h-159l133 161h169z" />
    <glyph glyph-name="Otilde" unicode="&#xd5;" horiz-adv-x="776" 
d="M577.5 682q81.5 -46 126 -130t44.5 -196t-44.5 -196t-126 -130t-189.5 -46t-189.5 46t-126 130t-44.5 196t44.5 196t126 130t189.5 46t189.5 -46zM297.5 491.5q-30.5 -46.5 -30.5 -135.5t30.5 -135.5t90.5 -46.5t90.5 46.5t30.5 135.5t-30.5 135.5t-90.5 46.5
t-90.5 -46.5zM557.5 803.5q-34.5 -42.5 -98.5 -42.5q-23 0 -42 6t-43 17q-13 6 -25.5 10.5t-23.5 4.5q-31 0 -36 -38h-110q4 76 38.5 118t98.5 42q23 0 42 -5.5t43 -16.5q34 -15 49 -15q17 0 25.5 9t10.5 28h110q-4 -75 -38.5 -117.5z" />
    <glyph glyph-name="Odieresis" unicode="&#xd6;" horiz-adv-x="776" 
d="M577.5 682q81.5 -46 126 -130t44.5 -196t-44.5 -196t-126 -130t-189.5 -46t-189.5 46t-126 130t-44.5 196t44.5 196t126 130t189.5 46t189.5 -46zM297.5 491.5q-30.5 -46.5 -30.5 -135.5t30.5 -135.5t90.5 -46.5t90.5 46.5t30.5 135.5t-30.5 135.5t-90.5 46.5
t-90.5 -46.5zM174 769v152h182v-152h-182zM420 769v152h182v-152h-182z" />
    <glyph glyph-name="multiply" unicode="&#xd7;" horiz-adv-x="566" 
d="M403 323l157 -156l-119 -121l-157 157l-157 -157l-119 121l157 156l-157 156l119 121l157 -157l157 157l119 -121z" />
    <glyph glyph-name="Oslash" unicode="&#xd8;" horiz-adv-x="776" 
d="M723 507.5q25 -68.5 25 -151.5q0 -112 -44.5 -196t-126 -130t-189.5 -46q-101 0 -176 39l-60 -82l-88 62l61 83q-47 49 -72 118t-25 152q0 112 44.5 196t126 130t189.5 46q99 0 177 -39l60 82l88 -62l-61 -84q46 -49 71 -117.5zM262 274l190 260q-27 15 -64 15
q-65 0 -99.5 -49.5t-34.5 -143.5q0 -44 8 -82zM488.5 212.5q34.5 49.5 34.5 143.5q0 44 -8 82l-190 -260q27 -15 63 -15q66 0 100.5 49.5z" />
    <glyph glyph-name="Ugrave" unicode="&#xd9;" horiz-adv-x="738" 
d="M599.5 63q-81.5 -79 -230.5 -79t-230.5 79t-81.5 222v427h226v-425q0 -52 22 -79.5t64 -27.5t64 27.5t22 79.5v425h226v-427q0 -143 -81.5 -222zM485 760h-164l-143 161h226z" />
    <glyph glyph-name="Uacute" unicode="&#xda;" horiz-adv-x="738" 
d="M599.5 63q-81.5 -79 -230.5 -79t-230.5 79t-81.5 222v427h226v-425q0 -52 22 -79.5t64 -27.5t64 27.5t22 79.5v425h226v-427q0 -143 -81.5 -222zM251 760l81 161h226l-143 -161h-164z" />
    <glyph glyph-name="Ucircumflex" unicode="&#xdb;" horiz-adv-x="738" 
d="M599.5 63q-81.5 -79 -230.5 -79t-230.5 79t-81.5 222v427h226v-425q0 -52 22 -79.5t64 -27.5t64 27.5t22 79.5v425h226v-427q0 -143 -81.5 -222zM452 921l134 -161h-159l-59 84l-59 -84h-159l133 161h169z" />
    <glyph glyph-name="Udieresis" unicode="&#xdc;" horiz-adv-x="738" 
d="M599.5 63q-81.5 -79 -230.5 -79t-230.5 79t-81.5 222v427h226v-425q0 -52 22 -79.5t64 -27.5t64 27.5t22 79.5v425h226v-427q0 -143 -81.5 -222zM154 769v152h182v-152h-182zM400 769v152h182v-152h-182z" />
    <glyph glyph-name="Yacute" unicode="&#xdd;" horiz-adv-x="714" 
d="M470 0h-226v252l-245 460h247l50 -120q39 -94 60 -174h2q21 80 60 174l50 120h247l-245 -460v-252zM240 760l81 161h226l-143 -161h-164z" />
    <glyph glyph-name="Thorn" unicode="&#xde;" horiz-adv-x="691" 
d="M379 622q146 0 220 -67.5t74 -188.5q0 -122 -74 -190t-219 -68h-90v-108h-227v712h227v-90h89zM290 290h46q56 0 80 17t24 58q0 42 -24.5 59t-79.5 17h-46v-151z" />
    <glyph glyph-name="germandbls" unicode="&#xdf;" horiz-adv-x="611" 
d="M446 706q59 -22 91 -62.5t32 -95.5q0 -60 -30 -97.5t-94 -57.5v-2q75 -23 111.5 -68.5t36.5 -119.5q0 -104 -65 -154.5t-203 -50.5q-14 0 -30 2v159q6 -1 15 -1q28 0 44 18.5t16 53.5q0 36 -17 54t-49 18h-9v168q34 0 51.5 14t17.5 41q0 23 -12.5 35t-34.5 12
q-28 0 -40 -18.5t-12 -59.5v-494h-218v508q0 102 70.5 161t191.5 59q78 0 137 -22z" />
    <glyph glyph-name="agrave" unicode="&#xe0;" horiz-adv-x="590" 
d="M485 468.5q63 -55.5 63 -160.5v-156q0 -98 17 -152h-197q-8 27 -8 62h-2q-62 -77 -165 -77q-83 0 -131 45.5t-48 115.5q0 71 49.5 111t162.5 57q54 9 112 13v18q0 60 -48 60t-48 -59h-207q5 78 67 128t190 50q130 0 193 -55.5zM272 215q-46 -12 -46 -54q0 -21 12 -34
t34 -13q31 0 48 21q11 13 14.5 29t3.5 43v18q-37 -2 -66 -10zM403 560h-164l-143 152h226z" />
    <glyph glyph-name="aacute" unicode="&#xe1;" horiz-adv-x="590" 
d="M485 468.5q63 -55.5 63 -160.5v-156q0 -98 17 -152h-197q-8 27 -8 62h-2q-62 -77 -165 -77q-83 0 -131 45.5t-48 115.5q0 71 49.5 111t162.5 57q54 9 112 13v18q0 60 -48 60t-48 -59h-207q5 78 67 128t190 50q130 0 193 -55.5zM272 215q-46 -12 -46 -54q0 -21 12 -34
t34 -13q31 0 48 21q11 13 14.5 29t3.5 43v18q-37 -2 -66 -10zM169 560l81 152h226l-143 -152h-164z" />
    <glyph glyph-name="acircumflex" unicode="&#xe2;" horiz-adv-x="590" 
d="M485 468.5q63 -55.5 63 -160.5v-156q0 -98 17 -152h-197q-8 27 -8 62h-2q-62 -77 -165 -77q-83 0 -131 45.5t-48 115.5q0 71 49.5 111t162.5 57q54 9 112 13v18q0 60 -48 60t-48 -59h-207q5 78 67 128t190 50q130 0 193 -55.5zM272 215q-46 -12 -46 -54q0 -21 12 -34
t34 -13q31 0 48 21q11 13 14.5 29t3.5 43v18q-37 -2 -66 -10zM286 635l-52 -75h-159l127 152h169l127 -152h-159z" />
    <glyph glyph-name="atilde" unicode="&#xe3;" horiz-adv-x="590" 
d="M485 468.5q63 -55.5 63 -160.5v-156q0 -98 17 -152h-197q-8 27 -8 62h-2q-62 -77 -165 -77q-83 0 -131 45.5t-48 115.5q0 71 49.5 111t162.5 57q54 9 112 13v18q0 60 -48 60t-48 -59h-207q5 78 67 128t190 50q130 0 193 -55.5zM272 215q-46 -12 -46 -54q0 -21 12 -34
t34 -13q31 0 48 21q11 13 14.5 29t3.5 43v18q-37 -2 -66 -10zM455.5 594.5q-34.5 -42.5 -98.5 -42.5q-23 0 -42 6t-43 17q-13 6 -25.5 10.5t-23.5 4.5q-31 0 -36 -38h-110q4 76 38.5 118t98.5 42q23 0 42 -5.5t43 -16.5q34 -15 49 -15q17 0 25.5 9t10.5 28h110
q-4 -75 -38.5 -117.5z" />
    <glyph glyph-name="adieresis" unicode="&#xe4;" horiz-adv-x="590" 
d="M485 468.5q63 -55.5 63 -160.5v-156q0 -98 17 -152h-197q-8 27 -8 62h-2q-62 -77 -165 -77q-83 0 -131 45.5t-48 115.5q0 71 49.5 111t162.5 57q54 9 112 13v18q0 60 -48 60t-48 -59h-207q5 78 67 128t190 50q130 0 193 -55.5zM272 215q-46 -12 -46 -54q0 -21 12 -34
t34 -13q31 0 48 21q11 13 14.5 29t3.5 43v18q-37 -2 -66 -10zM72 560v152h182v-152h-182zM318 560v152h182v-152h-182z" />
    <glyph glyph-name="aring" unicode="&#xe5;" horiz-adv-x="590" 
d="M485 468.5q63 -55.5 63 -160.5v-156q0 -98 17 -152h-197q-8 27 -8 62h-2q-62 -77 -165 -77q-83 0 -131 45.5t-48 115.5q0 71 49.5 111t162.5 57q54 9 112 13v18q0 60 -48 60t-48 -59h-207q5 78 67 128t190 50q130 0 193 -55.5zM272 215q-46 -12 -46 -54q0 -21 12 -34
t34 -13q31 0 48 21q11 13 14.5 29t3.5 43v18q-37 -2 -66 -10zM374.5 760q36.5 -37 36.5 -89q0 -34 -16.5 -62.5t-45.5 -45.5t-63 -17t-63 17t-46 46t-17 62q0 34 17 63t46 46t63 17q52 0 88.5 -37zM243.5 713.5q-17.5 -17.5 -17.5 -42.5t17.5 -42.5t42.5 -17.5t42.5 17.5
t17.5 42.5t-17.5 42.5t-42.5 17.5t-42.5 -17.5z" />
    <glyph glyph-name="ae" unicode="&#xe6;" horiz-adv-x="926" 
d="M659.5 131q14.5 11 16.5 28h222q-11 -50 -49 -90t-96 -62.5t-127 -22.5q-63 0 -112.5 20.5t-84.5 57.5q-58 -78 -192 -78q-108 0 -165.5 45.5t-57.5 116.5q0 68 36.5 106t107 53t184.5 15h9v25q0 31 -12.5 45.5t-41.5 14.5q-54 0 -54 -59h-207q5 78 68.5 128t193.5 50
q106 0 167 -45q64 45 157 45q95 0 160.5 -39.5t97.5 -111.5q14 -32 20 -69.5t6 -93.5h-351q3 -51 20.5 -70.5t46.5 -19.5q23 0 37.5 11zM557 317h130q-2 41 -20 59t-45 18q-55 0 -65 -77zM336 222q-56 0 -83 -16.5t-27 -46.5q0 -23 12 -37t36 -14q34 0 54 20
q12 13 17.5 31.5t5.5 48.5v14h-15z" />
    <glyph glyph-name="ccedilla" unicode="&#xe7;" horiz-adv-x="602" 
d="M346.5 162.5q13.5 17.5 14.5 51.5h225q-7 -100 -72.5 -160t-172.5 -68l-26 -44q18 5 33 5q46 0 69.5 -21.5t23.5 -60.5q0 -49 -36.5 -79.5t-103.5 -30.5q-34 0 -69 9.5t-64 27.5l34 70q51 -23 83 -23q34 0 34 22q0 11 -9 17.5t-26 6.5t-29 -7l-47 36l43 74
q-108 14 -169.5 85.5t-61.5 183.5q0 81 34.5 141.5t99 93t150.5 32.5q119 0 195.5 -59t86.5 -162h-225q-3 30 -17 45.5t-35 15.5q-29 0 -44 -27t-15 -80q0 -56 15.5 -84t44.5 -28q23 0 36.5 17.5z" />
    <glyph glyph-name="egrave" unicode="&#xe8;" horiz-adv-x="605" 
d="M338.5 131q14.5 11 16.5 28h222q-11 -50 -49 -90t-96 -62.5t-127 -22.5q-91 0 -155.5 36t-97 98t-32.5 139q0 76 33 136.5t96.5 95.5t151.5 35q95 0 160.5 -39.5t97.5 -111.5q14 -32 20 -69.5t6 -93.5h-351q3 -51 20.5 -70.5t46.5 -19.5q23 0 37.5 11zM258 377
q-17 -17 -23 -60h131q-2 41 -20 59t-45 18q-26 0 -43 -17zM419 560h-164l-143 152h226z" />
    <glyph glyph-name="eacute" unicode="&#xe9;" horiz-adv-x="605" 
d="M338.5 131q14.5 11 16.5 28h222q-11 -50 -49 -90t-96 -62.5t-127 -22.5q-91 0 -155.5 36t-97 98t-32.5 139q0 76 33 136.5t96.5 95.5t151.5 35q95 0 160.5 -39.5t97.5 -111.5q14 -32 20 -69.5t6 -93.5h-351q3 -51 20.5 -70.5t46.5 -19.5q23 0 37.5 11zM258 377
q-17 -17 -23 -60h131q-2 41 -20 59t-45 18q-26 0 -43 -17zM185 560l81 152h226l-143 -152h-164z" />
    <glyph glyph-name="ecircumflex" unicode="&#xea;" horiz-adv-x="605" 
d="M338.5 131q14.5 11 16.5 28h222q-11 -50 -49 -90t-96 -62.5t-127 -22.5q-91 0 -155.5 36t-97 98t-32.5 139q0 76 33 136.5t96.5 95.5t151.5 35q95 0 160.5 -39.5t97.5 -111.5q14 -32 20 -69.5t6 -93.5h-351q3 -51 20.5 -70.5t46.5 -19.5q23 0 37.5 11zM258 377
q-17 -17 -23 -60h131q-2 41 -20 59t-45 18q-26 0 -43 -17zM302 635l-52 -75h-159l127 152h169l127 -152h-159z" />
    <glyph glyph-name="edieresis" unicode="&#xeb;" horiz-adv-x="605" 
d="M338.5 131q14.5 11 16.5 28h222q-11 -50 -49 -90t-96 -62.5t-127 -22.5q-91 0 -155.5 36t-97 98t-32.5 139q0 76 33 136.5t96.5 95.5t151.5 35q95 0 160.5 -39.5t97.5 -111.5q14 -32 20 -69.5t6 -93.5h-351q3 -51 20.5 -70.5t46.5 -19.5q23 0 37.5 11zM258 377
q-17 -17 -23 -60h131q-2 41 -20 59t-45 18q-26 0 -43 -17zM88 560v152h182v-152h-182zM334 560v152h182v-152h-182z" />
    <glyph glyph-name="igrave" unicode="&#xec;" horiz-adv-x="312" 
d="M47 0v508h218v-508h-218zM273 560h-164l-143 152h226z" />
    <glyph glyph-name="iacute" unicode="&#xed;" horiz-adv-x="312" 
d="M47 0v508h218v-508h-218zM39 560l81 152h226l-143 -152h-164z" />
    <glyph glyph-name="icircumflex" unicode="&#xee;" horiz-adv-x="312" 
d="M47 0v508h218v-508h-218zM202 564l-46 58l-44 -58h-152l118 148h157l118 -148h-151z" />
    <glyph glyph-name="idieresis" unicode="&#xef;" horiz-adv-x="312" 
d="M47 0v508h218v-508h-218zM-18 560v152h152v-152h-152zM178 560v152h152v-152h-152z" />
    <glyph glyph-name="eth" unicode="&#xf0;" horiz-adv-x="612" 
d="M574.5 395.5q17.5 -60.5 17.5 -129.5q0 -134 -79 -208t-215 -74q-84 0 -147 30.5t-97 86.5t-34 131q0 79 28.5 138t80.5 91t121 32q27 0 50 -5v2q-17 19 -58 58l-131 -44l-30 85l80 27q-24 18 -57 40l193 72q29 -18 64 -45l121 41l30 -85l-74 -25q49 -50 82 -101
q37 -57 54.5 -117.5zM354 166.5q15 28.5 15 82.5t-15 82.5t-44 28.5t-44 -28.5t-15 -82.5t15 -82.5t44 -28.5t44 28.5z" />
    <glyph glyph-name="ntilde" unicode="&#xf1;" 
d="M533 468.5q49 -54.5 49 -155.5v-313h-218v285q0 71 -45 71q-28 0 -41 -26t-13 -84v-246h-218v508h202v-55h2q54 70 146 70q87 0 136 -54.5zM484.5 594.5q-34.5 -42.5 -98.5 -42.5q-23 0 -42 6t-43 17q-13 6 -25.5 10.5t-23.5 4.5q-31 0 -36 -38h-110q4 76 38.5 118
t98.5 42q23 0 42 -5.5t43 -16.5q34 -15 49 -15q17 0 25.5 9t10.5 28h110q-4 -75 -38.5 -117.5z" />
    <glyph glyph-name="ograve" unicode="&#xf2;" horiz-adv-x="632" 
d="M472 491q67 -33 103.5 -94t36.5 -143t-36.5 -143t-103.5 -94t-156 -33t-156 33t-103.5 94t-36.5 143t36.5 143t103.5 94t156 33t156 -33zM266.5 335q-16.5 -28 -16.5 -81t16.5 -81t49.5 -28t49.5 28t16.5 81t-16.5 81t-49.5 28t-49.5 -28zM433 560h-164l-143 152h226z
" />
    <glyph glyph-name="oacute" unicode="&#xf3;" horiz-adv-x="632" 
d="M472 491q67 -33 103.5 -94t36.5 -143t-36.5 -143t-103.5 -94t-156 -33t-156 33t-103.5 94t-36.5 143t36.5 143t103.5 94t156 33t156 -33zM266.5 335q-16.5 -28 -16.5 -81t16.5 -81t49.5 -28t49.5 28t16.5 81t-16.5 81t-49.5 28t-49.5 -28zM199 560l81 152h226l-143 -152
h-164z" />
    <glyph glyph-name="ocircumflex" unicode="&#xf4;" horiz-adv-x="632" 
d="M472 491q67 -33 103.5 -94t36.5 -143t-36.5 -143t-103.5 -94t-156 -33t-156 33t-103.5 94t-36.5 143t36.5 143t103.5 94t156 33t156 -33zM266.5 335q-16.5 -28 -16.5 -81t16.5 -81t49.5 -28t49.5 28t16.5 81t-16.5 81t-49.5 28t-49.5 -28zM316 635l-52 -75h-159l127 152
h169l127 -152h-159z" />
    <glyph glyph-name="otilde" unicode="&#xf5;" horiz-adv-x="632" 
d="M472 491q67 -33 103.5 -94t36.5 -143t-36.5 -143t-103.5 -94t-156 -33t-156 33t-103.5 94t-36.5 143t36.5 143t103.5 94t156 33t156 -33zM266.5 335q-16.5 -28 -16.5 -81t16.5 -81t49.5 -28t49.5 28t16.5 81t-16.5 81t-49.5 28t-49.5 -28zM485.5 594.5
q-34.5 -42.5 -98.5 -42.5q-23 0 -42 6t-43 17q-13 6 -25.5 10.5t-23.5 4.5q-31 0 -36 -38h-110q4 76 38.5 118t98.5 42q23 0 42 -5.5t43 -16.5q34 -15 49 -15q17 0 25.5 9t10.5 28h110q-4 -75 -38.5 -117.5z" />
    <glyph glyph-name="odieresis" unicode="&#xf6;" horiz-adv-x="632" 
d="M472 491q67 -33 103.5 -94t36.5 -143t-36.5 -143t-103.5 -94t-156 -33t-156 33t-103.5 94t-36.5 143t36.5 143t103.5 94t156 33t156 -33zM266.5 335q-16.5 -28 -16.5 -81t16.5 -81t49.5 -28t49.5 28t16.5 81t-16.5 81t-49.5 28t-49.5 -28zM102 560v152h182v-152h-182z
M348 560v152h182v-152h-182z" />
    <glyph glyph-name="divide" unicode="&#xf7;" horiz-adv-x="566" 
d="M190 440v133h186v-133h-186zM50 233v169h466v-169h-466zM190 61v134h186v-134h-186z" />
    <glyph glyph-name="oslash" unicode="&#xf8;" horiz-adv-x="632" 
d="M589 371.5q23 -52.5 23 -117.5q0 -82 -36.5 -143t-103.5 -94t-156 -33q-64 0 -123 19l-53 -73l-76 55l46 64q-43 36 -66.5 88.5t-23.5 116.5q0 82 36.5 143t103.5 94t156 33q66 0 123 -19l53 73l77 -55l-47 -64q44 -35 67 -87.5zM255 342q-21 -32 -21 -88q0 -24 5 -47
l114 158q-17 9 -37 9q-40 0 -61 -32zM377 166.5q21 32.5 21 87.5q0 30 -5 47l-113 -158q15 -9 36 -9q40 0 61 32.5z" />
    <glyph glyph-name="ugrave" unicode="&#xf9;" 
d="M91 39.5q-49 54.5 -49 155.5v313h218v-285q0 -71 45 -71q28 0 41 26t13 84v246h218v-508h-202v55h-2q-54 -70 -146 -70q-87 0 -136 54.5zM430 560h-164l-143 152h226z" />
    <glyph glyph-name="uacute" unicode="&#xfa;" 
d="M91 39.5q-49 54.5 -49 155.5v313h218v-285q0 -71 45 -71q28 0 41 26t13 84v246h218v-508h-202v55h-2q-54 -70 -146 -70q-87 0 -136 54.5zM196 560l81 152h226l-143 -152h-164z" />
    <glyph glyph-name="ucircumflex" unicode="&#xfb;" 
d="M91 39.5q-49 54.5 -49 155.5v313h218v-285q0 -71 45 -71q28 0 41 26t13 84v246h218v-508h-202v55h-2q-54 -70 -146 -70q-87 0 -136 54.5zM313 635l-52 -75h-159l127 152h169l127 -152h-159z" />
    <glyph glyph-name="udieresis" unicode="&#xfc;" 
d="M91 39.5q-49 54.5 -49 155.5v313h218v-285q0 -71 45 -71q28 0 41 26t13 84v246h218v-508h-202v55h-2q-54 -70 -146 -70q-87 0 -136 54.5zM99 560v152h182v-152h-182zM345 560v152h182v-152h-182z" />
    <glyph glyph-name="yacute" unicode="&#xfd;" horiz-adv-x="583" 
d="M391.5 -101q-31.5 -49 -76.5 -70.5t-113 -21.5q-64 0 -113 11v152q24 -6 44 -6q23 0 35 8t12 26q0 11 -5.5 27.5t-30.5 82.5l-159 400h237l42 -169q27 -115 42 -210h2q9 78 33 212l31 167h221l-144 -474q-26 -86 -57.5 -135zM180 560l81 152h226l-143 -152h-164z" />
    <glyph glyph-name="thorn" unicode="&#xfe;" horiz-adv-x="634" 
d="M267 466q22 28 56 43t72 15q66 0 115.5 -33t76.5 -94t27 -143t-27 -143t-76.5 -94t-115.5 -33q-38 0 -72 15t-56 43h-2v-227h-218v897h218v-246h2zM271 331q-18 -29 -18 -77t18 -77t48 -29q31 0 48.5 28.5t17.5 77.5t-17.5 77.5t-48.5 28.5q-30 0 -48 -29z" />
    <glyph glyph-name="ydieresis" unicode="&#xff;" horiz-adv-x="583" 
d="M391.5 -101q-31.5 -49 -76.5 -70.5t-113 -21.5q-64 0 -113 11v152q24 -6 44 -6q23 0 35 8t12 26q0 11 -5.5 27.5t-30.5 82.5l-159 400h237l42 -169q27 -115 42 -210h2q9 78 33 212l31 167h221l-144 -474q-26 -86 -57.5 -135zM83 560v152h182v-152h-182zM329 560v152h182
v-152h-182z" />
    <glyph glyph-name="Amacron" unicode="&#x100;" horiz-adv-x="748" 
d="M263 105l-28 -105h-239l235 712h286l235 -712h-239l-28 105h-222zM427 328q-27 101 -52 221h-2q-25 -120 -52 -221l-13 -50h132zM161 773v127h426v-127h-426z" />
    <glyph glyph-name="amacron" unicode="&#x101;" horiz-adv-x="590" 
d="M485 468.5q63 -55.5 63 -160.5v-156q0 -98 17 -152h-197q-8 27 -8 62h-2q-62 -77 -165 -77q-83 0 -131 45.5t-48 115.5q0 71 49.5 111t162.5 57q54 9 112 13v18q0 60 -48 60t-48 -59h-207q5 78 67 128t190 50q130 0 193 -55.5zM272 215q-46 -12 -46 -54q0 -21 12 -34
t34 -13q31 0 48 21q11 13 14.5 29t3.5 43v18q-37 -2 -66 -10zM73 572v127h426v-127h-426z" />
    <glyph glyph-name="Abreve" unicode="&#x102;" horiz-adv-x="748" 
d="M263 105l-28 -105h-239l235 712h286l235 -712h-239l-28 105h-222zM427 328q-27 101 -52 221h-2q-25 -120 -52 -221l-13 -50h132zM508.5 802.5q-47.5 -41.5 -134.5 -41.5t-134.5 41.5t-49.5 118.5h128q1 -24 14.5 -34.5t41.5 -10.5t41.5 10.5t14.5 34.5h128
q-2 -77 -49.5 -118.5z" />
    <glyph glyph-name="abreve" unicode="&#x103;" horiz-adv-x="590" 
d="M485 468.5q63 -55.5 63 -160.5v-156q0 -98 17 -152h-197q-8 27 -8 62h-2q-62 -77 -165 -77q-83 0 -131 45.5t-48 115.5q0 71 49.5 111t162.5 57q54 9 112 13v18q0 60 -48 60t-48 -59h-207q5 78 67 128t190 50q130 0 193 -55.5zM272 215q-46 -12 -46 -54q0 -21 12 -34
t34 -13q31 0 48 21q11 13 14.5 29t3.5 43v18q-37 -2 -66 -10zM420.5 593.5q-47.5 -41.5 -134.5 -41.5t-134.5 41.5t-49.5 118.5h128q1 -24 14.5 -34.5t41.5 -10.5t41.5 10.5t14.5 34.5h128q-2 -77 -49.5 -118.5z" />
    <glyph glyph-name="Aogonek" unicode="&#x104;" horiz-adv-x="748" 
d="M263 105l-28 -105h-239l235 712h286l235 -712h-239l-28 105h-222zM427 328q-27 101 -52 221h-2q-25 -120 -52 -221l-13 -50h132zM707.5 -33q-12.5 -14 -12.5 -29q0 -26 29 -26q15 0 31 7v-104q-54 -18 -121 -18q-72 0 -108 26t-36 74q0 32 24.5 57t71.5 46h166
q-32 -19 -44.5 -33z" />
    <glyph glyph-name="aogonek" unicode="&#x105;" horiz-adv-x="590" 
d="M568 -81v-104q-54 -18 -121 -18q-72 0 -108 26t-36 74q0 32 24.5 57t71.5 46h-31q-8 27 -8 62h-2q-62 -77 -165 -77q-83 0 -131 45.5t-48 115.5q0 71 49.5 111t162.5 57q54 9 112 13v18q0 60 -48 60t-48 -59h-207q5 78 67 128t190 50q130 0 193 -55.5t63 -160.5v-156
q0 -98 17 -152q-32 -19 -44.5 -33t-12.5 -29q0 -26 29 -26q15 0 31 7zM272 215q-46 -12 -46 -54q0 -21 12 -34t34 -13q31 0 48 21q11 13 14.5 29t3.5 43v18q-37 -2 -66 -10z" />
    <glyph glyph-name="Cacute" unicode="&#x106;" horiz-adv-x="744" 
d="M618 652q91 -76 97 -214h-241q-5 49 -30 74.5t-69 25.5q-50 0 -79.5 -48.5t-29.5 -133.5q0 -84 30 -133t80 -49q42 0 69 28.5t31 78.5h243q-11 -143 -102.5 -220t-240.5 -77q-108 0 -186.5 45t-120 128.5t-41.5 198.5t42 199t120 128.5t185 44.5q152 0 243 -76zM258 760
l81 161h226l-143 -161h-164z" />
    <glyph glyph-name="cacute" unicode="&#x107;" horiz-adv-x="602" 
d="M499.5 465q76.5 -59 86.5 -162h-225q-3 30 -17 45.5t-35 15.5q-29 0 -44 -27t-15 -80q0 -56 15.5 -84t44.5 -28q23 0 36.5 17.5t14.5 51.5h225q-8 -108 -83.5 -169t-197.5 -61q-86 0 -150.5 33t-99.5 95t-35 145q0 81 34.5 141.5t99 93t150.5 32.5q119 0 195.5 -59z
M187 560l81 152h226l-143 -152h-164z" />
    <glyph glyph-name="Ccircumflex" unicode="&#x108;" horiz-adv-x="744" 
d="M618 652q91 -76 97 -214h-241q-5 49 -30 74.5t-69 25.5q-50 0 -79.5 -48.5t-29.5 -133.5q0 -84 30 -133t80 -49q42 0 69 28.5t31 78.5h243q-11 -143 -102.5 -220t-240.5 -77q-108 0 -186.5 45t-120 128.5t-41.5 198.5t42 199t120 128.5t185 44.5q152 0 243 -76zM459 921
l134 -161h-159l-59 84l-59 -84h-159l133 161h169z" />
    <glyph glyph-name="ccircumflex" unicode="&#x109;" horiz-adv-x="602" 
d="M499.5 465q76.5 -59 86.5 -162h-225q-3 30 -17 45.5t-35 15.5q-29 0 -44 -27t-15 -80q0 -56 15.5 -84t44.5 -28q23 0 36.5 17.5t14.5 51.5h225q-8 -108 -83.5 -169t-197.5 -61q-86 0 -150.5 33t-99.5 95t-35 145q0 81 34.5 141.5t99 93t150.5 32.5q119 0 195.5 -59z
M304 635l-52 -75h-159l127 152h169l127 -152h-159z" />
    <glyph glyph-name="Cdotaccent" unicode="&#x10a;" horiz-adv-x="744" 
d="M618 652q91 -76 97 -214h-241q-5 49 -30 74.5t-69 25.5q-50 0 -79.5 -48.5t-29.5 -133.5q0 -84 30 -133t80 -49q42 0 69 28.5t31 78.5h243q-11 -143 -102.5 -220t-240.5 -77q-108 0 -186.5 45t-120 128.5t-41.5 198.5t42 199t120 128.5t185 44.5q152 0 243 -76zM265 769
v152h218v-152h-218z" />
    <glyph glyph-name="cdotaccent" unicode="&#x10b;" horiz-adv-x="602" 
d="M499.5 465q76.5 -59 86.5 -162h-225q-3 30 -17 45.5t-35 15.5q-29 0 -44 -27t-15 -80q0 -56 15.5 -84t44.5 -28q23 0 36.5 17.5t14.5 51.5h225q-8 -108 -83.5 -169t-197.5 -61q-86 0 -150.5 33t-99.5 95t-35 145q0 81 34.5 141.5t99 93t150.5 32.5q119 0 195.5 -59z
M195 560v152h218v-152h-218z" />
    <glyph glyph-name="Ccaron" unicode="&#x10c;" horiz-adv-x="744" 
d="M618 652q91 -76 97 -214h-241q-5 49 -30 74.5t-69 25.5q-50 0 -79.5 -48.5t-29.5 -133.5q0 -84 30 -133t80 -49q42 0 69 28.5t31 78.5h243q-11 -143 -102.5 -220t-240.5 -77q-108 0 -186.5 45t-120 128.5t-41.5 198.5t42 199t120 128.5t185 44.5q152 0 243 -76zM291 760
l-134 161h159l59 -84l59 84h159l-133 -161h-169z" />
    <glyph glyph-name="ccaron" unicode="&#x10d;" horiz-adv-x="602" 
d="M499.5 465q76.5 -59 86.5 -162h-225q-3 30 -17 45.5t-35 15.5q-29 0 -44 -27t-15 -80q0 -56 15.5 -84t44.5 -28q23 0 36.5 17.5t14.5 51.5h225q-8 -108 -83.5 -169t-197.5 -61q-86 0 -150.5 33t-99.5 95t-35 145q0 81 34.5 141.5t99 93t150.5 32.5q119 0 195.5 -59z
M220 560l-127 152h159l52 -75l53 75h159l-127 -152h-169z" />
    <glyph glyph-name="Dcaron" unicode="&#x10e;" horiz-adv-x="759" 
d="M631 619.5q100 -92.5 100 -263.5t-100 -263.5t-284 -92.5h-284v712h284q184 0 284 -92.5zM289 189h50q73 0 114 44t41 123t-41 123t-114 44h-50v-334zM270 760l-134 161h159l59 -84l59 84h159l-133 -161h-169z" />
    <glyph glyph-name="dcaron" unicode="&#x10f;" horiz-adv-x="634" 
d="M379 0v54h-2q-23 -35 -57 -52.5t-74 -17.5q-68 0 -119 33t-79 94t-28 143t27 143t76.5 94t115.5 33q38 0 72 -15t56 -43h2v246h218v-712h-208zM266.5 331.5q-17.5 -28.5 -17.5 -77.5t17.5 -77.5t48.5 -28.5q30 0 48 29t18 77t-18 77t-48 29q-31 0 -48.5 -28.5zM615 533
l19 179h170l-66 -179h-123z" />
    <glyph glyph-name="Dcroat" unicode="&#x110;" horiz-adv-x="764" 
d="M636 619.5q100 -92.5 100 -263.5t-100 -263.5t-284 -92.5h-284v294h-58v130h58v288h284q184 0 284 -92.5zM458 233q41 44 41 123t-41 123t-114 44h-50v-99h127v-130h-127v-105h50q73 0 114 44z" />
    <glyph glyph-name="dcroat" unicode="&#x111;" horiz-adv-x="633" 
d="M587 564v-564h-208v54h-2q-23 -35 -57 -52.5t-74 -17.5q-68 0 -119 33t-79 94t-28 143t27 143t76.5 94t115.5 33q38 0 72 -15t56 -43h2v98h-143v91h143v57h218v-57h65v-91h-65zM363 177q18 29 18 77t-18 77t-48 29q-31 0 -48.5 -28.5t-17.5 -77.5t17.5 -77.5t48.5 -28.5
q30 0 48 29z" />
    <glyph glyph-name="Emacron" unicode="&#x112;" horiz-adv-x="636" 
d="M289 528v-81h279v-179h-279v-84h305v-184h-531v712h526v-184h-300zM116 773v127h426v-127h-426z" />
    <glyph glyph-name="emacron" unicode="&#x113;" horiz-adv-x="605" 
d="M338.5 131q14.5 11 16.5 28h222q-11 -50 -49 -90t-96 -62.5t-127 -22.5q-91 0 -155.5 36t-97 98t-32.5 139q0 76 33 136.5t96.5 95.5t151.5 35q95 0 160.5 -39.5t97.5 -111.5q14 -32 20 -69.5t6 -93.5h-351q3 -51 20.5 -70.5t46.5 -19.5q23 0 37.5 11zM258 377
q-17 -17 -23 -60h131q-2 41 -20 59t-45 18q-26 0 -43 -17zM89 572v127h426v-127h-426z" />
    <glyph glyph-name="Ebreve" unicode="&#x114;" horiz-adv-x="636" 
d="M289 528v-81h279v-179h-279v-84h305v-184h-531v712h526v-184h-300zM463.5 802.5q-47.5 -41.5 -134.5 -41.5t-134.5 41.5t-49.5 118.5h128q1 -24 14.5 -34.5t41.5 -10.5t41.5 10.5t14.5 34.5h128q-2 -77 -49.5 -118.5z" />
    <glyph glyph-name="ebreve" unicode="&#x115;" horiz-adv-x="605" 
d="M338.5 131q14.5 11 16.5 28h222q-11 -50 -49 -90t-96 -62.5t-127 -22.5q-91 0 -155.5 36t-97 98t-32.5 139q0 76 33 136.5t96.5 95.5t151.5 35q95 0 160.5 -39.5t97.5 -111.5q14 -32 20 -69.5t6 -93.5h-351q3 -51 20.5 -70.5t46.5 -19.5q23 0 37.5 11zM258 377
q-17 -17 -23 -60h131q-2 41 -20 59t-45 18q-26 0 -43 -17zM436.5 593.5q-47.5 -41.5 -134.5 -41.5t-134.5 41.5t-49.5 118.5h128q1 -24 14.5 -34.5t41.5 -10.5t41.5 10.5t14.5 34.5h128q-2 -77 -49.5 -118.5z" />
    <glyph glyph-name="Edotaccent" unicode="&#x116;" horiz-adv-x="636" 
d="M289 528v-81h279v-179h-279v-84h305v-184h-531v712h526v-184h-300zM219 769v152h218v-152h-218z" />
    <glyph glyph-name="edotaccent" unicode="&#x117;" horiz-adv-x="605" 
d="M338.5 131q14.5 11 16.5 28h222q-11 -50 -49 -90t-96 -62.5t-127 -22.5q-91 0 -155.5 36t-97 98t-32.5 139q0 76 33 136.5t96.5 95.5t151.5 35q95 0 160.5 -39.5t97.5 -111.5q14 -32 20 -69.5t6 -93.5h-351q3 -51 20.5 -70.5t46.5 -19.5q23 0 37.5 11zM258 377
q-17 -17 -23 -60h131q-2 41 -20 59t-45 18q-26 0 -43 -17zM193 560v152h218v-152h-218z" />
    <glyph glyph-name="Eogonek" unicode="&#x118;" horiz-adv-x="636" 
d="M289 528v-81h279v-179h-279v-84h305v-184h-531v712h526v-184h-300zM550.5 -33q-12.5 -14 -12.5 -29q0 -26 29 -26q15 0 31 7v-104q-54 -18 -121 -18q-72 0 -108 26t-36 74q0 32 24.5 57t71.5 46h166q-32 -19 -44.5 -33z" />
    <glyph glyph-name="eogonek" unicode="&#x119;" horiz-adv-x="605" 
d="M462.5 -12.5q-9.5 -20.5 -9.5 -42.5q0 -17 8 -25t25 -8q16 0 30 7v-104q-54 -18 -121 -18q-72 0 -108 26t-36 74q0 27 16.5 47.5t49.5 38.5v2l-12 -1q-91 0 -155.5 36t-97 98t-32.5 139q0 76 33 136.5t96.5 95.5t151.5 35q95 0 160.5 -39.5t97.5 -111.5q14 -32 20 -69.5
t6 -93.5h-351q3 -51 20.5 -70.5t46.5 -19.5q23 0 37.5 11t16.5 28h222q-16 -65 -80 -127q-25 -24 -34.5 -44.5zM258 377q-17 -17 -23 -60h131q-2 41 -20 59t-45 18q-26 0 -43 -17z" />
    <glyph glyph-name="Ecaron" unicode="&#x11a;" horiz-adv-x="636" 
d="M289 528v-81h279v-179h-279v-84h305v-184h-531v712h526v-184h-300zM245 760l-134 161h159l59 -84l59 84h159l-133 -161h-169z" />
    <glyph glyph-name="ecaron" unicode="&#x11b;" horiz-adv-x="605" 
d="M338.5 131q14.5 11 16.5 28h222q-11 -50 -49 -90t-96 -62.5t-127 -22.5q-91 0 -155.5 36t-97 98t-32.5 139q0 76 33 136.5t96.5 95.5t151.5 35q95 0 160.5 -39.5t97.5 -111.5q14 -32 20 -69.5t6 -93.5h-351q3 -51 20.5 -70.5t46.5 -19.5q23 0 37.5 11zM258 377
q-17 -17 -23 -60h131q-2 41 -20 59t-45 18q-26 0 -43 -17zM218 560l-127 152h159l52 -75l53 75h159l-127 -152h-169z" />
    <glyph glyph-name="Gcircumflex" unicode="&#x11c;" horiz-adv-x="765" 
d="M553 696.5q72 -31.5 114 -89t46 -132.5h-240q-5 36 -27 56.5t-59 20.5q-56 0 -88.5 -53.5t-32.5 -145.5q0 -94 33 -148.5t91 -54.5q47 0 77 30t33 77h-121v160h332v-417h-195v63h-2q-63 -78 -180 -78q-94 0 -163 44.5t-106 127.5t-37 196q0 116 43.5 200.5t124.5 129.5
t192 45q93 0 165 -31.5zM466 921l134 -161h-159l-59 84l-59 -84h-159l133 161h169z" />
    <glyph glyph-name="gcircumflex" unicode="&#x11d;" 
d="M312.5 499.5q39.5 -23.5 60.5 -59.5h2v68h202v-472q0 -121 -71.5 -177.5t-212.5 -56.5q-110 0 -175 43t-76 123h203q2 -20 15 -31.5t36 -11.5q33 0 51 23t18 77v51h-2q-20 -31 -58.5 -50t-79.5 -19q-63 0 -109 32t-71 90t-25 136t25.5 136.5t73.5 90t112 31.5
q42 0 81.5 -23.5zM261 336.5q-18 -26.5 -18 -71.5q0 -44 18 -70t49 -26q29 0 45.5 26t16.5 70q0 45 -17 71.5t-45 26.5q-31 0 -49 -26.5zM296 635l-52 -75h-159l127 152h169l127 -152h-159z" />
    <glyph glyph-name="Gbreve" unicode="&#x11e;" horiz-adv-x="765" 
d="M553 696.5q72 -31.5 114 -89t46 -132.5h-240q-5 36 -27 56.5t-59 20.5q-56 0 -88.5 -53.5t-32.5 -145.5q0 -94 33 -148.5t91 -54.5q47 0 77 30t33 77h-121v160h332v-417h-195v63h-2q-63 -78 -180 -78q-94 0 -163 44.5t-106 127.5t-37 196q0 116 43.5 200.5t124.5 129.5
t192 45q93 0 165 -31.5zM516.5 802.5q-47.5 -41.5 -134.5 -41.5t-134.5 41.5t-49.5 118.5h128q1 -24 14.5 -34.5t41.5 -10.5t41.5 10.5t14.5 34.5h128q-2 -77 -49.5 -118.5z" />
    <glyph glyph-name="gbreve" unicode="&#x11f;" 
d="M312.5 499.5q39.5 -23.5 60.5 -59.5h2v68h202v-472q0 -121 -71.5 -177.5t-212.5 -56.5q-110 0 -175 43t-76 123h203q2 -20 15 -31.5t36 -11.5q33 0 51 23t18 77v51h-2q-20 -31 -58.5 -50t-79.5 -19q-63 0 -109 32t-71 90t-25 136t25.5 136.5t73.5 90t112 31.5
q42 0 81.5 -23.5zM261 336.5q-18 -26.5 -18 -71.5q0 -44 18 -70t49 -26q29 0 45.5 26t16.5 70q0 45 -17 71.5t-45 26.5q-31 0 -49 -26.5zM430.5 593.5q-47.5 -41.5 -134.5 -41.5t-134.5 41.5t-49.5 118.5h128q1 -24 14.5 -34.5t41.5 -10.5t41.5 10.5t14.5 34.5h128
q-2 -77 -49.5 -118.5z" />
    <glyph glyph-name="Gdotaccent" unicode="&#x120;" horiz-adv-x="765" 
d="M553 696.5q72 -31.5 114 -89t46 -132.5h-240q-5 36 -27 56.5t-59 20.5q-56 0 -88.5 -53.5t-32.5 -145.5q0 -94 33 -148.5t91 -54.5q47 0 77 30t33 77h-121v160h332v-417h-195v63h-2q-63 -78 -180 -78q-94 0 -163 44.5t-106 127.5t-37 196q0 116 43.5 200.5t124.5 129.5
t192 45q93 0 165 -31.5zM272 769v152h218v-152h-218z" />
    <glyph glyph-name="gdotaccent" unicode="&#x121;" 
d="M312.5 499.5q39.5 -23.5 60.5 -59.5h2v68h202v-472q0 -121 -71.5 -177.5t-212.5 -56.5q-110 0 -175 43t-76 123h203q2 -20 15 -31.5t36 -11.5q33 0 51 23t18 77v51h-2q-20 -31 -58.5 -50t-79.5 -19q-63 0 -109 32t-71 90t-25 136t25.5 136.5t73.5 90t112 31.5
q42 0 81.5 -23.5zM261 336.5q-18 -26.5 -18 -71.5q0 -44 18 -70t49 -26q29 0 45.5 26t16.5 70q0 45 -17 71.5t-45 26.5q-31 0 -49 -26.5zM187 560v152h218v-152h-218z" />
    <glyph glyph-name="Gcommaaccent" unicode="&#x122;" horiz-adv-x="765" 
d="M553 696.5q72 -31.5 114 -89t46 -132.5h-240q-5 36 -27 56.5t-59 20.5q-56 0 -88.5 -53.5t-32.5 -145.5q0 -94 33 -148.5t91 -54.5q47 0 77 30t33 77h-121v160h332v-417h-195v63h-2q-63 -78 -180 -78q-94 0 -163 44.5t-106 127.5t-37 196q0 116 43.5 200.5t124.5 129.5
t192 45q93 0 165 -31.5zM388 -285h-77l48 112h-48v129h153v-129z" />
    <glyph glyph-name="gcommaaccent" unicode="&#x123;" 
d="M312.5 499.5q39.5 -23.5 60.5 -59.5h2v68h202v-472q0 -121 -71.5 -177.5t-212.5 -56.5q-110 0 -175 43t-76 123h203q2 -20 15 -31.5t36 -11.5q33 0 51 23t18 77v51h-2q-20 -31 -58.5 -50t-79.5 -19q-63 0 -109 32t-71 90t-25 136t25.5 136.5t73.5 90t112 31.5
q42 0 81.5 -23.5zM261 336.5q-18 -26.5 -18 -71.5q0 -44 18 -70t49 -26q29 0 45.5 26t16.5 70q0 45 -17 71.5t-45 26.5q-31 0 -49 -26.5zM372 691v-129h-153v129l76 112h77l-48 -112h48z" />
    <glyph glyph-name="Hcircumflex" unicode="&#x124;" horiz-adv-x="782" 
d="M493 0v270h-204v-270h-226v712h226v-253h204v253h226v-712h-226zM475 921l134 -161h-159l-59 84l-59 -84h-159l133 161h169z" />
    <glyph glyph-name="hcircumflex" unicode="&#x125;" 
d="M267 467q22 26 54.5 41t75.5 15q87 0 136 -54.5t49 -155.5v-313h-218v285q0 71 -45 71q-28 0 -41 -26t-13 -84v-246h-218v712h218v-245h2zM395 921l134 -161h-159l-59 84l-59 -84h-159l133 161h169z" />
    <glyph glyph-name="Hbar" unicode="&#x126;" horiz-adv-x="782" 
d="M719 555v-555h-226v270h-204v-270h-226v555h-48v98h48v59h226v-59h204v59h226v-59h48v-98h-48zM289 555v-96h204v96h-204z" />
    <glyph glyph-name="hbar" unicode="&#x127;" 
d="M533 468.5q49 -54.5 49 -155.5v-313h-218v285q0 71 -45 71q-28 0 -41 -26t-13 -84v-246h-218v564h-66v91h66v57h218v-57h142v-91h-142v-97h2q22 26 54.5 41t75.5 15q87 0 136 -54.5z" />
    <glyph glyph-name="Itilde" unicode="&#x128;" horiz-adv-x="352" 
d="M63 0v712h226v-712h-226zM344.5 803.5q-34.5 -42.5 -98.5 -42.5q-23 0 -42 6t-43 17q-13 6 -25.5 10.5t-23.5 4.5q-31 0 -36 -38h-110q4 76 38.5 118t98.5 42q23 0 42 -5.5t43 -16.5q34 -15 49 -15q17 0 25.5 9t10.5 28h110q-4 -75 -38.5 -117.5z" />
    <glyph glyph-name="itilde" unicode="&#x129;" horiz-adv-x="312" 
d="M47 0v508h218v-508h-218zM306 592.5q-32 -43.5 -91 -43.5q-19 0 -35.5 6t-36.5 17q-15 8 -25.5 12.5t-21.5 4.5q-12 0 -20.5 -10t-9.5 -30h-96q4 77 35.5 120t90.5 43q19 0 35.5 -6t37.5 -17q12 -6 24 -11t22 -5q27 0 30 39h97q-4 -76 -36 -119.5z" />
    <glyph glyph-name="Imacron" unicode="&#x12a;" horiz-adv-x="352" 
d="M63 0v712h226v-712h-226zM-38 773v127h426v-127h-426z" />
    <glyph glyph-name="imacron" unicode="&#x12b;" horiz-adv-x="312" 
d="M47 0v508h218v-508h-218zM-8 569v128h327v-128h-327z" />
    <glyph glyph-name="Ibreve" unicode="&#x12c;" horiz-adv-x="352" 
d="M63 0v712h226v-712h-226zM309.5 802.5q-47.5 -41.5 -134.5 -41.5t-134.5 41.5t-49.5 118.5h128q1 -24 14.5 -34.5t41.5 -10.5t41.5 10.5t14.5 34.5h128q-2 -77 -49.5 -118.5z" />
    <glyph glyph-name="ibreve" unicode="&#x12d;" horiz-adv-x="312" 
d="M47 0v508h218v-508h-218zM279.5 593.5q-42.5 -41.5 -123.5 -41.5t-123.5 41.5t-44.5 118.5h125q1 -25 10.5 -35t32.5 -10q22 0 31.5 10t11.5 35h125q-2 -77 -44.5 -118.5z" />
    <glyph glyph-name="Iogonek" unicode="&#x12e;" horiz-adv-x="352" 
d="M63 0v712h226v-712h-226zM244.5 -33q-12.5 -14 -12.5 -29q0 -26 29 -26q15 0 31 7v-104q-54 -18 -121 -18q-72 0 -108 26t-36 74q0 32 24.5 57t71.5 46h166q-32 -19 -44.5 -33z" />
    <glyph glyph-name="iogonek" unicode="&#x12f;" horiz-adv-x="312" 
d="M47 560v152h218v-152h-218zM268 -81v-104q-54 -18 -121 -18q-72 0 -108 26t-36 74q0 32 24.5 57t71.5 46h-52v508h218v-508q-32 -19 -44.5 -33t-12.5 -29q0 -26 29 -26q15 0 31 7z" />
    <glyph glyph-name="Idotaccent" unicode="&#x130;" horiz-adv-x="352" 
d="M63 0v712h226v-712h-226zM65 769v152h218v-152h-218z" />
    <glyph glyph-name="dotlessi" unicode="&#x131;" horiz-adv-x="312" 
d="M47 0v508h218v-508h-218z" />
    <glyph glyph-name="IJ" unicode="&#x132;" horiz-adv-x="798" 
d="M63 0v712h226v-712h-226zM674 56.5q-66 -67.5 -203 -67.5q-53 0 -104 12v182q22 -4 42 -4q41 0 63.5 13.5t32 44t9.5 85.5v390h226v-444q0 -144 -66 -211.5z" />
    <glyph glyph-name="ij" unicode="&#x133;" horiz-adv-x="623" 
d="M47 560v152h218v-152h-218zM358 560v152h218v-152h-218zM47 0v508h218v-508h-218zM517.5 -137q-58.5 -54 -155.5 -54q-62 0 -103 12v147q11 -3 24 -3q40 0 57.5 21.5t17.5 79.5v442h218v-482q0 -109 -58.5 -163z" />
    <glyph glyph-name="Jcircumflex" unicode="&#x134;" horiz-adv-x="446" 
d="M322 56.5q-66 -67.5 -203 -67.5q-53 0 -104 12v182q22 -4 42 -4q41 0 63.5 13.5t32 44t9.5 85.5v390h226v-444q0 -144 -66 -211.5zM362 921l134 -161h-159l-59 84l-59 -84h-159l133 161h169z" />
    <glyph glyph-name="jcircumflex" unicode="&#x135;" horiz-adv-x="311" 
d="M205.5 -137q-58.5 -54 -155.5 -54q-62 0 -103 12v147q11 -3 24 -3q40 0 57.5 21.5t17.5 79.5v442h218v-482q0 -109 -58.5 -163zM201 564l-46 58l-44 -58h-152l118 148h157l118 -148h-151z" />
    <glyph glyph-name="Kcommaaccent" unicode="&#x136;" horiz-adv-x="743" 
d="M740 0h-281l-168 311h-2v-311h-226v712h226v-294h2l162 294h276l-235 -335zM372 -285h-77l48 112h-48v129h153v-129z" />
    <glyph glyph-name="kcommaaccent" unicode="&#x137;" horiz-adv-x="612" 
d="M356 0l-89 214h-2v-214h-218v712h218v-393h2l79 189h261l-158 -243l173 -265h-266zM309 -285h-77l48 112h-48v129h153v-129z" />
    <glyph glyph-name="kgreenlandic" unicode="&#x138;" horiz-adv-x="612" 
d="M356 0l-89 214h-2v-214h-218v508h218v-189h2l79 189h261l-158 -243l173 -265h-266z" />
    <glyph glyph-name="Lacute" unicode="&#x139;" horiz-adv-x="591" 
d="M584 189v-189h-521v712h226v-523h295zM89 760l81 161h226l-143 -161h-164z" />
    <glyph glyph-name="lacute" unicode="&#x13a;" horiz-adv-x="312" 
d="M47 0v712h218v-712h-218zM48 764l81 152h226l-143 -152h-164z" />
    <glyph glyph-name="Lcommaaccent" unicode="&#x13b;" horiz-adv-x="591" 
d="M584 189v-189h-521v712h226v-523h295zM324 -285h-77l48 112h-48v129h153v-129z" />
    <glyph glyph-name="lcommaaccent" unicode="&#x13c;" horiz-adv-x="312" 
d="M47 0v712h218v-712h-218zM157 -285h-77l48 112h-48v129h153v-129z" />
    <glyph glyph-name="Lcaron" unicode="&#x13d;" horiz-adv-x="591" 
d="M584 189v-189h-521v712h226v-523h295zM318 473l19 239h170l-66 -239h-123z" />
    <glyph glyph-name="lcaron" unicode="&#x13e;" horiz-adv-x="312" 
d="M47 0v712h218v-712h-218zM293 533l19 179h170l-66 -179h-123z" />
    <glyph glyph-name="Ldot" unicode="&#x13f;" horiz-adv-x="679" 
d="M584 189v-189h-521v712h226v-523h295zM410 338v217h222v-217h-222z" />
    <glyph glyph-name="ldot" unicode="&#x140;" horiz-adv-x="572" 
d="M47 0v712h218v-712h-218zM331 247v217h222v-217h-222z" />
    <glyph glyph-name="Lslash" unicode="&#x141;" horiz-adv-x="612" 
d="M605 0h-521v275l-75 -45v157l75 45v280h226v-172l153 91v-158l-153 -90v-194h295v-189z" />
    <glyph glyph-name="lslash" unicode="&#x142;" horiz-adv-x="392" 
d="M305 353v-353h-218v250l-77 -46v149l77 46v313h218v-211l77 46v-148z" />
    <glyph glyph-name="Nacute" unicode="&#x143;" horiz-adv-x="852" 
d="M458 0l-97 265q-49 132 -88 267h-2q8 -125 8 -282v-250h-216v712h331l97 -265q49 -132 88 -267h2q-8 125 -8 282v250h216v-712h-331zM309 760l81 161h226l-143 -161h-164z" />
    <glyph glyph-name="nacute" unicode="&#x144;" 
d="M533 468.5q49 -54.5 49 -155.5v-313h-218v285q0 71 -45 71q-28 0 -41 -26t-13 -84v-246h-218v508h202v-55h2q54 70 146 70q87 0 136 -54.5zM198 560l81 152h226l-143 -152h-164z" />
    <glyph glyph-name="Ncommaaccent" unicode="&#x145;" horiz-adv-x="852" 
d="M458 0l-97 265q-49 132 -88 267h-2q8 -125 8 -282v-250h-216v712h331l97 -265q49 -132 88 -267h2q-8 125 -8 282v250h216v-712h-331zM426 -285h-77l48 112h-48v129h153v-129z" />
    <glyph glyph-name="ncommaaccent" unicode="&#x146;" 
d="M533 468.5q49 -54.5 49 -155.5v-313h-218v285q0 71 -45 71q-28 0 -41 -26t-13 -84v-246h-218v508h202v-55h2q54 70 146 70q87 0 136 -54.5zM315 -285h-77l48 112h-48v129h153v-129z" />
    <glyph glyph-name="Ncaron" unicode="&#x147;" horiz-adv-x="852" 
d="M458 0l-97 265q-49 132 -88 267h-2q8 -125 8 -282v-250h-216v712h331l97 -265q49 -132 88 -267h2q-8 125 -8 282v250h216v-712h-331zM342 760l-134 161h159l59 -84l59 84h159l-133 -161h-169z" />
    <glyph glyph-name="ncaron" unicode="&#x148;" 
d="M533 468.5q49 -54.5 49 -155.5v-313h-218v285q0 71 -45 71q-28 0 -41 -26t-13 -84v-246h-218v508h202v-55h2q54 70 146 70q87 0 136 -54.5zM231 560l-127 152h159l52 -75l53 75h159l-127 -152h-169z" />
    <glyph glyph-name="napostrophe" unicode="&#x149;" horiz-adv-x="833" 
d="M132 365h-108l84 162h-60v185h189v-185zM742 468.5q49 -54.5 49 -155.5v-313h-218v285q0 71 -45 71q-28 0 -41 -26t-13 -84v-246h-218v508h202v-55h2q54 70 146 70q87 0 136 -54.5z" />
    <glyph glyph-name="Eng" unicode="&#x14a;" horiz-adv-x="787" 
d="M664.5 -144q-59.5 -52 -158.5 -52q-62 0 -98 11v140q9 -3 24 -3q33 0 48.5 10.5t15.5 35.5q0 17 -7 34t-36 72l-90 174q-61 122 -94 211h-2q12 -123 12 -249v-240h-216v712h278l82 -161q49 -92 95 -212h2q-12 125 -12 249v124h216v-697q0 -107 -59.5 -159z" />
    <glyph glyph-name="eng" unicode="&#x14b;" 
d="M525 479q29 -29 43 -70t14 -112v-269q0 -109 -58.5 -163t-155.5 -54q-61 0 -103 12v147q11 -3 24 -3q40 0 57.5 21.5t17.5 79.5v207q0 29 -4 45t-14 26q-12 11 -27 11q-28 0 -41 -25.5t-13 -86.5v-245h-218v508h222v-37h2q56 53 128 53q79 0 126 -45z" />
    <glyph glyph-name="Omacron" unicode="&#x14c;" horiz-adv-x="776" 
d="M577.5 682q81.5 -46 126 -130t44.5 -196t-44.5 -196t-126 -130t-189.5 -46t-189.5 46t-126 130t-44.5 196t44.5 196t126 130t189.5 46t189.5 -46zM297.5 491.5q-30.5 -46.5 -30.5 -135.5t30.5 -135.5t90.5 -46.5t90.5 46.5t30.5 135.5t-30.5 135.5t-90.5 46.5
t-90.5 -46.5zM175 773v127h426v-127h-426z" />
    <glyph glyph-name="omacron" unicode="&#x14d;" horiz-adv-x="632" 
d="M472 491q67 -33 103.5 -94t36.5 -143t-36.5 -143t-103.5 -94t-156 -33t-156 33t-103.5 94t-36.5 143t36.5 143t103.5 94t156 33t156 -33zM266.5 335q-16.5 -28 -16.5 -81t16.5 -81t49.5 -28t49.5 28t16.5 81t-16.5 81t-49.5 28t-49.5 -28zM103 572v127h426v-127h-426z
" />
    <glyph glyph-name="Obreve" unicode="&#x14e;" horiz-adv-x="776" 
d="M577.5 682q81.5 -46 126 -130t44.5 -196t-44.5 -196t-126 -130t-189.5 -46t-189.5 46t-126 130t-44.5 196t44.5 196t126 130t189.5 46t189.5 -46zM297.5 491.5q-30.5 -46.5 -30.5 -135.5t30.5 -135.5t90.5 -46.5t90.5 46.5t30.5 135.5t-30.5 135.5t-90.5 46.5
t-90.5 -46.5zM522.5 802.5q-47.5 -41.5 -134.5 -41.5t-134.5 41.5t-49.5 118.5h128q1 -24 14.5 -34.5t41.5 -10.5t41.5 10.5t14.5 34.5h128q-2 -77 -49.5 -118.5z" />
    <glyph glyph-name="obreve" unicode="&#x14f;" horiz-adv-x="632" 
d="M472 491q67 -33 103.5 -94t36.5 -143t-36.5 -143t-103.5 -94t-156 -33t-156 33t-103.5 94t-36.5 143t36.5 143t103.5 94t156 33t156 -33zM266.5 335q-16.5 -28 -16.5 -81t16.5 -81t49.5 -28t49.5 28t16.5 81t-16.5 81t-49.5 28t-49.5 -28zM450.5 593.5
q-47.5 -41.5 -134.5 -41.5t-134.5 41.5t-49.5 118.5h128q1 -24 14.5 -34.5t41.5 -10.5t41.5 10.5t14.5 34.5h128q-2 -77 -49.5 -118.5z" />
    <glyph glyph-name="Ohungarumlaut" unicode="&#x150;" horiz-adv-x="776" 
d="M577.5 682q81.5 -46 126 -130t44.5 -196t-44.5 -196t-126 -130t-189.5 -46t-189.5 46t-126 130t-44.5 196t44.5 196t126 130t189.5 46t189.5 -46zM297.5 491.5q-30.5 -46.5 -30.5 -135.5t30.5 -135.5t90.5 -46.5t90.5 46.5t30.5 135.5t-30.5 135.5t-90.5 46.5
t-90.5 -46.5zM173 760l101 161h192l-143 -161h-150zM409 760l101 161h192l-143 -161h-150z" />
    <glyph glyph-name="ohungarumlaut" unicode="&#x151;" horiz-adv-x="632" 
d="M472 491q67 -33 103.5 -94t36.5 -143t-36.5 -143t-103.5 -94t-156 -33t-156 33t-103.5 94t-36.5 143t36.5 143t103.5 94t156 33t156 -33zM266.5 335q-16.5 -28 -16.5 -81t16.5 -81t49.5 -28t49.5 28t16.5 81t-16.5 81t-49.5 28t-49.5 -28zM91 560l101 152h192l-143 -152
h-150zM327 560l101 152h192l-143 -152h-150z" />
    <glyph glyph-name="OE" unicode="&#x152;" horiz-adv-x="1023" 
d="M676 528v-81h278v-179h-278v-84h305v-184h-563q-123 0 -210.5 42t-133.5 122t-46 192t46 192t133.5 122t210.5 42h561v-184h-303zM304.5 483q-39.5 -45 -39.5 -127t39.5 -127t115.5 -45h40v344h-40q-76 0 -115.5 -45z" />
    <glyph glyph-name="oe" unicode="&#x153;" horiz-adv-x="958" 
d="M691.5 131q14.5 11 16.5 28h222q-11 -50 -49 -90t-96 -62.5t-127 -22.5q-109 0 -178 61q-69 -61 -174 -61q-86 0 -151 33t-100 94t-35 143t35 143t100 94t151 33q105 0 173 -60q68 60 175 60q95 0 160.5 -39.5t97.5 -111.5q14 -32 20 -69.5t6 -93.5h-351
q3 -51 20.5 -70.5t46.5 -19.5q23 0 37.5 11zM611 377q-17 -17 -23 -60h131q-2 41 -20 59t-45 18q-26 0 -43 -17zM365.5 173q16.5 28 16.5 81t-16.5 81t-49.5 28t-49.5 -28t-16.5 -81t16.5 -81t49.5 -28t49.5 28z" />
    <glyph glyph-name="Racute" unicode="&#x154;" horiz-adv-x="724" 
d="M608.5 659.5q64.5 -52.5 64.5 -153.5q0 -65 -35 -109t-99 -65v-2q39 -14 63.5 -47.5t51.5 -105.5l64 -177h-238l-48 145q-18 50 -41.5 70t-67.5 20h-34v-235h-226v712h344q137 0 201.5 -52.5zM289 394h76q90 0 90 79q0 74 -94 74h-72v-153zM233 760l81 161h226l-143 -161
h-164z" />
    <glyph glyph-name="racute" unicode="&#x155;" horiz-adv-x="460" 
d="M456 510v-185q-27 6 -65 6q-61 0 -93.5 -37t-32.5 -106v-188h-218v508h203v-67h2q28 39 65 57t87 18q28 0 52 -6zM124 560l81 152h226l-143 -152h-164z" />
    <glyph glyph-name="Rcommaaccent" unicode="&#x156;" horiz-adv-x="724" 
d="M608.5 659.5q64.5 -52.5 64.5 -153.5q0 -65 -35 -109t-99 -65v-2q39 -14 63.5 -47.5t51.5 -105.5l64 -177h-238l-48 145q-18 50 -41.5 70t-67.5 20h-34v-235h-226v712h344q137 0 201.5 -52.5zM289 394h76q90 0 90 79q0 74 -94 74h-72v-153zM369 -285h-77l48 112h-48v129
h153v-129z" />
    <glyph glyph-name="rcommaaccent" unicode="&#x157;" horiz-adv-x="460" 
d="M456 510v-185q-27 6 -65 6q-61 0 -93.5 -37t-32.5 -106v-188h-218v508h203v-67h2q28 39 65 57t87 18q28 0 52 -6zM157 -285h-77l48 112h-48v129h153v-129z" />
    <glyph glyph-name="Rcaron" unicode="&#x158;" horiz-adv-x="724" 
d="M608.5 659.5q64.5 -52.5 64.5 -153.5q0 -65 -35 -109t-99 -65v-2q39 -14 63.5 -47.5t51.5 -105.5l64 -177h-238l-48 145q-18 50 -41.5 70t-67.5 20h-34v-235h-226v712h344q137 0 201.5 -52.5zM289 394h76q90 0 90 79q0 74 -94 74h-72v-153zM266 760l-134 161h159l59 -84
l59 84h159l-133 -161h-169z" />
    <glyph glyph-name="rcaron" unicode="&#x159;" horiz-adv-x="460" 
d="M456 510v-185q-27 6 -65 6q-61 0 -93.5 -37t-32.5 -106v-188h-218v508h203v-67h2q28 39 65 57t87 18q28 0 52 -6zM157 560l-127 152h159l52 -75l53 75h159l-127 -152h-169z" />
    <glyph glyph-name="Sacute" unicode="&#x15a;" horiz-adv-x="676" 
d="M560 669q79 -59 79 -172h-241q0 31 -18 47t-52 16q-31 0 -47.5 -11.5t-16.5 -32.5q0 -16 10.5 -26t33.5 -17.5t72 -19.5q87 -21 143 -45.5t91.5 -70.5t35.5 -120q0 -110 -83 -171.5t-233 -61.5t-233.5 64.5t-83.5 180.5h248q0 -36 18.5 -53t59.5 -17q32 0 49.5 12
t17.5 33q0 18 -10.5 28.5t-32.5 18t-71 20.5q-88 24 -141 47t-87.5 66.5t-34.5 114.5q0 107 80.5 168t228.5 61q139 0 218 -59zM225 760l81 161h226l-143 -161h-164z" />
    <glyph glyph-name="sacute" unicode="&#x15b;" horiz-adv-x="577" 
d="M471 483q65 -41 65 -125h-206q0 47 -45 47q-37 0 -37 -27q0 -10 7 -17t26.5 -14t60.5 -18q64 -17 108.5 -36t74.5 -53t30 -86q0 -79 -67 -124.5t-192 -45.5q-138 0 -206 44.5t-68 136.5h217q0 -30 13 -42.5t44 -12.5q21 0 32.5 7.5t11.5 20.5q0 12 -9.5 20t-34 16
t-73.5 21q-58 15 -97 31.5t-65 49t-26 84.5q0 75 61.5 119.5t191.5 44.5q118 0 183 -41zM171 560l81 152h226l-143 -152h-164z" />
    <glyph glyph-name="Scircumflex" unicode="&#x15c;" horiz-adv-x="676" 
d="M560 669q79 -59 79 -172h-241q0 31 -18 47t-52 16q-31 0 -47.5 -11.5t-16.5 -32.5q0 -16 10.5 -26t33.5 -17.5t72 -19.5q87 -21 143 -45.5t91.5 -70.5t35.5 -120q0 -110 -83 -171.5t-233 -61.5t-233.5 64.5t-83.5 180.5h248q0 -36 18.5 -53t59.5 -17q32 0 49.5 12
t17.5 33q0 18 -10.5 28.5t-32.5 18t-71 20.5q-88 24 -141 47t-87.5 66.5t-34.5 114.5q0 107 80.5 168t228.5 61q139 0 218 -59zM426 921l134 -161h-159l-59 84l-59 -84h-159l133 161h169z" />
    <glyph glyph-name="scircumflex" unicode="&#x15d;" horiz-adv-x="577" 
d="M471 483q65 -41 65 -125h-206q0 47 -45 47q-37 0 -37 -27q0 -10 7 -17t26.5 -14t60.5 -18q64 -17 108.5 -36t74.5 -53t30 -86q0 -79 -67 -124.5t-192 -45.5q-138 0 -206 44.5t-68 136.5h217q0 -30 13 -42.5t44 -12.5q21 0 32.5 7.5t11.5 20.5q0 12 -9.5 20t-34 16
t-73.5 21q-58 15 -97 31.5t-65 49t-26 84.5q0 75 61.5 119.5t191.5 44.5q118 0 183 -41zM288 635l-52 -75h-159l127 152h169l127 -152h-159z" />
    <glyph glyph-name="Scedilla" unicode="&#x15e;" horiz-adv-x="676" 
d="M577.5 54q-72.5 -61 -205.5 -69l-26 -43q18 5 33 5q46 0 69.5 -21.5t23.5 -60.5q0 -49 -36.5 -79.5t-103.5 -30.5q-34 0 -69 9.5t-64 27.5l34 70q51 -23 83 -23q34 0 34 22q0 11 -9 17.5t-26 6.5t-29 -7l-47 36l42 72q-126 11 -195 74.5t-69 168.5h248q0 -36 18.5 -53
t59.5 -17q32 0 49.5 12t17.5 33q0 18 -10.5 28.5t-32.5 18t-71 20.5q-88 24 -141 47t-87.5 66.5t-34.5 114.5q0 107 80.5 168t228.5 61q139 0 218 -59t79 -172h-241q0 31 -18 47t-52 16q-31 0 -47.5 -11.5t-16.5 -32.5q0 -16 10.5 -26t33.5 -17.5t72 -19.5q87 -21 143 -45.5
t91.5 -70.5t35.5 -120q0 -102 -72.5 -163z" />
    <glyph glyph-name="scedilla" unicode="&#x15f;" horiz-adv-x="577" 
d="M497.5 37q-57.5 -45 -164.5 -52l-26 -43q18 5 33 5q46 0 69.5 -21.5t23.5 -60.5q0 -49 -36.5 -79.5t-103.5 -30.5q-34 0 -69 9.5t-64 27.5l34 70q51 -23 83 -23q34 0 34 22q0 11 -9 17.5t-26 6.5t-29 -7l-47 36l42 72q-111 8 -165.5 52.5t-54.5 126.5h217q0 -30 13 -42.5
t44 -12.5q21 0 32.5 7.5t11.5 20.5q0 12 -9.5 20t-34 16t-73.5 21q-58 15 -97 31.5t-65 49t-26 84.5q0 75 61.5 119.5t191.5 44.5q118 0 183 -41t65 -125h-206q0 47 -45 47q-37 0 -37 -27q0 -10 7 -17t26.5 -14t60.5 -18q64 -17 108.5 -36t74.5 -53t30 -86q0 -72 -57.5 -117
z" />
    <glyph glyph-name="Scaron" unicode="&#x160;" horiz-adv-x="676" 
d="M560 669q79 -59 79 -172h-241q0 31 -18 47t-52 16q-31 0 -47.5 -11.5t-16.5 -32.5q0 -16 10.5 -26t33.5 -17.5t72 -19.5q87 -21 143 -45.5t91.5 -70.5t35.5 -120q0 -110 -83 -171.5t-233 -61.5t-233.5 64.5t-83.5 180.5h248q0 -36 18.5 -53t59.5 -17q32 0 49.5 12
t17.5 33q0 18 -10.5 28.5t-32.5 18t-71 20.5q-88 24 -141 47t-87.5 66.5t-34.5 114.5q0 107 80.5 168t228.5 61q139 0 218 -59zM258 760l-134 161h159l59 -84l59 84h159l-133 -161h-169z" />
    <glyph glyph-name="scaron" unicode="&#x161;" horiz-adv-x="577" 
d="M471 483q65 -41 65 -125h-206q0 47 -45 47q-37 0 -37 -27q0 -10 7 -17t26.5 -14t60.5 -18q64 -17 108.5 -36t74.5 -53t30 -86q0 -79 -67 -124.5t-192 -45.5q-138 0 -206 44.5t-68 136.5h217q0 -30 13 -42.5t44 -12.5q21 0 32.5 7.5t11.5 20.5q0 12 -9.5 20t-34 16
t-73.5 21q-58 15 -97 31.5t-65 49t-26 84.5q0 75 61.5 119.5t191.5 44.5q118 0 183 -41zM204 560l-127 152h159l52 -75l53 75h159l-127 -152h-169z" />
    <glyph glyph-name="Tcommaaccent" unicode="&#x162;" horiz-adv-x="650" 
d="M438 523v-523h-226v523h-205v189h636v-189h-205zM325 -285h-77l48 112h-48v129h153v-129z" />
    <glyph glyph-name="tcommaaccent" unicode="&#x163;" horiz-adv-x="419" 
d="M394 164v-160q-21 -6 -50.5 -10t-52.5 -4q-111 0 -162 42.5t-51 134.5v187h-74v154h74v147h218v-147h93v-154h-93v-122q0 -39 14 -56t47 -17q20 0 37 5zM312 -44v-129l-76 -112h-77l48 112h-48v129h153z" />
    <glyph glyph-name="Tcaron" unicode="&#x164;" horiz-adv-x="650" 
d="M438 523v-523h-226v523h-205v189h636v-189h-205zM241 760l-134 161h159l59 -84l59 84h159l-133 -161h-169z" />
    <glyph glyph-name="tcaron" unicode="&#x165;" horiz-adv-x="419" 
d="M394 164v-160q-21 -6 -50.5 -10t-52.5 -4q-111 0 -162 42.5t-51 134.5v187h-74v154h74v147h218v-147h93v-154h-93v-122q0 -39 14 -56t47 -17q20 0 37 5zM323 533l19 179h170l-66 -179h-123z" />
    <glyph glyph-name="Tbar" unicode="&#x166;" horiz-adv-x="650" 
d="M438 376h125v-130h-125v-246h-226v246h-125v130h125v147h-205v189h636v-189h-205v-147z" />
    <glyph glyph-name="tbar" unicode="&#x167;" horiz-adv-x="419" 
d="M394 154v-150q-21 -6 -50.5 -10t-52.5 -4q-111 0 -162 42.5t-51 134.5v42h-68v101h68v54h-74v144h74v147h218v-147h93v-144h-93v-54h86v-101h-86q2 -32 16.5 -46t44.5 -14q20 0 37 5z" />
    <glyph glyph-name="Utilde" unicode="&#x168;" horiz-adv-x="738" 
d="M599.5 63q-81.5 -79 -230.5 -79t-230.5 79t-81.5 222v427h226v-425q0 -52 22 -79.5t64 -27.5t64 27.5t22 79.5v425h226v-427q0 -143 -81.5 -222zM537.5 803.5q-34.5 -42.5 -98.5 -42.5q-23 0 -42 6t-43 17q-13 6 -25.5 10.5t-23.5 4.5q-31 0 -36 -38h-110q4 76 38.5 118
t98.5 42q23 0 42 -5.5t43 -16.5q34 -15 49 -15q17 0 25.5 9t10.5 28h110q-4 -75 -38.5 -117.5z" />
    <glyph glyph-name="utilde" unicode="&#x169;" 
d="M91 39.5q-49 54.5 -49 155.5v313h218v-285q0 -71 45 -71q28 0 41 26t13 84v246h218v-508h-202v55h-2q-54 -70 -146 -70q-87 0 -136 54.5zM482.5 594.5q-34.5 -42.5 -98.5 -42.5q-23 0 -42 6t-43 17q-13 6 -25.5 10.5t-23.5 4.5q-31 0 -36 -38h-110q4 76 38.5 118t98.5 42
q23 0 42 -5.5t43 -16.5q34 -15 49 -15q17 0 25.5 9t10.5 28h110q-4 -75 -38.5 -117.5z" />
    <glyph glyph-name="Umacron" unicode="&#x16a;" horiz-adv-x="738" 
d="M599.5 63q-81.5 -79 -230.5 -79t-230.5 79t-81.5 222v427h226v-425q0 -52 22 -79.5t64 -27.5t64 27.5t22 79.5v425h226v-427q0 -143 -81.5 -222zM155 773v127h426v-127h-426z" />
    <glyph glyph-name="umacron" unicode="&#x16b;" 
d="M91 39.5q-49 54.5 -49 155.5v313h218v-285q0 -71 45 -71q28 0 41 26t13 84v246h218v-508h-202v55h-2q-54 -70 -146 -70q-87 0 -136 54.5zM100 572v127h426v-127h-426z" />
    <glyph glyph-name="Ubreve" unicode="&#x16c;" horiz-adv-x="738" 
d="M599.5 63q-81.5 -79 -230.5 -79t-230.5 79t-81.5 222v427h226v-425q0 -52 22 -79.5t64 -27.5t64 27.5t22 79.5v425h226v-427q0 -143 -81.5 -222zM502.5 802.5q-47.5 -41.5 -134.5 -41.5t-134.5 41.5t-49.5 118.5h128q1 -24 14.5 -34.5t41.5 -10.5t41.5 10.5t14.5 34.5
h128q-2 -77 -49.5 -118.5z" />
    <glyph glyph-name="ubreve" unicode="&#x16d;" 
d="M91 39.5q-49 54.5 -49 155.5v313h218v-285q0 -71 45 -71q28 0 41 26t13 84v246h218v-508h-202v55h-2q-54 -70 -146 -70q-87 0 -136 54.5zM447.5 593.5q-47.5 -41.5 -134.5 -41.5t-134.5 41.5t-49.5 118.5h128q1 -24 14.5 -34.5t41.5 -10.5t41.5 10.5t14.5 34.5h128
q-2 -77 -49.5 -118.5z" />
    <glyph glyph-name="Uring" unicode="&#x16e;" horiz-adv-x="738" 
d="M599.5 63q-81.5 -79 -230.5 -79t-230.5 79t-81.5 222v427h226v-425q0 -52 22 -79.5t64 -27.5t64 27.5t22 79.5v425h226v-427q0 -143 -81.5 -222zM456.5 969q36.5 -37 36.5 -89q0 -34 -16.5 -62.5t-45.5 -45.5t-63 -17t-63 17t-46 46t-17 62q0 34 17 63t46 46t63 17
q52 0 88.5 -37zM325.5 922.5q-17.5 -17.5 -17.5 -42.5t17.5 -42.5t42.5 -17.5t42.5 17.5t17.5 42.5t-17.5 42.5t-42.5 17.5t-42.5 -17.5z" />
    <glyph glyph-name="uring" unicode="&#x16f;" 
d="M91 39.5q-49 54.5 -49 155.5v313h218v-285q0 -71 45 -71q28 0 41 26t13 84v246h218v-508h-202v55h-2q-54 -70 -146 -70q-87 0 -136 54.5zM401.5 760q36.5 -37 36.5 -89q0 -34 -16.5 -62.5t-45.5 -45.5t-63 -17t-63 17t-46 46t-17 62q0 34 17 63t46 46t63 17
q52 0 88.5 -37zM270.5 713.5q-17.5 -17.5 -17.5 -42.5t17.5 -42.5t42.5 -17.5t42.5 17.5t17.5 42.5t-17.5 42.5t-42.5 17.5t-42.5 -17.5z" />
    <glyph glyph-name="Uhungarumlaut" unicode="&#x170;" horiz-adv-x="738" 
d="M599.5 63q-81.5 -79 -230.5 -79t-230.5 79t-81.5 222v427h226v-425q0 -52 22 -79.5t64 -27.5t64 27.5t22 79.5v425h226v-427q0 -143 -81.5 -222zM153 760l101 161h192l-143 -161h-150zM389 760l101 161h192l-143 -161h-150z" />
    <glyph glyph-name="uhungarumlaut" unicode="&#x171;" 
d="M91 39.5q-49 54.5 -49 155.5v313h218v-285q0 -71 45 -71q28 0 41 26t13 84v246h218v-508h-202v55h-2q-54 -70 -146 -70q-87 0 -136 54.5zM88 560l101 152h192l-143 -152h-150zM324 560l101 152h192l-143 -152h-150z" />
    <glyph glyph-name="Uogonek" unicode="&#x172;" horiz-adv-x="738" 
d="M652.5 140q-28.5 -61 -86.5 -110q-33 -28 -47 -50.5t-14 -43.5q0 -29 30 -29q17 0 31 7v-99q-53 -17 -113 -17q-70 0 -104.5 25t-34.5 72q0 28 16.5 49t48.5 38v2h-10q-149 0 -230.5 79t-81.5 222v427h226v-425q0 -52 22 -79.5t64 -27.5t64 27.5t22 79.5v425h226v-427
q0 -84 -28.5 -145z" />
    <glyph glyph-name="uogonek" unicode="&#x173;" 
d="M581 -81v-104q-54 -18 -121 -18q-72 0 -108 26t-36 74q0 32 24.5 57t71.5 46h-37v55h-2q-54 -70 -146 -70q-87 0 -136 54.5t-49 155.5v313h218v-285q0 -71 45 -71q28 0 41 26t13 84v246h218v-508h1q-32 -19 -44.5 -33t-12.5 -29q0 -26 29 -26q15 0 31 7z" />
    <glyph glyph-name="Wcircumflex" unicode="&#x174;" horiz-adv-x="1060" 
d="M612 0l-48 290q-24 153 -33 250h-2q-9 -97 -33 -250l-48 -290h-309l-134 712h218l40 -252q20 -131 36 -278h2q15 142 39 278l44 252h292l44 -252q24 -136 39 -278h2q16 147 36 278l40 252h218l-134 -712h-309zM614 921l134 -161h-159l-59 84l-59 -84h-159l133 161h169z
" />
    <glyph glyph-name="wcircumflex" unicode="&#x175;" horiz-adv-x="924" 
d="M525 0l-32 172q-19 100 -30 207h-2q-11 -107 -30 -207l-32 -172h-281l-115 508h208l22 -168q15 -103 21 -206h2q13 100 37 211l36 163h266l36 -163q24 -111 37 -211h2q6 103 21 206l22 168h208l-115 -508h-281zM462 635l-52 -75h-159l127 152h169l127 -152h-159z" />
    <glyph glyph-name="Ycircumflex" unicode="&#x176;" horiz-adv-x="714" 
d="M470 0h-226v252l-245 460h247l50 -120q39 -94 60 -174h2q21 80 60 174l50 120h247l-245 -460v-252zM441 921l134 -161h-159l-59 84l-59 -84h-159l133 161h169z" />
    <glyph glyph-name="ycircumflex" unicode="&#x177;" horiz-adv-x="583" 
d="M391.5 -101q-31.5 -49 -76.5 -70.5t-113 -21.5q-64 0 -113 11v152q24 -6 44 -6q23 0 35 8t12 26q0 11 -5.5 27.5t-30.5 82.5l-159 400h237l42 -169q27 -115 42 -210h2q9 78 33 212l31 167h221l-144 -474q-26 -86 -57.5 -135zM297 635l-52 -75h-159l127 152h169l127 -152
h-159z" />
    <glyph glyph-name="Ydieresis" unicode="&#x178;" horiz-adv-x="714" 
d="M470 0h-226v252l-245 460h247l50 -120q39 -94 60 -174h2q21 80 60 174l50 120h247l-245 -460v-252zM143 769v152h182v-152h-182zM389 769v152h182v-152h-182z" />
    <glyph glyph-name="Zacute" unicode="&#x179;" horiz-adv-x="616" 
d="M292 186v-2h301v-184h-573v193l286 333v2h-273v184h544v-193zM189 760l81 161h226l-143 -161h-164z" />
    <glyph glyph-name="zacute" unicode="&#x17a;" horiz-adv-x="539" 
d="M306 164v-2h202v-162h-477v166l196 178v2h-190v162h465v-166zM161 560l81 152h226l-143 -152h-164z" />
    <glyph glyph-name="Zdotaccent" unicode="&#x17b;" horiz-adv-x="616" 
d="M292 186v-2h301v-184h-573v193l286 333v2h-273v184h544v-193zM196 769v152h218v-152h-218z" />
    <glyph glyph-name="zdotaccent" unicode="&#x17c;" horiz-adv-x="539" 
d="M306 164v-2h202v-162h-477v166l196 178v2h-190v162h465v-166zM169 560v152h218v-152h-218z" />
    <glyph glyph-name="Zcaron" unicode="&#x17d;" horiz-adv-x="616" 
d="M292 186v-2h301v-184h-573v193l286 333v2h-273v184h544v-193zM222 760l-134 161h159l59 -84l59 84h159l-133 -161h-169z" />
    <glyph glyph-name="zcaron" unicode="&#x17e;" horiz-adv-x="539" 
d="M306 164v-2h202v-162h-477v166l196 178v2h-190v162h465v-166zM194 560l-127 152h159l52 -75l53 75h159l-127 -152h-169z" />
    <glyph glyph-name="longs" unicode="&#x17f;" horiz-adv-x="400" 
d="M395 712v-145q-8 2 -24 2q-37 0 -54.5 -15t-17.5 -50v-504h-218v354h-75v154h75v20q0 97 55 146t160 49q51 0 99 -11z" />
    <glyph glyph-name="uni018F" unicode="&#x18f;" horiz-adv-x="798" 
d="M597 680.5q85 -47.5 129 -131t44 -191.5q0 -106 -44.5 -191t-128.5 -134t-199 -49q-113 0 -196.5 45t-128.5 128.5t-45 196.5q0 42 4 63h502q-6 77 -43.5 110.5t-95.5 33.5q-44 0 -72 -20.5t-34 -53.5h-243q15 68 62 122.5t120.5 86.5t164.5 32q119 0 204 -47.5zM531 274
h-264q8 -64 43.5 -95t87.5 -31q112 0 133 126z" />
    <glyph glyph-name="florin" unicode="&#x192;" horiz-adv-x="684" 
d="M652 715v-145q-26 6 -60 6q-37 0 -58.5 -17t-29.5 -51l-10 -40h112v-146h-147l-72 -286q-58 -229 -266 -229q-50 0 -89 11v145q26 -6 52 -6q42 0 65 21.5t37 77.5l68 266h-100v146h135l16 60q25 99 88 148.5t168 49.5q52 0 91 -11z" />
    <glyph glyph-name="Aringacute" unicode="&#x1fa;" horiz-adv-x="748" 
d="M263 105l-28 -105h-239l235 712h286l235 -712h-239l-28 105h-222zM427 328q-27 101 -52 221h-2q-25 -120 -52 -221l-13 -50h132zM462.5 947q36.5 -37 36.5 -89q0 -34 -16.5 -62.5t-45.5 -45.5t-63 -17t-63 17t-46 46t-17 62q0 34 17 63t46 46t63 17q52 0 88.5 -37z
M331.5 900.5q-17.5 -17.5 -17.5 -42.5t17.5 -42.5t42.5 -17.5t42.5 17.5t17.5 42.5t-17.5 42.5t-42.5 17.5t-42.5 -17.5zM257 1005l81 161h226l-143 -161h-164z" />
    <glyph glyph-name="aringacute" unicode="&#x1fb;" horiz-adv-x="590" 
d="M485 468.5q63 -55.5 63 -160.5v-156q0 -98 17 -152h-197q-8 27 -8 62h-2q-62 -77 -165 -77q-83 0 -131 45.5t-48 115.5q0 71 49.5 111t162.5 57q54 9 112 13v18q0 60 -48 60t-48 -59h-207q5 78 67 128t190 50q130 0 193 -55.5zM272 215q-46 -12 -46 -54q0 -21 12 -34
t34 -13q31 0 48 21q11 13 14.5 29t3.5 43v18q-37 -2 -66 -10zM374.5 759q36.5 -37 36.5 -89q0 -34 -16.5 -62.5t-45.5 -45.5t-63 -17t-63 17t-46 46t-17 62q0 34 17 63t46 46t63 17q52 0 88.5 -37zM243.5 712.5q-17.5 -17.5 -17.5 -42.5t17.5 -42.5t42.5 -17.5t42.5 17.5
t17.5 42.5t-17.5 42.5t-42.5 17.5t-42.5 -17.5zM169 817l81 152h226l-143 -152h-164z" />
    <glyph glyph-name="AEacute" unicode="&#x1fc;" horiz-adv-x="1001" 
d="M959 0h-433l-17 123h-227l-47 -123h-241l290 712h674v-184h-295l12 -81h257v-179h-233l13 -84h247v-184zM452 526h-14l-86 -224h132zM396 760l81 161h226l-143 -161h-164z" />
    <glyph glyph-name="aeacute" unicode="&#x1fd;" horiz-adv-x="926" 
d="M659.5 131q14.5 11 16.5 28h222q-11 -50 -49 -90t-96 -62.5t-127 -22.5q-63 0 -112.5 20.5t-84.5 57.5q-58 -78 -192 -78q-108 0 -165.5 45.5t-57.5 116.5q0 68 36.5 106t107 53t184.5 15h9v25q0 31 -12.5 45.5t-41.5 14.5q-54 0 -54 -59h-207q5 78 68.5 128t193.5 50
q106 0 167 -45q64 45 157 45q95 0 160.5 -39.5t97.5 -111.5q14 -32 20 -69.5t6 -93.5h-351q3 -51 20.5 -70.5t46.5 -19.5q23 0 37.5 11zM557 317h130q-2 41 -20 59t-45 18q-55 0 -65 -77zM336 222q-56 0 -83 -16.5t-27 -46.5q0 -23 12 -37t36 -14q34 0 54 20
q12 13 17.5 31.5t5.5 48.5v14h-15zM344 560l81 152h226l-143 -152h-164z" />
    <glyph glyph-name="Oslashacute" unicode="&#x1fe;" horiz-adv-x="776" 
d="M723 507.5q25 -68.5 25 -151.5q0 -112 -44.5 -196t-126 -130t-189.5 -46q-101 0 -176 39l-60 -82l-88 62l61 83q-47 49 -72 118t-25 152q0 112 44.5 196t126 130t189.5 46q99 0 177 -39l60 82l88 -62l-61 -84q46 -49 71 -117.5zM262 274l190 260q-27 15 -64 15
q-65 0 -99.5 -49.5t-34.5 -143.5q0 -44 8 -82zM488.5 212.5q34.5 49.5 34.5 143.5q0 44 -8 82l-190 -260q27 -15 63 -15q66 0 100.5 49.5zM271 760l81 161h226l-143 -161h-164z" />
    <glyph glyph-name="oslashacute" unicode="&#x1ff;" horiz-adv-x="632" 
d="M589 371.5q23 -52.5 23 -117.5q0 -82 -36.5 -143t-103.5 -94t-156 -33q-64 0 -123 19l-53 -73l-76 55l46 64q-43 36 -66.5 88.5t-23.5 116.5q0 82 36.5 143t103.5 94t156 33q66 0 123 -19l53 73l77 -55l-47 -64q44 -35 67 -87.5zM255 342q-21 -32 -21 -88q0 -24 5 -47
l114 158q-17 9 -37 9q-40 0 -61 -32zM377 166.5q21 32.5 21 87.5q0 30 -5 47l-113 -158q15 -9 36 -9q40 0 61 32.5zM199 560l81 152h226l-143 -152h-164z" />
    <glyph glyph-name="Scommaaccent" unicode="&#x218;" horiz-adv-x="676" 
d="M560 669q79 -59 79 -172h-241q0 31 -18 47t-52 16q-31 0 -47.5 -11.5t-16.5 -32.5q0 -16 10.5 -26t33.5 -17.5t72 -19.5q87 -21 143 -45.5t91.5 -70.5t35.5 -120q0 -110 -83 -171.5t-233 -61.5t-233.5 64.5t-83.5 180.5h248q0 -36 18.5 -53t59.5 -17q32 0 49.5 12
t17.5 33q0 18 -10.5 28.5t-32.5 18t-71 20.5q-88 24 -141 47t-87.5 66.5t-34.5 114.5q0 107 80.5 168t228.5 61q139 0 218 -59zM335 -285h-77l48 112h-48v129h153v-129z" />
    <glyph glyph-name="scommaaccent" unicode="&#x219;" horiz-adv-x="577" 
d="M471 483q65 -41 65 -125h-206q0 47 -45 47q-37 0 -37 -27q0 -10 7 -17t26.5 -14t60.5 -18q64 -17 108.5 -36t74.5 -53t30 -86q0 -79 -67 -124.5t-192 -45.5q-138 0 -206 44.5t-68 136.5h217q0 -30 13 -42.5t44 -12.5q21 0 32.5 7.5t11.5 20.5q0 12 -9.5 20t-34 16
t-73.5 21q-58 15 -97 31.5t-65 49t-26 84.5q0 75 61.5 119.5t191.5 44.5q118 0 183 -41zM296 -285h-77l48 112h-48v129h153v-129z" />
    <glyph glyph-name="uni021A" unicode="&#x21a;" horiz-adv-x="650" 
d="M438 523v-523h-226v523h-205v189h636v-189h-205zM325 -285h-77l48 112h-48v129h153v-129z" />
    <glyph glyph-name="uni021B" unicode="&#x21b;" horiz-adv-x="419" 
d="M394 164v-160q-21 -6 -50.5 -10t-52.5 -4q-111 0 -162 42.5t-51 134.5v187h-74v154h74v147h218v-147h93v-154h-93v-122q0 -39 14 -56t47 -17q20 0 37 5zM236 -285h-77l48 112h-48v129h153v-129z" />
    <glyph glyph-name="uni0237" unicode="&#x237;" horiz-adv-x="311" 
d="M205.5 -137q-58.5 -54 -155.5 -54q-62 0 -103 12v147q11 -3 24 -3q40 0 57.5 21.5t17.5 79.5v442h218v-482q0 -109 -58.5 -163z" />
    <glyph glyph-name="uni0259" unicode="&#x259;" horiz-adv-x="605" 
d="M455.5 489q64.5 -35 97 -96t32.5 -136q0 -77 -33.5 -139t-97.5 -98t-152 -36q-86 0 -149.5 32.5t-98 93t-34.5 141.5q0 29 3 47h348q-3 51 -20.5 70.5t-46.5 19.5q-20 0 -33.5 -11t-15.5 -28h-222q11 50 48.5 90t94.5 62.5t124 22.5q91 0 155.5 -35zM346.5 131
q17.5 17 23.5 60h-132q2 -41 19.5 -59t44.5 -18t44.5 17z" />
    <glyph glyph-name="afii57929" unicode="&#x2bc;" horiz-adv-x="289" 
d="M132 365h-108l84 162h-60v185h189v-185z" />
    <glyph glyph-name="circumflex" unicode="&#x2c6;" horiz-adv-x="523" 
d="M261 635l-52 -75h-159l127 152h169l127 -152h-159z" />
    <glyph glyph-name="caron" unicode="&#x2c7;" horiz-adv-x="523" 
d="M177 560l-127 152h159l52 -75l53 75h159l-127 -152h-169z" />
    <glyph glyph-name="uni02C9" unicode="&#x2c9;" horiz-adv-x="526" 
d="M50 572v127h426v-127h-426z" />
    <glyph glyph-name="breve" unicode="&#x2d8;" horiz-adv-x="468" 
d="M368.5 593.5q-47.5 -41.5 -134.5 -41.5t-134.5 41.5t-49.5 118.5h128q1 -24 14.5 -34.5t41.5 -10.5t41.5 10.5t14.5 34.5h128q-2 -77 -49.5 -118.5z" />
    <glyph glyph-name="dotaccent" unicode="&#x2d9;" horiz-adv-x="318" 
d="M50 560v152h218v-152h-218z" />
    <glyph glyph-name="ring" unicode="&#x2da;" horiz-adv-x="351" 
d="M264.5 760q36.5 -37 36.5 -89q0 -34 -16.5 -62.5t-45.5 -45.5t-63 -17t-63 17t-46 46t-17 62q0 34 17 63t46 46t63 17q52 0 88.5 -37zM133.5 713.5q-17.5 -17.5 -17.5 -42.5t17.5 -42.5t42.5 -17.5t42.5 17.5t17.5 42.5t-17.5 42.5t-42.5 17.5t-42.5 -17.5z" />
    <glyph glyph-name="ogonek" unicode="&#x2db;" horiz-adv-x="365" 
d="M267.5 -33q-12.5 -14 -12.5 -29q0 -26 29 -26q15 0 31 7v-104q-54 -18 -121 -18q-72 0 -108 26t-36 74q0 32 24.5 57t71.5 46h166q-32 -19 -44.5 -33z" />
    <glyph glyph-name="tilde" unicode="&#x2dc;" horiz-adv-x="517" 
d="M428.5 594.5q-34.5 -42.5 -98.5 -42.5q-23 0 -42 6t-43 17q-13 6 -25.5 10.5t-23.5 4.5q-31 0 -36 -38h-110q4 76 38.5 118t98.5 42q23 0 42 -5.5t43 -16.5q34 -15 49 -15q17 0 25.5 9t10.5 28h110q-4 -75 -38.5 -117.5z" />
    <glyph glyph-name="hungarumlaut" unicode="&#x2dd;" horiz-adv-x="628" 
d="M50 560l101 152h192l-143 -152h-150zM286 560l101 152h192l-143 -152h-150z" />
    <glyph glyph-name="uni0312" unicode="&#x312;" horiz-adv-x="0" 
d="M203 691v-129h-153v129l76 112h77l-48 -112h48z" />
    <glyph glyph-name="uni0326" unicode="&#x326;" horiz-adv-x="0" 
d="M127 -285h-77l48 112h-48v129h153v-129z" />
    <glyph glyph-name="uni0333" unicode="&#x333;" horiz-adv-x="0" 
d="M-500 -160v110h500v-110h-500zM-500 -340v110h500v-110h-500z" />
    <glyph glyph-name="uni0374" unicode="&#x374;" horiz-adv-x="272" 
d="M30 508l22 204h190l-75 -204h-137z" />
    <glyph glyph-name="uni0375" unicode="&#x375;" horiz-adv-x="272" 
d="M30 -92l22 204h190l-75 -204h-137z" />
    <glyph glyph-name="uni037E" unicode="&#x37e;" horiz-adv-x="307" 
d="M42 291v217h222v-217h-222zM141 -191h-127l98 191h-70v217h223v-217z" />
    <glyph glyph-name="tonos" unicode="&#x384;" horiz-adv-x="339" 
d="M50 562l27 170h212l-79 -170h-160z" />
    <glyph glyph-name="dieresistonos" unicode="&#x385;" horiz-adv-x="648" 
d="M230 562l27 170h172l-59 -170h-140zM50 570v142h162v-142h-162zM436 570v142h162v-142h-162z" />
    <glyph glyph-name="Alphatonos" unicode="&#x386;" horiz-adv-x="748" 
d="M263 105l-28 -105h-239l235 712h286l235 -712h-239l-28 105h-222zM427 328q-27 101 -52 221h-2q-25 -120 -52 -221l-13 -50h132zM-57 502l27 210h212l-79 -210h-160z" />
    <glyph glyph-name="anoteleia" unicode="&#x387;" horiz-adv-x="306" 
d="M42 291v217h222v-217h-222z" />
    <glyph glyph-name="Epsilontonos" unicode="&#x388;" horiz-adv-x="636" 
d="M289 528v-81h279v-179h-279v-84h305v-184h-531v712h526v-184h-300zM-192 502l27 210h212l-79 -210h-160z" />
    <glyph glyph-name="Etatonos" unicode="&#x389;" horiz-adv-x="782" 
d="M493 0v270h-204v-270h-226v712h226v-253h204v253h226v-712h-226zM-192 502l27 210h212l-79 -210h-160z" />
    <glyph glyph-name="Iotatonos" unicode="&#x38a;" horiz-adv-x="352" 
d="M63 0v712h226v-712h-226zM-192 502l27 210h212l-79 -210h-160z" />
    <glyph glyph-name="Omicrontonos" unicode="&#x38c;" horiz-adv-x="776" 
d="M577.5 682q81.5 -46 126 -130t44.5 -196t-44.5 -196t-126 -130t-189.5 -46t-189.5 46t-126 130t-44.5 196t44.5 196t126 130t189.5 46t189.5 -46zM297.5 491.5q-30.5 -46.5 -30.5 -135.5t30.5 -135.5t90.5 -46.5t90.5 46.5t30.5 135.5t-30.5 135.5t-90.5 46.5
t-90.5 -46.5zM-144 502l27 210h212l-79 -210h-160z" />
    <glyph glyph-name="Upsilontonos" unicode="&#x38e;" horiz-adv-x="714" 
d="M470 0h-226v252l-245 460h247l50 -120q39 -94 60 -174h2q21 80 60 174l50 120h247l-245 -460v-252zM-249 502l27 210h212l-79 -210h-160z" />
    <glyph glyph-name="Omegatonos" unicode="&#x38f;" horiz-adv-x="772" 
d="M643 650q96 -78 96 -228q0 -72 -31 -126.5t-86 -104.5v-2h128v-189h-325v195q35 36 55 81t20 106q0 75 -31.5 115t-82.5 40t-82.5 -40t-31.5 -115q0 -61 20 -106t55 -81v-195h-325v189h128v2q-55 50 -86 104.5t-31 126.5q0 150 96 228t257 78t257 -78zM-160 502l27 210
h212l-79 -210h-160z" />
    <glyph glyph-name="iotadieresistonos" unicode="&#x390;" horiz-adv-x="369" 
d="M274 169.5q14 -18.5 47 -18.5q22 0 37 5v-154q-22 -5 -51.5 -8.5t-51.5 -3.5q-111 0 -162 48.5t-51 153.5v316h218v-279q0 -41 14 -59.5zM57 562l27 170h172l-59 -170h-140zM-123 570v142h162v-142h-162zM263 570v142h162v-142h-162z" />
    <glyph glyph-name="Alpha" unicode="&#x391;" horiz-adv-x="748" 
d="M263 105l-28 -105h-239l235 712h286l235 -712h-239l-28 105h-222zM427 328q-27 101 -52 221h-2q-25 -120 -52 -221l-13 -50h132z" />
    <glyph glyph-name="Beta" unicode="&#x392;" horiz-adv-x="691" 
d="M581 662.5q65 -49.5 65 -134.5q0 -62 -27.5 -100t-87.5 -57v-2q64 -15 99 -58.5t35 -107.5q0 -94 -72.5 -148.5t-200.5 -54.5h-329v712h324q129 0 194 -49.5zM279 435h63q43 0 63.5 14.5t20.5 43.5t-19.5 43.5t-59.5 14.5h-68v-116zM279 162h66q46 0 65.5 14t19.5 46
t-21 47t-67 15h-63v-122z" />
    <glyph glyph-name="Gamma" unicode="&#x393;" horiz-adv-x="541" 
d="M63 712h471v-189h-245v-523h-226v712z" />
    <glyph glyph-name="Delta" unicode="&#x394;" horiz-adv-x="746" 
d="M-4 0l239 712h276l239 -712h-754zM427 328q-32 123 -53 223h-2q-21 -100 -53 -223l-41 -156h191z" />
    <glyph glyph-name="Epsilon" unicode="&#x395;" horiz-adv-x="636" 
d="M289 528v-81h279v-179h-279v-84h305v-184h-531v712h526v-184h-300z" />
    <glyph glyph-name="Zeta" unicode="&#x396;" horiz-adv-x="616" 
d="M292 186v-2h301v-184h-573v193l286 333v2h-273v184h544v-193z" />
    <glyph glyph-name="Eta" unicode="&#x397;" horiz-adv-x="782" 
d="M493 0v270h-204v-270h-226v712h226v-253h204v253h226v-712h-226z" />
    <glyph glyph-name="Theta" unicode="&#x398;" horiz-adv-x="776" 
d="M577.5 682q81.5 -46 126 -130t44.5 -196t-44.5 -196t-126 -130t-189.5 -46t-189.5 46t-126 130t-44.5 196t44.5 196t126 130t189.5 46t189.5 -46zM287.5 499.5q-34.5 -49.5 -34.5 -143.5t34.5 -143.5t100.5 -49.5t100.5 49.5t34.5 143.5t-34.5 143.5t-100.5 49.5
t-100.5 -49.5zM279 288v136h218v-136h-218z" />
    <glyph glyph-name="Iota" unicode="&#x399;" horiz-adv-x="352" 
d="M63 0v712h226v-712h-226z" />
    <glyph glyph-name="Kappa" unicode="&#x39a;" horiz-adv-x="743" 
d="M740 0h-281l-168 311h-2v-311h-226v712h226v-294h2l162 294h276l-235 -335z" />
    <glyph glyph-name="Lambda" unicode="&#x39b;" horiz-adv-x="735" 
d="M496 0l-82 322q-25 109 -46 219h-2q-20 -111 -46 -219l-81 -322h-243l226 712h290l227 -712h-243z" />
    <glyph glyph-name="Mu" unicode="&#x39c;" horiz-adv-x="1071" 
d="M800 0v335q0 130 6 257h-2q-21 -119 -52 -255l-77 -337h-279l-77 337q-31 136 -52 255h-2q6 -127 6 -257v-335h-208v712h359l67 -295q29 -124 46 -262h2q14 118 45 262l68 295h358v-712h-208z" />
    <glyph glyph-name="Nu" unicode="&#x39d;" horiz-adv-x="852" 
d="M458 0l-97 265q-49 132 -88 267h-2q8 -125 8 -282v-250h-216v712h331l97 -265q49 -132 88 -267h2q-8 125 -8 282v250h216v-712h-331z" />
    <glyph glyph-name="Xi" unicode="&#x39e;" horiz-adv-x="678" 
d="M56 524v188h566v-188h-566zM73 265v188h532v-188h-532zM42 0v188h594v-188h-594z" />
    <glyph glyph-name="Omicron" unicode="&#x39f;" horiz-adv-x="776" 
d="M577.5 682q81.5 -46 126 -130t44.5 -196t-44.5 -196t-126 -130t-189.5 -46t-189.5 46t-126 130t-44.5 196t44.5 196t126 130t189.5 46t189.5 -46zM297.5 491.5q-30.5 -46.5 -30.5 -135.5t30.5 -135.5t90.5 -46.5t90.5 46.5t30.5 135.5t-30.5 135.5t-90.5 46.5
t-90.5 -46.5z" />
    <glyph glyph-name="Pi" unicode="&#x3a0;" horiz-adv-x="772" 
d="M483 0v523h-194v-523h-226v712h646v-712h-226z" />
    <glyph glyph-name="Rho" unicode="&#x3a1;" horiz-adv-x="691" 
d="M599.5 646q73.5 -66 73.5 -184t-73.5 -184t-219.5 -66h-91v-212h-226v712h317q146 0 219.5 -66zM289 386h59q92 0 92 76t-92 76h-59v-152z" />
    <glyph glyph-name="Sigma" unicode="&#x3a3;" horiz-adv-x="610" 
d="M284 523v-2l138 -159l-148 -171v-2h313v-189h-561v193l136 170l-125 156v193h536v-189h-289z" />
    <glyph glyph-name="Tau" unicode="&#x3a4;" horiz-adv-x="650" 
d="M438 523v-523h-226v523h-205v189h636v-189h-205z" />
    <glyph glyph-name="Upsilon" unicode="&#x3a5;" horiz-adv-x="714" 
d="M470 0h-226v252l-245 460h247l50 -120q39 -94 60 -174h2q21 80 60 174l50 120h247l-245 -460v-252z" />
    <glyph glyph-name="Phi" unicode="&#x3a6;" horiz-adv-x="914" 
d="M802 590.5q84 -81.5 84 -232.5q0 -150 -84.5 -231.5t-237.5 -92.5v-70h-214v70q-153 11 -237.5 92.5t-84.5 231.5q0 151 84 232.5t238 93.5v64h214v-64q154 -12 238 -93.5zM281.5 475q-27.5 -41 -27.5 -117q0 -75 28 -115.5t78 -45.5v325q-51 -6 -78.5 -47zM632 242.5
q28 40.5 28 115.5q0 76 -27.5 117t-78.5 47v-325q50 5 78 45.5z" />
    <glyph glyph-name="Chi" unicode="&#x3a7;" horiz-adv-x="748" 
d="M749 0h-268l-106 233h-2l-106 -233h-268l218 372l-202 340h261l97 -221h2l97 221h261l-202 -340z" />
    <glyph glyph-name="Psi" unicode="&#x3a8;" horiz-adv-x="898" 
d="M790.5 238q-80.5 -80 -232.5 -91v-147h-218v147q-153 11 -233 90.5t-80 226.5v248h218v-232q0 -78 22 -113t73 -40v385h218v-385q50 5 72.5 40t22.5 113v232h218v-248q0 -146 -80.5 -226z" />
    <glyph glyph-name="Omega" unicode="&#x3a9;" horiz-adv-x="772" 
d="M643 650q96 -78 96 -228q0 -72 -31 -126.5t-86 -104.5v-2h128v-189h-325v195q35 36 55 81t20 106q0 75 -31.5 115t-82.5 40t-82.5 -40t-31.5 -115q0 -61 20 -106t55 -81v-195h-325v189h128v2q-55 50 -86 104.5t-31 126.5q0 150 96 228t257 78t257 -78z" />
    <glyph glyph-name="Iotadieresis" unicode="&#x3aa;" horiz-adv-x="352" 
d="M63 0v712h226v-712h-226zM-39 764v152h182v-152h-182zM207 764v152h182v-152h-182z" />
    <glyph glyph-name="Upsilondieresis" unicode="&#x3ab;" horiz-adv-x="714" 
d="M470 0h-226v252l-245 460h247l50 -120q39 -94 60 -174h2q21 80 60 174l50 120h247l-245 -460v-252zM143 769v152h182v-152h-182zM389 769v152h182v-152h-182z" />
    <glyph glyph-name="alphatonos" unicode="&#x3ac;" horiz-adv-x="672" 
d="M320 506.5q34 -17.5 57 -52.5h2q2 31 6 54h220q-10 -72 -10 -180v-130q0 -27 10 -38t30 -11q13 0 25 3v-145q-54 -19 -124 -19q-106 0 -147 66h-2q-25 -35 -61.5 -52.5t-79.5 -17.5q-68 0 -119 33t-79 94t-28 143t28 143t79 94t119 33q40 0 74 -17.5zM266.5 331.5
q-17.5 -28.5 -17.5 -77.5t17.5 -77.5t48.5 -28.5q30 0 48 29t18 77t-18 77t-48 29q-31 0 -48.5 -28.5zM237 562l27 170h212l-79 -170h-160z" />
    <glyph glyph-name="epsilontonos" unicode="&#x3ad;" horiz-adv-x="565" 
d="M418 500.5q58 -23.5 89.5 -67.5t31.5 -103h-186q0 24 -16.5 38.5t-49.5 14.5q-55 0 -55 -35q0 -34 54 -34h49v-113h-49q-30 0 -45.5 -10t-15.5 -27q0 -18 15.5 -28t42.5 -10q67 0 67 53h199q0 -96 -70.5 -145.5t-196.5 -49.5q-258 0 -258 160q0 46 22.5 75.5t71.5 46.5v2
q-44 15 -63 39.5t-19 64.5q0 74 68 113t180 39q76 0 134 -23.5zM199 562l27 170h212l-79 -170h-160z" />
    <glyph glyph-name="etatonos" unicode="&#x3ae;" horiz-adv-x="655" 
d="M564 468.5q49 -54.5 49 -155.5v-498h-218v470q0 71 -45 71q-28 0 -41 -26t-13 -84v-246h-218v300q0 31 -9.5 44.5t-31.5 13.5q-14 0 -25 -3v145q59 19 117 19t91.5 -18.5t50.5 -59.5h2q27 39 66.5 60.5t88.5 21.5q87 0 136 -54.5zM203 562l27 170h212l-79 -170h-160z" />
    <glyph glyph-name="iotatonos" unicode="&#x3af;" horiz-adv-x="369" 
d="M274 169.5q14 -18.5 47 -18.5q22 0 37 5v-154q-22 -5 -51.5 -8.5t-51.5 -3.5q-111 0 -162 48.5t-51 153.5v316h218v-279q0 -41 14 -59.5zM71 562l27 170h212l-79 -170h-160z" />
    <glyph glyph-name="upsilondieresistonos" unicode="&#x3b0;" horiz-adv-x="634" 
d="M250 477q41 -42 41 -143v-129q0 -60 37 -60q58 0 58 137q0 127 -31 226h211q36 -106 36 -244q0 -136 -67 -208t-203 -72q-129 0 -194.5 51.5t-65.5 161.5v90q0 40 -10 55.5t-31 15.5q-14 0 -25 -3v145q59 19 117 19q86 0 127 -42zM217 562l27 170h172l-59 -170h-140z
M37 570v142h162v-142h-162zM423 570v142h162v-142h-162z" />
    <glyph glyph-name="alpha" unicode="&#x3b1;" horiz-adv-x="672" 
d="M320 506.5q34 -17.5 57 -52.5h2q2 31 6 54h220q-10 -72 -10 -180v-130q0 -27 10 -38t30 -11q13 0 25 3v-145q-54 -19 -124 -19q-106 0 -147 66h-2q-25 -35 -61.5 -52.5t-79.5 -17.5q-68 0 -119 33t-79 94t-28 143t28 143t79 94t119 33q40 0 74 -17.5zM266.5 331.5
q-17.5 -28.5 -17.5 -77.5t17.5 -77.5t48.5 -28.5q30 0 48 29t18 77t-18 77t-48 29q-31 0 -48.5 -28.5z" />
    <glyph glyph-name="beta" unicode="&#x3b2;" horiz-adv-x="629" 
d="M454 705.5q60 -22.5 92.5 -64.5t32.5 -99q0 -62 -28.5 -101t-87.5 -60v-2q75 -22 111.5 -66t36.5 -116q0 -96 -63 -151.5t-173 -55.5q-68 0 -108 26h-2v-201h-218v673q0 112 72 176t196 64q79 0 139 -22.5zM278 553.5q-13 -18.5 -13 -59.5v-289q0 -26 13.5 -40.5
t41.5 -14.5q32 0 50 17.5t18 52.5t-22 52.5t-62 17.5h-9v168h9q33 0 51.5 16t18.5 45q0 26 -14 39.5t-39 13.5q-30 0 -43 -18.5z" />
    <glyph glyph-name="gamma" unicode="&#x3b3;" horiz-adv-x="606" 
d="M540 250.5q-47 -114.5 -140 -245.5v-11q0 -37 -3 -89.5t-8 -89.5h-218q5 37 8 89.5t3 89.5q0 56 -17.5 134.5t-47.5 145.5q-22 50 -42.5 67t-45.5 17q-9 0 -23 -2v148q49 17 104 17q44 0 74 -11.5t53.5 -41t44.5 -83.5q29 -76 44 -149h2q38 128 48 272h226
q-15 -143 -62 -257.5z" />
    <glyph glyph-name="delta" unicode="&#x3b4;" horiz-adv-x="616" 
d="M534 703v-160q-43 15 -91 23t-86 8q-20 0 -28 -4.5t-8 -13.5q0 -11 19.5 -22.5t67.5 -32.5q99 -44 143.5 -105t44.5 -162q0 -76 -36 -132.5t-101 -87t-151 -30.5t-151 30t-101 86t-36 132q0 74 42 126.5t121 74.5v2q-47 34 -69.5 67t-22.5 75q0 145 237 145
q111 0 206 -19zM265.5 314.5q-15.5 -27.5 -15.5 -74.5t15.5 -74.5t42.5 -27.5t42.5 27.5t15.5 74.5t-15.5 74.5t-42.5 27.5t-42.5 -27.5z" />
    <glyph glyph-name="epsilon" unicode="&#x3b5;" horiz-adv-x="565" 
d="M418 500.5q58 -23.5 89.5 -67.5t31.5 -103h-186q0 24 -16.5 38.5t-49.5 14.5q-55 0 -55 -35q0 -34 54 -34h49v-113h-49q-30 0 -45.5 -10t-15.5 -27q0 -18 15.5 -28t42.5 -10q67 0 67 53h199q0 -96 -70.5 -145.5t-196.5 -49.5q-258 0 -258 160q0 46 22.5 75.5t71.5 46.5v2
q-44 15 -63 39.5t-19 64.5q0 74 68 113t180 39q76 0 134 -23.5z" />
    <glyph glyph-name="zeta" unicode="&#x3b6;" horiz-adv-x="519" 
d="M314.5 413.5q-65.5 -75.5 -65.5 -169.5q0 -49 27.5 -73t99.5 -37q76 -13 105 -52t29 -107q0 -29 -8.5 -60.5t-23.5 -59.5h-170q12 31 12 61q0 33 -18 50.5t-70 23.5q-116 14 -163.5 62t-47.5 142q0 104 66.5 197t189.5 165v2h-231v154h464v-154q-130 -69 -195.5 -144.5z
" />
    <glyph glyph-name="eta" unicode="&#x3b7;" horiz-adv-x="655" 
d="M564 468.5q49 -54.5 49 -155.5v-498h-218v470q0 71 -45 71q-28 0 -41 -26t-13 -84v-246h-218v300q0 31 -9.5 44.5t-31.5 13.5q-14 0 -25 -3v145q59 19 117 19t91.5 -18.5t50.5 -59.5h2q27 39 66.5 60.5t88.5 21.5q87 0 136 -54.5z" />
    <glyph glyph-name="theta" unicode="&#x3b8;" horiz-adv-x="668" 
d="M563 632.5q79 -95.5 79 -276.5t-79 -276.5t-229 -95.5t-229 95.5t-79 276.5t79 276.5t229 95.5t229 -95.5zM251 426h167q-13 147 -84 147t-83 -147zM418 286h-167q12 -147 83 -147t84 147z" />
    <glyph glyph-name="iota" unicode="&#x3b9;" horiz-adv-x="369" 
d="M274 169.5q14 -18.5 47 -18.5q22 0 37 5v-154q-22 -5 -51.5 -8.5t-51.5 -3.5q-111 0 -162 48.5t-51 153.5v316h218v-279q0 -41 14 -59.5z" />
    <glyph glyph-name="kappa" unicode="&#x3ba;" horiz-adv-x="632" 
d="M298 127l-33 -38v-89h-218v508h218v-179h2l64 78q51 62 99 86.5t111 24.5q34 0 66 -10v-177q-18 6 -41 6q-33 0 -65 -14.5t-67 -45.5l208 -277h-257z" />
    <glyph glyph-name="lambda" unicode="&#x3bb;" horiz-adv-x="651" 
d="M301 707.5q44 -17.5 79 -63t67 -130.5l97 -262q23 -61 42.5 -82t44.5 -21q6 0 14 2v-151q-41 -12 -86 -12q-55 0 -90.5 14t-62 49.5t-48.5 103.5q-23 74 -37 127h-2q-23 -80 -53 -163l-42 -119h-234l222 499q-10 31 -29.5 45t-50.5 14q-26 0 -47 -8v158q43 17 107 17
q65 0 109 -17.5z" />
    <glyph glyph-name="mu" unicode="&#x3bc;" horiz-adv-x="653" 
d="M590 160q10 -11 30 -11q13 0 25 3v-145q-54 -19 -124 -19q-99 0 -139 64h-2q-29 -57 -88 -57q-16 0 -27 4v-184h-218v693h218v-276q0 -42 11 -61t34 -19q26 0 39 22t13 76v258h218v-310q0 -27 10 -38z" />
    <glyph glyph-name="nu" unicode="&#x3bd;" horiz-adv-x="598" 
d="M219 476.5q42 -42.5 54 -135.5l25 -197h2q36 116 51 190t15 136q0 20 -3 38h215q6 -27 6 -52q0 -57 -12 -112t-41 -133t-88 -211h-302l-64 281q-10 45 -22 61t-32 16q-9 0 -21 -2v145q44 18 102 18q73 0 115 -42.5z" />
    <glyph glyph-name="xi" unicode="&#x3be;" horiz-adv-x="524" 
d="M389 558q-63 0 -91.5 -18.5t-28.5 -54.5q0 -55 85 -55h119v-154h-111q-57 0 -85 -18t-28 -48q0 -34 27.5 -51t99.5 -28q77 -11 106.5 -49.5t29.5 -106.5q0 -29 -8.5 -60.5t-23.5 -59.5h-170q12 31 12 61q0 33 -25 52t-93 27q-97 11 -140 53.5t-43 119.5q0 72 39 118.5
t118 61.5v2q-49 10 -76.5 39.5t-27.5 73.5q0 72 64 93v2h-92v154h466v-154h-123z" />
    <glyph glyph-name="omicron" unicode="&#x3bf;" horiz-adv-x="632" 
d="M472 491q67 -33 103.5 -94t36.5 -143t-36.5 -143t-103.5 -94t-156 -33t-156 33t-103.5 94t-36.5 143t36.5 143t103.5 94t156 33t156 -33zM266.5 335q-16.5 -28 -16.5 -81t16.5 -81t49.5 -28t49.5 28t16.5 81t-16.5 81t-49.5 28t-49.5 -28z" />
    <glyph glyph-name="pi" unicode="&#x3c0;" horiz-adv-x="701" 
d="M610 354v-154q0 -29 9 -39.5t31 -10.5q17 0 26 3v-151q-21 -6 -51.5 -9.5t-59.5 -3.5q-91 0 -132 41t-41 139v185h-90v-354h-218v354h-78v154h680v-154h-76z" />
    <glyph glyph-name="rho" unicode="&#x3c1;" horiz-adv-x="630" 
d="M475.5 490q64.5 -34 99.5 -97t35 -148q0 -78 -30.5 -136.5t-86.5 -90.5t-131 -32q-30 0 -56.5 7.5t-43.5 21.5h-2v-200h-218v439q0 82 35 143t99 94t149 33q86 0 150.5 -34zM266 331q-18 -29 -18 -77t18 -77t48 -29q31 0 48.5 28.5t17.5 77.5t-17.5 77.5t-48.5 28.5
q-30 0 -48 -29z" />
    <glyph glyph-name="sigma1" unicode="&#x3c2;" horiz-adv-x="606" 
d="M506 459.5q71 -64.5 78 -177.5h-225q-2 38 -17 59.5t-40 21.5q-24 0 -38 -23t-14 -64q0 -58 32 -89t102 -40q90 -11 124.5 -54t34.5 -117q0 -60 -32 -121h-170q6 13 9 30.5t3 30.5q0 34 -26 52.5t-100 26.5q-103 11 -155 76.5t-52 182.5q0 127 75 198.5t207 71.5
q133 0 204 -64.5z" />
    <glyph glyph-name="sigma" unicode="&#x3c3;" horiz-adv-x="662" 
d="M564 354v-2q35 -54 35 -118q0 -76 -35 -132.5t-99 -87t-149 -30.5q-89 0 -156 32t-103.5 91.5t-36.5 138.5t36.5 138.5t103.5 91.5t156 32h340v-154h-92zM266.5 330q-16.5 -27 -16.5 -79q0 -51 16.5 -78.5t49.5 -27.5t49.5 27.5t16.5 78.5q0 52 -16.5 79t-49.5 27
t-49.5 -27z" />
    <glyph glyph-name="tau" unicode="&#x3c4;" horiz-adv-x="511" 
d="M360 354v-154q0 -29 9 -39.5t31 -10.5q17 0 26 3v-151q-21 -6 -51.5 -9.5t-59.5 -3.5q-91 0 -132 41t-41 139v185h-136v154h500v-154h-146z" />
    <glyph glyph-name="upsilon" unicode="&#x3c5;" horiz-adv-x="634" 
d="M250 477q41 -42 41 -143v-129q0 -60 37 -60q58 0 58 137q0 127 -31 226h211q36 -106 36 -244q0 -136 -67 -208t-203 -72q-129 0 -194.5 51.5t-65.5 161.5v90q0 40 -10 55.5t-31 15.5q-14 0 -25 -3v145q59 19 117 19q86 0 127 -42z" />
    <glyph glyph-name="phi" unicode="&#x3c6;" horiz-adv-x="846" 
d="M745 62q-81 -71 -219 -78v-169h-206v169q-138 7 -219 78t-81 192t81 192t219 78v138h206v-138q138 -7 219 -78t81 -192t-81 -192zM604 254q0 107 -78 116v-232q78 9 78 116zM320 138v232q-78 -9 -78 -116t78 -116z" />
    <glyph glyph-name="chi" unicode="&#x3c7;" horiz-adv-x="648" 
d="M227.5 494.5q40.5 -29.5 70.5 -102.5l30 -75h2l89 191h239l-195 -351l56 -118q21 -44 41.5 -59t49.5 -15q9 0 25 2v-145q-50 -18 -102 -18q-74 0 -116 30t-72 102l-24 58h-2l-98 -179h-239l210 330l-64 138q-22 47 -42 63.5t-51 16.5q-16 0 -29 -3v145q20 8 49 13.5
t56 5.5q76 0 116.5 -29.5z" />
    <glyph glyph-name="psi" unicode="&#x3c8;" horiz-adv-x="893" 
d="M786 73q-75 -71 -228 -81v-177h-218v176q-148 8 -223 70.5t-75 186.5v260h218v-237q0 -97 80 -115v506h218v-505q85 22 85 130q0 124 -39 221h216q41 -106 41 -238q0 -126 -75 -197z" />
    <glyph glyph-name="omega" unicode="&#x3c9;" horiz-adv-x="894" 
d="M845.5 372.5q16.5 -72.5 16.5 -148.5q0 -117 -56.5 -178.5t-172.5 -61.5q-151 0 -185 107h-2q-34 -107 -185 -107q-116 0 -172.5 61.5t-56.5 178.5q0 76 16.5 148.5t48.5 135.5h227q-32 -57 -49 -123t-17 -135q0 -52 11 -78.5t35 -26.5q34 0 34 56v194h218v-194
q0 -56 34 -56q24 0 35 26.5t11 78.5q0 69 -17 135t-49 123h227q32 -63 48.5 -135.5z" />
    <glyph glyph-name="iotadieresis" unicode="&#x3ca;" horiz-adv-x="369" 
d="M274 169.5q14 -18.5 47 -18.5q22 0 37 5v-154q-22 -5 -51.5 -8.5t-51.5 -3.5q-111 0 -162 48.5t-51 153.5v316h218v-279q0 -41 14 -59.5zM-63 560v152h182v-152h-182zM183 560v152h182v-152h-182z" />
    <glyph glyph-name="upsilondieresis" unicode="&#x3cb;" horiz-adv-x="634" 
d="M250 477q41 -42 41 -143v-129q0 -60 37 -60q58 0 58 137q0 127 -31 226h211q36 -106 36 -244q0 -136 -67 -208t-203 -72q-129 0 -194.5 51.5t-65.5 161.5v90q0 40 -10 55.5t-31 15.5q-14 0 -25 -3v145q59 19 117 19q86 0 127 -42zM97 560v152h182v-152h-182zM343 560v152
h182v-152h-182z" />
    <glyph glyph-name="omicrontonos" unicode="&#x3cc;" horiz-adv-x="632" 
d="M472 491q67 -33 103.5 -94t36.5 -143t-36.5 -143t-103.5 -94t-156 -33t-156 33t-103.5 94t-36.5 143t36.5 143t103.5 94t156 33t156 -33zM266.5 335q-16.5 -28 -16.5 -81t16.5 -81t49.5 -28t49.5 28t16.5 81t-16.5 81t-49.5 28t-49.5 -28zM236 562l27 170h212l-79 -170
h-160z" />
    <glyph glyph-name="upsilontonos" unicode="&#x3cd;" horiz-adv-x="634" 
d="M250 477q41 -42 41 -143v-129q0 -60 37 -60q58 0 58 137q0 127 -31 226h211q36 -106 36 -244q0 -136 -67 -208t-203 -72q-129 0 -194.5 51.5t-65.5 161.5v90q0 40 -10 55.5t-31 15.5q-14 0 -25 -3v145q59 19 117 19q86 0 127 -42zM231 562l27 170h212l-79 -170h-160z" />
    <glyph glyph-name="omegatonos" unicode="&#x3ce;" horiz-adv-x="894" 
d="M845.5 372.5q16.5 -72.5 16.5 -148.5q0 -117 -56.5 -178.5t-172.5 -61.5q-151 0 -185 107h-2q-34 -107 -185 -107q-116 0 -172.5 61.5t-56.5 178.5q0 76 16.5 148.5t48.5 135.5h227q-32 -57 -49 -123t-17 -135q0 -52 11 -78.5t35 -26.5q34 0 34 56v194h218v-194
q0 -56 34 -56q24 0 35 26.5t11 78.5q0 69 -17 135t-49 123h227q32 -63 48.5 -135.5zM367 562l27 170h212l-79 -170h-160z" />
    <glyph glyph-name="uni0400" unicode="&#x400;" horiz-adv-x="636" 
d="M289 528v-81h279v-179h-279v-84h305v-184h-531v712h526v-184h-300zM446 760h-164l-143 161h226z" />
    <glyph glyph-name="afii10023" unicode="&#x401;" horiz-adv-x="636" 
d="M289 528v-81h279v-179h-279v-84h305v-184h-531v712h526v-184h-300zM115 769v152h182v-152h-182zM361 769v152h182v-152h-182z" />
    <glyph glyph-name="afii10051" unicode="&#x402;" horiz-adv-x="852" 
d="M438 523v-90q60 30 140 30q124 0 190 -63t66 -180q0 -111 -63.5 -172t-185.5 -61q-55 0 -97 13v161q18 -5 41 -5q41 0 60 15t19 52q0 33 -21.5 51t-63.5 18q-48 0 -85 -23v-269h-226v523h-205v189h636v-189h-205z" />
    <glyph glyph-name="afii10052" unicode="&#x403;" horiz-adv-x="541" 
d="M63 712h471v-189h-245v-523h-226v712zM182 760l81 161h226l-143 -161h-164z" />
    <glyph glyph-name="afii10053" unicode="&#x404;" horiz-adv-x="760" 
d="M630 58.5q-93 -74.5 -244 -74.5q-111 0 -191.5 45t-123.5 128.5t-43 198.5t43 199t123.5 128.5t190.5 44.5q154 0 246.5 -73t99.5 -207h-233q-7 49 -35.5 74.5t-77.5 25.5q-43 0 -73 -28t-44 -79h186v-169h-186q14 -51 45 -79.5t73 -28.5q47 0 77.5 28.5t36.5 78.5h235
q-12 -138 -105 -212.5z" />
    <glyph glyph-name="afii10054" unicode="&#x405;" horiz-adv-x="676" 
d="M560 669q79 -59 79 -172h-241q0 31 -18 47t-52 16q-31 0 -47.5 -11.5t-16.5 -32.5q0 -16 10.5 -26t33.5 -17.5t72 -19.5q87 -21 143 -45.5t91.5 -70.5t35.5 -120q0 -110 -83 -171.5t-233 -61.5t-233.5 64.5t-83.5 180.5h248q0 -36 18.5 -53t59.5 -17q32 0 49.5 12
t17.5 33q0 18 -10.5 28.5t-32.5 18t-71 20.5q-88 24 -141 47t-87.5 66.5t-34.5 114.5q0 107 80.5 168t228.5 61q139 0 218 -59z" />
    <glyph glyph-name="afii10055" unicode="&#x406;" horiz-adv-x="352" 
d="M63 0v712h226v-712h-226z" />
    <glyph glyph-name="afii10056" unicode="&#x407;" horiz-adv-x="352" 
d="M63 0v712h226v-712h-226zM-39 769v152h182v-152h-182zM207 769v152h182v-152h-182z" />
    <glyph glyph-name="afii10057" unicode="&#x408;" horiz-adv-x="446" 
d="M322 56.5q-66 -67.5 -203 -67.5q-53 0 -104 12v182q22 -4 42 -4q41 0 63.5 13.5t32 44t9.5 85.5v390h226v-444q0 -144 -66 -211.5z" />
    <glyph glyph-name="afii10058" unicode="&#x409;" horiz-adv-x="1103" 
d="M792 500q146 0 219.5 -66t73.5 -184t-73.5 -184t-219.5 -66h-317v524h-124q-11 -221 -42 -336t-84.5 -156t-143.5 -41q-39 0 -71 9v180q10 -2 18 -2q39 0 60.5 39.5t33.5 152t19 342.5h560v-212h91zM701 174h59q92 0 92 76t-92 76h-59v-152z" />
    <glyph glyph-name="afii10059" unicode="&#x40a;" horiz-adv-x="1121" 
d="M1029.5 434q73.5 -66 73.5 -184t-73.5 -184t-219.5 -66h-317v270h-204v-270h-226v712h226v-253h204v253h226v-212h91q146 0 219.5 -66zM870 250q0 76 -92 76h-59v-152h59q92 0 92 76z" />
    <glyph glyph-name="afii10060" unicode="&#x40b;" horiz-adv-x="855" 
d="M765.5 382.5q62.5 -60.5 62.5 -172.5v-210h-226v167q0 42 -21.5 64.5t-63.5 22.5q-43 0 -79 -12v-242h-226v523h-205v189h636v-189h-205v-97q63 17 148 17q117 0 179.5 -60.5z" />
    <glyph glyph-name="afii10061" unicode="&#x40c;" horiz-adv-x="743" 
d="M740 0h-281l-168 311h-2v-311h-226v712h226v-294h2l162 294h276l-235 -335zM254 760l81 161h226l-143 -161h-164z" />
    <glyph glyph-name="uni040D" unicode="&#x40d;" horiz-adv-x="852" 
d="M279 462q0 -157 -8 -282h2q39 135 88 267l97 265h331v-712h-216v250q0 157 8 282h-2q-39 -135 -88 -267l-97 -265h-331v712h216v-250zM521 760h-164l-143 161h226z" />
    <glyph glyph-name="afii10062" unicode="&#x40e;" horiz-adv-x="733" 
d="M365 24q-58 -35 -137 -35q-61 0 -103 11v181q23 -7 49 -7q60 0 60 44q0 15 -8 34t-50 103l-177 357h247l65 -164q34 -87 56 -157h2q26 86 55 158l63 163h247l-270 -566q-41 -87 -99 -122zM501.5 802.5q-47.5 -41.5 -134.5 -41.5t-134.5 41.5t-49.5 118.5h128
q1 -24 14.5 -34.5t41.5 -10.5t41.5 10.5t14.5 34.5h128q-2 -77 -49.5 -118.5z" />
    <glyph glyph-name="afii10145" unicode="&#x40f;" horiz-adv-x="772" 
d="M494 0v-160h-218v160h-213v712h228v-523h190v523h228v-712h-215z" />
    <glyph glyph-name="afii10017" unicode="&#x410;" horiz-adv-x="748" 
d="M263 105l-28 -105h-239l235 712h286l235 -712h-239l-28 105h-222zM427 328q-27 101 -52 221h-2q-25 -120 -52 -221l-13 -50h132z" />
    <glyph glyph-name="afii10018" unicode="&#x411;" horiz-adv-x="697" 
d="M279 537v-93h113q128 0 200.5 -59.5t72.5 -162.5t-72.5 -162.5t-200.5 -59.5h-329v712h554v-175h-338zM279 157h65q46 0 66 15t20 50t-20 50t-66 15h-65v-130z" />
    <glyph glyph-name="afii10019" unicode="&#x412;" horiz-adv-x="691" 
d="M581 662.5q65 -49.5 65 -134.5q0 -62 -27.5 -100t-87.5 -57v-2q64 -15 99 -58.5t35 -107.5q0 -94 -72.5 -148.5t-200.5 -54.5h-329v712h324q129 0 194 -49.5zM279 435h63q43 0 63.5 14.5t20.5 43.5t-19.5 43.5t-59.5 14.5h-68v-116zM279 162h66q46 0 65.5 14t19.5 46
t-21 47t-67 15h-63v-122z" />
    <glyph glyph-name="afii10020" unicode="&#x413;" horiz-adv-x="541" 
d="M63 712h471v-189h-245v-523h-226v712z" />
    <glyph glyph-name="afii10021" unicode="&#x414;" horiz-adv-x="834" 
d="M828 -160h-218v160h-386v-160h-218v349h92q27 61 41.5 175t19.5 348h586v-523h83v-349zM369 524q-8 -211 -41 -335h191v335h-150z" />
    <glyph glyph-name="afii10022" unicode="&#x415;" horiz-adv-x="636" 
d="M289 528v-81h279v-179h-279v-84h305v-184h-531v712h526v-184h-300z" />
    <glyph glyph-name="afii10024" unicode="&#x416;" horiz-adv-x="1023" 
d="M1020 0h-265l-130 333h-2v-333h-222v333h-2l-130 -333h-266l196 369l-195 343h261l134 -306h2v306h222v-306h2l133 306h261l-194 -343z" />
    <glyph glyph-name="afii10025" unicode="&#x417;" horiz-adv-x="685" 
d="M564.5 673.5q84.5 -53.5 84.5 -152.5q0 -56 -29 -92t-96 -57v-2q70 -23 102.5 -64t32.5 -106q0 -105 -81 -160.5t-232 -55.5q-160 0 -248 65t-88 190h246q0 -41 23.5 -61.5t66.5 -20.5q35 0 55.5 15t20.5 41q0 30 -24 46.5t-67 16.5h-40v166h40q42 0 64 15.5t22 43.5
q0 26 -20 40t-57 14q-40 0 -61.5 -21.5t-21.5 -57.5h-235q0 77 38.5 133.5t110.5 87t168 30.5q141 0 225.5 -53.5z" />
    <glyph glyph-name="afii10026" unicode="&#x418;" horiz-adv-x="852" 
d="M279 462q0 -157 -8 -282h2q39 135 88 267l97 265h331v-712h-216v250q0 157 8 282h-2q-39 -135 -88 -267l-97 -265h-331v712h216v-250z" />
    <glyph glyph-name="afii10027" unicode="&#x419;" horiz-adv-x="852" 
d="M279 462q0 -157 -8 -282h2q39 135 88 267l97 265h331v-712h-216v250q0 157 8 282h-2q-39 -135 -88 -267l-97 -265h-331v712h216v-250zM538.5 802.5q-47.5 -41.5 -134.5 -41.5t-134.5 41.5t-49.5 118.5h128q1 -24 14.5 -34.5t41.5 -10.5t41.5 10.5t14.5 34.5h128
q-2 -77 -49.5 -118.5z" />
    <glyph glyph-name="afii10028" unicode="&#x41a;" horiz-adv-x="743" 
d="M740 0h-281l-168 311h-2v-311h-226v712h226v-294h2l162 294h276l-235 -335z" />
    <glyph glyph-name="afii10029" unicode="&#x41b;" horiz-adv-x="764" 
d="M475 0v524h-124q-11 -221 -42 -336t-84.5 -156t-143.5 -41q-39 0 -71 9v180q10 -2 18 -2q39 0 60.5 39.5t33.5 152t19 342.5h560v-712h-226z" />
    <glyph glyph-name="afii10030" unicode="&#x41c;" horiz-adv-x="1071" 
d="M800 0v335q0 130 6 257h-2q-21 -119 -52 -255l-77 -337h-279l-77 337q-31 136 -52 255h-2q6 -127 6 -257v-335h-208v712h359l67 -295q29 -124 46 -262h2q14 118 45 262l68 295h358v-712h-208z" />
    <glyph glyph-name="afii10031" unicode="&#x41d;" horiz-adv-x="782" 
d="M493 0v270h-204v-270h-226v712h226v-253h204v253h226v-712h-226z" />
    <glyph glyph-name="afii10032" unicode="&#x41e;" horiz-adv-x="776" 
d="M577.5 682q81.5 -46 126 -130t44.5 -196t-44.5 -196t-126 -130t-189.5 -46t-189.5 46t-126 130t-44.5 196t44.5 196t126 130t189.5 46t189.5 -46zM297.5 491.5q-30.5 -46.5 -30.5 -135.5t30.5 -135.5t90.5 -46.5t90.5 46.5t30.5 135.5t-30.5 135.5t-90.5 46.5
t-90.5 -46.5z" />
    <glyph glyph-name="afii10033" unicode="&#x41f;" horiz-adv-x="772" 
d="M483 0v523h-194v-523h-226v712h646v-712h-226z" />
    <glyph glyph-name="afii10034" unicode="&#x420;" horiz-adv-x="691" 
d="M599.5 646q73.5 -66 73.5 -184t-73.5 -184t-219.5 -66h-91v-212h-226v712h317q146 0 219.5 -66zM289 386h59q92 0 92 76t-92 76h-59v-152z" />
    <glyph glyph-name="afii10035" unicode="&#x421;" horiz-adv-x="744" 
d="M618 652q91 -76 97 -214h-241q-5 49 -30 74.5t-69 25.5q-50 0 -79.5 -48.5t-29.5 -133.5q0 -84 30 -133t80 -49q42 0 69 28.5t31 78.5h243q-11 -143 -102.5 -220t-240.5 -77q-108 0 -186.5 45t-120 128.5t-41.5 198.5t42 199t120 128.5t185 44.5q152 0 243 -76z" />
    <glyph glyph-name="afii10036" unicode="&#x422;" horiz-adv-x="650" 
d="M438 523v-523h-226v523h-205v189h636v-189h-205z" />
    <glyph glyph-name="afii10037" unicode="&#x423;" horiz-adv-x="733" 
d="M365 24q-58 -35 -137 -35q-61 0 -103 11v181q23 -7 49 -7q60 0 60 44q0 15 -8 34t-50 103l-177 357h247l65 -164q34 -87 56 -157h2q26 86 55 158l63 163h247l-270 -566q-41 -87 -99 -122z" />
    <glyph glyph-name="afii10038" unicode="&#x424;" horiz-adv-x="916" 
d="M805.5 137q-82.5 -79 -239.5 -91v-72h-216v72q-157 12 -239.5 91t-82.5 219t82.5 219t239.5 91v72h216v-72q157 -12 239.5 -91t82.5 -219t-82.5 -219zM360 215v282q-103 -21 -103 -141t103 -141zM659 356q0 120 -103 141v-282q103 21 103 141z" />
    <glyph glyph-name="afii10039" unicode="&#x425;" horiz-adv-x="748" 
d="M749 0h-268l-106 233h-2l-106 -233h-268l218 372l-202 340h261l97 -221h2l97 221h261l-202 -340z" />
    <glyph glyph-name="afii10040" unicode="&#x426;" horiz-adv-x="798" 
d="M792 189v-349h-218v160h-511v712h228v-523h190v523h228v-523h83z" />
    <glyph glyph-name="afii10041" unicode="&#x427;" horiz-adv-x="732" 
d="M443 0v236q-70 -17 -158 -17q-125 0 -191.5 60.5t-66.5 172.5v260h226v-217q0 -42 24.5 -64.5t70.5 -22.5q53 0 95 11v293h226v-712h-226z" />
    <glyph glyph-name="afii10042" unicode="&#x428;" horiz-adv-x="1075" 
d="M63 0v712h228v-523h132v523h228v-523h133v523h228v-712h-949z" />
    <glyph glyph-name="afii10043" unicode="&#x429;" horiz-adv-x="1101" 
d="M1095 189v-349h-218v160h-814v712h228v-523h132v523h228v-523h133v523h228v-523h83z" />
    <glyph glyph-name="afii10044" unicode="&#x42a;" horiz-adv-x="810" 
d="M499 500q146 0 219.5 -66t73.5 -184t-73.5 -184t-219.5 -66h-317v523h-175v189h401v-212h91zM408 174h59q92 0 92 76t-92 76h-59v-152z" />
    <glyph glyph-name="afii10045" unicode="&#x42b;" horiz-adv-x="1043" 
d="M63 712h226v-212h91q146 0 219.5 -66t73.5 -184t-73.5 -184t-219.5 -66h-317v712zM754 0v712h226v-712h-226zM440 250q0 76 -92 76h-59v-152h59q92 0 92 76z" />
    <glyph glyph-name="afii10046" unicode="&#x42c;" horiz-adv-x="691" 
d="M63 712h226v-212h91q146 0 219.5 -66t73.5 -184t-73.5 -184t-219.5 -66h-317v712zM440 250q0 76 -92 76h-59v-152h59q92 0 92 76z" />
    <glyph glyph-name="afii10047" unicode="&#x42d;" horiz-adv-x="760" 
d="M565.5 683.5q80.5 -44.5 123.5 -128.5t43 -199t-43 -198.5t-123.5 -128.5t-191.5 -45q-151 0 -244 74.5t-105 212.5h235q6 -50 36.5 -78.5t77.5 -28.5q42 0 73 28.5t45 79.5h-186v169h186q-14 51 -44 79t-73 28q-49 0 -77.5 -25.5t-35.5 -74.5h-233q7 134 99.5 207
t246.5 73q110 0 190.5 -44.5z" />
    <glyph glyph-name="afii10048" unicode="&#x42e;" horiz-adv-x="1092" 
d="M902.5 682q77.5 -46 119.5 -131t42 -198q0 -111 -42 -194.5t-119.5 -129t-180.5 -45.5q-133 0 -221 74t-113 204h-99v-262h-226v712h226v-261h100q24 129 112.5 203t220.5 74q103 0 180.5 -46zM802.5 220q27.5 46 27.5 133q0 90 -27.5 137.5t-79.5 47.5
q-53 0 -80.5 -46.5t-27.5 -135.5t27.5 -135.5t80.5 -46.5q52 0 79.5 46z" />
    <glyph glyph-name="afii10049" unicode="&#x42f;" horiz-adv-x="714" 
d="M651 0h-226v227h-90l-101 -227h-238l135 272q-100 61 -100 204q0 116 71.5 176t214.5 60h334v-712zM343 547q-94 0 -94 -81q0 -80 90 -80h86v161h-82z" />
    <glyph glyph-name="afii10065" unicode="&#x430;" horiz-adv-x="590" 
d="M485 468.5q63 -55.5 63 -160.5v-156q0 -98 17 -152h-197q-8 27 -8 62h-2q-62 -77 -165 -77q-83 0 -131 45.5t-48 115.5q0 71 49.5 111t162.5 57q54 9 112 13v18q0 60 -48 60t-48 -59h-207q5 78 67 128t190 50q130 0 193 -55.5zM272 215q-46 -12 -46 -54q0 -21 12 -34
t34 -13q31 0 48 21q11 13 14.5 29t3.5 43v18q-37 -2 -66 -10z" />
    <glyph glyph-name="afii10066" unicode="&#x431;" horiz-adv-x="620" 
d="M404 543q-81 -1 -126.5 -15.5t-65.5 -41t-25 -71.5h2q44 71 167 71q74 0 129 -28.5t85 -81t30 -122.5q0 -82 -35.5 -143t-100.5 -94t-152 -33q-141 0 -214.5 77.5t-73.5 231.5q0 152 36.5 240t109.5 127t191 45q134 7 206 23v-168q-57 -15 -163 -17zM265 318
q-15 -27 -15 -78t15 -78t45 -27t45 27t15 78t-15 78t-45 27t-45 -27z" />
    <glyph glyph-name="afii10067" unicode="&#x432;" horiz-adv-x="607" 
d="M512.5 474q53.5 -34 53.5 -104q0 -43 -23 -68.5t-75 -39.5v-2q53 -9 84 -40.5t31 -76.5q0 -70 -59.5 -106.5t-170.5 -36.5h-306v508h305q107 0 160.5 -34zM253 311h47q57 0 57 38q0 39 -57 39h-47v-77zM253 120h45q67 0 67 42q0 41 -67 41h-45v-83z" />
    <glyph glyph-name="afii10068" unicode="&#x433;" horiz-adv-x="473" 
d="M265 354v-354h-218v508h420v-154h-202z" />
    <glyph glyph-name="afii10069" unicode="&#x434;" horiz-adv-x="725" 
d="M717 -160h-213v160h-283v-160h-213v314h55q25 42 39.5 117t24.5 237h525v-354h65v-314zM327 354q-8 -115 -29 -200h141v200h-112z" />
    <glyph glyph-name="afii10070" unicode="&#x435;" horiz-adv-x="605" 
d="M338.5 131q14.5 11 16.5 28h222q-11 -50 -49 -90t-96 -62.5t-127 -22.5q-91 0 -155.5 36t-97 98t-32.5 139q0 76 33 136.5t96.5 95.5t151.5 35q95 0 160.5 -39.5t97.5 -111.5q14 -32 20 -69.5t6 -93.5h-351q3 -51 20.5 -70.5t46.5 -19.5q23 0 37.5 11zM258 377
q-17 -17 -23 -60h131q-2 41 -20 59t-45 18q-26 0 -43 -17z" />
    <glyph glyph-name="afii10072" unicode="&#x436;" horiz-adv-x="864" 
d="M623 0l-84 237h-2v-237h-210v237h-2l-84 -237h-251l156 266l-142 242h246l75 -211h2v211h210v-211h2l75 211h246l-142 -242l156 -266h-251z" />
    <glyph glyph-name="afii10073" unicode="&#x437;" horiz-adv-x="565" 
d="M461 485q68 -39 68 -113q0 -40 -19 -64.5t-63 -39.5v-2q49 -17 71.5 -46.5t22.5 -75.5q0 -160 -258 -160q-126 0 -196.5 49.5t-70.5 145.5h199q0 -53 67 -53q27 0 42.5 10t15.5 28q0 17 -15.5 27t-45.5 10h-49v113h49q54 0 54 34q0 35 -55 35q-33 0 -49.5 -14.5
t-16.5 -38.5h-186q0 59 31.5 103t89.5 67.5t134 23.5q112 0 180 -39z" />
    <glyph glyph-name="afii10074" unicode="&#x438;" horiz-adv-x="721" 
d="M470 0v163q0 93 13 203h-2q-20 -90 -53 -185l-70 -181h-311v508h203v-162q0 -109 -14 -204h2q21 94 54 185l69 181h313v-508h-204z" />
    <glyph glyph-name="afii10075" unicode="&#x439;" horiz-adv-x="721" 
d="M470 0v163q0 93 13 203h-2q-20 -90 -53 -185l-70 -181h-311v508h203v-162q0 -109 -14 -204h2q21 94 54 185l69 181h313v-508h-204zM495.5 593.5q-47.5 -41.5 -134.5 -41.5t-134.5 41.5t-49.5 118.5h128q1 -24 14.5 -34.5t41.5 -10.5t41.5 10.5t14.5 34.5h128
q-2 -77 -49.5 -118.5z" />
    <glyph glyph-name="afii10076" unicode="&#x43a;" horiz-adv-x="612" 
d="M356 0l-89 214h-2v-214h-218v508h218v-189h2l79 189h261l-158 -243l173 -265h-266z" />
    <glyph glyph-name="afii10077" unicode="&#x43b;" horiz-adv-x="635" 
d="M370 0v354h-76q-6 -149 -31 -227.5t-69.5 -107t-118.5 -28.5q-39 0 -68 9v152q10 -2 20 -2q32 0 49.5 26.5t27 103t11.5 228.5h473v-508h-218z" />
    <glyph glyph-name="afii10078" unicode="&#x43c;" horiz-adv-x="875" 
d="M640 0v212q0 78 5 175h-2q-16 -94 -32 -173l-45 -214h-257l-45 214q-12 53 -32 173h-2q5 -97 5 -175v-212h-188v508h320l42 -199q22 -90 27 -186h2q8 97 27 186l43 199h320v-508h-188z" />
    <glyph glyph-name="afii10079" unicode="&#x43d;" horiz-adv-x="639" 
d="M374 0v181h-109v-181h-218v508h218v-173h109v173h218v-508h-218z" />
    <glyph glyph-name="afii10080" unicode="&#x43e;" horiz-adv-x="632" 
d="M472 491q67 -33 103.5 -94t36.5 -143t-36.5 -143t-103.5 -94t-156 -33t-156 33t-103.5 94t-36.5 143t36.5 143t103.5 94t156 33t156 -33zM266.5 335q-16.5 -28 -16.5 -81t16.5 -81t49.5 -28t49.5 28t16.5 81t-16.5 81t-49.5 28t-49.5 -28z" />
    <glyph glyph-name="afii10081" unicode="&#x43f;" horiz-adv-x="635" 
d="M370 0v354h-105v-354h-218v508h541v-508h-218z" />
    <glyph glyph-name="afii10082" unicode="&#x440;" horiz-adv-x="634" 
d="M507 491q51 -33 79 -94t28 -143t-27 -143t-76.5 -94t-115.5 -33q-38 0 -72 15t-56 43h-2v-227h-218v693h208v-54h2q23 35 57 52.5t74 17.5q68 0 119 -33zM271 331q-18 -29 -18 -77t18 -77t48 -29q31 0 48.5 28.5t17.5 77.5t-17.5 77.5t-48.5 28.5q-30 0 -48 -29z" />
    <glyph glyph-name="afii10083" unicode="&#x441;" horiz-adv-x="602" 
d="M499.5 465q76.5 -59 86.5 -162h-225q-3 30 -17 45.5t-35 15.5q-29 0 -44 -27t-15 -80q0 -56 15.5 -84t44.5 -28q23 0 36.5 17.5t14.5 51.5h225q-8 -108 -83.5 -169t-197.5 -61q-86 0 -150.5 33t-99.5 95t-35 145q0 81 34.5 141.5t99 93t150.5 32.5q119 0 195.5 -59z" />
    <glyph glyph-name="afii10084" unicode="&#x442;" horiz-adv-x="513" 
d="M365 354v-354h-218v354h-146v154h511v-154h-147z" />
    <glyph glyph-name="afii10085" unicode="&#x443;" horiz-adv-x="583" 
d="M391.5 -101q-31.5 -49 -76.5 -70.5t-113 -21.5q-64 0 -113 11v152q24 -6 44 -6q23 0 35 8t12 26q0 11 -5.5 27.5t-30.5 82.5l-159 400h237l42 -169q27 -115 42 -210h2q9 78 33 212l31 167h221l-144 -474q-26 -86 -57.5 -135z" />
    <glyph glyph-name="afii10086" unicode="&#x444;" horiz-adv-x="884" 
d="M594.5 514q26.5 10 54.5 10q65 0 114 -33t75 -94t26 -143t-26 -143t-75 -94t-114 -33q-28 0 -54.5 10t-47.5 29v-208h-210v208q-42 -39 -102 -39q-65 0 -114 33t-75 94t-26 143t26 143t75 94t114 33q60 0 102 -39v227h210v-227q21 19 47.5 29zM258 335q-17 -30 -17 -81
t17 -81t48 -30q19 0 31 13v196q-12 13 -31 13q-31 0 -48 -30zM547 352v-196q12 -13 31 -13q31 0 48 30t17 81t-17 81t-48 30q-19 0 -31 -13z" />
    <glyph glyph-name="afii10087" unicode="&#x445;" horiz-adv-x="588" 
d="M594 0h-242l-57 146h-2l-57 -146h-242l161 261l-150 247h243l45 -136h2l45 136h243l-150 -247z" />
    <glyph glyph-name="afii10088" unicode="&#x446;" horiz-adv-x="655" 
d="M647 154v-314h-218v160h-382v508h218v-354h99v354h218v-354h65z" />
    <glyph glyph-name="afii10089" unicode="&#x447;" horiz-adv-x="602" 
d="M337 0v162q-63 -15 -131 -15q-90 0 -138 42.5t-48 120.5v198h218v-157q0 -50 50 -50q26 0 49 7v200h218v-508h-218z" />
    <glyph glyph-name="afii10090" unicode="&#x448;" horiz-adv-x="926" 
d="M47 0v508h218v-354h89v354h218v-354h89v354h218v-508h-832z" />
    <glyph glyph-name="afii10091" unicode="&#x449;" horiz-adv-x="952" 
d="M944 154v-314h-218v160h-679v508h218v-354h89v354h218v-354h89v354h218v-354h65z" />
    <glyph glyph-name="afii10092" unicode="&#x44a;" horiz-adv-x="698" 
d="M428 372q249 0 249 -186t-249 -186h-301v354h-126v154h344v-136h83zM345 138h57q54 0 54 48t-54 48h-57v-96z" />
    <glyph glyph-name="afii10093" unicode="&#x44b;" horiz-adv-x="911" 
d="M348 372q249 0 249 -186t-249 -186h-301v508h218v-136h83zM265 138h57q54 0 54 48t-54 48h-57v-96zM646 0v508h218v-508h-218z" />
    <glyph glyph-name="afii10094" unicode="&#x44c;" horiz-adv-x="618" 
d="M348 372q249 0 249 -186t-249 -186h-301v508h218v-136h83zM265 138h57q54 0 54 48t-54 48h-57v-96z" />
    <glyph glyph-name="afii10095" unicode="&#x44d;" horiz-adv-x="602" 
d="M448.5 491.5q64.5 -32.5 99 -93t34.5 -141.5q0 -83 -35 -145t-99.5 -95t-150.5 -33q-122 0 -197.5 57t-83.5 157h201q1 -34 21.5 -52.5t53.5 -18.5q64 0 79 78h-132v108h131q-7 36 -27 54.5t-50 18.5t-50.5 -17t-25.5 -50h-201q10 95 86.5 150t195.5 55q86 0 150.5 -32.5
z" />
    <glyph glyph-name="afii10096" unicode="&#x44e;" horiz-adv-x="908" 
d="M752 491q65 -33 100.5 -94t35.5 -143t-35.5 -143t-100.5 -94t-152 -33q-110 0 -183.5 52t-96.5 144h-55v-180h-218v508h218v-174h57q23 89 96.5 139.5t181.5 50.5q87 0 152 -33zM662 254q0 109 -62 109t-62 -109t62 -109t62 109z" />
    <glyph glyph-name="afii10097" unicode="&#x44f;" horiz-adv-x="621" 
d="M574 0h-218v140h-58l-65 -140h-237l102 181q-73 48 -73 152q0 175 240 175h309v-508zM310 369q-69 0 -69 -47t69 -47h46v94h-46z" />
    <glyph glyph-name="uni0450" unicode="&#x450;" horiz-adv-x="605" 
d="M338.5 131q14.5 11 16.5 28h222q-11 -50 -49 -90t-96 -62.5t-127 -22.5q-91 0 -155.5 36t-97 98t-32.5 139q0 76 33 136.5t96.5 95.5t151.5 35q95 0 160.5 -39.5t97.5 -111.5q14 -32 20 -69.5t6 -93.5h-351q3 -51 20.5 -70.5t46.5 -19.5q23 0 37.5 11zM258 377
q-17 -17 -23 -60h131q-2 41 -20 59t-45 18q-26 0 -43 -17zM419 560h-164l-143 152h226z" />
    <glyph glyph-name="afii10071" unicode="&#x451;" horiz-adv-x="605" 
d="M338.5 131q14.5 11 16.5 28h222q-11 -50 -49 -90t-96 -62.5t-127 -22.5q-91 0 -155.5 36t-97 98t-32.5 139q0 76 33 136.5t96.5 95.5t151.5 35q95 0 160.5 -39.5t97.5 -111.5q14 -32 20 -69.5t6 -93.5h-351q3 -51 20.5 -70.5t46.5 -19.5q23 0 37.5 11zM258 377
q-17 -17 -23 -60h131q-2 41 -20 59t-45 18q-26 0 -43 -17zM88 560v152h182v-152h-182zM334 560v152h182v-152h-182z" />
    <glyph glyph-name="afii10099" unicode="&#x452;" horiz-adv-x="630" 
d="M538 411.5q50 -54.5 50 -155.5v-230q0 -109 -58.5 -163t-155.5 -54q-62 0 -103 12v147q11 -3 24 -3q40 0 57.5 21.5t17.5 79.5v162q0 71 -48 71q-30 0 -43.5 -26t-13.5 -84v-189h-218v523h-66v119h66v70h218v-70h220v-119h-220v-113h2q49 56 132 56q89 0 139 -54.5z" />
    <glyph glyph-name="afii10100" unicode="&#x453;" horiz-adv-x="473" 
d="M265 354v-354h-218v508h420v-154h-202zM140 560l81 152h226l-143 -152h-164z" />
    <glyph glyph-name="afii10101" unicode="&#x454;" horiz-adv-x="602" 
d="M363.5 145.5q20.5 18.5 21.5 52.5h201q-8 -100 -83.5 -157t-197.5 -57q-86 0 -150.5 33t-99.5 95t-35 145q0 81 34.5 141.5t99 93t150.5 32.5q119 0 195.5 -55t86.5 -150h-201q-5 33 -25.5 50t-50.5 17t-50 -18.5t-27 -54.5h131v-108h-132q15 -78 79 -78q33 0 53.5 18.5z
" />
    <glyph glyph-name="afii10102" unicode="&#x455;" horiz-adv-x="577" 
d="M471 483q65 -41 65 -125h-206q0 47 -45 47q-37 0 -37 -27q0 -10 7 -17t26.5 -14t60.5 -18q64 -17 108.5 -36t74.5 -53t30 -86q0 -79 -67 -124.5t-192 -45.5q-138 0 -206 44.5t-68 136.5h217q0 -30 13 -42.5t44 -12.5q21 0 32.5 7.5t11.5 20.5q0 12 -9.5 20t-34 16
t-73.5 21q-58 15 -97 31.5t-65 49t-26 84.5q0 75 61.5 119.5t191.5 44.5q118 0 183 -41z" />
    <glyph glyph-name="afii10103" unicode="&#x456;" horiz-adv-x="312" 
d="M47 560v152h218v-152h-218zM47 0v508h218v-508h-218z" />
    <glyph glyph-name="afii10104" unicode="&#x457;" horiz-adv-x="312" 
d="M47 0v508h218v-508h-218zM-18 560v152h152v-152h-152zM178 560v152h152v-152h-152z" />
    <glyph glyph-name="afii10105" unicode="&#x458;" horiz-adv-x="311" 
d="M46 560v152h218v-152h-218zM205.5 -137q-58.5 -54 -155.5 -54q-62 0 -103 12v147q11 -3 24 -3q40 0 57.5 21.5t17.5 79.5v442h218v-482q0 -109 -58.5 -163z" />
    <glyph glyph-name="afii10106" unicode="&#x459;" horiz-adv-x="941" 
d="M671 372q249 0 249 -186t-249 -186h-301v354h-76q-6 -149 -31 -227.5t-69.5 -107t-118.5 -28.5q-39 0 -68 9v152q10 -2 20 -2q32 0 49.5 26.5t27 103t11.5 228.5h473v-136h83zM588 138h57q54 0 54 48t-54 48h-57v-96z" />
    <glyph glyph-name="afii10107" unicode="&#x45a;" horiz-adv-x="940" 
d="M670 372q249 0 249 -186t-249 -186h-301v181h-104v-181h-218v508h218v-173h104v173h218v-136h83zM587 138h57q54 0 54 48t-54 48h-57v-96z" />
    <glyph glyph-name="afii10108" unicode="&#x45b;" horiz-adv-x="630" 
d="M538 411.5q50 -54.5 50 -155.5v-256h-218v228q0 71 -48 71q-30 0 -43.5 -26t-13.5 -84v-189h-218v523h-66v119h66v70h218v-70h220v-119h-220v-113h2q49 56 132 56q89 0 139 -54.5z" />
    <glyph glyph-name="afii10109" unicode="&#x45c;" horiz-adv-x="612" 
d="M356 0l-89 214h-2v-214h-218v508h218v-189h2l79 189h261l-158 -243l173 -265h-266zM189 560l81 152h226l-143 -152h-164z" />
    <glyph glyph-name="uni045D" unicode="&#x45d;" horiz-adv-x="721" 
d="M470 0v163q0 93 13 203h-2q-20 -90 -53 -185l-70 -181h-311v508h203v-162q0 -109 -14 -204h2q21 94 54 185l69 181h313v-508h-204zM478 560h-164l-143 152h226z" />
    <glyph glyph-name="afii10110" unicode="&#x45e;" horiz-adv-x="583" 
d="M391.5 -101q-31.5 -49 -76.5 -70.5t-113 -21.5q-64 0 -113 11v152q24 -6 44 -6q23 0 35 8t12 26q0 11 -5.5 27.5t-30.5 82.5l-159 400h237l42 -169q27 -115 42 -210h2q9 78 33 212l31 167h221l-144 -474q-26 -86 -57.5 -135zM431.5 593.5q-47.5 -41.5 -134.5 -41.5
t-134.5 41.5t-49.5 118.5h128q1 -24 14.5 -34.5t41.5 -10.5t41.5 10.5t14.5 34.5h128q-2 -77 -49.5 -118.5z" />
    <glyph glyph-name="afii10193" unicode="&#x45f;" horiz-adv-x="635" 
d="M426 0v-160h-218v160h-161v508h218v-354h105v354h218v-508h-162z" />
    <glyph glyph-name="afii10050" unicode="&#x490;" horiz-adv-x="541" 
d="M289 523v-523h-226v712h253v125h218v-314h-245z" />
    <glyph glyph-name="afii10098" unicode="&#x491;" horiz-adv-x="473" 
d="M265 354v-354h-218v508h222v160h198v-314h-202z" />
    <glyph glyph-name="uni0492" unicode="&#x492;" horiz-adv-x="546" 
d="M294 364h112v-130h-112v-234h-226v234h-58v130h58v348h471v-189h-245v-159z" />
    <glyph glyph-name="uni0493" unicode="&#x493;" horiz-adv-x="483" 
d="M275 264h116v-110h-116v-154h-218v154h-47v110h47v244h420v-154h-202v-90z" />
    <glyph glyph-name="uni0496" unicode="&#x496;" horiz-adv-x="1023" 
d="M1020 -160h-218v160h-47l-130 333h-2v-333h-222v333h-2l-130 -333h-266l196 369l-195 343h261l134 -306h2v306h222v-306h2l133 306h261l-194 -343l95 -180h100v-349z" />
    <glyph glyph-name="uni0497" unicode="&#x497;" horiz-adv-x="864" 
d="M874 -160h-218v160h-33l-84 237h-2v-237h-210v237h-2l-84 -237h-251l156 266l-142 242h246l75 -211h2v211h210v-211h2l75 211h246l-142 -242l66 -112h90v-314z" />
    <glyph glyph-name="uni049A" unicode="&#x49a;" horiz-adv-x="743" 
d="M740 -160h-218v160h-63l-168 311h-2v-311h-226v712h226v-294h2l162 294h276l-235 -335l123 -188h123v-349z" />
    <glyph glyph-name="uni049B" unicode="&#x49b;" horiz-adv-x="612" 
d="M622 -160h-218v160h-48l-89 214h-2v-214h-218v508h218v-189h2l79 189h261l-158 -243l72 -111h101v-314z" />
    <glyph glyph-name="uni049C" unicode="&#x49c;" horiz-adv-x="805" 
d="M430 270v-141h-100v141h-45v-270h-222v712h222v-253h45v141h100v-141h2l108 253h261l-193 -341l194 -371h-265l-105 270h-2z" />
    <glyph glyph-name="uni049D" unicode="&#x49d;" horiz-adv-x="694" 
d="M375 190v-94h-87v94h-31v-190h-210v508h210v-164h31v104h87v-104h11l58 164h246l-142 -242l156 -266h-251l-67 190h-11z" />
    <glyph glyph-name="uni04A2" unicode="&#x4a2;" horiz-adv-x="808" 
d="M584 -160v160h-91v270h-204v-270h-226v712h226v-253h204v253h226v-523h83v-349h-218z" />
    <glyph glyph-name="uni04A3" unicode="&#x4a3;" horiz-adv-x="665" 
d="M439 -160v160h-65v181h-109v-181h-218v508h218v-173h109v173h218v-354h65v-314h-218z" />
    <glyph glyph-name="uni04AE" unicode="&#x4ae;" horiz-adv-x="714" 
d="M470 0h-226v252l-245 460h247l50 -120q39 -94 60 -174h2q21 80 60 174l50 120h247l-245 -460v-252z" />
    <glyph glyph-name="uni04AF" unicode="&#x4af;" horiz-adv-x="578" 
d="M398 -20v-165h-218v165l-190 528h237l30 -137q20 -90 31 -187h2q11 97 31 187l30 137h237z" />
    <glyph glyph-name="uni04B2" unicode="&#x4b2;" horiz-adv-x="748" 
d="M749 -160h-218v160h-50l-106 233h-2l-106 -233h-268l218 372l-202 340h261l97 -221h2l97 221h261l-202 -340l107 -183h111v-349z" />
    <glyph glyph-name="uni04B3" unicode="&#x4b3;" horiz-adv-x="588" 
d="M594 -160h-218v160h-24l-57 146h-2l-57 -146h-242l161 261l-150 247h243l45 -136h2l45 136h243l-150 -247l66 -107h95v-314z" />
    <glyph glyph-name="uni04B8" unicode="&#x4b8;" horiz-adv-x="732" 
d="M669 0h-226v236l-45 -9v-118h-100v110h-13q-125 0 -191.5 60.5t-66.5 172.5v260h226v-217q0 -58 45 -78v154h100v-160q30 4 45 8v293h226v-712z" />
    <glyph glyph-name="uni04B9" unicode="&#x4b9;" horiz-adv-x="632" 
d="M585 0h-208v168q-20 -6 -31 -8v-81h-87v69q-11 -1 -33 -1q-99 0 -152.5 48t-53.5 135v178h208v-137q0 -27 7 -42t24 -22v114h87v-115q15 3 31 8v194h208v-508z" />
    <glyph glyph-name="uni04BA" unicode="&#x4ba;" horiz-adv-x="732" 
d="M289 712v-236q70 17 158 17q125 0 191.5 -60.5t66.5 -172.5v-260h-226v217q0 42 -24.5 64.5t-70.5 22.5q-53 0 -95 -11v-293h-226v712h226z" />
    <glyph glyph-name="uni04BB" unicode="&#x4bb;" 
d="M267 467q22 26 54.5 41t75.5 15q87 0 136 -54.5t49 -155.5v-313h-218v285q0 71 -45 71q-28 0 -41 -26t-13 -84v-246h-218v712h218v-245h2z" />
    <glyph glyph-name="uni04C0" unicode="&#x4c0;" horiz-adv-x="352" 
d="M63 0v712h226v-712h-226z" />
    <glyph glyph-name="uni04CF" unicode="&#x4cf;" horiz-adv-x="312" 
d="M47 0v712h218v-712h-218z" />
    <glyph glyph-name="uni04D8" unicode="&#x4d8;" horiz-adv-x="798" 
d="M597 680.5q85 -47.5 129 -131t44 -191.5q0 -106 -44.5 -191t-128.5 -134t-199 -49q-113 0 -196.5 45t-128.5 128.5t-45 196.5q0 42 4 63h502q-6 77 -43.5 110.5t-95.5 33.5q-44 0 -72 -20.5t-34 -53.5h-243q15 68 62 122.5t120.5 86.5t164.5 32q119 0 204 -47.5zM531 274
h-264q8 -64 43.5 -95t87.5 -31q112 0 133 126z" />
    <glyph glyph-name="afii10846" unicode="&#x4d9;" horiz-adv-x="605" 
d="M455.5 489q64.5 -35 97 -96t32.5 -136q0 -77 -33.5 -139t-97.5 -98t-152 -36q-86 0 -149.5 32.5t-98 93t-34.5 141.5q0 29 3 47h348q-3 51 -20.5 70.5t-46.5 19.5q-20 0 -33.5 -11t-15.5 -28h-222q11 50 48.5 90t94.5 62.5t124 22.5q91 0 155.5 -35zM346.5 131
q17.5 17 23.5 60h-132q2 -41 19.5 -59t44.5 -18t44.5 17z" />
    <glyph glyph-name="uni04E8" unicode="&#x4e8;" horiz-adv-x="776" 
d="M577.5 682q81.5 -46 126 -130t44.5 -196t-44.5 -196t-126 -130t-189.5 -46t-189.5 46t-126 130t-44.5 196t44.5 196t126 130t189.5 46t189.5 -46zM303.5 517.5q-32.5 -31.5 -43.5 -91.5h257q-23 123 -129 123q-52 0 -84.5 -31.5zM474 194.5q33 31.5 44 92.5h-258
q11 -61 43.5 -92.5t84.5 -31.5q53 0 86 31.5z" />
    <glyph glyph-name="uni04E9" unicode="&#x4e9;" horiz-adv-x="632" 
d="M472 491q67 -33 103.5 -94t36.5 -143t-36.5 -143t-103.5 -94t-156 -33t-156 33t-103.5 94t-36.5 143t36.5 143t103.5 94t156 33t156 -33zM258 362q-22 -22 -30 -62h176q-8 40 -30.5 62t-57.5 22q-36 0 -58 -22zM373.5 146q22.5 22 30.5 62h-176q8 -40 30 -62t58 -22
q35 0 57.5 22z" />
    <glyph glyph-name="Wgrave" unicode="&#x1e80;" horiz-adv-x="1060" 
d="M612 0l-48 290q-24 153 -33 250h-2q-9 -97 -33 -250l-48 -290h-309l-134 712h218l40 -252q20 -131 36 -278h2q15 142 39 278l44 252h292l44 -252q24 -136 39 -278h2q16 147 36 278l40 252h218l-134 -712h-309zM647 760h-164l-143 161h226z" />
    <glyph glyph-name="wgrave" unicode="&#x1e81;" horiz-adv-x="924" 
d="M525 0l-32 172q-19 100 -30 207h-2q-11 -107 -30 -207l-32 -172h-281l-115 508h208l22 -168q15 -103 21 -206h2q13 100 37 211l36 163h266l36 -163q24 -111 37 -211h2q6 103 21 206l22 168h208l-115 -508h-281zM579 560h-164l-143 152h226z" />
    <glyph glyph-name="Wacute" unicode="&#x1e82;" horiz-adv-x="1060" 
d="M612 0l-48 290q-24 153 -33 250h-2q-9 -97 -33 -250l-48 -290h-309l-134 712h218l40 -252q20 -131 36 -278h2q15 142 39 278l44 252h292l44 -252q24 -136 39 -278h2q16 147 36 278l40 252h218l-134 -712h-309zM413 760l81 161h226l-143 -161h-164z" />
    <glyph glyph-name="wacute" unicode="&#x1e83;" horiz-adv-x="924" 
d="M525 0l-32 172q-19 100 -30 207h-2q-11 -107 -30 -207l-32 -172h-281l-115 508h208l22 -168q15 -103 21 -206h2q13 100 37 211l36 163h266l36 -163q24 -111 37 -211h2q6 103 21 206l22 168h208l-115 -508h-281zM345 560l81 152h226l-143 -152h-164z" />
    <glyph glyph-name="Wdieresis" unicode="&#x1e84;" horiz-adv-x="1060" 
d="M612 0l-48 290q-24 153 -33 250h-2q-9 -97 -33 -250l-48 -290h-309l-134 712h218l40 -252q20 -131 36 -278h2q15 142 39 278l44 252h292l44 -252q24 -136 39 -278h2q16 147 36 278l40 252h218l-134 -712h-309zM316 769v152h182v-152h-182zM562 769v152h182v-152h-182z
" />
    <glyph glyph-name="wdieresis" unicode="&#x1e85;" horiz-adv-x="924" 
d="M525 0l-32 172q-19 100 -30 207h-2q-11 -107 -30 -207l-32 -172h-281l-115 508h208l22 -168q15 -103 21 -206h2q13 100 37 211l36 163h266l36 -163q24 -111 37 -211h2q6 103 21 206l22 168h208l-115 -508h-281zM248 560v152h182v-152h-182zM494 560v152h182v-152h-182z
" />
    <glyph glyph-name="uni1E9E" unicode="&#x1e9e;" horiz-adv-x="840" 
d="M772 337.5q47 -56.5 47 -139.5q0 -103 -73 -159t-197 -56q-120 0 -182.5 56.5t-62.5 171.5h186q0 -61 52 -61q24 0 37 12.5t13 37.5q0 45 -44 69t-130 29v148l82 93q-28 14 -72 14q-73 0 -111 -40.5t-38 -119.5v-393h-226v389q0 167 100 253.5t291 86.5q104 0 190.5 -40
t141.5 -108l-139 -158q88 -29 135 -85.5z" />
    <glyph glyph-name="Ygrave" unicode="&#x1ef2;" horiz-adv-x="714" 
d="M470 0h-226v252l-245 460h247l50 -120q39 -94 60 -174h2q21 80 60 174l50 120h247l-245 -460v-252zM474 760h-164l-143 161h226z" />
    <glyph glyph-name="ygrave" unicode="&#x1ef3;" horiz-adv-x="583" 
d="M391.5 -101q-31.5 -49 -76.5 -70.5t-113 -21.5q-64 0 -113 11v152q24 -6 44 -6q23 0 35 8t12 26q0 11 -5.5 27.5t-30.5 82.5l-159 400h237l42 -169q27 -115 42 -210h2q9 78 33 212l31 167h221l-144 -474q-26 -86 -57.5 -135zM414 560h-164l-143 152h226z" />
    <glyph glyph-name="uni2010" unicode="&#x2010;" horiz-adv-x="370" 
d="M30 219v146h310v-146h-310z" />
    <glyph glyph-name="endash" unicode="&#x2013;" horiz-adv-x="500" 
d="M20 219v146h460v-146h-460z" />
    <glyph glyph-name="emdash" unicode="&#x2014;" horiz-adv-x="1000" 
d="M20 219v146h960v-146h-960z" />
    <glyph glyph-name="afii00208" unicode="&#x2015;" horiz-adv-x="1000" 
d="M20 219v146h960v-146h-960z" />
    <glyph glyph-name="underscoredbl" unicode="&#x2017;" horiz-adv-x="500" 
d="M0 -160v110h500v-110h-500zM0 -340v110h500v-110h-500z" />
    <glyph glyph-name="quoteleft" unicode="&#x2018;" horiz-adv-x="289" 
d="M157 712h108l-84 -162h60v-185h-189v185z" />
    <glyph glyph-name="quoteright" unicode="&#x2019;" horiz-adv-x="289" 
d="M132 365h-108l84 162h-60v185h189v-185z" />
    <glyph glyph-name="quotesinglbase" unicode="&#x201a;" horiz-adv-x="289" 
d="M132 -162h-108l84 162h-60v185h189v-185z" />
    <glyph glyph-name="quotereversed" unicode="&#x201b;" horiz-adv-x="289" 
d="M241 527h-60l84 -162h-108l-105 162v185h189v-185z" />
    <glyph glyph-name="quotedblleft" unicode="&#x201c;" horiz-adv-x="525" 
d="M157 712h108l-84 -162h60v-185h-189v185zM393 712h108l-84 -162h60v-185h-189v185z" />
    <glyph glyph-name="quotedblright" unicode="&#x201d;" horiz-adv-x="525" 
d="M132 365h-108l84 162h-60v185h189v-185zM368 365h-108l84 162h-60v185h189v-185z" />
    <glyph glyph-name="quotedblbase" unicode="&#x201e;" horiz-adv-x="525" 
d="M132 -162h-108l84 162h-60v185h189v-185zM368 -162h-108l84 162h-60v185h189v-185z" />
    <glyph glyph-name="dagger" unicode="&#x2020;" horiz-adv-x="690" 
d="M627 568v-194h-172v-494h-220v494h-172v192h172v146h220v-144h172z" />
    <glyph glyph-name="daggerdbl" unicode="&#x2021;" horiz-adv-x="690" 
d="M627 568v-185h-172v-174h172v-185h-172v-144h-220v144h-172v185h172v174h-172v185h172v144h220v-144h172z" />
    <glyph glyph-name="bullet" unicode="&#x2022;" horiz-adv-x="448" 
d="M131.5 196.5q-42.5 24.5 -67 67t-24.5 92.5t24.5 92.5t67 67t92.5 24.5q49 0 91.5 -24.5t67.5 -67t25 -92.5t-25 -92.5t-67.5 -67t-91.5 -24.5q-50 0 -92.5 24.5z" />
    <glyph glyph-name="ellipsis" unicode="&#x2026;" horiz-adv-x="1034" 
d="M42 0v217h222v-217h-222zM406 0v217h222v-217h-222zM770 0v217h222v-217h-222z" />
    <glyph glyph-name="perthousand" unicode="&#x2030;" horiz-adv-x="1169" 
d="M153 -30l366 734h137l-366 -734h-137zM321 649.5q43 -48.5 43 -140.5t-43 -140.5t-124 -48.5t-124 48.5t-43 140.5t43 140.5t124 48.5t124 -48.5zM169.5 575q-8.5 -21 -8.5 -66t8.5 -66t27.5 -21t27.5 21t8.5 66t-8.5 66t-27.5 21t-27.5 -21zM742 303.5
q43 -48.5 43 -140.5t-43 -140.5t-124 -48.5t-124 48.5t-43 140.5t43 140.5t124 48.5t124 -48.5zM1096 303.5q43 -48.5 43 -140.5t-43 -140.5t-124 -48.5t-124 48.5t-43 140.5t43 140.5t124 48.5t124 -48.5zM590.5 229q-8.5 -21 -8.5 -66t8.5 -66t27.5 -21t27.5 21t8.5 66
t-8.5 66t-27.5 21t-27.5 -21zM944.5 229q-8.5 -21 -8.5 -66t8.5 -66t27.5 -21t27.5 21t8.5 66t-8.5 66t-27.5 21t-27.5 -21z" />
    <glyph glyph-name="minute" unicode="&#x2032;" horiz-adv-x="282" 
d="M30 418l32 256h190l-85 -256h-137z" />
    <glyph glyph-name="second" unicode="&#x2033;" horiz-adv-x="492" 
d="M250 418l32 256h190l-85 -256h-137zM30 418l32 256h190l-85 -256h-137z" />
    <glyph glyph-name="guilsinglleft" unicode="&#x2039;" horiz-adv-x="377" 
d="M337 54h-183l-114 200l114 200h183l-102 -200z" />
    <glyph glyph-name="guilsinglright" unicode="&#x203a;" horiz-adv-x="377" 
d="M337 255l-114 -200h-183l102 200l-102 200h183z" />
    <glyph glyph-name="exclamdbl" unicode="&#x203c;" horiz-adv-x="689" 
d="M402 235l-30 477h245l-29 -477h-186zM384 0v176h222v-176h-222zM102 235l-30 477h245l-29 -477h-186zM84 0v176h222v-176h-222z" />
    <glyph glyph-name="uni203D" unicode="&#x203d;" horiz-adv-x="615" 
d="M542 579q42 -47 42 -117q0 -52 -22 -86.5t-80 -69.5q-52 -30 -69.5 -46.5t-17.5 -36.5h-183q-2 14 -2 24q0 40 15.5 65.5t64.5 62.5q39 30 51.5 47.5t12.5 39.5t-13 35t-34 13q-62 0 -62 -85h-222q0 85 41.5 140t120.5 78l-4 69h245l-4 -66q78 -20 120 -67zM415 176v-176
h-222v176h222z" />
    <glyph glyph-name="uni203E" unicode="&#x203e;" horiz-adv-x="500" 
d="M0 773v127h500v-127h-500z" />
    <glyph glyph-name="fraction" unicode="&#x2044;" horiz-adv-x="151" 
d="M-159 0l350 674h119l-350 -674h-119z" />
    <glyph glyph-name="uni2070" unicode="&#x2070;" horiz-adv-x="504" 
d="M420.5 748.5q59.5 -64.5 59.5 -182.5t-59.5 -182.5t-168.5 -64.5t-168.5 64.5t-59.5 182.5t59.5 182.5t168.5 64.5t168.5 -64.5zM195 566q0 -129 57 -129t57 129t-57 129t-57 -129z" />
    <glyph glyph-name="uni2074" unicode="&#x2074;" horiz-adv-x="501" 
d="M398 408v-78h-165v78h-222v126l173 268h214v-273h92v-121h-92zM241 529v39q0 54 5 119h-2q-24 -46 -54 -93l-42 -65h93z" />
    <glyph glyph-name="uni2075" unicode="&#x2075;" horiz-adv-x="493" 
d="M204 668l-5 -51h2q45 27 101 27q72 0 118 -41.5t46 -106.5q0 -81 -60 -129t-161 -48q-100 0 -158.5 41t-58.5 116h173q0 -19 12.5 -30.5t34.5 -11.5q24 0 37 13.5t13 39.5q0 25 -13 38.5t-35 13.5q-37 0 -48 -37l-165 10l27 290h366v-134h-226z" />
    <glyph glyph-name="uni2076" unicode="&#x2076;" horiz-adv-x="483" 
d="M395.5 772.5q54.5 -40.5 60.5 -113.5h-170q-4 42 -41 42q-23 0 -37.5 -24t-16.5 -73h2q41 32 109 32q71 0 115.5 -40.5t44.5 -106.5q0 -49 -26.5 -87.5t-74.5 -60.5t-109 -22q-108 0 -168 62.5t-60 179.5q0 116 61.5 184t167.5 68q88 0 142.5 -40.5zM219.5 519
q-12.5 -13 -12.5 -35t12.5 -35t32.5 -13t32.5 13t12.5 35t-12.5 35t-32.5 13t-32.5 -13z" />
    <glyph glyph-name="uni2077" unicode="&#x2077;" horiz-adv-x="442" 
d="M339 517.5q-38 -90.5 -60 -187.5h-182q22 90 65.5 179.5t98.5 154.5h-250v138h420v-125q-54 -69 -92 -159.5z" />
    <glyph glyph-name="uni2078" unicode="&#x2078;" horiz-adv-x="482" 
d="M390.5 776q55.5 -37 55.5 -98q0 -38 -24 -66t-67 -36v-2q46 -8 75 -39t29 -74q0 -68 -56.5 -105t-161.5 -37t-161.5 37t-56.5 105q0 43 29 74t75 39v2q-43 8 -67 36t-24 66q0 61 55.5 98t149.5 37t149.5 -37zM206 690.5q-13 -10.5 -13 -28.5t13 -28.5t35 -10.5t35 10.5
t13 28.5t-13 28.5t-35 10.5t-35 -10.5zM206 502.5q-13 -10.5 -13 -29.5t13 -29.5t35 -10.5q23 0 35.5 10.5t12.5 29.5t-12.5 29.5t-35.5 10.5q-22 0 -35 -10.5z" />
    <glyph glyph-name="uni2079" unicode="&#x2079;" horiz-adv-x="483" 
d="M87.5 359.5q-54.5 40.5 -60.5 113.5h170q5 -42 41 -42q23 0 37.5 24t16.5 73h-2q-41 -32 -109 -32q-71 0 -115.5 40.5t-44.5 106.5q0 49 26.5 87.5t74.5 60.5t109 22q108 0 168 -62.5t60 -179.5q0 -116 -61.5 -184t-167.5 -68q-88 0 -142.5 40.5zM263.5 613
q12.5 13 12.5 35t-12.5 35t-32.5 13t-32.5 -13t-12.5 -35t12.5 -35t32.5 -13t32.5 13z" />
    <glyph glyph-name="uni207A" unicode="&#x207a;" horiz-adv-x="410" 
d="M375 617v-129h-102v-101h-135v101h-103v129h103v101h135v-101h102z" />
    <glyph glyph-name="uni207B" unicode="&#x207b;" horiz-adv-x="410" 
d="M35 488v129h340v-129h-340z" />
    <glyph glyph-name="uni207C" unicode="&#x207c;" horiz-adv-x="410" 
d="M35 577v117h340v-117h-340zM35 409v117h340v-117h-340z" />
    <glyph glyph-name="uni207D" unicode="&#x207d;" horiz-adv-x="288" 
d="M214 687.5q-16 -74.5 -16 -149.5t16 -149t53 -162h-131q-58 79 -83.5 154t-25.5 157q0 83 25.5 158t83.5 153h131q-37 -87 -53 -161.5z" />
    <glyph glyph-name="uni207E" unicode="&#x207e;" horiz-adv-x="288" 
d="M74 388.5q16 74.5 16 149.5t-16 149t-53 162h131q58 -79 83.5 -154t25.5 -157q0 -83 -25.5 -158t-83.5 -153h-131q37 87 53 161.5z" />
    <glyph glyph-name="uni2080" unicode="&#x2080;" horiz-adv-x="504" 
d="M420.5 246.5q59.5 -64.5 59.5 -182.5t-59.5 -182.5t-168.5 -64.5t-168.5 64.5t-59.5 182.5t59.5 182.5t168.5 64.5t168.5 -64.5zM195 64q0 -129 57 -129t57 129t-57 129t-57 -129z" />
    <glyph glyph-name="uni2081" unicode="&#x2081;" horiz-adv-x="352" 
d="M128 -172v262h-118v124q66 0 98 20.5t39 65.5h154v-472h-173z" />
    <glyph glyph-name="uni2082" unicode="&#x2082;" horiz-adv-x="497" 
d="M360 290.5q48 -20.5 73 -56t25 -77.5q0 -56 -35 -90t-101 -54q-57 -17 -75.5 -28.5t-21.5 -24.5h247v-132h-443q-2 18 -2 38q0 82 32 132t109 82q62 25 89.5 41.5t27.5 38.5q0 16 -9 24t-26 8q-20 0 -33 -14.5t-13 -41.5h-171q-1 83 55.5 129t159.5 46q64 0 112 -20.5z
" />
    <glyph glyph-name="uni2083" unicode="&#x2083;" horiz-adv-x="488" 
d="M398 274.5q57 -36.5 57 -98.5q0 -37 -19.5 -61t-63.5 -40v-2q47 -15 68 -39.5t21 -65.5q0 -69 -58.5 -110t-157.5 -41q-112 0 -171 45t-59 130h175q0 -60 54 -60q22 0 34 9.5t12 26.5q0 21 -15.5 31t-47.5 10h-11v115h18q24 0 38.5 10t14.5 27q0 16 -11 25.5t-32 9.5
q-27 0 -40.5 -16t-13.5 -41h-167q0 80 58 126t161 46q99 0 156 -36.5z" />
    <glyph glyph-name="uni2084" unicode="&#x2084;" horiz-adv-x="501" 
d="M397 -94v-78h-165v78h-222v126l173 268h214v-273h92v-121h-92zM240 27v39q0 54 5 119h-2q-24 -46 -54 -93l-42 -65h93z" />
    <glyph glyph-name="uni2085" unicode="&#x2085;" horiz-adv-x="493" 
d="M204 166l-5 -51h2q45 27 101 27q72 0 118 -41.5t46 -106.5q0 -81 -60 -129t-161 -48q-100 0 -158.5 41t-58.5 116h173q0 -19 12.5 -30.5t34.5 -11.5q24 0 37 13.5t13 39.5q0 25 -13 38.5t-35 13.5q-37 0 -48 -37l-165 10l27 290h366v-134h-226z" />
    <glyph glyph-name="uni2086" unicode="&#x2086;" horiz-adv-x="483" 
d="M395.5 270.5q54.5 -40.5 60.5 -113.5h-170q-4 42 -41 42q-23 0 -37.5 -24t-16.5 -73h2q41 32 109 32q71 0 115.5 -40.5t44.5 -106.5q0 -49 -26.5 -87.5t-74.5 -60.5t-109 -22q-108 0 -168 62.5t-60 179.5q0 116 61.5 184t167.5 68q88 0 142.5 -40.5zM219.5 17
q-12.5 -13 -12.5 -35t12.5 -35t32.5 -13t32.5 13t12.5 35t-12.5 35t-32.5 13t-32.5 -13z" />
    <glyph glyph-name="uni2087" unicode="&#x2087;" horiz-adv-x="442" 
d="M338 15.5q-38 -90.5 -60 -187.5h-182q22 90 65.5 179.5t98.5 154.5h-250v138h420v-125q-54 -69 -92 -159.5z" />
    <glyph glyph-name="uni2088" unicode="&#x2088;" horiz-adv-x="482" 
d="M390.5 274q55.5 -37 55.5 -98q0 -38 -24 -66t-67 -36v-2q46 -8 75 -39t29 -74q0 -68 -56.5 -105t-161.5 -37t-161.5 37t-56.5 105q0 43 29 74t75 39v2q-43 8 -67 36t-24 66q0 61 55.5 98t149.5 37t149.5 -37zM206 188.5q-13 -10.5 -13 -28.5t13 -28.5t35 -10.5t35 10.5
t13 28.5t-13 28.5t-35 10.5t-35 -10.5zM206 0.5q-13 -10.5 -13 -29.5t13 -29.5t35 -10.5q23 0 35.5 10.5t12.5 29.5t-12.5 29.5t-35.5 10.5q-22 0 -35 -10.5z" />
    <glyph glyph-name="uni2089" unicode="&#x2089;" horiz-adv-x="483" 
d="M87.5 -142.5q-54.5 40.5 -60.5 113.5h170q5 -42 41 -42q23 0 37.5 24t16.5 73h-2q-41 -32 -109 -32q-71 0 -115.5 40.5t-44.5 106.5q0 49 26.5 87.5t74.5 60.5t109 22q108 0 168 -62.5t60 -179.5q0 -116 -61.5 -184t-167.5 -68q-88 0 -142.5 40.5zM263.5 111
q12.5 13 12.5 35t-12.5 35t-32.5 13t-32.5 -13t-12.5 -35t12.5 -35t32.5 -13t32.5 13z" />
    <glyph glyph-name="uni208A" unicode="&#x208a;" horiz-adv-x="410" 
d="M375 115v-129h-102v-101h-135v101h-103v129h103v101h135v-101h102z" />
    <glyph glyph-name="uni208B" unicode="&#x208b;" horiz-adv-x="410" 
d="M35 -14v129h340v-129h-340z" />
    <glyph glyph-name="uni208C" unicode="&#x208c;" horiz-adv-x="410" 
d="M35 75v117h340v-117h-340zM35 -93v117h340v-117h-340z" />
    <glyph glyph-name="uni208D" unicode="&#x208d;" horiz-adv-x="288" 
d="M214 185.5q-16 -74.5 -16 -149.5t16 -149t53 -162h-131q-58 79 -83.5 154t-25.5 157q0 83 25.5 158t83.5 153h131q-37 -87 -53 -161.5z" />
    <glyph glyph-name="uni208E" unicode="&#x208e;" horiz-adv-x="288" 
d="M74 -113.5q16 74.5 16 149.5t-16 149t-53 162h131q58 -79 83.5 -154t25.5 -157q0 -83 -25.5 -158t-83.5 -153h-131q37 87 53 161.5z" />
    <glyph glyph-name="uni2099" unicode="&#x2099;" horiz-adv-x="456" 
d="M391.5 156.5q35.5 -38.5 35.5 -109.5v-219h-167v197q0 43 -27 43q-18 0 -25.5 -16.5t-7.5 -55.5v-168h-167v356h154v-37h2q40 48 105 48q62 0 97.5 -38.5z" />
    <glyph glyph-name="franc" unicode="&#x20a3;" horiz-adv-x="684" 
d="M319 426h277v-180h-277v-52h164v-141h-164v-53h-226v53h-71v141h71v480h521v-182h-295v-66z" />
    <glyph glyph-name="lira" unicode="&#x20a4;" horiz-adv-x="684" 
d="M640 174v-174h-618v174q32 0 51 11t27 37h-78v80h85v34h-85v80h85v9q0 124 73 194.5t202 70.5q77 0 136 -29t92 -81.5t33 -122.5h-207q0 31 -14 48t-41 17q-32 0 -46.5 -22.5t-14.5 -73.5v-10h133v-80h-133v-34h133v-80h-143q-13 -30 -39 -46v-2h369z" />
    <glyph glyph-name="peseta" unicode="&#x20a7;" horiz-adv-x="1020" 
d="M995 164v-160q-21 -6 -50.5 -10t-52.5 -4q-111 0 -162 42.5t-51 134.5v187h-33q-20 -86 -91.5 -133t-194.5 -47h-71v-174h-226v674h297q118 0 188.5 -43t93.5 -123h37v147h218v-147h93v-154h-93v-122q0 -39 14 -56t47 -17q20 0 37 5zM420 424q0 76 -92 76h-39v-152h39
q92 0 92 76z" />
    <glyph glyph-name="Euro" unicode="&#x20ac;" horiz-adv-x="684" 
d="M580.5 46q-77.5 -62 -203.5 -62q-124 0 -205 66.5t-105 185.5h-66l16 80h40v21v13h-56l16 80h48q23 123 104.5 191.5t207.5 68.5q128 0 204.5 -63t85.5 -175h-221q-13 61 -77 61q-71 0 -91 -83h190l-15 -80h-185v-13v-21h179l-15 -80h-152q23 -75 93 -75q32 0 51 15.5
t24 44.5h224q-14 -113 -91.5 -175z" />
    <glyph glyph-name="uni20B9" unicode="&#x20b9;" horiz-adv-x="684" 
d="M530 525h116l-29 -106h-78q-21 -102 -157 -130v-2q32 -12 57 -39t50 -78l83 -170h-260l-70 160q-19 43 -45 62.5t-61 19.5h-13v132h57q40 0 68 12t43 33h-253l29 106h225q-27 43 -108 43h-146l29 106h579l-29 -106h-126v-2q25 -13 39 -41z" />
    <glyph glyph-name="uni20BA" unicode="&#x20ba;" horiz-adv-x="684" 
d="M568.5 74.5q-94.5 -87.5 -269.5 -87.5q-102 0 -206 13v220l-80 -44v104l80 44v44l-80 -44v104l80 44v202h229v-98l152 83v-104l-152 -83v-43l152 83v-104l-152 -83v-148q50 0 76.5 38.5t26.5 114.5h238q0 -168 -94.5 -255.5z" />
    <glyph glyph-name="uni20BC" unicode="&#x20bc;" horiz-adv-x="844" 
d="M103 534q76 80 219 91v87h200v-87q144 -11 219.5 -91t75.5 -226v-308h-200v292q0 78 -22 113t-73 40v-445h-200v445q-50 -5 -72.5 -40t-22.5 -113v-292h-200v308q0 146 76 226z" />
    <glyph glyph-name="uni20BD" unicode="&#x20bd;" horiz-adv-x="684" 
d="M584 619q68 -55 68 -154t-68 -154.5t-204 -55.5h-74v-44h163v-126h-163v-85h-225v85h-62v126h62v44h-62v142h62v277h299q136 0 204 -55zM306 397h41q72 0 72 68q0 67 -72 67h-41v-135z" />
    <glyph glyph-name="afii61248" unicode="&#x2105;" horiz-adv-x="1002" 
d="M366.5 648q56.5 -42 63.5 -116h-172q-4 37 -32 37q-36 0 -36 -66q0 -69 37 -69q31 0 32 41h171q-5 -77 -61 -120t-146 -43q-96 0 -152.5 51.5t-56.5 139.5q0 86 56 136.5t152 50.5q88 0 144.5 -42zM262 0l350 674h119l-350 -674h-119zM936 311q58 -51 58 -138t-58 -138
t-156 -51t-156 51t-58 138t58 138t156 51t156 -51zM738 173q0 -67 42 -67t42 67t-42 67t-42 -67z" />
    <glyph glyph-name="afii61289" unicode="&#x2113;" horiz-adv-x="457" 
d="M277.5 155.5q13.5 -14.5 44.5 -14.5q26 0 44 6v-147q-44 -11 -98 -11q-105 0 -157 48t-55 147q-24 2 -43 6v99q21 -5 43 -6v158q0 94 22 148.5t65 77.5t112 23q81 0 130.5 -48t49.5 -152q0 -109 -45 -178t-126 -101v-8q0 -33 13.5 -47.5zM270.5 556.5
q-6.5 -15.5 -6.5 -56.5v-168q63 55 63 164q0 40 -9.5 58t-24.5 18q-16 0 -22.5 -15.5z" />
    <glyph glyph-name="afii61352" unicode="&#x2116;" horiz-adv-x="1282" 
d="M458 0l-97 265q-49 132 -88 267h-2q8 -125 8 -282v-250h-216v712h331l97 -265q49 -132 88 -267h2q-8 125 -8 282v250h216v-712h-331zM1216 586q58 -51 58 -138t-58 -138t-156 -51t-156 51t-58 138t58 138t156 51t156 -51zM1018 448q0 -67 42 -67t42 67t-42 67t-42 -67z
M871 75v135h372v-135h-372z" />
    <glyph glyph-name="uni2117" unicode="&#x2117;" horiz-adv-x="790" 
d="M585.5 682.5q82.5 -46.5 127.5 -131t45 -195.5t-45 -195.5t-127.5 -131t-190.5 -46.5t-190.5 46.5t-127.5 131t-45 195.5t45 195.5t127.5 131t190.5 46.5t190.5 -46.5zM245.5 612.5q-64.5 -36.5 -100 -103t-35.5 -153.5t35.5 -153.5t100 -103t149.5 -36.5t149.5 36.5
t100 103t35.5 153.5t-35.5 153.5t-100 103t-149.5 36.5t-149.5 -36.5zM559 518.5q44 -39.5 44 -111.5t-44 -112t-133 -40h-50v-107h-142v410h192q89 0 133 -39.5zM376 369h31q27 0 38.5 9.5t11.5 28.5q0 38 -53 38h-28v-76z" />
    <glyph glyph-name="trademark" unicode="&#x2122;" horiz-adv-x="912" 
d="M241 597v-241h-138v241h-98v115h333v-115h-97zM763 356v158v83v41h-2q-6 -41 -22 -123l-33 -159h-164l-33 159q-16 82 -22 123h-2v-41v-83v-158h-117v356h204l31 -146q12 -64 20 -131h2q5 51 20 131l30 146h205v-356h-117z" />
    <glyph glyph-name="uni2126" unicode="&#x2126;" horiz-adv-x="772" 
d="M643 650q96 -78 96 -228q0 -72 -31 -126.5t-86 -104.5v-2h128v-189h-325v195q35 36 55 81t20 106q0 75 -31.5 115t-82.5 40t-82.5 -40t-31.5 -115q0 -61 20 -106t55 -81v-195h-325v189h128v2q-55 50 -86 104.5t-31 126.5q0 150 96 228t257 78t257 -78z" />
    <glyph glyph-name="estimated" unicode="&#x212e;" horiz-adv-x="863" 
d="M636.5 641q86.5 -49 132.5 -132t46 -181h-612q-6 0 -10 -4t-4 -9v-167q0 -16 3.5 -25.5t12.5 -18.5q93 -91 227 -91q72 0 135.5 30.5t103.5 79.5h69q-40 -56 -118 -95.5t-190 -39.5q-114 0 -201.5 45t-135.5 124t-48 180q0 100 46.5 180.5t134 126.5t204.5 46
q118 0 204.5 -49zM205 570q-9 -8 -12.5 -17t-3.5 -24v-167q0 -5 4 -8.5t10 -3.5h456q6 0 9.5 3.5t3.5 8.5v167q0 15 -3 24t-12 17q-95 94 -225 94q-133 0 -227 -94z" />
    <glyph glyph-name="oneeighth" unicode="&#x215b;" horiz-adv-x="873" 
d="M111 270v227h-102v105q52 0 80.5 18t37.5 54h140v-404h-156zM151 0l350 674h119l-350 -674h-119zM794.5 381.5q47.5 -32.5 47.5 -86.5q0 -32 -21 -54.5t-58 -29.5v-2q41 -7 65.5 -33t24.5 -63q0 -59 -48.5 -91t-137.5 -32t-137.5 32t-48.5 91q0 37 24.5 63t65.5 33v2
q-37 7 -58 29.5t-21 54.5q0 54 47.5 86.5t127.5 32.5t127.5 -32.5zM637 310q-11 -9 -11 -24q0 -14 11 -23.5t30 -9.5t30 9.5t11 23.5q0 15 -11 24t-30 9t-30 -9zM636.5 148q-11.5 -9 -11.5 -25t11.5 -26t30.5 -10t30.5 10t11.5 26t-11.5 25t-30.5 9t-30.5 -9z" />
    <glyph glyph-name="threeeighths" unicode="&#x215c;" horiz-adv-x="981" 
d="M339 651.5q50 -32.5 50 -86.5q0 -32 -17.5 -53t-55.5 -31v-2q41 -12 59.5 -34t18.5 -57q0 -62 -47 -95t-138 -33q-94 0 -145.5 39t-51.5 113h146q0 -51 51 -51q19 0 30.5 9t11.5 23q0 31 -53 31h-14v97h13q26 0 38.5 7.5t12.5 23.5q0 14 -11.5 22.5t-30.5 8.5
q-23 0 -35.5 -13t-12.5 -34h-139q0 70 50 109t139 39q81 0 131 -32.5zM259 0l350 674h119l-350 -674h-119zM902.5 381.5q47.5 -32.5 47.5 -86.5q0 -32 -21 -54.5t-58 -29.5v-2q41 -7 65.5 -33t24.5 -63q0 -59 -48.5 -91t-137.5 -32t-137.5 32t-48.5 91q0 37 24.5 63t65.5 33
v2q-37 7 -58 29.5t-21 54.5q0 54 47.5 86.5t127.5 32.5t127.5 -32.5zM745 310q-11 -9 -11 -24q0 -14 11 -23.5t30 -9.5t30 9.5t11 23.5q0 15 -11 24t-30 9t-30 -9zM744.5 148q-11.5 -9 -11.5 -25t11.5 -26t30.5 -10t30.5 10t11.5 26t-11.5 25t-30.5 9t-30.5 -9z" />
    <glyph glyph-name="fiveeighths" unicode="&#x215d;" horiz-adv-x="985" 
d="M177 562l-5 -50h2q32 26 84 26q62 0 101.5 -36.5t39.5 -94.5q0 -67 -51.5 -107t-136.5 -40t-136 35.5t-51 98.5h148q0 -17 11 -28t31 -11q21 0 32.5 13.5t11.5 37.5q0 21 -11.5 33.5t-31.5 12.5q-16 0 -26 -9t-13 -24l-143 8l23 247h312v-112h-191zM263 0l350 674h119
l-350 -674h-119zM906.5 381.5q47.5 -32.5 47.5 -86.5q0 -32 -21 -54.5t-58 -29.5v-2q41 -7 65.5 -33t24.5 -63q0 -59 -48.5 -91t-137.5 -32t-137.5 32t-48.5 91q0 37 24.5 63t65.5 33v2q-37 7 -58 29.5t-21 54.5q0 54 47.5 86.5t127.5 32.5t127.5 -32.5zM749 310
q-11 -9 -11 -24q0 -14 11 -23.5t30 -9.5t30 9.5t11 23.5q0 15 -11 24t-30 9t-30 -9zM748.5 148q-11.5 -9 -11.5 -25t11.5 -26t30.5 -10t30.5 10t11.5 26t-11.5 25t-30.5 9t-30.5 -9z" />
    <glyph glyph-name="seveneighths" unicode="&#x215e;" horiz-adv-x="882" 
d="M278.5 430.5q-33.5 -78.5 -50.5 -160.5h-156q20 80 57.5 158t84.5 134h-205v112h350v-105q-47 -60 -80.5 -138.5zM160 0l350 674h119l-350 -674h-119zM803.5 381.5q47.5 -32.5 47.5 -86.5q0 -32 -21 -54.5t-58 -29.5v-2q41 -7 65.5 -33t24.5 -63q0 -59 -48.5 -91
t-137.5 -32t-137.5 32t-48.5 91q0 37 24.5 63t65.5 33v2q-37 7 -58 29.5t-21 54.5q0 54 47.5 86.5t127.5 32.5t127.5 -32.5zM646 310q-11 -9 -11 -24q0 -14 11 -23.5t30 -9.5t30 9.5t11 23.5q0 15 -11 24t-30 9t-30 -9zM645.5 148q-11.5 -9 -11.5 -25t11.5 -26t30.5 -10
t30.5 10t11.5 26t-11.5 25t-30.5 9t-30.5 -9z" />
    <glyph glyph-name="uni2166" unicode="&#x2166;" horiz-adv-x="1396" 
d="M201 0l-200 712h242l62 -271q33 -140 50 -258h2q17 118 50 258l62 271h242l-200 -712h-310zM755 0v712h226v-712h-226zM1107 0v712h226v-712h-226z" />
    <glyph glyph-name="partialdiff" unicode="&#x2202;" horiz-adv-x="647" 
d="M524 637q72 -91 72 -259q0 -198 -79.5 -296t-215.5 -98q-135 0 -206.5 67t-71.5 181q0 71 30 127t86.5 88t134.5 32q66 0 104 -27h2q1 5 1 15q0 49 -18 79.5t-51 30.5q-46 0 -51 -56h-218q11 97 78 152t184 55q147 0 219 -91zM248 232q0 -97 57 -97q65 0 65 117
q0 97 -57 97q-65 0 -65 -117z" />
    <glyph glyph-name="uni2206" unicode="&#x2206;" horiz-adv-x="746" 
d="M-4 0l239 712h276l239 -712h-754zM427 328q-32 123 -53 223h-2q-21 -100 -53 -223l-41 -156h191z" />
    <glyph glyph-name="product" unicode="&#x220f;" horiz-adv-x="749" 
d="M459 -120v643h-169v-643h-227v832h623v-832h-227z" />
    <glyph glyph-name="summation" unicode="&#x2211;" horiz-adv-x="552" 
d="M274 524l137 -226l-136 -229h242v-189h-482v189l142 229l-142 226v188h482v-188h-243z" />
    <glyph glyph-name="minus" unicode="&#x2212;" horiz-adv-x="566" 
d="M50 233v169h466v-169h-466z" />
    <glyph glyph-name="uni2215" unicode="&#x2215;" horiz-adv-x="534" 
d="M30 -89l297 834h156l-297 -834h-156z" />
    <glyph glyph-name="uni2219" unicode="&#x2219;" horiz-adv-x="390" 
d="M84 197v217h222v-217h-222z" />
    <glyph glyph-name="radical" unicode="&#x221a;" horiz-adv-x="740" 
d="M192 -120l-83 350h-84v173h230l85 -356h2l189 665h189l-238 -832h-290z" />
    <glyph glyph-name="infinity" unicode="&#x221e;" horiz-adv-x="771" 
d="M703.5 461q52.5 -57 52.5 -153t-52.5 -153t-141.5 -57q-56 0 -98.5 22t-77.5 60q-75 -82 -177 -82q-89 0 -141.5 57t-52.5 153t52.5 153t141.5 57q102 0 177 -82q35 38 77.5 60t98.5 22q89 0 141.5 -57zM262 274q15 12 32 34q-17 22 -32 34t-33 12q-22 0 -34 -12.5
t-12 -33.5q0 -20 12 -33t34 -13q18 0 33 12zM576 275q12 13 12 33q0 21 -12 33.5t-34 12.5q-18 0 -33 -12t-32 -34q17 -22 32 -34t33 -12q22 0 34 13z" />
    <glyph glyph-name="integral" unicode="&#x222b;" horiz-adv-x="412" 
d="M408 712v-145q-8 2 -21 2q-38 0 -56 -15.5t-18 -51.5v-503q0 -97 -54 -146t-157 -49q-50 0 -98 11v145q8 -2 21 -2q38 0 56 15.5t18 51.5v503q0 97 54 146t156 49q51 0 99 -11z" />
    <glyph glyph-name="approxequal" unicode="&#x2248;" horiz-adv-x="566" 
d="M250.5 530q21.5 -9 50.5 -25q37 -22 54 -22q18 0 28 11.5t10 31.5h122q0 -87 -42 -140.5t-111 -53.5q-24 0 -45.5 9t-50.5 25q-20 11 -32 16.5t-23 5.5q-19 0 -29 -11.5t-10 -31.5h-121q0 87 41.5 140.5t111.5 53.5q25 0 46.5 -9zM250.5 293q21.5 -9 50.5 -25
q37 -22 54 -22q18 0 28 11.5t10 31.5h122q0 -87 -42 -140.5t-111 -53.5q-24 0 -45.5 9t-50.5 25q-20 11 -32 16.5t-23 5.5q-19 0 -29 -11.5t-10 -31.5h-121q0 87 41.5 140.5t111.5 53.5q25 0 46.5 -9z" />
    <glyph glyph-name="notequal" unicode="&#x2260;" horiz-adv-x="566" 
d="M336 279h180v-155h-257l-51 -103h-145l51 103h-64v155h141l37 75h-178v155h255l52 105h146l-52 -105h65v-155h-142z" />
    <glyph glyph-name="lessequal" unicode="&#x2264;" horiz-adv-x="566" 
d="M251 379v-2l265 -73v-151l-466 137v175l466 138v-151zM516 0h-466v142h466v-142z" />
    <glyph glyph-name="greaterequal" unicode="&#x2265;" horiz-adv-x="566" 
d="M516 290l-466 -137v151l265 73v2l-265 73v151l466 -138v-175zM50 0v142h466v-142h-466z" />
    <glyph glyph-name="lozenge" unicode="&#x25ca;" horiz-adv-x="715" 
d="M503 0h-292l-171 356l171 356h292l172 -356zM357 154l94 202l-94 202l-94 -202z" />
    <glyph glyph-name="uniF8FF" unicode="&#xf8ff;" horiz-adv-x="660" 
d="M612.5 739.5q37.5 -37.5 37.5 -102.5v-562q0 -64 -37.5 -102t-102.5 -38h-360q-64 0 -102 38t-38 102v562q0 65 38 102.5t102 37.5h360q65 0 102.5 -37.5zM106 681q-16 -16 -16 -44v-562q0 -28 16 -44t44 -16h360q28 0 44 16t16 44v562q0 28 -16 44t-44 16h-360
q-28 0 -44 -16zM470.5 606q51.5 -41 51.5 -114q0 -40 -14.5 -68.5t-52.5 -64.5q-39 -37 -52.5 -61.5t-13.5 -59.5h-127q-3 24 -3 51q0 38 10.5 61.5t45.5 59.5q29 29 38 45t9 36q0 18 -9.5 28.5t-24.5 10.5q-20 0 -32 -18t-11 -54h-155q0 91 52 140t146 49q91 0 142.5 -41z
M250 65v133h152v-133h-152z" />
    <glyph glyph-name="uniFB00" unicode="&#xfb00;" horiz-adv-x="765" 
d="M682.5 554.5q-17.5 -14.5 -18.5 -46.5h90v-154h-90v-354h-218v354h-147v-354h-218v354h-75v154h75v20q0 97 55 146t160 49q51 0 99 -11v-145q-8 2 -24 2q-36 0 -53.5 -14.5t-18.5 -46.5h147v20q0 97 55 146t160 49q51 0 99 -11v-145q-8 2 -24 2q-36 0 -53.5 -14.5z" />
    <glyph glyph-name="uniFB01" unicode="&#xfb01;" horiz-adv-x="712" 
d="M136 674q55 49 160 49q51 0 99 -11v-145q-8 2 -24 2q-36 0 -53.5 -14.5t-18.5 -46.5h90v-154h-90v-354h-218v354h-75v154h75v20q0 97 55 146zM665 560h-218v152h218v-152zM665 508v-508h-218v508h218z" />
    <glyph glyph-name="uniFB02" unicode="&#xfb02;" horiz-adv-x="712" 
d="M317.5 554.5q-17.5 -14.5 -18.5 -46.5h90v-154h-90v-354h-218v354h-75v154h75v20q0 97 55 146t160 49q51 0 99 -11v-145q-8 2 -24 2q-36 0 -53.5 -14.5zM447 0v712h218v-712h-218z" />
    <glyph glyph-name="uniFB03" unicode="&#xfb03;" horiz-adv-x="1077" 
d="M501 674q55 49 160 49q51 0 99 -11v-145q-8 2 -24 2q-36 0 -53.5 -14.5t-18.5 -46.5h90v-154h-90v-354h-218v354h-147v-354h-218v354h-75v154h75v20q0 97 55 146t160 49q51 0 99 -11v-145q-8 2 -24 2q-36 0 -53.5 -14.5t-18.5 -46.5h147v20q0 97 55 146zM1030 560h-218
v152h218v-152zM1030 508v-508h-218v508h218z" />
    <glyph glyph-name="uniFB04" unicode="&#xfb04;" horiz-adv-x="1077" 
d="M501 674q55 49 160 49q51 0 99 -11v-145q-8 2 -24 2q-36 0 -53.5 -14.5t-18.5 -46.5h90v-154h-90v-354h-218v354h-147v-354h-218v354h-75v154h75v20q0 97 55 146t160 49q51 0 99 -11v-145q-8 2 -24 2q-36 0 -53.5 -14.5t-18.5 -46.5h147v20q0 97 55 146zM1030 0h-218v712
h218v-712z" />
    <glyph glyph-name="uniFEFF" unicode="&#xfeff;" horiz-adv-x="0" 
 />
    <glyph glyph-name="glyph202" horiz-adv-x="446" 
d="M322 56.5q-66 -67.5 -203 -67.5q-53 0 -104 12v182q22 -4 42 -4q41 0 63.5 13.5t32 44t9.5 85.5v390h226v-444q0 -144 -66 -211.5zM161 764l81 152h226l-143 -152h-164z" />
    <glyph glyph-name="Ccedilla.salt" horiz-adv-x="744" 
d="M618 652q91 -76 97 -214h-241q-5 49 -30 74.5t-69 25.5q-50 0 -79.5 -48.5t-29.5 -133.5q0 -84 30 -133t80 -49q42 0 69 28.5t31 78.5h243q-11 -143 -102.5 -220t-240.5 -77q-108 0 -186.5 45t-120 128.5t-41.5 198.5t42 199t120 128.5t185 44.5q152 0 243 -76zM182 -217
l143 168h160l-102 -168h-201z" />
    <glyph glyph-name="Scedilla.salt" horiz-adv-x="676" 
d="M560 669q79 -59 79 -172h-241q0 31 -18 47t-52 16q-31 0 -47.5 -11.5t-16.5 -32.5q0 -16 10.5 -26t33.5 -17.5t72 -19.5q87 -21 143 -45.5t91.5 -70.5t35.5 -120q0 -110 -83 -171.5t-233 -61.5t-233.5 64.5t-83.5 180.5h248q0 -36 18.5 -53t59.5 -17q32 0 49.5 12
t17.5 33q0 18 -10.5 28.5t-32.5 18t-71 20.5q-88 24 -141 47t-87.5 66.5t-34.5 114.5q0 107 80.5 168t228.5 61q139 0 218 -59zM142 -217l143 168h160l-102 -168h-201z" />
    <glyph glyph-name="Tcommaaccent.salt" horiz-adv-x="650" 
d="M438 523v-523h-226v523h-205v189h636v-189h-205zM132 -217l143 168h160l-102 -168h-201z" />
    <glyph glyph-name="i.locl" horiz-adv-x="312" 
d="M47 0v508h218v-508h-218zM47 560v152h218v-152h-218z" />
    <glyph glyph-name="glyph314" horiz-adv-x="311" 
d="M205.5 -137q-58.5 -54 -155.5 -54q-62 0 -103 12v147q11 -3 24 -3q40 0 57.5 21.5t17.5 79.5v442h218v-482q0 -109 -58.5 -163zM38 560l81 152h226l-143 -152h-164z" />
    <glyph glyph-name="ccedilla.salt" horiz-adv-x="602" 
d="M499.5 465q76.5 -59 86.5 -162h-225q-3 30 -17 45.5t-35 15.5q-29 0 -44 -27t-15 -80q0 -56 15.5 -84t44.5 -28q23 0 36.5 17.5t14.5 51.5h225q-8 -108 -83.5 -169t-197.5 -61q-86 0 -150.5 33t-99.5 95t-35 145q0 81 34.5 141.5t99 93t150.5 32.5q119 0 195.5 -59z
M111 -217l143 168h160l-102 -168h-201z" />
    <glyph glyph-name="scedilla.salt" horiz-adv-x="577" 
d="M471 483q65 -41 65 -125h-206q0 47 -45 47q-37 0 -37 -27q0 -10 7 -17t26.5 -14t60.5 -18q64 -17 108.5 -36t74.5 -53t30 -86q0 -79 -67 -124.5t-192 -45.5q-138 0 -206 44.5t-68 136.5h217q0 -30 13 -42.5t44 -12.5q21 0 32.5 7.5t11.5 20.5q0 12 -9.5 20t-34 16
t-73.5 21q-58 15 -97 31.5t-65 49t-26 84.5q0 75 61.5 119.5t191.5 44.5q118 0 183 -41zM103 -217l143 168h160l-102 -168h-201z" />
    <glyph glyph-name="tcommaaccent.salt" horiz-adv-x="419" 
d="M394 164v-160q-21 -6 -50.5 -10t-52.5 -4q-111 0 -162 42.5t-51 134.5v187h-74v154h74v147h218v-147h93v-154h-93v-122q0 -39 14 -56t47 -17q20 0 37 5zM43 -217l143 168h160l-102 -168h-201z" />
    <glyph glyph-name="a.superior" horiz-adv-x="435" 
d="M357.5 657q46.5 -40 46.5 -114v-104q0 -70 13 -109h-151q-6 17 -6 42h-2q-44 -53 -118 -53q-60 0 -95 32.5t-35 81.5q0 51 36 79t119 40q39 6 78 8v13q0 37 -30 37t-30 -38h-158q4 54 49.5 89.5t140.5 35.5q96 0 142.5 -40zM221 484q-13 -2 -21 -5q-28 -8 -28 -35
q0 -14 7.5 -22t21.5 -8q20 0 31 14q7 9 9 18.5t2 27.5v12q-9 0 -22 -2z" />
    <glyph glyph-name="b.superior" horiz-adv-x="464" 
d="M202 659q16 19 39.5 28.5t49.5 9.5q73 0 116 -51t43 -138t-44.5 -138.5t-119.5 -51.5q-59 0 -92 48h-2v-36h-159v498h167v-169h2zM202 555q-11 -18 -11 -47t11 -47t31 -18q19 0 30.5 17.5t11.5 47.5t-11.5 47.5t-30.5 17.5q-20 0 -31 -18z" />
    <glyph glyph-name="c.superior" horiz-adv-x="441" 
d="M366.5 655q56.5 -42 63.5 -116h-172q-4 37 -32 37q-36 0 -36 -66q0 -69 37 -69q31 0 32 41h171q-5 -77 -61 -120t-146 -43q-96 0 -152.5 51.5t-56.5 139.5q0 86 56 136.5t152 50.5q88 0 144.5 -42z" />
    <glyph glyph-name="d.superior" horiz-adv-x="464" 
d="M431 330h-159v36h-2q-33 -48 -92 -48q-75 0 -119.5 51.5t-44.5 138.5t43 138t116 51q26 0 49.5 -9.5t39.5 -28.5h2v169h167v-498zM200.5 555.5q-11.5 -17.5 -11.5 -47.5t11.5 -47.5t30.5 -17.5q20 0 31 18t11 47t-11 47t-31 18q-19 0 -30.5 -17.5z" />
    <glyph glyph-name="e.superior" horiz-adv-x="443" 
d="M243 426q9 6 10 16h170q-13 -54 -68.5 -88.5t-131.5 -34.5q-67 0 -114 25.5t-71 69t-24 96.5t24 95.5t70.5 67t111.5 24.5q69 0 117 -26.5t72 -76.5q11 -23 15.5 -50t4.5 -70h-251q2 -31 12.5 -42.5t29.5 -11.5q14 0 23 6zM192.5 590.5q-10.5 -9.5 -14.5 -37.5h83
q-3 47 -41 47q-17 0 -27.5 -9.5z" />
    <glyph glyph-name="egrave.superior" horiz-adv-x="443" 
d="M47 828h189l77 -104h-146zM243 426q9 6 10 16h170q-13 -54 -68.5 -88.5t-131.5 -34.5q-67 0 -114 25.5t-71 69t-24 96.5t24 95.5t70.5 67t111.5 24.5q69 0 117 -26.5t72 -76.5q11 -23 15.5 -50t4.5 -70h-251q2 -31 12.5 -42.5t29.5 -11.5q14 0 23 6zM192.5 590.5
q-10.5 -9.5 -14.5 -37.5h83q-3 47 -41 47q-17 0 -27.5 -9.5z" />
    <glyph glyph-name="f.superior" horiz-adv-x="297" 
d="M226 686h62v-117h-63v-239h-168v239h-53v117h53v9q0 70 41.5 106t119.5 36q39 0 75 -9v-109q-3 1 -17 1q-46 0 -50 -34z" />
    <glyph glyph-name="g.superior" horiz-adv-x="457" 
d="M224.5 679.5q28.5 -16.5 42.5 -40.5h2v47h155v-330q0 -86 -52.5 -125.5t-157.5 -39.5q-80 0 -128 31.5t-56 89.5h154q1 -14 9.5 -22.5t22.5 -8.5q22 0 34 15t12 49v41h-2q-14 -20 -42 -33t-57 -13q-68 0 -107.5 48.5t-39.5 129.5q0 82 41 130t111 48q30 0 58.5 -16.5z
M195 561.5q-11 -15.5 -11 -43.5t11 -43.5t31 -15.5q19 0 30 15.5t11 43.5t-11 43.5t-30 15.5q-20 0 -31 -15.5z" />
    <glyph glyph-name="h.superior" horiz-adv-x="456" 
d="M202 659q34 38 92 38q62 0 97.5 -38.5t35.5 -109.5v-219h-167v197q0 43 -27 43q-18 0 -25.5 -16.5t-7.5 -55.5v-168h-167v498h167v-169h2z" />
    <glyph glyph-name="i.superior" horiz-adv-x="233" 
d="M33 717v111h167v-111h-167zM33 330v356h167v-356h-167z" />
    <glyph glyph-name="j.superior" horiz-adv-x="234" 
d="M34 717v111h167v-111h-167zM157.5 235.5q-43.5 -39.5 -116.5 -39.5q-48 0 -78 9v111q10 -2 17 -2q29 0 41.5 15.5t12.5 56.5v300h167v-331q0 -80 -43.5 -119.5z" />
    <glyph glyph-name="k.superior" horiz-adv-x="452" 
d="M256 330l-54 146h-2v-146h-167v499h167v-273h2l46 130h201l-109 -172l119 -184h-203z" />
    <glyph glyph-name="l.superior" horiz-adv-x="233" 
d="M33 330v498h167v-498h-167z" />
    <glyph glyph-name="m.superior" horiz-adv-x="677" 
d="M613.5 658.5q34.5 -38.5 34.5 -109.5v-219h-167v197q0 43 -24 43q-17 0 -25 -14.5t-8 -51.5v-174h-166v198q0 24 -6.5 33t-18.5 9q-16 0 -24.5 -15t-8.5 -51v-174h-167v356h153v-41h2q16 23 44.5 37.5t62.5 14.5q74 0 108 -63q16 29 47 46t70 17q59 0 93.5 -38.5z" />
    <glyph glyph-name="n.superior" horiz-adv-x="456" 
d="M391.5 658.5q35.5 -38.5 35.5 -109.5v-219h-167v197q0 43 -27 43q-18 0 -25.5 -16.5t-7.5 -55.5v-168h-167v356h154v-37h2q40 48 105 48q62 0 97.5 -38.5z" />
    <glyph glyph-name="o.superior" horiz-adv-x="456" 
d="M384 646q58 -51 58 -138t-58 -138t-156 -51t-156 51t-58 138t58 138t156 51t156 -51zM186 508q0 -67 42 -67t42 67t-42 67t-42 -67z" />
    <glyph glyph-name="p.superior" horiz-adv-x="464" 
d="M405.5 646q44.5 -51 44.5 -138t-43 -138.5t-116 -51.5q-27 0 -50.5 9.5t-38.5 28.5h-2v-155h-167v485h159v-36h2q16 24 40 35.5t52 11.5q75 0 119.5 -51zM202 555q-11 -18 -11 -47t11 -47t31 -18q19 0 30.5 17.5t11.5 47.5t-11.5 47.5t-30.5 17.5q-20 0 -31 -18z" />
    <glyph glyph-name="q.superior" horiz-adv-x="464" 
d="M230 685.5q24 -11.5 40 -35.5h2v36h159v-485h-167v155h-2q-15 -19 -38.5 -28.5t-50.5 -9.5q-73 0 -116 51.5t-43 138.5t44.5 138t119.5 51q28 0 52 -11.5zM200.5 555.5q-11.5 -17.5 -11.5 -47.5t11.5 -47.5t30.5 -17.5q20 0 31 18t11 47t-11 47t-31 18q-19 0 -30.5 -17.5
z" />
    <glyph glyph-name="r.superior" horiz-adv-x="342" 
d="M339 687v-140q-26 4 -49 4q-43 0 -66.5 -25.5t-23.5 -72.5v-123h-167v356h156v-46h2q21 27 47.5 39t62.5 12q23 0 38 -4z" />
    <glyph glyph-name="s.superior" horiz-adv-x="424" 
d="M347 668.5q48 -28.5 48 -86.5h-157q0 28 -28 28q-23 0 -23 -16q0 -10 12 -16t54 -17q74 -19 115 -45t41 -76q0 -57 -49 -89t-142 -32q-103 0 -153 31t-50 96h166q0 -18 8.5 -26.5t28.5 -8.5q13 0 20.5 4.5t7.5 12.5q0 9 -6.5 14t-27 11t-51.5 13q-65 16 -101 39.5
t-36 75.5q0 53 45 84.5t143 31.5q87 0 135 -28.5z" />
    <glyph glyph-name="t.superior" horiz-adv-x="310" 
d="M292 454v-121q-16 -5 -38 -8t-40 -3q-82 0 -120.5 30.5t-38.5 95.5v121h-52v117h52v105h167v-105h67v-117h-67v-68q0 -27 10 -38.5t33 -11.5q17 0 27 3z" />
    <glyph glyph-name="u.superior" horiz-adv-x="456" 
d="M64.5 357.5q-35.5 38.5 -35.5 109.5v219h167v-197q0 -43 27 -43q18 0 25.5 16.5t7.5 55.5v168h167v-356h-154v37h-2q-40 -48 -105 -48q-62 0 -97.5 38.5z" />
    <glyph glyph-name="v.superior" horiz-adv-x="428" 
d="M97 330l-104 356h182l18 -103q13 -79 20 -143h2q7 64 20 143l18 103h182l-104 -356h-234z" />
    <glyph glyph-name="w.superior" horiz-adv-x="680" 
d="M382 330l-21 116q-13 77 -20 143h-2q-7 -66 -20 -143l-21 -116h-213l-83 356h159l13 -113q11 -84 13 -142h2q9 72 26 147l25 108h200l25 -108q17 -75 26 -147h2q2 58 13 142l13 113h159l-83 -356h-213z" />
    <glyph glyph-name="x.superior" horiz-adv-x="434" 
d="M438 330h-184l-36 98h-2l-36 -98h-184l114 183l-106 173h185l27 -93h2l27 93h185l-106 -173z" />
    <glyph glyph-name="y.superior" horiz-adv-x="432" 
d="M299.5 265q-23.5 -38 -56.5 -54.5t-84 -16.5q-47 0 -84 8v113q13 -4 31 -4q28 0 28 18q0 8 -4.5 21t-15.5 39l-8 19l-117 278h183l29 -119q18 -78 28 -146h2q8 80 20 148l19 117h169l-95 -315q-21 -68 -44.5 -106z" />
    <glyph glyph-name="z.superior" horiz-adv-x="394" 
d="M233 454v-2h139v-122h-350v125l134 107v2h-130v122h342v-126z" />
    <glyph glyph-name="A.aalt" horiz-adv-x="668" 
d="M245 77l-21 -77h-228l192 548h292l192 -548h-228l-21 77h-178zM376 249q-19 62 -41 159h-2q-4 -18 -29 -113l-12 -46l-11 -39h105z" />
    <glyph glyph-name="Aacute.aalt" horiz-adv-x="668" 
d="M245 77l-21 -77h-228l192 548h292l192 -548h-228l-21 77h-178zM376 249q-19 62 -41 159h-2q-4 -18 -29 -113l-12 -46l-11 -39h105zM217 600l81 152h226l-143 -152h-164z" />
    <glyph glyph-name="Abreve.aalt" horiz-adv-x="668" 
d="M245 77l-21 -77h-228l192 548h292l192 -548h-228l-21 77h-178zM376 249q-19 62 -41 159h-2q-4 -18 -29 -113l-12 -46l-11 -39h105zM468.5 633.5q-47.5 -41.5 -134.5 -41.5t-134.5 41.5t-49.5 118.5h128q1 -24 14.5 -34.5t41.5 -10.5t41.5 10.5t14.5 34.5h128
q-2 -77 -49.5 -118.5z" />
    <glyph glyph-name="Acircumflex.aalt" horiz-adv-x="668" 
d="M245 77l-21 -77h-228l192 548h292l192 -548h-228l-21 77h-178zM376 249q-19 62 -41 159h-2q-4 -18 -29 -113l-12 -46l-11 -39h105zM334 675l-52 -75h-159l127 152h169l127 -152h-159z" />
    <glyph glyph-name="Adieresis.aalt" horiz-adv-x="668" 
d="M245 77l-21 -77h-228l192 548h292l192 -548h-228l-21 77h-178zM376 249q-19 62 -41 159h-2q-4 -18 -29 -113l-12 -46l-11 -39h105zM120 600v152h182v-152h-182zM366 600v152h182v-152h-182z" />
    <glyph glyph-name="Agrave.aalt" horiz-adv-x="668" 
d="M245 77l-21 -77h-228l192 548h292l192 -548h-228l-21 77h-178zM376 249q-19 62 -41 159h-2q-4 -18 -29 -113l-12 -46l-11 -39h105zM451 600h-164l-143 152h226z" />
    <glyph glyph-name="Amacron.aalt" horiz-adv-x="668" 
d="M245 77l-21 -77h-228l192 548h292l192 -548h-228l-21 77h-178zM376 249q-19 62 -41 159h-2q-4 -18 -29 -113l-12 -46l-11 -39h105zM121 612v127h426v-127h-426z" />
    <glyph glyph-name="Aogonek.aalt" horiz-adv-x="668" 
d="M245 77l-21 -77h-228l192 548h292l192 -548h-228l-21 77h-178zM376 249q-19 62 -41 159h-2q-4 -18 -29 -113l-12 -46l-11 -39h105zM627.5 -33q-12.5 -14 -12.5 -29q0 -26 29 -26q15 0 31 7v-104q-54 -18 -121 -18q-72 0 -108 26t-36 74q0 32 24.5 57t71.5 46h166
q-32 -19 -44.5 -33z" />
    <glyph glyph-name="Aring.aalt" horiz-adv-x="668" 
d="M245 77l-21 -77h-228l192 548h292l192 -548h-228l-21 77h-178zM376 249q-19 62 -41 159h-2q-4 -18 -29 -113l-12 -46l-11 -39h105zM422.5 800q36.5 -37 36.5 -89q0 -34 -16.5 -62.5t-45.5 -45.5t-63 -17t-63 17t-46 46t-17 62q0 34 17 63t46 46t63 17q52 0 88.5 -37z
M291.5 753.5q-17.5 -17.5 -17.5 -42.5t17.5 -42.5t42.5 -17.5t42.5 17.5t17.5 42.5t-17.5 42.5t-42.5 17.5t-42.5 -17.5z" />
    <glyph glyph-name="Atilde.aalt" horiz-adv-x="668" 
d="M245 77l-21 -77h-228l192 548h292l192 -548h-228l-21 77h-178zM376 249q-19 62 -41 159h-2q-4 -18 -29 -113l-12 -46l-11 -39h105zM503.5 634.5q-34.5 -42.5 -98.5 -42.5q-23 0 -42 6t-43 17q-13 6 -25.5 10.5t-23.5 4.5q-31 0 -36 -38h-110q4 76 38.5 118t98.5 42
q23 0 42 -5.5t43 -16.5q34 -15 49 -15q17 0 25.5 9t10.5 28h110q-4 -75 -38.5 -117.5z" />
    <glyph glyph-name="AE.aalt" horiz-adv-x="827" 
d="M789 0h-355l-14 87h-190l-36 -87h-199l235 548h558v-150h-241l9 -52h212v-144h-190l9 -52h202v-150zM370 395h-12l-68 -163h106z" />
    <glyph glyph-name="B.aalt" horiz-adv-x="634" 
d="M540 510q55 -38 55 -104q0 -46 -22 -74t-71 -44v-2q51 -12 80 -46t29 -82q0 -73 -61.5 -115.5t-170.5 -42.5h-323v548h321q108 0 163 -38zM268 334h50q65 0 65 44t-61 44h-54v-88zM268 126h52q35 0 50.5 10.5t15.5 34.5t-16.5 35.5t-51.5 11.5h-50v-92z" />
    <glyph glyph-name="C.aalt" horiz-adv-x="621" 
d="M514.5 504q76.5 -60 80.5 -175h-227q-4 36 -18 53t-40 17q-29 0 -45.5 -31t-16.5 -95q0 -62 17.5 -93t46.5 -31q24 0 39.5 19.5t18.5 54.5h228q-9 -117 -85 -178t-201 -61q-135 0 -211 76.5t-76 212.5t76 213.5t209 77.5q128 0 204.5 -60z" />
    <glyph glyph-name="Cacute.aalt" horiz-adv-x="621" 
d="M514.5 504q76.5 -60 80.5 -175h-227q-4 36 -18 53t-40 17q-29 0 -45.5 -31t-16.5 -95q0 -62 17.5 -93t46.5 -31q24 0 39.5 19.5t18.5 54.5h228q-9 -117 -85 -178t-201 -61q-135 0 -211 76.5t-76 212.5t76 213.5t209 77.5q128 0 204.5 -60zM193 600l81 152h226l-143 -152
h-164z" />
    <glyph glyph-name="Ccaron.aalt" horiz-adv-x="621" 
d="M514.5 504q76.5 -60 80.5 -175h-227q-4 36 -18 53t-40 17q-29 0 -45.5 -31t-16.5 -95q0 -62 17.5 -93t46.5 -31q24 0 39.5 19.5t18.5 54.5h228q-9 -117 -85 -178t-201 -61q-135 0 -211 76.5t-76 212.5t76 213.5t209 77.5q128 0 204.5 -60zM226 600l-127 152h159l52 -75
l53 75h159l-127 -152h-169z" />
    <glyph glyph-name="Ccedilla.c2sc" horiz-adv-x="621" 
d="M524.5 54.5q-65.5 -60.5 -175.5 -69.5l-26 -43q18 5 33 5q46 0 69.5 -21.5t23.5 -60.5q0 -49 -36.5 -79.5t-103.5 -30.5q-34 0 -69 9.5t-64 27.5l34 70q51 -23 83 -23q34 0 34 22q0 11 -9 17.5t-26 6.5t-29 -7l-47 36l43 73q-111 15 -172.5 90t-61.5 196q0 136 76 213.5
t209 77.5q128 0 204.5 -60t80.5 -175h-227q-4 36 -18 53t-40 17q-29 0 -45.5 -31t-16.5 -95q0 -62 17.5 -93t46.5 -31q24 0 39.5 19.5t18.5 54.5h228q-8 -108 -73.5 -168.5z" />
    <glyph glyph-name="Ccircumflex.aalt" horiz-adv-x="621" 
d="M514.5 504q76.5 -60 80.5 -175h-227q-4 36 -18 53t-40 17q-29 0 -45.5 -31t-16.5 -95q0 -62 17.5 -93t46.5 -31q24 0 39.5 19.5t18.5 54.5h228q-9 -117 -85 -178t-201 -61q-135 0 -211 76.5t-76 212.5t76 213.5t209 77.5q128 0 204.5 -60zM310 675l-52 -75h-159l127 152
h169l127 -152h-159z" />
    <glyph glyph-name="Cdotaccent.aalt" horiz-adv-x="621" 
d="M514.5 504q76.5 -60 80.5 -175h-227q-4 36 -18 53t-40 17q-29 0 -45.5 -31t-16.5 -95q0 -62 17.5 -93t46.5 -31q24 0 39.5 19.5t18.5 54.5h228q-9 -117 -85 -178t-201 -61q-135 0 -211 76.5t-76 212.5t76 213.5t209 77.5q128 0 204.5 -60zM201 600v152h218v-152h-218z
" />
    <glyph glyph-name="D.aalt" horiz-adv-x="664" 
d="M554.5 477q84.5 -71 84.5 -203q0 -131 -84.5 -202.5t-239.5 -71.5h-259v548h259q155 0 239.5 -71zM276 158h32q51 0 79.5 31t28.5 85t-28.5 85t-79.5 31h-32v-232z" />
    <glyph glyph-name="Eth.aalt" horiz-adv-x="671" 
d="M561.5 477q84.5 -71 84.5 -203q0 -131 -84.5 -202.5t-239.5 -71.5h-259v224h-53v104h53v220h259q155 0 239.5 -71zM401.5 182q31.5 34 31.5 92t-31.5 92t-86.5 34h-42v-72h87v-104h-87v-76h42q55 0 86.5 34z" />
    <glyph glyph-name="Dcaron.aalt" horiz-adv-x="664" 
d="M554.5 477q84.5 -71 84.5 -203q0 -131 -84.5 -202.5t-239.5 -71.5h-259v548h259q155 0 239.5 -71zM276 158h32q51 0 79.5 31t28.5 85t-28.5 85t-79.5 31h-32v-232zM245 600l-127 152h159l52 -75l53 75h159l-127 -152h-169z" />
    <glyph glyph-name="Dcroat.aalt" horiz-adv-x="671" 
d="M561.5 477q84.5 -71 84.5 -203q0 -131 -84.5 -202.5t-239.5 -71.5h-259v224h-53v104h53v220h259q155 0 239.5 -71zM401.5 182q31.5 34 31.5 92t-31.5 92t-86.5 34h-42v-72h87v-104h-87v-76h42q55 0 86.5 34z" />
    <glyph glyph-name="E.aalt" horiz-adv-x="533" 
d="M248 398v-52h226v-144h-226v-52h247v-150h-438v548h437v-150h-246z" />
    <glyph glyph-name="Eacute.aalt" horiz-adv-x="533" 
d="M248 398v-52h226v-144h-226v-52h247v-150h-438v548h437v-150h-246zM159 600l81 152h226l-143 -152h-164z" />
    <glyph glyph-name="Ebreve.aalt" horiz-adv-x="533" 
d="M248 398v-52h226v-144h-226v-52h247v-150h-438v548h437v-150h-246zM410.5 633.5q-47.5 -41.5 -134.5 -41.5t-134.5 41.5t-49.5 118.5h128q1 -24 14.5 -34.5t41.5 -10.5t41.5 10.5t14.5 34.5h128q-2 -77 -49.5 -118.5z" />
    <glyph glyph-name="Ecaron.aalt" horiz-adv-x="533" 
d="M248 398v-52h226v-144h-226v-52h247v-150h-438v548h437v-150h-246zM192 600l-127 152h159l52 -75l53 75h159l-127 -152h-169z" />
    <glyph glyph-name="Ecircumflex.aalt" horiz-adv-x="533" 
d="M248 398v-52h226v-144h-226v-52h247v-150h-438v548h437v-150h-246zM276 675l-52 -75h-159l127 152h169l127 -152h-159z" />
    <glyph glyph-name="Edieresis.aalt" horiz-adv-x="533" 
d="M248 398v-52h226v-144h-226v-52h247v-150h-438v548h437v-150h-246zM62 600v152h182v-152h-182zM308 600v152h182v-152h-182z" />
    <glyph glyph-name="Edotaccent.aalt" horiz-adv-x="533" 
d="M248 398v-52h226v-144h-226v-52h247v-150h-438v548h437v-150h-246zM167 600v152h218v-152h-218z" />
    <glyph glyph-name="Egrave.aalt" horiz-adv-x="533" 
d="M248 398v-52h226v-144h-226v-52h247v-150h-438v548h437v-150h-246zM393 600h-164l-143 152h226z" />
    <glyph glyph-name="Emacron.aalt" horiz-adv-x="533" 
d="M248 398v-52h226v-144h-226v-52h247v-150h-438v548h437v-150h-246zM63 612v127h426v-127h-426z" />
    <glyph glyph-name="Eogonek.aalt" horiz-adv-x="533" 
d="M248 398v-52h226v-144h-226v-52h247v-150h-438v548h437v-150h-246zM450.5 -33q-12.5 -14 -12.5 -29q0 -26 29 -26q15 0 31 7v-104q-54 -18 -121 -18q-72 0 -108 26t-36 74q0 32 24.5 57t71.5 46h166q-32 -19 -44.5 -33z" />
    <glyph glyph-name="F.aalt" horiz-adv-x="505" 
d="M247 393v-71h225v-154h-225v-168h-191v548h431v-155h-240z" />
    <glyph glyph-name="uniFB01.aalt" horiz-adv-x="839" 
d="M247 393v-71h225v-154h-225v-168h-191v548h431v-155h-240zM562 0v548h220v-548h-220z" />
    <glyph glyph-name="uniFB02.aalt" horiz-adv-x="1028" 
d="M247 393v-71h225v-154h-225v-168h-191v548h431v-155h-240zM1021 178v-178h-459v548h220v-370h239z" />
    <glyph glyph-name="G.aalt" horiz-adv-x="659" 
d="M475 538.5q63 -25.5 99 -71.5t38 -105h-225q-2 22 -17.5 36.5t-39.5 14.5q-39 0 -60.5 -34.5t-21.5 -106.5q0 -71 23 -107t65 -36q30 0 50.5 15.5t25.5 42.5h-87l-1 134h287v-321h-183v42h-2q-51 -56 -142 -56q-121 0 -190 76.5t-69 209.5q0 89 37 155t106.5 101.5
t164.5 35.5q79 0 142 -25.5z" />
    <glyph glyph-name="Gbreve.aalt" horiz-adv-x="659" 
d="M475 538.5q63 -25.5 99 -71.5t38 -105h-225q-2 22 -17.5 36.5t-39.5 14.5q-39 0 -60.5 -34.5t-21.5 -106.5q0 -71 23 -107t65 -36q30 0 50.5 15.5t25.5 42.5h-87l-1 134h287v-321h-183v42h-2q-51 -56 -142 -56q-121 0 -190 76.5t-69 209.5q0 89 37 155t106.5 101.5
t164.5 35.5q79 0 142 -25.5zM463.5 633.5q-47.5 -41.5 -134.5 -41.5t-134.5 41.5t-49.5 118.5h128q1 -24 14.5 -34.5t41.5 -10.5t41.5 10.5t14.5 34.5h128q-2 -77 -49.5 -118.5z" />
    <glyph glyph-name="Gcircumflex.aalt" horiz-adv-x="659" 
d="M475 538.5q63 -25.5 99 -71.5t38 -105h-225q-2 22 -17.5 36.5t-39.5 14.5q-39 0 -60.5 -34.5t-21.5 -106.5q0 -71 23 -107t65 -36q30 0 50.5 15.5t25.5 42.5h-87l-1 134h287v-321h-183v42h-2q-51 -56 -142 -56q-121 0 -190 76.5t-69 209.5q0 89 37 155t106.5 101.5
t164.5 35.5q79 0 142 -25.5zM329 675l-52 -75h-159l127 152h169l127 -152h-159z" />
    <glyph glyph-name="Gcommaaccent.aalt" horiz-adv-x="659" 
d="M475 538.5q63 -25.5 99 -71.5t38 -105h-225q-2 22 -17.5 36.5t-39.5 14.5q-39 0 -60.5 -34.5t-21.5 -106.5q0 -71 23 -107t65 -36q30 0 50.5 15.5t25.5 42.5h-87l-1 134h287v-321h-183v42h-2q-51 -56 -142 -56q-121 0 -190 76.5t-69 209.5q0 89 37 155t106.5 101.5
t164.5 35.5q79 0 142 -25.5zM324 -285h-77l48 112h-48v129h153v-129z" />
    <glyph glyph-name="Gdotaccent.aalt" horiz-adv-x="659" 
d="M475 538.5q63 -25.5 99 -71.5t38 -105h-225q-2 22 -17.5 36.5t-39.5 14.5q-39 0 -60.5 -34.5t-21.5 -106.5q0 -71 23 -107t65 -36q30 0 50.5 15.5t25.5 42.5h-87l-1 134h287v-321h-183v42h-2q-51 -56 -142 -56q-121 0 -190 76.5t-69 209.5q0 89 37 155t106.5 101.5
t164.5 35.5q79 0 142 -25.5zM220 600v152h218v-152h-218z" />
    <glyph glyph-name="H.aalt" horiz-adv-x="705" 
d="M428 0v191h-151v-191h-220v548h220v-179h151v179h220v-548h-220z" />
    <glyph glyph-name="Hbar.aalt" horiz-adv-x="705" 
d="M648 425v-425h-220v191h-151v-191h-220v425h-44v80h44v43h220v-43h151v43h220v-43h44v-80h-44zM277 425v-56h151v56h-151z" />
    <glyph glyph-name="Hcircumflex.aalt" horiz-adv-x="705" 
d="M428 0v191h-151v-191h-220v548h220v-179h151v179h220v-548h-220zM353 675l-52 -75h-159l127 152h169l127 -152h-159z" />
    <glyph glyph-name="I.aalt" horiz-adv-x="334" 
d="M57 0v548h220v-548h-220z" />
    <glyph glyph-name="Iacute.aalt" horiz-adv-x="334" 
d="M57 0v548h220v-548h-220zM50 600l81 152h226l-143 -152h-164z" />
    <glyph glyph-name="Ibreve.aalt" horiz-adv-x="334" 
d="M57 0v548h220v-548h-220zM290.5 633.5q-42.5 -41.5 -123.5 -41.5t-123.5 41.5t-44.5 118.5h125q1 -25 10.5 -35t32.5 -10q22 0 31.5 10t11.5 35h125q-2 -77 -44.5 -118.5z" />
    <glyph glyph-name="Icircumflex.aalt" horiz-adv-x="334" 
d="M57 0v548h220v-548h-220zM213 604l-46 58l-44 -58h-152l118 148h157l118 -148h-151z" />
    <glyph glyph-name="Idieresis.aalt" horiz-adv-x="334" 
d="M57 0v548h220v-548h-220zM-7 600v152h152v-152h-152zM189 600v152h152v-152h-152z" />
    <glyph glyph-name="Idotaccent.aalt" horiz-adv-x="334" 
d="M57 0v548h220v-548h-220zM58 600v152h218v-152h-218z" />
    <glyph glyph-name="Igrave.aalt" horiz-adv-x="334" 
d="M57 0v548h220v-548h-220zM284 600h-164l-143 152h226z" />
    <glyph glyph-name="IJ.aalt" horiz-adv-x="740" 
d="M57 0v548h220v-548h-220zM628.5 45q-59.5 -54 -184.5 -54q-49 0 -96 10v171q15 -3 34 -3q49 0 67.5 24.5t18.5 86.5v268h220v-334q0 -115 -59.5 -169z" />
    <glyph glyph-name="Imacron.aalt" horiz-adv-x="334" 
d="M57 0v548h220v-548h-220zM3 609v128h327v-128h-327z" />
    <glyph glyph-name="Iogonek.aalt" horiz-adv-x="334" 
d="M57 0v548h220v-548h-220zM232.5 -33q-12.5 -14 -12.5 -29q0 -26 29 -26q15 0 31 7v-104q-54 -18 -121 -18q-72 0 -108 26t-36 74q0 32 24.5 57t71.5 46h166q-32 -19 -44.5 -33z" />
    <glyph glyph-name="Itilde.aalt" horiz-adv-x="334" 
d="M57 0v548h220v-548h-220zM317 632.5q-32 -43.5 -91 -43.5q-19 0 -35.5 6t-36.5 17q-15 8 -25.5 12.5t-21.5 4.5q-12 0 -20.5 -10t-9.5 -30h-96q4 77 35.5 120t90.5 43q19 0 35.5 -6t37.5 -17q12 -6 24 -11t22 -5q27 0 30 39h97q-4 -76 -36 -119.5z" />
    <glyph glyph-name="J.c2sc" horiz-adv-x="406" 
d="M294.5 45q-59.5 -54 -184.5 -54q-49 0 -96 10v171q15 -3 34 -3q49 0 67.5 24.5t18.5 86.5v268h220v-334q0 -115 -59.5 -169z" />
    <glyph glyph-name="Jcircumflex.aalt" horiz-adv-x="406" 
d="M294.5 45q-59.5 -54 -184.5 -54q-49 0 -96 10v171q15 -3 34 -3q49 0 67.5 24.5t18.5 86.5v268h220v-334q0 -115 -59.5 -169zM278 604l-46 58l-44 -58h-152l118 148h157l118 -148h-151z" />
    <glyph glyph-name="K.aalt" horiz-adv-x="681" 
d="M678 0h-267l-132 235h-2v-235h-220v548h220v-222h2l127 222h264l-190 -257z" />
    <glyph glyph-name="Kcommaaccent.aalt" horiz-adv-x="681" 
d="M678 0h-267l-132 235h-2v-235h-220v548h220v-222h2l127 222h264l-190 -257zM344 -285h-77l48 112h-48v129h153v-129z" />
    <glyph glyph-name="L.aalt" horiz-adv-x="523" 
d="M516 178v-178h-459v548h220v-370h239z" />
    <glyph glyph-name="Lacute.aalt" horiz-adv-x="523" 
d="M516 178v-178h-459v548h220v-370h239zM89 600l81 152h226l-143 -152h-164z" />
    <glyph glyph-name="Lcaron.aalt" horiz-adv-x="523" 
d="M516 178v-178h-459v548h220v-370h239zM301 369l19 179h170l-66 -179h-123z" />
    <glyph glyph-name="Lcommaaccent.aalt" horiz-adv-x="523" 
d="M516 178v-178h-459v548h220v-370h239zM266 -285h-77l48 112h-48v129h153v-129z" />
    <glyph glyph-name="Ldot.aalt" horiz-adv-x="593" 
d="M516 178v-178h-459v548h220v-370h239zM373 288v175h180v-175h-180z" />
    <glyph glyph-name="glyph418" horiz-adv-x="406" 
d="M294.5 45q-59.5 -54 -184.5 -54q-49 0 -96 10v171q15 -3 34 -3q49 0 67.5 24.5t18.5 86.5v268h220v-334q0 -115 -59.5 -169zM115 600l81 152h226l-143 -152h-164z" />
    <glyph glyph-name="Lslash.aalt" horiz-adv-x="528" 
d="M521 0h-459v205l-54 -30v128l54 30v215h220v-108l105 59v-129l-105 -57v-135h239v-178z" />
    <glyph glyph-name="M.aalt" horiz-adv-x="1002" 
d="M740 0v254q0 109 4 196h-2q-19 -100 -41 -195l-61 -255h-278l-61 255q-22 95 -41 195h-2q4 -87 4 -196v-254h-205v548h354l53 -221q24 -100 36 -201h2q12 101 36 201l53 221h354v-548h-205z" />
    <glyph glyph-name="N.aalt" horiz-adv-x="809" 
d="M411 0l-77 199q-42 112 -69 201h-2q6 -85 6 -212v-188h-212v548h341l76 -199q36 -92 69 -200h3q-6 84 -6 211v188h212v-548h-341z" />
    <glyph glyph-name="Nacute.aalt" horiz-adv-x="809" 
d="M411 0l-77 199q-42 112 -69 201h-2q6 -85 6 -212v-188h-212v548h341l76 -199q36 -92 69 -200h3q-6 84 -6 211v188h212v-548h-341zM288 600l81 152h226l-143 -152h-164z" />
    <glyph glyph-name="Ncaron.aalt" horiz-adv-x="809" 
d="M411 0l-77 199q-42 112 -69 201h-2q6 -85 6 -212v-188h-212v548h341l76 -199q36 -92 69 -200h3q-6 84 -6 211v188h212v-548h-341zM321 600l-127 152h159l52 -75l53 75h159l-127 -152h-169z" />
    <glyph glyph-name="Ncommaaccent.aalt" horiz-adv-x="809" 
d="M411 0l-77 199q-42 112 -69 201h-2q6 -85 6 -212v-188h-212v548h341l76 -199q36 -92 69 -200h3q-6 84 -6 211v188h212v-548h-341zM405 -285h-77l48 112h-48v129h153v-129z" />
    <glyph glyph-name="Eng.aalt" horiz-adv-x="699" 
d="M586 -124.5q-56 -45.5 -148 -45.5q-56 0 -94 12v135q9 -3 24 -3q20 0 31.5 9.5t11.5 25.5q0 11 -4 22t-21 42l-63 121q-36 69 -60 138h-2q8 -76 8 -174v-158h-212v548h263l52 -101q36 -70 64 -140h2q-8 79 -8 174v67h212v-537q0 -90 -56 -135.5z" />
    </font>
</defs>
</svg>
