<svg id="Ebene_1" data-name="Ebene 1" xmlns="http://www.w3.org/2000/svg" xmlns:xlink="http://www.w3.org/1999/xlink" viewBox="0 0 1272.04 712.71"><defs><style>.cls-1,.cls-7{fill:none;}.cls-2{clip-path:url(#clip-path);}.cls-3{font-size:18px;font-family:NeueHaasUnicaW06-Regular;}.cls-3,.cls-64{fill:#1d1d1b;}.cls-4{letter-spacing:0em;}.cls-5{letter-spacing:-0.02em;}.cls-6{letter-spacing:-0.01em;}.cls-7{stroke:#1d1d1b;stroke-width:0.5px;}.cls-8{letter-spacing:-0.01em;}.cls-9{letter-spacing:-0.02em;}.cls-10{letter-spacing:0em;}.cls-11{letter-spacing:-0.01em;}.cls-12{letter-spacing:0.63em;}.cls-13{letter-spacing:0.63em;}.cls-14{letter-spacing:0em;}.cls-15{letter-spacing:0.01em;}.cls-16{letter-spacing:0.01em;}.cls-17{letter-spacing:-0.02em;}.cls-18{letter-spacing:0.01em;}.cls-19{letter-spacing:-0.1em;}.cls-20{letter-spacing:-0.1em;}.cls-21{letter-spacing:-0.02em;}.cls-22{letter-spacing:-0.1em;}.cls-23{letter-spacing:0.01em;}.cls-24{letter-spacing:0.14em;}.cls-25{letter-spacing:0.14em;}.cls-26{letter-spacing:0.01em;}.cls-27{letter-spacing:0.01em;}.cls-28{letter-spacing:0.14em;}.cls-29{letter-spacing:0.01em;}.cls-30{letter-spacing:0em;}.cls-31{letter-spacing:-0.09em;}.cls-32{letter-spacing:0em;}.cls-33{letter-spacing:-0.09em;}.cls-34{letter-spacing:-0.09em;}.cls-35{letter-spacing:-0.07em;}.cls-36{letter-spacing:0.01em;}.cls-37{letter-spacing:-0.02em;}.cls-38{letter-spacing:-0.07em;}.cls-39{letter-spacing:0.06em;}.cls-40{letter-spacing:0.06em;}.cls-41{letter-spacing:0.06em;}.cls-42{letter-spacing:-0.02em;}.cls-43{letter-spacing:-0.02em;}.cls-44{letter-spacing:-0.1em;}.cls-45{letter-spacing:-0.1em;}.cls-46{letter-spacing:-0.11em;}.cls-47{letter-spacing:-0.11em;}.cls-48{letter-spacing:0.02em;}.cls-49{letter-spacing:0.02em;}.cls-50{letter-spacing:0.24em;}.cls-51{letter-spacing:-0.02em;}.cls-52{letter-spacing:0.24em;}.cls-53{letter-spacing:0.33em;}.cls-54{letter-spacing:-0.01em;}.cls-55{letter-spacing:0.33em;}.cls-56{letter-spacing:-0.01em;}.cls-57{letter-spacing:0.34em;}.cls-58{letter-spacing:0.34em;}.cls-59{letter-spacing:0.14em;}.cls-60{letter-spacing:0.14em;}.cls-61{letter-spacing:0.14em;}.cls-62{letter-spacing:0.01em;}.cls-63{letter-spacing:-0.07em;}.cls-65{letter-spacing:-0.01em;}.cls-66{letter-spacing:0em;}.cls-67{letter-spacing:0em;}.cls-68{letter-spacing:0.11em;}.cls-69{letter-spacing:0.11em;}.cls-70{letter-spacing:0.1em;}.cls-71{letter-spacing:-0.01em;}.cls-72{letter-spacing:-0.01em;}.cls-73{letter-spacing:0.1em;}.cls-74{letter-spacing:0.09em;}.cls-75{letter-spacing:-0.05em;}.cls-76{letter-spacing:-0.05em;}.cls-77{letter-spacing:-0.01em;}.cls-78{letter-spacing:0.02em;}.cls-79{letter-spacing:0.35em;}.cls-80{letter-spacing:0.35em;}.cls-81{letter-spacing:0.43em;}.cls-82{letter-spacing:0em;}.cls-83{letter-spacing:0.43em;}.cls-84{letter-spacing:0.15em;}.cls-85{letter-spacing:-0.04em;}.cls-86{letter-spacing:0.2em;}.cls-87{letter-spacing:0.01em;}.cls-88{letter-spacing:0.2em;}.cls-89{letter-spacing:-0.16em;}.cls-90{letter-spacing:-0.16em;}.cls-91{letter-spacing:0.07em;}.cls-92{letter-spacing:0.07em;}.cls-93{letter-spacing:-0.02em;}.cls-94{letter-spacing:0.27em;}.cls-95{letter-spacing:0.27em;}.cls-96{letter-spacing:0.53em;}.cls-97{letter-spacing:0.53em;}.cls-98{letter-spacing:0.53em;}.cls-99{letter-spacing:0em;}.cls-100{letter-spacing:-0.02em;}.cls-101{letter-spacing:0em;}.cls-102{letter-spacing:0.02em;}.cls-103{letter-spacing:0.3em;}.cls-104{letter-spacing:0em;}.cls-105{letter-spacing:0.3em;}.cls-106{letter-spacing:0.3em;}.cls-107{letter-spacing:0.35em;}.cls-108{letter-spacing:0.01em;}.cls-109{letter-spacing:0.35em;}.cls-110{letter-spacing:-0.02em;}.cls-111{letter-spacing:0.01em;}.cls-112{letter-spacing:0.01em;}.cls-113{letter-spacing:0em;}.cls-114{letter-spacing:0.26em;}.cls-115{letter-spacing:0.26em;}.cls-116{letter-spacing:0.66em;}.cls-117{letter-spacing:0.66em;}.cls-118{letter-spacing:-0.02em;}.cls-119{letter-spacing:0.66em;}.cls-120{letter-spacing:-0.01em;}.cls-121{letter-spacing:0.01em;}.cls-122{letter-spacing:-0.04em;}.cls-123{letter-spacing:0.01em;}.cls-124{letter-spacing:0.16em;}.cls-125{letter-spacing:0.16em;}.cls-126{letter-spacing:0.29em;}.cls-127{letter-spacing:0.29em;}.cls-128{letter-spacing:0.19em;}.cls-129{letter-spacing:0.19em;}.cls-130{letter-spacing:0.19em;}.cls-131{letter-spacing:-0.09em;}.cls-132{letter-spacing:0.19em;}.cls-133{letter-spacing:0.01em;}.cls-134{letter-spacing:0.13em;}.cls-135{letter-spacing:0.14em;}.cls-136{letter-spacing:0.14em;}.cls-137{letter-spacing:0.14em;}.cls-138{letter-spacing:0.29em;}.cls-139{letter-spacing:0.29em;}.cls-140{letter-spacing:0.29em;}.cls-141{letter-spacing:0.15em;}.cls-142{letter-spacing:0.16em;}.cls-143{letter-spacing:-0.01em;}.cls-144{letter-spacing:-0.02em;}.cls-145{letter-spacing:-0.01em;}.cls-146{letter-spacing:0em;}.cls-147{letter-spacing:0.01em;}.cls-148{letter-spacing:-0.01em;}.cls-149{letter-spacing:0.01em;}.cls-150{letter-spacing:0.44em;}.cls-151{letter-spacing:-0.02em;}.cls-152{letter-spacing:-0.03em;}.cls-153{letter-spacing:-0.03em;}.cls-154{letter-spacing:-0.02em;}.cls-155{letter-spacing:0.02em;}.cls-156{letter-spacing:0.25em;}.cls-157{letter-spacing:0.25em;}.cls-158{letter-spacing:0.25em;}.cls-159{letter-spacing:0.32em;}.cls-160{letter-spacing:-0.01em;}.cls-161{letter-spacing:0.2em;}.cls-162{letter-spacing:0.31em;}.cls-163{letter-spacing:0.31em;}.cls-164{letter-spacing:0.11em;}.cls-165{letter-spacing:0.11em;}.cls-166{letter-spacing:0.11em;}.cls-167{letter-spacing:-0.01em;}.cls-168{letter-spacing:0.02em;}.cls-169{letter-spacing:-0.01em;}</style><clipPath id="clip-path" transform="translate(-118.11 -98.72)"><rect class="cls-1" x="-0.2" y="-0.43" width="1505" height="804"/></clipPath></defs><title>1.3</title><g class="cls-2"><text class="cls-3" transform="translate(1125.5 21.49)"><tspan class="cls-4">y</tspan><tspan x="8.46" y="0">outh </tspan></text><text class="cls-3" transform="translate(1109.85 43.09)">mig<tspan class="cls-5" x="30.24" y="0">r</tspan><tspan class="cls-6" x="36.36" y="0">a</tspan><tspan x="45.76" y="0">tion</tspan></text><rect class="cls-7" x="1089.3" y="0.25" width="117.5" height="48.5"/><text class="cls-3" transform="translate(55.62 21.49)">learning in the </text><text class="cls-3" transform="translate(87.08 43.09)">n<tspan class="cls-8" x="10.37" y="0">a</tspan><tspan x="19.76" y="0">tu</tspan><tspan class="cls-9" x="35.89" y="0">r</tspan><tspan class="cls-10" x="42.08" y="0">e</tspan></text><rect class="cls-7" x="54.3" y="0.25" width="117.5" height="48.5"/><text class="cls-3" transform="translate(0.5 87.84)"><tspan class="cls-11">L</tspan><tspan x="9.88" y="0">earning</tspan><tspan class="cls-12" x="71.3" y="0"> </tspan><tspan x="86.85" y="0">outside</tspan><tspan class="cls-13" x="146.7" y="0"> </tspan><tspan class="cls-14" x="162.27" y="0">sup</tspan><tspan class="cls-15" x="191.89" y="0">p</tspan><tspan x="202.42" y="0">o</tspan><tspan class="cls-16" x="212.59" y="0">r</tspan><tspan x="219.33" y="0">ts </tspan></text><text class="cls-3" transform="translate(0.5 109.44)">c<tspan class="cls-17" x="9.61" y="0">r</tspan><tspan class="cls-10" x="15.79" y="0">e</tspan><tspan class="cls-8" x="25.69" y="0">a</tspan><tspan x="35.08" y="0">tivi</tspan><tspan class="cls-18" x="58.08" y="0">t</tspan><tspan x="64.1" y="0">y</tspan><tspan class="cls-19" x="72.59" y="0"> </tspan><tspan x="74.99" y="0">and</tspan><tspan class="cls-20" x="105.28" y="0"> </tspan><tspan class="cls-14" x="107.67" y="0">p</tspan><tspan class="cls-21" x="118.04" y="0">r</tspan><tspan x="124.22" y="0">oblem</tspan><tspan class="cls-22" x="174.58" y="0"> </tspan><tspan class="cls-23" x="176.95" y="0">s</tspan><tspan x="185.95" y="0">olving </tspan></text><text class="cls-3" transform="translate(0.5 131.04)">in<tspan class="cls-24" x="14.76" y="0"> </tspan><tspan x="21.37" y="0">child</tspan><tspan class="cls-21" x="60.5" y="0">r</tspan><tspan x="66.67" y="0">en,</tspan><tspan class="cls-25" x="91.01" y="0"> </tspan><tspan x="97.63" y="0">enhan</tspan><tspan class="cls-26" x="148.19" y="0">c</tspan><tspan class="cls-27" x="157.89" y="0">e</tspan><tspan x="167.9" y="0">s</tspan><tspan class="cls-28" x="176.79" y="0"> </tspan><tspan class="cls-26" x="183.42" y="0">c</tspan><tspan class="cls-29" x="193.12" y="0">o</tspan><tspan x="203.47" y="0">gni</tspan></text><text class="cls-3" transform="translate(229.1 131.04)">-</text><text class="cls-3" transform="translate(0.5 152.64)">ti<tspan class="cls-30" x="10.15" y="0">v</tspan><tspan x="18.58" y="0">e</tspan><tspan class="cls-31" x="28.48" y="0"> </tspan><tspan x="31.05" y="0">abiliti</tspan><tspan class="cls-32" x="74.3" y="0">e</tspan><tspan x="84.29" y="0">s,</tspan><tspan class="cls-33" x="97.25" y="0"> </tspan><tspan class="cls-14" x="99.81" y="0">and</tspan><tspan class="cls-34" x="130.1" y="0"> </tspan><tspan class="cls-14" x="132.67" y="0">imp</tspan><tspan class="cls-17" x="162.97" y="0">r</tspan><tspan class="cls-4" x="169.14" y="0">ov</tspan><tspan class="cls-27" x="187.7" y="0">e</tspan><tspan class="cls-14" x="197.71" y="0">s</tspan><tspan class="cls-33" x="206.6" y="0"> </tspan><tspan class="cls-14" x="209.15" y="0">ac</tspan></text><text class="cls-3" transform="translate(229.1 152.64)">-</text><text class="cls-3" transform="translate(0.5 174.24)">ademic<tspan class="cls-35" x="59.36" y="0"> </tspan><tspan class="cls-36" x="62.21" y="0">p</tspan><tspan class="cls-10" x="72.75" y="0">e</tspan><tspan class="cls-15" x="82.65" y="0">r</tspan><tspan class="cls-37" x="89.33" y="0">f</tspan><tspan x="94.55" y="0">orman</tspan><tspan class="cls-27" x="146.7" y="0">c</tspan><tspan x="156.42" y="0">e.</tspan><tspan class="cls-38" x="170.39" y="0"> </tspan><tspan x="173.25" y="0">Studi</tspan><tspan class="cls-32" x="215.1" y="0">e</tspan><tspan class="cls-14" x="225.09" y="0">s </tspan></text><text class="cls-3" transform="translate(0.5 195.84)">in<tspan class="cls-39" x="14.76" y="0"> </tspan><tspan x="20.02" y="0">the</tspan><tspan class="cls-40" x="46.04" y="0"> </tspan><tspan x="51.32" y="0">US</tspan><tspan class="cls-41" x="74.97" y="0"> </tspan><tspan x="80.24" y="0">h</tspan><tspan class="cls-42" x="90.61" y="0">a</tspan><tspan class="cls-4" x="99.88" y="0">v</tspan><tspan x="108.3" y="0">e</tspan><tspan class="cls-40" x="118.2" y="0"> </tspan><tspan x="123.48" y="0">sh</tspan><tspan class="cls-4" x="142.74" y="0">o</tspan><tspan class="cls-10" x="152.87" y="0">wn</tspan><tspan class="cls-39" x="177.1" y="0"> </tspan><tspan x="182.35" y="0">st</tspan><tspan class="cls-9" x="197.01" y="0">r</tspan><tspan class="cls-10" x="203.2" y="0">ong </tspan></text><text class="cls-3" transform="translate(0.5 217.44)">p<tspan class="cls-17" x="10.37" y="0">r</tspan><tspan class="cls-29" x="16.54" y="0">o</tspan><tspan x="26.89" y="0">g</tspan><tspan class="cls-43" x="37.21" y="0">r</tspan><tspan class="cls-27" x="43.4" y="0">e</tspan><tspan x="53.41" y="0">ss</tspan><tspan class="cls-44" x="71.19" y="0"> </tspan><tspan class="cls-14" x="73.6" y="0">in</tspan><tspan class="cls-45" x="88.36" y="0"> </tspan><tspan class="cls-27" x="90.77" y="0">s</tspan><tspan class="cls-36" x="99.77" y="0">o</tspan><tspan x="110.12" y="0">cial</tspan><tspan class="cls-45" x="138.08" y="0"> </tspan><tspan x="140.49" y="0">studi</tspan><tspan class="cls-27" x="180.27" y="0">e</tspan><tspan x="190.27" y="0">s,</tspan><tspan class="cls-44" x="203.23" y="0"> </tspan><tspan class="cls-23" x="205.65" y="0">s</tspan><tspan x="214.65" y="0">ci</tspan></text><text class="cls-3" transform="translate(229.1 217.44)">-</text><text class="cls-3" transform="translate(0.5 239.04)">en<tspan class="cls-27" x="20.27" y="0">c</tspan><tspan x="29.99" y="0">e,</tspan><tspan class="cls-46" x="43.96" y="0"> </tspan><tspan class="cls-14" x="46.19" y="0">language</tspan><tspan class="cls-46" x="120.96" y="0"> </tspan><tspan x="123.19" y="0">a</tspan><tspan class="cls-16" x="132.75" y="0">r</tspan><tspan class="cls-14" x="139.48" y="0">ts,</tspan><tspan class="cls-46" x="158.2" y="0"> </tspan><tspan class="cls-14" x="160.43" y="0">and</tspan><tspan class="cls-47" x="190.72" y="0"> </tspan><tspan x="192.97" y="0">m</tspan><tspan class="cls-8" x="208.51" y="0">a</tspan><tspan x="217.9" y="0">th </tspan></text><text class="cls-3" transform="translate(0.5 260.64)">th<tspan class="cls-17" x="16.13" y="0">r</tspan><tspan class="cls-10" x="22.3" y="0">ough</tspan><tspan class="cls-48" x="63.52" y="0"> </tspan><tspan x="68.11" y="0">n</tspan><tspan class="cls-8" x="78.48" y="0">a</tspan><tspan x="87.87" y="0">tu</tspan><tspan class="cls-17" x="104" y="0">r</tspan><tspan x="110.18" y="0">e</tspan><tspan class="cls-49" x="120.08" y="0"> </tspan><tspan x="124.65" y="0">ba</tspan><tspan class="cls-32" x="144.57" y="0">s</tspan><tspan class="cls-36" x="153.56" y="0">e</tspan><tspan x="163.64" y="0">d</tspan><tspan class="cls-48" x="174" y="0"> </tspan><tspan class="cls-29" x="178.59" y="0">e</tspan><tspan class="cls-14" x="188.67" y="0">duca</tspan></text><text class="cls-3" transform="translate(229.1 260.64)">-</text><text class="cls-3" transform="translate(0.5 282.24)">tion<tspan class="cls-50" x="30.69" y="0"> </tspan><tspan x="39.19" y="0">p</tspan><tspan class="cls-17" x="49.55" y="0">r</tspan><tspan class="cls-29" x="55.73" y="0">o</tspan><tspan x="66.08" y="0">g</tspan><tspan class="cls-51" x="76.39" y="0">r</tspan><tspan x="82.49" y="0">ams.</tspan><tspan class="cls-50" x="120.54" y="0"> </tspan><tspan class="cls-10" x="129.04" y="0">It</tspan><tspan class="cls-52" x="139.88" y="0"> </tspan><tspan class="cls-14" x="148.37" y="0">al</tspan><tspan class="cls-23" x="162.32" y="0">s</tspan><tspan class="cls-10" x="171.32" y="0">o</tspan><tspan class="cls-50" x="181.49" y="0"> </tspan><tspan x="189.99" y="0">helps </tspan></text><text class="cls-3" transform="translate(0.5 303.84)"><tspan class="cls-21">r</tspan><tspan class="cls-36" x="6.17" y="0">e</tspan><tspan x="16.25" y="0">du</tspan><tspan class="cls-23" x="36.99" y="0">c</tspan><tspan class="cls-10" x="46.71" y="0">e</tspan><tspan class="cls-53" x="56.61" y="0"> </tspan><tspan x="66.64" y="0">a</tspan><tspan class="cls-37" x="76.19" y="0">n</tspan><tspan x="86.29" y="0">xious</tspan><tspan class="cls-53" x="128.75" y="0"> </tspan><tspan class="cls-10" x="138.78" y="0">ene</tspan><tspan class="cls-17" x="168.94" y="0">r</tspan><tspan class="cls-54" x="175.12" y="0">g</tspan><tspan x="185.18" y="0">y</tspan><tspan class="cls-55" x="193.68" y="0"> </tspan><tspan x="203.68" y="0">and </tspan></text><text class="cls-3" transform="translate(0.5 325.44)">p<tspan class="cls-17" x="10.37" y="0">r</tspan><tspan class="cls-10" x="16.54" y="0">om</tspan><tspan class="cls-56" x="42.25" y="0">o</tspan><tspan class="cls-37" x="52.33" y="0">t</tspan><tspan class="cls-27" x="57.81" y="0">e</tspan><tspan x="67.82" y="0">s</tspan><tspan class="cls-57" x="76.71" y="0"> </tspan><tspan class="cls-54" x="86.99" y="0">f</tspan><tspan class="cls-29" x="92.23" y="0">o</tspan><tspan x="102.58" y="0">cus.</tspan><tspan class="cls-58" x="135.52" y="0"> </tspan><tspan x="145.8" y="0">Being</tspan><tspan class="cls-57" x="192.06" y="0"> </tspan><tspan class="cls-10" x="202.33" y="0">out</tspan></text><text class="cls-3" transform="translate(229.1 325.44)">-</text><text class="cls-3" transform="translate(0.5 347.04)">side<tspan class="cls-59" x="33.55" y="0"> </tspan><tspan x="40.25" y="0">is</tspan><tspan class="cls-60" x="53.53" y="0"> </tspan><tspan x="60.24" y="0">al</tspan><tspan class="cls-27" x="74.19" y="0">s</tspan><tspan x="83.19" y="0">o</tspan><tspan class="cls-60" x="93.36" y="0"> </tspan><tspan x="100.08" y="0">a</tspan><tspan class="cls-61" x="109.64" y="0"> </tspan><tspan x="116.33" y="0">st</tspan><tspan class="cls-9" x="130.98" y="0">r</tspan><tspan class="cls-62" x="137.18" y="0">e</tspan><tspan class="cls-14" x="147.18" y="0">ss</tspan><tspan class="cls-59" x="164.97" y="0"> </tspan><tspan class="cls-9" x="171.66" y="0">r</tspan><tspan class="cls-10" x="177.85" y="0">eli</tspan><tspan class="cls-4" x="196.54" y="0">ev</tspan><tspan x="214.83" y="0">e</tspan><tspan class="cls-63" x="224.73" y="0">r</tspan><tspan x="229.98" y="0">, </tspan></text><path class="cls-64" d="M127.65,467.36l-1.08-4c-.13-.51-.22-.84-.25-1-.29-1.07-.54-2.05-.76-2.95h0c-.22.9-.47,1.88-.76,2.95,0,.17-.12.5-.25,1l-1.08,4h-2.27l-2.43-9.15h1.6l1,3.82c.29,1.15.63,2.52,1,4.1h0c.32-1.36.66-2.7,1-4l1-3.91h2.27l1,3.91,1,4h0c.38-1.58.72-2.95,1-4.1l1-3.82h1.6l-2.43,9.15Zm7.85-8a2.86,2.86,0,0,1,1.17-1,3.52,3.52,0,0,1,1.55-.34,3.1,3.1,0,0,1,2.44,1,4,4,0,0,1,.87,2.81v5.58h-1.59V461.9a2.93,2.93,0,0,0-.54-2,2,2,0,0,0-1.56-.61,2.2,2.2,0,0,0-1.7.74,3,3,0,0,0-.68,2.07v5.24h-1.58V454.54h1.58v4.83Zm8.75-3.05v-1.78h1.58v1.78Zm0,11v-9.15h1.58v9.15Zm8-9.4a4.23,4.23,0,0,1,1.94.44,3.64,3.64,0,0,1,1.37,1.24,3.89,3.89,0,0,1,.6,1.81h-1.66a2.44,2.44,0,0,0-.71-1.58,2.1,2.1,0,0,0-1.55-.61,2.25,2.25,0,0,0-1.91.94,4.24,4.24,0,0,0-.7,2.59,4.29,4.29,0,0,0,.69,2.58,2.24,2.24,0,0,0,1.92.94,2,2,0,0,0,1.55-.65,2.68,2.68,0,0,0,.71-1.67h1.66a4.29,4.29,0,0,1-.59,1.87,3.64,3.64,0,0,1-1.36,1.28,4,4,0,0,1-2,.47A4.44,4.44,0,0,1,150,467a3.84,3.84,0,0,1-1.5-1.68,6.59,6.59,0,0,1,0-5.13,3.87,3.87,0,0,1,1.5-1.67,4.35,4.35,0,0,1,2.28-.59Zm7.6,1.41a2.86,2.86,0,0,1,1.17-1,3.55,3.55,0,0,1,1.55-.34,3.14,3.14,0,0,1,2.45,1,4.09,4.09,0,0,1,.86,2.81v5.58h-1.58V461.9a2.93,2.93,0,0,0-.54-2,2,2,0,0,0-1.57-.61,2.22,2.22,0,0,0-1.7.74,3,3,0,0,0-.68,2.07v5.24h-1.58V454.54h1.58v4.83Zm14.58-3.05v-1.78H176v1.78Zm0,11v-9.15H176v9.15Zm7.29-9.4a3.9,3.9,0,0,1,2.63.81,2.9,2.9,0,0,1,.93,2.31h-1.54a1.8,1.8,0,0,0-.54-1.41,2.15,2.15,0,0,0-1.5-.48,2.09,2.09,0,0,0-1.3.35,1.11,1.11,0,0,0-.48.94,1.05,1.05,0,0,0,.22.72,1.56,1.56,0,0,0,.64.4c.28.09.72.21,1.34.36a15.18,15.18,0,0,1,1.84.54,2.68,2.68,0,0,1,1.13.82,2.32,2.32,0,0,1,.48,1.55,2.37,2.37,0,0,1-1,2,4.22,4.22,0,0,1-2.64.75,4.18,4.18,0,0,1-2.81-.85,3,3,0,0,1-1-2.44h1.6a1.93,1.93,0,0,0,.59,1.5,2.4,2.4,0,0,0,1.66.53,2.48,2.48,0,0,0,1.44-.38,1.15,1.15,0,0,0,.54-1,1.17,1.17,0,0,0-.25-.81,1.77,1.77,0,0,0-.74-.46q-.48-.16-1.53-.42a14.17,14.17,0,0,1-1.67-.49,2.4,2.4,0,0,1-1-.74,2.24,2.24,0,0,1-.42-1.45,2.31,2.31,0,0,1,.94-1.91,3.85,3.85,0,0,1,2.44-.74Zm13.45,1.41a2.86,2.86,0,0,1,1.17-1,3.52,3.52,0,0,1,1.55-.34,3.1,3.1,0,0,1,2.44,1,4,4,0,0,1,.87,2.81v5.58h-1.59V461.9a2.93,2.93,0,0,0-.54-2,2,2,0,0,0-1.56-.61,2.2,2.2,0,0,0-1.7.74,3,3,0,0,0-.68,2.07v5.24h-1.58V454.54h1.58v4.83Zm8.75-3.05v-1.78h1.58v1.78Zm0,11v-9.15h1.58v9.15Zm7.59-9.38a3,3,0,0,1,2.74,1.57h0v-1.34h1.53v8.59a3.57,3.57,0,0,1-4,4,4.43,4.43,0,0,1-2.75-.77,2.65,2.65,0,0,1-1-2.13h1.58a1.59,1.59,0,0,0,.62,1.24,2.62,2.62,0,0,0,1.6.44,2.28,2.28,0,0,0,1.83-.69,3.26,3.26,0,0,0,.6-2.19v-1h0a3.09,3.09,0,0,1-2.72,1.53,3.57,3.57,0,0,1-2-.58,3.71,3.71,0,0,1-1.35-1.63,6.47,6.47,0,0,1,0-4.89,3.74,3.74,0,0,1,1.35-1.62,3.64,3.64,0,0,1,2-.57Zm.25,1.31a2.14,2.14,0,0,0-1.79.91,4.69,4.69,0,0,0,0,4.83,2.14,2.14,0,0,0,1.79.91,2.25,2.25,0,0,0,1.88-.89,4,4,0,0,0,.68-2.43,3.92,3.92,0,0,0-.68-2.43,2.23,2.23,0,0,0-1.88-.9Zm8.48.08a2.86,2.86,0,0,1,1.17-1A3.55,3.55,0,0,1,223,458a3.12,3.12,0,0,1,2.45,1,4.09,4.09,0,0,1,.86,2.81v5.58h-1.58V461.9a2.93,2.93,0,0,0-.54-2,2,2,0,0,0-1.57-.61,2.22,2.22,0,0,0-1.7.74,3,3,0,0,0-.67,2.07v5.24h-1.59V454.54h1.59v4.83Zm8.75,8V454.54h1.58v12.82Zm7.92.41a7.31,7.31,0,0,1-1,1.83,2.73,2.73,0,0,1-1.15.9,4.63,4.63,0,0,1-1.66.26,2.93,2.93,0,0,1-.83-.09v-1.33a2.49,2.49,0,0,0,.76.11,2.34,2.34,0,0,0,1-.18,1.66,1.66,0,0,0,.68-.62,5.79,5.79,0,0,0,.59-1.26l-3.47-9.18h1.71l2.63,7.28h0l2.67-7.28h1.67l-3.67,9.56Zm12.42-8.3a2.72,2.72,0,0,1,1.12-1.08,3.67,3.67,0,0,1,3.68.18,3.75,3.75,0,0,1,1.34,1.67,7.19,7.19,0,0,1,0,5.06,3.84,3.84,0,0,1-1.35,1.68,3.46,3.46,0,0,1-2,.59,3.36,3.36,0,0,1-1.67-.41,2.6,2.6,0,0,1-1.12-1.13h0v1.33h-1.56V454.54h1.58v4.93Zm2.37-.21a2.12,2.12,0,0,0-1.81.94,5.26,5.26,0,0,0,0,5.14,2.11,2.11,0,0,0,1.81,1,2.21,2.21,0,0,0,1.88-1,5,5,0,0,0,0-5.12,2.24,2.24,0,0,0-1.88-.95Zm10.19,7.13a2.59,2.59,0,0,0,1.61-.49,2,2,0,0,0,.8-1.28h1.62a3.56,3.56,0,0,1-1.3,2.14,4.73,4.73,0,0,1-5,.24,3.94,3.94,0,0,1-1.49-1.73,6.2,6.2,0,0,1-.51-2.61,5.55,5.55,0,0,1,.51-2.42,3.94,3.94,0,0,1,1.48-1.67,4.09,4.09,0,0,1,2.26-.61,4,4,0,0,1,2.58.85,4.12,4.12,0,0,1,1.41,2.34,8.53,8.53,0,0,1,.18,2h-6.84a3.81,3.81,0,0,0,.8,2.45,2.48,2.48,0,0,0,1.92.83Zm-.05-7.2a2.42,2.42,0,0,0-1.82.71,3.2,3.2,0,0,0-.83,2h5.26a3.21,3.21,0,0,0-.83-2,2.4,2.4,0,0,0-1.78-.7ZM272.51,458a3.11,3.11,0,0,1,2.45,1,4,4,0,0,1,.87,2.81v5.58h-1.59V461.9a2.93,2.93,0,0,0-.54-2,2,2,0,0,0-1.56-.61,2.23,2.23,0,0,0-1.71.74,3,3,0,0,0-.67,2.07v5.24h-1.58v-9.15h1.53v1.21h0a3.18,3.18,0,0,1,1.15-1,3.45,3.45,0,0,1,1.62-.37Zm9.67,8.37a2.61,2.61,0,0,0,1.61-.49,2.06,2.06,0,0,0,.8-1.28h1.62a3.6,3.6,0,0,1-1.3,2.14,4.73,4.73,0,0,1-5,.24,3.94,3.94,0,0,1-1.49-1.73,6.2,6.2,0,0,1-.51-2.61,5.55,5.55,0,0,1,.51-2.42,3.87,3.87,0,0,1,1.48-1.67,4.09,4.09,0,0,1,2.26-.61,4,4,0,0,1,2.58.85,4.12,4.12,0,0,1,1.41,2.34,8.53,8.53,0,0,1,.18,2h-6.84a3.75,3.75,0,0,0,.8,2.45,2.48,2.48,0,0,0,1.92.83Zm-.05-7.2a2.42,2.42,0,0,0-1.82.71,3.15,3.15,0,0,0-.83,2h5.26a3.21,3.21,0,0,0-.83-2,2.4,2.4,0,0,0-1.78-.7Zm6.75-2.11a2.7,2.7,0,0,1,.64-2,2.45,2.45,0,0,1,1.86-.66,3.91,3.91,0,0,1,.92.09v1.23a1.7,1.7,0,0,0-.53-.06,1.27,1.27,0,0,0-1,.36,1.75,1.75,0,0,0-.33,1.19v.95h1.82v1.26h-1.82v7.89h-1.56v-7.89h-1.61v-1.26h1.61v-1.13Zm6.64-.76h-1.59v-1.78h1.59Zm0,1.89v9.15h-1.59v-9.15ZM302,458a4.23,4.23,0,0,1,1.94.44,3.54,3.54,0,0,1,1.36,1.24,3.79,3.79,0,0,1,.61,1.81h-1.66a2.44,2.44,0,0,0-.71-1.58,2.11,2.11,0,0,0-1.56-.61,2.23,2.23,0,0,0-1.9.94,5.09,5.09,0,0,0,0,5.17,2.23,2.23,0,0,0,1.91.94,2,2,0,0,0,1.56-.65,2.68,2.68,0,0,0,.71-1.67h1.66a4.17,4.17,0,0,1-.6,1.87,3.61,3.61,0,0,1-1.35,1.28,4.09,4.09,0,0,1-2,.47,4.41,4.41,0,0,1-2.28-.58,3.84,3.84,0,0,1-1.5-1.68,6.59,6.59,0,0,1,0-5.13,3.87,3.87,0,0,1,1.5-1.67A4.32,4.32,0,0,1,302,458Zm6-1.64v-1.78h1.58v1.78Zm0,11v-9.15h1.58v9.15Zm7.65-9.4a3.72,3.72,0,0,1,2.65.89,3.5,3.5,0,0,1,.95,2.66V465a11.14,11.14,0,0,0,.21,2.34H318a6.63,6.63,0,0,1-.12-1.33h0a3.18,3.18,0,0,1-1.28,1.13,4.19,4.19,0,0,1-1.89.4,3.29,3.29,0,0,1-2.25-.75,2.47,2.47,0,0,1-.84-1.94,2.4,2.4,0,0,1,.78-1.88,5.49,5.49,0,0,1,2.69-1c.89-.14,1.77-.24,2.65-.3v-.36a2.17,2.17,0,0,0-.55-1.62,2.11,2.11,0,0,0-1.52-.52,2.15,2.15,0,0,0-1.51.49,1.81,1.81,0,0,0-.58,1.32h-1.58a3,3,0,0,1,1-2.19,3.84,3.84,0,0,1,2.65-.85Zm2.07,4.93c-.93.08-1.72.17-2.4.29a3.73,3.73,0,0,0-1.62.54,1.23,1.23,0,0,0-.48,1,1.41,1.41,0,0,0,.49,1.14,2.07,2.07,0,0,0,1.38.42,2.84,2.84,0,0,0,1.05-.19,2.27,2.27,0,0,0,.84-.53,2.47,2.47,0,0,0,.58-.89,4.18,4.18,0,0,0,.16-1.27v-.56Zm4.23,4.47V454.54h1.58v12.82Zm13.55-11.65a1.31,1.31,0,0,0-1,.36,1.8,1.8,0,0,0-.32,1.19v.95h1.82v1.26h-1.82v7.89h-1.57v-7.89h-1.6v-1.26h1.6v-1.13a2.74,2.74,0,0,1,.64-2,2.49,2.49,0,0,1,1.87-.66,3.82,3.82,0,0,1,.91.09v1.23a1.59,1.59,0,0,0-.52-.06ZM341,458a4.06,4.06,0,0,1,3.19,1.3,5.9,5.9,0,0,1,0,7.05,4.06,4.06,0,0,1-3.19,1.3,4,4,0,0,1-3.17-1.3,5.94,5.94,0,0,1,0-7.05A4,4,0,0,1,341,458Zm0,1.3a2.34,2.34,0,0,0-2,.94,5,5,0,0,0,0,5.17,2.53,2.53,0,0,0,3.94,0,5,5,0,0,0,0-5.17,2.35,2.35,0,0,0-2-.94Zm10.75-1.14a2.56,2.56,0,0,1,.67.08v1.42l-.63-.06a2.5,2.5,0,0,0-2,.81,3.45,3.45,0,0,0-.7,2.33v4.66H347.5v-9.15H349v1.41h0a3,3,0,0,1,2.7-1.5Z" transform="translate(-118.11 -98.72)"/><text class="cls-3" transform="translate(0.5 390.24)">stude<tspan class="cls-65" x="45.29" y="0">n</tspan><tspan class="cls-14" x="55.47" y="0">ts</tspan><tspan class="cls-66" x="70.13" y="0"> </tspan><tspan x="74.19" y="0">who</tspan><tspan class="cls-56" x="108.59" y="0"> </tspan><tspan class="cls-14" x="112.64" y="0">a</tspan><tspan class="cls-43" x="122.2" y="0">r</tspan><tspan x="128.39" y="0">e</tspan><tspan class="cls-56" x="138.29" y="0"> </tspan><tspan x="142.34" y="0">put</tspan><tspan class="cls-67" x="168.84" y="0"> </tspan><tspan x="172.89" y="0">under</tspan><tspan class="cls-66" x="220.41" y="0"> </tspan><tspan class="cls-14" x="224.47" y="0">a </tspan></text><text class="cls-3" transform="translate(0.5 411.84)">t<tspan class="cls-17" x="5.76" y="0">r</tspan><tspan class="cls-10" x="11.93" y="0">emendous</tspan><tspan class="cls-68" x="97.43" y="0"> </tspan><tspan x="103.57" y="0">amou</tspan><tspan class="cls-8" x="149.2" y="0">n</tspan><tspan x="159.41" y="0">t</tspan><tspan class="cls-69" x="165.17" y="0"> </tspan><tspan x="171.3" y="0">of</tspan><tspan class="cls-68" x="186.96" y="0"> </tspan><tspan x="193.1" y="0">p</tspan><tspan class="cls-43" x="203.47" y="0">r</tspan><tspan class="cls-27" x="209.66" y="0">e</tspan><tspan class="cls-14" x="219.67" y="0">s</tspan></text><text class="cls-3" transform="translate(229.1 411.84)">-</text><text class="cls-3" transform="translate(0.5 433.44)">su<tspan class="cls-21" x="19.26" y="0">r</tspan><tspan x="25.43" y="0">e</tspan><tspan class="cls-70" x="35.33" y="0"> </tspan><tspan x="41.22" y="0">th</tspan><tspan class="cls-62" x="57.35" y="0">es</tspan><tspan x="76.35" y="0">e</tspan><tspan class="cls-70" x="86.25" y="0"> </tspan><tspan x="92.14" y="0">d</tspan><tspan class="cls-71" x="102.51" y="0">a</tspan><tspan class="cls-72" x="111.8" y="0">y</tspan><tspan x="120.06" y="0">s.</tspan><tspan class="cls-73" x="133.02" y="0"> </tspan><tspan class="cls-72" x="138.9" y="0">F</tspan><tspan class="cls-10" x="148.98" y="0">orming</tspan><tspan class="cls-70" x="206.28" y="0"> </tspan><tspan class="cls-17" x="212.16" y="0">r</tspan><tspan class="cls-10" x="218.34" y="0">e</tspan></text><text class="cls-3" transform="translate(229.1 433.44)">-</text><text class="cls-3" transform="translate(0.5 455.04)">l<tspan class="cls-8" x="4.39" y="0">a</tspan><tspan x="13.79" y="0">tionships</tspan><tspan class="cls-74" x="87.39" y="0"> </tspan><tspan class="cls-14" x="93.18" y="0">al</tspan><tspan class="cls-23" x="107.13" y="0">s</tspan><tspan class="cls-10" x="116.13" y="0">o</tspan><tspan class="cls-74" x="126.3" y="0"> </tspan><tspan class="cls-23" x="132.1" y="0">c</tspan><tspan class="cls-10" x="141.82" y="0">om</tspan><tspan class="cls-32" x="167.52" y="0">e</tspan><tspan x="177.51" y="0">s</tspan><tspan class="cls-74" x="186.4" y="0"> </tspan><tspan class="cls-14" x="192.2" y="0">mo</tspan><tspan class="cls-17" x="217.9" y="0">r</tspan><tspan class="cls-10" x="224.08" y="0">e </tspan></text><text class="cls-3" transform="translate(0.5 476.64)">n<tspan class="cls-8" x="10.37" y="0">a</tspan><tspan x="19.76" y="0">tu</tspan><tspan class="cls-51" x="35.89" y="0">r</tspan><tspan class="cls-14" x="41.99" y="0">ally</tspan><tspan class="cls-75" x="68.83" y="0"> </tspan><tspan class="cls-71" x="72.02" y="0">t</tspan><tspan class="cls-10" x="77.51" y="0">o</tspan><tspan class="cls-76" x="87.68" y="0"> </tspan><tspan x="90.86" y="0">stude</tspan><tspan class="cls-77" x="136.15" y="0">n</tspan><tspan class="cls-14" x="146.35" y="0">ts</tspan><tspan class="cls-76" x="161.01" y="0"> </tspan><tspan x="164.19" y="0">in</tspan><tspan class="cls-76" x="178.95" y="0"> </tspan><tspan x="182.14" y="0">n</tspan><tspan class="cls-8" x="192.51" y="0">a</tspan><tspan x="201.9" y="0">tu</tspan><tspan class="cls-17" x="218.03" y="0">r</tspan><tspan x="224.2" y="0">e </tspan></text><text class="cls-3" transform="translate(0.5 498.24)">ba<tspan class="cls-27" x="19.93" y="0">s</tspan><tspan class="cls-15" x="28.93" y="0">e</tspan><tspan x="38.99" y="0">d</tspan><tspan class="cls-78" x="49.35" y="0"> </tspan><tspan class="cls-29" x="53.85" y="0">e</tspan><tspan x="63.93" y="0">duc</tspan><tspan class="cls-8" x="94.28" y="0">a</tspan><tspan x="103.68" y="0">tion,</tspan><tspan class="cls-78" x="138.44" y="0"> </tspan><tspan class="cls-54" x="142.94" y="0">f</tspan><tspan x="148.17" y="0">or</tspan><tspan class="cls-78" x="164.86" y="0"> </tspan><tspan x="169.36" y="0">th</tspan><tspan class="cls-67" x="185.49" y="0">e</tspan><tspan x="195.3" y="0">y</tspan><tspan class="cls-78" x="203.79" y="0"> </tspan><tspan x="208.29" y="0">a</tspan><tspan class="cls-21" x="217.85" y="0">r</tspan><tspan x="224.02" y="0">e </tspan></text><text class="cls-3" transform="translate(0.5 519.84)"><tspan class="cls-77">e</tspan><tspan x="9.74" y="0">x</tspan><tspan class="cls-29" x="18.38" y="0">p</tspan><tspan x="28.93" y="0">eriencing</tspan><tspan class="cls-79" x="104.69" y="0"> </tspan><tspan class="cls-27" x="115.2" y="0">s</tspan><tspan class="cls-29" x="124.2" y="0">o</tspan><tspan class="cls-14" x="134.55" y="0">cial</tspan><tspan class="cls-80" x="162.5" y="0"> </tspan><tspan class="cls-14" x="173.03" y="0">i</tspan><tspan class="cls-77" x="177.42" y="0">n</tspan><tspan class="cls-37" x="187.63" y="0">t</tspan><tspan x="193.12" y="0">e</tspan><tspan class="cls-51" x="203.02" y="0">r</tspan><tspan x="209.12" y="0">ac</tspan></text><text class="cls-3" transform="translate(229.1 519.84)">-</text><text class="cls-3" transform="translate(0.5 541.44)">tions<tspan class="cls-81" x="39.58" y="0"> </tspan><tspan class="cls-11" x="51.42" y="0">a</tspan><tspan class="cls-82" x="60.77" y="0">w</tspan><tspan class="cls-37" x="74.57" y="0">a</tspan><tspan x="83.86" y="0">y</tspan><tspan class="cls-83" x="92.36" y="0"> </tspan><tspan x="104.2" y="0">f</tspan><tspan class="cls-21" x="109.69" y="0">r</tspan><tspan x="115.86" y="0">om</tspan><tspan class="cls-83" x="141.57" y="0"> </tspan><tspan x="153.41" y="0">a</tspan><tspan class="cls-81" x="162.97" y="0"> </tspan><tspan class="cls-23" x="174.81" y="0">s</tspan><tspan x="183.81" y="0">c</tspan><tspan class="cls-17" x="193.42" y="0">r</tspan><tspan class="cls-29" x="199.6" y="0">e</tspan><tspan x="209.68" y="0">en.</tspan></text><text class="cls-3" transform="translate(0.5 563.04)">Along<tspan class="cls-84" x="47.39" y="0"> </tspan><tspan x="54.21" y="0">with</tspan><tspan class="cls-84" x="88.59" y="0"> </tspan><tspan class="cls-14" x="95.42" y="0">helping</tspan><tspan class="cls-84" x="155.52" y="0"> </tspan><tspan x="162.34" y="0">me</tspan><tspan class="cls-77" x="187.77" y="0">n</tspan><tspan class="cls-14" x="197.98" y="0">tall</tspan><tspan class="cls-85" x="222.08" y="0">y</tspan><tspan x="229.91" y="0">, </tspan></text><text class="cls-3" transform="translate(0.5 584.64)">n<tspan class="cls-8" x="10.37" y="0">a</tspan><tspan x="19.76" y="0">tu</tspan><tspan class="cls-9" x="35.89" y="0">r</tspan><tspan class="cls-10" x="42.08" y="0">e</tspan><tspan class="cls-86" x="51.98" y="0"> </tspan><tspan class="cls-14" x="59.76" y="0">ba</tspan><tspan class="cls-23" x="79.68" y="0">s</tspan><tspan class="cls-87" x="88.68" y="0">e</tspan><tspan x="98.75" y="0">d</tspan><tspan class="cls-88" x="109.11" y="0"> </tspan><tspan class="cls-15" x="116.91" y="0">e</tspan><tspan x="126.97" y="0">duc</tspan><tspan class="cls-77" x="157.32" y="0">a</tspan><tspan class="cls-14" x="166.71" y="0">tion</tspan><tspan class="cls-88" x="197.4" y="0"> </tspan><tspan x="205.2" y="0">has </tspan></text><path class="cls-64" d="M124.41,695.58a3.53,3.53,0,0,1,2,.59,3.7,3.7,0,0,1,1.35,1.67,7.19,7.19,0,0,1,0,5.06,3.89,3.89,0,0,1-1.34,1.68,3.4,3.4,0,0,1-2,.59,3.46,3.46,0,0,1-1.67-.4,2.66,2.66,0,0,1-1.12-1.11h0v4.63H120V695.81h1.56v1.32h0a2.62,2.62,0,0,1,1.12-1.14,3.47,3.47,0,0,1,1.67-.41Zm-.4,1.28a2.12,2.12,0,0,0-1.81.94,5.26,5.26,0,0,0,0,5.14,2.11,2.11,0,0,0,1.81,1,2.21,2.21,0,0,0,1.88-1,5,5,0,0,0,0-5.12,2.24,2.24,0,0,0-1.88-.95Zm8,.11a2.86,2.86,0,0,1,1.17-1,3.5,3.5,0,0,1,1.54-.34,3.11,3.11,0,0,1,2.45,1,4,4,0,0,1,.87,2.81V705h-1.59V699.5a2.93,2.93,0,0,0-.54-2,2,2,0,0,0-1.56-.61,2.23,2.23,0,0,0-1.71.74,3,3,0,0,0-.67,2.07V705h-1.58V692.14H132V697Zm11.91,8.4a7.32,7.32,0,0,1-.94,1.83,2.68,2.68,0,0,1-1.16.9,4.59,4.59,0,0,1-1.66.26,2.93,2.93,0,0,1-.83-.09v-1.33a2.49,2.49,0,0,0,.76.11,2.39,2.39,0,0,0,1-.18,1.7,1.7,0,0,0,.67-.62,6.24,6.24,0,0,0,.6-1.26l-3.48-9.18h1.71l2.63,7.28h0l2.66-7.28h1.67l-3.67,9.56Zm7.62-9.81a3.88,3.88,0,0,1,2.62.81,2.87,2.87,0,0,1,.94,2.31h-1.55a1.83,1.83,0,0,0-.53-1.41,2.6,2.6,0,0,0-2.81-.13,1.1,1.1,0,0,0-.47.94,1.05,1.05,0,0,0,.22.72,1.5,1.5,0,0,0,.64.4c.28.09.72.21,1.33.36a15.43,15.43,0,0,1,1.85.54,2.81,2.81,0,0,1,1.13.82,2.32,2.32,0,0,1,.48,1.55,2.37,2.37,0,0,1-1,2,4.26,4.26,0,0,1-2.64.75,4.22,4.22,0,0,1-2.82-.85,3.07,3.07,0,0,1-1-2.44h1.6a1.92,1.92,0,0,0,.58,1.5,2.42,2.42,0,0,0,1.67.53,2.48,2.48,0,0,0,1.44-.38,1.15,1.15,0,0,0,.54-1,1.22,1.22,0,0,0-.25-.81,1.84,1.84,0,0,0-.74-.46q-.5-.16-1.53-.42a15.07,15.07,0,0,1-1.68-.49,2.54,2.54,0,0,1-1-.74,2.24,2.24,0,0,1-.42-1.45,2.32,2.32,0,0,1,.95-1.91,3.85,3.85,0,0,1,2.44-.74Zm6-1.64v-1.78h1.58v1.78Zm0,11v-9.15h1.58V705Zm8-9.4a4.19,4.19,0,0,1,1.93.44,3.56,3.56,0,0,1,1.37,1.24,3.89,3.89,0,0,1,.6,1.81h-1.65a2.49,2.49,0,0,0-.71-1.58,2.14,2.14,0,0,0-1.56-.61,2.26,2.26,0,0,0-1.91.94,4.24,4.24,0,0,0-.7,2.59,4.29,4.29,0,0,0,.69,2.58,2.24,2.24,0,0,0,1.92.94,2.06,2.06,0,0,0,1.56-.65,2.74,2.74,0,0,0,.71-1.67h1.65a4.16,4.16,0,0,1-.59,1.87,3.64,3.64,0,0,1-1.36,1.28,4,4,0,0,1-1.95.47,4.36,4.36,0,0,1-2.29-.58,3.82,3.82,0,0,1-1.49-1.68,6.59,6.59,0,0,1,0-5.13,3.85,3.85,0,0,1,1.49-1.67,4.36,4.36,0,0,1,2.29-.59Zm9.23,0a3.75,3.75,0,0,1,2.66.89,3.49,3.49,0,0,1,.94,2.66v3.51a10.45,10.45,0,0,0,.22,2.34h-1.44a5.94,5.94,0,0,1-.13-1.33h0a3.25,3.25,0,0,1-1.28,1.13,4.25,4.25,0,0,1-1.89.4,3.25,3.25,0,0,1-2.25-.75,2.45,2.45,0,0,1-.85-1.94,2.4,2.4,0,0,1,.78-1.88,5.54,5.54,0,0,1,2.7-1c.88-.14,1.77-.24,2.64-.3v-.36a2.13,2.13,0,0,0-.55-1.62,2.09,2.09,0,0,0-1.52-.52,2.15,2.15,0,0,0-1.51.49,1.85,1.85,0,0,0-.58,1.32h-1.58a3,3,0,0,1,1-2.19,3.79,3.79,0,0,1,2.64-.85Zm2.07,4.93c-.92.08-1.72.17-2.39.29a3.79,3.79,0,0,0-1.63.54,1.23,1.23,0,0,0-.48,1,1.42,1.42,0,0,0,.5,1.14,2.06,2.06,0,0,0,1.37.42,2.85,2.85,0,0,0,1.06-.19,2.16,2.16,0,0,0,.83-.53,2.47,2.47,0,0,0,.58-.89,3.88,3.88,0,0,0,.16-1.27v-.56Zm4.23,4.47V692.14h1.59V705Zm10-7.89a2.78,2.78,0,0,1,1.12-1.08,3.47,3.47,0,0,1,1.67-.41,3.53,3.53,0,0,1,2,.59,3.73,3.73,0,0,1,1.33,1.67,7,7,0,0,1,0,5.06,3.82,3.82,0,0,1-1.34,1.68,3.51,3.51,0,0,1-2,.59,3.36,3.36,0,0,1-1.67-.41,2.6,2.6,0,0,1-1.12-1.13h0V705h-1.57V692.14H191v4.93Zm2.38-.21a2.11,2.11,0,0,0-1.81.94,5.2,5.2,0,0,0,0,5.14,2.1,2.1,0,0,0,1.81,1,2.19,2.19,0,0,0,1.87-1,5,5,0,0,0,0-5.12,2.22,2.22,0,0,0-1.87-.95ZM203.61,704a2.59,2.59,0,0,0,1.61-.49,2.07,2.07,0,0,0,.81-1.28h1.62a3.62,3.62,0,0,1-1.31,2.14,4.73,4.73,0,0,1-5,.24,4,4,0,0,1-1.49-1.73,6.2,6.2,0,0,1-.51-2.61,5.55,5.55,0,0,1,.51-2.42,4,4,0,0,1,1.48-1.67,4.11,4.11,0,0,1,2.26-.61,4,4,0,0,1,2.58.85,4.13,4.13,0,0,1,1.42,2.34,8.53,8.53,0,0,1,.18,2H200.9a3.7,3.7,0,0,0,.8,2.45,2.45,2.45,0,0,0,1.91.83Zm-.05-7.2a2.43,2.43,0,0,0-1.82.71,3.2,3.2,0,0,0-.83,2h5.26a3.15,3.15,0,0,0-.83-2,2.4,2.4,0,0,0-1.78-.7Zm10.66-1.17a3.1,3.1,0,0,1,2.44,1,4,4,0,0,1,.87,2.81V705h-1.59V699.5a2.93,2.93,0,0,0-.54-2,2,2,0,0,0-1.56-.61,2.2,2.2,0,0,0-1.7.74,3,3,0,0,0-.68,2.07V705h-1.58v-9.15h1.53V697h0a3.21,3.21,0,0,1,1.16-1,3.45,3.45,0,0,1,1.62-.37Zm9.66,8.37a2.59,2.59,0,0,0,1.61-.49,2,2,0,0,0,.8-1.28h1.62a3.56,3.56,0,0,1-1.3,2.14,4.73,4.73,0,0,1-5,.24,3.94,3.94,0,0,1-1.49-1.73,6.2,6.2,0,0,1-.51-2.61,5.55,5.55,0,0,1,.51-2.42,3.94,3.94,0,0,1,1.48-1.67,4.09,4.09,0,0,1,2.26-.61,4,4,0,0,1,2.58.85,4.12,4.12,0,0,1,1.41,2.34,8.53,8.53,0,0,1,.18,2h-6.84a3.81,3.81,0,0,0,.8,2.45,2.48,2.48,0,0,0,1.92.83Zm0-7.2a2.42,2.42,0,0,0-1.82.71,3.2,3.2,0,0,0-.83,2h5.26a3.21,3.21,0,0,0-.83-2,2.4,2.4,0,0,0-1.78-.7Zm6.75-2.11a2.7,2.7,0,0,1,.64-2,2.45,2.45,0,0,1,1.86-.66,3.91,3.91,0,0,1,.92.09v1.23a1.63,1.63,0,0,0-.52-.06,1.28,1.28,0,0,0-1,.36,1.75,1.75,0,0,0-.33,1.19v.95H234v1.26h-1.82V705h-1.56v-7.89H229v-1.26h1.6v-1.13Zm6.64-.76h-1.58v-1.78h1.58Zm0,1.89V705h-1.58v-9.15Zm6,7.91a2.08,2.08,0,0,0,.65-.09v1.29a4,4,0,0,1-1,.11,2.52,2.52,0,0,1-1.9-.61,2.87,2.87,0,0,1-.58-2v-5.33h-1.59v-1.26h1.59V693.6H242v2.21h1.82v1.26H242v5.17a1.74,1.74,0,0,0,.29,1.13,1.19,1.19,0,0,0,1,.35Zm5.44-8.16a3.88,3.88,0,0,1,2.62.81,2.87,2.87,0,0,1,.94,2.31H250.7a1.83,1.83,0,0,0-.53-1.41,2.6,2.6,0,0,0-2.81-.13,1.1,1.1,0,0,0-.47.94,1.05,1.05,0,0,0,.22.72,1.5,1.5,0,0,0,.64.4c.28.09.72.21,1.33.36a15.43,15.43,0,0,1,1.85.54,2.81,2.81,0,0,1,1.13.82,2.32,2.32,0,0,1,.48,1.55,2.37,2.37,0,0,1-1,2,4.26,4.26,0,0,1-2.64.75,4.22,4.22,0,0,1-2.82-.85,3.07,3.07,0,0,1-1-2.44h1.6a1.92,1.92,0,0,0,.58,1.5,2.42,2.42,0,0,0,1.67.53,2.48,2.48,0,0,0,1.44-.38,1.15,1.15,0,0,0,.54-1,1.22,1.22,0,0,0-.25-.81,1.84,1.84,0,0,0-.74-.46q-.5-.16-1.53-.42a15.07,15.07,0,0,1-1.68-.49,2.54,2.54,0,0,1-1-.74,2.24,2.24,0,0,1-.42-1.45,2.32,2.32,0,0,1,.95-1.91,3.85,3.85,0,0,1,2.44-.74Zm13.19,0a3.75,3.75,0,0,1,2.66.89,3.49,3.49,0,0,1,.94,2.66v3.51a11.07,11.07,0,0,0,.22,2.34h-1.44a6.59,6.59,0,0,1-.13-1.33h0a3.25,3.25,0,0,1-1.28,1.13,4.25,4.25,0,0,1-1.89.4,3.25,3.25,0,0,1-2.25-.75,2.48,2.48,0,0,1-.85-1.94,2.41,2.41,0,0,1,.79-1.88,5.49,5.49,0,0,1,2.69-1q1.33-.21,2.64-.3v-.36a2.17,2.17,0,0,0-.54-1.62,2.13,2.13,0,0,0-1.53-.52,2.16,2.16,0,0,0-1.51.49,1.8,1.8,0,0,0-.57,1.32h-1.59a3,3,0,0,1,1-2.19,3.81,3.81,0,0,1,2.64-.85Zm2.07,4.93c-.92.08-1.72.17-2.39.29a3.79,3.79,0,0,0-1.63.54,1.23,1.23,0,0,0-.48,1,1.42,1.42,0,0,0,.5,1.14,2.07,2.07,0,0,0,1.38.42,2.84,2.84,0,0,0,1.05-.19,2.27,2.27,0,0,0,.84-.53,2.58,2.58,0,0,0,.57-.89,3.88,3.88,0,0,0,.16-1.27v-.56Zm7.13-4.93a3.89,3.89,0,0,1,2.63.81,2.9,2.9,0,0,1,.94,2.31H273.1a1.83,1.83,0,0,0-.53-1.41,2.19,2.19,0,0,0-1.51-.48,2.11,2.11,0,0,0-1.3.35,1.11,1.11,0,0,0-.48.94,1.05,1.05,0,0,0,.23.72,1.5,1.5,0,0,0,.64.4c.27.09.72.21,1.33.36a14.65,14.65,0,0,1,1.84.54,2.78,2.78,0,0,1,1.14.82,2.32,2.32,0,0,1,.47,1.55,2.35,2.35,0,0,1-1,2,5,5,0,0,1-5.45-.1,3,3,0,0,1-1-2.44h1.6a1.93,1.93,0,0,0,.59,1.5,2.41,2.41,0,0,0,1.66.53,2.46,2.46,0,0,0,1.44-.38,1.13,1.13,0,0,0,.54-1,1.17,1.17,0,0,0-.25-.81,1.8,1.8,0,0,0-.73-.46q-.49-.16-1.53-.42a13.87,13.87,0,0,1-1.68-.49,2.47,2.47,0,0,1-1-.74,2.24,2.24,0,0,1-.42-1.45,2.31,2.31,0,0,1,.94-1.91,3.87,3.87,0,0,1,2.44-.74Zm17.58,9.4-1.08-4c-.14-.51-.22-.84-.26-1-.28-1.07-.54-2-.75-3h0c-.21.9-.47,1.88-.75,3,0,.17-.12.5-.26,1l-1.08,4h-2.26l-2.43-9.15h1.6l1,3.82c.29,1.15.62,2.52,1,4.1h0c.33-1.36.66-2.7,1-4l1.05-3.91h2.26l1.05,3.91,1,4h0c.39-1.58.72-3,1-4.1l1-3.82h1.6L290.92,705Zm9.81-1a2.63,2.63,0,0,0,1.61-.49,2.1,2.1,0,0,0,.8-1.28h1.62a3.57,3.57,0,0,1-1.31,2.14,4.17,4.17,0,0,1-2.72.85,4.24,4.24,0,0,1-2.31-.61,3.92,3.92,0,0,1-1.48-1.73,6.2,6.2,0,0,1-.52-2.61,5.55,5.55,0,0,1,.52-2.42,3.92,3.92,0,0,1,1.47-1.67,4.13,4.13,0,0,1,2.26-.61,4,4,0,0,1,2.59.85,4.12,4.12,0,0,1,1.41,2.34,8.53,8.53,0,0,1,.18,2h-6.84a3.7,3.7,0,0,0,.8,2.45,2.48,2.48,0,0,0,1.92.83Zm-.06-7.2a2.43,2.43,0,0,0-1.82.71,3.19,3.19,0,0,0-.82,2H301a3.15,3.15,0,0,0-.83-2,2.39,2.39,0,0,0-1.78-.7Zm6.32,8.17V692.14h1.58V705Zm4.39,0V692.14h1.59V705Zm4.05,0v-2.11h1.95V705Zm12.14-13.07a4.92,4.92,0,0,1,3.44,1.06,4.11,4.11,0,0,1,1.15,3.15h-1.68a2.74,2.74,0,0,0-.74-2.09,3.08,3.08,0,0,0-2.19-.7,2.9,2.9,0,0,0-1.86.54,1.78,1.78,0,0,0-.68,1.46,1.65,1.65,0,0,0,.33,1.07,2.31,2.31,0,0,0,1,.67,15.41,15.41,0,0,0,1.81.55,16.71,16.71,0,0,1,2.37.73,3.56,3.56,0,0,1,1.44,1.12,3.27,3.27,0,0,1,.54,2,3.49,3.49,0,0,1-.56,2,3.73,3.73,0,0,1-1.6,1.32,5.92,5.92,0,0,1-2.43.47,5,5,0,0,1-3.52-1.15,4.32,4.32,0,0,1-1.26-3.35h1.71a3,3,0,0,0,.81,2.31,3.19,3.19,0,0,0,2.28.77,3.32,3.32,0,0,0,2.12-.6,2,2,0,0,0,.74-1.67,1.72,1.72,0,0,0-.33-1.1,2.27,2.27,0,0,0-1-.65,16,16,0,0,0-1.83-.55,14.74,14.74,0,0,1-2.36-.75,3.46,3.46,0,0,1-1.41-1.11,3.64,3.64,0,0,1,0-3.77,3.48,3.48,0,0,1,1.49-1.25,5.24,5.24,0,0,1,2.24-.45Zm10.4,11.83a2.08,2.08,0,0,0,.65-.09v1.29a4,4,0,0,1-1,.11,2.54,2.54,0,0,1-1.9-.61,2.87,2.87,0,0,1-.58-2v-5.33h-1.59v-1.26h1.59V693.6h1.58v2.21h1.82v1.26h-1.82v5.17a1.74,1.74,0,0,0,.29,1.13,1.21,1.21,0,0,0,1,.35Zm5.74,1.44a3.07,3.07,0,0,1-2.43-1,4,4,0,0,1-.86-2.81v-5.58h1.58v5.46a3,3,0,0,0,.54,2,2,2,0,0,0,1.57.6,2.19,2.19,0,0,0,1.69-.75,2.9,2.9,0,0,0,.69-2.06v-5.24h1.58V705h-1.53v-1.21h0a3,3,0,0,1-1.16,1,3.5,3.5,0,0,1-1.63.38Z" transform="translate(-118.11 -98.72)"/><text class="cls-3" transform="translate(229.1 606.24)">-</text><text class="cls-3" transform="translate(0.5 627.84)">de<tspan class="cls-77" x="20.27" y="0">n</tspan><tspan class="cls-14" x="30.47" y="0">ts</tspan><tspan class="cls-89" x="45.13" y="0"> </tspan><tspan x="46.37" y="0">g</tspan><tspan class="cls-67" x="56.68" y="0">e</tspan><tspan x="66.49" y="0">tting</tspan><tspan class="cls-89" x="103.08" y="0"> </tspan><tspan x="104.33" y="0">outside</tspan><tspan class="cls-90" x="164.17" y="0"> </tspan><tspan x="165.42" y="0">a</tspan><tspan class="cls-21" x="174.97" y="0">r</tspan><tspan x="181.15" y="0">e</tspan><tspan class="cls-90" x="191.05" y="0"> </tspan><tspan x="192.29" y="0">mo</tspan><tspan class="cls-21" x="217.99" y="0">r</tspan><tspan x="224.17" y="0">e </tspan></text><text class="cls-3" transform="translate(0.5 649.44)">p<tspan class="cls-17" x="10.37" y="0">h</tspan><tspan class="cls-72" x="20.39" y="0">y</tspan><tspan x="28.66" y="0">sically</tspan><tspan class="cls-91" x="78.39" y="0"> </tspan><tspan x="83.86" y="0">acti</tspan><tspan class="cls-4" x="113.18" y="0">v</tspan><tspan x="121.6" y="0">e,</tspan><tspan class="cls-92" x="135.57" y="0"> </tspan><tspan x="141.04" y="0">and</tspan><tspan class="cls-91" x="171.34" y="0"> </tspan><tspan class="cls-37" x="176.81" y="0">t</tspan><tspan x="182.3" y="0">end</tspan><tspan class="cls-92" x="212.94" y="0"> </tspan><tspan class="cls-37" x="218.41" y="0">t</tspan><tspan x="223.9" y="0">o </tspan></text><text class="cls-3" transform="translate(0.5 671.04)">h<tspan class="cls-93" x="10.37" y="0">a</tspan><tspan class="cls-4" x="19.64" y="0">v</tspan><tspan class="cls-10" x="28.06" y="0">e</tspan><tspan class="cls-94" x="37.96" y="0"> </tspan><tspan class="cls-36" x="46.89" y="0">b</tspan><tspan class="cls-56" x="57.44" y="0">e</tspan><tspan x="67.25" y="0">t</tspan><tspan class="cls-71" x="73.01" y="0">t</tspan><tspan class="cls-10" x="78.5" y="0">er</tspan><tspan class="cls-95" x="94.91" y="0"> </tspan><tspan class="cls-77" x="103.82" y="0">n</tspan><tspan x="114.03" y="0">utrition</tspan><tspan class="cls-95" x="171.75" y="0"> </tspan><tspan x="180.66" y="0">habits.</tspan></text><g class="cls-2"><rect class="cls-7" x="0.25" y="66.6" width="234.5" height="645.85"/></g><text class="cls-3" transform="translate(515.11 87.34)">The<tspan class="cls-96" x="31.05" y="0"> </tspan><tspan class="cls-14" x="44.8" y="0">u</tspan><tspan class="cls-32" x="55.17" y="0">s</tspan><tspan x="64.15" y="0">e</tspan><tspan class="cls-96" x="74.05" y="0"> </tspan><tspan x="87.8" y="0">of</tspan><tspan class="cls-97" x="103.46" y="0"> </tspan><tspan class="cls-14" x="117.23" y="0">l</tspan><tspan class="cls-29" x="121.62" y="0">o</tspan><tspan class="cls-10" x="131.97" y="0">cal</tspan><tspan class="cls-98" x="155.54" y="0"> </tspan><tspan class="cls-99" x="169.29" y="0">m</tspan><tspan class="cls-6" x="184.82" y="0">a</tspan><tspan class="cls-100" x="194.22" y="0">t</tspan><tspan class="cls-101" x="199.71" y="0">erial </tspan></text><text class="cls-3" transform="translate(515.11 108.94)"><tspan class="cls-102">s</tspan><tspan class="cls-93" x="9.16" y="0">a</tspan><tspan class="cls-4" x="18.43" y="0">v</tspan><tspan class="cls-27" x="26.86" y="0">e</tspan><tspan x="36.86" y="0">s</tspan><tspan class="cls-103" x="45.75" y="0"> </tspan><tspan class="cls-104" x="55.35" y="0">y</tspan><tspan x="63.81" y="0">ou</tspan><tspan class="cls-103" x="84.35" y="0"> </tspan><tspan class="cls-36" x="93.94" y="0">b</tspan><tspan class="cls-67" x="104.49" y="0">o</tspan><tspan x="114.57" y="0">th</tspan><tspan class="cls-105" x="130.69" y="0"> </tspan><tspan class="cls-99" x="140.29" y="0">mon</tspan><tspan class="cls-66" x="176.36" y="0">e</tspan><tspan x="186.19" y="0">y</tspan><tspan class="cls-106" x="194.68" y="0"> </tspan><tspan x="204.26" y="0">and </tspan></text><text class="cls-3" transform="translate(515.11 130.54)">time.<tspan class="cls-107" x="39.65" y="0"> </tspan><tspan x="50.02" y="0">Sho</tspan><tspan class="cls-108" x="81.52" y="0">r</tspan><tspan class="cls-71" x="88.23" y="0">t</tspan><tspan class="cls-10" x="93.72" y="0">er</tspan><tspan class="cls-109" x="110.14" y="0"> </tspan><tspan x="120.53" y="0">t</tspan><tspan class="cls-110" x="126.29" y="0">r</tspan><tspan x="132.39" y="0">ans</tspan><tspan class="cls-111" x="161.21" y="0">p</tspan><tspan x="171.73" y="0">o</tspan><tspan class="cls-112" x="181.9" y="0">r</tspan><tspan x="188.64" y="0">t</tspan><tspan class="cls-77" x="194.4" y="0">a</tspan><tspan x="203.79" y="0">tion </tspan></text><text class="cls-3" transform="translate(515.11 152.14)"><tspan class="cls-113">w</tspan><tspan class="cls-71" x="13.81" y="0">a</tspan><tspan class="cls-72" x="23.09" y="0">y</tspan><tspan x="31.36" y="0">s</tspan><tspan class="cls-114" x="40.25" y="0"> </tspan><tspan class="cls-14" x="49.05" y="0">means</tspan><tspan class="cls-115" x="103.3" y="0"> </tspan><tspan x="112.12" y="0">l</tspan><tspan class="cls-32" x="116.51" y="0">e</tspan><tspan class="cls-10" x="126.5" y="0">ss</tspan><tspan class="cls-115" x="144.29" y="0"> </tspan><tspan x="153.1" y="0">emissions </tspan></text><text class="cls-3" transform="translate(515.11 173.74)">and<tspan class="cls-116" x="30.29" y="0"> </tspan><tspan x="46.3" y="0">a</tspan><tspan class="cls-117" x="55.85" y="0"> </tspan><tspan x="71.87" y="0">quic</tspan><tspan class="cls-118" x="106.61" y="0">k</tspan><tspan class="cls-14" x="115.18" y="0">er</tspan><tspan class="cls-119" x="131.6" y="0"> </tspan><tspan class="cls-93" x="147.62" y="0">a</tspan><tspan class="cls-120" x="156.89" y="0">v</tspan><tspan x="165.17" y="0">ailabili</tspan><tspan class="cls-121" x="216.61" y="0">t</tspan><tspan class="cls-122" x="222.62" y="0">y</tspan><tspan x="230.47" y="0">. </tspan></text><text class="cls-3" transform="translate(515.11 195.34)">Fu<tspan class="cls-123" x="20.68" y="0">r</tspan><tspan x="27.4" y="0">thermo</tspan><tspan class="cls-17" x="85.64" y="0">r</tspan><tspan x="91.82" y="0">e</tspan><tspan class="cls-124" x="101.72" y="0"> </tspan><tspan x="108.77" y="0">it</tspan><tspan class="cls-124" x="118.92" y="0"> </tspan><tspan class="cls-101" x="125.98" y="0">gi</tspan><tspan class="cls-4" x="140.69" y="0">v</tspan><tspan class="cls-23" x="149.11" y="0">e</tspan><tspan x="159.12" y="0">s</tspan><tspan class="cls-125" x="168.01" y="0"> </tspan><tspan x="175.06" y="0">the</tspan><tspan class="cls-125" x="201.09" y="0"> </tspan><tspan x="208.15" y="0">ob</tspan></text><text class="cls-3" transform="translate(744.21 195.34)">-</text><text class="cls-3" transform="translate(515.11 216.94)">j<tspan class="cls-29" x="4.48" y="0">e</tspan><tspan class="cls-14" x="14.56" y="0">ct</tspan><tspan class="cls-126" x="29.93" y="0"> </tspan><tspan x="39.22" y="0">or</tspan><tspan class="cls-126" x="55.91" y="0"> </tspan><tspan class="cls-14" x="65.19" y="0">the</tspan><tspan class="cls-126" x="91.22" y="0"> </tspan><tspan class="cls-14" x="100.51" y="0">si</tspan><tspan class="cls-37" x="113.79" y="0">t</tspan><tspan class="cls-14" x="119.28" y="0">e,</tspan><tspan class="cls-127" x="133.25" y="0"> </tspan><tspan x="142.54" y="0">the</tspan><tspan class="cls-127" x="168.57" y="0"> </tspan><tspan x="177.85" y="0">m</tspan><tspan class="cls-77" x="193.39" y="0">a</tspan><tspan class="cls-100" x="202.78" y="0">t</tspan><tspan class="cls-101" x="208.27" y="0">eri</tspan></text><text class="cls-3" transform="translate(744.21 216.94)">-</text><text class="cls-3" transform="translate(515.11 238.54)">al<tspan class="cls-128" x="13.95" y="0"> </tspan><tspan class="cls-113" x="21.51" y="0">w</tspan><tspan x="35.32" y="0">as</tspan><tspan class="cls-129" x="53.77" y="0"> </tspan><tspan class="cls-14" x="61.31" y="0">u</tspan><tspan class="cls-32" x="71.67" y="0">s</tspan><tspan class="cls-36" x="80.66" y="0">e</tspan><tspan x="90.74" y="0">d</tspan><tspan class="cls-130" x="101.1" y="0"> </tspan><tspan class="cls-54" x="108.65" y="0">f</tspan><tspan class="cls-10" x="113.88" y="0">or</tspan><tspan class="cls-131" x="130.57" y="0">/</tspan><tspan class="cls-6" x="137.19" y="0">a</tspan><tspan x="146.59" y="0">t</tspan><tspan class="cls-132" x="152.35" y="0"> </tspan><tspan x="159.89" y="0">a</tspan><tspan class="cls-128" x="169.45" y="0"> </tspan><tspan class="cls-101" x="177.01" y="0">s</tspan><tspan class="cls-111" x="185.9" y="0">p</tspan><tspan class="cls-133" x="196.43" y="0">e</tspan><tspan class="cls-99" x="206.51" y="0">cial </tspan></text><text class="cls-3" transform="translate(515.11 260.14)">and<tspan class="cls-134" x="30.29" y="0"> </tspan><tspan class="cls-14" x="36.86" y="0">l</tspan><tspan class="cls-87" x="41.26" y="0">o</tspan><tspan x="51.59" y="0">cal</tspan><tspan class="cls-135" x="75.15" y="0"> </tspan><tspan class="cls-37" x="81.74" y="0">t</tspan><tspan x="87.23" y="0">ouch,</tspan><tspan class="cls-136" x="131.81" y="0"> </tspan><tspan class="cls-101" x="138.38" y="0">which</tspan><tspan class="cls-134" x="186.98" y="0"> </tspan><tspan x="193.55" y="0">is</tspan><tspan class="cls-137" x="206.83" y="0"> </tspan><tspan class="cls-99" x="213.42" y="0">of</tspan></text><text class="cls-3" transform="translate(744.21 260.14)">-</text><text class="cls-3" transform="translate(515.11 281.74)"><tspan class="cls-37">t</tspan><tspan x="5.49" y="0">en</tspan><tspan class="cls-138" x="25.76" y="0"> </tspan><tspan x="35.08" y="0">an</tspan><tspan class="cls-138" x="55.01" y="0"> </tspan><tspan x="64.33" y="0">ad</tspan><tspan class="cls-65" x="84.26" y="0">v</tspan><tspan class="cls-14" x="92.54" y="0">a</tspan><tspan class="cls-77" x="102.09" y="0">n</tspan><tspan x="112.3" y="0">tage</tspan><tspan class="cls-139" x="147.83" y="0"> </tspan><tspan class="cls-71" x="157.15" y="0">t</tspan><tspan x="162.65" y="0">o</tspan><tspan class="cls-140" x="172.81" y="0"> </tspan><tspan x="182.14" y="0">gener</tspan></text><text class="cls-3" transform="translate(744.21 281.74)">-</text><text class="cls-3" transform="translate(515.11 303.34)"><tspan class="cls-8">a</tspan><tspan class="cls-37" x="9.4" y="0">t</tspan><tspan x="14.89" y="0">e</tspan><tspan class="cls-141" x="24.79" y="0"> </tspan><tspan x="31.72" y="0">higher</tspan><tspan class="cls-141" x="83.57" y="0"> </tspan><tspan class="cls-37" x="90.5" y="0">t</tspan><tspan x="95.99" y="0">ourism</tspan><tspan class="cls-142" x="151.86" y="0"> </tspan><tspan class="cls-143" x="158.79" y="0">n</tspan><tspan x="169" y="0">um</tspan><tspan class="cls-29" x="194.9" y="0">b</tspan><tspan x="205.45" y="0">e</tspan><tspan class="cls-11" x="215.35" y="0">r</tspan><tspan x="221.65" y="0">s.</tspan></text><rect class="cls-7" x="514.86" y="66.1" width="235" height="254.03"/><path class="cls-64" d="M1154.84,174.72v4.37h6v1.48h-6v5.49h-1.65V173.24h8v1.48Zm11.5,1.94a3.75,3.75,0,0,1,2.66.89,3.49,3.49,0,0,1,.94,2.66v3.51a11.07,11.07,0,0,0,.22,2.34h-1.44a6.59,6.59,0,0,1-.13-1.33h0a3.25,3.25,0,0,1-1.28,1.13,4.25,4.25,0,0,1-1.89.4,3.25,3.25,0,0,1-2.25-.75,2.48,2.48,0,0,1-.85-1.94,2.41,2.41,0,0,1,.79-1.88,5.49,5.49,0,0,1,2.69-1q1.34-.21,2.64-.3V180a2.13,2.13,0,0,0-.55-1.62,2.09,2.09,0,0,0-1.52-.52,2.16,2.16,0,0,0-1.51.49,1.8,1.8,0,0,0-.57,1.32h-1.59a3,3,0,0,1,1-2.19,3.81,3.81,0,0,1,2.64-.85Zm2.07,4.93c-.92.08-1.72.17-2.39.29a3.79,3.79,0,0,0-1.63.54,1.23,1.23,0,0,0-.48,1.05,1.42,1.42,0,0,0,.5,1.14,2.07,2.07,0,0,0,1.38.42,2.84,2.84,0,0,0,1-.19,2.27,2.27,0,0,0,.84-.53,2.58,2.58,0,0,0,.57-.89,3.88,3.88,0,0,0,.16-1.27v-.56Zm7.2,4.67a3.07,3.07,0,0,1-2.43-1,4,4,0,0,1-.86-2.81v-5.58h1.58v5.46a3,3,0,0,0,.54,2,2,2,0,0,0,1.57.6,2.19,2.19,0,0,0,1.69-.75,2.9,2.9,0,0,0,.69-2.06v-5.24H1180v9.15h-1.53v-1.21h0a3,3,0,0,1-1.16,1,3.5,3.5,0,0,1-1.63.38Zm10.07-9.6a3.88,3.88,0,0,1,2.62.81,2.87,2.87,0,0,1,.94,2.31h-1.55a1.8,1.8,0,0,0-.53-1.41,2.6,2.6,0,0,0-2.81-.13,1.12,1.12,0,0,0-.47.94,1.05,1.05,0,0,0,.22.72,1.5,1.5,0,0,0,.64.4c.28.09.72.21,1.33.36a15.43,15.43,0,0,1,1.85.54,2.75,2.75,0,0,1,1.13.82,2.32,2.32,0,0,1,.48,1.55,2.37,2.37,0,0,1-1,2,4.26,4.26,0,0,1-2.64.75,4.22,4.22,0,0,1-2.82-.85,3.07,3.07,0,0,1-1-2.44h1.6a1.92,1.92,0,0,0,.58,1.5,2.42,2.42,0,0,0,1.67.53,2.48,2.48,0,0,0,1.44-.38,1.15,1.15,0,0,0,.54-1,1.22,1.22,0,0,0-.25-.81,1.84,1.84,0,0,0-.74-.46q-.5-.16-1.53-.42a15.07,15.07,0,0,1-1.68-.49,2.44,2.44,0,0,1-1-.74,2.18,2.18,0,0,1-.43-1.45,2.32,2.32,0,0,1,1-1.91,3.85,3.85,0,0,1,2.44-.74Zm11.66,9.4-4-4.57h0v4.57h-1.58V173.24h1.58v7.47h0l3.69-3.8h2l-4.1,4.14,4.59,5Zm6.53-1a2.64,2.64,0,0,0,1.62-.49,2.1,2.1,0,0,0,.8-1.28h1.62a3.62,3.62,0,0,1-1.31,2.14,4.73,4.73,0,0,1-5,.24,3.92,3.92,0,0,1-1.48-1.73,6,6,0,0,1-.52-2.61,5.41,5.41,0,0,1,.52-2.42,3.92,3.92,0,0,1,1.47-1.67,4.11,4.11,0,0,1,2.26-.61,4,4,0,0,1,2.58.85,4.08,4.08,0,0,1,1.42,2.34,8.53,8.53,0,0,1,.18,2h-6.84a3.7,3.7,0,0,0,.8,2.45,2.45,2.45,0,0,0,1.91.83Zm0-7.2a2.43,2.43,0,0,0-1.82.71,3.2,3.2,0,0,0-.83,2h5.26a3.15,3.15,0,0,0-.83-2,2.4,2.4,0,0,0-1.78-.7Zm15.25-1.23a3.88,3.88,0,0,1,2.62.81,2.87,2.87,0,0,1,.94,2.31h-1.55a1.83,1.83,0,0,0-.53-1.41,2.6,2.6,0,0,0-2.81-.13,1.1,1.1,0,0,0-.47.94,1.05,1.05,0,0,0,.22.72,1.5,1.5,0,0,0,.64.4c.28.09.72.21,1.33.36a15.43,15.43,0,0,1,1.85.54,2.81,2.81,0,0,1,1.13.82,2.32,2.32,0,0,1,.48,1.55,2.37,2.37,0,0,1-1,2,4.26,4.26,0,0,1-2.64.75,4.22,4.22,0,0,1-2.82-.85,3.07,3.07,0,0,1-1-2.44h1.6a1.92,1.92,0,0,0,.58,1.5,2.42,2.42,0,0,0,1.67.53,2.48,2.48,0,0,0,1.44-.38,1.15,1.15,0,0,0,.54-1,1.22,1.22,0,0,0-.25-.81,1.84,1.84,0,0,0-.74-.46q-.49-.16-1.53-.42a15.07,15.07,0,0,1-1.68-.49,2.54,2.54,0,0,1-1-.74,2.24,2.24,0,0,1-.42-1.45,2.32,2.32,0,0,1,1-1.91,3.85,3.85,0,0,1,2.44-.74Zm9.19,9.6a3.07,3.07,0,0,1-2.43-1,4.07,4.07,0,0,1-.86-2.81v-5.58h1.58v5.46a3,3,0,0,0,.54,2,2,2,0,0,0,1.57.6,2.19,2.19,0,0,0,1.69-.75,2.9,2.9,0,0,0,.69-2.06v-5.24h1.58v9.15h-1.53v-1.21h0a3,3,0,0,1-1.16,1,3.5,3.5,0,0,1-1.63.38Zm15.41-11.85a1.31,1.31,0,0,0-1,.36,1.8,1.8,0,0,0-.32,1.19v.95h1.82v1.26h-1.82v7.89h-1.57v-7.89h-3.34v7.89h-1.57v-7.89h-1.6v-1.26h1.6v-1.13a2.7,2.7,0,0,1,.64-2,2.47,2.47,0,0,1,1.86-.66,3.91,3.91,0,0,1,.92.09v1.23a1.63,1.63,0,0,0-.52-.06,1.3,1.3,0,0,0-1,.36,1.75,1.75,0,0,0-.32,1.19v.95h3.34v-1.13a2.74,2.74,0,0,1,.64-2,2.49,2.49,0,0,1,1.87-.66,4.12,4.12,0,0,1,.91.09v1.23a1.72,1.72,0,0,0-.52-.06Zm5.53,10.68a2.63,2.63,0,0,0,1.61-.49,2.1,2.1,0,0,0,.8-1.28h1.62a3.57,3.57,0,0,1-1.31,2.14,4.17,4.17,0,0,1-2.72.85,4.24,4.24,0,0,1-2.31-.61,3.92,3.92,0,0,1-1.48-1.73,6.2,6.2,0,0,1-.52-2.61,5.55,5.55,0,0,1,.52-2.42,3.92,3.92,0,0,1,1.47-1.67,4.13,4.13,0,0,1,2.26-.61,4,4,0,0,1,2.59.85,4.12,4.12,0,0,1,1.41,2.34,8.53,8.53,0,0,1,.18,2h-6.84a3.7,3.7,0,0,0,.8,2.45,2.48,2.48,0,0,0,1.92.83Zm-.06-7.2a2.43,2.43,0,0,0-1.82.71,3.19,3.19,0,0,0-.82,2h5.25a3.15,3.15,0,0,0-.83-2,2.39,2.39,0,0,0-1.78-.7Zm10.57-1.07a2.48,2.48,0,0,1,.66.08v1.42l-.63-.06a2.48,2.48,0,0,0-2,.81,3.45,3.45,0,0,0-.71,2.33v4.66h-1.58v-9.15H1257v1.41h0a3,3,0,0,1,2.7-1.5Zm4.93-.16a3.9,3.9,0,0,1,2.63.81,2.9,2.9,0,0,1,.93,2.31h-1.54a1.83,1.83,0,0,0-.53-1.41,2.19,2.19,0,0,0-1.51-.48,2.11,2.11,0,0,0-1.3.35,1.11,1.11,0,0,0-.48.94,1.05,1.05,0,0,0,.23.72,1.52,1.52,0,0,0,.63.4c.28.09.72.21,1.34.36a15.18,15.18,0,0,1,1.84.54,2.78,2.78,0,0,1,1.14.82,2.62,2.62,0,0,1-.51,3.54,4.22,4.22,0,0,1-2.64.75,4.18,4.18,0,0,1-2.81-.85,3,3,0,0,1-1-2.44h1.6a1.93,1.93,0,0,0,.59,1.5,2.4,2.4,0,0,0,1.66.53,2.48,2.48,0,0,0,1.44-.38,1.15,1.15,0,0,0,.54-1,1.17,1.17,0,0,0-.25-.81,1.77,1.77,0,0,0-.74-.46q-.48-.16-1.53-.42a14.17,14.17,0,0,1-1.67-.49,2.4,2.4,0,0,1-1-.74,2.24,2.24,0,0,1-.42-1.45,2.31,2.31,0,0,1,.94-1.91,3.85,3.85,0,0,1,2.44-.74Zm15.35-2.25a1.27,1.27,0,0,0-1,.36,1.75,1.75,0,0,0-.33,1.19v.95h1.82v1.26h-1.82v7.89h-1.56v-7.89h-1.61v-1.26h1.61v-1.13a2.7,2.7,0,0,1,.64-2,2.45,2.45,0,0,1,1.86-.66,3.91,3.91,0,0,1,.92.09v1.23a1.7,1.7,0,0,0-.53-.06Zm6.41,2.41a2.51,2.51,0,0,1,.67.08v1.42l-.63-.06a2.5,2.5,0,0,0-2,.81,3.45,3.45,0,0,0-.7,2.33v4.66h-1.59v-9.15h1.52v1.41h0a3,3,0,0,1,2.7-1.5Zm5.6-.16a4.07,4.07,0,0,1,3.19,1.3,5.9,5.9,0,0,1,0,7,4.55,4.55,0,0,1-6.37,0,5.94,5.94,0,0,1,0-7,4.05,4.05,0,0,1,3.18-1.3Zm0,1.3a2.32,2.32,0,0,0-2,.94,5,5,0,0,0,0,5.17,2.32,2.32,0,0,0,2,.94,2.35,2.35,0,0,0,2-.94,5,5,0,0,0,0-5.17,2.35,2.35,0,0,0-2-.94Zm16.24-1.24a2.83,2.83,0,0,1,2.27.93,4.11,4.11,0,0,1,.8,2.76v5.65h-1.58v-5.53a3,3,0,0,0-.48-1.92,1.66,1.66,0,0,0-1.39-.6,1.88,1.88,0,0,0-1.58.78,3.36,3.36,0,0,0-.58,2.08v5.19h-1.59V180.3a2.62,2.62,0,0,0-.48-1.68,1.65,1.65,0,0,0-1.37-.61,1.89,1.89,0,0,0-1.59.79,3.62,3.62,0,0,0-.59,2.18v5.08h-1.58v-9.15H1300v1.14h0a3.2,3.2,0,0,1,4.22-.89,2.76,2.76,0,0,1,1.06,1.28,3.13,3.13,0,0,1,2.9-1.72Zm15.08-.06a3.75,3.75,0,0,1,2.66.89,3.49,3.49,0,0,1,.94,2.66v3.51a10.45,10.45,0,0,0,.22,2.34h-1.44a5.94,5.94,0,0,1-.13-1.33h0a3.22,3.22,0,0,1-1.27,1.13,4.25,4.25,0,0,1-1.89.4,3.25,3.25,0,0,1-2.25-.75,2.45,2.45,0,0,1-.85-1.94,2.4,2.4,0,0,1,.78-1.88,5.53,5.53,0,0,1,2.69-1c.89-.14,1.77-.24,2.65-.3V180a2.13,2.13,0,0,0-.55-1.62,2.11,2.11,0,0,0-1.52-.52,2.15,2.15,0,0,0-1.51.49,1.85,1.85,0,0,0-.58,1.32h-1.58a3,3,0,0,1,1-2.19,3.84,3.84,0,0,1,2.65-.85Zm2.07,4.93c-.92.08-1.72.17-2.39.29a3.79,3.79,0,0,0-1.63.54,1.23,1.23,0,0,0-.48,1.05,1.42,1.42,0,0,0,.5,1.14,2,2,0,0,0,1.37.42,2.93,2.93,0,0,0,1.06-.19,2.23,2.23,0,0,0,.83-.53,2.47,2.47,0,0,0,.58-.89,3.88,3.88,0,0,0,.16-1.27v-.56Zm16.27,4.47v-1.33h0a2.79,2.79,0,0,1-1.13,1.13,3.37,3.37,0,0,1-1.68.41,3.51,3.51,0,0,1-2-.59,3.82,3.82,0,0,1-1.34-1.68,7,7,0,0,1,0-5.06,3.73,3.73,0,0,1,1.33-1.67,3.53,3.53,0,0,1,2-.59,3.47,3.47,0,0,1,1.67.41,2.78,2.78,0,0,1,1.12,1.08h0v-4.93h1.58v12.82Zm-2.45-8.1a2.22,2.22,0,0,0-1.87.95,5,5,0,0,0,0,5.12,2.19,2.19,0,0,0,1.87,1,2.12,2.12,0,0,0,1.82-1,5.13,5.13,0,0,0,0-5.14,2.12,2.12,0,0,0-1.82-.94Zm10.44,7.13a2.64,2.64,0,0,0,1.62-.49,2.1,2.1,0,0,0,.8-1.28h1.62a3.62,3.62,0,0,1-1.31,2.14,4.73,4.73,0,0,1-5,.24,3.92,3.92,0,0,1-1.48-1.73,6,6,0,0,1-.52-2.61,5.41,5.41,0,0,1,.52-2.42,3.92,3.92,0,0,1,1.47-1.67,4.11,4.11,0,0,1,2.26-.61,4,4,0,0,1,2.58.85,4.08,4.08,0,0,1,1.42,2.34,8.53,8.53,0,0,1,.18,2h-6.84a3.7,3.7,0,0,0,.8,2.45,2.46,2.46,0,0,0,1.91.83Zm-.05-7.2a2.43,2.43,0,0,0-1.82.71,3.2,3.2,0,0,0-.83,2h5.26a3.15,3.15,0,0,0-.83-2,2.4,2.4,0,0,0-1.78-.7Zm16.06-1.17a2.83,2.83,0,0,1,2.27.93,4.11,4.11,0,0,1,.8,2.76v5.65h-1.58v-5.53a3,3,0,0,0-.48-1.92,1.66,1.66,0,0,0-1.39-.6,1.88,1.88,0,0,0-1.58.78,3.36,3.36,0,0,0-.58,2.08v5.19h-1.59V180.3a2.62,2.62,0,0,0-.48-1.68,1.65,1.65,0,0,0-1.37-.61,1.89,1.89,0,0,0-1.59.79,3.62,3.62,0,0,0-.59,2.18v5.08h-1.58v-9.15h1.53v1.14h0a3.2,3.2,0,0,1,4.22-.89,2.76,2.76,0,0,1,1.06,1.28,3.13,3.13,0,0,1,2.9-1.72Zm9.46-.06a4.06,4.06,0,0,1,3.19,1.3,5.9,5.9,0,0,1,0,7,4.06,4.06,0,0,1-3.19,1.3A4,4,0,0,1,1372,185a5.94,5.94,0,0,1,0-7,4,4,0,0,1,3.17-1.3Zm0,1.3a2.34,2.34,0,0,0-2,.94,5,5,0,0,0,0,5.17,2.53,2.53,0,0,0,3.94,0,5,5,0,0,0,0-5.17,2.35,2.35,0,0,0-2-.94Z" transform="translate(-118.11 -98.72)"/><text class="cls-3" transform="translate(1262.46 87.34)">-</text><text class="cls-3" transform="translate(1033.36 108.94)">g<tspan class="cls-144" x="10.31" y="0">r</tspan><tspan class="cls-101" x="16.43" y="0">aphic</tspan><tspan class="cls-77" x="60.73" y="0"> </tspan><tspan x="64.71" y="0">gap</tspan><tspan class="cls-6" x="94.95" y="0"> </tspan><tspan x="98.93" y="0">of</tspan><tspan class="cls-145" x="114.59" y="0"> </tspan><tspan x="118.58" y="0">the</tspan><tspan class="cls-6" x="144.61" y="0"> </tspan><tspan class="cls-146" x="148.59" y="0">y</tspan><tspan x="157.05" y="0">outh</tspan><tspan class="cls-77" x="193.71" y="0"> </tspan><tspan class="cls-111" x="197.69" y="0">p</tspan><tspan x="208.22" y="0">op</tspan></text><text class="cls-3" transform="translate(1262.46 108.94)">-</text><text class="cls-3" transform="translate(1033.36 130.54)">ul<tspan class="cls-77" x="14.76" y="0">a</tspan><tspan x="24.16" y="0">tion.</tspan><tspan class="cls-147" x="58.91" y="0"> </tspan><tspan class="cls-148" x="63.2" y="0">E</tspan><tspan class="cls-99" x="74.09" y="0">ngaging</tspan><tspan class="cls-149" x="139.71" y="0"> </tspan><tspan class="cls-4" x="143.98" y="0">y</tspan><tspan x="152.44" y="0">oung</tspan><tspan class="cls-147" x="193.66" y="0"> </tspan><tspan class="cls-15" x="197.94" y="0">p</tspan><tspan class="cls-29" x="208.47" y="0">e</tspan><tspan x="218.55" y="0">o</tspan></text><text class="cls-3" transform="translate(1262.46 130.54)">-</text><text class="cls-3" transform="translate(1033.36 152.14)">ple<tspan class="cls-150" x="24.66" y="0"> </tspan><tspan x="36.79" y="0">in</tspan><tspan class="cls-150" x="51.55" y="0"> </tspan><tspan x="63.68" y="0">the</tspan><tspan class="cls-150" x="89.71" y="0"> </tspan><tspan x="101.84" y="0">d</tspan><tspan class="cls-133" x="112.21" y="0">e</tspan><tspan class="cls-99" x="122.29" y="0">cision-ma</tspan><tspan class="cls-120" x="200.61" y="0">k</tspan><tspan x="209.43" y="0">ing </tspan></text><text class="cls-3" transform="translate(1033.36 173.74)">p<tspan class="cls-43" x="10.37" y="0">r</tspan><tspan class="cls-29" x="16.56" y="0">o</tspan><tspan class="cls-23" x="26.91" y="0">c</tspan><tspan class="cls-32" x="36.63" y="0">e</tspan><tspan x="46.62" y="0">s</tspan><tspan class="cls-23" x="55.51" y="0">se</tspan><tspan x="74.52" y="0">s</tspan><tspan class="cls-151" x="83.41" y="0"> </tspan><tspan x="87.1" y="0">is</tspan><tspan class="cls-152" x="100.38" y="0"> </tspan><tspan x="104.06" y="0">crucial</tspan><tspan class="cls-153" x="158.5" y="0"> </tspan><tspan class="cls-71" x="162.19" y="0">f</tspan><tspan class="cls-99" x="167.42" y="0">or</tspan><tspan class="cls-152" x="184.1" y="0"> </tspan><tspan x="187.77" y="0">a</tspan><tspan class="cls-151" x="197.33" y="0"> </tspan><tspan x="201.02" y="0">sus</tspan></text><text class="cls-3" transform="translate(1262.46 173.74)">-</text><text class="cls-3" transform="translate(1033.36 195.34)">tainable<tspan class="cls-139" x="64.29" y="0"> </tspan><tspan x="73.62" y="0">and</tspan><tspan class="cls-139" x="103.91" y="0"> </tspan><tspan x="113.24" y="0">futu</tspan><tspan class="cls-154" x="145.22" y="0">r</tspan><tspan class="cls-155" x="151.41" y="0">e-</tspan><tspan x="167.43" y="0">orie</tspan><tspan class="cls-120" x="198.41" y="0">n</tspan><tspan class="cls-71" x="208.6" y="0">t</tspan><tspan class="cls-29" x="214.09" y="0">e</tspan><tspan x="224.17" y="0">d </tspan></text><text class="cls-3" transform="translate(1033.36 216.94)"><tspan class="cls-29">p</tspan><tspan x="10.55" y="0">oli</tspan><tspan class="cls-77" x="29.5" y="0">c</tspan><tspan x="38.95" y="0">y</tspan><tspan class="cls-156" x="47.45" y="0"> </tspan><tspan class="cls-101" x="56.07" y="0">and</tspan><tspan class="cls-157" x="86.36" y="0"> </tspan><tspan x="94.98" y="0">the</tspan><tspan class="cls-158" x="121.01" y="0"> </tspan><tspan x="129.65" y="0">d</tspan><tspan class="cls-4" x="140.02" y="0">ev</tspan><tspan class="cls-101" x="158.31" y="0">elopme</tspan><tspan class="cls-120" x="218.57" y="0">n</tspan><tspan class="cls-101" x="228.76" y="0">t </tspan></text><text class="cls-3" transform="translate(1033.36 238.54)">of<tspan class="cls-159" x="15.66" y="0"> </tspan><tspan class="cls-99" x="25.63" y="0">citi</tspan><tspan class="cls-23" x="49.79" y="0">e</tspan><tspan x="59.79" y="0">s.</tspan><tspan class="cls-160" x="72.75" y="0">E</tspan><tspan x="83.64" y="0">s</tspan><tspan class="cls-15" x="92.54" y="0">p</tspan><tspan class="cls-29" x="103.07" y="0">e</tspan><tspan x="113.15" y="0">cially</tspan><tspan class="cls-159" x="153.99" y="0"> </tspan><tspan x="163.96" y="0">in</tspan><tspan class="cls-159" x="178.72" y="0"> </tspan><tspan class="cls-99" x="188.69" y="0">m</tspan><tspan class="cls-133" x="204.22" y="0">e</tspan><tspan x="214.3" y="0">di</tspan></text><text class="cls-3" transform="translate(1262.46 238.54)">-</text><text class="cls-3" transform="translate(1033.36 260.14)">um-si<tspan class="cls-160" x="44.58" y="0">z</tspan><tspan class="cls-15" x="52.79" y="0">e</tspan><tspan x="62.85" y="0">d</tspan><tspan class="cls-161" x="73.22" y="0"> </tspan><tspan x="80.91" y="0">citi</tspan><tspan class="cls-23" x="105.06" y="0">e</tspan><tspan x="115.07" y="0">s,</tspan><tspan class="cls-161" x="128.03" y="0"> </tspan><tspan class="cls-101" x="135.72" y="0">the</tspan><tspan class="cls-161" x="161.75" y="0"> </tspan><tspan x="169.43" y="0">will</tspan><tspan class="cls-161" x="196.47" y="0"> </tspan><tspan x="204.15" y="0">and </tspan></text><text class="cls-3" transform="translate(1033.36 281.74)"><tspan class="cls-4">o</tspan><tspan x="10.13" y="0">wne</tspan><tspan class="cls-148" x="44.26" y="0">r</tspan><tspan x="50.54" y="0">ship</tspan><tspan class="cls-162" x="84.56" y="0"> </tspan><tspan x="94.28" y="0">of</tspan><tspan class="cls-163" x="109.94" y="0"> </tspan><tspan class="cls-4" x="119.64" y="0">y</tspan><tspan x="128.1" y="0">oung</tspan><tspan class="cls-162" x="169.32" y="0"> </tspan><tspan class="cls-111" x="179.04" y="0">p</tspan><tspan class="cls-133" x="189.57" y="0">e</tspan><tspan x="199.65" y="0">ople </tspan></text><text class="cls-3" transform="translate(1033.36 303.34)"><tspan class="cls-71">t</tspan><tspan class="cls-99" x="5.49" y="0">o</tspan><tspan class="cls-164" x="15.66" y="0"> </tspan><tspan class="cls-62" x="21.76" y="0">c</tspan><tspan x="31.48" y="0">o</tspan><tspan class="cls-77" x="41.65" y="0">n</tspan><tspan x="51.86" y="0">tribu</tspan><tspan class="cls-42" x="89.26" y="0">t</tspan><tspan x="94.73" y="0">e</tspan><tspan class="cls-165" x="104.63" y="0"> </tspan><tspan class="cls-71" x="110.73" y="0">t</tspan><tspan x="116.22" y="0">o</tspan><tspan class="cls-166" x="126.39" y="0"> </tspan><tspan x="132.51" y="0">the</tspan><tspan class="cls-165" x="158.54" y="0"> </tspan><tspan x="164.64" y="0">futu</tspan><tspan class="cls-17" x="196.63" y="0">r</tspan><tspan class="cls-101" x="202.8" y="0">e</tspan><tspan class="cls-165" x="212.7" y="0"> </tspan><tspan x="218.8" y="0">of </tspan></text><text class="cls-3" transform="translate(1033.36 324.94)">the<tspan class="cls-167" x="26.03" y="0"> </tspan><tspan x="30.04" y="0">ci</tspan><tspan class="cls-168" x="44.04" y="0">t</tspan><tspan class="cls-99" x="50.08" y="0">y</tspan><tspan class="cls-169" x="58.57" y="0"> </tspan><tspan x="62.58" y="0">should</tspan><tspan class="cls-167" x="117.14" y="0"> </tspan><tspan class="cls-29" x="121.16" y="0">b</tspan><tspan x="131.7" y="0">e</tspan><tspan class="cls-169" x="141.6" y="0"> </tspan><tspan x="145.62" y="0">add</tspan><tspan class="cls-154" x="175.91" y="0">r</tspan><tspan class="cls-23" x="182.1" y="0">e</tspan><tspan x="192.11" y="0">s</tspan><tspan class="cls-32" x="201" y="0">s</tspan><tspan class="cls-133" x="209.98" y="0">e</tspan><tspan class="cls-99" x="220.06" y="0">d.</tspan></text><rect class="cls-7" x="1033.11" y="66.1" width="235" height="349.74"/><text class="cls-3" transform="translate(584.48 21.49)">demand <tspan class="cls-71" x="70.23" y="0">f</tspan><tspan class="cls-99" x="75.46" y="0">or </tspan></text><text class="cls-3" transform="translate(576.76 43.09)">l<tspan class="cls-36" x="4.39" y="0">o</tspan><tspan x="14.74" y="0">cal m</tspan><tspan class="cls-65" x="57.98" y="0">a</tspan><tspan class="cls-71" x="67.35" y="0">t</tspan><tspan x="72.84" y="0">erial</tspan></text><rect class="cls-7" x="571.8" y="0.25" width="117.5" height="48.5"/></g></svg>