<svg id="Ebene_1" data-name="Ebene 1" xmlns="http://www.w3.org/2000/svg" xmlns:xlink="http://www.w3.org/1999/xlink" viewBox="0 0 1464 764"><defs><style>	@font-face {font-family: "NeueHaasUnicaW06-ThinItalic";
    src: url("/Blog/main/fonts/NeueHaasUnicaW06/OnlineWebFonts_COM_0ed68d0a6f9c1234e2d43bdd27b951f2/@font-face/3842220656142ccef91508c98b0eb6ed.eot"); /* IE9*/
    src: url("/Blog/main/fonts/NeueHaasUnicaW06/OnlineWebFonts_COM_0ed68d0a6f9c1234e2d43bdd27b951f2/@font-face/3842220656142ccef91508c98b0eb6ed.eot?#iefix") format("embedded-opentype"), /* IE6-IE8 */
    url("/Blog/main/fonts/NeueHaasUnicaW06/OnlineWebFonts_COM_0ed68d0a6f9c1234e2d43bdd27b951f2/@font-face/3842220656142ccef91508c98b0eb6ed.woff2") format("woff2"), /* chrome、firefox */
    url("/Blog/main/fonts/NeueHaasUnicaW06/OnlineWebFonts_COM_0ed68d0a6f9c1234e2d43bdd27b951f2/@font-face/3842220656142ccef91508c98b0eb6ed.woff") format("woff"), /* chrome、firefox */
    url("/Blog/main/fonts/NeueHaasUnicaW06/OnlineWebFonts_COM_0ed68d0a6f9c1234e2d43bdd27b951f2/@font-face/3842220656142ccef91508c98b0eb6ed.ttf") format("truetype"), /* chrome、firefox、opera、Safari, Android, iOS 4.2+*/
    url("/Blog/main/fonts/NeueHaasUnicaW06/OnlineWebFonts_COM_0ed68d0a6f9c1234e2d43bdd27b951f2/@font-face/3842220656142ccef91508c98b0eb6ed.svg#Neue Haas Unica W06 Thin It") format("svg"); /* iOS 4.1- */
    }
    @font-face {font-family: "NeueHaasUnicaW06-ExtraBlack";
    src: url("/Blog/main/fonts/NeueHaasUnicaW06/OnlineWebFonts_COM_3dad734723cd1eada75c00f4d4322909/@font-face/46ff6b5a1511006aeadd4a46a3efd9ae.eot"); /* IE9*/
    src: url("/Blog/main/fonts/NeueHaasUnicaW06/OnlineWebFonts_COM_3dad734723cd1eada75c00f4d4322909/@font-face/46ff6b5a1511006aeadd4a46a3efd9ae.eot?#iefix") format("embedded-opentype"), /* IE6-IE8 */
    url("/Blog/main/fonts/NeueHaasUnicaW06/OnlineWebFonts_COM_3dad734723cd1eada75c00f4d4322909/@font-face/46ff6b5a1511006aeadd4a46a3efd9ae.woff") format("woff2"), /* chrome、firefox */
    url("/Blog/main/fonts/NeueHaasUnicaW06/OnlineWebFonts_COM_3dad734723cd1eada75c00f4d4322909/@font-face/46ff6b5a1511006aeadd4a46a3efd9ae.woff2") format("woff"), /* chrome、firefox */
    url("/Blog/main/fonts/NeueHaasUnicaW06/OnlineWebFonts_COM_3dad734723cd1eada75c00f4d4322909/@font-face/46ff6b5a1511006aeadd4a46a3efd9ae.ttf") format("truetype"), /* chrome、firefox、opera、Safari, Android, iOS 4.2+*/
    url("/Blog/main/fonts/NeueHaasUnicaW06/OnlineWebFonts_COM_3dad734723cd1eada75c00f4d4322909/@font-face/46ff6b5a1511006aeadd4a46a3efd9ae.svg#Neue Haas Unica W06 X Black") format("svg"); /* iOS 4.1- */
    }
    @font-face {font-family: "NeueHaasUnicaW06-Regular";
    src: url("/Blog/main/fonts/NeueHaasUnicaW06/OnlineWebFonts_COM_7a298e4d1b42d5d0485b479c3bcf69bf/@font-face/7250d52844cced73ed70675d1b78c60c.eot"); /* IE9*/
    src: url("/Blog/main/fonts/NeueHaasUnicaW06/OnlineWebFonts_COM_7a298e4d1b42d5d0485b479c3bcf69bf/@font-face/7250d52844cced73ed70675d1b78c60c.eot?#iefix") format("embedded-opentype"), /* IE6-IE8 */
    url("/Blog/main/fonts/NeueHaasUnicaW06/OnlineWebFonts_COM_7a298e4d1b42d5d0485b479c3bcf69bf/@font-face/7250d52844cced73ed70675d1b78c60c.woff") format("woff2"), /* chrome、firefox */
    url("/Blog/main/fonts/NeueHaasUnicaW06/OnlineWebFonts_COM_7a298e4d1b42d5d0485b479c3bcf69bf/@font-face/7250d52844cced73ed70675d1b78c60c.woff2") format("woff"), /* chrome、firefox */
    url("/Blog/main/fonts/NeueHaasUnicaW06/OnlineWebFonts_COM_7a298e4d1b42d5d0485b479c3bcf69bf/@font-face/7250d52844cced73ed70675d1b78c60c.ttf") format("truetype"), /* chrome、firefox、opera、Safari, Android, iOS 4.2+*/
    url("/Blog/main/fonts/NeueHaasUnicaW06/OnlineWebFonts_COM_7a298e4d1b42d5d0485b479c3bcf69bf/@font-face/7250d52844cced73ed70675d1b78c60c.svg#Neue Haas Unica W06 X Black") format("svg"); /* iOS 4.1- */
    }
    @font-face {font-family: "NeueHaasUnicaW06-XBlackIt";
    src: url("/Blog/main/fonts/NeueHaasUnicaW06/OnlineWebFonts_COM_7ded04d499cfd92c5afc12ffac484c5a/@font-face/5ef047f0e72e70adeba30f0c829c33e0.eot"); /* IE9*/
    src: url("/Blog/main/fonts/NeueHaasUnicaW06/OnlineWebFonts_COM_7ded04d499cfd92c5afc12ffac484c5a/@font-face/5ef047f0e72e70adeba30f0c829c33e0.eot?#iefix") format("embedded-opentype"), /* IE6-IE8 */
    url("/Blog/main/fonts/NeueHaasUnicaW06/OnlineWebFonts_COM_7ded04d499cfd92c5afc12ffac484c5a/@font-face/5ef047f0e72e70adeba30f0c829c33e0.woff") format("woff2"), /* chrome、firefox */
    url("/Blog/main/fonts/NeueHaasUnicaW06/OnlineWebFonts_COM_7ded04d499cfd92c5afc12ffac484c5a/@font-face/5ef047f0e72e70adeba30f0c829c33e0.woff2") format("woff"), /* chrome、firefox */
    url("/Blog/main/fonts/NeueHaasUnicaW06/OnlineWebFonts_COM_7ded04d499cfd92c5afc12ffac484c5a/@font-face/5ef047f0e72e70adeba30f0c829c33e0.ttf") format("truetype"), /* chrome、firefox、opera、Safari, Android, iOS 4.2+*/
    url("/Blog/main/fonts/NeueHaasUnicaW06/OnlineWebFonts_COM_7ded04d499cfd92c5afc12ffac484c5a/@font-face/5ef047f0e72e70adeba30f0c829c33e0.svg#Neue Haas Unica W06 X Black") format("svg"); /* iOS 4.1- */
    }
    @font-face {font-family: "NeueHaasUnicaW06-LightIt";
    src: url("/Blog/main/fonts/NeueHaasUnicaW06/OnlineWebFonts_COM_19d2b951c44c457e1bc515a2e9e486fb/@font-face/7f69054324b2adbc60f29dfd260c3d30.eot"); /* IE9*/
    src: url("/Blog/main/fonts/NeueHaasUnicaW06/OnlineWebFonts_COM_19d2b951c44c457e1bc515a2e9e486fb/@font-face/7f69054324b2adbc60f29dfd260c3d30.eot?#iefix") format("embedded-opentype"), /* IE6-IE8 */
    url("/Blog/main/fonts/NeueHaasUnicaW06/OnlineWebFonts_COM_19d2b951c44c457e1bc515a2e9e486fb/@font-face/7f69054324b2adbc60f29dfd260c3d30.woff") format("woff2"), /* chrome、firefox */
    url("/Blog/main/fonts/NeueHaasUnicaW06/OnlineWebFonts_COM_19d2b951c44c457e1bc515a2e9e486fb/@font-face/7f69054324b2adbc60f29dfd260c3d30.woff2") format("woff"), /* chrome、firefox */
    url("/Blog/main/fonts/NeueHaasUnicaW06/OnlineWebFonts_COM_19d2b951c44c457e1bc515a2e9e486fb/@font-face/7f69054324b2adbc60f29dfd260c3d30.ttf") format("truetype"), /* chrome、firefox、opera、Safari, Android, iOS 4.2+*/
    url("/Blog/main/fonts/NeueHaasUnicaW06/OnlineWebFonts_COM_19d2b951c44c457e1bc515a2e9e486fb/@font-face/7f69054324b2adbc60f29dfd260c3d30.svg#Neue Haas Unica W06 X Black") format("svg"); /* iOS 4.1- */
    }
    @font-face {font-family: "NeueHaasUnicaW06-Italic";
    src: url("/Blog/main/fonts/NeueHaasUnicaW06/OnlineWebFonts_COM_059c6c90764b5b58f635dc550a3dd784/@font-face/0aa6b2719638cacfa0e8abce9099a39b.eot"); /* IE9*/
    src: url("/Blog/main/fonts/NeueHaasUnicaW06/OnlineWebFonts_COM_059c6c90764b5b58f635dc550a3dd784/@font-face/0aa6b2719638cacfa0e8abce9099a39b.eot?#iefix") format("embedded-opentype"), /* IE6-IE8 */
    url("/Blog/main/fonts/NeueHaasUnicaW06/OnlineWebFonts_COM_059c6c90764b5b58f635dc550a3dd784/@font-face/0aa6b2719638cacfa0e8abce9099a39b.woff") format("woff2"), /* chrome、firefox */
    url("/Blog/main/fonts/NeueHaasUnicaW06/OnlineWebFonts_COM_059c6c90764b5b58f635dc550a3dd784/@font-face/0aa6b2719638cacfa0e8abce9099a39b.woff2") format("woff"), /* chrome、firefox */
    url("/Blog/main/fonts/NeueHaasUnicaW06/OnlineWebFonts_COM_059c6c90764b5b58f635dc550a3dd784/@font-face/0aa6b2719638cacfa0e8abce9099a39b.ttf") format("truetype"), /* chrome、firefox、opera、Safari, Android, iOS 4.2+*/
    url("/Blog/main/fonts/NeueHaasUnicaW06/OnlineWebFonts_COM_059c6c90764b5b58f635dc550a3dd784/@font-face/0aa6b2719638cacfa0e8abce9099a39b.svg#Neue Haas Unica W06 X Black") format("svg"); /* iOS 4.1- */
    }
    @font-face {font-family: "NeueHaasUnicaW06-Bold";
    src: url("/Blog/main/fonts/NeueHaasUnicaW06/OnlineWebFonts_COM_073d72f89a764f9fcbc574a8bd4cb553/@font-face/bb87c8dd3cc47b366f6bb7738fee180c.eot"); /* IE9*/
    src: url("/Blog/main/fonts/NeueHaasUnicaW06/OnlineWebFonts_COM_073d72f89a764f9fcbc574a8bd4cb553/@font-face/bb87c8dd3cc47b366f6bb7738fee180c.eot?#iefix") format("embedded-opentype"), /* IE6-IE8 */
    url("/Blog/main/fonts/NeueHaasUnicaW06/OnlineWebFonts_COM_073d72f89a764f9fcbc574a8bd4cb553/@font-face/bb87c8dd3cc47b366f6bb7738fee180c.woff") format("woff2"), /* chrome、firefox */
    url("/Blog/main/fonts/NeueHaasUnicaW06/OnlineWebFonts_COM_073d72f89a764f9fcbc574a8bd4cb553/@font-face/bb87c8dd3cc47b366f6bb7738fee180c.woff2") format("woff"), /* chrome、firefox */
    url("/Blog/main/fonts/NeueHaasUnicaW06/OnlineWebFonts_COM_073d72f89a764f9fcbc574a8bd4cb553/@font-face/bb87c8dd3cc47b366f6bb7738fee180c.ttf") format("truetype"), /* chrome、firefox、opera、Safari, Android, iOS 4.2+*/
    url("/Blog/main/fonts/NeueHaasUnicaW06/OnlineWebFonts_COM_073d72f89a764f9fcbc574a8bd4cb553/@font-face/bb87c8dd3cc47b366f6bb7738fee180c.svg#Neue Haas Unica W06 X Black") format("svg"); /* iOS 4.1- */
    }
    @font-face {font-family: "NeueHaasUnicaW06-Heavy";
    src: url("/Blog/main/fonts/NeueHaasUnicaW06/OnlineWebFonts_COM_559d73454fad999c45ebbdaaa3ebacdd/@font-face/d04fc9492a6f504ee79cb87d63393fe0.eot"); /* IE9*/
    src: url("/Blog/main/fonts/NeueHaasUnicaW06/OnlineWebFonts_COM_559d73454fad999c45ebbdaaa3ebacdd/@font-face/d04fc9492a6f504ee79cb87d63393fe0.eot?#iefix") format("embedded-opentype"), /* IE6-IE8 */
    url("/Blog/main/fonts/NeueHaasUnicaW06/OnlineWebFonts_COM_559d73454fad999c45ebbdaaa3ebacdd/@font-face/d04fc9492a6f504ee79cb87d63393fe0.woff") format("woff2"), /* chrome、firefox */
    url("/Blog/main/fonts/NeueHaasUnicaW06/OnlineWebFonts_COM_559d73454fad999c45ebbdaaa3ebacdd/@font-face/d04fc9492a6f504ee79cb87d63393fe0.woff2") format("woff"), /* chrome、firefox */
    url("/Blog/main/fonts/NeueHaasUnicaW06/OnlineWebFonts_COM_559d73454fad999c45ebbdaaa3ebacdd/@font-face/d04fc9492a6f504ee79cb87d63393fe0.ttf") format("truetype"), /* chrome、firefox、opera、Safari, Android, iOS 4.2+*/
    url("/Blog/main/fonts/NeueHaasUnicaW06/OnlineWebFonts_COM_559d73454fad999c45ebbdaaa3ebacdd/@font-face/d04fc9492a6f504ee79cb87d63393fe0.svg#Neue Haas Unica W06 X Black") format("svg"); /* iOS 4.1- */
    }
    @font-face {font-family: "NeueHaasUnicaW06-HeavyIt";
    src: url("/Blog/main/fonts/NeueHaasUnicaW06/OnlineWebFonts_COM_507355e12251f27746763ec4f975a633/@font-face/a9820d1a66a09f97371b7ec92a271a92.eot"); /* IE9*/
    src: url("/Blog/main/fonts/NeueHaasUnicaW06/OnlineWebFonts_COM_507355e12251f27746763ec4f975a633/@font-face/a9820d1a66a09f97371b7ec92a271a92.eot?#iefix") format("embedded-opentype"), /* IE6-IE8 */
    url("/Blog/main/fonts/NeueHaasUnicaW06/OnlineWebFonts_COM_507355e12251f27746763ec4f975a633/@font-face/a9820d1a66a09f97371b7ec92a271a92.woff") format("woff2"), /* chrome、firefox */
    url("/Blog/main/fonts/NeueHaasUnicaW06/OnlineWebFonts_COM_507355e12251f27746763ec4f975a633/@font-face/a9820d1a66a09f97371b7ec92a271a92.woff2") format("woff"), /* chrome、firefox */
    url("/Blog/main/fonts/NeueHaasUnicaW06/OnlineWebFonts_COM_507355e12251f27746763ec4f975a633/@font-face/a9820d1a66a09f97371b7ec92a271a92.ttf") format("truetype"), /* chrome、firefox、opera、Safari, Android, iOS 4.2+*/
    url("/Blog/main/fonts/NeueHaasUnicaW06/OnlineWebFonts_COM_507355e12251f27746763ec4f975a633/@font-face/a9820d1a66a09f97371b7ec92a271a92.svg#Neue Haas Unica W06 X Black") format("svg"); /* iOS 4.1- */
    }
    @font-face {font-family: "NeueHaasUnicaW06-Light";
    src: url("/Blog/main/fonts/NeueHaasUnicaW06/OnlineWebFonts_COM_c59b16964f2eec693c72eb9c925ef088/@font-face/145bf6f8eebf1ad036f74d821af7d94b.eot"); /* IE9*/
    src: url("/Blog/main/fonts/NeueHaasUnicaW06/OnlineWebFonts_COM_c59b16964f2eec693c72eb9c925ef088/@font-face/145bf6f8eebf1ad036f74d821af7d94b.eot?#iefix") format("embedded-opentype"), /* IE6-IE8 */
    url("/Blog/main/fonts/NeueHaasUnicaW06/OnlineWebFonts_COM_c59b16964f2eec693c72eb9c925ef088/@font-face/145bf6f8eebf1ad036f74d821af7d94b.woff") format("woff2"), /* chrome、firefox */
    url("/Blog/main/fonts/NeueHaasUnicaW06/OnlineWebFonts_COM_c59b16964f2eec693c72eb9c925ef088/@font-face/145bf6f8eebf1ad036f74d821af7d94b.woff2") format("woff"), /* chrome、firefox */
    url("/Blog/main/fonts/NeueHaasUnicaW06/OnlineWebFonts_COM_c59b16964f2eec693c72eb9c925ef088/@font-face/145bf6f8eebf1ad036f74d821af7d94b.ttf") format("truetype"), /* chrome、firefox、opera、Safari, Android, iOS 4.2+*/
    url("/Blog/main/fonts/NeueHaasUnicaW06/OnlineWebFonts_COM_c59b16964f2eec693c72eb9c925ef088/@font-face/145bf6f8eebf1ad036f74d821af7d94b.svg#Neue Haas Unica W06 X Black") format("svg"); /* iOS 4.1- */
    }
    @font-face {font-family: "NeueHaasUnicaW06-MediumIt";
    src: url("/Blog/main/fonts/NeueHaasUnicaW06/OnlineWebFonts_COM_d179b86ccc44b19f872ad2ce5d9141f0/@font-face/2a415f48f53c15b960c82ad93f0a2ee0.eot"); /* IE9*/
    src: url("/Blog/main/fonts/NeueHaasUnicaW06/OnlineWebFonts_COM_d179b86ccc44b19f872ad2ce5d9141f0/@font-face/2a415f48f53c15b960c82ad93f0a2ee0.eot?#iefix") format("embedded-opentype"), /* IE6-IE8 */
    url("/Blog/main/fonts/NeueHaasUnicaW06/OnlineWebFonts_COM_d179b86ccc44b19f872ad2ce5d9141f0/@font-face/2a415f48f53c15b960c82ad93f0a2ee0.woff") format("woff2"), /* chrome、firefox */
    url("/Blog/main/fonts/NeueHaasUnicaW06/OnlineWebFonts_COM_d179b86ccc44b19f872ad2ce5d9141f0/@font-face/2a415f48f53c15b960c82ad93f0a2ee0.woff2") format("woff"), /* chrome、firefox */
    url("/Blog/main/fonts/NeueHaasUnicaW06/OnlineWebFonts_COM_d179b86ccc44b19f872ad2ce5d9141f0/@font-face/2a415f48f53c15b960c82ad93f0a2ee0.ttf") format("truetype"), /* chrome、firefox、opera、Safari, Android, iOS 4.2+*/
    url("/Blog/main/fonts/NeueHaasUnicaW06/OnlineWebFonts_COM_d179b86ccc44b19f872ad2ce5d9141f0/@font-face/2a415f48f53c15b960c82ad93f0a2ee0.svg#Neue Haas Unica W06 X Black") format("svg"); /* iOS 4.1- */
    }
    @font-face {font-family: "NeueHaasUnicaW06-Thin";
    src: url("/Blog/main/fonts/NeueHaasUnicaW06/OnlineWebFonts_COM_e0d1d8bcd90f325e7a7f4a8b9636d78a/@font-face/740a2bcf13582a2a0ed99e15dffe7b9f.eot"); /* IE9*/
    src: url("/Blog/main/fonts/NeueHaasUnicaW06/OnlineWebFonts_COM_e0d1d8bcd90f325e7a7f4a8b9636d78a/@font-face/740a2bcf13582a2a0ed99e15dffe7b9f.eot?#iefix") format("embedded-opentype"), /* IE6-IE8 */
    url("/Blog/main/fonts/NeueHaasUnicaW06/OnlineWebFonts_COM_e0d1d8bcd90f325e7a7f4a8b9636d78a/@font-face/740a2bcf13582a2a0ed99e15dffe7b9f.woff") format("woff2"), /* chrome、firefox */
    url("/Blog/main/fonts/NeueHaasUnicaW06/OnlineWebFonts_COM_e0d1d8bcd90f325e7a7f4a8b9636d78a/@font-face/740a2bcf13582a2a0ed99e15dffe7b9f.woff2") format("woff"), /* chrome、firefox */
    url("/Blog/main/fonts/NeueHaasUnicaW06/OnlineWebFonts_COM_e0d1d8bcd90f325e7a7f4a8b9636d78a/@font-face/740a2bcf13582a2a0ed99e15dffe7b9f.ttf") format("truetype"), /* chrome、firefox、opera、Safari, Android, iOS 4.2+*/
    url("/Blog/main/fonts/NeueHaasUnicaW06/OnlineWebFonts_COM_e0d1d8bcd90f325e7a7f4a8b9636d78a/@font-face/740a2bcf13582a2a0ed99e15dffe7b9f.svg#Neue Haas Unica W06 X Black") format("svg"); /* iOS 4.1- */
    }
    @font-face {font-family: "NeueHaasUnicaW06-BoldItalic";
    src: url("/Blog/main/fonts/NeueHaasUnicaW06/OnlineWebFonts_COM_e4e54e1eb6c480425902156a32fef7d6/@font-face/61742cae2dd974e3c9604f614a4c57f1.eot"); /* IE9*/
    src: url("/Blog/main/fonts/NeueHaasUnicaW06/OnlineWebFonts_COM_e4e54e1eb6c480425902156a32fef7d6/@font-face/61742cae2dd974e3c9604f614a4c57f1.eot?#iefix") format("embedded-opentype"), /* IE6-IE8 */
    url("/Blog/main/fonts/NeueHaasUnicaW06/OnlineWebFonts_COM_e4e54e1eb6c480425902156a32fef7d6/@font-face/61742cae2dd974e3c9604f614a4c57f1.woff") format("woff2"), /* chrome、firefox */
    url("/Blog/main/fonts/NeueHaasUnicaW06/OnlineWebFonts_COM_e4e54e1eb6c480425902156a32fef7d6/@font-face/61742cae2dd974e3c9604f614a4c57f1.woff2") format("woff"), /* chrome、firefox */
    url("/Blog/main/fonts/NeueHaasUnicaW06/OnlineWebFonts_COM_e4e54e1eb6c480425902156a32fef7d6/@font-face/61742cae2dd974e3c9604f614a4c57f1.ttf") format("truetype"), /* chrome、firefox、opera、Safari, Android, iOS 4.2+*/
    url("/Blog/main/fonts/NeueHaasUnicaW06/OnlineWebFonts_COM_e4e54e1eb6c480425902156a32fef7d6/@font-face/61742cae2dd974e3c9604f614a4c57f1.svg#Neue Haas Unica W06 X Black") format("svg"); /* iOS 4.1- */
    }
    @font-face {font-family: "NeueHaasUnicaW06-Medium";
    src: url("/Blog/main/fonts/NeueHaasUnicaW06/OnlineWebFonts_COM_e009de3bc4003d481f48e90c6efd332f/@font-face/9c0afb6841117a1e2256b49b040cb768.eot"); /* IE9*/
    src: url("/Blog/main/fonts/NeueHaasUnicaW06/OnlineWebFonts_COM_e009de3bc4003d481f48e90c6efd332f/@font-face/9c0afb6841117a1e2256b49b040cb768.eot?#iefix") format("embedded-opentype"), /* IE6-IE8 */
    url("/Blog/main/fonts/NeueHaasUnicaW06/OnlineWebFonts_COM_e009de3bc4003d481f48e90c6efd332f/@font-face/9c0afb6841117a1e2256b49b040cb768.woff") format("woff2"), /* chrome、firefox */
    url("/Blog/main/fonts/NeueHaasUnicaW06/OnlineWebFonts_COM_e009de3bc4003d481f48e90c6efd332f/@font-face/9c0afb6841117a1e2256b49b040cb768.woff2") format("woff"), /* chrome、firefox */
    url("/Blog/main/fonts/NeueHaasUnicaW06/OnlineWebFonts_COM_e009de3bc4003d481f48e90c6efd332f/@font-face/9c0afb6841117a1e2256b49b040cb768.ttf") format("truetype"), /* chrome、firefox、opera、Safari, Android, iOS 4.2+*/
    url("/Blog/main/fonts/NeueHaasUnicaW06/OnlineWebFonts_COM_e009de3bc4003d481f48e90c6efd332f/@font-face/9c0afb6841117a1e2256b49b040cb768.svg#Neue Haas Unica W06 X Black") format("svg"); /* iOS 4.1- */
    }
    @font-face {font-family: "NeueHaasUnicaW06-BlackIt";
    src: url("/Blog/main/fonts/NeueHaasUnicaW06/OnlineWebFonts_COM_f0d250fc9c4208c6c78408a38db68150/@font-face/15e7a19454566924256299df2a72ab91.eot"); /* IE9*/
    src: url("/Blog/main/fonts/NeueHaasUnicaW06/OnlineWebFonts_COM_f0d250fc9c4208c6c78408a38db68150/@font-face/15e7a19454566924256299df2a72ab91.eot?#iefix") format("embedded-opentype"), /* IE6-IE8 */
    url("/Blog/main/fonts/NeueHaasUnicaW06/OnlineWebFonts_COM_f0d250fc9c4208c6c78408a38db68150/@font-face/15e7a19454566924256299df2a72ab91.woff") format("woff2"), /* chrome、firefox */
    url("/Blog/main/fonts/NeueHaasUnicaW06/OnlineWebFonts_COM_f0d250fc9c4208c6c78408a38db68150/@font-face/15e7a19454566924256299df2a72ab91.woff2") format("woff"), /* chrome、firefox */
    url("/Blog/main/fonts/NeueHaasUnicaW06/OnlineWebFonts_COM_f0d250fc9c4208c6c78408a38db68150/@font-face/15e7a19454566924256299df2a72ab91.ttf") format("truetype"), /* chrome、firefox、opera、Safari, Android, iOS 4.2+*/
    url("/Blog/main/fonts/NeueHaasUnicaW06/OnlineWebFonts_COM_f0d250fc9c4208c6c78408a38db68150/@font-face/15e7a19454566924256299df2a72ab91.svg#Neue Haas Unica W06 X Black") format("svg"); /* iOS 4.1- */
    }.cls-1,.cls-17,.cls-47,.cls-48,.cls-49,.cls-50,.cls-51,.cls-52,.cls-53,.cls-54,.cls-55,.cls-56{fill:none;}.cls-2{clip-path:url(#clip-path);}.cls-3{font-size:24px;font-family:NeueHaasUnicaW06-Bold;font-weight:700;}.cls-12,.cls-18,.cls-19,.cls-24,.cls-3,.cls-45{fill:#1d1d1b;}.cls-4{letter-spacing:-0.01em;}.cls-5{letter-spacing:-0.01em;}.cls-6{letter-spacing:-0.01em;}.cls-7{letter-spacing:0em;}.cls-8{letter-spacing:-0.01em;}.cls-9{letter-spacing:-0.01em;}.cls-10{letter-spacing:0em;}.cls-11{letter-spacing:-0.03em;}.cls-12,.cls-19,.cls-24,.cls-45{font-size:18px;font-family:NeueHaasUnicaW06-Regular;}.cls-13{letter-spacing:0em;}.cls-14{letter-spacing:0em;}.cls-15{letter-spacing:0.01em;}.cls-16{letter-spacing:-0.01em;}.cls-17,.cls-52,.cls-54,.cls-55,.cls-56{stroke:#1d1d1b;}.cls-17{stroke-width:0.5px;}.cls-19{letter-spacing:0.02em;}.cls-20{letter-spacing:-0.01em;}.cls-21{letter-spacing:0em;}.cls-22{letter-spacing:-0.02em;}.cls-23{letter-spacing:-0.02em;}.cls-24,.cls-31{letter-spacing:0.01em;}.cls-25{letter-spacing:0em;}.cls-26{letter-spacing:-0.01em;}.cls-27{letter-spacing:0.01em;}.cls-28{letter-spacing:-0.02em;}.cls-29,.cls-45{letter-spacing:-0.01em;}.cls-30{letter-spacing:0em;}.cls-32{letter-spacing:-0.01em;}.cls-33{letter-spacing:-0.02em;}.cls-34{letter-spacing:-0.01em;}.cls-35{letter-spacing:0em;}.cls-36{letter-spacing:-0.01em;}.cls-37{letter-spacing:-0.01em;}.cls-38{letter-spacing:-0.02em;}.cls-39{letter-spacing:0.02em;}.cls-40{letter-spacing:0.01em;}.cls-41{letter-spacing:-0.02em;}.cls-42{letter-spacing:0.01em;}.cls-43{letter-spacing:-0.01em;}.cls-44{letter-spacing:0.01em;}.cls-46{letter-spacing:-0.02em;}.cls-47,.cls-48,.cls-49{stroke:#3fa535;}.cls-48{stroke-dasharray:11.92 11.92;}.cls-49{stroke-dasharray:12.18 12.18;}.cls-50{stroke:#ffed00;}.cls-51{stroke:#009fe3;}.cls-53{stroke:#e6007e;}.cls-54{stroke-dasharray:12.28 12.28;}.cls-55{stroke-dasharray:11.64 11.64;}.cls-56{stroke-dasharray:12.56 12.56;}</style><clipPath id="clip-path" transform="translate(-20.3 -19.57)"><rect class="cls-1" x="-0.2" y="-0.43" width="1505" height="804"/></clipPath></defs><title>3.1</title><g class="cls-2"><text class="cls-3" transform="translate(682.79 27.98)">acti<tspan class="cls-4" x="41.81" y="0">v</tspan><tspan class="cls-5" x="53.74" y="0">a</tspan><tspan class="cls-6" x="66.65" y="0">t</tspan><tspan class="cls-7" x="74.9" y="0">or</tspan></text><text class="cls-3" transform="translate(206.06 27.98)">trigger</text><text class="cls-3" transform="translate(1159.86 27.98)"><tspan class="cls-8">f</tspan><tspan class="cls-9" x="7.87" y="0">a</tspan><tspan class="cls-10" x="20.74" y="0">us</tspan><tspan class="cls-11" x="47.71" y="0">k</tspan><tspan x="60.12" y="0">e link</tspan></text><text class="cls-12" transform="translate(1181.32 483.49)">vi<tspan class="cls-13" x="12.85" y="0">e</tspan><tspan class="cls-14" x="22.71" y="0">w</tspan><tspan class="cls-15" x="36.58" y="0">p</tspan><tspan x="47.1" y="0">oi</tspan><tspan class="cls-16" x="61.67" y="0">n</tspan><tspan x="71.87" y="0">t</tspan></text><rect class="cls-17" x="1161.38" y="462.25" width="117.5" height="48.5"/><path class="cls-18" d="M1212.63,308.39a1.31,1.31,0,0,0-1,.36,1.8,1.8,0,0,0-.32,1.19v1h1.82v1.26h-1.82V320h-1.57v-7.88h-1.6V310.9h1.6v-1.14a2.76,2.76,0,0,1,.64-2,2.49,2.49,0,0,1,1.87-.66,3.82,3.82,0,0,1,.91.09v1.23a1.59,1.59,0,0,0-.52-.06Zm2.16,11.65V307.22h1.59V320Zm8.07-9.4a4.09,4.09,0,0,1,3.18,1.3,5.91,5.91,0,0,1,0,7.06,4.56,4.56,0,0,1-6.36,0,6,6,0,0,1,0-7.06,4.06,4.06,0,0,1,3.18-1.3Zm0,1.3a2.35,2.35,0,0,0-2,.95,5,5,0,0,0,0,5.16,2.53,2.53,0,0,0,3.95,0,5,5,0,0,0,0-5.16,2.36,2.36,0,0,0-2-.95Zm14.07,8.1-1.08-4c-.13-.5-.21-.84-.25-1-.29-1.07-.54-2.05-.76-2.95h0c-.22.9-.47,1.88-.76,2.95,0,.17-.12.51-.25,1l-1.08,4h-2.27L1228,310.9h1.6l1,3.81c.28,1.15.62,2.52,1,4.11h0c.32-1.37.66-2.71,1-4l1-3.9H1236l1,3.9,1,4h0c.38-1.59.72-3,1-4.11l1-3.81h1.6L1239.2,320Zm9.81-1.24a2.08,2.08,0,0,0,.65-.09V320a3.57,3.57,0,0,1-1,.11,2.54,2.54,0,0,1-1.9-.61,2.87,2.87,0,0,1-.58-2v-5.32h-1.59V310.9h1.59v-2.22h1.58v2.22h1.82v1.26h-1.82v5.16a1.79,1.79,0,0,0,.29,1.14,1.24,1.24,0,0,0,1,.34Zm2.54-9.79v-1.79h1.58V309Zm0,11V310.9h1.58V320Zm8.73-9.34a3.16,3.16,0,0,1,2.45.95,4.09,4.09,0,0,1,.86,2.81V320h-1.58v-5.45a2.94,2.94,0,0,0-.54-2,2,2,0,0,0-1.57-.61,2.22,2.22,0,0,0-1.7.74,3,3,0,0,0-.67,2.07V320h-1.59V310.9h1.53v1.2h0a3.07,3.07,0,0,1,1.15-1,3.34,3.34,0,0,1,1.62-.38Zm9.23,0a3,3,0,0,1,2.74,1.57h0V310.9h1.53v8.58a4.1,4.1,0,0,1-1,3,4.06,4.06,0,0,1-3,1,4.33,4.33,0,0,1-2.74-.77,2.62,2.62,0,0,1-1-2.12h1.58a1.59,1.59,0,0,0,.63,1.23,2.61,2.61,0,0,0,1.59.44,2.3,2.3,0,0,0,1.83-.68,3.31,3.31,0,0,0,.6-2.2v-1h0a3.07,3.07,0,0,1-2.72,1.53,3.57,3.57,0,0,1-2-.58,3.74,3.74,0,0,1-1.35-1.62,6.49,6.49,0,0,1,0-4.9,3.74,3.74,0,0,1,1.35-1.62,3.64,3.64,0,0,1,2-.57Zm.26,1.32a2.1,2.1,0,0,0-1.79.91,4.61,4.61,0,0,0,0,4.82,2.1,2.1,0,0,0,1.79.91,2.25,2.25,0,0,0,1.87-.89,4.68,4.68,0,0,0,0-4.86,2.22,2.22,0,0,0-1.87-.89Z" transform="translate(-20.3 -19.57)"/><text class="cls-19" transform="translate(1195.74 322.07)">s<tspan class="cls-20" x="9.16" y="0">a</tspan><tspan class="cls-21" x="18.5" y="0">una</tspan></text><rect class="cls-17" x="1161.38" y="279.23" width="117.5" height="48.5"/><text class="cls-12" transform="translate(1172.2 666.51)">marble park</text><rect class="cls-17" x="1161.38" y="645.27" width="117.5" height="48.5"/><text class="cls-12" transform="translate(1167.52 575)">marble s<tspan class="cls-22" x="69.3" y="0">t</tspan><tspan x="74.77" y="0">one </tspan></text><text class="cls-12" transform="translate(1191.78 596.6)">ga<tspan class="cls-23" x="19.87" y="0">r</tspan><tspan x="26.05" y="0">den</tspan></text><rect class="cls-17" x="1161.38" y="553.76" width="117.5" height="48.5"/><text class="cls-24" transform="translate(691.13 300.64)">e<tspan class="cls-25" x="10.08" y="0">duc</tspan><tspan class="cls-26" x="40.43" y="0">a</tspan><tspan class="cls-14" x="49.8" y="0">tion </tspan></text><rect class="cls-17" x="672.63" y="279.4" width="117.5" height="48.5"/><text class="cls-12" transform="translate(705.93 209.29)"><tspan class="cls-27">p</tspan><tspan class="cls-13" x="10.55" y="0">ow</tspan><tspan x="34.51" y="0">er</tspan></text><rect class="cls-17" x="672.63" y="188.05" width="117.5" height="48.5"/><text class="cls-12" transform="translate(198.05 118.45)">demand <tspan class="cls-28" x="70.23" y="0">f</tspan><tspan x="75.45" y="0">or </tspan></text><text class="cls-12" transform="translate(190.33 140.05)">l<tspan class="cls-27" x="4.39" y="0">o</tspan><tspan x="14.74" y="0">cal m</tspan><tspan class="cls-26" x="57.98" y="0">a</tspan><tspan class="cls-29" x="67.35" y="0">t</tspan><tspan class="cls-30" x="72.84" y="0">erial</tspan></text><rect class="cls-17" x="185.38" y="97.21" width="117.5" height="48.5"/><text class="cls-12" transform="translate(199.77 392.48)"><tspan class="cls-31">e</tspan><tspan class="cls-25" x="10.08" y="0">duc</tspan><tspan class="cls-32" x="40.43" y="0">a</tspan><tspan x="49.81" y="0">tion/</tspan></text><text class="cls-12" transform="translate(211.55 414.08)">indsutry</text><rect class="cls-17" x="185.38" y="371.24" width="117.5" height="48.5"/><text class="cls-12" transform="translate(214.23 255.46)">surplus </text><text class="cls-12" transform="translate(216.68 277.06)">ene<tspan class="cls-33" x="30.17" y="0">r</tspan><tspan class="cls-34" x="36.34" y="0">g</tspan><tspan x="46.4" y="0">y</tspan></text><rect class="cls-17" x="185.38" y="234.22" width="117.5" height="48.5"/><text class="cls-12" transform="translate(220.32 529.5)"><tspan class="cls-35">w</tspan><tspan class="cls-25" x="13.81" y="0">as</tspan><tspan class="cls-28" x="32.26" y="0">t</tspan><tspan x="37.75" y="0">e </tspan></text><text class="cls-12" transform="translate(272.07 529.5)"> </text><text class="cls-12" transform="translate(190.82 551.1)">manageme<tspan class="cls-32" x="90.66" y="0">n</tspan><tspan x="100.85" y="0">t</tspan></text><rect class="cls-17" x="185.38" y="508.26" width="117.5" height="48.5"/><text class="cls-12" transform="translate(208.99 666.51)"><tspan class="cls-27">p</tspan><tspan class="cls-36" x="10.55" y="0">o</tspan><tspan class="cls-28" x="20.63" y="0">t</tspan><tspan x="26.12" y="0">e</tspan><tspan class="cls-37" x="36.02" y="0">n</tspan><tspan x="46.22" y="0">tial </tspan></text><text class="cls-12" transform="translate(215.65 688.11)">g<tspan class="cls-38" x="10.31" y="0">r</tspan><tspan class="cls-13" x="16.51" y="0">o</tspan><tspan class="cls-39" x="26.64" y="0">w</tspan><tspan x="40.86" y="0">th</tspan></text><rect class="cls-17" x="185.38" y="645.27" width="117.5" height="48.5"/><text class="cls-12" transform="translate(703.24 391.98)">marble</text><rect class="cls-17" x="672.63" y="370.74" width="117.5" height="48.5"/><text class="cls-12" transform="translate(700.76 117.95)"><tspan class="cls-28">f</tspan><tspan x="5.22" y="0">o</tspan><tspan class="cls-38" x="15.39" y="0">r</tspan><tspan class="cls-40" x="21.58" y="0">e</tspan><tspan class="cls-25" x="31.59" y="0">stry</tspan></text><rect class="cls-17" x="672.63" y="96.71" width="117.5" height="48.5"/><text class="cls-12" transform="translate(1171.67 208.96)"><tspan class="cls-41">f</tspan><tspan class="cls-31" x="5.22" y="0">oo</tspan><tspan x="25.92" y="0">d </tspan><tspan class="cls-29" x="40.43" y="0">f</tspan><tspan class="cls-42" x="45.65" y="0">e</tspan><tspan class="cls-14" x="55.65" y="0">sti</tspan><tspan class="cls-43" x="74.7" y="0">v</tspan><tspan class="cls-14" x="82.98" y="0">al</tspan></text><rect class="cls-17" x="1161.38" y="187.72" width="117.5" height="48.5"/><text class="cls-12" transform="translate(1169.44 117.45)"><tspan class="cls-40">s</tspan><tspan class="cls-31" x="9" y="0">o</tspan><tspan x="19.35" y="0">cial m</tspan><tspan class="cls-44" x="66.98" y="0">e</tspan><tspan x="77.04" y="0">dia</tspan></text><rect class="cls-17" x="1161.38" y="96.21" width="117.5" height="48.5"/><text class="cls-45" transform="translate(1189.45 391.98)">t<tspan class="cls-21" x="5.49" y="0">ourism</tspan></text><rect class="cls-17" x="1161.38" y="370.74" width="117.5" height="48.5"/><text class="cls-12" transform="translate(686.57 666.01)">inhabita<tspan class="cls-43" x="64.76" y="0">n</tspan><tspan x="74.95" y="0">ts</tspan></text><rect class="cls-17" x="672.63" y="644.77" width="117.5" height="48.5"/><text class="cls-12" transform="translate(687.7 574.67)">agricultu<tspan class="cls-23" x="71.28" y="0">r</tspan><tspan x="77.45" y="0">e</tspan></text><rect class="cls-17" x="672.63" y="553.43" width="117.5" height="48.5"/><text class="cls-12" transform="translate(683.16 483.32)">aquacultu<tspan class="cls-46" x="80.35" y="0">r</tspan><tspan x="86.52" y="0">e</tspan></text><rect class="cls-17" x="672.63" y="462.09" width="117.5" height="48.5"/><g class="cls-2"><rect class="cls-47" x="0.5" y="0.5" width="1462.75" height="41"/><rect class="cls-47" x="0.5" y="0.5" width="1463" height="763"/><line class="cls-48" x1="488.5" y1="18.38" x2="488.5" y2="751.58"/><line class="cls-49" x1="506.76" y1="763.5" x2="963.32" y2="763.5"/><line class="cls-48" x1="975.5" y1="745.62" x2="975.5" y2="12.42"/><line class="cls-49" x1="957.24" y1="0.5" x2="500.68" y2="0.5"/><path class="cls-47" d="M514.89,20.07H508.8v6m487,0v-6h-6.09m0,763h6.09v-6m-487,0v6h6.09" transform="translate(-20.3 -19.57)"/></g><line class="cls-50" x1="303.13" y1="120.46" x2="672.38" y2="120.46"/><polyline class="cls-50" points="461.5 120.96 461.5 382 672.38 382"/><polyline class="cls-51" points="303.13 258.48 526.5 258.48 526.5 212.3 672.38 212.3"/><polyline class="cls-52" points="302.63 532.51 460.71 532.51 460.71 400 672.38 400"/><polyline class="cls-52" points="302.63 669.52 520.5 669.52 520.5 486.5 672.88 486.5"/><polyline class="cls-51" points="789.88 119.96 944.5 119.96 944.5 292.5 1161.63 292.5"/><line class="cls-51" x1="789.88" y1="211.8" x2="943.5" y2="211.8"/><line class="cls-51" x1="944.5" y1="292.5" x2="790.37" y2="292.75"/><polyline class="cls-51" points="790.38 669.02 943.5 669.02 944.5 293.25"/><polyline class="cls-53" points="790.38 394.99 1004.5 394.99 1004.5 669.02 1161.13 669.02"/><line class="cls-53" x1="1161.13" y1="577.68" x2="1004.5" y2="577.68"/><polyline class="cls-53" points="790.38 223 1004.5 223 1004.5 394.99"/><line class="cls-52" x1="1219.88" y1="145.46" x2="1219.88" y2="188.3"/><line class="cls-52" x1="1219.88" y1="328.15" x2="1219.88" y2="370.99"/><polyline class="cls-52" points="1220.38 349.57 1330.5 349.57 1330.5 119.46 1279.13 119.46"/><line class="cls-52" x1="1279.13" y1="211.3" x2="1331" y2="211.3"/><polyline class="cls-53" points="302.63 395.49 430.5 395.49 430.5 303.48 672.38 303.48"/><line class="cls-52" x1="1220.38" y1="419.49" x2="1220.38" y2="462.5"/><polyline class="cls-52" points="1279.13 394.49 1331 394.49 1331 665 1278.63 665"/><line class="cls-52" x1="1278.63" y1="577.18" x2="1331" y2="577.18"/><line class="cls-54" x1="808.3" y1="560" x2="1023.22" y2="560"/><line class="cls-55" x1="1035.5" y1="542.54" x2="1035.5" y2="222.44"/><line class="cls-56" x1="1054.34" y1="210.8" x2="1148.56" y2="210.8"/><path class="cls-52" d="M1175.14,230.37h6.28m-125.62,5.82v-5.82h6.28m-12.42,349.2h6.14v-5.82m-245.63,5.82h6.14" transform="translate(-20.3 -19.57)"/></g></svg>