<svg id="Ebene_1" data-name="Ebene 1" xmlns="http://www.w3.org/2000/svg" xmlns:xlink="http://www.w3.org/1999/xlink" viewBox="0 0 1390.25 695.3"><defs><style>	@font-face {font-family: "NeueHaasUnicaW06-ThinItalic";
    src: url("/Blog/main/fonts/NeueHaasUnicaW06/OnlineWebFonts_COM_0ed68d0a6f9c1234e2d43bdd27b951f2/@font-face/3842220656142ccef91508c98b0eb6ed.eot"); /* IE9*/
    src: url("/Blog/main/fonts/NeueHaasUnicaW06/OnlineWebFonts_COM_0ed68d0a6f9c1234e2d43bdd27b951f2/@font-face/3842220656142ccef91508c98b0eb6ed.eot?#iefix") format("embedded-opentype"), /* IE6-IE8 */
    url("/Blog/main/fonts/NeueHaasUnicaW06/OnlineWebFonts_COM_0ed68d0a6f9c1234e2d43bdd27b951f2/@font-face/3842220656142ccef91508c98b0eb6ed.woff2") format("woff2"), /* chrome、firefox */
    url("/Blog/main/fonts/NeueHaasUnicaW06/OnlineWebFonts_COM_0ed68d0a6f9c1234e2d43bdd27b951f2/@font-face/3842220656142ccef91508c98b0eb6ed.woff") format("woff"), /* chrome、firefox */
    url("/Blog/main/fonts/NeueHaasUnicaW06/OnlineWebFonts_COM_0ed68d0a6f9c1234e2d43bdd27b951f2/@font-face/3842220656142ccef91508c98b0eb6ed.ttf") format("truetype"), /* chrome、firefox、opera、Safari, Android, iOS 4.2+*/
    url("/Blog/main/fonts/NeueHaasUnicaW06/OnlineWebFonts_COM_0ed68d0a6f9c1234e2d43bdd27b951f2/@font-face/3842220656142ccef91508c98b0eb6ed.svg#Neue Haas Unica W06 Thin It") format("svg"); /* iOS 4.1- */
    }
    @font-face {font-family: "NeueHaasUnicaW06-ExtraBlack";
    src: url("/Blog/main/fonts/NeueHaasUnicaW06/OnlineWebFonts_COM_3dad734723cd1eada75c00f4d4322909/@font-face/46ff6b5a1511006aeadd4a46a3efd9ae.eot"); /* IE9*/
    src: url("/Blog/main/fonts/NeueHaasUnicaW06/OnlineWebFonts_COM_3dad734723cd1eada75c00f4d4322909/@font-face/46ff6b5a1511006aeadd4a46a3efd9ae.eot?#iefix") format("embedded-opentype"), /* IE6-IE8 */
    url("/Blog/main/fonts/NeueHaasUnicaW06/OnlineWebFonts_COM_3dad734723cd1eada75c00f4d4322909/@font-face/46ff6b5a1511006aeadd4a46a3efd9ae.woff") format("woff2"), /* chrome、firefox */
    url("/Blog/main/fonts/NeueHaasUnicaW06/OnlineWebFonts_COM_3dad734723cd1eada75c00f4d4322909/@font-face/46ff6b5a1511006aeadd4a46a3efd9ae.woff2") format("woff"), /* chrome、firefox */
    url("/Blog/main/fonts/NeueHaasUnicaW06/OnlineWebFonts_COM_3dad734723cd1eada75c00f4d4322909/@font-face/46ff6b5a1511006aeadd4a46a3efd9ae.ttf") format("truetype"), /* chrome、firefox、opera、Safari, Android, iOS 4.2+*/
    url("/Blog/main/fonts/NeueHaasUnicaW06/OnlineWebFonts_COM_3dad734723cd1eada75c00f4d4322909/@font-face/46ff6b5a1511006aeadd4a46a3efd9ae.svg#Neue Haas Unica W06 X Black") format("svg"); /* iOS 4.1- */
    }
    @font-face {font-family: "NeueHaasUnicaW06-Regular";
    src: url("/Blog/main/fonts/NeueHaasUnicaW06/OnlineWebFonts_COM_7a298e4d1b42d5d0485b479c3bcf69bf/@font-face/7250d52844cced73ed70675d1b78c60c.eot"); /* IE9*/
    src: url("/Blog/main/fonts/NeueHaasUnicaW06/OnlineWebFonts_COM_7a298e4d1b42d5d0485b479c3bcf69bf/@font-face/7250d52844cced73ed70675d1b78c60c.eot?#iefix") format("embedded-opentype"), /* IE6-IE8 */
    url("/Blog/main/fonts/NeueHaasUnicaW06/OnlineWebFonts_COM_7a298e4d1b42d5d0485b479c3bcf69bf/@font-face/7250d52844cced73ed70675d1b78c60c.woff") format("woff2"), /* chrome、firefox */
    url("/Blog/main/fonts/NeueHaasUnicaW06/OnlineWebFonts_COM_7a298e4d1b42d5d0485b479c3bcf69bf/@font-face/7250d52844cced73ed70675d1b78c60c.woff2") format("woff"), /* chrome、firefox */
    url("/Blog/main/fonts/NeueHaasUnicaW06/OnlineWebFonts_COM_7a298e4d1b42d5d0485b479c3bcf69bf/@font-face/7250d52844cced73ed70675d1b78c60c.ttf") format("truetype"), /* chrome、firefox、opera、Safari, Android, iOS 4.2+*/
    url("/Blog/main/fonts/NeueHaasUnicaW06/OnlineWebFonts_COM_7a298e4d1b42d5d0485b479c3bcf69bf/@font-face/7250d52844cced73ed70675d1b78c60c.svg#Neue Haas Unica W06 X Black") format("svg"); /* iOS 4.1- */
    }
    @font-face {font-family: "NeueHaasUnicaW06-XBlackIt";
    src: url("/Blog/main/fonts/NeueHaasUnicaW06/OnlineWebFonts_COM_7ded04d499cfd92c5afc12ffac484c5a/@font-face/5ef047f0e72e70adeba30f0c829c33e0.eot"); /* IE9*/
    src: url("/Blog/main/fonts/NeueHaasUnicaW06/OnlineWebFonts_COM_7ded04d499cfd92c5afc12ffac484c5a/@font-face/5ef047f0e72e70adeba30f0c829c33e0.eot?#iefix") format("embedded-opentype"), /* IE6-IE8 */
    url("/Blog/main/fonts/NeueHaasUnicaW06/OnlineWebFonts_COM_7ded04d499cfd92c5afc12ffac484c5a/@font-face/5ef047f0e72e70adeba30f0c829c33e0.woff") format("woff2"), /* chrome、firefox */
    url("/Blog/main/fonts/NeueHaasUnicaW06/OnlineWebFonts_COM_7ded04d499cfd92c5afc12ffac484c5a/@font-face/5ef047f0e72e70adeba30f0c829c33e0.woff2") format("woff"), /* chrome、firefox */
    url("/Blog/main/fonts/NeueHaasUnicaW06/OnlineWebFonts_COM_7ded04d499cfd92c5afc12ffac484c5a/@font-face/5ef047f0e72e70adeba30f0c829c33e0.ttf") format("truetype"), /* chrome、firefox、opera、Safari, Android, iOS 4.2+*/
    url("/Blog/main/fonts/NeueHaasUnicaW06/OnlineWebFonts_COM_7ded04d499cfd92c5afc12ffac484c5a/@font-face/5ef047f0e72e70adeba30f0c829c33e0.svg#Neue Haas Unica W06 X Black") format("svg"); /* iOS 4.1- */
    }
    @font-face {font-family: "NeueHaasUnicaW06-LightIt";
    src: url("/Blog/main/fonts/NeueHaasUnicaW06/OnlineWebFonts_COM_19d2b951c44c457e1bc515a2e9e486fb/@font-face/7f69054324b2adbc60f29dfd260c3d30.eot"); /* IE9*/
    src: url("/Blog/main/fonts/NeueHaasUnicaW06/OnlineWebFonts_COM_19d2b951c44c457e1bc515a2e9e486fb/@font-face/7f69054324b2adbc60f29dfd260c3d30.eot?#iefix") format("embedded-opentype"), /* IE6-IE8 */
    url("/Blog/main/fonts/NeueHaasUnicaW06/OnlineWebFonts_COM_19d2b951c44c457e1bc515a2e9e486fb/@font-face/7f69054324b2adbc60f29dfd260c3d30.woff") format("woff2"), /* chrome、firefox */
    url("/Blog/main/fonts/NeueHaasUnicaW06/OnlineWebFonts_COM_19d2b951c44c457e1bc515a2e9e486fb/@font-face/7f69054324b2adbc60f29dfd260c3d30.woff2") format("woff"), /* chrome、firefox */
    url("/Blog/main/fonts/NeueHaasUnicaW06/OnlineWebFonts_COM_19d2b951c44c457e1bc515a2e9e486fb/@font-face/7f69054324b2adbc60f29dfd260c3d30.ttf") format("truetype"), /* chrome、firefox、opera、Safari, Android, iOS 4.2+*/
    url("/Blog/main/fonts/NeueHaasUnicaW06/OnlineWebFonts_COM_19d2b951c44c457e1bc515a2e9e486fb/@font-face/7f69054324b2adbc60f29dfd260c3d30.svg#Neue Haas Unica W06 X Black") format("svg"); /* iOS 4.1- */
    }
    @font-face {font-family: "NeueHaasUnicaW06-Italic";
    src: url("/Blog/main/fonts/NeueHaasUnicaW06/OnlineWebFonts_COM_059c6c90764b5b58f635dc550a3dd784/@font-face/0aa6b2719638cacfa0e8abce9099a39b.eot"); /* IE9*/
    src: url("/Blog/main/fonts/NeueHaasUnicaW06/OnlineWebFonts_COM_059c6c90764b5b58f635dc550a3dd784/@font-face/0aa6b2719638cacfa0e8abce9099a39b.eot?#iefix") format("embedded-opentype"), /* IE6-IE8 */
    url("/Blog/main/fonts/NeueHaasUnicaW06/OnlineWebFonts_COM_059c6c90764b5b58f635dc550a3dd784/@font-face/0aa6b2719638cacfa0e8abce9099a39b.woff") format("woff2"), /* chrome、firefox */
    url("/Blog/main/fonts/NeueHaasUnicaW06/OnlineWebFonts_COM_059c6c90764b5b58f635dc550a3dd784/@font-face/0aa6b2719638cacfa0e8abce9099a39b.woff2") format("woff"), /* chrome、firefox */
    url("/Blog/main/fonts/NeueHaasUnicaW06/OnlineWebFonts_COM_059c6c90764b5b58f635dc550a3dd784/@font-face/0aa6b2719638cacfa0e8abce9099a39b.ttf") format("truetype"), /* chrome、firefox、opera、Safari, Android, iOS 4.2+*/
    url("/Blog/main/fonts/NeueHaasUnicaW06/OnlineWebFonts_COM_059c6c90764b5b58f635dc550a3dd784/@font-face/0aa6b2719638cacfa0e8abce9099a39b.svg#Neue Haas Unica W06 X Black") format("svg"); /* iOS 4.1- */
    }
    @font-face {font-family: "NeueHaasUnicaW06-Bold";
    src: url("/Blog/main/fonts/NeueHaasUnicaW06/OnlineWebFonts_COM_073d72f89a764f9fcbc574a8bd4cb553/@font-face/bb87c8dd3cc47b366f6bb7738fee180c.eot"); /* IE9*/
    src: url("/Blog/main/fonts/NeueHaasUnicaW06/OnlineWebFonts_COM_073d72f89a764f9fcbc574a8bd4cb553/@font-face/bb87c8dd3cc47b366f6bb7738fee180c.eot?#iefix") format("embedded-opentype"), /* IE6-IE8 */
    url("/Blog/main/fonts/NeueHaasUnicaW06/OnlineWebFonts_COM_073d72f89a764f9fcbc574a8bd4cb553/@font-face/bb87c8dd3cc47b366f6bb7738fee180c.woff") format("woff2"), /* chrome、firefox */
    url("/Blog/main/fonts/NeueHaasUnicaW06/OnlineWebFonts_COM_073d72f89a764f9fcbc574a8bd4cb553/@font-face/bb87c8dd3cc47b366f6bb7738fee180c.woff2") format("woff"), /* chrome、firefox */
    url("/Blog/main/fonts/NeueHaasUnicaW06/OnlineWebFonts_COM_073d72f89a764f9fcbc574a8bd4cb553/@font-face/bb87c8dd3cc47b366f6bb7738fee180c.ttf") format("truetype"), /* chrome、firefox、opera、Safari, Android, iOS 4.2+*/
    url("/Blog/main/fonts/NeueHaasUnicaW06/OnlineWebFonts_COM_073d72f89a764f9fcbc574a8bd4cb553/@font-face/bb87c8dd3cc47b366f6bb7738fee180c.svg#Neue Haas Unica W06 X Black") format("svg"); /* iOS 4.1- */
    }
    @font-face {font-family: "NeueHaasUnicaW06-Heavy";
    src: url("/Blog/main/fonts/NeueHaasUnicaW06/OnlineWebFonts_COM_559d73454fad999c45ebbdaaa3ebacdd/@font-face/d04fc9492a6f504ee79cb87d63393fe0.eot"); /* IE9*/
    src: url("/Blog/main/fonts/NeueHaasUnicaW06/OnlineWebFonts_COM_559d73454fad999c45ebbdaaa3ebacdd/@font-face/d04fc9492a6f504ee79cb87d63393fe0.eot?#iefix") format("embedded-opentype"), /* IE6-IE8 */
    url("/Blog/main/fonts/NeueHaasUnicaW06/OnlineWebFonts_COM_559d73454fad999c45ebbdaaa3ebacdd/@font-face/d04fc9492a6f504ee79cb87d63393fe0.woff") format("woff2"), /* chrome、firefox */
    url("/Blog/main/fonts/NeueHaasUnicaW06/OnlineWebFonts_COM_559d73454fad999c45ebbdaaa3ebacdd/@font-face/d04fc9492a6f504ee79cb87d63393fe0.woff2") format("woff"), /* chrome、firefox */
    url("/Blog/main/fonts/NeueHaasUnicaW06/OnlineWebFonts_COM_559d73454fad999c45ebbdaaa3ebacdd/@font-face/d04fc9492a6f504ee79cb87d63393fe0.ttf") format("truetype"), /* chrome、firefox、opera、Safari, Android, iOS 4.2+*/
    url("/Blog/main/fonts/NeueHaasUnicaW06/OnlineWebFonts_COM_559d73454fad999c45ebbdaaa3ebacdd/@font-face/d04fc9492a6f504ee79cb87d63393fe0.svg#Neue Haas Unica W06 X Black") format("svg"); /* iOS 4.1- */
    }
    @font-face {font-family: "NeueHaasUnicaW06-HeavyIt";
    src: url("/Blog/main/fonts/NeueHaasUnicaW06/OnlineWebFonts_COM_507355e12251f27746763ec4f975a633/@font-face/a9820d1a66a09f97371b7ec92a271a92.eot"); /* IE9*/
    src: url("/Blog/main/fonts/NeueHaasUnicaW06/OnlineWebFonts_COM_507355e12251f27746763ec4f975a633/@font-face/a9820d1a66a09f97371b7ec92a271a92.eot?#iefix") format("embedded-opentype"), /* IE6-IE8 */
    url("/Blog/main/fonts/NeueHaasUnicaW06/OnlineWebFonts_COM_507355e12251f27746763ec4f975a633/@font-face/a9820d1a66a09f97371b7ec92a271a92.woff") format("woff2"), /* chrome、firefox */
    url("/Blog/main/fonts/NeueHaasUnicaW06/OnlineWebFonts_COM_507355e12251f27746763ec4f975a633/@font-face/a9820d1a66a09f97371b7ec92a271a92.woff2") format("woff"), /* chrome、firefox */
    url("/Blog/main/fonts/NeueHaasUnicaW06/OnlineWebFonts_COM_507355e12251f27746763ec4f975a633/@font-face/a9820d1a66a09f97371b7ec92a271a92.ttf") format("truetype"), /* chrome、firefox、opera、Safari, Android, iOS 4.2+*/
    url("/Blog/main/fonts/NeueHaasUnicaW06/OnlineWebFonts_COM_507355e12251f27746763ec4f975a633/@font-face/a9820d1a66a09f97371b7ec92a271a92.svg#Neue Haas Unica W06 X Black") format("svg"); /* iOS 4.1- */
    }
    @font-face {font-family: "NeueHaasUnicaW06-Light";
    src: url("/Blog/main/fonts/NeueHaasUnicaW06/OnlineWebFonts_COM_c59b16964f2eec693c72eb9c925ef088/@font-face/145bf6f8eebf1ad036f74d821af7d94b.eot"); /* IE9*/
    src: url("/Blog/main/fonts/NeueHaasUnicaW06/OnlineWebFonts_COM_c59b16964f2eec693c72eb9c925ef088/@font-face/145bf6f8eebf1ad036f74d821af7d94b.eot?#iefix") format("embedded-opentype"), /* IE6-IE8 */
    url("/Blog/main/fonts/NeueHaasUnicaW06/OnlineWebFonts_COM_c59b16964f2eec693c72eb9c925ef088/@font-face/145bf6f8eebf1ad036f74d821af7d94b.woff") format("woff2"), /* chrome、firefox */
    url("/Blog/main/fonts/NeueHaasUnicaW06/OnlineWebFonts_COM_c59b16964f2eec693c72eb9c925ef088/@font-face/145bf6f8eebf1ad036f74d821af7d94b.woff2") format("woff"), /* chrome、firefox */
    url("/Blog/main/fonts/NeueHaasUnicaW06/OnlineWebFonts_COM_c59b16964f2eec693c72eb9c925ef088/@font-face/145bf6f8eebf1ad036f74d821af7d94b.ttf") format("truetype"), /* chrome、firefox、opera、Safari, Android, iOS 4.2+*/
    url("/Blog/main/fonts/NeueHaasUnicaW06/OnlineWebFonts_COM_c59b16964f2eec693c72eb9c925ef088/@font-face/145bf6f8eebf1ad036f74d821af7d94b.svg#Neue Haas Unica W06 X Black") format("svg"); /* iOS 4.1- */
    }
    @font-face {font-family: "NeueHaasUnicaW06-MediumIt";
    src: url("/Blog/main/fonts/NeueHaasUnicaW06/OnlineWebFonts_COM_d179b86ccc44b19f872ad2ce5d9141f0/@font-face/2a415f48f53c15b960c82ad93f0a2ee0.eot"); /* IE9*/
    src: url("/Blog/main/fonts/NeueHaasUnicaW06/OnlineWebFonts_COM_d179b86ccc44b19f872ad2ce5d9141f0/@font-face/2a415f48f53c15b960c82ad93f0a2ee0.eot?#iefix") format("embedded-opentype"), /* IE6-IE8 */
    url("/Blog/main/fonts/NeueHaasUnicaW06/OnlineWebFonts_COM_d179b86ccc44b19f872ad2ce5d9141f0/@font-face/2a415f48f53c15b960c82ad93f0a2ee0.woff") format("woff2"), /* chrome、firefox */
    url("/Blog/main/fonts/NeueHaasUnicaW06/OnlineWebFonts_COM_d179b86ccc44b19f872ad2ce5d9141f0/@font-face/2a415f48f53c15b960c82ad93f0a2ee0.woff2") format("woff"), /* chrome、firefox */
    url("/Blog/main/fonts/NeueHaasUnicaW06/OnlineWebFonts_COM_d179b86ccc44b19f872ad2ce5d9141f0/@font-face/2a415f48f53c15b960c82ad93f0a2ee0.ttf") format("truetype"), /* chrome、firefox、opera、Safari, Android, iOS 4.2+*/
    url("/Blog/main/fonts/NeueHaasUnicaW06/OnlineWebFonts_COM_d179b86ccc44b19f872ad2ce5d9141f0/@font-face/2a415f48f53c15b960c82ad93f0a2ee0.svg#Neue Haas Unica W06 X Black") format("svg"); /* iOS 4.1- */
    }
    @font-face {font-family: "NeueHaasUnicaW06-Thin";
    src: url("/Blog/main/fonts/NeueHaasUnicaW06/OnlineWebFonts_COM_e0d1d8bcd90f325e7a7f4a8b9636d78a/@font-face/740a2bcf13582a2a0ed99e15dffe7b9f.eot"); /* IE9*/
    src: url("/Blog/main/fonts/NeueHaasUnicaW06/OnlineWebFonts_COM_e0d1d8bcd90f325e7a7f4a8b9636d78a/@font-face/740a2bcf13582a2a0ed99e15dffe7b9f.eot?#iefix") format("embedded-opentype"), /* IE6-IE8 */
    url("/Blog/main/fonts/NeueHaasUnicaW06/OnlineWebFonts_COM_e0d1d8bcd90f325e7a7f4a8b9636d78a/@font-face/740a2bcf13582a2a0ed99e15dffe7b9f.woff") format("woff2"), /* chrome、firefox */
    url("/Blog/main/fonts/NeueHaasUnicaW06/OnlineWebFonts_COM_e0d1d8bcd90f325e7a7f4a8b9636d78a/@font-face/740a2bcf13582a2a0ed99e15dffe7b9f.woff2") format("woff"), /* chrome、firefox */
    url("/Blog/main/fonts/NeueHaasUnicaW06/OnlineWebFonts_COM_e0d1d8bcd90f325e7a7f4a8b9636d78a/@font-face/740a2bcf13582a2a0ed99e15dffe7b9f.ttf") format("truetype"), /* chrome、firefox、opera、Safari, Android, iOS 4.2+*/
    url("/Blog/main/fonts/NeueHaasUnicaW06/OnlineWebFonts_COM_e0d1d8bcd90f325e7a7f4a8b9636d78a/@font-face/740a2bcf13582a2a0ed99e15dffe7b9f.svg#Neue Haas Unica W06 X Black") format("svg"); /* iOS 4.1- */
    }
    @font-face {font-family: "NeueHaasUnicaW06-BoldItalic";
    src: url("/Blog/main/fonts/NeueHaasUnicaW06/OnlineWebFonts_COM_e4e54e1eb6c480425902156a32fef7d6/@font-face/61742cae2dd974e3c9604f614a4c57f1.eot"); /* IE9*/
    src: url("/Blog/main/fonts/NeueHaasUnicaW06/OnlineWebFonts_COM_e4e54e1eb6c480425902156a32fef7d6/@font-face/61742cae2dd974e3c9604f614a4c57f1.eot?#iefix") format("embedded-opentype"), /* IE6-IE8 */
    url("/Blog/main/fonts/NeueHaasUnicaW06/OnlineWebFonts_COM_e4e54e1eb6c480425902156a32fef7d6/@font-face/61742cae2dd974e3c9604f614a4c57f1.woff") format("woff2"), /* chrome、firefox */
    url("/Blog/main/fonts/NeueHaasUnicaW06/OnlineWebFonts_COM_e4e54e1eb6c480425902156a32fef7d6/@font-face/61742cae2dd974e3c9604f614a4c57f1.woff2") format("woff"), /* chrome、firefox */
    url("/Blog/main/fonts/NeueHaasUnicaW06/OnlineWebFonts_COM_e4e54e1eb6c480425902156a32fef7d6/@font-face/61742cae2dd974e3c9604f614a4c57f1.ttf") format("truetype"), /* chrome、firefox、opera、Safari, Android, iOS 4.2+*/
    url("/Blog/main/fonts/NeueHaasUnicaW06/OnlineWebFonts_COM_e4e54e1eb6c480425902156a32fef7d6/@font-face/61742cae2dd974e3c9604f614a4c57f1.svg#Neue Haas Unica W06 X Black") format("svg"); /* iOS 4.1- */
    }
    @font-face {font-family: "NeueHaasUnicaW06-Medium";
    src: url("/Blog/main/fonts/NeueHaasUnicaW06/OnlineWebFonts_COM_e009de3bc4003d481f48e90c6efd332f/@font-face/9c0afb6841117a1e2256b49b040cb768.eot"); /* IE9*/
    src: url("/Blog/main/fonts/NeueHaasUnicaW06/OnlineWebFonts_COM_e009de3bc4003d481f48e90c6efd332f/@font-face/9c0afb6841117a1e2256b49b040cb768.eot?#iefix") format("embedded-opentype"), /* IE6-IE8 */
    url("/Blog/main/fonts/NeueHaasUnicaW06/OnlineWebFonts_COM_e009de3bc4003d481f48e90c6efd332f/@font-face/9c0afb6841117a1e2256b49b040cb768.woff") format("woff2"), /* chrome、firefox */
    url("/Blog/main/fonts/NeueHaasUnicaW06/OnlineWebFonts_COM_e009de3bc4003d481f48e90c6efd332f/@font-face/9c0afb6841117a1e2256b49b040cb768.woff2") format("woff"), /* chrome、firefox */
    url("/Blog/main/fonts/NeueHaasUnicaW06/OnlineWebFonts_COM_e009de3bc4003d481f48e90c6efd332f/@font-face/9c0afb6841117a1e2256b49b040cb768.ttf") format("truetype"), /* chrome、firefox、opera、Safari, Android, iOS 4.2+*/
    url("/Blog/main/fonts/NeueHaasUnicaW06/OnlineWebFonts_COM_e009de3bc4003d481f48e90c6efd332f/@font-face/9c0afb6841117a1e2256b49b040cb768.svg#Neue Haas Unica W06 X Black") format("svg"); /* iOS 4.1- */
    }
    @font-face {font-family: "NeueHaasUnicaW06-BlackIt";
    src: url("/Blog/main/fonts/NeueHaasUnicaW06/OnlineWebFonts_COM_f0d250fc9c4208c6c78408a38db68150/@font-face/15e7a19454566924256299df2a72ab91.eot"); /* IE9*/
    src: url("/Blog/main/fonts/NeueHaasUnicaW06/OnlineWebFonts_COM_f0d250fc9c4208c6c78408a38db68150/@font-face/15e7a19454566924256299df2a72ab91.eot?#iefix") format("embedded-opentype"), /* IE6-IE8 */
    url("/Blog/main/fonts/NeueHaasUnicaW06/OnlineWebFonts_COM_f0d250fc9c4208c6c78408a38db68150/@font-face/15e7a19454566924256299df2a72ab91.woff") format("woff2"), /* chrome、firefox */
    url("/Blog/main/fonts/NeueHaasUnicaW06/OnlineWebFonts_COM_f0d250fc9c4208c6c78408a38db68150/@font-face/15e7a19454566924256299df2a72ab91.woff2") format("woff"), /* chrome、firefox */
    url("/Blog/main/fonts/NeueHaasUnicaW06/OnlineWebFonts_COM_f0d250fc9c4208c6c78408a38db68150/@font-face/15e7a19454566924256299df2a72ab91.ttf") format("truetype"), /* chrome、firefox、opera、Safari, Android, iOS 4.2+*/
    url("/Blog/main/fonts/NeueHaasUnicaW06/OnlineWebFonts_COM_f0d250fc9c4208c6c78408a38db68150/@font-face/15e7a19454566924256299df2a72ab91.svg#Neue Haas Unica W06 X Black") format("svg"); /* iOS 4.1- */
    }.cls-1,.cls-100,.cls-101,.cls-102,.cls-103,.cls-104,.cls-105,.cls-106,.cls-107,.cls-108,.cls-109,.cls-110,.cls-18,.cls-19,.cls-20,.cls-21,.cls-22,.cls-23,.cls-24,.cls-25,.cls-31,.cls-74,.cls-75,.cls-76,.cls-77,.cls-78,.cls-79,.cls-80,.cls-81,.cls-82,.cls-83,.cls-84,.cls-85,.cls-86,.cls-87,.cls-88,.cls-89,.cls-90,.cls-91,.cls-92,.cls-93,.cls-94,.cls-95,.cls-96,.cls-97,.cls-98,.cls-99{fill:none;}.cls-2{clip-path:url(#clip-path);}.cls-26,.cls-3{font-size:24px;}.cls-26,.cls-3,.cls-32,.cls-33,.cls-6,.cls-66{fill:#1d1d1b;}.cls-3,.cls-33,.cls-66{font-family:NeueHaasUnicaW06-Regular;}.cls-4{letter-spacing:-0.01em;}.cls-5{letter-spacing:0.01em;}.cls-33,.cls-6,.cls-66{font-size:18px;}.cls-6{font-family:NeueHaasUnicaW06-Thin;font-weight:200;}.cls-7{letter-spacing:0em;}.cls-8{letter-spacing:-0.01em;}.cls-9{letter-spacing:-0.02em;}.cls-10{letter-spacing:-0.02em;}.cls-11{letter-spacing:-0.03em;}.cls-12{letter-spacing:0.01em;}.cls-13{letter-spacing:-0.02em;}.cls-14{letter-spacing:-0.01em;}.cls-15{letter-spacing:0em;}.cls-16{letter-spacing:-0.03em;}.cls-17{letter-spacing:0.01em;}.cls-101,.cls-102,.cls-106,.cls-107,.cls-108,.cls-109,.cls-110,.cls-18,.cls-19,.cls-20,.cls-25,.cls-78,.cls-79,.cls-80,.cls-81,.cls-82,.cls-83,.cls-84,.cls-85,.cls-86,.cls-87,.cls-88,.cls-89,.cls-90,.cls-91,.cls-92,.cls-93,.cls-94,.cls-95,.cls-96,.cls-97{stroke:#1d1d1b;}.cls-18{stroke-width:0.25px;}.cls-20{stroke-dasharray:10.8 10.8;}.cls-21,.cls-31{stroke:#f7a512;}.cls-21,.cls-22,.cls-23,.cls-24,.cls-25{stroke-width:2px;}.cls-22,.cls-74{stroke:#009fe3;}.cls-100,.cls-23,.cls-98,.cls-99{stroke:#cd1719;}.cls-103,.cls-104,.cls-105,.cls-24{stroke:#3fa535;}.cls-26{font-family:NeueHaasUnicaW06-Bold;font-weight:700;}.cls-27{letter-spacing:-0.01em;}.cls-28{letter-spacing:-0.01em;}.cls-29{letter-spacing:0em;}.cls-30{letter-spacing:-0.03em;}.cls-31{stroke-width:5px;}.cls-34{letter-spacing:-0.02em;}.cls-35{letter-spacing:-0.02em;}.cls-36{letter-spacing:0em;}.cls-37{letter-spacing:0.01em;}.cls-38{letter-spacing:-0.01em;}.cls-39{letter-spacing:0.01em;}.cls-40{letter-spacing:-0.01em;}.cls-41{letter-spacing:0.01em;}.cls-42{letter-spacing:-0.02em;}.cls-43{letter-spacing:0.01em;}.cls-44{letter-spacing:-0.02em;}.cls-45{letter-spacing:-0.01em;}.cls-46,.cls-66{letter-spacing:-0.01em;}.cls-47{letter-spacing:0em;}.cls-48{letter-spacing:-0.01em;}.cls-49{letter-spacing:-0.01em;}.cls-50{letter-spacing:-0.01em;}.cls-51{letter-spacing:-0.02em;}.cls-52{letter-spacing:0em;}.cls-53{letter-spacing:-0.02em;}.cls-54{letter-spacing:0.01em;}.cls-55{letter-spacing:0em;}.cls-56{letter-spacing:-0.01em;}.cls-57{letter-spacing:0em;}.cls-58{letter-spacing:0em;}.cls-59{letter-spacing:0.02em;}.cls-60{letter-spacing:-0.02em;}.cls-61{letter-spacing:-0.02em;}.cls-62{letter-spacing:0.01em;}.cls-63{letter-spacing:0em;}.cls-64{letter-spacing:0.01em;}.cls-65{letter-spacing:-0.02em;}.cls-67{letter-spacing:0em;}.cls-68{letter-spacing:0em;}.cls-69{letter-spacing:-0.03em;}.cls-70{letter-spacing:0.01em;}.cls-71{letter-spacing:0em;}.cls-72{letter-spacing:-0.01em;}.cls-73{letter-spacing:0.01em;}.cls-75{stroke:#e6007e;}.cls-76{stroke:#ffed00;}.cls-77{stroke:#2a618f;}.cls-78{stroke-dasharray:11.86 11.86;}.cls-79{stroke-dasharray:11.86 11.86;}.cls-80{stroke-dasharray:12.37 12.37;}.cls-81{stroke-dasharray:6.08 6.08;}.cls-82{stroke-dasharray:11.82 11.82;}.cls-83{stroke-dasharray:12.02 12.02;}.cls-84{stroke-dasharray:12.3 12.3;}.cls-85{stroke-dasharray:11.67 11.67;}.cls-86{stroke-dasharray:13.25 13.25;}.cls-87{stroke-dasharray:12 12;}.cls-88{stroke-dasharray:13.82 13.82;}.cls-89{stroke-dasharray:12.13 12.13;}.cls-90{stroke-dasharray:11.7 11.7;}.cls-91{stroke-dasharray:9.56 9.56;}.cls-92{stroke-dasharray:10.79 10.79;}.cls-93{stroke-dasharray:10.63 10.63;}.cls-94{stroke-dasharray:7.5 7.5;}.cls-95{stroke-dasharray:8.17 8.17;}.cls-96{stroke-dasharray:4.96 4.96;}.cls-97{stroke-dasharray:11.3 11.3;}.cls-98{stroke-dasharray:12.43 12.43;}.cls-99{stroke-dasharray:12.17 12.17;}.cls-101{stroke-dasharray:11.73 11.73;}.cls-102{stroke-dasharray:11.89 11.89;}.cls-103{stroke-dasharray:12.95 12.95;}.cls-104{stroke-dasharray:11.17 11.17;}.cls-106{stroke-dasharray:11.5 11.5;}.cls-107{stroke-dasharray:10.94 10.94;}.cls-108{stroke-dasharray:11.45 11.45;}.cls-109{stroke-dasharray:11.54 11.54;}.cls-110{stroke-dasharray:9.63 9.63;}</style><clipPath id="clip-path" transform="translate(-49.8 -71.55)"><rect class="cls-1" x="-0.2" y="-0.43" width="1505" height="804"/></clipPath></defs><title>3.2</title><g class="cls-2"><g class="cls-2"><text class="cls-3" transform="translate(3.25 325.25)"><tspan class="cls-4">L</tspan><tspan class="cls-5" x="13.18" y="0">e</tspan><tspan x="26.62" y="0">gend</tspan></text><text class="cls-6" transform="translate(3.25 390.05)">Vision</text><text class="cls-6" transform="translate(3.25 433.25)">Acti<tspan class="cls-7" x="29.66" y="0">v</tspan><tspan class="cls-8" x="37.48" y="0">a</tspan><tspan class="cls-9" x="46.44" y="0">t</tspan><tspan x="51.21" y="0">o</tspan><tspan class="cls-10" x="60.91" y="0">r</tspan><tspan x="66.56" y="0">s</tspan></text><text class="cls-6" transform="translate(3.25 476.45)">P<tspan class="cls-11" x="10.6" y="0">r</tspan><tspan x="16.07" y="0">oj</tspan><tspan class="cls-12" x="29.74" y="0">e</tspan><tspan x="39.36" y="0">cts</tspan></text><text class="cls-6" transform="translate(3.25 519.65)"><tspan class="cls-13">E</tspan><tspan x="10.44" y="0">ve</tspan><tspan class="cls-14" x="27.79" y="0">n</tspan><tspan class="cls-15" x="37.44" y="0">ts</tspan></text><text class="cls-6" transform="translate(3.25 562.85)">Other</text><text class="cls-6" transform="translate(3.25 606.05)">Di<tspan class="cls-16" x="16.61" y="0">r</tspan><tspan class="cls-17" x="22.09" y="0">e</tspan><tspan x="31.73" y="0">ct </tspan></text><text class="cls-6" transform="translate(3.25 649.25)">Indi<tspan class="cls-16" x="28.06" y="0">r</tspan><tspan class="cls-17" x="33.53" y="0">e</tspan><tspan x="43.18" y="0">ct</tspan></text><rect class="cls-18" x="0.13" y="297.15" width="154.5" height="398.03"/><line class="cls-19" x1="89.5" y1="601.58" x2="143.5" y2="601.58"/><line class="cls-20" x1="89.5" y1="643.28" x2="143.5" y2="643.28"/><rect class="cls-21" x="91" y="368.57" width="53" height="25.25"/><rect class="cls-22" x="90" y="412.78" width="53" height="25.25"/><rect class="cls-23" x="90" y="456.98" width="53" height="25.25"/><rect class="cls-24" x="90" y="501.19" width="53" height="25.25"/><rect class="cls-25" x="90" y="545.4" width="53" height="25.25"/></g><text class="cls-26" transform="translate(419.74 327.8)"><tspan class="cls-27">f</tspan><tspan class="cls-28" x="7.87" y="0">a</tspan><tspan class="cls-29" x="20.74" y="0">us</tspan><tspan class="cls-30" x="47.71" y="0">k</tspan><tspan x="60.12" y="0">e link</tspan></text><rect class="cls-31" x="391.75" y="297.32" width="176" height="42"/><path class="cls-32" d="M665.17,441.88a1.27,1.27,0,0,0-1,.36,1.75,1.75,0,0,0-.33,1.19v1h1.82v1.26h-1.82v7.88h-1.56v-7.88h-1.61v-1.26h1.61v-1.14a2.76,2.76,0,0,1,.63-2,2.49,2.49,0,0,1,1.87-.66,3.91,3.91,0,0,1,.92.09v1.23a1.7,1.7,0,0,0-.53-.06Zm2.16,11.65V440.71h1.59v12.82Zm8.07-9.4a4.09,4.09,0,0,1,3.18,1.3,5.91,5.91,0,0,1,0,7.06,4.56,4.56,0,0,1-6.36,0,6,6,0,0,1,0-7.06,4.06,4.06,0,0,1,3.18-1.3Zm0,1.3a2.33,2.33,0,0,0-2,.95,5,5,0,0,0,0,5.16,2.33,2.33,0,0,0,2,.95,2.36,2.36,0,0,0,2-.95,5,5,0,0,0,0-5.16,2.36,2.36,0,0,0-2-.95Zm9.75-1.3a3.71,3.71,0,0,1,2.66.9,3.45,3.45,0,0,1,.94,2.65v3.51a11.07,11.07,0,0,0,.22,2.34h-1.44a6.51,6.51,0,0,1-.13-1.33h0a3.25,3.25,0,0,1-1.28,1.13,4.12,4.12,0,0,1-1.89.4A3.25,3.25,0,0,1,682,453a2.47,2.47,0,0,1-.85-1.93,2.35,2.35,0,0,1,.79-1.88,5.3,5.3,0,0,1,2.69-1c.89-.15,1.77-.25,2.64-.31v-.36a2.13,2.13,0,0,0-.55-1.62,2.09,2.09,0,0,0-1.52-.52,2.16,2.16,0,0,0-1.51.49,1.8,1.8,0,0,0-.57,1.33h-1.59a3,3,0,0,1,1-2.2,3.86,3.86,0,0,1,2.64-.85Zm2.07,4.94c-.92.07-1.72.16-2.39.28a3.79,3.79,0,0,0-1.63.54,1.23,1.23,0,0,0-.48,1.05,1.42,1.42,0,0,0,.5,1.14,2.07,2.07,0,0,0,1.38.42,3,3,0,0,0,1-.18,2.43,2.43,0,0,0,.84-.54,2.49,2.49,0,0,0,.57-.89,3.88,3.88,0,0,0,.16-1.27v-.55Zm7.28,3.22a2,2,0,0,0,.64-.09v1.29a3.54,3.54,0,0,1-1,.11,2.52,2.52,0,0,1-1.9-.61,2.87,2.87,0,0,1-.59-2v-5.32h-1.58v-1.26h1.58v-2.22h1.59v2.22h1.81v1.26h-1.81v5.16a1.8,1.8,0,0,0,.28,1.14,1.26,1.26,0,0,0,1,.34ZM697,442.5v-1.79h1.59v1.79Zm0,11v-9.14h1.59v9.14Zm8.73-9.34a3.14,3.14,0,0,1,2.45.95,4,4,0,0,1,.87,2.81v5.58h-1.59v-5.45a2.94,2.94,0,0,0-.54-2,2,2,0,0,0-1.56-.61,2.2,2.2,0,0,0-1.7.74,3,3,0,0,0-.68,2.07v5.24h-1.58v-9.14H703v1.2h0a3.07,3.07,0,0,1,1.15-1,3.34,3.34,0,0,1,1.62-.38Zm9.24,0a3,3,0,0,1,2.73,1.57h0v-1.33h1.53V453a4.06,4.06,0,0,1-1,3,4,4,0,0,1-3,1,4.35,4.35,0,0,1-2.74-.77,2.64,2.64,0,0,1-1-2.12h1.59a1.54,1.54,0,0,0,.62,1.23,2.61,2.61,0,0,0,1.59.44,2.33,2.33,0,0,0,1.84-.68,3.37,3.37,0,0,0,.59-2.2v-1h0a3.09,3.09,0,0,1-2.72,1.53,3.57,3.57,0,0,1-2-.58,3.61,3.61,0,0,1-1.35-1.62,6.49,6.49,0,0,1,0-4.9,3.56,3.56,0,0,1,3.39-2.19Zm.25,1.32a2.12,2.12,0,0,0-1.79.91,4.61,4.61,0,0,0,0,4.82,2.12,2.12,0,0,0,1.79.91,2.23,2.23,0,0,0,1.87-.89,4.62,4.62,0,0,0,0-4.86,2.21,2.21,0,0,0-1.87-.89Zm13.9-1.34a3.88,3.88,0,0,1,2.62.81,2.87,2.87,0,0,1,.94,2.31h-1.55a1.85,1.85,0,0,0-.53-1.41,2.15,2.15,0,0,0-1.5-.48,2.21,2.21,0,0,0-1.31.35,1.12,1.12,0,0,0-.47.94,1,1,0,0,0,.22.72,1.5,1.5,0,0,0,.64.4,12.88,12.88,0,0,0,1.33.36,15.43,15.43,0,0,1,1.85.54,2.75,2.75,0,0,1,1.13.82,2.35,2.35,0,0,1,.48,1.56,2.4,2.4,0,0,1-1,2,4.33,4.33,0,0,1-2.64.74,4.27,4.27,0,0,1-2.82-.84,3.1,3.1,0,0,1-1-2.45h1.6a1.91,1.91,0,0,0,.58,1.5,2.38,2.38,0,0,0,1.67.53,2.41,2.41,0,0,0,1.44-.38,1.15,1.15,0,0,0,.54-1,1.26,1.26,0,0,0-.25-.81,1.73,1.73,0,0,0-.74-.45c-.33-.12-.84-.26-1.53-.43a15.07,15.07,0,0,1-1.68-.49,2.44,2.44,0,0,1-1-.74,2.18,2.18,0,0,1-.43-1.45,2.32,2.32,0,0,1,1-1.91,3.85,3.85,0,0,1,2.44-.74Zm10.38,0a3.56,3.56,0,0,1,2,.59,3.74,3.74,0,0,1,1.34,1.67,7,7,0,0,1,0,5.06,3.76,3.76,0,0,1-1.33,1.68,3.46,3.46,0,0,1-2,.6,3.4,3.4,0,0,1-1.66-.41,2.69,2.69,0,0,1-1.13-1.11h0v4.63h-1.58V444.39h1.57v1.31h0a2.55,2.55,0,0,1,1.12-1.13,3.37,3.37,0,0,1,1.67-.42Zm-.39,1.28a2.12,2.12,0,0,0-1.81.95,5.18,5.18,0,0,0,0,5.13,2.1,2.1,0,0,0,1.81,1,2.2,2.2,0,0,0,1.87-1,4.27,4.27,0,0,0,.7-2.57,4.22,4.22,0,0,0-.7-2.56,2.22,2.22,0,0,0-1.87-.95Zm9.63-1.3a3.68,3.68,0,0,1,2.65.9,3.46,3.46,0,0,1,1,2.65v3.51a11.14,11.14,0,0,0,.21,2.34h-1.44a6.56,6.56,0,0,1-.12-1.33h0a3.18,3.18,0,0,1-1.28,1.13,4.12,4.12,0,0,1-1.89.4,3.29,3.29,0,0,1-2.25-.75,2.46,2.46,0,0,1-.84-1.93,2.37,2.37,0,0,1,.78-1.88,5.3,5.3,0,0,1,2.69-1c.89-.15,1.77-.25,2.65-.31v-.36a2.17,2.17,0,0,0-.55-1.62,2.13,2.13,0,0,0-1.52-.52,2.17,2.17,0,0,0-1.52.49,1.8,1.8,0,0,0-.57,1.33h-1.59a3,3,0,0,1,1-2.2,3.89,3.89,0,0,1,2.65-.85Zm2.07,4.94c-.93.07-1.73.16-2.4.28a3.79,3.79,0,0,0-1.63.54,1.25,1.25,0,0,0-.47,1.05,1.41,1.41,0,0,0,.49,1.14,2.07,2.07,0,0,0,1.38.42,3,3,0,0,0,1-.18,2.43,2.43,0,0,0,.84-.54,2.36,2.36,0,0,0,.57-.89,3.85,3.85,0,0,0,.17-1.27v-.55Zm7.86-4.94a4.11,4.11,0,0,1,1.94.45,3.53,3.53,0,0,1,1.37,1.23,3.93,3.93,0,0,1,.6,1.82H761a2.45,2.45,0,0,0-.71-1.59,2.11,2.11,0,0,0-1.56-.61,2.24,2.24,0,0,0-1.9.95,4.23,4.23,0,0,0-.71,2.58,4.29,4.29,0,0,0,.7,2.58,2.24,2.24,0,0,0,1.91.95,2,2,0,0,0,1.56-.66,2.66,2.66,0,0,0,.71-1.67h1.66A4.17,4.17,0,0,1,762,452a3.54,3.54,0,0,1-1.35,1.28,4,4,0,0,1-2,.47,4.32,4.32,0,0,1-2.28-.58,3.84,3.84,0,0,1-1.5-1.68,6.59,6.59,0,0,1,0-5.13,3.87,3.87,0,0,1,1.5-1.67,4.32,4.32,0,0,1,2.28-.59Zm9.72,8.43a2.53,2.53,0,0,0,1.61-.49,2.06,2.06,0,0,0,.8-1.28h1.62a3.58,3.58,0,0,1-1.3,2.14,4.73,4.73,0,0,1-5,.24,3.89,3.89,0,0,1-1.49-1.73,6.2,6.2,0,0,1-.51-2.61,5.58,5.58,0,0,1,.51-2.42,3.94,3.94,0,0,1,1.48-1.67,4.17,4.17,0,0,1,2.26-.61A4,4,0,0,1,771,445a4.12,4.12,0,0,1,1.41,2.34,8.59,8.59,0,0,1,.18,2H765.7a3.81,3.81,0,0,0,.8,2.45,2.48,2.48,0,0,0,1.92.83Zm0-7.2a2.46,2.46,0,0,0-1.82.71,3.15,3.15,0,0,0-.83,2H771a3.21,3.21,0,0,0-.83-2,2.4,2.4,0,0,0-1.78-.7Z" transform="translate(-49.8 -71.55)"/><rect class="cls-23" x="608.31" y="359.99" width="117.5" height="48.5"/><text class="cls-33" transform="translate(770.58 523.25)">marble park</text><rect class="cls-23" x="759.75" y="501.26" width="117.5" height="48.5"/><text class="cls-33" transform="translate(846.15 382.48)">marble s<tspan class="cls-34" x="69.3" y="0">t</tspan><tspan x="74.77" y="0">one </tspan></text><text class="cls-33" transform="translate(870.41 404.08)">ga<tspan class="cls-35" x="19.87" y="0">r</tspan><tspan x="26.06" y="0">den</tspan></text><rect class="cls-23" x="840" y="360.49" width="117.5" height="48.5"/><text class="cls-33" transform="translate(412.19 242.51)">vi<tspan class="cls-36" x="12.85" y="0">e</tspan><tspan x="22.72" y="0">w</tspan><tspan class="cls-37" x="36.58" y="0">p</tspan><tspan x="47.1" y="0">oi</tspan><tspan class="cls-38" x="61.67" y="0">n</tspan><tspan class="cls-15" x="71.87" y="0">t</tspan></text><rect class="cls-23" x="392.25" y="220.52" width="117.5" height="48.5"/><text class="cls-33" transform="translate(411.25 393.99)"><tspan class="cls-39">e</tspan><tspan class="cls-15" x="10.08" y="0">duc</tspan><tspan class="cls-40" x="40.43" y="0">a</tspan><tspan x="49.81" y="0">tion</tspan></text><rect class="cls-22" x="392.75" y="372" width="117.5" height="48.5"/><text class="cls-33" transform="translate(234.18 458.18)">tim<tspan class="cls-37" x="25.69" y="0">b</tspan><tspan x="36.22" y="0">er</tspan></text><rect class="cls-22" x="201.75" y="436.19" width="117.5" height="48.5"/><text class="cls-33" transform="translate(235.02 163.55)"><tspan class="cls-17">p</tspan><tspan class="cls-36" x="10.55" y="0">ow</tspan><tspan x="34.51" y="0">er</tspan></text><rect class="cls-22" x="201.72" y="141.56" width="117.5" height="48.5"/><text class="cls-33" transform="translate(463.1 113.05)">inhabita<tspan class="cls-8" x="64.76" y="0">n</tspan><tspan x="74.95" y="0">ts</tspan></text><rect class="cls-22" x="449.15" y="91.06" width="117.5" height="48.5"/><text class="cls-33" transform="translate(1130.17 115.05)">aquacultu<tspan class="cls-9" x="80.35" y="0">r</tspan><tspan x="86.52" y="0">e</tspan></text><rect class="cls-22" x="1119.63" y="93.06" width="117.5" height="48.5"/><text class="cls-33" transform="translate(1019.08 448.24)">a<tspan class="cls-41" x="9.56" y="0">r</tspan><tspan x="16.27" y="0">tist</tspan></text><rect class="cls-22" x="980.88" y="426.25" width="117.5" height="48.5"/><text class="cls-33" transform="translate(1286.83 115.05)">agricultu<tspan class="cls-42" x="71.28" y="0">r</tspan><tspan x="77.45" y="0">e</tspan></text><rect class="cls-22" x="1271.75" y="93.06" width="117.5" height="48.5"/><text class="cls-33" transform="translate(224.86 523.19)"><tspan class="cls-43">c</tspan><tspan x="9.72" y="0">onc</tspan><tspan class="cls-44" x="39.87" y="0">r</tspan><tspan class="cls-45" x="46.04" y="0">e</tspan><tspan class="cls-46" x="55.85" y="0">t</tspan><tspan class="cls-47" x="61.34" y="0">e</tspan></text><rect class="cls-22" x="201.72" y="501.2" width="117.5" height="48.5"/><text class="cls-33" transform="translate(232.37 588.2)">marble</text><rect class="cls-22" x="201.75" y="566.21" width="117.5" height="48.5"/><text class="cls-33" transform="translate(421.38 590.88)"><tspan class="cls-48">f</tspan><tspan x="5.24" y="0">o</tspan><tspan class="cls-44" x="15.41" y="0">r</tspan><tspan class="cls-43" x="21.58" y="0">e</tspan><tspan x="31.59" y="0">stry</tspan></text><rect class="cls-22" x="393.25" y="568.89" width="117.5" height="48.5"/><text class="cls-33" transform="translate(405.4 656.51)">supplie<tspan class="cls-49" x="58.68" y="0">r</tspan><tspan class="cls-15" x="64.96" y="0">s &amp; </tspan></text><text class="cls-33" transform="translate(405.04 678.11)"><tspan class="cls-43">c</tspan><tspan x="9.72" y="0">o</tspan><tspan class="cls-50" x="19.89" y="0">n</tspan><tspan x="30.1" y="0">t</tspan><tspan class="cls-51" x="35.86" y="0">r</tspan><tspan x="41.96" y="0">ac</tspan><tspan class="cls-46" x="61.13" y="0">t</tspan><tspan class="cls-47" x="66.62" y="0">o</tspan><tspan class="cls-14" x="76.79" y="0">r</tspan><tspan x="83.07" y="0">s</tspan></text><rect class="cls-22" x="392.25" y="634.52" width="117.5" height="48.5"/><text class="cls-33" transform="translate(221.33 22.99)">lig<tspan class="cls-38" x="19.1" y="0">h</tspan><tspan x="29.3" y="0">tsh</tspan><tspan class="cls-52" x="54.32" y="0">o</tspan><tspan x="64.44" y="0">w</tspan></text><rect class="cls-24" x="201.72" y="1" width="117.5" height="48.5"/><text class="cls-33" transform="translate(912.05 115.05)"><tspan class="cls-53">f</tspan><tspan class="cls-39" x="5.22" y="0">oo</tspan><tspan x="25.92" y="0">d </tspan><tspan class="cls-46" x="40.43" y="0">f</tspan><tspan class="cls-54" x="45.65" y="0">e</tspan><tspan class="cls-55" x="55.65" y="0">sti</tspan><tspan class="cls-56" x="74.7" y="0">v</tspan><tspan class="cls-55" x="82.98" y="0">al</tspan></text><rect class="cls-24" x="901.75" y="93.06" width="117.5" height="48.5"/><text class="cls-33" transform="translate(238.5 93.27)">lig<tspan class="cls-38" x="19.1" y="0">h</tspan><tspan x="29.3" y="0">ts</tspan></text><rect class="cls-25" x="201.72" y="71.28" width="117.5" height="48.5"/><text class="cls-33" transform="translate(650.12 113.05)">mall</text><rect class="cls-25" x="608.31" y="91.06" width="117.5" height="48.5"/><text class="cls-33" transform="translate(623.82 177.78)"><tspan class="cls-17">pe</tspan><tspan class="cls-15" x="20.63" y="0">d</tspan><tspan class="cls-57" x="31" y="0">e</tspan><tspan x="40.99" y="0">strian </tspan></text><text class="cls-33" transform="translate(643.83 199.38)">st<tspan class="cls-35" x="14.65" y="0">r</tspan><tspan class="cls-39" x="20.84" y="0">e</tspan><tspan class="cls-58" x="30.92" y="0">e</tspan><tspan x="40.73" y="0">t</tspan></text><rect class="cls-25" x="608.31" y="155.79" width="117.5" height="48.5"/><text class="cls-33" transform="translate(655.85 243.01)">ci<tspan class="cls-59" x="14" y="0">t</tspan><tspan x="20.03" y="0">y </tspan><tspan class="cls-57" x="32.67" y="0">c</tspan><tspan x="42.37" y="0">e</tspan><tspan class="cls-38" x="52.27" y="0">n</tspan><tspan x="62.48" y="0">t</tspan><tspan class="cls-60" x="68.24" y="0">r</tspan><tspan x="74.43" y="0">e</tspan></text><rect class="cls-25" x="639.25" y="221.02" width="117.5" height="48.5"/><text class="cls-33" transform="translate(659.84 307.24)"><tspan class="cls-52">w</tspan><tspan class="cls-50" x="13.81" y="0">a</tspan><tspan class="cls-61" x="23.2" y="0">t</tspan><tspan x="28.69" y="0">ef</tspan><tspan class="cls-9" x="44.08" y="0">r</tspan><tspan x="50.25" y="0">o</tspan><tspan class="cls-56" x="60.42" y="0">n</tspan><tspan x="70.61" y="0">t</tspan></text><rect class="cls-25" x="639.25" y="285.26" width="117.5" height="48.5"/><text class="cls-33" transform="translate(399.11 459.62)"><tspan class="cls-43">c</tspan><tspan x="9.72" y="0">onstruction</tspan></text><rect class="cls-25" x="391.4" y="437.63" width="117.5" height="48.5"/><text class="cls-33" transform="translate(432.35 523.25)">l<tspan class="cls-17" x="4.39" y="0">o</tspan><tspan x="14.74" y="0">cal </tspan></text><text class="cls-33" transform="translate(414.49 544.85)">m<tspan class="cls-50" x="15.53" y="0">a</tspan><tspan class="cls-61" x="24.93" y="0">t</tspan><tspan x="30.42" y="0">erials</tspan></text><rect class="cls-25" x="392.75" y="501.26" width="117.5" height="48.5"/><text class="cls-33" transform="translate(641.41 523.25)"><tspan class="cls-62">s</tspan><tspan class="cls-39" x="9" y="0">o</tspan><tspan x="19.35" y="0">cial </tspan></text><text class="cls-33" transform="translate(621.96 544.85)">g<tspan class="cls-50" x="10.31" y="0">a</tspan><tspan x="19.71" y="0">therings</tspan></text><rect class="cls-25" x="606.31" y="501.26" width="117.5" height="48.5"/><text class="cls-33" transform="translate(621.29 592.88)">l<tspan class="cls-17" x="4.39" y="0">o</tspan><tspan x="14.74" y="0">cal </tspan><tspan class="cls-63" x="42.44" y="0">y</tspan><tspan x="50.88" y="0">outh</tspan></text><rect class="cls-25" x="606.31" y="570.89" width="117.5" height="48.5"/><text class="cls-33" transform="translate(791.59 183.49)">ci<tspan class="cls-64" x="14" y="0">t</tspan><tspan x="20.03" y="0">y t</tspan><tspan class="cls-65" x="38.43" y="0">r</tspan><tspan x="44.53" y="0">ans</tspan><tspan class="cls-53" x="73.35" y="0">f</tspan><tspan x="78.57" y="0">orm</tspan><tspan class="cls-38" x="110.79" y="0">a</tspan><tspan x="120.18" y="0">tion/ </tspan></text><text class="cls-33" transform="translate(818.5 205.09)">mai<tspan class="cls-38" x="29.48" y="0">n</tspan><tspan x="39.69" y="0">tanen</tspan><tspan class="cls-57" x="85.64" y="0">c</tspan><tspan x="95.34" y="0">e </tspan></text><rect class="cls-25" x="786.75" y="161.5" width="168.75" height="48.5"/><text class="cls-66" transform="translate(929.83 256.74)">t<tspan class="cls-67" x="5.49" y="0">ourism</tspan></text><rect class="cls-25" x="901.75" y="234.76" width="117.5" height="48.5"/><text class="cls-33" transform="translate(932.22 318.61)">cultu<tspan class="cls-60" x="40.5" y="0">r</tspan><tspan x="46.69" y="0">e</tspan></text><rect class="cls-25" x="901.75" y="296.62" width="117.5" height="48.5"/><text class="cls-33" transform="translate(862.78 448.24)"><tspan class="cls-62">s</tspan><tspan class="cls-67" x="9" y="0">culptu</tspan><tspan class="cls-9" x="59.87" y="0">r</tspan><tspan x="66.04" y="0">e</tspan></text><rect class="cls-25" x="842" y="426.25" width="117.5" height="48.5"/><text class="cls-33" transform="translate(921.08 523.25)"><tspan class="cls-68">w</tspan><tspan class="cls-67" x="13.82" y="0">or</tspan><tspan class="cls-69" x="30.51" y="0">k</tspan><tspan x="39.06" y="0">shop</tspan></text><rect class="cls-25" x="901.75" y="501.26" width="117.5" height="48.5"/><text class="cls-33" transform="translate(929.08 588.88)">sta<tspan class="cls-70" x="24.21" y="0">r</tspan><tspan x="30.94" y="0">t-up</tspan></text><rect class="cls-25" x="901.75" y="566.89" width="117.5" height="48.5"/><text class="cls-33" transform="translate(1127.69 322.99)"><tspan class="cls-62">s</tspan><tspan class="cls-39" x="9" y="0">o</tspan><tspan x="19.35" y="0">cial m</tspan><tspan class="cls-37" x="66.98" y="0">e</tspan><tspan x="77.04" y="0">dia</tspan></text><rect class="cls-25" x="1119.63" y="301" width="117.5" height="48.5"/><text class="cls-33" transform="translate(1137.98 256.74)">mar<tspan class="cls-51" x="31.61" y="0">k</tspan><tspan class="cls-71" x="40.19" y="0">e</tspan><tspan x="50" y="0">ting</tspan></text><rect class="cls-25" x="1119.63" y="234.76" width="117.5" height="48.5"/><text class="cls-33" transform="translate(1148.7 183.49)">m<tspan class="cls-38" x="15.53" y="0">a</tspan><tspan x="24.93" y="0">t</tspan><tspan class="cls-72" x="30.69" y="0">a</tspan><tspan x="40.03" y="0">uk</tspan></text><rect class="cls-25" x="1119.63" y="161.5" width="117.5" height="48.5"/><text class="cls-33" transform="translate(982.46 183.49)">l<tspan class="cls-39" x="4.39" y="0">o</tspan><tspan x="14.74" y="0">cal p</tspan><tspan class="cls-9" x="52.81" y="0">r</tspan><tspan class="cls-73" x="58.98" y="0">o</tspan><tspan class="cls-67" x="69.33" y="0">ducts</tspan></text><rect class="cls-25" x="980.88" y="161.5" width="117.5" height="48.5"/><line class="cls-19" x1="257.75" y1="50.5" x2="257.75" y2="70.28"/><line class="cls-19" x1="258.25" y1="120.78" x2="258.25" y2="142.56"/><polyline class="cls-74" points="320.22 177.5 590.75 177.5 590.75 372.5 607.31 372.5"/><line class="cls-74" x1="640.25" y1="244.77" x2="588.75" y2="244.77"/><polyline class="cls-19" points="640.25 263 551.75 263 551.75 296.32"/><line class="cls-19" x1="641.25" y1="309.51" x2="568.75" y2="309.51"/><polyline class="cls-19" points="609.31 165.81 546.75 165.81 546.75 138.56"/><line class="cls-19" x1="667.06" y1="205.29" x2="667.06" y2="219.52"/><line class="cls-19" x1="667.06" y1="270.02" x2="667.06" y2="286.26"/><line class="cls-19" x1="609.31" y1="401" x2="510.75" y2="401"/><line class="cls-19" x1="446.75" y1="419.5" x2="446.75" y2="436.63"/><line class="cls-19" x1="446.75" y1="484.51" x2="446.75" y2="504.26"/><line class="cls-19" x1="446.25" y1="550.76" x2="446.25" y2="567.89"/><polyline class="cls-19" points="391.75 396.25 375.75 396.25 375.75 658.77 390.4 658.77"/><polyline class="cls-75" points="320.22 458.01 338.75 458.01 338.75 593.14 320.22 593.14"/><line class="cls-75" x1="318.22" y1="527.51" x2="392.4" y2="527.51"/><polyline class="cls-19" points="508.75 462.5 625.75 462.5 625.75 409.99"/><polyline class="cls-19" points="510.75 593.64 555.75 593.64 555.75 463"/><line class="cls-19" x1="667.06" y1="571.89" x2="667.06" y2="550.7"/><line class="cls-19" x1="667.06" y1="334.76" x2="667.06" y2="358.99"/><polyline class="cls-19" points="722.81 525.45 738.75 525.45 738.75 334.75"/><polyline class="cls-19" points="755.75 244.27 777.75 244.27 777.75 378 739.25 378"/><polyline class="cls-19" points="755.75 220.02 755.75 185.75 785.75 185.75"/><line class="cls-19" x1="812.59" y1="209" x2="812.59" y2="500.26"/><polyline class="cls-19" points="823.75 500.2 823.75 384.24 839 384.24"/><line class="cls-19" x1="871.13" y1="360.99" x2="871.13" y2="209"/><polyline class="cls-76" points="757.75 304.5 848.75 304.5 848.75 254.31 902.75 254.31"/><polyline class="cls-19" points="900.75 283.5 888.75 283.5 888.75 359.49"/><line class="cls-19" x1="895.75" y1="409.99" x2="895.75" y2="425.25"/><line class="cls-19" x1="958.5" y1="450.5" x2="981.88" y2="450.5"/><line class="cls-19" x1="927.75" y1="142.56" x2="927.75" y2="160.5"/><line class="cls-19" x1="1020.25" y1="115.31" x2="1118.75" y2="115.31"/><polyline class="cls-19" points="967.75 92.06 967.75 71 1322.75 71 1322.75 92.06"/><line class="cls-19" x1="956.5" y1="185.75" x2="979.88" y2="185.75"/><line class="cls-19" x1="1098.75" y1="186.25" x2="1120.63" y2="186.25"/><polyline class="cls-77" points="965.25 142.56 965.25 217.77 1145.25 217.77 1145.25 233.76"/><line class="cls-19" x1="1178.38" y1="284.26" x2="1178.38" y2="300"/><line class="cls-78" x1="882.97" y1="274" x2="462.01" y2="274"/><path class="cls-19" d="M505.88,345.55H500v-4.48m450.6,4.48h-5.93" transform="translate(-49.8 -71.55)"/><line class="cls-19" x1="684.75" y1="274.5" x2="684.75" y2="285"/><line class="cls-79" x1="336.54" y1="71" x2="899.89" y2="71"/><path class="cls-19" d="M961.55,158.35v5.26m-5.93-21.06h5.93v5.27m-593-5.27h5.93" transform="translate(-49.8 -71.55)"/><line class="cls-80" x1="548.3" y1="81.28" x2="888.39" y2="81.28"/><path class="cls-19" d="M944.37,152.83h6.18v10.78m-371-2v-8.78h6.18" transform="translate(-49.8 -71.55)"/><line class="cls-81" x1="666.56" y1="138.56" x2="666.56" y2="156.79"/><line class="cls-82" x1="527.75" y1="427.23" x2="527.75" y2="634.17"/><line class="cls-83" x1="545.78" y1="646" x2="948.48" y2="646"/><path class="cls-19" d="M1010.3,694.83v-7.57m-6,30.29h6V710m-432.75,1.66v5.91h6M573.05,481h4.5V487m-18-5.92h4.5" transform="translate(-49.8 -71.55)"/><line class="cls-84" x1="588.86" y1="387" x2="545.8" y2="387"/><line class="cls-85" x1="533.5" y1="369.49" x2="533.5" y2="351.99"/><path class="cls-19" d="M583.3,417.7v-5.83m6.15,46.68H583.3v-5.83m73.81,5.83H651" transform="translate(-49.8 -71.55)"/><line class="cls-86" x1="667.06" y1="409.49" x2="667.06" y2="502.26"/><line class="cls-87" x1="723.75" y1="550" x2="759.75" y2="550"/><line class="cls-88" x1="690.75" y1="479.54" x2="690.75" y2="458.82"/><line class="cls-89" x1="708.94" y1="445" x2="775.63" y2="445"/><line class="cls-90" x1="787.75" y1="427.45" x2="787.75" y2="222.7"/><path class="cls-19" d="M837.55,288.4v-5.85m-6.06,234h6.06V510.7m-97,12.76v-6.91h6.06m-6.06,55.26v-6.9" transform="translate(-49.8 -71.55)"/><line class="cls-91" x1="824.66" y1="408.99" x2="810.31" y2="408.99"/><line class="cls-92" x1="800.75" y1="425.18" x2="800.75" y2="462.96"/><line class="cls-93" x1="784.81" y1="473.75" x2="726.38" y2="473.75"/><path class="cls-19" d="M765.55,565.14v6.61m5.31-26.45h-5.31v6.62m85-12v5.39h-5.31m10.09-64.76h-4.78v5.4m38.25-5.4H884" transform="translate(-49.8 -71.55)"/><line class="cls-94" x1="878.25" y1="524" x2="900.75" y2="524"/><line class="cls-95" x1="929.75" y1="475.75" x2="929.75" y2="500.26"/><line class="cls-95" x1="1002.75" y1="500.26" x2="1002.75" y2="475.75"/><line class="cls-19" x1="961" y1="549.5" x2="961" y2="565.89"/><line class="cls-96" x1="933.75" y1="346.12" x2="933.75" y2="360.99"/><line class="cls-97" x1="997.75" y1="346.12" x2="997.75" y2="425.25"/><line class="cls-98" x1="977.14" y1="384.24" x2="1070.33" y2="384.24"/><line class="cls-99" x1="1082.75" y1="365.98" x2="1082.75" y2="274.67"/><path class="cls-100" d="M1159.55,334.05h9m-36,6.09v-6.09h9m-15.21,121.74h6.21v-6.08m-124.25,6.08h6.21" transform="translate(-49.8 -71.55)"/><line class="cls-101" x1="1019.34" y1="154.79" x2="1248.03" y2="154.79"/><line class="cls-102" x1="1259.75" y1="172.63" x2="1259.75" y2="309.36"/><path class="cls-19" d="M1293.34,392.8h-5.41m21.62-5.95v5.95h-5.4m-.46-166.46h5.86v5.95m-258-9v3.05h5.86m-5.86-12.23v3.06" transform="translate(-49.8 -71.55)"/><line class="cls-103" x1="1257.56" y1="185.25" x2="1328.8" y2="185.25"/><line class="cls-104" x1="1341.75" y1="168.49" x2="1341.75" y2="151.73"/><path class="cls-105" d="M1391.55,217.7v-5.59m-6.48,44.69h6.48v-5.59m-103.62,5.59h6.48" transform="translate(-49.8 -71.55)"/><line class="cls-106" x1="1113.5" y1="226" x2="935.25" y2="226"/><path class="cls-19" d="M973.55,286.3v-3.75m5.75,15h-5.75V293.8m207,11.51v-7.76h-5.75" transform="translate(-49.8 -71.55)"/><line class="cls-107" x1="1118.75" y1="253.81" x2="1020.25" y2="253.81"/><line class="cls-108" x1="1051.75" y1="304.83" x2="1051.75" y2="264.76"/><path class="cls-19" d="M1101.55,330.58v-5.72m-8.37,68.69h8.37v-5.72m-33.5,5.72h8.38" transform="translate(-49.8 -71.55)"/><line class="cls-109" x1="1056.75" y1="493.06" x2="1056.75" y2="579.6"/><line class="cls-110" x1="1042.31" y1="591.14" x2="1027.88" y2="591.14"/><path class="cls-19" d="M1072.86,662.69h-4.81m38.5-5.77v5.77h-4.81m4.81-115.39v5.77" transform="translate(-49.8 -71.55)"/></g></svg>