<svg id="Ebene_1" data-name="Ebene 1" xmlns="http://www.w3.org/2000/svg" viewBox="0 0 1452.65 499.16"><defs><style>.cls-1{font-size:24px;}.cls-1,.cls-15{fill:#1d1d1b;font-family:NeueHaasUnicaW06-Regular;}.cls-2{letter-spacing:-0.02em;}.cls-3{letter-spacing:0.01em;}.cls-4{letter-spacing:-0.01em;}.cls-5{letter-spacing:-0.02em;}.cls-6{letter-spacing:0em;}.cls-7{letter-spacing:-0.02em;}.cls-8{letter-spacing:0em;}.cls-9{letter-spacing:-0.02em;}.cls-10{letter-spacing:0.01em;}.cls-11{letter-spacing:-0.01em;}.cls-12{letter-spacing:-0.02em;}.cls-13{letter-spacing:0em;}.cls-14{letter-spacing:0.02em;}.cls-15{font-size:18px;}.cls-16{letter-spacing:0.01em;}.cls-17{letter-spacing:0.01em;}.cls-18{letter-spacing:-0.01em;}.cls-19{letter-spacing:-0.02em;}.cls-20{letter-spacing:0.01em;}.cls-21{letter-spacing:-0.02em;}.cls-22{letter-spacing:0em;}.cls-23{letter-spacing:0.01em;}.cls-24{letter-spacing:-0.01em;}.cls-25{letter-spacing:0em;}.cls-26{letter-spacing:-0.02em;}.cls-27{letter-spacing:0.01em;}.cls-28{letter-spacing:0.01em;}.cls-29{letter-spacing:-0.01em;}.cls-30{letter-spacing:0em;}.cls-31{letter-spacing:-0.01em;}.cls-32{letter-spacing:-0.02em;}.cls-33{letter-spacing:-0.01em;}.cls-34{letter-spacing:0.02em;}.cls-35{letter-spacing:-0.04em;}.cls-36{letter-spacing:-0.02em;}.cls-37{letter-spacing:0em;}.cls-38{letter-spacing:0em;}.cls-39{letter-spacing:-0.01em;}.cls-40{letter-spacing:-0.09em;}.cls-41{letter-spacing:0em;}.cls-42{letter-spacing:-0.01em;}.cls-43{letter-spacing:-0.01em;}.cls-44{letter-spacing:-0.02em;}.cls-45{letter-spacing:-0.02em;}.cls-46{letter-spacing:-0.02em;}.cls-47{letter-spacing:0em;}.cls-48{letter-spacing:-0.02em;}.cls-49{letter-spacing:-0.03em;}.cls-50{letter-spacing:-0.03em;}.cls-51{letter-spacing:-0.07em;}.cls-52{letter-spacing:-0.01em;}.cls-53{letter-spacing:-0.03em;}.cls-54{letter-spacing:-0.02em;}.cls-55{letter-spacing:-0.02em;}.cls-56{letter-spacing:-0.04em;}.cls-57{letter-spacing:-0.01em;}</style></defs><title>3. Map Link</title><text class="cls-1" transform="translate(1.11 22.47)">demand <tspan class="cls-2" x="93.65" y="0">f</tspan><tspan x="100.61" y="0">or l</tspan><tspan class="cls-3" x="134.23" y="0">o</tspan><tspan x="148.03" y="0">cal m</tspan><tspan class="cls-4" x="205.68" y="0">a</tspan><tspan class="cls-5" x="218.18" y="0">t</tspan><tspan class="cls-6" x="225.48" y="0">erial</tspan></text><text class="cls-1" transform="translate(340.54 21.96)">surplus of ene<tspan class="cls-7" x="151.87" y="0">r</tspan><tspan class="cls-2" x="160.1" y="0">g</tspan><tspan x="173.49" y="0">y</tspan></text><text class="cls-1" transform="translate(644.5 22.47)"><tspan class="cls-3">e</tspan><tspan x="13.44" y="0">duc</tspan><tspan class="cls-4" x="53.9" y="0">a</tspan><tspan x="66.41" y="0">tion/industry</tspan></text><text class="cls-1" transform="translate(919.23 20.54)"><tspan class="cls-8">w</tspan><tspan x="18.38" y="0">as</tspan><tspan class="cls-9" x="42.98" y="0">t</tspan><tspan x="50.28" y="0">e manageme</tspan><tspan class="cls-4" x="189.89" y="0">n</tspan><tspan x="203.47" y="0">t</tspan></text><text class="cls-1" transform="translate(1248.12 22.47)"><tspan class="cls-10">p</tspan><tspan class="cls-11" x="14.06" y="0">o</tspan><tspan class="cls-9" x="27.48" y="0">t</tspan><tspan class="cls-6" x="34.78" y="0">e</tspan><tspan class="cls-4" x="47.97" y="0">n</tspan><tspan x="61.56" y="0">tial g</tspan><tspan class="cls-12" x="112.97" y="0">r</tspan><tspan class="cls-13" x="121.2" y="0">o</tspan><tspan class="cls-14" x="134.69" y="0">w</tspan><tspan x="153.65" y="0">th</tspan></text><text class="cls-15" transform="translate(0.11 81.83)"><tspan xml:space="preserve"> The u</tspan><tspan class="cls-16" x="49.7" y="0">s</tspan><tspan x="58.7" y="0">e of l</tspan><tspan class="cls-17" x="96.93" y="0">o</tspan><tspan x="107.28" y="0">cal m</tspan><tspan class="cls-18" x="150.51" y="0">a</tspan><tspan class="cls-19" x="159.89" y="0">t</tspan><tspan x="165.36" y="0">erial </tspan><tspan class="cls-20" x="204.26" y="0">s</tspan><tspan class="cls-21" x="213.42" y="0">a</tspan><tspan class="cls-22" x="222.67" y="0">v</tspan><tspan class="cls-23" x="231.08" y="0">e</tspan><tspan x="241.08" y="0">s </tspan><tspan class="cls-22" x="0" y="21.6">y</tspan><tspan x="8.44" y="21.6">ou </tspan><tspan class="cls-17" x="33.12" y="21.6">b</tspan><tspan class="cls-24" x="43.67" y="21.6">o</tspan><tspan x="53.73" y="21.6">th mon</tspan><tspan class="cls-25" x="110.07" y="21.6">e</tspan><tspan x="119.88" y="21.6">y and time. Shor</tspan><tspan x="248.76" y="21.6">-</tspan><tspan class="cls-19" x="0" y="43.2">t</tspan><tspan x="5.47" y="43.2">er t</tspan><tspan class="cls-26" x="31.79" y="43.2">r</tspan><tspan x="37.89" y="43.2">ans</tspan><tspan class="cls-27" x="66.71" y="43.2">p</tspan><tspan x="77.25" y="43.2">o</tspan><tspan class="cls-28" x="87.42" y="43.2">r</tspan><tspan x="94.16" y="43.2">t</tspan><tspan class="cls-29" x="99.92" y="43.2">a</tspan><tspan x="109.29" y="43.2">tion </tspan><tspan class="cls-30" x="144.12" y="43.2">w</tspan><tspan class="cls-19" x="157.91" y="43.2">a</tspan><tspan class="cls-31" x="167.18" y="43.2">y</tspan><tspan x="175.42" y="43.2">s means </tspan><tspan x="0" y="64.8">l</tspan><tspan class="cls-16" x="4.39" y="64.8">e</tspan><tspan x="14.4" y="64.8">ss emissions and a quic</tspan><tspan class="cls-32" x="204.76" y="64.8">k</tspan><tspan x="213.33" y="64.8">er </tspan><tspan class="cls-21" x="0" y="86.4">a</tspan><tspan class="cls-33" x="9.25" y="86.4">v</tspan><tspan x="17.51" y="86.4">ailabili</tspan><tspan class="cls-34" x="68.96" y="86.4">t</tspan><tspan class="cls-35" x="74.99" y="86.4">y</tspan><tspan x="82.82" y="86.4">. Fu</tspan><tspan class="cls-28" x="111.71" y="86.4">r</tspan><tspan x="118.44" y="86.4">thermo</tspan><tspan class="cls-36" x="176.68" y="86.4">r</tspan><tspan x="182.86" y="86.4">e it gi</tspan><tspan class="cls-22" x="225.89" y="86.4">v</tspan><tspan class="cls-23" x="234.3" y="86.4">e</tspan><tspan x="244.31" y="86.4">s </tspan><tspan x="0" y="108">the obj</tspan><tspan class="cls-17" x="55.19" y="108">e</tspan><tspan x="65.27" y="108">ct or the si</tspan><tspan class="cls-19" x="149.05" y="108">t</tspan><tspan x="154.52" y="108">e, the m</tspan><tspan class="cls-18" x="218.33" y="108">a</tspan><tspan class="cls-5" x="227.71" y="108">t</tspan><tspan class="cls-37" x="233.18" y="108">eri</tspan><tspan x="253.99" y="108">-</tspan><tspan x="0" y="129.6">al </tspan><tspan class="cls-38" x="18.09" y="129.6">w</tspan><tspan x="31.88" y="129.6">as u</tspan><tspan class="cls-16" x="64.83" y="129.6">s</tspan><tspan class="cls-17" x="73.83" y="129.6">e</tspan><tspan x="83.91" y="129.6">d </tspan><tspan class="cls-39" x="98.42" y="129.6">f</tspan><tspan x="103.64" y="129.6">or</tspan><tspan class="cls-40" x="120.33" y="129.6">/</tspan><tspan class="cls-18" x="126.93" y="129.6">a</tspan><tspan x="136.31" y="129.6">t a s</tspan><tspan class="cls-17" x="168.8" y="129.6">pe</tspan><tspan x="189.42" y="129.6">cial and </tspan><tspan x="0" y="151.2">l</tspan><tspan class="cls-17" x="4.39" y="151.2">o</tspan><tspan x="14.74" y="151.2">cal </tspan><tspan class="cls-19" x="42.44" y="151.2">t</tspan><tspan x="47.91" y="151.2">ouch, which is o</tspan><tspan class="cls-27" x="176.97" y="151.2">f</tspan><tspan class="cls-19" x="182.64" y="151.2">t</tspan><tspan x="188.12" y="151.2">en an </tspan><tspan x="0" y="172.8">ad</tspan><tspan class="cls-33" x="19.93" y="172.8">v</tspan><tspan class="cls-41" x="28.19" y="172.8">a</tspan><tspan class="cls-29" x="37.75" y="172.8">n</tspan><tspan x="47.93" y="172.8">tage </tspan><tspan class="cls-5" x="87.6" y="172.8">t</tspan><tspan x="93.08" y="172.8">o gene</tspan><tspan class="cls-26" x="147.87" y="172.8">r</tspan><tspan class="cls-29" x="153.97" y="172.8">a</tspan><tspan class="cls-5" x="163.35" y="172.8">t</tspan><tspan x="168.82" y="172.8">e higher </tspan><tspan class="cls-19" x="0" y="194.4">t</tspan><tspan x="5.47" y="194.4">ourism </tspan><tspan class="cls-18" x="65.48" y="194.4">n</tspan><tspan x="75.67" y="194.4">um</tspan><tspan class="cls-17" x="101.57" y="194.4">b</tspan><tspan x="112.12" y="194.4">e</tspan><tspan class="cls-42" x="122.02" y="194.4">r</tspan><tspan x="128.3" y="194.4">s.</tspan></text><text class="cls-15" transform="translate(295.21 82.37)"><tspan class="cls-43">F</tspan><tspan class="cls-42" x="10.21" y="0">a</tspan><tspan x="19.53" y="0">us</tspan><tspan class="cls-44" x="38.79" y="0">k</tspan><tspan x="47.36" y="0">e has the </tspan><tspan class="cls-22" x="124.52" y="0">v</tspan><tspan x="132.93" y="0">ery lu</tspan><tspan class="cls-33" x="176.74" y="0">x</tspan><tspan x="185.18" y="0">ury situa</tspan><tspan x="253.67" y="0">-</tspan><tspan x="0" y="21.6">tion of h</tspan><tspan class="cls-21" x="65" y="21.6">a</tspan><tspan x="74.25" y="21.6">ving a surplu of g</tspan><tspan class="cls-36" x="210.78" y="21.6">r</tspan><tspan class="cls-17" x="216.95" y="21.6">e</tspan><tspan x="227.03" y="21.6">en </tspan><tspan x="0" y="43.2">(</tspan><tspan class="cls-45" x="5.26" y="43.2">h</tspan><tspan class="cls-25" x="15.26" y="43.2">y</tspan><tspan x="23.67" y="43.2">d</tspan><tspan class="cls-46" x="34.04" y="43.2">r</tspan><tspan x="40.21" y="43.2">o</tspan><tspan class="cls-27" x="50.38" y="43.2">p</tspan><tspan class="cls-22" x="60.93" y="43.2">ow</tspan><tspan x="84.85" y="43.2">er-ba</tspan><tspan class="cls-16" x="126.59" y="43.2">s</tspan><tspan class="cls-17" x="135.59" y="43.2">e</tspan><tspan x="145.67" y="43.2">d) ene</tspan><tspan class="cls-36" x="195.6" y="43.2">r</tspan><tspan class="cls-39" x="201.78" y="43.2">g</tspan><tspan class="cls-35" x="211.82" y="43.2">y</tspan><tspan x="219.65" y="43.2">. No</tspan><tspan x="251.62" y="43.2">-</tspan><tspan class="cls-38" x="0" y="64.8">w</tspan><tspan x="13.79" y="64.8">ad</tspan><tspan class="cls-5" x="33.71" y="64.8">a</tspan><tspan x="42.98" y="64.8">y s, ene</tspan><tspan class="cls-46" x="102.89" y="64.8">r</tspan><tspan class="cls-39" x="109.06" y="64.8">g</tspan><tspan x="119.1" y="64.8">y g</tspan><tspan class="cls-43" x="142.05" y="64.8">e</tspan><tspan x="151.84" y="64.8">ts a mo</tspan><tspan class="cls-36" x="210.04" y="64.8">r</tspan><tspan x="216.21" y="64.8">e and </tspan><tspan x="0" y="86.4">mo</tspan><tspan class="cls-36" x="25.7" y="86.4">r</tspan><tspan x="31.88" y="86.4">e </tspan><tspan class="cls-18" x="45.92" y="86.4">e</tspan><tspan x="55.64" y="86.4">x</tspan><tspan class="cls-17" x="64.28" y="86.4">p</tspan><tspan x="74.82" y="86.4">ensi</tspan><tspan class="cls-22" x="108.38" y="86.4">v</tspan><tspan x="116.78" y="86.4">e </tspan><tspan class="cls-17" x="130.82" y="86.4">be</tspan><tspan class="cls-16" x="151.45" y="86.4">c</tspan><tspan x="161.17" y="86.4">oming </tspan><tspan class="cls-36" x="216.08" y="86.4">r</tspan><tspan x="222.26" y="86.4">e</tspan><tspan x="232.16" y="86.4">-</tspan><tspan class="cls-16" x="0" y="108">s</tspan><tspan x="9" y="108">ou</tspan><tspan class="cls-46" x="29.54" y="108">r</tspan><tspan class="cls-16" x="35.71" y="108">c</tspan><tspan x="45.43" y="108">e and the whole </tspan><tspan class="cls-22" x="176.9" y="108">w</tspan><tspan x="190.71" y="108">orld tri</tspan><tspan class="cls-23" x="242.96" y="108">e</tspan><tspan x="252.96" y="108">s </tspan><tspan class="cls-19" x="0" y="129.6">t</tspan><tspan x="5.47" y="129.6" xml:space="preserve">o  m</tspan><tspan class="cls-17" x="39.46" y="129.6">e</tspan><tspan class="cls-24" x="49.53" y="129.6">e</tspan><tspan x="59.33" y="129.6">t th</tspan><tspan class="cls-18" x="85.35" y="129.6">a</tspan><tspan x="94.73" y="129.6">t g</tspan><tspan class="cls-36" x="114.94" y="129.6">r</tspan><tspan class="cls-47" x="121.12" y="129.6">o</tspan><tspan x="131.23" y="129.6">wing demand </tspan><tspan x="0" y="151.2">without emmitting </tspan><tspan class="cls-19" x="150.91" y="151.2">t</tspan><tspan class="cls-17" x="156.38" y="151.2">o</tspan><tspan x="166.73" y="151.2">o </tspan><tspan class="cls-18" x="181.04" y="151.2">m</tspan><tspan x="196.39" y="151.2">uch </tspan><tspan x="0" y="172.8">g</tspan><tspan class="cls-36" x="10.31" y="172.8">r</tspan><tspan class="cls-17" x="16.49" y="172.8">e</tspan><tspan x="26.57" y="172.8">enhou</tspan><tspan class="cls-16" x="77.74" y="172.8">s</tspan><tspan x="86.74" y="172.8">e ga</tspan><tspan class="cls-23" x="120.65" y="172.8">se</tspan><tspan x="139.66" y="172.8" xml:space="preserve">s.  So w</tspan><tspan class="cls-48" x="200.03" y="172.8">h</tspan><tspan x="210.04" y="172.8">y n</tspan><tspan class="cls-24" x="233.04" y="172.8">o</tspan><tspan x="243.1" y="172.8">t </tspan><tspan x="0" y="194.4">u</tspan><tspan class="cls-16" x="10.37" y="194.4">s</tspan><tspan x="19.37" y="194.4">e the ene</tspan><tspan class="cls-46" x="93.74" y="194.4">r</tspan><tspan class="cls-39" x="99.91" y="194.4">g</tspan><tspan x="109.96" y="194.4">y wi</tspan><tspan class="cls-23" x="140.85" y="194.4">s</tspan><tspan x="149.84" y="194.4">ely </tspan><tspan class="cls-5" x="176.77" y="194.4">t</tspan><tspan x="182.24" y="194.4">o </tspan><tspan class="cls-23" x="196.55" y="194.4">s</tspan><tspan class="cls-17" x="205.55" y="194.4">e</tspan><tspan x="215.63" y="194.4">cu</tspan><tspan class="cls-36" x="235.61" y="194.4">r</tspan><tspan x="241.79" y="194.4">e </tspan><tspan x="0" y="216">no</tspan><tspan class="cls-28" x="20.54" y="216">r</tspan><tspan x="27.27" y="216">thern-no</tspan><tspan class="cls-36" x="96.12" y="216">r</tspan><tspan x="102.29" y="216">dic cultu</tspan><tspan class="cls-36" x="171.3" y="216">r</tspan><tspan class="cls-49" x="177.48" y="216">e</tspan><tspan class="cls-50" x="186.84" y="216">?</tspan></text><text class="cls-15" transform="translate(609.77 82.8)">The link <tspan class="cls-17" x="67.48" y="0">b</tspan><tspan class="cls-24" x="78.03" y="0">e</tspan><tspan class="cls-17" x="87.82" y="0">t</tspan><tspan class="cls-22" x="93.76" y="0">w</tspan><tspan class="cls-17" x="107.57" y="0">e</tspan><tspan x="117.64" y="0">en </tspan><tspan class="cls-17" x="142.05" y="0">e</tspan><tspan x="152.13" y="0">duc</tspan><tspan class="cls-18" x="182.48" y="0">a</tspan><tspan x="191.86" y="0">tion and </tspan><tspan x="0" y="21.6">industry </tspan><tspan class="cls-19" x="69.3" y="21.6">t</tspan><tspan class="cls-17" x="74.77" y="21.6">o</tspan><tspan x="85.12" y="21.6">d</tspan><tspan class="cls-5" x="95.49" y="21.6">a</tspan><tspan x="104.76" y="21.6">y is mo</tspan><tspan class="cls-36" x="160.52" y="21.6">r</tspan><tspan x="166.7" y="21.6">e im</tspan><tspan class="cls-17" x="200.66" y="21.6">p</tspan><tspan x="211.21" y="21.6">o</tspan><tspan class="cls-28" x="221.38" y="21.6">r</tspan><tspan x="228.11" y="21.6">tn</tspan><tspan class="cls-18" x="244.24" y="21.6">a</tspan><tspan x="253.62" y="21.6">t </tspan><tspan x="0" y="43.2">than sin</tspan><tspan class="cls-16" x="63.84" y="43.2">c</tspan><tspan x="73.57" y="43.2">e </tspan><tspan class="cls-47" x="87.6" y="43.2">ev</tspan><tspan x="105.86" y="43.2">e</tspan><tspan class="cls-51" x="115.75" y="43.2">r</tspan><tspan x="120.99" y="43.2">. </tspan><tspan class="cls-52" x="129.2" y="43.2">L</tspan><tspan class="cls-17" x="139.06" y="43.2">o</tspan><tspan class="cls-41" x="149.41" y="43.2">cal s</tspan><tspan class="cls-17" x="186.01" y="43.2">pe</tspan><tspan x="206.63" y="43.2">cific </tspan><tspan x="0" y="64.8">jobs and an early </tspan><tspan class="cls-16" x="139.55" y="64.8">c</tspan><tspan x="149.27" y="64.8">onn</tspan><tspan class="cls-17" x="180.18" y="64.8">e</tspan><tspan x="190.26" y="64.8">ction </tspan><tspan class="cls-17" x="0" y="86.4">b</tspan><tspan class="cls-24" x="10.55" y="86.4">e</tspan><tspan class="cls-17" x="20.34" y="86.4">t</tspan><tspan class="cls-22" x="26.28" y="86.4">w</tspan><tspan class="cls-17" x="40.08" y="86.4">e</tspan><tspan x="50.16" y="86.4">en the </tspan><tspan class="cls-17" x="104.74" y="86.4">t</tspan><tspan class="cls-22" x="110.68" y="86.4">w</tspan><tspan x="124.48" y="86.4">o </tspan><tspan class="cls-16" x="138.79" y="86.4">s</tspan><tspan class="cls-17" x="147.79" y="86.4">e</tspan><tspan x="157.87" y="86.4">c</tspan><tspan class="cls-19" x="167.48" y="86.4">t</tspan><tspan x="172.96" y="86.4">o</tspan><tspan class="cls-42" x="183.13" y="86.4">r</tspan><tspan x="189.41" y="86.4">s lin</tspan><tspan class="cls-53" x="221.59" y="86.4">k</tspan><tspan x="230.14" y="86.4">s </tspan><tspan x="0" y="108">the </tspan><tspan class="cls-17" x="30.17" y="108">pe</tspan><tspan x="50.79" y="108">ople mo</tspan><tspan class="cls-36" x="115.47" y="108">r</tspan><tspan x="121.64" y="108">e </tspan><tspan class="cls-5" x="135.68" y="108">t</tspan><tspan x="141.15" y="108">o their home</tspan><tspan x="242.51" y="108">-</tspan><tspan class="cls-19" x="0" y="129.6">t</tspan><tspan class="cls-22" x="5.47" y="129.6">o</tspan><tspan x="15.59" y="129.6">wn and p</tspan><tspan class="cls-36" x="88.76" y="129.6">r</tspan><tspan class="cls-22" x="94.93" y="129.6">o</tspan><tspan x="105.05" y="129.6">vid</tspan><tspan class="cls-23" x="128.27" y="129.6">e</tspan><tspan x="138.27" y="129.6">s s</tspan><tspan class="cls-27" x="160.2" y="129.6">pe</tspan><tspan x="180.82" y="129.6">ciali</tspan><tspan class="cls-52" x="213.17" y="129.6">z</tspan><tspan class="cls-27" x="221.38" y="129.6">e</tspan><tspan x="231.46" y="129.6">d </tspan><tspan class="cls-22" x="0" y="151.2">w</tspan><tspan x="13.81" y="151.2">or</tspan><tspan class="cls-18" x="30.49" y="151.2">k</tspan><tspan class="cls-54" x="39.31" y="151.2">f</tspan><tspan x="44.53" y="151.2">o</tspan><tspan class="cls-36" x="54.7" y="151.2">r</tspan><tspan class="cls-16" x="60.88" y="151.2">c</tspan><tspan x="70.6" y="151.2">e. Ex</tspan><tspan class="cls-17" x="108.47" y="151.2">p</tspan><tspan x="119.01" y="151.2">erien</tspan><tspan class="cls-23" x="160.09" y="151.2">c</tspan><tspan class="cls-27" x="169.81" y="151.2">e</tspan><tspan x="179.89" y="151.2">d </tspan><tspan class="cls-17" x="194.4" y="151.2">pe</tspan><tspan x="215.02" y="151.2">ople, </tspan><tspan x="0" y="172.8">who can gi</tspan><tspan class="cls-22" x="86.92" y="172.8">v</tspan><tspan x="95.33" y="172.8">e their </tspan><tspan class="cls-18" x="150.44" y="172.8">k</tspan><tspan x="159.26" y="172.8">n</tspan><tspan class="cls-22" x="169.63" y="172.8">o</tspan><tspan x="179.75" y="172.8">wl</tspan><tspan class="cls-17" x="198" y="172.8">e</tspan><tspan x="208.08" y="172.8">dge </tspan><tspan class="cls-19" x="242.8" y="172.8">t</tspan><tspan x="248.27" y="172.8">o </tspan><tspan x="0" y="194.4">the </tspan><tspan class="cls-39" x="30.17" y="194.4">f</tspan><tspan x="35.39" y="194.4">oll</tspan><tspan class="cls-47" x="54.34" y="194.4">o</tspan><tspan x="64.46" y="194.4">wing gene</tspan><tspan class="cls-55" x="148.01" y="194.4">r</tspan><tspan class="cls-29" x="154.11" y="194.4">a</tspan><tspan x="163.49" y="194.4">tions is cru</tspan><tspan x="251.13" y="194.4">-</tspan><tspan x="0" y="216">cial </tspan><tspan class="cls-39" x="32.09" y="216">f</tspan><tspan x="37.31" y="216">or the surviving of l</tspan><tspan class="cls-17" x="188.8" y="216">o</tspan><tspan x="199.15" y="216">cal </tspan><tspan x="0" y="237.6">industri</tspan><tspan class="cls-16" x="61.05" y="237.6">e</tspan><tspan x="71.06" y="237.6">s.</tspan></text><text class="cls-15" transform="translate(891.64 84.2)">The Marble industry p<tspan class="cls-36" x="176.54" y="0">r</tspan><tspan class="cls-17" x="182.71" y="0">o</tspan><tspan x="193.06" y="0">du</tspan><tspan class="cls-16" x="213.8" y="0">ce</tspan><tspan x="233.53" y="0">s </tspan><tspan x="0" y="21.6">la</tspan><tspan class="cls-36" x="13.95" y="21.6">r</tspan><tspan x="20.12" y="21.6">ge amou</tspan><tspan class="cls-18" x="90.11" y="21.6">n</tspan><tspan x="100.29" y="21.6">t of </tspan><tspan class="cls-38" x="129.99" y="21.6">w</tspan><tspan x="143.78" y="21.6">as</tspan><tspan class="cls-19" x="162.23" y="21.6">t</tspan><tspan x="167.7" y="21.6">e during </tspan><tspan x="0" y="43.2">mining and p</tspan><tspan class="cls-36" x="104.31" y="43.2">r</tspan><tspan class="cls-17" x="110.48" y="43.2">o</tspan><tspan class="cls-16" x="120.83" y="43.2">ce</tspan><tspan x="140.56" y="43.2">ssing stag</tspan><tspan class="cls-16" x="222.08" y="43.2">e</tspan><tspan x="232.09" y="43.2">s. </tspan><tspan x="0" y="64.8">This </tspan><tspan class="cls-38" x="38.57" y="64.8">w</tspan><tspan x="52.36" y="64.8">as</tspan><tspan class="cls-5" x="70.81" y="64.8">t</tspan><tspan x="76.28" y="64.8">e is dum</tspan><tspan class="cls-17" x="144.01" y="64.8">pe</tspan><tspan x="164.64" y="64.8">d on </tspan><tspan class="cls-19" x="203.83" y="64.8">t</tspan><tspan x="209.3" y="64.8">o </tspan><tspan x="0" y="86.4">o</tspan><tspan class="cls-17" x="10.17" y="86.4">p</tspan><tspan x="20.72" y="86.4">en land which c</tspan><tspan class="cls-36" x="146.3" y="86.4">r</tspan><tspan x="152.48" y="86.4">e</tspan><tspan class="cls-18" x="162.38" y="86.4">a</tspan><tspan class="cls-19" x="171.75" y="86.4">t</tspan><tspan class="cls-16" x="177.22" y="86.4">e</tspan><tspan x="187.23" y="86.4">s a l</tspan><tspan class="cls-43" x="218.35" y="86.4">o</tspan><tspan x="228.41" y="86.4">t of </tspan><tspan x="0" y="108">e</tspan><tspan class="cls-45" x="9.9" y="108">n</tspan><tspan x="19.91" y="108">vi</tspan><tspan class="cls-46" x="32.76" y="108">r</tspan><tspan x="38.93" y="108">onme</tspan><tspan class="cls-18" x="84.9" y="108">n</tspan><tspan x="95.09" y="108">tal p</tspan><tspan class="cls-36" x="129.31" y="108">r</tspan><tspan x="135.48" y="108" xml:space="preserve">oblems.  N</tspan><tspan class="cls-24" x="220.68" y="108">o</tspan><tspan x="230.74" y="108">t </tspan><tspan x="0" y="129.6" xml:space="preserve">only  </tspan><tspan class="cls-39" x="41.71" y="129.6">f</tspan><tspan x="46.93" y="129.6">or </tspan><tspan class="cls-17" x="67.75" y="129.6">e</tspan><tspan class="cls-23" x="77.83" y="129.6">c</tspan><tspan x="87.55" y="129.6">ol</tspan><tspan class="cls-17" x="102.11" y="129.6">o</tspan><tspan x="112.46" y="129.6">gical </tspan><tspan class="cls-46" x="154.87" y="129.6">r</tspan><tspan x="161.04" y="129.6">ea</tspan><tspan class="cls-16" x="180.5" y="129.6">s</tspan><tspan x="189.5" y="129.6">ons, but </tspan><tspan x="0" y="151.2">al</tspan><tspan class="cls-16" x="13.95" y="151.2">s</tspan><tspan x="22.95" y="151.2">o in </tspan><tspan class="cls-19" x="56.16" y="151.2">t</tspan><tspan x="61.63" y="151.2">erms of </tspan><tspan class="cls-36" x="126.41" y="151.2">r</tspan><tspan x="132.58" y="151.2" xml:space="preserve">eusing  the </tspan><tspan class="cls-47" x="225.26" y="151.2">v</tspan><tspan class="cls-41" x="233.67" y="151.2">ery </tspan><tspan x="0" y="172.8">s</tspan><tspan class="cls-17" x="8.89" y="172.8">pe</tspan><tspan x="29.52" y="172.8">cial and l</tspan><tspan class="cls-27" x="100.44" y="172.8">o</tspan><tspan x="110.79" y="172.8">cal m</tspan><tspan class="cls-29" x="154.02" y="172.8">a</tspan><tspan class="cls-5" x="163.4" y="172.8">t</tspan><tspan x="168.87" y="172.8">erial, the </tspan><tspan x="0" y="194.4">p</tspan><tspan class="cls-36" x="10.37" y="194.4">r</tspan><tspan x="16.54" y="194.4">olong</tspan><tspan class="cls-18" x="61.96" y="194.4">a</tspan><tspan x="71.33" y="194.4">tion of the s</tspan><tspan class="cls-19" x="165.02" y="194.4">t</tspan><tspan x="170.49" y="194.4">one</tspan><tspan class="cls-56" x="200.93" y="194.4">’</tspan><tspan x="204.48" y="194.4">s </tspan><tspan x="0" y="216">li</tspan><tspan class="cls-39" x="8.78" y="216">f</tspan><tspan class="cls-17" x="14" y="216">e</tspan><tspan class="cls-57" x="24.08" y="216">c</tspan><tspan class="cls-22" x="33.53" y="216">y</tspan><tspan x="41.98" y="216">cle is highly demand</tspan><tspan class="cls-17" x="206.01" y="216">e</tspan><tspan x="216.08" y="216">d. </tspan></text><text class="cls-15" transform="translate(1187.6 84.2)">The st<tspan class="cls-18" x="49.84" y="0">a</tspan><tspan class="cls-19" x="59.22" y="0">t</tspan><tspan x="64.69" y="0">e of Nor</tspan><tspan class="cls-38" x="128.8" y="0">w</tspan><tspan class="cls-5" x="142.59" y="0">a</tspan><tspan x="151.86" y="0">y </tspan><tspan class="cls-38" x="164.5" y="0">w</tspan><tspan x="178.28" y="0">a</tspan><tspan class="cls-18" x="187.84" y="0">n</tspan><tspan x="198.03" y="0">ts the </tspan><tspan x="0" y="21.6">an</tspan><tspan class="cls-18" x="19.93" y="21.6">n</tspan><tspan x="30.11" y="21.6">ual p</tspan><tspan class="cls-36" x="68.94" y="21.6">r</tspan><tspan class="cls-17" x="75.11" y="21.6">o</tspan><tspan x="85.46" y="21.6">duction </tspan><tspan class="cls-22" x="150.64" y="21.6">v</tspan><tspan x="159.05" y="21.6">olume of </tspan><tspan class="cls-22" x="0" y="43.2">A</tspan><tspan x="12.1" y="43.2">quacultu</tspan><tspan class="cls-36" x="82.89" y="43.2">r</tspan><tspan x="89.06" y="43.2">e </tspan><tspan class="cls-19" x="103.1" y="43.2">t</tspan><tspan x="108.57" y="43.2">o </tspan><tspan class="cls-18" x="122.88" y="43.2">a</tspan><tspan x="132.26" y="43.2">t least qui</tspan><tspan class="cls-18" x="209.93" y="43.2">n</tspan><tspan x="220.12" y="43.2">tuple </tspan><tspan x="0" y="64.8">u</tspan><tspan class="cls-18" x="10.37" y="64.8">n</tspan><tspan x="20.56" y="64.8">til 2050. Some think th</tspan><tspan class="cls-18" x="198.77" y="64.8">a</tspan><tspan x="208.15" y="64.8">t this </tspan><tspan x="0" y="86.4">is an u</tspan><tspan class="cls-19" x="51.86" y="86.4">t</tspan><tspan x="57.33" y="86.4">opic aim, but n</tspan><tspan class="cls-22" x="174.71" y="86.4">ev</tspan><tspan x="192.96" y="86.4">e</tspan><tspan class="cls-28" x="202.86" y="86.4">r</tspan><tspan x="209.59" y="86.4">the</tspan><tspan x="235.62" y="86.4">-</tspan><tspan x="0" y="108">l</tspan><tspan class="cls-16" x="4.39" y="108">e</tspan><tspan x="14.4" y="108">ss, the </tspan><tspan class="cls-38" x="70.56" y="108">w</tspan><tspan class="cls-18" x="84.35" y="108">a</tspan><tspan class="cls-19" x="93.72" y="108">t</tspan><tspan x="99.19" y="108">e</tspan><tspan class="cls-42" x="109.09" y="108">r</tspan><tspan x="115.38" y="108">s with the high</tspan><tspan class="cls-23" x="232.54" y="108">e</tspan><tspan x="242.54" y="108">st </tspan><tspan x="0" y="129.6">quali</tspan><tspan class="cls-20" x="39.08" y="129.6">t</tspan><tspan x="45.11" y="129.6">y and m</tspan><tspan class="cls-16" x="107.71" y="129.6">o</tspan><tspan x="117.99" y="129.6">st suitable </tspan><tspan class="cls-39" x="204.55" y="129.6">f</tspan><tspan x="209.77" y="129.6">or fish </tspan><tspan class="cls-19" x="0" y="151.2">f</tspan><tspan x="5.2" y="151.2">arming a</tspan><tspan class="cls-36" x="75.58" y="151.2">r</tspan><tspan x="81.75" y="151.2">e l</tspan><tspan class="cls-17" x="100.18" y="151.2">o</tspan><tspan x="110.53" y="151.2">c</tspan><tspan class="cls-18" x="120.15" y="151.2">a</tspan><tspan class="cls-19" x="129.52" y="151.2">t</tspan><tspan class="cls-27" x="135" y="151.2">e</tspan><tspan x="145.08" y="151.2">d in Nor</tspan><tspan class="cls-38" x="208.76" y="151.2">w</tspan><tspan class="cls-19" x="222.55" y="151.2">a</tspan><tspan class="cls-35" x="231.81" y="151.2">y</tspan><tspan x="239.65" y="151.2">. </tspan><tspan class="cls-42" x="0" y="172.8">E</tspan><tspan x="10.89" y="172.8">s</tspan><tspan class="cls-17" x="19.78" y="172.8">pe</tspan><tspan x="40.41" y="172.8">cially </tspan><tspan class="cls-24" x="85.39" y="172.8">F</tspan><tspan class="cls-52" x="95.6" y="172.8">a</tspan><tspan x="104.92" y="172.8">us</tspan><tspan class="cls-44" x="124.18" y="172.8">k</tspan><tspan x="132.75" y="172.8">e is </tspan><tspan class="cls-16" x="164.21" y="172.8">c</tspan><tspan x="173.93" y="172.8">onn</tspan><tspan class="cls-17" x="204.84" y="172.8">e</tspan><tspan x="214.91" y="172.8">c</tspan><tspan class="cls-19" x="224.53" y="172.8">t</tspan><tspan class="cls-17" x="230" y="172.8">e</tspan><tspan x="240.08" y="172.8">d </tspan><tspan class="cls-19" x="0" y="194.4">t</tspan><tspan x="5.47" y="194.4">o Skje</tspan><tspan class="cls-42" x="54.12" y="194.4">r</tspan><tspan x="60.41" y="194.4">stadfjo</tspan><tspan class="cls-36" x="115.13" y="194.4">r</tspan><tspan x="121.3" y="194.4">den th</tspan><tspan class="cls-18" x="172.2" y="194.4">a</tspan><tspan x="181.58" y="194.4">t is n</tspan><tspan class="cls-43" x="219.27" y="194.4">o</tspan><tspan x="229.33" y="194.4">t </tspan><tspan class="cls-18" x="0" y="216">e</tspan><tspan x="9.72" y="216">xploi</tspan><tspan class="cls-19" x="47.68" y="216">t</tspan><tspan class="cls-17" x="53.15" y="216">e</tspan><tspan x="63.23" y="216">d within its full </tspan><tspan class="cls-17" x="182.98" y="216">p</tspan><tspan class="cls-24" x="193.53" y="216">o</tspan><tspan class="cls-19" x="203.59" y="216">t</tspan><tspan x="209.06" y="216">e</tspan><tspan class="cls-18" x="218.96" y="216">n</tspan><tspan x="229.15" y="216">tial. </tspan></text></svg>