<svg id="Ebene_1" data-name="Ebene 1" xmlns="http://www.w3.org/2000/svg" xmlns:xlink="http://www.w3.org/1999/xlink" viewBox="0 0 1352.97 531"><defs><style>.cls-1,.cls-9{fill:none;}.cls-2{clip-path:url(#clip-path);}.cls-3{font-size:18px;font-family:NeueHaasUnicaW06-Regular;}.cls-3,.cls-57{fill:#1d1d1b;}.cls-4{letter-spacing:-0.02em;}.cls-5{letter-spacing:0.01em;}.cls-6{letter-spacing:-0.01em;}.cls-7{letter-spacing:-0.01em;}.cls-8{letter-spacing:0em;}.cls-9{stroke:#1d1d1b;stroke-width:0.5px;}.cls-10{letter-spacing:0.01em;}.cls-11{letter-spacing:0em;}.cls-12{letter-spacing:-0.01em;}.cls-13{letter-spacing:-0.02em;}.cls-14{letter-spacing:-0.01em;}.cls-15{letter-spacing:0em;}.cls-16{letter-spacing:-0.02em;}.cls-17{letter-spacing:0em;}.cls-18{letter-spacing:-0.01em;}.cls-19{letter-spacing:0em;}.cls-20{letter-spacing:-0.02em;}.cls-21{letter-spacing:0em;}.cls-22{letter-spacing:0.02em;}.cls-23{letter-spacing:0.01em;}.cls-24{letter-spacing:0.02em;}.cls-25{letter-spacing:-0.02em;}.cls-26{letter-spacing:0.01em;}.cls-27{letter-spacing:0em;}.cls-28{letter-spacing:-0.01em;}.cls-29{letter-spacing:0.01em;}.cls-30{letter-spacing:-0.02em;}.cls-31{letter-spacing:0.01em;}.cls-32{letter-spacing:0.01em;}.cls-33{letter-spacing:-0.01em;}.cls-34{letter-spacing:-0.01em;}.cls-35{letter-spacing:0em;}.cls-36{letter-spacing:-0.02em;}.cls-37{letter-spacing:0.01em;}.cls-38{letter-spacing:-0.04em;}.cls-39{letter-spacing:-0.02em;}.cls-40{letter-spacing:0em;}.cls-41{letter-spacing:-0.02em;}.cls-42{letter-spacing:-0.09em;}.cls-43{letter-spacing:0em;}.cls-44{letter-spacing:-0.01em;}.cls-45{letter-spacing:0.22em;}.cls-46{letter-spacing:0.22em;}.cls-47{letter-spacing:0.22em;}.cls-48{letter-spacing:0.01em;}.cls-49{letter-spacing:0em;}.cls-50{letter-spacing:0.33em;}.cls-51{letter-spacing:0.33em;}.cls-52{letter-spacing:-0.02em;}.cls-53{letter-spacing:0.49em;}.cls-54{letter-spacing:0.49em;}.cls-55{letter-spacing:0em;}.cls-56{letter-spacing:-0.07em;}.cls-58{letter-spacing:0.72em;}.cls-59{letter-spacing:0.01em;}.cls-60{letter-spacing:0.72em;}.cls-61{letter-spacing:0.01em;}.cls-62{letter-spacing:0em;}.cls-63{letter-spacing:0.55em;}.cls-64{letter-spacing:0.55em;}.cls-65{letter-spacing:0.01em;}.cls-66{letter-spacing:-0.01em;}.cls-67{letter-spacing:0.55em;}.cls-68{letter-spacing:-0.03em;}.cls-69{letter-spacing:0.55em;}.cls-70{letter-spacing:0.23em;}.cls-71{letter-spacing:0.23em;}.cls-72{letter-spacing:0.38em;}.cls-73{letter-spacing:0.37em;}.cls-74{letter-spacing:-0.02em;}.cls-75{letter-spacing:0.38em;}.cls-76{letter-spacing:0.19em;}.cls-77{letter-spacing:0.34em;}.cls-78{letter-spacing:0.34em;}.cls-79{letter-spacing:0.34em;}.cls-80{letter-spacing:0.34em;}.cls-81{letter-spacing:0.35em;}.cls-82{letter-spacing:0.35em;}.cls-83{letter-spacing:0em;}.cls-84{letter-spacing:0.1em;}.cls-85{letter-spacing:-0.03em;}.cls-86{letter-spacing:-0.03em;}.cls-87{letter-spacing:-0.03em;}.cls-88{letter-spacing:-0.03em;}.cls-89{letter-spacing:0.41em;}.cls-90{letter-spacing:0.41em;}.cls-91{letter-spacing:0.01em;}.cls-92{letter-spacing:-0.03em;}.cls-93{letter-spacing:-0.03em;}.cls-94{letter-spacing:-0.03em;}.cls-95{letter-spacing:0.24em;}.cls-96{letter-spacing:0.33em;}.cls-97{letter-spacing:-0.01em;}.cls-98{letter-spacing:-0.02em;}.cls-99{letter-spacing:0.09em;}.cls-100{letter-spacing:0.09em;}.cls-101{letter-spacing:-0.01em;}.cls-102{letter-spacing:0.09em;}.cls-103{letter-spacing:0.01em;}.cls-104{letter-spacing:0.31em;}.cls-105{letter-spacing:0.31em;}.cls-106{letter-spacing:0.36em;}.cls-107{letter-spacing:0.35em;}.cls-108{letter-spacing:-0.05em;}.cls-109{letter-spacing:-0.05em;}.cls-110{letter-spacing:-0.05em;}.cls-111{letter-spacing:0.04em;}.cls-112{letter-spacing:0.04em;}.cls-113{letter-spacing:-0.04em;}.cls-114{letter-spacing:-0.01em;}.cls-115{letter-spacing:-0.01em;}.cls-116{letter-spacing:0.33em;}.cls-117{letter-spacing:0.33em;}.cls-118{letter-spacing:0.27em;}.cls-119{letter-spacing:0.27em;}.cls-120{letter-spacing:0.07em;}.cls-121{letter-spacing:-0.02em;}.cls-122{letter-spacing:0em;}.cls-123{letter-spacing:0.38em;}.cls-124{letter-spacing:0.38em;}.cls-125{letter-spacing:0.01em;}.cls-126{letter-spacing:0.14em;}.cls-127{letter-spacing:0.14em;}.cls-128{letter-spacing:-0.03em;}.cls-129{letter-spacing:-0.03em;}.cls-130{letter-spacing:0.3em;}.cls-131{letter-spacing:0.36em;}.cls-132{letter-spacing:0.36em;}.cls-133{letter-spacing:0.36em;}.cls-134{letter-spacing:0.15em;}.cls-135{letter-spacing:0.15em;}.cls-136{letter-spacing:0.15em;}.cls-137{letter-spacing:0em;}.cls-138{letter-spacing:-0.01em;}.cls-139{letter-spacing:0.01em;}.cls-140{letter-spacing:-0.04em;}.cls-141{letter-spacing:-0.02em;}.cls-142{letter-spacing:0em;}</style><clipPath id="clip-path" transform="translate(-59.8 -61.57)"><rect class="cls-1" x="-0.2" y="-0.43" width="1505" height="804"/></clipPath></defs><title>3.3</title><g class="cls-2"><text class="cls-3" transform="translate(71.68 21.49)">demand <tspan class="cls-4" x="70.23" y="0">f</tspan><tspan x="75.45" y="0">or </tspan></text><text class="cls-3" transform="translate(63.96 43.09)">l<tspan class="cls-5" x="4.39" y="0">o</tspan><tspan x="14.74" y="0">cal m</tspan><tspan class="cls-6" x="57.98" y="0">a</tspan><tspan class="cls-7" x="67.35" y="0">t</tspan><tspan class="cls-8" x="72.84" y="0">erial</tspan></text><rect class="cls-9" x="59" y="0.25" width="117.5" height="48.5"/><text class="cls-3" transform="translate(631.33 21.49)"><tspan class="cls-10">e</tspan><tspan class="cls-11" x="10.08" y="0">duc</tspan><tspan class="cls-12" x="40.43" y="0">a</tspan><tspan x="49.81" y="0">tion/</tspan></text><text class="cls-3" transform="translate(643.11 43.09)">indsutry</text><rect class="cls-9" x="616.94" y="0.25" width="117.5" height="48.5"/><text class="cls-3" transform="translate(366.82 21.49)">surplus </text><text class="cls-3" transform="translate(369.28 43.09)">ene<tspan class="cls-13" x="30.17" y="0">r</tspan><tspan class="cls-14" x="36.34" y="0">g</tspan><tspan x="46.4" y="0">y</tspan></text><rect class="cls-9" x="337.97" y="0.25" width="117.5" height="48.5"/><text class="cls-3" transform="translate(930.85 21.49)"><tspan class="cls-15">w</tspan><tspan x="13.81" y="0">as</tspan><tspan class="cls-16" x="32.26" y="0">t</tspan><tspan class="cls-17" x="37.75" y="0">e </tspan></text><text class="cls-3" transform="translate(982.6 21.49)"> </text><text class="cls-3" transform="translate(901.35 43.09)">manageme<tspan class="cls-18" x="90.67" y="0">n</tspan><tspan x="100.85" y="0">t</tspan></text><rect class="cls-9" x="895.91" y="0.25" width="117.5" height="48.5"/><text class="cls-3" transform="translate(1198.49 21.49)"><tspan class="cls-10">p</tspan><tspan class="cls-19" x="10.55" y="0">o</tspan><tspan class="cls-16" x="20.63" y="0">t</tspan><tspan class="cls-17" x="26.12" y="0">e</tspan><tspan class="cls-18" x="36.02" y="0">n</tspan><tspan x="46.21" y="0">tial </tspan></text><text class="cls-3" transform="translate(1205.15 43.09)">g<tspan class="cls-20" x="10.31" y="0">r</tspan><tspan class="cls-21" x="16.49" y="0">o</tspan><tspan class="cls-22" x="26.62" y="0">w</tspan><tspan x="40.84" y="0">th</tspan></text><rect class="cls-9" x="1174.88" y="0.25" width="117.5" height="48.5"/><text class="cls-3" transform="translate(17.69 109.99)"><tspan xml:space="preserve"> The u</tspan><tspan class="cls-23" x="49.7" y="0">s</tspan><tspan class="cls-8" x="58.68" y="0">e of l</tspan><tspan class="cls-10" x="96.91" y="0">o</tspan><tspan x="107.26" y="0">cal m</tspan><tspan class="cls-12" x="150.5" y="0">a</tspan><tspan class="cls-4" x="159.87" y="0">t</tspan><tspan x="165.36" y="0">erial </tspan></text><text class="cls-3" transform="translate(11.42 131.59)"><tspan class="cls-24">s</tspan><tspan class="cls-25" x="9.16" y="0">a</tspan><tspan class="cls-21" x="18.43" y="0">v</tspan><tspan class="cls-26" x="26.86" y="0">e</tspan><tspan x="36.86" y="0">s </tspan><tspan class="cls-27" x="49.9" y="0">y</tspan><tspan x="58.34" y="0">ou </tspan><tspan class="cls-5" x="83.01" y="0">b</tspan><tspan class="cls-28" x="93.56" y="0">o</tspan><tspan x="103.64" y="0">th mon</tspan><tspan class="cls-19" x="159.98" y="0">e</tspan><tspan x="169.79" y="0">y and </tspan></text><text class="cls-3" transform="translate(6.75 153.19)">time. Sho<tspan class="cls-29" x="75.29" y="0">r</tspan><tspan class="cls-4" x="82.01" y="0">t</tspan><tspan class="cls-8" x="87.5" y="0">er t</tspan><tspan class="cls-30" x="113.81" y="0">r</tspan><tspan x="119.91" y="0">ans</tspan><tspan class="cls-31" x="148.73" y="0">p</tspan><tspan x="159.26" y="0">o</tspan><tspan class="cls-32" x="169.43" y="0">r</tspan><tspan x="176.15" y="0">t</tspan><tspan class="cls-33" x="181.9" y="0">a</tspan><tspan x="191.3" y="0">tion </tspan></text><text class="cls-3" transform="translate(7.51 174.79)"><tspan class="cls-27">w</tspan><tspan class="cls-7" x="13.81" y="0">a</tspan><tspan class="cls-34" x="23.09" y="0">y</tspan><tspan x="31.36" y="0">s means l</tspan><tspan class="cls-35" x="107.17" y="0">e</tspan><tspan x="117.16" y="0">ss emissions </tspan></text><text class="cls-3" transform="translate(18.31 196.39)">and a quic<tspan class="cls-36" x="82.87" y="0">k</tspan><tspan x="91.44" y="0">er </tspan><tspan class="cls-25" x="111.99" y="0">a</tspan><tspan class="cls-18" x="121.26" y="0">v</tspan><tspan class="cls-11" x="129.54" y="0">ailabili</tspan><tspan class="cls-37" x="180.99" y="0">t</tspan><tspan class="cls-38" x="187" y="0">y</tspan><tspan x="194.85" y="0">. </tspan></text><text class="cls-3" transform="translate(6.36 217.99)">Fu<tspan class="cls-29" x="20.68" y="0">r</tspan><tspan x="27.4" y="0">thermo</tspan><tspan class="cls-39" x="85.64" y="0">r</tspan><tspan x="91.82" y="0">e it gi</tspan><tspan class="cls-40" x="134.85" y="0">v</tspan><tspan class="cls-26" x="143.28" y="0">e</tspan><tspan class="cls-11" x="153.29" y="0">s the ob</tspan></text><text class="cls-3" transform="translate(223.74 217.99)">-</text><text class="cls-3" transform="translate(9.13 239.59)">j<tspan class="cls-10" x="4.48" y="0">e</tspan><tspan class="cls-11" x="14.56" y="0">ct or the si</tspan><tspan class="cls-41" x="98.35" y="0">t</tspan><tspan x="103.82" y="0">e, the m</tspan><tspan class="cls-12" x="167.63" y="0">a</tspan><tspan class="cls-4" x="177.01" y="0">t</tspan><tspan class="cls-8" x="182.5" y="0">erial </tspan></text><text class="cls-3" transform="translate(0.89 261.19)"><tspan class="cls-27">w</tspan><tspan class="cls-11" x="13.81" y="0">as u</tspan><tspan class="cls-23" x="46.76" y="0">s</tspan><tspan class="cls-10" x="55.75" y="0">e</tspan><tspan x="65.82" y="0">d </tspan><tspan class="cls-4" x="80.33" y="0">f</tspan><tspan x="85.55" y="0">or</tspan><tspan class="cls-42" x="102.24" y="0">/</tspan><tspan class="cls-33" x="108.86" y="0">a</tspan><tspan x="118.26" y="0">t a s</tspan><tspan class="cls-31" x="150.75" y="0">p</tspan><tspan class="cls-10" x="161.28" y="0">e</tspan><tspan x="171.36" y="0">cial and </tspan></text><text class="cls-3" transform="translate(1.53 282.79)">l<tspan class="cls-5" x="4.39" y="0">o</tspan><tspan x="14.74" y="0">cal </tspan><tspan class="cls-25" x="42.44" y="0">t</tspan><tspan class="cls-8" x="47.92" y="0">ouch, which is o</tspan><tspan class="cls-31" x="176.97" y="0">f</tspan><tspan class="cls-7" x="182.62" y="0">t</tspan><tspan class="cls-8" x="188.11" y="0">en an </tspan></text><text class="cls-3" transform="translate(0.5 304.39)">ad<tspan class="cls-6" x="19.93" y="0">v</tspan><tspan x="28.21" y="0">a</tspan><tspan class="cls-33" x="37.76" y="0">n</tspan><tspan x="47.97" y="0">tage</tspan><tspan class="cls-43" x="83.5" y="0"> </tspan><tspan class="cls-4" x="87.57" y="0">t</tspan><tspan x="93.06" y="0">o</tspan><tspan class="cls-27" x="103.23" y="0"> </tspan><tspan x="107.31" y="0">gene</tspan><tspan class="cls-30" x="147.8" y="0">r</tspan><tspan class="cls-44" x="153.9" y="0">a</tspan><tspan class="cls-4" x="163.29" y="0">t</tspan><tspan x="168.78" y="0">e</tspan><tspan class="cls-27" x="178.68" y="0"> </tspan><tspan x="182.77" y="0">higher </tspan></text><text class="cls-3" transform="translate(47.12 325.99)"><tspan class="cls-4">t</tspan><tspan x="5.49" y="0">ourism </tspan><tspan class="cls-6" x="65.5" y="0">n</tspan><tspan x="75.69" y="0">um</tspan><tspan class="cls-5" x="101.59" y="0">b</tspan><tspan class="cls-8" x="112.14" y="0">e</tspan><tspan class="cls-34" x="122.04" y="0">r</tspan><tspan x="128.32" y="0">s.</tspan></text><rect class="cls-9" x="0.25" y="88.75" width="235" height="254.03"/><text class="cls-3" transform="translate(558.44 109.99)">The<tspan class="cls-45" x="31.05" y="0"> </tspan><tspan class="cls-11" x="39.15" y="0">link</tspan><tspan class="cls-46" x="67.3" y="0"> </tspan><tspan class="cls-5" x="75.42" y="0">b</tspan><tspan class="cls-28" x="85.97" y="0">e</tspan><tspan class="cls-5" x="95.78" y="0">t</tspan><tspan class="cls-21" x="101.72" y="0">w</tspan><tspan class="cls-10" x="115.54" y="0">e</tspan><tspan x="125.62" y="0">en</tspan><tspan class="cls-47" x="145.89" y="0"> </tspan><tspan class="cls-48" x="153.99" y="0">e</tspan><tspan class="cls-49" x="164.07" y="0">duc</tspan><tspan class="cls-18" x="194.42" y="0">a</tspan><tspan class="cls-17" x="203.79" y="0">tion </tspan></text><text class="cls-3" transform="translate(558.44 131.59)">and<tspan class="cls-50" x="30.29" y="0"> </tspan><tspan class="cls-11" x="40.3" y="0">industry</tspan><tspan class="cls-50" x="105.46" y="0"> </tspan><tspan class="cls-4" x="115.47" y="0">t</tspan><tspan class="cls-31" x="120.96" y="0">o</tspan><tspan x="131.29" y="0">d</tspan><tspan class="cls-7" x="141.66" y="0">a</tspan><tspan class="cls-49" x="150.95" y="0">y</tspan><tspan class="cls-51" x="159.44" y="0"> </tspan><tspan class="cls-17" x="169.45" y="0">is</tspan><tspan class="cls-51" x="182.73" y="0"> </tspan><tspan x="192.74" y="0">mo</tspan><tspan class="cls-52" x="218.44" y="0">r</tspan><tspan x="224.64" y="0">e </tspan></text><text class="cls-3" transform="translate(558.44 153.19)">im<tspan class="cls-5" x="19.93" y="0">p</tspan><tspan class="cls-8" x="30.47" y="0">o</tspan><tspan class="cls-29" x="40.64" y="0">r</tspan><tspan x="47.36" y="0">tn</tspan><tspan class="cls-33" x="63.48" y="0">a</tspan><tspan x="72.88" y="0">t</tspan><tspan class="cls-53" x="78.64" y="0"> </tspan><tspan x="91.65" y="0">than</tspan><tspan class="cls-54" x="127.71" y="0"> </tspan><tspan x="140.72" y="0">sin</tspan><tspan class="cls-35" x="164.37" y="0">c</tspan><tspan x="174.08" y="0">e</tspan><tspan class="cls-54" x="183.97" y="0"> </tspan><tspan class="cls-55" x="196.99" y="0">ev</tspan><tspan x="215.28" y="0">e</tspan><tspan class="cls-56" x="225.18" y="0">r</tspan><tspan x="230.41" y="0">. </tspan></text><path class="cls-57" d="M628.15,234.88v1.48H620V223.54h1.65v11.34Zm5-7.92a4.09,4.09,0,0,1,3.18,1.3,5.91,5.91,0,0,1,0,7.06,4.56,4.56,0,0,1-6.36,0,6,6,0,0,1,0-7.06,4.06,4.06,0,0,1,3.18-1.3Zm0,1.3a2.34,2.34,0,0,0-2,.94,5,5,0,0,0,0,5.17,2.53,2.53,0,0,0,3.95,0,5,5,0,0,0,0-5.17,2.35,2.35,0,0,0-2-.94Zm10.31-1.3a4.23,4.23,0,0,1,1.94.44,3.61,3.61,0,0,1,1.36,1.24,3.83,3.83,0,0,1,.61,1.82h-1.66a2.5,2.5,0,0,0-.71-1.59,2.11,2.11,0,0,0-1.56-.61,2.26,2.26,0,0,0-1.91.94,4.33,4.33,0,0,0-.7,2.59,4.23,4.23,0,0,0,.7,2.58,2.24,2.24,0,0,0,1.91.95,2,2,0,0,0,1.56-.66,2.71,2.71,0,0,0,.71-1.67h1.66a4.17,4.17,0,0,1-.6,1.87,3.56,3.56,0,0,1-1.36,1.28,3.91,3.91,0,0,1-2,.47,4.36,4.36,0,0,1-2.29-.58,3.88,3.88,0,0,1-1.49-1.68,6.59,6.59,0,0,1,0-5.13,3.91,3.91,0,0,1,1.49-1.67,4.36,4.36,0,0,1,2.29-.59Zm9.23,0a3.75,3.75,0,0,1,2.66.89,3.49,3.49,0,0,1,.94,2.66V234a11.07,11.07,0,0,0,.22,2.34H655.1A6.51,6.51,0,0,1,655,235h0a3.25,3.25,0,0,1-1.28,1.13,4.25,4.25,0,0,1-1.89.4,3.25,3.25,0,0,1-2.25-.75,2.47,2.47,0,0,1-.85-1.93,2.41,2.41,0,0,1,.79-1.89,5.4,5.4,0,0,1,2.69-1c.89-.15,1.77-.25,2.64-.31v-.36a2.17,2.17,0,0,0-.54-1.62,2.13,2.13,0,0,0-1.53-.52,2.16,2.16,0,0,0-1.51.49,1.8,1.8,0,0,0-.57,1.33h-1.59a3,3,0,0,1,1-2.2,3.86,3.86,0,0,1,2.64-.85Zm2.07,4.94c-.92.07-1.72.16-2.39.28a3.79,3.79,0,0,0-1.63.54,1.23,1.23,0,0,0-.48,1.05,1.42,1.42,0,0,0,.5,1.14,2.07,2.07,0,0,0,1.38.42,2.84,2.84,0,0,0,1.05-.19,2.27,2.27,0,0,0,.84-.53,2.49,2.49,0,0,0,.57-.89,3.88,3.88,0,0,0,.16-1.27v-.55Zm4.23,4.46V223.54h1.59v12.82Zm18.19-9.4a3.9,3.9,0,0,1,2.63.81,2.9,2.9,0,0,1,.93,2.31h-1.55a1.81,1.81,0,0,0-.53-1.41,2.6,2.6,0,0,0-2.81-.13,1.12,1.12,0,0,0-.47.94,1,1,0,0,0,.22.72,1.56,1.56,0,0,0,.64.4,12.88,12.88,0,0,0,1.33.36,14.89,14.89,0,0,1,1.85.54,2.75,2.75,0,0,1,1.13.82,2.6,2.6,0,0,1-.5,3.54,5.09,5.09,0,0,1-5.46-.09,3.1,3.1,0,0,1-1-2.45h1.6a1.91,1.91,0,0,0,.58,1.5,2.91,2.91,0,0,0,3.11.15,1.15,1.15,0,0,0,.54-1,1.21,1.21,0,0,0-.25-.81,1.84,1.84,0,0,0-.74-.46q-.48-.17-1.53-.42a14.17,14.17,0,0,1-1.67-.49,2.4,2.4,0,0,1-1-.74,2.18,2.18,0,0,1-.43-1.45,2.32,2.32,0,0,1,.95-1.91,3.85,3.85,0,0,1,2.44-.74Zm10.38,0a3.56,3.56,0,0,1,2,.59,3.68,3.68,0,0,1,1.34,1.67,7,7,0,0,1,0,5.06,3.82,3.82,0,0,1-1.33,1.68,3.46,3.46,0,0,1-2,.6,3.4,3.4,0,0,1-1.66-.41,2.69,2.69,0,0,1-1.13-1.11h0v4.63H683.2V227.22h1.57v1.31h0a2.6,2.6,0,0,1,1.12-1.13,3.37,3.37,0,0,1,1.67-.42Zm-.39,1.28a2.11,2.11,0,0,0-1.81.94,5.2,5.2,0,0,0,0,5.14,2.1,2.1,0,0,0,1.81,1,2.19,2.19,0,0,0,1.87-1,5,5,0,0,0,0-5.12,2.22,2.22,0,0,0-1.87-1Zm10.19,7.13a2.57,2.57,0,0,0,1.61-.49,2.1,2.1,0,0,0,.8-1.28h1.62a3.59,3.59,0,0,1-1.31,2.14,4.17,4.17,0,0,1-2.72.85,4.24,4.24,0,0,1-2.31-.61,3.87,3.87,0,0,1-1.48-1.73,6,6,0,0,1-.52-2.61,5.41,5.41,0,0,1,.52-2.42,3.92,3.92,0,0,1,1.47-1.67,4.11,4.11,0,0,1,2.26-.61,4,4,0,0,1,2.58.85,4.08,4.08,0,0,1,1.42,2.34,8.59,8.59,0,0,1,.18,2h-6.84a3.7,3.7,0,0,0,.8,2.45,2.48,2.48,0,0,0,1.92.83Zm-.06-7.2a2.43,2.43,0,0,0-1.82.71,3.2,3.2,0,0,0-.82,2h5.25a3.16,3.16,0,0,0-.83-2,2.39,2.39,0,0,0-1.78-.7ZM707.47,227a4.19,4.19,0,0,1,1.93.44,3.56,3.56,0,0,1,1.37,1.24,3.93,3.93,0,0,1,.6,1.82h-1.65a2.46,2.46,0,0,0-.72-1.59,2.1,2.1,0,0,0-1.55-.61,2.25,2.25,0,0,0-1.91.94,5.15,5.15,0,0,0,0,5.17,2.25,2.25,0,0,0,1.92.95,2,2,0,0,0,1.55-.66,2.67,2.67,0,0,0,.72-1.67h1.65a4.29,4.29,0,0,1-.59,1.87,3.64,3.64,0,0,1-1.36,1.28,3.91,3.91,0,0,1-1.95.47,4.36,4.36,0,0,1-2.29-.58,3.76,3.76,0,0,1-1.49-1.68,6.47,6.47,0,0,1,0-5.13,3.79,3.79,0,0,1,1.49-1.67,4.36,4.36,0,0,1,2.29-.59Zm6-1.63v-1.79H715v1.79Zm0,11v-9.14H715v9.14Zm4.83-10.28a2.76,2.76,0,0,1,.63-2,2.49,2.49,0,0,1,1.87-.66,3.91,3.91,0,0,1,.92.09v1.23a1.7,1.7,0,0,0-.53-.06,1.27,1.27,0,0,0-1,.36,1.75,1.75,0,0,0-.33,1.19v1h1.82v1.26h-1.82v7.88h-1.56v-7.88h-1.61v-1.26h1.61v-1.14Zm6.64-.75h-1.59v-1.79h1.59Zm0,1.89v9.14h-1.59v-9.14Zm6.44-.26a4.23,4.23,0,0,1,1.94.44,3.54,3.54,0,0,1,1.36,1.24,3.83,3.83,0,0,1,.61,1.82H733.6a2.5,2.5,0,0,0-.71-1.59,2.11,2.11,0,0,0-1.56-.61,2.23,2.23,0,0,0-1.9.94,5.09,5.09,0,0,0,0,5.17,2.24,2.24,0,0,0,1.91.95,2,2,0,0,0,1.56-.66,2.71,2.71,0,0,0,.71-1.67h1.66a4.17,4.17,0,0,1-.6,1.87,3.56,3.56,0,0,1-1.36,1.28,3.91,3.91,0,0,1-1.95.47,4.32,4.32,0,0,1-2.28-.58,3.84,3.84,0,0,1-1.5-1.68,6.59,6.59,0,0,1,0-5.13,3.87,3.87,0,0,1,1.5-1.67,4.32,4.32,0,0,1,2.28-.59Zm18.55,9.92a3,3,0,0,1-.7,2.19,2.6,2.6,0,0,1-1.93.69,3.4,3.4,0,0,1-.85-.09v-1.26a2.44,2.44,0,0,0,.52.06,1.29,1.29,0,0,0,1-.39,2.1,2.1,0,0,0,.33-1.34v-9.52h1.59v9.66Zm-1.59-11.55v-1.79h1.59v1.79Zm8.07,1.63a4.09,4.09,0,0,1,3.18,1.3,5.91,5.91,0,0,1,0,7.06,4.56,4.56,0,0,1-6.36,0,6,6,0,0,1,0-7.06,4.06,4.06,0,0,1,3.18-1.3Zm0,1.3a2.34,2.34,0,0,0-2,.94,5,5,0,0,0,0,5.17,2.35,2.35,0,0,0,2,.95,2.38,2.38,0,0,0,2-.95,5,5,0,0,0,0-5.17,2.37,2.37,0,0,0-2-.94Zm8.11.22a2.76,2.76,0,0,1,1.13-1.09,3.43,3.43,0,0,1,1.66-.41,3.53,3.53,0,0,1,2,.59,3.67,3.67,0,0,1,1.33,1.67,7,7,0,0,1,0,5.06,3.77,3.77,0,0,1-1.34,1.68,3.49,3.49,0,0,1-2,.6,3.41,3.41,0,0,1-1.68-.42,2.58,2.58,0,0,1-1.11-1.13h0v1.33h-1.57V223.54h1.59v4.94Zm2.38-.22a2.11,2.11,0,0,0-1.81.94,5.26,5.26,0,0,0,0,5.14,2.1,2.1,0,0,0,1.81,1,2.19,2.19,0,0,0,1.87-1,5,5,0,0,0,0-5.12,2.22,2.22,0,0,0-1.87-1Zm9.27-1.3a3.9,3.9,0,0,1,2.63.81,2.9,2.9,0,0,1,.93,2.31h-1.54a1.82,1.82,0,0,0-.54-1.41,2.15,2.15,0,0,0-1.5-.48,2.09,2.09,0,0,0-1.3.35,1.11,1.11,0,0,0-.48.94,1,1,0,0,0,.22.72,1.56,1.56,0,0,0,.64.4,12.52,12.52,0,0,0,1.34.36,15.18,15.18,0,0,1,1.84.54,2.68,2.68,0,0,1,1.13.82,2.6,2.6,0,0,1-.5,3.54,5.07,5.07,0,0,1-5.45-.09,3.07,3.07,0,0,1-1-2.45h1.6a1.91,1.91,0,0,0,.59,1.5,2.89,2.89,0,0,0,3.1.15,1.15,1.15,0,0,0,.54-1,1.21,1.21,0,0,0-.25-.81,1.77,1.77,0,0,0-.74-.46q-.48-.17-1.53-.42a14.17,14.17,0,0,1-1.67-.49,2.4,2.4,0,0,1-1-.74,2.24,2.24,0,0,1-.42-1.45,2.31,2.31,0,0,1,.94-1.91,3.85,3.85,0,0,1,2.44-.74Zm20.14,0a3.75,3.75,0,0,1,2.66.89,3.49,3.49,0,0,1,.94,2.66V234a11.07,11.07,0,0,0,.22,2.34h-1.44a6.51,6.51,0,0,1-.13-1.33h0a3.25,3.25,0,0,1-1.28,1.13,4.25,4.25,0,0,1-1.89.4,3.25,3.25,0,0,1-2.25-.75,2.47,2.47,0,0,1-.85-1.93A2.41,2.41,0,0,1,793,232a5.4,5.4,0,0,1,2.69-1c.89-.15,1.77-.25,2.64-.31v-.36a2.17,2.17,0,0,0-.54-1.62,2.13,2.13,0,0,0-1.53-.52,2.16,2.16,0,0,0-1.51.49,1.8,1.8,0,0,0-.57,1.33h-1.59a3,3,0,0,1,1-2.2,3.86,3.86,0,0,1,2.64-.85Zm2.07,4.94c-.92.07-1.72.16-2.39.28a3.79,3.79,0,0,0-1.63.54,1.23,1.23,0,0,0-.48,1.05,1.42,1.42,0,0,0,.5,1.14,2.07,2.07,0,0,0,1.38.42,2.84,2.84,0,0,0,1-.19,2.27,2.27,0,0,0,.84-.53,2.49,2.49,0,0,0,.57-.89,3.88,3.88,0,0,0,.16-1.27v-.55Zm8.57-4.88a3.16,3.16,0,0,1,2.45.95,4,4,0,0,1,.86,2.81v5.58h-1.58v-5.45a2.94,2.94,0,0,0-.54-2,2,2,0,0,0-1.57-.61,2.22,2.22,0,0,0-1.7.74,3,3,0,0,0-.67,2.07v5.24h-1.59v-9.14h1.53v1.2h0a3.07,3.07,0,0,1,1.15-1,3.34,3.34,0,0,1,1.62-.38Zm12,9.34V235h0a2.68,2.68,0,0,1-1.13,1.13,3.35,3.35,0,0,1-1.68.42,3.46,3.46,0,0,1-2-.6,3.79,3.79,0,0,1-1.35-1.68,7.19,7.19,0,0,1,0-5.06,3.75,3.75,0,0,1,1.34-1.67,3.67,3.67,0,0,1,3.68-.18,2.68,2.68,0,0,1,1.12,1.09h0v-4.94h1.58v12.82Zm-2.44-8.1a2.24,2.24,0,0,0-1.88,1,5,5,0,0,0,0,5.12,2.21,2.21,0,0,0,1.88,1,2.11,2.11,0,0,0,1.81-1,5.13,5.13,0,0,0,0-5.14,2.12,2.12,0,0,0-1.81-.94Zm21-1.3a3.75,3.75,0,0,1,2.66.89,3.49,3.49,0,0,1,.94,2.66V234a10.45,10.45,0,0,0,.22,2.34h-1.44a5.88,5.88,0,0,1-.13-1.33h0a3.25,3.25,0,0,1-1.28,1.13,4.25,4.25,0,0,1-1.89.4,3.25,3.25,0,0,1-2.25-.75,2.44,2.44,0,0,1-.85-1.93,2.38,2.38,0,0,1,.79-1.89,5.36,5.36,0,0,1,2.69-1c.88-.15,1.77-.25,2.64-.31v-.36a2.13,2.13,0,0,0-.55-1.62,2.09,2.09,0,0,0-1.52-.52,2.15,2.15,0,0,0-1.51.49,1.85,1.85,0,0,0-.58,1.33H833.8a3,3,0,0,1,1-2.2,3.84,3.84,0,0,1,2.64-.85Zm2.07,4.94c-.92.07-1.72.16-2.39.28a3.79,3.79,0,0,0-1.63.54,1.23,1.23,0,0,0-.48,1.05,1.42,1.42,0,0,0,.5,1.14,2.06,2.06,0,0,0,1.37.42,2.85,2.85,0,0,0,1.06-.19,2.16,2.16,0,0,0,.83-.53,2.39,2.39,0,0,0,.58-.89,3.88,3.88,0,0,0,.16-1.27v-.55Zm8.57-4.88a3.16,3.16,0,0,1,2.45.95,4.09,4.09,0,0,1,.86,2.81v5.58h-1.58v-5.45a2.94,2.94,0,0,0-.54-2,2,2,0,0,0-1.57-.61,2.22,2.22,0,0,0-1.7.74,3,3,0,0,0-.67,2.07v5.24h-1.59v-9.14h1.53v1.2h0a3.07,3.07,0,0,1,1.15-1,3.34,3.34,0,0,1,1.62-.38Z" transform="translate(-59.8 -61.57)"/><text class="cls-3" transform="translate(558.44 196.39)">early<tspan class="cls-58" x="38.86" y="0"> </tspan><tspan class="cls-23" x="55.96" y="0">c</tspan><tspan class="cls-8" x="65.66" y="0">onn</tspan><tspan class="cls-59" x="96.57" y="0">e</tspan><tspan class="cls-11" x="106.63" y="0">ction</tspan><tspan class="cls-60" x="146.93" y="0"> </tspan><tspan class="cls-61" x="164.03" y="0">b</tspan><tspan class="cls-62" x="174.56" y="0">e</tspan><tspan class="cls-10" x="184.37" y="0">t</tspan><tspan class="cls-55" x="190.31" y="0">w</tspan><tspan class="cls-10" x="204.13" y="0">e</tspan><tspan class="cls-17" x="214.21" y="0">en </tspan></text><text class="cls-3" transform="translate(558.44 217.99)">the<tspan class="cls-63" x="26.03" y="0"> </tspan><tspan class="cls-5" x="40.14" y="0">t</tspan><tspan class="cls-21" x="46.08" y="0">w</tspan><tspan x="59.9" y="0">o</tspan><tspan class="cls-64" x="70.07" y="0"> </tspan><tspan class="cls-65" x="84.17" y="0">s</tspan><tspan class="cls-10" x="93.17" y="0">e</tspan><tspan class="cls-11" x="103.25" y="0">c</tspan><tspan class="cls-4" x="112.86" y="0">t</tspan><tspan x="118.35" y="0">o</tspan><tspan class="cls-66" x="128.52" y="0">r</tspan><tspan x="134.8" y="0">s</tspan><tspan class="cls-67" x="143.69" y="0"> </tspan><tspan x="157.8" y="0">lin</tspan><tspan class="cls-68" x="176.96" y="0">k</tspan><tspan x="185.5" y="0">s</tspan><tspan class="cls-69" x="194.4" y="0"> </tspan><tspan x="208.51" y="0">the </tspan></text><text class="cls-3" transform="translate(558.44 239.59)"><tspan class="cls-5">pe</tspan><tspan x="20.63" y="0">ople</tspan><tspan class="cls-70" x="55.46" y="0"> </tspan><tspan x="63.68" y="0">mo</tspan><tspan class="cls-13" x="89.39" y="0">r</tspan><tspan x="95.56" y="0">e</tspan><tspan class="cls-70" x="105.46" y="0"> </tspan><tspan class="cls-4" x="113.69" y="0">t</tspan><tspan x="119.18" y="0">o</tspan><tspan class="cls-71" x="129.35" y="0"> </tspan><tspan x="137.57" y="0">their</tspan><tspan class="cls-70" x="174.51" y="0"> </tspan><tspan x="182.73" y="0">home</tspan></text><text class="cls-3" transform="translate(787.54 239.59)">-</text><text class="cls-3" transform="translate(558.44 261.19)"><tspan class="cls-4">t</tspan><tspan class="cls-21" x="5.49" y="0">o</tspan><tspan x="15.62" y="0">wn</tspan><tspan class="cls-72" x="39.85" y="0"> </tspan><tspan x="50.74" y="0">and</tspan><tspan class="cls-73" x="81.03" y="0"> </tspan><tspan class="cls-11" x="91.92" y="0">p</tspan><tspan class="cls-74" x="102.29" y="0">r</tspan><tspan class="cls-21" x="108.48" y="0">o</tspan><tspan class="cls-8" x="118.62" y="0">vid</tspan><tspan class="cls-23" x="141.84" y="0">e</tspan><tspan x="151.83" y="0">s</tspan><tspan class="cls-75" x="160.72" y="0"> </tspan><tspan x="171.63" y="0">s</tspan><tspan class="cls-10" x="180.52" y="0">pe</tspan><tspan class="cls-49" x="201.15" y="0">cial</tspan></text><text class="cls-3" transform="translate(787.54 261.19)">-</text><text class="cls-3" transform="translate(558.44 282.79)">i<tspan class="cls-34" x="4.39" y="0">z</tspan><tspan class="cls-5" x="12.6" y="0">e</tspan><tspan x="22.68" y="0">d</tspan><tspan class="cls-76" x="33.05" y="0"> </tspan><tspan class="cls-21" x="40.7" y="0">w</tspan><tspan x="54.52" y="0">or</tspan><tspan class="cls-12" x="71.21" y="0">k</tspan><tspan class="cls-14" x="80.03" y="0">f</tspan><tspan x="85.26" y="0">o</tspan><tspan class="cls-13" x="95.43" y="0">r</tspan><tspan class="cls-26" x="101.61" y="0">c</tspan><tspan x="111.33" y="0">e.</tspan><tspan class="cls-76" x="125.3" y="0"> </tspan><tspan class="cls-11" x="132.95" y="0">Ex</tspan><tspan class="cls-10" x="152.71" y="0">p</tspan><tspan x="163.26" y="0">erien</tspan><tspan class="cls-35" x="204.33" y="0">c</tspan><tspan class="cls-10" x="214.04" y="0">e</tspan><tspan x="224.11" y="0">d </tspan></text><text class="cls-3" transform="translate(558.44 304.39)"><tspan class="cls-5">pe</tspan><tspan x="20.63" y="0">ople,</tspan><tspan class="cls-77" x="59.52" y="0"> </tspan><tspan x="69.8" y="0">who</tspan><tspan class="cls-78" x="104.2" y="0"> </tspan><tspan x="114.46" y="0">can</tspan><tspan class="cls-79" x="144" y="0"> </tspan><tspan class="cls-49" x="154.28" y="0">gi</tspan><tspan class="cls-21" x="168.98" y="0">v</tspan><tspan x="177.41" y="0">e</tspan><tspan class="cls-80" x="187.3" y="0"> </tspan><tspan x="197.58" y="0">their </tspan></text><text class="cls-3" transform="translate(558.44 325.99)"><tspan class="cls-44">k</tspan><tspan x="8.84" y="0">n</tspan><tspan class="cls-21" x="19.21" y="0">o</tspan><tspan x="29.34" y="0">wl</tspan><tspan class="cls-59" x="47.59" y="0">e</tspan><tspan x="57.65" y="0">dge</tspan><tspan class="cls-81" x="88.23" y="0"> </tspan><tspan class="cls-4" x="98.67" y="0">t</tspan><tspan x="104.16" y="0">o</tspan><tspan class="cls-81" x="114.33" y="0"> </tspan><tspan x="124.77" y="0">the</tspan><tspan class="cls-82" x="150.8" y="0"> </tspan><tspan class="cls-16" x="161.26" y="0">f</tspan><tspan x="166.48" y="0">oll</tspan><tspan class="cls-83" x="185.43" y="0">o</tspan><tspan class="cls-17" x="195.55" y="0">wing </tspan></text><rect class="cls-9" x="558.19" y="88.75" width="235" height="254.03"/><text class="cls-3" transform="translate(837.41 109.99)">The<tspan class="cls-84" x="31.05" y="0"> </tspan><tspan x="36.97" y="0">Marble</tspan><tspan class="cls-84" x="94.52" y="0"> </tspan><tspan x="100.44" y="0">industry</tspan><tspan class="cls-84" x="165.6" y="0"> </tspan><tspan x="171.52" y="0">p</tspan><tspan class="cls-39" x="181.89" y="0">r</tspan><tspan class="cls-10" x="188.06" y="0">o</tspan><tspan x="198.41" y="0">duc</tspan></text><text class="cls-3" transform="translate(1066.51 109.99)">-</text><text class="cls-3" transform="translate(837.41 131.59)"><tspan class="cls-65">e</tspan><tspan x="10.01" y="0">s</tspan><tspan class="cls-85" x="18.9" y="0"> </tspan><tspan x="22.46" y="0">la</tspan><tspan class="cls-52" x="36.41" y="0">r</tspan><tspan x="42.61" y="0">ge</tspan><tspan class="cls-86" x="62.82" y="0"> </tspan><tspan x="66.37" y="0">amou</tspan><tspan class="cls-44" x="111.99" y="0">n</tspan><tspan x="122.2" y="0">t</tspan><tspan class="cls-87" x="127.96" y="0"> </tspan><tspan x="131.52" y="0">of</tspan><tspan class="cls-88" x="147.18" y="0"> </tspan><tspan class="cls-15" x="150.73" y="0">w</tspan><tspan x="164.54" y="0">as</tspan><tspan class="cls-7" x="182.98" y="0">t</tspan><tspan x="188.47" y="0">e</tspan><tspan class="cls-85" x="198.37" y="0"> </tspan><tspan class="cls-49" x="201.94" y="0">dur</tspan></text><text class="cls-3" transform="translate(1066.51 131.59)">-</text><text class="cls-3" transform="translate(837.41 153.19)">ing<tspan class="cls-89" x="25.07" y="0"> </tspan><tspan class="cls-49" x="36.5" y="0">mining</tspan><tspan class="cls-89" x="91.87" y="0"> </tspan><tspan x="103.3" y="0">and</tspan><tspan class="cls-90" x="133.59" y="0"> </tspan><tspan x="145.02" y="0">p</tspan><tspan class="cls-52" x="155.39" y="0">r</tspan><tspan class="cls-61" x="161.58" y="0">o</tspan><tspan class="cls-35" x="171.92" y="0">c</tspan><tspan class="cls-65" x="181.62" y="0">e</tspan><tspan x="191.63" y="0">ssing </tspan></text><text class="cls-3" transform="translate(837.41 174.79)">stag<tspan class="cls-91" x="34.52" y="0">e</tspan><tspan x="44.51" y="0">s.</tspan><tspan class="cls-92" x="57.47" y="0"> </tspan><tspan class="cls-49" x="61.07" y="0">This</tspan><tspan class="cls-93" x="95.51" y="0"> </tspan><tspan class="cls-15" x="99.12" y="0">w</tspan><tspan class="cls-17" x="112.93" y="0">as</tspan><tspan class="cls-16" x="131.38" y="0">t</tspan><tspan class="cls-17" x="136.87" y="0">e</tspan><tspan class="cls-94" x="146.77" y="0"> </tspan><tspan class="cls-17" x="150.39" y="0">is</tspan><tspan class="cls-93" x="163.67" y="0"> </tspan><tspan class="cls-49" x="167.29" y="0">dum</tspan><tspan class="cls-31" x="203.56" y="0">p</tspan><tspan class="cls-48" x="214.09" y="0">e</tspan><tspan class="cls-49" x="224.17" y="0">d </tspan></text><text class="cls-3" transform="translate(837.41 196.39)">on<tspan class="cls-95" x="20.54" y="0"> </tspan><tspan class="cls-7" x="29.03" y="0">t</tspan><tspan x="34.52" y="0">o</tspan><tspan class="cls-95" x="44.69" y="0"> </tspan><tspan class="cls-49" x="53.19" y="0">o</tspan><tspan class="cls-31" x="63.36" y="0">p</tspan><tspan x="73.89" y="0">en</tspan><tspan class="cls-95" x="94.16" y="0"> </tspan><tspan x="102.65" y="0">land</tspan><tspan class="cls-95" x="137.34" y="0"> </tspan><tspan class="cls-17" x="145.83" y="0">which</tspan><tspan class="cls-95" x="194.43" y="0"> </tspan><tspan class="cls-49" x="202.93" y="0">c</tspan><tspan class="cls-39" x="212.54" y="0">r</tspan><tspan class="cls-17" x="218.71" y="0">e</tspan></text><text class="cls-3" transform="translate(1066.51 196.39)">-</text><text class="cls-3" transform="translate(837.41 217.99)"><tspan class="cls-44">a</tspan><tspan class="cls-7" x="9.4" y="0">t</tspan><tspan class="cls-65" x="14.89" y="0">e</tspan><tspan x="24.89" y="0">s</tspan><tspan class="cls-96" x="33.79" y="0"> </tspan><tspan x="43.9" y="0">a</tspan><tspan class="cls-96" x="53.46" y="0"> </tspan><tspan x="63.58" y="0">l</tspan><tspan class="cls-97" x="67.97" y="0">o</tspan><tspan x="78.03" y="0">t</tspan><tspan class="cls-96" x="83.79" y="0"> </tspan><tspan x="93.9" y="0">of</tspan><tspan class="cls-96" x="109.56" y="0"> </tspan><tspan class="cls-17" x="119.68" y="0">e</tspan><tspan class="cls-98" x="129.58" y="0">n</tspan><tspan x="139.61" y="0">vi</tspan><tspan class="cls-39" x="152.46" y="0">r</tspan><tspan x="158.63" y="0">onme</tspan><tspan class="cls-18" x="204.6" y="0">n</tspan><tspan x="214.79" y="0">tal </tspan></text><text class="cls-3" transform="translate(837.41 239.59)">p<tspan class="cls-39" x="10.37" y="0">r</tspan><tspan x="16.54" y="0">oblems.</tspan><tspan class="cls-99" x="79.86" y="0"> </tspan><tspan class="cls-100" x="85.55" y="0"> </tspan><tspan x="91.22" y="0">N</tspan><tspan class="cls-101" x="104.81" y="0">o</tspan><tspan x="114.89" y="0">t</tspan><tspan class="cls-99" x="120.65" y="0"> </tspan><tspan x="126.34" y="0">only</tspan><tspan class="cls-99" x="159.76" y="0"> </tspan><tspan class="cls-100" x="165.45" y="0"> </tspan><tspan class="cls-16" x="171.12" y="0">f</tspan><tspan x="176.34" y="0">or</tspan><tspan class="cls-102" x="193.03" y="0"> </tspan><tspan class="cls-48" x="198.72" y="0">e</tspan><tspan class="cls-103" x="208.8" y="0">c</tspan><tspan x="218.52" y="0">o</tspan></text><text class="cls-3" transform="translate(1066.51 239.59)">-</text><text class="cls-3" transform="translate(837.41 261.19)">l<tspan class="cls-10" x="4.39" y="0">o</tspan><tspan class="cls-17" x="14.74" y="0">gical</tspan><tspan class="cls-104" x="53.01" y="0"> </tspan><tspan class="cls-39" x="62.75" y="0">r</tspan><tspan x="68.92" y="0">ea</tspan><tspan class="cls-65" x="88.38" y="0">s</tspan><tspan x="97.38" y="0">ons,</tspan><tspan class="cls-104" x="130.88" y="0"> </tspan><tspan x="140.61" y="0">but</tspan><tspan class="cls-104" x="167.11" y="0"> </tspan><tspan x="176.85" y="0">al</tspan><tspan class="cls-35" x="190.8" y="0">s</tspan><tspan x="199.78" y="0">o</tspan><tspan class="cls-105" x="209.95" y="0"> </tspan><tspan class="cls-17" x="219.69" y="0">in </tspan></text><text class="cls-3" transform="translate(837.41 282.79)"><tspan class="cls-7">t</tspan><tspan x="5.49" y="0">erms</tspan><tspan class="cls-106" x="46.33" y="0"> </tspan><tspan x="56.88" y="0">of</tspan><tspan class="cls-107" x="72.54" y="0"> </tspan><tspan class="cls-20" x="83.07" y="0">r</tspan><tspan x="89.24" y="0">eusing</tspan><tspan class="cls-106" x="143.48" y="0" xml:space="preserve">  </tspan><tspan x="164.57" y="0">the</tspan><tspan class="cls-106" x="190.6" y="0"> </tspan><tspan class="cls-21" x="201.15" y="0">v</tspan><tspan class="cls-17" x="209.57" y="0">ery </tspan></text><text class="cls-3" transform="translate(837.41 304.39)">s<tspan class="cls-10" x="8.89" y="0">pe</tspan><tspan class="cls-49" x="29.52" y="0">cial</tspan><tspan class="cls-108" x="57.47" y="0"> </tspan><tspan x="60.77" y="0">and</tspan><tspan class="cls-109" x="91.06" y="0"> </tspan><tspan x="94.37" y="0">l</tspan><tspan class="cls-10" x="98.76" y="0">o</tspan><tspan x="109.11" y="0">cal</tspan><tspan class="cls-108" x="132.67" y="0"> </tspan><tspan x="135.97" y="0">m</tspan><tspan class="cls-44" x="151.5" y="0">a</tspan><tspan class="cls-7" x="160.9" y="0">t</tspan><tspan x="166.39" y="0">erial,</tspan><tspan class="cls-110" x="205.21" y="0"> </tspan><tspan x="208.53" y="0">the </tspan></text><text class="cls-3" transform="translate(837.41 325.99)">p<tspan class="cls-39" x="10.37" y="0">r</tspan><tspan x="16.54" y="0">olong</tspan><tspan class="cls-12" x="61.96" y="0">a</tspan><tspan x="71.33" y="0">tion</tspan><tspan class="cls-111" x="102.02" y="0"> </tspan><tspan x="106.85" y="0">of</tspan><tspan class="cls-112" x="122.51" y="0"> </tspan><tspan x="127.33" y="0">the</tspan><tspan class="cls-111" x="153.36" y="0"> </tspan><tspan x="158.18" y="0">s</tspan><tspan class="cls-7" x="167.07" y="0">t</tspan><tspan x="172.56" y="0">one</tspan><tspan class="cls-113" x="203" y="0">’</tspan><tspan x="206.55" y="0">s</tspan><tspan class="cls-111" x="215.44" y="0"> </tspan><tspan x="220.26" y="0">li</tspan></text><text class="cls-3" transform="translate(1066.51 325.99)">-</text><rect class="cls-9" x="837.16" y="88.75" width="235" height="254.03"/><text class="cls-3" transform="translate(279.47 109.99)"><tspan class="cls-114">F</tspan><tspan class="cls-115" x="10.21" y="0">a</tspan><tspan x="19.55" y="0">us</tspan><tspan class="cls-30" x="38.81" y="0">k</tspan><tspan class="cls-8" x="47.39" y="0">e</tspan><tspan class="cls-116" x="57.29" y="0"> </tspan><tspan x="67.41" y="0">has</tspan><tspan class="cls-117" x="96.23" y="0"> </tspan><tspan x="106.34" y="0">the</tspan><tspan class="cls-116" x="132.37" y="0"> </tspan><tspan class="cls-21" x="142.49" y="0">v</tspan><tspan class="cls-8" x="150.91" y="0">ery</tspan><tspan class="cls-116" x="175.82" y="0"> </tspan><tspan x="185.94" y="0">lu</tspan><tspan class="cls-6" x="200.7" y="0">x</tspan><tspan class="cls-11" x="209.16" y="0">ury </tspan></text><text class="cls-3" transform="translate(279.47 131.59)">situ<tspan class="cls-12" x="29.41" y="0">a</tspan><tspan x="38.79" y="0">tion</tspan><tspan class="cls-118" x="69.48" y="0"> </tspan><tspan x="78.41" y="0">of</tspan><tspan class="cls-119" x="94.07" y="0"> </tspan><tspan x="102.99" y="0">h</tspan><tspan class="cls-25" x="113.36" y="0">a</tspan><tspan x="122.63" y="0">ving</tspan><tspan class="cls-118" x="156.16" y="0"> </tspan><tspan x="165.09" y="0">a</tspan><tspan class="cls-119" x="174.65" y="0"> </tspan><tspan class="cls-11" x="183.58" y="0">surplu </tspan></text><text class="cls-3" transform="translate(279.47 153.19)">of<tspan class="cls-120" x="15.66" y="0"> </tspan><tspan x="21.01" y="0">g</tspan><tspan class="cls-121" x="31.32" y="0">r</tspan><tspan class="cls-10" x="37.51" y="0">e</tspan><tspan x="47.59" y="0">en</tspan><tspan class="cls-120" x="67.86" y="0"> </tspan><tspan x="73.2" y="0">(</tspan><tspan class="cls-39" x="78.46" y="0">h</tspan><tspan class="cls-122" x="88.49" y="0">y</tspan><tspan x="96.91" y="0">d</tspan><tspan class="cls-74" x="107.28" y="0">r</tspan><tspan x="113.47" y="0">o</tspan><tspan class="cls-5" x="123.64" y="0">p</tspan><tspan class="cls-21" x="134.19" y="0">ow</tspan><tspan x="158.15" y="0">er-ba</tspan><tspan class="cls-23" x="199.89" y="0">s</tspan><tspan class="cls-10" x="208.87" y="0">e</tspan><tspan x="218.95" y="0">d) </tspan></text><text class="cls-3" transform="translate(279.47 174.79)">ene<tspan class="cls-13" x="30.17" y="0">r</tspan><tspan class="cls-14" x="36.34" y="0">g</tspan><tspan class="cls-38" x="46.4" y="0">y</tspan><tspan x="54.25" y="0">.</tspan><tspan class="cls-123" x="58.32" y="0"> </tspan><tspan x="69.37" y="0">N</tspan><tspan class="cls-21" x="82.96" y="0">o</tspan><tspan class="cls-27" x="93.09" y="0">w</tspan><tspan x="106.9" y="0">ad</tspan><tspan class="cls-4" x="126.83" y="0">a</tspan><tspan x="136.11" y="0">y</tspan><tspan class="cls-124" x="144.61" y="0"> </tspan><tspan class="cls-11" x="155.68" y="0">s,</tspan><tspan class="cls-124" x="168.64" y="0"> </tspan><tspan x="179.71" y="0">ene</tspan><tspan class="cls-13" x="209.88" y="0">r</tspan><tspan class="cls-4" x="216.05" y="0">g</tspan><tspan class="cls-11" x="226.09" y="0">y </tspan></text><text class="cls-3" transform="translate(279.47 196.39)">g<tspan class="cls-28" x="10.31" y="0">e</tspan><tspan class="cls-11" x="20.12" y="0">ts</tspan><tspan class="cls-125" x="34.78" y="0"> </tspan><tspan x="39.13" y="0">a</tspan><tspan class="cls-125" x="48.69" y="0"> </tspan><tspan class="cls-11" x="53.04" y="0">mo</tspan><tspan class="cls-39" x="78.75" y="0">r</tspan><tspan class="cls-8" x="84.92" y="0">e</tspan><tspan class="cls-125" x="94.82" y="0"> </tspan><tspan class="cls-11" x="99.18" y="0">and</tspan><tspan class="cls-125" x="129.47" y="0"> </tspan><tspan x="133.83" y="0">mo</tspan><tspan class="cls-13" x="159.53" y="0">r</tspan><tspan x="165.71" y="0">e</tspan><tspan class="cls-32" x="175.6" y="0"> </tspan><tspan class="cls-44" x="179.94" y="0">e</tspan><tspan x="189.68" y="0">x</tspan><tspan class="cls-31" x="198.32" y="0">p</tspan><tspan x="208.85" y="0">en</tspan></text><text class="cls-3" transform="translate(508.57 196.39)">-</text><text class="cls-3" transform="translate(279.47 217.99)">si<tspan class="cls-21" x="13.28" y="0">v</tspan><tspan class="cls-8" x="21.71" y="0">e</tspan><tspan class="cls-126" x="31.61" y="0"> </tspan><tspan class="cls-31" x="38.25" y="0">b</tspan><tspan class="cls-10" x="48.78" y="0">e</tspan><tspan class="cls-23" x="58.86" y="0">c</tspan><tspan x="68.56" y="0">oming</tspan><tspan class="cls-127" x="119.34" y="0"> </tspan><tspan class="cls-74" x="125.98" y="0">r</tspan><tspan class="cls-26" x="132.17" y="0">es</tspan><tspan x="151.18" y="0">ou</tspan><tspan class="cls-13" x="171.72" y="0">r</tspan><tspan class="cls-65" x="177.89" y="0">c</tspan><tspan class="cls-8" x="187.61" y="0">e</tspan><tspan class="cls-126" x="197.51" y="0"> </tspan><tspan x="204.15" y="0">and </tspan></text><text class="cls-3" transform="translate(279.47 239.59)">the<tspan class="cls-68" x="26.03" y="0"> </tspan><tspan x="29.72" y="0">whole</tspan><tspan class="cls-36" x="78.41" y="0"> </tspan><tspan class="cls-21" x="82.11" y="0">w</tspan><tspan x="95.94" y="0">orld</tspan><tspan class="cls-36" x="127.38" y="0"> </tspan><tspan x="131.09" y="0">tri</tspan><tspan class="cls-35" x="147.76" y="0">e</tspan><tspan class="cls-11" x="157.75" y="0">s</tspan><tspan class="cls-36" x="166.64" y="0"> </tspan><tspan class="cls-4" x="170.35" y="0">t</tspan><tspan class="cls-8" x="175.84" y="0">o</tspan><tspan class="cls-36" x="186.01" y="0" xml:space="preserve">  </tspan><tspan x="193.42" y="0">m</tspan><tspan class="cls-31" x="208.96" y="0">e</tspan><tspan class="cls-28" x="219.02" y="0">e</tspan><tspan class="cls-11" x="228.83" y="0">t </tspan></text><text class="cls-3" transform="translate(279.47 261.19)">th<tspan class="cls-33" x="16.13" y="0">a</tspan><tspan x="25.52" y="0">t</tspan><tspan class="cls-128" x="31.28" y="0"> </tspan><tspan x="34.94" y="0">g</tspan><tspan class="cls-13" x="45.25" y="0">r</tspan><tspan class="cls-21" x="51.43" y="0">o</tspan><tspan x="61.56" y="0">wing</tspan><tspan class="cls-128" x="100.49" y="0"> </tspan><tspan x="104.15" y="0">demand</tspan><tspan class="cls-129" x="170.24" y="0"> </tspan><tspan x="173.9" y="0">without </tspan></text><text class="cls-3" transform="translate(279.47 282.79)">emmitting<tspan class="cls-130" x="81.95" y="0"> </tspan><tspan class="cls-4" x="91.47" y="0">t</tspan><tspan class="cls-10" x="96.96" y="0">o</tspan><tspan x="107.31" y="0">o</tspan><tspan class="cls-130" x="117.48" y="0"> </tspan><tspan class="cls-44" x="127.01" y="0">m</tspan><tspan class="cls-11" x="142.38" y="0">uch</tspan><tspan class="cls-130" x="172.73" y="0"> </tspan><tspan x="182.25" y="0">g</tspan><tspan class="cls-74" x="192.56" y="0">r</tspan><tspan class="cls-5" x="198.75" y="0">e</tspan><tspan class="cls-8" x="208.83" y="0">en</tspan></text><text class="cls-3" transform="translate(508.57 282.79)">-</text><text class="cls-3" transform="translate(279.47 304.39)">hou<tspan class="cls-65" x="30.91" y="0">s</tspan><tspan class="cls-8" x="39.91" y="0">e</tspan><tspan class="cls-131" x="49.8" y="0"> </tspan><tspan x="60.42" y="0">ga</tspan><tspan class="cls-26" x="80.3" y="0">se</tspan><tspan x="99.3" y="0">s.</tspan><tspan class="cls-132" x="112.26" y="0" xml:space="preserve">  </tspan><tspan class="cls-8" x="133.54" y="0">So</tspan><tspan class="cls-133" x="154.67" y="0"> </tspan><tspan class="cls-8" x="165.31" y="0">w</tspan><tspan class="cls-39" x="179.17" y="0">h</tspan><tspan class="cls-11" x="189.19" y="0">y</tspan><tspan class="cls-132" x="197.69" y="0"> </tspan><tspan x="208.33" y="0">n</tspan><tspan class="cls-114" x="218.7" y="0">o</tspan><tspan x="228.76" y="0">t </tspan></text><text class="cls-3" transform="translate(279.47 325.99)">u<tspan class="cls-65" x="10.37" y="0">s</tspan><tspan x="19.37" y="0">e</tspan><tspan class="cls-134" x="29.27" y="0"> </tspan><tspan x="36.07" y="0">the</tspan><tspan class="cls-135" x="62.1" y="0"> </tspan><tspan class="cls-8" x="68.9" y="0">ene</tspan><tspan class="cls-39" x="99.07" y="0">r</tspan><tspan class="cls-14" x="105.24" y="0">g</tspan><tspan x="115.31" y="0">y</tspan><tspan class="cls-134" x="123.8" y="0"> </tspan><tspan x="130.61" y="0">wi</tspan><tspan class="cls-26" x="148.86" y="0">s</tspan><tspan x="157.86" y="0">ely</tspan><tspan class="cls-136" x="180.64" y="0"> </tspan><tspan class="cls-4" x="187.43" y="0">t</tspan><tspan x="192.92" y="0">o</tspan><tspan class="cls-136" x="203.09" y="0"> </tspan><tspan class="cls-35" x="209.88" y="0">s</tspan><tspan x="218.86" y="0">e</tspan></text><text class="cls-3" transform="translate(508.57 325.99)">-</text><rect class="cls-9" x="279.22" y="88.75" width="235" height="254.03"/><text class="cls-3" transform="translate(1127.28 109.99)">The st<tspan class="cls-12" x="49.84" y="0">a</tspan><tspan class="cls-7" x="59.22" y="0">t</tspan><tspan x="64.71" y="0">e of Nor</tspan><tspan class="cls-137" x="128.82" y="0">w</tspan><tspan class="cls-16" x="142.63" y="0">a</tspan><tspan x="151.92" y="0">y </tspan><tspan class="cls-15" x="164.55" y="0">w</tspan><tspan class="cls-17" x="178.36" y="0">a</tspan><tspan class="cls-18" x="187.92" y="0">n</tspan><tspan x="198.1" y="0">ts </tspan></text><text class="cls-3" transform="translate(1129.04 131.59)">the an<tspan class="cls-12" x="50.09" y="0">n</tspan><tspan class="cls-49" x="60.28" y="0">ual p</tspan><tspan class="cls-52" x="99.11" y="0">r</tspan><tspan class="cls-10" x="105.3" y="0">o</tspan><tspan x="115.65" y="0">duction </tspan><tspan class="cls-15" x="180.82" y="0">v</tspan><tspan class="cls-49" x="189.23" y="0">ol</tspan></text><text class="cls-3" transform="translate(1332.81 131.59)">-</text><text class="cls-3" transform="translate(1134.74 153.19)">ume of <tspan class="cls-15" x="59.74" y="0">A</tspan><tspan class="cls-49" x="71.84" y="0">quacultu</tspan><tspan class="cls-52" x="142.63" y="0">r</tspan><tspan x="148.82" y="0">e </tspan><tspan class="cls-41" x="162.86" y="0">t</tspan><tspan x="168.33" y="0">o </tspan><tspan class="cls-44" x="182.64" y="0">a</tspan><tspan x="192.04" y="0">t </tspan></text><text class="cls-3" transform="translate(1130.3 174.79)">least qui<tspan class="cls-18" x="67.77" y="0">n</tspan><tspan x="77.96" y="0">tuple u</tspan><tspan class="cls-18" x="133.25" y="0">n</tspan><tspan x="143.44" y="0">til 2050. </tspan></text><text class="cls-3" transform="translate(1133.11 196.39)">Some think th<tspan class="cls-12" x="110.86" y="0">a</tspan><tspan x="120.24" y="0">t this is an </tspan></text><text class="cls-3" transform="translate(1118.44 217.99)">u<tspan class="cls-16" x="10.37" y="0">t</tspan><tspan x="15.86" y="0">opic aim, but n</tspan><tspan class="cls-15" x="133.23" y="0">e</tspan><tspan class="cls-21" x="143.08" y="0">v</tspan><tspan x="151.5" y="0">e</tspan><tspan class="cls-29" x="161.4" y="0">r</tspan><tspan class="cls-17" x="168.12" y="0">thel</tspan><tspan class="cls-65" x="198.54" y="0">e</tspan><tspan x="208.54" y="0">ss, </tspan></text><text class="cls-3" transform="translate(1125.22 239.59)">the <tspan class="cls-137" x="30.17" y="0">w</tspan><tspan class="cls-44" x="43.97" y="0">a</tspan><tspan class="cls-16" x="53.37" y="0">t</tspan><tspan class="cls-17" x="58.86" y="0">e</tspan><tspan class="cls-138" x="68.76" y="0">r</tspan><tspan x="75.04" y="0">s with the high</tspan><tspan class="cls-91" x="192.2" y="0">e</tspan><tspan x="202.19" y="0">st </tspan></text><text class="cls-3" transform="translate(1120.4 261.19)">quali<tspan class="cls-139" x="39.08" y="0">t</tspan><tspan x="45.09" y="0">y and m</tspan><tspan class="cls-65" x="107.69" y="0">o</tspan><tspan x="117.97" y="0">st suitable </tspan><tspan class="cls-16" x="204.53" y="0">f</tspan><tspan x="209.75" y="0">or </tspan></text><path class="cls-57" d="M1191.45,334.08a2.72,2.72,0,0,1,.64-2,2.45,2.45,0,0,1,1.86-.66,3.91,3.91,0,0,1,.92.09v1.23a1.7,1.7,0,0,0-.53-.06,1.27,1.27,0,0,0-1,.36,1.75,1.75,0,0,0-.33,1.19v1h1.82v1.26H1193v7.88h-1.56v-7.88h-1.61v-1.26h1.61v-1.14Zm6.64-.75h-1.59v-1.79h1.59Zm0,1.89v9.14h-1.59v-9.14Zm5.7-.26a3.89,3.89,0,0,1,2.63.81,2.87,2.87,0,0,1,.94,2.31h-1.55a1.85,1.85,0,0,0-.53-1.41,2.16,2.16,0,0,0-1.5-.48,2.12,2.12,0,0,0-1.31.35,1.11,1.11,0,0,0-.48.94,1,1,0,0,0,.23.72,1.5,1.5,0,0,0,.64.4,12.18,12.18,0,0,0,1.33.36,15.43,15.43,0,0,1,1.85.54,2.81,2.81,0,0,1,1.13.82,2.6,2.6,0,0,1-.5,3.54,5.09,5.09,0,0,1-5.46-.09,3.13,3.13,0,0,1-1-2.45h1.61a1.91,1.91,0,0,0,.58,1.5,2.91,2.91,0,0,0,3.11.15,1.15,1.15,0,0,0,.54-1,1.21,1.21,0,0,0-.26-.81,1.73,1.73,0,0,0-.73-.46q-.49-.16-1.53-.42a14.44,14.44,0,0,1-1.68-.49,2.54,2.54,0,0,1-1-.74,2.24,2.24,0,0,1-.42-1.45,2.32,2.32,0,0,1,.95-1.91,3.84,3.84,0,0,1,2.43-.74Zm7.62,1.41a2.86,2.86,0,0,1,1.17-1,3.52,3.52,0,0,1,1.55-.34,3.13,3.13,0,0,1,2.44,1,4,4,0,0,1,.87,2.81v5.58h-1.59v-5.45a2.94,2.94,0,0,0-.54-2,2,2,0,0,0-1.56-.61,2.2,2.2,0,0,0-1.7.74,3,3,0,0,0-.68,2.07v5.24h-1.58V331.54h1.58v4.83Zm16.22-3.66a1.28,1.28,0,0,0-1,.36,1.75,1.75,0,0,0-.33,1.19v1h1.82v1.26h-1.82v7.88h-1.56v-7.88h-1.6v-1.26h1.6v-1.14a2.72,2.72,0,0,1,.64-2,2.45,2.45,0,0,1,1.86-.66,3.91,3.91,0,0,1,.92.09v1.23a1.63,1.63,0,0,0-.52-.06Zm5.13,2.25a3.72,3.72,0,0,1,2.65.89,3.5,3.5,0,0,1,.95,2.66V342a11.14,11.14,0,0,0,.21,2.34h-1.44A6.56,6.56,0,0,1,1235,343h0a3.18,3.18,0,0,1-1.28,1.13,4.25,4.25,0,0,1-1.89.4,3.29,3.29,0,0,1-2.25-.75,2.46,2.46,0,0,1-.84-1.93,2.41,2.41,0,0,1,.78-1.89,5.4,5.4,0,0,1,2.69-1c.89-.15,1.77-.25,2.65-.31v-.36a2.17,2.17,0,0,0-.55-1.62,2.13,2.13,0,0,0-1.52-.52,2.17,2.17,0,0,0-1.52.49,1.8,1.8,0,0,0-.57,1.33h-1.59a3,3,0,0,1,1-2.2,3.89,3.89,0,0,1,2.65-.85Zm2.07,4.94c-.93.07-1.73.16-2.4.28a3.79,3.79,0,0,0-1.63.54,1.25,1.25,0,0,0-.47,1,1.41,1.41,0,0,0,.49,1.14,2.07,2.07,0,0,0,1.38.42,2.84,2.84,0,0,0,1-.19,2.27,2.27,0,0,0,.84-.53,2.36,2.36,0,0,0,.57-.89,3.85,3.85,0,0,0,.17-1.27v-.55Zm8.47-4.77a2.55,2.55,0,0,1,.67.07v1.42l-.63-.05a2.51,2.51,0,0,0-2,.81,3.42,3.42,0,0,0-.7,2.32v4.66h-1.58v-9.14h1.51v1.4h0a2.94,2.94,0,0,1,2.7-1.49Zm12-.11a2.86,2.86,0,0,1,2.28.93,4.19,4.19,0,0,1,.8,2.76v5.65h-1.59v-5.53a3.06,3.06,0,0,0-.47-1.92,1.69,1.69,0,0,0-1.4-.6,1.86,1.86,0,0,0-1.57.78,3.37,3.37,0,0,0-.59,2.09v5.18h-1.58V338.6a2.57,2.57,0,0,0-.49-1.68,1.64,1.64,0,0,0-1.37-.61,1.87,1.87,0,0,0-1.59.8,3.56,3.56,0,0,0-.58,2.17v5.08h-1.59v-9.14h1.53v1.13h0a3.19,3.19,0,0,1,4.21-.89,2.68,2.68,0,0,1,1.06,1.29,3.13,3.13,0,0,1,2.9-1.73Zm5.8-1.69v-1.79h1.58v1.79Zm0,11v-9.14h1.58v9.14Zm8.73-9.34a3.13,3.13,0,0,1,2.44,1,4,4,0,0,1,.87,2.81v5.58h-1.59v-5.45a2.94,2.94,0,0,0-.54-2,2,2,0,0,0-1.56-.61,2.2,2.2,0,0,0-1.7.74,3,3,0,0,0-.68,2.07v5.24h-1.58v-9.14H1267v1.2h0a3.1,3.1,0,0,1,1.16-1,3.34,3.34,0,0,1,1.62-.38Zm9.23,0a3,3,0,0,1,2.74,1.57h0v-1.33h1.53v8.58a3.57,3.57,0,0,1-4,4,4.43,4.43,0,0,1-2.75-.77,2.63,2.63,0,0,1-1-2.12h1.58a1.55,1.55,0,0,0,.62,1.23,2.61,2.61,0,0,0,1.59.44,2.33,2.33,0,0,0,1.84-.68,3.31,3.31,0,0,0,.59-2.2v-1h0a3.09,3.09,0,0,1-2.72,1.53,3.57,3.57,0,0,1-2-.58,3.71,3.71,0,0,1-1.35-1.63,5.79,5.79,0,0,1-.48-2.43,5.87,5.87,0,0,1,.48-2.46,3.74,3.74,0,0,1,1.35-1.62,3.64,3.64,0,0,1,2-.57Zm.25,1.32a2.13,2.13,0,0,0-1.79.9,4,4,0,0,0-.67,2.43,3.94,3.94,0,0,0,.67,2.4,2.14,2.14,0,0,0,1.79.91,2.23,2.23,0,0,0,1.87-.89,4.62,4.62,0,0,0,0-4.86,2.21,2.21,0,0,0-1.87-.89Zm14.26-1.34a3.72,3.72,0,0,1,2.65.89,3.5,3.5,0,0,1,1,2.66V342a11.14,11.14,0,0,0,.21,2.34H1296a6.56,6.56,0,0,1-.12-1.33h0a3.18,3.18,0,0,1-1.28,1.13,4.19,4.19,0,0,1-1.89.4,3.29,3.29,0,0,1-2.25-.75,2.46,2.46,0,0,1-.84-1.93,2.41,2.41,0,0,1,.78-1.89,5.4,5.4,0,0,1,2.69-1c.89-.15,1.77-.25,2.65-.31v-.36a2.13,2.13,0,0,0-.55-1.62,2.11,2.11,0,0,0-1.52-.52,2.15,2.15,0,0,0-1.51.49,1.81,1.81,0,0,0-.58,1.33h-1.58a3,3,0,0,1,1-2.2,3.89,3.89,0,0,1,2.65-.85Zm2.07,4.94c-.93.07-1.72.16-2.4.28a3.73,3.73,0,0,0-1.62.54,1.23,1.23,0,0,0-.48,1,1.41,1.41,0,0,0,.49,1.14,2.07,2.07,0,0,0,1.38.42,2.84,2.84,0,0,0,1-.19,2.27,2.27,0,0,0,.84-.53,2.39,2.39,0,0,0,.58-.89,4.18,4.18,0,0,0,.16-1.27v-.55Zm8.48-4.77a2.52,2.52,0,0,1,.66.07v1.42l-.63-.05a2.51,2.51,0,0,0-2,.81,3.47,3.47,0,0,0-.7,2.32v4.66h-1.58v-9.14h1.51v1.4h0a2.94,2.94,0,0,1,2.7-1.49Zm5.56,8.26a2.57,2.57,0,0,0,1.61-.49,2.1,2.1,0,0,0,.8-1.28h1.62a3.54,3.54,0,0,1-1.31,2.14,4.17,4.17,0,0,1-2.72.85,4.24,4.24,0,0,1-2.31-.61,3.87,3.87,0,0,1-1.48-1.73,6.2,6.2,0,0,1-.52-2.61,5.55,5.55,0,0,1,.52-2.42,3.92,3.92,0,0,1,1.47-1.67,4.13,4.13,0,0,1,2.26-.61,4.05,4.05,0,0,1,2.59.85,4.12,4.12,0,0,1,1.41,2.34,8.59,8.59,0,0,1,.18,2H1307a3.7,3.7,0,0,0,.8,2.45,2.48,2.48,0,0,0,1.92.83Zm-.06-7.2a2.43,2.43,0,0,0-1.82.71,3.2,3.2,0,0,0-.82,2h5.25a3.16,3.16,0,0,0-.83-2,2.39,2.39,0,0,0-1.78-.7Zm10.46,8.17V331.54h1.58v12.82Zm8.06-9.4a4.09,4.09,0,0,1,3.19,1.3,5.91,5.91,0,0,1,0,7.06,4.09,4.09,0,0,1-3.19,1.29,4,4,0,0,1-3.17-1.29,6,6,0,0,1,0-7.06,4,4,0,0,1,3.17-1.3Zm0,1.3a2.34,2.34,0,0,0-2,.94,5,5,0,0,0,0,5.17,2.52,2.52,0,0,0,3.94,0,5,5,0,0,0,0-5.17,2.35,2.35,0,0,0-2-.94Zm10.32-1.3a4.19,4.19,0,0,1,1.93.44,3.56,3.56,0,0,1,1.37,1.24,3.93,3.93,0,0,1,.6,1.82h-1.65a2.5,2.5,0,0,0-.71-1.59,2.14,2.14,0,0,0-1.56-.61,2.26,2.26,0,0,0-1.91.94,5.15,5.15,0,0,0,0,5.17,2.26,2.26,0,0,0,1.92.95,2.07,2.07,0,0,0,1.56-.66,2.71,2.71,0,0,0,.71-1.67h1.65a4.16,4.16,0,0,1-.59,1.87,3.64,3.64,0,0,1-1.36,1.28,3.91,3.91,0,0,1-2,.47,4.36,4.36,0,0,1-2.29-.58,3.82,3.82,0,0,1-1.49-1.68,6.59,6.59,0,0,1,0-5.13,3.85,3.85,0,0,1,1.49-1.67,4.36,4.36,0,0,1,2.29-.59Zm9.23,0a3.75,3.75,0,0,1,2.66.89,3.49,3.49,0,0,1,.94,2.66V342a10.45,10.45,0,0,0,.22,2.34h-1.44A5.88,5.88,0,0,1,1350,343h0a3.25,3.25,0,0,1-1.28,1.13,4.25,4.25,0,0,1-1.89.4,3.25,3.25,0,0,1-2.25-.75,2.44,2.44,0,0,1-.85-1.93,2.38,2.38,0,0,1,.79-1.89,5.36,5.36,0,0,1,2.69-1c.88-.15,1.77-.25,2.64-.31v-.36a2.13,2.13,0,0,0-.55-1.62,2.09,2.09,0,0,0-1.52-.52,2.15,2.15,0,0,0-1.51.49,1.85,1.85,0,0,0-.58,1.33H1344a3,3,0,0,1,1-2.2,3.84,3.84,0,0,1,2.64-.85Zm2.07,4.94c-.92.07-1.72.16-2.39.28a3.79,3.79,0,0,0-1.63.54,1.23,1.23,0,0,0-.48,1,1.42,1.42,0,0,0,.5,1.14,2.06,2.06,0,0,0,1.37.42,2.85,2.85,0,0,0,1.06-.19,2.16,2.16,0,0,0,.83-.53,2.39,2.39,0,0,0,.58-.89,3.88,3.88,0,0,0,.16-1.27v-.55Zm7.27,3.22a2,2,0,0,0,.65-.09v1.29a3.57,3.57,0,0,1-1,.11,2.51,2.51,0,0,1-1.89-.61,2.87,2.87,0,0,1-.59-2v-5.32h-1.58v-1.26h1.58V333h1.58v2.22h1.82v1.26h-1.82v5.16a1.79,1.79,0,0,0,.29,1.14,1.24,1.24,0,0,0,1,.34Zm5.89.27a2.53,2.53,0,0,0,1.61-.49,2.06,2.06,0,0,0,.8-1.28H1367a3.58,3.58,0,0,1-1.3,2.14,4.73,4.73,0,0,1-5,.24,3.89,3.89,0,0,1-1.49-1.73,6.2,6.2,0,0,1-.51-2.61,5.55,5.55,0,0,1,.51-2.42,3.94,3.94,0,0,1,1.48-1.67,4.09,4.09,0,0,1,2.26-.61,4,4,0,0,1,2.58.85,4.12,4.12,0,0,1,1.41,2.34,8.59,8.59,0,0,1,.18,2h-6.84a3.81,3.81,0,0,0,.8,2.45,2.48,2.48,0,0,0,1.92.83Zm0-7.2a2.42,2.42,0,0,0-1.82.71,3.15,3.15,0,0,0-.83,2h5.26a3.21,3.21,0,0,0-.83-2,2.4,2.4,0,0,0-1.78-.7Zm12.51,8.17V343h0a2.68,2.68,0,0,1-1.13,1.13,3.35,3.35,0,0,1-1.68.42,3.46,3.46,0,0,1-2-.6,3.7,3.7,0,0,1-1.34-1.68,7,7,0,0,1,0-5.06,3.67,3.67,0,0,1,1.33-1.67,3.5,3.5,0,0,1,2-.59,3.44,3.44,0,0,1,1.67.41,2.68,2.68,0,0,1,1.12,1.09h0v-4.94h1.58v12.82Zm-2.45-8.1a2.21,2.21,0,0,0-1.87.95,5,5,0,0,0,0,5.12,2.18,2.18,0,0,0,1.87,1,2.14,2.14,0,0,0,1.82-1,5.2,5.2,0,0,0,0-5.14,2.15,2.15,0,0,0-1.82-.94Zm10.94-2.93v-1.79h1.59v1.79Zm0,11v-9.14h1.59v9.14Zm8.73-9.34a3.16,3.16,0,0,1,2.45,1,4,4,0,0,1,.86,2.81v5.58h-1.58v-5.45a2.94,2.94,0,0,0-.54-2,2,2,0,0,0-1.57-.61,2.22,2.22,0,0,0-1.7.74,3,3,0,0,0-.67,2.07v5.24h-1.59v-9.14h1.53v1.2h0a3.07,3.07,0,0,1,1.15-1,3.34,3.34,0,0,1,1.62-.38Z" transform="translate(-59.8 -61.57)"/><text class="cls-3" transform="translate(1127.62 304.39)">Nor<tspan class="cls-15" x="30.28" y="0">w</tspan><tspan class="cls-7" x="44.08" y="0">a</tspan><tspan class="cls-140" x="53.37" y="0">y</tspan><tspan x="61.22" y="0">. </tspan><tspan class="cls-66" x="69.42" y="0">E</tspan><tspan x="80.31" y="0">s</tspan><tspan class="cls-31" x="89.21" y="0">p</tspan><tspan class="cls-48" x="99.74" y="0">e</tspan><tspan class="cls-49" x="109.82" y="0">cially </tspan><tspan class="cls-97" x="154.8" y="0">F</tspan><tspan class="cls-115" x="165" y="0">a</tspan><tspan x="174.34" y="0">us</tspan><tspan class="cls-141" x="193.6" y="0">k</tspan><tspan class="cls-17" x="202.17" y="0">e </tspan></text><text class="cls-3" transform="translate(1129.53 325.99)">is <tspan class="cls-142" x="17.42" y="0">c</tspan><tspan x="27.13" y="0">onn</tspan><tspan class="cls-31" x="58.03" y="0">e</tspan><tspan class="cls-49" x="68.09" y="0">c</tspan><tspan class="cls-7" x="77.7" y="0">t</tspan><tspan class="cls-48" x="83.19" y="0">e</tspan><tspan class="cls-49" x="93.27" y="0">d </tspan><tspan class="cls-16" x="107.78" y="0">t</tspan><tspan x="113.27" y="0">o Skje</tspan><tspan class="cls-138" x="161.92" y="0">r</tspan><tspan x="168.21" y="0">stad</tspan></text><text class="cls-3" transform="translate(1332.32 325.99)">-</text><text class="cls-3" transform="translate(1124.7 347.59)">fjo<tspan class="cls-39" x="20.14" y="0">r</tspan><tspan x="26.32" y="0">den th</tspan><tspan class="cls-12" x="77.22" y="0">a</tspan><tspan x="86.6" y="0">t is n</tspan><tspan class="cls-97" x="124.29" y="0">o</tspan><tspan class="cls-17" x="134.35" y="0">t </tspan><tspan class="cls-44" x="144.25" y="0">e</tspan><tspan class="cls-17" x="153.99" y="0">xploi</tspan><tspan class="cls-16" x="191.95" y="0">t</tspan><tspan class="cls-48" x="197.44" y="0">e</tspan><tspan class="cls-49" x="207.52" y="0">d </tspan></text><text class="cls-3" transform="translate(1143.83 369.19)">within its full <tspan class="cls-31" x="105.24" y="0">p</tspan><tspan class="cls-101" x="115.77" y="0">o</tspan><tspan class="cls-7" x="125.85" y="0">t</tspan><tspan x="131.34" y="0">e</tspan><tspan class="cls-44" x="141.24" y="0">n</tspan><tspan x="151.45" y="0">tial. </tspan></text><rect class="cls-9" x="1116.13" y="88.75" width="235" height="442"/></g></svg>