<?xml version="1.0" encoding="utf-8"?>
<!-- Generator: Adobe Illustrator 24.0.0, SVG Export Plug-In . SVG Version: 6.00 Build 0)  -->
<svg version="1.1" id="Layer_1" xmlns="http://www.w3.org/2000/svg" xmlns:xlink="http://www.w3.org/1999/xlink" x="0px" y="0px"
	 viewBox="0 0 1366 768" style="enable-background:new 0 0 1366 768;" xml:space="preserve">
<style type="text/css">
	.st0{clip-path:url(#SVGID_2_);fill:#373535;}
	.st1{clip-path:url(#SVGID_2_);}
	.st2{fill:#373535;}
	.st3{font-family:'NeueHaasUnicaW06-Light';}
	.st4{font-size:18px;}
	.st5{clip-path:url(#SVGID_4_);fill:#FBF7F5;}
	.st6{clip-path:url(#SVGID_4_);fill:#E0B9D1;}
	.st7{opacity:0.3;clip-path:url(#SVGID_4_);}
	.st8{clip-path:url(#SVGID_6_);fill:#E0B9D1;}
	.st9{clip-path:url(#SVGID_4_);fill:#F4F4F5;}
	.st10{clip-path:url(#SVGID_4_);fill:#FBFAF9;}
	.st11{clip-path:url(#SVGID_4_);fill:#FAF5F4;}
	.st12{clip-path:url(#SVGID_4_);fill:#CE4E47;}
	.st13{clip-path:url(#SVGID_8_);fill:#E0B9D1;}
	.st14{clip-path:url(#SVGID_4_);fill:#337BBE;}
	.st15{clip-path:url(#SVGID_10_);fill:#E0B9D1;}
	.st16{clip-path:url(#SVGID_12_);fill:#E0B9D1;}
	.st17{clip-path:url(#SVGID_4_);fill:#FBF4F2;}
	.st18{clip-path:url(#SVGID_4_);fill:#F15A4F;}
	.st19{clip-path:url(#SVGID_14_);fill:#E0B9D1;}
	.st20{clip-path:url(#SVGID_16_);fill:#E0B9D1;}
	.st21{clip-path:url(#SVGID_18_);fill:#E0B9D1;}
	.st22{clip-path:url(#SVGID_20_);fill:#E0B9D1;}
</style>
<g>
	<defs>
		<rect id="SVGID_1_" x="27.59" y="39.79" width="1311.31" height="663.38"/>
	</defs>
	<clipPath id="SVGID_2_">
		<use xlink:href="#SVGID_1_"  style="overflow:visible;"/>
	</clipPath>
	<path class="st0" d="M48.03,57.69c1.97,0,3.44,0.39,4.4,1.18c0.97,0.78,1.45,1.91,1.45,3.38c0,1.1-0.3,2.04-0.91,2.82
		c-0.61,0.78-1.41,1.27-2.4,1.48v0.05c0.62,0.19,1.11,0.51,1.45,0.95c0.34,0.44,0.71,1.19,1.09,2.24l1.8,4.99h-1.7l-1.63-4.75
		c-0.37-1.06-0.8-1.78-1.3-2.18c-0.5-0.4-1.22-0.6-2.18-0.6h-3.53v7.54h-1.56V57.69H48.03L48.03,57.69z M44.57,65.83h3.55
		c1.38,0,2.41-0.32,3.11-0.96c0.7-0.64,1.04-1.49,1.04-2.54c0-2.14-1.42-3.22-4.27-3.22h-3.43V65.83z M62.02,73.82
		c0.98,0,1.78-0.24,2.4-0.73c0.62-0.49,1.03-1.13,1.22-1.93h1.54c-0.21,1.12-0.76,2.06-1.64,2.81c-0.89,0.75-2.06,1.13-3.52,1.13
		c-1.73,0-3.09-0.6-4.08-1.79c-0.99-1.19-1.49-2.8-1.49-4.84c0-1.2,0.22-2.27,0.66-3.2c0.44-0.94,1.07-1.67,1.9-2.2
		c0.82-0.53,1.8-0.79,2.92-0.79c1.36,0,2.49,0.38,3.4,1.15c0.9,0.77,1.49,1.83,1.76,3.19c0.13,0.58,0.19,1.36,0.19,2.35h-9.31
		c0.03,1.57,0.42,2.77,1.18,3.6C59.89,73.4,60.85,73.82,62.02,73.82L62.02,73.82z M61.92,63.55c-1.12,0-2.04,0.38-2.76,1.13
		c-0.72,0.75-1.11,1.78-1.18,3.07h7.85c-0.08-1.33-0.47-2.36-1.18-3.1C63.96,63.91,63.04,63.55,61.92,63.55L61.92,63.55z
		 M74.12,58.87c-0.59,0-1.03,0.17-1.32,0.5c-0.29,0.34-0.43,0.89-0.43,1.66v1.56h2.47v1.25h-2.47v10.94h-1.49V63.83h-2.18v-1.25
		h2.18v-1.7c0-2.19,1-3.29,3-3.29c0.32,0,0.66,0.03,1.01,0.1v1.27C74.66,58.9,74.4,58.87,74.12,58.87L74.12,58.87z M77.21,74.78
		V57.69h1.49v17.09H77.21z M87.34,73.82c0.98,0,1.78-0.24,2.4-0.73c0.62-0.49,1.03-1.13,1.22-1.93h1.54
		c-0.21,1.12-0.76,2.06-1.64,2.81c-0.89,0.75-2.06,1.13-3.52,1.13c-1.73,0-3.09-0.6-4.08-1.79c-0.99-1.19-1.49-2.8-1.49-4.84
		c0-1.2,0.22-2.27,0.66-3.2c0.44-0.94,1.07-1.67,1.9-2.2c0.82-0.53,1.8-0.79,2.92-0.79c1.36,0,2.49,0.38,3.4,1.15
		c0.9,0.77,1.49,1.83,1.76,3.19c0.13,0.58,0.19,1.36,0.19,2.35h-9.31c0.03,1.57,0.42,2.77,1.18,3.6
		C85.21,73.4,86.17,73.82,87.34,73.82L87.34,73.82z M87.24,63.55c-1.12,0-2.04,0.38-2.76,1.13c-0.72,0.75-1.11,1.78-1.18,3.07h7.85
		c-0.08-1.33-0.47-2.36-1.18-3.1C89.28,63.91,88.36,63.55,87.24,63.55L87.24,63.55z M100.47,62.27c1.38,0,2.52,0.42,3.42,1.25
		c0.9,0.83,1.41,1.92,1.52,3.26h-1.56c-0.08-0.94-0.43-1.72-1.06-2.32c-0.62-0.6-1.4-0.9-2.33-0.9c-1.22,0-2.17,0.46-2.87,1.37
		c-0.7,0.91-1.04,2.16-1.04,3.74c0,1.6,0.35,2.85,1.04,3.76c0.7,0.9,1.65,1.36,2.87,1.36c0.91,0,1.68-0.32,2.32-0.97
		c0.63-0.65,0.99-1.44,1.07-2.39h1.56c-0.08,0.88-0.33,1.67-0.76,2.38c-0.42,0.7-1,1.26-1.72,1.67c-0.72,0.41-1.54,0.61-2.47,0.61
		c-1.71,0-3.06-0.57-4.04-1.72c-0.98-1.14-1.48-2.71-1.48-4.69c0-1.98,0.49-3.55,1.48-4.69C97.41,62.85,98.76,62.27,100.47,62.27
		L100.47,62.27z M112.11,73.55c0.3,0,0.58-0.03,0.84-0.1v1.27c-0.35,0.08-0.72,0.12-1.1,0.12c-1.06,0-1.82-0.26-2.28-0.77
		c-0.46-0.51-0.7-1.35-0.7-2.52v-7.73h-2.18v-1.25h2.18v-2.83h1.49v2.83h2.47v1.25h-2.47v7.7c0,0.72,0.13,1.24,0.4,1.55
		S111.47,73.55,112.11,73.55L112.11,73.55z M115.64,59.8v-2.11h1.49v2.11H115.64z M115.64,74.78V62.59h1.49v12.19H115.64z
		 M125.74,62.27c1.73,0,3.09,0.57,4.08,1.72c0.99,1.14,1.49,2.71,1.49,4.69c0,1.98-0.5,3.55-1.49,4.69
		c-0.99,1.14-2.35,1.72-4.08,1.72c-1.73,0-3.09-0.57-4.08-1.72c-0.99-1.14-1.49-2.71-1.49-4.69c0-1.98,0.5-3.55,1.49-4.69
		C122.65,62.85,124.01,62.27,125.74,62.27L125.74,62.27z M125.74,63.57c-1.25,0-2.23,0.46-2.94,1.37c-0.71,0.91-1.07,2.16-1.07,3.74
		s0.36,2.83,1.07,3.74c0.71,0.91,1.69,1.37,2.94,1.37c1.26,0,2.25-0.46,2.96-1.37c0.71-0.91,1.07-2.16,1.07-3.74
		s-0.36-2.83-1.07-3.74C127.99,64.03,127,63.57,125.74,63.57L125.74,63.57z M139.66,62.32c1.41,0,2.48,0.42,3.23,1.27
		c0.74,0.85,1.12,2.1,1.12,3.77v7.42h-1.49v-7.34c0-1.38-0.26-2.36-0.79-2.94c-0.53-0.58-1.3-0.88-2.33-0.88
		c-0.64,0-1.23,0.15-1.78,0.46c-0.54,0.3-0.98,0.75-1.3,1.34c-0.32,0.59-0.48,1.3-0.48,2.14v7.22h-1.49V62.59h1.46v1.66h0.05
		c0.38-0.59,0.91-1.06,1.57-1.4C138.1,62.49,138.84,62.32,139.66,62.32L139.66,62.32z M151.4,62.27c1.44,0,2.56,0.36,3.36,1.09
		c0.8,0.73,1.21,1.76,1.22,3.08h-1.49c0-0.91-0.27-1.62-0.82-2.12c-0.54-0.5-1.3-0.76-2.28-0.76c-0.83,0-1.5,0.18-2,0.55
		c-0.5,0.37-0.76,0.86-0.76,1.46c0,0.48,0.1,0.85,0.31,1.1c0.21,0.26,0.5,0.45,0.88,0.58c0.38,0.13,1,0.3,1.88,0.5
		c1.06,0.24,1.88,0.47,2.47,0.68c0.59,0.22,1.1,0.57,1.52,1.06c0.42,0.49,0.64,1.16,0.64,2.03c0,1.06-0.42,1.91-1.25,2.57
		c-0.83,0.66-1.94,0.98-3.31,0.98c-1.54,0-2.74-0.38-3.6-1.15c-0.86-0.77-1.3-1.86-1.32-3.26h1.51c0,0.99,0.3,1.76,0.89,2.3
		c0.59,0.54,1.43,0.82,2.52,0.82c0.91,0,1.65-0.2,2.22-0.6c0.57-0.4,0.85-0.92,0.85-1.56c0-0.53-0.12-0.94-0.36-1.22
		c-0.24-0.29-0.59-0.51-1.06-0.67c-0.46-0.16-1.2-0.36-2.21-0.6c-0.94-0.22-1.68-0.43-2.2-0.62c-0.52-0.19-0.96-0.51-1.33-0.96
		c-0.37-0.45-0.55-1.06-0.55-1.85c0-1.02,0.4-1.85,1.19-2.48C149.13,62.59,150.15,62.27,151.4,62.27L151.4,62.27z"/>
	<g class="st1">
		<text transform="matrix(1 0 0 1 40.5882 115.7662)"><tspan x="0" y="0" class="st2 st3 st4">Ba</tspan><tspan x="20.5" y="0" class="st2 st3 st4">s</tspan><tspan x="29.27" y="0" class="st2 st3 st4">e</tspan><tspan x="39.13" y="0" class="st2 st3 st4">d on </tspan><tspan x="77.65" y="0" class="st2 st3 st4">r</tspan><tspan x="83.48" y="0" class="st2 st3 st4">es</tspan><tspan x="102.09" y="0" class="st2 st3 st4">ea</tspan><tspan x="121.23" y="0" class="st2 st3 st4">r</tspan><tspan x="127.04" y="0" class="st2 st3 st4">ch </tspan><tspan x="150.69" y="0" class="st2 st3 st4">w</tspan><tspan x="164.17" y="0" class="st2 st3 st4">e </tspan><tspan x="178.02" y="0" class="st2 st3 st4">s</tspan><tspan x="186.78" y="0" class="st2 st3 st4">e</tspan><tspan x="196.66" y="0" class="st2 st3 st4">e th</tspan><tspan x="226.07" y="0" class="st2 st3 st4">a</tspan><tspan x="235.33" y="0" class="st2 st3 st4">t</tspan><tspan x="241.19" y="0" class="st2 st3 st4">: </tspan></text>
	</g>
	<g class="st1">
		<defs>
			<rect id="SVGID_3_" x="27.59" y="39.79" width="1311.31" height="663.38"/>
		</defs>
		<clipPath id="SVGID_4_">
			<use xlink:href="#SVGID_3_"  style="overflow:visible;"/>
		</clipPath>
		<path class="st5" d="M102.38,175.34c-0.03,16.33-0.05,32.66-0.12,48.98c0,1.1-0.36,2.2-0.55,3.3c-2.62,0-5.24,0-8.33,0V202v-16.58
			c-4.39,1.52-8.46,2.92-12.52,4.33c-0.88-7.19-0.88-7.19,5.71-9.6c4.32-1.59,8.63-3.23,12.98-4.73
			C100.4,175.12,101.43,175.35,102.38,175.34"/>
		<path class="st6" d="M102.38,175.34c4.75,4.65,9.53,9.26,14.24,13.95c9.21,9.16,18.38,18.36,27.56,27.55
			c0.74,0.74,1.37,1.59,2.06,2.38c-5.23,15-15.15,25.61-29.79,31.8c-3.41-3.54-6.69-7.22-10.27-10.57
			c-4.05-3.79-8.37-7.28-12.58-10.9c0.39-0.44,0.78-0.87,1.17-1.31c2.32-0.21,4.63-0.42,6.95-0.63c0.19-1.1,0.54-2.2,0.55-3.3
			C102.33,208,102.35,191.67,102.38,175.34"/>
		<path class="st6" d="M80.86,189.74c4.07-1.41,8.13-2.81,12.52-4.33V202c-2.97-2.82-5.95-5.63-8.89-8.47
			C83.23,192.31,82.06,191.01,80.86,189.74"/>
		<g class="st7">
			<g>
				<defs>
					<rect id="SVGID_5_" x="31.59" y="139.71" width="127.02" height="117.07"/>
				</defs>
				<clipPath id="SVGID_6_">
					<use xlink:href="#SVGID_5_"  style="overflow:visible;"/>
				</clipPath>
				<path class="st8" d="M58.19,160.84c1.86-1.49,3.72-2.99,5.59-4.49c9.94-6.35,20.68-9.84,32.61-9.64
					c36.25,0.6,62.15,37.42,50.32,71.7c-0.1,0.29-0.32,0.54-0.48,0.81c-0.68-0.8-1.32-1.64-2.05-2.38
					c-9.18-9.2-18.35-18.39-27.56-27.55c-4.71-4.68-9.49-9.3-14.24-13.95c-0.95,0.01-1.98-0.23-2.83,0.07
					c-4.35,1.5-8.66,3.15-12.98,4.73c-6.59,2.41-6.59,2.41-5.71,9.6c1.21,1.26,2.38,2.57,3.63,3.78c2.94,2.85,5.93,5.65,8.89,8.48
					v25.63h8.33c-2.32,0.21-4.63,0.42-6.95,0.63c-0.39,0.43-0.78,0.87-1.18,1.3c4.21,3.62,8.53,7.11,12.58,10.9
					c3.58,3.35,6.86,7.03,10.27,10.57c-15.24,6.72-30.47,6.22-45.27-0.95c-33.64-16.29-41.01-60.79-14.68-87.37
					C57.08,162.1,57.62,161.46,58.19,160.84"/>
			</g>
		</g>
		<path class="st9" d="M82.39,512.97c-0.18-0.08-0.39-0.25-0.52-0.2s-0.17,0.32-0.24,0.5c0.18,0.08,0.39,0.25,0.51,0.2
			C82.27,513.42,82.31,513.15,82.39,512.97"/>
		<path class="st10" d="M82.39,512.97c-0.08,0.18-0.12,0.45-0.24,0.5c-0.12,0.05-0.34-0.12-0.51-0.2c0.08-0.18,0.11-0.45,0.24-0.5
			C82,512.72,82.21,512.89,82.39,512.97"/>
		<path class="st11" d="M110.16,480.13c3.23,8.41,1.77,13.18-5.93,18.73c5.24,2.46,8.27,6.33,8.26,12.22
			c-0.01,7.18-4.25,12.82-11.21,14.66c-5.16,1.36-10.25,1.02-15.26-0.78c0,0-0.1,0.08-0.1,0.08c-0.45-0.3-0.9-0.59-1.36-0.89
			c-4.28-2.86-6.97-6.64-6.93-12.69c3.07,0.34,5.99,0.67,8.91,1c0.22,4.06,2.84,6.47,7.47,6.9c2.96,0.34,5.67-0.07,7.67-2.58
			c4.49-6,1.59-13.23-5.73-14.11c-2.3-0.28-4.65-0.14-6.97-0.19c-0.1-0.33-0.21-0.67-0.31-1c0.11-1.95,0.22-3.89,0.33-5.78
			c11.15-0.88,13.42-2.11,13.86-7.33c0.38-4.49-1.55-7.49-5.41-8.42c-5.31-1.27-8.33,0.63-11.18,7.21h-7.47
			c-0.11-1.17-0.71-2.6-0.25-3.48c1.33-2.57,2.64-5.42,4.74-7.28C89.97,470.47,105.18,470.9,110.16,480.13"/>
		<path class="st12" d="M84.57,524.15c0.45,0.3,0.9,0.59,1.36,0.89C85.47,524.74,85.02,524.45,84.57,524.15"/>
		<g class="st7">
			<g>
				<defs>
					<rect id="SVGID_7_" x="31.59" y="438.12" width="126.87" height="117.02"/>
				</defs>
				<clipPath id="SVGID_8_">
					<use xlink:href="#SVGID_7_"  style="overflow:visible;"/>
				</clipPath>
				<path class="st13" d="M68.56,451.81c8.69-4.48,17.87-6.94,27.71-6.67c18.87,0.53,33.32,9.07,44.12,24.26
					c7.72,10.85,9.62,23.15,8.93,36.08c-0.82,3.41-1.64,6.82-2.46,10.23c-0.87-0.75-1.8-1.45-2.62-2.26
					c-10.46-10.43-20.89-20.88-31.36-31.3c-0.79-0.79-1.82-1.35-2.73-2.02c-4.98-9.24-20.19-9.67-26.85-3.75
					c-2.1,1.86-3.41,4.71-4.74,7.28c-0.45,0.88,0.14,2.3,0.25,3.48c1.34,1.45,2.7,2.88,4.03,4.34c2.65,2.91,6.59,5.08,5.83,9.98
					c0.1,0.33,0.21,0.67,0.31,1c3.66,3.71,7.36,7.39,10.94,11.17c0.8,0.84,1.19,2.08,1.76,3.13c-2,2.51-4.71,2.92-7.67,2.58
					c-2.49-2.3-4.98-4.6-7.47-6.9c-2.92-0.33-5.83-0.65-8.91-1c-0.04,6.05,2.65,9.83,6.93,12.69c0.45,0.3,0.9,0.59,1.36,0.89
					l0.1-0.08c0.83,1.29,1.48,2.76,2.53,3.83c6.43,6.55,12.94,13.01,19.46,19.48c1.09,1.09,2.3,2.06,3.46,3.08
					c-24.62,8.85-54.53-4.13-65.67-28.52c-11.87-25.98-2.92-55.26,21.45-70.15C67.7,452.42,68.12,452.11,68.56,451.81"/>
			</g>
		</g>
		<path class="st6" d="M111.46,551.36c-1.16-1.02-2.36-1.99-3.46-3.08c-6.51-6.47-13.03-12.94-19.46-19.48
			c-1.05-1.07-1.7-2.55-2.53-3.83c5.01,1.79,10.1,2.14,15.26,0.78c6.95-1.83,11.2-7.47,11.21-14.66c0.01-5.89-3.02-9.76-8.26-12.22
			c7.7-5.55,9.16-10.32,5.93-18.73c0.92,0.67,1.94,1.23,2.73,2.02c10.47,10.42,20.9,20.87,31.36,31.3c0.81,0.81,1.74,1.51,2.61,2.26
			c-4.96,16.22-15.56,27.35-30.94,34.12C114.49,550.46,112.95,550.85,111.46,551.36"/>
		<path class="st6" d="M78.82,487.14h7.47c2.85-6.58,5.87-8.48,11.18-7.21c3.85,0.92,5.79,3.93,5.41,8.42
			c-0.44,5.22-2.72,6.45-13.86,7.33c-0.11,1.89-0.22,3.84-0.33,5.78c0.76-4.91-3.18-7.07-5.83-9.99
			C81.52,490.02,80.16,488.59,78.82,487.14"/>
		<path class="st6" d="M88.99,502.47c2.32,0.05,4.67-0.08,6.97,0.19c7.32,0.88,10.22,8.11,5.73,14.11
			c-0.58-1.05-0.96-2.29-1.76-3.13C96.35,509.86,92.65,506.18,88.99,502.47"/>
		<path class="st6" d="M94.02,519.35c-4.63-0.42-7.25-2.83-7.47-6.89C89.04,514.76,91.53,517.05,94.02,519.35"/>
		<path class="st11" d="M79.41,377.4c-0.39-0.28-0.67-0.48-1.06-0.77c-0.84-2.8-0.81-5.33,1.6-7.82
			c5.04-5.22,9.78-10.73,14.65-16.11c1.14-1.23,2.34-2.41,3.39-3.71c2.26-2.81,4.37-5.7,4.39-9.56c0.03-4.49-2.34-7.72-6.16-8.32
			c-4.91-0.76-8.79,1.58-10.01,6.07c-0.29,1.08-0.49,2.19-0.71,3.21H76.8c1.06-15.88,15.66-18.9,25.77-15.02
			c2.87,1.1,4.96,4.23,7.41,6.42c2.57,6.52,1.28,12.62-2.88,17.86c-4.71,5.94-9.97,11.43-15,17.12c-0.76,0.86-1.53,1.7-3,3.33h12.16
			h12.26c-0.23,2.6-0.44,4.93-0.65,7.26C101.71,377.37,90.56,377.38,79.41,377.4"/>
		<path class="st14" d="M82.43,377.39c10.14-0.01,20.28-0.03,30.43-0.04c-1.04,0.3-2.09,0.96-3.14,0.45
			c-7.65-3.73-16.3-3.08-24.21,0.05C84.48,378.26,83.46,377.67,82.43,377.39"/>
		<g class="st7">
			<g>
				<defs>
					<rect id="SVGID_9_" x="31.59" y="288.77" width="127.02" height="117.35"/>
				</defs>
				<clipPath id="SVGID_10_">
					<use xlink:href="#SVGID_9_"  style="overflow:visible;"/>
				</clipPath>
				<path class="st15" d="M105.23,403.9c-27.39,6.28-56.61-12.36-63.02-40.8c-4.83-21.43,1.11-40.04,17.97-54.18
					c17.05-14.3,36.61-16.85,57.03-8.1c24.75,10.6,37.53,38.11,30.46,64.11c-0.22,0.8-0.6,1.57-0.91,2.35
					c-0.28-0.14-0.62-0.22-0.83-0.43c-11.15-11.1-22.27-22.22-33.43-33.3c-0.72-0.71-1.67-1.18-2.52-1.76
					c-2.45-2.2-4.54-5.32-7.41-6.42c-10.11-3.88-24.71-0.87-25.77,15.02c5.93,4.11,11.86,8.21,17.79,12.32
					c-4.86,5.39-9.6,10.9-14.65,16.11c-2.62,2.71-2.42,5.47-1.36,8.56c6.37,6.49,12.71,13.02,19.12,19.47
					C100.13,399.27,102.72,401.55,105.23,403.9"/>
			</g>
		</g>
		<path class="st6" d="M105.23,403.9c-2.51-2.35-5.1-4.63-7.52-7.07c-6.41-6.45-12.75-12.97-19.12-19.47
			c1.28,0.01,2.56,0.02,3.85,0.03c1.03,0.28,2.05,0.87,3.08,0.46c7.91-3.15,16.56-3.79,24.21-0.05c1.05,0.51,2.09-0.14,3.14-0.45
			c0.21-2.33,0.42-4.65,0.65-7.26h-12.26H89.09c1.47-1.63,2.24-2.47,3-3.33c5.03-5.69,10.29-11.18,15-17.12
			c4.17-5.25,5.45-11.34,2.89-17.86c0.85,0.58,1.8,1.05,2.52,1.76c11.16,11.09,22.29,22.2,33.43,33.3c0.21,0.21,0.55,0.29,0.83,0.43
			C139.87,387.37,125.95,399.49,105.23,403.9"/>
		<path class="st6" d="M76.8,340.37h8.69c0.22-1.01,0.42-2.13,0.71-3.21c1.23-4.49,5.11-6.83,10.01-6.07
			c3.83,0.59,6.19,3.83,6.16,8.32c-0.02,3.86-2.12,6.76-4.39,9.56c-1.05,1.3-2.26,2.48-3.39,3.71
			C88.66,348.58,82.73,344.48,76.8,340.37"/>
		<path class="st11" d="M98.71,656.06v-21.24c-4.65,7.39-8.88,14.1-13.38,21.24h2.39H98.71z M108.11,655.66
			c1.95,0.21,3.9,0.43,6.05,0.66v6.72h-6.28v11.69h-9.23c0-3.83,0-7.48,0-11.14c-2.57-0.16-5.13-0.42-7.7-0.46
			c-4.74-0.08-9.48-0.02-14.37-0.02c-0.74-2.84-0.72-5.24,0.97-7.81c6.48-9.87,12.83-19.83,19.05-29.86
			c1.44-2.33,2.94-3.57,5.75-3.16c1.64,0.24,3.34,0.04,5.11,0.04c0.22,1.32,0.4,2.43,0.58,3.54l0.04,0.06
			c-0.11,6.38-0.29,12.75-0.31,19.13C107.75,648.59,107.99,652.13,108.11,655.66"/>
		<path class="st14" d="M108.08,625.92c0.08,8.96,0.17,17.91,0.25,26.87c-0.07,0.96-0.15,1.91-0.22,2.87
			c-0.12-3.54-0.36-7.07-0.35-10.61C107.79,638.68,107.97,632.3,108.08,625.92"/>
		<path class="st6" d="M108.08,625.92c0,0-0.04-0.06-0.04-0.06c0.11-0.9,0.22-1.79,0.42-3.4c0.24,1.01,0.34,1.41,0.43,1.8
			c-0.01,8.4-0.01,16.81-0.07,25.21c-0.01,1.11-0.32,2.21-0.49,3.32C108.25,643.84,108.16,634.88,108.08,625.92"/>
		<g class="st7">
			<g>
				<defs>
					<rect id="SVGID_11_" x="31.67" y="587.14" width="126.94" height="117.03"/>
				</defs>
				<clipPath id="SVGID_12_">
					<use xlink:href="#SVGID_11_"  style="overflow:visible;"/>
				</clipPath>
				<path class="st16" d="M112.76,699.91c-15.85,5.6-31.11,3.94-45.38-4.58c-20.24-12.07-30.09-34.57-25.67-57.27
					c4.36-22.39,21.9-39.7,45.09-43.26c39.02-5.99,70.53,29.33,61.13,67.17c-0.05,0.2-0.2,0.37-0.3,0.56
					c-12.21-12.33-24.42-24.67-36.66-36.98c-0.56-0.56-1.39-0.86-2.09-1.28c-0.1-0.39-0.19-0.79-0.43-1.8
					c-0.2,1.6-0.31,2.5-0.42,3.4c-0.18-1.11-0.36-2.22-0.58-3.54c-1.77,0-3.47,0.2-5.11-0.04c-2.81-0.41-4.31,0.83-5.75,3.16
					c-6.22,10.04-12.57,19.99-19.05,29.86c-1.68,2.57-1.7,4.97-0.97,7.81c4.89,0,9.63-0.05,14.37,0.02c2.57,0.04,5.13,0.3,7.7,0.46
					H77.03c0.79,0.97,1.08,1.39,1.43,1.74c10.46,10.46,20.92,20.92,31.38,31.39C110.85,697.74,111.79,698.85,112.76,699.91"/>
			</g>
		</g>
		<path class="st6" d="M108.89,624.27c0.7,0.42,1.53,0.72,2.09,1.28c12.24,12.31,24.44,24.65,36.66,36.98
			c-5.12,18.52-16.72,31.01-34.87,37.38c-0.97-1.06-1.91-2.17-2.92-3.18c-10.45-10.47-20.92-20.92-31.38-31.39
			c-0.35-0.35-0.64-0.77-1.43-1.74c7.61,0,14.61,0,21.62,0c0,3.66,0,7.31,0,11.14h9.23v-11.69h6.28v-6.72
			c-2.16-0.24-4.1-0.45-6.05-0.66c0.07-0.96,0.14-1.91,0.22-2.87c0.17-1.1,0.48-2.21,0.49-3.32
			C108.88,641.08,108.87,632.67,108.89,624.27"/>
		<path class="st6" d="M98.71,656.06H87.72h-2.39c4.5-7.15,8.72-13.86,13.38-21.24V656.06z"/>
		<path class="st17" d="M760.48,475.82c0.34,3.94-1.24,7.35-2.8,10.82c-5.59,12.49-11.17,24.99-16.5,37.6
			c-1.21,2.86-2.66,4.27-5.72,3.86c-0.57,0-1.15,0-1.72-0.01c-0.25,0-0.51,0-0.76,0c-0.81-0.11-1.62-0.22-2.6-0.36
			c4.11-9.15,8.15-18.13,12.18-27.11c2.79-5.87,5.58-11.74,8.52-17.91h-26.37c-0.32-2.31-0.64-4.61-1.02-7.31c3.31,0,6.03,0,8.74,0
			c8.22,0,16.45-0.02,24.67,0.01C758.23,475.42,759.35,475.68,760.48,475.82"/>
		<path class="st18" d="M733.74,528.09c0.57,0,1.15,0,1.72,0.01C734.89,528.09,734.32,528.09,733.74,528.09"/>
		<g class="st7">
			<g>
				<defs>
					<rect id="SVGID_13_" x="678.66" y="440.24" width="127.04" height="116.97"/>
				</defs>
				<clipPath id="SVGID_14_">
					<use xlink:href="#SVGID_13_"  style="overflow:visible;"/>
				</clipPath>
				<path class="st19" d="M756.66,554.04c-19.42,5.24-36.71,0.95-51.46-12.45c-17.23-15.64-22.21-40.51-12.95-61.63
					c9.32-21.23,30.76-34.18,53.96-32.59c30.51,2.1,53.63,29.91,50.14,60.31c-0.1,0.83-0.36,1.65-0.54,2.47
					c-1.82-1.53-3.75-2.95-5.44-4.62c-10-9.87-19.94-19.81-29.9-29.72c-1.12-0.14-2.25-0.4-3.38-0.4
					c-8.22-0.03-16.44-0.02-24.67-0.01c-2.71,0-5.43,0-8.74,0c0.38,2.7,0.7,5.01,1.02,7.31c3.41,3.54,6.78,7.12,10.24,10.6
					c2.48,2.5,5.07,4.88,7.61,7.31c-4.03,8.98-8.07,17.95-12.18,27.11c0.98,0.14,1.79,0.25,2.6,0.36c-0.52,0.27-1.03,0.54-1.86,0.98
					c3.2,3.13,6.23,6.07,9.24,9.03C745.8,543.41,751.23,548.73,756.66,554.04"/>
			</g>
		</g>
		<path class="st6" d="M756.66,554.04c-5.43-5.32-10.86-10.63-16.29-15.95c-3.02-2.95-6.04-5.9-9.24-9.03
			c0.83-0.44,1.35-0.71,1.86-0.98c0.25,0,0.5,0,0.76,0c0.57,0,1.15,0.01,1.72,0.01c3.06,0.41,4.51-1,5.72-3.86
			c5.32-12.61,10.91-25.1,16.5-37.6c1.55-3.48,3.13-6.89,2.8-10.82c9.96,9.91,19.9,19.85,29.9,29.72c1.69,1.67,3.62,3.08,5.44,4.62
			c-3.27,19.98-14.58,33.68-32.85,41.87C760.97,552.92,758.77,553.38,756.66,554.04"/>
		<path class="st6" d="M724.71,482.71h26.37c-2.93,6.17-5.72,12.04-8.51,17.91c-2.54-2.43-5.14-4.81-7.61-7.31
			C731.49,489.83,728.12,486.25,724.71,482.71"/>
		<path class="st11" d="M736.92,182.57c-0.56,3.8-1.11,7.6-1.63,11.11c3.57-0.36,6.69-1.02,9.79-0.92c5.77,0.18,9.98,3.08,12.4,8.39
			c5.68,12.46-1.03,25.94-13.42,26.52c-3.4,0.16-6.85-0.84-10.28-1.31c-5.05-2.91-8.55-6.85-8.82-13.25c2.92,0,5.71,0,8.49,0
			c0.98,4.99,2.82,6.88,7.32,7.52c1.49-0.21,2.97-0.41,4.46-0.62c5.02-2.22,5.32-6.68,5.1-11.21c-0.35-7.17-6.93-11.54-13.24-8.18
			c-3.39,1.8-6.2,1.71-9.46,0.92c-0.33-0.68-0.99-1.4-0.93-2.04c0.79-8.2,1.69-16.39,2.61-24.98c3.8,0,7.46,0,11.12,0
			c4.76,0,9.52-0.03,14.28,0.03c1.01,0.01,2.01,0.35,3.02,0.53c0.01,2.2,0.03,4.4,0.04,6.6c-3.65,0.14-7.3,0.26-10.94,0.42
			C743.53,182.24,740.23,182.41,736.92,182.57"/>
		<path class="st6" d="M736.92,182.57c3.3-0.15,6.6-0.32,9.91-0.46c3.65-0.15,7.29-0.28,10.94-0.42c-0.78,0.32-1.56,0.9-2.34,0.9
			C749.26,182.64,743.09,182.59,736.92,182.57"/>
		<g class="st7">
			<g>
				<defs>
					<rect id="SVGID_15_" x="678.59" y="139.71" width="126.99" height="117.08"/>
				</defs>
				<clipPath id="SVGID_16_">
					<use xlink:href="#SVGID_15_"  style="overflow:visible;"/>
				</clipPath>
				<path class="st20" d="M759.84,252.53c-23.03,9.11-51.98-1.51-64.75-23.75c-20.85-36.33,4.12-80.89,45.99-82.05
					c33.52-0.93,60.28,29.84,54.78,63.01c-0.12,0.73-0.36,1.43-0.54,2.15c-0.59-0.39-1.27-0.7-1.75-1.19
					c-1.98-2.01-3.86-4.12-5.86-6.1c-3.93-3.9-7.94-7.74-11.89-11.62c-6.04-5.95-12.05-11.92-18.08-17.88
					c-1.01-0.19-2.01-0.52-3.02-0.53c-4.76-0.06-9.52-0.03-14.28-0.03c-3.66,0-7.31,0-11.12,0c-0.91,8.59-1.81,16.78-2.6,24.98
					c-0.06,0.65,0.6,1.36,0.93,2.04c0.12,0.36,0.14,0.82,0.38,1.07c5.72,5.82,11.47,11.61,17.21,17.4
					c-1.49,0.21-2.97,0.41-4.46,0.62c-2.44-2.51-4.88-5.02-7.32-7.52h-8.49c0.27,6.4,3.77,10.34,8.82,13.25
					c0.48,0.89,0.78,1.95,1.46,2.64c7.41,7.58,14.87,15.12,22.37,22.61C758.14,252.14,759.09,252.24,759.84,252.53"/>
			</g>
		</g>
		<path class="st6" d="M757.73,175.09c6.02,5.96,12.04,11.93,18.08,17.88c3.95,3.89,7.95,7.72,11.89,11.62c2,1.99,3.88,4.1,5.86,6.1
			c0.49,0.49,1.17,0.8,1.76,1.19c-4.34,20.08-16.23,33.57-35.48,40.65c-0.75-0.29-1.7-0.39-2.22-0.91
			c-7.5-7.49-14.96-15.03-22.37-22.61c-0.68-0.69-0.98-1.75-1.46-2.64c3.43,0.47,6.89,1.47,10.28,1.31
			c12.39-0.59,19.1-14.06,13.42-26.52c-2.42-5.31-6.63-8.21-12.4-8.39c-3.1-0.1-6.22,0.56-9.79,0.92c0.51-3.52,1.07-7.31,1.63-11.11
			c6.17,0.02,12.34,0.08,18.51,0.02c0.78-0.01,1.56-0.59,2.34-0.9C757.76,179.49,757.74,177.29,757.73,175.09"/>
		<path class="st6" d="M727.64,201.55c3.26,0.79,6.07,0.88,9.45-0.92c6.31-3.36,12.89,1.02,13.24,8.18
			c0.22,4.53-0.08,8.99-5.1,11.21c-5.74-5.8-11.49-11.59-17.21-17.4C727.78,202.37,727.76,201.91,727.64,201.55"/>
		<path class="st11" d="M749.45,637.03c0.2-4.86-2.67-8.21-7.11-8.3c-4.32-0.09-7.14,2.77-7.29,7.4c-0.16,4.89,2.44,8.06,6.75,8.24
			C746.33,644.57,749.26,641.77,749.45,637.03 M742.23,668.56c5.26,0.01,8.27-2.94,8.34-8.19c0.07-5.24-3.22-8.8-8.22-8.9
			c-5.03-0.1-8.48,3.37-8.52,8.57C733.8,665.4,736.9,668.55,742.23,668.56 M757.09,629.76c2.58,8.31,1.19,12.82-5.73,18.12
			c5.04,3,8.23,7.09,8.06,13.24c-0.18,6.56-4.01,11.79-10.34,13.59c-5.79,1.65-11.48,1.23-16.99-1.25
			c-6.38-4.93-8.88-10.95-6.24-17.29c1.35-3.23,4.16-5.86,6.39-8.87c-5.53-3.59-7.51-9.37-5.12-16.25c0.84-2.43,2.73-4.89,4.82-6.41
			C739.93,618.8,751.89,621.39,757.09,629.76"/>
		<g class="st7">
			<g>
				<defs>
					<rect id="SVGID_17_" x="678.66" y="587.2" width="127.19" height="116.97"/>
				</defs>
				<clipPath id="SVGID_18_">
					<use xlink:href="#SVGID_17_"  style="overflow:visible;"/>
				</clipPath>
				<path class="st21" d="M758.84,700.35c-20.5,6.27-38.81,2.07-54.29-12.49c-17.05-16.02-21.46-40.34-12.01-61.55
					c9.23-20.71,30.36-33.37,53.42-32.01c35.27,2.09,59.93,39.15,47.73,71.73c-1.97-2.09-3.91-4.23-5.93-6.27
					c-9.67-9.77-19.35-19.52-29.06-29.24c-0.4-0.4-1.07-0.51-1.62-0.75c-5.19-8.37-17.16-10.96-25.17-5.12
					c-2.09,1.52-3.97,3.99-4.82,6.41c-2.39,6.88-0.41,12.66,5.12,16.25c-2.23,3.01-5.04,5.63-6.39,8.87
					c-2.64,6.34-0.14,12.36,6.24,17.29c0.99,1.15,1.91,2.37,2.99,3.44C742.98,684.73,750.91,692.54,758.84,700.35"/>
			</g>
		</g>
		<path class="st6" d="M757.09,629.76c0.55,0.24,1.22,0.36,1.62,0.75c9.71,9.73,19.39,19.48,29.06,29.24
			c2.02,2.04,3.95,4.18,5.93,6.27c-5.98,17.16-17.56,28.64-34.85,34.32c-7.93-7.82-15.86-15.62-23.77-23.46
			c-1.08-1.07-2-2.29-2.99-3.44c5.51,2.48,11.21,2.9,16.99,1.25c6.34-1.8,10.16-7.03,10.34-13.59c0.17-6.16-3.02-10.24-8.06-13.24
			C758.28,642.58,759.67,638.07,757.09,629.76"/>
		<path class="st6" d="M742.24,668.56c-5.34-0.01-8.44-3.16-8.4-8.52c0.04-5.2,3.49-8.67,8.52-8.57c5,0.1,8.28,3.66,8.22,8.9
			C750.51,665.62,747.5,668.58,742.24,668.56"/>
		<path class="st6" d="M749.45,637.03c-0.19,4.73-3.12,7.54-7.66,7.34c-4.31-0.18-6.9-3.35-6.75-8.24c0.15-4.63,2.96-7.49,7.29-7.4
			C746.78,628.83,749.65,632.18,749.45,637.03"/>
		<g class="st7">
			<g>
				<defs>
					<rect id="SVGID_19_" x="678.59" y="288.77" width="127.11" height="117.05"/>
				</defs>
				<clipPath id="SVGID_20_">
					<use xlink:href="#SVGID_19_"  style="overflow:visible;"/>
				</clipPath>
				<path class="st22" d="M759.73,401.64c-19.47,6.46-37.26,3.05-52.86-9.98c-17.36-14.51-23.55-37.96-16.33-58.96
					c7.34-21.36,26.72-35.77,49.55-36.87c36.97-1.78,65.28,34.98,54.15,70.3c-0.06,0.19-0.23,0.35-0.34,0.52
					c-0.58-0.99-0.97-2.15-1.75-2.94c-4.48-4.49-9.06-8.88-13.58-13.33c-8.88-8.76-17.75-17.53-26.62-26.3
					c-0.56-0.2-1.12-0.55-1.69-0.58c-10.54-0.44-19.89,5.35-23,15.37c-1.72,5.53-2.21,11.56-2.43,17.4
					c-0.31,8.08,2.71,14.84,9.95,19.21c0.62,0.94,1.11,2.01,1.88,2.79c5.87,5.95,11.81,11.83,17.7,17.76
					C756.2,397.87,757.95,399.77,759.73,401.64"/>
			</g>
		</g>
		<path class="st11" d="M733.07,357.28c0.83,2.8,1.37,5.73,2.56,8.36c1.38,3.04,4.09,4.51,7.5,4.22c3.28-0.27,5.98-2.05,6.54-5.12
			c0.64-3.5,0.77-7.36-0.03-10.79c-0.98-4.19-5-5.94-9.28-5.08C736.21,349.7,733.57,352.92,733.07,357.28 M751.96,324.1v6.59
			c-5.82,0.25-11.3,1.19-14.73,6.17c-1.6,2.32-2.47,5.15-3.3,7.97c4.31-2.74,8.69-4.16,13.47-3c2.28,0.55,4.67,1.57,6.46,3.04
			c6.14,5.03,7.55,16.8,3.19,24.25c-4.1,7.01-12.81,9.81-21.07,6.79c-0.39-0.14-0.79-0.27-1.19-0.41
			c-7.24-4.37-10.26-11.14-9.95-19.21c0.23-5.84,0.72-11.87,2.43-17.4c3.11-10.02,12.46-15.81,23-15.37
			C750.84,323.54,751.4,323.9,751.96,324.1"/>
		<path class="st6" d="M759.73,401.64c-1.79-1.87-3.54-3.77-5.36-5.6c-5.89-5.92-11.83-11.81-17.7-17.76
			c-0.77-0.78-1.26-1.85-1.88-2.79c0.4,0.13,0.8,0.26,1.19,0.41c8.26,3.02,16.97,0.22,21.07-6.79c4.36-7.45,2.95-19.22-3.19-24.25
			c-1.79-1.47-4.18-2.49-6.46-3.04c-4.78-1.15-9.16,0.26-13.47,3c0.83-2.82,1.7-5.65,3.3-7.97c3.43-4.98,8.91-5.92,14.73-6.17v-6.59
			c8.87,8.77,17.74,17.54,26.62,26.3c4.52,4.45,9.1,8.83,13.58,13.33c0.78,0.78,1.18,1.95,1.75,2.94
			C788.3,383.98,776.9,395.62,759.73,401.64"/>
		<path class="st6" d="M733.07,357.28c0.5-4.35,3.14-7.57,7.29-8.41c4.28-0.86,8.3,0.89,9.28,5.08c0.8,3.43,0.67,7.29,0.03,10.79
			c-0.57,3.07-3.26,4.85-6.54,5.12c-3.42,0.28-6.13-1.18-7.5-4.22C734.44,363.01,733.9,360.08,733.07,357.28"/>
	</g>
	<g class="st1">
		<text transform="matrix(1 0 0 1 159.4534 198.0665)"><tspan x="0" y="0" class="st2 st3 st4">The demands </tspan><tspan x="112.21" y="0" class="st2 st3 st4">f</tspan><tspan x="117.11" y="0" class="st2 st3 st4">or whi</tspan><tspan x="165.16" y="0" class="st2 st3 st4">t</tspan><tspan x="170.28" y="0" class="st2 st3 st4">e marble is the bigg</tspan><tspan x="324.01" y="0" class="st2 st3 st4">e</tspan><tspan x="333.84" y="0" class="st2 st3 st4">st one on the i</tspan><tspan x="443.67" y="0" class="st2 st3 st4">n</tspan><tspan x="453.61" y="0" class="st2 st3 st4">t</tspan><tspan x="458.72" y="0" class="st2 st3 st4">erna</tspan></text>
	</g>
	<g class="st1">
		<text transform="matrix(1 0 0 1 653.7049 198.0665)" class="st2 st3 st4">-</text>
	</g>
	<g class="st1">
		<text transform="matrix(1 0 0 1 159.4534 219.6661)"><tspan x="0" y="0" class="st2 st3 st4">tional mar</tspan><tspan x="78.17" y="0" class="st2 st3 st4">k</tspan><tspan x="86.38" y="0" class="st2 st3 st4">e</tspan><tspan x="95.96" y="0" class="st2 st3 st4">t</tspan></text>
	</g>
	<g class="st1">
		<text transform="matrix(1 0 0 1 159.615 347.2687)"><tspan x="0" y="0" class="st2 st3 st4">F</tspan><tspan x="10.1" y="0" class="st2 st3 st4">a</tspan><tspan x="19.3" y="0" class="st2 st3 st4">us</tspan><tspan x="38.05" y="0" class="st2 st3 st4">k</tspan><tspan x="46.28" y="0" class="st2 st3 st4">e has </tspan><tspan x="92.45" y="0" class="st2 st3 st4">s</tspan><tspan x="101.19" y="0" class="st2 st3 st4">ome un</tspan><tspan x="160.45" y="0" class="st2 st3 st4">e</tspan><tspan x="169.97" y="0" class="st2 st3 st4">xploi</tspan><tspan x="206.69" y="0" class="st2 st3 st4">t</tspan><tspan x="211.82" y="0" class="st2 st3 st4">e</tspan><tspan x="221.68" y="0" class="st2 st3 st4">d de</tspan><tspan x="255.86" y="0" class="st2 st3 st4">p</tspan><tspan x="266.21" y="0" class="st2 st3 st4">o</tspan><tspan x="276.29" y="0" class="st2 st3 st4">sits of whi</tspan><tspan x="354.2" y="0" class="st2 st3 st4">t</tspan><tspan x="359.31" y="0" class="st2 st3 st4">e marble th</tspan><tspan x="447.72" y="0" class="st2 st3 st4">a</tspan><tspan x="456.97" y="0" class="st2 st3 st4">t can </tspan></text>
	</g>
	<g class="st1">
		<text transform="matrix(1 0 0 1 159.615 368.8683)"><tspan x="0" y="0" class="st2 st3 st4">b</tspan><tspan x="10.35" y="0" class="st2 st3 st4">e quarri</tspan><tspan x="70.52" y="0" class="st2 st3 st4">e</tspan><tspan x="80.39" y="0" class="st2 st3 st4">d</tspan></text>
	</g>
	<g class="st1">
		<text transform="matrix(1 0 0 1 159.4534 495.6964)"><tspan x="0" y="0" class="st2 st3 st4">F</tspan><tspan x="10.1" y="0" class="st2 st3 st4">a</tspan><tspan x="19.3" y="0" class="st2 st3 st4">us</tspan><tspan x="38.05" y="0" class="st2 st3 st4">k</tspan><tspan x="46.28" y="0" class="st2 st3 st4">e has </tspan><tspan x="92.45" y="0" class="st2 st3 st4">s</tspan><tspan x="101.19" y="0" class="st2 st3 st4">ome un</tspan><tspan x="160.45" y="0" class="st2 st3 st4">e</tspan><tspan x="169.97" y="0" class="st2 st3 st4">xploi</tspan><tspan x="206.69" y="0" class="st2 st3 st4">t</tspan><tspan x="211.82" y="0" class="st2 st3 st4">e</tspan><tspan x="221.68" y="0" class="st2 st3 st4">d de</tspan><tspan x="255.86" y="0" class="st2 st3 st4">p</tspan><tspan x="266.21" y="0" class="st2 st3 st4">o</tspan><tspan x="276.29" y="0" class="st2 st3 st4">sits of whi</tspan><tspan x="354.2" y="0" class="st2 st3 st4">t</tspan><tspan x="359.31" y="0" class="st2 st3 st4">e marble th</tspan><tspan x="447.72" y="0" class="st2 st3 st4">a</tspan><tspan x="456.97" y="0" class="st2 st3 st4">t can </tspan></text>
	</g>
	<g class="st1">
		<text transform="matrix(1 0 0 1 159.4534 517.296)"><tspan x="0" y="0" class="st2 st3 st4">b</tspan><tspan x="10.35" y="0" class="st2 st3 st4">e quarri</tspan><tspan x="70.52" y="0" class="st2 st3 st4">e</tspan><tspan x="80.39" y="0" class="st2 st3 st4">d</tspan></text>
	</g>
	<g class="st1">
		<text transform="matrix(1 0 0 1 159.4534 642.2706)"><tspan x="0" y="0" class="st2 st3 st4">This will inc</tspan><tspan x="91.22" y="0" class="st2 st3 st4">r</tspan><tspan x="97.04" y="0" class="st2 st3 st4">ea</tspan><tspan x="116.17" y="0" class="st2 st3 st4">s</tspan><tspan x="124.94" y="0" class="st2 st3 st4">e the </tspan><tspan x="168.19" y="0" class="st2 st3 st4">e</tspan><tspan x="177.71" y="0" class="st2 st3 st4">x</tspan><tspan x="186.28" y="0" class="st2 st3 st4">t</tspan><tspan x="191.71" y="0" class="st2 st3 st4">r</tspan><tspan x="197.53" y="0" class="st2 st3 st4">action, and mig</tspan><tspan x="317.23" y="0" class="st2 st3 st4">h</tspan><tspan x="327.16" y="0" class="st2 st3 st4">t ma</tspan><tspan x="361.38" y="0" class="st2 st3 st4">k</tspan><tspan x="369.6" y="0" class="st2 st3 st4">e enough </tspan><tspan x="447.79" y="0" class="st2 st3 st4">v</tspan><tspan x="455.86" y="0" class="st2 st3 st4">olume </tspan></text>
	</g>
	<g class="st1">
		<text transform="matrix(1 0 0 1 159.4534 663.8702)"><tspan x="0" y="0" class="st2 st3 st4">t</tspan><tspan x="5.13" y="0" class="st2 st3 st4">o t</tspan><tspan x="24.64" y="0" class="st2 st3 st4">r</tspan><tspan x="30.46" y="0" class="st2 st3 st4">ans</tspan><tspan x="58.64" y="0" class="st2 st3 st4">p</tspan><tspan x="68.97" y="0" class="st2 st3 st4">o</tspan><tspan x="78.91" y="0" class="st2 st3 st4">r</tspan><tspan x="85.37" y="0" class="st2 st3 st4">t the m</tspan><tspan x="139.57" y="0" class="st2 st3 st4">a</tspan><tspan x="148.82" y="0" class="st2 st3 st4">t</tspan><tspan x="153.95" y="0" class="st2 st3 st4">erial </tspan><tspan x="191.68" y="0" class="st2 st3 st4">b</tspan><tspan x="201.72" y="0" class="st2 st3 st4">y </tspan><tspan x="214.07" y="0" class="st2 st3 st4">r</tspan><tspan x="219.88" y="0" class="st2 st3 st4">ail</tspan><tspan x="237.52" y="0" class="st2 st3 st4">w</tspan><tspan x="251" y="0" class="st2 st3 st4">a</tspan><tspan x="260.18" y="0" class="st2 st3 st4">y</tspan><tspan x="267.76" y="0" class="st2 st3 st4">. B</tspan><tspan x="286.75" y="0" class="st2 st3 st4">e</tspan><tspan x="296.33" y="0" class="st2 st3 st4">t</tspan><tspan x="301.76" y="0" class="st2 st3 st4">t</tspan><tspan x="306.87" y="0" class="st2 st3 st4">er </tspan><tspan x="326.96" y="0" class="st2 st3 st4">f</tspan><tspan x="331.88" y="0" class="st2 st3 st4">or the e</tspan><tspan x="391.31" y="0" class="st2 st3 st4">n</tspan><tspan x="401.08" y="0" class="st2 st3 st4">vi</tspan><tspan x="413.29" y="0" class="st2 st3 st4">r</tspan><tspan x="419.12" y="0" class="st2 st3 st4">onme</tspan><tspan x="464.1" y="0" class="st2 st3 st4">n</tspan><tspan x="474.04" y="0" class="st2 st3 st4">t </tspan></text>
	</g>
	<g class="st1">
		<text transform="matrix(1 0 0 1 159.4534 685.4698)"><tspan x="0" y="0" class="st2 st3 st4">and l</tspan><tspan x="37.98" y="0" class="st2 st3 st4">o</tspan><tspan x="47.88" y="0" class="st2 st3 st4">w</tspan><tspan x="61.36" y="0" class="st2 st3 st4">er </tspan><tspan x="81.45" y="0" class="st2 st3 st4">c</tspan><tspan x="90.92" y="0" class="st2 st3 st4">o</tspan><tspan x="101" y="0" class="st2 st3 st4">s</tspan><tspan x="109.62" y="0" class="st2 st3 st4">t</tspan><tspan x="115.41" y="0" class="st2 st3 st4">. </tspan></text>
	</g>
	<g class="st1">
		<text transform="matrix(1 0 0 1 806.8597 197.3463)"><tspan x="0" y="0" class="st2 st3 st4">The </tspan><tspan x="34.63" y="0" class="st2 st3 st4">w</tspan><tspan x="48.11" y="0" class="st2 st3 st4">as</tspan><tspan x="66.17" y="0" class="st2 st3 st4">t</tspan><tspan x="71.28" y="0" class="st2 st3 st4">e manageme</tspan><tspan x="174.11" y="0" class="st2 st3 st4">n</tspan><tspan x="184.05" y="0" class="st2 st3 st4">t </tspan><tspan x="193.62" y="0" class="st2 st3 st4">c</tspan><tspan x="203.09" y="0" class="st2 st3 st4">o</tspan><tspan x="213.03" y="0" class="st2 st3 st4">n</tspan><tspan x="222.98" y="0" class="st2 st3 st4">tains </tspan><tspan x="264.85" y="0" class="st2 st3 st4">s</tspan><tspan x="273.59" y="0" class="st2 st3 st4">elling the </tspan><tspan x="349.46" y="0" class="st2 st3 st4">w</tspan><tspan x="362.94" y="0" class="st2 st3 st4">as</tspan><tspan x="381" y="0" class="st2 st3 st4">t</tspan><tspan x="386.13" y="0" class="st2 st3 st4">e due </tspan><tspan x="434.11" y="0" class="st2 st3 st4">t</tspan><tspan x="439.23" y="0" class="st2 st3 st4">o it </tspan><tspan x="466.98" y="0" class="st2 st3 st4">b</tspan><tspan x="477.33" y="0" class="st2 st3 st4">eing </tspan></text>
	</g>
	<g class="st1">
		<text transform="matrix(1 0 0 1 806.8597 218.9464)"><tspan x="0" y="0" class="st2 st3 st4">t</tspan><tspan x="5.13" y="0" class="st2 st3 st4">o </tspan><tspan x="19.21" y="0" class="st2 st3 st4">e</tspan><tspan x="28.75" y="0" class="st2 st3 st4">x</tspan><tspan x="37.15" y="0" class="st2 st3 st4">p</tspan><tspan x="47.48" y="0" class="st2 st3 st4">enci</tspan><tspan x="80.8" y="0" class="st2 st3 st4">ev</tspan><tspan x="98.57" y="0" class="st2 st3 st4">e </tspan><tspan x="112.41" y="0" class="st2 st3 st4">t</tspan><tspan x="117.54" y="0" class="st2 st3 st4">o s</tspan><tspan x="140.24" y="0" class="st2 st3 st4">t</tspan><tspan x="145.35" y="0" class="st2 st3 st4">o</tspan><tspan x="155.28" y="0" class="st2 st3 st4">r</tspan><tspan x="161.11" y="0" class="st2 st3 st4">e</tspan></text>
	</g>
	<g class="st1">
		<text transform="matrix(1 0 0 1 806.8597 346.548)"><tspan x="0" y="0" class="st2 st3 st4">The</tspan><tspan x="30.49" y="0" class="st2 st3 st4">r</tspan><tspan x="36.32" y="0" class="st2 st3 st4">e is a </tspan><tspan x="80.6" y="0" class="st2 st3 st4">p</tspan><tspan x="90.93" y="0" class="st2 st3 st4">o</tspan><tspan x="100.74" y="0" class="st2 st3 st4">t</tspan><tspan x="105.87" y="0" class="st2 st3 st4">e</tspan><tspan x="115.58" y="0" class="st2 st3 st4">n</tspan><tspan x="125.53" y="0" class="st2 st3 st4">tial in </tspan><tspan x="171.12" y="0" class="st2 st3 st4">w</tspan><tspan x="184.6" y="0" class="st2 st3 st4">as</tspan><tspan x="202.66" y="0" class="st2 st3 st4">t</tspan><tspan x="207.79" y="0" class="st2 st3 st4">e manageme</tspan><tspan x="310.62" y="0" class="st2 st3 st4">n</tspan><tspan x="320.55" y="0" class="st2 st3 st4">t th</tspan><tspan x="345.7" y="0" class="st2 st3 st4">a</tspan><tspan x="354.95" y="0" class="st2 st3 st4">t will sugg</tspan><tspan x="433.57" y="0" class="st2 st3 st4">e</tspan><tspan x="443.4" y="0" class="st2 st3 st4">st using </tspan></text>
	</g>
	<g class="st1">
		<text transform="matrix(1 0 0 1 806.8597 368.1486)"><tspan x="0" y="0" class="st2 st3 st4">the marble in </tspan><tspan x="106.79" y="0" class="st2 st3 st4">o</tspan><tspan x="116.58" y="0" class="st2 st3 st4">ther industri</tspan><tspan x="211.19" y="0" class="st2 st3 st4">e</tspan><tspan x="221.02" y="0" class="st2 st3 st4">s. </tspan></text>
	</g>
	<g class="st1">
		<text transform="matrix(1 0 0 1 806.8597 495.6779)"><tspan x="0" y="0" class="st2 st3 st4">The quarry can </tspan><tspan x="122.29" y="0" class="st2 st3 st4">b</tspan><tspan x="132.62" y="0" class="st2 st3 st4">e mo</tspan><tspan x="171.61" y="0" class="st2 st3 st4">r</tspan><tspan x="177.44" y="0" class="st2 st3 st4">e than just a quarr</tspan><tspan x="318.92" y="0" class="st2 st3 st4">y</tspan><tspan x="326.49" y="0" class="st2 st3 st4">, it can h</tspan><tspan x="391.31" y="0" class="st2 st3 st4">a</tspan><tspan x="400.45" y="0" class="st2 st3 st4">v</tspan><tspan x="408.54" y="0" class="st2 st3 st4">e a li</tspan><tspan x="444.16" y="0" class="st2 st3 st4">f</tspan><tspan x="449.05" y="0" class="st2 st3 st4">e and a </tspan></text>
	</g>
	<g class="st1">
		<text transform="matrix(1 0 0 1 806.8597 517.2784)"><tspan x="0" y="0" class="st2 st3 st4">u</tspan><tspan x="10.13" y="0" class="st2 st3 st4">s</tspan><tspan x="18.9" y="0" class="st2 st3 st4">e </tspan><tspan x="32.74" y="0" class="st2 st3 st4">a</tspan><tspan x="41.99" y="0" class="st2 st3 st4">f</tspan><tspan x="47.34" y="0" class="st2 st3 st4">t</tspan><tspan x="52.47" y="0" class="st2 st3 st4">er the </tspan><tspan x="101.97" y="0" class="st2 st3 st4">e</tspan><tspan x="111.49" y="0" class="st2 st3 st4">x</tspan><tspan x="120.06" y="0" class="st2 st3 st4">t</tspan><tspan x="125.49" y="0" class="st2 st3 st4">r</tspan><tspan x="131.31" y="0" class="st2 st3 st4">actions ends as </tspan><tspan x="257.45" y="0" class="st2 st3 st4">w</tspan><tspan x="270.91" y="0" class="st2 st3 st4">ell. </tspan></text>
	</g>
	<g class="st1">
		<text transform="matrix(1 0 0 1 806.8597 626.6466)"><tspan x="0" y="0" class="st2 st3 st4">A</tspan><tspan x="11.39" y="0" class="st2 st3 st4">t the mome</tspan><tspan x="100.44" y="0" class="st2 st3 st4">n</tspan><tspan x="110.37" y="0" class="st2 st3 st4">t the quarry is </tspan><tspan x="220.8" y="0" class="st2 st3 st4">b</tspan><tspan x="231.13" y="0" class="st2 st3 st4">eing u</tspan><tspan x="279.52" y="0" class="st2 st3 st4">s</tspan><tspan x="288.26" y="0" class="st2 st3 st4">e</tspan><tspan x="298.14" y="0" class="st2 st3 st4">d as l</tspan><tspan x="338.75" y="0" class="st2 st3 st4">o</tspan><tspan x="348.85" y="0" class="st2 st3 st4">c</tspan><tspan x="358.23" y="0" class="st2 st3 st4">a</tspan><tspan x="367.5" y="0" class="st2 st3 st4">tion </tspan><tspan x="401.25" y="0" class="st2 st3 st4">f</tspan><tspan x="406.16" y="0" class="st2 st3 st4">or learning </tspan></text>
	</g>
	<g class="st1">
		<text transform="matrix(1 0 0 1 806.8597 648.2462)"><tspan x="0" y="0" class="st2 st3 st4">a</tspan><tspan x="9.43" y="0" class="st2 st3 st4">b</tspan><tspan x="19.78" y="0" class="st2 st3 st4">out he</tspan><tspan x="69.26" y="0" class="st2 st3 st4">a</tspan><tspan x="78.41" y="0" class="st2 st3 st4">vy machinery and </tspan><tspan x="219.42" y="0" class="st2 st3 st4">e</tspan><tspan x="228.94" y="0" class="st2 st3 st4">xpl</tspan><tspan x="251.62" y="0" class="st2 st3 st4">o</tspan><tspan x="261.7" y="0" class="st2 st3 st4">si</tspan><tspan x="274.42" y="0" class="st2 st3 st4">v</tspan><tspan x="282.5" y="0" class="st2 st3 st4">e</tspan><tspan x="292.35" y="0" class="st2 st3 st4">s. Which ma</tspan><tspan x="387.55" y="0" class="st2 st3 st4">k</tspan><tspan x="395.76" y="0" class="st2 st3 st4">e</tspan><tspan x="405.59" y="0" class="st2 st3 st4">s </tspan><tspan x="418.35" y="0" class="st2 st3 st4">p</tspan><tspan x="428.7" y="0" class="st2 st3 st4">e</tspan><tspan x="438.4" y="0" class="st2 st3 st4">r</tspan><tspan x="444.83" y="0" class="st2 st3 st4">f</tspan><tspan x="449.74" y="0" class="st2 st3 st4">e</tspan><tspan x="459.6" y="0" class="st2 st3 st4">ct </tspan></text>
	</g>
	<g class="st1">
		<text transform="matrix(1 0 0 1 806.8597 669.8468)"><tspan x="0" y="0" class="st2 st3 st4">g</tspan><tspan x="10.17" y="0" class="st2 st3 st4">r</tspan><tspan x="16" y="0" class="st2 st3 st4">ound </tspan><tspan x="60.51" y="0" class="st2 st3 st4">f</tspan><tspan x="65.41" y="0" class="st2 st3 st4">or ma</tspan><tspan x="110.37" y="0" class="st2 st3 st4">k</tspan><tspan x="118.83" y="0" class="st2 st3 st4">ing it a bigger link </tspan><tspan x="260.44" y="0" class="st2 st3 st4">b</tspan><tspan x="270.77" y="0" class="st2 st3 st4">e</tspan><tspan x="280.33" y="0" class="st2 st3 st4">t</tspan><tspan x="285.94" y="0" class="st2 st3 st4">w</tspan><tspan x="299.41" y="0" class="st2 st3 st4">e</tspan><tspan x="309.29" y="0" class="st2 st3 st4">en the industry and the </tspan></text>
	</g>
	<g class="st1">
		<text transform="matrix(1 0 0 1 806.8597 691.4464)"><tspan x="0" y="0" class="st2 st3 st4">e</tspan><tspan x="9.88" y="0" class="st2 st3 st4">duc</tspan><tspan x="39.56" y="0" class="st2 st3 st4">a</tspan><tspan x="48.82" y="0" class="st2 st3 st4">tion. </tspan></text>
	</g>
</g>
</svg>
