<svg id="Ebene_1" data-name="Ebene 1" xmlns="http://www.w3.org/2000/svg" xmlns:xlink="http://www.w3.org/1999/xlink" viewBox="0 0 1464 764"><defs><style>.cls-1,.cls-43,.cls-44,.cls-45,.cls-5,.cls-53,.cls-54,.cls-55,.cls-56,.cls-57,.cls-58,.cls-59,.cls-60,.cls-61,.cls-62,.cls-63{fill:none;}.cls-2{clip-path:url(#clip-path);}.cls-23,.cls-3{font-size:18px;font-family:NeueHaasUnicaW06-Regular;}.cls-23,.cls-3,.cls-46,.cls-6{fill:#1d1d1b;}.cls-4{letter-spacing:-0.02em;}.cls-5,.cls-53,.cls-58,.cls-59,.cls-60,.cls-61,.cls-62,.cls-63{stroke:#1d1d1b;}.cls-5{stroke-width:0.5px;}.cls-7{letter-spacing:-0.02em;}.cls-8{letter-spacing:0.01em;}.cls-9{letter-spacing:-0.01em;}.cls-10{letter-spacing:-0.02em;}.cls-11{letter-spacing:-0.01em;}.cls-12,.cls-23{letter-spacing:0.01em;}.cls-13{letter-spacing:0em;}.cls-14{letter-spacing:0.01em;}.cls-15{letter-spacing:-0.01em;}.cls-16{letter-spacing:0em;}.cls-17{letter-spacing:0em;}.cls-18{letter-spacing:-0.01em;}.cls-19{letter-spacing:0.01em;}.cls-20{letter-spacing:0em;}.cls-21{letter-spacing:0em;}.cls-22{letter-spacing:-0.01em;}.cls-24{letter-spacing:0em;}.cls-25{letter-spacing:-0.01em;}.cls-26{letter-spacing:0.01em;}.cls-27{letter-spacing:0em;}.cls-28{letter-spacing:0.01em;}.cls-29{letter-spacing:-0.02em;}.cls-30{letter-spacing:-0.01em;}.cls-31{letter-spacing:-0.02em;}.cls-32{letter-spacing:0.01em;}.cls-33{letter-spacing:0em;}.cls-34{letter-spacing:-0.01em;}.cls-35{letter-spacing:0.01em;}.cls-36{letter-spacing:-0.02em;}.cls-37{letter-spacing:0.01em;}.cls-38{letter-spacing:-0.02em;}.cls-39{letter-spacing:0.01em;}.cls-40{letter-spacing:-0.02em;}.cls-41{letter-spacing:0em;}.cls-42{letter-spacing:-0.02em;}.cls-43,.cls-44,.cls-45{stroke:#3fa535;}.cls-44{stroke-dasharray:11.92 11.92;}.cls-45{stroke-dasharray:12.18 12.18;}.cls-46{font-size:24px;font-family:NeueHaasUnicaW06-Bold;font-weight:700;}.cls-47{letter-spacing:-0.01em;}.cls-48{letter-spacing:-0.01em;}.cls-49{letter-spacing:0em;}.cls-50{letter-spacing:0.01em;}.cls-51{letter-spacing:-0.02em;}.cls-52{letter-spacing:0em;}.cls-54{stroke:#e6007e;}.cls-55{stroke:#009fe3;}.cls-56{stroke:#ffed00;}.cls-57{stroke:#cd1719;}.cls-58{stroke-dasharray:11.95 11.95;}.cls-59{stroke-dasharray:12.65 12.65;}.cls-60{stroke-dasharray:11.99 11.99;}.cls-61{stroke-dasharray:12.32 12.32;}.cls-62{stroke-dasharray:11.91 11.91;}.cls-63{stroke-dasharray:12.63 12.63;}</style><clipPath id="clip-path" transform="translate(-20.3 -19.57)"><rect class="cls-1" x="-0.2" y="-0.43" width="1505" height="804"/></clipPath></defs><title>4.1</title><g class="cls-2"><text class="cls-3" transform="translate(1169.88 516.69)"><tspan class="cls-4">f</tspan><tspan x="5.22" y="0">amous chef</tspan></text><rect class="cls-5" x="1160.75" y="495.45" width="117.5" height="48.5"/><path class="cls-6" d="M1214.4,99.41a1.31,1.31,0,0,0-1,.36,1.8,1.8,0,0,0-.32,1.19v1h1.82v1.26h-1.82v7.88h-1.57v-7.88h-1.6v-1.26h1.6v-1.14a2.76,2.76,0,0,1,.64-2,2.49,2.49,0,0,1,1.87-.66,3.82,3.82,0,0,1,.91.09v1.23a1.59,1.59,0,0,0-.52-.06Zm2.16,11.65V98.24h1.59v12.82Zm8.07-9.4a4.09,4.09,0,0,1,3.18,1.3,5.91,5.91,0,0,1,0,7.06,4.56,4.56,0,0,1-6.36,0,6,6,0,0,1,0-7.06,4.06,4.06,0,0,1,3.18-1.3Zm0,1.3a2.34,2.34,0,0,0-2,.94,5,5,0,0,0,0,5.17,2.53,2.53,0,0,0,3.95,0,5,5,0,0,0,0-5.17,2.36,2.36,0,0,0-2-.94Zm9.75-1.3a3.75,3.75,0,0,1,2.66.89,3.49,3.49,0,0,1,.94,2.66v3.51a10.45,10.45,0,0,0,.22,2.34h-1.44a5.88,5.88,0,0,1-.13-1.33h0a3.25,3.25,0,0,1-1.28,1.13,4.25,4.25,0,0,1-1.89.4,3.25,3.25,0,0,1-2.25-.75,2.44,2.44,0,0,1-.85-1.93,2.41,2.41,0,0,1,.78-1.89,5.45,5.45,0,0,1,2.7-1c.88-.15,1.77-.25,2.64-.31V105a2.13,2.13,0,0,0-.55-1.62,2.09,2.09,0,0,0-1.52-.52,2.15,2.15,0,0,0-1.51.49,1.85,1.85,0,0,0-.58,1.33h-1.58a3,3,0,0,1,1-2.2,3.84,3.84,0,0,1,2.64-.85Zm2.07,4.94c-.92.07-1.72.16-2.39.28a3.79,3.79,0,0,0-1.63.54,1.23,1.23,0,0,0-.48,1,1.42,1.42,0,0,0,.5,1.14,2.06,2.06,0,0,0,1.37.42,2.85,2.85,0,0,0,1.06-.19,2.16,2.16,0,0,0,.83-.53,2.39,2.39,0,0,0,.58-.89,3.88,3.88,0,0,0,.16-1.27v-.55Zm7.27,3.22a2,2,0,0,0,.65-.09V111a3.57,3.57,0,0,1-1,.11,2.54,2.54,0,0,1-1.9-.61,2.87,2.87,0,0,1-.58-2v-5.32h-1.58v-1.26h1.58V99.7h1.58v2.22h1.82v1.26h-1.82v5.16a1.79,1.79,0,0,0,.29,1.14,1.24,1.24,0,0,0,1,.34Zm2.54-9.79V98.24h1.59V100Zm0,11v-9.14h1.59v9.14Zm8.73-9.34a3.16,3.16,0,0,1,2.45,1,4,4,0,0,1,.86,2.81v5.58h-1.58v-5.45a2.94,2.94,0,0,0-.54-2,2,2,0,0,0-1.57-.61,2.22,2.22,0,0,0-1.7.74,3,3,0,0,0-.67,2.07v5.24h-1.59v-9.14h1.53v1.2h0a3.07,3.07,0,0,1,1.15-1,3.34,3.34,0,0,1,1.62-.38Zm9.24,0a3,3,0,0,1,2.73,1.57h0v-1.33h1.53v8.58a3.58,3.58,0,0,1-4,4,4.4,4.4,0,0,1-2.74-.77,2.64,2.64,0,0,1-1-2.12h1.59a1.55,1.55,0,0,0,.62,1.23,2.61,2.61,0,0,0,1.59.44,2.33,2.33,0,0,0,1.84-.68,3.37,3.37,0,0,0,.59-2.2v-1h0a3.07,3.07,0,0,1-2.71,1.53,3.6,3.6,0,0,1-2-.58,3.71,3.71,0,0,1-1.35-1.63,5.79,5.79,0,0,1-.47-2.43,5.87,5.87,0,0,1,.47-2.46,3.74,3.74,0,0,1,1.35-1.62,3.67,3.67,0,0,1,2-.57Zm.25,1.32a2.12,2.12,0,0,0-1.79.9,4,4,0,0,0-.68,2.43,4,4,0,0,0,.68,2.4,2.13,2.13,0,0,0,1.79.91,2.25,2.25,0,0,0,1.87-.89,4.68,4.68,0,0,0,0-4.86,2.22,2.22,0,0,0-1.87-.89Z" transform="translate(-20.3 -19.57)"/><text class="cls-3" transform="translate(1178.43 113.09)"><tspan class="cls-7">r</tspan><tspan class="cls-8" x="6.17" y="0">e</tspan><tspan x="16.18" y="0">st</tspan><tspan class="cls-9" x="30.83" y="0">a</tspan><tspan x="40.17" y="0">u</tspan><tspan class="cls-10" x="50.54" y="0">r</tspan><tspan x="56.66" y="0">a</tspan><tspan class="cls-11" x="66.22" y="0">n</tspan><tspan x="76.43" y="0">t</tspan></text><rect class="cls-5" x="1160.75" y="70.25" width="117.5" height="48.5"/><text class="cls-3" transform="translate(1172.58 646.84)"><tspan class="cls-12">pe</tspan><tspan class="cls-13" x="20.63" y="0">dal </tspan><tspan class="cls-14" x="49.08" y="0">b</tspan><tspan x="59.61" y="0">o</tspan><tspan class="cls-15" x="69.78" y="0">a</tspan><tspan x="79.18" y="0">ts</tspan></text><rect class="cls-5" x="1160.75" y="625.6" width="117.5" height="48.5"/><text class="cls-3" transform="translate(1189.22 711.92)">cultu<tspan class="cls-10" x="40.5" y="0">r</tspan><tspan x="46.62" y="0">al </tspan></text><text class="cls-3" transform="translate(1193 733.52)"><tspan class="cls-16">ev</tspan><tspan class="cls-17" x="18.29" y="0">e</tspan><tspan class="cls-11" x="28.19" y="0">n</tspan><tspan x="38.39" y="0">ts</tspan></text><rect class="cls-5" x="1160.75" y="690.68" width="117.5" height="48.5"/><text class="cls-3" transform="translate(1174.05 290.34)">t<tspan class="cls-10" x="5.76" y="0">r</tspan><tspan x="11.88" y="0">ainst</tspan><tspan class="cls-18" x="50.85" y="0">a</tspan><tspan x="60.23" y="0">tion</tspan></text><rect class="cls-5" x="1160.75" y="269.1" width="117.5" height="48.5"/><path class="cls-6" d="M1214.4,165.7a1.31,1.31,0,0,0-1,.36,1.77,1.77,0,0,0-.32,1.18v1h1.82v1.26h-1.82v7.88h-1.57v-7.88h-1.6V168.2h1.6v-1.14a2.76,2.76,0,0,1,.64-2,2.53,2.53,0,0,1,1.87-.65,3.82,3.82,0,0,1,.91.09v1.22a1.66,1.66,0,0,0-.52-.05Zm2.16,11.64V164.53h1.59v12.81Zm8.07-9.39a4.08,4.08,0,0,1,3.18,1.29,5.91,5.91,0,0,1,0,7.06,4.56,4.56,0,0,1-6.36,0,6,6,0,0,1,0-7.06,4.05,4.05,0,0,1,3.18-1.29Zm0,1.29a2.35,2.35,0,0,0-2,.95,5,5,0,0,0,0,5.16,2.53,2.53,0,0,0,3.95,0,5,5,0,0,0,0-5.16,2.37,2.37,0,0,0-2-.95Zm9.75-1.29a3.71,3.71,0,0,1,2.66.89,3.47,3.47,0,0,1,.94,2.65V175a10.33,10.33,0,0,0,.22,2.34h-1.44a5.88,5.88,0,0,1-.13-1.33h0a3.25,3.25,0,0,1-1.28,1.13,4.12,4.12,0,0,1-1.89.4,3.25,3.25,0,0,1-2.25-.75,2.43,2.43,0,0,1-.85-1.93,2.39,2.39,0,0,1,.78-1.88,5.44,5.44,0,0,1,2.7-1c.88-.15,1.77-.25,2.64-.31v-.36a2.13,2.13,0,0,0-.55-1.62,2.09,2.09,0,0,0-1.52-.52,2.15,2.15,0,0,0-1.51.5,1.85,1.85,0,0,0-.58,1.32h-1.58a3,3,0,0,1,1-2.2,3.84,3.84,0,0,1,2.64-.84Zm2.07,4.93c-.92.07-1.72.17-2.39.29a3.79,3.79,0,0,0-1.63.54,1.21,1.21,0,0,0-.48,1,1.42,1.42,0,0,0,.5,1.14,2,2,0,0,0,1.37.43,3.07,3.07,0,0,0,1.06-.19,2.42,2.42,0,0,0,.83-.53,2.56,2.56,0,0,0,.58-.89,3.93,3.93,0,0,0,.16-1.27v-.56Zm7.27,3.22a2,2,0,0,0,.65-.09v1.3a4,4,0,0,1-1,.1,2.54,2.54,0,0,1-1.9-.61,2.86,2.86,0,0,1-.58-2v-5.33h-1.58V168.2h1.58V166h1.58v2.22h1.82v1.26h-1.82v5.16a1.79,1.79,0,0,0,.29,1.14,1.2,1.2,0,0,0,1,.34Zm2.54-9.79v-1.78h1.59v1.78Zm0,11V168.2h1.59v9.14ZM1255,168a3.16,3.16,0,0,1,2.45.95,4.06,4.06,0,0,1,.86,2.81v5.58h-1.58v-5.45a2.94,2.94,0,0,0-.54-2,2,2,0,0,0-1.57-.6,2.21,2.21,0,0,0-1.7.73,3,3,0,0,0-.67,2.07v5.24h-1.59V168.2h1.53v1.2h0a3.07,3.07,0,0,1,1.15-1A3.46,3.46,0,0,1,1255,168Zm9.24,0a3,3,0,0,1,2.73,1.57h0V168.2h1.53v8.58a3.6,3.6,0,0,1-4,4,4.33,4.33,0,0,1-2.74-.78,2.63,2.63,0,0,1-1-2.12h1.59a1.52,1.52,0,0,0,.62,1.23,2.54,2.54,0,0,0,1.59.44,2.33,2.33,0,0,0,1.84-.68,3.37,3.37,0,0,0,.59-2.2v-1h0a3.07,3.07,0,0,1-2.71,1.53,3.67,3.67,0,0,1-2-.57,3.82,3.82,0,0,1-1.35-1.63,6.62,6.62,0,0,1,0-4.9,3.74,3.74,0,0,1,1.35-1.62,3.67,3.67,0,0,1,2-.57Zm.25,1.32a2.1,2.1,0,0,0-1.79.91,4.61,4.61,0,0,0,0,4.82,2.1,2.1,0,0,0,1.79.91,2.25,2.25,0,0,0,1.87-.89,3.85,3.85,0,0,0,.68-2.42,3.89,3.89,0,0,0-.68-2.44,2.25,2.25,0,0,0-1.87-.89Z" transform="translate(-20.3 -19.57)"/><text class="cls-3" transform="translate(1190.78 179.37)">spa<tspan class="cls-19" x="28.82" y="0">ce</tspan><tspan x="48.54" y="0">s</tspan></text><rect class="cls-5" x="1160.75" y="136.53" width="117.5" height="48.5"/><text class="cls-3" transform="translate(1178.29 581.76)">lig<tspan class="cls-11" x="19.1" y="0">h</tspan><tspan x="29.3" y="0">t sh</tspan><tspan class="cls-20" x="58.46" y="0">o</tspan><tspan class="cls-17" x="68.58" y="0">w</tspan></text><rect class="cls-5" x="1160.75" y="560.52" width="117.5" height="48.5"/><text class="cls-3" transform="translate(1167.07 451.61)"><tspan class="cls-4">f</tspan><tspan class="cls-12" x="5.22" y="0">oo</tspan><tspan x="25.92" y="0">d </tspan><tspan class="cls-21" x="40.43" y="0">c</tspan><tspan x="50.13" y="0">ou</tspan><tspan class="cls-22" x="70.67" y="0">r</tspan><tspan class="cls-8" x="76.95" y="0">se</tspan><tspan x="95.96" y="0">s</tspan></text><rect class="cls-5" x="1160.75" y="430.37" width="117.5" height="48.5"/><text class="cls-3" transform="translate(1180.23 224.05)"><tspan class="cls-16">ev</tspan><tspan class="cls-17" x="18.29" y="0">e</tspan><tspan class="cls-11" x="28.19" y="0">n</tspan><tspan x="38.39" y="0">t app</tspan></text><rect class="cls-5" x="1160.75" y="202.82" width="117.5" height="48.5"/><text class="cls-3" transform="translate(1194.75 386.53)">public</text><text class="cls-3" transform="translate(1178.15 408.13)"> <tspan class="cls-15" x="4.14" y="0">e</tspan><tspan x="13.88" y="0">xhibition</tspan></text><rect class="cls-5" x="1160.75" y="365.29" width="117.5" height="48.5"/><text class="cls-23" transform="translate(691.38 271.3)">e<tspan class="cls-24" x="10.08" y="0">duc</tspan><tspan class="cls-25" x="40.43" y="0">a</tspan><tspan class="cls-17" x="49.8" y="0">tion </tspan></text><rect class="cls-5" x="672.88" y="250.07" width="117.5" height="48.5"/><text class="cls-3" transform="translate(706.18 101.73)"><tspan class="cls-26">p</tspan><tspan class="cls-27" x="10.55" y="0">ow</tspan><tspan x="34.51" y="0">er</tspan></text><rect class="cls-5" x="672.88" y="80.49" width="117.5" height="48.5"/><text class="cls-3" transform="translate(680.61 186.51)"><tspan class="cls-28">c</tspan><tspan class="cls-19" x="9.7" y="0">o</tspan><tspan class="cls-24" x="19.98" y="0">s</tspan><tspan class="cls-11" x="28.87" y="0">n</tspan><tspan x="39.08" y="0">truction</tspan></text><rect class="cls-5" x="672.88" y="165.28" width="117.5" height="48.5"/><text class="cls-3" transform="translate(199.52 322.71)"><tspan class="cls-12">e</tspan><tspan class="cls-24" x="10.08" y="0">duc</tspan><tspan class="cls-18" x="40.43" y="0">a</tspan><tspan x="49.81" y="0">tion/</tspan></text><text class="cls-3" transform="translate(211.3 344.31)">indsutry</text><rect class="cls-5" x="185.13" y="301.47" width="117.5" height="48.5"/><text class="cls-3" transform="translate(213.98 185.69)">surplus </text><text class="cls-3" transform="translate(216.43 207.29)">ene<tspan class="cls-29" x="30.17" y="0">r</tspan><tspan class="cls-30" x="36.34" y="0">g</tspan><tspan x="46.4" y="0">y</tspan></text><rect class="cls-5" x="185.13" y="164.46" width="117.5" height="48.5"/><text class="cls-3" transform="translate(201.8 459.73)"><tspan class="cls-27">v</tspan><tspan x="8.42" y="0">olu</tspan><tspan class="cls-18" x="33.35" y="0">n</tspan><tspan class="cls-31" x="43.54" y="0">t</tspan><tspan class="cls-32" x="49.03" y="0">e</tspan><tspan class="cls-33" x="59.09" y="0">e</tspan><tspan class="cls-34" x="68.99" y="0">r</tspan><tspan x="75.27" y="0">s</tspan></text><rect class="cls-5" x="185.13" y="438.49" width="117.5" height="48.5"/><text class="cls-3" transform="translate(206.62 596.74)"><tspan class="cls-11">e</tspan><tspan x="9.74" y="0">x</tspan><tspan class="cls-12" x="18.38" y="0">p</tspan><tspan class="cls-35" x="28.93" y="0">o</tspan><tspan class="cls-24" x="39.2" y="0">su</tspan><tspan class="cls-29" x="58.46" y="0">r</tspan><tspan x="64.64" y="0">e</tspan></text><rect class="cls-5" x="185.13" y="575.5" width="117.5" height="48.5"/><text class="cls-3" transform="translate(694.68 356.09)">t<tspan class="cls-36" x="5.76" y="0">r</tspan><tspan class="cls-24" x="11.86" y="0">ans</tspan><tspan class="cls-12" x="40.68" y="0">p</tspan><tspan class="cls-13" x="51.23" y="0">o</tspan><tspan class="cls-37" x="61.4" y="0">r</tspan><tspan class="cls-17" x="68.11" y="0">t</tspan></text><rect class="cls-5" x="672.88" y="334.86" width="117.5" height="48.5"/><text class="cls-3" transform="translate(701.01 610.46)"><tspan class="cls-31">f</tspan><tspan x="5.22" y="0">o</tspan><tspan class="cls-38" x="15.39" y="0">r</tspan><tspan class="cls-39" x="21.58" y="0">e</tspan><tspan x="31.59" y="0">stry</tspan></text><rect class="cls-5" x="672.88" y="589.22" width="117.5" height="48.5"/><text class="cls-3" transform="translate(691.22 695.25)">mar<tspan class="cls-40" x="31.61" y="0">k</tspan><tspan class="cls-41" x="40.18" y="0">e</tspan><tspan x="49.99" y="0">ting</tspan></text><rect class="cls-5" x="672.88" y="674.01" width="117.5" height="48.5"/><text class="cls-3" transform="translate(687.95 440.88)">agricultu<tspan class="cls-7" x="71.28" y="0">r</tspan><tspan x="77.45" y="0">e</tspan></text><rect class="cls-5" x="672.88" y="419.64" width="117.5" height="48.5"/><text class="cls-3" transform="translate(683.41 525.67)">aquacultu<tspan class="cls-42" x="80.35" y="0">r</tspan><tspan x="86.52" y="0">e</tspan></text><rect class="cls-5" x="672.88" y="504.43" width="117.5" height="48.5"/><g class="cls-2"><rect class="cls-43" x="0.5" y="0.5" width="1462.75" height="41"/><rect class="cls-43" x="0.5" y="0.5" width="1463" height="763"/><line class="cls-44" x1="488.5" y1="18.38" x2="488.5" y2="751.58"/><line class="cls-45" x1="506.76" y1="763.5" x2="963.32" y2="763.5"/><line class="cls-44" x1="975.5" y1="745.62" x2="975.5" y2="12.42"/><line class="cls-45" x1="957.24" y1="0.5" x2="500.68" y2="0.5"/><path class="cls-43" d="M514.89,20.07H508.8v6m487,0v-6h-6.09m0,763h6.09v-6m-487,0v6h6.09" transform="translate(-20.3 -19.57)"/></g><text class="cls-46" transform="translate(682.79 27.98)">acti<tspan class="cls-47" x="41.81" y="0">v</tspan><tspan class="cls-48" x="53.74" y="0">a</tspan><tspan class="cls-22" x="66.65" y="0">t</tspan><tspan class="cls-49" x="74.9" y="0">or</tspan></text><text class="cls-46" transform="translate(206.06 27.98)">trigger</text><text class="cls-46" transform="translate(1151.07 27.98)"><tspan class="cls-30">f</tspan><tspan class="cls-50" x="7.85" y="0">oo</tspan><tspan x="36.6" y="0">d </tspan><tspan class="cls-51" x="56.47" y="0">f</tspan><tspan class="cls-52" x="64.29" y="0">e</tspan><tspan x="78.14" y="0">sti</tspan><tspan class="cls-22" x="105.91" y="0">v</tspan><tspan x="117.84" y="0">al</tspan></text><polyline class="cls-53" points="302.63 189.47 455.5 189.47 455.5 106 673.5 106"/><polyline class="cls-53" points="302.63 326.48 448.5 326.48 448.5 275.08 673.5 275.08"/><polyline class="cls-54" points="302.63 463.5 509.5 463.5 509.5 190.29 672.88 190.29"/><polyline class="cls-53" points="303.13 478.43 449.5 478.43 449.5 714.74 672.88 714.74"/><polyline class="cls-55" points="302.63 600.52 542.54 600.52 672.88 600.52"/><polyline class="cls-55" points="557.5 600.02 557.5 444.66 672.88 444.66"/><line class="cls-55" x1="673.5" y1="529.45" x2="557" y2="529.45"/><line class="cls-53" x1="790.38" y1="81.5" x2="1161.38" y2="81.5"/><polyline class="cls-53" points="790.38 129.5 942.5 129.5 942.5 706 1160.88 706"/><line class="cls-53" x1="1160.88" y1="584.58" x2="943.5" y2="584.58"/><polyline class="cls-53" points="957.5 82 957.5 152.96 1160.88 152.96"/><line class="cls-55" x1="790.38" y1="176.5" x2="1160.88" y2="176.5"/><polyline class="cls-55" points="1006.5 176.46 1006.5 105.5 1160.88 105.5"/><polyline class="cls-54" points="790.38 257 1033.5 257 1033.5 94.31 1160.88 94.31"/><line class="cls-54" x1="1032.5" y1="165.79" x2="1160.88" y2="165.79"/><polyline class="cls-56" points="790.38 275.08 994.5 275.08 994.5 454.43 1161.38 454.43"/><polyline class="cls-43" points="790.38 359.87 1058.94 359.87 1058.94 140.73 1160.88 140.73"/><line class="cls-43" x1="1160.88" y1="293.16" x2="1058.94" y2="293.16"/><polyline class="cls-53" points="790.88 444.16 854.5 444.16 854.5 699.02 790.38 699.02"/><polyline class="cls-53" points="790.38 529.45 838.5 529.45 838.5 699.02"/><polyline class="cls-53" points="790.88 614.24 822.19 614.24 822.19 699.02"/><line class="cls-57" x1="790.38" y1="512" x2="1160.88" y2="512"/><line class="cls-55" x1="790.38" y1="715.24" x2="1160.88" y2="715.24"/><polyline class="cls-55" points="1095.5 714.74 1095.5 389.35 1160.88 389.35"/><line class="cls-55" x1="1095" y1="464" x2="1160.88" y2="464"/><line class="cls-55" x1="1095" y1="528.95" x2="1160.88" y2="528.95"/><line class="cls-55" x1="1095" y1="596.58" x2="1160.88" y2="596.58"/><line class="cls-55" x1="1095" y1="649.66" x2="1160.88" y2="649.66"/><line class="cls-53" x1="1214.5" y1="478.93" x2="1214.5" y2="495"/><line class="cls-58" x1="790.88" y1="625.66" x2="1161.38" y2="625.66"/><line class="cls-59" x1="244.13" y1="350.48" x2="244.13" y2="439"/><line class="cls-60" x1="1142.89" y1="226.87" x2="285.49" y2="226.87"/><line class="cls-61" x1="273.5" y1="245.35" x2="273.5" y2="288.46"/><path class="cls-53" d="M293.8,314.19v6.16m6-73.91h-6v6.16m887.37-6.16h-6" transform="translate(-20.3 -19.57)"/><line class="cls-62" x1="1143.01" y1="401" x2="291.41" y2="401"/><line class="cls-63" x1="279.5" y1="382.06" x2="279.5" y2="363.11"/><path class="cls-53" d="M299.8,376.37v-6.31m5.95,50.51H299.8v-6.31m881.37,6.31h-6" transform="translate(-20.3 -19.57)"/></g></svg>