<svg id="Ebene_1" data-name="Ebene 1" xmlns="http://www.w3.org/2000/svg" xmlns:xlink="http://www.w3.org/1999/xlink" viewBox="0 0 1309.89 723.45"><defs><style>.cls-1,.cls-18,.cls-19,.cls-20,.cls-21,.cls-22,.cls-23,.cls-24,.cls-25,.cls-32,.cls-66,.cls-67,.cls-68,.cls-69,.cls-70,.cls-71,.cls-72,.cls-73,.cls-74,.cls-75,.cls-76,.cls-77,.cls-78,.cls-79,.cls-80,.cls-81,.cls-82,.cls-83,.cls-84,.cls-85,.cls-86,.cls-87,.cls-88,.cls-89{fill:none;}.cls-2{clip-path:url(#clip-path);}.cls-26,.cls-3{font-size:24px;}.cls-26,.cls-3,.cls-33,.cls-35,.cls-37,.cls-50,.cls-52,.cls-55,.cls-6,.cls-60{fill:#1d1d1b;}.cls-3,.cls-33,.cls-35,.cls-37,.cls-50,.cls-55,.cls-60{font-family:NeueHaasUnicaW06-Regular;}.cls-4{letter-spacing:-0.01em;}.cls-5{letter-spacing:0.01em;}.cls-33,.cls-35,.cls-37,.cls-50,.cls-55,.cls-6,.cls-60{font-size:18px;}.cls-6{font-family:NeueHaasUnicaW06-Thin;font-weight:200;}.cls-7{letter-spacing:0em;}.cls-8{letter-spacing:-0.01em;}.cls-9{letter-spacing:-0.02em;}.cls-10{letter-spacing:-0.02em;}.cls-11{letter-spacing:0em;}.cls-12{letter-spacing:-0.03em;}.cls-13{letter-spacing:0.01em;}.cls-14{letter-spacing:-0.01em;}.cls-15{letter-spacing:0em;}.cls-16,.cls-35{letter-spacing:0.01em;}.cls-17,.cls-33{letter-spacing:0.01em;}.cls-18,.cls-19,.cls-20,.cls-25,.cls-69,.cls-70,.cls-71,.cls-72,.cls-79,.cls-84,.cls-85,.cls-86,.cls-87,.cls-88,.cls-89{stroke:#1d1d1b;}.cls-18{stroke-width:0.25px;}.cls-20{stroke-dasharray:10.8 10.8;}.cls-21,.cls-32{stroke:#f7a512;}.cls-21,.cls-22,.cls-23,.cls-24,.cls-25{stroke-width:2px;}.cls-22,.cls-67,.cls-80{stroke:#009fe3;}.cls-23,.cls-73,.cls-74,.cls-75{stroke:#cd1719;}.cls-24,.cls-76{stroke:#3fa535;}.cls-26{font-family:NeueHaasUnicaW06-Bold;font-weight:700;}.cls-27{letter-spacing:-0.01em;}.cls-28{letter-spacing:0.01em;}.cls-29{letter-spacing:-0.02em;}.cls-30{letter-spacing:0em;}.cls-31{letter-spacing:0em;}.cls-32{stroke-width:5px;}.cls-34{letter-spacing:-0.01em;}.cls-36{letter-spacing:0em;}.cls-38{letter-spacing:-0.02em;}.cls-39{letter-spacing:0.01em;}.cls-40,.cls-50{letter-spacing:-0.01em;}.cls-41{letter-spacing:-0.02em;}.cls-42{letter-spacing:-0.02em;}.cls-43{letter-spacing:0em;}.cls-44{letter-spacing:-0.02em;}.cls-45{letter-spacing:0em;}.cls-46{letter-spacing:-0.01em;}.cls-47{letter-spacing:0.01em;}.cls-48{letter-spacing:0.01em;}.cls-49{letter-spacing:-0.01em;}.cls-51{letter-spacing:-0.02em;}.cls-53{letter-spacing:-0.01em;}.cls-54{letter-spacing:-0.02em;}.cls-55{letter-spacing:0.02em;}.cls-56{letter-spacing:0.01em;}.cls-57{letter-spacing:0.01em;}.cls-58{letter-spacing:0em;}.cls-59{letter-spacing:-0.03em;}.cls-60,.cls-62{letter-spacing:-0.01em;}.cls-61{letter-spacing:-0.01em;}.cls-63{letter-spacing:-0.02em;}.cls-64{letter-spacing:0em;}.cls-65{letter-spacing:-0.02em;}.cls-66{stroke:#ffed00;}.cls-68,.cls-77,.cls-78,.cls-81,.cls-82,.cls-83{stroke:#e6007e;}.cls-69{stroke-dasharray:11.78 11.78;}.cls-70{stroke-dasharray:11.77 11.77;}.cls-71{stroke-dasharray:9.73 9.73;}.cls-72{stroke-dasharray:9.27 9.27;}.cls-73{stroke-dasharray:12.03 12.03;}.cls-74{stroke-dasharray:11.17 11.17;}.cls-76{stroke-dasharray:12.5 12.5;}.cls-77{stroke-dasharray:11.5 11.5;}.cls-78{stroke-dasharray:12.3 12.3;}.cls-79{stroke-dasharray:11.94 11.94;}.cls-80{stroke-dasharray:12.8 12.8;}.cls-81{stroke-dasharray:9.55 9.55;}.cls-82{stroke-dasharray:12.19 12.19;}.cls-83{stroke-dasharray:12.23 12.23;}.cls-84{stroke-dasharray:12.19 12.19;}.cls-85{stroke-dasharray:13.27 13.27;}.cls-86{stroke-dasharray:10.52 10.52;}.cls-87{stroke-dasharray:12.27 12.27;}.cls-88{stroke-dasharray:11.82 11.82;}.cls-89{stroke-dasharray:11.41 11.41;}</style><clipPath id="clip-path" transform="translate(-50.31 -43.38)"><rect class="cls-1" x="0.31" y="-0.45" width="1505" height="804"/></clipPath></defs><title>4.2</title><g class="cls-2"><g class="cls-2"><text class="cls-3" transform="translate(3.25 353.4)"><tspan class="cls-4">L</tspan><tspan class="cls-5" x="13.18" y="0">e</tspan><tspan x="26.62" y="0">gend</tspan></text><text class="cls-6" transform="translate(3.25 418.2)">Vision</text><text class="cls-6" transform="translate(3.25 461.4)">Acti<tspan class="cls-7" x="29.66" y="0">v</tspan><tspan class="cls-8" x="37.48" y="0">a</tspan><tspan class="cls-9" x="46.44" y="0">t</tspan><tspan x="51.21" y="0">o</tspan><tspan class="cls-10" x="60.91" y="0">r</tspan><tspan class="cls-11" x="66.56" y="0">s</tspan></text><text class="cls-6" transform="translate(3.25 504.6)">P<tspan class="cls-12" x="10.6" y="0">r</tspan><tspan x="16.07" y="0">oj</tspan><tspan class="cls-13" x="29.74" y="0">e</tspan><tspan x="39.37" y="0">cts</tspan></text><text class="cls-6" transform="translate(3.25 547.8)"><tspan class="cls-10">E</tspan><tspan x="10.44" y="0">ve</tspan><tspan class="cls-14" x="27.79" y="0">n</tspan><tspan class="cls-15" x="37.44" y="0">ts</tspan></text><text class="cls-6" transform="translate(3.25 591)">Other</text><text class="cls-6" transform="translate(3.25 634.2)">Di<tspan class="cls-12" x="16.61" y="0">r</tspan><tspan class="cls-16" x="22.09" y="0">e</tspan><tspan x="31.73" y="0">ct </tspan></text><text class="cls-6" transform="translate(3.25 677.4)">Indi<tspan class="cls-12" x="28.06" y="0">r</tspan><tspan class="cls-17" x="33.53" y="0">e</tspan><tspan x="43.18" y="0">ct</tspan></text><rect class="cls-18" x="0.13" y="325.29" width="154.5" height="398.03"/><line class="cls-19" x1="89.5" y1="629.72" x2="143.5" y2="629.72"/><line class="cls-20" x1="89.5" y1="671.42" x2="143.5" y2="671.42"/><rect class="cls-21" x="91" y="396.71" width="53" height="25.25"/><rect class="cls-22" x="90" y="440.92" width="53" height="25.25"/><rect class="cls-23" x="90" y="485.13" width="53" height="25.25"/><rect class="cls-24" x="90" y="529.34" width="53" height="25.25"/><rect class="cls-25" x="90" y="573.54" width="53" height="25.25"/></g><text class="cls-26" transform="translate(566.44 350.6)"><tspan class="cls-27">f</tspan><tspan class="cls-28" x="7.85" y="0">oo</tspan><tspan x="36.6" y="0">d </tspan><tspan class="cls-29" x="56.47" y="0">f</tspan><tspan class="cls-30" x="64.29" y="0">e</tspan><tspan class="cls-31" x="78.12" y="0">sti</tspan><tspan class="cls-4" x="105.89" y="0">v</tspan><tspan x="117.84" y="0">al</tspan></text><rect class="cls-32" x="547.25" y="320.12" width="176" height="42"/><text class="cls-33" transform="translate(625.64 530.06)">e<tspan class="cls-15" x="10.08" y="0">duc</tspan><tspan class="cls-34" x="40.43" y="0">a</tspan><tspan class="cls-11" x="49.8" y="0">tion</tspan></text><rect class="cls-22" x="607.14" y="508.07" width="117.5" height="48.5"/><text class="cls-35" transform="translate(757.06 239.61)">p<tspan class="cls-36" x="10.55" y="0">ow</tspan><tspan class="cls-11" x="34.5" y="0">er</tspan></text><rect class="cls-22" x="723.75" y="217.62" width="117.5" height="48.5"/><text class="cls-37" transform="translate(228.02 340.1)">t<tspan class="cls-38" x="5.76" y="0">r</tspan><tspan x="11.86" y="0">ans</tspan><tspan class="cls-16" x="40.68" y="0">p</tspan><tspan class="cls-15" x="51.23" y="0">o</tspan><tspan class="cls-39" x="61.4" y="0">r</tspan><tspan class="cls-11" x="68.11" y="0">t</tspan><tspan class="cls-40" x="73.87" y="0">a</tspan><tspan x="83.27" y="0">tion</tspan></text><rect class="cls-22" x="226.25" y="318.12" width="117.5" height="48.5"/><text class="cls-37" transform="translate(874.29 110.04)">aquacultu<tspan class="cls-41" x="80.35" y="0">r</tspan><tspan x="86.52" y="0">e</tspan></text><rect class="cls-22" x="863.75" y="88.06" width="117.5" height="48.5"/><text class="cls-37" transform="translate(878.82 22.99)">agricultu<tspan class="cls-42" x="71.28" y="0">r</tspan><tspan x="77.45" y="0">e</tspan></text><rect class="cls-22" x="863.75" y="1" width="117.5" height="48.5"/><text class="cls-37" transform="translate(743.36 158.54)">lig<tspan class="cls-40" x="19.1" y="0">h</tspan><tspan x="29.3" y="0">tsh</tspan><tspan class="cls-43" x="54.32" y="0">o</tspan><tspan class="cls-11" x="64.44" y="0">w</tspan></text><rect class="cls-24" x="723.75" y="136.56" width="117.5" height="48.5"/><text class="cls-37" transform="translate(1078.21 110.04)"><tspan class="cls-44">f</tspan><tspan class="cls-16" x="5.22" y="0">oo</tspan><tspan x="25.92" y="0">d </tspan><tspan class="cls-45" x="40.43" y="0">c</tspan><tspan x="50.13" y="0">ou</tspan><tspan class="cls-46" x="70.67" y="0">r</tspan><tspan class="cls-47" x="76.95" y="0">se</tspan><tspan x="95.96" y="0">s</tspan></text><rect class="cls-24" x="1071.89" y="88.06" width="117.5" height="48.5"/><text class="cls-37" transform="translate(1083.73 312.63)"><tspan class="cls-16">pe</tspan><tspan class="cls-15" x="20.63" y="0">dal </tspan><tspan class="cls-48" x="49.08" y="0">b</tspan><tspan x="59.61" y="0">o</tspan><tspan class="cls-49" x="69.78" y="0">a</tspan><tspan x="79.18" y="0">ts</tspan></text><rect class="cls-24" x="1071.89" y="290.64" width="117.5" height="48.5"/><text class="cls-37" transform="translate(1071.15 476.71)">the<tspan class="cls-40" x="26.03" y="0">a</tspan><tspan class="cls-11" x="35.42" y="0">t</tspan><tspan class="cls-41" x="41.18" y="0">r</tspan><tspan x="47.36" y="0">e</tspan></text><rect class="cls-24" x="1041.02" y="454.72" width="117.5" height="48.5"/><text class="cls-50" transform="translate(1075.46 553.67)">m<tspan class="cls-15" x="15.37" y="0">usic</tspan></text><rect class="cls-24" x="1041.02" y="531.68" width="117.5" height="48.5"/><text class="cls-37" transform="translate(1209.75 553.67)">li<tspan class="cls-36" x="8.78" y="0">v</tspan><tspan class="cls-11" x="17.21" y="0">e bands</tspan></text><rect class="cls-24" x="1191.39" y="531.68" width="117.5" height="48.5"/><text class="cls-37" transform="translate(641.14 688.81)">public </text><text class="cls-50" transform="translate(629.54 710.41)">e<tspan class="cls-11" x="9.74" y="0">xibtions</tspan></text><rect class="cls-24" x="607.14" y="666.83" width="117.5" height="48.5"/><text class="cls-37" transform="translate(300.88 74.66)"><tspan class="cls-44">f</tspan><tspan x="5.22" y="0">amous chef</tspan></text><rect class="cls-24" x="291.75" y="52.67" width="117.5" height="48.5"/><text class="cls-37" transform="translate(1074.82 630.64)">dan<tspan class="cls-45" x="30.29" y="0">c</tspan><tspan class="cls-11" x="40" y="0">e</tspan></text><rect class="cls-24" x="1041.02" y="608.65" width="117.5" height="48.5"/><text class="cls-37" transform="translate(463.99 570.75)"><tspan class="cls-44">f</tspan><tspan x="5.22" y="0">o</tspan><tspan class="cls-51" x="15.39" y="0">r</tspan><tspan class="cls-47" x="21.58" y="0">e</tspan><tspan x="31.59" y="0">st</tspan></text><rect class="cls-22" x="428.35" y="548.76" width="117.5" height="48.5"/><text class="cls-37" transform="translate(711.97 437.35)"><tspan class="cls-45">c</tspan><tspan x="9.7" y="0">onstruction</tspan></text><rect class="cls-22" x="704.27" y="415.36" width="117.5" height="48.5"/><text class="cls-37" transform="translate(1229.6 476.71)">a<tspan class="cls-39" x="9.56" y="0">r</tspan><tspan x="16.27" y="0">tist</tspan></text><rect class="cls-22" x="1191.39" y="454.72" width="117.5" height="48.5"/><path class="cls-52" d="M449.64,190.28a1.27,1.27,0,0,0-1,.36,1.75,1.75,0,0,0-.33,1.19v.95h1.82V194h-1.82v7.89h-1.56V194h-1.61v-1.26h1.61v-1.13a2.73,2.73,0,0,1,.63-2,2.49,2.49,0,0,1,1.87-.66,3.91,3.91,0,0,1,.92.09v1.22a2.18,2.18,0,0,0-.53-.05Zm2.16,11.65V189.11h1.59v12.82Zm8.07-9.4a4.05,4.05,0,0,1,3.18,1.3,5.9,5.9,0,0,1,0,7,4.54,4.54,0,0,1-6.36,0,5.94,5.94,0,0,1,0-7,4,4,0,0,1,3.18-1.3Zm0,1.3a2.32,2.32,0,0,0-2,.94,5,5,0,0,0,0,5.17,2.32,2.32,0,0,0,2,.94,2.35,2.35,0,0,0,2-.94,5,5,0,0,0,0-5.17,2.35,2.35,0,0,0-2-.94Zm9.75-1.3a3.75,3.75,0,0,1,2.66.89,3.48,3.48,0,0,1,.94,2.66v3.51a11.07,11.07,0,0,0,.22,2.34H472a6.62,6.62,0,0,1-.13-1.34h0a3.27,3.27,0,0,1-1.28,1.14,4.25,4.25,0,0,1-1.89.39,3.3,3.3,0,0,1-2.25-.74,2.49,2.49,0,0,1-.85-1.94,2.36,2.36,0,0,1,.79-1.88,5.49,5.49,0,0,1,2.69-1q1.33-.21,2.64-.3v-.36a1.89,1.89,0,0,0-2.07-2.15,2.17,2.17,0,0,0-1.51.5,1.8,1.8,0,0,0-.57,1.32H466a3,3,0,0,1,1-2.19,3.81,3.81,0,0,1,2.64-.85Zm2.07,4.93c-.92.07-1.72.17-2.39.29a3.79,3.79,0,0,0-1.63.54,1.22,1.22,0,0,0-.48,1,1.46,1.46,0,0,0,.5,1.15,2.07,2.07,0,0,0,1.38.42,2.84,2.84,0,0,0,1.05-.19,2.41,2.41,0,0,0,.84-.53,2.68,2.68,0,0,0,.57-.89,3.93,3.93,0,0,0,.16-1.27v-.56Zm7.28,3.22a2,2,0,0,0,.64-.09v1.3a4,4,0,0,1-1,.11,2.56,2.56,0,0,1-1.9-.61,2.87,2.87,0,0,1-.59-2V194h-1.58v-1.26h1.58v-2.21h1.59v2.21h1.81V194h-1.81v5.17a1.77,1.77,0,0,0,.28,1.13,1.23,1.23,0,0,0,1,.34Zm2.53-9.79v-1.78h1.59v1.78Zm0,11v-9.15h1.59v9.15Zm8.73-9.35a3.11,3.11,0,0,1,2.45,1,4,4,0,0,1,.87,2.81v5.58H492v-5.46a3,3,0,0,0-.54-2,2,2,0,0,0-1.56-.6,2.2,2.2,0,0,0-1.7.74,3,3,0,0,0-.68,2.07v5.24H485.9v-9.15h1.53V194h0a3.09,3.09,0,0,1,1.15-1,3.46,3.46,0,0,1,1.62-.38Zm9.24,0a3,3,0,0,1,2.73,1.56h0v-1.33h1.53v8.59a3.6,3.6,0,0,1-4,4,4.42,4.42,0,0,1-2.74-.77,2.66,2.66,0,0,1-1-2.13h1.59a1.52,1.52,0,0,0,.62,1.23,2.55,2.55,0,0,0,1.59.45,2.31,2.31,0,0,0,1.84-.69,3.33,3.33,0,0,0,.59-2.19v-1h0a3.09,3.09,0,0,1-2.72,1.53,3.57,3.57,0,0,1-3.39-2.21,5.81,5.81,0,0,1-.48-2.44,5.93,5.93,0,0,1,.48-2.46,3.61,3.61,0,0,1,1.35-1.62,3.71,3.71,0,0,1,2-.56Zm.25,1.31a2.12,2.12,0,0,0-1.79.91,4,4,0,0,0-.68,2.42,3.91,3.91,0,0,0,.68,2.4,2.12,2.12,0,0,0,1.79.91,2.21,2.21,0,0,0,1.87-.89,3.85,3.85,0,0,0,.69-2.42,3.91,3.91,0,0,0-.69-2.44,2.23,2.23,0,0,0-1.87-.89Z" transform="translate(-50.31 -43.38)"/><text class="cls-37" transform="translate(459.01 158.54)"> </text><text class="cls-37" transform="translate(383.67 180.14)"><tspan class="cls-41">r</tspan><tspan class="cls-47" x="6.17" y="0">e</tspan><tspan x="16.18" y="0">st</tspan><tspan class="cls-53" x="30.83" y="0">a</tspan><tspan x="40.17" y="0">u</tspan><tspan class="cls-54" x="50.54" y="0">r</tspan><tspan x="56.66" y="0">a</tspan><tspan class="cls-40" x="66.22" y="0">n</tspan><tspan x="76.43" y="0">t</tspan></text><rect class="cls-23" x="365.99" y="136.56" width="117.5" height="48.5"/><path class="cls-52" d="M1155.55,271.35a1.3,1.3,0,0,0-1,.36,1.77,1.77,0,0,0-.32,1.18v1H1156v1.26h-1.82V283h-1.57v-7.88h-1.6v-1.26h1.6v-1.14a2.72,2.72,0,0,1,.64-2,2.52,2.52,0,0,1,1.86-.65,3.85,3.85,0,0,1,.92.09v1.22a1.69,1.69,0,0,0-.52,0Zm2.16,11.64V270.18h1.58V283Zm8.06-9.39a4.09,4.09,0,0,1,3.19,1.29,5.91,5.91,0,0,1,0,7.06,4.09,4.09,0,0,1-3.19,1.29,4,4,0,0,1-3.17-1.29,6,6,0,0,1,0-7.06,4,4,0,0,1,3.17-1.29Zm0,1.29a2.34,2.34,0,0,0-2,.95,5,5,0,0,0,0,5.16,2.52,2.52,0,0,0,3.94,0,5,5,0,0,0,0-5.16,2.36,2.36,0,0,0-2-.95Zm9.76-1.29a3.68,3.68,0,0,1,2.65.89,3.47,3.47,0,0,1,1,2.65v3.51a10.33,10.33,0,0,0,.22,2.34h-1.44a5.88,5.88,0,0,1-.13-1.33h0a3.22,3.22,0,0,1-1.27,1.13,4.12,4.12,0,0,1-1.89.4,3.25,3.25,0,0,1-2.25-.75,2.43,2.43,0,0,1-.85-1.93,2.39,2.39,0,0,1,.78-1.88,5.4,5.4,0,0,1,2.69-1c.89-.15,1.77-.25,2.65-.31V277a2.13,2.13,0,0,0-.55-1.62,2.11,2.11,0,0,0-1.52-.52,2.15,2.15,0,0,0-1.51.5,1.85,1.85,0,0,0-.58,1.32h-1.58a3.07,3.07,0,0,1,1-2.2,3.88,3.88,0,0,1,2.65-.84Zm2.07,4.93c-.92.07-1.72.17-2.39.29a3.74,3.74,0,0,0-1.63.54,1.21,1.21,0,0,0-.48,1,1.41,1.41,0,0,0,.49,1.14,2,2,0,0,0,1.38.43,3.05,3.05,0,0,0,1-.19,2.41,2.41,0,0,0,1.42-1.42,3.93,3.93,0,0,0,.16-1.27v-.56Zm7.27,3.22a2.08,2.08,0,0,0,.65-.09V283a4,4,0,0,1-1,.1,2.54,2.54,0,0,1-1.9-.61,2.86,2.86,0,0,1-.58-2v-5.33h-1.59v-1.26H1182v-2.22h1.58v2.22h1.82v1.26h-1.82v5.16a1.79,1.79,0,0,0,.29,1.14,1.2,1.2,0,0,0,1,.34Zm2.54-9.79v-1.78H1189V272Zm0,11v-9.14H1189V283Zm8.73-9.34a3.16,3.16,0,0,1,2.45,1,4.11,4.11,0,0,1,.86,2.81V283h-1.58v-5.45a2.94,2.94,0,0,0-.54-2,2,2,0,0,0-1.57-.6,2.21,2.21,0,0,0-1.7.73,3,3,0,0,0-.67,2.07V283h-1.59v-9.14h1.53v1.2h0a3.07,3.07,0,0,1,1.15-1,3.46,3.46,0,0,1,1.62-.38Zm9.23,0a3,3,0,0,1,2.74,1.57h0v-1.33h1.53v8.58a4.09,4.09,0,0,1-1,3,4,4,0,0,1-3,1,4.38,4.38,0,0,1-2.75-.78,2.62,2.62,0,0,1-1-2.12h1.58a1.55,1.55,0,0,0,.62,1.23,2.58,2.58,0,0,0,1.6.44,2.3,2.3,0,0,0,1.83-.68,3.31,3.31,0,0,0,.6-2.2v-1h0a3.07,3.07,0,0,1-2.72,1.53,3.64,3.64,0,0,1-2-.57,3.82,3.82,0,0,1-1.35-1.63,6.49,6.49,0,0,1,0-4.9,3.74,3.74,0,0,1,1.35-1.62,3.64,3.64,0,0,1,2-.57Zm.26,1.32a2.12,2.12,0,0,0-1.8.91,4.67,4.67,0,0,0,0,4.82,2.12,2.12,0,0,0,1.8.91,2.25,2.25,0,0,0,1.87-.89,3.91,3.91,0,0,0,.68-2.42,4,4,0,0,0-.68-2.44,2.25,2.25,0,0,0-1.87-.89Z" transform="translate(-50.31 -43.38)"/><text class="cls-37" transform="translate(1164.91 239.61)"> </text><text class="cls-55" transform="translate(1101.81 261.21)">s<tspan class="cls-53" x="9.16" y="0">a</tspan><tspan class="cls-15" x="18.5" y="0">unas</tspan></text><rect class="cls-23" x="1071.89" y="217.62" width="117.5" height="48.5"/><text class="cls-37" transform="translate(409.59 239.61)">app</text><rect class="cls-23" x="365.99" y="217.62" width="117.5" height="48.5"/><text class="cls-37" transform="translate(237.48 482.81)">t<tspan class="cls-38" x="5.76" y="0">r</tspan><tspan x="11.86" y="0">ain st</tspan><tspan class="cls-8" x="54.97" y="0">a</tspan><tspan x="64.35" y="0">tion</tspan></text><rect class="cls-23" x="226.25" y="460.82" width="117.5" height="48.5"/><text class="cls-37" transform="translate(820.59 342.1)">ci<tspan class="cls-56" x="14" y="0">t</tspan><tspan x="20.03" y="0">y </tspan><tspan class="cls-45" x="32.67" y="0">c</tspan><tspan x="42.37" y="0">e</tspan><tspan class="cls-40" x="52.27" y="0">n</tspan><tspan x="62.48" y="0">t</tspan><tspan class="cls-51" x="68.24" y="0">r</tspan><tspan x="74.43" y="0">e </tspan></text><text class="cls-37" transform="translate(823.92 363.71)">acti<tspan class="cls-8" x="29.32" y="0">v</tspan><tspan class="cls-40" x="37.6" y="0">a</tspan><tspan x="47" y="0">tion</tspan></text><rect class="cls-25" x="804" y="320.12" width="117.5" height="48.5"/><text class="cls-37" transform="translate(1071.49 399.74)">cultu<tspan class="cls-51" x="40.5" y="0">r</tspan><tspan x="46.69" y="0">e</tspan></text><rect class="cls-25" x="1041.02" y="377.76" width="117.5" height="48.5"/><text class="cls-37" transform="translate(763.06 530.06)"><tspan class="cls-47">s</tspan><tspan class="cls-15" x="9" y="0">ch</tspan><tspan class="cls-16" x="28.98" y="0">o</tspan><tspan x="39.33" y="0">ol p</tspan><tspan class="cls-41" x="68.4" y="0">r</tspan><tspan x="74.57" y="0">o</tspan><tspan class="cls-27" x="84.74" y="0">f</tspan><tspan class="cls-16" x="89.98" y="0">e</tspan><tspan x="100.06" y="0">ct</tspan></text><rect class="cls-25" x="762.02" y="508.07" width="117.5" height="48.5"/><text class="cls-37" transform="translate(547.22 437.35)"><tspan class="cls-36">v</tspan><tspan x="8.42" y="0">olu</tspan><tspan class="cls-34" x="33.35" y="0">n</tspan><tspan class="cls-44" x="43.54" y="0">t</tspan><tspan class="cls-57" x="49.03" y="0">e</tspan><tspan x="59.09" y="0">e</tspan><tspan class="cls-14" x="68.99" y="0">r</tspan><tspan x="75.27" y="0">s</tspan></text><rect class="cls-25" x="530.54" y="415.36" width="117.5" height="48.5"/><text class="cls-37" transform="translate(622.03 609.44)"><tspan class="cls-58">w</tspan><tspan class="cls-15" x="13.82" y="0">or</tspan><tspan class="cls-59" x="30.51" y="0">k</tspan><tspan x="39.06" y="0">shops</tspan></text><rect class="cls-25" x="607.14" y="587.45" width="117.5" height="48.5"/><text class="cls-60" transform="translate(411.78 482.81)">t<tspan class="cls-15" x="5.49" y="0">ourism</tspan></text><rect class="cls-25" x="383.7" y="460.82" width="117.5" height="48.5"/><text class="cls-37" transform="translate(422.36 401.74)">h<tspan class="cls-61" x="10.37" y="0">o</tspan><tspan class="cls-62" x="20.45" y="0">t</tspan><tspan x="25.94" y="0">el</tspan></text><rect class="cls-25" x="383.7" y="379.76" width="117.5" height="48.5"/><text class="cls-37" transform="translate(402.05 320.68)">mar<tspan class="cls-63" x="31.61" y="0">k</tspan><tspan class="cls-64" x="40.18" y="0">e</tspan><tspan x="49.99" y="0">ting</tspan></text><rect class="cls-25" x="383.7" y="298.69" width="117.5" height="48.5"/><text class="cls-37" transform="translate(521.42 209.04)"><tspan class="cls-47">s</tspan><tspan class="cls-16" x="9" y="0">o</tspan><tspan x="19.35" y="0">cial m</tspan><tspan class="cls-13" x="66.98" y="0">e</tspan><tspan x="77.04" y="0">dia</tspan></text><rect class="cls-25" x="513.36" y="187.06" width="117.5" height="48.5"/><text class="cls-37" transform="translate(586.56 135.29)"><tspan class="cls-51">r</tspan><tspan class="cls-47" x="6.19" y="0">e</tspan><tspan x="16.2" y="0">st</tspan><tspan class="cls-53" x="30.85" y="0">a</tspan><tspan x="40.19" y="0">u</tspan><tspan class="cls-65" x="50.56" y="0">r</tspan><tspan x="56.66" y="0">a</tspan><tspan class="cls-40" x="66.22" y="0">n</tspan><tspan x="76.43" y="0">t</tspan></text><rect class="cls-25" x="568.87" y="113.31" width="117.5" height="48.5"/><text class="cls-37" transform="translate(667.58 26.16)">l<tspan class="cls-16" x="4.39" y="0">o</tspan><tspan x="14.74" y="0">cal p</tspan><tspan class="cls-41" x="52.81" y="0">r</tspan><tspan class="cls-17" x="58.98" y="0">o</tspan><tspan class="cls-15" x="69.33" y="0">ducts</tspan></text><rect class="cls-25" x="666" y="4.17" width="117.5" height="48.5"/><text class="cls-37" transform="translate(552.59 26.16)">shops</text><rect class="cls-25" x="518.18" y="4.17" width="117.5" height="48.5"/><text class="cls-37" transform="translate(1100.96 22.99)">m<tspan class="cls-40" x="15.53" y="0">a</tspan><tspan x="24.93" y="0">t</tspan><tspan class="cls-53" x="30.69" y="0">a</tspan><tspan x="40.03" y="0">uk</tspan></text><rect class="cls-25" x="1071.89" y="1" width="117.5" height="48.5"/><text class="cls-37" transform="translate(904.8 239.61)">he<tspan class="cls-40" x="20.27" y="0">a</tspan><tspan x="29.66" y="0">t</tspan></text><rect class="cls-25" x="863.75" y="217.62" width="117.5" height="48.5"/><line class="cls-19" x1="713.21" y1="414.36" x2="713.21" y2="364.62"/><line class="cls-19" x1="725.75" y1="340.14" x2="805" y2="340.14"/><polyline class="cls-66" points="589.29 414.36 589.29 389.74 861.21 389.74 861.21 369.62"/><line class="cls-19" x1="840.25" y1="240.96" x2="862.75" y2="240.96"/><line class="cls-19" x1="784.5" y1="184.06" x2="784.5" y2="216.62"/><line class="cls-19" x1="634.68" y1="28.42" x2="665" y2="28.42"/><line class="cls-19" x1="780.16" y1="19.97" x2="862.75" y2="19.97"/><line class="cls-19" x1="982.25" y1="27.92" x2="1072.89" y2="27.92"/><line class="cls-19" x1="982.25" y1="112.31" x2="1070.89" y2="112.31"/><polyline class="cls-19" points="751.21 51.67 751.21 98.89 862.75 98.89"/><polyline class="cls-19" points="920.5 327.97 1038.97 327.97 1038.97 241.87 1070.89 241.87"/><polyline class="cls-19" points="912 369.62 912 402.01 1040.02 402.01"/><polyline class="cls-19" points="893.21 369.62 893.21 632.9 1039.82 632.9"/><line class="cls-19" x1="1039.82" y1="555.57" x2="892.71" y2="555.57"/><line class="cls-19" x1="1039.82" y1="476.97" x2="892.71" y2="476.97"/><line class="cls-19" x1="1099.77" y1="425.26" x2="1099.77" y2="453.72"/><line class="cls-19" x1="1099.27" y1="504.22" x2="1099.27" y2="530.18"/><line class="cls-19" x1="1098.77" y1="581.18" x2="1098.77" y2="607.65"/><line class="cls-19" x1="1159.52" y1="555.07" x2="1190.39" y2="555.07"/><line class="cls-19" x1="1250.14" y1="503.86" x2="1250.14" y2="532.32"/><line class="cls-19" x1="1159.52" y1="476.47" x2="1190.39" y2="476.47"/><line class="cls-19" x1="723.46" y1="317.62" x2="723.46" y2="267.12"/><line class="cls-19" x1="659.21" y1="162.81" x2="659.21" y2="317.62"/><line class="cls-19" x1="701.21" y1="53.67" x2="701.21" y2="317.62"/><line class="cls-19" x1="484.49" y1="151.97" x2="567.87" y2="151.97"/><line class="cls-19" x1="484.49" y1="225.97" x2="512.36" y2="225.97"/><line class="cls-19" x1="430.16" y1="267.12" x2="430.16" y2="297.69"/><line class="cls-19" x1="428.16" y1="348.19" x2="428.16" y2="378.76"/><line class="cls-19" x1="427.66" y1="427.26" x2="427.66" y2="459.82"/><line class="cls-19" x1="502.2" y1="334.97" x2="544.75" y2="334.97"/><polyline class="cls-19" points="484.49 255.97 569.87 255.97 569.87 317.62"/><polyline class="cls-19" points="581.21 112.31 581.21 85.97 410.25 85.97"/><polyline class="cls-19" points="312.21 102.17 312.21 306.97 384.7 306.97"/><line class="cls-19" x1="283.21" y1="365.62" x2="283.21" y2="459.82"/><polyline class="cls-67" points="502.2 304.97 540.21 304.97 540.21 236.56"/><line class="cls-19" x1="681.69" y1="364.62" x2="681.69" y2="509.07"/><line class="cls-19" x1="665.89" y1="557.57" x2="665.89" y2="588.45"/><line class="cls-19" x1="665.39" y1="635.97" x2="665.39" y2="665.83"/><line class="cls-19" x1="723.64" y1="530.68" x2="761.02" y2="530.68"/><polyline class="cls-19" points="723.64 611.7 814.48 611.7 814.48 555.93"/><polyline class="cls-68" points="703.27 443.54 666.71 443.54 649.04 443.54"/><line class="cls-68" x1="664.89" y1="443.54" x2="664.89" y2="364.62"/><polyline class="cls-19" points="737.21 464.86 737.21 478.69 546.25 478.69 546.25 547.76"/><line class="cls-69" x1="840.44" y1="454.22" x2="999.5" y2="454.22"/><line class="cls-70" x1="1011.29" y1="471.87" x2="1011.29" y2="607.2"/><path class="cls-19" d="M1083.14,662.35h7.19m-28.74-5.88v5.88h7.18M1055.7,497.6h5.89v5.89M873.07,497.6H879" transform="translate(-50.31 -43.38)"/><line class="cls-71" x1="1010.64" y1="454.22" x2="1039.82" y2="454.22"/><line class="cls-72" x1="1040.66" y1="536.59" x2="1012.84" y2="536.59"/><line class="cls-73" x1="992.21" y1="54.01" x2="992.21" y2="505.17"/><line class="cls-74" x1="975.45" y1="517.2" x2="891.69" y2="517.2"/><path class="cls-75" d="M936.41,560.58h-5.59m111.69-6v6h-5.58m-4.37-481.23h10v6" transform="translate(-50.31 -43.38)"/><line class="cls-76" x1="873.21" y1="507.07" x2="873.21" y2="369.62"/><line class="cls-77" x1="360.21" y1="363.44" x2="360.21" y2="518.68"/><line class="cls-78" x1="378.65" y1="530.18" x2="593.84" y2="530.18"/><path class="cls-68" d="M650.3,573.57h6.15m-245.94-5.75v5.75h6.15m-10-184h3.86v5.75m-15.45-5.75h3.86" transform="translate(-50.31 -43.38)"/><line class="cls-79" x1="529.54" y1="413.72" x2="529.54" y2="234.56"/><line class="cls-80" x1="514.36" y1="459.77" x2="514.36" y2="363.77"/><path class="cls-67" d="M587.46,394.35h7.6m-30.39,6.4v-6.4h7.59m-10.63,128h3V516m-12.16,6.4h3" transform="translate(-50.31 -43.38)"/><line class="cls-81" x1="572.11" y1="515.85" x2="572.11" y2="501.52"/><line class="cls-82" x1="590.39" y1="491.97" x2="828.06" y2="491.97"/><line class="cls-83" x1="840.25" y1="473.62" x2="840.25" y2="381.85"/><path class="cls-68" d="M890.56,419.12V413m-6.1,122.35h6.1v-6.12m-268.14,10.9v-4.78h6.09m-6.09,38.22v-4.78" transform="translate(-50.31 -43.38)"/><line class="cls-84" x1="1052.6" y1="289.64" x2="644.06" y2="289.64"/><line class="cls-85" x1="631.86" y1="269.73" x2="631.86" y2="249.83"/><path class="cls-19" d="M682.17,286.57v-6.63M688.26,333h-6.09v-6.63m439,6.63h-6.1" transform="translate(-50.31 -43.38)"/><line class="cls-86" x1="606.14" y1="252.34" x2="606.14" y2="289.17"/><line class="cls-87" x1="624.54" y1="299.69" x2="839.23" y2="299.69"/><path class="cls-19" d="M901.8,357.64v4.86m-6.13-19.43h6.13v4.86M656.45,337.81v5.26h6.13m-6.13-63.13v5.26" transform="translate(-50.31 -43.38)"/><line class="cls-88" x1="685.37" y1="114.31" x2="862.75" y2="114.31"/><line class="cls-89" x1="1070.89" y1="339.64" x2="922.5" y2="339.64"/></g></svg>