<svg id="Ebene_1" data-name="Ebene 1" xmlns="http://www.w3.org/2000/svg" viewBox="0 0 1415.82 518.79"><defs><style>.cls-1{font-size:24px;}.cls-1,.cls-8{fill:#1d1d1b;font-family:MyriadPro-Regular, Myriad Pro;}.cls-2{letter-spacing:0em;}.cls-3{letter-spacing:-0.01em;}.cls-4{letter-spacing:0em;}.cls-5{letter-spacing:0.03em;}.cls-6{letter-spacing:-0.01em;}.cls-7{letter-spacing:-0.01em;}.cls-8{font-size:18px;}.cls-9{letter-spacing:-0.04em;}.cls-10{letter-spacing:-0.01em;}.cls-11{letter-spacing:0.03em;}.cls-12{letter-spacing:0em;}.cls-13{letter-spacing:0em;}.cls-14{letter-spacing:-0.01em;}.cls-15{letter-spacing:-0.01em;}.cls-16{letter-spacing:-0.01em;}.cls-17{letter-spacing:-0.01em;}.cls-18{letter-spacing:0em;}.cls-19{letter-spacing:-0.04em;}.cls-20{letter-spacing:0em;}.cls-21{letter-spacing:-0.01em;}.cls-22{letter-spacing:-0.01em;}.cls-23{letter-spacing:0em;}.cls-24{letter-spacing:-0.01em;}.cls-25{letter-spacing:0em;}.cls-26{letter-spacing:0em;}.cls-27{letter-spacing:0.01em;}.cls-28{letter-spacing:-0.01em;}.cls-29{letter-spacing:0.02em;}.cls-30{letter-spacing:0.01em;}.cls-31{letter-spacing:-0.05em;}.cls-32{letter-spacing:-0.01em;}.cls-33{letter-spacing:0.01em;}.cls-34{letter-spacing:0.01em;}.cls-35{letter-spacing:0.01em;}.cls-36{letter-spacing:-0.01em;}.cls-37{letter-spacing:-0.01em;}.cls-38{letter-spacing:0.02em;}.cls-39{letter-spacing:-0.01em;}.cls-40{letter-spacing:-0.03em;}.cls-41{letter-spacing:-0.01em;}.cls-42{letter-spacing:-0.04em;}.cls-43{letter-spacing:0.01em;}.cls-44{letter-spacing:0.01em;}.cls-45{letter-spacing:-0.04em;}.cls-46{letter-spacing:0em;}.cls-47{letter-spacing:-0.05em;}.cls-48{letter-spacing:0em;}.cls-49{letter-spacing:0.01em;}.cls-50{letter-spacing:-0.02em;}.cls-51{letter-spacing:0em;}.cls-52{letter-spacing:-0.01em;}</style></defs><title>3. Map Food Festival</title><text class="cls-1" transform="translate(39.99 20.09)">su<tspan class="cls-2" x="22.73" y="0">r</tspan><tspan x="30.67" y="0">plus of ene</tspan><tspan class="cls-3" x="140.44" y="0">r</tspan><tspan x="148.1" y="0">gy</tspan></text><text class="cls-1" transform="translate(411.11 20.35)">educ<tspan class="cls-4" x="49.54" y="0">a</tspan><tspan x="61.01" y="0">tion/indsut</tspan><tspan class="cls-5" x="172.44" y="0">r</tspan><tspan x="180.89" y="0">y</tspan></text><text class="cls-1" transform="translate(854.05 20.35)"><tspan class="cls-6">v</tspan><tspan x="11.3" y="0">olu</tspan><tspan class="cls-4" x="43.37" y="0">n</tspan><tspan class="cls-7" x="56.59" y="0">t</tspan><tspan x="64.39" y="0">eers</tspan></text><text class="cls-8" transform="translate(0 98.33)"><tspan class="cls-9">F</tspan><tspan x="7.96" y="0">auske has the </tspan><tspan class="cls-10" x="113.34" y="0">v</tspan><tspan x="121.82" y="0">e</tspan><tspan class="cls-11" x="130.84" y="0">r</tspan><tspan x="137.17" y="0">y luxu</tspan><tspan class="cls-11" x="181.89" y="0">r</tspan><tspan x="188.22" y="0">y situ</tspan><tspan class="cls-12" x="227.73" y="0">a</tspan><tspan x="236.33" y="0">tion of </tspan><tspan x="0" y="21.6">h</tspan><tspan class="cls-3" x="9.99" y="21.6">a</tspan><tspan x="18.52" y="21.6">ving a su</tspan><tspan class="cls-13" x="84.8" y="21.6">r</tspan><tspan x="90.75" y="21.6">plu of </tspan><tspan class="cls-14" x="137.93" y="21.6">g</tspan><tspan class="cls-15" x="147.88" y="21.6">r</tspan><tspan x="153.59" y="21.6">een (</tspan><tspan class="cls-16" x="190.54" y="21.6">h</tspan><tspan class="cls-15" x="200.3" y="21.6">y</tspan><tspan x="208.6" y="21.6">d</tspan><tspan class="cls-15" x="218.75" y="21.6">r</tspan><tspan x="224.46" y="21.6">op</tspan><tspan class="cls-17" x="244.58" y="21.6">o</tspan><tspan x="254.34" y="21.6">w</tspan><tspan x="267.58" y="21.6">-</tspan><tspan x="0" y="43.2">e</tspan><tspan class="cls-18" x="9.02" y="43.2">r</tspan><tspan x="14.81" y="43.2">-based) ene</tspan><tspan class="cls-3" x="102.51" y="43.2">r</tspan><tspan x="108.25" y="43.2">g</tspan><tspan class="cls-19" x="118.31" y="43.2">y</tspan><tspan x="126.09" y="43.2">. N</tspan><tspan class="cls-17" x="145.47" y="43.2">o</tspan><tspan class="cls-20" x="155.23" y="43.2">w</tspan><tspan x="168.4" y="43.2">ad</tspan><tspan class="cls-21" x="187.23" y="43.2">a</tspan><tspan x="195.76" y="43.2">y </tspan><tspan class="cls-22" x="208.06" y="43.2">s</tspan><tspan x="214.99" y="43.2">, ene</tspan><tspan class="cls-21" x="250.55" y="43.2">r</tspan><tspan x="256.29" y="43.2">gy </tspan><tspan x="0" y="64.8">gets a mo</tspan><tspan class="cls-15" x="73.37" y="64.8">r</tspan><tspan x="79.07" y="64.8">e and mo</tspan><tspan class="cls-15" x="149.43" y="64.8">r</tspan><tspan x="155.14" y="64.8">e </tspan><tspan class="cls-23" x="167.97" y="64.8">e</tspan><tspan x="176.93" y="64.8">xpensi</tspan><tspan class="cls-15" x="225.86" y="64.8">v</tspan><tspan x="234.34" y="64.8">e be</tspan><tspan class="cls-14" x="266.43" y="64.8">c</tspan><tspan x="274.38" y="64.8">o</tspan><tspan x="284.27" y="64.8">-</tspan><tspan x="0" y="86.4">ming </tspan><tspan class="cls-15" x="43.09" y="86.4">r</tspan><tspan x="48.8" y="86.4">esou</tspan><tspan class="cls-15" x="84.74" y="86.4">r</tspan><tspan class="cls-24" x="90.45" y="86.4">c</tspan><tspan x="98.4" y="86.4">e and the whole </tspan><tspan class="cls-15" x="222.85" y="86.4">w</tspan><tspan x="235.92" y="86.4">o</tspan><tspan class="cls-13" x="245.8" y="86.4">r</tspan><tspan x="251.76" y="86.4">ld </tspan><tspan x="0" y="108">t</tspan><tspan class="cls-25" x="5.96" y="108">r</tspan><tspan x="11.92" y="108">ies </tspan><tspan class="cls-24" x="36.09" y="108">t</tspan><tspan x="41.94" y="108" xml:space="preserve">o  meet th</tspan><tspan class="cls-12" x="118.22" y="108">a</tspan><tspan x="126.82" y="108">t </tspan><tspan class="cls-14" x="136.6" y="108">g</tspan><tspan class="cls-15" x="146.55" y="108">r</tspan><tspan class="cls-17" x="152.26" y="108">o</tspan><tspan x="162.01" y="108">wing demand </tspan><tspan x="0" y="129.6">without emmitting </tspan><tspan class="cls-24" x="146.23" y="129.6">t</tspan><tspan x="152.08" y="129.6">oo much </tspan><tspan class="cls-14" x="222.46" y="129.6">g</tspan><tspan class="cls-15" x="232.41" y="129.6">r</tspan><tspan x="238.12" y="129.6">een</tspan><tspan x="266.14" y="129.6">-</tspan><tspan x="0" y="151.2">house gase</tspan><tspan class="cls-22" x="84.63" y="151.2">s</tspan><tspan class="cls-26" x="91.56" y="151.2" xml:space="preserve">.  </tspan><tspan class="cls-27" x="102.92" y="151.2">S</tspan><tspan x="111.9" y="151.2">o w</tspan><tspan class="cls-28" x="138.85" y="151.2">h</tspan><tspan x="148.6" y="151.2">y not use the </tspan><tspan x="0" y="172.8">ene</tspan><tspan class="cls-3" x="28.03" y="172.8">r</tspan><tspan x="33.77" y="172.8">gy wisely </tspan><tspan class="cls-24" x="106.27" y="172.8">t</tspan><tspan x="112.12" y="172.8">o secu</tspan><tspan class="cls-15" x="159.94" y="172.8">r</tspan><tspan x="165.65" y="172.8">e no</tspan><tspan class="cls-29" x="198.35" y="172.8">r</tspan><tspan x="204.67" y="172.8">the</tspan><tspan class="cls-25" x="229.64" y="172.8">r</tspan><tspan x="235.6" y="172.8">n-nor</tspan><tspan x="276.87" y="172.8">-</tspan><tspan x="0" y="194.4">dic cultu</tspan><tspan class="cls-15" x="64.35" y="194.4">r</tspan><tspan x="70.05" y="194.4">e?</tspan></text><text class="cls-8" transform="translate(371.11 98.33)"><tspan class="cls-17">T</tspan><tspan x="8.82" y="0">he link be</tspan><tspan class="cls-30" x="81.61" y="0">t</tspan><tspan class="cls-15" x="87.73" y="0">w</tspan><tspan x="100.8" y="0">een educ</tspan><tspan class="cls-12" x="169.79" y="0">a</tspan><tspan x="178.4" y="0">tion and indus</tspan><tspan x="286.29" y="0">-</tspan><tspan x="0" y="21.6">t</tspan><tspan class="cls-11" x="5.96" y="21.6">r</tspan><tspan x="12.29" y="21.6">y </tspan><tspan class="cls-24" x="24.59" y="21.6">t</tspan><tspan x="30.44" y="21.6">od</tspan><tspan class="cls-3" x="50.47" y="21.6">a</tspan><tspan x="59" y="21.6">y is mo</tspan><tspan class="cls-15" x="111.34" y="21.6">r</tspan><tspan x="117.05" y="21.6">e impo</tspan><tspan class="cls-29" x="169.23" y="21.6">r</tspan><tspan x="175.55" y="21.6">tn</tspan><tspan class="cls-12" x="191.5" y="21.6">a</tspan><tspan x="200.1" y="21.6">t than sin</tspan><tspan class="cls-24" x="269.63" y="21.6">c</tspan><tspan x="277.59" y="21.6">e </tspan><tspan x="0" y="43.2">e</tspan><tspan class="cls-15" x="9.02" y="43.2">v</tspan><tspan x="17.5" y="43.2">e</tspan><tspan class="cls-31" x="26.51" y="43.2">r</tspan><tspan x="31.45" y="43.2">. </tspan><tspan class="cls-32" x="38.99" y="43.2">L</tspan><tspan x="47.23" y="43.2">ocal specific jobs and an ea</tspan><tspan class="cls-25" x="250.12" y="43.2">r</tspan><tspan x="256.08" y="43.2">ly </tspan><tspan class="cls-24" x="0" y="64.8">c</tspan><tspan x="7.96" y="64.8">onne</tspan><tspan class="cls-33" x="46.84" y="64.8">c</tspan><tspan x="55.13" y="64.8">tion be</tspan><tspan class="cls-34" x="108.25" y="64.8">t</tspan><tspan class="cls-15" x="114.37" y="64.8">w</tspan><tspan x="127.44" y="64.8">een the </tspan><tspan class="cls-30" x="188.06" y="64.8">t</tspan><tspan class="cls-15" x="194.18" y="64.8">w</tspan><tspan x="207.25" y="64.8">o se</tspan><tspan class="cls-35" x="237.09" y="64.8">c</tspan><tspan class="cls-14" x="245.39" y="64.8">t</tspan><tspan class="cls-26" x="251.24" y="64.8">ors </tspan><tspan x="0" y="86.4">links the people mo</tspan><tspan class="cls-15" x="147.98" y="86.4">r</tspan><tspan x="153.68" y="86.4">e </tspan><tspan class="cls-24" x="166.51" y="86.4">t</tspan><tspan x="172.36" y="86.4">o their home</tspan><tspan x="268.84" y="86.4">-</tspan><tspan class="cls-24" x="0" y="108">t</tspan><tspan class="cls-36" x="5.85" y="108">o</tspan><tspan x="15.61" y="108">wn and p</tspan><tspan class="cls-10" x="85.54" y="108">r</tspan><tspan class="cls-36" x="91.24" y="108">o</tspan><tspan x="101" y="108">vides speciali</tspan><tspan class="cls-17" x="199.78" y="108">z</tspan><tspan x="207.36" y="108">ed </tspan><tspan class="cls-15" x="230.34" y="108">w</tspan><tspan x="243.41" y="108">o</tspan><tspan class="cls-13" x="253.29" y="108">r</tspan><tspan x="259.25" y="108">k</tspan><tspan x="267.69" y="108">-</tspan><tspan class="cls-28" x="0" y="129.6">f</tspan><tspan x="5.02" y="129.6">o</tspan><tspan class="cls-10" x="14.9" y="129.6">r</tspan><tspan class="cls-14" x="20.61" y="129.6">c</tspan><tspan class="cls-37" x="28.57" y="129.6">e</tspan><tspan x="37.37" y="129.6">. Expe</tspan><tspan class="cls-25" x="81.36" y="129.6">r</tspan><tspan x="87.32" y="129.6">ien</tspan><tspan class="cls-24" x="110.54" y="129.6">c</tspan><tspan x="118.49" y="129.6">ed peopl</tspan><tspan class="cls-37" x="185.11" y="129.6">e</tspan><tspan x="193.91" y="129.6">, who can </tspan><tspan class="cls-24" x="0" y="151.2">g</tspan><tspan x="9.95" y="151.2">i</tspan><tspan class="cls-15" x="14.17" y="151.2">v</tspan><tspan x="22.64" y="151.2">e their </tspan><tspan class="cls-38" x="74.36" y="151.2">k</tspan><tspan x="83.1" y="151.2">n</tspan><tspan class="cls-17" x="93.09" y="151.2">o</tspan><tspan x="102.85" y="151.2">wledge </tspan><tspan class="cls-24" x="162.41" y="151.2">t</tspan><tspan x="168.26" y="151.2">o the </tspan><tspan class="cls-28" x="210.74" y="151.2">f</tspan><tspan x="215.76" y="151.2">oll</tspan><tspan class="cls-17" x="234.14" y="151.2">o</tspan><tspan x="243.9" y="151.2">wing </tspan><tspan x="0" y="172.8">gene</tspan><tspan class="cls-18" x="38.09" y="172.8">r</tspan><tspan class="cls-12" x="43.88" y="172.8">a</tspan><tspan x="52.49" y="172.8">tions is crucial </tspan><tspan class="cls-28" x="161.51" y="172.8">f</tspan><tspan x="166.53" y="172.8">or the su</tspan><tspan class="cls-11" x="231.94" y="172.8">r</tspan><tspan x="238.28" y="172.8">viving </tspan><tspan x="0" y="194.4">of local indust</tspan><tspan class="cls-25" x="105.24" y="194.4">r</tspan><tspan x="111.2" y="194.4">ie</tspan><tspan class="cls-39" x="124.43" y="194.4">s</tspan><tspan x="131.36" y="194.4">.</tspan></text><text class="cls-8" transform="translate(751.03 98.33)"><tspan class="cls-40">V</tspan><tspan x="9.45" y="0">olu</tspan><tspan class="cls-12" x="33.5" y="0">n</tspan><tspan class="cls-14" x="43.42" y="0">t</tspan><tspan x="49.27" y="0">ee</tspan><tspan class="cls-13" x="67.3" y="0">r</tspan><tspan x="73.26" y="0">ing is based on trust an the </tspan><tspan x="0" y="21.6">i</tspan><tspan class="cls-12" x="4.21" y="21.6">n</tspan><tspan x="14.13" y="21.6">t</tspan><tspan class="cls-25" x="20.09" y="21.6">r</tspan><tspan x="26.05" y="21.6">insic will </tspan><tspan class="cls-24" x="93.24" y="21.6">t</tspan><tspan x="99.09" y="21.6">o do somethin</tspan><tspan class="cls-41" x="207.83" y="21.6">g</tspan><tspan x="217.62" y="21.6">.</tspan><tspan class="cls-42" x="221.34" y="21.6"> </tspan><tspan class="cls-17" x="224.42" y="21.6">T</tspan><tspan x="233.24" y="21.6">his p</tspan><tspan class="cls-15" x="268.63" y="21.6">r</tspan><tspan x="274.33" y="21.6">o</tspan><tspan x="284.22" y="21.6">-</tspan><tspan x="0" y="43.2">vides most o</tspan><tspan class="cls-43" x="94.66" y="43.2">f</tspan><tspan class="cls-14" x="100.11" y="43.2">t</tspan><tspan x="105.96" y="43.2">en the highest le</tspan><tspan class="cls-15" x="231.01" y="43.2">v</tspan><tspan x="239.49" y="43.2">el of </tspan><tspan x="0" y="64.8">moti</tspan><tspan class="cls-12" x="35.06" y="64.8">va</tspan><tspan x="52.25" y="64.8">tion </tspan><tspan class="cls-16" x="86.11" y="64.8">f</tspan><tspan x="91.13" y="64.8">or </tspan><tspan class="cls-15" x="110.72" y="64.8">w</tspan><tspan x="123.78" y="64.8">o</tspan><tspan class="cls-25" x="133.67" y="64.8">r</tspan><tspan class="cls-44" x="139.62" y="64.8">k</tspan><tspan x="148.32" y="64.8">.</tspan><tspan class="cls-45" x="152.04" y="64.8"> </tspan><tspan class="cls-40" x="155.21" y="64.8">V</tspan><tspan x="164.66" y="64.8">olu</tspan><tspan class="cls-12" x="188.71" y="64.8">n</tspan><tspan class="cls-14" x="198.63" y="64.8">t</tspan><tspan x="204.48" y="64.8">ee</tspan><tspan class="cls-25" x="222.51" y="64.8">r</tspan><tspan x="228.47" y="64.8">ing </tspan><tspan class="cls-24" x="0" y="86.4">c</tspan><tspan x="7.96" y="86.4">onne</tspan><tspan class="cls-33" x="46.84" y="86.4">c</tspan><tspan x="55.13" y="86.4">ts </tspan><tspan class="cls-15" x="72.04" y="86.4">y</tspan><tspan x="80.33" y="86.4">ou </tspan><tspan class="cls-24" x="103.95" y="86.4">t</tspan><tspan x="109.8" y="86.4">o other</tspan><tspan class="cls-22" x="164.23" y="86.4">s</tspan><tspan x="171.16" y="86.4">.</tspan><tspan class="cls-45" x="174.88" y="86.4"> </tspan><tspan class="cls-40" x="178.05" y="86.4">V</tspan><tspan x="187.5" y="86.4">olu</tspan><tspan class="cls-12" x="211.55" y="86.4">n</tspan><tspan class="cls-14" x="221.47" y="86.4">t</tspan><tspan x="227.32" y="86.4">ee</tspan><tspan class="cls-13" x="245.35" y="86.4">r</tspan><tspan class="cls-46" x="251.31" y="86.4">ing is </tspan><tspan x="0" y="108">good </tspan><tspan class="cls-28" x="43.79" y="108">f</tspan><tspan x="48.82" y="108">or </tspan><tspan class="cls-10" x="68.4" y="108">y</tspan><tspan x="76.7" y="108">our mind and body and can </tspan><tspan x="0" y="129.6">ad</tspan><tspan class="cls-12" x="18.83" y="129.6">v</tspan><tspan x="27.41" y="129.6">an</tspan><tspan class="cls-14" x="46.08" y="129.6">c</tspan><tspan x="54.04" y="129.6">e </tspan><tspan class="cls-15" x="66.87" y="129.6">y</tspan><tspan x="75.17" y="129.6">our ca</tspan><tspan class="cls-10" x="121.41" y="129.6">r</tspan><tspan x="127.11" y="129.6">ee</tspan><tspan class="cls-47" x="145.15" y="129.6">r</tspan><tspan x="150.08" y="129.6">.</tspan><tspan class="cls-45" x="153.81" y="129.6"> </tspan><tspan class="cls-40" x="156.97" y="129.6">V</tspan><tspan x="166.42" y="129.6">olu</tspan><tspan class="cls-12" x="190.47" y="129.6">n</tspan><tspan class="cls-14" x="200.39" y="129.6">t</tspan><tspan x="206.24" y="129.6">ee</tspan><tspan class="cls-13" x="224.28" y="129.6">r</tspan><tspan class="cls-46" x="230.23" y="129.6">ing </tspan><tspan x="0" y="151.2">b</tspan><tspan class="cls-25" x="10.24" y="151.2">r</tspan><tspan x="16.2" y="151.2">ings fun and fulfillme</tspan><tspan class="cls-12" x="174.38" y="151.2">n</tspan><tspan x="184.3" y="151.2">t </tspan><tspan class="cls-24" x="194.07" y="151.2">t</tspan><tspan x="199.92" y="151.2">o </tspan><tspan class="cls-15" x="213.62" y="151.2">y</tspan><tspan x="221.92" y="151.2">our li</tspan><tspan class="cls-28" x="259.88" y="151.2">f</tspan><tspan class="cls-37" x="264.9" y="151.2">e</tspan><tspan x="273.7" y="151.2">.</tspan></text><text class="cls-8" transform="translate(1120.73 98.33)">Online and p<tspan class="cls-28" x="96.55" y="0">h</tspan><tspan class="cls-24" x="106.31" y="0">y</tspan><tspan x="114.68" y="0">sical p</tspan><tspan class="cls-15" x="161.06" y="0">r</tspan><tspan x="166.77" y="0">esen</tspan><tspan class="cls-24" x="201.92" y="0">c</tspan><tspan x="209.88" y="0">e and </tspan><tspan x="0" y="21.6">a</tspan><tspan class="cls-35" x="8.68" y="21.6">c</tspan><tspan x="16.97" y="21.6">ti</tspan><tspan class="cls-15" x="27.14" y="21.6">v</tspan><tspan x="35.62" y="21.6">e ma</tspan><tspan class="cls-25" x="72.14" y="21.6">r</tspan><tspan x="78.1" y="21.6">keting is highly impo</tspan><tspan class="cls-29" x="234.89" y="21.6">r</tspan><tspan x="241.21" y="21.6">ta</tspan><tspan class="cls-12" x="255.85" y="21.6">n</tspan><tspan x="265.76" y="21.6">t </tspan><tspan class="cls-14" x="275.54" y="21.6">t</tspan><tspan x="281.39" y="21.6">o </tspan><tspan x="0" y="43.2">gain impo</tspan><tspan class="cls-29" x="76.1" y="43.2">r</tspan><tspan x="82.42" y="43.2">tan</tspan><tspan class="cls-14" x="107.04" y="43.2">c</tspan><tspan x="115" y="43.2">e on the i</tspan><tspan class="cls-12" x="184.51" y="43.2">n</tspan><tspan class="cls-24" x="194.43" y="43.2">t</tspan><tspan x="200.28" y="43.2">e</tspan><tspan class="cls-25" x="209.3" y="43.2">r</tspan><tspan x="215.26" y="43.2">n</tspan><tspan class="cls-12" x="225.25" y="43.2">a</tspan><tspan x="233.85" y="43.2">tional </tspan><tspan x="0" y="64.8">ma</tspan><tspan class="cls-25" x="23.69" y="64.8">r</tspan><tspan x="29.65" y="64.8">ke</tspan><tspan class="cls-48" x="47.11" y="64.8">t</tspan><tspan x="53.01" y="64.8">. </tspan><tspan class="cls-49" x="60.55" y="64.8">I</tspan><tspan x="65.03" y="64.8">f po</tspan><tspan class="cls-24" x="94.23" y="64.8">t</tspan><tspan x="100.08" y="64.8">e</tspan><tspan class="cls-20" x="109.09" y="64.8">n</tspan><tspan x="119.01" y="64.8">tial clie</tspan><tspan class="cls-12" x="171.46" y="64.8">n</tspan><tspan x="181.38" y="64.8">ts do</tspan><tspan class="cls-40" x="218.32" y="64.8">n</tspan><tspan class="cls-39" x="227.71" y="64.8">’</tspan><tspan x="231.24" y="64.8">t </tspan><tspan class="cls-38" x="241.02" y="64.8">k</tspan><tspan x="249.76" y="64.8">n</tspan><tspan class="cls-17" x="259.75" y="64.8">o</tspan><tspan x="269.51" y="64.8">w </tspan><tspan x="0" y="86.4">about their supplie</tspan><tspan class="cls-31" x="142.38" y="86.4">r</tspan><tspan x="147.31" y="86.4">, they ca</tspan><tspan class="cls-40" x="208.85" y="86.4">n</tspan><tspan class="cls-22" x="218.25" y="86.4">’</tspan><tspan x="221.77" y="86.4">t buy </tspan><tspan x="0" y="108">a</tspan><tspan class="cls-28" x="8.68" y="108">n</tspan><tspan x="18.43" y="108">ythin</tspan><tspan class="cls-50" x="57.06" y="108">g</tspan><tspan x="66.85" y="108">.</tspan><tspan class="cls-49" x="0" y="129.6">I</tspan><tspan x="4.48" y="129.6">n times of social media the use of </tspan><tspan class="cls-15" x="0" y="151.2">y</tspan><tspan x="8.3" y="151.2">outh adap</tspan><tspan class="cls-24" x="85.61" y="151.2">t</tspan><tspan x="91.46" y="151.2">ed- </tspan><tspan class="cls-14" x="119.97" y="151.2">c</tspan><tspan x="127.92" y="151.2">o</tspan><tspan class="cls-12" x="137.81" y="151.2">n</tspan><tspan class="cls-24" x="147.72" y="151.2">t</tspan><tspan x="153.57" y="151.2">e</tspan><tspan class="cls-20" x="162.59" y="151.2">n</tspan><tspan x="172.51" y="151.2">t sha</tspan><tspan class="cls-13" x="208.08" y="151.2">r</tspan><tspan class="cls-46" x="214.04" y="151.2">ing gains </tspan><tspan x="0" y="172.8">mo</tspan><tspan class="cls-15" x="24.89" y="172.8">r</tspan><tspan x="30.6" y="172.8">e and mo</tspan><tspan class="cls-15" x="100.96" y="172.8">r</tspan><tspan x="106.67" y="172.8">e impo</tspan><tspan class="cls-29" x="158.85" y="172.8">r</tspan><tspan x="165.16" y="172.8">tan</tspan><tspan class="cls-24" x="189.79" y="172.8">c</tspan><tspan x="197.74" y="172.8">e as </tspan><tspan class="cls-15" x="230.2" y="172.8">w</tspan><tspan x="243.26" y="172.8">el</tspan><tspan class="cls-15" x="256.53" y="172.8">l</tspan><tspan x="260.6" y="172.8">. </tspan></text><text class="cls-1" transform="translate(1211.54 20.35)"><tspan class="cls-51">e</tspan><tspan x="11.95" y="0">xposu</tspan><tspan class="cls-52" x="72.62" y="0">r</tspan><tspan x="80.23" y="0">e</tspan></text></svg>