<svg id="Ebene_1" data-name="Ebene 1" xmlns="http://www.w3.org/2000/svg" viewBox="0 0 1456.56 782.36"><defs><style>@font-face {font-family: "NeueHaasUnicaW06-ThinItalic";
    src: url("/Blog/main/fonts/NeueHaasUnicaW06/OnlineWebFonts_COM_0ed68d0a6f9c1234e2d43bdd27b951f2/@font-face/3842220656142ccef91508c98b0eb6ed.eot"); /* IE9*/
    src: url("/Blog/main/fonts/NeueHaasUnicaW06/OnlineWebFonts_COM_0ed68d0a6f9c1234e2d43bdd27b951f2/@font-face/3842220656142ccef91508c98b0eb6ed.eot?#iefix") format("embedded-opentype"), /* IE6-IE8 */
    url("/Blog/main/fonts/NeueHaasUnicaW06/OnlineWebFonts_COM_0ed68d0a6f9c1234e2d43bdd27b951f2/@font-face/3842220656142ccef91508c98b0eb6ed.woff2") format("woff2"), /* chrome、firefox */
    url("/Blog/main/fonts/NeueHaasUnicaW06/OnlineWebFonts_COM_0ed68d0a6f9c1234e2d43bdd27b951f2/@font-face/3842220656142ccef91508c98b0eb6ed.woff") format("woff"), /* chrome、firefox */
    url("/Blog/main/fonts/NeueHaasUnicaW06/OnlineWebFonts_COM_0ed68d0a6f9c1234e2d43bdd27b951f2/@font-face/3842220656142ccef91508c98b0eb6ed.ttf") format("truetype"), /* chrome、firefox、opera、Safari, Android, iOS 4.2+*/
    url("/Blog/main/fonts/NeueHaasUnicaW06/OnlineWebFonts_COM_0ed68d0a6f9c1234e2d43bdd27b951f2/@font-face/3842220656142ccef91508c98b0eb6ed.svg#Neue Haas Unica W06 Thin It") format("svg"); /* iOS 4.1- */
    }
    @font-face {font-family: "NeueHaasUnicaW06-ExtraBlack";
    src: url("/Blog/main/fonts/NeueHaasUnicaW06/OnlineWebFonts_COM_3dad734723cd1eada75c00f4d4322909/@font-face/46ff6b5a1511006aeadd4a46a3efd9ae.eot"); /* IE9*/
    src: url("/Blog/main/fonts/NeueHaasUnicaW06/OnlineWebFonts_COM_3dad734723cd1eada75c00f4d4322909/@font-face/46ff6b5a1511006aeadd4a46a3efd9ae.eot?#iefix") format("embedded-opentype"), /* IE6-IE8 */
    url("/Blog/main/fonts/NeueHaasUnicaW06/OnlineWebFonts_COM_3dad734723cd1eada75c00f4d4322909/@font-face/46ff6b5a1511006aeadd4a46a3efd9ae.woff") format("woff2"), /* chrome、firefox */
    url("/Blog/main/fonts/NeueHaasUnicaW06/OnlineWebFonts_COM_3dad734723cd1eada75c00f4d4322909/@font-face/46ff6b5a1511006aeadd4a46a3efd9ae.woff2") format("woff"), /* chrome、firefox */
    url("/Blog/main/fonts/NeueHaasUnicaW06/OnlineWebFonts_COM_3dad734723cd1eada75c00f4d4322909/@font-face/46ff6b5a1511006aeadd4a46a3efd9ae.ttf") format("truetype"), /* chrome、firefox、opera、Safari, Android, iOS 4.2+*/
    url("/Blog/main/fonts/NeueHaasUnicaW06/OnlineWebFonts_COM_3dad734723cd1eada75c00f4d4322909/@font-face/46ff6b5a1511006aeadd4a46a3efd9ae.svg#Neue Haas Unica W06 X Black") format("svg"); /* iOS 4.1- */
    }
    @font-face {font-family: "NeueHaasUnicaW06-Regular";
    src: url("/Blog/main/fonts/NeueHaasUnicaW06/OnlineWebFonts_COM_7a298e4d1b42d5d0485b479c3bcf69bf/@font-face/7250d52844cced73ed70675d1b78c60c.eot"); /* IE9*/
    src: url("/Blog/main/fonts/NeueHaasUnicaW06/OnlineWebFonts_COM_7a298e4d1b42d5d0485b479c3bcf69bf/@font-face/7250d52844cced73ed70675d1b78c60c.eot?#iefix") format("embedded-opentype"), /* IE6-IE8 */
    url("/Blog/main/fonts/NeueHaasUnicaW06/OnlineWebFonts_COM_7a298e4d1b42d5d0485b479c3bcf69bf/@font-face/7250d52844cced73ed70675d1b78c60c.woff") format("woff2"), /* chrome、firefox */
    url("/Blog/main/fonts/NeueHaasUnicaW06/OnlineWebFonts_COM_7a298e4d1b42d5d0485b479c3bcf69bf/@font-face/7250d52844cced73ed70675d1b78c60c.woff2") format("woff"), /* chrome、firefox */
    url("/Blog/main/fonts/NeueHaasUnicaW06/OnlineWebFonts_COM_7a298e4d1b42d5d0485b479c3bcf69bf/@font-face/7250d52844cced73ed70675d1b78c60c.ttf") format("truetype"), /* chrome、firefox、opera、Safari, Android, iOS 4.2+*/
    url("/Blog/main/fonts/NeueHaasUnicaW06/OnlineWebFonts_COM_7a298e4d1b42d5d0485b479c3bcf69bf/@font-face/7250d52844cced73ed70675d1b78c60c.svg#Neue Haas Unica W06 X Black") format("svg"); /* iOS 4.1- */
    }
    @font-face {font-family: "NeueHaasUnicaW06-XBlackIt";
    src: url("/Blog/main/fonts/NeueHaasUnicaW06/OnlineWebFonts_COM_7ded04d499cfd92c5afc12ffac484c5a/@font-face/5ef047f0e72e70adeba30f0c829c33e0.eot"); /* IE9*/
    src: url("/Blog/main/fonts/NeueHaasUnicaW06/OnlineWebFonts_COM_7ded04d499cfd92c5afc12ffac484c5a/@font-face/5ef047f0e72e70adeba30f0c829c33e0.eot?#iefix") format("embedded-opentype"), /* IE6-IE8 */
    url("/Blog/main/fonts/NeueHaasUnicaW06/OnlineWebFonts_COM_7ded04d499cfd92c5afc12ffac484c5a/@font-face/5ef047f0e72e70adeba30f0c829c33e0.woff") format("woff2"), /* chrome、firefox */
    url("/Blog/main/fonts/NeueHaasUnicaW06/OnlineWebFonts_COM_7ded04d499cfd92c5afc12ffac484c5a/@font-face/5ef047f0e72e70adeba30f0c829c33e0.woff2") format("woff"), /* chrome、firefox */
    url("/Blog/main/fonts/NeueHaasUnicaW06/OnlineWebFonts_COM_7ded04d499cfd92c5afc12ffac484c5a/@font-face/5ef047f0e72e70adeba30f0c829c33e0.ttf") format("truetype"), /* chrome、firefox、opera、Safari, Android, iOS 4.2+*/
    url("/Blog/main/fonts/NeueHaasUnicaW06/OnlineWebFonts_COM_7ded04d499cfd92c5afc12ffac484c5a/@font-face/5ef047f0e72e70adeba30f0c829c33e0.svg#Neue Haas Unica W06 X Black") format("svg"); /* iOS 4.1- */
    }
    @font-face {font-family: "NeueHaasUnicaW06-LightIt";
    src: url("/Blog/main/fonts/NeueHaasUnicaW06/OnlineWebFonts_COM_19d2b951c44c457e1bc515a2e9e486fb/@font-face/7f69054324b2adbc60f29dfd260c3d30.eot"); /* IE9*/
    src: url("/Blog/main/fonts/NeueHaasUnicaW06/OnlineWebFonts_COM_19d2b951c44c457e1bc515a2e9e486fb/@font-face/7f69054324b2adbc60f29dfd260c3d30.eot?#iefix") format("embedded-opentype"), /* IE6-IE8 */
    url("/Blog/main/fonts/NeueHaasUnicaW06/OnlineWebFonts_COM_19d2b951c44c457e1bc515a2e9e486fb/@font-face/7f69054324b2adbc60f29dfd260c3d30.woff") format("woff2"), /* chrome、firefox */
    url("/Blog/main/fonts/NeueHaasUnicaW06/OnlineWebFonts_COM_19d2b951c44c457e1bc515a2e9e486fb/@font-face/7f69054324b2adbc60f29dfd260c3d30.woff2") format("woff"), /* chrome、firefox */
    url("/Blog/main/fonts/NeueHaasUnicaW06/OnlineWebFonts_COM_19d2b951c44c457e1bc515a2e9e486fb/@font-face/7f69054324b2adbc60f29dfd260c3d30.ttf") format("truetype"), /* chrome、firefox、opera、Safari, Android, iOS 4.2+*/
    url("/Blog/main/fonts/NeueHaasUnicaW06/OnlineWebFonts_COM_19d2b951c44c457e1bc515a2e9e486fb/@font-face/7f69054324b2adbc60f29dfd260c3d30.svg#Neue Haas Unica W06 X Black") format("svg"); /* iOS 4.1- */
    }
    @font-face {font-family: "NeueHaasUnicaW06-Italic";
    src: url("/Blog/main/fonts/NeueHaasUnicaW06/OnlineWebFonts_COM_059c6c90764b5b58f635dc550a3dd784/@font-face/0aa6b2719638cacfa0e8abce9099a39b.eot"); /* IE9*/
    src: url("/Blog/main/fonts/NeueHaasUnicaW06/OnlineWebFonts_COM_059c6c90764b5b58f635dc550a3dd784/@font-face/0aa6b2719638cacfa0e8abce9099a39b.eot?#iefix") format("embedded-opentype"), /* IE6-IE8 */
    url("/Blog/main/fonts/NeueHaasUnicaW06/OnlineWebFonts_COM_059c6c90764b5b58f635dc550a3dd784/@font-face/0aa6b2719638cacfa0e8abce9099a39b.woff") format("woff2"), /* chrome、firefox */
    url("/Blog/main/fonts/NeueHaasUnicaW06/OnlineWebFonts_COM_059c6c90764b5b58f635dc550a3dd784/@font-face/0aa6b2719638cacfa0e8abce9099a39b.woff2") format("woff"), /* chrome、firefox */
    url("/Blog/main/fonts/NeueHaasUnicaW06/OnlineWebFonts_COM_059c6c90764b5b58f635dc550a3dd784/@font-face/0aa6b2719638cacfa0e8abce9099a39b.ttf") format("truetype"), /* chrome、firefox、opera、Safari, Android, iOS 4.2+*/
    url("/Blog/main/fonts/NeueHaasUnicaW06/OnlineWebFonts_COM_059c6c90764b5b58f635dc550a3dd784/@font-face/0aa6b2719638cacfa0e8abce9099a39b.svg#Neue Haas Unica W06 X Black") format("svg"); /* iOS 4.1- */
    }
    @font-face {font-family: "NeueHaasUnicaW06-Bold";
    src: url("/Blog/main/fonts/NeueHaasUnicaW06/OnlineWebFonts_COM_073d72f89a764f9fcbc574a8bd4cb553/@font-face/bb87c8dd3cc47b366f6bb7738fee180c.eot"); /* IE9*/
    src: url("/Blog/main/fonts/NeueHaasUnicaW06/OnlineWebFonts_COM_073d72f89a764f9fcbc574a8bd4cb553/@font-face/bb87c8dd3cc47b366f6bb7738fee180c.eot?#iefix") format("embedded-opentype"), /* IE6-IE8 */
    url("/Blog/main/fonts/NeueHaasUnicaW06/OnlineWebFonts_COM_073d72f89a764f9fcbc574a8bd4cb553/@font-face/bb87c8dd3cc47b366f6bb7738fee180c.woff") format("woff2"), /* chrome、firefox */
    url("/Blog/main/fonts/NeueHaasUnicaW06/OnlineWebFonts_COM_073d72f89a764f9fcbc574a8bd4cb553/@font-face/bb87c8dd3cc47b366f6bb7738fee180c.woff2") format("woff"), /* chrome、firefox */
    url("/Blog/main/fonts/NeueHaasUnicaW06/OnlineWebFonts_COM_073d72f89a764f9fcbc574a8bd4cb553/@font-face/bb87c8dd3cc47b366f6bb7738fee180c.ttf") format("truetype"), /* chrome、firefox、opera、Safari, Android, iOS 4.2+*/
    url("/Blog/main/fonts/NeueHaasUnicaW06/OnlineWebFonts_COM_073d72f89a764f9fcbc574a8bd4cb553/@font-face/bb87c8dd3cc47b366f6bb7738fee180c.svg#Neue Haas Unica W06 X Black") format("svg"); /* iOS 4.1- */
    }
    @font-face {font-family: "NeueHaasUnicaW06-Heavy";
    src: url("/Blog/main/fonts/NeueHaasUnicaW06/OnlineWebFonts_COM_559d73454fad999c45ebbdaaa3ebacdd/@font-face/d04fc9492a6f504ee79cb87d63393fe0.eot"); /* IE9*/
    src: url("/Blog/main/fonts/NeueHaasUnicaW06/OnlineWebFonts_COM_559d73454fad999c45ebbdaaa3ebacdd/@font-face/d04fc9492a6f504ee79cb87d63393fe0.eot?#iefix") format("embedded-opentype"), /* IE6-IE8 */
    url("/Blog/main/fonts/NeueHaasUnicaW06/OnlineWebFonts_COM_559d73454fad999c45ebbdaaa3ebacdd/@font-face/d04fc9492a6f504ee79cb87d63393fe0.woff") format("woff2"), /* chrome、firefox */
    url("/Blog/main/fonts/NeueHaasUnicaW06/OnlineWebFonts_COM_559d73454fad999c45ebbdaaa3ebacdd/@font-face/d04fc9492a6f504ee79cb87d63393fe0.woff2") format("woff"), /* chrome、firefox */
    url("/Blog/main/fonts/NeueHaasUnicaW06/OnlineWebFonts_COM_559d73454fad999c45ebbdaaa3ebacdd/@font-face/d04fc9492a6f504ee79cb87d63393fe0.ttf") format("truetype"), /* chrome、firefox、opera、Safari, Android, iOS 4.2+*/
    url("/Blog/main/fonts/NeueHaasUnicaW06/OnlineWebFonts_COM_559d73454fad999c45ebbdaaa3ebacdd/@font-face/d04fc9492a6f504ee79cb87d63393fe0.svg#Neue Haas Unica W06 X Black") format("svg"); /* iOS 4.1- */
    }
    @font-face {font-family: "NeueHaasUnicaW06-HeavyIt";
    src: url("/Blog/main/fonts/NeueHaasUnicaW06/OnlineWebFonts_COM_507355e12251f27746763ec4f975a633/@font-face/a9820d1a66a09f97371b7ec92a271a92.eot"); /* IE9*/
    src: url("/Blog/main/fonts/NeueHaasUnicaW06/OnlineWebFonts_COM_507355e12251f27746763ec4f975a633/@font-face/a9820d1a66a09f97371b7ec92a271a92.eot?#iefix") format("embedded-opentype"), /* IE6-IE8 */
    url("/Blog/main/fonts/NeueHaasUnicaW06/OnlineWebFonts_COM_507355e12251f27746763ec4f975a633/@font-face/a9820d1a66a09f97371b7ec92a271a92.woff") format("woff2"), /* chrome、firefox */
    url("/Blog/main/fonts/NeueHaasUnicaW06/OnlineWebFonts_COM_507355e12251f27746763ec4f975a633/@font-face/a9820d1a66a09f97371b7ec92a271a92.woff2") format("woff"), /* chrome、firefox */
    url("/Blog/main/fonts/NeueHaasUnicaW06/OnlineWebFonts_COM_507355e12251f27746763ec4f975a633/@font-face/a9820d1a66a09f97371b7ec92a271a92.ttf") format("truetype"), /* chrome、firefox、opera、Safari, Android, iOS 4.2+*/
    url("/Blog/main/fonts/NeueHaasUnicaW06/OnlineWebFonts_COM_507355e12251f27746763ec4f975a633/@font-face/a9820d1a66a09f97371b7ec92a271a92.svg#Neue Haas Unica W06 X Black") format("svg"); /* iOS 4.1- */
    }
    @font-face {font-family: "NeueHaasUnicaW06-Light";
    src: url("/Blog/main/fonts/NeueHaasUnicaW06/OnlineWebFonts_COM_c59b16964f2eec693c72eb9c925ef088/@font-face/145bf6f8eebf1ad036f74d821af7d94b.eot"); /* IE9*/
    src: url("/Blog/main/fonts/NeueHaasUnicaW06/OnlineWebFonts_COM_c59b16964f2eec693c72eb9c925ef088/@font-face/145bf6f8eebf1ad036f74d821af7d94b.eot?#iefix") format("embedded-opentype"), /* IE6-IE8 */
    url("/Blog/main/fonts/NeueHaasUnicaW06/OnlineWebFonts_COM_c59b16964f2eec693c72eb9c925ef088/@font-face/145bf6f8eebf1ad036f74d821af7d94b.woff") format("woff2"), /* chrome、firefox */
    url("/Blog/main/fonts/NeueHaasUnicaW06/OnlineWebFonts_COM_c59b16964f2eec693c72eb9c925ef088/@font-face/145bf6f8eebf1ad036f74d821af7d94b.woff2") format("woff"), /* chrome、firefox */
    url("/Blog/main/fonts/NeueHaasUnicaW06/OnlineWebFonts_COM_c59b16964f2eec693c72eb9c925ef088/@font-face/145bf6f8eebf1ad036f74d821af7d94b.ttf") format("truetype"), /* chrome、firefox、opera、Safari, Android, iOS 4.2+*/
    url("/Blog/main/fonts/NeueHaasUnicaW06/OnlineWebFonts_COM_c59b16964f2eec693c72eb9c925ef088/@font-face/145bf6f8eebf1ad036f74d821af7d94b.svg#Neue Haas Unica W06 X Black") format("svg"); /* iOS 4.1- */
    }
    @font-face {font-family: "NeueHaasUnicaW06-MediumIt";
    src: url("/Blog/main/fonts/NeueHaasUnicaW06/OnlineWebFonts_COM_d179b86ccc44b19f872ad2ce5d9141f0/@font-face/2a415f48f53c15b960c82ad93f0a2ee0.eot"); /* IE9*/
    src: url("/Blog/main/fonts/NeueHaasUnicaW06/OnlineWebFonts_COM_d179b86ccc44b19f872ad2ce5d9141f0/@font-face/2a415f48f53c15b960c82ad93f0a2ee0.eot?#iefix") format("embedded-opentype"), /* IE6-IE8 */
    url("/Blog/main/fonts/NeueHaasUnicaW06/OnlineWebFonts_COM_d179b86ccc44b19f872ad2ce5d9141f0/@font-face/2a415f48f53c15b960c82ad93f0a2ee0.woff") format("woff2"), /* chrome、firefox */
    url("/Blog/main/fonts/NeueHaasUnicaW06/OnlineWebFonts_COM_d179b86ccc44b19f872ad2ce5d9141f0/@font-face/2a415f48f53c15b960c82ad93f0a2ee0.woff2") format("woff"), /* chrome、firefox */
    url("/Blog/main/fonts/NeueHaasUnicaW06/OnlineWebFonts_COM_d179b86ccc44b19f872ad2ce5d9141f0/@font-face/2a415f48f53c15b960c82ad93f0a2ee0.ttf") format("truetype"), /* chrome、firefox、opera、Safari, Android, iOS 4.2+*/
    url("/Blog/main/fonts/NeueHaasUnicaW06/OnlineWebFonts_COM_d179b86ccc44b19f872ad2ce5d9141f0/@font-face/2a415f48f53c15b960c82ad93f0a2ee0.svg#Neue Haas Unica W06 X Black") format("svg"); /* iOS 4.1- */
    }
    @font-face {font-family: "NeueHaasUnicaW06-Thin";
    src: url("/Blog/main/fonts/NeueHaasUnicaW06/OnlineWebFonts_COM_e0d1d8bcd90f325e7a7f4a8b9636d78a/@font-face/740a2bcf13582a2a0ed99e15dffe7b9f.eot"); /* IE9*/
    src: url("/Blog/main/fonts/NeueHaasUnicaW06/OnlineWebFonts_COM_e0d1d8bcd90f325e7a7f4a8b9636d78a/@font-face/740a2bcf13582a2a0ed99e15dffe7b9f.eot?#iefix") format("embedded-opentype"), /* IE6-IE8 */
    url("/Blog/main/fonts/NeueHaasUnicaW06/OnlineWebFonts_COM_e0d1d8bcd90f325e7a7f4a8b9636d78a/@font-face/740a2bcf13582a2a0ed99e15dffe7b9f.woff") format("woff2"), /* chrome、firefox */
    url("/Blog/main/fonts/NeueHaasUnicaW06/OnlineWebFonts_COM_e0d1d8bcd90f325e7a7f4a8b9636d78a/@font-face/740a2bcf13582a2a0ed99e15dffe7b9f.woff2") format("woff"), /* chrome、firefox */
    url("/Blog/main/fonts/NeueHaasUnicaW06/OnlineWebFonts_COM_e0d1d8bcd90f325e7a7f4a8b9636d78a/@font-face/740a2bcf13582a2a0ed99e15dffe7b9f.ttf") format("truetype"), /* chrome、firefox、opera、Safari, Android, iOS 4.2+*/
    url("/Blog/main/fonts/NeueHaasUnicaW06/OnlineWebFonts_COM_e0d1d8bcd90f325e7a7f4a8b9636d78a/@font-face/740a2bcf13582a2a0ed99e15dffe7b9f.svg#Neue Haas Unica W06 X Black") format("svg"); /* iOS 4.1- */
    }
    @font-face {font-family: "NeueHaasUnicaW06-BoldItalic";
    src: url("/Blog/main/fonts/NeueHaasUnicaW06/OnlineWebFonts_COM_e4e54e1eb6c480425902156a32fef7d6/@font-face/61742cae2dd974e3c9604f614a4c57f1.eot"); /* IE9*/
    src: url("/Blog/main/fonts/NeueHaasUnicaW06/OnlineWebFonts_COM_e4e54e1eb6c480425902156a32fef7d6/@font-face/61742cae2dd974e3c9604f614a4c57f1.eot?#iefix") format("embedded-opentype"), /* IE6-IE8 */
    url("/Blog/main/fonts/NeueHaasUnicaW06/OnlineWebFonts_COM_e4e54e1eb6c480425902156a32fef7d6/@font-face/61742cae2dd974e3c9604f614a4c57f1.woff") format("woff2"), /* chrome、firefox */
    url("/Blog/main/fonts/NeueHaasUnicaW06/OnlineWebFonts_COM_e4e54e1eb6c480425902156a32fef7d6/@font-face/61742cae2dd974e3c9604f614a4c57f1.woff2") format("woff"), /* chrome、firefox */
    url("/Blog/main/fonts/NeueHaasUnicaW06/OnlineWebFonts_COM_e4e54e1eb6c480425902156a32fef7d6/@font-face/61742cae2dd974e3c9604f614a4c57f1.ttf") format("truetype"), /* chrome、firefox、opera、Safari, Android, iOS 4.2+*/
    url("/Blog/main/fonts/NeueHaasUnicaW06/OnlineWebFonts_COM_e4e54e1eb6c480425902156a32fef7d6/@font-face/61742cae2dd974e3c9604f614a4c57f1.svg#Neue Haas Unica W06 X Black") format("svg"); /* iOS 4.1- */
    }
    @font-face {font-family: "NeueHaasUnicaW06-Medium";
    src: url("/Blog/main/fonts/NeueHaasUnicaW06/OnlineWebFonts_COM_e009de3bc4003d481f48e90c6efd332f/@font-face/9c0afb6841117a1e2256b49b040cb768.eot"); /* IE9*/
    src: url("/Blog/main/fonts/NeueHaasUnicaW06/OnlineWebFonts_COM_e009de3bc4003d481f48e90c6efd332f/@font-face/9c0afb6841117a1e2256b49b040cb768.eot?#iefix") format("embedded-opentype"), /* IE6-IE8 */
    url("/Blog/main/fonts/NeueHaasUnicaW06/OnlineWebFonts_COM_e009de3bc4003d481f48e90c6efd332f/@font-face/9c0afb6841117a1e2256b49b040cb768.woff") format("woff2"), /* chrome、firefox */
    url("/Blog/main/fonts/NeueHaasUnicaW06/OnlineWebFonts_COM_e009de3bc4003d481f48e90c6efd332f/@font-face/9c0afb6841117a1e2256b49b040cb768.woff2") format("woff"), /* chrome、firefox */
    url("/Blog/main/fonts/NeueHaasUnicaW06/OnlineWebFonts_COM_e009de3bc4003d481f48e90c6efd332f/@font-face/9c0afb6841117a1e2256b49b040cb768.ttf") format("truetype"), /* chrome、firefox、opera、Safari, Android, iOS 4.2+*/
    url("/Blog/main/fonts/NeueHaasUnicaW06/OnlineWebFonts_COM_e009de3bc4003d481f48e90c6efd332f/@font-face/9c0afb6841117a1e2256b49b040cb768.svg#Neue Haas Unica W06 X Black") format("svg"); /* iOS 4.1- */
    }
    @font-face {font-family: "NeueHaasUnicaW06-BlackIt";
    src: url("/Blog/main/fonts/NeueHaasUnicaW06/OnlineWebFonts_COM_f0d250fc9c4208c6c78408a38db68150/@font-face/15e7a19454566924256299df2a72ab91.eot"); /* IE9*/
    src: url("/Blog/main/fonts/NeueHaasUnicaW06/OnlineWebFonts_COM_f0d250fc9c4208c6c78408a38db68150/@font-face/15e7a19454566924256299df2a72ab91.eot?#iefix") format("embedded-opentype"), /* IE6-IE8 */
    url("/Blog/main/fonts/NeueHaasUnicaW06/OnlineWebFonts_COM_f0d250fc9c4208c6c78408a38db68150/@font-face/15e7a19454566924256299df2a72ab91.woff") format("woff2"), /* chrome、firefox */
    url("/Blog/main/fonts/NeueHaasUnicaW06/OnlineWebFonts_COM_f0d250fc9c4208c6c78408a38db68150/@font-face/15e7a19454566924256299df2a72ab91.woff2") format("woff"), /* chrome、firefox */
    url("/Blog/main/fonts/NeueHaasUnicaW06/OnlineWebFonts_COM_f0d250fc9c4208c6c78408a38db68150/@font-face/15e7a19454566924256299df2a72ab91.ttf") format("truetype"), /* chrome、firefox、opera、Safari, Android, iOS 4.2+*/
    url("/Blog/main/fonts/NeueHaasUnicaW06/OnlineWebFonts_COM_f0d250fc9c4208c6c78408a38db68150/@font-face/15e7a19454566924256299df2a72ab91.svg#Neue Haas Unica W06 X Black") format("svg"); /* iOS 4.1- */
    }.cls-1{font-size:18px;fill:#1e71b8;}.cls-1,.cls-11,.cls-14,.cls-15{font-family:NeueHaasUnicaW06-Bold;font-weight:700;}.cls-2{letter-spacing:-0.01em;}.cls-3{letter-spacing:-0.01em;}.cls-4{letter-spacing:0.01em;}.cls-5{letter-spacing:-0.02em;}.cls-6{fill:#3a6294;}.cls-44,.cls-7{fill:#3a6394;}.cls-27,.cls-8{fill:#396294;}.cls-9{fill:#bbcee5;}.cls-10{fill:#bbcde5;}.cls-11,.cls-14,.cls-15{font-size:41.94px;fill:#fff;}.cls-11{letter-spacing:-0.04em;}.cls-12{letter-spacing:-0.02em;}.cls-13{letter-spacing:0em;}.cls-15,.cls-16{letter-spacing:-0.02em;}.cls-17{letter-spacing:-0.09em;}.cls-18{letter-spacing:-0.04em;}.cls-19{letter-spacing:0.02em;}.cls-20{letter-spacing:-0.02em;}.cls-21{letter-spacing:0em;}.cls-22{letter-spacing:-0.02em;}.cls-23{fill:none;stroke-width:2.83px;}.cls-23,.cls-35{stroke:#1d1d1b;stroke-miterlimit:10;}.cls-24{font-size:19.84px;fill:#1f71b8;}.cls-24,.cls-27,.cls-44{font-family:MyriadPro-Regular, Myriad Pro;}.cls-25{letter-spacing:-0.01em;}.cls-26{letter-spacing:0em;}.cls-27{font-size:53.86px;}.cls-28{letter-spacing:0.01em;}.cls-29{letter-spacing:-0.01em;}.cls-30{letter-spacing:-0.01em;}.cls-31{letter-spacing:0em;}.cls-32{letter-spacing:0em;}.cls-33{letter-spacing:0em;}.cls-34{letter-spacing:0.02em;}.cls-35{fill:#1d1d1b;stroke-width:4.1px;}.cls-36{letter-spacing:-0.03em;}.cls-37{letter-spacing:-0.04em;}.cls-38{letter-spacing:-0.01em;}.cls-39{letter-spacing:0em;}.cls-40{letter-spacing:0.01em;}.cls-41{letter-spacing:0.03em;}.cls-42{letter-spacing:-0.01em;}.cls-43{fill:#1d71b8;fill-rule:evenodd;opacity:0.5;}.cls-44{font-size:34.02px;}.cls-45{letter-spacing:-0.04em;}.cls-46{letter-spacing:0em;}.cls-47{letter-spacing:0.01em;}.cls-48{letter-spacing:-0.01em;}.cls-49{letter-spacing:0.01em;}</style></defs><title>F Current Production cycle</title><text class="cls-1" transform="translate(15.51 15.41)">Cur<tspan class="cls-2" x="30.47" y="0">r</tspan><tspan x="37.31" y="0">e</tspan><tspan class="cls-3" x="47.63" y="0">n</tspan><tspan x="58.32" y="0">t p</tspan><tspan class="cls-2" x="79.65" y="0">r</tspan><tspan class="cls-4" x="86.49" y="0">o</tspan><tspan x="97.29" y="0">duction </tspan><tspan class="cls-5" x="165.92" y="0">c</tspan><tspan x="175.77" y="0">yle</tspan></text><path class="cls-6" d="M202.64,687.26c16-28.71,31.4-56.21,45-80.52l106.23,26.08V725.3C302.22,724.66,252,712.52,202.64,687.26Z" transform="translate(-8.72 -17.89)"/><path class="cls-7" d="M642.92,225.15c27.59,47.25,42.25,96.89,45.14,152H595.22c-9.94-33.62-19.93-67.35-30.61-103.46Z" transform="translate(-8.72 -17.89)"/><path class="cls-8" d="M365.44,61.47c54.66.62,104,15.4,152,41-16.5,28-32.49,55.15-46.92,79.65L365.44,153.4Z" transform="translate(-8.72 -17.89)"/><path class="cls-9" d="M64.26,235.6C90,250.33,113.21,264.1,136.91,277c8.63,4.7,9.49,9.6,5.64,18-11.89,26-20,53.07-20.5,82.11-.07,3.67-5.8,10.28-9,10.37-28.85.82-57.73.48-88.77.48C25.9,333.64,38.09,283.63,64.26,235.6Z" transform="translate(-8.72 -17.89)"/><path class="cls-6" d="M535.44,672.64c-16.88-28-33-54.7-47.7-79.13,25.47-26.72,50-52.45,75.61-79.29L644.29,558C617.34,605.74,581,642.89,535.44,672.64Z" transform="translate(-8.72 -17.89)"/><path class="cls-10" d="M187.58,678.73c-47-27.76-83.7-63.82-113.19-110.36L155,521.08c17.77,18.46,34.45,35.8,51.16,53.12a68,68,0,0,0,6.13,5.76c20.54,16.43,20.76,16.52,8.59,39.12C210.45,638.38,199.52,657.38,187.58,678.73Z" transform="translate(-8.72 -17.89)"/><path class="cls-10" d="M347,61.81v91.31l-105.2,29L194.9,103.06C242.18,77.08,291.51,62.12,347,61.81Z" transform="translate(-8.72 -17.89)"/><path class="cls-6" d="M66.42,552.64C44,519.73,23.52,447.5,25.07,406.63h92.57l27.8,99.86Z" transform="translate(-8.72 -17.89)"/><path class="cls-7" d="M179.76,111.4l47.18,80.12-74.08,74.94-80-45.82C99.58,175.4,135.21,140.21,179.76,111.4Z" transform="translate(-8.72 -17.89)"/><path class="cls-10" d="M473.67,603.66l46.78,78c-13.9,6.78-26.09,15-39.53,18.8-32.56,9.19-65.64,16.52-98.69,23.81-2.35.52-8.73-5.4-8.82-8.45-.81-26.64-.82-53.31-.42-80,0-2.89,3.62-7.56,6.39-8.29C409.74,619.47,440.27,612,473.67,603.66Z" transform="translate(-8.72 -17.89)"/><path class="cls-9" d="M653,543c-27-14.71-52.13-28.12-76.87-42.22-2.87-1.64-5.75-7.65-4.95-10.66,8.09-30.36,16.95-60.53,26.5-93.91h89.67C689.57,447,675.2,494.85,653,543Z" transform="translate(-8.72 -17.89)"/><path class="cls-9" d="M532.49,111.61c41.12,26.45,74.69,57.71,101,99-26,16.11-50.34,31.5-75.15,46.12-2.48,1.47-8.86-.53-11.5-3Q518.35,227.15,491,199.45c-2.62-2.66-4.46-9.54-2.88-12.34C502,162.31,516.8,138,532.49,111.61Z" transform="translate(-8.72 -17.89)"/><text class="cls-11" transform="translate(381.89 111.5) rotate(15.81)">J<tspan class="cls-12" x="14.68" y="0">A</tspan><tspan class="cls-13" x="43.12" y="0">N</tspan></text><text class="cls-14" transform="matrix(0.72, 0.7, -0.7, 0.72, 508.7, 162.24)">FEB</text><text class="cls-15" transform="translate(589.03 252.05) rotate(73.45)">MA<tspan class="cls-13" x="68.87" y="0">R</tspan></text><text class="cls-14" transform="matrix(-0.27, 0.96, -0.96, -0.27, 615.7, 395.5)"><tspan class="cls-12">A</tspan><tspan x="28.44" y="0">PR</tspan></text><text class="cls-14" transform="matrix(-0.69, 0.73, -0.73, -0.69, 570.27, 523.39)"><tspan class="cls-16">M</tspan><tspan class="cls-17" x="40.43" y="0">A</tspan><tspan x="65.72" y="0">Y</tspan></text><text class="cls-14" transform="translate(461.08 618.64) rotate(165.75)">JUN</text><text class="cls-14" transform="translate(314.96 639.44) rotate(-166.42)">JUL</text><text class="cls-14" transform="matrix(-0.72, -0.69, 0.69, -0.72, 190.8, 594.31)"><tspan class="cls-18">A</tspan><tspan x="27.68" y="0">UG</tspan></text><text class="cls-14" transform="translate(104.61 485.88) rotate(-106.35)">SEP</text><text class="cls-14" transform="translate(75.69 346.73) rotate(-76.99)"><tspan class="cls-19">O</tspan><tspan class="cls-20" x="32.21" y="0">C</tspan><tspan x="60.85" y="0">T</tspan></text><text class="cls-14" transform="matrix(0.72, -0.69, 0.69, 0.72, 124.17, 217.73)">N<tspan class="cls-20" x="32.54" y="0">O</tspan><tspan class="cls-21" x="63.16" y="0">V</tspan></text><text class="cls-14" transform="translate(236.59 125.24) rotate(-14.4)">D<tspan class="cls-22" x="30.78" y="0">E</tspan><tspan x="56.66" y="0">C</tspan></text><path class="cls-23" d="M663.38,555.5A345.8,345.8,0,0,1,184,696.63" transform="translate(-8.72 -17.89)"/><line class="cls-23" x1="175.31" y1="678.75" x2="180.11" y2="696.7"/><line class="cls-23" x1="175.31" y1="678.75" x2="191.15" y2="674.01"/><text class="cls-24" transform="translate(813.23 143.99)">Smolt <tspan class="cls-25" x="52.68" y="0">c</tspan><tspan x="61.45" y="0">omes i</tspan><tspan class="cls-26" x="115.54" y="0">n</tspan><tspan class="cls-25" x="126.47" y="0">t</tspan><tspan x="132.92" y="0">o the cages </tspan></text><text class="cls-27" transform="translate(523.29 731.57)">1</text><text class="cls-27" transform="translate(404.43 768.9)">2</text><text class="cls-27" transform="translate(761.56 152.82)">1</text><text class="cls-27" transform="translate(761.56 206.95)">2</text><text class="cls-24" transform="translate(813.23 185.91)"><tspan class="cls-28">H</tspan><tspan x="13.14" y="0">ighest </tspan><tspan class="cls-25" x="68.46" y="0">g</tspan><tspan class="cls-29" x="79.43" y="0">r</tspan><tspan class="cls-30" x="85.72" y="0">o</tspan><tspan x="96.47" y="0">wing </tspan><tspan class="cls-31" x="142.03" y="0">r</tspan><tspan class="cls-26" x="148.42" y="0">a</tspan><tspan class="cls-25" x="157.9" y="0">t</tspan><tspan x="164.35" y="0">es because of sunlig</tspan><tspan class="cls-26" x="330.1" y="0">h</tspan><tspan x="341.03" y="0">t and </tspan><tspan class="cls-32" x="387.78" y="0">w</tspan><tspan x="402.3" y="0">a</tspan><tspan class="cls-33" x="411.87" y="0">r</tspan><tspan class="cls-32" x="418.43" y="0">m</tspan><tspan x="434.9" y="0">th; fish sta</tspan><tspan class="cls-34" x="518.24" y="0">r</tspan><tspan x="525.2" y="0">t with a </tspan><tspan class="cls-29" x="0" y="23.81">w</tspan><tspan x="14.41" y="23.81">eig</tspan><tspan class="cls-26" x="40.08" y="23.81">h</tspan><tspan x="51.01" y="23.81">t of 100 g and a</tspan><tspan class="cls-29" x="178.26" y="23.81">r</tspan><tspan x="184.55" y="23.81">e taken out with a </tspan><tspan class="cls-29" x="336.7" y="23.81">w</tspan><tspan x="351.1" y="23.81">eig</tspan><tspan class="cls-32" x="376.78" y="23.81">h</tspan><tspan x="387.71" y="23.81">t of about 6 kg</tspan></text><path class="cls-23" d="M357.68,161.64c9.06.19,127.21,4.74,191.49,107.23,5.35,8.53,57,94,22.21,194.56-30,86.68-112.09,149.9-206,154.72-77.87,4-159.24-32.35-203.74-103.41-57.25-91.39-37.28-214.31,36.76-283.4,68.63-64,157.33-57.24,171.58-55.91,13.89,1.28,107.33,11.54,163.91,94.21,11.95,17.46,43,68.41,36.77,137.87-7,77.94-55.93,125-68.94,137.11-54.87,51.08-118.29,57.71-137.11,59" transform="translate(-8.72 -17.89)"/><circle class="cls-35" cx="347.18" cy="143.75" r="8.44"/><circle class="cls-35" cx="657.39" cy="531.84" r="8.44"/><line class="cls-23" x1="355.12" y1="585.87" x2="365.72" y2="595.68"/><line class="cls-23" x1="355.12" y1="585.87" x2="364.01" y2="575.67"/><text class="cls-27" transform="translate(391.48 563.33)">3</text><text class="cls-27" transform="translate(761.56 261.07)">3</text><text class="cls-24" transform="translate(813.23 247.29)">1,5 <tspan class="cls-29" x="28.67" y="0">y</tspan><tspan x="37.82" y="0">ears: </tspan><tspan class="cls-36" x="79.98" y="0">F</tspan><tspan x="89.13" y="0">ish get </tspan><tspan class="cls-31" x="148.66" y="0">r</tspan><tspan x="155.05" y="0">aise</tspan><tspan class="cls-29" x="187.05" y="0">d</tspan><tspan x="198.04" y="0">, </tspan><tspan class="cls-25" x="206.36" y="0">g</tspan><tspan class="cls-29" x="217.33" y="0">r</tspan><tspan class="cls-30" x="223.62" y="0">o</tspan><tspan class="cls-37" x="234.38" y="0">w</tspan><tspan x="248.21" y="0">, health is moni</tspan><tspan class="cls-38" x="373.31" y="0">t</tspan><tspan x="379.76" y="0">o</tspan><tspan class="cls-29" x="390.65" y="0">r</tspan><tspan x="396.94" y="0">e</tspan><tspan class="cls-29" x="406.88" y="0">d</tspan><tspan x="417.88" y="0">, st</tspan><tspan class="cls-39" x="440.62" y="0">r</tspan><tspan x="447.18" y="0">i</tspan><tspan class="cls-40" x="451.83" y="0">c</tspan><tspan x="460.97" y="0">t diet</tspan></text><text class="cls-27" transform="translate(291.42 565.15)">4</text><text class="cls-27" transform="translate(761.56 315.2)">4</text><text class="cls-24" transform="translate(813.23 294.54)">2 -3 <tspan class="cls-29" x="34.86" y="0">w</tspan><tspan x="49.27" y="0">eeks ha</tspan><tspan class="cls-41" x="111.1" y="0">r</tspan><tspan class="cls-29" x="118.08" y="0">v</tspan><tspan x="127.43" y="0">esting time: big tt</tspan><tspan class="cls-42" x="273.12" y="0">r</tspan><tspan x="279.51" y="0">anspo</tspan><tspan class="cls-34" x="330.13" y="0">r</tspan><tspan x="337.1" y="0">t ship </tspan><tspan class="cls-25" x="386.88" y="0">c</tspan><tspan x="395.65" y="0">omes se</tspan><tspan class="cls-29" x="462.89" y="0">v</tspan><tspan x="472.24" y="0">e</tspan><tspan class="cls-42" x="482.18" y="0">r</tspan><tspan x="488.57" y="0">al times and takes </tspan><tspan x="0" y="23.81">out the fish little </tspan><tspan class="cls-30" x="139.07" y="23.81">b</tspan><tspan x="150.22" y="23.81">y little </tspan></text><circle class="cls-35" cx="338.73" cy="585.77" r="8.44"/><path id="path1316" class="cls-43" d="M1062.06,542l31.39-31.46-31.51-31.47h-17.46l24.12,24.33H897l0,14h171.91L1044.55,542Z" transform="translate(-8.72 -17.89)"/><path id="path1316-2" data-name="path1316" class="cls-43" d="M1267.31,542l31.38-31.46-31.51-31.47h-17.45l24.12,24.33h-171.6l0,14h171.91L1249.8,542Z" transform="translate(-8.72 -17.89)"/><path id="path1316-3" data-name="path1316" class="cls-43" d="M1160.28,486.3l31.39-31.46-31.51-31.46H1142.7l24.12,24.34H995.23v14h171.91l-24.38,24.58Z" transform="translate(-8.72 -17.89)"/><path id="path1316-4" data-name="path1316" class="cls-43" d="M1371.75,486.3l31.39-31.46-31.51-31.46h-17.46l24.12,24.34h-171.6l0,14h171.91l-24.38,24.58Z" transform="translate(-8.72 -17.89)"/><text class="cls-44" transform="translate(762.55 451.22)"><tspan class="cls-45">F</tspan><tspan x="15.04" y="0">a</tspan><tspan class="cls-46" x="31.43" y="0">r</tspan><tspan x="42.69" y="0">m 1</tspan></text><text class="cls-44" transform="translate(762.55 497.22)"><tspan class="cls-45">F</tspan><tspan x="15.04" y="0">a</tspan><tspan class="cls-46" x="31.43" y="0">r</tspan><tspan x="42.69" y="0">m 2</tspan></text><text class="cls-24" transform="translate(762.55 561.65)">shi<tspan class="cls-47" x="23.51" y="0">f</tspan><tspan class="cls-25" x="29.52" y="0">t</tspan><tspan x="35.97" y="0">ed pe</tspan><tspan class="cls-33" x="82.54" y="0">r</tspan><tspan x="89.11" y="0">iods </tspan><tspan class="cls-48" x="127.9" y="0">f</tspan><tspan x="133.44" y="0">or a </tspan><tspan class="cls-25" x="168.8" y="0">c</tspan><tspan x="177.57" y="0">o</tspan><tspan class="cls-26" x="188.46" y="0">n</tspan><tspan x="199.39" y="0">tinuous p</tspan><tspan class="cls-29" x="277.73" y="0">r</tspan><tspan x="284.02" y="0">odu</tspan><tspan class="cls-49" x="317.04" y="0">c</tspan><tspan x="326.19" y="0">tion</tspan></text><path class="cls-23" d="M347.45,603.66a293.83,293.83,0,0,1-72.75-18.19" transform="translate(-8.72 -17.89)"/><line class="cls-23" x1="264.33" y1="567.19" x2="269.86" y2="580.53"/><line class="cls-23" x1="264.33" y1="567.19" x2="276.69" y2="561.65"/><text class="cls-27" transform="translate(64.12 120.3)">5</text><text class="cls-27" transform="translate(761.56 370.7)">5</text><text class="cls-24" transform="translate(813.23 358.04)">2 -6 mo<tspan class="cls-26" x="62.3" y="0">n</tspan><tspan x="73.24" y="0">ths: </tspan><tspan class="cls-29" x="106.99" y="0">r</tspan><tspan x="113.28" y="0">esting pe</tspan><tspan class="cls-39" x="189.83" y="0">r</tspan><tspan x="196.4" y="0">iod </tspan><tspan class="cls-48" x="227.33" y="0">f</tspan><tspan x="232.87" y="0">or the fjo</tspan><tspan class="cls-29" x="307.43" y="0">r</tspan><tspan x="313.72" y="0">d </tspan><tspan class="cls-25" x="329.12" y="0">t</tspan><tspan x="335.57" y="0">o </tspan><tspan class="cls-29" x="350.67" y="0">r</tspan><tspan x="356.96" y="0">egene </tspan><tspan class="cls-31" x="413.09" y="0">r</tspan><tspan class="cls-26" x="419.48" y="0">a</tspan><tspan class="cls-25" x="428.97" y="0">t</tspan><tspan x="435.42" y="0">e f</tspan><tspan class="cls-29" x="455.36" y="0">r</tspan><tspan x="461.65" y="0">om pollution</tspan></text><path class="cls-23" d="M173.6,687.6C147,671.93,94.14,636,55.13,569.13,12.71,496.45,10.7,428.51,10.19,398.57c-1.66-97.15,35.4-166.22,42.9-179.74A346.24,346.24,0,0,1,177.68,90.15c14.65-8.77,83.44-48.44,181.79-49A374.59,374.59,0,0,1,533.09,83" transform="translate(-8.72 -17.89)"/><line class="cls-23" x1="524.37" y1="66.53" x2="523.31" y2="52.13"/><line class="cls-23" x1="524.37" y1="66.53" x2="510.9" y2="67.91"/></svg>