<?xml version="1.0" encoding="utf-8"?>
<!-- Generator: Adobe Illustrator 23.1.0, SVG Export Plug-In . SVG Version: 6.00 Build 0)  -->
<svg version="1.1" id="Ebene_1" xmlns="http://www.w3.org/2000/svg" xmlns:xlink="http://www.w3.org/1999/xlink" x="0px" y="0px"
	 viewBox="0 0 1505 804" style="enable-background:new 0 0 1505 804;" xml:space="preserve">
<style type="text/css">
    @font-face {font-family: "NeueHaasUnicaW06-ThinItalic";
    src: url("/Blog/main/fonts/NeueHaasUnicaW06/OnlineWebFonts_COM_0ed68d0a6f9c1234e2d43bdd27b951f2/@font-face/3842220656142ccef91508c98b0eb6ed.eot"); /* IE9*/
    src: url("/Blog/main/fonts/NeueHaasUnicaW06/OnlineWebFonts_COM_0ed68d0a6f9c1234e2d43bdd27b951f2/@font-face/3842220656142ccef91508c98b0eb6ed.eot?#iefix") format("embedded-opentype"), /* IE6-IE8 */
    url("/Blog/main/fonts/NeueHaasUnicaW06/OnlineWebFonts_COM_0ed68d0a6f9c1234e2d43bdd27b951f2/@font-face/3842220656142ccef91508c98b0eb6ed.woff2") format("woff2"), /* chrome、firefox */
    url("/Blog/main/fonts/NeueHaasUnicaW06/OnlineWebFonts_COM_0ed68d0a6f9c1234e2d43bdd27b951f2/@font-face/3842220656142ccef91508c98b0eb6ed.woff") format("woff"), /* chrome、firefox */
    url("/Blog/main/fonts/NeueHaasUnicaW06/OnlineWebFonts_COM_0ed68d0a6f9c1234e2d43bdd27b951f2/@font-face/3842220656142ccef91508c98b0eb6ed.ttf") format("truetype"), /* chrome、firefox、opera、Safari, Android, iOS 4.2+*/
    url("/Blog/main/fonts/NeueHaasUnicaW06/OnlineWebFonts_COM_0ed68d0a6f9c1234e2d43bdd27b951f2/@font-face/3842220656142ccef91508c98b0eb6ed.svg#Neue Haas Unica W06 Thin It") format("svg"); /* iOS 4.1- */
    }
    @font-face {font-family: "NeueHaasUnicaW06-ExtraBlack";
    src: url("/Blog/main/fonts/NeueHaasUnicaW06/OnlineWebFonts_COM_3dad734723cd1eada75c00f4d4322909/@font-face/46ff6b5a1511006aeadd4a46a3efd9ae.eot"); /* IE9*/
    src: url("/Blog/main/fonts/NeueHaasUnicaW06/OnlineWebFonts_COM_3dad734723cd1eada75c00f4d4322909/@font-face/46ff6b5a1511006aeadd4a46a3efd9ae.eot?#iefix") format("embedded-opentype"), /* IE6-IE8 */
    url("/Blog/main/fonts/NeueHaasUnicaW06/OnlineWebFonts_COM_3dad734723cd1eada75c00f4d4322909/@font-face/46ff6b5a1511006aeadd4a46a3efd9ae.woff") format("woff2"), /* chrome、firefox */
    url("/Blog/main/fonts/NeueHaasUnicaW06/OnlineWebFonts_COM_3dad734723cd1eada75c00f4d4322909/@font-face/46ff6b5a1511006aeadd4a46a3efd9ae.woff2") format("woff"), /* chrome、firefox */
    url("/Blog/main/fonts/NeueHaasUnicaW06/OnlineWebFonts_COM_3dad734723cd1eada75c00f4d4322909/@font-face/46ff6b5a1511006aeadd4a46a3efd9ae.ttf") format("truetype"), /* chrome、firefox、opera、Safari, Android, iOS 4.2+*/
    url("/Blog/main/fonts/NeueHaasUnicaW06/OnlineWebFonts_COM_3dad734723cd1eada75c00f4d4322909/@font-face/46ff6b5a1511006aeadd4a46a3efd9ae.svg#Neue Haas Unica W06 X Black") format("svg"); /* iOS 4.1- */
    }
    @font-face {font-family: "NeueHaasUnicaW06-Regular";
    src: url("/Blog/main/fonts/NeueHaasUnicaW06/OnlineWebFonts_COM_7a298e4d1b42d5d0485b479c3bcf69bf/@font-face/7250d52844cced73ed70675d1b78c60c.eot"); /* IE9*/
    src: url("/Blog/main/fonts/NeueHaasUnicaW06/OnlineWebFonts_COM_7a298e4d1b42d5d0485b479c3bcf69bf/@font-face/7250d52844cced73ed70675d1b78c60c.eot?#iefix") format("embedded-opentype"), /* IE6-IE8 */
    url("/Blog/main/fonts/NeueHaasUnicaW06/OnlineWebFonts_COM_7a298e4d1b42d5d0485b479c3bcf69bf/@font-face/7250d52844cced73ed70675d1b78c60c.woff") format("woff2"), /* chrome、firefox */
    url("/Blog/main/fonts/NeueHaasUnicaW06/OnlineWebFonts_COM_7a298e4d1b42d5d0485b479c3bcf69bf/@font-face/7250d52844cced73ed70675d1b78c60c.woff2") format("woff"), /* chrome、firefox */
    url("/Blog/main/fonts/NeueHaasUnicaW06/OnlineWebFonts_COM_7a298e4d1b42d5d0485b479c3bcf69bf/@font-face/7250d52844cced73ed70675d1b78c60c.ttf") format("truetype"), /* chrome、firefox、opera、Safari, Android, iOS 4.2+*/
    url("/Blog/main/fonts/NeueHaasUnicaW06/OnlineWebFonts_COM_7a298e4d1b42d5d0485b479c3bcf69bf/@font-face/7250d52844cced73ed70675d1b78c60c.svg#Neue Haas Unica W06 X Black") format("svg"); /* iOS 4.1- */
    }
    @font-face {font-family: "NeueHaasUnicaW06-XBlackIt";
    src: url("/Blog/main/fonts/NeueHaasUnicaW06/OnlineWebFonts_COM_7ded04d499cfd92c5afc12ffac484c5a/@font-face/5ef047f0e72e70adeba30f0c829c33e0.eot"); /* IE9*/
    src: url("/Blog/main/fonts/NeueHaasUnicaW06/OnlineWebFonts_COM_7ded04d499cfd92c5afc12ffac484c5a/@font-face/5ef047f0e72e70adeba30f0c829c33e0.eot?#iefix") format("embedded-opentype"), /* IE6-IE8 */
    url("/Blog/main/fonts/NeueHaasUnicaW06/OnlineWebFonts_COM_7ded04d499cfd92c5afc12ffac484c5a/@font-face/5ef047f0e72e70adeba30f0c829c33e0.woff") format("woff2"), /* chrome、firefox */
    url("/Blog/main/fonts/NeueHaasUnicaW06/OnlineWebFonts_COM_7ded04d499cfd92c5afc12ffac484c5a/@font-face/5ef047f0e72e70adeba30f0c829c33e0.woff2") format("woff"), /* chrome、firefox */
    url("/Blog/main/fonts/NeueHaasUnicaW06/OnlineWebFonts_COM_7ded04d499cfd92c5afc12ffac484c5a/@font-face/5ef047f0e72e70adeba30f0c829c33e0.ttf") format("truetype"), /* chrome、firefox、opera、Safari, Android, iOS 4.2+*/
    url("/Blog/main/fonts/NeueHaasUnicaW06/OnlineWebFonts_COM_7ded04d499cfd92c5afc12ffac484c5a/@font-face/5ef047f0e72e70adeba30f0c829c33e0.svg#Neue Haas Unica W06 X Black") format("svg"); /* iOS 4.1- */
    }
    @font-face {font-family: "NeueHaasUnicaW06-LightIt";
    src: url("/Blog/main/fonts/NeueHaasUnicaW06/OnlineWebFonts_COM_19d2b951c44c457e1bc515a2e9e486fb/@font-face/7f69054324b2adbc60f29dfd260c3d30.eot"); /* IE9*/
    src: url("/Blog/main/fonts/NeueHaasUnicaW06/OnlineWebFonts_COM_19d2b951c44c457e1bc515a2e9e486fb/@font-face/7f69054324b2adbc60f29dfd260c3d30.eot?#iefix") format("embedded-opentype"), /* IE6-IE8 */
    url("/Blog/main/fonts/NeueHaasUnicaW06/OnlineWebFonts_COM_19d2b951c44c457e1bc515a2e9e486fb/@font-face/7f69054324b2adbc60f29dfd260c3d30.woff") format("woff2"), /* chrome、firefox */
    url("/Blog/main/fonts/NeueHaasUnicaW06/OnlineWebFonts_COM_19d2b951c44c457e1bc515a2e9e486fb/@font-face/7f69054324b2adbc60f29dfd260c3d30.woff2") format("woff"), /* chrome、firefox */
    url("/Blog/main/fonts/NeueHaasUnicaW06/OnlineWebFonts_COM_19d2b951c44c457e1bc515a2e9e486fb/@font-face/7f69054324b2adbc60f29dfd260c3d30.ttf") format("truetype"), /* chrome、firefox、opera、Safari, Android, iOS 4.2+*/
    url("/Blog/main/fonts/NeueHaasUnicaW06/OnlineWebFonts_COM_19d2b951c44c457e1bc515a2e9e486fb/@font-face/7f69054324b2adbc60f29dfd260c3d30.svg#Neue Haas Unica W06 X Black") format("svg"); /* iOS 4.1- */
    }
    @font-face {font-family: "NeueHaasUnicaW06-Italic";
    src: url("/Blog/main/fonts/NeueHaasUnicaW06/OnlineWebFonts_COM_059c6c90764b5b58f635dc550a3dd784/@font-face/0aa6b2719638cacfa0e8abce9099a39b.eot"); /* IE9*/
    src: url("/Blog/main/fonts/NeueHaasUnicaW06/OnlineWebFonts_COM_059c6c90764b5b58f635dc550a3dd784/@font-face/0aa6b2719638cacfa0e8abce9099a39b.eot?#iefix") format("embedded-opentype"), /* IE6-IE8 */
    url("/Blog/main/fonts/NeueHaasUnicaW06/OnlineWebFonts_COM_059c6c90764b5b58f635dc550a3dd784/@font-face/0aa6b2719638cacfa0e8abce9099a39b.woff") format("woff2"), /* chrome、firefox */
    url("/Blog/main/fonts/NeueHaasUnicaW06/OnlineWebFonts_COM_059c6c90764b5b58f635dc550a3dd784/@font-face/0aa6b2719638cacfa0e8abce9099a39b.woff2") format("woff"), /* chrome、firefox */
    url("/Blog/main/fonts/NeueHaasUnicaW06/OnlineWebFonts_COM_059c6c90764b5b58f635dc550a3dd784/@font-face/0aa6b2719638cacfa0e8abce9099a39b.ttf") format("truetype"), /* chrome、firefox、opera、Safari, Android, iOS 4.2+*/
    url("/Blog/main/fonts/NeueHaasUnicaW06/OnlineWebFonts_COM_059c6c90764b5b58f635dc550a3dd784/@font-face/0aa6b2719638cacfa0e8abce9099a39b.svg#Neue Haas Unica W06 X Black") format("svg"); /* iOS 4.1- */
    }
    @font-face {font-family: "NeueHaasUnicaW06-Bold";
    src: url("/Blog/main/fonts/NeueHaasUnicaW06/OnlineWebFonts_COM_073d72f89a764f9fcbc574a8bd4cb553/@font-face/bb87c8dd3cc47b366f6bb7738fee180c.eot"); /* IE9*/
    src: url("/Blog/main/fonts/NeueHaasUnicaW06/OnlineWebFonts_COM_073d72f89a764f9fcbc574a8bd4cb553/@font-face/bb87c8dd3cc47b366f6bb7738fee180c.eot?#iefix") format("embedded-opentype"), /* IE6-IE8 */
    url("/Blog/main/fonts/NeueHaasUnicaW06/OnlineWebFonts_COM_073d72f89a764f9fcbc574a8bd4cb553/@font-face/bb87c8dd3cc47b366f6bb7738fee180c.woff") format("woff2"), /* chrome、firefox */
    url("/Blog/main/fonts/NeueHaasUnicaW06/OnlineWebFonts_COM_073d72f89a764f9fcbc574a8bd4cb553/@font-face/bb87c8dd3cc47b366f6bb7738fee180c.woff2") format("woff"), /* chrome、firefox */
    url("/Blog/main/fonts/NeueHaasUnicaW06/OnlineWebFonts_COM_073d72f89a764f9fcbc574a8bd4cb553/@font-face/bb87c8dd3cc47b366f6bb7738fee180c.ttf") format("truetype"), /* chrome、firefox、opera、Safari, Android, iOS 4.2+*/
    url("/Blog/main/fonts/NeueHaasUnicaW06/OnlineWebFonts_COM_073d72f89a764f9fcbc574a8bd4cb553/@font-face/bb87c8dd3cc47b366f6bb7738fee180c.svg#Neue Haas Unica W06 X Black") format("svg"); /* iOS 4.1- */
    }
    @font-face {font-family: "NeueHaasUnicaW06-Heavy";
    src: url("/Blog/main/fonts/NeueHaasUnicaW06/OnlineWebFonts_COM_559d73454fad999c45ebbdaaa3ebacdd/@font-face/d04fc9492a6f504ee79cb87d63393fe0.eot"); /* IE9*/
    src: url("/Blog/main/fonts/NeueHaasUnicaW06/OnlineWebFonts_COM_559d73454fad999c45ebbdaaa3ebacdd/@font-face/d04fc9492a6f504ee79cb87d63393fe0.eot?#iefix") format("embedded-opentype"), /* IE6-IE8 */
    url("/Blog/main/fonts/NeueHaasUnicaW06/OnlineWebFonts_COM_559d73454fad999c45ebbdaaa3ebacdd/@font-face/d04fc9492a6f504ee79cb87d63393fe0.woff") format("woff2"), /* chrome、firefox */
    url("/Blog/main/fonts/NeueHaasUnicaW06/OnlineWebFonts_COM_559d73454fad999c45ebbdaaa3ebacdd/@font-face/d04fc9492a6f504ee79cb87d63393fe0.woff2") format("woff"), /* chrome、firefox */
    url("/Blog/main/fonts/NeueHaasUnicaW06/OnlineWebFonts_COM_559d73454fad999c45ebbdaaa3ebacdd/@font-face/d04fc9492a6f504ee79cb87d63393fe0.ttf") format("truetype"), /* chrome、firefox、opera、Safari, Android, iOS 4.2+*/
    url("/Blog/main/fonts/NeueHaasUnicaW06/OnlineWebFonts_COM_559d73454fad999c45ebbdaaa3ebacdd/@font-face/d04fc9492a6f504ee79cb87d63393fe0.svg#Neue Haas Unica W06 X Black") format("svg"); /* iOS 4.1- */
    }
    @font-face {font-family: "NeueHaasUnicaW06-HeavyIt";
    src: url("/Blog/main/fonts/NeueHaasUnicaW06/OnlineWebFonts_COM_507355e12251f27746763ec4f975a633/@font-face/a9820d1a66a09f97371b7ec92a271a92.eot"); /* IE9*/
    src: url("/Blog/main/fonts/NeueHaasUnicaW06/OnlineWebFonts_COM_507355e12251f27746763ec4f975a633/@font-face/a9820d1a66a09f97371b7ec92a271a92.eot?#iefix") format("embedded-opentype"), /* IE6-IE8 */
    url("/Blog/main/fonts/NeueHaasUnicaW06/OnlineWebFonts_COM_507355e12251f27746763ec4f975a633/@font-face/a9820d1a66a09f97371b7ec92a271a92.woff") format("woff2"), /* chrome、firefox */
    url("/Blog/main/fonts/NeueHaasUnicaW06/OnlineWebFonts_COM_507355e12251f27746763ec4f975a633/@font-face/a9820d1a66a09f97371b7ec92a271a92.woff2") format("woff"), /* chrome、firefox */
    url("/Blog/main/fonts/NeueHaasUnicaW06/OnlineWebFonts_COM_507355e12251f27746763ec4f975a633/@font-face/a9820d1a66a09f97371b7ec92a271a92.ttf") format("truetype"), /* chrome、firefox、opera、Safari, Android, iOS 4.2+*/
    url("/Blog/main/fonts/NeueHaasUnicaW06/OnlineWebFonts_COM_507355e12251f27746763ec4f975a633/@font-face/a9820d1a66a09f97371b7ec92a271a92.svg#Neue Haas Unica W06 X Black") format("svg"); /* iOS 4.1- */
    }
    @font-face {font-family: "NeueHaasUnicaW06-Light";
    src: url("/Blog/main/fonts/NeueHaasUnicaW06/OnlineWebFonts_COM_c59b16964f2eec693c72eb9c925ef088/@font-face/145bf6f8eebf1ad036f74d821af7d94b.eot"); /* IE9*/
    src: url("/Blog/main/fonts/NeueHaasUnicaW06/OnlineWebFonts_COM_c59b16964f2eec693c72eb9c925ef088/@font-face/145bf6f8eebf1ad036f74d821af7d94b.eot?#iefix") format("embedded-opentype"), /* IE6-IE8 */
    url("/Blog/main/fonts/NeueHaasUnicaW06/OnlineWebFonts_COM_c59b16964f2eec693c72eb9c925ef088/@font-face/145bf6f8eebf1ad036f74d821af7d94b.woff") format("woff2"), /* chrome、firefox */
    url("/Blog/main/fonts/NeueHaasUnicaW06/OnlineWebFonts_COM_c59b16964f2eec693c72eb9c925ef088/@font-face/145bf6f8eebf1ad036f74d821af7d94b.woff2") format("woff"), /* chrome、firefox */
    url("/Blog/main/fonts/NeueHaasUnicaW06/OnlineWebFonts_COM_c59b16964f2eec693c72eb9c925ef088/@font-face/145bf6f8eebf1ad036f74d821af7d94b.ttf") format("truetype"), /* chrome、firefox、opera、Safari, Android, iOS 4.2+*/
    url("/Blog/main/fonts/NeueHaasUnicaW06/OnlineWebFonts_COM_c59b16964f2eec693c72eb9c925ef088/@font-face/145bf6f8eebf1ad036f74d821af7d94b.svg#Neue Haas Unica W06 X Black") format("svg"); /* iOS 4.1- */
    }
    @font-face {font-family: "NeueHaasUnicaW06-MediumIt";
    src: url("/Blog/main/fonts/NeueHaasUnicaW06/OnlineWebFonts_COM_d179b86ccc44b19f872ad2ce5d9141f0/@font-face/2a415f48f53c15b960c82ad93f0a2ee0.eot"); /* IE9*/
    src: url("/Blog/main/fonts/NeueHaasUnicaW06/OnlineWebFonts_COM_d179b86ccc44b19f872ad2ce5d9141f0/@font-face/2a415f48f53c15b960c82ad93f0a2ee0.eot?#iefix") format("embedded-opentype"), /* IE6-IE8 */
    url("/Blog/main/fonts/NeueHaasUnicaW06/OnlineWebFonts_COM_d179b86ccc44b19f872ad2ce5d9141f0/@font-face/2a415f48f53c15b960c82ad93f0a2ee0.woff") format("woff2"), /* chrome、firefox */
    url("/Blog/main/fonts/NeueHaasUnicaW06/OnlineWebFonts_COM_d179b86ccc44b19f872ad2ce5d9141f0/@font-face/2a415f48f53c15b960c82ad93f0a2ee0.woff2") format("woff"), /* chrome、firefox */
    url("/Blog/main/fonts/NeueHaasUnicaW06/OnlineWebFonts_COM_d179b86ccc44b19f872ad2ce5d9141f0/@font-face/2a415f48f53c15b960c82ad93f0a2ee0.ttf") format("truetype"), /* chrome、firefox、opera、Safari, Android, iOS 4.2+*/
    url("/Blog/main/fonts/NeueHaasUnicaW06/OnlineWebFonts_COM_d179b86ccc44b19f872ad2ce5d9141f0/@font-face/2a415f48f53c15b960c82ad93f0a2ee0.svg#Neue Haas Unica W06 X Black") format("svg"); /* iOS 4.1- */
    }
    @font-face {font-family: "NeueHaasUnicaW06-Thin";
    src: url("/Blog/main/fonts/NeueHaasUnicaW06/OnlineWebFonts_COM_e0d1d8bcd90f325e7a7f4a8b9636d78a/@font-face/740a2bcf13582a2a0ed99e15dffe7b9f.eot"); /* IE9*/
    src: url("/Blog/main/fonts/NeueHaasUnicaW06/OnlineWebFonts_COM_e0d1d8bcd90f325e7a7f4a8b9636d78a/@font-face/740a2bcf13582a2a0ed99e15dffe7b9f.eot?#iefix") format("embedded-opentype"), /* IE6-IE8 */
    url("/Blog/main/fonts/NeueHaasUnicaW06/OnlineWebFonts_COM_e0d1d8bcd90f325e7a7f4a8b9636d78a/@font-face/740a2bcf13582a2a0ed99e15dffe7b9f.woff") format("woff2"), /* chrome、firefox */
    url("/Blog/main/fonts/NeueHaasUnicaW06/OnlineWebFonts_COM_e0d1d8bcd90f325e7a7f4a8b9636d78a/@font-face/740a2bcf13582a2a0ed99e15dffe7b9f.woff2") format("woff"), /* chrome、firefox */
    url("/Blog/main/fonts/NeueHaasUnicaW06/OnlineWebFonts_COM_e0d1d8bcd90f325e7a7f4a8b9636d78a/@font-face/740a2bcf13582a2a0ed99e15dffe7b9f.ttf") format("truetype"), /* chrome、firefox、opera、Safari, Android, iOS 4.2+*/
    url("/Blog/main/fonts/NeueHaasUnicaW06/OnlineWebFonts_COM_e0d1d8bcd90f325e7a7f4a8b9636d78a/@font-face/740a2bcf13582a2a0ed99e15dffe7b9f.svg#Neue Haas Unica W06 X Black") format("svg"); /* iOS 4.1- */
    }
    @font-face {font-family: "NeueHaasUnicaW06-BoldItalic";
    src: url("/Blog/main/fonts/NeueHaasUnicaW06/OnlineWebFonts_COM_e4e54e1eb6c480425902156a32fef7d6/@font-face/61742cae2dd974e3c9604f614a4c57f1.eot"); /* IE9*/
    src: url("/Blog/main/fonts/NeueHaasUnicaW06/OnlineWebFonts_COM_e4e54e1eb6c480425902156a32fef7d6/@font-face/61742cae2dd974e3c9604f614a4c57f1.eot?#iefix") format("embedded-opentype"), /* IE6-IE8 */
    url("/Blog/main/fonts/NeueHaasUnicaW06/OnlineWebFonts_COM_e4e54e1eb6c480425902156a32fef7d6/@font-face/61742cae2dd974e3c9604f614a4c57f1.woff") format("woff2"), /* chrome、firefox */
    url("/Blog/main/fonts/NeueHaasUnicaW06/OnlineWebFonts_COM_e4e54e1eb6c480425902156a32fef7d6/@font-face/61742cae2dd974e3c9604f614a4c57f1.woff2") format("woff"), /* chrome、firefox */
    url("/Blog/main/fonts/NeueHaasUnicaW06/OnlineWebFonts_COM_e4e54e1eb6c480425902156a32fef7d6/@font-face/61742cae2dd974e3c9604f614a4c57f1.ttf") format("truetype"), /* chrome、firefox、opera、Safari, Android, iOS 4.2+*/
    url("/Blog/main/fonts/NeueHaasUnicaW06/OnlineWebFonts_COM_e4e54e1eb6c480425902156a32fef7d6/@font-face/61742cae2dd974e3c9604f614a4c57f1.svg#Neue Haas Unica W06 X Black") format("svg"); /* iOS 4.1- */
    }
    @font-face {font-family: "NeueHaasUnicaW06-Medium";
    src: url("/Blog/main/fonts/NeueHaasUnicaW06/OnlineWebFonts_COM_e009de3bc4003d481f48e90c6efd332f/@font-face/9c0afb6841117a1e2256b49b040cb768.eot"); /* IE9*/
    src: url("/Blog/main/fonts/NeueHaasUnicaW06/OnlineWebFonts_COM_e009de3bc4003d481f48e90c6efd332f/@font-face/9c0afb6841117a1e2256b49b040cb768.eot?#iefix") format("embedded-opentype"), /* IE6-IE8 */
    url("/Blog/main/fonts/NeueHaasUnicaW06/OnlineWebFonts_COM_e009de3bc4003d481f48e90c6efd332f/@font-face/9c0afb6841117a1e2256b49b040cb768.woff") format("woff2"), /* chrome、firefox */
    url("/Blog/main/fonts/NeueHaasUnicaW06/OnlineWebFonts_COM_e009de3bc4003d481f48e90c6efd332f/@font-face/9c0afb6841117a1e2256b49b040cb768.woff2") format("woff"), /* chrome、firefox */
    url("/Blog/main/fonts/NeueHaasUnicaW06/OnlineWebFonts_COM_e009de3bc4003d481f48e90c6efd332f/@font-face/9c0afb6841117a1e2256b49b040cb768.ttf") format("truetype"), /* chrome、firefox、opera、Safari, Android, iOS 4.2+*/
    url("/Blog/main/fonts/NeueHaasUnicaW06/OnlineWebFonts_COM_e009de3bc4003d481f48e90c6efd332f/@font-face/9c0afb6841117a1e2256b49b040cb768.svg#Neue Haas Unica W06 X Black") format("svg"); /* iOS 4.1- */
    }
    @font-face {font-family: "NeueHaasUnicaW06-BlackIt";
    src: url("/Blog/main/fonts/NeueHaasUnicaW06/OnlineWebFonts_COM_f0d250fc9c4208c6c78408a38db68150/@font-face/15e7a19454566924256299df2a72ab91.eot"); /* IE9*/
    src: url("/Blog/main/fonts/NeueHaasUnicaW06/OnlineWebFonts_COM_f0d250fc9c4208c6c78408a38db68150/@font-face/15e7a19454566924256299df2a72ab91.eot?#iefix") format("embedded-opentype"), /* IE6-IE8 */
    url("/Blog/main/fonts/NeueHaasUnicaW06/OnlineWebFonts_COM_f0d250fc9c4208c6c78408a38db68150/@font-face/15e7a19454566924256299df2a72ab91.woff") format("woff2"), /* chrome、firefox */
    url("/Blog/main/fonts/NeueHaasUnicaW06/OnlineWebFonts_COM_f0d250fc9c4208c6c78408a38db68150/@font-face/15e7a19454566924256299df2a72ab91.woff2") format("woff"), /* chrome、firefox */
    url("/Blog/main/fonts/NeueHaasUnicaW06/OnlineWebFonts_COM_f0d250fc9c4208c6c78408a38db68150/@font-face/15e7a19454566924256299df2a72ab91.ttf") format("truetype"), /* chrome、firefox、opera、Safari, Android, iOS 4.2+*/
    url("/Blog/main/fonts/NeueHaasUnicaW06/OnlineWebFonts_COM_f0d250fc9c4208c6c78408a38db68150/@font-face/15e7a19454566924256299df2a72ab91.svg#Neue Haas Unica W06 X Black") format("svg"); /* iOS 4.1- */
    }
	.st0{opacity:0.3;fill:#009DE0;enable-background:new    ;}
	.st1{fill:#1E71B8;}
	.st2{font-family:'ArialMT';}
	.st3{font-size:18.551px;}
	.st4{font-size:18.5594px;}
	.st5{fill:#FFFFFF;}
	.st6{font-size:9.54px;}
	.st7{font-size:9.5032px;}
	.st8{font-size:9.5604px;}
	.st9{font-size:9.5485px;}
	.st10{font-size:9.5314px;}
	.st11{opacity:0.5;fill:#1D71B8;enable-background:new    ;}
	.st12{fill:#FEFEFE;}
	.st13{fill:#FCFCFC;}
	.st14{fill:#F7F7F8;}
	.st15{fill:#F8F9F9;}
	.st16{fill:#FBFBFC;}
	.st17{fill:#FBFBFB;}
	.st18{fill:#E6E7E8;}
	.st19{fill:#E6E6E8;}
	.st20{fill:#ECECEC;}
	.st21{fill:#EDEDED;}
	.st22{fill:#FCFCFD;}
	.st23{fill:none;stroke:#FFFFFF;stroke-width:2.9;stroke-miterlimit:10;}
	.st24{opacity:0.5;}
	.st25{fill:#1D71B8;}
	.st26{opacity:0.5;fill:none;stroke:#1D71B8;stroke-width:0.81;stroke-miterlimit:10;enable-background:new    ;}
	.st27{font-size:16.9998px;}
	.st28{fill:#96BEE0;}
	.st29{fill:#7DA0BE;}
	.st30{fill:#CEDEE9;}
	.st31{fill:#7D9FBD;}
	.st32{fill:#7B9DBA;}
	.st33{fill:#E9F4FA;}
	.st34{fill:#B3CADA;}
	.st35{fill:#B2C9DA;}
	.st36{fill:#CFE0EB;}
	.st37{fill:#E8F4FA;}
	.st38{fill:#B4CCDC;}
	.st39{fill:#494A5A;}
	.st40{opacity:0.5;fill:none;stroke:#1D71B8;stroke-width:0.62;stroke-miterlimit:10;enable-background:new    ;}
	.st41{font-family:'NeueHaasUnicaW06-Regular';}
	.st42{font-size:35.5348px;}
	.st43{fill:none;}
	.st44{font-size:12px;}
	.st45{font-size:18px;}
	.st46{font-size:32px;}
	.st47{font-size:42px;}
	.st48{font-size:60px;}
	.st49{font-size:24px;}
	.st50{opacity:0.5;fill:#1D71B8;}
	.st51{font-family:'NeueHaasUnicaW06-Light';}
	.st52{fill:#1F71B8;}
	.st53{font-family:'NeueHaasUnicaW06-Bold';}
</style>
<title>F Employment and Economics</title>
<path class="st0" d="M1280.4,443.8c-79.4,0-143.7,64.3-143.8,143.7s64.3,143.7,143.7,143.8s143.7-64.3,143.8-143.7c0,0,0,0,0,0
	C1424.1,508.2,1359.8,443.9,1280.4,443.8L1280.4,443.8z M1280.4,697.1c-60.5,0-109.6-49.1-109.6-109.6
	c0-60.5,49.1-109.6,109.6-109.6c60.5,0,109.6,49.1,109.6,109.6c0,0,0,0,0,0C1390,648.1,1341,697.1,1280.4,697.1
	C1280.4,697.2,1280.4,697.2,1280.4,697.1L1280.4,697.1z"/>
<path class="st0" d="M163.9,174.2c-44.5,0-80.5,36-80.5,80.5s36,80.5,80.5,80.5s80.5-36,80.5-80.5c0,0,0,0,0,0
	C244.4,210.3,208.4,174.2,163.9,174.2C163.9,174.2,163.9,174.2,163.9,174.2z M163.9,264.6c-5.5,0-9.9-4.4-9.9-9.9
	c0-5.5,4.4-9.9,9.9-9.9c5.5,0,9.9,4.4,9.9,9.9C173.8,260.2,169.4,264.6,163.9,264.6C163.9,264.6,163.9,264.6,163.9,264.6z"/>
<text transform="matrix(0.9159 -0.4015 0.4015 0.9159 126.7992 182.884)" class="st1 st2 st3">2</text>
<text transform="matrix(0.9558 -0.294 0.294 0.9558 135.1959 179.1902)" class="st1 st2 st3">4</text>
<text transform="matrix(0.9832 -0.1828 0.1828 0.9832 143.9597 176.4708)" class="st1 st2 st3">0</text>
<text transform="matrix(0.9946 -0.1042 0.1042 0.9946 153.0426 174.8867)" class="st1 st2 st3">.</text>
<text transform="matrix(0.9996 -2.998651e-02 2.998651e-02 0.9996 156.6082 174.3885)" class="st1 st2 st4">0</text>
<text transform="matrix(0.9962 8.698186e-02 -8.698186e-02 0.9962 165.7915 174.1366)" class="st1 st2 st3">0</text>
<text transform="matrix(0.9799 0.1994 -0.1994 0.9799 174.9193 174.9017)" class="st1 st2 st3">0</text>
<text transform="matrix(0.9231 0.3846 -0.3846 0.9231 187.4906 177.526)" class="st1 st2 st3">M</text>
<text transform="matrix(0.8589 0.5122 -0.5122 0.8589 200.6519 183.1875)" class="st1 st2 st3">T</text>
<text transform="matrix(0.3697 -0.9292 0.9292 0.3697 153.6981 253.3137)" class="st5 st2 st6">8</text>
<text transform="matrix(0.7121 -0.7021 0.7021 0.7121 155.1518 249.2646)" class="st5 st2 st7">5</text>
<text transform="matrix(0.9371 -0.3489 0.3489 0.9371 158.1439 246.1517)" class="st5 st2 st8">0</text>
<text transform="matrix(0.9982 5.989230e-02 -5.989230e-02 0.9982 162.156 244.5318)" class="st5 st2 st9">0</text>
<text transform="matrix(0.7154 0.6987 -0.6987 0.7154 168.2357 244.8538)" class="st5 st2 st10">M</text>
<text transform="matrix(0.2698 0.9629 -0.9629 0.2698 173.0193 249.7651)" class="st5 st2 st10">T</text>
<path class="st11" d="M173.8,254.7c0,5.5-4.4,9.9-9.9,9.9s-9.9-4.4-9.9-9.9c0-5.4,4.4-9.9,9.8-9.9
	C169.3,244.8,173.8,249.2,173.8,254.7C173.8,254.7,173.8,254.7,173.8,254.7z"/>
<path class="st0" d="M334.9,174.6h9.3c0,0,0.1,0.1,0.1,0.1l7.7,0.8l3,0.6h0.2h0.4l3.6,0.8l3.2,0.8l7.6,2.6l0.5,0.2l0.2,0.1l2.3,1
	l4.2,2.1l7.1,4.2l1.2,0.8l2.3,1.6l3.6,2.8l2.8,2.7l0.7,0.6l6.2,6.6l2.7,3.4l0.1,0.1c0,0,0,0.1,0.1,0.1l1.6,2.3c0,0.1,0,0.1,0.1,0.1
	l0.1,0.2l0.6,0.9c1.5,2.4,2.9,4.9,4.3,7.3l3.2,6.9l2.7,7.5l0.8,3.2l0.9,4l0.5,2.8v0.3 M418.7,242.4c0.2,1.6,0.3,3.1,0.5,4.7
	c0.1,1.2,0.3,2.4,0.4,3.6v8.9c0,0-0.1,0.1-0.1,0.2c-0.3,2.5-0.5,5.1-0.8,7.7l-0.1,0.4v0.2l-0.5,3l-0.8,3.6l-0.9,3.2l-1.4,4
	c-0.2-0.1-0.4-0.2-0.6-0.4c-1.1-1.3-2.1-2.5-3.2-3.8l-5.5-6.8c-1.8-2.2-3.6-4.4-5.5-6.7l-6.3-7.8c-2-2.4-4-4.8-5.9-7.2
	c-2-2.4-3.8-4.8-5.7-7.1c-1.9-2.3-3.6-4.3-5.3-6.4c-2.2-2.7-4.4-5.5-6.6-8.2c-0.4-0.4-0.8-0.9-1.3-1.2l-3.3-3.5l-20.7,20.8l-15.3-15
	c-1.6,1.6-3.2,3.2-4.8,4.9l-9.4,9.4c-0.4-0.6-0.8-1.2-1.2-1.8c-2.1-2.6-4.3-5.1-6.4-7.7c-3.2-3.9-6.3-7.8-9.4-11.6
	c-0.1-0.2-0.4-0.2-0.6-0.3l-1.4-2l-4.2,6.6h2.8v61.7h84.1c0.3,0,0.7,0.1,1,0.1h-84.7c1.1,1.6,2.2,2.9,3.3,4.2
	c2.3,2.8,4.6,5.7,6.9,8.6c2.1,2.6,4.2,5.2,6.3,7.8c1.8,2.2,3.6,4.3,5.4,6.5c2.2,2.7,4.4,5.5,6.6,8.2c3,3.7,6,7.4,9.1,11.1
	c0.2,0.3,0.4,0.7,0.6,1.1l-6.8-0.6c0,0,0,0-0.1,0l-0.3-0.1l-2.6-0.4l-4.1-0.9l0,0l-0.2-0.1l-3-0.8l-7.5-2.7l-3.4-1.5l-3.7-1.9
	l-7.1-4.2l-1.2-0.8l-2.3-1.7l-3.8-3l-2.5-2.3l-0.8-0.8l-6.2-6.6l-2.8-3.7l-1.6-2.3l-0.8-1.2l-4.3-7.3l-3.2-6.9l-2.6-7.5l-0.8-3.2
	l-0.9-4.2l-0.5-3c-0.2-1.6-0.3-3.2-0.5-4.8c-0.1-1-0.3-2-0.4-3v-9.2c0,0,0.1-0.1,0.1-0.2c0.3-2.6,0.5-5.1,0.8-7.7l0.1-0.4v-0.4
	l0.4-2.4l0.9-4l0,0l0.1-0.2l0.8-3l2.6-7.5l3.2-6.9l4.3-7.3l0.8-1.2l1.7-2.4l1.6-2.1l0.1-0.2c0,0,0-0.1,0-0.1l0.9-1.1l1.2-1.4l0,0
	l0,0l6.5-6.6l0.2-0.2l0.3-0.3l0,0l0,0l0.2-0.2l0.2-0.1l0.9-0.8l1.1-0.9l2.4-1.9l2.3-1.6l1.2-0.8l7.4-4.4l6.9-3.2l7.5-2.6l3-0.8
	l0.2-0.1l0,0l4.1-0.9l2.3-0.4h0.4l0.4-0.1l4.8-0.5c1.3-0.5,2.4-0.6,3.4-0.8L418.7,242.4z"/>
<path class="st11" d="M333.8,335.1c-0.1-0.4-0.3-0.7-0.6-1.1c-3-3.7-6-7.4-9.1-11.1c-2.2-2.7-4.4-5.5-6.6-8.2
	c-1.8-2.2-3.6-4.3-5.4-6.5c-2.1-2.6-4.2-5.2-6.3-7.8c-2.3-2.9-4.6-5.7-6.9-8.6c-1.1-1.3-2.3-2.7-3.3-4.2h84.9v2.6l6.7-4.3l-6.7-4.3
	v2.8h-82.2v-58.6h2.7l-2.8-4.6c0.2,0.1,0.4,0.2,0.6,0.3c3.2,3.9,6.3,7.8,9.4,11.6c2.1,2.6,4.3,5.1,6.4,7.7c0.4,0.6,0.8,1.2,1.2,1.8
	l-9.1,9.2l3.2,3.4l20.4-20.4l15.2,15.3l23.8-24c0.5,0.4,0.9,0.8,1.3,1.2c2.2,2.7,4.4,5.5,6.6,8.2c1.8,2.2,3.6,4.3,5.3,6.4
	c1.8,2.1,3.8,4.8,5.7,7.1s4,4.8,5.9,7.2l6.3,7.8c1.8,2.2,3.6,4.4,5.5,6.7l5.5,6.8c1.1,1.3,2.1,2.6,3.2,3.8c0.2,0.1,0.4,0.3,0.6,0.4
	l-1.2,3.6l-3.3,7.1l-4.2,7.1l-0.9,1.3l-1.6,2.3l0,0l0,0l-0.2,0.2l0,0l-0.2,0.2c-0.7,0.9-1.3,1.9-2.1,2.8c-1,1.2-2.1,2.3-3.1,3.4
	l-4.1,4.1l-2.3,2l-0.2,0.2l-3.8,3l-0.2,0.2l-0.2,0.1l-2.3,1.6l-1.2,0.9l-7.1,4.2l-7.1,3.3l-7.5,2.7l-3.2,0.9l-3.6,0.8h-0.4h-0.2
	l-3,0.6l-4.7,0.5l-3.4,0.4h-9.1L333.8,335.1z"/>
<path class="st5" d="M416.3,288.9h3.6v3.6h-3.6V288.9z"/>
<path class="st5" d="M416.3,296.1h3.6v3.6h-3.6V296.1z"/>
<path class="st12" d="M298.2,221.2l2.9,4.6h-2.7v58.6h82.2v-2.8l6.7,4.3l-6.7,4.3v-2.6c-0.3-0.1-0.7-0.1-1-0.1h-84.2v-61.7h-2.8
	l4.2-6.6L298.2,221.2z"/>
<path class="st13" d="M369.4,226.2l-23.8,24l-15.2-15.3L310,255.3l-3.2-3.4l9-9.1l9.4-9.4c1.6-1.6,3.3-3.3,4.8-4.9l15.3,15
	l20.7-20.8L369.4,226.2z"/>
<path class="st14" d="M287.7,192.5h1.2l-1.1,0.9L287.7,192.5z"/>
<path class="st15" d="M277,204.3v-1.2h1L277,204.3z"/>
<path class="st16" d="M285,314.1h-0.9v-0.8L285,314.1z"/>
<path class="st17" d="M394.2,196h0.7v0.6L394.2,196z"/>
<path class="st18" d="M260.2,242.1v-0.4V242.1z"/>
<path class="st18" d="M326.3,175.7h0.4H326.3z"/>
<path class="st19" d="M405.7,209.3l0.1,0.2L405.7,209.3z"/>
<path class="st15" d="M276.8,204.6l0.1-0.2L276.8,204.6z"/>
<path class="st19" d="M403.8,206.6c0.1,0,0.1,0.1,0.1,0.1L403.8,206.6z"/>
<path class="st14" d="M285.8,195.2l0.2-0.2L285.8,195.2z"/>
<path class="st14" d="M286.3,194.7C286.3,194.7,286.3,194.7,286.3,194.7L286.3,194.7L286.3,194.7z"/>
<path class="st18" d="M418.9,267.8c0,0,0,0.1,0,0.1l0,0V267.8z"/>
<path class="st20" d="M261.4,235.4l0.1-0.2L261.4,235.4z"/>
<path class="st14" d="M286.7,194.4l0.2-0.1L286.7,194.4z"/>
<path class="st20" d="M319.7,177.1l0.2-0.1L319.7,177.1z"/>
<path class="st20" d="M267.3,319.6l-0.2-0.1L267.3,319.6z"/>
<path class="st19" d="M418.9,242.1v0.3V242.1z"/>
<path class="st21" d="M370.4,180.7l0.2,0.1L370.4,180.7z"/>
<path class="st20" d="M355,176.1h0.2H355z"/>
<path class="st19" d="M274.6,321.1l-0.3-0.1L274.6,321.1z"/>
<path class="st15" d="M279.2,201.8C279.2,201.8,279.2,201.8,279.2,201.8L279.2,201.8L279.2,201.8z"/>
<path class="st19" d="M403.8,303.4l-0.2,0.2L403.8,303.4z"/>
<path class="st19" d="M388.1,319.1l-0.2,0.2L388.1,319.1z"/>
<path class="st22" d="M392,315.9l-0.2,0.2L392,315.9z"/>
<path class="st19" d="M404,303.1l-0.2,0.2L404,303.1z"/>
<path class="st20" d="M303.7,320.5h-0.2H303.7z"/>
<line class="st23" x1="163.4" y1="234.1" x2="163.4" y2="180"/>
<line class="st23" x1="177.5" y1="194.1" x2="163.4" y2="180"/>
<line class="st23" x1="150" y1="193.5" x2="165.1" y2="178.4"/>
<path class="st0" d="M520.4,174.9c-44.5,0-80.5,36-80.5,80.5c0,44.5,36,80.5,80.5,80.5s80.5-36,80.5-80.5c0,0,0,0,0,0
	C600.9,210.9,564.8,174.9,520.4,174.9z"/>
<g class="st24">
	<path class="st25" d="M527.2,272.7c6.4-1.5,12.4-6.8,13-9.2c-0.5,0.6-1,1.2-1.5,1.6c-1,1-2,1.8-3.1,2.6c-1.3,0.9-2.6,1.6-4,2.3
		c-1.2,0.5-2.4,1-3.6,1.3c-1.6,0.5-3.3,0.9-5,1.3c-0.5,0.1-0.9,0.2-1.4,0.1h-23.4c-1.2,0.1-2.3-0.9-2.4-2.1c0-0.1,0-0.2,0-0.2
		c0-7,0-14,0-21c-0.1-1.3,0.9-2.4,2.2-2.5c0.1,0,0.1,0,0.2,0c0.2,0,0.4,0,0.6,0h43.4c1.4-0.2,2.6,0.8,2.8,2.2c0,0.2,0,0.4,0,0.6
		c0,6.8,0,13.6,0,20.5c0.1,1.3-0.8,2.5-2.2,2.7c-0.1,0-0.2,0-0.3,0h-14.8L527.2,272.7z M507.2,261.9c0,0.5,0,0.9,0,1.3
		c0,0.4,0.1,0.7,0.6,0.7c1.6,0,3,0,4.5,0c1.1,0,1.1,0,1.1-1.1c0-0.4-0.1-0.7-0.6-0.6h-1.7c-1.4,0-1.7,0-1.5-1.8l0,0
		c0.3-0.1,0.5-0.1,0.6-0.3c0.3-0.4,0.8-0.5,1.3-0.5c0.9,0,0.9,0,1.1-0.9l2.3-0.9v0.8c0,1.6,0,3.2,0,4.7c0,0.2,0.2,0.5,0.3,0.5
		c0.7,0,1.3,0,2,0v-3.9c0.8-0.1,0.8-0.1,1.1,0.5s0.7,1.3,1,2c0.4,1.2,1.7,1.9,2.9,1.5c0.1,0,0.1,0,0.2-0.1c0,0,0-0.1,0-0.1
		c-0.7-1.5-1.4-3-2.2-4.6c1-0.7,1.4-2,1-3.2l2.5-0.5c-0.3,0.6-0.6,1.2-0.9,2c-0.7,2.1,0,4.4,1.6,5.8c1,0.7,2.2,1,3.5,0.8
		c1.4-0.1,2.7-0.8,3.4-2c0.8-1.3,1-3,0.7-4.5c-0.3-2.4-2.5-4-4.8-3.7c-0.2,0-0.4,0.1-0.6,0.1c-0.7,0.1-1.3,0.4-1.9,0.7
		c-0.6,0.4-1.3-0.1-1.9,0.2c-0.4,0.2-0.9,0.2-1.3,0.3c-0.2,0-0.4-0.1-0.6-0.2c-0.4-0.5-1-0.8-1.7-0.8c-1.2,0-2.5,0-3.7-0.1
		c-0.5,0-0.6,0.2-0.6,0.6c0,0.8,0,1.6,0,2.2c-1.6,0.9-3.5,1.2-5.3,0.9v-2.1h3c0.4,0,0.6-0.1,0.5-0.6c0-0.1,0-0.3,0-0.4
		c0-0.5-0.1-0.7-0.7-0.7c-1.5,0-3,0-4.5,0c-0.6,0-0.8,0.2-0.8,0.8c0,1.8,0,3.6,0,5.4c0,0.2-0.1,0.4-0.3,0.6
		c-0.2,0.2-0.4,0.3-0.6,0.5c-0.6,0.5-1.3,0.8-2.1,0.8c-1.2,0-1.4-0.1-1.4-1.4c0-2,0-4.1,0-6.1c0-0.2-0.1-0.6-0.3-0.6
		c-0.9-0.2-1.7,0.3-1.9,1.1c0,0.1,0,0.2-0.1,0.4v8.3h2.8c-1.5,2.5-1.2,3.5-0.8,4.6h-0.4c-0.8-0.3-1.6-0.6-2.3-1
		c-2.1-1.1-3.2-3.1-1.8-5.5c0.1-0.2,0.2-0.4,0.2-0.7c-1.1,1-1.6,2.6-1.1,4.1c0.5,1.3,1.5,2.5,2.8,3.2c2.4,1.4,5,2.1,7.7,2.2
		c3.7,0.3,7.5,0.1,11.2-0.6c2.8-0.5,5.6-1.2,8.3-2c3.9-1.1,7.6-2.9,10.9-5.3c2-1.4,3.7-3.2,4.8-5.4c0.8-1.4,0.7-3.2-0.3-4.5
		c-0.2-0.3-0.5-0.7-1.1-0.6c0.1,0.2,0.2,0.4,0.3,0.7c0.6,0.9,0.7,2.1,0.2,3.1c-1,2.2-2.7,4.1-4.8,5.4c-0.1-0.7,0-1.3,0.2-2
		c0.9-1.7,1.9-3.3,2.8-5c0.2-0.4,0.2-0.5-0.3-0.6c-0.2,0-0.4,0-0.6,0c-0.5-0.1-0.9,0.2-1.1,0.6c-0.5,1.1-1.1,2-1.7,3.2
		c-0.5-0.7-0.9-1.4-1.2-2.2c-0.3-1.2-1.6-2-2.9-1.6c0,0,0,0,0,0h-0.1c-0.4,0-0.5,0.1-0.3,0.5c0.9,1.6,1.8,3.2,2.7,4.8
		c0.1,0.2,0.2,0.5,0.2,0.7c0,0.8,0,1.6,0,2.4c0,0.4-0.2,0.7-0.5,0.8c-2,0.9-3.9,1.9-5.9,2.7c-4.4,1.7-9.1,2.8-13.9,3.2
		c-2.8,0.1-5.6,0.1-8.4,0c-1.5-0.1-2.6-1.4-2.5-2.9c0-0.1,0-0.2,0-0.3c0-0.2,0.1-0.4,0.1-0.6c0.1-0.9,0.9-1.6,1.9-1.6
		c0.4,0,0.6-0.2,0.5-0.6C506.2,262.8,506.6,262.2,507.2,261.9L507.2,261.9z M533.1,249.1v-0.2c-0.3-0.1-0.7-0.2-1-0.2
		c-4.1-0.2-8.2,0.1-12.3,0.7c-3.8,0.5-7.6,1.5-11.2,2.9c-1.6,0.7-3.1,1.6-4.6,2.4c-0.2,0.1-0.3,0.4-0.4,0.6c0.2,0,0.5,0,0.7-0.1
		c0.9-0.4,1.8-1,2.7-1.4c4.3-1.9,8.8-3.1,13.4-3.8c1.6-0.3,3.3-0.5,4.9-0.6c2.4-0.1,4.8-0.1,7.3-0.2L533.1,249.1z"/>
	<path class="st25" d="M525.5,261c-0.7-1.6-0.5-3.4,0.5-4.8c0.6-0.8,1.6-1,2.4-0.4L525.5,261z"/>
	<path class="st25" d="M526.6,262.3l2.9-5.1c0.7,1.5,0.5,3.3-0.4,4.6C528.5,262.5,527.5,262.8,526.6,262.3z"/>
	<path class="st25" d="M517.3,258.3c0-0.2,0-0.3,0-0.4c0-0.9,0-0.9,0.9-1l1-0.2c0,0.4-0.1,0.8-0.3,1.1
		C518.5,258.3,517.9,258.5,517.3,258.3z"/>
	<path class="st25" d="M518.6,256.1l-1.2,0.3l-0.1-0.7l1.4,0.2L518.6,256.1z"/>
</g>
<path class="st0" d="M700.3,174.7c-44.5,0-80.5,36-80.5,80.5s36,80.5,80.5,80.5c44.5,0,80.5-36,80.5-80.5c0,0,0,0,0,0
	C780.8,210.8,744.8,174.7,700.3,174.7z"/>
<path class="st25" d="M704,254.4c0.9-0.2,1.8-0.3,2.6-0.5c0.3-0.1,0.5-0.3,0.5-0.5c0.3-0.7,0.5-1.4,0.7-2c0.1-0.3,0.3-0.5,0.4-0.8
	l0.3,0.1l-0.9,3c1-0.2,2-0.6,2.9-1.2c0.6-0.9,1.1-1.8,1.5-2.8c0.3,3.6-4.3,8-9.1,8.6c-5.5,0.6-10.6-3.1-11.6-8.5
	c0.3,0.3,0.6,0.5,0.6,0.7c0.3,2,2,3.5,4.1,3.5l-1-3.2l0.3-0.1c0.1,0.2,0.2,0.3,0.3,0.5c0.1,0.4,0.2,0.7,0.3,1.1
	c0.7,2.2,1.2,2.5,3.6,2.3l-0.4-3.5l0.3-0.1c0.1,0.2,0.2,0.5,0.3,0.8c0,0.4,0,0.9,0.1,1.3c0.3,1.6,0.3,1.6,2,1.6c0.5,0,0.9,0,1.5-0.1
	l0.6-3.6h0.4L704,254.4z M703.3,255.1h-3.1c0.3,0.7,0.6,1.4,0.9,2.1c0.4,0.7,0.9,0.7,1.2,0C702.8,256.5,703,255.9,703.3,255.1
	L703.3,255.1z M710.1,253.4c-0.7,0.2-1.3,0.4-1.9,0.6c-0.4,0.1-0.7,0.3-1,0.6c-0.7,0.8-1.3,1.7-1.9,2.5
	C707.2,256.5,708.9,255.2,710.1,253.4z M706.6,254.5c-0.9,0.2-1.6,0.3-2.4,0.4c-0.2,0-0.3,0.2-0.4,0.3c-0.3,0.8-0.5,1.6-0.8,2.4
	C704.5,257,705.8,255.9,706.6,254.5z M698.6,257.2c-1.3-1.6-2.4-3.4-4.8-3.4C695,255.4,696.6,256.6,698.6,257.2L698.6,257.2z
	 M697.3,254.9c0.7,1.2,1.9,2.2,3.2,2.7C700.3,255.5,699.4,254.5,697.3,254.9L697.3,254.9z"/>
<path class="st25" d="M703.7,242.8l-3.8,0.2l-0.3,1.3h-0.3l-0.1-1.4l-3-0.7l-0.8,2.5l-0.3-0.1c0.1-0.4,0.1-0.8,0.2-1.2
	c0.1-0.4,0.3-0.8,0.4-1.3l-2-1l-2.1,4.3c0.8-5,5.1-8.7,10.2-8.6c6.1,0,10.1,4.9,10.3,8.5c-0.1-0.2-0.3-0.5-0.4-0.7l-2-3.9l-1.9,0.8
	l0.8,2.9l-0.3,0.1c-0.7-0.8-0.5-2-1.2-2.8l-2.8,0.8c-0.3,0.5,0.5,1.2-0.4,1.7L703.7,242.8z M699.8,242.3h4c-0.4-1.5-0.7-2.7-1.2-4
	c-0.1-0.4-0.6-0.6-0.9-0.9c-0.3,0.3-0.7,0.6-0.8,0.9C700.5,239.6,700.2,241,699.8,242.3L699.8,242.3z M699.3,242.4l1.3-4.8
	c-1.9,0.8-3.4,2.3-4.1,4.3L699.3,242.4z M707,241.4c-0.7-1.8-2.2-3.2-4-3.9l1.3,4.6L707,241.4z M695.8,241.4l2.5-3.5
	c-1.6,0.6-3,1.5-4.1,2.8L695.8,241.4z M709,240.5l0.1-0.3l-3.7-2.4l-0.1,0.2l2.3,3.1L709,240.5z"/>
<path class="st25" d="M708.5,248.1l-1.2,0.7v-2.8c0.2,0.2,0.5,0.3,0.8,0.4c0.3,0.1,0.6,0.1,1,0c1.8-1.3,4.2-0.9,5.5,0.8c0,0,0,0,0,0
	C713.7,249.7,710.9,250.1,708.5,248.1z"/>
<path class="st25" d="M699.4,248.1l-1.2,0.7v-2.7c0.2,0.1,0.4,0.2,0.6,0.3c0.4,0.4,0.8,0.3,1.2,0c1.6-1.1,3.7-0.9,5,0.4
	c0.5,0.5,0.4,0.8,0,1.3c-1.2,1.5-3.4,1.8-4.9,0.7C699.9,248.6,699.6,248.4,699.4,248.1z"/>
<path class="st25" d="M690.3,248.1l-1.2,0.7v-2.7c0.2,0.1,0.4,0.1,0.6,0.3c0.3,0.3,0.9,0.3,1.2,0c0,0,0,0,0,0
	c1.6-1.1,3.7-0.9,5.1,0.5c0.3,0.2,0.4,0.7,0.1,1c0,0-0.1,0.1-0.1,0.1c-1.1,1.5-3.2,1.8-4.8,0.9C690.9,248.6,690.6,248.4,690.3,248.1
	z"/>
<path class="st25" d="M662.9,266.6c0.7-0.4,1.4-0.7,2.2-0.9c1.3-0.3,2.5,0.5,2.9,1.8c0.1,0.2,0.1,0.5,0.1,0.7c0.1,1.6,0,3.2,0,4.8
	h-1.9v-3.6c0-1.5-0.4-2.1-1.2-2.1s-1.5,0.7-1.5,2.1c0,1.2,0,2.3,0,3.6h-1.9V269c0-1.2-0.3-1.7-1.1-1.8c-0.9,0-1.6,0.7-1.6,1.6
	c0,0,0,0.1,0,0.1c0,1.3,0,2.6,0,4h-1.7v-7.1c0.6,0.1,1.5-0.5,1.8,0.6c1.1-1.1,2.8-1.1,3.9-0.1C662.8,266.4,662.9,266.5,662.9,266.6z
	"/>
<path class="st25" d="M695.3,270.1c0.5,1.9,2,2.1,3.8,0.7l1.2,0.9c-1.3,1.6-3.6,2-5.3,0.9c-1.6-1.1-2.1-3.1-1.4-4.8
	c0.8-1.7,2.8-2.6,4.6-2c1.6,0.4,2.5,2.1,2.3,4.3L695.3,270.1z M698.8,268.6c0.1-0.8-0.5-1.5-1.3-1.6c-0.1,0-0.2,0-0.3,0
	c-0.9-0.1-1.7,0.5-1.8,1.4c0,0.1,0,0.2,0,0.2H698.8z"/>
<path class="st25" d="M673.9,268.3c-0.2-1.4-1.3-1.6-3.5-0.6l-0.9-0.9c1.2-1.1,2.8-1.5,4.3-1c1.1,0.2,1.9,1.2,1.8,2.3
	c0.1,1.6,0,3.2,0,5c-0.7-0.2-1.5,0.5-1.8-0.7c-0.8,0.8-2.1,1.1-3.2,0.7c-0.9-0.2-1.5-0.9-1.6-1.7c-0.2-0.9,0.3-1.9,1.2-2.2
	C671.4,268.8,672.7,268.5,673.9,268.3z M673.8,269.8c-0.8,0.1-1.5,0.2-2.3,0.4c-0.3,0.1-0.5,0.4-0.6,0.8c0.1,0.3,0.3,0.6,0.6,0.8
	C672.8,272.2,673.9,271.4,673.8,269.8L673.8,269.8z"/>
<path class="st25" d="M687.8,273H686v-7.1c1.6-0.2,1.6-0.2,1.6,0.4c0.8-0.3,1.6-0.5,2.5-0.6c1.1-0.2,2.1,0.6,2.3,1.7
	c0,0.1,0,0.2,0,0.2c0.1,1.7,0,3.5,0,5.3h-1.8c0-1.4,0-2.9,0-4.3c0-0.8-0.4-1.3-1.2-1.4c-0.7-0.1-1.4,0.4-1.6,1.1c0,0.3,0,0.7,0,1
	C687.8,270.6,687.8,271.7,687.8,273z"/>
<path class="st25" d="M703.9,266.5c0.7-0.3,1.4-0.5,2.1-0.6c1.9-0.1,2.8,0.8,2.8,2.7c0,1.5,0,2.9,0,4.4h-1.2c0-1.2,0-2.5,0-3.7
	c0-1.6-0.4-2.3-1.5-2.4c-1.1-0.1-2,0.8-2.1,2.3c-0.1,1.5,0,2.5,0,3.8h-1.2v-10.6h1.1L703.9,266.5z"/>
<path class="st25" d="M734.4,271l0.9,0.7c-1.1,1.5-3.2,2-4.9,1.1c-1.6-1-2.2-3-1.5-4.8c0.7-1.7,2.6-2.6,4.3-2.1
	c1.7,0.5,2.7,2.3,2.3,4H730c0,0.9,0.5,1.7,1.3,2C732.3,272.3,733.2,272.1,734.4,271z M734.1,268.8c0.1-1-0.7-1.9-1.7-1.9
	c-0.1,0-0.2,0-0.3,0c-1.1-0.1-2,0.8-2,1.8c0,0,0,0.1,0,0.1H734.1z"/>
<path class="st25" d="M716,273.3l-1.6-0.8c-0.8,0.7-2,0.9-3,0.6c-0.9-0.2-1.5-0.9-1.6-1.8c-0.2-0.9,0.4-1.8,1.3-2.1
	c1.2-0.3,2.5-0.5,3.7-0.7c-0.3-0.4-0.4-1-0.8-1.2c-1-0.5-2.3-0.3-3.1,0.5l-0.7-0.8c1.2-1.1,2.9-1.5,4.4-0.8c0.7,0.4,1.2,1.2,1.3,2
	c0,0.2,0,0.5,0,0.7L716,273.3z M714.7,269.6c-0.9,0.1-1.8,0.2-2.7,0.4c-0.4,0.2-0.7,0.6-0.7,1.1c0.2,0.5,0.5,0.8,1,1
	C713.8,272.4,714.8,271.4,714.7,269.6L714.7,269.6z"/>
<path class="st25" d="M736.2,271.9l0.6-0.5c0.8,0.3,1.6,0.5,2.4,0.7c0.4,0,0.8-0.6,1.2-0.9c-0.3-0.4-0.6-0.7-1-1
	c-0.4-0.2-0.9-0.3-1.4-0.4c-0.9-0.1-1.6-0.8-1.6-1.7c0-0.9,0.5-1.7,1.4-2c1.3-0.6,2.9-0.1,3.6,1.1l-0.8,0.6v-0.3
	c-0.7-0.2-1.4-0.3-2.1-0.4c-0.4,0.1-0.6,0.3-0.8,0.7c0,0.3,0.4,0.7,0.7,0.8c0.6,0.2,1.2,0.4,1.8,0.5c0.9,0.2,1.5,1,1.5,1.9
	c0,0.9-0.6,1.8-1.5,2C738.7,273.6,737.1,273.1,736.2,271.9z"/>
<path class="st25" d="M721.6,266.1c1-0.4,1.5,0,1.8,0.8c0.5,1.5,1.1,2.9,1.8,4.5c0.6-1.6,1.2-3,1.7-4.5c0.3-0.9,0.8-1.1,1.7-0.8
	c-0.9,2.2-1.7,4.4-2.6,6.6c-0.2,0.6-1.4,0.7-1.6,0.1C723.4,270.6,722.6,268.3,721.6,266.1z"/>
<path class="st25" d="M678.8,273h-1.7v-7.1h1.7v0.4l2.7-0.9v2c-0.3,0-0.5,0-0.8,0c-1-0.1-1.8,0.6-1.9,1.6c0,0.1,0,0.2,0,0.3
	C678.8,270.5,678.8,271.7,678.8,273z"/>
<path class="st25" d="M742,266l1.5-0.1l0.1-1.6h1.1l0.1,1.6l2,0.1v1.1h-2.1c0,1.2,0,2.3,0,3.5s0.2,1.7,1.7,1.6
	c-0.2,0.5-0.3,1-0.6,1.1c-0.8,0.2-1.7-0.1-2.1-0.8c-0.2-0.5-0.2-1-0.3-1.5c0-1.2,0-2.5,0-3.8h-1.5L742,266z"/>
<path class="st25" d="M717.3,266c0.5-0.1,1.2-0.4,1.1,0.5l2.8-1v1.3c-2.2,0.4-2.6,0.8-2.6,2.5c0,0.9,0,1.7,0,2.6v1h-1.2V266z"/>
<path class="st25" d="M684.4,273h-1.6v-7.1h1.6V273z"/>
<path class="st25" d="M684.4,265h-1.7v-1.4h1.7V265z"/>
<path d="M698,271.1h-2.5"/>
<path d="M710.1,266.3"/>
<path d="M707.5,267.5"/>
<line class="st26" x1="520.6" y1="333.1" x2="429.5" y2="410"/>
<line class="st26" x1="704.6" y1="335.7" x2="429.5" y2="410"/>
<text transform="matrix(0.9007 -0.4344 0.4344 0.9007 472.617 391.6458)" class="st25 st2 st27">A</text>
<text transform="matrix(0.9007 -0.4344 0.4344 0.9007 481.6627 387.2838)" class="st25 st2 st27">v</text>
<text transform="matrix(0.9007 -0.4344 0.4344 0.9007 488.8788 383.8032)" class="st25 st2 st27">e</text>
<text transform="matrix(0.9007 -0.4344 0.4344 0.9007 496.5568 380.0998)" class="st25 st2 st27">r</text>
<text transform="matrix(0.9007 -0.4344 0.4344 0.9007 501.4822 377.724)" class="st25 st2 st27">age</text>
<path class="st11" d="M429.5,410.1c-44.5,0-80.5,36-80.5,80.5c0,44.5,36,80.5,80.5,80.5s80.5-36,80.5-80.5c0,0,0,0,0,0
	C510.1,446.1,474,410.1,429.5,410.1C429.6,410.1,429.6,410.1,429.5,410.1z M429.5,500.4c-5.5,0-9.9-4.4-9.9-9.9s4.4-9.9,9.9-9.9
	c5.5,0,9.9,4.4,9.9,9.9l0,0C439.4,496,435,500.4,429.5,500.4z"/>
<path class="st28" d="M455.3,499.4l-3.2,0.9l-1.7-2.3l-0.9-2.8c-0.2-1,0-2.1,0.4-3c0.1-0.2,0.1-0.4,0.2-0.6l1.4-2.1l-1.1-0.4
	c-2.9-1.2-6.1-1.9-9.3-1.8c-4.1,0.1-8.2,0.3-12.3,0.6c-2.6,0.2-5.2,0.6-7.7,1c-3.8,0.7-7.5,1.5-11.2,2.2c-3.5,0.8-7.1,1.3-10.7,1.4
	c-0.8-1.7,0.9-4.5,2.6-5.2c2.4,0.5,4.9,0.1,7-1.2l4-1.2l11.1-2c1.3-0.1,2.7-0.3,4-0.4c2.5-0.2,5.1-0.4,7.6-0.6l4.6-0.3
	c3.2-0.2,6.5,0.3,9.6,1.3c5.9,1.7,11.7,3.8,17.4,6.2v0.2h-0.3c-0.9,0.2-1.7,0.5-2.6,0.8c-0.8,0.4-1.6,0.8-2.3,1.3
	c-2.1,1.3-4.7,1.3-6.8,0c-1.3-0.7-1.3-0.7-2,0.6c-0.7,0.8-1.1,1.9-1.1,2.9C452.3,496.7,453.5,498.5,455.3,499.4z M459.5,489
	c-0.7,0-1.2,0.5-1.3,1.2c0,0.7,0.6,1.2,1.3,1.2c0.7,0,1.2-0.6,1.2-1.2C460.8,489.5,460.2,489,459.5,489
	C459.5,489,459.5,489,459.5,489z"/>
<path class="st29" d="M401.9,487.2c-1.7,0.7-3.4,3.5-2.6,5.2c0.3,0.6,0.6,1.2,0.9,1.8l1.4,1.5c-1.6,1.2-3.2,2.3-4.9,3.5
	c-2.2,1.6-4.9,2.4-7.6,2.3v-0.8c0.1,0,0.3-0.1,0.3-0.2c0.3-0.7,0.5-1.4,0.7-2.1c0.8-2.1,1.2-4.3,1.4-6.5c-0.1-3.3-0.8-6.6-2.1-9.7
	c0,0-0.2-0.1-0.3-0.1v-0.8c3.3,0,6.6,1.1,9.1,3.3C399.3,485.6,400.6,486.3,401.9,487.2z"/>
<path class="st30" d="M455.3,499.4c-1.9-0.9-3.1-2.7-3.4-4.8c0-1.1,0.4-2.1,1.1-2.9c0.7-1.2,0.8-1.3,2-0.6c2.1,1.3,4.7,1.3,6.8,0
	c0.7-0.5,1.5-0.9,2.3-1.3c0.8-0.3,1.7-0.6,2.6-0.8c-2.1,1-3.7,2.7-4.7,4.8h4.9v0.3c-0.2,0.1-0.5,0.2-0.7,0.3
	C463,496.6,459.3,498.3,455.3,499.4z"/>
<path class="st31" d="M435.5,481.7c-2.5,0.2-5.1,0.4-7.6,0.6c-1.3,0.1-2.7,0.3-4,0.4l-1.9-1.6l7.6-4.8L435.5,481.7z"/>
<path class="st32" d="M412.8,484.7l-4,1.2l-0.9-2.1C409.6,483.2,411.5,483.5,412.8,484.7z"/>
<path class="st33" d="M401.5,495.7l-1.4-1.5c0.3-0.1,0.5-0.1,0.8-0.2l6.6-0.2c0.9,0,1.7-0.1,2.6-0.2l5.5-0.6l5.2-0.5
	c1.7-0.2,3.5-0.4,5.2-0.6c1.7-0.2,3.7-0.3,5.5-0.5c2.6-0.2,5.2-0.5,7.8-0.6c3.6-0.2,7.3,0,10.9,0.6c0,0.2-0.1,0.4-0.2,0.6
	c-0.5,0.9-0.6,2-0.4,3h-9c-0.2,0-0.5,0-0.8,0c-0.6,0.2-0.7,0.6-0.3,1c0.2,0.3,0.5,0.5,0.9,0.7c1.6,0.9,3.1,2.1,5.1,1.8
	c1.7-0.3,3.4-0.6,5.1-0.9l1.7,2.3c-2.8,0.7-5.8,1.1-8.7,1.2c-4.7,0.1-9.4,0-14.1,0h-0.7l-2.2-0.1h-1.3l-2.5-0.4l-4.7-0.8
	c-3.3-0.8-6.5-1.9-9.6-3.4c-1.7-1.1-3.7-1.6-5.7-1.4C402.3,495.5,401.9,495.6,401.5,495.7z"/>
<path class="st34" d="M408.4,496.8c3.1,1.5,6.3,2.6,9.6,3.4c-1.7,1.6-3.7,2.8-5.9,3.7c-0.3,0.1-0.5,0-0.7-0.2
	c-1.6-1.9-3.1-3.9-4.7-5.9L408.4,496.8z"/>
<path class="st35" d="M425.1,501.4h1.3l2.2,0.1c-0.1,0.1-0.3,0.2-0.3,0.3c-0.6,2.4-2.6,4.3-5.1,4.8c-1.1-1.6-0.6-3.7,0.9-4.8
	C424.5,501.7,424.8,501.5,425.1,501.4z"/>
<path class="st36" d="M450.1,491.6c-3.6-0.6-7.2-0.8-10.9-0.6c-2.6,0.1-5.2,0.4-7.8,0.6c-1.8,0.1-3.7,0.3-5.5,0.5s-3.5,0.4-5.2,0.6
	l-5.2,0.5l-5.5,0.6c-0.8,0.1-1.7,0.2-2.6,0.2l-6.6,0.2c-0.3,0-0.5,0.1-0.8,0.2c-0.3-0.6-0.6-1.2-0.9-1.8c3.6-0.1,7.2-0.6,10.7-1.4
	c0.6,0,1.1,0,1.7,0c1.8-0.1,3.6-0.3,5.4-0.5l6.6-0.7c2.3-0.2,4.6-0.4,6.9-0.6c2.5-0.2,5.1-0.5,7.6-0.6s5.1,0,7.7,0
	c0.8,0,1.6,0.2,2.4,0.2l2.2,0.2l1.1,0.4L450.1,491.6z"/>
<path class="st37" d="M450.4,489l-2.2-0.2c-0.8-0.1-1.6-0.2-2.4-0.2c-2.5,0-5.1,0-7.7,0c-2.6,0-5.1,0.4-7.6,0.6
	c-2.3,0.2-4.6,0.4-6.9,0.6l-6.6,0.7c-1.8,0.2-3.6,0.3-5.4,0.5c-0.6,0-1.1,0-1.7,0c3.8-0.7,7.5-1.6,11.2-2.2c2.6-0.4,5.1-0.8,7.7-1
	c4.1-0.3,8.2-0.5,12.3-0.6C444.3,487.1,447.5,487.8,450.4,489z"/>
<path class="st38" d="M450.5,498c-1.7,0.3-3.4,0.6-5.1,0.9c-2,0.3-3.5-0.9-5.1-1.8c-0.3-0.2-0.6-0.4-0.9-0.7c-0.4-0.4-0.3-0.8,0.3-1
	c0.2,0,0.5,0,0.8,0h9.1C449.8,496.2,450.1,497.1,450.5,498z"/>
<path class="st39" d="M459.5,489c0.7,0,1.2,0.6,1.2,1.2c0,0,0,0,0,0c0,0.7-0.6,1.2-1.2,1.2c-0.7,0-1.2-0.6-1.3-1.2
	C458.3,489.5,458.8,489,459.5,489z"/>
<line class="st26" x1="334.9" y1="335.4" x2="429.5" y2="410"/>
<line class="st26" x1="429.5" y1="410" x2="163.4" y2="335.2"/>
<line class="st26" x1="243.9" y1="254.7" x2="259.2" y2="254.7"/>
<line class="st26" x1="259.2" y1="254.7" x2="255.7" y2="251.3"/>
<line class="st26" x1="255.9" y1="258" x2="259.2" y2="254.7"/>
<line class="st26" x1="429.5" y1="571" x2="429.5" y2="604.6"/>
<line class="st26" x1="429.4" y1="604.6" x2="432.9" y2="601.2"/>
<line class="st26" x1="426.2" y1="601.4" x2="429.4" y2="604.6"/>
<path class="st0" d="M429.5,605.1c-44.5,0-80.5,36-80.5,80.5c0,44.5,36,80.5,80.5,80.5s80.5-36,80.5-80.5c0,0,0,0,0,0
	C510.1,641.1,474,605.1,429.5,605.1C429.6,605.1,429.6,605.1,429.5,605.1z"/>
<line class="st26" x1="586.1" y1="589.5" x2="510" y2="490.5"/>
<line class="st26" x1="586.1" y1="589.5" x2="510" y2="686.9"/>
<path class="st11" d="M696.1,479.8c-60.5,0-109.6,49.1-109.6,109.6S635.5,699,696.1,699c60.5,0,109.6-49.1,109.6-109.6l0,0
	C805.6,528.9,756.6,479.8,696.1,479.8z"/>
<path class="st0" d="M1111.9,589.1c0,79.4-64.3,143.7-143.6,143.8c-79.4,0-143.7-64.3-143.8-143.6c0-79.4,64.3-143.7,143.6-143.8
	c0,0,0.1,0,0.1,0C1047.6,445.5,1111.9,509.8,1111.9,589.1z"/>
<path class="st5" d="M968.3,479.5c-60.5,0-109.6,49.1-109.6,109.6c0,60.5,49.1,109.6,109.6,109.6s109.6-49.1,109.6-109.6
	c0,0,0,0,0,0C1077.9,528.6,1028.8,479.5,968.3,479.5z"/>
<line class="st40" x1="805.7" y1="589.1" x2="824.5" y2="589.1"/>
<line class="st40" x1="824.5" y1="589.2" x2="821.6" y2="586.3"/>
<line class="st40" x1="821.5" y1="592.2" x2="824.5" y2="589.2"/>
<line class="st40" x1="1111.9" y1="588.9" x2="1136.1" y2="588.9"/>
<line class="st40" x1="1136.1" y1="589" x2="1133.2" y2="586.1"/>
<line class="st40" x1="1133" y1="592" x2="1136.1" y2="589"/>
<text transform="matrix(1 0 0 1 948.5301 474.2478)" class="st25 st41 st42">+2</text>
<path d="M1202.3,132.7c0.7,0.3,1.3,0.6,1.9,1c1.3,1.1,1.7,3,0.9,4.5c-0.9,1.9-3.2,2.6-5.1,1.7c-1.9-0.9-2.6-3.2-1.7-5.1
	c0.5-0.9,1.3-1.6,2.2-1.9l0.5-0.2H1202.3z"/>
<path d="M1227.6,132.7c0.2,0.1,0.3,0.1,0.5,0.2c1.8,0.6,3,2.4,2.6,4.3c-0.4,2.1-2.4,3.4-4.4,3c-2.1-0.4-3.4-2.4-3-4.4
	c0.3-1.4,1.3-2.6,2.7-2.9l0.4-0.2H1227.6z"/>
<path d="M1221.9,164V148c0-0.3,0.1-0.8-0.3-0.8s-0.4,0.5-0.4,0.8v11.2c0,0.9-0.7,1.7-1.6,1.7c-0.3,0-0.6-0.1-0.9-0.2
	c-0.6-0.3-0.9-0.9-0.8-1.5c0-4.7,0-9.4,0-14.2c0.1-1.6,1.3-2.8,2.8-3.2c0.4-0.1,0.7-0.1,1.1-0.2h10.4c1.3,0,2.6,0.6,3.3,1.7
	c0.5,0.6,0.7,1.4,0.6,2.1V159c0,1.4-1.1,2.3-2.3,1.8c-0.7-0.3-1.1-1-1.1-1.7v-7.9c0-1.1,0-2.1,0-3.2c0-0.3,0.1-0.7-0.4-0.7
	c-0.1,0-0.3,0.4-0.3,0.7c0,10.6,0,21.1,0,31.7c0.1,1.2-0.7,2.4-1.9,2.6c-1.3,0.3-2.5-0.6-2.8-1.8c0-0.1,0-0.2,0-0.3
	c0-0.2,0-0.4,0-0.6v-17.8c0-0.3,0.2-0.8-0.4-0.8s-0.3,0.5-0.3,0.9c0,6,0,12.1,0,18.1c0.1,1.3-0.9,2.5-2.2,2.6
	c-1.3,0.1-2.5-0.9-2.6-2.2c0-0.1,0-0.3,0-0.4L1221.9,164z"/>
<path d="M1206.8,164v15.8c0.1,1.3-0.8,2.5-2.1,2.6s-2.5-0.8-2.6-2.1c0-0.1,0-0.2,0-0.3c0-1.2,0-2.4,0-3.6c0-4.9,0-9.8,0-14.6
	c0-0.3,0.2-0.8-0.3-0.8s-0.4,0.5-0.4,0.8c0,6,0,12.1,0,18.1c0,1-0.6,1.9-1.5,2.3c-1,0.4-2.1,0.1-2.7-0.8c-0.3-0.5-0.5-1.2-0.5-1.8
	c0-9.2,0-18.4,0-27.7v-4c0-0.3,0.1-0.7-0.3-0.7c-0.4,0-0.4,0.4-0.4,0.7c0,3.7,0,7.4,0,11.1c0.1,0.8-0.4,1.6-1.2,1.8
	c-0.9,0.3-1.8-0.2-2-1.1c0,0,0-0.1,0-0.1c0-0.3,0-0.6,0-0.8v-13.2c-0.1-2,1.4-3.7,3.5-3.8c0.1,0,0.1,0,0.2,0c3.7-0.1,7.3-0.1,11,0
	c2.1,0.1,3.7,1.8,3.7,3.9c0,4.5,0,8.9,0,13.4c0,0.9-0.7,1.7-1.7,1.7s-1.7-0.7-1.7-1.7v-10.8c0-0.1,0-0.2,0-0.3
	c0-0.3,0.2-0.9-0.4-0.9c-0.6,0-0.3,0.6-0.3,0.9C1206.9,153.4,1206.8,158.7,1206.8,164z"/>
<path d="M1227.6,193.6c0.2,0,0.3,0.1,0.5,0.2c1.8,0.6,3,2.4,2.6,4.3c-0.4,2.1-2.4,3.4-4.4,3c-2.1-0.4-3.4-2.4-3-4.4
	c0.3-1.4,1.3-2.6,2.7-2.9l0.5-0.1H1227.6z"/>
<path d="M1202.3,193.6c0.7,0.3,1.3,0.6,1.9,1c1.3,1.1,1.7,3,0.9,4.5c-0.9,1.9-3.2,2.6-5.1,1.7c-1.9-0.9-2.6-3.2-1.7-5.1
	c0.5-0.9,1.3-1.6,2.2-1.9l0.5-0.2L1202.3,193.6z"/>
<path d="M1221.9,224.8v-15.9c0-0.3,0.1-0.8-0.3-0.8s-0.4,0.5-0.4,0.8v11.2c0,0.9-0.6,1.7-1.6,1.7c-0.3,0-0.6-0.1-0.9-0.2
	c-0.6-0.3-0.9-0.9-0.8-1.5c0-4.7,0-9.4,0-14.2c0.1-1.6,1.3-2.8,2.8-3.2c0.4-0.1,0.7-0.1,1.1-0.2h10.4c1.3,0,2.6,0.6,3.3,1.7
	c0.5,0.6,0.7,1.4,0.6,2.1v13.5c0,1.4-1.1,2.3-2.3,1.8c-0.7-0.3-1.1-0.9-1.1-1.7v-8c0-1.1,0-2.1,0-3.2c0-0.3,0.1-0.7-0.4-0.7
	c-0.1,0-0.3,0.5-0.3,0.7c0,10.6,0,21.1,0,31.7c0.1,1.2-0.7,2.4-1.9,2.6c-1.3,0.3-2.5-0.6-2.8-1.8c0-0.1,0-0.2,0-0.3
	c0-0.2,0-0.4,0-0.6v-17.7c0-0.3,0.2-0.8-0.4-0.8s-0.3,0.6-0.3,0.9c0,6,0,12.1,0,18.1c0.1,1.3-0.9,2.5-2.2,2.6
	c-1.3,0.1-2.5-0.9-2.6-2.2c0-0.1,0-0.3,0-0.4L1221.9,224.8z"/>
<path d="M1206.8,224.9v15.8c0.1,1.3-0.8,2.5-2.1,2.6c-1.3,0.1-2.5-0.8-2.6-2.1c0-0.1,0-0.2,0-0.3c0-1.2,0-2.4,0-3.6
	c0-4.9,0-9.8,0-14.7c0-0.3,0.2-0.8-0.3-0.8s-0.4,0.5-0.4,0.8c0,6,0,12.1,0,18.1c0,1-0.6,1.9-1.5,2.3c-1,0.4-2.1,0-2.7-0.8
	c-0.3-0.5-0.5-1.2-0.5-1.8c0-9.2,0-18.4,0-27.7v-4c0-0.3,0.1-0.7-0.3-0.7c-0.4,0-0.4,0.4-0.4,0.7c0,3.7,0,7.4,0,11.1
	c0.1,0.8-0.4,1.6-1.2,1.8c-0.9,0.3-1.8-0.2-2-1.1c0,0,0-0.1,0-0.1c0-0.3,0-0.6,0-0.8v-13.2c-0.1-2,1.4-3.7,3.5-3.8
	c0.1,0,0.1,0,0.2,0c3.7-0.1,7.3-0.1,11,0c2.1,0.1,3.7,1.8,3.7,3.9c0,4.5,0,8.9,0,13.4c0,0.9-0.7,1.7-1.7,1.7s-1.7-0.7-1.7-1.7v-10.8
	c0-0.1,0-0.2,0-0.3c0-0.3,0.2-0.9-0.4-0.9c-0.6,0-0.3,0.5-0.3,0.9C1206.9,214.2,1206.8,219.6,1206.8,224.9z"/>
<path d="M1227.6,248.3l0.5,0.2c1.8,0.6,3,2.4,2.6,4.3c-0.4,2.1-2.4,3.4-4.5,3c-2.1-0.4-3.4-2.4-3-4.5c0.3-1.4,1.3-2.5,2.7-2.9
	l0.4-0.1H1227.6z"/>
<path d="M1202.3,248.3c0.6,0.3,1.3,0.6,1.9,1c1.3,1.1,1.7,3,0.9,4.5c-0.8,1.6-2.6,2.4-4.3,2c-2-0.5-3.3-2.6-2.8-4.6
	c0.3-1.3,1.3-2.3,2.6-2.7l0.5-0.2L1202.3,248.3z"/>
<path d="M1221.9,279.6v-15.9c0-0.3,0.1-0.8-0.3-0.8s-0.4,0.5-0.4,0.8v11.2c0,0.9-0.7,1.7-1.6,1.7c-0.3,0-0.6-0.1-0.9-0.2
	c-0.6-0.3-0.9-0.9-0.8-1.5c0-4.7,0-9.5,0-14.2c0.1-1.6,1.3-2.8,2.8-3.1c0.4-0.1,0.7-0.2,1.1-0.2h10.4c1.3,0,2.6,0.6,3.3,1.7
	c0.5,0.6,0.7,1.4,0.6,2.1v13.5c0,1.4-1.1,2.3-2.3,1.8c-0.7-0.3-1.1-0.9-1.1-1.7v-8c0-1.1,0-2.1,0-3.2c0-0.3,0.1-0.7-0.4-0.7
	c-0.1,0-0.3,0.5-0.3,0.7c0,10.6,0,21.1,0,31.7c0.1,1.2-0.7,2.4-1.9,2.6c-1.3,0.3-2.5-0.6-2.8-1.8c0-0.1,0-0.2,0-0.2
	c0-0.2,0-0.4,0-0.6v-17.7c0-0.3,0.2-0.9-0.4-0.8c-0.5,0-0.3,0.5-0.3,0.9c0,6,0,12.1,0,18c0.1,1.3-0.9,2.5-2.2,2.6
	c-1.3,0.1-2.5-0.9-2.6-2.2c0-0.1,0-0.3,0-0.4L1221.9,279.6z"/>
<path d="M1206.8,279.6v15.9c0.1,1.3-0.8,2.5-2.1,2.6c-1.3,0.1-2.5-0.8-2.6-2.1c0-0.1,0-0.2,0-0.3c0-1.2,0-2.4,0-3.6
	c0-4.9,0-9.8,0-14.7c0-0.3,0.2-0.8-0.3-0.8s-0.4,0.5-0.4,0.8c0,6,0,12.1,0,18.1c0,1-0.6,1.9-1.5,2.3c-1,0.4-2.1,0.1-2.7-0.8
	c-0.3-0.5-0.5-1.1-0.5-1.8c0-9.2,0-18.4,0-27.7v-4c0-0.3,0.1-0.7-0.3-0.7c-0.4,0-0.4,0.4-0.4,0.7c0,3.7,0,7.4,0,11.1
	c0.1,0.9-0.6,1.7-1.5,1.8c-0.8,0.1-1.5-0.4-1.7-1.2c0-0.3,0-0.6,0-0.8v-13.2c-0.1-2,1.4-3.7,3.5-3.8c0.1,0,0.1,0,0.2,0
	c3.7-0.1,7.3-0.1,11,0c2.1,0.1,3.7,1.8,3.7,3.9c0,4.5,0,8.9,0,13.4c0.1,0.9-0.5,1.7-1.5,1.8c-0.3,0-0.5,0-0.8-0.1
	c-0.7-0.2-1.1-0.9-1.1-1.7v-10.8c0-0.1,0-0.2,0-0.3c0-0.3,0.2-0.9-0.4-0.9c-0.6,0-0.3,0.5-0.3,0.9
	C1206.8,269.1,1206.8,274.3,1206.8,279.6z"/>
<path d="M1227.6,303.1l0.5,0.2c1.8,0.6,3,2.4,2.6,4.3c-0.4,2.1-2.4,3.4-4.4,3s-3.4-2.4-3-4.4c0.3-1.4,1.3-2.6,2.8-3l0.5-0.1H1227.6z
	"/>
<path d="M1202.3,303.1c0.7,0.3,1.3,0.6,1.9,1c1.3,1.1,1.7,3,0.9,4.5c-0.9,1.9-3.2,2.6-5.1,1.7c-1.9-0.9-2.6-3.2-1.7-5.1
	c0.5-0.9,1.3-1.6,2.2-1.9l0.5-0.2L1202.3,303.1z"/>
<path d="M1221.9,334.4c0-5.3,0-10.6,0-15.9c0-0.3,0.2-0.8-0.3-0.8c-0.5,0-0.4,0.5-0.4,0.8c0,3.7,0,7.5,0,11.2
	c0.1,0.9-0.6,1.7-1.5,1.7c-0.3,0-0.7-0.1-0.9-0.2c-0.6-0.3-0.9-0.9-0.8-1.5c0-4.7,0-9.5,0-14.2c0.1-1.6,1.3-2.8,2.8-3.2
	c0.4-0.1,0.7-0.1,1.1-0.2h10.4c1.3,0,2.6,0.6,3.3,1.7c0.5,0.6,0.7,1.4,0.7,2.1c0,4.5,0,9.1,0,13.5c0,1.4-1.1,2.3-2.2,1.8
	c-0.7-0.3-1.1-0.9-1.1-1.7v-11.3c0-0.3,0-0.7-0.4-0.7c-0.1,0-0.3,0.5-0.3,0.7c0,10.6,0,21.1,0,31.7c0.1,1.2-0.7,2.4-1.9,2.6
	c-1.3,0.3-2.5-0.4-2.9-1.7c0-0.1,0-0.2-0.1-0.3c0-0.2,0-0.4,0-0.6v-17.8c0-0.3,0.2-0.8-0.4-0.8s-0.3,0.6-0.3,0.9v18.1
	c0.1,1.3-0.9,2.5-2.2,2.6c-1.3,0.1-2.5-0.9-2.6-2.2c0-0.1,0-0.3,0-0.4L1221.9,334.4z"/>
<path d="M1206.8,334.4v15.8c0.1,1.3-0.8,2.5-2.1,2.6c-1.3,0.1-2.5-0.8-2.6-2.1c0-0.1,0-0.2,0-0.3c0-1.2,0-2.4,0-3.6v-14.7
	c0-0.3,0.2-0.8-0.3-0.8s-0.3,0.5-0.4,0.8v18.1c0,1-0.6,1.9-1.5,2.3c-1,0.4-2,0-2.6-0.8c-0.3-0.5-0.5-1.2-0.5-1.8
	c0-9.2,0-18.4,0-27.7c0-1.3,0-2.7,0-4c0-0.3,0.1-0.7-0.3-0.7c-0.4,0-0.4,0.4-0.4,0.7v11.2c0.1,0.8-0.4,1.6-1.2,1.8
	c-0.9,0.3-1.8-0.2-2-1.1c0,0,0-0.1,0-0.1c0-0.3,0-0.6,0-0.8V316c-0.1-2,1.4-3.7,3.5-3.8c0.1,0,0.1,0,0.2,0c3.7-0.1,7.3-0.1,11,0
	c2.1,0.1,3.7,1.8,3.7,3.9c0,4.5,0,8.9,0,13.4c0.1,0.9-0.6,1.7-1.5,1.8c-0.3,0-0.5,0-0.8-0.1c-0.7-0.3-1.1-0.9-1.1-1.7
	c0-3.6,0-7.2,0-10.8c0-0.1,0-0.2,0-0.3c0-0.3,0.2-0.9-0.4-0.9c-0.6,0-0.3,0.5-0.3,0.9L1206.8,334.4z"/>
<path class="st11" d="M1230.7,365.1c-0.3,1.8-1.9,3.1-3.8,3.1v-7.6h0.7l0.5,0.2C1229.9,361.4,1231,363.2,1230.7,365.1z"/>
<path d="M1226.9,360.6v7.6c-2.1,0-3.8-1.8-3.7-3.9c0-1.7,1.2-3.2,2.8-3.6l0.4-0.1L1226.9,360.6z"/>
<path d="M1202.3,360.6c0.6,0.3,1.3,0.6,1.9,1c1.3,1.1,1.7,3,0.9,4.5c-0.8,1.6-2.6,2.4-4.3,2c-1.6-0.4-2.8-1.8-2.9-3.5
	c-0.1-1.7,1-3.3,2.7-3.8l0.5-0.2L1202.3,360.6z"/>
<path class="st11" d="M1236.1,373.5V387c0,1.4-1.1,2.3-2.3,1.8c-0.7-0.2-1.1-0.9-1.1-1.7v-11.3c0-0.3,0.1-0.7-0.4-0.7
	c-0.1,0-0.3,0.5-0.3,0.7v31.7c0.1,1.2-0.7,2.4-1.9,2.6c-1.3,0.3-2.5-0.5-2.8-1.8c0-0.1,0-0.2,0-0.3c0-0.2,0-0.4,0-0.7v-17.8
	c0-0.3,0.2-0.8-0.4-0.8v-19.1c1.7,0,3.4,0,5.2,0c1.3,0,2.5,0.6,3.3,1.6C1235.9,372,1236.2,372.8,1236.1,373.5z"/>
<path d="M1227,369.7v19.1c-0.5,0-0.3,0.5-0.3,0.9v18c0.1,1.3-0.9,2.5-2.2,2.6c-1.3,0.1-2.5-0.9-2.6-2.2c0-0.1,0-0.3,0-0.4v-15.9
	c0-5.3,0-10.6,0-15.9c0-0.3,0.2-0.8-0.3-0.8c-0.5,0-0.3,0.5-0.3,0.8c0,3.7,0,7.5,0,11.2c0,0.9-0.7,1.7-1.6,1.7
	c-0.3,0-0.6-0.1-0.9-0.2c-0.6-0.3-0.9-0.9-0.8-1.5c0-4.7,0-9.5,0-14.2c0.1-1.6,1.3-2.8,2.8-3.2c0.4-0.1,0.7-0.1,1.1-0.1
	C1223.4,369.7,1225.2,369.7,1227,369.7z"/>
<path d="M1206.8,391.9v15.9c0.1,1.3-0.8,2.5-2.1,2.6c-1.3,0.1-2.5-0.8-2.6-2.1c0-0.1,0-0.2,0-0.3c0-1.2,0-2.4,0-3.6
	c0-4.9,0-9.8,0-14.7c0-0.3,0.2-0.8-0.3-0.8s-0.4,0.5-0.4,0.8c0,6,0,12.1,0,18.1c0,1-0.6,1.9-1.5,2.3c-1,0.4-2.1,0-2.7-0.8
	c-0.3-0.5-0.5-1.1-0.5-1.8c0-9.2,0-18.4,0-27.7v-4c0-0.3,0.1-0.7-0.3-0.7c-0.4,0-0.4,0.4-0.4,0.7c0,3.7,0,7.4,0,11.1
	c0.1,0.9-0.6,1.7-1.5,1.8c-0.8,0.1-1.5-0.4-1.7-1.2c0-0.3,0-0.6,0-0.8v-13.2c-0.1-2,1.4-3.7,3.5-3.8c0.1,0,0.1,0,0.2,0
	c3.7-0.1,7.3,0,11,0c2.1,0.1,3.7,1.8,3.7,3.9c0,4.5,0,8.9,0,13.4c0.1,0.9-0.5,1.7-1.5,1.8c-0.3,0-0.5,0-0.8-0.1
	c-0.7-0.2-1.1-0.9-1.1-1.7v-10.8c0-0.1,0-0.2,0-0.3c0-0.3,0.2-0.9-0.4-0.9c-0.6,0-0.3,0.5-0.3,0.9
	C1206.9,381.3,1206.8,386.6,1206.8,391.9z"/>
<path class="st11" d="M1252.1,132.7c0.7,0.3,1.3,0.6,1.9,1c1.3,1.1,1.7,3,0.9,4.5c-0.9,1.9-3.2,2.6-5.1,1.7
	c-1.9-0.9-2.6-3.2-1.7-5.1c0.5-0.9,1.3-1.6,2.2-1.9l0.5-0.2H1252.1z"/>
<g class="st24">
	<path class="st25" d="M1277.4,132.7c0.2,0.1,0.3,0.1,0.5,0.2c2,0.6,3.2,2.7,2.6,4.7c-0.6,2-2.7,3.2-4.7,2.6c-2-0.6-3.2-2.7-2.6-4.7
		c0.4-1.2,1.3-2.2,2.6-2.6l0.4-0.2L1277.4,132.7z"/>
	<path class="st25" d="M1271.8,164V148c0-0.3,0.1-0.8-0.3-0.8c-0.5,0-0.4,0.5-0.4,0.8v11.2c0,0.9-0.7,1.7-1.6,1.7
		c-0.3,0-0.6-0.1-0.9-0.2c-0.6-0.3-0.9-0.9-0.9-1.5c0-4.7,0-9.4,0-14.2c0.1-1.6,1.3-2.8,2.8-3.2c0.4-0.1,0.7-0.1,1.1-0.2h10.4
		c1.3,0,2.6,0.6,3.3,1.7c0.5,0.6,0.7,1.4,0.6,2.1V159c0,1.4-1.1,2.3-2.2,1.8c-0.7-0.3-1.1-0.9-1.1-1.7c0-2.7,0-5.4,0-8
		c0-1.1,0-2.1,0-3.2c0-0.3,0.1-0.7-0.4-0.7c-0.1,0-0.3,0.4-0.3,0.7c0,10.6,0,21.1,0,31.7c0.1,1.2-0.7,2.4-1.9,2.6
		c-1.3,0.3-2.5-0.6-2.8-1.8c0-0.1,0-0.2,0-0.3c0-0.2,0-0.4,0-0.6c0-5.9,0-11.8,0-17.8c0-0.3,0.2-0.8-0.4-0.8s-0.3,0.5-0.3,0.9
		c0,6,0,12.1,0,18.1c0.1,1.3-0.9,2.5-2.2,2.6c-1.3,0.1-2.5-0.9-2.6-2.2c0-0.1,0-0.3,0-0.4L1271.8,164z"/>
</g>
<path class="st11" d="M1256.7,164v15.8c0.1,1.3-0.8,2.5-2.1,2.6s-2.5-0.8-2.6-2.1c0-0.1,0-0.2,0-0.3c0-1.2,0-2.4,0-3.6
	c0-4.9,0-9.8,0-14.6c0-0.3,0.2-0.8-0.3-0.8s-0.4,0.5-0.4,0.8c0,6,0,12.1,0,18.1c0,1-0.6,1.9-1.5,2.3c-1,0.4-2.1,0.1-2.7-0.8
	c-0.3-0.5-0.5-1.2-0.5-1.8c0-9.2,0-18.4,0-27.7v-4c0-0.3,0.1-0.7-0.3-0.7c-0.4,0-0.4,0.4-0.4,0.7v11.1c0.1,0.8-0.4,1.6-1.2,1.8
	c-0.9,0.3-1.8-0.2-2-1.1c0,0,0-0.1,0-0.1c0-0.3,0-0.6,0-0.8v-13.2c-0.1-2,1.4-3.7,3.5-3.8c0.1,0,0.1,0,0.2,0c3.7-0.1,7.3-0.1,11,0
	c2.1,0.1,3.7,1.8,3.7,3.9c0,4.5,0,8.9,0,13.4c0,0.9-0.7,1.7-1.7,1.7c-0.9,0-1.7-0.7-1.7-1.7v-10.8c0-0.1,0-0.2,0-0.3
	c0-0.3,0.2-0.9-0.4-0.9c-0.6,0-0.3,0.6-0.3,0.9C1256.7,153.4,1256.7,158.7,1256.7,164z"/>
<g class="st24">
	<path class="st25" d="M1252.1,193.6c0.2,0,0.3,0.1,0.5,0.2c1.8,0.6,3,2.4,2.6,4.3c-0.3,2.1-2.2,3.5-4.3,3.2
		c-1.7-0.2-3.1-1.6-3.2-3.4c-0.3-1.9,0.9-3.7,2.8-4.2l0.4-0.1H1252.1z"/>
	<path class="st25" d="M1246.5,224.8c0-5.3,0-10.6,0-15.9c0-0.3,0.2-0.8-0.3-0.8c-0.5,0-0.3,0.5-0.3,0.8c0,3.7,0,7.5,0,11.2
		c0.1,0.9-0.6,1.7-1.5,1.7c-0.3,0-0.7-0.1-0.9-0.2c-0.6-0.3-0.9-0.9-0.9-1.5c0-4.7,0-9.5,0-14.2c0.1-1.6,1.3-2.8,2.8-3.2
		c0.4-0.1,0.7-0.1,1.1-0.2h10.4c1.3,0,2.6,0.6,3.3,1.7c0.5,0.6,0.7,1.4,0.6,2.1v13.5c0,1.4-1.1,2.3-2.2,1.8
		c-0.7-0.3-1.1-0.9-1.1-1.7c0-2.7,0-5.4,0-8c0-1.1,0-2.1,0-3.2c0-0.3,0.1-0.7-0.4-0.7c-0.1,0-0.3,0.5-0.3,0.7c0,10.6,0,21.1,0,31.7
		c0.1,1.2-0.7,2.4-1.9,2.6c-1.3,0.3-2.5-0.6-2.8-1.8c0-0.1,0-0.2,0-0.3c0-0.2,0-0.4,0-0.6c0-5.9,0-11.8,0-17.8
		c0-0.3,0.2-0.8-0.4-0.8s-0.3,0.6-0.3,0.9c0,6,0,12.1,0,18.1c0.1,1.3-0.9,2.4-2.2,2.5c-0.3,0-0.5,0-0.8-0.1c-1-0.3-1.8-1.3-1.7-2.4
		L1246.5,224.8z"/>
</g>
<path class="st11" d="M1252.1,248.3c0.6,0.3,1.3,0.6,1.9,1c1.3,1.1,1.7,3,0.9,4.5c-0.8,1.6-2.6,2.4-4.3,2c-2-0.5-3.3-2.6-2.8-4.6
	c0.3-1.3,1.3-2.3,2.6-2.7l0.5-0.2L1252.1,248.3z"/>
<g class="st24">
	<path class="st25" d="M1277.4,248.3l0.5,0.2c2,0.6,3.1,2.7,2.6,4.7s-2.7,3.1-4.7,2.6c-2-0.6-3.1-2.7-2.6-4.7
		c0.4-1.2,1.3-2.2,2.6-2.6c0.2,0,0.3-0.1,0.4-0.1L1277.4,248.3z"/>
	<path class="st25" d="M1271.8,279.6v-15.9c0-0.3,0.1-0.8-0.3-0.8c-0.5,0-0.4,0.5-0.4,0.8v11.2c0,0.9-0.7,1.7-1.6,1.7
		c-0.3,0-0.6-0.1-0.9-0.2c-0.6-0.3-0.9-0.9-0.9-1.5c0-4.7,0-9.5,0-14.2c0.1-1.6,1.3-2.8,2.8-3.1c0.4-0.1,0.7-0.2,1.1-0.2h10.4
		c1.3,0,2.6,0.6,3.3,1.7c0.5,0.6,0.7,1.4,0.6,2.1v13.5c0,1.4-1.1,2.3-2.2,1.8c-0.7-0.2-1.1-0.9-1.1-1.7c0-2.7,0-5.4,0-8
		c0-1.1,0-2.1,0-3.2c0-0.3,0.1-0.7-0.4-0.7c-0.1,0-0.3,0.5-0.3,0.7c0,10.6,0,21.1,0,31.7c0.1,1.2-0.7,2.4-1.9,2.6
		c-1.3,0.3-2.5-0.6-2.8-1.8c0-0.1,0-0.2,0-0.2c0-0.2,0-0.4,0-0.6c0-5.9,0-11.8,0-17.8c0-0.3,0.2-0.9-0.4-0.8s-0.3,0.5-0.3,0.9
		c0,6,0,12.1,0,18c0.1,1.3-0.9,2.5-2.2,2.6c-1.3,0.1-2.5-0.9-2.6-2.2c0-0.1,0-0.3,0-0.4L1271.8,279.6z"/>
</g>
<path class="st11" d="M1256.7,279.6v15.9c0.1,1.3-0.8,2.5-2.1,2.6c-1.3,0.1-2.5-0.8-2.6-2.1c0-0.1,0-0.2,0-0.3c0-1.2,0-2.4,0-3.6
	c0-4.9,0-9.8,0-14.7c0-0.3,0.2-0.8-0.3-0.8s-0.4,0.5-0.4,0.8c0,6,0,12.1,0,18.1c0,1-0.6,1.9-1.5,2.3c-1,0.4-2.1,0.1-2.7-0.8
	c-0.3-0.5-0.5-1.1-0.5-1.8c0-9.2,0-18.4,0-27.7v-4c0-0.3,0.1-0.7-0.3-0.7c-0.4,0-0.4,0.4-0.4,0.7v11.1c0.1,0.9-0.4,1.7-1.3,1.9
	c-0.9,0.3-1.8-0.2-2-1.1c0,0,0-0.1,0-0.1c0-0.3,0-0.6,0-0.8v-13.2c-0.1-2,1.4-3.7,3.5-3.8c0.1,0,0.1,0,0.2,0c3.7-0.1,7.3-0.1,11,0
	c2.1,0.1,3.7,1.8,3.7,3.9c0,4.5,0,8.9,0,13.4c0.2,0.9-0.4,1.8-1.3,1.9c-0.4,0.1-0.7,0-1-0.1c-0.7-0.2-1.1-0.9-1.1-1.7v-10.9
	c0-0.1,0-0.2,0-0.3c0-0.3,0.2-0.9-0.4-0.9c-0.6,0-0.3,0.5-0.3,0.9C1256.7,269.1,1256.7,274.3,1256.7,279.6z"/>
<g class="st24">
	<path class="st25" d="M1277.4,193.6c0.2,0,0.3,0.1,0.5,0.2c1.8,0.6,3,2.4,2.6,4.3c-0.4,2.1-2.4,3.4-4.4,3c-2.1-0.4-3.4-2.4-3-4.4
		c0.3-1.4,1.3-2.6,2.7-2.9l0.5-0.1H1277.4z"/>
	<path class="st25" d="M1271.8,224.8v-15.9c0-0.3,0.1-0.8-0.3-0.8c-0.5,0-0.4,0.5-0.4,0.8v11.2c0.1,0.9-0.6,1.7-1.5,1.7
		c-0.3,0-0.7-0.1-0.9-0.2c-0.6-0.3-0.9-0.9-0.9-1.5c0-4.7,0-9.4,0-14.2c0.1-1.6,1.3-2.8,2.8-3.2c0.4-0.1,0.7-0.1,1.1-0.2h10.4
		c1.3,0,2.6,0.6,3.3,1.7c0.5,0.6,0.7,1.4,0.6,2.1v13.5c0,1.4-1.1,2.3-2.2,1.8c-0.7-0.3-1.1-0.9-1.1-1.7c0-2.7,0-5.4,0-8
		c0-1.1,0-2.1,0-3.2c0-0.3,0.1-0.7-0.4-0.7c-0.1,0-0.3,0.5-0.3,0.7c0,10.6,0,21.1,0,31.7c0.1,1.2-0.7,2.4-1.9,2.6
		c-1.3,0.3-2.5-0.6-2.8-1.8c0-0.1,0-0.2,0-0.3c0-0.2,0-0.4,0-0.6c0-5.9,0-11.8,0-17.8c0-0.3,0.2-0.8-0.4-0.8s-0.3,0.6-0.3,0.9
		c0,6,0,12.1,0,18.1c0.1,1.3-0.9,2.5-2.2,2.6c-1.3,0.1-2.5-0.9-2.6-2.2c0-0.1,0-0.3,0-0.4L1271.8,224.8z"/>
</g>
<g class="st24">
	<path class="st25" d="M1252.1,303.1c0.2,0,0.3,0.1,0.5,0.2c1.8,0.6,3,2.4,2.6,4.3c-0.3,2.1-2.2,3.5-4.3,3.2
		c-1.7-0.2-3.1-1.6-3.2-3.4c-0.3-2,1-3.8,2.9-4.2l0.4-0.1H1252.1z"/>
	<path class="st25" d="M1246.5,334.4c0-5.3,0-10.6,0-15.9c0-0.3,0.2-0.8-0.3-0.8c-0.5,0-0.3,0.5-0.3,0.8c0,3.7,0,7.5,0,11.2
		c0.1,0.9-0.6,1.7-1.5,1.7c-0.3,0-0.7-0.1-0.9-0.2c-0.6-0.3-0.9-0.9-0.9-1.5c0-4.7,0-9.5,0-14.2c0.1-1.6,1.3-2.8,2.8-3.2
		c0.4-0.1,0.7-0.1,1.1-0.2h10.4c1.3,0,2.6,0.6,3.3,1.7c0.5,0.6,0.7,1.4,0.6,2.1v13.5c0,1.4-1.1,2.3-2.2,1.8
		c-0.7-0.3-1.1-0.9-1.1-1.7c0-2.7,0-5.4,0-8c0-1.1,0-2.1,0-3.2c0-0.3,0.1-0.7-0.4-0.7c-0.1,0-0.3,0.5-0.3,0.7c0,10.6,0,21.1,0,31.7
		c0.1,1.2-0.7,2.4-1.9,2.6c-1.3,0.3-2.5-0.6-2.8-1.8c0-0.1,0-0.2,0-0.3c0-0.2,0-0.4,0-0.6c0-5.9,0-11.8,0-17.8
		c0-0.3,0.2-0.8-0.4-0.8s-0.3,0.6-0.3,0.9c0,6,0,12.1,0,18.1c0.1,1.3-0.9,2.4-2.2,2.5c-0.3,0-0.5,0-0.8-0.1c-1-0.3-1.8-1.3-1.7-2.4
		L1246.5,334.4z"/>
</g>
<path class="st11" d="M1252.1,357.8c0.6,0.3,1.3,0.6,1.9,1c1.3,1.1,1.7,3,0.9,4.5c-0.8,1.6-2.6,2.4-4.3,2c-2-0.5-3.3-2.6-2.8-4.6
	c0.3-1.3,1.3-2.3,2.6-2.7l0.5-0.2L1252.1,357.8z"/>
<g class="st24">
	<path class="st25" d="M1277.4,357.8l0.5,0.2c2,0.6,3.1,2.7,2.6,4.7s-2.7,3.1-4.7,2.6c-2-0.6-3.1-2.7-2.6-4.7
		c0.4-1.2,1.3-2.2,2.6-2.6c0.2,0,0.3-0.1,0.4-0.1L1277.4,357.8z"/>
	<path class="st25" d="M1271.8,389.1v-15.8c0-0.3,0.1-0.8-0.3-0.8c-0.5,0-0.4,0.5-0.4,0.8v11.2c0,0.9-0.7,1.7-1.6,1.7
		c-0.3,0-0.6-0.1-0.9-0.2c-0.6-0.3-0.9-0.9-0.9-1.5c0-4.7,0-9.5,0-14.2c0.1-1.6,1.3-2.8,2.8-3.1c0.4-0.1,0.7-0.2,1.1-0.2h10.4
		c1.3,0,2.6,0.6,3.3,1.7c0.5,0.6,0.7,1.4,0.6,2.1v13.5c0,1.4-1.1,2.3-2.2,1.8c-0.7-0.2-1.1-0.9-1.1-1.7c0-2.7,0-5.4,0-8
		c0-1.1,0-2.1,0-3.2c0-0.3,0.1-0.7-0.4-0.7c-0.1,0-0.3,0.5-0.3,0.7c0,10.6,0,21.1,0,31.7c0.1,1.2-0.7,2.4-1.9,2.6
		c-1.3,0.3-2.5-0.6-2.8-1.8c0-0.1,0-0.2,0-0.2c0-0.2,0-0.4,0-0.6c0-5.9,0-11.8,0-17.8c0-0.3,0.2-0.9-0.4-0.8c-0.5,0-0.3,0.5-0.3,0.9
		c0,6,0,12.1,0,18c0.1,1.3-0.9,2.5-2.2,2.6c-1.3,0.1-2.5-0.9-2.6-2.2c0-0.1,0-0.3,0-0.4L1271.8,389.1z"/>
</g>
<path class="st11" d="M1256.7,389.1V405c0.1,1.3-0.8,2.5-2.1,2.6c-1.3,0.1-2.5-0.8-2.6-2.1c0-0.1,0-0.2,0-0.3c0-1.2,0-2.4,0-3.6
	c0-4.9,0-9.8,0-14.7c0-0.3,0.2-0.8-0.3-0.8s-0.4,0.5-0.4,0.8c0,6,0,12.1,0,18.1c0,1-0.6,1.9-1.5,2.3c-1,0.4-2.1,0.1-2.7-0.8
	c-0.3-0.5-0.5-1.1-0.5-1.8c0-9.2,0-18.4,0-27.7v-4c0-0.3,0.1-0.7-0.3-0.7c-0.4,0-0.4,0.4-0.4,0.7v11.1c0.1,0.8-0.4,1.6-1.2,1.8
	c-0.9,0.3-1.8-0.2-2-1.1c0,0,0-0.1,0-0.1c0-0.3,0-0.6,0-0.8v-13.2c-0.1-2,1.4-3.7,3.5-3.8c0.1,0,0.1,0,0.2,0c3.7-0.1,7.3-0.1,11,0
	c2.1,0.1,3.7,1.8,3.7,3.9c0,4.5,0,8.9,0,13.4c0.1,0.9-0.5,1.7-1.5,1.8c-0.3,0-0.5,0-0.8-0.1c-0.7-0.2-1.1-0.9-1.1-1.7v-10.8
	c0-0.1,0-0.2,0-0.3c0-0.3,0.2-0.9-0.4-0.9c-0.6,0-0.3,0.5-0.3,0.9C1256.7,378.6,1256.7,383.8,1256.7,389.1z"/>
<g class="st24">
	<path class="st25" d="M1277.4,303.1c0.2,0,0.3,0.1,0.5,0.2c1.8,0.6,3,2.4,2.6,4.3c-0.4,2.1-2.4,3.4-4.4,3c-2.1-0.4-3.4-2.4-3-4.4
		c0.3-1.4,1.3-2.6,2.7-2.9l0.4-0.1H1277.4z"/>
	<path class="st25" d="M1271.8,334.4v-15.9c0-0.3,0.1-0.8-0.3-0.8c-0.5,0-0.4,0.5-0.4,0.8v11.2c0.1,0.9-0.6,1.7-1.5,1.7
		c-0.3,0-0.7-0.1-0.9-0.2c-0.6-0.3-0.9-0.9-0.9-1.5c0-4.7,0-9.5,0-14.2c0.1-1.6,1.3-2.8,2.8-3.2c0.4-0.1,0.7-0.1,1.1-0.2h10.4
		c1.3,0,2.6,0.6,3.3,1.7c0.5,0.6,0.7,1.4,0.6,2.1v13.5c0,1.4-1.1,2.3-2.2,1.8c-0.7-0.3-1.1-0.9-1.1-1.7c0-2.7,0-5.4,0-8
		c0-1.1,0-2.1,0-3.2c0-0.3,0.1-0.7-0.4-0.7c-0.1,0-0.3,0.5-0.3,0.7c0,10.6,0,21.1,0,31.7c0.1,1.2-0.7,2.4-1.9,2.6
		c-1.3,0.3-2.5-0.6-2.8-1.8c0-0.1,0-0.2,0-0.3c0-0.2,0-0.4,0-0.6c0-5.9,0-11.8,0-17.8c0-0.3,0.2-0.8-0.4-0.8s-0.3,0.6-0.3,0.9
		c0,6,0,12.1,0,18.1c0.1,1.3-0.9,2.5-2.2,2.6c-1.3,0.1-2.5-0.9-2.6-2.2c0-0.1,0-0.3,0-0.4L1271.8,334.4z"/>
</g>
<path class="st11" d="M1302.4,132.7c0.7,0.3,1.3,0.6,1.9,1c1.3,1.1,1.7,3,0.9,4.5c-0.9,1.9-3.2,2.6-5.1,1.7
	c-1.9-0.9-2.6-3.2-1.7-5.1c0.5-0.9,1.3-1.6,2.2-1.9l0.5-0.2H1302.4z"/>
<g class="st24">
	<path class="st25" d="M1327.6,132.7c0.2,0.1,0.3,0.1,0.5,0.2c2,0.6,3.2,2.7,2.6,4.7c-0.6,2-2.7,3.2-4.7,2.6c-2-0.6-3.2-2.7-2.6-4.7
		c0.4-1.2,1.3-2.2,2.6-2.6l0.5-0.2L1327.6,132.7z"/>
	<path class="st25" d="M1321.9,164V148c0-0.3,0.1-0.8-0.3-0.8s-0.4,0.5-0.4,0.8v11.2c0,0.9-0.7,1.7-1.6,1.7c-0.3,0-0.6-0.1-0.9-0.2
		c-0.6-0.3-0.9-0.9-0.8-1.5c0-4.7,0-9.4,0-14.2c0.1-1.6,1.3-2.9,2.8-3.2c0.4-0.1,0.7-0.1,1.1-0.2h10.4c1.3,0,2.6,0.6,3.3,1.7
		c0.5,0.6,0.7,1.4,0.6,2.1V159c0,1.4-1.1,2.3-2.3,1.8c-0.7-0.3-1.1-1-1.1-1.7v-7.9c0-1.1,0-2.1,0-3.2c0-0.3,0.1-0.7-0.4-0.7
		c-0.1,0-0.3,0.4-0.3,0.7c0,10.6,0,21.1,0,31.7c0.1,1.2-0.7,2.4-1.9,2.6c-1.3,0.3-2.5-0.6-2.8-1.8c0-0.1,0-0.2,0-0.3
		c0-0.2,0-0.4,0-0.6v-17.8c0-0.3,0.2-0.8-0.4-0.8s-0.3,0.5-0.3,0.9c0,6,0,12.1,0,18.1c0.1,1.3-0.9,2.5-2.2,2.6
		c-1.3,0.1-2.5-0.9-2.6-2.2c0-0.1,0-0.3,0-0.4L1321.9,164z"/>
</g>
<path class="st11" d="M1306.9,164v15.8c0.1,1.3-0.8,2.5-2.1,2.6s-2.5-0.8-2.6-2.1c0-0.1,0-0.2,0-0.3c0-1.2,0-2.4,0-3.6
	c0-4.9,0-9.8,0-14.6c0-0.3,0.2-0.8-0.3-0.8s-0.3,0.5-0.3,0.8c0,6,0,12.1,0,18.1c0,1-0.6,1.9-1.5,2.3c-1,0.4-2.1,0.1-2.7-0.8
	c-0.3-0.5-0.5-1.2-0.5-1.8c0-9.2,0-18.4,0-27.7v-4c0-0.3,0.1-0.7-0.3-0.7c-0.4,0-0.4,0.4-0.4,0.7c0,3.7,0,7.4,0,11.1
	c0.1,0.8-0.4,1.6-1.2,1.8c-0.9,0.3-1.8-0.2-2-1.1c0,0,0-0.1,0-0.1c0-0.3,0-0.6,0-0.8v-13.2c-0.1-2,1.4-3.7,3.5-3.8
	c0.1,0,0.1,0,0.2,0c3.7-0.1,7.3-0.1,11,0c2.1,0.1,3.7,1.8,3.7,3.9c0,4.5,0,8.9,0,13.4c0,0.9-0.7,1.7-1.7,1.7c-0.9,0-1.7-0.7-1.7-1.7
	v-10.8c0-0.1,0-0.2,0-0.3c0-0.3,0.2-0.9-0.4-0.9c-0.6,0-0.3,0.6-0.3,0.9C1307,153.4,1306.9,158.7,1306.9,164z"/>
<g class="st24">
	<path class="st25" d="M1302.4,193.6c0.2,0,0.3,0.1,0.5,0.2c2,0.6,3.1,2.8,2.5,4.8c-0.5,1.6-2,2.6-3.6,2.6c-2.1,0.2-4-1.3-4.2-3.4
		c-0.2-2,1.2-3.9,3.3-4.2l0.4-0.1L1302.4,193.6z"/>
	<path class="st25" d="M1296.7,224.8v-15.9c0-0.3,0.1-0.8-0.3-0.8c-0.5,0-0.4,0.5-0.4,0.8v11.2c0.1,0.9-0.6,1.7-1.5,1.7
		c-0.3,0-0.7-0.1-0.9-0.2c-0.6-0.3-0.9-0.9-0.9-1.5c0-4.7,0-9.4,0-14.2c0.1-1.6,1.3-2.8,2.8-3.2c0.4-0.1,0.7-0.1,1.1-0.2h10.4
		c1.3,0,2.6,0.6,3.3,1.7c0.5,0.6,0.7,1.4,0.6,2.1v13.5c0,1.4-1.1,2.3-2.2,1.8c-0.7-0.3-1.1-0.9-1.1-1.7c0-2.7,0-5.4,0-8
		c0-1.1,0-2.1,0-3.2c0-0.3,0.1-0.7-0.4-0.7c-0.1,0-0.3,0.5-0.3,0.7c0,10.6,0,21.1,0,31.7c0.1,1.2-0.7,2.4-1.9,2.6
		c-1.3,0.3-2.5-0.6-2.8-1.8c0-0.1,0-0.2,0-0.3c0-0.2,0-0.4,0-0.6c0-5.9,0-11.8,0-17.8c0-0.3,0.2-0.8-0.4-0.8s-0.3,0.6-0.3,0.9
		c0,6,0,12.1,0,18.1c0.1,1.3-0.9,2.5-2.2,2.6c-1.3,0.1-2.5-0.9-2.6-2.2c0-0.1,0-0.3,0-0.4L1296.7,224.8z"/>
</g>
<path class="st11" d="M1302.4,248.3c0.6,0.3,1.3,0.6,1.9,1c1.3,1.1,1.7,3,0.9,4.5c-0.8,1.6-2.6,2.4-4.3,2c-2-0.5-3.3-2.6-2.8-4.6
	c0.3-1.3,1.3-2.3,2.6-2.7l0.5-0.2L1302.4,248.3z"/>
<g class="st24">
	<path class="st25" d="M1327.6,248.3l0.5,0.2c2,0.6,3.1,2.7,2.5,4.7c-0.5,1.6-2,2.7-3.7,2.7c-2.1,0.2-4-1.3-4.2-3.4
		c-0.2-2,1.2-3.9,3.3-4.2l0.5-0.1L1327.6,248.3z"/>
	<path class="st25" d="M1321.9,279.6v-15.9c0-0.3,0.1-0.8-0.3-0.8s-0.4,0.5-0.4,0.8v11.2c0,0.9-0.7,1.7-1.6,1.7
		c-0.3,0-0.6-0.1-0.9-0.2c-0.6-0.3-0.9-0.9-0.8-1.5c0-4.7,0-9.5,0-14.2c0.1-1.6,1.3-2.8,2.8-3.1c0.4-0.1,0.7-0.2,1.1-0.2h10.4
		c1.3,0,2.6,0.6,3.3,1.7c0.5,0.6,0.7,1.4,0.6,2.1v13.5c0,1.4-1.1,2.3-2.3,1.8c-0.7-0.3-1.1-0.9-1.1-1.7v-8c0-1.1,0-2.1,0-3.2
		c0-0.3,0.1-0.7-0.4-0.7c-0.1,0-0.3,0.5-0.3,0.7c0,10.6,0,21.1,0,31.7c0.1,1.2-0.7,2.4-1.9,2.6c-1.3,0.3-2.5-0.5-2.8-1.8
		c0-0.1,0-0.2,0-0.3c0-0.2,0-0.4,0-0.6v-17.7c0-0.3,0.2-0.9-0.4-0.8c-0.5,0-0.3,0.5-0.3,0.9c0,6,0,12.1,0,18
		c0.1,1.3-0.9,2.5-2.2,2.6c-1.3,0.1-2.5-0.9-2.6-2.2c0-0.1,0-0.3,0-0.4L1321.9,279.6z"/>
</g>
<path class="st11" d="M1306.9,279.6v15.9c0.1,1.3-0.8,2.5-2.1,2.6c-1.3,0.1-2.5-0.8-2.6-2.1c0-0.1,0-0.2,0-0.3c0-1.2,0-2.4,0-3.6
	c0-4.9,0-9.8,0-14.7c0-0.3,0.2-0.8-0.3-0.8s-0.3,0.5-0.3,0.8c0,6,0,12.1,0,18.1c0,1-0.6,1.9-1.5,2.3c-1,0.4-2.1,0.1-2.7-0.8
	c-0.3-0.5-0.5-1.1-0.5-1.8c0-9.2,0-18.4,0-27.7v-4c0-0.3,0.1-0.7-0.3-0.7c-0.4,0-0.4,0.4-0.4,0.7c0,3.7,0,7.4,0,11.1
	c0.1,0.8-0.4,1.6-1.2,1.8c-0.9,0.3-1.8-0.2-2-1.1c0,0,0-0.1,0-0.1c0-0.3,0-0.6,0-0.8v-13.2c-0.1-2,1.4-3.7,3.5-3.8
	c0.1,0,0.1,0,0.2,0c3.7-0.1,7.3-0.1,11,0c2.1,0.1,3.7,1.8,3.7,3.9c0,4.5,0,8.9,0,13.4c0.1,0.9-0.5,1.7-1.5,1.8c-0.3,0-0.5,0-0.8-0.1
	c-0.7-0.2-1.1-0.9-1.1-1.7v-10.8c0-0.1,0-0.2,0-0.3c0-0.3,0.2-0.9-0.4-0.9c-0.6,0-0.3,0.5-0.3,0.9
	C1306.9,269.1,1306.9,274.3,1306.9,279.6z"/>
<g class="st24">
	<path class="st25" d="M1327.6,193.6c0.2,0.1,0.3,0.1,0.5,0.2c2,0.6,3.1,2.8,2.5,4.8c-0.5,1.6-2,2.7-3.6,2.6c-2.1,0.2-4-1.3-4.2-3.4
		c-0.2-2,1.2-3.9,3.3-4.2l0.5-0.1L1327.6,193.6z"/>
	<path class="st25" d="M1321.9,224.8v-15.9c0-0.3,0.1-0.8-0.3-0.8s-0.4,0.5-0.4,0.8v11.2c0,0.9-0.6,1.7-1.6,1.7
		c-0.3,0-0.6-0.1-0.9-0.2c-0.6-0.3-0.9-0.9-0.8-1.5c0-4.7,0-9.4,0-14.2c0.1-1.6,1.3-2.9,2.8-3.2c0.4-0.1,0.7-0.1,1.1-0.2h10.4
		c1.3,0,2.6,0.6,3.3,1.7c0.5,0.6,0.7,1.4,0.6,2.1v13.5c0,1.4-1.1,2.3-2.3,1.8c-0.7-0.3-1.1-0.9-1.1-1.7v-8c0-1.1,0-2.1,0-3.2
		c0-0.3,0.1-0.7-0.4-0.7c-0.1,0-0.3,0.5-0.3,0.7c0,10.6,0,21.1,0,31.7c0.1,1.2-0.7,2.4-1.9,2.6c-1.3,0.3-2.5-0.6-2.8-1.8
		c0-0.1,0-0.2,0-0.3c0-0.2,0-0.4,0-0.6v-17.7c0-0.3,0.2-0.8-0.4-0.8s-0.3,0.6-0.3,0.9c0,6,0,12.1,0,18.1c0.1,1.3-0.9,2.5-2.2,2.6
		c-1.3,0.1-2.5-0.9-2.6-2.2c0-0.1,0-0.3,0-0.4L1321.9,224.8z"/>
</g>
<g class="st24">
	<path class="st25" d="M1302.4,303.1c0.2,0,0.3,0.1,0.5,0.2c2,0.6,3.1,2.8,2.5,4.8c-0.5,1.6-2,2.6-3.6,2.6c-2.1,0-3.8-1.8-3.8-3.9
		c0-1.7,1.2-3.2,2.8-3.6l0.4-0.1H1302.4z"/>
	<path class="st25" d="M1296.7,334.4v-15.9c0-0.3,0.1-0.8-0.3-0.8c-0.5,0-0.4,0.5-0.4,0.8v11.2c0.1,0.9-0.6,1.7-1.5,1.7
		c-0.3,0-0.7-0.1-0.9-0.2c-0.6-0.3-0.9-0.9-0.9-1.5c0-4.7,0-9.5,0-14.2c0.1-1.6,1.3-2.8,2.8-3.2c0.4-0.1,0.7-0.1,1.1-0.2h10.4
		c1.3,0,2.6,0.6,3.3,1.7c0.5,0.6,0.7,1.4,0.6,2.1v13.5c0,1.4-1.1,2.3-2.2,1.8c-0.7-0.3-1.1-0.9-1.1-1.7c0-2.7,0-5.4,0-8
		c0-1.1,0-2.1,0-3.2c0-0.3,0.1-0.7-0.4-0.7c-0.1,0-0.3,0.5-0.3,0.7c0,10.6,0,21.1,0,31.7c0.1,1.2-0.7,2.4-1.9,2.6
		c-1.3,0.3-2.5-0.6-2.8-1.8c0-0.1,0-0.2,0-0.3c0-0.2,0-0.4,0-0.6c0-5.9,0-11.8,0-17.8c0-0.3,0.2-0.8-0.4-0.8s-0.3,0.6-0.3,0.9
		c0,6,0,12.1,0,18.1c0.1,1.3-0.9,2.5-2.2,2.6c-1.3,0.1-2.5-0.9-2.6-2.2c0-0.1,0-0.3,0-0.4L1296.7,334.4z"/>
</g>
<path class="st11" d="M1302.4,357.8c0.6,0.3,1.3,0.6,1.9,1c1.3,1.1,1.7,3,0.9,4.5c-0.8,1.6-2.6,2.4-4.3,2c-2-0.5-3.3-2.6-2.8-4.6
	c0.3-1.3,1.3-2.3,2.6-2.7l0.5-0.2L1302.4,357.8z"/>
<g class="st24">
	<path class="st25" d="M1327.6,357.8l0.5,0.2c2,0.6,3.1,2.7,2.5,4.7c-0.5,1.6-2,2.7-3.7,2.7c-2.1,0-3.8-1.8-3.8-3.9
		c0-1.7,1.2-3.2,2.8-3.6l0.5-0.1H1327.6z"/>
	<path class="st25" d="M1321.9,389.1v-15.8c0-0.3,0.1-0.8-0.3-0.8s-0.4,0.5-0.4,0.8v11.2c0,0.9-0.7,1.7-1.6,1.7
		c-0.3,0-0.6-0.1-0.9-0.2c-0.6-0.3-0.9-0.9-0.8-1.5c0-4.7,0-9.5,0-14.2c0.1-1.6,1.3-2.8,2.8-3.1c0.4-0.1,0.7-0.2,1.1-0.2h10.4
		c1.3,0,2.6,0.6,3.3,1.7c0.5,0.6,0.7,1.4,0.6,2.1v13.5c0,1.4-1.1,2.3-2.3,1.8c-0.7-0.3-1.1-0.9-1.1-1.7v-8.1c0-1.1,0-2.1,0-3.2
		c0-0.3,0.1-0.7-0.4-0.7c-0.1,0-0.3,0.5-0.3,0.7c0,10.6,0,21.1,0,31.7c0.1,1.2-0.7,2.4-1.9,2.6c-1.3,0.3-2.5-0.5-2.8-1.8
		c0-0.1,0-0.2,0-0.3c0-0.2,0-0.4,0-0.6v-17.7c0-0.3,0.2-0.9-0.4-0.8s-0.3,0.5-0.3,0.9c0,6,0,12.1,0,18c0.1,1.3-0.9,2.5-2.2,2.6
		c-1.3,0.1-2.5-0.9-2.6-2.2c0-0.1,0-0.3,0-0.4L1321.9,389.1z"/>
</g>
<path class="st11" d="M1306.9,389.1V405c0.1,1.3-0.8,2.5-2.1,2.6c-1.3,0.1-2.5-0.8-2.6-2.1c0-0.1,0-0.2,0-0.3c0-1.2,0-2.4,0-3.6
	c0-4.9,0-9.8,0-14.7c0-0.3,0.2-0.8-0.3-0.8s-0.3,0.5-0.3,0.8c0,6,0,12.1,0,18.1c0,1-0.6,1.9-1.5,2.3c-1,0.4-2.1,0.1-2.7-0.8
	c-0.3-0.5-0.5-1.1-0.5-1.8c0-9.2,0-18.4,0-27.7v-4c0-0.3,0.1-0.7-0.3-0.7c-0.4,0-0.4,0.4-0.4,0.7c0,3.7,0,7.4,0,11.1
	c0.1,0.8-0.4,1.6-1.2,1.8c-0.9,0.3-1.8-0.2-2-1.1c0,0,0-0.1,0-0.1c0-0.3,0-0.6,0-0.8v-13.2c-0.1-2,1.4-3.7,3.5-3.8
	c0.1,0,0.1,0,0.2,0c3.7-0.1,7.3-0.1,11,0c2.1,0.1,3.7,1.8,3.7,3.9c0,4.5,0,8.9,0,13.4c0.1,0.9-0.5,1.7-1.5,1.8c-0.3,0-0.5,0-0.8-0.1
	c-0.7-0.2-1.1-0.9-1.1-1.7v-10.8c0-0.1,0-0.2,0-0.3c0-0.3,0.2-0.9-0.4-0.9c-0.6,0-0.3,0.5-0.3,0.9
	C1306.9,378.6,1306.9,383.8,1306.9,389.1z"/>
<g class="st24">
	<path class="st25" d="M1327.6,303.1c0.2,0.1,0.3,0.1,0.5,0.2c2,0.6,3.1,2.8,2.5,4.8c-0.5,1.6-2,2.7-3.6,2.6c-2.1,0-3.8-1.8-3.8-3.9
		c0-1.7,1.2-3.2,2.8-3.6l0.5-0.1H1327.6z"/>
	<path class="st25" d="M1321.9,334.4v-15.9c0-0.3,0.1-0.8-0.3-0.8c-0.5,0-0.4,0.5-0.4,0.8v11.2c0,0.9-0.6,1.7-1.6,1.7
		c-0.3,0-0.6-0.1-0.9-0.2c-0.6-0.3-0.9-0.9-0.8-1.5c0-4.7,0-9.5,0-14.2c0.1-1.6,1.3-2.9,2.8-3.2c0.4-0.1,0.7-0.1,1.1-0.2h10.4
		c1.3,0,2.6,0.6,3.3,1.7c0.5,0.6,0.7,1.4,0.6,2.1v13.5c0,1.4-1.1,2.3-2.3,1.8c-0.7-0.3-1.1-0.9-1.1-1.7v-8c0-1.1,0-2.1,0-3.2
		c0-0.3,0.1-0.7-0.4-0.7c-0.1,0-0.3,0.5-0.3,0.7c0,10.6,0,21.1,0,31.7c0.1,1.2-0.7,2.4-1.9,2.6c-1.3,0.3-2.5-0.6-2.8-1.8
		c0-0.1,0-0.2,0-0.3c0-0.2,0-0.4,0-0.6v-17.8c0-0.3,0.2-0.8-0.4-0.8s-0.3,0.6-0.3,0.9c0,6,0,12.1,0,18.1c0.1,1.3-0.9,2.5-2.2,2.6
		c-1.3,0.1-2.5-0.9-2.6-2.2c0-0.1,0-0.3,0-0.4L1321.9,334.4z"/>
</g>
<path class="st11" d="M1353.2,132.7c0.7,0.3,1.3,0.6,1.9,1c1.3,1.1,1.7,3,0.9,4.5c-0.9,1.9-3.2,2.6-5.1,1.7
	c-1.9-0.9-2.6-3.2-1.7-5.1c0.5-0.9,1.3-1.6,2.2-1.9l0.5-0.2H1353.2z"/>
<g class="st24">
	<path class="st25" d="M1378.5,132.7c0.2,0.1,0.3,0.1,0.5,0.2c2,0.6,3.2,2.7,2.6,4.7c-0.6,2-2.7,3.2-4.7,2.6c-2-0.6-3.2-2.7-2.6-4.7
		c0.4-1.2,1.3-2.2,2.6-2.6l0.5-0.2L1378.5,132.7z"/>
	<path class="st25" d="M1372.7,164V148c0-0.3,0.1-0.8-0.3-0.8s-0.4,0.5-0.4,0.8v11.2c0,0.9-0.7,1.7-1.6,1.7c-0.3,0-0.6-0.1-0.9-0.2
		c-0.6-0.3-0.9-0.9-0.8-1.5c0-4.7,0-9.5,0-14.2c0.1-1.6,1.3-2.8,2.8-3.2c0.4-0.1,0.7-0.1,1.1-0.2h10.4c1.3,0,2.6,0.6,3.3,1.7
		c0.5,0.6,0.7,1.4,0.6,2.1c0,4.5,0,9,0,13.5c0,1.4-1.1,2.3-2.2,1.8c-0.7-0.3-1.1-1-1.1-1.7v-11.3c0-0.3,0.1-0.7-0.4-0.7
		c-0.1,0-0.3,0.4-0.3,0.7c0,10.6,0,21.1,0,31.7c0.1,1.2-0.7,2.4-1.9,2.6c-1.3,0.3-2.5-0.6-2.8-1.8c0-0.1,0-0.2,0-0.3
		c0-0.2,0-0.4,0-0.6v-17.6c0-0.3,0.2-0.8-0.4-0.8s-0.3,0.5-0.3,0.9c0,6,0,12.1,0,18.1c0.1,1.3-0.9,2.5-2.2,2.6
		c-1.3,0.1-2.5-0.9-2.6-2.2c0-0.1,0-0.3,0-0.4L1372.7,164z"/>
</g>
<path class="st11" d="M1357.7,164v15.8c0.1,1.3-0.8,2.5-2.1,2.6s-2.5-0.8-2.6-2.1c0-0.1,0-0.2,0-0.3c0-1.2,0-2.4,0-3.6
	c0-4.9,0-9.8,0-14.6c0-0.3,0.2-0.8-0.3-0.8s-0.3,0.5-0.3,0.8c0,6,0,12.1,0,18.1c0,1-0.6,1.9-1.5,2.3c-1,0.4-2.1,0.1-2.6-0.8
	c-0.3-0.5-0.5-1.2-0.5-1.8c0-9.2,0-18.4,0-27.7c0-1.3,0-2.7,0-4c0-0.3,0.1-0.7-0.3-0.7c-0.4,0-0.4,0.4-0.4,0.7c0,3.7,0,7.4,0,11.1
	c0.1,0.8-0.4,1.6-1.2,1.8c-0.9,0.3-1.8-0.2-2-1.1c0,0,0-0.1,0-0.1c0-0.3,0-0.6,0-0.8v-13.2c-0.1-2,1.4-3.7,3.5-3.8
	c0.1,0,0.1,0,0.2,0c3.7-0.1,7.3-0.1,11,0c2.1,0.1,3.7,1.8,3.7,3.9c0,4.5,0,8.9,0,13.4c0,0.9-0.7,1.7-1.7,1.7s-1.7-0.7-1.7-1.7v-10.8
	c0-0.1,0-0.2,0-0.3c0-0.3,0.2-0.9-0.4-0.9c-0.6,0-0.3,0.6-0.3,0.9L1357.7,164z"/>
<path d="M1164.2,321.3c0.5,0.2,1,0.4,1.4,0.7c1,0.8,1.3,2.3,0.7,3.4c-0.6,1.2-1.9,1.8-3.2,1.5c-1.2-0.3-2.1-1.4-2.2-2.7
	c-0.1-1.3,0.8-2.5,2.1-2.9l0.4-0.1L1164.2,321.3z"/>
<path d="M1167.6,345v12c0.1,1-0.6,1.9-1.6,2c-1,0.1-1.9-0.6-2-1.6c0-0.1,0-0.2,0-0.3c0-0.9,0-1.8,0-2.7c0-3.7,0-7.4,0-11.1
	c0-0.2,0.1-0.6-0.3-0.6c-0.4,0-0.3,0.4-0.3,0.6c0,4.6,0,9.1,0,13.7c0,0.8-0.4,1.5-1.1,1.7c-0.7,0.3-1.6,0-2-0.6
	c-0.2-0.4-0.4-0.9-0.4-1.3c0-7,0-13.9,0-20.9v-3.1c0-0.2,0.1-0.5-0.2-0.5c-0.3,0-0.3,0.3-0.3,0.6v8.4c0.1,0.6-0.3,1.2-0.9,1.4
	c-0.7,0.2-1.3-0.2-1.5-0.8c0,0,0-0.1,0-0.1c0-0.2,0-0.4,0-0.6v-10c-0.1-1.5,1.1-2.8,2.6-2.9c0,0,0.1,0,0.1,0c2.8-0.1,5.5,0,8.3,0
	c1.6,0.1,2.8,1.4,2.8,2.9c0,3.4,0,6.8,0,10.1c0.1,0.7-0.4,1.3-1.1,1.4c-0.2,0-0.4,0-0.6-0.1c-0.5-0.2-0.9-0.7-0.8-1.3v-8.2
	c0-0.1,0-0.2,0-0.2c0-0.3,0.1-0.7-0.3-0.7c-0.4,0-0.3,0.4-0.3,0.7C1167.7,337,1167.6,341,1167.6,345z"/>
<g class="st24">
	<path class="st25" d="M1164.2,370.8l0.4,0.1c1.4,0.4,2.2,1.8,2,3.3c-0.3,1.6-1.8,2.6-3.4,2.3c-1.6-0.3-2.6-1.8-2.3-3.4
		c0.2-1.1,1-1.9,2-2.2l0.3-0.1H1164.2z"/>
	<path class="st25" d="M1159.9,394.5v-12c0-0.2,0.1-0.6-0.3-0.6c-0.4,0-0.3,0.4-0.3,0.6v8.5c0,0.7-0.5,1.3-1.2,1.3
		c-0.2,0-0.5,0-0.7-0.2c-0.4-0.2-0.7-0.7-0.6-1.1c0-3.6,0-7.2,0-10.7c0.1-1.2,1-2.1,2.1-2.4c0.3-0.1,0.6-0.1,0.8-0.1h7.8
		c1,0,1.9,0.5,2.5,1.3c0.3,0.5,0.5,1,0.5,1.6v10.2c0,1.1-0.8,1.7-1.7,1.4c-0.5-0.2-0.8-0.7-0.8-1.3v-6.1c0-0.8,0-1.6,0-2.4
		c0-0.2,0.1-0.5-0.3-0.5c-0.1,0-0.2,0.3-0.2,0.5c0,8,0,16,0,24c0.1,0.9-0.5,1.8-1.5,2c-1,0.2-1.9-0.4-2.1-1.4c0-0.1,0-0.1,0-0.2
		c0-0.2,0-0.3,0-0.5v-13.4c0-0.3,0.1-0.7-0.3-0.6c-0.4,0-0.3,0.4-0.3,0.7c0,4.6,0,9.1,0,13.6c0.1,1-0.7,1.9-1.7,1.9
		c-1,0.1-1.9-0.7-1.9-1.7c0-0.1,0-0.2,0-0.3L1159.9,394.5z"/>
</g>
<path class="st11" d="M1390,587.6c0,60.5-49.1,109.6-109.6,109.6s-109.6-49.1-109.6-109.6c0-60.5,49.1-109.6,109.6-109.6
	C1340.9,478,1390,527,1390,587.6C1390,587.6,1390,587.6,1390,587.6z"/>
<rect x="101.2" y="273.7" class="st43" width="125.5" height="88.7"/>
<text transform="matrix(1 0 0 1 104.076 282.2644)"><tspan x="0" y="0" class="st5 st41 st44">Current production vs. </tspan><tspan x="0.1" y="14.4" class="st5 st41 st44">max. carrying capacity </tspan><tspan x="18.8" y="28.8" class="st5 st41 st44">of Sjerstadfjord</tspan></text>
<path class="st43" d="M472.6,568.3H384c-23.4-15-24.6-34.5-21.5-58.5h134C496.5,535.7,496.1,555.5,472.6,568.3z"/>
<text transform="matrix(1 0 0 1 394.166 518.3868)"><tspan x="0" y="0" class="st5 st41 st44">for maximum </tspan><tspan x="-29.1" y="14.4" class="st5 st41 st44">sustainable exploitation </tspan><tspan x="-9.6" y="28.8" class="st5 st41 st44">of Skjerstadfjord </tspan><tspan x="0.3" y="43.2" class="st5 st41 st44">(240.000MT)</tspan></text>
<rect x="276.7" y="193.7" class="st43" width="125.5" height="14.5"/>
<text transform="matrix(1 0 0 1 302.2502 206.552)" class="st5 st41 st45">+2.823 %</text>
<rect x="450.2" y="217.5" class="st43" width="144.7" height="14.5"/>
<text transform="matrix(1 0 0 1 456.516 230.337)" class="st5 st41 st45">4617 employees</text>
<rect x="357.2" y="451.5" class="st43" width="144.7" height="14.5"/>
<text transform="matrix(1 0 0 1 385.7737 464.2801)" class="st5 st41 st45">employees</text>
<rect x="386.3" y="422.2" class="st43" width="86.6" height="24.3"/>
<text transform="matrix(1 0 0 1 393.613 445.0064)" class="st5 st41 st46">9500</text>
<rect x="599.8" y="536" class="st43" width="192" height="37.7"/>
<text transform="matrix(1 0 0 1 636.8049 565.9265)" class="st5 st41 st47">17575</text>
<rect x="1153.2" y="567.4" class="st43" width="255.2" height="67.5"/>
<text transform="matrix(1 0 0 1 1189.7537 610.1665)" class="st5 st41 st48">42.179</text>
<rect x="868.3" y="530" class="st43" width="199.9" height="81.6"/>
<text transform="matrix(1 0 0 1 926.5333 559.9265)"><tspan x="0" y="0" class="st25 st41 st47">70%</tspan><tspan x="-39.7" y="21.6" class="st25 st41 st45">are bringing a family</tspan></text>
<rect x="1182.6" y="625.6" class="st43" width="196.4" height="49.6"/>
<text transform="matrix(1 0 0 1 1193.031 638.4109)"><tspan x="0" y="0" class="st5 st41 st45">at a full exploitation of </tspan><tspan x="31.6" y="21.6" class="st5 st41 st45">Skjerstadfjord</tspan></text>
<rect x="599.8" y="593" class="st43" width="192" height="49.6"/>
<text transform="matrix(1 0 0 1 624.8476 610.123)"><tspan x="0" y="0" class="st5 st41 st49">employees in </tspan><tspan x="47.2" y="28.8" class="st5 st41 st49">total</tspan></text>
<rect x="1182.6" y="511.2" class="st43" width="196.4" height="49.6"/>
<text transform="matrix(1 0 0 1 1211.5525 524.0242)"><tspan x="0" y="0" class="st5 st41 st45">additional people </tspan><tspan x="-13.1" y="21.6" class="st5 st41 st45">through aquaculture</tspan></text>
<rect x="378.9" y="617.9" class="st43" width="93.2" height="24.3"/>
<text transform="matrix(1 0 0 1 380.4543 640.6333)" class="st5 st41 st46">+8075</text>
<rect x="382.9" y="678.5" class="st43" width="93.2" height="24.3"/>
<text transform="matrix(1 0 0 1 387.4854 701.3103)" class="st50 st41 st46">x 0,85</text>
<rect x="627.9" y="217.5" class="st43" width="144.7" height="14.5"/>
<text transform="matrix(1 0 0 1 629.1475 230.337)" class="st5 st41 st45">14500 employees</text>
<rect x="448.2" y="285.4" class="st43" width="144.7" height="14.5"/>
<text transform="matrix(1 0 0 1 458.4134 298.2527)" class="st5 st41 st45">164.000 tonnes</text>
<rect x="631" y="285.4" class="st43" width="144.7" height="14.5"/>
<text transform="matrix(1 0 0 1 646.2147 298.2527)" class="st5 st41 st45">380.62 tonnes</text>
<rect x="371.9" y="647.4" class="st43" width="115.4" height="37.1"/>
<text transform="matrix(1 0 0 1 373.5653 655.9243)"><tspan x="0" y="0" class="st5 st41 st44">Indirect jobs through </tspan><tspan x="21.2" y="14.4" class="st5 st41 st44">ripple effects</tspan></text>
<rect x="362.6" y="707.5" class="st43" width="134" height="37.1"/>
<text transform="matrix(1 0 0 1 362.9701 716.0599)"><tspan x="0" y="0" class="st5 st41 st44">average job multiplier for </tspan><tspan x="15.4" y="14.4" class="st5 st41 st44">jobs in aquaculture</tspan></text>
<rect x="982.5" y="324.2" class="st43" width="162.6" height="97.3"/>
<text transform="matrix(1 0 0 1 993.6805 332.7234)"><tspan x="0" y="0" class="st25 st51 st44">Current population in Fauske</tspan><tspan x="69.2" y="14.4" class="st25 st51 st44">(x 1.000 people)</tspan><tspan x="22.6" y="43.2" class="st25 st51 st44">extra population through </tspan><tspan x="88.6" y="57.6" class="st25 st51 st44">aquaculture</tspan><tspan x="69.2" y="72" class="st25 st51 st44">(x 1.000 people)</tspan></text>
<rect x="53.2" y="66.3" class="st43" width="357.6" height="20.6"/>
<text transform="matrix(1 0 0 1 53.1993 83.3504)" class="st52 st53 st49">Employment &amp; Economics</text>
<rect x="56.8" y="129.4" class="st43" width="499.9" height="20.6"/>
<text transform="matrix(1 0 0 1 56.8406 142.1778)" class="st52 st41 st45">Employment through aquaculture and ripple</text>
<rect x="879.9" y="607.5" class="st43" width="175.9" height="42.9"/>
<text transform="matrix(1 0 0 1 887.3865 637.4189)" class="st25 st41 st47">+ 24.604</text>
</svg>
