<svg id="Ebene_1" data-name="Ebene 1" xmlns="http://www.w3.org/2000/svg" viewBox="0 0 1448.25 761.84"><defs><style>.cls-1{fill:#faf9f9;}.cls-2{fill:#f5f5f5;}.cls-3{fill:#1a9dd9;}.cls-12,.cls-4{fill:#1e71b8;}.cls-5{fill:#fefefe;}.cls-6{fill:#fdfafa;}.cls-7{fill:#fdf9f8;}.cls-8{fill:#cd3a2f;}.cls-9{fill:#cd3b30;}.cls-10{fill:#fdf9f9;}.cls-11{fill:#e84439;}.cls-12{font-size:18px;font-family:NeueHaasUnicaW06-Bold;font-weight:700;}.cls-13{letter-spacing:-0.01em;}.cls-14{letter-spacing:0.01em;}.cls-15{font-size:15.11px;fill:#1f71b8;font-family:MyriadPro-Regular, Myriad Pro;}.cls-16{letter-spacing:-0.04em;}.cls-17{letter-spacing:0em;}.cls-18{letter-spacing:0em;}.cls-19{letter-spacing:0em;}.cls-20{letter-spacing:-0.01em;}.cls-21{letter-spacing:0.02em;}.cls-22{letter-spacing:-0.01em;}.cls-23{letter-spacing:0em;}.cls-24{letter-spacing:0em;}.cls-25{letter-spacing:-0.01em;}.cls-26{letter-spacing:-0.05em;}.cls-27{letter-spacing:-0.01em;}.cls-28{letter-spacing:-0.01em;}.cls-29{letter-spacing:0.02em;}.cls-30{letter-spacing:-0.01em;}.cls-31{letter-spacing:0.01em;}.cls-32{letter-spacing:-0.01em;}.cls-33{letter-spacing:-0.01em;}.cls-34{letter-spacing:0.01em;}.cls-35{letter-spacing:0em;}.cls-36{letter-spacing:-0.01em;}.cls-37{letter-spacing:-0.01em;}.cls-38{letter-spacing:0.02em;}.cls-39{letter-spacing:0em;}.cls-40{letter-spacing:0.01em;}.cls-41{letter-spacing:-0.01em;}.cls-42{letter-spacing:0.01em;}.cls-43{letter-spacing:-0.04em;}.cls-44{letter-spacing:-0.01em;}.cls-45{letter-spacing:0em;}.cls-46{letter-spacing:0em;}.cls-47{letter-spacing:0em;}.cls-48{letter-spacing:0.02em;}.cls-49{letter-spacing:-0.01em;}.cls-50{letter-spacing:0em;}</style></defs><title>F Reflections</title><path class="cls-1" d="M67.44,571.16c-.17-.07-.39-.25-.51-.2s-.17.33-.25.5c.18.08.39.25.52.2S67.37,571.34,67.44,571.16Z" transform="translate(-24.23 -17.89)"/><path class="cls-2" d="M130,764.33l4.57,3.49-.51.6L130,766.87Z" transform="translate(-24.23 -17.89)"/><path class="cls-3" d="M53.61,510a56.23,56.23,0,0,1,27.71-6.66c18.87.52,33.32,9.07,44.13,24.25,7.72,10.86,9.61,23.15,8.93,36.09l-2.46,10.23c-.87-.75-1.8-1.45-2.61-2.26Q113.62,556,98,540.35a22.66,22.66,0,0,0-2.73-2c-5-9.24-20.19-9.67-26.86-3.75-2.1,1.86-3.41,4.71-4.74,7.28-.46.88.14,2.3.25,3.48,1.35,1.44,2.71,2.87,4,4.33,2.65,2.92,6.59,5.08,5.83,10l.31,1c3.66,3.72,7.36,7.39,10.95,11.18A14.4,14.4,0,0,1,86.75,575c-2,2.51-4.71,2.92-7.67,2.58l-7.47-6.9-8.91-1c0,6.05,2.65,9.82,6.93,12.68l1.35.9.1-.09A23.18,23.18,0,0,0,73.61,587c6.43,6.55,12.94,13,19.45,19.48,1.1,1.09,2.31,2.06,3.46,3.08C71.9,618.41,42,605.42,30.85,581c-11.87-26-2.91-55.26,21.46-70.15C52.76,510.62,53.18,510.3,53.61,510Z" transform="translate(-24.23 -17.89)"/><path class="cls-3" d="M849.56,776.85c-20.19,6.26-38.3,2.29-53.87-11.8a54,54,0,0,1-11.86-63.92,54.45,54.45,0,0,1,102.9,17.4,49.72,49.72,0,0,1-3,25.21,12.55,12.55,0,0,0-1.46-2.33q-16-16-32-32a12.69,12.69,0,0,0-2.86-1.64c-.39-.62-.8-1.23-1.19-1.85-3.85-6-9.51-8.14-16.36-7.26-6.33.81-10.59,4.4-12.92,10.31-3.24,8.25-1.28,16.86,5.25,23.16l1.27.82,0,0c.77,1.11,1.53,2.24,2.33,3.33,1.77,2.45,3.56,4.89,5.34,7.33L823,745.13c.15,2.39.29,4.66.44,6.94,7.13,7.16,14.23,14.36,21.43,21.45A35,35,0,0,0,849.56,776.85Z" transform="translate(-24.23 -17.89)"/><path class="cls-3" d="M99.09,762.32c-15.85,5.6-31.11,3.93-45.39-4.58A54.36,54.36,0,0,1,73.13,657.22c39-6,70.53,29.33,61.13,67.16a2.77,2.77,0,0,1-.3.56q-18.32-18.51-36.66-37a9.78,9.78,0,0,0-2.09-1.29c-.09-.39-.19-.79-.43-1.8-.2,1.6-.31,2.5-.42,3.4-.18-1.11-.36-2.22-.58-3.54a36,36,0,0,1-5.1,0c-2.82-.41-4.31.83-5.76,3.16q-9.32,15.06-19.05,29.86c-1.68,2.57-1.7,5-1,7.81,4.88,0,9.63,0,14.36,0,2.57,0,5.14.3,7.71.47H63.35c.8,1,1.08,1.38,1.44,1.74q15.67,15.69,31.37,31.38C97.18,760.15,98.11,761.25,99.09,762.32Z" transform="translate(-24.23 -17.89)"/><path class="cls-3" d="M849.2,616.73c-20.5,6.28-38.81,2.07-54.29-12.48-17-16-21.46-40.34-12-61.55a54.52,54.52,0,0,1,53.42-32c35.26,2.08,59.93,39.15,47.73,71.72-2-2.09-3.91-4.22-5.93-6.27q-14.5-14.65-29.06-29.24a5.27,5.27,0,0,0-1.62-.76c-5.19-8.37-17.16-11-25.16-5.12a14.21,14.21,0,0,0-4.82,6.41c-2.39,6.88-.41,12.66,5.12,16.25-2.23,3-5,5.64-6.39,8.87-2.64,6.34-.13,12.36,6.25,17.29,1,1.15,1.91,2.37,3,3.43Q837.28,605,849.2,616.73Z" transform="translate(-24.23 -17.89)"/><path class="cls-3" d="M850.31,313.42c-19.46,6.47-37.26,3.06-52.85-10a53.82,53.82,0,0,1-16.33-59,54.64,54.64,0,0,1,49.55-36.86c37-1.78,65.28,35,54.15,70.3a2.79,2.79,0,0,1-.34.53,14.05,14.05,0,0,0-1.76-2.94c-4.47-4.49-9.06-8.88-13.57-13.33q-13.33-13.14-26.62-26.3a6.52,6.52,0,0,0-1.69-.58c-10.54-.44-19.89,5.35-23,15.37-1.71,5.53-2.21,11.56-2.43,17.4-.31,8.07,2.71,14.84,10,19.21a18.66,18.66,0,0,0,1.88,2.79c5.87,5.95,11.81,11.83,17.7,17.75C846.78,309.66,848.53,311.56,850.31,313.42Z" transform="translate(-24.23 -17.89)"/><path class="cls-3" d="M98,167.21c-18,6.19-34.86,3.65-50.19-7.41A54.18,54.18,0,0,1,28.9,97C37.38,73.91,60,59.79,85.41,61.78c23,1.82,43.25,19.87,47.94,43.21,2,9.88,1.58,19.74-2.2,29.27A18.13,18.13,0,0,0,129,130.6q-13.81-14-27.79-27.83c-2.14-2.12-4.49-4-6.74-6C90,89.37,83.2,88,75.51,89.45,68,90.87,64.29,96.3,63.71,103.31a173.68,173.68,0,0,0-.18,24.57A16.17,16.17,0,0,0,72.1,141.5a9.51,9.51,0,0,0,1.13,1.81q11.47,11.69,23,23.31C96.65,167,97.4,167,98,167.21Z" transform="translate(-24.23 -17.89)"/><path class="cls-3" d="M90.16,461.66c-27.4,6.28-56.62-12.36-63-40.8-4.82-21.42,1.12-40,18-54.17,17.06-14.3,36.61-16.85,57-8.1,24.75,10.59,37.54,38.11,30.46,64.1a22.36,22.36,0,0,1-.91,2.35,3.1,3.1,0,0,1-.83-.43Q114.13,408,97.42,391.3a18,18,0,0,0-2.52-1.76c-2.45-2.2-4.54-5.32-7.41-6.42-10.11-3.88-24.71-.87-25.77,15l17.8,12.32c-4.87,5.39-9.61,10.9-14.65,16.11-2.62,2.72-2.42,5.47-1.36,8.56,6.37,6.5,12.71,13,19.12,19.47C85.06,457,87.64,459.31,90.16,461.66Z" transform="translate(-24.23 -17.89)"/><path class="cls-3" d="M847.17,464.17c-19.43,5.23-36.71.94-51.46-12.45a53.93,53.93,0,0,1-13-61.63,54.58,54.58,0,0,1,54-32.59c30.51,2.1,53.63,29.91,50.14,60.31-.1.83-.36,1.65-.54,2.47-1.82-1.53-3.75-2.95-5.44-4.62q-15-14.81-29.9-29.72a27.8,27.8,0,0,0-3.38-.4q-12.33,0-24.66,0H814.2c.38,2.69.7,5,1,7.31,3.41,3.54,6.78,7.11,10.24,10.6,2.47,2.5,5.07,4.88,7.61,7.31-4,9-8.07,17.95-12.18,27.11l2.6.36-1.86,1,9.24,9Q839,456.18,847.17,464.17Z" transform="translate(-24.23 -17.89)"/><path class="cls-3" d="M850.41,167.42c-23,9.1-52-1.52-64.74-23.75a54.49,54.49,0,0,1,46-82c33.53-.93,60.28,29.84,54.79,63-.12.73-.36,1.44-.55,2.15a10.35,10.35,0,0,1-1.75-1.19c-2-2-3.86-4.12-5.87-6.1-3.93-3.91-7.94-7.74-11.88-11.63-6-5.94-12.06-11.92-18.08-17.88a18.75,18.75,0,0,0-3-.53c-4.76-.06-9.52,0-14.28,0H819.9c-.92,8.59-1.82,16.77-2.61,25-.06.65.6,1.36.93,2,.12.36.14.82.38,1.06q8.58,8.73,17.21,17.41l-4.46.61L824,128h-8.5c.27,6.39,3.77,10.34,8.82,13.25a11.21,11.21,0,0,0,1.46,2.64Q837,155.26,848.19,166.5A6.54,6.54,0,0,0,850.41,167.42Z" transform="translate(-24.23 -17.89)"/><path class="cls-4" d="M847.17,464.17q-8.14-8-16.3-15.95l-9.24-9,1.86-1H826c3,.41,4.51-1,5.71-3.85,5.33-12.61,10.92-25.11,16.5-37.6,1.56-3.48,3.13-6.89,2.8-10.83q14.94,14.88,29.9,29.72c1.69,1.67,3.62,3.09,5.44,4.62-3.28,20-14.58,33.68-32.85,41.87A56.37,56.37,0,0,1,847.17,464.17Z" transform="translate(-24.23 -17.89)"/><path class="cls-4" d="M848.31,90c6,6,12,11.94,18.08,17.88,3.94,3.89,8,7.72,11.88,11.63,2,2,3.88,4.09,5.87,6.1a10.35,10.35,0,0,0,1.75,1.19c-4.34,20.08-16.23,33.58-35.47,40.65a6.51,6.51,0,0,1-2.23-.92q-11.25-11.24-22.37-22.61a10.84,10.84,0,0,1-1.45-2.64c3.43.47,6.88,1.47,10.28,1.31C847,142,853.75,128.49,848.07,116c-2.42-5.31-6.64-8.21-12.41-8.38-3.09-.1-6.22.55-9.78.92.51-3.52,1.07-7.32,1.62-11.11,6.17,0,12.34.07,18.51,0a7.53,7.53,0,0,0,2.34-.9Z" transform="translate(-24.23 -17.89)"/><path class="cls-4" d="M90.16,461.66c-2.52-2.35-5.1-4.63-7.53-7.07-6.41-6.45-12.75-13-19.12-19.47l3.85,0c1,.28,2,.87,3.08.46,7.91-3.15,16.56-3.79,24.21-.05,1,.51,2.09-.14,3.13-.45.21-2.32.42-4.65.65-7.26H74c1.47-1.62,2.25-2.47,3-3.33,5-5.68,10.29-11.18,15-17.11,4.17-5.25,5.45-11.35,2.89-17.87a18,18,0,0,1,2.52,1.76q16.74,16.63,33.43,33.31a3.1,3.1,0,0,0,.83.43C124.8,445.13,110.88,457.25,90.16,461.66Z" transform="translate(-24.23 -17.89)"/><path class="cls-4" d="M95.21,686.67A9.78,9.78,0,0,1,97.3,688q18.36,18.46,36.66,37-7.68,27.78-34.87,37.38c-1-1.07-1.91-2.17-2.93-3.19q-15.68-15.71-31.37-31.38c-.36-.36-.64-.77-1.44-1.74H85v11.13h9.23V725.45h6.28v-6.72l-6-.66c.07-1,.14-1.91.22-2.87a23.75,23.75,0,0,0,.49-3.32C95.2,703.48,95.2,695.08,95.21,686.67Z" transform="translate(-24.23 -17.89)"/><path class="cls-4" d="M850.31,313.42c-1.78-1.86-3.53-3.76-5.36-5.6-5.89-5.92-11.83-11.8-17.7-17.75a18.66,18.66,0,0,1-1.88-2.79l1.19.4c8.26,3,17,.22,21.07-6.78,4.36-7.45,3-19.22-3.19-24.25a16.62,16.62,0,0,0-6.47-3c-4.78-1.16-9.15.26-13.46,3a27.52,27.52,0,0,1,3.3-8c3.43-5,8.9-5.92,14.73-6.17v-6.59q13.31,13.16,26.62,26.3c4.51,4.45,9.1,8.84,13.57,13.33a14.05,14.05,0,0,1,1.76,2.94Q876.08,304.41,850.31,313.42Z" transform="translate(-24.23 -17.89)"/><path class="cls-4" d="M96.52,609.55c-1.15-1-2.36-2-3.46-3.08C86.55,600,80,593.54,73.61,587a23.18,23.18,0,0,1-2.53-3.84,25.19,25.19,0,0,0,15.26.78,14.58,14.58,0,0,0,11.2-14.65c0-5.89-3-9.76-8.25-12.22,7.7-5.55,9.15-10.32,5.93-18.73a22.66,22.66,0,0,1,2.73,2q15.7,15.61,31.36,31.3c.81.81,1.74,1.51,2.61,2.26C127,590.13,116.36,601.25,101,608,99.55,608.66,98,609.05,96.52,609.55Z" transform="translate(-24.23 -17.89)"/><path class="cls-4" d="M847.44,546.14a5.27,5.27,0,0,1,1.62.76q14.57,14.58,29.06,29.24c2,2.05,4,4.18,5.93,6.27-6,17.16-17.56,28.64-34.85,34.32q-11.9-11.72-23.77-23.46c-1.08-1.06-2-2.28-3-3.43a24.15,24.15,0,0,0,17,1.25,14,14,0,0,0,10.34-13.59c.18-6.15-3-10.24-8.06-13.24C848.63,559,850,554.45,847.44,546.14Z" transform="translate(-24.23 -17.89)"/><path class="cls-4" d="M847.45,707.78a12.69,12.69,0,0,1,2.86,1.64q16.05,15.95,32,32a12.55,12.55,0,0,1,1.46,2.33q-9.18,24.75-34.21,33.11a35,35,0,0,1-4.66-3.33c-7.2-7.09-14.3-14.29-21.43-21.45,1.26-.07,2.53-.09,3.79-.19,11.2-.89,18.82-7.06,21.3-18C850.55,725.19,850.88,716.36,847.45,707.78Z" transform="translate(-24.23 -17.89)"/><path class="cls-4" d="M98,167.21c-.58-.19-1.33-.2-1.71-.59q-11.56-11.61-23-23.31a9.51,9.51,0,0,1-1.13-1.81c13.24,4.26,22.69-.66,24.41-13.56,1.4-10.43,2.07-21-2.06-31.21,2.25,2,4.6,3.92,6.74,6q14,13.85,27.79,27.83a18.13,18.13,0,0,1,2.17,3.66Q122.35,158.56,98,167.21Z" transform="translate(-24.23 -17.89)"/><path class="cls-5" d="M67.44,571.16c-.07.18-.11.45-.24.5s-.34-.12-.52-.2c.08-.17.12-.45.25-.5S67.27,571.09,67.44,571.16Z" transform="translate(-24.23 -17.89)"/><path class="cls-3" d="M43.12,221.69l5.58-4.49c9.94-6.35,20.68-9.84,32.61-9.64,36.25.61,62.15,37.43,50.33,71.7a4.26,4.26,0,0,1-.49.81c-.68-.8-1.31-1.64-2.05-2.38q-13.77-13.8-27.56-27.55c-4.71-4.69-9.49-9.3-14.24-13.95a9.19,9.19,0,0,0-2.83.07c-4.35,1.5-8.65,3.14-13,4.73-6.59,2.41-6.59,2.41-5.71,9.6,1.21,1.26,2.37,2.57,3.63,3.78,2.94,2.85,5.93,5.65,8.89,8.47v25.63h8.34l-7,.63-1.18,1.31c4.21,3.62,8.53,7.11,12.58,10.9,3.59,3.35,6.87,7,10.28,10.56-15.24,6.72-30.47,6.22-45.28-.95-33.63-16.3-41-60.79-14.68-87.37C42,223,42.55,222.31,43.12,221.69Z" transform="translate(-24.23 -17.89)"/><path class="cls-4" d="M87.3,236.19c4.75,4.65,9.53,9.26,14.24,13.95q13.81,13.74,27.56,27.55c.74.74,1.37,1.58,2.05,2.38q-7.84,22.5-29.78,31.8c-3.41-3.53-6.69-7.21-10.28-10.56-4-3.79-8.37-7.28-12.58-10.9l1.18-1.31,7-.63a20,20,0,0,0,.54-3.29Q87.29,260.69,87.3,236.19Z" transform="translate(-24.23 -17.89)"/><path class="cls-6" d="M87.3,236.19q0,24.5-.12,49a20,20,0,0,1-.54,3.29H78.3V246.26l-12.52,4.33c-.88-7.19-.88-7.19,5.71-9.6,4.33-1.59,8.63-3.23,13-4.73A9.19,9.19,0,0,1,87.3,236.19Z" transform="translate(-24.23 -17.89)"/><path class="cls-4" d="M65.78,250.59l12.52-4.33v16.58c-3-2.82-6-5.62-8.89-8.47C68.15,253.16,67,251.85,65.78,250.59Z" transform="translate(-24.23 -17.89)"/><path class="cls-7" d="M95.22,538.33c3.22,8.41,1.77,13.18-5.93,18.73,5.23,2.46,8.26,6.33,8.25,12.22a14.58,14.58,0,0,1-11.2,14.65,25.19,25.19,0,0,1-15.26-.78l-.1.09-1.35-.9c-4.28-2.86-7-6.63-6.93-12.68l8.91,1c.22,4.06,2.84,6.48,7.47,6.9,3,.34,5.67-.07,7.67-2.58,4.48-6,1.59-13.23-5.74-14.12-2.29-.27-4.64-.14-7-.19-.1-.33-.2-.67-.31-1,.12-1.95.23-3.89.34-5.78,11.14-.88,13.42-2.11,13.86-7.33.38-4.49-1.55-7.5-5.41-8.42-5.31-1.27-8.33.63-11.18,7.21H63.87c-.11-1.18-.71-2.6-.25-3.48,1.33-2.57,2.64-5.42,4.74-7.28C75,528.66,90.23,529.09,95.22,538.33Z" transform="translate(-24.23 -17.89)"/><path class="cls-4" d="M63.87,545.34h7.47c2.85-6.58,5.87-8.48,11.18-7.21,3.86.92,5.79,3.93,5.41,8.42-.44,5.22-2.72,6.45-13.86,7.33-.11,1.89-.22,3.83-.34,5.78.76-4.91-3.18-7.07-5.83-10C66.58,548.21,65.22,546.78,63.87,545.34Z" transform="translate(-24.23 -17.89)"/><path class="cls-4" d="M74,560.66c2.33.05,4.68-.08,7,.19,7.33.89,10.22,8.12,5.74,14.12A14.4,14.4,0,0,0,85,571.84C81.4,568.05,77.7,564.38,74,560.66Z" transform="translate(-24.23 -17.89)"/><path class="cls-4" d="M79.08,577.55c-4.63-.42-7.25-2.84-7.47-6.9Z" transform="translate(-24.23 -17.89)"/><path class="cls-8" d="M69.63,582.34l1.35.9Z" transform="translate(-24.23 -17.89)"/><path class="cls-7" d="M847.45,707.78c3.43,8.58,3.1,17.41,1.11,26.14-2.48,10.9-10.1,17.07-21.3,18-1.26.1-2.53.12-3.79.19-.15-2.28-.29-4.55-.44-6.94l8.11-1.54c6.39-2,10.11-7.3,9.14-13.05-5.08,4.61-10.78,4.74-16.81,2.39l0,0-1.27-.82c-6.53-6.3-8.49-14.91-5.25-23.16,2.33-5.91,6.59-9.5,12.92-10.31,6.85-.88,12.51,1.23,16.36,7.26C846.65,706.55,847.06,707.16,847.45,707.78Zm-5.78,11c-.92-3.09-1.36-6.44-2.86-9.22-3-5.53-9.95-5.26-12.95.29A14.68,14.68,0,0,0,825,721.5c1.35,4.43,4.81,6.56,9.18,5.84S841.1,723.38,841.67,718.75Z" transform="translate(-24.23 -17.89)"/><path class="cls-4" d="M823.47,732.93c6,2.35,11.73,2.22,16.81-2.39,1,5.75-2.75,11-9.14,13.05-1.78-2.44-3.57-4.88-5.34-7.33C825,735.17,824.24,734,823.47,732.93Z" transform="translate(-24.23 -17.89)"/><path class="cls-9" d="M822.23,732.14l1.27.82Z" transform="translate(-24.23 -17.89)"/><path class="cls-10" d="M94.44,718.07l6,.66v6.72H94.21v11.69H85V726c-2.57-.17-5.14-.43-7.71-.47-4.73-.07-9.48,0-14.36,0-.74-2.83-.72-5.24,1-7.81q9.72-14.81,19.05-29.86c1.45-2.33,2.94-3.57,5.76-3.16a36,36,0,0,0,5.1,0c.22,1.32.4,2.43.58,3.54l0,.06c-.12,6.38-.29,12.75-.32,19.13C94.08,711,94.32,714.53,94.44,718.07Zm-9.4.4V697.23L71.66,718.47H85Z" transform="translate(-24.23 -17.89)"/><path class="cls-4" d="M94.41,688.33l0-.06c.11-.9.22-1.8.42-3.4.24,1,.34,1.41.43,1.8,0,8.41,0,16.81-.06,25.21a23.75,23.75,0,0,1-.49,3.32Q94.53,701.76,94.41,688.33Z" transform="translate(-24.23 -17.89)"/><path class="cls-10" d="M847.44,546.14c2.59,8.31,1.19,12.82-5.73,18.12,5,3,8.24,7.09,8.06,13.24a14,14,0,0,1-10.34,13.59,24.15,24.15,0,0,1-17-1.25c-6.38-4.93-8.89-11-6.25-17.29,1.35-3.23,4.16-5.86,6.39-8.87-5.53-3.59-7.51-9.37-5.12-16.25a14.21,14.21,0,0,1,4.82-6.41C830.28,535.18,842.25,537.77,847.44,546.14ZM832.59,585c5.26,0,8.27-3,8.34-8.2s-3.22-8.8-8.22-8.9-8.48,3.37-8.52,8.58S827.25,584.93,832.59,585Zm7.21-31.53c.2-4.86-2.67-8.21-7.11-8.3s-7.14,2.76-7.29,7.4c-.15,4.89,2.44,8.06,6.75,8.24C836.69,561,839.61,558.15,839.8,553.42Z" transform="translate(-24.23 -17.89)"/><path class="cls-7" d="M842.54,235.88v6.59c-5.83.25-11.3,1.19-14.73,6.17a27.52,27.52,0,0,0-3.3,8c4.31-2.74,8.68-4.16,13.46-3a16.62,16.62,0,0,1,6.47,3c6.14,5,7.55,16.8,3.19,24.25-4.1,7-12.81,9.81-21.07,6.78l-1.19-.4c-7.24-4.37-10.26-11.14-10-19.21.22-5.84.72-11.87,2.43-17.4,3.11-10,12.46-15.81,23-15.37A6.52,6.52,0,0,1,842.54,235.88Zm-18.89,33.18a64.75,64.75,0,0,0,2.56,8.36,7.06,7.06,0,0,0,7.5,4.22c3.28-.27,6-2,6.54-5.12a27,27,0,0,0,0-10.79c-1-4.19-5-5.94-9.29-5.08S824.15,264.7,823.65,269.06Z" transform="translate(-24.23 -17.89)"/><path class="cls-6" d="M94.45,96.73c4.13,10.17,3.46,20.78,2.06,31.21-1.72,12.9-11.17,17.82-24.41,13.56a16.17,16.17,0,0,1-8.57-13.62,173.68,173.68,0,0,1,.18-24.57c.58-7,4.31-12.44,11.8-13.86C83.2,88,90,89.37,94.45,96.73Zm-5.72,18c-.36-3.55-.39-8.26-1.4-12.74C86,96.1,78.93,93.8,75,97.91a11.45,11.45,0,0,0-2.93,6.76c-.37,7.47-.2,15-.08,22.47a11.87,11.87,0,0,0,1.18,4.24,7.23,7.23,0,0,0,9.11,4.23c3.75-1.08,5-4.13,5.47-7.44C88.33,124.1,88.39,120,88.73,114.75Z" transform="translate(-24.23 -17.89)"/><path class="cls-7" d="M64.33,435.16l-1.06-.77c-.84-2.8-.81-5.33,1.6-7.83,5-5.21,9.78-10.72,14.65-16.11,1.13-1.23,2.34-2.41,3.39-3.71,2.26-2.81,4.36-5.7,4.39-9.57,0-4.49-2.34-7.72-6.17-8.32-4.9-.76-8.78,1.58-10,6.08-.3,1.08-.49,2.19-.71,3.2H61.72c1.06-15.88,15.66-18.89,25.77-15,2.87,1.1,5,4.22,7.41,6.42,2.56,6.52,1.28,12.62-2.89,17.87-4.71,5.93-10,11.43-15,17.11-.75.86-1.53,1.71-3,3.33H98.43c-.23,2.61-.44,4.94-.65,7.26Z" transform="translate(-24.23 -17.89)"/><path class="cls-4" d="M61.72,398.13h8.69c.22-1,.41-2.12.71-3.2,1.23-4.5,5.11-6.84,10-6.08,3.83.6,6.19,3.83,6.17,8.32,0,3.87-2.13,6.76-4.39,9.57-1,1.3-2.26,2.48-3.39,3.71Z" transform="translate(-24.23 -17.89)"/><path class="cls-7" d="M851,385.94c.33,3.94-1.24,7.35-2.8,10.83-5.58,12.49-11.17,25-16.5,37.6-1.2,2.85-2.66,4.26-5.71,3.85h-2.48l-2.6-.36c4.11-9.16,8.15-18.13,12.18-27.11,2.79-5.87,5.58-11.74,8.52-17.91H815.22l-1-7.31h8.74q12.33,0,24.66,0A27.8,27.8,0,0,1,851,385.94Z" transform="translate(-24.23 -17.89)"/><path class="cls-4" d="M815.22,392.84h26.37c-2.94,6.17-5.73,12-8.52,17.91-2.54-2.43-5.14-4.81-7.61-7.31C822,400,818.63,396.38,815.22,392.84Z" transform="translate(-24.23 -17.89)"/><path class="cls-10" d="M827.5,97.46c-.55,3.79-1.11,7.59-1.62,11.11,3.56-.37,6.69-1,9.78-.92,5.77.17,10,3.07,12.41,8.38,5.68,12.46-1,25.94-13.42,26.53-3.4.16-6.85-.84-10.28-1.31-5.06-2.91-8.56-6.86-8.83-13.25H824c1,5,2.81,6.88,7.31,7.52l4.46-.61c5-2.23,5.33-6.69,5.1-11.22-.34-7.16-6.93-11.54-13.24-8.18-3.39,1.8-6.2,1.71-9.45.93-.33-.69-1-1.4-.93-2,.79-8.2,1.69-16.38,2.61-25H831c4.76,0,9.52,0,14.28,0a18.75,18.75,0,0,1,3,.53c0,2.2,0,4.41,0,6.61-3.64.13-7.29.26-10.94.41C834.11,97.13,830.81,97.3,827.5,97.46Z" transform="translate(-24.23 -17.89)"/><path class="cls-4" d="M818.22,116.44c3.25.78,6.06.87,9.45-.93,6.31-3.36,12.9,1,13.24,8.18.23,4.53-.07,9-5.1,11.22q-8.61-8.7-17.21-17.41C818.36,117.26,818.34,116.8,818.22,116.44Z" transform="translate(-24.23 -17.89)"/><path class="cls-11" d="M824.25,438.22h0Z" transform="translate(-24.23 -17.89)"/><path class="cls-4" d="M827.5,97.46c3.31-.16,6.61-.33,9.91-.47,3.65-.15,7.3-.28,10.94-.41a7.53,7.53,0,0,1-2.34.9C839.84,97.53,833.67,97.48,827.5,97.46Z" transform="translate(-24.23 -17.89)"/><path class="cls-4" d="M67.36,435.15l30.42,0c-1,.31-2.08,1-3.13.45-7.65-3.73-16.3-3.08-24.21.05C69.41,436,68.38,435.43,67.36,435.15Z" transform="translate(-24.23 -17.89)"/><path class="cls-4" d="M94.41,688.33q.12,13.44.25,26.87c-.08,1-.15,1.91-.22,2.87-.12-3.54-.36-7.08-.35-10.61C94.12,701.08,94.29,694.71,94.41,688.33Z" transform="translate(-24.23 -17.89)"/><path class="cls-4" d="M841.67,718.75c-.57,4.63-3.24,7.88-7.47,8.59s-7.83-1.41-9.18-5.84a14.68,14.68,0,0,1,.84-11.68c3-5.55,10-5.82,12.95-.29C840.31,712.31,840.75,715.66,841.67,718.75Z" transform="translate(-24.23 -17.89)"/><path class="cls-4" d="M85,718.47H71.66L85,697.23Z" transform="translate(-24.23 -17.89)"/><path class="cls-4" d="M832.59,585c-5.34,0-8.44-3.17-8.4-8.52s3.49-8.68,8.52-8.58,8.28,3.66,8.22,8.9S837.85,585,832.59,585Z" transform="translate(-24.23 -17.89)"/><path class="cls-4" d="M839.8,553.42c-.19,4.73-3.11,7.53-7.65,7.34-4.31-.18-6.9-3.35-6.75-8.24.15-4.64,3-7.5,7.29-7.4S840,548.56,839.8,553.42Z" transform="translate(-24.23 -17.89)"/><path class="cls-4" d="M823.65,269.06c.5-4.36,3.14-7.58,7.29-8.41s8.31.89,9.29,5.08a27,27,0,0,1,0,10.79c-.56,3.08-3.26,4.85-6.54,5.12a7.06,7.06,0,0,1-7.5-4.22A64.75,64.75,0,0,1,823.65,269.06Z" transform="translate(-24.23 -17.89)"/><path class="cls-4" d="M88.73,114.75c-.34,5.22-.4,9.35-1,13.42-.45,3.31-1.72,6.36-5.47,7.44a7.23,7.23,0,0,1-9.11-4.23A11.87,11.87,0,0,1,72,127.14c-.12-7.49-.29-15,.08-22.47A11.45,11.45,0,0,1,75,97.91c3.9-4.11,11-1.81,12.3,4.1C88.34,106.49,88.37,111.2,88.73,114.75Z" transform="translate(-24.23 -17.89)"/><text class="cls-12" transform="translate(0 15.41)"><tspan class="cls-13">R</tspan><tspan x="11.81" y="0">efl</tspan><tspan class="cls-14" x="33.23" y="0">e</tspan><tspan x="43.72" y="0">ctions</tspan></text><text class="cls-15" transform="translate(142.98 98.25)"><tspan class="cls-16">F</tspan><tspan x="6.68" y="0">auske has a n</tspan><tspan class="cls-17" x="89.83" y="0">a</tspan><tspan class="cls-18" x="97.05" y="0">tu</tspan><tspan class="cls-19" x="110.37" y="0">r</tspan><tspan x="115.24" y="0">al </tspan><tspan class="cls-20" x="129.29" y="0">r</tspan><tspan x="134.07" y="0">ese</tspan><tspan class="cls-21" x="155.19" y="0">r</tspan><tspan class="cls-20" x="160.51" y="0">v</tspan><tspan class="cls-18" x="167.62" y="0">e a</tspan><tspan class="cls-22" x="185.67" y="0">r</tspan><tspan x="190.46" y="0">ea </tspan><tspan class="cls-23" x="208.51" y="0">r</tspan><tspan class="cls-18" x="213.51" y="0">ig</tspan><tspan class="cls-24" x="225.49" y="0">h</tspan><tspan class="cls-18" x="233.81" y="0">t a</tspan><tspan class="cls-22" x="249.3" y="0">r</tspan><tspan x="254.08" y="0">ound the </tspan><tspan class="cls-25" x="314.96" y="0">c</tspan><tspan x="321.64" y="0">o</tspan><tspan class="cls-23" x="329.93" y="0">r</tspan><tspan x="334.93" y="0">ne</tspan><tspan class="cls-26" x="350.88" y="0">r</tspan><tspan x="355.02" y="0">.</tspan></text><text class="cls-15" transform="translate(142.98 386.42)">No<tspan class="cls-21" x="18.23" y="0">r</tspan><tspan class="cls-24" x="23.55" y="0">w</tspan><tspan class="cls-27" x="34.61" y="0">a</tspan><tspan x="41.77" y="0">y </tspan><tspan class="cls-25" x="52.08" y="0">c</tspan><tspan x="58.76" y="0">ould and </tspan><tspan class="cls-17" x="118.05" y="0">w</tspan><tspan x="129.11" y="0">a</tspan><tspan class="cls-17" x="136.39" y="0">n</tspan><tspan x="144.71" y="0">ts </tspan><tspan class="cls-25" x="158.89" y="0">t</tspan><tspan x="163.8" y="0">o be</tspan><tspan class="cls-28" x="191.46" y="0">c</tspan><tspan x="198.14" y="0">ome e</tspan><tspan class="cls-20" x="237.37" y="0">v</tspan><tspan x="244.48" y="0">en mo</tspan><tspan class="cls-20" x="284.53" y="0">r</tspan><tspan x="289.31" y="0">e impo</tspan><tspan class="cls-29" x="333.1" y="0">r</tspan><tspan x="338.41" y="0">ta</tspan><tspan class="cls-17" x="350.69" y="0">n</tspan><tspan x="359.01" y="0">t in p</tspan><tspan class="cls-20" x="390.93" y="0">r</tspan><tspan class="cls-30" x="395.72" y="0">o</tspan><tspan x="403.9" y="0">viding p</tspan><tspan class="cls-20" x="455.38" y="0">r</tspan><tspan x="460.17" y="0">odu</tspan><tspan class="cls-31" x="485.31" y="0">c</tspan><tspan x="492.27" y="0">ts f</tspan><tspan class="cls-20" x="510.86" y="0">r</tspan><tspan x="515.65" y="0">om </tspan><tspan class="cls-32" x="0" y="18.13">A</tspan><tspan x="9.06" y="18.13">quacultu</tspan><tspan class="cls-20" x="65.15" y="18.13">r</tspan><tspan x="69.94" y="18.13">e </tspan><tspan class="cls-28" x="80.71" y="18.13">t</tspan><tspan x="85.62" y="18.13">o the global ma</tspan><tspan class="cls-23" x="184.09" y="18.13">r</tspan><tspan x="189.09" y="18.13">ket than it al</tspan><tspan class="cls-20" x="266.78" y="18.13">r</tspan><tspan x="271.56" y="18.13">eady i</tspan><tspan class="cls-33" x="308.78" y="18.13">s</tspan><tspan x="314.6" y="18.13">.</tspan></text><text class="cls-15" transform="translate(142.98 690.37)"><tspan class="cls-34">I</tspan><tspan x="3.76" y="0">n an e</tspan><tspan class="cls-28" x="41.78" y="0">c</tspan><tspan x="48.46" y="0">onomical sig</tspan><tspan class="cls-17" x="128.33" y="0">h</tspan><tspan class="cls-35" x="136.66" y="0">t</tspan><tspan x="141.61" y="0">, it </tspan><tspan class="cls-22" x="159.68" y="0">w</tspan><tspan x="170.64" y="0">ould be inevitably </tspan><tspan class="cls-36" x="286.95" y="0">w</tspan><tspan x="297.92" y="0">o</tspan><tspan class="cls-29" x="306.21" y="0">r</tspan><tspan x="311.51" y="0">th it </tspan><tspan class="cls-37" x="339.83" y="0">f</tspan><tspan x="344.05" y="0">or No</tspan><tspan class="cls-38" x="378.72" y="0">r</tspan><tspan class="cls-39" x="384.03" y="0">w</tspan><tspan class="cls-27" x="395.09" y="0">a</tspan><tspan x="402.25" y="0">y </tspan><tspan class="cls-28" x="412.57" y="0">t</tspan><tspan x="417.47" y="0">o be</tspan><tspan class="cls-28" x="445.13" y="0">c</tspan><tspan x="451.81" y="0">ome one </tspan><tspan x="0" y="18.13">of the global leaders of p</tspan><tspan class="cls-22" x="156.13" y="18.13">r</tspan><tspan class="cls-30" x="160.91" y="18.13">o</tspan><tspan x="169.1" y="18.13">viding p</tspan><tspan class="cls-36" x="220.58" y="18.13">r</tspan><tspan x="225.37" y="18.13">odu</tspan><tspan class="cls-40" x="250.5" y="18.13">c</tspan><tspan x="257.47" y="18.13">ts f</tspan><tspan class="cls-22" x="276.06" y="18.13">r</tspan><tspan x="280.85" y="18.13">om </tspan><tspan class="cls-41" x="304.94" y="18.13">A</tspan><tspan x="314" y="18.13">quacultu</tspan><tspan class="cls-36" x="370.09" y="18.13">r</tspan><tspan class="cls-41" x="374.88" y="18.13">e</tspan><tspan x="382.27" y="18.13">.</tspan></text><text class="cls-15" transform="translate(142.98 547.18)"><tspan class="cls-19">W</tspan><tspan x="12.7" y="0">hen the p</tspan><tspan class="cls-22" x="72.99" y="0">r</tspan><tspan x="77.78" y="0">odu</tspan><tspan class="cls-40" x="102.91" y="0">c</tspan><tspan x="109.88" y="0">tion ou</tspan><tspan class="cls-28" x="154.91" y="0">tc</tspan><tspan x="166.49" y="0">ome in </tspan><tspan class="cls-41" x="213.27" y="0">A</tspan><tspan x="222.34" y="0">quacultu</tspan><tspan class="cls-22" x="278.42" y="0">r</tspan><tspan x="283.21" y="0">e inc</tspan><tspan class="cls-36" x="312.67" y="0">r</tspan><tspan x="317.45" y="0">ease</tspan><tspan class="cls-33" x="345.85" y="0">s</tspan><tspan x="351.67" y="0">, all of the indust</tspan><tspan class="cls-23" x="455.41" y="0">r</tspan><tspan x="460.41" y="0">ies within </tspan><tspan x="0" y="18.13">its whole </tspan><tspan class="cls-17" x="59.85" y="18.13">v</tspan><tspan x="67.05" y="18.13">alue chain will sha</tspan><tspan class="cls-36" x="181.17" y="18.13">r</tspan><tspan x="185.96" y="18.13">e an e</tspan><tspan class="cls-28" x="223.16" y="18.13">c</tspan><tspan x="229.84" y="18.13">onomical boom.</tspan></text><text class="cls-15" transform="translate(145.55 238.43)"><tspan class="cls-32">A</tspan><tspan x="9.06" y="0">quacultu</tspan><tspan class="cls-20" x="65.15" y="0">r</tspan><tspan x="69.94" y="0">e is a highly discussed </tspan><tspan class="cls-28" x="210.92" y="0">t</tspan><tspan x="215.83" y="0">opic in no</tspan><tspan class="cls-21" x="278.01" y="0">r</tspan><tspan class="cls-20" x="283.33" y="0">w</tspan><tspan x="294.3" y="0">e</tspan><tspan class="cls-25" x="301.87" y="0">g</tspan><tspan x="310.22" y="0">ian socie</tspan><tspan class="cls-42" x="364.77" y="0">t</tspan><tspan class="cls-43" x="369.9" y="0">y</tspan><tspan x="376.43" y="0">. </tspan><tspan class="cls-32" x="382.76" y="0">A</tspan><tspan x="391.82" y="0">quacultu</tspan><tspan class="cls-20" x="447.91" y="0">r</tspan><tspan x="452.69" y="0">e is pa</tspan><tspan class="cls-29" x="492.06" y="0">r</tspan><tspan x="497.36" y="0">t of the </tspan><tspan x="0" y="18.13">cultu</tspan><tspan class="cls-20" x="31.98" y="18.13">r</tspan><tspan x="36.77" y="18.13">e and a</tspan><tspan class="cls-37" x="82.2" y="18.13">ff</tspan><tspan x="90.81" y="18.13">e</tspan><tspan class="cls-40" x="98.38" y="18.13">c</tspan><tspan x="105.34" y="18.13">ts the e</tspan><tspan class="cls-28" x="151.25" y="18.13">c</tspan><tspan x="157.93" y="18.13">ono</tspan><tspan class="cls-44" x="182.9" y="18.13">m</tspan><tspan class="cls-43" x="195.3" y="18.13">y</tspan><tspan x="201.82" y="18.13">, socie</tspan><tspan class="cls-42" x="240.3" y="18.13">t</tspan><tspan class="cls-43" x="245.43" y="18.13">y</tspan><tspan x="251.96" y="18.13">, and the e</tspan><tspan class="cls-37" x="317.39" y="18.13">n</tspan><tspan x="325.58" y="18.13">vi</tspan><tspan class="cls-20" x="336.38" y="18.13">r</tspan><tspan x="341.17" y="18.13">onme</tspan><tspan class="cls-17" x="378.01" y="18.13">n</tspan><tspan class="cls-45" x="386.33" y="18.13">t</tspan><tspan class="cls-46" x="391.29" y="18.13">.</tspan></text><text class="cls-15" transform="translate(898.54 96.68)"><tspan class="cls-47">S</tspan><tspan class="cls-46" x="7.49" y="0">al</tspan><tspan class="cls-25" x="18.34" y="0">t</tspan><tspan x="23.25" y="0">en </tspan><tspan class="cls-32" x="42.4" y="0">A</tspan><tspan x="51.46" y="0">qua does not </tspan><tspan class="cls-17" x="137.22" y="0">w</tspan><tspan x="148.27" y="0">a</tspan><tspan class="cls-24" x="155.56" y="0">n</tspan><tspan x="163.88" y="0">t </tspan><tspan class="cls-28" x="172.08" y="0">t</tspan><tspan x="176.99" y="0">o </tspan><tspan class="cls-35" x="188.48" y="0">e</tspan><tspan x="196.01" y="0">xpand </tspan><tspan class="cls-28" x="238.98" y="0">t</tspan><tspan x="243.89" y="0">o an i</tspan><tspan class="cls-24" x="277.79" y="0">n</tspan><tspan class="cls-28" x="286.11" y="0">t</tspan><tspan x="291.02" y="0">e</tspan><tspan class="cls-23" x="298.59" y="0">r</tspan><tspan x="303.59" y="0">n</tspan><tspan class="cls-17" x="311.97" y="0">a</tspan><tspan x="319.19" y="0">tionally </tspan><tspan class="cls-20" x="369.13" y="0">w</tspan><tspan x="380.1" y="0">ell- </tspan><tspan class="cls-48" x="402.63" y="0">k</tspan><tspan x="409.97" y="0">n</tspan><tspan class="cls-30" x="418.36" y="0">o</tspan><tspan class="cls-18" x="426.55" y="0">wn </tspan><tspan class="cls-28" x="449.25" y="0">g</tspan><tspan class="cls-20" x="457.6" y="0">r</tspan><tspan x="462.39" y="0">oup with </tspan><tspan x="0" y="18.13">huge p</tspan><tspan class="cls-20" x="44.52" y="18.13">r</tspan><tspan x="49.3" y="18.13">odu</tspan><tspan class="cls-40" x="74.44" y="18.13">c</tspan><tspan x="81.4" y="18.13">tion </tspan><tspan class="cls-22" x="109.82" y="18.13">v</tspan><tspan x="116.93" y="18.13">olume</tspan><tspan class="cls-33" x="157.28" y="18.13">s</tspan><tspan x="163.09" y="18.13">.</tspan></text><text class="cls-15" transform="translate(898.54 244.33)">A higher p<tspan class="cls-20" x="65.5" y="0">r</tspan><tspan x="70.28" y="0">odu</tspan><tspan class="cls-31" x="95.42" y="0">c</tspan><tspan x="102.38" y="0">tion ou</tspan><tspan class="cls-25" x="147.41" y="0">tc</tspan><tspan x="159" y="0">ome al</tspan><tspan class="cls-24" x="201.51" y="0">w</tspan><tspan class="cls-49" x="212.56" y="0">a</tspan><tspan class="cls-28" x="219.72" y="0">y</tspan><tspan x="226.75" y="0">s means mo</tspan><tspan class="cls-20" x="301.84" y="0">r</tspan><tspan x="306.63" y="0">e pollution.</tspan></text><text class="cls-15" transform="translate(898.54 397.43)"><tspan class="cls-30">T</tspan><tspan x="7.4" y="0">he fa</tspan><tspan class="cls-50" x="38.25" y="0">r</tspan><tspan x="43.25" y="0">med salmon f</tspan><tspan class="cls-20" x="128.85" y="0">r</tspan><tspan x="133.64" y="0">om </tspan><tspan class="cls-16" x="157.73" y="0">F</tspan><tspan x="164.41" y="0">auske is a local speciali</tspan><tspan class="cls-42" x="306.55" y="0">t</tspan><tspan x="311.68" y="0">y and has an </tspan><tspan class="cls-35" x="393.1" y="0">e</tspan><tspan class="cls-31" x="400.62" y="0">x</tspan><tspan x="407.81" y="0">t</tspan><tspan class="cls-20" x="412.81" y="0">r</tspan><tspan x="417.6" y="0">emely high quali</tspan><tspan class="cls-42" x="522.37" y="0">t</tspan><tspan class="cls-43" x="527.51" y="0">y</tspan><tspan x="534.04" y="0">.</tspan></text><text class="cls-15" transform="translate(898.54 549.43)"><tspan class="cls-30">T</tspan><tspan x="7.4" y="0">he municipali</tspan><tspan class="cls-42" x="92.67" y="0">t</tspan><tspan x="97.81" y="0">y of </tspan><tspan class="cls-16" x="124.03" y="0">F</tspan><tspan x="130.71" y="0">auske is i</tspan><tspan class="cls-17" x="186.4" y="0">n</tspan><tspan class="cls-25" x="194.72" y="0">t</tspan><tspan x="199.63" y="0">e</tspan><tspan class="cls-22" x="207.2" y="0">r</tspan><tspan x="211.99" y="0">es</tspan><tspan class="cls-25" x="225.54" y="0">t</tspan><tspan x="230.45" y="0">ed in keeping </tspan><tspan class="cls-47" x="319.24" y="0">S</tspan><tspan x="326.73" y="0">al</tspan><tspan class="cls-25" x="337.57" y="0">t</tspan><tspan x="342.48" y="0">en </tspan><tspan class="cls-32" x="361.64" y="0">A</tspan><tspan x="370.7" y="0">qua as a local </tspan><tspan class="cls-28" x="457.63" y="0">c</tspan><tspan x="464.31" y="0">ompa</tspan><tspan class="cls-44" x="501.07" y="0">n</tspan><tspan class="cls-43" x="509.26" y="0">y</tspan><tspan x="515.79" y="0">.</tspan></text><text class="cls-15" transform="translate(898.54 711.24)">Di<tspan class="cls-28" x="13.59" y="0">g</tspan><tspan class="cls-46" x="21.95" y="0">italiz</tspan><tspan class="cls-24" x="51.33" y="0">a</tspan><tspan x="58.55" y="0">tion and the </tspan><tspan class="cls-28" x="138.5" y="0">t</tspan><tspan x="143.41" y="0">echnology within the p</tspan><tspan class="cls-20" x="289.33" y="0">r</tspan><tspan x="294.12" y="0">odu</tspan><tspan class="cls-40" x="319.25" y="0">c</tspan><tspan x="326.21" y="0">tion p</tspan><tspan class="cls-20" x="363.22" y="0">r</tspan><tspan x="368.01" y="0">o</tspan><tspan class="cls-28" x="376.3" y="0">c</tspan><tspan x="382.98" y="0">ess is highly de</tspan><tspan class="cls-20" x="477.15" y="0">v</tspan><tspan x="484.26" y="0">elope</tspan><tspan class="cls-20" x="519.85" y="0">d</tspan><tspan x="528.22" y="0">.</tspan></text></svg>