<svg id="Layer_1" data-name="Layer 1" xmlns="http://www.w3.org/2000/svg" xmlns:xlink="http://www.w3.org/1999/xlink" viewBox="0 0 1434.49 759.39"><defs><style>.cls-1{fill:none;}.cls-2{clip-path:url(#clip-path);}.cls-3{fill:#faf9f9;}.cls-4{fill:#f5f5f5;}.cls-5{fill:#1a9dd9;}.cls-15,.cls-6{fill:#1e71b8;}.cls-7{fill:#fefefe;}.cls-8{fill:#fdfafa;}.cls-9{fill:#fdf9f8;}.cls-10{fill:#cd3a2f;}.cls-11{fill:#cd3b30;}.cls-12{fill:#fdfaf9;}.cls-13{fill:#fdf9f7;}.cls-14{fill:#e84439;}.cls-15{font-size:15.11px;font-family:MyriadPro-Regular, Myriad Pro;}.cls-16{letter-spacing:-0.04em;}.cls-17{letter-spacing:0em;}.cls-18{letter-spacing:-0.01em;}.cls-19{letter-spacing:0em;}.cls-20{letter-spacing:0.02em;}.cls-21{letter-spacing:-0.01em;}.cls-22{letter-spacing:-0.01em;}.cls-23{letter-spacing:0em;}.cls-24{letter-spacing:0em;}.cls-25{letter-spacing:0em;}.cls-26{letter-spacing:0em;}.cls-27{letter-spacing:-0.05em;}.cls-28{letter-spacing:0.03em;}.cls-29{letter-spacing:0em;}.cls-30{letter-spacing:-0.01em;}.cls-31{letter-spacing:-0.01em;}.cls-32{letter-spacing:0em;}.cls-33{letter-spacing:0.02em;}.cls-34{letter-spacing:-0.01em;}.cls-35{letter-spacing:0.01em;}.cls-36{letter-spacing:-0.01em;}.cls-37{letter-spacing:-0.01em;}.cls-38{letter-spacing:0em;}.cls-39{letter-spacing:0.01em;}.cls-40{letter-spacing:-0.01em;}.cls-41{letter-spacing:0.02em;}.cls-42{letter-spacing:-0.01em;}.cls-43{letter-spacing:0.01em;}.cls-44{letter-spacing:-0.01em;}.cls-45{letter-spacing:0.01em;}.cls-46{letter-spacing:-0.04em;}.cls-47{letter-spacing:0em;}.cls-48{letter-spacing:0em;}.cls-49{letter-spacing:0em;}.cls-50{letter-spacing:-0.01em;}.cls-51{letter-spacing:0em;}.cls-52{letter-spacing:0em;}.cls-53{letter-spacing:0em;}.cls-54{letter-spacing:0em;}.cls-55{letter-spacing:-0.01em;}.cls-56{letter-spacing:0.02em;}.cls-57{letter-spacing:-0.01em;}.cls-58{letter-spacing:0em;}.cls-59{letter-spacing:0.01em;}.cls-60{letter-spacing:-0.01em;}.cls-61{letter-spacing:0.01em;}.cls-62{letter-spacing:-0.01em;}.cls-63{letter-spacing:-0.01em;}.cls-64{letter-spacing:-0.04em;}.cls-65{letter-spacing:0em;}.cls-66{letter-spacing:0.01em;}.cls-67{letter-spacing:0.01em;}.cls-68{letter-spacing:-0.04em;}.cls-69{letter-spacing:-0.01em;}.cls-70{letter-spacing:-0.04em;}</style><clipPath id="clip-path" transform="translate(-25.51 -20.34)"><rect class="cls-1" width="1505" height="804"/></clipPath></defs><title>F Reflections</title><g class="cls-2"><path class="cls-3" d="M67.44,571.16c-.17-.07-.39-.25-.51-.2s-.17.33-.25.5c.18.08.39.25.52.2s.17-.32.24-.5" transform="translate(-25.51 -20.34)"/><path class="cls-4" d="M130,764.33l4.57,3.49-.51.6L130,766.87Z" transform="translate(-25.51 -20.34)"/><path class="cls-5" d="M53.61,510a56.23,56.23,0,0,1,27.71-6.66c18.87.52,33.32,9.07,44.13,24.25,7.72,10.85,9.61,23.15,8.93,36.08l-2.46,10.24c-.87-.75-1.8-1.45-2.61-2.26Q113.62,556,98,540.35a22.66,22.66,0,0,0-2.73-2c-5-9.24-20.19-9.67-26.86-3.75-2.1,1.86-3.41,4.71-4.74,7.28-.46.88.14,2.3.25,3.48,1.35,1.44,2.71,2.87,4,4.33,2.65,2.92,6.59,5.08,5.83,10,.11.33.21.67.31,1,3.66,3.72,7.36,7.39,10.95,11.18A14.4,14.4,0,0,1,86.75,575c-2,2.51-4.71,2.92-7.67,2.58l-7.47-6.9-8.91-1c0,6.06,2.65,9.83,6.93,12.69l1.35.89.1-.08A23.61,23.61,0,0,0,73.61,587c6.43,6.54,12.94,13,19.45,19.48,1.1,1.09,2.3,2.06,3.46,3.08C71.9,618.41,42,605.42,30.85,581c-11.87-26-2.91-55.26,21.46-70.15.45-.28.87-.59,1.3-.89" transform="translate(-25.51 -20.34)"/><path class="cls-5" d="M849.56,776.85c-20.19,6.26-38.3,2.29-53.87-11.8a54,54,0,0,1-11.86-63.92,54.45,54.45,0,0,1,102.9,17.4,49.72,49.72,0,0,1-3,25.21,12.55,12.55,0,0,0-1.46-2.33q-16-16-32-32a12.69,12.69,0,0,0-2.86-1.64c-.39-.62-.8-1.23-1.19-1.85-3.85-6-9.51-8.14-16.36-7.26-6.33.8-10.59,4.4-12.92,10.31-3.24,8.25-1.28,16.86,5.25,23.16l1.27.81,0,0c.77,1.11,1.53,2.24,2.33,3.33,1.77,2.45,3.56,4.89,5.34,7.33L823,745.13c.15,2.39.3,4.66.44,6.94,7.13,7.16,14.23,14.35,21.43,21.45a35,35,0,0,0,4.66,3.33" transform="translate(-25.51 -20.34)"/><path class="cls-5" d="M99.09,762.32c-15.85,5.6-31.11,3.93-45.39-4.58A54.36,54.36,0,0,1,73.13,657.22c39-6,70.53,29.33,61.13,67.16a2.77,2.77,0,0,1-.3.56q-18.32-18.51-36.66-37a9.78,9.78,0,0,0-2.09-1.29c-.09-.39-.19-.79-.43-1.8-.2,1.6-.31,2.5-.42,3.4-.18-1.11-.36-2.22-.58-3.54a36,36,0,0,1-5.1,0c-2.82-.41-4.31.83-5.76,3.16q-9.32,15.06-19.05,29.86c-1.68,2.57-1.7,5-1,7.81,4.88,0,9.63,0,14.36,0,2.57,0,5.14.3,7.71.47H63.35c.8,1,1.08,1.38,1.44,1.74q15.67,15.69,31.37,31.38c1,1,2,2.12,2.93,3.19" transform="translate(-25.51 -20.34)"/><path class="cls-5" d="M849.2,616.73c-20.5,6.28-38.81,2.07-54.29-12.48-17-16-21.46-40.34-12-61.55a54.52,54.52,0,0,1,53.42-32c35.26,2.08,59.93,39.15,47.73,71.72-2-2.09-3.91-4.22-5.93-6.27q-14.5-14.65-29.06-29.24a5.27,5.27,0,0,0-1.62-.76c-5.19-8.37-17.16-11-25.16-5.12a14.21,14.21,0,0,0-4.82,6.41c-2.39,6.88-.41,12.66,5.12,16.25-2.23,3-5,5.64-6.39,8.87-2.64,6.34-.13,12.36,6.25,17.29,1,1.15,1.91,2.37,3,3.43Q837.28,605,849.2,616.73" transform="translate(-25.51 -20.34)"/><path class="cls-5" d="M850.31,313.42c-19.46,6.47-37.26,3.06-52.85-10a53.82,53.82,0,0,1-16.33-59,54.63,54.63,0,0,1,49.55-36.86c37-1.78,65.28,35,54.15,70.3a2.79,2.79,0,0,1-.34.53,14.05,14.05,0,0,0-1.76-2.94c-4.47-4.49-9.06-8.88-13.57-13.33q-13.33-13.14-26.62-26.3a6.52,6.52,0,0,0-1.69-.58c-10.54-.44-19.89,5.35-23,15.37-1.72,5.53-2.21,11.56-2.43,17.4-.31,8.07,2.71,14.84,10,19.21a18.66,18.66,0,0,0,1.88,2.79c5.87,5.95,11.81,11.83,17.7,17.75,1.83,1.84,3.58,3.74,5.36,5.6" transform="translate(-25.51 -20.34)"/><path class="cls-5" d="M98,167.21c-18,6.19-34.85,3.65-50.19-7.41A54.18,54.18,0,0,1,28.9,97C37.39,73.91,60,59.79,85.42,61.78c23,1.82,43.24,19.87,47.93,43.21,2,9.88,1.58,19.74-2.2,29.27A18.13,18.13,0,0,0,129,130.6q-13.81-14-27.79-27.83c-2.14-2.12-4.49-4-6.74-6C90,89.37,83.2,88,75.51,89.45,68,90.87,64.29,96.3,63.71,103.31a173.69,173.69,0,0,0-.18,24.57A16.17,16.17,0,0,0,72.1,141.5a9.51,9.51,0,0,0,1.13,1.81q11.47,11.69,23,23.32c.38.38,1.13.39,1.71.58" transform="translate(-25.51 -20.34)"/><path class="cls-5" d="M90.16,461.66c-27.4,6.28-56.62-12.36-63-40.8-4.82-21.42,1.12-40,18-54.17,17.06-14.3,36.61-16.85,57-8.1,24.75,10.59,37.54,38.11,30.46,64.1a22.36,22.36,0,0,1-.91,2.35,3.1,3.1,0,0,1-.83-.43Q114.13,408,97.42,391.3a18,18,0,0,0-2.52-1.76c-2.45-2.2-4.54-5.32-7.41-6.42-10.11-3.88-24.71-.87-25.77,15l17.8,12.32c-4.87,5.39-9.61,10.9-14.65,16.11-2.62,2.72-2.42,5.47-1.36,8.56,6.37,6.5,12.71,13,19.12,19.47,2.43,2.44,5,4.72,7.53,7.07" transform="translate(-25.51 -20.34)"/><path class="cls-5" d="M847.17,464.17c-19.43,5.23-36.71.94-51.46-12.45a53.91,53.91,0,0,1-13-61.63,54.58,54.58,0,0,1,54-32.59c30.51,2.1,53.63,29.91,50.14,60.31-.1.83-.36,1.65-.54,2.47-1.82-1.53-3.75-2.95-5.44-4.62q-15-14.81-29.9-29.72a27.8,27.8,0,0,0-3.38-.4q-12.33,0-24.66,0H814.2c.38,2.7.7,5,1,7.31,3.41,3.54,6.78,7.12,10.24,10.6,2.47,2.5,5.07,4.88,7.61,7.31-4,9-8.07,18-12.18,27.11l2.6.36-1.86,1,9.24,9q8.16,8,16.3,15.95" transform="translate(-25.51 -20.34)"/><path class="cls-5" d="M850.41,167.42c-23,9.11-52-1.52-64.74-23.75a54.49,54.49,0,0,1,46-82c33.53-.93,60.28,29.84,54.79,63-.13.73-.37,1.44-.55,2.15a10.35,10.35,0,0,1-1.75-1.19c-2-2-3.87-4.12-5.87-6.1-3.93-3.91-7.94-7.74-11.89-11.63q-9-8.91-18.07-17.88a18.75,18.75,0,0,0-3-.53c-4.76,0-9.52,0-14.28,0H819.89c-.91,8.59-1.81,16.77-2.6,25-.06.65.6,1.36.93,2,.12.36.14.82.38,1.06q8.58,8.73,17.21,17.41l-4.46.61q-3.66-3.75-7.31-7.52h-8.5c.27,6.4,3.77,10.34,8.82,13.25a11.21,11.21,0,0,0,1.46,2.64Q837,155.26,848.19,166.5a6.54,6.54,0,0,0,2.22.92" transform="translate(-25.51 -20.34)"/><path class="cls-6" d="M847.17,464.17q-8.14-8-16.3-15.95l-9.24-9,1.86-1H826c3,.41,4.51-1,5.71-3.85,5.33-12.61,10.92-25.11,16.5-37.6,1.56-3.48,3.13-6.89,2.8-10.83q14.94,14.88,29.9,29.72c1.69,1.67,3.62,3.09,5.44,4.62-3.28,20-14.58,33.68-32.85,41.87a56.37,56.37,0,0,1-6.3,2" transform="translate(-25.51 -20.34)"/><path class="cls-6" d="M848.31,90c6,6,12,11.94,18.07,17.88,4,3.89,8,7.72,11.89,11.63,2,2,3.88,4.09,5.87,6.1a10.35,10.35,0,0,0,1.75,1.19c-4.34,20.08-16.23,33.58-35.48,40.65a6.54,6.54,0,0,1-2.22-.92q-11.25-11.24-22.37-22.61a10.84,10.84,0,0,1-1.45-2.64c3.42.47,6.88,1.47,10.28,1.31C847,142,853.75,128.49,848.07,116c-2.42-5.31-6.64-8.2-12.41-8.38-3.09-.1-6.22.55-9.78.92.51-3.52,1.07-7.32,1.62-11.11,6.17,0,12.34.07,18.51,0a7.53,7.53,0,0,0,2.34-.9c0-2.2,0-4.41,0-6.61" transform="translate(-25.51 -20.34)"/><path class="cls-6" d="M90.16,461.66c-2.52-2.35-5.1-4.63-7.53-7.07-6.41-6.45-12.75-13-19.12-19.47l3.85,0c1,.28,2,.87,3.08.46,7.91-3.14,16.56-3.79,24.21-.05,1,.51,2.09-.14,3.13-.45.21-2.32.42-4.65.65-7.26H74c1.47-1.62,2.25-2.47,3-3.33,5-5.68,10.29-11.18,15-17.11,4.17-5.25,5.45-11.34,2.89-17.87a18,18,0,0,1,2.52,1.76q16.74,16.63,33.43,33.31a3.1,3.1,0,0,0,.83.43c-6.88,20.09-20.8,32.21-41.52,36.62" transform="translate(-25.51 -20.34)"/><path class="cls-6" d="M95.21,686.67A9.78,9.78,0,0,1,97.3,688q18.36,18.46,36.66,37-7.68,27.78-34.87,37.38c-1-1.07-1.91-2.17-2.93-3.19q-15.68-15.71-31.37-31.38c-.36-.36-.64-.77-1.44-1.74H85v11.13h9.23V725.45h6.28v-6.72l-6-.66c.07-1,.14-1.92.22-2.87a23.75,23.75,0,0,0,.49-3.32c0-8.4,0-16.8.06-25.21" transform="translate(-25.51 -20.34)"/><path class="cls-6" d="M850.31,313.42c-1.78-1.86-3.53-3.76-5.36-5.6-5.89-5.92-11.83-11.8-17.7-17.75a18.66,18.66,0,0,1-1.88-2.79l1.19.4c8.26,3,17,.22,21.07-6.78,4.36-7.45,3-19.22-3.19-24.25a16.62,16.62,0,0,0-6.47-3c-4.78-1.16-9.15.26-13.46,3a27.52,27.52,0,0,1,3.3-8c3.43-5,8.9-5.92,14.73-6.17v-6.59q13.31,13.16,26.62,26.3c4.51,4.45,9.1,8.84,13.57,13.33a14.05,14.05,0,0,1,1.76,2.94q-8.41,26-34.18,35" transform="translate(-25.51 -20.34)"/><path class="cls-6" d="M96.52,609.55c-1.15-1-2.36-2-3.46-3.08C86.55,600,80,593.53,73.61,587a23.61,23.61,0,0,1-2.53-3.84,25.17,25.17,0,0,0,15.25.78,14.58,14.58,0,0,0,11.21-14.65c0-5.89-3-9.76-8.25-12.22,7.7-5.55,9.15-10.32,5.93-18.73a22.66,22.66,0,0,1,2.73,2q15.7,15.61,31.36,31.3c.81.81,1.74,1.51,2.61,2.26C127,590.13,116.36,601.25,101,608c-1.43.63-3,1-4.46,1.52" transform="translate(-25.51 -20.34)"/><path class="cls-6" d="M847.44,546.14a5.27,5.27,0,0,1,1.62.76q14.57,14.58,29.06,29.24c2,2.05,4,4.18,5.93,6.27-6,17.16-17.56,28.64-34.85,34.32q-11.9-11.72-23.77-23.46c-1.08-1.06-2-2.28-3-3.43a24.15,24.15,0,0,0,17,1.25,14,14,0,0,0,10.34-13.59c.18-6.15-3-10.24-8.06-13.24,6.92-5.3,8.32-9.81,5.73-18.12" transform="translate(-25.51 -20.34)"/><path class="cls-6" d="M847.46,707.78a13,13,0,0,1,2.85,1.64q16.05,15.95,32,32a12.15,12.15,0,0,1,1.46,2.32q-9.18,24.75-34.21,33.11a35,35,0,0,1-4.66-3.33c-7.2-7.09-14.3-14.29-21.43-21.45,1.26-.07,2.53-.09,3.79-.19,11.2-.89,18.82-7.06,21.3-18,2-8.74,2.32-17.57-1.1-26.15" transform="translate(-25.51 -20.34)"/><path class="cls-6" d="M98,167.21c-.58-.19-1.33-.2-1.71-.58q-11.56-11.62-23-23.32a9.51,9.51,0,0,1-1.13-1.81c13.24,4.26,22.69-.66,24.41-13.56,1.4-10.43,2.07-21-2.06-31.21,2.25,2,4.6,3.92,6.74,6q14,13.85,27.79,27.83a18.13,18.13,0,0,1,2.17,3.66q-8.81,24.3-33.17,33" transform="translate(-25.51 -20.34)"/><path class="cls-7" d="M67.44,571.16c-.07.18-.11.45-.24.5s-.34-.12-.52-.2c.08-.17.12-.45.25-.5s.34.13.51.2" transform="translate(-25.51 -20.34)"/><path class="cls-5" d="M43.12,221.69l5.58-4.49c9.94-6.35,20.68-9.84,32.61-9.64,36.25.61,62.15,37.43,50.33,71.7a4.79,4.79,0,0,1-.48.81c-.69-.8-1.32-1.64-2.06-2.38q-13.75-13.8-27.56-27.55c-4.71-4.69-9.49-9.3-14.24-13.95a9.19,9.19,0,0,0-2.83.07c-4.35,1.5-8.65,3.14-13,4.73-6.59,2.41-6.59,2.41-5.71,9.6,1.21,1.26,2.38,2.56,3.63,3.78,2.94,2.85,5.93,5.65,8.89,8.47v25.63h8.34l-7,.63-1.18,1.31C82.72,294,87,297.52,91.09,301.3c3.59,3.36,6.87,7,10.28,10.57-15.24,6.72-30.47,6.22-45.28-.95-33.63-16.3-41-60.79-14.68-87.37.59-.6,1.14-1.24,1.71-1.86" transform="translate(-25.51 -20.34)"/><path class="cls-6" d="M87.3,236.19c4.75,4.65,9.53,9.26,14.24,13.95q13.81,13.74,27.56,27.55c.74.74,1.37,1.58,2.05,2.38q-7.84,22.5-29.78,31.8c-3.42-3.53-6.69-7.21-10.28-10.56-4-3.79-8.37-7.28-12.58-10.9l1.18-1.31,7-.63a20,20,0,0,0,.54-3.29q.1-24.49.12-49" transform="translate(-25.51 -20.34)"/><path class="cls-8" d="M87.3,236.19q0,24.5-.12,49a20,20,0,0,1-.54,3.29H78.3V246.26l-12.52,4.33c-.88-7.19-.88-7.19,5.71-9.6,4.33-1.59,8.63-3.23,13-4.73a9.19,9.19,0,0,1,2.83-.07" transform="translate(-25.51 -20.34)"/><path class="cls-6" d="M65.78,250.59l12.52-4.33v16.58c-3-2.82-6-5.62-8.89-8.47-1.26-1.21-2.42-2.52-3.63-3.78" transform="translate(-25.51 -20.34)"/><path class="cls-9" d="M95.22,538.33c3.22,8.41,1.77,13.18-5.94,18.73,5.24,2.46,8.27,6.33,8.26,12.22a14.58,14.58,0,0,1-11.21,14.65,25.17,25.17,0,0,1-15.25-.78l-.1.09-1.35-.89c-4.28-2.87-7-6.64-6.93-12.69l8.91,1c.22,4.06,2.84,6.48,7.47,6.9,3,.34,5.67-.07,7.67-2.58,4.48-6,1.59-13.23-5.74-14.12-2.29-.27-4.64-.13-7-.19-.1-.33-.2-.67-.31-1,.11-1.94.23-3.89.34-5.78,11.14-.88,13.42-2.11,13.86-7.33.38-4.49-1.55-7.5-5.41-8.42-5.31-1.27-8.33.63-11.18,7.21H63.87c-.11-1.18-.71-2.6-.25-3.48,1.33-2.57,2.64-5.42,4.74-7.28,6.67-5.92,21.87-5.49,26.86,3.75" transform="translate(-25.51 -20.34)"/><path class="cls-6" d="M63.87,545.34h7.47c2.85-6.58,5.87-8.48,11.18-7.21,3.86.92,5.79,3.93,5.41,8.42-.44,5.22-2.72,6.45-13.86,7.33-.11,1.89-.22,3.83-.34,5.78.76-4.91-3.18-7.07-5.83-10-1.32-1.46-2.68-2.89-4-4.33" transform="translate(-25.51 -20.34)"/><path class="cls-6" d="M74,560.66c2.33.06,4.68-.08,7,.19,7.33.89,10.22,8.12,5.74,14.12A14.4,14.4,0,0,0,85,571.84c-3.59-3.79-7.29-7.46-10.95-11.18" transform="translate(-25.51 -20.34)"/><path class="cls-6" d="M79.08,577.55c-4.63-.42-7.25-2.84-7.47-6.9l7.47,6.9" transform="translate(-25.51 -20.34)"/><path class="cls-10" d="M69.63,582.34l1.35.9-1.35-.9" transform="translate(-25.51 -20.34)"/><path class="cls-9" d="M847.45,707.78c3.43,8.58,3.1,17.41,1.11,26.15-2.49,10.89-10.1,17.06-21.3,18-1.26.1-2.53.12-3.79.18-.15-2.27-.29-4.54-.44-6.93l8.11-1.54c6.39-2,10.11-7.3,9.14-13.05-5.08,4.61-10.78,4.74-16.81,2.39l0,0-1.27-.82c-6.53-6.3-8.49-14.91-5.25-23.16,2.33-5.91,6.59-9.5,12.92-10.31,6.85-.88,12.5,1.23,16.36,7.26.39.62.8,1.23,1.19,1.85m-5.78,11c-.92-3.09-1.36-6.44-2.86-9.22-3-5.53-9.95-5.26-12.95.29A14.68,14.68,0,0,0,825,721.5c1.35,4.43,4.81,6.57,9.18,5.84s6.9-4,7.47-8.59" transform="translate(-25.51 -20.34)"/><path class="cls-6" d="M823.47,732.93c6,2.35,11.73,2.22,16.81-2.39,1,5.75-2.75,11-9.14,13.05-1.78-2.44-3.57-4.88-5.34-7.33-.8-1.09-1.56-2.22-2.33-3.33" transform="translate(-25.51 -20.34)"/><path class="cls-11" d="M822.23,732.14l1.27.81-1.27-.81" transform="translate(-25.51 -20.34)"/><path class="cls-12" d="M94.44,718.07l6,.66v6.72H94.21v11.69H85V726c-2.57-.17-5.14-.43-7.71-.47-4.73-.07-9.48,0-14.36,0-.74-2.83-.72-5.24,1-7.81q9.72-14.81,19.05-29.86c1.45-2.33,2.94-3.57,5.76-3.16a36,36,0,0,0,5.1,0c.22,1.32.4,2.43.58,3.54l0,.06c-.12,6.38-.29,12.75-.32,19.13,0,3.53.23,7.07.35,10.61m-9.4.4V697.23L71.66,718.47H85Z" transform="translate(-25.51 -20.34)"/><path class="cls-6" d="M94.41,688.33l0-.06.42-3.4c.24,1,.34,1.41.43,1.8,0,8.41,0,16.81-.06,25.22a23.61,23.61,0,0,1-.49,3.31q-.14-13.44-.25-26.87" transform="translate(-25.51 -20.34)"/><path class="cls-12" d="M847.44,546.14c2.59,8.31,1.19,12.82-5.73,18.12,5,3,8.24,7.09,8.06,13.24a14,14,0,0,1-10.34,13.59,24.15,24.15,0,0,1-17-1.25c-6.38-4.93-8.89-11-6.25-17.29,1.35-3.23,4.16-5.86,6.39-8.87-5.53-3.59-7.51-9.37-5.12-16.25a14.21,14.21,0,0,1,4.82-6.41c8-5.84,20-3.25,25.16,5.12M832.59,585c5.26,0,8.27-3,8.34-8.2s-3.22-8.8-8.22-8.9-8.48,3.38-8.52,8.58c0,5.36,3.06,8.5,8.4,8.52m7.21-31.53c.2-4.86-2.67-8.21-7.11-8.3s-7.14,2.77-7.29,7.4c-.15,4.89,2.44,8.06,6.75,8.24,4.54.19,7.46-2.61,7.65-7.34" transform="translate(-25.51 -20.34)"/><path class="cls-9" d="M842.54,235.88v6.59c-5.83.25-11.3,1.19-14.73,6.17a27.52,27.52,0,0,0-3.3,8c4.31-2.74,8.68-4.16,13.46-3a16.62,16.62,0,0,1,6.47,3c6.14,5,7.55,16.8,3.19,24.25-4.1,7-12.81,9.81-21.07,6.78l-1.19-.4c-7.24-4.37-10.26-11.14-10-19.21.22-5.84.71-11.87,2.43-17.4,3.11-10,12.46-15.81,23-15.37a6.52,6.52,0,0,1,1.69.58m-18.89,33.18a64.75,64.75,0,0,0,2.56,8.36,7.06,7.06,0,0,0,7.5,4.22c3.28-.27,6-2,6.55-5.12a27.22,27.22,0,0,0,0-10.79c-1-4.19-5-5.94-9.29-5.08s-6.79,4.05-7.29,8.41" transform="translate(-25.51 -20.34)"/><path class="cls-8" d="M94.45,96.73c4.13,10.17,3.46,20.78,2.06,31.21-1.72,12.9-11.17,17.82-24.41,13.56a16.17,16.17,0,0,1-8.57-13.62,173.67,173.67,0,0,1,.18-24.57c.58-7,4.31-12.44,11.8-13.86C83.2,88,90,89.37,94.45,96.73m-5.72,18c-.36-3.55-.39-8.26-1.4-12.74C86,96.1,78.93,93.8,75,97.91a11.45,11.45,0,0,0-2.93,6.76c-.37,7.47-.2,15-.08,22.46a11.86,11.86,0,0,0,1.18,4.25,7.23,7.23,0,0,0,9.11,4.23c3.75-1.08,5-4.13,5.47-7.44.55-4.07.61-8.2,1-13.42" transform="translate(-25.51 -20.34)"/><path class="cls-9" d="M64.33,435.16l-1.06-.77c-.84-2.8-.81-5.33,1.6-7.83,5-5.21,9.78-10.72,14.65-16.11,1.13-1.23,2.34-2.41,3.39-3.71,2.26-2.81,4.36-5.7,4.39-9.57,0-4.49-2.34-7.72-6.17-8.32-4.9-.76-8.78,1.58-10,6.08-.3,1.08-.49,2.19-.71,3.2H61.72c1.06-15.88,15.66-18.89,25.77-15,2.87,1.1,5,4.22,7.41,6.42,2.56,6.53,1.28,12.62-2.89,17.87-4.71,5.93-10,11.43-15,17.11-.75.86-1.53,1.71-3,3.33H98.43c-.23,2.61-.44,4.94-.65,7.26l-33.45.05" transform="translate(-25.51 -20.34)"/><path class="cls-6" d="M61.72,398.13h8.69c.22-1,.41-2.12.71-3.2,1.23-4.5,5.11-6.84,10-6.08,3.83.6,6.19,3.83,6.17,8.32,0,3.87-2.13,6.76-4.39,9.57-1,1.3-2.26,2.48-3.39,3.71l-17.8-12.32" transform="translate(-25.51 -20.34)"/><path class="cls-13" d="M851,385.94c.33,3.94-1.24,7.35-2.8,10.83-5.58,12.49-11.17,25-16.5,37.6-1.2,2.85-2.66,4.26-5.71,3.85h-2.48l-2.6-.36c4.11-9.16,8.15-18.13,12.18-27.11,2.79-5.87,5.58-11.74,8.52-17.91H815.22c-.32-2.31-.64-4.62-1-7.31h8.74q12.33,0,24.66,0a27.8,27.8,0,0,1,3.38.4" transform="translate(-25.51 -20.34)"/><path class="cls-6" d="M815.22,392.84h26.37c-2.94,6.17-5.73,12-8.52,17.91-2.54-2.43-5.14-4.81-7.62-7.31-3.45-3.48-6.82-7.06-10.23-10.6" transform="translate(-25.51 -20.34)"/><path class="cls-12" d="M827.5,97.46c-.55,3.79-1.11,7.59-1.62,11.11,3.56-.37,6.69-1,9.78-.92,5.77.17,10,3.07,12.41,8.38,5.68,12.46-1,25.94-13.42,26.53-3.4.16-6.86-.84-10.29-1.31-5.05-2.91-8.55-6.86-8.82-13.25H824c1,5,2.82,6.88,7.32,7.52l4.46-.61c5-2.23,5.33-6.69,5.1-11.22-.34-7.16-6.93-11.54-13.24-8.18-3.39,1.8-6.2,1.71-9.45.93-.33-.69-1-1.4-.93-2,.79-8.2,1.69-16.38,2.61-25H831c4.76,0,9.52,0,14.28,0a18.75,18.75,0,0,1,3,.53c0,2.2,0,4.41,0,6.61-3.64.13-7.29.26-10.94.41-3.3.14-6.6.31-9.91.47" transform="translate(-25.51 -20.34)"/><path class="cls-6" d="M818.22,116.44c3.25.78,6.06.87,9.45-.93,6.31-3.35,12.9,1,13.24,8.18.23,4.53-.07,9-5.1,11.22q-8.61-8.7-17.21-17.41c-.24-.24-.26-.7-.38-1.06" transform="translate(-25.51 -20.34)"/><path class="cls-14" d="M824.25,438.22h0" transform="translate(-25.51 -20.34)"/><path class="cls-6" d="M827.5,97.46c3.31-.16,6.61-.33,9.91-.47,3.65-.15,7.3-.28,10.94-.41a7.53,7.53,0,0,1-2.34.9c-6.17,0-12.34,0-18.51,0" transform="translate(-25.51 -20.34)"/><path class="cls-6" d="M67.36,435.15l30.42,0c-1,.31-2.09,1-3.13.45-7.65-3.73-16.3-3.08-24.21.05-1,.41-2.06-.18-3.08-.46" transform="translate(-25.51 -20.34)"/><path class="cls-6" d="M94.41,688.33q.12,13.44.25,26.87c-.08,1-.15,1.91-.22,2.87-.12-3.54-.36-7.08-.35-10.61,0-6.38.2-12.75.32-19.13" transform="translate(-25.51 -20.34)"/><path class="cls-6" d="M841.67,718.75c-.57,4.63-3.24,7.89-7.47,8.59s-7.83-1.41-9.18-5.84a14.68,14.68,0,0,1,.84-11.68c3-5.55,10-5.82,12.95-.29,1.5,2.78,1.94,6.13,2.86,9.22" transform="translate(-25.51 -20.34)"/><path class="cls-6" d="M85,718.47H71.66L85,697.23Z" transform="translate(-25.51 -20.34)"/><path class="cls-6" d="M832.59,585c-5.34,0-8.44-3.16-8.4-8.52,0-5.21,3.49-8.68,8.52-8.58s8.28,3.66,8.22,8.9-3.08,8.21-8.34,8.2" transform="translate(-25.51 -20.34)"/><path class="cls-6" d="M839.8,553.42c-.19,4.73-3.11,7.53-7.65,7.34-4.31-.18-6.9-3.35-6.75-8.24.15-4.63,3-7.5,7.29-7.4s7.31,3.44,7.11,8.3" transform="translate(-25.51 -20.34)"/><path class="cls-6" d="M823.65,269.06c.5-4.36,3.14-7.58,7.29-8.41s8.31.89,9.29,5.08a27.22,27.22,0,0,1,0,10.79c-.57,3.08-3.27,4.85-6.55,5.12a7.06,7.06,0,0,1-7.5-4.22,64.75,64.75,0,0,1-2.56-8.36" transform="translate(-25.51 -20.34)"/><path class="cls-6" d="M88.73,114.75c-.34,5.22-.4,9.35-1,13.42-.45,3.31-1.72,6.36-5.47,7.44a7.23,7.23,0,0,1-9.11-4.23A11.86,11.86,0,0,1,72,127.13c-.12-7.48-.29-15,.08-22.46A11.45,11.45,0,0,1,75,97.91c3.9-4.11,11-1.81,12.3,4.1,1,4.48,1,9.19,1.4,12.74" transform="translate(-25.51 -20.34)"/></g><path class="cls-6" d="M30.42,20.48a5.49,5.49,0,0,1,3.53.94A3.25,3.25,0,0,1,35.1,24.1a3.21,3.21,0,0,1-.63,2,3.15,3.15,0,0,1-1.71,1.13v0a2.33,2.33,0,0,1,1.08.76,6.78,6.78,0,0,1,.85,1.72L36,33.3H33.09l-1-3a3.29,3.29,0,0,0-.84-1.44,2.14,2.14,0,0,0-1.41-.41H28.35v4.9H25.71V20.48Zm-2.07,5.81h1.87q2.22,0,2.22-1.89c0-1.18-.79-1.78-2.36-1.78H28.35ZM41.22,31.8a2,2,0,0,0,1.23-.35,1.36,1.36,0,0,0,.57-.93H45.6a3.54,3.54,0,0,1-.77,1.55,4,4,0,0,1-1.51,1.11,5.21,5.21,0,0,1-2.1.4A4.6,4.6,0,0,1,38.77,33a4,4,0,0,1-1.56-1.73,5.89,5.89,0,0,1-.54-2.58,5.41,5.41,0,0,1,.54-2.45,4.22,4.22,0,0,1,1.56-1.71,4.58,4.58,0,0,1,2.43-.63,4.47,4.47,0,0,1,2.69.82,4.19,4.19,0,0,1,1.54,2.23,7.68,7.68,0,0,1,.29,2.34H39.15a3,3,0,0,0,.62,1.94,1.88,1.88,0,0,0,1.45.61Zm0-6.15a1.87,1.87,0,0,0-1.32.5,2.5,2.5,0,0,0-.67,1.51h4a2.28,2.28,0,0,0-.66-1.5,1.88,1.88,0,0,0-1.34-.51Zm10.66-3.44a1.36,1.36,0,0,0-1,.33,1.56,1.56,0,0,0-.32,1.09v.52h1.73V26H50.53V33.3H48V26H46.53V24.15H48v-.83a3,3,0,0,1,.78-2.24,3.13,3.13,0,0,1,2.25-.74,5.18,5.18,0,0,1,1.24.14v1.78a1.75,1.75,0,0,0-.45-.05ZM53.71,33.3V20.48h2.52V33.3Zm8.93-1.5a2,2,0,0,0,1.23-.35,1.36,1.36,0,0,0,.57-.93H67a3.54,3.54,0,0,1-.77,1.55,4,4,0,0,1-1.51,1.11,5.21,5.21,0,0,1-2.1.4A4.6,4.6,0,0,1,60.19,33a4,4,0,0,1-1.56-1.73,5.89,5.89,0,0,1-.54-2.58,5.41,5.41,0,0,1,.54-2.45,4.22,4.22,0,0,1,1.56-1.71,4.58,4.58,0,0,1,2.43-.63,4.47,4.47,0,0,1,2.69.82,4.19,4.19,0,0,1,1.54,2.23,7.68,7.68,0,0,1,.29,2.34H60.57a3,3,0,0,0,.62,1.94,1.88,1.88,0,0,0,1.45.61Zm0-6.15a1.87,1.87,0,0,0-1.32.5,2.5,2.5,0,0,0-.67,1.51h4a2.28,2.28,0,0,0-.66-1.5,1.88,1.88,0,0,0-1.34-.51Zm10.57-1.79a4.82,4.82,0,0,1,2.15.47,3.87,3.87,0,0,1,1.51,1.32,3.94,3.94,0,0,1,.66,1.9H74.88a2,2,0,0,0-.53-1.27,1.56,1.56,0,0,0-1.18-.47,1.65,1.65,0,0,0-1.44.78,3.77,3.77,0,0,0-.52,2.13,3.81,3.81,0,0,0,.52,2.14,1.65,1.65,0,0,0,1.44.78,1.52,1.52,0,0,0,1.18-.51,2.19,2.19,0,0,0,.51-1.42h2.65a4.1,4.1,0,0,1-1.31,2.81,4.31,4.31,0,0,1-3,1.06,4.81,4.81,0,0,1-2.43-.6,4.06,4.06,0,0,1-1.61-1.7,6,6,0,0,1,0-5.11,4.06,4.06,0,0,1,1.61-1.7,4.82,4.82,0,0,1,2.43-.61ZM83.4,31.41a2,2,0,0,0,.64-.09v1.92a4.41,4.41,0,0,1-1.33.18,3.24,3.24,0,0,1-2.3-.69,3.06,3.06,0,0,1-.72-2.28V26H78.21V24.15h1.48V21.78h2.52v2.37H84V26H82.21v4a1.67,1.67,0,0,0,.27,1.08,1.12,1.12,0,0,0,.92.33Zm2.32-8.77V20.48h2.52v2.16Zm0,10.66V24.15h2.52V33.3Zm9-9.44a5,5,0,0,1,2.48.6,4.09,4.09,0,0,1,1.63,1.69,6.1,6.1,0,0,1,0,5.15A4.15,4.15,0,0,1,97.25,33a5,5,0,0,1-2.48.59A4.88,4.88,0,0,1,92.3,33a4,4,0,0,1-1.63-1.69,6,6,0,0,1,0-5.15,4,4,0,0,1,1.63-1.69,4.89,4.89,0,0,1,2.47-.6Zm0,1.95a1.7,1.7,0,0,0-1.48.79,3.64,3.64,0,0,0-.55,2.12,3.66,3.66,0,0,0,.55,2.13,1.79,1.79,0,0,0,3,0,3.73,3.73,0,0,0,.55-2.13,3.72,3.72,0,0,0-.55-2.12,1.72,1.72,0,0,0-1.49-.79Zm11.61-1.87a3.22,3.22,0,0,1,2.47,1,3.92,3.92,0,0,1,.9,2.78V33.3h-2.52V27.93a2.27,2.27,0,0,0-.43-1.51,1.45,1.45,0,0,0-1.17-.5,1.57,1.57,0,0,0-1.31.64,2.94,2.94,0,0,0-.49,1.84v4.9h-2.52V24.15h2.35V25.3h0a3.41,3.41,0,0,1,1.15-1,3.15,3.15,0,0,1,1.53-.37Zm9.13-.08a4.44,4.44,0,0,1,2.82.8,2.73,2.73,0,0,1,1,2.3h-2.41c0-.89-.48-1.33-1.44-1.33a1.61,1.61,0,0,0-.92.22.73.73,0,0,0-.32.62.66.66,0,0,0,.2.52,1.52,1.52,0,0,0,.57.31c.25.09.65.2,1.19.34a17.48,17.48,0,0,1,1.82.58,2.88,2.88,0,0,1,1.14.86,2.56,2.56,0,0,1,.48,1.64,2.45,2.45,0,0,1-1.09,2.08,6,6,0,0,1-6,0,2.88,2.88,0,0,1-1.08-2.44h2.56a1.39,1.39,0,0,0,.41,1.06,2.1,2.1,0,0,0,2.18.14.73.73,0,0,0,.34-.65.84.84,0,0,0-.21-.6,1.57,1.57,0,0,0-.61-.36c-.26-.09-.68-.21-1.28-.37a15.31,15.31,0,0,1-1.69-.53,2.5,2.5,0,0,1-1-.8,2.7,2.7,0,0,1,0-3,3.31,3.31,0,0,1,1.34-1,5,5,0,0,1,2-.36Z" transform="translate(-25.51 -20.34)"/><text class="cls-15" transform="translate(141.7 95.8)"><tspan class="cls-16">F</tspan><tspan x="6.68" y="0">auske has a n</tspan><tspan class="cls-17" x="89.83" y="0">a</tspan><tspan x="97.05" y="0">tu</tspan><tspan class="cls-17" x="110.37" y="0">r</tspan><tspan x="115.25" y="0">al </tspan><tspan class="cls-18" x="129.3" y="0">r</tspan><tspan class="cls-19" x="134.1" y="0">ese</tspan><tspan class="cls-20" x="155.22" y="0">r</tspan><tspan class="cls-21" x="160.52" y="0">v</tspan><tspan x="167.65" y="0">e a</tspan><tspan class="cls-22" x="185.7" y="0">r</tspan><tspan x="190.49" y="0">ea </tspan><tspan class="cls-23" x="208.54" y="0">r</tspan><tspan x="213.53" y="0">ig</tspan><tspan class="cls-24" x="225.51" y="0">h</tspan><tspan class="cls-19" x="233.84" y="0">t a</tspan><tspan class="cls-18" x="249.33" y="0">r</tspan><tspan x="254.13" y="0">ound the </tspan><tspan class="cls-25" x="315" y="0">c</tspan><tspan x="321.7" y="0">o</tspan><tspan class="cls-23" x="329.99" y="0">r</tspan><tspan class="cls-26" x="334.97" y="0">ne</tspan><tspan class="cls-27" x="350.92" y="0">r</tspan><tspan x="355.06" y="0">.</tspan></text><text class="cls-15" transform="translate(141.7 383.97)">No<tspan class="cls-28" x="18.23" y="0">r</tspan><tspan class="cls-29" x="23.55" y="0">w</tspan><tspan class="cls-30" x="34.62" y="0">a</tspan><tspan x="41.8" y="0">y </tspan><tspan class="cls-31" x="52.11" y="0">c</tspan><tspan x="58.8" y="0">ould and </tspan><tspan class="cls-17" x="118.09" y="0">w</tspan><tspan x="129.15" y="0">a</tspan><tspan class="cls-32" x="136.43" y="0">n</tspan><tspan x="144.75" y="0">ts </tspan><tspan class="cls-31" x="158.94" y="0">t</tspan><tspan x="163.86" y="0">o be</tspan><tspan class="cls-31" x="191.52" y="0">c</tspan><tspan x="198.21" y="0">ome e</tspan><tspan class="cls-18" x="237.44" y="0">v</tspan><tspan x="244.57" y="0">en mo</tspan><tspan class="cls-18" x="284.61" y="0">r</tspan><tspan x="289.42" y="0">e impo</tspan><tspan class="cls-33" x="333.21" y="0">r</tspan><tspan x="338.49" y="0">ta</tspan><tspan class="cls-32" x="350.77" y="0">n</tspan><tspan class="cls-19" x="359.1" y="0">t in p</tspan><tspan class="cls-21" x="391.01" y="0">r</tspan><tspan class="cls-34" x="395.82" y="0">o</tspan><tspan x="404.02" y="0">viding p</tspan><tspan class="cls-18" x="455.5" y="0">r</tspan><tspan x="460.3" y="0">odu</tspan><tspan class="cls-35" x="485.44" y="0">c</tspan><tspan x="492.4" y="0">ts f</tspan><tspan class="cls-21" x="511" y="0">r</tspan><tspan x="515.8" y="0">om </tspan></text><text class="cls-15" transform="translate(141.7 402.09)"><tspan class="cls-36">A</tspan><tspan class="cls-19" x="9.08" y="0">quacultu</tspan><tspan class="cls-37" x="65.16" y="0">r</tspan><tspan x="69.95" y="0">e </tspan><tspan class="cls-31" x="80.72" y="0">t</tspan><tspan x="85.65" y="0">o the global ma</tspan><tspan class="cls-38" x="184.12" y="0">r</tspan><tspan x="189.1" y="0">ket than it al</tspan><tspan class="cls-37" x="266.79" y="0">r</tspan><tspan x="271.58" y="0">eady i</tspan><tspan class="cls-22" x="308.8" y="0">s</tspan><tspan x="314.63" y="0">.</tspan></text><text class="cls-15" transform="translate(141.7 687.92)"><tspan class="cls-39">I</tspan><tspan x="3.76" y="0">n an e</tspan><tspan class="cls-34" x="41.78" y="0">c</tspan><tspan x="48.46" y="0">onomical sig</tspan><tspan class="cls-29" x="128.33" y="0">ht</tspan><tspan x="141.63" y="0">, it </tspan><tspan class="cls-37" x="159.69" y="0">w</tspan><tspan x="170.66" y="0">ould be inevitably </tspan><tspan class="cls-21" x="286.97" y="0">w</tspan><tspan x="297.95" y="0">o</tspan><tspan class="cls-33" x="306.24" y="0">r</tspan><tspan x="311.53" y="0">th it </tspan><tspan class="cls-40" x="339.85" y="0">f</tspan><tspan class="cls-19" x="344.08" y="0">or No</tspan><tspan class="cls-41" x="378.75" y="0">r</tspan><tspan class="cls-29" x="384.06" y="0">w</tspan><tspan class="cls-42" x="395.14" y="0">a</tspan><tspan class="cls-19" x="402.3" y="0">y </tspan><tspan class="cls-34" x="412.61" y="0">t</tspan><tspan x="417.52" y="0">o be</tspan><tspan class="cls-25" x="445.18" y="0">c</tspan><tspan class="cls-19" x="451.87" y="0">ome one </tspan></text><text class="cls-15" transform="translate(141.7 706.05)">of the global leaders of p<tspan class="cls-22" x="156.13" y="0">r</tspan><tspan class="cls-34" x="160.92" y="0">o</tspan><tspan x="169.12" y="0">viding p</tspan><tspan class="cls-21" x="220.6" y="0">r</tspan><tspan x="225.4" y="0">odu</tspan><tspan class="cls-43" x="250.53" y="0">c</tspan><tspan x="257.5" y="0">ts f</tspan><tspan class="cls-22" x="276.09" y="0">r</tspan><tspan x="280.88" y="0">om </tspan><tspan class="cls-40" x="304.97" y="0">A</tspan><tspan x="314.04" y="0">quacultu</tspan><tspan class="cls-21" x="370.12" y="0">r</tspan><tspan class="cls-40" x="374.93" y="0">e</tspan><tspan x="382.31" y="0">.</tspan></text><text class="cls-15" transform="translate(141.7 544.74)"><tspan class="cls-17">W</tspan><tspan x="12.72" y="0">hen the p</tspan><tspan class="cls-22" x="73" y="0">r</tspan><tspan class="cls-19" x="77.79" y="0">odu</tspan><tspan class="cls-35" x="102.93" y="0">c</tspan><tspan x="109.89" y="0">tion ou</tspan><tspan class="cls-31" x="154.92" y="0">tc</tspan><tspan x="166.54" y="0">ome in </tspan><tspan class="cls-40" x="213.32" y="0">A</tspan><tspan class="cls-19" x="222.38" y="0">quacultu</tspan><tspan class="cls-37" x="278.47" y="0">r</tspan><tspan x="283.25" y="0">e inc</tspan><tspan class="cls-21" x="312.71" y="0">r</tspan><tspan x="317.51" y="0">ease</tspan><tspan class="cls-44" x="345.91" y="0">s</tspan><tspan class="cls-26" x="351.73" y="0">, all of the indust</tspan><tspan class="cls-38" x="455.47" y="0">r</tspan><tspan x="460.45" y="0">ies within </tspan></text><text class="cls-15" transform="translate(141.7 562.86)">its whole <tspan class="cls-17" x="59.85" y="0">v</tspan><tspan x="67.05" y="0">alue chain will sha</tspan><tspan class="cls-21" x="181.17" y="0">r</tspan><tspan x="185.98" y="0">e an e</tspan><tspan class="cls-25" x="223.18" y="0">c</tspan><tspan x="229.87" y="0">onomical boom.</tspan></text><text class="cls-15" transform="translate(144.28 235.98)"><tspan class="cls-36">A</tspan><tspan class="cls-19" x="9.08" y="0">quacultu</tspan><tspan class="cls-37" x="65.16" y="0">r</tspan><tspan x="69.95" y="0">e is a highly discussed </tspan><tspan class="cls-31" x="210.93" y="0">t</tspan><tspan x="215.85" y="0">opic in no</tspan><tspan class="cls-41" x="278.04" y="0">r</tspan><tspan class="cls-18" x="283.36" y="0">w</tspan><tspan class="cls-19" x="294.34" y="0">e</tspan><tspan class="cls-25" x="301.91" y="0">g</tspan><tspan class="cls-19" x="310.28" y="0">ian socie</tspan><tspan class="cls-45" x="364.82" y="0">t</tspan><tspan class="cls-46" x="369.96" y="0">y</tspan><tspan x="376.48" y="0">. </tspan><tspan class="cls-44" x="382.81" y="0">A</tspan><tspan x="391.89" y="0">quacultu</tspan><tspan class="cls-18" x="447.98" y="0">r</tspan><tspan class="cls-19" x="452.78" y="0">e is pa</tspan><tspan class="cls-33" x="492.14" y="0">r</tspan><tspan x="497.43" y="0">t of the </tspan></text><path class="cls-6" d="M176.1,274.17a4.87,4.87,0,0,1-2.1.42,3.47,3.47,0,0,1-3.64-3.73,3.71,3.71,0,0,1,3.93-3.88,4.42,4.42,0,0,1,1.84.38l-.3,1a3,3,0,0,0-1.54-.35,2.76,2.76,0,0,0,0,5.5,3.73,3.73,0,0,0,1.63-.37Zm7.68-1.72c0,.75,0,1.42.06,2h-1.18l-.08-1.19h0a2.73,2.73,0,0,1-2.41,1.36c-1.15,0-2.53-.63-2.53-3.2v-4.28h1.33v4.05c0,1.39.43,2.33,1.64,2.33a1.92,1.92,0,0,0,1.75-1.21,2.11,2.11,0,0,0,.12-.68v-4.49h1.33Zm2.2-8.73h1.33v10.72H186Zm5.17,1.31v2.1h1.9v1h-1.9v3.95c0,.9.26,1.42,1,1.42a3.3,3.3,0,0,0,.77-.09l.06,1a3.2,3.2,0,0,1-1.18.18,1.86,1.86,0,0,1-1.44-.55,2.78,2.78,0,0,1-.51-1.91v-4h-1.13v-1h1.13v-1.75Zm9.52,7.42c0,.75,0,1.42.06,2h-1.18l-.08-1.19h0a2.76,2.76,0,0,1-2.42,1.36c-1.14,0-2.52-.63-2.52-3.2v-4.28h1.33v4.05c0,1.39.42,2.33,1.63,2.33a1.92,1.92,0,0,0,1.75-1.21,1.87,1.87,0,0,0,.13-.68v-4.49h1.33Zm2.2-3c0-.86,0-1.6-.06-2.28H204l.05,1.44h.06a2.19,2.19,0,0,1,2-1.6,1.48,1.48,0,0,1,.38,0v1.25a2,2,0,0,0-.45,0,1.88,1.88,0,0,0-1.79,1.71,3.72,3.72,0,0,0-.06.62v3.89h-1.31ZM208.4,271a2.34,2.34,0,0,0,2.51,2.54,4.81,4.81,0,0,0,2-.38l.23.95a6,6,0,0,1-2.43.45,3.39,3.39,0,0,1-3.6-3.68c0-2.21,1.3-3.94,3.43-3.94,2.39,0,3,2.1,3,3.44a4.15,4.15,0,0,1-.05.62Zm3.9-.95a1.9,1.9,0,0,0-1.85-2.16,2.21,2.21,0,0,0-2,2.16Zm10.18,4.36-.11-.92h0a2.72,2.72,0,0,1-2.24,1.09,2.09,2.09,0,0,1-2.24-2.1c0-1.77,1.58-2.73,4.4-2.72v-.15a1.51,1.51,0,0,0-1.66-1.69,3.64,3.64,0,0,0-1.9.54l-.31-.87a4.5,4.5,0,0,1,2.41-.65c2.23,0,2.78,1.52,2.78,3v2.73a10.31,10.31,0,0,0,.12,1.75Zm-.2-3.73c-1.45,0-3.1.23-3.1,1.65a1.18,1.18,0,0,0,1.26,1.27,1.84,1.84,0,0,0,1.77-1.23,1.48,1.48,0,0,0,.07-.42Zm3.43-1.6c0-.75,0-1.37-.06-2h1.18l.07,1.21h0a2.71,2.71,0,0,1,2.42-1.37c1,0,2.58.6,2.58,3.11v4.36H230.6v-4.21c0-1.18-.43-2.16-1.69-2.16a1.95,1.95,0,0,0-1.87,2v4.39h-1.33Zm14.7-5.39v8.84c0,.64,0,1.38.06,1.88h-1.2l-.06-1.27h0a2.69,2.69,0,0,1-2.49,1.44c-1.77,0-3.13-1.5-3.13-3.72,0-2.43,1.5-3.92,3.28-3.92a2.44,2.44,0,0,1,2.21,1.11h0v-4.36Zm-1.33,6.39a2.67,2.67,0,0,0-.06-.56A2,2,0,0,0,237.1,268c-1.38,0-2.19,1.21-2.19,2.82s.72,2.71,2.16,2.71a2,2,0,0,0,2-1.59,2.56,2.56,0,0,0,.06-.57Zm10.78,4.33-.1-.92h0a2.7,2.7,0,0,1-2.23,1.09,2.09,2.09,0,0,1-2.24-2.1c0-1.77,1.57-2.73,4.4-2.72v-.15A1.51,1.51,0,0,0,248,268a3.7,3.7,0,0,0-1.91.54l-.3-.87a4.46,4.46,0,0,1,2.4-.65c2.24,0,2.78,1.52,2.78,3v2.73a10.31,10.31,0,0,0,.12,1.75Zm-.19-3.73c-1.45,0-3.1.23-3.1,1.65a1.17,1.17,0,0,0,1.25,1.27,1.82,1.82,0,0,0,1.77-1.23,1.2,1.2,0,0,0,.08-.42Zm7.94,3.73v-6.3h-3.06v6.3h-1.32v-6.3h-1v-1h1v-.24a3.41,3.41,0,0,1,.82-2.49,2.45,2.45,0,0,1,1.84-.68,2.33,2.33,0,0,1,1,.25l-.27,1a2,2,0,0,0-.78-.18c-1,0-1.33.89-1.33,2v.32h3.06v-.35a3.46,3.46,0,0,1,.86-2.55,2.56,2.56,0,0,1,1.77-.68,3.11,3.11,0,0,1,1.13.21l-.16,1a2.06,2.06,0,0,0-.86-.17c-1.12,0-1.42,1-1.42,2.12v.39h1.76v1h-1.75v6.3Zm4.84-3.41a2.34,2.34,0,0,0,2.5,2.54,4.83,4.83,0,0,0,2-.38l.22.95a5.89,5.89,0,0,1-2.43.45,3.39,3.39,0,0,1-3.59-3.68c0-2.21,1.3-3.94,3.43-3.94,2.38,0,3,2.1,3,3.44a4.15,4.15,0,0,1-.05.62Zm3.89-.95a1.88,1.88,0,0,0-1.84-2.16,2.21,2.21,0,0,0-2,2.16Zm8.15,4.09a4.94,4.94,0,0,1-2.1.42,3.47,3.47,0,0,1-3.64-3.73,3.71,3.71,0,0,1,3.92-3.88,4.51,4.51,0,0,1,1.85.38l-.31,1a3,3,0,0,0-1.54-.35,2.76,2.76,0,0,0,0,5.5,3.73,3.73,0,0,0,1.63-.37Zm3.35-9.14v2.1h1.9v1h-1.9v3.95c0,.9.25,1.42,1,1.42a3.15,3.15,0,0,0,.77-.09l.07,1a3.2,3.2,0,0,1-1.18.18,1.86,1.86,0,0,1-1.44-.55,2.73,2.73,0,0,1-.51-1.91v-4h-1.13v-1h1.13v-1.75Zm3.21,8.05a3.49,3.49,0,0,0,1.76.53c1,0,1.42-.48,1.42-1.09s-.38-1-1.36-1.34c-1.32-.47-1.94-1.19-1.94-2.07a2.26,2.26,0,0,1,2.53-2.14,3.61,3.61,0,0,1,1.79.45l-.33,1a2.75,2.75,0,0,0-1.49-.43c-.79,0-1.23.46-1.23,1s.44.88,1.39,1.24c1.27.48,1.92,1.12,1.92,2.2,0,1.29-1,2.19-2.73,2.19a4.24,4.24,0,0,1-2.06-.49ZM292,265v2.1h1.9v1H292v3.95c0,.9.26,1.42,1,1.42a3.22,3.22,0,0,0,.77-.09l.06,1a3.2,3.2,0,0,1-1.18.18,1.82,1.82,0,0,1-1.43-.55,2.73,2.73,0,0,1-.52-1.91v-4h-1.13v-1h1.13v-1.75Zm3.4-1.31h1.33v4.56h0a2.45,2.45,0,0,1,1-.94,2.79,2.79,0,0,1,1.36-.37c1,0,2.55.6,2.55,3.12v4.35h-1.33v-4.2c0-1.17-.43-2.17-1.69-2.17a1.9,1.9,0,0,0-1.78,1.33,1.53,1.53,0,0,0-.09.63v4.41h-1.33Zm9.12,7.31a2.34,2.34,0,0,0,2.51,2.54,4.87,4.87,0,0,0,2-.38l.22.95a6,6,0,0,1-2.43.45,3.4,3.4,0,0,1-3.6-3.68c0-2.21,1.3-3.94,3.43-3.94,2.39,0,3,2.1,3,3.44,0,.27,0,.48,0,.62Zm3.9-.95a1.89,1.89,0,0,0-1.84-2.16,2.2,2.2,0,0,0-2,2.16Zm6.87.95a2.34,2.34,0,0,0,2.51,2.54,4.87,4.87,0,0,0,2-.38l.22.95a6,6,0,0,1-2.43.45,3.4,3.4,0,0,1-3.6-3.68c0-2.21,1.3-3.94,3.43-3.94,2.39,0,3,2.1,3,3.44a4.15,4.15,0,0,1-.05.62Zm3.9-.95a1.89,1.89,0,0,0-1.84-2.16,2.2,2.2,0,0,0-2,2.16Zm8.14,4.09a4.87,4.87,0,0,1-2.1.42,3.47,3.47,0,0,1-3.64-3.73,3.71,3.71,0,0,1,3.93-3.88,4.42,4.42,0,0,1,1.84.38l-.3,1a3,3,0,0,0-1.54-.35,2.76,2.76,0,0,0,0,5.5,3.73,3.73,0,0,0,1.63-.37Zm8.08-3.44a3.57,3.57,0,0,1-3.64,3.88,3.48,3.48,0,0,1-3.5-3.76,3.56,3.56,0,0,1,3.62-3.88A3.46,3.46,0,0,1,335.43,270.73Zm-5.8.07c0,1.6.93,2.81,2.22,2.81s2.23-1.19,2.23-2.84c0-1.24-.62-2.81-2.2-2.81S329.63,269.41,329.63,270.8Zm7.48-1.69c0-.75,0-1.37-.06-2h1.18l.07,1.21h0a2.71,2.71,0,0,1,2.42-1.37c1,0,2.58.6,2.58,3.11v4.36H342v-4.21c0-1.18-.44-2.16-1.7-2.16a1.95,1.95,0,0,0-1.87,2v4.39h-1.33Zm15,1.62a3.57,3.57,0,0,1-3.64,3.88,3.47,3.47,0,0,1-3.5-3.76,3.56,3.56,0,0,1,3.62-3.88A3.46,3.46,0,0,1,352.11,270.73Zm-5.8.07c0,1.6.92,2.81,2.22,2.81s2.22-1.19,2.22-2.84c0-1.24-.62-2.81-2.19-2.81S346.31,269.41,346.31,270.8Zm7.48-1.69c0-.75,0-1.37-.06-2h1.16l.06,1.18H355a2.5,2.5,0,0,1,2.29-1.34,2.16,2.16,0,0,1,2.07,1.46h0a3.1,3.1,0,0,1,.82-.95,2.5,2.5,0,0,1,1.61-.51c1,0,2.41.63,2.41,3.17v4.3h-1.3V270.3c0-1.4-.52-2.25-1.59-2.25a1.73,1.73,0,0,0-1.57,1.21,2.18,2.18,0,0,0-.11.67v4.51h-1.3v-4.38c0-1.16-.51-2-1.52-2a1.83,1.83,0,0,0-1.65,1.33,2,2,0,0,0-.1.65v4.41h-1.3Zm12.88-2,1.6,4.32c.17.49.35,1.06.47,1.5h0c.14-.44.29-1,.47-1.53l1.45-4.29h1.41l-2,5.21c-1,2.51-1.6,3.8-2.51,4.58a3.65,3.65,0,0,1-1.63.86l-.33-1.12a3.28,3.28,0,0,0,1.16-.65,3.87,3.87,0,0,0,1.12-1.48,1,1,0,0,0,.11-.31,1.17,1.17,0,0,0-.09-.35l-2.71-6.74Zm5.18,9.17a20.48,20.48,0,0,0,.91-3.61l1.48-.15a18.88,18.88,0,0,1-1.43,3.67Zm7-3.22a3.49,3.49,0,0,0,1.76.53c1,0,1.42-.48,1.42-1.09s-.38-1-1.36-1.34c-1.32-.47-1.94-1.19-1.94-2.07a2.25,2.25,0,0,1,2.53-2.14,3.61,3.61,0,0,1,1.79.45l-.33,1a2.75,2.75,0,0,0-1.49-.43c-.79,0-1.23.46-1.23,1s.44.88,1.39,1.24c1.27.48,1.92,1.12,1.92,2.2,0,1.29-1,2.19-2.73,2.19a4.24,4.24,0,0,1-2.06-.49Zm12.78-2.35a3.57,3.57,0,0,1-3.64,3.88,3.47,3.47,0,0,1-3.5-3.76,3.56,3.56,0,0,1,3.62-3.88A3.46,3.46,0,0,1,391.64,270.73Zm-5.8.07c0,1.6.92,2.81,2.22,2.81s2.22-1.19,2.22-2.84c0-1.24-.62-2.81-2.19-2.81S385.84,269.41,385.84,270.8Zm12.69,3.37a4.94,4.94,0,0,1-2.1.42,3.47,3.47,0,0,1-3.64-3.73,3.71,3.71,0,0,1,3.93-3.88,4.45,4.45,0,0,1,1.84.38l-.3,1a3,3,0,0,0-1.54-.35,2.76,2.76,0,0,0-.05,5.5,3.66,3.66,0,0,0,1.63-.37Zm3-9.09a.83.83,0,0,1-1.65,0,.81.81,0,0,1,.83-.83A.79.79,0,0,1,401.57,265.08Zm-1.48,9.36v-7.31h1.33v7.31Zm4.27-3.41a2.34,2.34,0,0,0,2.51,2.54,4.78,4.78,0,0,0,2-.38l.23.95a6,6,0,0,1-2.43.45,3.4,3.4,0,0,1-3.6-3.68c0-2.21,1.3-3.94,3.43-3.94,2.39,0,3,2.1,3,3.44,0,.27,0,.48,0,.62Zm3.9-.95a1.89,1.89,0,0,0-1.84-2.16,2.2,2.2,0,0,0-2,2.16Zm4.53-5.05v2.1h1.9v1h-1.9v3.95c0,.9.26,1.42,1,1.42a3.22,3.22,0,0,0,.77-.09l.06,1a3.2,3.2,0,0,1-1.18.18A1.82,1.82,0,0,1,412,274a2.73,2.73,0,0,1-.52-1.91v-4h-1.13v-1h1.13v-1.75Zm4,2.1,1.6,4.32c.17.49.35,1.06.47,1.5h0c.13-.44.29-1,.47-1.53l1.45-4.29h1.4l-2,5.21c-.95,2.51-1.6,3.8-2.51,4.58a3.65,3.65,0,0,1-1.63.86l-.33-1.12a3.28,3.28,0,0,0,1.16-.65,4,4,0,0,0,1.12-1.48.89.89,0,0,0,.1-.31,1.17,1.17,0,0,0-.09-.35l-2.7-6.74ZM422,276.3a22.39,22.39,0,0,0,.91-3.61l1.48-.15a18.22,18.22,0,0,1-1.44,3.67Zm11.24-1.86-.11-.92h0a2.71,2.71,0,0,1-2.24,1.09,2.08,2.08,0,0,1-2.23-2.1c0-1.77,1.57-2.73,4.39-2.72v-.15a1.5,1.5,0,0,0-1.66-1.69,3.64,3.64,0,0,0-1.9.54l-.3-.87a4.46,4.46,0,0,1,2.4-.65c2.23,0,2.78,1.52,2.78,3v2.73a10.31,10.31,0,0,0,.12,1.75Zm-.2-3.73c-1.45,0-3.09.23-3.09,1.65a1.17,1.17,0,0,0,1.25,1.27A1.83,1.83,0,0,0,433,272.4,1.48,1.48,0,0,0,433,272Zm3.43-1.6c0-.75,0-1.37-.06-2h1.18l.08,1.21h0A2.68,2.68,0,0,1,440.1,267c1,0,2.59.6,2.59,3.11v4.36h-1.33v-4.21c0-1.18-.44-2.16-1.7-2.16a1.95,1.95,0,0,0-1.87,2v4.39h-1.33Zm14.7-5.39v8.84c0,.64,0,1.38.06,1.88H450l-.06-1.27h0a2.71,2.71,0,0,1-2.5,1.44c-1.76,0-3.12-1.5-3.12-3.72,0-2.43,1.49-3.92,3.28-3.92a2.44,2.44,0,0,1,2.2,1.11h0v-4.36Zm-1.33,6.39a2.14,2.14,0,0,0-.06-.56,2,2,0,0,0-1.92-1.54c-1.37,0-2.19,1.21-2.19,2.82s.73,2.71,2.16,2.71a2,2,0,0,0,1.95-1.59,2.08,2.08,0,0,0,.06-.57Zm8.34-5.08v2.1h1.9v1h-1.9v3.95c0,.9.26,1.42,1,1.42a3.3,3.3,0,0,0,.77-.09l.06,1a3.2,3.2,0,0,1-1.18.18,1.86,1.86,0,0,1-1.44-.55,2.78,2.78,0,0,1-.51-1.91v-4h-1.13v-1h1.13v-1.75Zm3.4-1.31h1.33v4.56h0a2.45,2.45,0,0,1,.95-.94,2.79,2.79,0,0,1,1.36-.37c1,0,2.55.6,2.55,3.12v4.35h-1.33v-4.2c0-1.17-.44-2.17-1.69-2.17A1.9,1.9,0,0,0,463,269.4a1.53,1.53,0,0,0-.09.63v4.41h-1.33Zm9.12,7.31a2.34,2.34,0,0,0,2.51,2.54,4.81,4.81,0,0,0,2-.38l.23.95a6,6,0,0,1-2.43.45,3.4,3.4,0,0,1-3.6-3.68c0-2.21,1.3-3.94,3.43-3.94,2.39,0,3,2.1,3,3.44,0,.27,0,.48,0,.62Zm3.9-.95a1.89,1.89,0,0,0-1.84-2.16,2.2,2.2,0,0,0-2,2.16Zm6.87.95a2.34,2.34,0,0,0,2.51,2.54,4.78,4.78,0,0,0,2-.38l.23.95a6,6,0,0,1-2.43.45,3.4,3.4,0,0,1-3.6-3.68c0-2.21,1.3-3.94,3.43-3.94,2.39,0,3,2.1,3,3.44,0,.27,0,.48,0,.62Zm3.9-.95a1.89,1.89,0,0,0-1.84-2.16,2.2,2.2,0,0,0-2,2.16Zm2.93-1c0-.75,0-1.37-.06-2h1.18l.07,1.21h0a2.71,2.71,0,0,1,2.42-1.37c1,0,2.58.6,2.58,3.11v4.36h-1.33v-4.21c0-1.18-.43-2.16-1.69-2.16a1.95,1.95,0,0,0-1.87,2v4.39h-1.33Zm8.7-2,1.44,4.11a19.58,19.58,0,0,1,.58,1.87h.05c.17-.6.38-1.2.62-1.87l1.42-4.11h1.39l-2.87,7.31h-1.27l-2.78-7.31Zm8.23-2.05a.77.77,0,0,1-.84.81.79.79,0,0,1-.8-.81.8.8,0,0,1,.83-.83A.78.78,0,0,1,505.22,265.08Zm-1.48,9.36v-7.31h1.33v7.31Zm3.54-5c0-.86,0-1.6-.06-2.28h1.16l0,1.44h.07a2.19,2.19,0,0,1,2-1.6,1.48,1.48,0,0,1,.38,0v1.25a2.07,2.07,0,0,0-.46,0,1.87,1.87,0,0,0-1.78,1.71,3.72,3.72,0,0,0-.06.62v3.89h-1.31Zm11.4,1.32a3.57,3.57,0,0,1-3.64,3.88,3.47,3.47,0,0,1-3.5-3.76,3.56,3.56,0,0,1,3.62-3.88A3.46,3.46,0,0,1,518.68,270.73Zm-5.8.07c0,1.6.92,2.81,2.22,2.81s2.22-1.19,2.22-2.84c0-1.24-.62-2.81-2.19-2.81S512.88,269.41,512.88,270.8Zm7.48-1.69c0-.75,0-1.37-.06-2h1.18l.07,1.21h0A2.71,2.71,0,0,1,524,267c1,0,2.58.6,2.58,3.11v4.36h-1.33v-4.21c0-1.18-.43-2.16-1.69-2.16a1.95,1.95,0,0,0-1.87,2v4.39h-1.33Zm8.38,0c0-.75,0-1.37-.06-2h1.17l.06,1.18h0a2.53,2.53,0,0,1,2.3-1.34,2.17,2.17,0,0,1,2.07,1.46h0a3,3,0,0,1,.81-.95,2.51,2.51,0,0,1,1.62-.51c1,0,2.4.63,2.4,3.17v4.3h-1.3V270.3c0-1.4-.51-2.25-1.58-2.25a1.71,1.71,0,0,0-1.57,1.21,1.92,1.92,0,0,0-.11.67v4.51h-1.3v-4.38c0-1.16-.51-2-1.53-2a1.81,1.81,0,0,0-1.64,1.33,1.78,1.78,0,0,0-.11.65v4.41h-1.3ZM542.08,271a2.34,2.34,0,0,0,2.51,2.54,4.81,4.81,0,0,0,2-.38l.23.95a6,6,0,0,1-2.43.45,3.4,3.4,0,0,1-3.6-3.68c0-2.21,1.3-3.94,3.43-3.94,2.39,0,3,2.1,3,3.44,0,.27,0,.48,0,.62Zm3.9-.95a1.89,1.89,0,0,0-1.84-2.16,2.2,2.2,0,0,0-2,2.16Zm2.93-1c0-.75,0-1.37-.06-2H550l.07,1.21h0a2.71,2.71,0,0,1,2.42-1.37c1,0,2.58.6,2.58,3.11v4.36H553.8v-4.21c0-1.18-.43-2.16-1.69-2.16a1.95,1.95,0,0,0-1.87,2v4.39h-1.33Zm9.92-4.08v2.1h1.91v1h-1.91v3.95c0,.9.26,1.42,1,1.42a3.22,3.22,0,0,0,.77-.09l.06,1a3.2,3.2,0,0,1-1.18.18,1.82,1.82,0,0,1-1.43-.55,2.73,2.73,0,0,1-.52-1.91v-4H556.4v-1h1.13v-1.75Zm3,8.63a.9.9,0,1,1,.89.95A.89.89,0,0,1,561.87,273.66Z" transform="translate(-25.51 -20.34)"/><text class="cls-15" transform="translate(897.27 94.23)"><tspan class="cls-47">S</tspan><tspan class="cls-48" x="7.48" y="0">al</tspan><tspan class="cls-34" x="18.32" y="0">t</tspan><tspan class="cls-49" x="23.23" y="0">en </tspan><tspan class="cls-50" x="42.38" y="0">A</tspan><tspan x="51.46" y="0">qua does not </tspan><tspan class="cls-24" x="137.22" y="0">w</tspan><tspan x="148.29" y="0">a</tspan><tspan class="cls-51" x="155.57" y="0">n</tspan><tspan x="163.91" y="0">t </tspan><tspan class="cls-34" x="172.11" y="0">t</tspan><tspan x="177.02" y="0">o </tspan><tspan class="cls-52" x="188.51" y="0">e</tspan><tspan x="196.05" y="0">xpand </tspan><tspan class="cls-34" x="239.03" y="0">t</tspan><tspan x="243.93" y="0">o an i</tspan><tspan class="cls-53" x="277.83" y="0">n</tspan><tspan class="cls-34" x="286.15" y="0">t</tspan><tspan class="cls-49" x="291.06" y="0">e</tspan><tspan class="cls-54" x="298.63" y="0">r</tspan><tspan class="cls-48" x="303.63" y="0">n</tspan><tspan class="cls-17" x="312.01" y="0">a</tspan><tspan x="319.23" y="0">tionally </tspan><tspan class="cls-55" x="369.17" y="0">w</tspan><tspan x="380.14" y="0">ell- </tspan><tspan class="cls-56" x="402.67" y="0">k</tspan><tspan x="410" y="0">n</tspan><tspan class="cls-57" x="418.38" y="0">o</tspan><tspan class="cls-49" x="426.57" y="0">wn </tspan><tspan class="cls-58" x="449.27" y="0">g</tspan><tspan class="cls-37" x="457.64" y="0">r</tspan><tspan x="462.43" y="0">oup with </tspan></text><text class="cls-15" transform="translate(897.27 112.36)">huge p<tspan class="cls-18" x="44.51" y="0">r</tspan><tspan x="49.32" y="0">odu</tspan><tspan class="cls-59" x="74.45" y="0">c</tspan><tspan x="81.4" y="0">tion </tspan><tspan class="cls-60" x="109.82" y="0">v</tspan><tspan x="116.94" y="0">olume</tspan><tspan class="cls-55" x="157.29" y="0">s</tspan><tspan class="cls-48" x="163.12" y="0">.</tspan></text><text class="cls-15" transform="translate(897.27 241.89)">A higher p<tspan class="cls-18" x="65.5" y="0">r</tspan><tspan x="70.3" y="0">odu</tspan><tspan class="cls-61" x="95.43" y="0">c</tspan><tspan class="cls-48" x="102.38" y="0">tion ou</tspan><tspan class="cls-34" x="147.41" y="0">t</tspan><tspan class="cls-62" x="152.32" y="0">c</tspan><tspan x="159.01" y="0">ome al</tspan><tspan class="cls-24" x="201.52" y="0">w</tspan><tspan class="cls-63" x="212.59" y="0">a</tspan><tspan class="cls-25" x="219.75" y="0">y</tspan><tspan x="226.79" y="0">s means mo</tspan><tspan class="cls-18" x="301.88" y="0">r</tspan><tspan x="306.68" y="0">e pollution.</tspan></text><text class="cls-15" transform="translate(897.27 395)"><tspan class="cls-34">T</tspan><tspan class="cls-48" x="7.42" y="0">he fa</tspan><tspan class="cls-23" x="38.26" y="0">r</tspan><tspan x="43.25" y="0">med salmon f</tspan><tspan class="cls-18" x="128.85" y="0">r</tspan><tspan x="133.65" y="0">om </tspan><tspan class="cls-64" x="157.74" y="0">F</tspan><tspan x="164.44" y="0">auske is a local speciali</tspan><tspan class="cls-45" x="306.58" y="0">t</tspan><tspan x="311.71" y="0">y and has an </tspan><tspan class="cls-65" x="393.13" y="0">e</tspan><tspan class="cls-66" x="400.67" y="0">x</tspan><tspan x="407.86" y="0">t</tspan><tspan class="cls-18" x="412.86" y="0">r</tspan><tspan x="417.66" y="0">emely high quali</tspan><tspan class="cls-67" x="522.43" y="0">t</tspan><tspan class="cls-68" x="527.55" y="0">y</tspan><tspan x="534.09" y="0">.</tspan></text><text class="cls-15" transform="translate(897.27 546.99)"><tspan class="cls-34">T</tspan><tspan class="cls-48" x="7.42" y="0">he municipali</tspan><tspan class="cls-67" x="92.69" y="0">t</tspan><tspan x="97.81" y="0">y of </tspan><tspan class="cls-16" x="124.03" y="0">F</tspan><tspan class="cls-48" x="130.71" y="0">auske is i</tspan><tspan class="cls-17" x="186.4" y="0">n</tspan><tspan class="cls-62" x="194.72" y="0">t</tspan><tspan class="cls-49" x="199.65" y="0">e</tspan><tspan class="cls-60" x="207.21" y="0">r</tspan><tspan class="cls-49" x="212.02" y="0">es</tspan><tspan class="cls-34" x="225.57" y="0">t</tspan><tspan x="230.48" y="0">ed in keeping </tspan><tspan class="cls-23" x="319.26" y="0">S</tspan><tspan class="cls-49" x="326.76" y="0">al</tspan><tspan class="cls-34" x="337.6" y="0">t</tspan><tspan x="342.51" y="0">en </tspan><tspan class="cls-36" x="361.66" y="0">A</tspan><tspan class="cls-49" x="370.74" y="0">qua as a local </tspan><tspan class="cls-34" x="457.67" y="0">c</tspan><tspan x="464.35" y="0">ompa</tspan><tspan class="cls-69" x="501.12" y="0">n</tspan><tspan class="cls-70" x="509.32" y="0">y</tspan><tspan class="cls-48" x="515.84" y="0">.</tspan></text><text class="cls-15" transform="translate(897.27 708.8)">Di<tspan class="cls-25" x="13.59" y="0">g</tspan><tspan x="21.96" y="0">italiz</tspan><tspan class="cls-24" x="51.34" y="0">a</tspan><tspan x="58.58" y="0">tion and the </tspan><tspan class="cls-34" x="138.53" y="0">t</tspan><tspan x="143.44" y="0">echnology within the p</tspan><tspan class="cls-37" x="289.36" y="0">r</tspan><tspan x="294.14" y="0">odu</tspan><tspan class="cls-35" x="319.28" y="0">c</tspan><tspan class="cls-48" x="326.24" y="0">tion p</tspan><tspan class="cls-18" x="363.25" y="0">r</tspan><tspan x="368.05" y="0">o</tspan><tspan class="cls-34" x="376.35" y="0">c</tspan><tspan x="383.02" y="0">ess is highly de</tspan><tspan class="cls-60" x="477.19" y="0">v</tspan><tspan class="cls-49" x="484.32" y="0">elope</tspan><tspan class="cls-18" x="519.91" y="0">d</tspan><tspan x="528.29" y="0">.</tspan></text></svg>