<?xml version="1.0" encoding="utf-8"?>
<!-- Generator: Adobe Illustrator 23.1.0, SVG Export Plug-In . SVG Version: 6.00 Build 0)  -->
<svg version="1.1" id="Ebene_1" xmlns="http://www.w3.org/2000/svg" xmlns:xlink="http://www.w3.org/1999/xlink" x="0px" y="0px"
	 viewBox="0 0 1505 804" style="enable-background:new 0 0 1505 804;" xml:space="preserve">
<style type="text/css">
    @font-face {font-family: "NeueHaasUnicaW06-ThinItalic";
    src: url("/Blog/main/fonts/NeueHaasUnicaW06/OnlineWebFonts_COM_0ed68d0a6f9c1234e2d43bdd27b951f2/@font-face/3842220656142ccef91508c98b0eb6ed.eot"); /* IE9*/
    src: url("/Blog/main/fonts/NeueHaasUnicaW06/OnlineWebFonts_COM_0ed68d0a6f9c1234e2d43bdd27b951f2/@font-face/3842220656142ccef91508c98b0eb6ed.eot?#iefix") format("embedded-opentype"), /* IE6-IE8 */
    url("/Blog/main/fonts/NeueHaasUnicaW06/OnlineWebFonts_COM_0ed68d0a6f9c1234e2d43bdd27b951f2/@font-face/3842220656142ccef91508c98b0eb6ed.woff2") format("woff2"), /* chrome、firefox */
    url("/Blog/main/fonts/NeueHaasUnicaW06/OnlineWebFonts_COM_0ed68d0a6f9c1234e2d43bdd27b951f2/@font-face/3842220656142ccef91508c98b0eb6ed.woff") format("woff"), /* chrome、firefox */
    url("/Blog/main/fonts/NeueHaasUnicaW06/OnlineWebFonts_COM_0ed68d0a6f9c1234e2d43bdd27b951f2/@font-face/3842220656142ccef91508c98b0eb6ed.ttf") format("truetype"), /* chrome、firefox、opera、Safari, Android, iOS 4.2+*/
    url("/Blog/main/fonts/NeueHaasUnicaW06/OnlineWebFonts_COM_0ed68d0a6f9c1234e2d43bdd27b951f2/@font-face/3842220656142ccef91508c98b0eb6ed.svg#Neue Haas Unica W06 Thin It") format("svg"); /* iOS 4.1- */
    }
    @font-face {font-family: "NeueHaasUnicaW06-ExtraBlack";
    src: url("/Blog/main/fonts/NeueHaasUnicaW06/OnlineWebFonts_COM_3dad734723cd1eada75c00f4d4322909/@font-face/46ff6b5a1511006aeadd4a46a3efd9ae.eot"); /* IE9*/
    src: url("/Blog/main/fonts/NeueHaasUnicaW06/OnlineWebFonts_COM_3dad734723cd1eada75c00f4d4322909/@font-face/46ff6b5a1511006aeadd4a46a3efd9ae.eot?#iefix") format("embedded-opentype"), /* IE6-IE8 */
    url("/Blog/main/fonts/NeueHaasUnicaW06/OnlineWebFonts_COM_3dad734723cd1eada75c00f4d4322909/@font-face/46ff6b5a1511006aeadd4a46a3efd9ae.woff") format("woff2"), /* chrome、firefox */
    url("/Blog/main/fonts/NeueHaasUnicaW06/OnlineWebFonts_COM_3dad734723cd1eada75c00f4d4322909/@font-face/46ff6b5a1511006aeadd4a46a3efd9ae.woff2") format("woff"), /* chrome、firefox */
    url("/Blog/main/fonts/NeueHaasUnicaW06/OnlineWebFonts_COM_3dad734723cd1eada75c00f4d4322909/@font-face/46ff6b5a1511006aeadd4a46a3efd9ae.ttf") format("truetype"), /* chrome、firefox、opera、Safari, Android, iOS 4.2+*/
    url("/Blog/main/fonts/NeueHaasUnicaW06/OnlineWebFonts_COM_3dad734723cd1eada75c00f4d4322909/@font-face/46ff6b5a1511006aeadd4a46a3efd9ae.svg#Neue Haas Unica W06 X Black") format("svg"); /* iOS 4.1- */
    }
    @font-face {font-family: "NeueHaasUnicaW06-Regular";
    src: url("/Blog/main/fonts/NeueHaasUnicaW06/OnlineWebFonts_COM_7a298e4d1b42d5d0485b479c3bcf69bf/@font-face/7250d52844cced73ed70675d1b78c60c.eot"); /* IE9*/
    src: url("/Blog/main/fonts/NeueHaasUnicaW06/OnlineWebFonts_COM_7a298e4d1b42d5d0485b479c3bcf69bf/@font-face/7250d52844cced73ed70675d1b78c60c.eot?#iefix") format("embedded-opentype"), /* IE6-IE8 */
    url("/Blog/main/fonts/NeueHaasUnicaW06/OnlineWebFonts_COM_7a298e4d1b42d5d0485b479c3bcf69bf/@font-face/7250d52844cced73ed70675d1b78c60c.woff") format("woff2"), /* chrome、firefox */
    url("/Blog/main/fonts/NeueHaasUnicaW06/OnlineWebFonts_COM_7a298e4d1b42d5d0485b479c3bcf69bf/@font-face/7250d52844cced73ed70675d1b78c60c.woff2") format("woff"), /* chrome、firefox */
    url("/Blog/main/fonts/NeueHaasUnicaW06/OnlineWebFonts_COM_7a298e4d1b42d5d0485b479c3bcf69bf/@font-face/7250d52844cced73ed70675d1b78c60c.ttf") format("truetype"), /* chrome、firefox、opera、Safari, Android, iOS 4.2+*/
    url("/Blog/main/fonts/NeueHaasUnicaW06/OnlineWebFonts_COM_7a298e4d1b42d5d0485b479c3bcf69bf/@font-face/7250d52844cced73ed70675d1b78c60c.svg#Neue Haas Unica W06 X Black") format("svg"); /* iOS 4.1- */
    }
    @font-face {font-family: "NeueHaasUnicaW06-XBlackIt";
    src: url("/Blog/main/fonts/NeueHaasUnicaW06/OnlineWebFonts_COM_7ded04d499cfd92c5afc12ffac484c5a/@font-face/5ef047f0e72e70adeba30f0c829c33e0.eot"); /* IE9*/
    src: url("/Blog/main/fonts/NeueHaasUnicaW06/OnlineWebFonts_COM_7ded04d499cfd92c5afc12ffac484c5a/@font-face/5ef047f0e72e70adeba30f0c829c33e0.eot?#iefix") format("embedded-opentype"), /* IE6-IE8 */
    url("/Blog/main/fonts/NeueHaasUnicaW06/OnlineWebFonts_COM_7ded04d499cfd92c5afc12ffac484c5a/@font-face/5ef047f0e72e70adeba30f0c829c33e0.woff") format("woff2"), /* chrome、firefox */
    url("/Blog/main/fonts/NeueHaasUnicaW06/OnlineWebFonts_COM_7ded04d499cfd92c5afc12ffac484c5a/@font-face/5ef047f0e72e70adeba30f0c829c33e0.woff2") format("woff"), /* chrome、firefox */
    url("/Blog/main/fonts/NeueHaasUnicaW06/OnlineWebFonts_COM_7ded04d499cfd92c5afc12ffac484c5a/@font-face/5ef047f0e72e70adeba30f0c829c33e0.ttf") format("truetype"), /* chrome、firefox、opera、Safari, Android, iOS 4.2+*/
    url("/Blog/main/fonts/NeueHaasUnicaW06/OnlineWebFonts_COM_7ded04d499cfd92c5afc12ffac484c5a/@font-face/5ef047f0e72e70adeba30f0c829c33e0.svg#Neue Haas Unica W06 X Black") format("svg"); /* iOS 4.1- */
    }
    @font-face {font-family: "NeueHaasUnicaW06-LightIt";
    src: url("/Blog/main/fonts/NeueHaasUnicaW06/OnlineWebFonts_COM_19d2b951c44c457e1bc515a2e9e486fb/@font-face/7f69054324b2adbc60f29dfd260c3d30.eot"); /* IE9*/
    src: url("/Blog/main/fonts/NeueHaasUnicaW06/OnlineWebFonts_COM_19d2b951c44c457e1bc515a2e9e486fb/@font-face/7f69054324b2adbc60f29dfd260c3d30.eot?#iefix") format("embedded-opentype"), /* IE6-IE8 */
    url("/Blog/main/fonts/NeueHaasUnicaW06/OnlineWebFonts_COM_19d2b951c44c457e1bc515a2e9e486fb/@font-face/7f69054324b2adbc60f29dfd260c3d30.woff") format("woff2"), /* chrome、firefox */
    url("/Blog/main/fonts/NeueHaasUnicaW06/OnlineWebFonts_COM_19d2b951c44c457e1bc515a2e9e486fb/@font-face/7f69054324b2adbc60f29dfd260c3d30.woff2") format("woff"), /* chrome、firefox */
    url("/Blog/main/fonts/NeueHaasUnicaW06/OnlineWebFonts_COM_19d2b951c44c457e1bc515a2e9e486fb/@font-face/7f69054324b2adbc60f29dfd260c3d30.ttf") format("truetype"), /* chrome、firefox、opera、Safari, Android, iOS 4.2+*/
    url("/Blog/main/fonts/NeueHaasUnicaW06/OnlineWebFonts_COM_19d2b951c44c457e1bc515a2e9e486fb/@font-face/7f69054324b2adbc60f29dfd260c3d30.svg#Neue Haas Unica W06 X Black") format("svg"); /* iOS 4.1- */
    }
    @font-face {font-family: "NeueHaasUnicaW06-Italic";
    src: url("/Blog/main/fonts/NeueHaasUnicaW06/OnlineWebFonts_COM_059c6c90764b5b58f635dc550a3dd784/@font-face/0aa6b2719638cacfa0e8abce9099a39b.eot"); /* IE9*/
    src: url("/Blog/main/fonts/NeueHaasUnicaW06/OnlineWebFonts_COM_059c6c90764b5b58f635dc550a3dd784/@font-face/0aa6b2719638cacfa0e8abce9099a39b.eot?#iefix") format("embedded-opentype"), /* IE6-IE8 */
    url("/Blog/main/fonts/NeueHaasUnicaW06/OnlineWebFonts_COM_059c6c90764b5b58f635dc550a3dd784/@font-face/0aa6b2719638cacfa0e8abce9099a39b.woff") format("woff2"), /* chrome、firefox */
    url("/Blog/main/fonts/NeueHaasUnicaW06/OnlineWebFonts_COM_059c6c90764b5b58f635dc550a3dd784/@font-face/0aa6b2719638cacfa0e8abce9099a39b.woff2") format("woff"), /* chrome、firefox */
    url("/Blog/main/fonts/NeueHaasUnicaW06/OnlineWebFonts_COM_059c6c90764b5b58f635dc550a3dd784/@font-face/0aa6b2719638cacfa0e8abce9099a39b.ttf") format("truetype"), /* chrome、firefox、opera、Safari, Android, iOS 4.2+*/
    url("/Blog/main/fonts/NeueHaasUnicaW06/OnlineWebFonts_COM_059c6c90764b5b58f635dc550a3dd784/@font-face/0aa6b2719638cacfa0e8abce9099a39b.svg#Neue Haas Unica W06 X Black") format("svg"); /* iOS 4.1- */
    }
    @font-face {font-family: "NeueHaasUnicaW06-Bold";
    src: url("/Blog/main/fonts/NeueHaasUnicaW06/OnlineWebFonts_COM_073d72f89a764f9fcbc574a8bd4cb553/@font-face/bb87c8dd3cc47b366f6bb7738fee180c.eot"); /* IE9*/
    src: url("/Blog/main/fonts/NeueHaasUnicaW06/OnlineWebFonts_COM_073d72f89a764f9fcbc574a8bd4cb553/@font-face/bb87c8dd3cc47b366f6bb7738fee180c.eot?#iefix") format("embedded-opentype"), /* IE6-IE8 */
    url("/Blog/main/fonts/NeueHaasUnicaW06/OnlineWebFonts_COM_073d72f89a764f9fcbc574a8bd4cb553/@font-face/bb87c8dd3cc47b366f6bb7738fee180c.woff") format("woff2"), /* chrome、firefox */
    url("/Blog/main/fonts/NeueHaasUnicaW06/OnlineWebFonts_COM_073d72f89a764f9fcbc574a8bd4cb553/@font-face/bb87c8dd3cc47b366f6bb7738fee180c.woff2") format("woff"), /* chrome、firefox */
    url("/Blog/main/fonts/NeueHaasUnicaW06/OnlineWebFonts_COM_073d72f89a764f9fcbc574a8bd4cb553/@font-face/bb87c8dd3cc47b366f6bb7738fee180c.ttf") format("truetype"), /* chrome、firefox、opera、Safari, Android, iOS 4.2+*/
    url("/Blog/main/fonts/NeueHaasUnicaW06/OnlineWebFonts_COM_073d72f89a764f9fcbc574a8bd4cb553/@font-face/bb87c8dd3cc47b366f6bb7738fee180c.svg#Neue Haas Unica W06 X Black") format("svg"); /* iOS 4.1- */
    }
    @font-face {font-family: "NeueHaasUnicaW06-Heavy";
    src: url("/Blog/main/fonts/NeueHaasUnicaW06/OnlineWebFonts_COM_559d73454fad999c45ebbdaaa3ebacdd/@font-face/d04fc9492a6f504ee79cb87d63393fe0.eot"); /* IE9*/
    src: url("/Blog/main/fonts/NeueHaasUnicaW06/OnlineWebFonts_COM_559d73454fad999c45ebbdaaa3ebacdd/@font-face/d04fc9492a6f504ee79cb87d63393fe0.eot?#iefix") format("embedded-opentype"), /* IE6-IE8 */
    url("/Blog/main/fonts/NeueHaasUnicaW06/OnlineWebFonts_COM_559d73454fad999c45ebbdaaa3ebacdd/@font-face/d04fc9492a6f504ee79cb87d63393fe0.woff") format("woff2"), /* chrome、firefox */
    url("/Blog/main/fonts/NeueHaasUnicaW06/OnlineWebFonts_COM_559d73454fad999c45ebbdaaa3ebacdd/@font-face/d04fc9492a6f504ee79cb87d63393fe0.woff2") format("woff"), /* chrome、firefox */
    url("/Blog/main/fonts/NeueHaasUnicaW06/OnlineWebFonts_COM_559d73454fad999c45ebbdaaa3ebacdd/@font-face/d04fc9492a6f504ee79cb87d63393fe0.ttf") format("truetype"), /* chrome、firefox、opera、Safari, Android, iOS 4.2+*/
    url("/Blog/main/fonts/NeueHaasUnicaW06/OnlineWebFonts_COM_559d73454fad999c45ebbdaaa3ebacdd/@font-face/d04fc9492a6f504ee79cb87d63393fe0.svg#Neue Haas Unica W06 X Black") format("svg"); /* iOS 4.1- */
    }
    @font-face {font-family: "NeueHaasUnicaW06-HeavyIt";
    src: url("/Blog/main/fonts/NeueHaasUnicaW06/OnlineWebFonts_COM_507355e12251f27746763ec4f975a633/@font-face/a9820d1a66a09f97371b7ec92a271a92.eot"); /* IE9*/
    src: url("/Blog/main/fonts/NeueHaasUnicaW06/OnlineWebFonts_COM_507355e12251f27746763ec4f975a633/@font-face/a9820d1a66a09f97371b7ec92a271a92.eot?#iefix") format("embedded-opentype"), /* IE6-IE8 */
    url("/Blog/main/fonts/NeueHaasUnicaW06/OnlineWebFonts_COM_507355e12251f27746763ec4f975a633/@font-face/a9820d1a66a09f97371b7ec92a271a92.woff") format("woff2"), /* chrome、firefox */
    url("/Blog/main/fonts/NeueHaasUnicaW06/OnlineWebFonts_COM_507355e12251f27746763ec4f975a633/@font-face/a9820d1a66a09f97371b7ec92a271a92.woff2") format("woff"), /* chrome、firefox */
    url("/Blog/main/fonts/NeueHaasUnicaW06/OnlineWebFonts_COM_507355e12251f27746763ec4f975a633/@font-face/a9820d1a66a09f97371b7ec92a271a92.ttf") format("truetype"), /* chrome、firefox、opera、Safari, Android, iOS 4.2+*/
    url("/Blog/main/fonts/NeueHaasUnicaW06/OnlineWebFonts_COM_507355e12251f27746763ec4f975a633/@font-face/a9820d1a66a09f97371b7ec92a271a92.svg#Neue Haas Unica W06 X Black") format("svg"); /* iOS 4.1- */
    }
    @font-face {font-family: "NeueHaasUnicaW06-Light";
    src: url("/Blog/main/fonts/NeueHaasUnicaW06/OnlineWebFonts_COM_c59b16964f2eec693c72eb9c925ef088/@font-face/145bf6f8eebf1ad036f74d821af7d94b.eot"); /* IE9*/
    src: url("/Blog/main/fonts/NeueHaasUnicaW06/OnlineWebFonts_COM_c59b16964f2eec693c72eb9c925ef088/@font-face/145bf6f8eebf1ad036f74d821af7d94b.eot?#iefix") format("embedded-opentype"), /* IE6-IE8 */
    url("/Blog/main/fonts/NeueHaasUnicaW06/OnlineWebFonts_COM_c59b16964f2eec693c72eb9c925ef088/@font-face/145bf6f8eebf1ad036f74d821af7d94b.woff") format("woff2"), /* chrome、firefox */
    url("/Blog/main/fonts/NeueHaasUnicaW06/OnlineWebFonts_COM_c59b16964f2eec693c72eb9c925ef088/@font-face/145bf6f8eebf1ad036f74d821af7d94b.woff2") format("woff"), /* chrome、firefox */
    url("/Blog/main/fonts/NeueHaasUnicaW06/OnlineWebFonts_COM_c59b16964f2eec693c72eb9c925ef088/@font-face/145bf6f8eebf1ad036f74d821af7d94b.ttf") format("truetype"), /* chrome、firefox、opera、Safari, Android, iOS 4.2+*/
    url("/Blog/main/fonts/NeueHaasUnicaW06/OnlineWebFonts_COM_c59b16964f2eec693c72eb9c925ef088/@font-face/145bf6f8eebf1ad036f74d821af7d94b.svg#Neue Haas Unica W06 X Black") format("svg"); /* iOS 4.1- */
    }
    @font-face {font-family: "NeueHaasUnicaW06-MediumIt";
    src: url("/Blog/main/fonts/NeueHaasUnicaW06/OnlineWebFonts_COM_d179b86ccc44b19f872ad2ce5d9141f0/@font-face/2a415f48f53c15b960c82ad93f0a2ee0.eot"); /* IE9*/
    src: url("/Blog/main/fonts/NeueHaasUnicaW06/OnlineWebFonts_COM_d179b86ccc44b19f872ad2ce5d9141f0/@font-face/2a415f48f53c15b960c82ad93f0a2ee0.eot?#iefix") format("embedded-opentype"), /* IE6-IE8 */
    url("/Blog/main/fonts/NeueHaasUnicaW06/OnlineWebFonts_COM_d179b86ccc44b19f872ad2ce5d9141f0/@font-face/2a415f48f53c15b960c82ad93f0a2ee0.woff") format("woff2"), /* chrome、firefox */
    url("/Blog/main/fonts/NeueHaasUnicaW06/OnlineWebFonts_COM_d179b86ccc44b19f872ad2ce5d9141f0/@font-face/2a415f48f53c15b960c82ad93f0a2ee0.woff2") format("woff"), /* chrome、firefox */
    url("/Blog/main/fonts/NeueHaasUnicaW06/OnlineWebFonts_COM_d179b86ccc44b19f872ad2ce5d9141f0/@font-face/2a415f48f53c15b960c82ad93f0a2ee0.ttf") format("truetype"), /* chrome、firefox、opera、Safari, Android, iOS 4.2+*/
    url("/Blog/main/fonts/NeueHaasUnicaW06/OnlineWebFonts_COM_d179b86ccc44b19f872ad2ce5d9141f0/@font-face/2a415f48f53c15b960c82ad93f0a2ee0.svg#Neue Haas Unica W06 X Black") format("svg"); /* iOS 4.1- */
    }
    @font-face {font-family: "NeueHaasUnicaW06-Thin";
    src: url("/Blog/main/fonts/NeueHaasUnicaW06/OnlineWebFonts_COM_e0d1d8bcd90f325e7a7f4a8b9636d78a/@font-face/740a2bcf13582a2a0ed99e15dffe7b9f.eot"); /* IE9*/
    src: url("/Blog/main/fonts/NeueHaasUnicaW06/OnlineWebFonts_COM_e0d1d8bcd90f325e7a7f4a8b9636d78a/@font-face/740a2bcf13582a2a0ed99e15dffe7b9f.eot?#iefix") format("embedded-opentype"), /* IE6-IE8 */
    url("/Blog/main/fonts/NeueHaasUnicaW06/OnlineWebFonts_COM_e0d1d8bcd90f325e7a7f4a8b9636d78a/@font-face/740a2bcf13582a2a0ed99e15dffe7b9f.woff") format("woff2"), /* chrome、firefox */
    url("/Blog/main/fonts/NeueHaasUnicaW06/OnlineWebFonts_COM_e0d1d8bcd90f325e7a7f4a8b9636d78a/@font-face/740a2bcf13582a2a0ed99e15dffe7b9f.woff2") format("woff"), /* chrome、firefox */
    url("/Blog/main/fonts/NeueHaasUnicaW06/OnlineWebFonts_COM_e0d1d8bcd90f325e7a7f4a8b9636d78a/@font-face/740a2bcf13582a2a0ed99e15dffe7b9f.ttf") format("truetype"), /* chrome、firefox、opera、Safari, Android, iOS 4.2+*/
    url("/Blog/main/fonts/NeueHaasUnicaW06/OnlineWebFonts_COM_e0d1d8bcd90f325e7a7f4a8b9636d78a/@font-face/740a2bcf13582a2a0ed99e15dffe7b9f.svg#Neue Haas Unica W06 X Black") format("svg"); /* iOS 4.1- */
    }
    @font-face {font-family: "NeueHaasUnicaW06-BoldItalic";
    src: url("/Blog/main/fonts/NeueHaasUnicaW06/OnlineWebFonts_COM_e4e54e1eb6c480425902156a32fef7d6/@font-face/61742cae2dd974e3c9604f614a4c57f1.eot"); /* IE9*/
    src: url("/Blog/main/fonts/NeueHaasUnicaW06/OnlineWebFonts_COM_e4e54e1eb6c480425902156a32fef7d6/@font-face/61742cae2dd974e3c9604f614a4c57f1.eot?#iefix") format("embedded-opentype"), /* IE6-IE8 */
    url("/Blog/main/fonts/NeueHaasUnicaW06/OnlineWebFonts_COM_e4e54e1eb6c480425902156a32fef7d6/@font-face/61742cae2dd974e3c9604f614a4c57f1.woff") format("woff2"), /* chrome、firefox */
    url("/Blog/main/fonts/NeueHaasUnicaW06/OnlineWebFonts_COM_e4e54e1eb6c480425902156a32fef7d6/@font-face/61742cae2dd974e3c9604f614a4c57f1.woff2") format("woff"), /* chrome、firefox */
    url("/Blog/main/fonts/NeueHaasUnicaW06/OnlineWebFonts_COM_e4e54e1eb6c480425902156a32fef7d6/@font-face/61742cae2dd974e3c9604f614a4c57f1.ttf") format("truetype"), /* chrome、firefox、opera、Safari, Android, iOS 4.2+*/
    url("/Blog/main/fonts/NeueHaasUnicaW06/OnlineWebFonts_COM_e4e54e1eb6c480425902156a32fef7d6/@font-face/61742cae2dd974e3c9604f614a4c57f1.svg#Neue Haas Unica W06 X Black") format("svg"); /* iOS 4.1- */
    }
    @font-face {font-family: "NeueHaasUnicaW06-Medium";
    src: url("/Blog/main/fonts/NeueHaasUnicaW06/OnlineWebFonts_COM_e009de3bc4003d481f48e90c6efd332f/@font-face/9c0afb6841117a1e2256b49b040cb768.eot"); /* IE9*/
    src: url("/Blog/main/fonts/NeueHaasUnicaW06/OnlineWebFonts_COM_e009de3bc4003d481f48e90c6efd332f/@font-face/9c0afb6841117a1e2256b49b040cb768.eot?#iefix") format("embedded-opentype"), /* IE6-IE8 */
    url("/Blog/main/fonts/NeueHaasUnicaW06/OnlineWebFonts_COM_e009de3bc4003d481f48e90c6efd332f/@font-face/9c0afb6841117a1e2256b49b040cb768.woff") format("woff2"), /* chrome、firefox */
    url("/Blog/main/fonts/NeueHaasUnicaW06/OnlineWebFonts_COM_e009de3bc4003d481f48e90c6efd332f/@font-face/9c0afb6841117a1e2256b49b040cb768.woff2") format("woff"), /* chrome、firefox */
    url("/Blog/main/fonts/NeueHaasUnicaW06/OnlineWebFonts_COM_e009de3bc4003d481f48e90c6efd332f/@font-face/9c0afb6841117a1e2256b49b040cb768.ttf") format("truetype"), /* chrome、firefox、opera、Safari, Android, iOS 4.2+*/
    url("/Blog/main/fonts/NeueHaasUnicaW06/OnlineWebFonts_COM_e009de3bc4003d481f48e90c6efd332f/@font-face/9c0afb6841117a1e2256b49b040cb768.svg#Neue Haas Unica W06 X Black") format("svg"); /* iOS 4.1- */
    }
    @font-face {font-family: "NeueHaasUnicaW06-BlackIt";
    src: url("/Blog/main/fonts/NeueHaasUnicaW06/OnlineWebFonts_COM_f0d250fc9c4208c6c78408a38db68150/@font-face/15e7a19454566924256299df2a72ab91.eot"); /* IE9*/
    src: url("/Blog/main/fonts/NeueHaasUnicaW06/OnlineWebFonts_COM_f0d250fc9c4208c6c78408a38db68150/@font-face/15e7a19454566924256299df2a72ab91.eot?#iefix") format("embedded-opentype"), /* IE6-IE8 */
    url("/Blog/main/fonts/NeueHaasUnicaW06/OnlineWebFonts_COM_f0d250fc9c4208c6c78408a38db68150/@font-face/15e7a19454566924256299df2a72ab91.woff") format("woff2"), /* chrome、firefox */
    url("/Blog/main/fonts/NeueHaasUnicaW06/OnlineWebFonts_COM_f0d250fc9c4208c6c78408a38db68150/@font-face/15e7a19454566924256299df2a72ab91.woff2") format("woff"), /* chrome、firefox */
    url("/Blog/main/fonts/NeueHaasUnicaW06/OnlineWebFonts_COM_f0d250fc9c4208c6c78408a38db68150/@font-face/15e7a19454566924256299df2a72ab91.ttf") format("truetype"), /* chrome、firefox、opera、Safari, Android, iOS 4.2+*/
    url("/Blog/main/fonts/NeueHaasUnicaW06/OnlineWebFonts_COM_f0d250fc9c4208c6c78408a38db68150/@font-face/15e7a19454566924256299df2a72ab91.svg#Neue Haas Unica W06 X Black") format("svg"); /* iOS 4.1- */
    }
	.st0{fill:#E12D27;}
	.st1{fill:#D12323;}
	.st2{fill:#230C0C;}
	.st3{fill:#5D1312;}
	.st4{fill:#D92725;}
	.st5{fill:#CC2121;}
	.st6{fill:#FFFEFE;}
	.st7{fill:#E8DDDD;}
	.st8{fill:#C41D1F;}
	.st9{fill:#D32323;}
	.st10{fill:#347BBF;}
	.st11{fill:#337ABE;}
	.st12{fill:#252E59;}
	.st13{fill:#232D59;}
	.st14{fill:#F0F2F5;}
	.st15{fill:#B8D8EE;}
	.st16{fill:#D2DBE9;}
	.st17{fill:#F0F7F8;}
	.st18{fill:#F8EFF2;}
	.st19{fill:#E4E6E4;}
	.st20{fill:#36446D;}
	.st21{fill:#C8E7EF;}
	.st22{fill:#1E2444;}
	.st23{fill:#9ED5F3;}
	.st24{fill:#A2B4D6;}
	.st25{fill:#FFFFFF;}
	.st26{fill:#162237;}
	.st27{fill:#909390;}
	.st28{fill:#969796;}
	.st29{fill:#888B87;}
	.st30{fill:#2D77AF;}
	.st31{fill:#8E908D;}
	.st32{fill:#838582;}
	.st33{fill:#7A97BE;}
	.st34{fill:#D5D6D3;}
	.st35{fill:#367C9E;}
	.st36{fill:#F0F3F0;}
	.st37{fill:#1E71B8;}
	.st38{font-family:'NeueHaasUnicaW06-Bold';}
	.st39{font-size:7.0015px;}
	.st40{fill:none;}
	.st41{fill:#1F71B8;}
	.st42{font-family:'NeueHaasUnicaW06-Regular';}
	.st43{font-size:18px;}
	.st44{font-family:'NeueHaasUnicaW06-Thin';}
	.st45{font-size:24px;}
	.st46{font-size:12px;}
</style>
<title>F Why is Aquaculture important</title>
<path class="st0" d="M582.1,12.1h2c0.1,0.1,0.2,0.1,0.3,0.1h5.8c0.1,0,0.2-0.1,0.3-0.1h0.4l0,0l0,0l1.8,0.1
	c6.3,0.2,12.5,0.3,18.8,0.6c1.8,0,3.6,0.2,5.4,0.5c3.3,0.5,6.1,2.7,7.3,5.8c0.2,0.6,0.4,1.2,0.6,1.8c0.2,0.9,0.5,1.7,0.7,2.6
	c-0.3,0.3-0.2,0.4,0.1,0.6v0.3c-0.3,0-0.6,0.1-1,0.1h-74.7c-0.3,0-0.7-0.1-1-0.1l0.1-0.8l0.2-0.1l-0.2-0.2V23v-0.1
	c0.3-1.2,0.7-2.4,1.2-3.6c0.4-1,0.9-1.9,1.6-2.8c1.8-2.1,4.3-3.3,7-3.4c4.6-0.3,9.2-0.5,13.7-0.7c3-0.1,6.1-0.1,9.1-0.2
	C581.9,12.2,582,12.2,582.1,12.1z"/>
<path class="st1" d="M626.5,35v9.2l-0.1,0.1c0,0.6,0,1.1-0.1,1.7h-38.2c-0.4,0-0.9-0.1-1.3-0.1c0.2-0.1,0.4-0.3,0.6-0.4l10-5.2
	l2.8-1.4l-5.1-2.7c0.4,0,0.8-0.1,1.2-0.1h29.3c0.3,0,0.5-0.2,0.5-0.5c0-0.2,0.1-0.4,0.2-0.5L626.5,35z"/>
<path class="st2" d="M590.5,12.1c-0.1,0.1-0.2,0.1-0.3,0.1h-5.8c-0.1,0-0.2-0.1-0.3-0.1H590.5z"/>
<path class="st3" d="M626.5,44.4L626.5,44.4v-0.1V44.4z"/>
<path class="st4" d="M625.6,24.4c0.1,1.3,0.3,2.6,0.4,3.9c0.1,2.3,0.2,4.5,0.3,6.8c-0.1,0.2-0.2,0.3-0.2,0.5c0,0.4-0.2,0.5-0.5,0.5
	h-29.3c-0.4,0-0.8,0-1.2,0.1L585,30.9c-1.7-0.9-3.4-1.7-5.1-2.6l-0.7-0.4v0.6c0,2.1,0,4.1,0,6.2c-0.4,0-0.8,0.1-1.3,0.1h-29.7
	c0.1-1.6,0.1-3.3,0.2-4.9c0.1-1.8,0.3-3.7,0.5-5.6c0.3,0,0.7,0.1,1,0.1h74.7C625,24.5,625.3,24.4,625.6,24.4z"/>
<path class="st4" d="M625.5,23.5l0.1,0.6C625.3,23.9,625.2,23.7,625.5,23.5z"/>
<path class="st4" d="M549,23.6l0.1-0.3l0.2,0.2L549,23.6z"/>
<path class="st4" d="M549.1,23.1v-0.1V23.1z"/>
<path class="st5" d="M548.9,54.8c-0.1-1.3-0.3-2.5-0.4-3.8c-0.1-2-0.2-4-0.3-6c0-0.1,0-0.2,0-0.3h31v5.1l0.6-0.3l7.1-3.6
	c0.4,0,0.9,0.1,1.3,0.1h38.1c-0.1,2.4-0.3,4.8-0.5,7.2c0,0.5-0.1,1-0.2,1.6c-0.4,0-0.8,0.1-1.2,0.1c-24.8,0-49.5,0-74.3,0
	C549.8,54.9,549.3,54.9,548.9,54.8z"/>
<path class="st6" d="M586.8,45.9l-7,3.6l-0.6,0.3v-5.1c0-0.8,0-1.5,0-2.3c0-2.6,0-5.2,0-7.8c0-2.1,0-4.2,0-6.2v-0.6l0.7,0.4
	c0.2,0.1,0.3,0.3,0.5,0.4l6.8,4.5l5.1,3.5l5.1,3.4c0.1,0.1,0.1,0.2,0.2,0.3l-10,5.2C587.2,45.7,587,45.8,586.8,45.9z"/>
<path class="st7" d="M597.5,40.3c0-0.1-0.1-0.2-0.2-0.3l-5.1-3.4l-5.1-3.5l-6.8-4.5c-0.2-0.1-0.3-0.2-0.5-0.4
	c1.7,0.9,3.4,1.7,5.1,2.6l10.2,5.3l5.1,2.7L597.5,40.3z"/>
<path class="st8" d="M548.9,54.8c0.4,0,0.8,0.1,1.3,0.1c24.8,0,49.5,0,74.3,0c0.4,0,0.8-0.1,1.2-0.1c-0.2,2.4-0.9,4.7-2.1,6.7
	c-1.4,2.5-4,4.2-6.9,4.5c-2.8,0.4-5.6,0.5-8.5,0.6c-5.9,0.2-11.8,0.4-17.7,0.4c-5.5,0-11.1-0.1-16.6-0.2c-3.5-0.1-7-0.2-10.5-0.4
	c-2.2-0.1-4.5-0.3-6.6-0.9c-3-0.7-5.5-2.9-6.5-5.8C549.5,58.3,549.1,56.6,548.9,54.8z"/>
<path class="st9" d="M579.2,34.8c0,2.6,0,5.2,0,7.8c0,0.8,0,1.5,0,2.3h-31c0-3,0-6,0-9.1c0-0.3,0-0.6,0-0.8h29.7
	C578.3,34.8,578.8,34.8,579.2,34.8z"/>
<path class="st10" d="M1086.2,294.4c0,1-0.1,2.1-0.1,3.1h-11.2c0-8.2,0-16.4,0-24.6c0-18,0-36.1,0-54.1c0-1.3,0.3-1.7,1.7-1.7
	c2.5,0.1,4.9,0,7.4,0.1c0.7,0.1,1.5,0.3,2.2,0.6c0,0.6,0.1,1.3,0.1,1.9c0,24.3,0,48.6,0,72.9
	C1086.1,293.1,1086.2,293.7,1086.2,294.4z"/>
<path class="st10" d="M1061.1,294.4c0,0.6,0,1.3,0,1.9l-0.1,1.2h-11.2c0-23,0-46.1,0-69.1c0-0.5,0-0.9,0.1-1.4h0.6
	c0.1,0.1,0.3,0.2,0.4,0.2c3.3,0.1,6.6,0.2,9.9,0.3c0-0.1,0.1-0.3,0.1-0.4c0.1,0,0.2,0,0.2,0c0,21.8,0,43.7,0,65.5
	C1061,293.1,1061,293.7,1061.1,294.4z"/>
<path class="st10" d="M1035.9,296.6l-0.1,0.8h-11.2c0-22.8,0-45.5,0-68.3c0-0.7-0.1-1.3-0.3-2l-0.1-0.6c0.5-0.3,1-0.5,1.6-0.6
	c2.5-0.1,4.9,0,7.4,0s2.5,0,2.5,2.5c0,22,0,44,0,66.1C1035.7,295.2,1035.8,295.9,1035.9,296.6z"/>
<path class="st10" d="M1010.8,294.4v1.9l-0.1,1.2h-11.2c0-20,0-40.1,0-60.1h11.2v50.9C1010.7,290.3,1010.8,292.3,1010.8,294.4z"/>
<path class="st10" d="M985.6,247.3v50.1h-11.2c0-16.7,0-33.4,0-50.1L985.6,247.3z"/>
<path class="st11" d="M959.4,297.8l-9.2-0.2l-0.3-0.2c0-0.8,0-1.7,0-2.5c0-16,0-32,0-48c0-0.9,0.6-0.9,1.2-0.9c2.8,0,5.5,0,8.2,0
	c0.5,0.1,1,0.3,1.5,0.6c0,0.2,0,0.5,0,0.7c-0.1,0.6-0.2,1.1-0.3,1.7c0,15.3,0,30.7,0,46c-0.1,0.8-0.3,1.7-0.6,2.5L959.4,297.8z"/>
<path class="st12" d="M1075.5,181.7h1.9c2.3,0,4.6,0.2,6.9,0c1.6-0.1,1.9,0.5,1.9,1.9c-0.1,7.3,0,14.6,0,21.9c0,3.4,0.1,6.7,0.1,10
	c0,0.2-0.1,0.3-0.1,0.5l-0.5,0.1c-0.5-0.1-1-0.2-1.5-0.2c-2.5,0-5-0.1-7.5,0c-1.3,0.1-1.7-0.4-1.7-1.7c0.1-10.2,0-20.4,0-30.6
	c0-0.6-0.1-1.1-0.2-1.7L1075.5,181.7z"/>
<path class="st13" d="M1049.8,194.9l11.1,0.1l-0.2,2.7c-0.1,0.6-0.2,1.2-0.3,1.8c0,7.7,0,15.4,0,23c0,1.2-0.3,1.6-1.5,1.5
	c-1.2-0.1-2.2,0-3.3,0v0.6c1.1,0,2.3-0.1,3.5,0c0.5,0.1,1,0.3,1.4,0.6c-0.4,0.3-0.8,0.5-1.2,0.6c-0.9,0.1-1.9,0-2.8,0
	c-2,0.1-4,0.2-6,0.2h-0.6L1049.8,194.9z"/>
<path class="st11" d="M849.3,271.9H860c0,7.8,0,15.6,0,23.4c-0.1,0.7-0.3,1.5-0.6,2.2h-10.1C849.4,288.9,849.4,280.4,849.3,271.9z"
	/>
<path class="st13" d="M949.9,219h10c1.1,3.4,0.5,6.8,0.6,10.2c0.1,2.3,0.1,4.7,0,7.1c-0.1,2.3-0.6,4.7-0.2,7
	c0.4,2.1-0.8,1.5-1.7,1.5c-2.4,0.1-4.7-0.1-7.1,0.1c-1.4,0.1-1.8-0.3-1.8-1.7C949.9,235,949.9,227,949.9,219z"/>
<path class="st13" d="M823.9,273.9v-0.3c0.1-0.5,0.2-1.1,0.3-1.6c0-5.9,0-11.7,0-17.6c0-1.2,0.3-1.6,1.5-1.5c2.6,0.1,5.2,0.1,7.9,0
	c1,0,1.4,0.3,1.4,1.4c0,6.5,0,13.1,0,19.6l-0.6,0.1L823.9,273.9z"/>
<path class="st12" d="M859.4,271.2h-10.1c0-6.4,0-12.9,0-19.3c0-0.7-0.1-1.5,1-1.5c2.9,0,5.8,0,8.6,0.1c0.5,0.1,0.8,0.5,1,1
	c0.1,1,0.1,2,0,3.1c0,4,0.1,8,0,11.9C860,268,859.6,269.6,859.4,271.2z"/>
<path class="st14" d="M1010.8,294.4c0-2-0.1-4.1-0.1-6.1v-50.9h-11.2c-0.1,0-0.2-0.1-0.3-0.1h-0.4h-1.3l-1.8,0.6
	c-0.4-2.1,2.4-0.8,2.5-2.4c-0.7,0-1.5,0-2.2-0.2c-0.4-0.1-0.9-0.7-0.8-1c0.2-1.2,0.5-2.3,1-3.4c0.1,0.6,0.1,1.2,0.1,1.8
	c-0.1,1.3,0.4,1.7,1.7,1.3c-0.4-1.4-0.9-2.8,0.2-3.8c-0.3-0.6-0.4-1.2-0.5-1.9c0-6.4-0.1-12.7,0.1-19.1c0-1,0.9-1.9,1.5-2.9
	c0.1-0.2,0.6-0.2,0.9-0.2c3.2,0.1,6.4,0.2,9.6,0.3c0.1,0,0.3-0.4,0.4-0.6l0,0c1.1,0.2,1.9,1.4,1.9,3.3c0,4.6,0,9.1,0,13.6
	c0,2.9,0,5.7,0,8.6c0,1.2,0.6,2.4,0,3.6c-0.1,0.3-0.1,0.7,0.1,1.1c0.9,1.1,0.5,1.7-0.4,2c-0.2,0.8-0.3,1.6-0.3,2.4
	c0.1,1.6,0.5,3.1,0.6,4.7c0.1,4.8,0.1,9.5,0,14.3c-0.1,1.4-0.3,2.8-0.5,4.2c-0.1,0.4-0.1,0.8,0,1.3c0.3,1.4,0.5,2.8,0.6,4.2
	c0.1,7.4,0.1,14.8,0,22.3C1012,292.4,1011.2,293.4,1010.8,294.4z M1001.7,236.8h9c0-9.8,0-19.4,0-28.9c0-0.3-0.3-0.6-0.5-1
	l-10.9,0.1c0,0.2-0.1,0.4-0.1,0.6c0,9.4,0,18.8,0,28.3c0,0.3,0.1,0.6,0.3,0.9L1001.7,236.8z"/>
<path class="st15" d="M834.3,274l0.6-0.1l0.3,0c0.2,0.7,0.3,1.4,0.3,2.1c0,6.6,0,13.2,0,19.8c0,1.2,0.3,1.8,1.6,1.7
	c3.8-0.1,7.5,0,11.5,0v-25.1c0-0.2,0-0.4,0.1-0.6h0.4c0,8.3,0,16.7-0.1,25c0,0.2,0.2,0.4,0.3,0.6h10c1,0.2,1-0.4,0.9-1.1
	c0-2.5,0-5.1,0-7.6c0-5.6,0-11.2-0.1-16.9c0.2,0.5,0.3,1.1,0.4,1.7c0,7.5,0.1,14.9,0,22.4c0,1.3,0.4,1.7,1.7,1.7
	c3.9-0.1,7.7,0,11.6,0h0.3c0.1,0,0.2,0,0.3,0h10c0.8,0.2,1-0.3,1-0.9c0-9.5,0-19-0.1-28.5c0-0.8,0-1.7,0-2.6
	c0.2-1.1-0.5-0.9-1.1-0.9h-10.1h-0.3v-0.7h0.3c1.2,0.1,2.3,0.3,3.5,0.3c2.5,0,5-0.1,7.4-0.2l0.3-0.1h0.1h0.1
	c0.1,0.7,0.2,1.4,0.2,2.2c0,9.9,0,19.8,0,29.7c0,1.5,0.5,1.8,1.9,1.8c3.7-0.1,7.4,0,11.3,0c0-0.7,0.1-1.3,0.1-1.8
	c0-7.8,0-15.6,0-23.4c0-0.7,0.1-1.4,0.2-2.2l0.3,0.1c-0.1,0.2-0.1,0.5-0.2,0.7c0,7.4,0,14.7,0,22.1v4.3h10.3l1-0.5h0.2
	c0,0.2,0,0.4,0,0.6s0,0.4,0,0.6c-5.6,0-11.3,0-16.9,0c-1.2,0-1.7,0.3-1.6,1.6c0,0.9,0,1.7,0,2.6h-0.6c0-1,0-1.9,0-2.9
	c0-1-0.3-1.3-1.3-1.3c-7.2,0-14.3,0-21.5,0c-0.9,0-1.2,0.3-1.2,1.2c0,1.1,0,2.1,0,3.2h-0.6c0-1,0-2.1,0-3.1c0-0.8-0.2-1.3-1.2-1.3
	c-7.4,0-14.8,0-22.1,0c-1,0-1.3,0.4-1.2,1.3c0,1,0,2.1,0,3.1h-0.6c0-1.1,0-2.1,0-3.2c0-0.8-0.2-1.2-1.2-1.2c-7.4,0-14.9,0-22.3,0
	c-0.9,0-1.1,0.5-1.1,1.3c0,1.1,0,2.1,0,3.2h-0.5c0-1.4-0.1-2.8,0.1-4.2c0-0.3,0.7-0.7,1.1-0.7c1.7-0.1,3.4,0,5.4,0
	c0-0.7,0.1-1.2,0.1-1.8c0-6.5,0-13.1,0-19.6c0.1-0.7,0.2-1.3,0.3-2c1.9,0,3.8,0.1,5.8,0C831.2,274.2,832.7,274.1,834.3,274z
	 M835.2,278v-3.2h-5.9l-5.2-0.4c-0.1,0.3-0.1,0.5-0.2,0.8c0,7.1,0,14.2,0,21.2c0.1,0.3,0.2,0.6,0.3,0.9h10.1c0.8,0.2,1-0.3,1-0.9
	C835.2,290.3,835.2,284.2,835.2,278z"/>
<path class="st14" d="M848.7,271.7c0,0.2,0,0.4-0.1,0.6c-0.4-0.2-1.1-0.3-1.1-0.5c-0.1-0.4,0.2-0.9,0.4-1.4c0.1-0.5,0.5-1.5,0.3-1.6
	c-1.1-0.7-0.7-1.7-0.7-2.5c0-3.9,0-7.8,0-11.8v-1.5h0.5v14.6l0.5,0.1c0.1-0.3,0.2-0.6,0.2-0.8c0-4.3,0-8.7,0-13
	c0-1.4-0.2-2.8-0.1-4.2c0-0.8,0.3-1.4,1.3-1.3c1.6,0.3,2.3-0.3,1.7-1.9c0-0.2,0-0.4,0-0.6c0.7,0,1.5,0.3,1.9,0
	c0.4-0.3,0.3-1.2,0.4-1.9c0-0.2,0-0.3-0.1-0.4c-0.2-0.5-0.3-1.4-0.7-1.5c-0.5-0.2-1.2,0.2-2,0.4l2.1,2.7l-2,0.2l-0.1-1.6
	c-0.4-0.2-0.8-0.5-1.2-0.8c-0.8-0.8-0.5-2,0.5-1.9c2.3,0.4,4.4-0.8,6.6-0.8c1.9,0.1,2,0.2,1.9,2.1c-0.8-0.6-1.7-0.7-2.3,0.1
	c-0.8,1-0.7,2.4,0.2,3.3c0.3,0.3,1.2,0.1,1.8,0.2l1.7,2.4l-0.8,0.5c1.5,0.5,1.9,1.5,1.9,2.9c-0.1,4.9-0.1,9.8,0,14.7
	c0.1,0.6,0.3,1.3,0.6,1.8h0.5l-2.1,3.1c0.1-0.2,0.1-0.5,0.2-0.8c0-6.7,0-13.5,0-20.2c0-0.2-0.1-0.3-0.1-0.5H849v21.2L848.7,271.7z"
	/>
<path class="st16" d="M974.4,297.4h11.2h13.3h0.3h0.2l0.1,0h11.2h2h11.3h0.3h0.2l0.2,0h11.2h13.3h0.3h0.2l0.2,0h11.2h2h11.3h0.3h0.2
	l0.1,0h11.2c2,0,4.1,0.1,6.1,0c0.8,0,1.2,0.3,1.2,1.2c0,1.2,0,2.4,0,3.6h-0.6c0-0.9-0.1-1.9,0-2.8c0.1-0.9-0.3-1.4-1.3-1.4
	c-7.5,0-15,0-22.4,0c-1.2,0-1.5,0.4-1.4,1.5c0.1,1,0,2-0.3,2.9c0-1.1,0-2.2,0-3.3c0-0.8-0.3-1.1-1.1-1.1c-7.5,0-15.1,0-22.6,0
	c-0.8,0-1.1,0.3-1.1,1.1c0.1,1.1,0,2.2-0.3,3.3c0-1,0-2.1,0-3.1c0-1-0.3-1.3-1.2-1.3c-7.2,0-14.4,0-21.7,0c-1.1,0-1.4,0.4-1.3,1.4
	c0.1,1,0,1.9,0,2.8h-0.6c0-0.9-0.1-1.8,0-2.7c0.1-1-0.2-1.5-1.4-1.5c-7.3,0.1-14.6,0.1-21.8,0c-1,0-1.4,0.3-1.3,1.4
	c0.1,1,0,1.9,0,2.8h-0.6c0-1,0-2,0-3c0-0.8-0.3-1.2-1.2-1.2c-7.4,0-14.8,0-22.1,0c-1,0-1.3,0.4-1.2,1.3c0,0.9,0,1.9,0,2.9h-0.6
	c0-0.9,0-1.8,0-2.6c0.1-1.3-0.4-1.6-1.6-1.6c-1.5,0.1-2.9,0-4.4,0c0-0.2,0-0.4,0-0.6h12.6h0.3h0.2L974.4,297.4z"/>
<path class="st17" d="M1086.2,294.4c0-0.6-0.1-1.2-0.1-1.9c0-24.3,0-48.6,0-72.9c0-0.6-0.1-1.2-0.1-1.9l0.1-0.6h0.1l1.8,0.6
	c-0.3,0.5-0.5,1-0.6,1.5c-0.1,3.5,0,6.9,0,10.4c-1,0.5-1,1.1,0,1.6v61.8L1086.2,294.4z"/>
<path class="st17" d="M1061.1,294.4c0-0.6-0.1-1.2-0.1-1.9c0-21.8,0-43.7,0-65.5l0.1-0.4c0.7,0.3,1.1,0.5,0.8,1.6
	c-0.3,1.2,0.1,2.6,0.2,3.9c0.1,0.5,0.2,1,0.2,1.5c0,9.4,0,18.8,0,28.2c-0.1,0.6-0.2,1.2-0.4,1.8c-0.1,0.3-0.1,0.7-0.1,1.1
	c0.2,1.1,0.4,2.3,0.5,3.5c0,7.8,0.1,15.6,0,23.4C1062.2,292.4,1061.5,293.4,1061.1,294.4z"/>
<path class="st15" d="M949.9,297.4l0.3,0.2c-0.5,0.2-1,0.4-1.5,0.5c-1.6,0.1-3.2,0.1-4.9,0c-0.8,0-1.2,0.3-1.2,1.2c0.1,1,0,2,0,3
	H942c0-0.8,0-1.6,0-2.3c0.2-1.4-0.3-1.9-1.8-1.9c-5.4,0.1-10.7,0-16.1,0v-0.6l0,0l0.3,0h10.3c0.8,0.2,1-0.3,1-0.9
	c0-11.2,0-22.3-0.1-33.5c0-1.3,0-2.5,0-3.8c0.2-0.8-0.3-0.9-1-0.9c-1.8,0-3.5,0-5.3,0h-2.1l-2.8,0.1h-0.3c0-7.8,0-15.7-0.1-23.6
	c0-1.1,0.4-1.3,1.4-1.3c2.9,0,5.9,0.1,8.8,0c1.5-0.1,1.8,0.5,1.8,1.9c0,17.2,0,34.3,0,51.5c0,3,0.1,6.1,0,9.1c0,1.3,0.3,1.8,1.6,1.7
	c3.9-0.1,7.7,0,11.6,0h0.3C949.8,297.5,949.8,297.5,949.9,297.4z M924.5,233.7v23.8h11.2v-23.8L924.5,233.7z"/>
<path class="st17" d="M1073.6,217.8c0.2-0.3,0.4-0.6,0.6-1c0,25.9,0,51.7,0,77.6l-0.6-1.3L1073.6,217.8L1073.6,217.8z"/>
<path class="st14" d="M878.8,234.1l2.6,0.4c-0.1,2,1.1-0.1,1.7,0.8l-2,3l2.8-0.2v-0.4l-0.9-0.5l0.5-0.1l0.3-2.8
	c0.8,0,1.1,0.3,0.9,1.2c-0.1,0.8-0.2,1.6-0.3,2.5c1.2,0.5,2.3,1,3.4,1.8c0.5,0.4,0.4,1.4,0.3,2.3c-1-1.6-1.9-1.7-3.8-1.3
	c-2.6,0.6-5.4,0.1-8,0.1c0.1-0.6,0.4-1.3,0.2-1.5c-0.4-0.3-1-0.3-1.8-0.5l1-0.6c-0.9-1.7-0.6-2.4,1.1-2.9l-0.6,1.7l2.2,1.3
	c0.2-0.5,0.4-1,0.5-1.5C879,236,879,235,878.8,234.1z"/>
<path class="st14" d="M873.9,263.9v0.7c0,1.1-0.1,2.2-0.1,3.3c0,8.3,0,16.6,0,24.9c-0.3-0.5-0.5-1.1-0.6-1.7c0-7.9,0-15.8,0-23.7
	v-1.7h-0.5c-0.1,1-0.2,2-0.3,3.1c-1.5-1.4-1.5-2.1-0.3-3.6c0.3-0.4,0.4-0.8,0.4-1.3c0-6.7,0.1-13.5-0.1-20.2c-0.1-1.7,0-3,1.8-3.9
	l0.3,1.7l2.4,0.5l-2.9,0.1c-0.1,2-0.2,3.9-0.3,5.9c-0.2,0.4-0.6,0.8-0.6,1.2c0,4.2,0,8.4,0,12.6c0,0.4,0.4,0.8,0.6,1.2L873.9,263.9z
	"/>
<path class="st17" d="M1024,294.4c-0.2-0.4-0.4-0.8-0.6-1.3v-65.3l0.6-1.9c0,0.2,0,0.4,0,0.6c0,0.6,0,1.3,0,1.9
	C1024,250.4,1024,272.4,1024,294.4z"/>
<path class="st17" d="M1048.5,227.1h0.6v67.2c-0.2-0.4-0.4-0.8-0.6-1.3V227.1z"/>
<path class="st18" d="M1023.4,227.8v65.3c-0.3-0.5-0.5-1.1-0.6-1.7c0-12.1,0-24.2,0-36.4c0-8.5,0-17,0-25.5
	C1022.9,228.9,1023.1,228.3,1023.4,227.8z"/>
<path class="st18" d="M1087.5,293.1v-61.8l0.2-0.8h0.3c0,0.5,0.1,1,0.1,1.5c0,19.8,0,39.6,0,59.4
	C1088,292,1087.8,292.6,1087.5,293.1z"/>
<path class="st18" d="M1073.6,231.6v61.5c-0.3-0.5-0.5-1.1-0.6-1.7c0-13.4,0-26.9,0-40.3v-20.6h0.5
	C1073.5,230.8,1073.6,231.2,1073.6,231.6z"/>
<path class="st18" d="M1048.5,231.3v61.8c-0.3-0.5-0.5-1.1-0.6-1.7c0-13.5,0-27.1,0-40.6c0-6.2,0-12.4,0-18.7c0-0.6,0.1-1.1,0.4-1.6
	L1048.5,231.3z"/>
<ellipse class="st19" cx="849.8" cy="230.3" rx="43.4" ry="0.2"/>
<path class="st17" d="M997.6,237.2h1.3c0,19,0,38.1,0,57.1l-0.6-1.3v-9c0-14.9,0-29.7,0-44.6c-0.1-0.6-0.3-1.2-0.6-1.7L997.6,237.2z
	"/>
<path class="st18" d="M997.6,237.8c0.3,0.5,0.5,1.1,0.6,1.7c0,14.9,0,29.7,0,44.6v8.9c-0.3-0.5-0.5-1.1-0.6-1.7
	c0-14.8,0-29.6,0-44.3C997.6,244,997.6,240.9,997.6,237.8z"/>
<path class="st10" d="M947.6,318.9c1.8,0,3.2,1.4,3.2,3.2c0,1.8-1.4,3.2-3.2,3.2c-1.7,0-3.2-1.4-3.2-3.1
	C944.4,320.3,945.8,318.9,947.6,318.9z"/>
<path class="st12" d="M911.2,322.1c0,1.7-1.4,3.1-3.2,3.1c-1.7,0-3.1-1.4-3.1-3.1c0-1.7,1.4-3.1,3.1-3.2
	C909.8,318.9,911.2,320.4,911.2,322.1C911.2,322.1,911.2,322.1,911.2,322.1z"/>
<path class="st20" d="M974.1,222.8v-1.7h11.5v25.4l-11.2,0.1l0.1-0.5c3.1,0,6.2-0.1,9.3,0c1,0,1.4-0.3,1.4-1.3c0-7.3,0-14.6,0-21.9
	c0-1.1-0.4-1.3-1.4-1.3c-2.2,0.1-4.4,0.1-6.6,0c-1.1-0.2-2.2,0.3-2.7,1.3L974.1,222.8z"/>
<path class="st15" d="M1024.1,226.5c0-0.2,0-0.4,0-0.6c0-0.2,0.2-0.6,0.2-0.9c0.2,0.1,0.4,0.2,0.7,0.3c3.4,0,6.7,0,10.1,0
	c0.3-0.1,0.6-0.2,0.8-0.3c0,1.5,0.1,2.9,0.1,4.4c0,21.8,0,43.7,0,65.5c0,0.6,0,1.1-0.1,1.7c-0.1-0.7-0.2-1.4-0.2-2.2
	c0-22,0-44,0-66.1c0-2.5,0-2.5-2.5-2.5c-2.5,0-4.9,0-7.4,0c-0.6,0.1-1.1,0.3-1.6,0.6L1024.1,226.5z"/>
<path class="st17" d="M973.1,247.3h0.6c0,15.7,0,31.4,0,47.1c-0.2-0.4-0.4-0.8-0.6-1.3L973.1,247.3z"/>
<path class="st21" d="M1074.3,294.4c0-25.9,0-51.7,0-77.6c0.1-0.4,0.2-0.7,0.2-1.1l0.2,0.5c0.2,0.1,0.3,0.2,0.5,0.2
	c3.6,0,7.3,0,10.9-0.1c0,0.2,0.1,0.5,0.1,0.7h-0.1c-1.1-0.1-2.1-0.3-3.2-0.3c-2.8-0.1-5.5,0-8.4,0v11.8c0,22.9,0,45.9,0,68.8h-0.3
	L1074.3,294.4z"/>
<path class="st18" d="M973.1,247.3v45.8c-0.2-0.4-0.6-0.8-0.6-1.2c0-14.5,0-28.9,0-43.4C972.5,248.1,972.9,247.7,973.1,247.3z"/>
<path class="st14" d="M885.4,241.9c0.5,0.6,1.5,1.2,1.5,1.9c0,1.5-0.2,2.9-0.4,4.4c-0.1,1-0.1,2.1-0.1,3.1c0,1.6-0.1,3.1,0,4.7
	c0.1,2,0.4,4,0.6,5.9c0.2,0.8-0.2,1.6-1,1.9c-0.1,0-0.3,0.1-0.4,0.1h-0.1h-0.1c0-2.1,0.1-4.3,0.1-6.4
	C885.5,252.3,885.5,247.1,885.4,241.9z"/>
<path class="st17" d="M1086.2,215.6c0-3.4-0.1-6.7-0.1-10c0-7.3,0-14.6,0-21.9c0-1.5-0.3-2-1.9-1.9c-2.3,0.1-4.6,0-6.9,0l6-0.3
	c0.8-0.1,1.7-0.2,3-0.3c0.2,0.7,0.3,1.3,0.4,2c0,9.5,0,19,0,28.5c0,1.1,0.1,2.2,0,3.2C1086.8,215.1,1086.4,215.3,1086.2,215.6z"/>
<path class="st20" d="M1035.9,225c-0.3,0.1-0.5,0.2-0.8,0.3c-3.4,0-6.7,0-10.1,0c-0.2,0-0.5-0.1-0.7-0.3h0.1l0.4-0.3
	c3.1,0,6.2,0,9.3,0c1,0,1.4-0.3,1.4-1.3c0-8.8,0-17.5-0.1-26.3l0.6,0.1V225z"/>
<path class="st22" d="M899.3,242h11.3c0,0.4,0,0.7,0,1.1l0.1,26.4v0.1h-11.3V242z M899.6,255.8c0,4,0,8.1,0,12.1
	c0,1,0.3,1.4,1.3,1.4c2.7-0.1,5.3-0.1,8,0c1.1,0,1.4-0.4,1.4-1.5c0-7.8,0-15.6,0-23.4c0-1.8-0.4-2.2-2.2-2.2c-2.2,0-4.5,0.1-6.7,0
	c-1.3-0.1-1.7,0.3-1.7,1.7C899.7,247.8,899.6,251.8,899.6,255.8z"/>
<path class="st23" d="M949.6,297.5h-0.3c0-12.7,0-25.4,0-38.1c0-4.1,0-8.2,0-12.2c0-0.7,0.1-1.4,0.3-2.2l11.3,0.1l0.1,0.6l-0.1,0.1
	h-11.2v1.2c0,9.9,0,19.7,0,29.6C949.5,283.5,949.6,290.5,949.6,297.5z"/>
<path class="st17" d="M1075.5,181.7l-0.8,0.3c0,0.6-0.1,1.2-0.1,1.9c0,10.6,0,21.1-0.1,31.7c-0.3-0.5-0.5-1-0.6-1.6
	c-0.1-4.3,0-8.6,0-12.8v-16.7c0.1-0.4,0.1-0.8,0-1.2c-0.6-1.4,0.2-2,1.4-2.5L1075.5,181.7z"/>
<path class="st21" d="M1024.1,226.5h0.2c0,0.2,0.1,0.4,0.1,0.6c0,1.7-0.1,3.5-0.1,5.2v65.1h-0.3c0-1,0-2.1,0-3.1c0-22,0-44,0-66
	C1024,227.8,1024.1,227.1,1024.1,226.5z"/>
<path class="st21" d="M1049.1,294.4v-67.2l0.3-0.3l0.1,0.1c0,23.6,0,47.1,0,70.6h-0.3C1049.1,296.4,1049.1,295.4,1049.1,294.4z"/>
<path class="st22" d="M849,271.1v-21.2h11.3c0.1,0.2,0.1,0.3,0.1,0.5c0,6.7,0,13.5,0,20.2c0,0.3-0.1,0.5-0.2,0.8l-0.8-0.2
	c0.2-1.6,0.5-3.2,0.6-4.8c0.1-4,0-8,0-11.9c0.1-1,0.1-2,0-3.1c-0.1-0.5-0.5-0.8-1-1c-2.9-0.1-5.8,0-8.6-0.1c-1.2,0-1,0.8-1,1.5
	c0,6.4,0,12.9,0,19.3L849,271.1z"/>
<ellipse class="st14" cx="1064.5" cy="247.3" rx="0.2" ry="23.2"/>
<path class="st22" d="M960.8,245.1l-11.3-0.1c0-8.4,0-16.8,0-25.1c0-0.3,0.2-0.6,0.4-0.8c0,8,0,16,0,24c0,1.4,0.4,1.8,1.8,1.7
	c2.3-0.1,4.7,0,7.1-0.1c0.8,0,2,0.6,1.7-1.5c-0.4-2.2,0.2-4.6,0.2-7c0.1-2.3,0.1-4.7,0-7.1c-0.1-3.4,0.5-6.9-0.6-10.2
	c0.9-0.3,1,0.3,1,1c0,3.8,0,7.5,0,11.3C960.9,235.9,960.9,240.5,960.8,245.1z"/>
<path class="st22" d="M885.4,241.9c0,5.2,0.1,10.4,0.1,15.6c0,2.1,0,4.3-0.1,6.4l-0.3,0.1v-0.1c0-6.6,0-13.2,0.1-19.7
	c0-1.3-0.6-1.9-1.9-1.9c-2.4,0-4.8,0.1-7.2,0c-1.2,0-1.6,0.3-1.6,1.6c0.1,5.2,0,10.3,0,15.5c0,4.3,0,4.3,4.3,4.3
	c1.9,0,3.8,0.2,5.7,0.3h-10.3l0,0c0-7.3,0-14.6-0.1-21.9l2.9-0.1h7.2L885.4,241.9z"/>
<path class="st21" d="M998.9,294.4c0-19.1,0-38.1,0-57.1h0.4c0,0.2-0.1,0.4-0.1,0.6c0,19.9,0,39.7,0,59.6h-0.3
	C998.9,296.4,998.9,295.4,998.9,294.4z"/>
<path class="st14" d="M1014.1,292.9v-28.1h0.3v28.1H1014.1z"/>
<path class="st14" d="M1064.4,292.9v-28.2C1065.2,266.8,1064.9,292.4,1064.4,292.9z"/>
<path class="st22" d="M835.2,273.9l-0.3,0c0-6.5,0-13.1,0-19.6c0-1-0.3-1.4-1.4-1.4c-2.6,0.1-5.2,0.1-7.9,0c-1.2,0-1.5,0.4-1.5,1.5
	c0.1,5.9,0,11.7,0,17.6c-0.1,0.6-0.1,1.1-0.3,1.6v-21h11.3L835.2,273.9z"/>
<path class="st23" d="M960.8,247.3c0-0.2,0-0.5,0-0.7s0-0.6,0-0.8l0.1-0.1c0.1,0.1,0.2,0.3,0.3,0.4v47.1c0,1.3,0,2.5-0.1,3.8H961
	c0-3.5-0.1-7.1-0.1-10.6C960.9,273.3,960.8,260.3,960.8,247.3z"/>
<path class="st24" d="M899.3,242v27.6h11.3c0,0.2,0,0.4,0,0.6l-0.1,0.1l-11-0.1l-0.3-0.1c0-0.7-0.1-1.5-0.1-2.2c0-8.1,0-16.2,0-24.3
	C899,243.1,899.1,242.5,899.3,242z"/>
<path class="st18" d="M1037,197.9v24.6h-0.3v-24.6L1037,197.9z"/>
<path class="st21" d="M973.7,294.4c0-15.7,0-31.4,0-47.1l0.3,0l0.1,0.1v50.2h-0.3L973.7,294.4z"/>
<path class="st25" d="M961.2,293.1V246c0.2,0.3,0.4,0.7,0.4,1.1c0,14.9-0.1,29.8-0.2,44.7C961.4,292.3,961.3,292.7,961.2,293.1z"/>
<path class="st19" d="M904.7,230.5h-22.4v-0.3h22.4V230.5z"/>
<path class="st26" d="M1074.6,215.5c0-10.6,0-21.1,0.1-31.7c0-0.6,0.1-1.2,0.1-1.9c0.1,0.6,0.2,1.1,0.2,1.7c0,10.2,0,20.4,0,30.6
	c0,1.3,0.3,1.7,1.7,1.7c2.5-0.1,5,0,7.5,0c0.5,0,1,0.1,1.5,0.2l-10.9,0.1l-0.2-0.5l-0.1-0.1h-0.1l0,0L1074.6,215.5z"/>
<path class="st23" d="M924.2,258.3h0.3c0,0.5,0,1,0,1.5v33.3v4.4l-0.3,0C924.1,284.4,924.1,271.3,924.2,258.3z"/>
<path class="st16" d="M924.1,297.5v0.6c-1.7,0-3.4,0.1-5.2,0c-1.2-0.1-1.6,0.4-1.5,1.5c0.1,1,0,2,0,3h-0.6c0-1-0.1-2,0-3
	c0.1-1.1-0.3-1.6-1.5-1.5c-1.5,0.1-3,0-4.5,0c0-0.2,0-0.4,0-0.6H924.1z"/>
<path class="st27" d="M933.5,227.1c0.1,0.4,0.2,0.8,0.2,1.3c0,0.5-0.2,0.9-0.5,1.3c-0.4,0.2-1,0.2-1.4,0c-0.3-0.2-0.5-0.8-0.6-1.3
	c-0.1-0.4-0.1-0.9,0-1.3c0.1-0.4,0.2-1,0.5-1.1c0.5-0.2,1-0.2,1.4,0c0.3,0.1,0.5,0.7,0.7,1L933.5,227.1z"/>
<path class="st27" d="M1003.5,199c0.1,0.3,0.2,0.7,0.4,1.1c0.1,0.3,0.2,0.6,0.2,0.8c0.1,0.6,0.1,1.1,0,1.7c-0.3,0.4-0.8,0.6-1.3,0.5
	c-0.5-0.3-1-0.7-1.2-1.3c-0.5-1.1,0-2.3,1.1-2.7C1003,199.1,1003.3,199,1003.5,199z M1002.8,200.3l0.4-0.4l-0.6,0.2l-0.1,0.2
	L1002.8,200.3z"/>
<path class="st19" d="M905.8,230.1H922v0.3h-16.2V230.1z"/>
<path class="st23" d="M873.8,292.8c0-8.3,0-16.6,0-24.9c0-1.1,0-2.2,0.1-3.3h0.3c0,0.7,0,1.4,0,2.1v30.8h-0.3L873.8,292.8z"/>
<path class="st28" d="M858.7,246c-0.6,0-1.5,0.2-1.8-0.2c-0.9-0.9-1-2.3-0.2-3.3c0.6-0.8,1.5-0.7,2.3-0.1c0,0.6,0,1.1,0,1.7
	C858.9,244.7,858.8,245.3,858.7,246z M858.1,243.1v-0.2l-0.6,0.1v0.2L858.1,243.1z"/>
<path class="st28" d="M1055.8,189.4c0.3-0.8,0.3-1.5,0.7-1.8c0.4-0.3,1-0.5,1.5-0.4c0.2,0,0.3,0.7,0.5,1c0.1,0.2,0.2,0.5,0.2,0.7
	c0,0.7-0.1,1.3-0.3,2c-0.4,0.3-0.9,0.4-1.3,0.2C1056.5,190.6,1056.1,190,1055.8,189.4z M1057.8,188.2l0-0.3l-0.6,0.2v0.2
	L1057.8,188.2z"/>
<path class="st29" d="M1061,304.6c0.1,0.4,0.2,0.9,0.2,1.3c-0.1,0.5-0.4,1-0.8,1.4c-0.4,0.2-0.9,0.2-1.3-0.1
	c-0.3-0.4-0.5-0.9-0.5-1.5c-0.1-0.4,0-0.9,0.2-1.3c0.3-0.5,0.8-1.1,1.3-1.2c0.5-0.1,0.8,0.7,1.3,1L1061,304.6z"/>
<path class="st28" d="M1083,175.1c0.3,0.4,0.8,0.7,0.8,1.1c-0.2,0.7-0.4,1.3-0.8,2c-0.6-0.3-1.5-0.5-1.8-1c-0.7-1.4,0.1-3.1,1.3-3.1
	c0.4,0,0.7,0.3,1.1,0.4L1083,175.1l-0.8-0.2l0,0.4L1083,175.1z"/>
<path class="st27" d="M1076.6,176.6c-0.1-0.5-0.3-1.1-0.1-1.4c0.2-0.5,0.8-0.8,1.2-1.3c0.5,0.4,0.9,0.8,1.2,1.3c0.1,0.5,0.1,1,0,1.4
	c-0.1,0.5-0.3,0.9-0.6,1.3c-0.4,0.2-0.9,0.2-1.3,0c-0.4-0.2-0.5-0.8-0.8-1.2L1076.6,176.6z"/>
<path class="st26" d="M1049.8,194.9v31.3c-0.1,0-0.2,0-0.3,0c0-10.1,0-20.2,0-30.3C1049.5,195.5,1049.7,195.2,1049.8,194.9z"/>
<path class="st30" d="M1060.7,197.7l0.2-2.7c0.1,0.2,0.1,0.4,0.2,0.6c0,10.2,0,20.4,0,30.7c-0.1,0-0.2,0-0.3,0l-0.1-0.8
	L1060.7,197.7z"/>
<path class="st29" d="M1011,303.9l-0.8,0.4c0.1,0.2,0.3,0.3,0.3,0.4c0.3,0.6,0.5,1.3,0.5,2c0,0.3-1.2,0.8-1.3,0.7
	c-0.6-0.4-1-1.1-1.1-1.8c0.1-0.8,0.4-1.6,0.9-2.3c0.1-0.2,0.9,0.1,1.4,0.1L1011,303.9z"/>
<path class="st31" d="M834.8,305.9c-1.1,0.1-1.8-0.4-1.6-1.5c0.1-0.5,0.8-0.8,1.3-1.2c0.5,0.5,0.9,1.2,1.3,1.8
	c0.1,0.6,0,1.2-0.3,1.8c-0.5,1-1.5,0.9-2,0.1l1.5-0.8c0-0.1,0-0.2,0-0.3L834.8,305.9z"/>
<path class="st31" d="M1083.5,306.5l1.9,0.2l0.1-0.6c-0.4-0.1-0.9-0.1-1.1-0.3c-0.4-0.4-0.6-1-0.7-1.5c0-0.3,0.6-1,1-1
	c0.5,0,1.4,0.4,1.4,0.8c0.1,0.9,0.1,1.8-0.2,2.7c-0.1,0.3-0.8,0.7-1.2,0.6C1084.4,307.4,1084.1,306.9,1083.5,306.5z"/>
<path class="st26" d="M1024.7,224.7l-0.4,0.3v-27.9h0.9c-0.3,0.8-0.5,1.6-0.6,2.5c-0.1,5.2,0,10.4,0,15.6
	C1024.6,218.4,1024.7,221.5,1024.7,224.7z"/>
<path class="st28" d="M956.4,214.4l1.6-0.2v-0.3c-0.3,0-0.7,0-0.8-0.1c-0.4-0.4-0.8-1-0.8-1.5c0.1-0.5,0.5-1,1-1.1
	c0.5,0,1.3,0.5,1.4,0.8c0.2,0.9,0,1.9-0.3,2.8C957.9,215.5,957,215.5,956.4,214.4z"/>
<path class="st24" d="M910.6,269.5l-0.1-26.4c0-0.4,0-0.7,0-1.1c0.2,0.4,0.3,0.7,0.3,1.1c0,8.4,0,16.8,0,25.2
	C910.9,268.8,910.8,269.2,910.6,269.5z"/>
<path class="st28" d="M883.8,234.4l-0.3,2.8l-0.5,0.1l0.9,0.5v0.4l-2.8,0.2l2-3c-0.6-0.8-1.8,1.2-1.7-0.8v-0.1l1.6-0.5L883.8,234.4z
	"/>
<path class="st28" d="M851.2,245.4l2-0.2l-2.2-2.7c0.8-0.2,1.5-0.6,2-0.4c0.4,0.1,0.5,1,0.7,1.5c0.1,0.1,0.1,0.3,0.1,0.4
	c-0.1,0.6,0,1.5-0.4,1.9s-1.2,0-1.9,0L851.2,245.4z"/>
<path class="st30" d="M860.3,271.8c0,5.6,0.1,11.2,0.1,16.9c0,2.5,0,5.1,0,7.6c0,0.7,0.1,1.3-0.9,1.1c0.3-0.7,0.5-1.4,0.6-2.1
	c0-7.8,0-15.6,0-23.4C860.1,271.8,860.2,271.8,860.3,271.8z"/>
<path class="st28" d="M976.7,215c0.2-2.1,0.4-2.3,2.5-1.5l-1.4,0.6c1.4,0.9,2.4,2,0.4,3.2c-0.3,0.2-1.1-0.3-1.8-0.6l2-0.8L976.7,215
	z"/>
<path class="st23" d="M910.9,296.9h-0.2c0-7.9,0-15.9-0.1-23.8c0-0.9-0.1-1.9-0.1-2.8l0.1-0.1c0.1,0.4,0.3,0.9,0.3,1.3
	C910.9,280,910.9,288.4,910.9,296.9z"/>
<path class="st30" d="M849.4,297.4c-0.1-0.2-0.3-0.4-0.3-0.6c0-8.3,0-16.7,0.1-25c0.1,0,0.2,0,0.2,0.1
	C849.4,280.4,849.4,288.9,849.4,297.4z"/>
<path class="st28" d="M878.8,234.1c0.2,0.9,0.3,1.8,0.3,2.8c-0.1,0.5-0.2,1-0.5,1.5l-2.2-1.3l0.6-1.7c0.1-0.2,0.2-0.3,0.4-0.5
	L878.8,234.1L878.8,234.1z"/>
<path class="st28" d="M1033.5,189.6l-1,0.3c0.5,0.7,0.9,1.4,1.1,2.2c0.1,0.3-0.7,1-1.2,1.1c-0.5,0.1-1-0.4-1.5-0.6l0.2-0.5l1.3,0.3
	c0.7-1.5-0.6-1.1-1.2-1.1C1031.1,189.1,1031.4,188.9,1033.5,189.6z"/>
<path class="st27" d="M951.3,214.5l2-0.7l-1.6-0.8c-0.3-1.8,0-2.1,2.3-1.6c-0.4,0.2-0.6,0.3-0.8,0.4c-0.1,0.1-0.2,0.1-0.4,0.2
	c0.5,0.6,1,1.3,1.3,2.1c0.1,0.3-0.7,1-1.1,1.2C952.5,215.3,952,214.8,951.3,214.5z"/>
<path class="st18" d="M1073.6,217.8v11.6l-0.4,0.8c-0.1-0.8-0.2-1.2-0.2-1.5c0-3.2,0-6.4,0-9.6
	C1073.1,218.6,1073.3,218.2,1073.6,217.8z"/>
<path class="st18" d="M1087.5,229.7c0-3.5,0-6.9,0-10.4c0.1-0.5,0.3-1.1,0.6-1.5c0,3.6,0,7.3,0,10.9
	C1088,229,1087.7,229.3,1087.5,229.7z"/>
<path class="st31" d="M903.6,238.4l-2.7-1.4l1.9-3l0.5,0.2L903.6,238.4z"/>
<path class="st31" d="M833.3,248.7l-2.3-1.3l1.9-3l0.5,0.1C833.3,246,834.3,247.3,833.3,248.7z"/>
<path class="st26" d="M974.1,222.8h0.3c0,7.8,0,15.6,0,23.4c0,0.2,0,0.4-0.1,0.5c-0.1,0-0.2,0-0.3,0
	C974.1,238.7,974.1,230.7,974.1,222.8z"/>
<path class="st27" d="M806.8,264.9c0.5,0.2,1.1,0.3,1.6,0.3c0.2-0.3,0.3-0.6,0.3-0.9c-0.6-0.3-1.2-0.5-1.8-0.7
	c-0.2-1.8,0.2-2.2,2.3-1.5l-1.2,0.4c0.5,0.8,1,1.6,1.3,2.5c0.1,0.2-0.8,0.9-1.4,1c-0.4,0.1-0.8-0.6-1.3-0.8L806.8,264.9z"/>
<path class="st31" d="M807.9,228.5c0.6,0.7,1.1,1.4,1.4,2.2c0.1,0.3-0.8,1.1-1.4,1.3c-0.3,0.1-0.9-0.5-1.1-1.1
	c0.6,0.1,1.1,0.1,1.7,0.1c0.1-0.3,0.1-0.6,0.1-0.9c-0.6-0.2-1.2-0.3-1.8-0.4c0-2.1,0.2-2.2,2.4-1.7L807.9,228.5z"/>
<path class="st29" d="M928.3,229.9l-2.2-1.3l1.9-3l0.5,0.2C928.1,227.1,929.5,228.6,928.3,229.9z"/>
<path class="st32" d="M958.3,306l2-2.9l0.4,0.1c0.1,1.3,0.1,2.7,0.2,4.1L958.3,306z"/>
<path class="st15" d="M1060.8,226.2c0.1,0,0.2,0,0.3,0c0,0.1,0,0.2,0.1,0.3l-0.1,0.4c-0.1,0-0.2,0-0.2,0l-10.4-0.1h-0.6h-0.3
	l-0.1-0.1c0-0.2,0.1-0.4,0.1-0.6c0.1,0,0.2,0,0.3,0L1060.8,226.2L1060.8,226.2z"/>
<path class="st21" d="M974.1,246.6c0.1,0,0.2,0,0.3,0l11.2-0.1c0,0.3,0,0.6,0,0.8l-11.3,0c-0.1,0-0.2,0-0.3,0l-0.1-0.1
	C974,247,974.1,246.8,974.1,246.6z"/>
<path class="st28" d="M901.5,303.9l0.8-0.2c0.6-0.1,1.3-0.5,1.6-0.3s0.5,1,0.7,1.6c0.2,0.4,0.2,0.9,0,1.4c-0.3,0.5-0.8,1.1-1.2,1.1
	s-0.8-0.7-1.2-1.1c-0.3-0.4-0.5-0.9-0.7-1.3C901.5,304.6,901.5,304.2,901.5,303.9z M903.7,303.9h-0.7c-0.4,1-0.7,2,0.7,2.9V303.9z
	 M902.3,305.2l-0.1-0.1c0,0-0.1,0.1-0.1,0.1c0,0,0.1,0.1,0.1,0.1L902.3,305.2z"/>
<path class="st28" d="M926.6,303.9l0.8-0.2c0.6-0.1,1.3-0.5,1.6-0.3c0.4,0.2,0.5,1,0.7,1.6c0.1,0.4,0.1,0.9,0,1.4
	c-0.3,0.5-0.8,1.1-1.2,1.1s-0.8-0.7-1.2-1.1c-0.3-0.4-0.5-0.9-0.7-1.3C926.6,304.6,926.6,304.2,926.6,303.9z M928.5,307
	c1-0.9,0.7-1.9,0.5-2.8c0-0.1-0.5-0.1-0.8-0.2c-0.1,0.8-0.2,1.6-0.2,2.4C928,306.5,928.2,306.7,928.5,307L928.5,307z M927.5,305.2
	l-0.1-0.1c0,0-0.1,0.1-0.1,0.1c0,0,0.1,0.1,0.1,0.1L927.5,305.2z"/>
<path class="st27" d="M983.6,305.1c0-2,0.3-2.3,2.4-1.6l-1,0.3l-0.9,0.3c1.1,0.6,2.5,0.9,1.9,2.4c-0.3,0.5-0.7,0.9-1.3,1
	c-0.4,0-0.9-0.5-1.4-0.8l0.2-0.3l1.6,0.4c0.1-0.4,0.3-1.1,0.2-1.1C984.8,305.4,984.2,305.2,983.6,305.1z"/>
<path class="st29" d="M810.1,162.3c-0.8,0.9-1.3,2-1.9,2.1c-1.3,0.2-1.4-1.1-1.4-2.1c0-1,0.1-2.2,1.4-2
	C808.7,160.5,809.2,161.5,810.1,162.3z M809.1,162.5l-1-1.6c-0.3,0.5-0.8,1-0.8,1.4c0,0.5,0.4,1,0.7,1.5L809.1,162.5z"/>
<path class="st27" d="M827.5,245.4l-1,0.2l-0.2-0.5c0.5-0.2,1.1-0.6,1.5-0.5c0.4,0.2,0.7,0.8,0.8,1.3c0.2,0.4,0.3,0.9,0.3,1.3
	c-0.2,0.5-0.5,1.2-0.9,1.3c-0.4,0.1-1.1-0.3-1.6-0.5l0.2-0.5c0.3,0.1,0.7,0.3,0.9,0.2c0.3-0.2,0.5-0.5,0.5-0.8
	C827.8,246.6,827.7,246,827.5,245.4z"/>
<path class="st31" d="M1080.5,304.9c-0.4,1.3-0.4,2.5-1.7,2.5c-1.3,0-1.4-1.1-1.4-2s0-2.2,1.4-2.2
	C1079.4,303.3,1079.9,304.3,1080.5,304.9z M1077.7,305.3l1.1,1.6c0.2-0.5,0.7-0.9,0.7-1.4c-0.1-0.6-0.4-1.2-0.7-1.7L1077.7,305.3z"
	/>
<path class="st31" d="M807,197.5c0.5,0.1,1,0.2,1.5,0.3c0.2-0.3,0.3-0.6,0.3-0.9c-0.6-0.3-1.2-0.6-1.8-0.8c-0.2-1.8,0.1-2.1,2.4-1.5
	l-1.9,0.6c1,0.7,2.5,0.8,1.9,2.4c-0.3,0.5-0.8,0.9-1.3,1c-0.4,0.1-0.9-0.5-1.3-0.8L807,197.5z"/>
<path class="st31" d="M1030,305.3c-0.1,1-0.1,2.2-1.5,2.1c-1.2-0.1-1.3-1.2-1.3-2.1s0.1-2.1,1.3-2.1
	C1029.7,303.2,1029.8,304.3,1030,305.3z M1027.5,305.3l1,1.5c0.3-0.5,0.7-1,0.7-1.5c-0.1-0.6-0.4-1.1-0.8-1.6L1027.5,305.3z"/>
<path class="st31" d="M1055.1,305.2c-0.1,1.1-0.1,2.3-1.5,2.2c-1.4-0.1-1.3-1.2-1.3-2.1c0-0.9,0.1-2.1,1.3-2.1
	C1054.8,303.2,1054.9,304.3,1055.1,305.2z M1052.6,305.3c0.4,0.6,0.8,1.1,1.1,1.6c0.2-0.5,0.7-0.9,0.7-1.4c-0.1-0.6-0.4-1.2-0.7-1.7
	L1052.6,305.3z"/>
<path class="st31" d="M1074.1,304.2c0.7-0.5,1.1-1,1.5-1s1.3,0.5,1.2,0.6c-0.3,1-0.6,2-1,3l1,0.2v0.4l-2.4,0.1l-0.3-0.4
	c0.5-0.5,1-1.1,1.4-1.7c0.2-0.5,0.4-1,0.6-1.5L1074.1,304.2z"/>
<path class="st31" d="M1025.6,306.8l1,0.3v0.3h-2.9c0.5-0.6,1.1-1.2,1.5-1.8c0.2-0.5,0.4-1,0.6-1.6l-2,0.3c0.7-0.5,1-1,1.4-1.1
	s1.3,0.4,1.3,0.6C1026.3,304.8,1026,305.9,1025.6,306.8z"/>
<path class="st31" d="M1049.3,303.9c0.4-0.3,0.8-0.7,1.3-0.7s1.2,0.6,1.2,0.7c-0.3,1-0.6,1.9-1,2.9l1,0.3v0.3h-2.9
	c0.6-0.6,1.1-1.2,1.5-1.8c0.2-0.5,0.4-1,0.6-1.6l-1.4,0.2L1049.3,303.9z"/>
<path class="st29" d="M861,305c0,1.2,0,2.4-1.3,2.4c-1.3,0-1.4-1.1-1.4-2s0-2.1,1.3-2.2C860.8,303.2,861,304.2,861,305z
	 M860.7,305.2l-1.1-1.4c-0.2,0.5-0.7,1.1-0.7,1.6c0,0.5,0.5,1,0.8,1.4L860.7,305.2z"/>
<path class="st31" d="M803.6,265.5l1,0.3v0.3h-2.9c0.5-0.6,1-1.2,1.5-1.8c0.3-0.5,0.5-0.9,0.7-1.4l-1.8,0.1c0.3-0.4,0.7-1,1-1
	c0.5,0,1,0.3,1.4,0.6C804.3,263.5,804,264.5,803.6,265.5z"/>
<path class="st27" d="M1000.2,306.8l1.5,0.3v0.3h-2.8c0.5-0.5,1-1.1,1.4-1.7c0.3-0.5,0.5-1,0.6-1.6l-1.5,0.2c0-0.6,0.5-1.1,1.1-1.1
	c0.4,0,0.8,0.2,1,0.6c0.2,0.6,0.1,1.2-0.2,1.7C1001.1,306,1000.7,306.4,1000.2,306.8z"/>
<path class="st27" d="M975.1,306.8l1.6,0.2v0.4l-2.9,0.2c0.6-0.8,1-1.3,1.3-1.8c0.3-0.5,0.5-1.1,0.8-1.7l-2.2,0.3
	c0.7-0.5,1.1-1.1,1.5-1.2c1.2-0.3,1.9,1.1,1.1,2.2C976,305.9,975.6,306.3,975.1,306.8z"/>
<path class="st27" d="M950,306.8l1.5,0.3v0.4l-3,0.1c0.6-0.6,1.1-1.3,1.6-1.9c0.3-0.5,0.5-1,0.7-1.6l-1.5,0.2c0-0.6,0.5-1.1,1.1-1.1
	c0.4,0,0.8,0.2,1,0.6c0.2,0.6,0.1,1.2-0.2,1.7C950.8,305.9,950.4,306.4,950,306.8z"/>
<path class="st29" d="M833.4,305.3c-0.8,0.9-1.3,2-1.9,2.1c-1.4,0.2-1.4-1.1-1.4-2.1c0-1,0.1-2.2,1.3-2
	C832,303.3,832.5,304.4,833.4,305.3z M832.4,305.3l-1-1.5c-0.3,0.5-0.7,1-0.7,1.5c0,0.5,0.5,1,0.8,1.6L832.4,305.3z"/>
<path class="st31" d="M850.5,306.9l1,0.2v0.3h-2.8c0.5-0.6,1-1.1,1.4-1.8c0.3-0.5,0.5-1,0.6-1.6l-1.9,0.3c0.4-0.4,0.7-1,1.1-1
	c0.5,0,0.9,0.1,1.3,0.4C851.1,304.8,850.8,305.8,850.5,306.9z"/>
<path class="st29" d="M806.4,297c0.6-0.6,1.1-1.6,1.7-1.6c1.4,0,1.4,1.3,1.4,2.3c0,1-0.3,2-1.4,1.8
	C806.8,299.5,806.7,298.3,806.4,297z M809.1,297.4c-0.4-0.6-0.7-1-1-1.5c-0.3,0.5-0.7,1-0.7,1.5c0,0.5,0.5,1.1,0.8,1.6L809.1,297.4z
	"/>
<path class="st31" d="M875.5,306.9l1.1,0.2v0.4l-2.9,0.2c0.6-0.6,1.1-1.3,1.6-1.9c0.3-0.5,0.5-1,0.7-1.6l-1.8,0.2c0.4-0.4,0.7-1,1-1
	c0.5,0,1,0.2,1.4,0.5C876.2,304.8,875.9,305.9,875.5,306.9z"/>
<path class="st31" d="M825.3,306.9l1,0.2v0.4l-2.9,0.2c0.6-0.6,1.1-1.3,1.6-1.9c0.3-0.5,0.5-1,0.7-1.6l-1.9,0.2c0.4-0.4,0.7-1,1-1
	c0.5,0,1,0.2,1.4,0.5C825.9,304.8,825.6,305.9,825.3,306.9z"/>
<path class="st31" d="M933.6,306.6l1.8-0.1l-0.8-1.5l0.5-1l-1.4,0.2l-0.2-0.2c0.4-0.3,0.9-0.8,1.2-0.7c0.5,0.2,0.9,0.6,1.2,1.1
	c0.2,0.4,0.3,0.9,0.2,1.3c-0.2,0.6-0.4,1.5-0.8,1.7c-0.4,0.2-1.2-0.3-1.8-0.4L933.6,306.6z"/>
<path class="st29" d="M830.2,305.2c-0.8,1-1.3,2.1-1.9,2.1c-1.3,0.2-1.4-1.1-1.5-2.1c0-1,0.1-2.1,1.3-2
	C828.8,303.3,829.4,304.4,830.2,305.2z M829.2,305.4l-1-1.6c-0.3,0.5-0.8,0.9-0.8,1.4c0.1,0.6,0.4,1.2,0.7,1.7L829.2,305.4z"/>
<path class="st27" d="M909.9,306.9l1,0.2v0.4l-2.3,0.1l-0.3-0.4c0.5-0.5,0.9-1.1,1.3-1.7c0.2-0.5,0.4-1,0.5-1.6l-1.9,0.5
	c0.5-0.6,0.8-1.2,1.2-1.2c0.5,0,1,0.2,1.4,0.4C910.6,304.7,910.2,305.7,909.9,306.9z"/>
<path class="st29" d="M880.5,305.3c-0.8,0.9-1.3,2-1.9,2.1c-1.3,0.1-1.4-1.1-1.4-2.1c0-1,0.2-2.1,1.4-2
	C879.1,303.4,879.6,304.4,880.5,305.3z M879.6,305.3l-1.1-1.5c-0.2,0.5-0.7,0.9-0.6,1.4c0.1,0.6,0.4,1.2,0.7,1.7L879.6,305.3z"/>
<path class="st29" d="M851.3,305.2c0.9-0.8,1.5-1.9,2.1-1.9c1.3,0,1.3,1.2,1.3,2.2c0,1-0.2,2.1-1.3,1.9
	C852.7,307.3,852.2,306.2,851.3,305.2z M854.4,305.3l-1.1-1.5c-0.2,0.5-0.7,0.9-0.6,1.4c0.1,0.6,0.4,1.2,0.7,1.7L854.4,305.3z"/>
<path class="st27" d="M901.5,303.9c0,0.3,0,0.7,0,1l-1.4,1.8l1.4,0.3v0.3h-2.8c0.5-0.6,1-1.2,1.5-1.8c0.2-0.5,0.4-1,0.5-1.6
	l-1.8,0.5c0.5-0.5,0.8-1.2,1.1-1.2C900.4,303.4,901,303.6,901.5,303.9z"/>
<path class="st28" d="M981.4,213.3h2.6c-0.5,1.4-1.1,2.8-1.6,4.2l-0.6-0.2c0.3-1,0.5-2.1,0.8-3.2l-1.3-0.4L981.4,213.3z"/>
<path class="st27" d="M926.6,303.9c0,0.3,0,0.7,0,1l-1.4,1.8l1.4,0.3v0.3h-2.7c0.5-0.6,1-1.2,1.5-1.8c0.2-0.5,0.4-1,0.5-1.6
	l-1.8,0.5c0.5-0.5,0.8-1.2,1.1-1.2C925.6,303.4,926.1,303.6,926.6,303.9z"/>
<path class="st28" d="M1006.5,199.2h2.6c-0.5,1.4-1,2.8-1.5,4.1l-0.5-0.1c0.2-1.1,0.5-2.1,0.7-3.2l-1.3-0.4L1006.5,199.2z"/>
<path class="st31" d="M1004.9,305.9c-0.1,0.8-0.4,1.7-1.3,1.5c-0.6-0.3-1.1-0.8-1.2-1.5c-0.2-1-0.3-2.2,0.9-2.7
	c0.9-0.4,1.4,0.3,1.7,1.2l-1.5-0.6c-0.8,1.4-0.7,2.1,0.2,3.1L1004.9,305.9z"/>
<path class="st31" d="M979.8,305.9c-0.1,0.8-0.4,1.7-1.3,1.5c-0.6-0.3-1.1-0.8-1.2-1.5c-0.2-1-0.3-2.2,0.9-2.7
	c0.9-0.4,1.4,0.3,1.7,1.2l-1.5-0.6c-0.8,1.4-0.7,2.1,0.2,3.1L979.8,305.9z"/>
<path class="st31" d="M954.7,305.9c-0.1,0.8-0.4,1.7-1.3,1.5c-0.6-0.3-1.1-0.8-1.2-1.5c-0.2-1-0.3-2.2,0.9-2.7
	c0.9-0.4,1.4,0.3,1.7,1.2l-1.5-0.6c-0.8,1.4-0.7,2.1,0.2,3.1L954.7,305.9z"/>
<path class="st31" d="M1052.6,187.8l-1.2-0.5l0-0.3h2.4l-1.5,4.1l-0.5-0.1C1052.1,190,1052.3,189,1052.6,187.8z"/>
<path class="st19" d="M1004.9,305.9l-1.3,0.9c-0.8-1-0.9-1.7-0.2-3.1l1.5,0.6C1004.9,304.9,1004.9,305.4,1004.9,305.9z"/>
<path class="st19" d="M979.8,305.9l-1.3,0.9c-0.8-1-0.9-1.7-0.2-3.1l1.5,0.6C979.8,304.9,979.8,305.4,979.8,305.9z"/>
<path class="st19" d="M954.7,305.9l-1.3,0.9c-0.8-1-0.9-1.7-0.2-3.1l1.5,0.6C954.6,304.9,954.7,305.4,954.7,305.9z"/>
<path class="st27" d="M802.5,198.4l0.9-3.4l-1.3-0.3v-0.4l2.6-0.1l-1.8,4.3L802.5,198.4z"/>
<path class="st27" d="M1027.7,190l-1.2-0.4v-0.3h2.4l-1.5,4l-0.6-0.2L1027.7,190z"/>
<path class="st29" d="M907.5,238.3c0-0.5-0.1-1.1-0.2-1.6c-0.2-0.5-0.5-1-0.8-1.4l1.5-1.3v4.3L907.5,238.3z"/>
<path class="st31" d="M1034.9,303.9l-1.4-0.3v-0.3h2.5l-1.8,4.1l-0.4-0.1C1034.2,306.1,1034.6,305,1034.9,303.9z"/>
<path class="st14" d="M1010.2,205.8h-4.8l-0.1-0.3c0.2-0.2,0.5-0.5,0.7-0.5c1.2,0,2.4,0,3.7,0.1C1009.8,205,1010,205.5,1010.2,205.8
	L1010.2,205.8z"/>
<path class="st29" d="M855.5,304.3l1.5-1.2v4.3h-0.2l-0.8-3.1L855.5,304.3z"/>
<path class="st29" d="M881.9,307.3l-0.8-3h-0.5l1.5-1.3v4.3L881.9,307.3z"/>
<path class="st32" d="M906.4,304.6l-1.2,0l1.8-1.5v4.3l-0.4,0C906.5,306.5,906.5,305.6,906.4,304.6z"/>
<path class="st32" d="M931.8,304.6h-1.4l1.7-1.5v4.3h-0.3L931.8,304.6z"/>
<path class="st33" d="M1074.7,216.2l10.9-0.1l0.5-0.1v0.3c-3.6,0-7.3,0.1-10.9,0.1C1075,216.4,1074.8,216.4,1074.7,216.2z"/>
<path class="st34" d="M1025.2,197.1h-0.9c0.2-0.1,0.3-0.3,0.5-0.3c3.5,0,7,0,10.4,0c0.2,0,0.4,0.2,0.6,0.4l-0.6-0.1L1025.2,197.1z"
	/>
<path class="st32" d="M1032.1,307.5c-1.2-0.8,0.6-2.7-1.7-3l1.7-1.4V307.5z"/>
<path class="st14" d="M1064.3,294.2l1.1-0.3c0,0.5-0.1,1-0.2,1.5c-0.3,0.1-0.6,0.1-0.9-0.1c-0.5-0.6-0.9-1.2-1.3-1.8
	C1064.2,292.4,1064.2,293.5,1064.3,294.2z"/>
<path class="st32" d="M1055.6,304.4l1.7-1.3v4.4C1056,306.7,1057.7,304.8,1055.6,304.4z"/>
<path class="st17" d="M1012.7,297.5h-2c0-0.4,0.1-0.8,0.1-1.2c1.5,0.4,1.1-1,1.9-1.7V297.5z"/>
<path class="st32" d="M1082.4,303v4.4c-1.4-0.7,0.5-2.7-1.7-3L1082.4,303z"/>
<path class="st17" d="M1062.9,297.5h-2c0-0.4,0.1-0.8,0.1-1.2c1.5,0.4,1.1-1,1.9-1.7V297.5z"/>
<path class="st32" d="M884.3,307.4c-0.1-0.9-0.1-1.8-0.2-2.7l-1-0.1l1.5-1.5v4.3L884.3,307.4z"/>
<path class="st32" d="M1006,304.1l1.2-1v4.2l-0.4,0c0-0.6-0.1-1.2-0.2-1.8C1006.5,305.1,1006.3,304.6,1006,304.1z"/>
<path class="st32" d="M982.1,307.7c-1-1.2,0.2-2.7-1.4-3.4l1.4-1.3V307.7z"/>
<path class="st32" d="M955.5,304.3l1.5-1.2v4.4C955.9,306.6,957.2,304.9,955.5,304.3z"/>
<path class="st17" d="M834.3,274c-1.5,0.1-3.1,0.2-4.6,0.2c-1.9,0-3.8,0-5.8,0c0-0.1,0-0.2,0-0.3L834.3,274z"/>
<path class="st18" d="M1048.5,227.1v2.8c-0.8-0.6-0.9-1.8-0.3-2.6C1048.3,227.3,1048.4,227.2,1048.5,227.1z"/>
<path class="st14" d="M884.2,241.9L884.2,241.9z"/>
<path class="st14" d="M883,234.1l-1.6,0.5l0.8-1.3L883,234.1z"/>
<path class="st15" d="M961,296.9h0.2c0,0.2,0,0.4,0,0.6s0,0.4,0,0.6l-1.8-0.3l0.5-0.4L961,296.9z"/>
<path class="st14" d="M878.8,234.1l-1.5,0.7l0.7-1.3L878.8,234.1z"/>
<path class="st19" d="M925.4,229.9l1.5,0.1v0.2h-1.5L925.4,229.9z"/>
<path class="st19" d="M923.8,230.2h-0.6v-0.1l0.6-0.1V230.2z"/>
<path class="st17" d="M1074.3,215.6L1074.3,215.6l0,0.3l0,0L1074.3,215.6z"/>
<path class="st35" d="M1074.6,297.5c0-22.9,0-45.9,0-68.8v-11.8c2.9,0,5.6,0,8.4,0c1.1,0,2.1,0.2,3.2,0.3l-0.1,0.6
	c-0.7-0.3-1.4-0.5-2.2-0.6c-2.5-0.1-4.9,0-7.4-0.1c-1.3-0.1-1.7,0.4-1.7,1.7c0,18,0,36.1,0,54.1c0,8.2,0,16.4,0,24.6l-0.1,0
	L1074.6,297.5z"/>
<path class="st35" d="M1049.5,226.9h0.3c0,0.5-0.1,0.9-0.1,1.4c0,23,0,46.1,0,69.1l-0.2,0h-0.2
	C1049.5,273.9,1049.5,250.4,1049.5,226.9z"/>
<path class="st30" d="M1050.4,226.9l10.4,0.1c0,0.1-0.1,0.3-0.1,0.4c-3.3-0.1-6.6-0.2-9.9-0.3C1050.7,227.1,1050.5,227,1050.4,226.9
	z"/>
<path class="st35" d="M1024.3,297.5v-65.1c0-1.7,0-3.5,0.1-5.2c0.1,0.7,0.2,1.3,0.3,2c0,22.8,0,45.5,0,68.3l-0.2,0L1024.3,297.5z"/>
<path class="st35" d="M999.2,297.5c0-19.9,0-39.7,0-59.6c0-0.2,0-0.4,0.1-0.6c0.1,0,0.2,0,0.3,0.1c0,20,0,40.1,0,60.1l-0.1,0
	L999.2,297.5z"/>
<path class="st35" d="M974.1,247.3c0.1,0,0.2,0,0.3,0c0,16.7,0,33.4,0,50.1l-0.1,0h-0.2L974.1,247.3z"/>
<path class="st30" d="M961,296.9l-1,0.5c0.3-0.8,0.5-1.6,0.6-2.5c0-15.3,0-30.7,0-46c0-0.6,0.1-1.1,0.3-1.7c0,13,0,26,0.1,39
	C960.9,289.8,961,293.3,961,296.9z"/>
<path class="st30" d="M949.6,297.5c0-7,0-14,0-21c0-9.9,0-19.7,0-29.6h0.2c0,16,0,32,0,48c0,0.8,0,1.7,0,2.5
	C949.8,297.4,949.7,297.5,949.6,297.5z"/>
<path class="st35" d="M949.8,246.9h-0.2v-1.2h11.2c0,0.3,0,0.6,0,0.8c-0.5-0.3-1-0.5-1.5-0.6c-2.8-0.1-5.5,0-8.2,0
	C950.4,246,949.8,246,949.8,246.9z"/>
<path class="st22" d="M1060.7,197.7v27.6h-0.2c-0.4-0.3-0.9-0.5-1.4-0.6c-1.1-0.1-2.3,0-3.5,0v-0.6c1.1,0,2.2-0.1,3.3,0
	c1.1,0.1,1.5-0.4,1.5-1.5c-0.1-7.7,0-15.4,0-23C1060.5,198.9,1060.6,198.3,1060.7,197.7z"/>
<path class="st26" d="M1060.5,225.3h0.2l0.1,0.8h-10.4c2-0.1,4-0.2,6-0.2c0.9,0,1.9,0.1,2.8,0
	C1059.7,225.8,1060.1,225.6,1060.5,225.3z"/>
<path class="st12" d="M999.3,207.1l10.9-0.1c0,9.3-0.1,18.5,0,27.7c0,1.5-0.3,2-1.9,1.9c-2.2-0.1-4.4,0.1-6.7,0.2l-2.2,0.1
	c0-9.5,0-18.9,0-28.4C999.4,208,999.4,207.5,999.3,207.1z"/>
<path class="st20" d="M1001.7,236.8c2.2-0.1,4.4-0.3,6.7-0.2c1.5,0.1,1.9-0.5,1.9-1.9c-0.1-9.3,0-18.5,0-27.7c0.2,0.3,0.5,0.6,0.5,1
	c0,9.5,0,19.1,0,28.9L1001.7,236.8z"/>
<path class="st26" d="M999.3,207.1c0.1,0.4,0.2,0.9,0.2,1.4c0,9.5,0,18.9,0,28.4c-0.1-0.3-0.2-0.6-0.3-0.9c0-9.4,0-18.8,0-28.3
	C999.2,207.5,999.2,207.3,999.3,207.1z"/>
<path class="st11" d="M874.2,268v-1.4c0.1-0.5,0.3-1.1,0.5-1.8c3.2,0,6.6,0,9.9,0c0.3,0,0.6,0.4,0.8,0.5c0,0.8,0,1.7,0,2.6
	c-0.1,0.5-0.2,1.1-0.3,1.6c0,8.4,0,16.8,0,25.3c-0.1,0.8-0.3,1.7-0.6,2.5h-10.1c0-9.2,0-18.4,0-27.6
	C874.4,269.2,874.3,268.6,874.2,268z"/>
<path class="st11" d="M909.7,297.4h-10.3v-4.3c0.1-0.6,0.2-1.1,0.3-1.7c0-6.4,0.1-12.8,0-19.2c0-1.5,0.5-1.9,1.9-1.8
	c2.4,0.1,4.8,0.1,7.2,0c1.3-0.1,1.7,0.4,1.6,1.7c-0.1,7.7,0,15.4,0,23.1C910.2,296,910,296.7,909.7,297.4z"/>
<path class="st11" d="M834.3,297.4h-10.1c0-7,0-14,0-21c0-1.1,0.3-1.6,1.5-1.5c1.2,0.1,2.4,0,3.6,0h5.9v3.2
	c-0.1,0.5-0.2,1.1-0.3,1.6c0,5.1,0,10.2,0,15.3C834.8,295.8,834.6,296.6,834.3,297.4z"/>
<path class="st30" d="M909.7,297.4c0.3-0.7,0.5-1.4,0.6-2.2c0-7.7,0-15.4,0-23.1c0-1.3-0.3-1.8-1.6-1.7c-2.4,0.1-4.8,0.1-7.2,0
	c-1.4-0.1-1.9,0.3-1.9,1.8c0.1,6.4,0,12.8,0,19.2c0,0.6-0.1,1.1-0.3,1.7c0-7.4,0-14.7,0-22.1c0-0.3,0.1-0.5,0.2-0.7l11,0.1
	c0,0.9,0.1,1.9,0.1,2.8c0,7.9,0.1,15.9,0.1,23.8L909.7,297.4z"/>
<path class="st30" d="M884.5,297.4c0.3-0.8,0.5-1.6,0.6-2.5c0-8.4,0-16.9,0-25.3c0-0.6,0.1-1.1,0.3-1.6c0,9.5,0,19,0.1,28.5
	C885.5,297.2,885.4,297.6,884.5,297.4z"/>
<path class="st30" d="M874.2,268c0.1,0.6,0.2,1.2,0.3,1.8c0,9.2,0,18.4,0,27.6c-0.1,0-0.2,0-0.3,0L874.2,268z"/>
<path class="st30" d="M829.3,274.9c-1.2,0-2.4,0.1-3.6,0c-1.2-0.1-1.5,0.4-1.5,1.5c0.1,7,0,14,0,21c-0.2-0.3-0.3-0.6-0.3-0.9
	c0-7.1,0-14.2,0-21.2c0-0.3,0.1-0.5,0.2-0.8L829.3,274.9z"/>
<path class="st23" d="M874.1,242c0,7.3,0,14.6,0.1,21.9h-0.3c0-0.3-0.1-0.6-0.1-0.9v-15.1C873.9,246,874,244,874.1,242z"/>
<path class="st30" d="M834.3,297.4c0.3-0.8,0.5-1.6,0.6-2.5c0.1-5.1,0-10.2,0-15.3c0-0.6,0.1-1.1,0.3-1.6c0,6.2,0,12.3,0.1,18.4
	C835.2,297.2,835.1,297.6,834.3,297.4z"/>
<path class="st35" d="M885.4,265.4c-0.3-0.2-0.6-0.5-0.8-0.5c-3.3,0-6.6,0-9.9,0c-0.2,0.7-0.3,1.3-0.5,1.8c0-0.7,0-1.4,0-2.1h10.1
	C884.9,264.5,885.7,264.4,885.4,265.4z"/>
<path class="st23" d="M874.2,263.9h10.3h0.6v0.1c-2.5,0.1-5,0.2-7.4,0.2C876.5,264.2,875.4,264,874.2,263.9z"/>
<path class="st11" d="M924.5,297.5v-4.4c0.1-0.4,0.2-0.7,0.3-1.1c0-10.7,0-21.4,0-32.1c-0.1-0.9,0.3-1.3,1.3-1.3
	c2.8,0.1,5.6,0,8.4,0.1c0.5,0.1,0.9,0.3,1.3,0.6c0,1.3,0,2.5,0,3.8c-0.1,0.5-0.2,1.1-0.3,1.6c0,10.1,0,20.2,0,30.3
	c-0.1,0.8-0.3,1.7-0.6,2.5L924.5,297.5z"/>
<path class="st22" d="M924.5,233.7h11.2v23.8h-11.2V233.7z M924.7,245.5c0,3.5,0,7,0,10.5c0,0.9,0.3,1.3,1.3,1.3c2.5,0,5.1,0,7.7,0
	c1.3,0,1.8-0.6,1.8-1.9c-0.1-6.5-0.1-13,0-19.4c0-1.5-0.6-1.9-1.9-1.9c-2.5,0-4.9,0.1-7.4,0c-1.1,0-1.4,0.4-1.4,1.4
	C924.8,238.8,924.8,242.2,924.7,245.5L924.7,245.5z"/>
<path class="st30" d="M934.8,297.4c0.3-0.8,0.5-1.6,0.6-2.5c0-10.1,0-20.2,0-30.3c0-0.6,0.1-1.1,0.3-1.6c0,11.2,0,22.3,0.1,33.5
	C935.8,297.2,935.6,297.6,934.8,297.4z"/>
<path class="st35" d="M935.7,259.2c-0.4-0.3-0.9-0.5-1.3-0.6c-2.8-0.1-5.6,0-8.4-0.1c-1,0-1.3,0.3-1.3,1.3c-0.1,0-0.2,0-0.2,0
	c0-0.5,0-1,0-1.5l2.8-0.1h2.2c1.8,0,3.5,0.1,5.3,0C935.4,258.3,935.9,258.3,935.7,259.2z"/>
<path class="st23" d="M929.4,258.2L929.4,258.2z"/>
<path class="st36" d="M873.8,247.9V263c-0.2-0.4-0.6-0.8-0.6-1.2c0-4.2,0-8.4,0-12.6C873.3,248.7,873.6,248.3,873.8,247.9z"/>
<path class="st13" d="M974.4,246.1c0-7.8,0-15.6,0-23.4c0.5-1,1.6-1.5,2.7-1.3c2.2,0.1,4.4,0.1,6.6,0c1,0,1.4,0.2,1.4,1.3
	c0,7.3,0,14.6,0,21.9c0,1.1-0.4,1.3-1.4,1.3C980.6,246,977.5,246,974.4,246.1z"/>
<path class="st13" d="M1025.2,197.1h10.1c0,8.8,0,17.5,0.1,26.3c0,1.1-0.4,1.3-1.4,1.3c-3.1,0-6.2,0-9.3,0c0-3.2-0.1-6.3-0.1-9.5
	c0-5.2,0-10.4,0-15.6C1024.7,198.7,1024.9,197.9,1025.2,197.1z"/>
<path class="st13" d="M899.6,255.8c0-4,0.1-8,0-11.9c0-1.3,0.4-1.7,1.7-1.7c2.2,0.1,4.5,0,6.7,0c1.9,0,2.2,0.4,2.2,2.2
	c0,7.8,0,15.6,0,23.4c0,1-0.2,1.5-1.4,1.5c-2.7-0.1-5.3-0.1-8,0c-1.1,0-1.3-0.4-1.3-1.4C899.6,263.8,899.6,259.8,899.6,255.8z"/>
<path class="st13" d="M885.1,263.9h-0.6c-1.9-0.1-3.8-0.2-5.7-0.3c-4.3,0-4.3,0-4.3-4.3c0-5.2,0-10.3,0-15.5c0-1.3,0.4-1.6,1.6-1.6
	c2.4,0.1,4.8,0,7.2,0c1.3,0,1.9,0.6,1.9,1.9C885.1,250.7,885.1,257.3,885.1,263.9z"/>
<path class="st30" d="M924.5,259.8c0.1,0,0.2,0,0.2,0c0,10.7,0,21.4,0,32.1c0,0.4-0.1,0.8-0.3,1.2
	C924.5,282,924.5,270.9,924.5,259.8z"/>
<path class="st36" d="M1002.6,200.1l0.6-0.2l-0.4,0.4L1002.6,200.1z"/>
<path class="st36" d="M1002.8,200.3h-0.3c0-0.1,0.1-0.1,0.1-0.2L1002.8,200.3z"/>
<path class="st36" d="M858.1,243.1l-0.6,0.1V243l0.6-0.1V243.1z"/>
<path class="st36" d="M1057.8,188.2h-0.6V188l0.6-0.2L1057.8,188.2z"/>
<path class="st36" d="M1083,175.1l-0.8,0.2l0-0.4L1083,175.1L1083,175.1z"/>
<path class="st36" d="M834.8,305.9l0.2-0.2c0,0.1,0,0.2,0,0.3L834.8,305.9z"/>
<path class="st36" d="M903.7,303.9v2.9c-1.3-0.9-1.1-1.9-0.7-2.9L903.7,303.9z"/>
<path class="st36" d="M902.3,305.2l-0.1,0.1c0,0-0.1-0.1-0.1-0.1c0,0,0.1-0.1,0.1-0.1L902.3,305.2z"/>
<path class="st36" d="M928.5,307c-0.2-0.3-0.5-0.5-0.5-0.6c0-0.8,0.1-1.6,0.2-2.4c0.3,0.1,0.7,0.1,0.8,0.2
	C929.2,305.1,929.5,306.1,928.5,307z"/>
<path class="st36" d="M927.5,305.2l-0.1,0.1c0,0-0.1-0.1-0.1-0.1c0,0,0.1-0.1,0.1-0.1L927.5,305.2z"/>
<path class="st19" d="M809.1,162.5l-1.1,1.4c-0.2-0.5-0.7-1-0.7-1.5c0-0.5,0.5-1,0.8-1.4L809.1,162.5z"/>
<path class="st19" d="M1077.7,305.3l1.1-1.5c0.3,0.5,0.5,1.1,0.7,1.7c0,0.4-0.4,0.9-0.7,1.4L1077.7,305.3z"/>
<path class="st19" d="M1027.5,305.4l1-1.6c0.4,0.5,0.6,1,0.8,1.6c0,0.5-0.5,1-0.7,1.5L1027.5,305.4z"/>
<path class="st19" d="M1052.6,305.3l1.1-1.5c0.3,0.5,0.5,1.1,0.7,1.7c0,0.4-0.4,0.9-0.7,1.4C1053.4,306.4,1053,305.9,1052.6,305.3z"
	/>
<path class="st19" d="M860.7,305.2l-0.9,1.7c-0.3-0.5-0.8-1-0.8-1.4c-0.1-0.5,0.4-1.1,0.7-1.6L860.7,305.2z"/>
<path class="st19" d="M832.4,305.3l-0.9,1.6c-0.3-0.5-0.8-1-0.8-1.6c0-0.5,0.5-1,0.7-1.5L832.4,305.3z"/>
<path class="st19" d="M809.1,297.4l-1,1.6c-0.3-0.5-0.8-1.1-0.8-1.6c0-0.5,0.5-1,0.7-1.5L809.1,297.4z"/>
<path class="st19" d="M829.2,305.4l-1,1.5c-0.3-0.5-0.6-1.1-0.7-1.7c0-0.5,0.5-0.9,0.8-1.4L829.2,305.4z"/>
<path class="st19" d="M879.6,305.3l-1.1,1.5c-0.3-0.5-0.6-1.1-0.7-1.7c0-0.4,0.4-0.9,0.6-1.4L879.6,305.3z"/>
<path class="st19" d="M854.4,305.3l-1.1,1.5c-0.3-0.5-0.6-1.1-0.7-1.7c0-0.4,0.4-0.9,0.6-1.4L854.4,305.3z"/>
<path class="st13" d="M924.8,245.5c0-3.4,0-6.7,0-10c0-1.1,0.3-1.5,1.4-1.4c2.5,0.1,4.9,0,7.4,0c1.3,0,1.9,0.4,1.9,1.9
	c-0.1,6.5-0.1,13,0,19.4c0,1.3-0.5,1.9-1.8,1.9c-2.5,0-5.1,0-7.7,0c-1,0-1.3-0.3-1.3-1.3C924.8,252.5,924.8,249,924.8,245.5z"/>
<text transform="matrix(1 0 0 1 911.2436 324.5866)" class="st37 st38 st39">Fisheri</text>
<text transform="matrix(1 0 0 1 933.8286 324.5866)" class="st37 st38 st39">e</text>
<text transform="matrix(1 0 0 1 937.8686 324.5866)" class="st37 st38 st39">s</text>
<text transform="matrix(1 0 0 1 950.769 324.5866)" class="st37 st38 st39">A</text>
<text transform="matrix(1 0 0 1 955.6166 324.5866)" class="st37 st38 st39">quacultu</text>
<text transform="matrix(1 0 0 1 984.6069 324.5866)" class="st37 st38 st39">r</text>
<text transform="matrix(1 0 0 1 987.2748 324.5866)" class="st37 st38 st39">e</text>
<text transform="matrix(6.123234e-17 -1 1 6.123234e-17 797.644 247.8913)" class="st37 st38 st39">V</text>
<text transform="matrix(6.123234e-17 -1 1 6.123234e-17 797.644 243.8839)" class="st37 st38 st39">alue in billion NOK</text>
<image style="overflow:visible;enable-background:new    ;" width="568" height="353" xlink:href="A57E00A3.png"  transform="matrix(0.4713 0 0 0.4713 1182.1749 162.7579)">
</image>
<image style="overflow:visible;enable-background:new    ;" width="868" height="638" xlink:href="A57E00A6.jpg"  transform="matrix(0.3861 0 0 0.3861 59.1138 274.4757)">
</image>
<path d="M851.1,38.5c3.3-0.1,6.5,0.7,9.3,2.4c1.4-1.2,3-2,4.8-2.4c4.6-1.3,9.5-1.2,14.1,0.2c1.9,0.5,3.5,1.6,4.6,3.2
	c0.2,0.4,0.4,0.8,0.4,1.2c0,7.8,0,15.6,0,23.4c0,1-0.4,1.4-1.4,1.4c-2.8,0-5.7,0-8.5,0c-0.5,0-1.1-0.2-1.3-0.7
	c-0.5-0.7-0.9-1.4-1.5-2c-1.1-1.4-2.2-2.7-3.3-4.1c-1.1-1.6-3-2.4-5-2.2c-2.5,0.2-5.1,0.3-7.6,0.3c-6.7,0-13.3-2-19-5.7
	c-2.4-1.4-4.3-3.4-5.7-5.8c-0.4-0.8-0.6-1.7-0.8-2.6c-0.1-0.2,0-0.5,0.1-0.7c1.2-2.7,2.2-5.6,3.5-8.3c2-3.7,4.7-7,8-9.7
	c2.6-2.3,5.2-4.4,7.7-6.7c0.8-0.6,1.4-1.4,1.9-2.3c1.1-1.9,2.8-3.4,4.9-4.1c2.2-1,4.7-1.3,7.1-0.9c1.6,0.3,3,1.4,3.7,2.9
	c1.1,2.3,1.5,4.6,0.4,7c-0.6,1.5-2.2,2.5-3.8,2.4c-1.4-0.1-2.9-0.3-4.3-0.6c-0.5-0.1-1.1-0.2-1.6-0.2c-0.6-0.1-1.1,0.2-1.3,0.8
	c-0.7,1.7-1.3,3.3-2,5c-1.1,2.9-2.2,5.8-3.3,8.6L851.1,38.5z M881.9,65.5c0-0.2,0-0.3,0-0.4c0-7.2,0-14.4,0-21.6
	c0-0.3-0.1-0.5-0.3-0.8c-0.8-0.9-1.9-1.5-3-1.8c-4.2-1.3-8.7-1.4-13-0.1c-1.7,0.3-3.2,1.2-4.3,2.5c-0.4,0.5-0.9,0.4-1.5,0.1
	c-0.7-0.4-1.4-0.8-2.1-1.2c-2.6-1.1-5.4-1.5-8.2-1.1c-0.5,0.2-1.1,0-1.4-0.5c-0.3-0.5-0.2-1.1,0.1-1.5c0.2-0.3,0.4-0.7,0.5-1
	c1.3-3.4,2.6-6.8,4-10.2c0.6-1.5,1.2-3.1,1.9-4.6c0.5-1.1,1.7-1.8,2.9-1.6c0.6,0,1.2,0.1,1.8,0.2c1.3,0.2,2.7,0.5,4,0.7
	c1.1,0.2,2.1-0.5,2.3-1.6c0,0,0-0.1,0-0.1c0.2-0.7,0.2-1.3,0.1-2c-0.5-3.3-1.8-4.2-4.6-4.1c-2,0.1-4,0.7-5.7,1.7
	c-0.7,0.3-1.2,0.9-1.6,1.5c-0.9,1.6-2.1,3-3.5,4.1c-2.8,2.3-5.6,4.7-8.2,7.2c-3.2,2.9-5.8,6.4-7.5,10.4c-0.6,1.5-1.3,3.1-1.9,4.6
	c-0.2,0.4-0.2,0.9-0.1,1.3c0.3,1.1,0.8,2.2,1.7,3c1.6,1.8,3.5,3.2,5.7,4.3c5.6,3,11.9,4.4,18.2,4.1c2-0.1,4-0.2,5.9-0.3
	c2.1-0.2,4.1,0.7,5.3,2.3c1.5,1.7,3,3.4,4.3,5.2c0.6,1,1.9,1.6,3.1,1.4C878.5,65.4,880.2,65.5,881.9,65.5z"/>
<image style="overflow:visible;enable-background:new    ;" width="200" height="200" xlink:href="A57E00A6.png"  transform="matrix(0.4384 0 0 0.4384 1028.0538 -0.3806)">
</image>
<image style="overflow:visible;enable-background:new    ;" width="225" height="225" xlink:href="A57E00A2.png"  transform="matrix(0.2563 0 0 0.2563 1244.8325 14.747)">
</image>
<rect x="64.5" y="548.9" class="st40" width="684.2" height="252.5"/>
<text transform="matrix(1 0 0 1 64.4951 561.7617)"><tspan x="0" y="0" class="st41 st42 st43">Given that overfishing of our oceans and other natural resources are continuously </tspan><tspan x="0" y="21.6" class="st41 st42 st43">increasing year by year, humans need alternate sources of seafood to feed the </tspan><tspan x="0" y="43.2" class="st41 st42 st43">planet’s ever-growing population. “unfortunately, the days of the ocean’s natural </tspan><tspan x="0" y="64.8" class="st41 st42 st43">productivity providing for the planet are over. Wild fish have been exploited for </tspan><tspan x="0" y="86.4" class="st41 st42 st43">generations. Some estimate that the annual catch of edible main protein has already </tspan><tspan x="0" y="108" class="st41 st42 st43">passed its peak. The oceans cannot naturally provide the demand of seafood” </tspan><tspan x="0" y="129.6" class="st41 st42 st43">(Positive Aquaculture Awareness) Aquaculture is the tool to fill in the gap of seafood </tspan><tspan x="0" y="151.2" class="st41 st42 st43">supply. Farming fish responsibly and sustainably is the solution to providing future </tspan><tspan x="0" y="172.8" class="st41 st42 st43">generations with access to healthy and evironmentally friendly protein options.</tspan></text>
<rect x="1045.8" y="596.2" class="st40" width="395.5" height="195.1"/>
<text transform="matrix(1 0 0 1 1050.3282 609.0663)"><tspan x="0" y="0" class="st41 st44 st43">“The seafood industry, particularly aquaculture, has </tspan><tspan x="3.7" y="21.6" class="st41 st44 st43">a value creation per man-hour which is well above </tspan><tspan x="3.9" y="43.2" class="st41 st44 st43">the average in mainland Norway. It is subsidy-free, </tspan><tspan x="38.5" y="64.8" class="st41 st44 st43">has good profitability and is important for </tspan><tspan x="22" y="86.4" class="st41 st44 st43">employment and settlement along the coast.”</tspan><tspan x="170.6" y="129.6" class="st41 st42 st43">-PWC</tspan></text>
<rect x="786.5" y="595.2" class="st40" width="236.6" height="153.3"/>
<text transform="matrix(1 0 0 1 795.2931 608.0085)"><tspan x="0" y="0" class="st41 st44 st43">“Norwegian companies have </tspan><tspan x="16.7" y="21.6" class="st41 st44 st43">an untapped potential to </tspan><tspan x="-1.3" y="43.2" class="st41 st44 st43">supply products and services </tspan><tspan x="30.3" y="64.8" class="st41 st44 st43">in the global market.”</tspan><tspan x="46.5" y="129.6" class="st41 st42 st43">- Ernst &amp; Young</tspan></text>
<rect x="64.5" y="67.8" class="st40" width="357.6" height="20.6"/>
<text transform="matrix(1 0 0 1 64.4946 84.9142)" class="st41 st38 st45">Why is aquaculture important?</text>
<rect x="934.4" y="112.2" class="st40" width="357.6" height="20.6"/>
<text transform="matrix(1 0 0 1 982.2462 124.9837)" class="st41 st42 st43">Aquaculture - a growing industry</text>
<rect x="921" y="544" class="st40" width="408.7" height="43.6"/>
<text transform="matrix(1 0 0 1 932.7393 556.8418)"><tspan x="0" y="0" class="st41 st42 st43">International consultant companies mention the </tspan><tspan x="18.2" y="21.6" class="st41 st42 st43">Norwegian potential of salmong production</tspan></text>
<rect x="831.5" y="146.6" class="st40" width="211.3" height="33"/>
<text transform="matrix(1 0 0 1 837.3029 155.1717)"><tspan x="0" y="0" class="st41 st44 st46">Export of norwegian seafood separated </tspan><tspan x="24.8" y="14.4" class="st41 st44 st46">into fisheries and aquaculture</tspan></text>
<rect x="62.2" y="520.8" class="st40" width="211.3" height="33"/>
<text transform="matrix(1 0 0 1 62.1707 529.3621)" class="st41 st44 st46">Economic growth of fishery industry</text>
<rect x="552.9" y="279.2" class="st40" width="107.5" height="45.5"/>
<text transform="matrix(1 0 0 1 552.8801 287.7282)"><tspan x="0" y="0" class="st41 st44 st46">Aquaculture value </tspan><tspan x="0" y="14.4" class="st41 st44 st46">chain: Value Added </tspan><tspan x="0" y="28.8" class="st41 st44 st46">(1000 NOK)</tspan></text>
<rect x="552.9" y="411.7" class="st40" width="195.8" height="114.7"/>
<text transform="matrix(1 0 0 1 552.8796 420.2562)"><tspan x="0" y="0" class="st41 st44 st46">Aquaculture value chain: Employees </tspan><tspan x="0" y="14.4" class="st41 st44 st46">(thousand employees, FTEs). Effects in </tspan><tspan x="0" y="28.8" class="st41 st44 st46">other industries covering the period </tspan><tspan x="0" y="43.2" class="st41 st44 st46">2004-2017. Value added and number </tspan><tspan x="0" y="57.6" class="st41 st44 st46">of employees in different parts of the </tspan><tspan x="0" y="72" class="st41 st44 st46">aquaculture value chain industries </tspan><tspan x="0" y="86.4" class="st41 st44 st46">including ripple effects</tspan></text>
<rect x="1210.4" y="146.6" class="st40" width="211.3" height="33"/>
<text transform="matrix(1 0 0 1 1233.3447 155.1717)"><tspan x="0" y="0" class="st41 st44 st46">Norwegian aquaculture industry. </tspan><tspan x="27.6" y="14.4" class="st41 st44 st46">Aggregated revenues</tspan></text>
<rect x="789.3" y="340.5" class="st40" width="667.3" height="172.3"/>
<text transform="matrix(1 0 0 1 789.2963 353.3409)"><tspan x="0" y="0" class="st41 st42 st43">Aquaculture has the potential to improve the health of our planet and the health of </tspan><tspan x="0" y="21.6" class="st41 st42 st43">our population, as long as it is done in a manner that is environmentally friendly, </tspan><tspan x="0" y="43.2" class="st41 st42 st43">socially responsible, and considers food safety and animal welfare.</tspan><tspan x="0" y="64.8" class="st41 st42 st43">Not only is aquaculture necessary, it is also a sustainable option for consumers, </tspan><tspan x="0" y="86.4" class="st41 st42 st43">especially in comparison to other famed proteins. Seafood is highly resource </tspan><tspan x="0" y="108" class="st41 st42 st43">efficient -- it has the highest protein retention compared to chicken, pork and also </tspan><tspan x="0" y="129.6" class="st41 st42 st43">beef. It also has the lowest feed conversion ratio among the same forms of protein. </tspan><tspan x="0" y="151.2" class="st41 st42 st43">Aquaculture has lower greenhouse gas emissions than other types of farming.</tspan></text>
<rect x="64.4" y="111.5" class="st40" width="684.4" height="267"/>
<text transform="matrix(1 0 0 1 64.3903 124.2731)"><tspan x="0" y="0" class="st41 st42 st43">With an anticipated 10 billion people expected to inhabit the planet by 2050, the </tspan><tspan x="0" y="21.6" class="st41 st42 st43">demand for animal protein will increase by 52 percent. Sustaibable and healthy </tspan><tspan x="0" y="43.2" class="st41 st42 st43">approaches to feeding the world are more critical than ever before. In order to </tspan><tspan x="0" y="64.8" class="st41 st42 st43">sustaibaly feed the world’s growing population with a healthy, lean protein, </tspan><tspan x="0" y="86.4" class="st41 st42 st43">aquaculture’s role is the utmost importance.. The primary responsibility of </tspan><tspan x="0" y="108" class="st41 st42 st43">aquaculture is to efficiently complement wild-caught fish ioptions to increase the </tspan><tspan x="0" y="129.6" class="st41 st42 st43">amount of seafood available worldwide.</tspan></text>
<rect x="635" y="25.9" class="st40" width="195.2" height="47.4"/>
<text transform="matrix(1 0 0 1 634.9697 38.6875)"><tspan x="0" y="0" class="st41 st42 st43">“Scientists for Future” </tspan><tspan x="0" y="21.6" class="st41 st42 st43">about aquaculture</tspan></text>
<rect x="892" y="25.9" class="st40" width="128.7" height="47.4"/>
<text transform="matrix(1 0 0 1 891.9641 38.6875)"><tspan x="0" y="0" class="st41 st42 st43">Healthy protein </tspan><tspan x="0" y="21.6" class="st41 st42 st43">source</tspan></text>
<rect x="1119.7" y="26" class="st40" width="132.9" height="47.4"/>
<text transform="matrix(1 0 0 1 1119.6924 38.8043)"><tspan x="0" y="0" class="st41 st42 st43">Acts against </tspan><tspan x="0" y="21.6" class="st41 st42 st43">overfishing</tspan></text>
<rect x="1310.2" y="25.5" class="st40" width="157.6" height="42.3"/>
<text transform="matrix(1 0 0 1 1310.1746 38.3391)"><tspan x="0" y="0" class="st41 st42 st43">Resource efficient </tspan><tspan x="0" y="21.6" class="st41 st42 st43">food production</tspan></text>
<g>
	<defs>
		<rect id="SVGID_1_" x="414.6" y="275.7" width="126.3" height="126.3"/>
	</defs>
	<clipPath id="SVGID_2_">
		<use xlink:href="#SVGID_1_"  style="overflow:visible;"/>
	</clipPath>
	<g style="clip-path:url(#SVGID_2_);enable-background:new    ;">
		
			<image style="overflow:visible;" width="1229" height="601" xlink:href="A57E00A2.jpg"  transform="matrix(0.2055 0 0 0.2055 414.5747 278.517)">
		</image>
	</g>
</g>
<g>
	<defs>
		<rect id="SVGID_3_" x="412.1" y="411.7" width="124.9" height="122.2"/>
	</defs>
	<clipPath id="SVGID_4_">
		<use xlink:href="#SVGID_3_"  style="overflow:visible;"/>
	</clipPath>
	<g style="clip-path:url(#SVGID_4_);enable-background:new    ;">
		
			<image style="overflow:visible;" width="1229" height="601" xlink:href="A57E00AE.jpg"  transform="matrix(0.2033 0 0 0.2033 287.2057 411.7123)">
		</image>
	</g>
</g>
</svg>
