<svg id="Layer_1" data-name="Layer 1" xmlns="http://www.w3.org/2000/svg" viewBox="0 0 1325 317.02"><defs><style>.cls-1{fill:#fff;}.cls-2{font-size:14px;font-family:NeueHaasUnicaW06-Regular;}.cls-2,.cls-6{fill:#231f20;}.cls-3{letter-spacing:0.01em;}.cls-4{letter-spacing:0.01em;}.cls-5{letter-spacing:0em;}</style></defs><title>Airport_Bodø</title><path class="cls-1" d="M327.29,245.17H59.94V-22.19H327.29ZM83.5,149.3l.08,2.15c10.07,1.53,20.09,3.68,30.22,4.42s20.9,1.94,30.61-.35c17.05-4,33.53-10.48,50.21-16Q250.33,121,306,102.39a35.08,35.08,0,0,0,18.75-14.74c3.14-4.84,2.34-9.09-3.14-10.19-7.32-1.46-15.61-2.77-22.51-.77C274.81,83.75,251,92.36,226.89,100a16.29,16.29,0,0,1-10-.33c-26.92-10.41-53.72-21.1-80.49-31.88-3.31-1.33-5.55-1-7.74,1.76-1.81,2.24-3.91,4.25-6,6.46l38.25,46.18ZM61,123.75c5.43,6.27,10.89,12.71,16.54,19,.89,1,2.9,1.93,4,1.59,8-2.47,15.9-5.27,23.82-8-10.22-6.4-20.67-10.91-30.58-16.39C68.52,116.54,64.61,117.82,61,123.75Z" transform="translate(-59.94 22.19)"/><path d="M83.5,149.3l77.39-27.07L122.64,76.05c2.06-2.21,4.16-4.22,6-6.46,2.19-2.72,4.43-3.09,7.74-1.76,26.77,10.78,53.57,21.47,80.49,31.88a16.29,16.29,0,0,0,10,.33c24.1-7.68,47.92-16.29,72.2-23.35,6.9-2,15.19-.69,22.51.77,5.48,1.1,6.28,5.35,3.14,10.19A35.08,35.08,0,0,1,306,102.39q-55.71,18.49-111.37,37.11c-16.68,5.54-33.16,12-50.21,16-9.71,2.29-20.43,1.1-30.61.35S93.65,153,83.58,151.45Z" transform="translate(-59.94 22.19)"/><path d="M61,123.75c3.66-5.93,7.57-7.21,13.77-3.8,9.91,5.48,20.36,10,30.58,16.39-7.92,2.7-15.82,5.5-23.82,8-1.09.34-3.1-.61-4-1.59C71.84,136.46,66.38,130,61,123.75Z" transform="translate(-59.94 22.19)"/><text class="cls-2" transform="translate(64.47 243.36)">Air<tspan class="cls-3" x="17.93" y="0">p</tspan><tspan x="26.14" y="0">o</tspan><tspan class="cls-4" x="34.05" y="0">r</tspan><tspan x="39.28" y="0">t B</tspan><tspan class="cls-3" x="55.76" y="0">o</tspan><tspan x="63.81" y="0">dø</tspan></text><text class="cls-2" transform="translate(701.81 105.57)">The air<tspan class="cls-3" x="43.29" y="0">p</tspan><tspan x="51.49" y="0">o</tspan><tspan class="cls-4" x="59.4" y="0">r</tspan><tspan x="64.64" y="0">t will </tspan><tspan class="cls-3" x="96.58" y="0">b</tspan><tspan x="104.79" y="0">e m</tspan><tspan class="cls-5" x="127.79" y="0">ov</tspan><tspan class="cls-3" x="142.19" y="0">e</tspan><tspan x="150.03" y="0">d </tspan><tspan x="0" y="16.8">900m. Finish</tspan><tspan class="cls-3" x="79.97" y="16.8">e</tspan><tspan x="87.81" y="16.8">d in 2024-2026.</tspan></text><path class="cls-6" d="M1198.87,74.12a2.41,2.41,0,0,1,.87,2,2.6,2.6,0,0,1-.52,1.62,2.35,2.35,0,0,1-1.39.87v0a1.69,1.69,0,0,1,.86.56,5,5,0,0,1,.64,1.32l1,2.87H1199l-.91-2.64a2.69,2.69,0,0,0-.72-1.23,1.9,1.9,0,0,0-1.21-.33h-1.75v4.2h-1.29v-10h3.17A4.13,4.13,0,0,1,1198.87,74.12Zm-4.51,4h1.86a2.34,2.34,0,0,0,1.66-.51,1.78,1.78,0,0,0,.54-1.36c0-1.13-.76-1.7-2.28-1.7h-1.78Z" transform="translate(-59.94 22.19)"/><path class="cls-6" d="M1205.74,82.25a1.63,1.63,0,0,0,.62-1h1.26a2.79,2.79,0,0,1-1,1.66,3.26,3.26,0,0,1-2.12.66,3.34,3.34,0,0,1-1.79-.47,3,3,0,0,1-1.15-1.35,4.75,4.75,0,0,1-.4-2,4.22,4.22,0,0,1,.4-1.88,3,3,0,0,1,1.14-1.3,3.2,3.2,0,0,1,1.76-.47,3.12,3.12,0,0,1,2,.66,3.17,3.17,0,0,1,1.1,1.82,6.83,6.83,0,0,1,.14,1.52h-5.32A2.92,2.92,0,0,0,1203,82a1.92,1.92,0,0,0,1.49.64A2.05,2.05,0,0,0,1205.74,82.25ZM1203,77.58a2.49,2.49,0,0,0-.65,1.56h4.09a2.44,2.44,0,0,0-.64-1.56,2.06,2.06,0,0,0-2.8,0Z" transform="translate(-59.94 22.19)"/><path class="cls-6" d="M1214,76.77a2.71,2.71,0,0,1,.74,2.07v2.73a8,8,0,0,0,.17,1.82h-1.12a4.65,4.65,0,0,1-.1-1h0a2.47,2.47,0,0,1-1,.88,3.22,3.22,0,0,1-1.47.31,2.52,2.52,0,0,1-1.75-.58,1.92,1.92,0,0,1-.66-1.51,1.85,1.85,0,0,1,.61-1.46,4.18,4.18,0,0,1,2.09-.78c.69-.11,1.38-.19,2.06-.23V78.7a1.47,1.47,0,0,0-1.61-1.67,1.71,1.71,0,0,0-1.18.38,1.43,1.43,0,0,0-.45,1H1209a2.31,2.31,0,0,1,.8-1.7,3,3,0,0,1,2.06-.66A2.9,2.9,0,0,1,1214,76.77Zm-2.31,3.37a2.87,2.87,0,0,0-1.27.42.94.94,0,0,0-.37.81,1.13,1.13,0,0,0,.38.89,1.61,1.61,0,0,0,1.07.33,2.21,2.21,0,0,0,.82-.15,1.72,1.72,0,0,0,.65-.41,1.94,1.94,0,0,0,.45-.69,2.93,2.93,0,0,0,.13-1v-.44A18.13,18.13,0,0,0,1211.64,80.14Z" transform="translate(-59.94 22.19)"/><path class="cls-6" d="M1221.09,76.71a2.26,2.26,0,0,1,.72,1.79h-1.2a1.41,1.41,0,0,0-.41-1.09,2,2,0,0,0-2.19-.11.9.9,0,0,0-.37.74.8.8,0,0,0,.18.56,1.18,1.18,0,0,0,.49.31c.22.07.56.16,1,.28a13.08,13.08,0,0,1,1.44.42,2.17,2.17,0,0,1,.88.63,2,2,0,0,1-.39,2.76,4,4,0,0,1-4.25-.08,2.37,2.37,0,0,1-.79-1.9h1.25a1.52,1.52,0,0,0,.45,1.17,1.91,1.91,0,0,0,1.3.41,2,2,0,0,0,1.12-.29.9.9,0,0,0,.42-.77.93.93,0,0,0-.2-.63,1.33,1.33,0,0,0-.57-.36c-.25-.09-.65-.2-1.19-.33a12,12,0,0,1-1.3-.38,1.9,1.9,0,0,1-.78-.58,1.7,1.7,0,0,1-.33-1.12,1.81,1.81,0,0,1,.74-1.49,3,3,0,0,1,1.89-.57A3,3,0,0,1,1221.09,76.71Z" transform="translate(-59.94 22.19)"/><path class="cls-6" d="M1229.12,77.09a4.58,4.58,0,0,1,0,5.48,3.54,3.54,0,0,1-4.95,0,4.62,4.62,0,0,1,0-5.48,3.54,3.54,0,0,1,4.95,0Zm-4,.73a3.89,3.89,0,0,0,0,4,2,2,0,0,0,3.06,0,3.89,3.89,0,0,0,0-4,2,2,0,0,0-3.06,0Z" transform="translate(-59.94 22.19)"/><path class="cls-6" d="M1237,76.86a3.2,3.2,0,0,1,.67,2.19v4.34h-1.23V79.14a2.29,2.29,0,0,0-.42-1.54,1.53,1.53,0,0,0-1.22-.47,1.7,1.7,0,0,0-1.32.57,2.25,2.25,0,0,0-.53,1.61v4.08h-1.23V76.27h1.19v.94h0a2.46,2.46,0,0,1,.89-.8,2.72,2.72,0,0,1,1.26-.29A2.47,2.47,0,0,1,1237,76.86Z" transform="translate(-59.94 22.19)"/><path class="cls-6" d="M1248.32,77.09a4.58,4.58,0,0,1,0,5.48,3.16,3.16,0,0,1-2.48,1,3.11,3.11,0,0,1-2.47-1,4.58,4.58,0,0,1,0-5.48,3.11,3.11,0,0,1,2.47-1A3.16,3.16,0,0,1,1248.32,77.09Zm-4,.73a3.89,3.89,0,0,0,0,4,1.81,1.81,0,0,0,1.53.73,1.84,1.84,0,0,0,1.54-.73,3.89,3.89,0,0,0,0-4,1.84,1.84,0,0,0-1.54-.73A1.81,1.81,0,0,0,1244.31,77.82Z" transform="translate(-59.94 22.19)"/><path class="cls-6" d="M1252.7,74.61a1.33,1.33,0,0,0-.25.92v.74h1.41v1h-1.41v6.14h-1.22V77.25H1250v-1h1.25v-.88a2.12,2.12,0,0,1,.49-1.53,2,2,0,0,1,1.45-.51,2.92,2.92,0,0,1,.72.07v1a1.39,1.39,0,0,0-.41,0A1,1,0,0,0,1252.7,74.61Z" transform="translate(-59.94 22.19)"/><path class="cls-6" d="M1262.2,76.26v1.11l-.49-.05a1.93,1.93,0,0,0-1.55.63,2.67,2.67,0,0,0-.55,1.81v3.63h-1.23V76.27h1.18v1.1h0a2.3,2.3,0,0,1,2.1-1.17A1.9,1.9,0,0,1,1262.2,76.26Z" transform="translate(-59.94 22.19)"/><path class="cls-6" d="M1267.26,82.25a1.6,1.6,0,0,0,.63-1h1.26a2.79,2.79,0,0,1-1,1.66,3.26,3.26,0,0,1-2.12.66,3.34,3.34,0,0,1-1.79-.47,3.07,3.07,0,0,1-1.16-1.35,4.9,4.9,0,0,1-.39-2,4.36,4.36,0,0,1,.39-1.88,3,3,0,0,1,1.15-1.3,3.2,3.2,0,0,1,1.76-.47,3.12,3.12,0,0,1,2,.66,3.22,3.22,0,0,1,1.1,1.82,6.83,6.83,0,0,1,.14,1.52h-5.32a2.87,2.87,0,0,0,.62,1.91,1.91,1.91,0,0,0,1.49.64A2,2,0,0,0,1267.26,82.25Zm-2.71-4.67a2.54,2.54,0,0,0-.64,1.56H1268a2.49,2.49,0,0,0-.64-1.56A1.88,1.88,0,0,0,1266,77,1.91,1.91,0,0,0,1264.55,77.58Z" transform="translate(-59.94 22.19)"/><path class="cls-6" d="M1270.88,83.39v-10h1.24v10Z" transform="translate(-59.94 22.19)"/><path class="cls-6" d="M1279.63,77.09a4.58,4.58,0,0,1,0,5.48,3.54,3.54,0,0,1-5,0,4.62,4.62,0,0,1,0-5.48,3.54,3.54,0,0,1,5,0Zm-4,.73a3.89,3.89,0,0,0,0,4,2,2,0,0,0,3.06,0,3.89,3.89,0,0,0,0-4,2,2,0,0,0-3.06,0Z" transform="translate(-59.94 22.19)"/><path class="cls-6" d="M1286.68,76.42a2.83,2.83,0,0,1,1.07,1,3,3,0,0,1,.46,1.41h-1.28a1.91,1.91,0,0,0-.56-1.23,1.63,1.63,0,0,0-1.21-.47,1.74,1.74,0,0,0-1.48.73,3.26,3.26,0,0,0-.55,2,3.33,3.33,0,0,0,.54,2,1.75,1.75,0,0,0,1.49.73,1.59,1.59,0,0,0,1.21-.51,2.07,2.07,0,0,0,.56-1.29h1.28a3.22,3.22,0,0,1-.46,1.45,2.8,2.8,0,0,1-1,1,3.16,3.16,0,0,1-1.52.36,3.41,3.41,0,0,1-1.78-.45,3,3,0,0,1-1.16-1.31,5,5,0,0,1,0-4,3,3,0,0,1,1.16-1.31,3.41,3.41,0,0,1,1.78-.45A3.19,3.19,0,0,1,1286.68,76.42Z" transform="translate(-59.94 22.19)"/><path class="cls-6" d="M1294.42,76.77a2.71,2.71,0,0,1,.74,2.07v2.73a8,8,0,0,0,.17,1.82h-1.12a4.65,4.65,0,0,1-.1-1h0a2.47,2.47,0,0,1-1,.88,3.19,3.19,0,0,1-1.47.31,2.52,2.52,0,0,1-1.75-.58,1.92,1.92,0,0,1-.66-1.51,1.85,1.85,0,0,1,.61-1.46,4.18,4.18,0,0,1,2.09-.78c.69-.11,1.38-.19,2.06-.23V78.7a1.47,1.47,0,0,0-1.61-1.67,1.71,1.71,0,0,0-1.18.38,1.43,1.43,0,0,0-.45,1h-1.23a2.35,2.35,0,0,1,.8-1.7,3,3,0,0,1,2.06-.66A2.88,2.88,0,0,1,1294.42,76.77Zm-2.31,3.37a2.87,2.87,0,0,0-1.27.42.94.94,0,0,0-.37.81,1.13,1.13,0,0,0,.38.89,1.61,1.61,0,0,0,1.07.33,2.21,2.21,0,0,0,.82-.15,1.72,1.72,0,0,0,.65-.41,1.94,1.94,0,0,0,.45-.69,2.93,2.93,0,0,0,.13-1v-.44A18.13,18.13,0,0,0,1292.11,80.14Z" transform="translate(-59.94 22.19)"/><path class="cls-6" d="M1300.13,82.35v1a3.43,3.43,0,0,1-.79.08,2,2,0,0,1-1.47-.47,2.2,2.2,0,0,1-.46-1.57V77.25h-1.23v-1h1.23V74.55h1.23v1.72h1.42v1h-1.42v4a1.35,1.35,0,0,0,.23.88.94.94,0,0,0,.76.27A1.51,1.51,0,0,0,1300.13,82.35Z" transform="translate(-59.94 22.19)"/><path class="cls-6" d="M1301.6,74.8V73.42h1.23V74.8Zm0,8.59V76.27h1.23v7.12Z" transform="translate(-59.94 22.19)"/><path class="cls-6" d="M1310.35,77.09a4.58,4.58,0,0,1,0,5.48,3.54,3.54,0,0,1-4.95,0,4.62,4.62,0,0,1,0-5.48,3.54,3.54,0,0,1,4.95,0Zm-4,.73a3.89,3.89,0,0,0,0,4,2,2,0,0,0,3.07,0,3.89,3.89,0,0,0,0-4,2,2,0,0,0-3.07,0Z" transform="translate(-59.94 22.19)"/><path class="cls-6" d="M1318.2,76.86a3.15,3.15,0,0,1,.67,2.19v4.34h-1.23V79.14a2.29,2.29,0,0,0-.42-1.54,1.52,1.52,0,0,0-1.22-.47,1.72,1.72,0,0,0-1.32.57,2.29,2.29,0,0,0-.52,1.61v4.08h-1.24V76.27h1.19v.94h0a2.58,2.58,0,0,1,.9-.8,2.72,2.72,0,0,1,1.26-.29A2.45,2.45,0,0,1,1318.2,76.86Z" transform="translate(-59.94 22.19)"/><path class="cls-6" d="M1320.72,77.91V76.27h1.51v1.64Zm0,5.48V81.75h1.51v1.64Z" transform="translate(-59.94 22.19)"/><path class="cls-6" d="M1328.81,80.42l-1.09,3h-1.37l3.78-10h1.75l3.79,10h-1.38l-1.08-3Zm3.66-2c-.57-1.56-1-2.92-1.44-4.06h0c-.39,1.14-.87,2.5-1.44,4.06l-.34.91h3.57Z" transform="translate(-59.94 22.19)"/><path class="cls-6" d="M1340.64,76.26v1.11l-.49-.05a1.93,1.93,0,0,0-1.55.63,2.72,2.72,0,0,0-.55,1.81v3.63h-1.23V76.27H1338v1.1h0a2.28,2.28,0,0,1,2.1-1.17A1.88,1.88,0,0,1,1340.64,76.26Z" transform="translate(-59.94 22.19)"/><path class="cls-6" d="M1345.7,82.25a1.6,1.6,0,0,0,.63-1h1.26a2.79,2.79,0,0,1-1,1.66,3.26,3.26,0,0,1-2.12.66,3.34,3.34,0,0,1-1.79-.47,3.13,3.13,0,0,1-1.16-1.35,4.9,4.9,0,0,1-.39-2,4.36,4.36,0,0,1,.39-1.88,3,3,0,0,1,1.15-1.3,3.2,3.2,0,0,1,1.76-.47,3.12,3.12,0,0,1,2,.66,3.22,3.22,0,0,1,1.1,1.82,6.83,6.83,0,0,1,.14,1.52h-5.32A2.92,2.92,0,0,0,1343,82a1.91,1.91,0,0,0,1.49.64A2,2,0,0,0,1345.7,82.25Zm-2.7-4.67a2.49,2.49,0,0,0-.65,1.56h4.09a2.49,2.49,0,0,0-.64-1.56,2.06,2.06,0,0,0-2.8,0Z" transform="translate(-59.94 22.19)"/><path class="cls-6" d="M1353.92,76.77a2.71,2.71,0,0,1,.74,2.07v2.73a8,8,0,0,0,.17,1.82h-1.12a4.65,4.65,0,0,1-.1-1h0a2.44,2.44,0,0,1-1,.88,3.17,3.17,0,0,1-1.46.31,2.52,2.52,0,0,1-1.75-.58,1.92,1.92,0,0,1-.66-1.51,1.85,1.85,0,0,1,.61-1.46,4.18,4.18,0,0,1,2.09-.78c.69-.11,1.38-.19,2.06-.23V78.7a1.47,1.47,0,0,0-1.61-1.67,1.71,1.71,0,0,0-1.18.38,1.43,1.43,0,0,0-.45,1H1349a2.31,2.31,0,0,1,.8-1.7,3,3,0,0,1,2.06-.66A2.9,2.9,0,0,1,1353.92,76.77Zm-2.31,3.37a2.82,2.82,0,0,0-1.27.42.94.94,0,0,0-.37.81,1.13,1.13,0,0,0,.38.89,1.61,1.61,0,0,0,1.07.33,2.21,2.21,0,0,0,.82-.15,1.72,1.72,0,0,0,.65-.41,1.94,1.94,0,0,0,.45-.69,3.2,3.2,0,0,0,.13-1v-.44A18.13,18.13,0,0,0,1351.61,80.14Z" transform="translate(-59.94 22.19)"/><path class="cls-6" d="M1197.43,93.57a2.71,2.71,0,0,1,.74,2.07v2.73a7.93,7.93,0,0,0,.17,1.82h-1.12a4.65,4.65,0,0,1-.1-1h0a2.47,2.47,0,0,1-1,.88,3.19,3.19,0,0,1-1.47.31,2.53,2.53,0,0,1-1.75-.58,1.92,1.92,0,0,1-.66-1.51,1.85,1.85,0,0,1,.61-1.46,4.18,4.18,0,0,1,2.09-.78c.69-.11,1.38-.19,2.06-.23V95.5a1.47,1.47,0,0,0-1.61-1.67,1.71,1.71,0,0,0-1.18.38,1.45,1.45,0,0,0-.45,1h-1.23a2.35,2.35,0,0,1,.8-1.7,3,3,0,0,1,2.06-.66A2.9,2.9,0,0,1,1197.43,93.57Zm-2.31,3.37a2.87,2.87,0,0,0-1.27.42,1,1,0,0,0-.37.81,1.13,1.13,0,0,0,.38.89,1.61,1.61,0,0,0,1.07.33,2.21,2.21,0,0,0,.82-.15,1.72,1.72,0,0,0,.65-.41,1.94,1.94,0,0,0,.45-.69,2.93,2.93,0,0,0,.13-1v-.44A18.13,18.13,0,0,0,1195.12,96.94Z" transform="translate(-59.94 22.19)"/><path class="cls-6" d="M1201.93,91.41a1.39,1.39,0,0,0-.25.92v.74h1.42v1h-1.42v6.14h-1.22V94.05h-1.24v-1h1.24v-.88a2.12,2.12,0,0,1,.5-1.53,1.94,1.94,0,0,1,1.45-.51,2.78,2.78,0,0,1,.71.07v1a1.28,1.28,0,0,0-.4,0A1,1,0,0,0,1201.93,91.41Z" transform="translate(-59.94 22.19)"/><path class="cls-6" d="M1207.55,99.15v1a3.43,3.43,0,0,1-.79.08,2,2,0,0,1-1.47-.47,2.2,2.2,0,0,1-.46-1.57V94.05h-1.23v-1h1.23V91.35h1.23v1.72h1.42v1h-1.42v4a1.35,1.35,0,0,0,.23.88.93.93,0,0,0,.75.27A1.53,1.53,0,0,0,1207.55,99.15Z" transform="translate(-59.94 22.19)"/><path class="cls-6" d="M1212.88,99.05a1.59,1.59,0,0,0,.62-1h1.26a2.79,2.79,0,0,1-1,1.66,3.26,3.26,0,0,1-2.12.66,3.34,3.34,0,0,1-1.79-.47,3,3,0,0,1-1.15-1.35,4.75,4.75,0,0,1-.4-2,4.22,4.22,0,0,1,.4-1.88,3,3,0,0,1,1.14-1.3,3.2,3.2,0,0,1,1.76-.47,3.12,3.12,0,0,1,2,.66,3.17,3.17,0,0,1,1.1,1.82,6.83,6.83,0,0,1,.14,1.52h-5.32a2.92,2.92,0,0,0,.62,1.91,1.92,1.92,0,0,0,1.49.64A2.05,2.05,0,0,0,1212.88,99.05Zm-2.71-4.67a2.49,2.49,0,0,0-.65,1.56h4.09a2.44,2.44,0,0,0-.64-1.56,2.06,2.06,0,0,0-2.8,0Z" transform="translate(-59.94 22.19)"/><path class="cls-6" d="M1220.32,93.06v1.11l-.49,0a2,2,0,0,0-1.56.63,2.72,2.72,0,0,0-.54,1.81v3.63h-1.24V93.07h1.18v1.1h0a2.29,2.29,0,0,1,2.1-1.17A2,2,0,0,1,1220.32,93.06Z" transform="translate(-59.94 22.19)"/><path class="cls-6" d="M1228.6,93.06v1.11l-.49,0a1.93,1.93,0,0,0-1.55.63,2.72,2.72,0,0,0-.55,1.81v3.63h-1.23V93.07H1226v1.1h0a2.28,2.28,0,0,1,2.1-1.17A1.88,1.88,0,0,1,1228.6,93.06Z" transform="translate(-59.94 22.19)"/><path class="cls-6" d="M1233.67,99.05a1.63,1.63,0,0,0,.62-1h1.26a2.79,2.79,0,0,1-1,1.66,3.26,3.26,0,0,1-2.12.66,3.34,3.34,0,0,1-1.79-.47,3.13,3.13,0,0,1-1.16-1.35,4.9,4.9,0,0,1-.39-2,4.36,4.36,0,0,1,.39-1.88,3,3,0,0,1,1.15-1.3,3.2,3.2,0,0,1,1.76-.47,3.12,3.12,0,0,1,2,.66,3.22,3.22,0,0,1,1.1,1.82,6.83,6.83,0,0,1,.14,1.52h-5.32a2.92,2.92,0,0,0,.62,1.91,1.91,1.91,0,0,0,1.49.64A2.05,2.05,0,0,0,1233.67,99.05ZM1231,94.38a2.49,2.49,0,0,0-.65,1.56h4.09a2.49,2.49,0,0,0-.64-1.56,2.06,2.06,0,0,0-2.8,0Z" transform="translate(-59.94 22.19)"/><path class="cls-6" d="M1237.28,100.19v-10h1.24v10Z" transform="translate(-59.94 22.19)"/><path class="cls-6" d="M1246,93.89a4.58,4.58,0,0,1,0,5.48,3.54,3.54,0,0,1-5,0,4.62,4.62,0,0,1,0-5.48,3.54,3.54,0,0,1,5,0Zm-4,.73a3.89,3.89,0,0,0,0,4,1.81,1.81,0,0,0,1.53.73,1.84,1.84,0,0,0,1.54-.73,3.89,3.89,0,0,0,0-4,1.84,1.84,0,0,0-1.54-.73A1.81,1.81,0,0,0,1242,94.62Z" transform="translate(-59.94 22.19)"/><path class="cls-6" d="M1253.08,93.22a2.76,2.76,0,0,1,1.07,1,3.15,3.15,0,0,1,.47,1.41h-1.29a1.91,1.91,0,0,0-.56-1.23,1.67,1.67,0,0,0-1.21-.47,1.74,1.74,0,0,0-1.48.73,3.26,3.26,0,0,0-.55,2,3.33,3.33,0,0,0,.54,2,1.75,1.75,0,0,0,1.49.73,1.59,1.59,0,0,0,1.21-.51,2.07,2.07,0,0,0,.56-1.29h1.29a3.36,3.36,0,0,1-.47,1.45,2.8,2.8,0,0,1-1.05,1,3.16,3.16,0,0,1-1.52.36,3.41,3.41,0,0,1-1.78-.45,3,3,0,0,1-1.16-1.3,4.61,4.61,0,0,1-.41-2,4.53,4.53,0,0,1,.41-2,3,3,0,0,1,1.16-1.31,3.41,3.41,0,0,1,1.78-.45A3.19,3.19,0,0,1,1253.08,93.22Z" transform="translate(-59.94 22.19)"/><path class="cls-6" d="M1260.82,93.57a2.71,2.71,0,0,1,.74,2.07v2.73a8.53,8.53,0,0,0,.17,1.82h-1.12a4.65,4.65,0,0,1-.1-1h0a2.47,2.47,0,0,1-1,.88,3.19,3.19,0,0,1-1.47.31,2.53,2.53,0,0,1-1.75-.58,1.92,1.92,0,0,1-.66-1.51,1.85,1.85,0,0,1,.61-1.46,4.18,4.18,0,0,1,2.09-.78c.69-.11,1.38-.19,2.06-.23V95.5a1.47,1.47,0,0,0-1.61-1.67,1.71,1.71,0,0,0-1.18.38,1.45,1.45,0,0,0-.45,1h-1.23a2.35,2.35,0,0,1,.8-1.7,3,3,0,0,1,2.06-.66A2.88,2.88,0,0,1,1260.82,93.57Zm-2.31,3.37a2.87,2.87,0,0,0-1.27.42,1,1,0,0,0-.37.81,1.13,1.13,0,0,0,.38.89,1.62,1.62,0,0,0,1.08.33,2.2,2.2,0,0,0,.81-.15,1.72,1.72,0,0,0,.65-.41,1.94,1.94,0,0,0,.45-.69,2.93,2.93,0,0,0,.13-1v-.44A18.13,18.13,0,0,0,1258.51,96.94Z" transform="translate(-59.94 22.19)"/><path class="cls-6" d="M1266.53,99.15v1a3.4,3.4,0,0,1-.78.08,2,2,0,0,1-1.48-.47,2.2,2.2,0,0,1-.46-1.57V94.05h-1.23v-1h1.23V91.35h1.24v1.72h1.41v1h-1.41v4a1.35,1.35,0,0,0,.22.88.94.94,0,0,0,.76.27A1.51,1.51,0,0,0,1266.53,99.15Z" transform="translate(-59.94 22.19)"/><path class="cls-6" d="M1268,91.6V90.22h1.23V91.6Zm0,8.59V93.07h1.23v7.12Z" transform="translate(-59.94 22.19)"/><path class="cls-6" d="M1276.75,93.89a4.58,4.58,0,0,1,0,5.48,3.54,3.54,0,0,1-5,0,4.62,4.62,0,0,1,0-5.48,3.54,3.54,0,0,1,5,0Zm-4,.73a3.89,3.89,0,0,0,0,4,1.8,1.8,0,0,0,1.52.73,1.83,1.83,0,0,0,1.54-.73,3.89,3.89,0,0,0,0-4,1.83,1.83,0,0,0-1.54-.73A1.8,1.8,0,0,0,1272.75,94.62Z" transform="translate(-59.94 22.19)"/><path class="cls-6" d="M1284.6,93.66a3.16,3.16,0,0,1,.68,2.19v4.34H1284V95.94a2.29,2.29,0,0,0-.42-1.54,1.51,1.51,0,0,0-1.21-.47,1.72,1.72,0,0,0-1.33.57,2.29,2.29,0,0,0-.52,1.61v4.08h-1.23V93.07h1.19V94h0a2.58,2.58,0,0,1,.9-.8,2.72,2.72,0,0,1,1.26-.29A2.43,2.43,0,0,1,1284.6,93.66Z" transform="translate(-59.94 22.19)"/><path class="cls-6" d="M1295.21,93.57a2.71,2.71,0,0,1,.73,2.07v2.73a8.53,8.53,0,0,0,.17,1.82H1295a5.32,5.32,0,0,1-.1-1h0a2.57,2.57,0,0,1-1,.88,3.19,3.19,0,0,1-1.47.31,2.53,2.53,0,0,1-1.75-.58,1.92,1.92,0,0,1-.66-1.51,1.88,1.88,0,0,1,.61-1.46,4.26,4.26,0,0,1,2.1-.78c.69-.11,1.37-.19,2-.23V95.5a1.46,1.46,0,0,0-1.61-1.67,1.7,1.7,0,0,0-1.17.38,1.45,1.45,0,0,0-.45,1h-1.23a2.3,2.3,0,0,1,.79-1.7,3,3,0,0,1,2.06-.66A2.91,2.91,0,0,1,1295.21,93.57Zm-2.32,3.37a2.87,2.87,0,0,0-1.27.42,1,1,0,0,0-.37.81,1.11,1.11,0,0,0,.39.89,1.57,1.57,0,0,0,1.07.33,2.25,2.25,0,0,0,.82-.15,1.89,1.89,0,0,0,.65-.41,2.26,2.26,0,0,0,.45-.69,3.25,3.25,0,0,0,.12-1v-.44A18.13,18.13,0,0,0,1292.89,96.94Z" transform="translate(-59.94 22.19)"/><path class="cls-6" d="M1301.87,93.06v1.11l-.49,0a1.94,1.94,0,0,0-1.56.63,2.72,2.72,0,0,0-.54,1.81v3.63H1298V93.07h1.18v1.1h0a2.28,2.28,0,0,1,2.1-1.17A2,2,0,0,1,1301.87,93.06Z" transform="translate(-59.94 22.19)"/><path class="cls-6" d="M1306.93,99.05a1.63,1.63,0,0,0,.62-1h1.26a2.79,2.79,0,0,1-1,1.66,3.26,3.26,0,0,1-2.12.66,3.34,3.34,0,0,1-1.79-.47,3,3,0,0,1-1.15-1.35,4.75,4.75,0,0,1-.4-2,4.22,4.22,0,0,1,.4-1.88,3,3,0,0,1,1.14-1.3,3.2,3.2,0,0,1,1.76-.47,3.12,3.12,0,0,1,2,.66,3.17,3.17,0,0,1,1.1,1.82,6.83,6.83,0,0,1,.14,1.52h-5.32a2.92,2.92,0,0,0,.62,1.91,1.92,1.92,0,0,0,1.49.64A2.05,2.05,0,0,0,1306.93,99.05Zm-2.71-4.67a2.49,2.49,0,0,0-.65,1.56h4.09a2.44,2.44,0,0,0-.64-1.56,2.06,2.06,0,0,0-2.8,0Z" transform="translate(-59.94 22.19)"/><path class="cls-6" d="M1315.57,91.41a1.33,1.33,0,0,0-.25.92v.74h1.41v1h-1.41v6.14h-1.22V94.05h-1.25v-1h1.25v-.88a2.12,2.12,0,0,1,.5-1.53,1.93,1.93,0,0,1,1.45-.51,2.88,2.88,0,0,1,.71.07v1a1.35,1.35,0,0,0-.41,0A1,1,0,0,0,1315.57,91.41Z" transform="translate(-59.94 22.19)"/><path class="cls-6" d="M1321.86,93.06v1.11l-.49,0a2,2,0,0,0-1.56.63,2.72,2.72,0,0,0-.54,1.81v3.63H1318V93.07h1.18v1.1h0a2.29,2.29,0,0,1,2.1-1.17A2,2,0,0,1,1321.86,93.06Z" transform="translate(-59.94 22.19)"/><path class="cls-6" d="M1326.92,99.05a1.59,1.59,0,0,0,.62-1h1.26a2.83,2.83,0,0,1-1,1.66,3.3,3.3,0,0,1-2.13.66,3.36,3.36,0,0,1-1.79-.47,3,3,0,0,1-1.15-1.35,4.75,4.75,0,0,1-.4-2,4.22,4.22,0,0,1,.4-1.88,3,3,0,0,1,1.15-1.3,3.14,3.14,0,0,1,1.75-.47,3.1,3.1,0,0,1,2,.66,3.17,3.17,0,0,1,1.1,1.82,6.83,6.83,0,0,1,.14,1.52h-5.32a3,3,0,0,0,.62,1.91,1.92,1.92,0,0,0,1.49.64A2,2,0,0,0,1326.92,99.05Zm-2.71-4.67a2.49,2.49,0,0,0-.65,1.56h4.09a2.44,2.44,0,0,0-.64-1.56,2.06,2.06,0,0,0-2.8,0Z" transform="translate(-59.94 22.19)"/><path class="cls-6" d="M1334.76,99.05a1.59,1.59,0,0,0,.62-1h1.26a2.83,2.83,0,0,1-1,1.66,3.3,3.3,0,0,1-2.13.66,3.36,3.36,0,0,1-1.79-.47,3,3,0,0,1-1.15-1.35,4.75,4.75,0,0,1-.4-2,4.22,4.22,0,0,1,.4-1.88,3,3,0,0,1,1.15-1.3,3.17,3.17,0,0,1,4.86,2,6.83,6.83,0,0,1,.14,1.52h-5.32a3,3,0,0,0,.62,1.91,1.92,1.92,0,0,0,1.49.64A2,2,0,0,0,1334.76,99.05Zm-2.71-4.67a2.49,2.49,0,0,0-.65,1.56h4.09a2.44,2.44,0,0,0-.64-1.56,2.06,2.06,0,0,0-2.8,0Z" transform="translate(-59.94 22.19)"/><path class="cls-6" d="M1343.19,100.19v-1h0a2.05,2.05,0,0,1-.87.88,2.62,2.62,0,0,1-1.31.32,2.74,2.74,0,0,1-1.58-.46,2.92,2.92,0,0,1-1-1.31,5.54,5.54,0,0,1,0-3.93,2.84,2.84,0,0,1,1-1.3,2.84,2.84,0,0,1,2.86-.14,2.16,2.16,0,0,1,.88.84h0V90.22h1.24v10Zm-3.36-5.56a3.94,3.94,0,0,0,0,4,1.72,1.72,0,0,0,1.46.75,1.65,1.65,0,0,0,1.41-.74,4,4,0,0,0,0-4,1.64,1.64,0,0,0-1.41-.73A1.71,1.71,0,0,0,1339.83,94.63Z" transform="translate(-59.94 22.19)"/><path class="cls-6" d="M1350.39,99.6a3.2,3.2,0,0,1-.66-2.19V93.07H1351v4.25a2.29,2.29,0,0,0,.42,1.54,1.53,1.53,0,0,0,1.22.47,1.72,1.72,0,0,0,1.32-.58,2.3,2.3,0,0,0,.53-1.6V93.07h1.23v7.12h-1.19v-.94h0a2.41,2.41,0,0,1-.9.8,2.79,2.79,0,0,1-1.27.29A2.45,2.45,0,0,1,1350.39,99.6Z" transform="translate(-59.94 22.19)"/><path class="cls-6" d="M1362.85,93.35a2.85,2.85,0,0,1,1.05,1.3,5.54,5.54,0,0,1,0,3.93,3,3,0,0,1-1,1.31,2.88,2.88,0,0,1-2.86.15,2.15,2.15,0,0,1-.88-.86h0v3.6h-1.24V93.07h1.22v1h0a2,2,0,0,1,.87-.89,2.86,2.86,0,0,1,2.87.14Zm-3.29,1.27a4.11,4.11,0,0,0,0,4,1.65,1.65,0,0,0,1.41.74,1.72,1.72,0,0,0,1.46-.75,3.94,3.94,0,0,0,0-4,1.71,1.71,0,0,0-1.46-.74A1.64,1.64,0,0,0,1359.56,94.62Z" transform="translate(-59.94 22.19)"/><path class="cls-6" d="M1371,91.41a1.39,1.39,0,0,0-.25.92v.74h1.42v1h-1.42v6.14h-1.22V94.05h-1.24v-1h1.24v-.88a2.12,2.12,0,0,1,.5-1.53,1.93,1.93,0,0,1,1.45-.51,2.78,2.78,0,0,1,.71.07v1a1.32,1.32,0,0,0-.4,0A1,1,0,0,0,1371,91.41Z" transform="translate(-59.94 22.19)"/><path class="cls-6" d="M1378.54,93.89a4.58,4.58,0,0,1,0,5.48,3.54,3.54,0,0,1-5,0,4.62,4.62,0,0,1,0-5.48,3.54,3.54,0,0,1,5,0Zm-4,.73a3.89,3.89,0,0,0,0,4,2,2,0,0,0,3.06,0,3.89,3.89,0,0,0,0-4,2,2,0,0,0-3.06,0Z" transform="translate(-59.94 22.19)"/><path class="cls-6" d="M1384.94,93.06v1.11l-.49,0a2,2,0,0,0-1.56.63,2.72,2.72,0,0,0-.54,1.81v3.63h-1.23V93.07h1.17v1.1h0a2.3,2.3,0,0,1,2.1-1.17A1.9,1.9,0,0,1,1384.94,93.06Z" transform="translate(-59.94 22.19)"/><path class="cls-6" d="M1197.43,110.37a2.71,2.71,0,0,1,.74,2.07v2.73a8,8,0,0,0,.17,1.82h-1.12a4.65,4.65,0,0,1-.1-1h0a2.47,2.47,0,0,1-1,.88,3.19,3.19,0,0,1-1.47.31,2.53,2.53,0,0,1-1.75-.58,1.92,1.92,0,0,1-.66-1.51,1.85,1.85,0,0,1,.61-1.46,4.18,4.18,0,0,1,2.09-.78c.69-.11,1.38-.19,2.06-.23v-.28a1.47,1.47,0,0,0-1.61-1.67,1.71,1.71,0,0,0-1.18.38,1.45,1.45,0,0,0-.45,1h-1.23a2.35,2.35,0,0,1,.8-1.7,3,3,0,0,1,2.06-.66A2.9,2.9,0,0,1,1197.43,110.37Zm-2.31,3.37a2.87,2.87,0,0,0-1.27.42.94.94,0,0,0-.37.81,1.13,1.13,0,0,0,.38.89,1.61,1.61,0,0,0,1.07.33,2.21,2.21,0,0,0,.82-.15,1.72,1.72,0,0,0,.65-.41,1.94,1.94,0,0,0,.45-.69,2.93,2.93,0,0,0,.13-1v-.44A18.13,18.13,0,0,0,1195.12,113.74Z" transform="translate(-59.94 22.19)"/><path class="cls-6" d="M1208.77,110.46a3.2,3.2,0,0,1,.67,2.19V117h-1.23v-4.25a2.29,2.29,0,0,0-.42-1.54,1.53,1.53,0,0,0-1.22-.47,1.72,1.72,0,0,0-1.32.57,2.3,2.3,0,0,0-.53,1.61V117h-1.23v-7.12h1.19v.94h0a2.46,2.46,0,0,1,.89-.8,2.78,2.78,0,0,1,1.26-.29A2.47,2.47,0,0,1,1208.77,110.46Z" transform="translate(-59.94 22.19)"/><path class="cls-6" d="M1215.63,115.85a1.65,1.65,0,0,0,.63-1h1.26a2.79,2.79,0,0,1-1,1.66,3.26,3.26,0,0,1-2.12.66,3.34,3.34,0,0,1-1.79-.47,3.07,3.07,0,0,1-1.16-1.35,4.9,4.9,0,0,1-.4-2,4.39,4.39,0,0,1,.4-1.88,3,3,0,0,1,1.15-1.3,3.28,3.28,0,0,1,1.76-.47,3.12,3.12,0,0,1,2,.66,3.22,3.22,0,0,1,1.1,1.82,6.83,6.83,0,0,1,.14,1.52h-5.32a2.87,2.87,0,0,0,.62,1.91,1.91,1.91,0,0,0,1.49.64A2,2,0,0,0,1215.63,115.85Zm-2.71-4.67a2.54,2.54,0,0,0-.64,1.56h4.09a2.44,2.44,0,0,0-.65-1.56,1.84,1.84,0,0,0-1.38-.55A1.91,1.91,0,0,0,1212.92,111.18Z" transform="translate(-59.94 22.19)"/><path class="cls-6" d="M1225.15,117l-.84-3.08c-.11-.4-.17-.66-.2-.79-.22-.83-.42-1.59-.59-2.29h0c-.16.7-.36,1.46-.58,2.29,0,.13-.1.39-.2.79l-.84,3.08h-1.76l-1.89-7.12h1.24l.76,3L1221,116h0q.38-1.59.78-3.12l.82-3h1.76l.81,3L1226,116h0c.3-1.23.56-2.29.79-3.19l.75-3h1.25l-1.89,7.12Z" transform="translate(-59.94 22.19)"/><path class="cls-6" d="M1237.54,110a2.76,2.76,0,0,1,1.07,1,3.15,3.15,0,0,1,.47,1.41h-1.29a1.91,1.91,0,0,0-.56-1.23,1.63,1.63,0,0,0-1.21-.47,1.74,1.74,0,0,0-1.48.73,4,4,0,0,0,0,4,1.75,1.75,0,0,0,1.49.73,1.59,1.59,0,0,0,1.21-.51,2.07,2.07,0,0,0,.56-1.29h1.29a3.23,3.23,0,0,1-.47,1.45,2.8,2.8,0,0,1-1,1,3.16,3.16,0,0,1-1.52.36,3.41,3.41,0,0,1-1.78-.45,3,3,0,0,1-1.16-1.31,5,5,0,0,1,0-4,3,3,0,0,1,1.16-1.31,3.41,3.41,0,0,1,1.78-.45A3.19,3.19,0,0,1,1237.54,110Z" transform="translate(-59.94 22.19)"/><path class="cls-6" d="M1240.69,108.4V107h1.23v1.38Zm0,8.59v-7.12h1.23V117Z" transform="translate(-59.94 22.19)"/><path class="cls-6" d="M1247.11,116v1a3.34,3.34,0,0,1-.78.08,2,2,0,0,1-1.48-.47,2.25,2.25,0,0,1-.45-1.57v-4.15h-1.24v-1h1.24v-1.72h1.23v1.72H1247v1h-1.41v4a1.35,1.35,0,0,0,.22.88.94.94,0,0,0,.76.27A1.51,1.51,0,0,0,1247.11,116Z" transform="translate(-59.94 22.19)"/><path class="cls-6" d="M1250.8,118.73a2.15,2.15,0,0,1-.9.7,3.64,3.64,0,0,1-1.29.2,2.09,2.09,0,0,1-.64-.07v-1a2,2,0,0,0,.58.08,1.91,1.91,0,0,0,.78-.14,1.26,1.26,0,0,0,.53-.48,5.4,5.4,0,0,0,.46-1l-2.7-7.14H1249l2,5.66h0l2.07-5.66h1.3l-2.85,7.44A5.76,5.76,0,0,1,1250.8,118.73Z" transform="translate(-59.94 22.19)"/><path class="cls-6" d="M1263.29,117v-1h0a2.13,2.13,0,0,1-.88.88,2.6,2.6,0,0,1-1.31.32,2.71,2.71,0,0,1-1.57-.46,3,3,0,0,1-1-1.31,5.54,5.54,0,0,1,0-3.93,2.9,2.9,0,0,1,1-1.3,2.69,2.69,0,0,1,1.57-.46,2.65,2.65,0,0,1,1.29.32,2.16,2.16,0,0,1,.88.84h0V107h1.23v10Zm-3.35-5.56a3.88,3.88,0,0,0,0,4,1.69,1.69,0,0,0,1.45.75,1.65,1.65,0,0,0,1.41-.74,4,4,0,0,0,0-4,1.64,1.64,0,0,0-1.41-.73A1.69,1.69,0,0,0,1259.94,111.43Z" transform="translate(-59.94 22.19)"/><path class="cls-6" d="M1266.68,108.4V107h1.24v1.38Zm0,8.59v-7.12h1.24V117Z" transform="translate(-59.94 22.19)"/><path class="cls-6" d="M1274.4,110.31a2.26,2.26,0,0,1,.73,1.79h-1.21a1.41,1.41,0,0,0-.41-1.09,2,2,0,0,0-2.19-.11.9.9,0,0,0-.37.74.8.8,0,0,0,.18.56,1.22,1.22,0,0,0,.5.31c.21.07.56.16,1,.28a13.08,13.08,0,0,1,1.44.42,2.17,2.17,0,0,1,.88.63,1.82,1.82,0,0,1,.37,1.21,1.87,1.87,0,0,1-.76,1.55,4,4,0,0,1-4.25-.08,2.4,2.4,0,0,1-.79-1.9h1.25a1.52,1.52,0,0,0,.45,1.17,1.91,1.91,0,0,0,1.3.41,2,2,0,0,0,1.12-.29.9.9,0,0,0,.42-.77.93.93,0,0,0-.2-.63,1.33,1.33,0,0,0-.57-.36c-.25-.09-.65-.2-1.19-.33a12.74,12.74,0,0,1-1.3-.38,1.9,1.9,0,0,1-.78-.58,1.7,1.7,0,0,1-.33-1.12,1.81,1.81,0,0,1,.74-1.49,3,3,0,0,1,1.89-.57A3,3,0,0,1,1274.4,110.31Z" transform="translate(-59.94 22.19)"/><path class="cls-6" d="M1280,116v1a3.43,3.43,0,0,1-.79.08,2,2,0,0,1-1.48-.47,2.25,2.25,0,0,1-.45-1.57v-4.15h-1.23v-1h1.23v-1.72h1.23v1.72H1280v1h-1.42v4a1.41,1.41,0,0,0,.22.88,1,1,0,0,0,.76.27A1.57,1.57,0,0,0,1280,116Z" transform="translate(-59.94 22.19)"/><path class="cls-6" d="M1285.32,109.86V111l-.49,0a2,2,0,0,0-1.56.63,2.72,2.72,0,0,0-.54,1.81V117h-1.23v-7.12h1.17V111h0a2.3,2.3,0,0,1,2.1-1.17A2,2,0,0,1,1285.32,109.86Z" transform="translate(-59.94 22.19)"/><path class="cls-6" d="M1286.56,108.4V107h1.23v1.38Zm0,8.59v-7.12h1.23V117Z" transform="translate(-59.94 22.19)"/><path class="cls-6" d="M1294.31,110a2.83,2.83,0,0,1,1.07,1,3,3,0,0,1,.46,1.41h-1.28a1.91,1.91,0,0,0-.56-1.23,1.63,1.63,0,0,0-1.21-.47,1.74,1.74,0,0,0-1.48.73,4,4,0,0,0,0,4,1.75,1.75,0,0,0,1.49.73,1.59,1.59,0,0,0,1.21-.51,2.07,2.07,0,0,0,.56-1.29h1.28a3.22,3.22,0,0,1-.46,1.45,2.8,2.8,0,0,1-1.05,1,3.16,3.16,0,0,1-1.52.36,3.41,3.41,0,0,1-1.78-.45,3,3,0,0,1-1.16-1.31,5,5,0,0,1,0-4,3,3,0,0,1,1.16-1.31,3.41,3.41,0,0,1,1.78-.45A3.19,3.19,0,0,1,1294.31,110Z" transform="translate(-59.94 22.19)"/><path class="cls-6" d="M1300.46,116v1a3.28,3.28,0,0,1-.78.08,2,2,0,0,1-1.48-.47,2.25,2.25,0,0,1-.45-1.57v-4.15h-1.23v-1h1.23v-1.72H1299v1.72h1.42v1H1299v4a1.35,1.35,0,0,0,.23.88.91.91,0,0,0,.75.27A1.43,1.43,0,0,0,1300.46,116Z" transform="translate(-59.94 22.19)"/><path class="cls-6" d="M1309.24,115.85a1.63,1.63,0,0,0,.62-1h1.26a2.79,2.79,0,0,1-1,1.66,3.26,3.26,0,0,1-2.12.66,3.34,3.34,0,0,1-1.79-.47,3,3,0,0,1-1.15-1.35,4.75,4.75,0,0,1-.4-2,4.25,4.25,0,0,1,.4-1.88,3,3,0,0,1,1.14-1.3,3.28,3.28,0,0,1,1.76-.47,3.12,3.12,0,0,1,2,.66,3.17,3.17,0,0,1,1.1,1.82,6.83,6.83,0,0,1,.14,1.52h-5.32a2.92,2.92,0,0,0,.62,1.91,1.92,1.92,0,0,0,1.49.64A2.05,2.05,0,0,0,1309.24,115.85Zm-2.71-4.67a2.49,2.49,0,0,0-.65,1.56H1310a2.44,2.44,0,0,0-.64-1.56,2.06,2.06,0,0,0-2.8,0Z" transform="translate(-59.94 22.19)"/><path class="cls-6" d="M1317.24,110.31a2.26,2.26,0,0,1,.72,1.79h-1.2a1.41,1.41,0,0,0-.41-1.09,2,2,0,0,0-2.19-.11.9.9,0,0,0-.37.74.8.8,0,0,0,.18.56,1.18,1.18,0,0,0,.49.31c.22.07.56.16,1,.28a13.08,13.08,0,0,1,1.44.42,2.17,2.17,0,0,1,.88.63,2,2,0,0,1-.39,2.76,4,4,0,0,1-4.25-.08,2.4,2.4,0,0,1-.79-1.9h1.25a1.52,1.52,0,0,0,.45,1.17,1.91,1.91,0,0,0,1.3.41,2,2,0,0,0,1.12-.29.9.9,0,0,0,.42-.77.93.93,0,0,0-.2-.63,1.33,1.33,0,0,0-.57-.36c-.25-.09-.65-.2-1.19-.33a12,12,0,0,1-1.3-.38,1.9,1.9,0,0,1-.78-.58,1.7,1.7,0,0,1-.33-1.12,1.81,1.81,0,0,1,.74-1.49,3,3,0,0,1,1.89-.57A3,3,0,0,1,1317.24,110.31Z" transform="translate(-59.94 22.19)"/><path class="cls-6" d="M1322.86,116v1a3.28,3.28,0,0,1-.78.08,2,2,0,0,1-1.48-.47,2.25,2.25,0,0,1-.45-1.57v-4.15h-1.23v-1h1.23v-1.72h1.23v1.72h1.41v1h-1.41v4a1.41,1.41,0,0,0,.22.88,1,1,0,0,0,.76.27A1.47,1.47,0,0,0,1322.86,116Z" transform="translate(-59.94 22.19)"/><path class="cls-6" d="M1328.93,110.37a2.71,2.71,0,0,1,.74,2.07v2.73a8,8,0,0,0,.17,1.82h-1.12a4.65,4.65,0,0,1-.1-1h0a2.47,2.47,0,0,1-1,.88,3.19,3.19,0,0,1-1.47.31,2.53,2.53,0,0,1-1.75-.58,1.92,1.92,0,0,1-.66-1.51,1.85,1.85,0,0,1,.61-1.46,4.18,4.18,0,0,1,2.09-.78c.69-.11,1.38-.19,2.06-.23v-.28a1.47,1.47,0,0,0-1.61-1.67,1.71,1.71,0,0,0-1.18.38,1.45,1.45,0,0,0-.45,1H1324a2.35,2.35,0,0,1,.8-1.7,3,3,0,0,1,2.06-.66A2.9,2.9,0,0,1,1328.93,110.37Zm-2.31,3.37a2.87,2.87,0,0,0-1.27.42.94.94,0,0,0-.37.81,1.13,1.13,0,0,0,.38.89,1.61,1.61,0,0,0,1.07.33,2.21,2.21,0,0,0,.82-.15,1.72,1.72,0,0,0,.65-.41,1.94,1.94,0,0,0,.45-.69,2.93,2.93,0,0,0,.13-1v-.44A18.13,18.13,0,0,0,1326.62,113.74Z" transform="translate(-59.94 22.19)"/><path class="cls-6" d="M1333,110.85a2.14,2.14,0,0,1,.87-.84,2.86,2.86,0,0,1,2.87.14,2.88,2.88,0,0,1,1,1.3,5.4,5.4,0,0,1,0,3.93,2.92,2.92,0,0,1-1,1.31,2.72,2.72,0,0,1-1.58.46,2.61,2.61,0,0,1-1.3-.32,2.05,2.05,0,0,1-.87-.88h0v1h-1.22V107H1333v3.83Zm.44.57a4,4,0,0,0,0,4,1.65,1.65,0,0,0,1.41.74,1.71,1.71,0,0,0,1.45-.75,3.88,3.88,0,0,0,0-4,1.7,1.7,0,0,0-1.45-.74A1.64,1.64,0,0,0,1333.47,111.42Z" transform="translate(-59.94 22.19)"/><path class="cls-6" d="M1339.83,117V107h1.23v10Z" transform="translate(-59.94 22.19)"/><path class="cls-6" d="M1343.25,108.4V107h1.23v1.38Zm0,8.59v-7.12h1.23V117Z" transform="translate(-59.94 22.19)"/><path class="cls-6" d="M1351,110.31a2.23,2.23,0,0,1,.73,1.79h-1.2a1.38,1.38,0,0,0-.42-1.09,1.66,1.66,0,0,0-1.17-.38,1.7,1.7,0,0,0-1,.27.87.87,0,0,0-.37.74.85.85,0,0,0,.17.56,1.29,1.29,0,0,0,.5.31c.22.07.56.16,1,.28a12.79,12.79,0,0,1,1.43.42,2.11,2.11,0,0,1,.88.63,1.82,1.82,0,0,1,.37,1.21,1.84,1.84,0,0,1-.76,1.55,3.94,3.94,0,0,1-4.24-.08,2.37,2.37,0,0,1-.79-1.9h1.24a1.53,1.53,0,0,0,.46,1.17,1.87,1.87,0,0,0,1.29.41,2,2,0,0,0,1.12-.29.9.9,0,0,0,.42-.77.93.93,0,0,0-.19-.63,1.31,1.31,0,0,0-.58-.36,11.82,11.82,0,0,0-1.19-.33c-.56-.14-1-.27-1.3-.38a1.81,1.81,0,0,1-.77-.58,1.7,1.7,0,0,1-.33-1.12,1.8,1.8,0,0,1,.73-1.49,3.54,3.54,0,0,1,3.94.06Z" transform="translate(-59.94 22.19)"/><path class="cls-6" d="M1354.84,110.77a2.14,2.14,0,0,1,.91-.78,2.74,2.74,0,0,1,1.2-.27,2.46,2.46,0,0,1,1.91.74,3.15,3.15,0,0,1,.67,2.19V117h-1.23v-4.25a2.29,2.29,0,0,0-.42-1.54,1.53,1.53,0,0,0-1.22-.47,1.72,1.72,0,0,0-1.32.57,2.3,2.3,0,0,0-.53,1.61V117h-1.23V107h1.23v3.75Z" transform="translate(-59.94 22.19)"/><path class="cls-6" d="M1361,113.44v-1.09h3.36v1.09Z" transform="translate(-59.94 22.19)"/><path class="cls-6" d="M1202.18,127.25a3.23,3.23,0,0,1,.62,2.14v4.4h-1.23v-4.3a2.4,2.4,0,0,0-.37-1.5,1.31,1.31,0,0,0-1.09-.46,1.45,1.45,0,0,0-1.22.6,2.64,2.64,0,0,0-.46,1.62v4h-1.23v-4.48a2,2,0,0,0-.38-1.31,1.26,1.26,0,0,0-1.06-.47,1.46,1.46,0,0,0-1.24.61,2.84,2.84,0,0,0-.45,1.7v3.95h-1.24v-7.12H1194v.89h0a2.49,2.49,0,0,1,3.28-.7,2.14,2.14,0,0,1,.82,1,2.46,2.46,0,0,1,2.26-1.34A2.2,2.2,0,0,1,1202.18,127.25Z" transform="translate(-59.94 22.19)"/><path class="cls-6" d="M1209,132.65a1.59,1.59,0,0,0,.62-1h1.26a2.83,2.83,0,0,1-1,1.66,3.3,3.3,0,0,1-2.13.66,3.36,3.36,0,0,1-1.79-.47,3,3,0,0,1-1.15-1.35,4.75,4.75,0,0,1-.4-2,4.22,4.22,0,0,1,.4-1.88A3,3,0,0,1,1206,127a3.14,3.14,0,0,1,1.75-.47,3.08,3.08,0,0,1,2,.66,3.17,3.17,0,0,1,1.1,1.82,6.83,6.83,0,0,1,.14,1.52h-5.32a3,3,0,0,0,.62,1.91,1.92,1.92,0,0,0,1.49.64A2,2,0,0,0,1209,132.65Zm-2.71-4.67a2.49,2.49,0,0,0-.65,1.56h4.09a2.44,2.44,0,0,0-.64-1.56,2.06,2.06,0,0,0-2.8,0Z" transform="translate(-59.94 22.19)"/><path class="cls-6" d="M1217.89,127.26a3.16,3.16,0,0,1,.68,2.19v4.34h-1.24v-4.25a2.29,2.29,0,0,0-.42-1.54,1.51,1.51,0,0,0-1.21-.47,1.72,1.72,0,0,0-1.33.57,2.29,2.29,0,0,0-.52,1.61v4.08h-1.23v-7.12h1.19v.94h0a2.58,2.58,0,0,1,.9-.8,2.72,2.72,0,0,1,1.26-.29A2.43,2.43,0,0,1,1217.89,127.26Z" transform="translate(-59.94 22.19)"/><path class="cls-6" d="M1223.55,132.75v1a3.4,3.4,0,0,1-.78.08,2,2,0,0,1-1.48-.47,2.25,2.25,0,0,1-.46-1.57v-4.15h-1.23v-1h1.23V125h1.24v1.72h1.41v1h-1.41v4a1.35,1.35,0,0,0,.22.88.94.94,0,0,0,.76.27A1.51,1.51,0,0,0,1223.55,132.75Z" transform="translate(-59.94 22.19)"/><path class="cls-6" d="M1013,74.57v3.15h4.84v1.13H1013v3.39h5.29v1.15h-6.58v-10h6.43v1.15Z" transform="translate(-59.94 22.19)"/><path class="cls-6" d="M1024.27,76.71a2.26,2.26,0,0,1,.73,1.79h-1.21a1.38,1.38,0,0,0-.41-1.09,1.68,1.68,0,0,0-1.17-.38,1.66,1.66,0,0,0-1,.27.87.87,0,0,0-.37.74.8.8,0,0,0,.17.56,1.22,1.22,0,0,0,.5.31c.21.07.56.16,1,.28a12.44,12.44,0,0,1,1.44.42,2.17,2.17,0,0,1,.88.63,1.82,1.82,0,0,1,.37,1.21,1.84,1.84,0,0,1-.76,1.55,3.94,3.94,0,0,1-4.24-.08,2.34,2.34,0,0,1-.79-1.9h1.24a1.49,1.49,0,0,0,.46,1.17,1.87,1.87,0,0,0,1.29.41,2,2,0,0,0,1.12-.29.9.9,0,0,0,.42-.77.93.93,0,0,0-.19-.63,1.44,1.44,0,0,0-.58-.36c-.25-.09-.65-.2-1.19-.33a12.74,12.74,0,0,1-1.3-.38,1.9,1.9,0,0,1-.78-.58,1.7,1.7,0,0,1-.33-1.12,1.81,1.81,0,0,1,.74-1.49,3,3,0,0,1,1.9-.57A3,3,0,0,1,1024.27,76.71Z" transform="translate(-59.94 22.19)"/><path class="cls-6" d="M1029.9,82.35v1a3.43,3.43,0,0,1-.79.08,2,2,0,0,1-1.47-.47,2.2,2.2,0,0,1-.46-1.57V77.25H1026v-1h1.23V74.55h1.23v1.72h1.42v1h-1.42v4a1.35,1.35,0,0,0,.23.88.93.93,0,0,0,.75.27A1.53,1.53,0,0,0,1029.9,82.35Z" transform="translate(-59.94 22.19)"/><path class="cls-6" d="M1031.37,74.8V73.42h1.23V74.8Zm0,8.59V76.27h1.23v7.12Z" transform="translate(-59.94 22.19)"/><path class="cls-6" d="M1044.13,76.85a3.23,3.23,0,0,1,.62,2.14v4.4h-1.23v-4.3a2.4,2.4,0,0,0-.37-1.5,1.31,1.31,0,0,0-1.09-.46,1.45,1.45,0,0,0-1.22.6,2.64,2.64,0,0,0-.46,1.62v4h-1.23V78.91a2,2,0,0,0-.38-1.31,1.26,1.26,0,0,0-1.06-.47,1.46,1.46,0,0,0-1.24.61,2.84,2.84,0,0,0-.45,1.7v4h-1.24V76.27H1036v.89h0a2.49,2.49,0,0,1,3.28-.7,2.14,2.14,0,0,1,.82,1,2.46,2.46,0,0,1,2.26-1.34A2.2,2.2,0,0,1,1044.13,76.85Z" transform="translate(-59.94 22.19)"/><path class="cls-6" d="M1051.46,76.77a2.67,2.67,0,0,1,.74,2.07v2.73a8.6,8.6,0,0,0,.17,1.82h-1.12a4.65,4.65,0,0,1-.1-1h0a2.47,2.47,0,0,1-1,.88,3.19,3.19,0,0,1-1.47.31,2.53,2.53,0,0,1-1.75-.58,1.92,1.92,0,0,1-.66-1.51,1.85,1.85,0,0,1,.61-1.46,4.18,4.18,0,0,1,2.09-.78c.69-.11,1.38-.19,2.06-.23V78.7A1.47,1.47,0,0,0,1049.4,77a1.72,1.72,0,0,0-1.18.38,1.38,1.38,0,0,0-.44,1h-1.24a2.35,2.35,0,0,1,.8-1.7,3,3,0,0,1,2.06-.66A2.88,2.88,0,0,1,1051.46,76.77Zm-2.31,3.37a2.87,2.87,0,0,0-1.27.42.94.94,0,0,0-.37.81,1.13,1.13,0,0,0,.38.89,1.61,1.61,0,0,0,1.07.33,2.31,2.31,0,0,0,.83-.15,1.89,1.89,0,0,0,.65-.41,2,2,0,0,0,.44-.69,2.93,2.93,0,0,0,.13-1v-.44A18.13,18.13,0,0,0,1049.15,80.14Z" transform="translate(-59.94 22.19)"/><path class="cls-6" d="M1057.17,82.35v1a3.43,3.43,0,0,1-.79.08,2,2,0,0,1-1.47-.47,2.25,2.25,0,0,1-.46-1.57V77.25h-1.23v-1h1.23V74.55h1.24v1.72h1.41v1h-1.41v4a1.35,1.35,0,0,0,.22.88.94.94,0,0,0,.76.27A1.51,1.51,0,0,0,1057.17,82.35Z" transform="translate(-59.94 22.19)"/><path class="cls-6" d="M1062.5,82.25a1.59,1.59,0,0,0,.62-1h1.26a2.83,2.83,0,0,1-1,1.66,3.3,3.3,0,0,1-2.13.66,3.36,3.36,0,0,1-1.79-.47,3,3,0,0,1-1.15-1.35,4.75,4.75,0,0,1-.4-2,4.22,4.22,0,0,1,.4-1.88,3,3,0,0,1,1.15-1.3,3.14,3.14,0,0,1,1.75-.47,3.1,3.1,0,0,1,2,.66,3.17,3.17,0,0,1,1.1,1.82,6.83,6.83,0,0,1,.14,1.52h-5.32a3,3,0,0,0,.62,1.91,1.92,1.92,0,0,0,1.49.64A2,2,0,0,0,1062.5,82.25Zm-2.71-4.67a2.49,2.49,0,0,0-.65,1.56h4.09a2.44,2.44,0,0,0-.64-1.56,2.06,2.06,0,0,0-2.8,0Z" transform="translate(-59.94 22.19)"/><path class="cls-6" d="M1070.93,83.39v-1h0a2.05,2.05,0,0,1-.87.88,2.62,2.62,0,0,1-1.31.32,2.74,2.74,0,0,1-1.58-.46,2.92,2.92,0,0,1-1-1.31,5.54,5.54,0,0,1,0-3.93,2.84,2.84,0,0,1,1-1.3,2.84,2.84,0,0,1,2.86-.14,2.16,2.16,0,0,1,.88.84h0V73.42h1.23v10Zm-3.36-5.56a3.94,3.94,0,0,0,0,4,1.72,1.72,0,0,0,1.46.75,1.65,1.65,0,0,0,1.41-.74,4,4,0,0,0,0-4,1.64,1.64,0,0,0-1.41-.73A1.71,1.71,0,0,0,1067.57,77.83Z" transform="translate(-59.94 22.19)"/><path class="cls-6" d="M1081.87,76.42a2.83,2.83,0,0,1,1.07,1,3,3,0,0,1,.46,1.41h-1.28a1.91,1.91,0,0,0-.56-1.23,1.63,1.63,0,0,0-1.21-.47,1.74,1.74,0,0,0-1.48.73,3.26,3.26,0,0,0-.55,2,3.33,3.33,0,0,0,.54,2,1.75,1.75,0,0,0,1.49.73,1.59,1.59,0,0,0,1.21-.51,2.07,2.07,0,0,0,.56-1.29h1.28a3.22,3.22,0,0,1-.46,1.45,2.8,2.8,0,0,1-1,1,3.16,3.16,0,0,1-1.52.36,3.41,3.41,0,0,1-1.78-.45,3,3,0,0,1-1.16-1.31,5,5,0,0,1,0-4,3,3,0,0,1,1.16-1.31,3.41,3.41,0,0,1,1.78-.45A3.19,3.19,0,0,1,1081.87,76.42Z" transform="translate(-59.94 22.19)"/><path class="cls-6" d="M1090.43,77.09a4.58,4.58,0,0,1,0,5.48,3.54,3.54,0,0,1-5,0,4.62,4.62,0,0,1,0-5.48,3.54,3.54,0,0,1,5,0Zm-4,.73a3.89,3.89,0,0,0,0,4,2,2,0,0,0,3.06,0,3.89,3.89,0,0,0,0-4,2,2,0,0,0-3.06,0Z" transform="translate(-59.94 22.19)"/><path class="cls-6" d="M1097.39,76.71a2.23,2.23,0,0,1,.73,1.79h-1.21a1.38,1.38,0,0,0-.41-1.09,2,2,0,0,0-2.18-.11.87.87,0,0,0-.37.74.8.8,0,0,0,.17.56,1.22,1.22,0,0,0,.5.31c.21.07.56.16,1,.28a12.44,12.44,0,0,1,1.44.42,2.17,2.17,0,0,1,.88.63,1.82,1.82,0,0,1,.37,1.21,1.84,1.84,0,0,1-.76,1.55,3.94,3.94,0,0,1-4.24-.08,2.37,2.37,0,0,1-.79-1.9h1.24a1.49,1.49,0,0,0,.46,1.17,1.87,1.87,0,0,0,1.29.41,2,2,0,0,0,1.12-.29.9.9,0,0,0,.42-.77.93.93,0,0,0-.19-.63,1.37,1.37,0,0,0-.58-.36c-.25-.09-.65-.2-1.19-.33a12.74,12.74,0,0,1-1.3-.38,1.9,1.9,0,0,1-.78-.58,1.7,1.7,0,0,1-.33-1.12,1.81,1.81,0,0,1,.74-1.49,3.54,3.54,0,0,1,3.94.06Z" transform="translate(-59.94 22.19)"/><path class="cls-6" d="M1103,82.35v1a3.43,3.43,0,0,1-.79.08,2,2,0,0,1-1.47-.47,2.2,2.2,0,0,1-.46-1.57V77.25h-1.23v-1h1.23V74.55h1.24v1.72H1103v1h-1.41v4a1.35,1.35,0,0,0,.22.88.93.93,0,0,0,.75.27A1.53,1.53,0,0,0,1103,82.35Z" transform="translate(-59.94 22.19)"/><path class="cls-6" d="M1104.49,77.91V76.27H1106v1.64Zm0,5.48V81.75H1106v1.64Z" transform="translate(-59.94 22.19)"/><path class="cls-6" d="M1012.83,108.64l-.28,2.93h0a2,2,0,0,1,.83-.58,2.72,2.72,0,0,1,1.07-.21,3.25,3.25,0,0,1,1.61.39,2.71,2.71,0,0,1,1.07,1.08,3.45,3.45,0,0,1,.38,1.64,3.61,3.61,0,0,1-.41,1.74,2.85,2.85,0,0,1-1.16,1.15,3.6,3.6,0,0,1-1.74.4,3.24,3.24,0,0,1-2.23-.73,2.46,2.46,0,0,1-.83-2h1.31a1.51,1.51,0,0,0,.5,1.16,1.84,1.84,0,0,0,1.25.42,1.89,1.89,0,0,0,1.44-.56,2.19,2.19,0,0,0,.54-1.57,2.1,2.1,0,0,0-.52-1.51,1.82,1.82,0,0,0-1.39-.54,1.88,1.88,0,0,0-1.16.34,1.71,1.71,0,0,0-.63,1l-1.27-.09.51-5.57h5.35v1.09Z" transform="translate(-59.94 22.19)"/><path class="cls-6" d="M1023.85,110.85a2.14,2.14,0,0,1,.87-.84,2.86,2.86,0,0,1,2.87.14,2.82,2.82,0,0,1,1,1.3,5.4,5.4,0,0,1,0,3.93,2.92,2.92,0,0,1-1,1.31,2.72,2.72,0,0,1-1.58.46,2.64,2.64,0,0,1-1.3-.32,2.05,2.05,0,0,1-.87-.88h0v1h-1.22V107h1.23v3.83Zm.44.57a4.11,4.11,0,0,0,0,4,1.65,1.65,0,0,0,1.41.74,1.71,1.71,0,0,0,1.45-.75,3.88,3.88,0,0,0,0-4,1.7,1.7,0,0,0-1.45-.74A1.64,1.64,0,0,0,1024.29,111.42Z" transform="translate(-59.94 22.19)"/><path class="cls-6" d="M1030.65,108.4V107h1.23v1.38Zm0,8.59v-7.12h1.23V117Z" transform="translate(-59.94 22.19)"/><path class="cls-6" d="M1034.07,117V107h1.23v10Z" transform="translate(-59.94 22.19)"/><path class="cls-6" d="M1037.48,117V107h1.24v10Z" transform="translate(-59.94 22.19)"/><path class="cls-6" d="M1040.9,108.4V107h1.23v1.38Zm0,8.59v-7.12h1.23V117Z" transform="translate(-59.94 22.19)"/><path class="cls-6" d="M1049.65,110.69a4.58,4.58,0,0,1,0,5.48,3.54,3.54,0,0,1-5,0,4.62,4.62,0,0,1,0-5.48,3.54,3.54,0,0,1,5,0Zm-4,.73a3.89,3.89,0,0,0,0,4,2,2,0,0,0,3.06,0,3.89,3.89,0,0,0,0-4,2,2,0,0,0-3.06,0Z" transform="translate(-59.94 22.19)"/><path class="cls-6" d="M1057.5,110.46a3.16,3.16,0,0,1,.68,2.19V117H1057v-4.25a2.34,2.34,0,0,0-.42-1.54,1.55,1.55,0,0,0-1.22-.47,1.74,1.74,0,0,0-1.33.57,2.29,2.29,0,0,0-.52,1.61V117h-1.23v-7.12h1.19v.94h0a2.46,2.46,0,0,1,.89-.8,2.72,2.72,0,0,1,1.26-.29A2.43,2.43,0,0,1,1057.5,110.46Z" transform="translate(-59.94 22.19)"/><path class="cls-6" d="M1067.92,117l-3.15-3.56h0V117h-1.23V107h1.23v5.81h0l2.87-3h1.53l-3.2,3.22,3.57,3.9Z" transform="translate(-59.94 22.19)"/><path class="cls-6" d="M1074.19,109.86V111l-.49,0a1.93,1.93,0,0,0-1.55.63,2.67,2.67,0,0,0-.55,1.81V117h-1.23v-7.12h1.18V111h0a2.3,2.3,0,0,1,2.1-1.17A1.9,1.9,0,0,1,1074.19,109.86Z" transform="translate(-59.94 22.19)"/><path class="cls-6" d="M470.09,74.1a2.23,2.23,0,0,1,.85,1.85,2.45,2.45,0,0,1-.42,1.44,2.56,2.56,0,0,1-1.23.89v0a2.44,2.44,0,0,1,1.38.82,2.35,2.35,0,0,1,.49,1.52,2.46,2.46,0,0,1-.88,2,3.65,3.65,0,0,1-2.44.75h-3.51v-10h3.25A3.89,3.89,0,0,1,470.09,74.1Zm-4.47,3.67h1.86c1.46,0,2.18-.54,2.18-1.64a1.45,1.45,0,0,0-.51-1.21,2.59,2.59,0,0,0-1.61-.41h-1.92Zm0,4.52h2c1.45,0,2.17-.57,2.17-1.72s-.78-1.72-2.35-1.72h-1.86Z" transform="translate(-59.94 22.19)"/><path class="cls-6" d="M478.2,77.09a4.58,4.58,0,0,1,0,5.48,3.54,3.54,0,0,1-4.95,0,4.62,4.62,0,0,1,0-5.48,3.54,3.54,0,0,1,4.95,0Zm-4,.73a3.89,3.89,0,0,0,0,4,1.81,1.81,0,0,0,1.53.73,1.84,1.84,0,0,0,1.54-.73,3.89,3.89,0,0,0,0-4,1.84,1.84,0,0,0-1.54-.73A1.81,1.81,0,0,0,474.2,77.82Z" transform="translate(-59.94 22.19)"/><path class="cls-6" d="M485.6,83.39v-1h0a2.13,2.13,0,0,1-.88.88,2.57,2.57,0,0,1-1.31.32,2.71,2.71,0,0,1-1.57-.46,2.92,2.92,0,0,1-1-1.31,5.4,5.4,0,0,1,0-3.93,2.82,2.82,0,0,1,1-1.3,2.69,2.69,0,0,1,1.57-.46,2.62,2.62,0,0,1,1.29.32,2.16,2.16,0,0,1,.88.84h0V73.42h1.23v10Zm-3.36-5.56a3.88,3.88,0,0,0,0,4,1.75,1.75,0,0,0,2.87,0,4,4,0,0,0,0-4,1.77,1.77,0,0,0-2.87,0Z" transform="translate(-59.94 22.19)"/><path class="cls-6" d="M495,78.32a4.83,4.83,0,0,1,.22,1.51,4,4,0,0,1-.91,2.74,3.16,3.16,0,0,1-2.48,1,3.37,3.37,0,0,1-1.93-.53l-.72.92-.6-.46.74-1a4.64,4.64,0,0,1,0-5.44,3.11,3.11,0,0,1,2.47-1,3.46,3.46,0,0,1,2,.54l.72-1,.61.49-.75,1A3.28,3.28,0,0,1,495,78.32Zm-4.72-.52a3.18,3.18,0,0,0-.58,2,3.55,3.55,0,0,0,.37,1.71l3.05-4a1.91,1.91,0,0,0-1.29-.45A1.87,1.87,0,0,0,490.29,77.8Zm3.12,4.06a3.24,3.24,0,0,0,.57-2,3.54,3.54,0,0,0-.38-1.71l-3,4a2.06,2.06,0,0,0,2.84-.31Z" transform="translate(-59.94 22.19)"/><path class="cls-6" d="M504.73,76.77a2.71,2.71,0,0,1,.73,2.07v2.73a8.6,8.6,0,0,0,.17,1.82h-1.12a4.65,4.65,0,0,1-.1-1h0a2.47,2.47,0,0,1-1,.88,3.19,3.19,0,0,1-1.47.31,2.53,2.53,0,0,1-1.75-.58,1.92,1.92,0,0,1-.66-1.51,1.85,1.85,0,0,1,.61-1.46,4.22,4.22,0,0,1,2.09-.78c.69-.11,1.38-.19,2.06-.23V78.7a1.64,1.64,0,0,0-.43-1.26,1.63,1.63,0,0,0-1.18-.41,1.7,1.7,0,0,0-1.17.38,1.43,1.43,0,0,0-.45,1h-1.23a2.3,2.3,0,0,1,.79-1.7,3,3,0,0,1,2.06-.66A2.91,2.91,0,0,1,504.73,76.77Zm-2.32,3.37a2.87,2.87,0,0,0-1.27.42.94.94,0,0,0-.37.81,1.11,1.11,0,0,0,.39.89,1.57,1.57,0,0,0,1.07.33,2.25,2.25,0,0,0,.82-.15,1.89,1.89,0,0,0,.65-.41,2.26,2.26,0,0,0,.45-.69,3.25,3.25,0,0,0,.12-1v-.44A18.13,18.13,0,0,0,502.41,80.14Z" transform="translate(-59.94 22.19)"/><path class="cls-6" d="M507.56,74.8V73.42h1.23V74.8Zm0,8.59V76.27h1.23v7.12Z" transform="translate(-59.94 22.19)"/><path class="cls-6" d="M514.8,76.26v1.11l-.49-.05a1.93,1.93,0,0,0-1.55.63,2.67,2.67,0,0,0-.55,1.81v3.63H511V76.27h1.17v1.1h0a2.3,2.3,0,0,1,2.1-1.17A1.9,1.9,0,0,1,514.8,76.26Z" transform="translate(-59.94 22.19)"/><path class="cls-6" d="M521,76.55a2.84,2.84,0,0,1,1,1.3,5.54,5.54,0,0,1,0,3.93,2.92,2.92,0,0,1-1,1.31,2.66,2.66,0,0,1-1.56.46,2.69,2.69,0,0,1-1.3-.31,2.06,2.06,0,0,1-.87-.86h0V86H516V76.27h1.22v1h0a2.07,2.07,0,0,1,.87-.89,2.88,2.88,0,0,1,2.88.14Zm-3.29,1.27a4,4,0,0,0,0,4,1.63,1.63,0,0,0,1.4.74,1.71,1.71,0,0,0,1.46-.75,3.88,3.88,0,0,0,0-4,1.7,1.7,0,0,0-1.46-.74A1.63,1.63,0,0,0,517.75,77.82Z" transform="translate(-59.94 22.19)"/><path class="cls-6" d="M529.58,77.09a4.58,4.58,0,0,1,0,5.48,3.54,3.54,0,0,1-5,0,4.62,4.62,0,0,1,0-5.48,3.54,3.54,0,0,1,5,0Zm-4,.73a3.89,3.89,0,0,0,0,4,2,2,0,0,0,3.06,0,3.89,3.89,0,0,0,0-4,2,2,0,0,0-3.06,0Z" transform="translate(-59.94 22.19)"/><path class="cls-6" d="M536,76.26v1.11l-.49-.05a1.93,1.93,0,0,0-1.55.63,2.67,2.67,0,0,0-.55,1.81v3.63h-1.23V76.27h1.17v1.1h0a2.3,2.3,0,0,1,2.1-1.17A1.9,1.9,0,0,1,536,76.26Z" transform="translate(-59.94 22.19)"/><path class="cls-6" d="M540.4,82.35v1a3.28,3.28,0,0,1-.78.08,2,2,0,0,1-1.48-.47,2.25,2.25,0,0,1-.45-1.57V77.25h-1.23v-1h1.23V74.55h1.23v1.72h1.41v1h-1.41v4a1.35,1.35,0,0,0,.22.88,1,1,0,0,0,.76.27A1.47,1.47,0,0,0,540.4,82.35Z" transform="translate(-59.94 22.19)"/><path class="cls-6" d="M545.09,74.8V73.42h1.24V74.8Zm0,8.59V76.27h1.24v7.12Z" transform="translate(-59.94 22.19)"/><path class="cls-6" d="M552.81,76.71a2.26,2.26,0,0,1,.73,1.79h-1.21a1.41,1.41,0,0,0-.41-1.09,2,2,0,0,0-2.19-.11.9.9,0,0,0-.37.74.8.8,0,0,0,.18.56,1.22,1.22,0,0,0,.5.31c.21.07.56.16,1,.28a12.44,12.44,0,0,1,1.44.42,2.17,2.17,0,0,1,.88.63,1.82,1.82,0,0,1,.37,1.21A1.84,1.84,0,0,1,553,83a4,4,0,0,1-4.25-.08A2.4,2.4,0,0,1,548,81h1.25a1.49,1.49,0,0,0,.46,1.17,1.87,1.87,0,0,0,1.29.41,2,2,0,0,0,1.12-.29.9.9,0,0,0,.42-.77.93.93,0,0,0-.2-.63,1.33,1.33,0,0,0-.57-.36c-.25-.09-.65-.2-1.19-.33a12.74,12.74,0,0,1-1.3-.38,1.9,1.9,0,0,1-.78-.58,1.7,1.7,0,0,1-.33-1.12,1.81,1.81,0,0,1,.74-1.49,3,3,0,0,1,1.89-.57A3,3,0,0,1,552.81,76.71Z" transform="translate(-59.94 22.19)"/><path class="cls-6" d="M561.66,82.35v1a3.43,3.43,0,0,1-.79.08,2,2,0,0,1-1.48-.47,2.25,2.25,0,0,1-.45-1.57V77.25h-1.23v-1h1.23V74.55h1.23v1.72h1.42v1h-1.42v4a1.35,1.35,0,0,0,.23.88.91.91,0,0,0,.75.27A1.53,1.53,0,0,0,561.66,82.35Z" transform="translate(-59.94 22.19)"/><path class="cls-6" d="M564.39,77.17a2.09,2.09,0,0,1,.91-.78,2.71,2.71,0,0,1,1.2-.27,2.43,2.43,0,0,1,1.9.74,3.16,3.16,0,0,1,.68,2.19v4.34h-1.24V79.14a2.29,2.29,0,0,0-.42-1.54,1.51,1.51,0,0,0-1.21-.47,1.72,1.72,0,0,0-1.33.57,2.29,2.29,0,0,0-.52,1.61v4.08h-1.23v-10h1.23v3.75Z" transform="translate(-59.94 22.19)"/><path class="cls-6" d="M575.27,82.25a1.59,1.59,0,0,0,.62-1h1.26a2.83,2.83,0,0,1-1,1.66,3.28,3.28,0,0,1-2.12.66,3.34,3.34,0,0,1-1.79-.47,3.07,3.07,0,0,1-1.16-1.35,4.75,4.75,0,0,1-.4-2,4.22,4.22,0,0,1,.4-1.88,3,3,0,0,1,1.15-1.3,3.17,3.17,0,0,1,1.76-.47,3.07,3.07,0,0,1,2,.66,3.12,3.12,0,0,1,1.1,1.82,6.28,6.28,0,0,1,.14,1.52H571.9a2.93,2.93,0,0,0,.63,1.91,1.89,1.89,0,0,0,1.49.64A2,2,0,0,0,575.27,82.25Zm-2.71-4.67a2.48,2.48,0,0,0-.64,1.56H576a2.44,2.44,0,0,0-.65-1.56A1.84,1.84,0,0,0,574,77,1.91,1.91,0,0,0,572.56,77.58Z" transform="translate(-59.94 22.19)"/><path class="cls-6" d="M586.44,76.42a2.76,2.76,0,0,1,1.07,1,3.15,3.15,0,0,1,.47,1.41h-1.29a1.91,1.91,0,0,0-.56-1.23,1.63,1.63,0,0,0-1.21-.47,1.74,1.74,0,0,0-1.48.73,4,4,0,0,0,0,4,1.75,1.75,0,0,0,1.49.73,1.59,1.59,0,0,0,1.21-.51,2.07,2.07,0,0,0,.56-1.29H588a3.36,3.36,0,0,1-.47,1.45,2.8,2.8,0,0,1-1,1,3.16,3.16,0,0,1-1.52.36,3.41,3.41,0,0,1-1.78-.45A3,3,0,0,1,582,81.82a5,5,0,0,1,0-4,3,3,0,0,1,1.16-1.31,3.41,3.41,0,0,1,1.78-.45A3.19,3.19,0,0,1,586.44,76.42Z" transform="translate(-59.94 22.19)"/><path class="cls-6" d="M589.58,83.39v-10h1.24v10Z" transform="translate(-59.94 22.19)"/><path class="cls-6" d="M598.33,77.09a4.54,4.54,0,0,1,0,5.48,3.53,3.53,0,0,1-4.94,0,4.58,4.58,0,0,1,0-5.48,3.53,3.53,0,0,1,4.94,0Zm-4,.73a3.89,3.89,0,0,0,0,4,1.81,1.81,0,0,0,1.53.73,1.84,1.84,0,0,0,1.54-.73,3.89,3.89,0,0,0,0-4,1.84,1.84,0,0,0-1.54-.73A1.81,1.81,0,0,0,594.33,77.82Z" transform="translate(-59.94 22.19)"/><path class="cls-6" d="M605.29,76.71A2.23,2.23,0,0,1,606,78.5h-1.2a1.38,1.38,0,0,0-.42-1.09,1.66,1.66,0,0,0-1.17-.38,1.7,1.7,0,0,0-1,.27.87.87,0,0,0-.37.74.85.85,0,0,0,.17.56,1.29,1.29,0,0,0,.5.31c.22.07.56.16,1,.28a12.79,12.79,0,0,1,1.43.42,2.11,2.11,0,0,1,.88.63,1.82,1.82,0,0,1,.37,1.21,1.84,1.84,0,0,1-.76,1.55,3.94,3.94,0,0,1-4.24-.08,2.37,2.37,0,0,1-.79-1.9h1.24a1.53,1.53,0,0,0,.46,1.17,1.87,1.87,0,0,0,1.29.41,2,2,0,0,0,1.12-.29.9.9,0,0,0,.42-.77.93.93,0,0,0-.19-.63,1.31,1.31,0,0,0-.58-.36,11.82,11.82,0,0,0-1.19-.33c-.56-.14-1-.27-1.3-.38a1.88,1.88,0,0,1-.77-.58,1.7,1.7,0,0,1-.33-1.12,1.8,1.8,0,0,1,.73-1.49,3.54,3.54,0,0,1,3.94.06Z" transform="translate(-59.94 22.19)"/><path class="cls-6" d="M612.08,82.25a1.63,1.63,0,0,0,.62-1H614a2.79,2.79,0,0,1-1,1.66,3.26,3.26,0,0,1-2.12.66,3.34,3.34,0,0,1-1.79-.47,3,3,0,0,1-1.15-1.35,4.75,4.75,0,0,1-.4-2,4.22,4.22,0,0,1,.4-1.88,3,3,0,0,1,1.14-1.3,3.2,3.2,0,0,1,1.76-.47,3.12,3.12,0,0,1,2,.66,3.17,3.17,0,0,1,1.1,1.82,6.83,6.83,0,0,1,.14,1.52h-5.32a2.92,2.92,0,0,0,.62,1.91,1.92,1.92,0,0,0,1.49.64A2.05,2.05,0,0,0,612.08,82.25Zm-2.71-4.67a2.49,2.49,0,0,0-.65,1.56h4.09a2.44,2.44,0,0,0-.64-1.56,2.06,2.06,0,0,0-2.8,0Z" transform="translate(-59.94 22.19)"/><path class="cls-6" d="M620.08,76.71a2.26,2.26,0,0,1,.72,1.79h-1.2a1.41,1.41,0,0,0-.41-1.09A2,2,0,0,0,617,77.3a.9.9,0,0,0-.37.74.8.8,0,0,0,.18.56,1.18,1.18,0,0,0,.49.31c.22.07.56.16,1,.28a13.08,13.08,0,0,1,1.44.42,2.17,2.17,0,0,1,.88.63,2,2,0,0,1-.39,2.76,4,4,0,0,1-4.25-.08,2.4,2.4,0,0,1-.79-1.9h1.25a1.52,1.52,0,0,0,.45,1.17,1.91,1.91,0,0,0,1.3.41,2,2,0,0,0,1.12-.29.9.9,0,0,0,.42-.77.93.93,0,0,0-.2-.63,1.33,1.33,0,0,0-.57-.36c-.25-.09-.65-.2-1.19-.33a12.74,12.74,0,0,1-1.3-.38,1.9,1.9,0,0,1-.78-.58,1.7,1.7,0,0,1-.33-1.12,1.81,1.81,0,0,1,.74-1.49,3,3,0,0,1,1.89-.57A3,3,0,0,1,620.08,76.71Z" transform="translate(-59.94 22.19)"/><path class="cls-6" d="M625.7,82.35v1a3.28,3.28,0,0,1-.78.08,2,2,0,0,1-1.48-.47A2.25,2.25,0,0,1,623,81.4V77.25h-1.23v-1H623V74.55h1.23v1.72h1.41v1h-1.41v4a1.35,1.35,0,0,0,.22.88,1,1,0,0,0,.76.27A1.47,1.47,0,0,0,625.7,82.35Z" transform="translate(-59.94 22.19)"/><path class="cls-6" d="M635,76.77a2.71,2.71,0,0,1,.74,2.07v2.73a8,8,0,0,0,.17,1.82h-1.12a4.65,4.65,0,0,1-.1-1h0a2.47,2.47,0,0,1-1,.88,3.19,3.19,0,0,1-1.47.31,2.53,2.53,0,0,1-1.75-.58,1.92,1.92,0,0,1-.66-1.51,1.85,1.85,0,0,1,.61-1.46,4.18,4.18,0,0,1,2.09-.78c.69-.11,1.38-.19,2.06-.23V78.7A1.47,1.47,0,0,0,632.93,77a1.71,1.71,0,0,0-1.18.38,1.43,1.43,0,0,0-.45,1h-1.23a2.35,2.35,0,0,1,.8-1.7,3,3,0,0,1,2.06-.66A2.9,2.9,0,0,1,635,76.77Zm-2.31,3.37a2.87,2.87,0,0,0-1.27.42.94.94,0,0,0-.37.81,1.13,1.13,0,0,0,.38.89,1.61,1.61,0,0,0,1.07.33,2.21,2.21,0,0,0,.82-.15A1.72,1.72,0,0,0,634,82a1.94,1.94,0,0,0,.45-.69,2.93,2.93,0,0,0,.13-1v-.44A18.13,18.13,0,0,0,632.68,80.14Z" transform="translate(-59.94 22.19)"/><path class="cls-6" d="M637.83,74.8V73.42h1.23V74.8Zm0,8.59V76.27h1.23v7.12Z" transform="translate(-59.94 22.19)"/><path class="cls-6" d="M645.07,76.26v1.11l-.49-.05A2,2,0,0,0,643,78a2.72,2.72,0,0,0-.54,1.81v3.63h-1.24V76.27h1.18v1.1h0a2.29,2.29,0,0,1,2.1-1.17A2,2,0,0,1,645.07,76.26Z" transform="translate(-59.94 22.19)"/><path class="cls-6" d="M651.3,76.55a2.85,2.85,0,0,1,1.05,1.3,5.54,5.54,0,0,1,0,3.93,3,3,0,0,1-1,1.31,2.69,2.69,0,0,1-1.57.46,2.65,2.65,0,0,1-1.29-.31,2.15,2.15,0,0,1-.88-.86h0V86h-1.23V76.27h1.22v1h0a2,2,0,0,1,.87-.89,2.86,2.86,0,0,1,2.87.14ZM648,77.82a4.11,4.11,0,0,0,0,4,1.65,1.65,0,0,0,1.41.74,1.72,1.72,0,0,0,1.46-.75,3.94,3.94,0,0,0,0-4,1.71,1.71,0,0,0-1.46-.74A1.64,1.64,0,0,0,648,77.82Z" transform="translate(-59.94 22.19)"/><path class="cls-6" d="M659.85,77.09a4.58,4.58,0,0,1,0,5.48,3.54,3.54,0,0,1-5,0,4.62,4.62,0,0,1,0-5.48,3.54,3.54,0,0,1,5,0Zm-4,.73a3.89,3.89,0,0,0,0,4,1.8,1.8,0,0,0,1.52.73,1.83,1.83,0,0,0,1.54-.73,3.89,3.89,0,0,0,0-4,1.83,1.83,0,0,0-1.54-.73A1.8,1.8,0,0,0,655.85,77.82Z" transform="translate(-59.94 22.19)"/><path class="cls-6" d="M666.25,76.26v1.11l-.49-.05a2,2,0,0,0-1.56.63,2.72,2.72,0,0,0-.54,1.81v3.63h-1.23V76.27h1.17v1.1h0a2.3,2.3,0,0,1,2.1-1.17A2,2,0,0,1,666.25,76.26Z" transform="translate(-59.94 22.19)"/><path class="cls-6" d="M670.67,82.35v1a3.34,3.34,0,0,1-.78.08,2,2,0,0,1-1.48-.47A2.25,2.25,0,0,1,668,81.4V77.25h-1.24v-1H668V74.55h1.23v1.72h1.41v1h-1.41v4a1.35,1.35,0,0,0,.22.88.94.94,0,0,0,.76.27A1.51,1.51,0,0,0,670.67,82.35Z" transform="translate(-59.94 22.19)"/><path class="cls-6" d="M678.37,82.35v1a3.34,3.34,0,0,1-.78.08,2,2,0,0,1-1.48-.47,2.25,2.25,0,0,1-.45-1.57V77.25h-1.24v-1h1.24V74.55h1.23v1.72h1.41v1h-1.41v4a1.35,1.35,0,0,0,.22.88.94.94,0,0,0,.76.27A1.51,1.51,0,0,0,678.37,82.35Z" transform="translate(-59.94 22.19)"/><path class="cls-6" d="M685,77.09a4.58,4.58,0,0,1,0,5.48,3.54,3.54,0,0,1-5,0,4.62,4.62,0,0,1,0-5.48,3.54,3.54,0,0,1,5,0Zm-4,.73a3.89,3.89,0,0,0,0,4,2,2,0,0,0,3.06,0,3.89,3.89,0,0,0,0-4,2,2,0,0,0-3.06,0Z" transform="translate(-59.94 22.19)"/><path class="cls-6" d="M470.09,90.9a2.23,2.23,0,0,1,.85,1.85,2.45,2.45,0,0,1-.42,1.44,2.56,2.56,0,0,1-1.23.89v0a2.44,2.44,0,0,1,1.38.82,2.35,2.35,0,0,1,.49,1.52,2.46,2.46,0,0,1-.88,2,3.65,3.65,0,0,1-2.44.75h-3.51v-10h3.25A3.89,3.89,0,0,1,470.09,90.9Zm-4.47,3.67h1.86c1.46,0,2.18-.54,2.18-1.64a1.45,1.45,0,0,0-.51-1.21,2.59,2.59,0,0,0-1.61-.41h-1.92Zm0,4.52h2c1.45,0,2.17-.57,2.17-1.72s-.78-1.72-2.35-1.72h-1.86Z" transform="translate(-59.94 22.19)"/><path class="cls-6" d="M478.2,93.89a4.58,4.58,0,0,1,0,5.48,3.54,3.54,0,0,1-4.95,0,4.62,4.62,0,0,1,0-5.48,3.54,3.54,0,0,1,4.95,0Zm-4,.73a3.89,3.89,0,0,0,0,4,1.81,1.81,0,0,0,1.53.73,1.84,1.84,0,0,0,1.54-.73,3.89,3.89,0,0,0,0-4,1.84,1.84,0,0,0-1.54-.73A1.81,1.81,0,0,0,474.2,94.62Z" transform="translate(-59.94 22.19)"/><path class="cls-6" d="M485.6,100.19v-1h0a2.13,2.13,0,0,1-.88.88,2.57,2.57,0,0,1-1.31.32,2.71,2.71,0,0,1-1.57-.46,2.92,2.92,0,0,1-1-1.31,5.4,5.4,0,0,1,0-3.93,2.82,2.82,0,0,1,1-1.3,2.69,2.69,0,0,1,1.57-.46,2.62,2.62,0,0,1,1.29.32,2.16,2.16,0,0,1,.88.84h0V90.22h1.23v10Zm-3.36-5.56a3.88,3.88,0,0,0,0,4,1.75,1.75,0,0,0,2.87,0,4,4,0,0,0,0-4,1.77,1.77,0,0,0-2.87,0Z" transform="translate(-59.94 22.19)"/><path class="cls-6" d="M495,95.12a4.83,4.83,0,0,1,.22,1.51,4,4,0,0,1-.91,2.74,3.16,3.16,0,0,1-2.48,1,3.37,3.37,0,0,1-1.93-.53l-.72.92-.6-.46.74-1a4.64,4.64,0,0,1,0-5.44,3.11,3.11,0,0,1,2.47-1,3.46,3.46,0,0,1,2,.54l.72-1,.61.49-.75,1A3.28,3.28,0,0,1,495,95.12Zm-4.72-.52a3.18,3.18,0,0,0-.58,2,3.55,3.55,0,0,0,.37,1.71l3.05-4a1.91,1.91,0,0,0-1.29-.45A1.87,1.87,0,0,0,490.29,94.6Zm3.12,4.06a3.24,3.24,0,0,0,.57-2,3.54,3.54,0,0,0-.38-1.71l-3,4a2.06,2.06,0,0,0,2.84-.31Z" transform="translate(-59.94 22.19)"/><path class="cls-6" d="M497.43,102.2h-.82l.54-2h-.51V98.55h1.51v1.64Z" transform="translate(-59.94 22.19)"/><path class="cls-6" d="M507.89,93.57a2.71,2.71,0,0,1,.74,2.07v2.73a8.6,8.6,0,0,0,.16,1.82h-1.12a5.37,5.37,0,0,1-.09-1h0a2.5,2.5,0,0,1-1,.88,3.19,3.19,0,0,1-1.47.31,2.53,2.53,0,0,1-1.75-.58,1.91,1.91,0,0,1-.65-1.51,1.87,1.87,0,0,1,.6-1.46,4.26,4.26,0,0,1,2.1-.78,20.6,20.6,0,0,1,2.06-.23V95.5a1.68,1.68,0,0,0-.43-1.26,1.66,1.66,0,0,0-1.18-.41,1.71,1.71,0,0,0-1.18.38,1.45,1.45,0,0,0-.45,1H503a2.31,2.31,0,0,1,.8-1.7,3,3,0,0,1,2.06-.66A2.9,2.9,0,0,1,507.89,93.57Zm-2.32,3.37a2.82,2.82,0,0,0-1.26.42,1,1,0,0,0-.37.81,1.1,1.1,0,0,0,.38.89,1.59,1.59,0,0,0,1.07.33,2.25,2.25,0,0,0,.82-.15,1.8,1.8,0,0,0,.65-.41,1.94,1.94,0,0,0,.45-.69,3.2,3.2,0,0,0,.13-1v-.44A18.72,18.72,0,0,0,505.57,96.94Z" transform="translate(-59.94 22.19)"/><path class="cls-6" d="M516,93.66a3.16,3.16,0,0,1,.68,2.19v4.34h-1.24V95.94A2.29,2.29,0,0,0,515,94.4a1.51,1.51,0,0,0-1.21-.47,1.72,1.72,0,0,0-1.33.57,2.29,2.29,0,0,0-.52,1.61v4.08h-1.23V93.07h1.19V94h0a2.58,2.58,0,0,1,.9-.8,2.72,2.72,0,0,1,1.26-.29A2.43,2.43,0,0,1,516,93.66Z" transform="translate(-59.94 22.19)"/><path class="cls-6" d="M523.47,100.19v-1h0a2.13,2.13,0,0,1-.88.88,2.6,2.6,0,0,1-1.31.32,2.71,2.71,0,0,1-1.57-.46,2.92,2.92,0,0,1-1-1.31,5.4,5.4,0,0,1,0-3.93,2.82,2.82,0,0,1,1-1.3,2.69,2.69,0,0,1,1.57-.46,2.62,2.62,0,0,1,1.29.32,2.16,2.16,0,0,1,.88.84h0V90.22h1.23v10Zm-3.36-5.56a3.88,3.88,0,0,0,0,4,1.75,1.75,0,0,0,2.87,0,4,4,0,0,0,0-4,1.77,1.77,0,0,0-2.87,0Z" transform="translate(-59.94 22.19)"/><path class="cls-6" d="M530.07,91.6V90.22h1.24V91.6Zm0,8.59V93.07h1.24v7.12Z" transform="translate(-59.94 22.19)"/><path class="cls-6" d="M537.79,93.51a2.26,2.26,0,0,1,.73,1.79h-1.21a1.41,1.41,0,0,0-.41-1.09,2,2,0,0,0-2.19-.11.9.9,0,0,0-.37.74.8.8,0,0,0,.18.56,1.16,1.16,0,0,0,.5.31c.21.07.56.16,1,.28a12.44,12.44,0,0,1,1.44.42,2.17,2.17,0,0,1,.88.63,1.82,1.82,0,0,1,.37,1.21A1.87,1.87,0,0,1,538,99.8a4,4,0,0,1-4.25-.08,2.4,2.4,0,0,1-.79-1.9h1.25a1.52,1.52,0,0,0,.45,1.17,1.91,1.91,0,0,0,1.3.41,2,2,0,0,0,1.12-.29.9.9,0,0,0,.42-.77.93.93,0,0,0-.2-.63,1.33,1.33,0,0,0-.57-.36c-.25-.09-.65-.2-1.19-.33a12.74,12.74,0,0,1-1.3-.38,1.9,1.9,0,0,1-.78-.58,1.7,1.7,0,0,1-.33-1.12,1.82,1.82,0,0,1,.74-1.49,3,3,0,0,1,1.89-.57A3,3,0,0,1,537.79,93.51Z" transform="translate(-59.94 22.19)"/><path class="cls-6" d="M548.22,93.57a2.71,2.71,0,0,1,.74,2.07v2.73a7.93,7.93,0,0,0,.17,1.82H548a4.65,4.65,0,0,1-.1-1h0a2.47,2.47,0,0,1-1,.88,3.19,3.19,0,0,1-1.47.31,2.53,2.53,0,0,1-1.75-.58,1.92,1.92,0,0,1-.66-1.51,1.85,1.85,0,0,1,.61-1.46,4.18,4.18,0,0,1,2.09-.78c.69-.11,1.38-.19,2.06-.23V95.5a1.47,1.47,0,0,0-1.61-1.67,1.71,1.71,0,0,0-1.18.38,1.45,1.45,0,0,0-.45,1H543.3a2.35,2.35,0,0,1,.8-1.7,3,3,0,0,1,2.06-.66A2.88,2.88,0,0,1,548.22,93.57Zm-2.31,3.37a2.87,2.87,0,0,0-1.27.42,1,1,0,0,0-.37.81,1.13,1.13,0,0,0,.38.89,1.61,1.61,0,0,0,1.07.33,2.21,2.21,0,0,0,.82-.15,1.72,1.72,0,0,0,.65-.41,1.94,1.94,0,0,0,.45-.69,2.93,2.93,0,0,0,.13-1v-.44A18.13,18.13,0,0,0,545.91,96.94Z" transform="translate(-59.94 22.19)"/><path class="cls-6" d="M556.05,93.35a2.84,2.84,0,0,1,1,1.3,5.4,5.4,0,0,1,0,3.93,3,3,0,0,1-1,1.31,2.9,2.9,0,0,1-2.87.15,2.12,2.12,0,0,1-.87-.86h0v3.6h-1.23V93.07h1.22v1h0a2.07,2.07,0,0,1,.87-.89,2.88,2.88,0,0,1,2.88.14Zm-3.29,1.27a4,4,0,0,0,0,4,1.65,1.65,0,0,0,1.41.74,1.71,1.71,0,0,0,1.45-.75,3.88,3.88,0,0,0,0-4,1.7,1.7,0,0,0-1.45-.74A1.64,1.64,0,0,0,552.76,94.62Z" transform="translate(-59.94 22.19)"/><path class="cls-6" d="M564.11,93.35a2.85,2.85,0,0,1,1,1.3,5.54,5.54,0,0,1,0,3.93,3,3,0,0,1-1,1.31,2.88,2.88,0,0,1-2.86.15,2.15,2.15,0,0,1-.88-.86h0v3.6h-1.23V93.07h1.22v1h0a2,2,0,0,1,.87-.89,2.86,2.86,0,0,1,2.87.14Zm-3.29,1.27a4.11,4.11,0,0,0,0,4,1.65,1.65,0,0,0,1.41.74,1.72,1.72,0,0,0,1.46-.75,3.94,3.94,0,0,0,0-4,1.71,1.71,0,0,0-1.46-.74A1.64,1.64,0,0,0,560.82,94.62Z" transform="translate(-59.94 22.19)"/><path class="cls-6" d="M571,93.06v1.11l-.49,0a2,2,0,0,0-1.56.63,2.72,2.72,0,0,0-.54,1.81v3.63h-1.23V93.07h1.17v1.1h0a2.3,2.3,0,0,1,2.1-1.17A1.9,1.9,0,0,1,571,93.06Z" transform="translate(-59.94 22.19)"/><path class="cls-6" d="M577.32,93.89a4.58,4.58,0,0,1,0,5.48,3.54,3.54,0,0,1-5,0,4.62,4.62,0,0,1,0-5.48,3.54,3.54,0,0,1,5,0Zm-4,.73a3.89,3.89,0,0,0,0,4,2,2,0,0,0,3.06,0,3.89,3.89,0,0,0,0-4,2,2,0,0,0-3.06,0Z" transform="translate(-59.94 22.19)"/><path class="cls-6" d="M585.43,100.19h-1.49L582,97.34h0l-1.9,2.85h-1.47l2.64-3.7-2.42-3.42h1.46L582,95.62h0l1.71-2.55h1.45l-2.42,3.42Z" transform="translate(-59.94 22.19)"/><path class="cls-6" d="M586.48,91.6V90.22h1.23V91.6Zm0,8.59V93.07h1.23v7.12Z" transform="translate(-59.94 22.19)"/><path class="cls-6" d="M599.24,93.65a3.23,3.23,0,0,1,.62,2.14v4.4h-1.23v-4.3a2.4,2.4,0,0,0-.37-1.5,1.31,1.31,0,0,0-1.09-.46,1.45,1.45,0,0,0-1.22.6,2.64,2.64,0,0,0-.46,1.62v4h-1.23V95.71a2,2,0,0,0-.38-1.31,1.26,1.26,0,0,0-1.06-.47,1.46,1.46,0,0,0-1.24.61,2.86,2.86,0,0,0-.45,1.7v4h-1.24V93.07h1.19V94h0a2.49,2.49,0,0,1,3.28-.7,2.14,2.14,0,0,1,.82,1,2.46,2.46,0,0,1,2.26-1.34A2.2,2.2,0,0,1,599.24,93.65Z" transform="translate(-59.94 22.19)"/><path class="cls-6" d="M606.57,93.57a2.71,2.71,0,0,1,.74,2.07v2.73a8.53,8.53,0,0,0,.17,1.82h-1.12a4.65,4.65,0,0,1-.1-1h0a2.47,2.47,0,0,1-1,.88,3.19,3.19,0,0,1-1.47.31,2.53,2.53,0,0,1-1.75-.58,1.92,1.92,0,0,1-.66-1.51,1.85,1.85,0,0,1,.61-1.46,4.22,4.22,0,0,1,2.09-.78c.69-.11,1.38-.19,2.06-.23V95.5a1.47,1.47,0,0,0-1.61-1.67,1.72,1.72,0,0,0-1.18.38,1.4,1.4,0,0,0-.44,1h-1.24a2.35,2.35,0,0,1,.8-1.7,3,3,0,0,1,2.06-.66A2.88,2.88,0,0,1,606.57,93.57Zm-2.31,3.37a2.87,2.87,0,0,0-1.27.42,1,1,0,0,0-.37.81,1.13,1.13,0,0,0,.38.89,1.62,1.62,0,0,0,1.08.33,2.29,2.29,0,0,0,.82-.15,1.89,1.89,0,0,0,.65-.41,2,2,0,0,0,.44-.69,2.93,2.93,0,0,0,.13-1v-.44A18.13,18.13,0,0,0,604.26,96.94Z" transform="translate(-59.94 22.19)"/><path class="cls-6" d="M612.28,99.15v1a3.4,3.4,0,0,1-.78.08,2,2,0,0,1-1.48-.47,2.25,2.25,0,0,1-.46-1.57V94.05h-1.23v-1h1.23V91.35h1.24v1.72h1.41v1H610.8v4A1.35,1.35,0,0,0,611,99a.94.94,0,0,0,.76.27A1.51,1.51,0,0,0,612.28,99.15Z" transform="translate(-59.94 22.19)"/><path class="cls-6" d="M617.61,99.05a1.59,1.59,0,0,0,.62-1h1.26a2.83,2.83,0,0,1-1,1.66,3.3,3.3,0,0,1-2.13.66,3.36,3.36,0,0,1-1.79-.47,3,3,0,0,1-1.15-1.35,4.75,4.75,0,0,1-.4-2,4.22,4.22,0,0,1,.4-1.88,3,3,0,0,1,1.15-1.3,3.14,3.14,0,0,1,1.75-.47,3.1,3.1,0,0,1,2,.66,3.17,3.17,0,0,1,1.1,1.82,6.83,6.83,0,0,1,.14,1.52h-5.32a3,3,0,0,0,.62,1.91,1.92,1.92,0,0,0,1.49.64A2,2,0,0,0,617.61,99.05Zm-2.71-4.67a2.49,2.49,0,0,0-.65,1.56h4.09a2.44,2.44,0,0,0-.64-1.56,2.06,2.06,0,0,0-2.8,0Z" transform="translate(-59.94 22.19)"/><path class="cls-6" d="M621.23,100.19v-10h1.23v10Z" transform="translate(-59.94 22.19)"/><path class="cls-6" d="M626.65,101.93a2.15,2.15,0,0,1-.9.7,3.64,3.64,0,0,1-1.29.2,2.09,2.09,0,0,1-.64-.07v-1a2,2,0,0,0,.58.08,1.91,1.91,0,0,0,.78-.14,1.26,1.26,0,0,0,.53-.48,5.4,5.4,0,0,0,.46-1l-2.7-7.14h1.33l2,5.66h0l2.07-5.66h1.3l-2.85,7.44A5.76,5.76,0,0,1,626.65,101.93Z" transform="translate(-59.94 22.19)"/><path class="cls-6" d="M639.37,97.75v2.44H638.1V97.75h-4.46V96.59l4-5.84h1.72v5.94h1.54v1.06Zm-1.26-1.06V95.4c0-1.17,0-2.34,0-3.52h0c-.66,1-1.38,2.11-2.17,3.25l-1.07,1.56Z" transform="translate(-59.94 22.19)"/><path class="cls-6" d="M647.71,91.82a7.93,7.93,0,0,1,0,7.3,3.17,3.17,0,0,1-5.06,0,7.93,7.93,0,0,1,0-7.3,3.16,3.16,0,0,1,5.06,0Zm-4.07.83a7.79,7.79,0,0,0,0,5.65,1.71,1.71,0,0,0,3.09,0,7.66,7.66,0,0,0,0-5.65,1.72,1.72,0,0,0-3.09,0Z" transform="translate(-59.94 22.19)"/><path class="cls-6" d="M649.53,96.64V95.55h3.36v1.09Z" transform="translate(-59.94 22.19)"/><path class="cls-6" d="M655.74,91.84l-.28,2.93h0a2.08,2.08,0,0,1,.83-.58,2.77,2.77,0,0,1,1.08-.21,3.21,3.21,0,0,1,1.6.39,2.71,2.71,0,0,1,1.07,1.08,3.45,3.45,0,0,1,.38,1.64,3.58,3.58,0,0,1-.41,1.74,2.83,2.83,0,0,1-1.15,1.15,3.6,3.6,0,0,1-1.74.4,3.27,3.27,0,0,1-2.24-.73,2.49,2.49,0,0,1-.83-2h1.32a1.47,1.47,0,0,0,.49,1.16,1.84,1.84,0,0,0,1.26.42,1.89,1.89,0,0,0,1.44-.57,2.18,2.18,0,0,0,.53-1.56,2.14,2.14,0,0,0-.51-1.51,1.83,1.83,0,0,0-1.39-.54,1.91,1.91,0,0,0-1.17.34,1.82,1.82,0,0,0-.63,1l-1.27-.09.52-5.57H660v1.09Z" transform="translate(-59.94 22.19)"/><path class="cls-6" d="M667.65,91.82a8,8,0,0,1,0,7.3,3.18,3.18,0,0,1-5.07,0,8,8,0,0,1,0-7.3,3.17,3.17,0,0,1,5.07,0Zm-4.07.83a7.66,7.66,0,0,0,0,5.65,1.67,1.67,0,0,0,1.54,1,1.69,1.69,0,0,0,1.55-1,7.79,7.79,0,0,0,0-5.65,1.69,1.69,0,0,0-1.55-1A1.66,1.66,0,0,0,663.58,92.65Z" transform="translate(-59.94 22.19)"/><path class="cls-6" d="M682.71,93.65a3.23,3.23,0,0,1,.62,2.14v4.4H682.1v-4.3a2.46,2.46,0,0,0-.37-1.5,1.31,1.31,0,0,0-1.09-.46,1.45,1.45,0,0,0-1.22.6,2.58,2.58,0,0,0-.46,1.62v4h-1.23V95.71a2,2,0,0,0-.38-1.31,1.27,1.27,0,0,0-1.06-.47,1.44,1.44,0,0,0-1.24.61,2.86,2.86,0,0,0-.46,1.7v4h-1.23V93.07h1.19V94h0a2.35,2.35,0,0,1,2-1,2.39,2.39,0,0,1,1.29.34,2.21,2.21,0,0,1,.82,1,2.46,2.46,0,0,1,2.26-1.34A2.2,2.2,0,0,1,682.71,93.65Z" transform="translate(-59.94 22.19)"/><path class="cls-6" d="M685.44,91.6V90.22h1.24V91.6Zm0,8.59V93.07h1.24v7.12Z" transform="translate(-59.94 22.19)"/><path class="cls-6" d="M694.14,93.66a3.15,3.15,0,0,1,.67,2.19v4.34h-1.23V95.94a2.29,2.29,0,0,0-.42-1.54,1.53,1.53,0,0,0-1.22-.47,1.72,1.72,0,0,0-1.32.57,2.3,2.3,0,0,0-.53,1.61v4.08h-1.23V93.07h1.19V94h0a2.46,2.46,0,0,1,.89-.8,2.78,2.78,0,0,1,1.26-.29A2.47,2.47,0,0,1,694.14,93.66Z" transform="translate(-59.94 22.19)"/><path class="cls-6" d="M696.25,96.64V95.55h3.36v1.09Z" transform="translate(-59.94 22.19)"/><path class="cls-6" d="M464.69,116.4a3.15,3.15,0,0,1-.67-2.19v-4.34h1.23v4.25a2.27,2.27,0,0,0,.42,1.54,1.53,1.53,0,0,0,1.22.47,1.72,1.72,0,0,0,1.32-.58,2.3,2.3,0,0,0,.53-1.6v-4.08H470V117h-1.19v-.94h0a2.41,2.41,0,0,1-.9.8,2.79,2.79,0,0,1-1.27.29A2.41,2.41,0,0,1,464.69,116.4Z" transform="translate(-59.94 22.19)"/><path class="cls-6" d="M475.17,116v1a3.43,3.43,0,0,1-.79.08,2,2,0,0,1-1.48-.47,2.25,2.25,0,0,1-.45-1.57v-4.15h-1.23v-1h1.23v-1.72h1.23v1.72h1.42v1h-1.42v4a1.35,1.35,0,0,0,.23.88.93.93,0,0,0,.75.27A1.53,1.53,0,0,0,475.17,116Z" transform="translate(-59.94 22.19)"/><path class="cls-6" d="M480.49,115.85a1.65,1.65,0,0,0,.63-1h1.26a2.79,2.79,0,0,1-1,1.66,3.28,3.28,0,0,1-2.12.66,3.34,3.34,0,0,1-1.79-.47,3.07,3.07,0,0,1-1.16-1.35,4.9,4.9,0,0,1-.4-2,4.39,4.39,0,0,1,.4-1.88,3,3,0,0,1,1.15-1.3,3.28,3.28,0,0,1,1.76-.47,3.12,3.12,0,0,1,2,.66,3.22,3.22,0,0,1,1.1,1.82,6.83,6.83,0,0,1,.14,1.52h-5.32a2.87,2.87,0,0,0,.62,1.91,1.91,1.91,0,0,0,1.49.64A2,2,0,0,0,480.49,115.85Zm-2.71-4.67a2.54,2.54,0,0,0-.64,1.56h4.09a2.44,2.44,0,0,0-.65-1.56,1.84,1.84,0,0,0-1.38-.55A1.91,1.91,0,0,0,477.78,111.18Z" transform="translate(-59.94 22.19)"/><path class="cls-6" d="M488.49,110.31a2.23,2.23,0,0,1,.73,1.79H488a1.38,1.38,0,0,0-.42-1.09,1.65,1.65,0,0,0-1.16-.38,1.71,1.71,0,0,0-1,.27.87.87,0,0,0-.37.74.85.85,0,0,0,.17.56,1.29,1.29,0,0,0,.5.31c.22.07.56.16,1,.28a12.79,12.79,0,0,1,1.43.42,2.11,2.11,0,0,1,.88.63,1.83,1.83,0,0,1,.38,1.21,1.85,1.85,0,0,1-.77,1.55,3.94,3.94,0,0,1-4.24-.08,2.37,2.37,0,0,1-.79-1.9h1.25a1.52,1.52,0,0,0,.45,1.17,1.89,1.89,0,0,0,1.3.41,2,2,0,0,0,1.12-.29.9.9,0,0,0,.42-.77.93.93,0,0,0-.2-.63,1.33,1.33,0,0,0-.57-.36c-.26-.09-.65-.2-1.19-.33a13.08,13.08,0,0,1-1.31-.38,1.88,1.88,0,0,1-.77-.58,1.7,1.7,0,0,1-.33-1.12,1.8,1.8,0,0,1,.73-1.49,3.54,3.54,0,0,1,3.94.06Z" transform="translate(-59.94 22.19)"/><path class="cls-6" d="M498.93,110.37a2.71,2.71,0,0,1,.74,2.07v2.73a8.66,8.66,0,0,0,.16,1.82h-1.12a5.37,5.37,0,0,1-.09-1h0a2.5,2.5,0,0,1-1,.88,3.19,3.19,0,0,1-1.47.31,2.55,2.55,0,0,1-1.75-.58,1.91,1.91,0,0,1-.65-1.51,1.87,1.87,0,0,1,.6-1.46,4.26,4.26,0,0,1,2.1-.78,20.6,20.6,0,0,1,2.06-.23v-.28a1.68,1.68,0,0,0-.43-1.26,1.66,1.66,0,0,0-1.18-.41,1.71,1.71,0,0,0-1.18.38,1.45,1.45,0,0,0-.45,1H494a2.31,2.31,0,0,1,.8-1.7,3,3,0,0,1,2.06-.66A2.9,2.9,0,0,1,498.93,110.37Zm-2.32,3.37a2.82,2.82,0,0,0-1.26.42.94.94,0,0,0-.37.81,1.1,1.1,0,0,0,.38.89,1.59,1.59,0,0,0,1.07.33,2.25,2.25,0,0,0,.82-.15,1.8,1.8,0,0,0,.65-.41,1.94,1.94,0,0,0,.45-.69,3.2,3.2,0,0,0,.13-1v-.44A18.72,18.72,0,0,0,496.61,113.74Z" transform="translate(-59.94 22.19)"/><path class="cls-6" d="M507.52,117l-.84-3.08c-.1-.4-.17-.66-.2-.79-.22-.83-.42-1.59-.58-2.29h0c-.17.7-.37,1.46-.59,2.29,0,.13-.09.39-.2.79l-.84,3.08h-1.76l-1.89-7.12h1.25l.75,3c.23.9.49,2,.79,3.19h0c.26-1.06.52-2.1.79-3.12l.81-3h1.76l.82,3,.78,3.12h0l.78-3.19.76-3h1.24L509.28,117Z" transform="translate(-59.94 22.19)"/><path class="cls-6" d="M516.91,110.37a2.71,2.71,0,0,1,.73,2.07v2.73a8.6,8.6,0,0,0,.17,1.82h-1.12a4.65,4.65,0,0,1-.1-1h0a2.47,2.47,0,0,1-1,.88,3.19,3.19,0,0,1-1.47.31,2.53,2.53,0,0,1-1.75-.58,1.92,1.92,0,0,1-.66-1.51,1.85,1.85,0,0,1,.61-1.46,4.22,4.22,0,0,1,2.09-.78c.69-.11,1.38-.19,2.06-.23v-.28A1.64,1.64,0,0,0,516,111a1.63,1.63,0,0,0-1.18-.41,1.7,1.7,0,0,0-1.17.38,1.45,1.45,0,0,0-.45,1H512a2.3,2.3,0,0,1,.79-1.7,3,3,0,0,1,2.06-.66A2.91,2.91,0,0,1,516.91,110.37Zm-2.32,3.37a2.87,2.87,0,0,0-1.27.42.94.94,0,0,0-.37.81,1.11,1.11,0,0,0,.39.89,1.57,1.57,0,0,0,1.07.33,2.25,2.25,0,0,0,.82-.15,1.89,1.89,0,0,0,.65-.41,2.26,2.26,0,0,0,.45-.69,3.25,3.25,0,0,0,.12-1v-.44A18.13,18.13,0,0,0,514.59,113.74Z" transform="translate(-59.94 22.19)"/><path class="cls-6" d="M521.53,118.73a2.21,2.21,0,0,1-.9.7,3.64,3.64,0,0,1-1.29.2,2.21,2.21,0,0,1-.65-.07v-1a2.1,2.1,0,0,0,.59.08,1.91,1.91,0,0,0,.78-.14,1.24,1.24,0,0,0,.52-.48,4.8,4.8,0,0,0,.46-1l-2.7-7.14h1.33l2.05,5.66h0l2.08-5.66h1.3l-2.86,7.44A5.78,5.78,0,0,1,521.53,118.73Z" transform="translate(-59.94 22.19)"/><path class="cls-6" d="M525.34,117v-1.64h1.51V117Z" transform="translate(-59.94 22.19)"/></svg>