<svg xmlns="http://www.w3.org/2000/svg" viewBox="0 0 324.16 574.2"><defs><style>.cls-1{fill:#fff;}.cls-2{font-size:24px;}.cls-19,.cls-2,.cls-5{fill:#231f20;}.cls-2,.cls-5{font-family:NeueHaasUnicaW06-Regular;}.cls-3{letter-spacing:0.01em;}.cls-4{letter-spacing:0.01em;}.cls-5{font-size:18px;}.cls-6{letter-spacing:0.01em;}.cls-7{letter-spacing:0.01em;}.cls-8{letter-spacing:0em;}.cls-9{letter-spacing:-0.01em;}.cls-10{letter-spacing:0.01em;}.cls-11{letter-spacing:-0.02em;}.cls-12{letter-spacing:0.01em;}.cls-13{letter-spacing:-0.01em;}.cls-14{letter-spacing:-0.02em;}.cls-15{letter-spacing:-0.02em;}.cls-16{letter-spacing:0em;}.cls-17{letter-spacing:-0.02em;}.cls-18{letter-spacing:0.02em;}</style></defs><title>Airport_Bodø</title><g id="Layer_2" data-name="Layer 2"><g id="Layer_1-2" data-name="Layer 1"><path class="cls-1" d="M268.54,268.54H1.19V1.19H268.54ZM24.75,172.68l.08,2.15c10.07,1.53,20.09,3.68,30.22,4.42s20.9,1.93,30.61-.35c17-4,33.53-10.48,50.22-16q55.69-18.52,111.36-37.12A35.07,35.07,0,0,0,266,111c3.14-4.84,2.34-9.1-3.14-10.19-7.32-1.46-15.61-2.77-22.51-.77-24.27,7.05-48.1,15.67-72.2,23.35a16.29,16.29,0,0,1-10-.34c-26.91-10.4-53.72-21.1-80.48-31.87-3.32-1.33-5.55-1-7.75,1.75-1.81,2.25-3.91,4.26-6,6.46C76.75,115,89.19,130,102.15,145.6ZM2.2,147.13c5.43,6.27,10.89,12.7,16.54,19,.89,1,2.91,1.93,4,1.59,8-2.47,15.89-5.27,23.81-8C36.33,153.31,25.88,148.8,16,143.33,9.77,139.91,5.86,141.2,2.2,147.13Z" transform="translate(-1.19 -1.19)"/><path d="M24.75,172.68l77.4-27.08C89.19,130,76.75,115,63.89,99.42c2.06-2.2,4.16-4.21,6-6.46,2.2-2.71,4.43-3.08,7.75-1.75,26.76,10.77,53.57,21.47,80.48,31.87a16.29,16.29,0,0,0,10,.34c24.1-7.68,47.93-16.3,72.2-23.35,6.9-2,15.19-.69,22.51.77,5.48,1.09,6.28,5.35,3.14,10.19a35.07,35.07,0,0,1-18.75,14.73q-55.69,18.49-111.36,37.12c-16.69,5.54-33.17,12-50.22,16-9.71,2.28-20.43,1.09-30.61.35s-20.15-2.89-30.22-4.42Z" transform="translate(-1.19 -1.19)"/><path d="M2.2,147.13c3.66-5.93,7.57-7.22,13.77-3.8,9.91,5.47,20.36,10,30.58,16.39-7.92,2.7-15.82,5.5-23.81,8-1.09.34-3.11-.61-4-1.59C13.09,159.83,7.63,153.4,2.2,147.13Z" transform="translate(-1.19 -1.19)"/><text class="cls-2" transform="translate(54.47 271.46)">Air<tspan class="cls-3" x="30.74" y="0">p</tspan><tspan x="44.81" y="0">o</tspan><tspan class="cls-4" x="58.37" y="0">r</tspan><tspan x="67.34" y="0">t B</tspan><tspan class="cls-3" x="95.59" y="0">o</tspan><tspan x="109.39" y="0">dø</tspan></text><text class="cls-5" transform="translate(54.47 342.33)">The air<tspan class="cls-6" x="55.66" y="0">p</tspan><tspan x="66.2" y="0">o</tspan><tspan class="cls-7" x="76.37" y="0">r</tspan><tspan x="83.1" y="0">t will </tspan><tspan class="cls-6" x="124.18" y="0">b</tspan><tspan x="134.73" y="0">e m</tspan><tspan class="cls-8" x="164.3" y="0">ov</tspan><tspan class="cls-6" x="182.82" y="0">e</tspan><tspan x="192.9" y="0">d 900m. </tspan><tspan x="0" y="21.6">Finish</tspan><tspan class="cls-6" x="48.72" y="21.6">e</tspan><tspan x="58.8" y="21.6">d in 2024-2026.</tspan></text><text class="cls-5" transform="translate(54.47 503.39)"><tspan class="cls-9">R</tspan><tspan x="11.34" y="0">ea</tspan><tspan class="cls-10" x="30.8" y="0">s</tspan><tspan x="39.8" y="0">on of </tspan><tspan class="cls-11" x="84.27" y="0">r</tspan><tspan x="90.45" y="0">el</tspan><tspan class="cls-12" x="104.74" y="0">o</tspan><tspan x="115.09" y="0">c</tspan><tspan class="cls-13" x="124.7" y="0">a</tspan><tspan x="134.08" y="0">tion: A</tspan><tspan class="cls-14" x="185.13" y="0">r</tspan><tspan x="191.3" y="0">ea </tspan><tspan class="cls-9" x="214.9" y="0">a</tspan><tspan class="cls-6" x="224.28" y="0">f</tspan><tspan class="cls-15" x="229.95" y="0">t</tspan><tspan class="cls-16" x="235.42" y="0">er </tspan><tspan class="cls-14" x="0" y="21.6">r</tspan><tspan x="6.17" y="21.6">el</tspan><tspan class="cls-6" x="20.47" y="21.6">o</tspan><tspan x="30.82" y="21.6">c</tspan><tspan class="cls-9" x="40.43" y="21.6">a</tspan><tspan x="49.81" y="21.6">tion a</tspan><tspan class="cls-11" x="94.19" y="21.6">r</tspan><tspan x="100.37" y="21.6">e f</tspan><tspan class="cls-14" x="119.9" y="21.6">r</tspan><tspan class="cls-6" x="126.07" y="21.6">ee</tspan><tspan x="146.23" y="21.6">d up </tspan><tspan class="cls-17" x="185.61" y="21.6">f</tspan><tspan x="190.83" y="21.6">or a n</tspan><tspan class="cls-8" x="235.72" y="21.6">e</tspan><tspan x="245.57" y="21.6">w </tspan><tspan x="0" y="43.2">ci</tspan><tspan class="cls-18" x="14" y="43.2">t</tspan><tspan x="20.03" y="43.2">y district </tspan><tspan class="cls-10" x="92.5" y="43.2">e</tspan><tspan x="102.51" y="43.2">stablishme</tspan><tspan class="cls-9" x="190.56" y="43.2">n</tspan><tspan x="200.75" y="43.2">t</tspan></text><path class="cls-19" d="M59,409.61v4.05h6.23v1.46H59v4.35h6.8V421H57.37V408.13h8.26v1.48Z" transform="translate(-1.19 -1.19)"/><path class="cls-19" d="M73.48,412.36a2.9,2.9,0,0,1,.94,2.31H72.87a1.85,1.85,0,0,0-.53-1.41,2.18,2.18,0,0,0-1.5-.48,2.12,2.12,0,0,0-1.31.35,1.11,1.11,0,0,0-.48.94,1,1,0,0,0,.23.72,1.5,1.5,0,0,0,.64.4,12.18,12.18,0,0,0,1.33.36,14.65,14.65,0,0,1,1.84.54,2.78,2.78,0,0,1,1.14.82,2.34,2.34,0,0,1,.47,1.56,2.37,2.37,0,0,1-1,2,5.1,5.1,0,0,1-5.45-.1,3.07,3.07,0,0,1-1-2.45h1.6a1.91,1.91,0,0,0,.59,1.5,2.4,2.4,0,0,0,1.66.53,2.46,2.46,0,0,0,1.45-.38,1.18,1.18,0,0,0,.54-1,1.21,1.21,0,0,0-.26-.81,1.77,1.77,0,0,0-.74-.46q-.48-.17-1.53-.42a14.17,14.17,0,0,1-1.67-.49,2.47,2.47,0,0,1-1-.74,2.24,2.24,0,0,1-.42-1.45,2.31,2.31,0,0,1,.94-1.91,4.53,4.53,0,0,1,5.07.07Z" transform="translate(-1.19 -1.19)"/><path class="cls-19" d="M80.72,419.62v1.29a3.62,3.62,0,0,1-1,.11,2.52,2.52,0,0,1-1.9-.61,2.87,2.87,0,0,1-.59-2v-5.32H75.64v-1.26h1.58v-2.22h1.59v2.22h1.82v1.26H78.81v5.16a1.73,1.73,0,0,0,.29,1.14,1.22,1.22,0,0,0,1,.34A2.08,2.08,0,0,0,80.72,419.62Z" transform="translate(-1.19 -1.19)"/><path class="cls-19" d="M82.61,409.92v-1.79h1.58v1.79Zm0,11v-9.14h1.58V421Z" transform="translate(-1.19 -1.19)"/><path class="cls-19" d="M99,412.54a4.13,4.13,0,0,1,.8,2.76V421H98.23v-5.53a3.06,3.06,0,0,0-.48-1.92,1.67,1.67,0,0,0-1.39-.6,1.88,1.88,0,0,0-1.58.78,3.37,3.37,0,0,0-.58,2.09V421H92.61v-5.76a2.62,2.62,0,0,0-.48-1.68,1.68,1.68,0,0,0-1.37-.61,1.87,1.87,0,0,0-1.59.8,3.56,3.56,0,0,0-.59,2.17V421H87v-9.14h1.53v1.13h0a3,3,0,0,1,2.56-1.33,3.09,3.09,0,0,1,1.66.44,2.73,2.73,0,0,1,1.06,1.29,3.12,3.12,0,0,1,2.9-1.73A2.83,2.83,0,0,1,99,412.54Z" transform="translate(-1.19 -1.19)"/><path class="cls-19" d="M108.44,412.45a3.46,3.46,0,0,1,1,2.65v3.51a10.45,10.45,0,0,0,.22,2.34h-1.44a5.88,5.88,0,0,1-.13-1.33h0a3.22,3.22,0,0,1-1.27,1.13,4.12,4.12,0,0,1-1.89.4,3.25,3.25,0,0,1-2.25-.75,2.44,2.44,0,0,1-.85-1.93,2.37,2.37,0,0,1,.78-1.88,5.3,5.3,0,0,1,2.69-1c.89-.15,1.77-.25,2.65-.31v-.36a2.13,2.13,0,0,0-.55-1.62,2.11,2.11,0,0,0-1.52-.52,2.15,2.15,0,0,0-1.51.49,1.85,1.85,0,0,0-.58,1.33h-1.58a3.05,3.05,0,0,1,1-2.2,3.89,3.89,0,0,1,2.65-.85A3.68,3.68,0,0,1,108.44,412.45Zm-3,4.32a3.74,3.74,0,0,0-1.63.54,1.23,1.23,0,0,0-.48,1.05,1.41,1.41,0,0,0,.49,1.14,2.07,2.07,0,0,0,1.38.42,3,3,0,0,0,1-.18,2.43,2.43,0,0,0,.84-.54,2.39,2.39,0,0,0,.58-.89,3.88,3.88,0,0,0,.16-1.27v-.55A24,24,0,0,0,105.47,416.77Z" transform="translate(-1.19 -1.19)"/><path class="cls-19" d="M115.78,419.62v1.29a3.62,3.62,0,0,1-1,.11,2.54,2.54,0,0,1-1.9-.61,2.87,2.87,0,0,1-.58-2v-5.32H110.7v-1.26h1.59v-2.22h1.58v2.22h1.82v1.26h-1.82v5.16a1.79,1.79,0,0,0,.29,1.14,1.22,1.22,0,0,0,1,.34A2.08,2.08,0,0,0,115.78,419.62Z" transform="translate(-1.19 -1.19)"/><path class="cls-19" d="M122.63,419.49a2.1,2.1,0,0,0,.8-1.28h1.62a3.54,3.54,0,0,1-1.31,2.14,4.17,4.17,0,0,1-2.72.85,4.24,4.24,0,0,1-2.31-.61,3.87,3.87,0,0,1-1.48-1.73,6.2,6.2,0,0,1-.51-2.61,5.58,5.58,0,0,1,.51-2.42,3.92,3.92,0,0,1,1.47-1.67,4.22,4.22,0,0,1,2.26-.61,4.05,4.05,0,0,1,2.59.85,4.12,4.12,0,0,1,1.41,2.34,8.59,8.59,0,0,1,.18,2H118.3a3.75,3.75,0,0,0,.8,2.45A2.48,2.48,0,0,0,121,420,2.55,2.55,0,0,0,122.63,419.49Zm-3.49-6a3.2,3.2,0,0,0-.82,2h5.25a3.2,3.2,0,0,0-.82-2,2.66,2.66,0,0,0-3.61,0Z" transform="translate(-1.19 -1.19)"/><path class="cls-19" d="M133.47,421v-1.33h0a2.73,2.73,0,0,1-1.13,1.13,3.38,3.38,0,0,1-1.68.42,3.52,3.52,0,0,1-2-.6,3.78,3.78,0,0,1-1.34-1.68,7.19,7.19,0,0,1,0-5.06,3.86,3.86,0,0,1,1.33-1.67,3.53,3.53,0,0,1,2-.59,3.47,3.47,0,0,1,1.67.41,2.74,2.74,0,0,1,1.12,1.09h0v-4.94H135V421Zm-4.32-7.15a5,5,0,0,0,0,5.12,2.2,2.2,0,0,0,1.87,1,2.12,2.12,0,0,0,1.82-1,4.28,4.28,0,0,0,.69-2.57,4.23,4.23,0,0,0-.69-2.56,2.13,2.13,0,0,0-1.82-.95A2.23,2.23,0,0,0,129.15,413.8Z" transform="translate(-1.19 -1.19)"/><path class="cls-19" d="M147.54,412a3.46,3.46,0,0,1,1.37,1.23,3.93,3.93,0,0,1,.6,1.82h-1.66a2.4,2.4,0,0,0-.71-1.59,2.1,2.1,0,0,0-1.55-.61,2.25,2.25,0,0,0-1.91.95,4.21,4.21,0,0,0-.7,2.58,4.29,4.29,0,0,0,.69,2.58,2.25,2.25,0,0,0,1.92,1,2,2,0,0,0,1.55-.66,2.61,2.61,0,0,0,.71-1.67h1.66a4.29,4.29,0,0,1-.59,1.87,3.64,3.64,0,0,1-1.36,1.28,3.92,3.92,0,0,1-2,.47,4.34,4.34,0,0,1-2.28-.58,3.84,3.84,0,0,1-1.5-1.68,6.59,6.59,0,0,1,0-5.13,3.87,3.87,0,0,1,1.5-1.67,4.35,4.35,0,0,1,2.28-.59A4.11,4.11,0,0,1,147.54,412Z" transform="translate(-1.19 -1.19)"/><path class="cls-19" d="M158.55,412.85a5.91,5.91,0,0,1,0,7.06,4.58,4.58,0,0,1-6.37,0,6,6,0,0,1,0-7.06,4.55,4.55,0,0,1,6.37,0Zm-5.15.95a5,5,0,0,0,0,5.16,2.33,2.33,0,0,0,2,1,2.36,2.36,0,0,0,2-1,5,5,0,0,0,0-5.16,2.36,2.36,0,0,0-2-.95A2.33,2.33,0,0,0,153.4,413.8Z" transform="translate(-1.19 -1.19)"/><path class="cls-19" d="M167.49,412.36a2.87,2.87,0,0,1,.94,2.31h-1.55a1.85,1.85,0,0,0-.53-1.41,2.16,2.16,0,0,0-1.5-.48,2.12,2.12,0,0,0-1.31.35,1.11,1.11,0,0,0-.48.94,1,1,0,0,0,.23.72,1.5,1.5,0,0,0,.64.4,12.18,12.18,0,0,0,1.33.36,15.43,15.43,0,0,1,1.85.54,2.81,2.81,0,0,1,1.13.82,2.35,2.35,0,0,1,.48,1.56,2.4,2.4,0,0,1-1,2,4.33,4.33,0,0,1-2.64.74,4.27,4.27,0,0,1-2.82-.84,3.13,3.13,0,0,1-1-2.45h1.61a1.91,1.91,0,0,0,.58,1.5,2.91,2.91,0,0,0,3.11.15,1.15,1.15,0,0,0,.54-1,1.21,1.21,0,0,0-.26-.81,1.73,1.73,0,0,0-.73-.46q-.5-.17-1.53-.42a14.44,14.44,0,0,1-1.68-.49,2.54,2.54,0,0,1-1-.74,2.24,2.24,0,0,1-.42-1.45,2.34,2.34,0,0,1,.94-1.91,4.53,4.53,0,0,1,5.07.07Z" transform="translate(-1.19 -1.19)"/><path class="cls-19" d="M174.73,419.62v1.29a3.62,3.62,0,0,1-1,.11,2.52,2.52,0,0,1-1.9-.61,2.87,2.87,0,0,1-.58-2v-5.32h-1.59v-1.26h1.59v-2.22h1.58v2.22h1.82v1.26h-1.82v5.16a1.79,1.79,0,0,0,.29,1.14,1.22,1.22,0,0,0,1,.34A2.08,2.08,0,0,0,174.73,419.62Z" transform="translate(-1.19 -1.19)"/><path class="cls-19" d="M176.62,413.91v-2.1h1.94v2.1Zm0,7v-2.11h1.94V421Z" transform="translate(-1.19 -1.19)"/><path class="cls-19" d="M58.77,453.42l-.36,3.76h0a2.71,2.71,0,0,1,1.06-.74,3.58,3.58,0,0,1,1.39-.26,4.16,4.16,0,0,1,2.06.49,3.51,3.51,0,0,1,1.38,1.4,4.4,4.4,0,0,1,.48,2.1,4.54,4.54,0,0,1-.52,2.23,3.64,3.64,0,0,1-1.48,1.48,4.64,4.64,0,0,1-2.25.52,4.23,4.23,0,0,1-2.87-.93,3.22,3.22,0,0,1-1.07-2.54h1.69a2,2,0,0,0,.64,1.49,2.37,2.37,0,0,0,1.61.54,2.43,2.43,0,0,0,1.86-.73,2.82,2.82,0,0,0,.68-2,2.78,2.78,0,0,0-.65-2,2.34,2.34,0,0,0-1.8-.7,2.46,2.46,0,0,0-1.49.44,2.22,2.22,0,0,0-.81,1.27l-1.64-.11.67-7.16h6.87v1.4Z" transform="translate(-1.19 -1.19)"/><path class="cls-19" d="M72.94,456.27a2.7,2.7,0,0,1,1.13-1.09,3.4,3.4,0,0,1,1.66-.41,3.53,3.53,0,0,1,2,.59A3.73,3.73,0,0,1,79.08,457a7,7,0,0,1,0,5.06,3.77,3.77,0,0,1-1.34,1.68,3.49,3.49,0,0,1-2,.6A3.37,3.37,0,0,1,74,464a2.55,2.55,0,0,1-1.12-1.13h0v1.33H71.32V451.33H72.9v4.94Zm.57.73a5.18,5.18,0,0,0,0,5.13,2.1,2.1,0,0,0,1.81,1,2.2,2.2,0,0,0,1.87-1,4.27,4.27,0,0,0,.7-2.57,4.22,4.22,0,0,0-.7-2.56,2.22,2.22,0,0,0-1.87-.95A2.09,2.09,0,0,0,73.51,457Z" transform="translate(-1.19 -1.19)"/><path class="cls-19" d="M81.69,453.12v-1.79h1.58v1.79Zm0,11V455h1.58v9.14Z" transform="translate(-1.19 -1.19)"/><path class="cls-19" d="M86.08,464.15V451.33h1.58v12.82Z" transform="translate(-1.19 -1.19)"/><path class="cls-19" d="M90.47,464.15V451.33h1.58v12.82Z" transform="translate(-1.19 -1.19)"/><path class="cls-19" d="M94.86,453.12v-1.79h1.59v1.79Zm0,11V455h1.59v9.14Z" transform="translate(-1.19 -1.19)"/><path class="cls-19" d="M106.11,456.05a5.91,5.91,0,0,1,0,7.06,4.56,4.56,0,0,1-6.36,0,6,6,0,0,1,0-7.06,4.54,4.54,0,0,1,6.36,0ZM101,457a5,5,0,0,0,0,5.16,2.53,2.53,0,0,0,4,0,5,5,0,0,0,0-5.16,2.53,2.53,0,0,0-4,0Z" transform="translate(-1.19 -1.19)"/><path class="cls-19" d="M116.21,455.76a4,4,0,0,1,.86,2.81v5.58h-1.58V458.7a2.94,2.94,0,0,0-.54-2,2,2,0,0,0-1.57-.61,2.22,2.22,0,0,0-1.7.74,3,3,0,0,0-.67,2.07v5.24h-1.59V455H111v1.2h0a3.07,3.07,0,0,1,1.15-1,3.34,3.34,0,0,1,1.62-.38A3.16,3.16,0,0,1,116.21,455.76Z" transform="translate(-1.19 -1.19)"/><path class="cls-19" d="M129.6,464.15l-4-4.57h0v4.57h-1.59V451.33h1.59v7.47h0l3.69-3.79h2l-4.1,4.14,4.59,5Z" transform="translate(-1.19 -1.19)"/><path class="cls-19" d="M137.67,455v1.42l-.63-.05a2.5,2.5,0,0,0-2,.81,3.42,3.42,0,0,0-.7,2.32v4.66h-1.59V455h1.51v1.4h0a2.94,2.94,0,0,1,2.7-1.49A2.6,2.6,0,0,1,137.67,455Z" transform="translate(-1.19 -1.19)"/></g></g></svg>