<svg xmlns="http://www.w3.org/2000/svg" viewBox="0 0 331.76 553.26"><defs><style>.cls-1{font-size:24px;font-family:NeueHaasUnicaW06-Regular;}.cls-1,.cls-6{fill:#231f20;}.cls-2{letter-spacing:0.01em;}.cls-3{letter-spacing:0em;}.cls-4{letter-spacing:0.01em;}.cls-5{letter-spacing:0.01em;}.cls-7{fill:#fff;}</style></defs><title>Deep_Sea_Harbor</title><g id="Layer_2" data-name="Layer 2"><g id="Layer_1-2" data-name="Layer 1"><text class="cls-1" transform="translate(83.04 261.54)"><tspan class="cls-2">De</tspan><tspan class="cls-3" x="31.03" y="0">ep </tspan><tspan class="cls-4" x="63.57" y="0">s</tspan><tspan x="75.57" y="0">ea har</tspan><tspan class="cls-5" x="142.29" y="0">b</tspan><tspan x="156.36" y="0">our</tspan></text><path class="cls-6" d="M92.54,306.45A3.11,3.11,0,0,1,93.65,309a3.34,3.34,0,0,1-.66,2.09,3,3,0,0,1-1.79,1.11v0a2.09,2.09,0,0,1,1.1.72,6.41,6.41,0,0,1,.83,1.69l1.31,3.69h-1.8L91.47,315a3.52,3.52,0,0,0-.92-1.59A2.5,2.5,0,0,0,89,313H86.74v5.4H85.08V305.55h4.07A5.36,5.36,0,0,1,92.54,306.45Zm-5.8,5.11h2.39a3,3,0,0,0,2.14-.66,2.3,2.3,0,0,0,.69-1.75C92,307.69,91,307,89,307H86.74Z" transform="translate(-0.33 -0.33)"/><path class="cls-6" d="M102.21,309.86a3.47,3.47,0,0,1,1,2.65V316a11,11,0,0,0,.21,2.34h-1.44a6.56,6.56,0,0,1-.12-1.33h0a3.18,3.18,0,0,1-1.28,1.13,4.12,4.12,0,0,1-1.89.4,3.29,3.29,0,0,1-2.25-.75,2.45,2.45,0,0,1-.84-1.93,2.39,2.39,0,0,1,.78-1.88A5.4,5.4,0,0,1,99,313c.89-.15,1.77-.25,2.65-.31v-.36a2.17,2.17,0,0,0-.55-1.62,2.13,2.13,0,0,0-1.52-.52,2.17,2.17,0,0,0-1.52.5,1.8,1.8,0,0,0-.57,1.32H95.88a3,3,0,0,1,1-2.2,3.88,3.88,0,0,1,2.65-.84A3.68,3.68,0,0,1,102.21,309.86Zm-3,4.33a3.79,3.79,0,0,0-1.63.54,1.23,1.23,0,0,0-.47,1,1.41,1.41,0,0,0,.49,1.14,2,2,0,0,0,1.38.43,3.05,3.05,0,0,0,1-.19,2.56,2.56,0,0,0,.84-.53,2.53,2.53,0,0,0,.57-.89,3.89,3.89,0,0,0,.17-1.27v-.56A24,24,0,0,0,99.23,314.19Z" transform="translate(-0.33 -0.33)"/><path class="cls-6" d="M112.64,310a4.06,4.06,0,0,1,.87,2.81v5.58h-1.59v-5.45a2.94,2.94,0,0,0-.54-2,2,2,0,0,0-1.56-.6,2.22,2.22,0,0,0-1.71.73,3,3,0,0,0-.67,2.07v5.24h-1.58v-9.14h1.53v1.2h0a3.07,3.07,0,0,1,1.15-1,3.46,3.46,0,0,1,1.62-.38A3.14,3.14,0,0,1,112.64,310Z" transform="translate(-0.33 -0.33)"/><path class="cls-6" d="M122.14,309.86a3.47,3.47,0,0,1,.94,2.65V316a10.33,10.33,0,0,0,.22,2.34h-1.44a5.88,5.88,0,0,1-.13-1.33h0a3.25,3.25,0,0,1-1.28,1.13,4.12,4.12,0,0,1-1.89.4,3.25,3.25,0,0,1-2.25-.75,2.43,2.43,0,0,1-.85-1.93,2.39,2.39,0,0,1,.78-1.88,5.44,5.44,0,0,1,2.7-1c.88-.15,1.77-.25,2.64-.31v-.36a2.13,2.13,0,0,0-.55-1.62,2.09,2.09,0,0,0-1.52-.52,2.15,2.15,0,0,0-1.51.5,1.85,1.85,0,0,0-.58,1.32h-1.58a3,3,0,0,1,1-2.2,3.84,3.84,0,0,1,2.64-.84A3.71,3.71,0,0,1,122.14,309.86Zm-3,4.33a3.79,3.79,0,0,0-1.63.54,1.21,1.21,0,0,0-.48,1,1.42,1.42,0,0,0,.5,1.14,2,2,0,0,0,1.37.43,3.11,3.11,0,0,0,1.06-.19,2.42,2.42,0,0,0,.83-.53,2.56,2.56,0,0,0,.58-.89,3.93,3.93,0,0,0,.16-1.27v-.56C120.63,314,119.83,314.07,119.16,314.19Z" transform="translate(-0.33 -0.33)"/><path class="cls-6" d="M126.45,321h-1l.69-2.59h-.65v-2.1h1.94v2.1Z" transform="translate(-0.33 -0.33)"/><path class="cls-6" d="M141.21,306.36a4.08,4.08,0,0,1,1.15,3.15h-1.67a2.72,2.72,0,0,0-.75-2.1,3.13,3.13,0,0,0-2.19-.69,2.9,2.9,0,0,0-1.86.54,1.76,1.76,0,0,0-.68,1.45,1.66,1.66,0,0,0,.33,1.08,2.21,2.21,0,0,0,1,.66,12.72,12.72,0,0,0,1.81.55,16.56,16.56,0,0,1,2.37.74,3.46,3.46,0,0,1,1.44,1.11,3.32,3.32,0,0,1,.55,2,3.5,3.5,0,0,1-.57,2,3.77,3.77,0,0,1-1.6,1.33,5.87,5.87,0,0,1-2.42.46,5,5,0,0,1-3.53-1.15,4.31,4.31,0,0,1-1.26-3.35H135a3,3,0,0,0,.81,2.32,3.19,3.19,0,0,0,2.28.76,3.38,3.38,0,0,0,2.12-.59,2,2,0,0,0,.75-1.68,1.69,1.69,0,0,0-.34-1.09,2.14,2.14,0,0,0-1-.66,18.28,18.28,0,0,0-1.83-.55,14.74,14.74,0,0,1-2.36-.75,3.43,3.43,0,0,1-1.41-1.1,3.64,3.64,0,0,1,0-3.77,3.49,3.49,0,0,1,1.49-1.26,5.24,5.24,0,0,1,2.24-.45A4.92,4.92,0,0,1,141.21,306.36Z" transform="translate(-0.33 -0.33)"/><path class="cls-6" d="M148.82,317v1.3a4,4,0,0,1-1,.1,2.54,2.54,0,0,1-1.9-.61,2.86,2.86,0,0,1-.58-2v-5.33h-1.58v-1.26h1.58V307h1.58v2.22h1.82v1.26h-1.82v5.16a1.79,1.79,0,0,0,.29,1.14,1.2,1.2,0,0,0,1,.34A2.08,2.08,0,0,0,148.82,317Z" transform="translate(-0.33 -0.33)"/><path class="cls-6" d="M155.67,316.9a2.06,2.06,0,0,0,.8-1.27h1.62a3.58,3.58,0,0,1-1.3,2.13,4.75,4.75,0,0,1-5,.24,3.88,3.88,0,0,1-1.48-1.73,6.2,6.2,0,0,1-.51-2.61,5.58,5.58,0,0,1,.51-2.42,3.87,3.87,0,0,1,1.48-1.67A4.16,4.16,0,0,1,154,309a4,4,0,0,1,2.59.84,4.18,4.18,0,0,1,1.41,2.34,8.59,8.59,0,0,1,.18,2h-6.84a3.75,3.75,0,0,0,.8,2.45,2.48,2.48,0,0,0,1.92.83A2.55,2.55,0,0,0,155.67,316.9Zm-3.48-6a3.17,3.17,0,0,0-.83,2h5.26a3.27,3.27,0,0,0-.83-2,2.41,2.41,0,0,0-1.79-.7A2.45,2.45,0,0,0,152.19,310.9Z" transform="translate(-0.33 -0.33)"/><path class="cls-6" d="M160.32,307.33v-1.78h1.59v1.78Zm0,11v-9.14h1.59v9.14Z" transform="translate(-0.33 -0.33)"/><path class="cls-6" d="M170.65,310.55h0v-1.33h1.53v8.58a3.6,3.6,0,0,1-4,4,4.35,4.35,0,0,1-2.74-.78,2.63,2.63,0,0,1-1-2.12H166a1.52,1.52,0,0,0,.62,1.23,2.54,2.54,0,0,0,1.59.44,2.33,2.33,0,0,0,1.84-.68,3.37,3.37,0,0,0,.59-2.2v-1h0a3.09,3.09,0,0,1-2.72,1.53,3.64,3.64,0,0,1-2-.57,3.77,3.77,0,0,1-1.36-1.63,6.62,6.62,0,0,1,0-4.9,3.69,3.69,0,0,1,1.36-1.62,3.64,3.64,0,0,1,2-.57A3,3,0,0,1,170.65,310.55Zm-4.27.66a4.61,4.61,0,0,0,0,4.82,2.12,2.12,0,0,0,1.79.91,2.23,2.23,0,0,0,1.87-.89,3.85,3.85,0,0,0,.69-2.42,3.89,3.89,0,0,0-.69-2.44,2.23,2.23,0,0,0-1.87-.89A2.12,2.12,0,0,0,166.38,311.21Z" transform="translate(-0.33 -0.33)"/><path class="cls-6" d="M180.28,316.9a2.1,2.1,0,0,0,.8-1.27h1.62a3.6,3.6,0,0,1-1.31,2.13,4.73,4.73,0,0,1-5,.24,3.82,3.82,0,0,1-1.48-1.73,6,6,0,0,1-.52-2.61,5.44,5.44,0,0,1,.52-2.42,3.92,3.92,0,0,1,1.47-1.67,4.19,4.19,0,0,1,2.26-.6,4,4,0,0,1,2.58.84,4.14,4.14,0,0,1,1.42,2.34,8.59,8.59,0,0,1,.18,2H176a3.7,3.7,0,0,0,.8,2.45,2.46,2.46,0,0,0,1.91.83A2.58,2.58,0,0,0,180.28,316.9Zm-3.49-6a3.23,3.23,0,0,0-.83,2h5.26a3.16,3.16,0,0,0-.83-2,2.4,2.4,0,0,0-1.78-.7A2.47,2.47,0,0,0,176.79,310.9Z" transform="translate(-0.33 -0.33)"/><path class="cls-6" d="M191.71,310a4.06,4.06,0,0,1,.87,2.81v5.58H191v-5.45a2.94,2.94,0,0,0-.54-2,2,2,0,0,0-1.56-.6,2.2,2.2,0,0,0-1.7.73,3,3,0,0,0-.68,2.07v5.24h-1.58v-9.14h1.53v1.2h0a3.1,3.1,0,0,1,1.16-1,3.46,3.46,0,0,1,1.62-.38A3.13,3.13,0,0,1,191.71,310Z" transform="translate(-0.33 -0.33)"/><path class="cls-6" d="M207.52,316.92a5,5,0,0,1-1.8,1.26,5.72,5.72,0,0,1-2.25.45,5.51,5.51,0,0,1-2.37-.47,3.58,3.58,0,0,1-1.56-1.29A3.42,3.42,0,0,1,199,315a3.56,3.56,0,0,1,.7-2.19,5.53,5.53,0,0,1,2.15-1.64,6.51,6.51,0,0,1-1.17-1.52,3.25,3.25,0,0,1-.31-1.47,2.64,2.64,0,0,1,.88-2.05,3.33,3.33,0,0,1,2.31-.8,3.26,3.26,0,0,1,2.29.78,2.59,2.59,0,0,1,.86,2,3.19,3.19,0,0,1-.55,1.86,5.66,5.66,0,0,1-1.88,1.51l3.17,3.19a7,7,0,0,0,.79-3.46h1.62a10,10,0,0,1-.34,2.5,6.79,6.79,0,0,1-1,2.07l2.59,2.61h-2.21Zm-1-1-3.73-3.78a4.6,4.6,0,0,0-1.61,1.24,2.56,2.56,0,0,0-.46,1.52,2,2,0,0,0,.79,1.66,3.11,3.11,0,0,0,2.08.66A3.92,3.92,0,0,0,206.51,315.91Zm-4.14-8.84a1.45,1.45,0,0,0-.43,1.12,2,2,0,0,0,.28,1.06,7.35,7.35,0,0,0,1.1,1.3,4.08,4.08,0,0,0,1.44-1.12,2.12,2.12,0,0,0,.4-1.26,1.42,1.42,0,0,0-.43-1.09,1.61,1.61,0,0,0-1.17-.42A1.67,1.67,0,0,0,202.37,307.07Z" transform="translate(-0.33 -0.33)"/><path class="cls-6" d="M224.5,306.42a2.88,2.88,0,0,1,1.09,2.38,3.13,3.13,0,0,1-.54,1.85,3.2,3.2,0,0,1-1.58,1.14v0a3.14,3.14,0,0,1,1.78,1.05,3,3,0,0,1,.63,1.95,3.2,3.2,0,0,1-1.14,2.58,4.74,4.74,0,0,1-3.13.95h-4.52V305.55h4.18A5.1,5.1,0,0,1,224.5,306.42Zm-5.75,4.72h2.39c1.88,0,2.81-.7,2.81-2.1a1.9,1.9,0,0,0-.65-1.57,3.35,3.35,0,0,0-2.08-.52h-2.47Zm0,5.82h2.63q2.79,0,2.79-2.22c0-1.47-1-2.21-3-2.21h-2.39Z" transform="translate(-0.33 -0.33)"/><path class="cls-6" d="M234.93,310.26a5.91,5.91,0,0,1,0,7.06,4.56,4.56,0,0,1-6.36,0,6,6,0,0,1,0-7.06,4.56,4.56,0,0,1,6.36,0Zm-5.15.95a5,5,0,0,0,0,5.16,2.53,2.53,0,0,0,3.95,0,5,5,0,0,0,0-5.16,2.53,2.53,0,0,0-3.95,0Z" transform="translate(-0.33 -0.33)"/><path class="cls-6" d="M244.44,318.36V317h0a2.68,2.68,0,0,1-1.13,1.13,3.33,3.33,0,0,1-1.68.42,3.46,3.46,0,0,1-2-.6,3.65,3.65,0,0,1-1.34-1.68,7,7,0,0,1,0-5.06,3.72,3.72,0,0,1,1.33-1.67,3.5,3.5,0,0,1,2-.59,3.44,3.44,0,0,1,1.67.41,2.68,2.68,0,0,1,1.12,1.09h0v-4.93H246v12.81Zm-4.32-7.14a4.17,4.17,0,0,0-.71,2.55,4.26,4.26,0,0,0,.71,2.57,2.19,2.19,0,0,0,1.87,1,2.16,2.16,0,0,0,1.82-.95,4.41,4.41,0,0,0,.68-2.58,4.32,4.32,0,0,0-.68-2.56,2.16,2.16,0,0,0-1.82-.95A2.19,2.19,0,0,0,240.12,311.22Z" transform="translate(-0.33 -0.33)"/><path class="cls-6" d="M256.54,311.85a6.27,6.27,0,0,1,.28,1.94,5.08,5.08,0,0,1-1.17,3.53,4.09,4.09,0,0,1-3.19,1.29,4.28,4.28,0,0,1-2.48-.68l-.92,1.19-.77-.6,1-1.26a6,6,0,0,1,0-7,4,4,0,0,1,3.17-1.29,4.38,4.38,0,0,1,2.51.7l.93-1.23.78.63-1,1.26A4.36,4.36,0,0,1,256.54,311.85Zm-6.07-.67a4.13,4.13,0,0,0-.74,2.61,4.56,4.56,0,0,0,.47,2.2l3.92-5.19a2.46,2.46,0,0,0-1.66-.57A2.36,2.36,0,0,0,250.47,311.18Zm4,5.22a4.19,4.19,0,0,0,.74-2.61,4.61,4.61,0,0,0-.49-2.2l-3.9,5.21a2.46,2.46,0,0,0,1.63.55A2.39,2.39,0,0,0,254.48,316.4Z" transform="translate(-0.33 -0.33)"/><path class="cls-6" d="M92.54,349.65a3.11,3.11,0,0,1,1.11,2.57,3.34,3.34,0,0,1-.66,2.09,3,3,0,0,1-1.79,1.11v0a2.09,2.09,0,0,1,1.1.72,6.41,6.41,0,0,1,.83,1.69l1.31,3.69h-1.8l-1.17-3.38a3.52,3.52,0,0,0-.92-1.59,2.5,2.5,0,0,0-1.56-.43H86.74v5.4H85.08V348.75h4.07A5.36,5.36,0,0,1,92.54,349.65Zm-5.8,5.11h2.39a3,3,0,0,0,2.14-.66,2.3,2.3,0,0,0,.69-1.75c0-1.46-1-2.18-2.93-2.18H86.74Z" transform="translate(-0.33 -0.33)"/><path class="cls-6" d="M102.21,353.06a3.47,3.47,0,0,1,1,2.65v3.51a11,11,0,0,0,.21,2.34h-1.44a6.56,6.56,0,0,1-.12-1.33h0a3.18,3.18,0,0,1-1.28,1.13,4.12,4.12,0,0,1-1.89.4,3.29,3.29,0,0,1-2.25-.75,2.45,2.45,0,0,1-.84-1.93,2.39,2.39,0,0,1,.78-1.88,5.4,5.4,0,0,1,2.69-1c.89-.15,1.77-.25,2.65-.31v-.36a2.17,2.17,0,0,0-.55-1.62,2.13,2.13,0,0,0-1.52-.52,2.17,2.17,0,0,0-1.52.5,1.8,1.8,0,0,0-.57,1.32H95.88a3,3,0,0,1,1-2.2,3.88,3.88,0,0,1,2.65-.84A3.68,3.68,0,0,1,102.21,353.06Zm-3,4.33a3.79,3.79,0,0,0-1.63.54,1.23,1.23,0,0,0-.47,1,1.41,1.41,0,0,0,.49,1.14,2.07,2.07,0,0,0,1.38.43,3.05,3.05,0,0,0,1-.19,2.56,2.56,0,0,0,.84-.53,2.53,2.53,0,0,0,.57-.89,3.89,3.89,0,0,0,.17-1.27v-.56A24,24,0,0,0,99.23,357.39Z" transform="translate(-0.33 -0.33)"/><path class="cls-6" d="M112.27,352.77a3.74,3.74,0,0,1,1.34,1.67,7,7,0,0,1,0,5.06,3.7,3.7,0,0,1-1.33,1.68,3.64,3.64,0,0,1-3.68.19,2.7,2.7,0,0,1-1.12-1.1h0v4.62h-1.58V352.42h1.56v1.31h0a2.58,2.58,0,0,1,1.11-1.13,3.43,3.43,0,0,1,1.68-.42A3.53,3.53,0,0,1,112.27,352.77ZM108,354.41a4.32,4.32,0,0,0-.67,2.56,4.41,4.41,0,0,0,.67,2.58,2.13,2.13,0,0,0,1.81.95,2.19,2.19,0,0,0,1.87-1,4.28,4.28,0,0,0,.71-2.57,4.17,4.17,0,0,0-.71-2.55,2.19,2.19,0,0,0-1.87-1A2.13,2.13,0,0,0,108,354.41Z" transform="translate(-0.33 -0.33)"/><path class="cls-6" d="M116.22,350.53v-1.78h1.59v1.78Zm0,11v-9.14h1.59v9.14Z" transform="translate(-0.33 -0.33)"/><path class="cls-6" d="M126.63,361.56v-1.33h0a2.71,2.71,0,0,1-1.12,1.13,3.39,3.39,0,0,1-1.69.42,3.46,3.46,0,0,1-2-.6,3.71,3.71,0,0,1-1.34-1.68,7,7,0,0,1,0-5.06,3.72,3.72,0,0,1,1.33-1.67,3.51,3.51,0,0,1,2-.59,3.43,3.43,0,0,1,1.66.41,2.76,2.76,0,0,1,1.13,1.09h0v-4.93h1.58v12.81Zm-4.32-7.14a4.17,4.17,0,0,0-.7,2.55,4.27,4.27,0,0,0,.7,2.57,2.19,2.19,0,0,0,1.87,1,2.15,2.15,0,0,0,1.82-.95,4.41,4.41,0,0,0,.68-2.58,4.32,4.32,0,0,0-.68-2.56,2.15,2.15,0,0,0-1.82-1A2.19,2.19,0,0,0,122.31,354.42Z" transform="translate(-0.33 -0.33)"/><path class="cls-6" d="M131,361.56V348.75h1.59v12.81Z" transform="translate(-0.33 -0.33)"/><path class="cls-6" d="M138,363.8a2.71,2.71,0,0,1-1.15.9,4.47,4.47,0,0,1-1.67.26,2.93,2.93,0,0,1-.83-.09v-1.33a2.49,2.49,0,0,0,.76.11,2.39,2.39,0,0,0,1-.18,1.61,1.61,0,0,0,.67-.61,6.83,6.83,0,0,0,.6-1.26l-3.48-9.18h1.71l2.63,7.27h0l2.66-7.27h1.67L138.9,362A7.06,7.06,0,0,1,138,363.8Z" transform="translate(-0.33 -0.33)"/><path class="cls-6" d="M153.92,353.06a3.47,3.47,0,0,1,1,2.65v3.51a11,11,0,0,0,.21,2.34h-1.44a6.56,6.56,0,0,1-.12-1.33h0a3.18,3.18,0,0,1-1.28,1.13,4.06,4.06,0,0,1-1.89.4,3.29,3.29,0,0,1-2.25-.75,2.45,2.45,0,0,1-.84-1.93,2.39,2.39,0,0,1,.78-1.88,5.4,5.4,0,0,1,2.69-1c.89-.15,1.77-.25,2.65-.31v-.36a2.17,2.17,0,0,0-.55-1.62,2.11,2.11,0,0,0-1.52-.52,2.15,2.15,0,0,0-1.51.5,1.81,1.81,0,0,0-.58,1.32H147.6a3,3,0,0,1,1-2.2,3.88,3.88,0,0,1,2.65-.84A3.68,3.68,0,0,1,153.92,353.06Zm-3,4.33a3.84,3.84,0,0,0-1.63.54,1.23,1.23,0,0,0-.47,1,1.41,1.41,0,0,0,.49,1.14,2.07,2.07,0,0,0,1.38.43,3.05,3.05,0,0,0,1-.19,2.41,2.41,0,0,0,1.42-1.42,4.22,4.22,0,0,0,.16-1.27v-.56C152.41,357.17,151.62,357.27,150.94,357.39Z" transform="translate(-0.33 -0.33)"/><path class="cls-6" d="M164,352.77a3.76,3.76,0,0,1,1.35,1.67,7.19,7.19,0,0,1,0,5.06,3.78,3.78,0,0,1-1.34,1.68,3.41,3.41,0,0,1-2,.6,3.47,3.47,0,0,1-1.67-.41,2.7,2.7,0,0,1-1.12-1.1h0v4.62h-1.58V352.42h1.56v1.31h0a2.55,2.55,0,0,1,1.12-1.13,3.37,3.37,0,0,1,1.67-.42A3.53,3.53,0,0,1,164,352.77Zm-4.23,1.64a4.32,4.32,0,0,0-.67,2.56,4.41,4.41,0,0,0,.67,2.58,2.13,2.13,0,0,0,1.81.95,2.22,2.22,0,0,0,1.88-1,4.35,4.35,0,0,0,.7-2.57,4.24,4.24,0,0,0-.7-2.55,2.22,2.22,0,0,0-1.88-1A2.13,2.13,0,0,0,159.75,354.41Z" transform="translate(-0.33 -0.33)"/><path class="cls-6" d="M174.35,352.77a3.74,3.74,0,0,1,1.34,1.67,7,7,0,0,1,0,5.06,3.7,3.7,0,0,1-1.33,1.68,3.64,3.64,0,0,1-3.68.19,2.7,2.7,0,0,1-1.12-1.1h0v4.62h-1.58V352.42h1.56v1.31h0a2.58,2.58,0,0,1,1.11-1.13,3.43,3.43,0,0,1,1.68-.42A3.53,3.53,0,0,1,174.35,352.77Zm-4.23,1.64a4.32,4.32,0,0,0-.67,2.56,4.41,4.41,0,0,0,.67,2.58,2.13,2.13,0,0,0,1.81.95,2.19,2.19,0,0,0,1.87-1,4.28,4.28,0,0,0,.71-2.57,4.17,4.17,0,0,0-.71-2.55,2.19,2.19,0,0,0-1.87-1A2.13,2.13,0,0,0,170.12,354.41Z" transform="translate(-0.33 -0.33)"/><path class="cls-6" d="M183.22,352.4v1.42l-.63-.05a2.5,2.5,0,0,0-2,.81,3.42,3.42,0,0,0-.7,2.32v4.66H178.3v-9.14h1.51v1.4h0a3,3,0,0,1,2.7-1.49A2.6,2.6,0,0,1,183.22,352.4Z" transform="translate(-0.33 -0.33)"/><path class="cls-6" d="M191.34,353.46a5.91,5.91,0,0,1,0,7.06,4.58,4.58,0,0,1-6.37,0,6,6,0,0,1,0-7.06,4.58,4.58,0,0,1,6.37,0Zm-5.15,1a5,5,0,0,0,0,5.16,2.33,2.33,0,0,0,2,.95,2.36,2.36,0,0,0,2-.95,5,5,0,0,0,0-5.16,2.36,2.36,0,0,0-2-1A2.33,2.33,0,0,0,186.19,354.41Z" transform="translate(-0.33 -0.33)"/><path class="cls-6" d="M200.56,353.06a3.47,3.47,0,0,1,.95,2.65v3.51a11,11,0,0,0,.21,2.34h-1.44a6.56,6.56,0,0,1-.12-1.33h0a3.25,3.25,0,0,1-1.28,1.13,4.12,4.12,0,0,1-1.89.4,3.29,3.29,0,0,1-2.25-.75,2.45,2.45,0,0,1-.84-1.93,2.39,2.39,0,0,1,.78-1.88,5.4,5.4,0,0,1,2.69-1c.89-.15,1.77-.25,2.65-.31v-.36a2.17,2.17,0,0,0-.55-1.62,2.13,2.13,0,0,0-1.52-.52,2.17,2.17,0,0,0-1.52.5,1.8,1.8,0,0,0-.57,1.32h-1.59a3,3,0,0,1,1-2.2,3.88,3.88,0,0,1,2.65-.84A3.7,3.7,0,0,1,200.56,353.06Zm-3,4.33a3.79,3.79,0,0,0-1.63.54,1.21,1.21,0,0,0-.47,1,1.41,1.41,0,0,0,.49,1.14,2.07,2.07,0,0,0,1.38.43,3.05,3.05,0,0,0,1.05-.19,2.56,2.56,0,0,0,.84-.53,2.53,2.53,0,0,0,.57-.89,3.89,3.89,0,0,0,.17-1.27v-.56A24,24,0,0,0,197.58,357.39Z" transform="translate(-0.33 -0.33)"/><path class="cls-6" d="M209.78,352.61a3.44,3.44,0,0,1,1.36,1.23,3.83,3.83,0,0,1,.61,1.82h-1.66a2.5,2.5,0,0,0-.71-1.59,2.15,2.15,0,0,0-1.56-.61,2.27,2.27,0,0,0-1.91,1,4.29,4.29,0,0,0-.7,2.58,4.23,4.23,0,0,0,.7,2.58,2.24,2.24,0,0,0,1.91.95,2,2,0,0,0,1.56-.66,2.71,2.71,0,0,0,.71-1.66h1.66a4.17,4.17,0,0,1-.6,1.86,3.67,3.67,0,0,1-1.36,1.29,4,4,0,0,1-1.95.46,4.36,4.36,0,0,1-2.29-.58,3.91,3.91,0,0,1-1.49-1.67,5.9,5.9,0,0,1-.52-2.57,5.82,5.82,0,0,1,.52-2.56,3.88,3.88,0,0,1,1.49-1.68,4.36,4.36,0,0,1,2.29-.58A4.11,4.11,0,0,1,209.78,352.61Z" transform="translate(-0.33 -0.33)"/><path class="cls-6" d="M215.44,353.57a2.93,2.93,0,0,1,1.17-1,3.5,3.5,0,0,1,1.54-.34,3.14,3.14,0,0,1,2.45.95,4.06,4.06,0,0,1,.87,2.81v5.58h-1.59v-5.45a2.94,2.94,0,0,0-.54-2,2,2,0,0,0-1.56-.6,2.2,2.2,0,0,0-1.7.73,3,3,0,0,0-.68,2.07v5.24h-1.58V348.75h1.58v4.82Z" transform="translate(-0.33 -0.33)"/><path class="cls-6" d="M224.18,350.53v-1.78h1.59v1.78Zm0,11v-9.14h1.59v9.14Z" transform="translate(-0.33 -0.33)"/><path class="cls-6" d="M235.36,353.17a4.06,4.06,0,0,1,.87,2.81v5.58h-1.59v-5.45a2.94,2.94,0,0,0-.54-2,2,2,0,0,0-1.56-.6,2.22,2.22,0,0,0-1.71.73,3,3,0,0,0-.67,2.07v5.24h-1.58v-9.14h1.53v1.2h0a3.07,3.07,0,0,1,1.15-1,3.46,3.46,0,0,1,1.62-.38A3.14,3.14,0,0,1,235.36,353.17Z" transform="translate(-0.33 -0.33)"/><path class="cls-6" d="M244.88,353.75h0v-1.33h1.53V361a3.6,3.6,0,0,1-4,4,4.33,4.33,0,0,1-2.74-.78,2.63,2.63,0,0,1-1-2.12h1.59a1.52,1.52,0,0,0,.62,1.23,2.54,2.54,0,0,0,1.59.44,2.33,2.33,0,0,0,1.84-.68,3.37,3.37,0,0,0,.59-2.2v-1h0a3.09,3.09,0,0,1-2.72,1.53,3.69,3.69,0,0,1-2.05-.57,3.82,3.82,0,0,1-1.35-1.63,6.62,6.62,0,0,1,0-4.9,3.74,3.74,0,0,1,1.35-1.62,3.69,3.69,0,0,1,2.05-.57A3,3,0,0,1,244.88,353.75Zm-4.27.66a4.61,4.61,0,0,0,0,4.82,2.12,2.12,0,0,0,1.79.91,2.23,2.23,0,0,0,1.87-.89,4.62,4.62,0,0,0,0-4.86,2.23,2.23,0,0,0-1.87-.89A2.12,2.12,0,0,0,240.61,354.41Z" transform="translate(-0.33 -0.33)"/><path class="cls-6" d="M257.27,360.23v1.3a4.09,4.09,0,0,1-1,.1,2.52,2.52,0,0,1-1.9-.61,2.86,2.86,0,0,1-.58-2v-5.33h-1.59v-1.26h1.59V350.2h1.58v2.22h1.82v1.26h-1.82v5.16a1.79,1.79,0,0,0,.29,1.14,1.19,1.19,0,0,0,1,.34A2.08,2.08,0,0,0,257.27,360.23Z" transform="translate(-0.33 -0.33)"/><path class="cls-6" d="M260.78,353.57a2.93,2.93,0,0,1,1.17-1,3.52,3.52,0,0,1,1.55-.34,3.13,3.13,0,0,1,2.44.95,4.06,4.06,0,0,1,.87,2.81v5.58h-1.59v-5.45a2.94,2.94,0,0,0-.54-2,2,2,0,0,0-1.56-.6,2.2,2.2,0,0,0-1.7.73,3,3,0,0,0-.68,2.07v5.24h-1.58V348.75h1.58v4.82Z" transform="translate(-0.33 -0.33)"/><path class="cls-6" d="M274.77,360.1a2,2,0,0,0,.8-1.27h1.62a3.58,3.58,0,0,1-1.3,2.13,4.73,4.73,0,0,1-5,.24,3.89,3.89,0,0,1-1.49-1.73,6.2,6.2,0,0,1-.51-2.61,5.58,5.58,0,0,1,.51-2.42,3.94,3.94,0,0,1,1.48-1.67,4.17,4.17,0,0,1,2.26-.6,4,4,0,0,1,2.58.84,4.18,4.18,0,0,1,1.41,2.34,8.59,8.59,0,0,1,.18,2h-6.84a3.81,3.81,0,0,0,.8,2.45,2.48,2.48,0,0,0,1.92.83A2.53,2.53,0,0,0,274.77,360.1Zm-3.48-6a3.17,3.17,0,0,0-.83,2h5.26a3.21,3.21,0,0,0-.83-2,2.4,2.4,0,0,0-1.78-.7A2.46,2.46,0,0,0,271.29,354.1Z" transform="translate(-0.33 -0.33)"/><path class="cls-6" d="M284.33,360.81a4.11,4.11,0,0,1-.85-2.81v-5.58h1.58v5.45a2.94,2.94,0,0,0,.54,2,2,2,0,0,0,1.57.6,2.19,2.19,0,0,0,1.69-.74,3,3,0,0,0,.68-2.06v-5.24h1.59v9.14H289.6v-1.2h0a3.1,3.1,0,0,1-1.16,1,3.53,3.53,0,0,1-1.63.38A3.12,3.12,0,0,1,284.33,360.81Z" transform="translate(-0.33 -0.33)"/><path class="cls-6" d="M300.35,352.77a3.74,3.74,0,0,1,1.34,1.67,7,7,0,0,1,0,5.06,3.76,3.76,0,0,1-1.33,1.68,3.64,3.64,0,0,1-3.68.19,2.73,2.73,0,0,1-1.13-1.1h0v4.62h-1.59V352.42h1.57v1.31h0a2.6,2.6,0,0,1,1.12-1.13,3.37,3.37,0,0,1,1.67-.42A3.56,3.56,0,0,1,300.35,352.77Zm-4.23,1.64a4.32,4.32,0,0,0-.68,2.56,4.41,4.41,0,0,0,.68,2.58,2.12,2.12,0,0,0,1.81.95,2.2,2.2,0,0,0,1.87-1,4.27,4.27,0,0,0,.7-2.57,4.17,4.17,0,0,0-.7-2.55,2.2,2.2,0,0,0-1.87-1A2.12,2.12,0,0,0,296.12,354.41Z" transform="translate(-0.33 -0.33)"/><path class="cls-6" d="M310.72,352.77a3.74,3.74,0,0,1,1.34,1.67,7,7,0,0,1,0,5.06,3.76,3.76,0,0,1-1.33,1.68,3.46,3.46,0,0,1-2,.6,3.4,3.4,0,0,1-1.66-.41,2.73,2.73,0,0,1-1.13-1.1h0v4.62H304.3V352.42h1.57v1.31h0A2.55,2.55,0,0,1,307,352.6a3.37,3.37,0,0,1,1.67-.42A3.56,3.56,0,0,1,310.72,352.77Zm-4.23,1.64a4.32,4.32,0,0,0-.68,2.56,4.41,4.41,0,0,0,.68,2.58,2.12,2.12,0,0,0,1.81.95,2.2,2.2,0,0,0,1.87-1,4.27,4.27,0,0,0,.7-2.57,4.17,4.17,0,0,0-.7-2.55,2.2,2.2,0,0,0-1.87-1A2.12,2.12,0,0,0,306.49,354.41Z" transform="translate(-0.33 -0.33)"/><path class="cls-6" d="M320.09,360.1a2.08,2.08,0,0,0,.81-1.27h1.62a3.6,3.6,0,0,1-1.31,2.13,4.73,4.73,0,0,1-5,.24,4,4,0,0,1-1.49-1.73,6.2,6.2,0,0,1-.51-2.61,5.58,5.58,0,0,1,.51-2.42,4,4,0,0,1,1.48-1.67,4.19,4.19,0,0,1,2.26-.6A4,4,0,0,1,321,353a4.2,4.2,0,0,1,1.42,2.34,8.59,8.59,0,0,1,.18,2h-6.84a3.7,3.7,0,0,0,.8,2.45,2.45,2.45,0,0,0,1.91.83A2.53,2.53,0,0,0,320.09,360.1Zm-3.48-6a3.23,3.23,0,0,0-.83,2H321a3.16,3.16,0,0,0-.83-2,2.4,2.4,0,0,0-1.78-.7A2.47,2.47,0,0,0,316.61,354.1Z" transform="translate(-0.33 -0.33)"/><path class="cls-6" d="M329.66,352.4v1.42l-.63-.05a2.51,2.51,0,0,0-2,.81,3.47,3.47,0,0,0-.7,2.32v4.66h-1.58v-9.14h1.51v1.4h0a3,3,0,0,1,2.7-1.49A2.52,2.52,0,0,1,329.66,352.4Z" transform="translate(-0.33 -0.33)"/><path class="cls-6" d="M84.78,383.16V370.35h1.58v12.81Z" transform="translate(-0.33 -0.33)"/><path class="cls-6" d="M89.17,372.13v-1.78h1.58v1.78Zm0,11V374h1.58v9.14Z" transform="translate(-0.33 -0.33)"/><path class="cls-6" d="M105.58,374.76a4.14,4.14,0,0,1,.8,2.75v5.65h-1.59v-5.52a3.16,3.16,0,0,0-.47-1.93,1.68,1.68,0,0,0-1.4-.59,1.85,1.85,0,0,0-1.57.77,3.39,3.39,0,0,0-.59,2.09v5.18H99.18V377.4a2.57,2.57,0,0,0-.49-1.68,1.66,1.66,0,0,0-1.37-.6,1.87,1.87,0,0,0-1.59.79,3.6,3.6,0,0,0-.58,2.18v5.07H93.56V374h1.53v1.13h0a3,3,0,0,1,2.55-1.33,3.09,3.09,0,0,1,1.66.44,2.73,2.73,0,0,1,1.06,1.29,3.15,3.15,0,0,1,2.9-1.73A2.84,2.84,0,0,1,105.58,374.76Z" transform="translate(-0.33 -0.33)"/><path class="cls-6" d="M109.09,372.13v-1.78h1.59v1.78Zm0,11V374h1.59v9.14Z" transform="translate(-0.33 -0.33)"/><path class="cls-6" d="M117.36,381.83v1.3a4.09,4.09,0,0,1-1,.1,2.52,2.52,0,0,1-1.9-.61,2.86,2.86,0,0,1-.59-2v-5.33h-1.58V374h1.58V371.8h1.59V374h1.82v1.26h-1.82v5.16a1.73,1.73,0,0,0,.29,1.14,1.19,1.19,0,0,0,1,.34A2.08,2.08,0,0,0,117.36,381.83Z" transform="translate(-0.33 -0.33)"/><path class="cls-6" d="M119.26,383.16v-2.1h1.95v2.1Z" transform="translate(-0.33 -0.33)"/><path class="cls-6" d="M128.12,383.16V370.35h1.66v12.81Z" transform="translate(-0.33 -0.33)"/><path class="cls-6" d="M136.76,381.83v1.3a4,4,0,0,1-1,.1,2.54,2.54,0,0,1-1.9-.61,2.86,2.86,0,0,1-.58-2v-5.33h-1.59V374h1.59V371.8h1.58V374h1.82v1.26h-1.82v5.16a1.79,1.79,0,0,0,.29,1.14,1.2,1.2,0,0,0,1,.34A2.08,2.08,0,0,0,136.76,381.83Z" transform="translate(-0.33 -0.33)"/><path class="cls-6" d="M142.79,372.13v-1.78h1.58v1.78Zm0,11V374h1.58v9.14Z" transform="translate(-0.33 -0.33)"/><path class="cls-6" d="M152.71,374.58a2.88,2.88,0,0,1,.93,2.3H152.1a1.78,1.78,0,0,0-.54-1.4,2.1,2.1,0,0,0-1.5-.49,2.16,2.16,0,0,0-1.3.35,1.12,1.12,0,0,0-.48,1,1.05,1.05,0,0,0,.22.72,1.55,1.55,0,0,0,.64.39,12.52,12.52,0,0,0,1.34.36,15.18,15.18,0,0,1,1.84.54,2.68,2.68,0,0,1,1.13.82,2.61,2.61,0,0,1-.5,3.55,5.1,5.1,0,0,1-5.45-.1,3.07,3.07,0,0,1-1-2.45h1.6a1.91,1.91,0,0,0,.59,1.5,2.35,2.35,0,0,0,1.66.53,2.48,2.48,0,0,0,1.44-.37,1.27,1.27,0,0,0,.29-1.8,1.59,1.59,0,0,0-.74-.46,14.92,14.92,0,0,0-1.53-.43,14.17,14.17,0,0,1-1.67-.49,2.4,2.4,0,0,1-1-.74,2.22,2.22,0,0,1-.42-1.45,2.32,2.32,0,0,1,.94-1.91,3.85,3.85,0,0,1,2.44-.73A3.9,3.9,0,0,1,152.71,374.58Z" transform="translate(-0.33 -0.33)"/><path class="cls-6" d="M160.21,372.13v-1.78h1.59v1.78Zm0,11V374h1.59v9.14Z" transform="translate(-0.33 -0.33)"/><path class="cls-6" d="M176.62,374.76a4.14,4.14,0,0,1,.8,2.75v5.65h-1.58v-5.52a3.09,3.09,0,0,0-.48-1.93,1.66,1.66,0,0,0-1.39-.59,1.87,1.87,0,0,0-1.58.77,3.39,3.39,0,0,0-.58,2.09v5.18h-1.59V377.4a2.62,2.62,0,0,0-.48-1.68,1.67,1.67,0,0,0-1.37-.6,1.87,1.87,0,0,0-1.6.79,3.6,3.6,0,0,0-.58,2.18v5.07h-1.58V374h1.53v1.13h0a3,3,0,0,1,2.56-1.33,3.06,3.06,0,0,1,1.65.44,2.74,2.74,0,0,1,1.07,1.29,3.12,3.12,0,0,1,2.89-1.73A2.81,2.81,0,0,1,176.62,374.76Z" transform="translate(-0.33 -0.33)"/><path class="cls-6" d="M186.56,374.37A3.81,3.81,0,0,1,187.9,376a7.19,7.19,0,0,1,0,5.06,3.78,3.78,0,0,1-1.34,1.68,3.41,3.41,0,0,1-2,.6,3.47,3.47,0,0,1-1.67-.41,2.76,2.76,0,0,1-1.12-1.1h0v4.62h-1.58V374h1.57v1.31h0a2.55,2.55,0,0,1,1.12-1.13,3.37,3.37,0,0,1,1.67-.42A3.59,3.59,0,0,1,186.56,374.37ZM182.33,376a4.32,4.32,0,0,0-.68,2.56,4.41,4.41,0,0,0,.68,2.58,2.11,2.11,0,0,0,1.8,1,2.22,2.22,0,0,0,1.88-1,4.25,4.25,0,0,0,.7-2.57A4.17,4.17,0,0,0,186,376a2.22,2.22,0,0,0-1.88-1A2.11,2.11,0,0,0,182.33,376Z" transform="translate(-0.33 -0.33)"/><path class="cls-6" d="M195.93,381.7a2,2,0,0,0,.8-1.27h1.62a3.53,3.53,0,0,1-1.3,2.13,4.73,4.73,0,0,1-5,.24,4,4,0,0,1-1.49-1.73,6.2,6.2,0,0,1-.51-2.61,5.58,5.58,0,0,1,.51-2.42,4,4,0,0,1,1.48-1.67,4.17,4.17,0,0,1,2.26-.6,4,4,0,0,1,2.58.84,4.18,4.18,0,0,1,1.41,2.34,8.59,8.59,0,0,1,.18,2H191.6a3.76,3.76,0,0,0,.81,2.45,2.45,2.45,0,0,0,1.91.83A2.53,2.53,0,0,0,195.93,381.7Zm-3.48-6a3.23,3.23,0,0,0-.83,2h5.26a3.21,3.21,0,0,0-.83-2,2.4,2.4,0,0,0-1.78-.7A2.46,2.46,0,0,0,192.45,375.7Z" transform="translate(-0.33 -0.33)"/><path class="cls-6" d="M205.5,374v1.42l-.63-.05a2.51,2.51,0,0,0-2,.81,3.42,3.42,0,0,0-.7,2.32v4.66h-1.58V374h1.51v1.4h0a3,3,0,0,1,2.7-1.49A2.55,2.55,0,0,1,205.5,374Z" transform="translate(-0.33 -0.33)"/><path class="cls-6" d="M212.6,374.66a3.47,3.47,0,0,1,1,2.65v3.51a11,11,0,0,0,.21,2.34h-1.44a6.56,6.56,0,0,1-.12-1.33h0a3.18,3.18,0,0,1-1.28,1.13,4.12,4.12,0,0,1-1.89.4,3.29,3.29,0,0,1-2.25-.75,2.45,2.45,0,0,1-.84-1.93,2.39,2.39,0,0,1,.78-1.88,5.4,5.4,0,0,1,2.69-1c.89-.15,1.77-.25,2.65-.31v-.36a2.17,2.17,0,0,0-.55-1.62A2.13,2.13,0,0,0,210,375a2.17,2.17,0,0,0-1.52.5,1.8,1.8,0,0,0-.57,1.32h-1.59a3,3,0,0,1,1-2.2,3.88,3.88,0,0,1,2.65-.84A3.68,3.68,0,0,1,212.6,374.66Zm-3,4.33a3.79,3.79,0,0,0-1.63.54,1.23,1.23,0,0,0-.47,1,1.41,1.41,0,0,0,.49,1.14,2,2,0,0,0,1.38.43,3.05,3.05,0,0,0,1.05-.19,2.56,2.56,0,0,0,.84-.53,2.47,2.47,0,0,0,.57-.9,3.78,3.78,0,0,0,.17-1.26v-.56A24,24,0,0,0,209.62,379Z" transform="translate(-0.33 -0.33)"/><path class="cls-6" d="M219.94,381.83v1.3a4.09,4.09,0,0,1-1,.1,2.52,2.52,0,0,1-1.9-.61,2.86,2.86,0,0,1-.59-2v-5.33h-1.58V374h1.58V371.8H218V374h1.82v1.26H218v5.16a1.73,1.73,0,0,0,.29,1.14,1.19,1.19,0,0,0,1,.34A2.08,2.08,0,0,0,219.94,381.83Z" transform="translate(-0.33 -0.33)"/><path class="cls-6" d="M221.83,372.13v-1.78h1.58v1.78Zm0,11V374h1.58v9.14Z" transform="translate(-0.33 -0.33)"/><path class="cls-6" d="M228,383.16,224.71,374h1.69l1.29,3.83c.56,1.65,1,3,1.34,4.07h0c.48-1.54.92-2.89,1.32-4.07l1.31-3.83h1.69l-3.31,9.14Z" transform="translate(-0.33 -0.33)"/><path class="cls-6" d="M239.87,381.7a2.06,2.06,0,0,0,.8-1.27h1.62a3.58,3.58,0,0,1-1.3,2.13,4.73,4.73,0,0,1-5,.24,3.89,3.89,0,0,1-1.49-1.73,6.2,6.2,0,0,1-.51-2.61,5.58,5.58,0,0,1,.51-2.42,3.87,3.87,0,0,1,1.48-1.67,4.17,4.17,0,0,1,2.26-.6,4,4,0,0,1,2.58.84A4.18,4.18,0,0,1,242.2,377a8.59,8.59,0,0,1,.18,2h-6.84a3.75,3.75,0,0,0,.8,2.45,2.48,2.48,0,0,0,1.92.83A2.55,2.55,0,0,0,239.87,381.7Zm-3.48-6a3.17,3.17,0,0,0-.83,2h5.26a3.21,3.21,0,0,0-.83-2,2.4,2.4,0,0,0-1.78-.7A2.46,2.46,0,0,0,236.39,375.7Z" transform="translate(-0.33 -0.33)"/><path class="cls-6" d="M252.53,381.83v1.3a4,4,0,0,1-1,.1,2.52,2.52,0,0,1-1.9-.61,2.86,2.86,0,0,1-.59-2v-5.33h-1.58V374H249V371.8h1.59V374h1.81v1.26h-1.81v5.16a1.8,1.8,0,0,0,.28,1.14,1.23,1.23,0,0,0,1,.34A2,2,0,0,0,252.53,381.83Z" transform="translate(-0.33 -0.33)"/><path class="cls-6" d="M261,375.06a5.91,5.91,0,0,1,0,7.06,4.56,4.56,0,0,1-6.36,0,6,6,0,0,1,0-7.06,4.56,4.56,0,0,1,6.36,0Zm-5.14.95a5,5,0,0,0,0,5.16,2.33,2.33,0,0,0,2,.95,2.36,2.36,0,0,0,2-.95,5,5,0,0,0,0-5.16,2.36,2.36,0,0,0-2-.95A2.33,2.33,0,0,0,255.85,376Z" transform="translate(-0.33 -0.33)"/><path class="cls-6" d="M268.45,372.13v-1.78H270v1.78Zm0,11V374H270v9.14Z" transform="translate(-0.33 -0.33)"/><path class="cls-6" d="M279.62,374.77a4.06,4.06,0,0,1,.87,2.81v5.58H278.9v-5.45a2.94,2.94,0,0,0-.54-2,2,2,0,0,0-1.56-.6,2.2,2.2,0,0,0-1.7.73,3,3,0,0,0-.68,2.07v5.24h-1.58V374h1.53v1.2h0a3.1,3.1,0,0,1,1.16-1,3.43,3.43,0,0,1,1.62-.38A3.13,3.13,0,0,1,279.62,374.77Z" transform="translate(-0.33 -0.33)"/><path class="cls-6" d="M284.65,383.16,281.33,374H283l1.29,3.83c.55,1.65,1,3,1.33,4.07h0c.48-1.54.92-2.89,1.31-4.07l1.32-3.83H290l-3.31,9.14Z" transform="translate(-0.33 -0.33)"/><path class="cls-6" d="M296.5,381.7a2.1,2.1,0,0,0,.8-1.27h1.62a3.55,3.55,0,0,1-1.31,2.13,4.17,4.17,0,0,1-2.72.85,4.24,4.24,0,0,1-2.31-.61,3.93,3.93,0,0,1-1.48-1.73,6.2,6.2,0,0,1-.52-2.61,5.58,5.58,0,0,1,.52-2.42,3.92,3.92,0,0,1,1.47-1.67,4.22,4.22,0,0,1,2.26-.6,4,4,0,0,1,2.59.84,4.18,4.18,0,0,1,1.41,2.34,8.59,8.59,0,0,1,.18,2h-6.84a3.75,3.75,0,0,0,.8,2.45,2.48,2.48,0,0,0,1.92.83A2.55,2.55,0,0,0,296.5,381.7Zm-3.48-6a3.17,3.17,0,0,0-.83,2h5.25a3.2,3.2,0,0,0-.82-2,2.65,2.65,0,0,0-3.6,0Z" transform="translate(-0.33 -0.33)"/><path class="cls-6" d="M306.79,374.58a2.88,2.88,0,0,1,.93,2.3h-1.55a1.77,1.77,0,0,0-.53-1.4,2.1,2.1,0,0,0-1.5-.49,2.21,2.21,0,0,0-1.31.35,1.14,1.14,0,0,0-.47,1,1.05,1.05,0,0,0,.22.72,1.49,1.49,0,0,0,.64.39,12.88,12.88,0,0,0,1.33.36,14.89,14.89,0,0,1,1.85.54,2.75,2.75,0,0,1,1.13.82,2.35,2.35,0,0,1,.48,1.56,2.39,2.39,0,0,1-1,2,5.12,5.12,0,0,1-5.46-.1,3.1,3.1,0,0,1-1-2.45h1.6a1.91,1.91,0,0,0,.58,1.5,2.38,2.38,0,0,0,1.67.53,2.48,2.48,0,0,0,1.44-.37,1.18,1.18,0,0,0,.54-1,1.22,1.22,0,0,0-.25-.81,1.65,1.65,0,0,0-.74-.46,15.72,15.72,0,0,0-1.53-.43,15.07,15.07,0,0,1-1.68-.49,2.44,2.44,0,0,1-1-.74,2.16,2.16,0,0,1-.43-1.45,2.33,2.33,0,0,1,1-1.91,3.85,3.85,0,0,1,2.44-.73A3.92,3.92,0,0,1,306.79,374.58Z" transform="translate(-0.33 -0.33)"/><path class="cls-6" d="M314,381.83v1.3a4,4,0,0,1-1,.1,2.54,2.54,0,0,1-1.9-.61,2.86,2.86,0,0,1-.58-2v-5.33h-1.59V374h1.59V371.8h1.58V374h1.82v1.26h-1.82v5.16a1.79,1.79,0,0,0,.29,1.14,1.2,1.2,0,0,0,1,.34A2.08,2.08,0,0,0,314,381.83Z" transform="translate(-0.33 -0.33)"/><path class="cls-6" d="M320.05,372.13v-1.78h1.58v1.78Zm0,11V374h1.58v9.14Z" transform="translate(-0.33 -0.33)"/><path class="cls-6" d="M331.23,374.77a4.11,4.11,0,0,1,.86,2.81v5.58h-1.58v-5.45a2.94,2.94,0,0,0-.54-2,2,2,0,0,0-1.57-.6,2.21,2.21,0,0,0-1.7.73,3,3,0,0,0-.67,2.07v5.24h-1.59V374H326v1.2h0a3.07,3.07,0,0,1,1.15-1,3.46,3.46,0,0,1,1.62-.38A3.16,3.16,0,0,1,331.23,374.77Z" transform="translate(-0.33 -0.33)"/><path class="cls-6" d="M90.3,396.18a2.85,2.85,0,0,1,.94,2.3H89.69a1.81,1.81,0,0,0-.53-1.4,2.1,2.1,0,0,0-1.5-.49,2.21,2.21,0,0,0-1.31.35,1.14,1.14,0,0,0-.47.95,1.05,1.05,0,0,0,.22.72,1.49,1.49,0,0,0,.64.39,12.88,12.88,0,0,0,1.33.36,15.43,15.43,0,0,1,1.85.54,2.75,2.75,0,0,1,1.13.82,2.35,2.35,0,0,1,.48,1.56,2.39,2.39,0,0,1-1,2,5.12,5.12,0,0,1-5.46-.1,3.1,3.1,0,0,1-1-2.45h1.6a1.91,1.91,0,0,0,.58,1.5,2.38,2.38,0,0,0,1.67.53,2.48,2.48,0,0,0,1.44-.37,1.18,1.18,0,0,0,.54-1,1.22,1.22,0,0,0-.25-.81,1.65,1.65,0,0,0-.74-.46c-.33-.12-.84-.26-1.53-.43a15.07,15.07,0,0,1-1.68-.49,2.54,2.54,0,0,1-1-.74,2.22,2.22,0,0,1-.42-1.45,2.33,2.33,0,0,1,.95-1.91,4.54,4.54,0,0,1,5.06.08Z" transform="translate(-0.33 -0.33)"/><path class="cls-6" d="M99,403.3a2.08,2.08,0,0,0,.81-1.27h1.62a3.6,3.6,0,0,1-1.31,2.13,4.73,4.73,0,0,1-5,.24,4,4,0,0,1-1.49-1.73,6.2,6.2,0,0,1-.51-2.61,5.58,5.58,0,0,1,.51-2.42A4,4,0,0,1,95.1,396a4.19,4.19,0,0,1,2.26-.6,4,4,0,0,1,2.58.84,4.2,4.2,0,0,1,1.42,2.34,8.59,8.59,0,0,1,.18,2H94.7a3.7,3.7,0,0,0,.8,2.45,2.45,2.45,0,0,0,1.91.83A2.53,2.53,0,0,0,99,403.3Zm-3.48-6a3.23,3.23,0,0,0-.83,2H100a3.16,3.16,0,0,0-.83-2,2.4,2.4,0,0,0-1.78-.7A2.47,2.47,0,0,0,95.54,397.3Z" transform="translate(-0.33 -0.33)"/><path class="cls-6" d="M109.59,396.26a3.47,3.47,0,0,1,1,2.65v3.51a11,11,0,0,0,.21,2.34h-1.44a6.56,6.56,0,0,1-.12-1.33h0a3.18,3.18,0,0,1-1.28,1.13,4.12,4.12,0,0,1-1.89.4,3.29,3.29,0,0,1-2.25-.75,2.45,2.45,0,0,1-.84-1.93,2.39,2.39,0,0,1,.78-1.88,5.4,5.4,0,0,1,2.69-1c.89-.15,1.77-.25,2.65-.31v-.36a2.17,2.17,0,0,0-.55-1.62,2.13,2.13,0,0,0-1.52-.52,2.17,2.17,0,0,0-1.52.5,1.8,1.8,0,0,0-.57,1.32h-1.59a3,3,0,0,1,1-2.2,3.88,3.88,0,0,1,2.65-.84A3.68,3.68,0,0,1,109.59,396.26Zm-3,4.33a3.79,3.79,0,0,0-1.63.54,1.21,1.21,0,0,0-.47,1,1.41,1.41,0,0,0,.49,1.14,2,2,0,0,0,1.38.43,3.05,3.05,0,0,0,1.05-.19,2.56,2.56,0,0,0,.84-.53,2.53,2.53,0,0,0,.57-.89,3.89,3.89,0,0,0,.17-1.27v-.56A24,24,0,0,0,106.61,400.59Z" transform="translate(-0.33 -0.33)"/><path class="cls-6" d="M112.37,400.21V398.8h4.32v1.41Z" transform="translate(-0.33 -0.33)"/><path class="cls-6" d="M123.55,395.6V397l-.63,0a2.51,2.51,0,0,0-2,.81,3.42,3.42,0,0,0-.7,2.32v4.66h-1.59v-9.14h1.52V397h0a3,3,0,0,1,2.7-1.49A2.55,2.55,0,0,1,123.55,395.6Z" transform="translate(-0.33 -0.33)"/><path class="cls-6" d="M130.06,403.3a2.1,2.1,0,0,0,.8-1.27h1.62a3.6,3.6,0,0,1-1.31,2.13,4.17,4.17,0,0,1-2.72.85,4.24,4.24,0,0,1-2.31-.61,3.87,3.87,0,0,1-1.48-1.73,6,6,0,0,1-.52-2.61,5.44,5.44,0,0,1,.52-2.42,3.92,3.92,0,0,1,1.47-1.67,4.19,4.19,0,0,1,2.26-.6,4,4,0,0,1,2.58.84,4.14,4.14,0,0,1,1.42,2.34,8.59,8.59,0,0,1,.18,2h-6.84a3.7,3.7,0,0,0,.8,2.45,2.48,2.48,0,0,0,1.92.83A2.57,2.57,0,0,0,130.06,403.3Zm-3.49-6a3.22,3.22,0,0,0-.82,2H131a3.16,3.16,0,0,0-.83-2,2.39,2.39,0,0,0-1.78-.7A2.47,2.47,0,0,0,126.57,397.3Z" transform="translate(-0.33 -0.33)"/><path class="cls-6" d="M134.71,404.76V392h1.58v12.81Z" transform="translate(-0.33 -0.33)"/><path class="cls-6" d="M145,396.26a3.47,3.47,0,0,1,1,2.65v3.51a11,11,0,0,0,.21,2.34h-1.44a6.56,6.56,0,0,1-.12-1.33h0a3.18,3.18,0,0,1-1.28,1.13,4.06,4.06,0,0,1-1.89.4,3.29,3.29,0,0,1-2.25-.75,2.45,2.45,0,0,1-.84-1.93,2.39,2.39,0,0,1,.78-1.88,5.4,5.4,0,0,1,2.69-1c.89-.15,1.77-.25,2.65-.31v-.36a2.13,2.13,0,0,0-.55-1.62,2.11,2.11,0,0,0-1.52-.52,2.15,2.15,0,0,0-1.51.5,1.81,1.81,0,0,0-.58,1.32h-1.58a3,3,0,0,1,1-2.2,3.88,3.88,0,0,1,2.65-.84A3.68,3.68,0,0,1,145,396.26Zm-3,4.33a3.73,3.73,0,0,0-1.62.54,1.21,1.21,0,0,0-.48,1,1.41,1.41,0,0,0,.49,1.14,2,2,0,0,0,1.38.43,3.05,3.05,0,0,0,1-.19,2.41,2.41,0,0,0,1.42-1.42,3.93,3.93,0,0,0,.16-1.27v-.56C143.5,400.37,142.71,400.47,142,400.59Z" transform="translate(-0.33 -0.33)"/><path class="cls-6" d="M152.35,403.43v1.3a4.09,4.09,0,0,1-1,.1,2.52,2.52,0,0,1-1.9-.61,2.86,2.86,0,0,1-.58-2v-5.33h-1.59v-1.26h1.59V393.4h1.58v2.22h1.82v1.26h-1.82V402a1.79,1.79,0,0,0,.29,1.14,1.19,1.19,0,0,0,1,.34A2.08,2.08,0,0,0,152.35,403.43Z" transform="translate(-0.33 -0.33)"/><path class="cls-6" d="M159.2,403.3A2.1,2.1,0,0,0,160,402h1.62a3.55,3.55,0,0,1-1.31,2.13,4.17,4.17,0,0,1-2.72.85,4.24,4.24,0,0,1-2.31-.61,3.87,3.87,0,0,1-1.48-1.73,6.2,6.2,0,0,1-.52-2.61,5.58,5.58,0,0,1,.52-2.42,3.92,3.92,0,0,1,1.47-1.67,4.22,4.22,0,0,1,2.26-.6,4,4,0,0,1,2.59.84,4.18,4.18,0,0,1,1.41,2.34,8.59,8.59,0,0,1,.18,2h-6.84a3.7,3.7,0,0,0,.8,2.45,2.48,2.48,0,0,0,1.92.83A2.57,2.57,0,0,0,159.2,403.3Zm-3.49-6a3.22,3.22,0,0,0-.82,2h5.25a3.16,3.16,0,0,0-.83-2,2.39,2.39,0,0,0-1.78-.7A2.47,2.47,0,0,0,155.71,397.3Z" transform="translate(-0.33 -0.33)"/><path class="cls-6" d="M170,404.76v-1.33h0a2.73,2.73,0,0,1-1.13,1.13,3.38,3.38,0,0,1-1.68.42,3.49,3.49,0,0,1-2-.6,3.71,3.71,0,0,1-1.34-1.68,7,7,0,0,1,0-5.06,3.79,3.79,0,0,1,1.33-1.67,3.53,3.53,0,0,1,2-.59,3.47,3.47,0,0,1,1.67.41,2.74,2.74,0,0,1,1.12,1.09h0V392h1.58v12.81Zm-4.32-7.14a4.17,4.17,0,0,0-.7,2.55,4.25,4.25,0,0,0,.7,2.57,2.2,2.2,0,0,0,1.87,1,2.13,2.13,0,0,0,1.82-.95,4.33,4.33,0,0,0,.69-2.58,4.25,4.25,0,0,0-.69-2.56,2.13,2.13,0,0,0-1.82-.95A2.2,2.2,0,0,0,165.72,397.62Z" transform="translate(-0.33 -0.33)"/><path class="cls-6" d="M178.54,393.73V392h1.58v1.78Zm0,11v-9.14h1.58v9.14Z" transform="translate(-0.33 -0.33)"/><path class="cls-6" d="M189.72,396.37a4.11,4.11,0,0,1,.86,2.81v5.58H189v-5.45a2.94,2.94,0,0,0-.54-2,2,2,0,0,0-1.57-.6,2.21,2.21,0,0,0-1.7.73,3,3,0,0,0-.68,2.07v5.24h-1.58v-9.14h1.53v1.2h0a3,3,0,0,1,1.15-1,3.46,3.46,0,0,1,1.62-.38A3.17,3.17,0,0,1,189.72,396.37Z" transform="translate(-0.33 -0.33)"/><path class="cls-6" d="M195.48,393.48a1.72,1.72,0,0,0-.33,1.18v1H197v1.26h-1.82v7.88h-1.56v-7.88H192v-1.26h1.61v-1.14a2.76,2.76,0,0,1,.63-2,2.53,2.53,0,0,1,1.87-.65,3.91,3.91,0,0,1,.92.09v1.22a1.77,1.77,0,0,0-.53-.05A1.27,1.27,0,0,0,195.48,393.48Z" transform="translate(-0.33 -0.33)"/><path class="cls-6" d="M203.56,395.6V397l-.63,0a2.5,2.5,0,0,0-2,.81,3.42,3.42,0,0,0-.7,2.32v4.66h-1.59v-9.14h1.51V397h0a3,3,0,0,1,2.7-1.49A2.6,2.6,0,0,1,203.56,395.6Z" transform="translate(-0.33 -0.33)"/><path class="cls-6" d="M210.66,396.26a3.47,3.47,0,0,1,.94,2.65v3.51a10.94,10.94,0,0,0,.22,2.34h-1.44a6.51,6.51,0,0,1-.13-1.33h0a3.25,3.25,0,0,1-1.28,1.13,4.12,4.12,0,0,1-1.89.4,3.25,3.25,0,0,1-2.25-.75,2.46,2.46,0,0,1-.85-1.93,2.36,2.36,0,0,1,.79-1.88,5.4,5.4,0,0,1,2.69-1c.89-.15,1.77-.25,2.64-.31v-.36a2.13,2.13,0,0,0-.55-1.62,2.09,2.09,0,0,0-1.52-.52,2.17,2.17,0,0,0-1.51.5,1.8,1.8,0,0,0-.57,1.32h-1.59a3,3,0,0,1,1-2.2,3.86,3.86,0,0,1,2.64-.84A3.71,3.71,0,0,1,210.66,396.26Zm-3,4.33a3.79,3.79,0,0,0-1.63.54,1.21,1.21,0,0,0-.48,1,1.42,1.42,0,0,0,.5,1.14,2,2,0,0,0,1.38.43,3.05,3.05,0,0,0,1.05-.19,2.56,2.56,0,0,0,.84-.53,2.68,2.68,0,0,0,.57-.89,3.93,3.93,0,0,0,.16-1.27v-.56C209.15,400.37,208.35,400.47,207.68,400.59Z" transform="translate(-0.33 -0.33)"/><path class="cls-6" d="M219.83,396.18a2.88,2.88,0,0,1,.94,2.3h-1.55a1.81,1.81,0,0,0-.53-1.4,2.15,2.15,0,0,0-1.51-.49,2.18,2.18,0,0,0-1.3.35,1.12,1.12,0,0,0-.48.95,1.05,1.05,0,0,0,.23.72,1.49,1.49,0,0,0,.64.39,11.56,11.56,0,0,0,1.33.36,15.18,15.18,0,0,1,1.84.54,2.78,2.78,0,0,1,1.14.82,2.4,2.4,0,0,1,.47,1.56,2.36,2.36,0,0,1-1,2,5.1,5.1,0,0,1-5.45-.1,3.07,3.07,0,0,1-1-2.45h1.6a1.91,1.91,0,0,0,.59,1.5,2.35,2.35,0,0,0,1.66.53,2.48,2.48,0,0,0,1.44-.37,1.27,1.27,0,0,0,.29-1.8,1.59,1.59,0,0,0-.74-.46,14.92,14.92,0,0,0-1.53-.43,14.17,14.17,0,0,1-1.67-.49,2.47,2.47,0,0,1-1-.74,2.22,2.22,0,0,1-.42-1.45,2.32,2.32,0,0,1,.94-1.91,3.85,3.85,0,0,1,2.44-.73A3.9,3.9,0,0,1,219.83,396.18Z" transform="translate(-0.33 -0.33)"/><path class="cls-6" d="M227.06,403.43v1.3a4,4,0,0,1-1,.1,2.52,2.52,0,0,1-1.9-.61,2.86,2.86,0,0,1-.59-2v-5.33H222v-1.26h1.58V393.4h1.59v2.22H227v1.26h-1.81V402a1.8,1.8,0,0,0,.28,1.14,1.23,1.23,0,0,0,1,.34A2,2,0,0,0,227.06,403.43Z" transform="translate(-0.33 -0.33)"/><path class="cls-6" d="M233.87,395.6V397l-.63,0a2.5,2.5,0,0,0-2,.81,3.42,3.42,0,0,0-.7,2.32v4.66H229v-9.14h1.52V397h0a3,3,0,0,1,2.7-1.49A2.55,2.55,0,0,1,233.87,395.6Z" transform="translate(-0.33 -0.33)"/><path class="cls-6" d="M236.24,404a4.11,4.11,0,0,1-.86-2.81v-5.58H237v5.45a2.94,2.94,0,0,0,.54,2,2,2,0,0,0,1.57.6,2.18,2.18,0,0,0,1.69-.74,2.93,2.93,0,0,0,.69-2.06v-5.24H243v9.14H241.5v-1.2h0a3,3,0,0,1-1.16,1,3.5,3.5,0,0,1-1.63.38A3.11,3.11,0,0,1,236.24,404Z" transform="translate(-0.33 -0.33)"/><path class="cls-6" d="M251.41,395.81a3.46,3.46,0,0,1,1.37,1.23,3.93,3.93,0,0,1,.6,1.82h-1.66a2.45,2.45,0,0,0-.71-1.59,2.14,2.14,0,0,0-1.55-.61,2.25,2.25,0,0,0-1.91.95,4.23,4.23,0,0,0-.7,2.58,4.29,4.29,0,0,0,.69,2.58,2.25,2.25,0,0,0,1.92,1,2,2,0,0,0,1.55-.66,2.66,2.66,0,0,0,.71-1.66h1.66a4.29,4.29,0,0,1-.59,1.86,3.66,3.66,0,0,1-1.36,1.29,4,4,0,0,1-2,.46,4.34,4.34,0,0,1-2.28-.58,3.87,3.87,0,0,1-1.5-1.67,6,6,0,0,1-.52-2.57,6,6,0,0,1,.52-2.56,3.84,3.84,0,0,1,1.5-1.68,4.34,4.34,0,0,1,2.28-.58A4.11,4.11,0,0,1,251.41,395.81Z" transform="translate(-0.33 -0.33)"/><path class="cls-6" d="M259.32,403.43v1.3a4,4,0,0,1-1,.1,2.54,2.54,0,0,1-1.9-.61,2.86,2.86,0,0,1-.58-2v-5.33h-1.59v-1.26h1.59V393.4h1.58v2.22h1.82v1.26h-1.82V402a1.79,1.79,0,0,0,.29,1.14,1.2,1.2,0,0,0,1,.34A2.08,2.08,0,0,0,259.32,403.43Z" transform="translate(-0.33 -0.33)"/><path class="cls-6" d="M262,404a4.11,4.11,0,0,1-.85-2.81v-5.58h1.58v5.45a2.94,2.94,0,0,0,.54,2,2,2,0,0,0,1.57.6,2.18,2.18,0,0,0,1.69-.74,2.93,2.93,0,0,0,.69-2.06v-5.24h1.58v9.14h-1.53v-1.2h0a3,3,0,0,1-1.16,1,3.5,3.5,0,0,1-1.63.38A3.13,3.13,0,0,1,262,404Z" transform="translate(-0.33 -0.33)"/><path class="cls-6" d="M276.49,395.6V397l-.63,0a2.51,2.51,0,0,0-2,.81,3.47,3.47,0,0,0-.7,2.32v4.66h-1.58v-9.14h1.51V397h0a3,3,0,0,1,2.7-1.49A2.52,2.52,0,0,1,276.49,395.6Z" transform="translate(-0.33 -0.33)"/><path class="cls-6" d="M283,403.3a2.1,2.1,0,0,0,.8-1.27h1.62a3.55,3.55,0,0,1-1.31,2.13,4.17,4.17,0,0,1-2.72.85,4.24,4.24,0,0,1-2.31-.61,3.93,3.93,0,0,1-1.48-1.73,6.2,6.2,0,0,1-.52-2.61,5.58,5.58,0,0,1,.52-2.42,3.92,3.92,0,0,1,1.47-1.67,4.22,4.22,0,0,1,2.26-.6,4,4,0,0,1,2.59.84,4.18,4.18,0,0,1,1.41,2.34,8.59,8.59,0,0,1,.18,2h-6.84a3.75,3.75,0,0,0,.8,2.45,2.48,2.48,0,0,0,1.92.83A2.55,2.55,0,0,0,283,403.3Zm-3.48-6a3.17,3.17,0,0,0-.83,2h5.25a3.2,3.2,0,0,0-.82-2,2.65,2.65,0,0,0-3.6,0Z" transform="translate(-0.33 -0.33)"/><path class="cls-6" d="M295.66,403.43v1.3a4,4,0,0,1-1,.1,2.54,2.54,0,0,1-1.9-.61,2.86,2.86,0,0,1-.58-2v-5.33h-1.58v-1.26h1.58V393.4h1.58v2.22h1.82v1.26h-1.82V402a1.79,1.79,0,0,0,.29,1.14,1.2,1.2,0,0,0,1,.34A2,2,0,0,0,295.66,403.43Z" transform="translate(-0.33 -0.33)"/><path class="cls-6" d="M304.12,396.66a5.91,5.91,0,0,1,0,7.06,4.56,4.56,0,0,1-6.36,0,6,6,0,0,1,0-7.06,4.56,4.56,0,0,1,6.36,0Zm-5.15.95a5,5,0,0,0,0,5.16,2.53,2.53,0,0,0,3.95,0,5,5,0,0,0,0-5.16,2.53,2.53,0,0,0-3.95,0Z" transform="translate(-0.33 -0.33)"/><path class="cls-6" d="M90,424.9a2.08,2.08,0,0,0,.81-1.27h1.62a3.6,3.6,0,0,1-1.31,2.13,4.73,4.73,0,0,1-5,.24,3.87,3.87,0,0,1-1.48-1.73,6,6,0,0,1-.52-2.61,5.44,5.44,0,0,1,.52-2.42,3.92,3.92,0,0,1,1.47-1.67,4.19,4.19,0,0,1,2.26-.6,4,4,0,0,1,2.58.84,4.14,4.14,0,0,1,1.42,2.34,8.59,8.59,0,0,1,.18,2H85.7a3.7,3.7,0,0,0,.8,2.45,2.45,2.45,0,0,0,1.91.83A2.53,2.53,0,0,0,90,424.9Zm-3.48-6a3.23,3.23,0,0,0-.83,2H91a3.16,3.16,0,0,0-.83-2,2.4,2.4,0,0,0-1.78-.7A2.47,2.47,0,0,0,86.54,418.9Z" transform="translate(-0.33 -0.33)"/><path class="cls-6" d="M101.46,418a4.06,4.06,0,0,1,.87,2.81v5.58h-1.59v-5.45a2.94,2.94,0,0,0-.54-2,2,2,0,0,0-1.56-.6,2.2,2.2,0,0,0-1.7.73,3,3,0,0,0-.68,2.07v5.24H94.68v-9.14h1.53v1.2h0a3.1,3.1,0,0,1,1.16-1A3.46,3.46,0,0,1,99,417,3.13,3.13,0,0,1,101.46,418Z" transform="translate(-0.33 -0.33)"/><path class="cls-6" d="M111,417.86a3.47,3.47,0,0,1,.94,2.65V424a10.94,10.94,0,0,0,.22,2.34h-1.44a6.51,6.51,0,0,1-.13-1.33h0a3.25,3.25,0,0,1-1.28,1.13,4.12,4.12,0,0,1-1.89.4,3.25,3.25,0,0,1-2.25-.75,2.47,2.47,0,0,1-.85-1.93A2.36,2.36,0,0,1,105,422a5.3,5.3,0,0,1,2.69-1c.89-.15,1.77-.25,2.64-.31v-.36a2.13,2.13,0,0,0-.55-1.62,2.09,2.09,0,0,0-1.52-.52,2.12,2.12,0,0,0-1.51.5,1.8,1.8,0,0,0-.57,1.32h-1.59a3,3,0,0,1,1-2.2,3.86,3.86,0,0,1,2.64-.84A3.71,3.71,0,0,1,111,417.86Zm-3,4.33a3.79,3.79,0,0,0-1.63.54,1.21,1.21,0,0,0-.48,1,1.42,1.42,0,0,0,.5,1.14,2.07,2.07,0,0,0,1.38.43,3.05,3.05,0,0,0,1-.19,2.56,2.56,0,0,0,.84-.53,2.68,2.68,0,0,0,.57-.89,3.93,3.93,0,0,0,.16-1.27v-.56C109.45,422,108.65,422.07,108,422.19Z" transform="translate(-0.33 -0.33)"/><path class="cls-6" d="M116.22,418.48a2.76,2.76,0,0,1,1.13-1.09A3.43,3.43,0,0,1,119,417a3.53,3.53,0,0,1,2,.59,3.72,3.72,0,0,1,1.33,1.67,7,7,0,0,1,0,5.06A3.71,3.71,0,0,1,121,426a3.49,3.49,0,0,1-2,.6,3.41,3.41,0,0,1-1.68-.42,2.58,2.58,0,0,1-1.11-1.13h0v1.33H114.6V413.55h1.59v4.93Zm.57.73a4.32,4.32,0,0,0-.67,2.56,4.41,4.41,0,0,0,.67,2.58,2.12,2.12,0,0,0,1.81.95,2.2,2.2,0,0,0,1.87-1,4.27,4.27,0,0,0,.7-2.57,4.17,4.17,0,0,0-.7-2.55,2.2,2.2,0,0,0-1.87-1A2.12,2.12,0,0,0,116.79,419.21Z" transform="translate(-0.33 -0.33)"/><path class="cls-6" d="M125,426.36V413.55h1.58v12.81Z" transform="translate(-0.33 -0.33)"/><path class="cls-6" d="M134.61,424.9a2.06,2.06,0,0,0,.8-1.27H137a3.58,3.58,0,0,1-1.3,2.13,4.75,4.75,0,0,1-5,.24,3.93,3.93,0,0,1-1.48-1.73,6.2,6.2,0,0,1-.51-2.61,5.58,5.58,0,0,1,.51-2.42,3.87,3.87,0,0,1,1.48-1.67,4.16,4.16,0,0,1,2.25-.6,4,4,0,0,1,2.59.84,4.18,4.18,0,0,1,1.41,2.34,8.59,8.59,0,0,1,.18,2h-6.84a3.75,3.75,0,0,0,.8,2.45,2.48,2.48,0,0,0,1.92.83A2.55,2.55,0,0,0,134.61,424.9Zm-3.48-6a3.17,3.17,0,0,0-.83,2h5.25a3.2,3.2,0,0,0-.82-2,2.65,2.65,0,0,0-3.6,0Z" transform="translate(-0.33 -0.33)"/><path class="cls-6" d="M145.72,415.08a1.77,1.77,0,0,0-.32,1.18v1h1.82v1.26H145.4v7.88h-1.57v-7.88h-1.6v-1.26h1.6v-1.14a2.76,2.76,0,0,1,.64-2,2.53,2.53,0,0,1,1.87-.65,3.82,3.82,0,0,1,.91.09v1.22a1.66,1.66,0,0,0-.52,0A1.31,1.31,0,0,0,145.72,415.08Z" transform="translate(-0.33 -0.33)"/><path class="cls-6" d="M149.66,425.61a4.11,4.11,0,0,1-.86-2.81v-5.58h1.59v5.45a2.94,2.94,0,0,0,.54,2,2,2,0,0,0,1.56.6,2.18,2.18,0,0,0,1.69-.74,2.93,2.93,0,0,0,.69-2.06v-5.24h1.58v9.14h-1.53v-1.2h0a3.1,3.1,0,0,1-1.16,1,3.53,3.53,0,0,1-1.63.38A3.12,3.12,0,0,1,149.66,425.61Z" transform="translate(-0.33 -0.33)"/><path class="cls-6" d="M164.17,417.2v1.42l-.63-.05a2.48,2.48,0,0,0-2,.81,3.42,3.42,0,0,0-.71,2.32v4.66h-1.58v-9.14h1.51v1.4h0a3,3,0,0,1,2.7-1.49A2.52,2.52,0,0,1,164.17,417.2Z" transform="translate(-0.33 -0.33)"/><path class="cls-6" d="M169.86,425v1.3a4,4,0,0,1-1,.1,2.5,2.5,0,0,1-1.89-.61,2.81,2.81,0,0,1-.59-2v-5.33h-1.58v-1.26h1.58V415H168v2.22h1.82v1.26H168v5.16a1.79,1.79,0,0,0,.29,1.14,1.2,1.2,0,0,0,1,.34A2,2,0,0,0,169.86,425Z" transform="translate(-0.33 -0.33)"/><path class="cls-6" d="M173.37,418.37a2.93,2.93,0,0,1,1.17-1,3.55,3.55,0,0,1,1.55-.34,3.16,3.16,0,0,1,2.45,1,4.11,4.11,0,0,1,.86,2.81v5.58h-1.58v-5.45a2.94,2.94,0,0,0-.54-2,2,2,0,0,0-1.57-.6,2.21,2.21,0,0,0-1.7.73,3,3,0,0,0-.67,2.07v5.24h-1.59V413.55h1.59v4.82Z" transform="translate(-0.33 -0.33)"/><path class="cls-6" d="M187.37,424.9a2.1,2.1,0,0,0,.8-1.27h1.62a3.6,3.6,0,0,1-1.31,2.13,4.17,4.17,0,0,1-2.72.85,4.24,4.24,0,0,1-2.31-.61,3.87,3.87,0,0,1-1.48-1.73,6,6,0,0,1-.52-2.61,5.44,5.44,0,0,1,.52-2.42,3.92,3.92,0,0,1,1.47-1.67,4.19,4.19,0,0,1,2.26-.6,4,4,0,0,1,2.58.84,4.14,4.14,0,0,1,1.42,2.34,8.59,8.59,0,0,1,.18,2H183a3.7,3.7,0,0,0,.8,2.45,2.48,2.48,0,0,0,1.92.83A2.57,2.57,0,0,0,187.37,424.9Zm-3.49-6a3.22,3.22,0,0,0-.82,2h5.25a3.16,3.16,0,0,0-.83-2,2.39,2.39,0,0,0-1.78-.7A2.47,2.47,0,0,0,183.88,418.9Z" transform="translate(-0.33 -0.33)"/><path class="cls-6" d="M196.93,417.2v1.42l-.63-.05a2.48,2.48,0,0,0-2,.81,3.42,3.42,0,0,0-.71,2.32v4.66H192v-9.14h1.51v1.4h0a3,3,0,0,1,2.7-1.49A2.52,2.52,0,0,1,196.93,417.2Z" transform="translate(-0.33 -0.33)"/><path class="cls-6" d="M208.62,418.55h0v-1.33h1.53v8.58a3.58,3.58,0,0,1-4,4,4.37,4.37,0,0,1-2.75-.78,2.59,2.59,0,0,1-1-2.12H204a1.52,1.52,0,0,0,.62,1.23,2.61,2.61,0,0,0,1.59.44,2.33,2.33,0,0,0,1.84-.68,3.31,3.31,0,0,0,.59-2.2v-1h0a3.09,3.09,0,0,1-2.72,1.53,3.64,3.64,0,0,1-2-.57,3.69,3.69,0,0,1-1.35-1.63,6.49,6.49,0,0,1,0-4.9,3.56,3.56,0,0,1,3.39-2.19A3,3,0,0,1,208.62,418.55Zm-4.28.66a4.67,4.67,0,0,0,0,4.82,2.12,2.12,0,0,0,1.79.91,2.23,2.23,0,0,0,1.87-.89,4.62,4.62,0,0,0,0-4.86,2.23,2.23,0,0,0-1.87-.89A2.12,2.12,0,0,0,204.34,419.21Z" transform="translate(-0.33 -0.33)"/><path class="cls-6" d="M217.9,417.2v1.42l-.63-.05a2.48,2.48,0,0,0-2,.81,3.42,3.42,0,0,0-.71,2.32v4.66H213v-9.14h1.51v1.4h0a3,3,0,0,1,2.7-1.49A2.52,2.52,0,0,1,217.9,417.2Z" transform="translate(-0.33 -0.33)"/><path class="cls-6" d="M226,418.26a5.91,5.91,0,0,1,0,7.06,4.56,4.56,0,0,1-6.36,0,6,6,0,0,1,0-7.06,4.56,4.56,0,0,1,6.36,0Zm-5.15.95a5,5,0,0,0,0,5.16,2.53,2.53,0,0,0,3.95,0,5,5,0,0,0,0-5.16,2.53,2.53,0,0,0-3.95,0Z" transform="translate(-0.33 -0.33)"/><path class="cls-6" d="M236.91,426.36l-1.08-4c-.13-.5-.21-.84-.25-1-.29-1.06-.54-2.05-.76-2.95h0c-.22.9-.47,1.89-.76,2.95,0,.17-.12.51-.25,1l-1.08,4h-2.27L228,417.22h1.6l1,3.81c.28,1.16.62,2.52,1,4.11h0c.32-1.37.66-2.71,1-4l1-3.9h2.27l1,3.9,1,4h0c.38-1.59.72-2.95,1-4.11l1-3.81h1.6l-2.43,9.14Z" transform="translate(-0.33 -0.33)"/><path class="cls-6" d="M247.37,425v1.3a4,4,0,0,1-1,.1,2.54,2.54,0,0,1-1.9-.61,2.86,2.86,0,0,1-.58-2v-5.33h-1.59v-1.26h1.59V415h1.58v2.22h1.82v1.26h-1.82v5.16a1.79,1.79,0,0,0,.29,1.14,1.2,1.2,0,0,0,1,.34A2.08,2.08,0,0,0,247.37,425Z" transform="translate(-0.33 -0.33)"/><path class="cls-6" d="M250.88,418.37a2.93,2.93,0,0,1,1.17-1,3.52,3.52,0,0,1,1.55-.34,3.13,3.13,0,0,1,2.44,1,4.06,4.06,0,0,1,.87,2.81v5.58h-1.58v-5.45a2.94,2.94,0,0,0-.54-2,2,2,0,0,0-1.57-.6,2.21,2.21,0,0,0-1.7.73,3,3,0,0,0-.68,2.07v5.24h-1.58V413.55h1.58v4.82Z" transform="translate(-0.33 -0.33)"/><path class="cls-6" d="M259.28,426.36v-2.1h2v2.1Z" transform="translate(-0.33 -0.33)"/><path class="cls-6" d="M93.5,476.58a4.2,4.2,0,0,1,1.54,3H93.27a2.94,2.94,0,0,0-1.08-1.91,3.53,3.53,0,0,0-2.25-.68,3.58,3.58,0,0,0-3,1.39,6,6,0,0,0-1.08,3.8,6.11,6.11,0,0,0,1.05,3.8,3.43,3.43,0,0,0,2.89,1.38,3.51,3.51,0,0,0,2.64-1,4.47,4.47,0,0,0,1-3.17H89.93v-1.43H95v6.81H93.56v-1.77h0a3.65,3.65,0,0,1-1.61,1.46,5.36,5.36,0,0,1-2.43.54,4.85,4.85,0,0,1-4.69-3.08,8.64,8.64,0,0,1-.65-3.52,8.41,8.41,0,0,1,.7-3.58,5.29,5.29,0,0,1,2-2.31,5.73,5.73,0,0,1,3.08-.81A5.45,5.45,0,0,1,93.5,476.58Z" transform="translate(-0.33 -0.33)"/><path class="cls-6" d="M104.79,480.44a5.9,5.9,0,0,1,0,7.05,4.54,4.54,0,0,1-6.36,0,5.94,5.94,0,0,1,0-7.05,4.54,4.54,0,0,1,6.36,0Zm-5.14.94a5,5,0,0,0,0,5.17,2.32,2.32,0,0,0,2,.94,2.35,2.35,0,0,0,2-.94,5,5,0,0,0,0-5.17,2.35,2.35,0,0,0-2-.94A2.32,2.32,0,0,0,99.65,481.38Z" transform="translate(-0.33 -0.33)"/><path class="cls-6" d="M115.14,480.44a5.9,5.9,0,0,1,0,7.05,4.54,4.54,0,0,1-6.36,0,5.94,5.94,0,0,1,0-7.05,4.54,4.54,0,0,1,6.36,0Zm-5.14.94a5,5,0,0,0,0,5.17,2.32,2.32,0,0,0,2,.94,2.35,2.35,0,0,0,2-.94,5,5,0,0,0,0-5.17,2.35,2.35,0,0,0-2-.94A2.32,2.32,0,0,0,110,481.38Z" transform="translate(-0.33 -0.33)"/><path class="cls-6" d="M124.65,488.54v-1.33h0a2.77,2.77,0,0,1-1.12,1.13,3.38,3.38,0,0,1-1.69.41,3.48,3.48,0,0,1-2-.59,3.82,3.82,0,0,1-1.34-1.68,7,7,0,0,1,0-5.06,3.67,3.67,0,0,1,1.33-1.67,3.7,3.7,0,0,1,3.68-.19,2.9,2.9,0,0,1,1.13,1.09h0v-4.93h1.59v12.82Zm-4.32-7.15a5,5,0,0,0,0,5.12,2.19,2.19,0,0,0,1.87,1,2.13,2.13,0,0,0,1.82-1,5.2,5.2,0,0,0,0-5.14,2.14,2.14,0,0,0-1.82-.94A2.22,2.22,0,0,0,120.33,481.39Z" transform="translate(-0.33 -0.33)"/><path class="cls-6" d="M138.67,480a2.9,2.9,0,0,1,.94,2.31h-1.55a1.83,1.83,0,0,0-.53-1.41,2.19,2.19,0,0,0-1.51-.48,2.11,2.11,0,0,0-1.3.35,1.11,1.11,0,0,0-.48.94,1.05,1.05,0,0,0,.23.72,1.5,1.5,0,0,0,.64.4c.27.09.72.21,1.33.36a15.18,15.18,0,0,1,1.84.54,2.78,2.78,0,0,1,1.14.82,2.62,2.62,0,0,1-.51,3.54,5,5,0,0,1-5.45-.1,3,3,0,0,1-1-2.44H134a1.93,1.93,0,0,0,.59,1.5,2.4,2.4,0,0,0,1.66.53,2.48,2.48,0,0,0,1.44-.38,1.15,1.15,0,0,0,.54-1,1.17,1.17,0,0,0-.25-.81,1.77,1.77,0,0,0-.74-.46q-.48-.17-1.53-.42a14.17,14.17,0,0,1-1.67-.49,2.47,2.47,0,0,1-1-.74,2.26,2.26,0,0,1-.42-1.45,2.31,2.31,0,0,1,.94-1.91,3.85,3.85,0,0,1,2.44-.74A3.9,3.9,0,0,1,138.67,480Z" transform="translate(-0.33 -0.33)"/><path class="cls-6" d="M149,480.44a5.9,5.9,0,0,1,0,7.05,4.06,4.06,0,0,1-3.19,1.3,4,4,0,0,1-3.17-1.3,5.94,5.94,0,0,1,0-7.05,4,4,0,0,1,3.17-1.3A4.06,4.06,0,0,1,149,480.44Zm-5.15.94a5,5,0,0,0,0,5.17,2.53,2.53,0,0,0,3.94,0,5,5,0,0,0,0-5.17,2.53,2.53,0,0,0-3.94,0Z" transform="translate(-0.33 -0.33)"/><path class="cls-6" d="M158.06,479.58a3.56,3.56,0,0,1,1.37,1.24,3.89,3.89,0,0,1,.6,1.81h-1.65a2.49,2.49,0,0,0-.71-1.58,2.14,2.14,0,0,0-1.56-.61,2.26,2.26,0,0,0-1.91.94,4.24,4.24,0,0,0-.7,2.59,4.29,4.29,0,0,0,.69,2.58,2.25,2.25,0,0,0,1.92.94,2.06,2.06,0,0,0,1.56-.65,2.74,2.74,0,0,0,.71-1.67H160a4.16,4.16,0,0,1-.59,1.87,3.64,3.64,0,0,1-1.36,1.28,4,4,0,0,1-2,.47,4.36,4.36,0,0,1-2.29-.58,3.82,3.82,0,0,1-1.49-1.68,6.59,6.59,0,0,1,0-5.13,3.85,3.85,0,0,1,1.49-1.67,4.36,4.36,0,0,1,2.29-.59A4.19,4.19,0,0,1,158.06,479.58Z" transform="translate(-0.33 -0.33)"/><path class="cls-6" d="M162.1,477.5v-1.78h1.59v1.78Zm0,11v-9.15h1.59v9.15Z" transform="translate(-0.33 -0.33)"/><path class="cls-6" d="M173.35,480.44a5.9,5.9,0,0,1,0,7.05,4.54,4.54,0,0,1-6.36,0,5.94,5.94,0,0,1,0-7.05,4.54,4.54,0,0,1,6.36,0Zm-5.14.94a5,5,0,0,0,0,5.17,2.32,2.32,0,0,0,2,.94,2.35,2.35,0,0,0,2-.94,5,5,0,0,0,0-5.17,2.35,2.35,0,0,0-2-.94A2.32,2.32,0,0,0,168.21,481.38Z" transform="translate(-0.33 -0.33)"/><path class="cls-6" d="M182.09,487.08a2,2,0,0,0,.8-1.28h1.62a3.56,3.56,0,0,1-1.3,2.14,4.73,4.73,0,0,1-5,.24,3.94,3.94,0,0,1-1.49-1.73,6.2,6.2,0,0,1-.51-2.61,5.55,5.55,0,0,1,.51-2.42,3.94,3.94,0,0,1,1.48-1.67,4.09,4.09,0,0,1,2.26-.61A4,4,0,0,1,183,480a4.12,4.12,0,0,1,1.41,2.34,8.53,8.53,0,0,1,.18,2h-6.84a3.81,3.81,0,0,0,.8,2.45,2.48,2.48,0,0,0,1.92.83A2.59,2.59,0,0,0,182.09,487.08Zm-3.48-6a3.2,3.2,0,0,0-.83,2H183a3.21,3.21,0,0,0-.83-2,2.65,2.65,0,0,0-3.6,0Z" transform="translate(-0.33 -0.33)"/><path class="cls-6" d="M192.5,479.58a3.54,3.54,0,0,1,1.36,1.24,3.79,3.79,0,0,1,.61,1.81h-1.66a2.49,2.49,0,0,0-.71-1.58,2.11,2.11,0,0,0-1.56-.61,2.23,2.23,0,0,0-1.9.94,5.09,5.09,0,0,0,0,5.17,2.23,2.23,0,0,0,1.91.94,2,2,0,0,0,1.56-.65,2.74,2.74,0,0,0,.71-1.67h1.66a4.17,4.17,0,0,1-.6,1.87,3.56,3.56,0,0,1-1.36,1.28,4,4,0,0,1-1.95.47,4.32,4.32,0,0,1-2.28-.58,3.84,3.84,0,0,1-1.5-1.68,6.59,6.59,0,0,1,0-5.13,3.87,3.87,0,0,1,1.5-1.67,4.32,4.32,0,0,1,2.28-.59A4.23,4.23,0,0,1,192.5,479.58Z" transform="translate(-0.33 -0.33)"/><path class="cls-6" d="M203.5,480.44a5.9,5.9,0,0,1,0,7.05,4.54,4.54,0,0,1-6.36,0,5.94,5.94,0,0,1,0-7.05,4.54,4.54,0,0,1,6.36,0Zm-5.14.94a5,5,0,0,0,0,5.17,2.31,2.31,0,0,0,2,.94,2.35,2.35,0,0,0,2-.94,5,5,0,0,0,0-5.17,2.35,2.35,0,0,0-2-.94A2.31,2.31,0,0,0,198.36,481.38Z" transform="translate(-0.33 -0.33)"/><path class="cls-6" d="M213.6,480.15a4,4,0,0,1,.87,2.81v5.58h-1.59v-5.46a2.93,2.93,0,0,0-.54-2,2,2,0,0,0-1.57-.61,2.22,2.22,0,0,0-1.7.74,3,3,0,0,0-.67,2.07v5.24h-1.59v-9.15h1.54v1.21h0a3.18,3.18,0,0,1,1.15-1,3.45,3.45,0,0,1,1.62-.37A3.12,3.12,0,0,1,213.6,480.15Z" transform="translate(-0.33 -0.33)"/><path class="cls-6" d="M224,480.44a5.9,5.9,0,0,1,0,7.05,4.54,4.54,0,0,1-6.36,0,5.94,5.94,0,0,1,0-7.05,4.54,4.54,0,0,1,6.36,0Zm-5.15.94a5,5,0,0,0,0,5.17,2.53,2.53,0,0,0,3.94,0,5,5,0,0,0,0-5.17,2.53,2.53,0,0,0-3.94,0Z" transform="translate(-0.33 -0.33)"/><path class="cls-6" d="M239.37,480.13a4.17,4.17,0,0,1,.8,2.76v5.65h-1.59V483a3,3,0,0,0-.47-1.92,1.69,1.69,0,0,0-1.4-.6,1.86,1.86,0,0,0-1.57.78,3.36,3.36,0,0,0-.59,2.08v5.19H233v-5.76a2.57,2.57,0,0,0-.49-1.68,1.64,1.64,0,0,0-1.37-.61,1.89,1.89,0,0,0-1.59.79,3.62,3.62,0,0,0-.58,2.18v5.08h-1.59v-9.15h1.53v1.14h0a3.19,3.19,0,0,1,4.21-.89,2.7,2.7,0,0,1,1.06,1.28,3.14,3.14,0,0,1,2.9-1.72A2.86,2.86,0,0,1,239.37,480.13Z" transform="translate(-0.33 -0.33)"/><path class="cls-6" d="M242.89,477.5v-1.78h1.58v1.78Zm0,11v-9.15h1.58v9.15Z" transform="translate(-0.33 -0.33)"/><path class="cls-6" d="M252.85,479.58a3.56,3.56,0,0,1,1.37,1.24,3.89,3.89,0,0,1,.6,1.81h-1.66a2.44,2.44,0,0,0-.71-1.58,2.1,2.1,0,0,0-1.55-.61,2.25,2.25,0,0,0-1.91.94,4.24,4.24,0,0,0-.7,2.59,4.29,4.29,0,0,0,.69,2.58,2.24,2.24,0,0,0,1.92.94,2,2,0,0,0,1.55-.65,2.68,2.68,0,0,0,.71-1.67h1.66a4.29,4.29,0,0,1-.59,1.87,3.64,3.64,0,0,1-1.36,1.28,4,4,0,0,1-2,.47,4.34,4.34,0,0,1-2.28-.58,3.84,3.84,0,0,1-1.5-1.68,6.59,6.59,0,0,1,0-5.13,3.87,3.87,0,0,1,1.5-1.67,4.35,4.35,0,0,1,2.28-.59A4.23,4.23,0,0,1,252.85,479.58Z" transform="translate(-0.33 -0.33)"/><path class="cls-6" d="M261,477.5v-1.78h1.58v1.78Zm0,11v-9.15h1.58v9.15Z" transform="translate(-0.33 -0.33)"/><path class="cls-6" d="M277.44,480.13a4.17,4.17,0,0,1,.8,2.76v5.65h-1.59V483a3.11,3.11,0,0,0-.47-1.92,1.69,1.69,0,0,0-1.4-.6,1.86,1.86,0,0,0-1.57.78,3.36,3.36,0,0,0-.59,2.08v5.19H271v-5.76a2.57,2.57,0,0,0-.49-1.68,1.64,1.64,0,0,0-1.37-.61,1.89,1.89,0,0,0-1.59.79,3.62,3.62,0,0,0-.58,2.18v5.08h-1.59v-9.15H267v1.14h0a3.19,3.19,0,0,1,4.21-.89,2.7,2.7,0,0,1,1.06,1.28,3.14,3.14,0,0,1,2.9-1.72A2.86,2.86,0,0,1,277.44,480.13Z" transform="translate(-0.33 -0.33)"/><path class="cls-6" d="M287.37,479.75a3.68,3.68,0,0,1,1.34,1.67,7,7,0,0,1,0,5.06,3.8,3.8,0,0,1-1.33,1.68,3.7,3.7,0,0,1-3.68.19,2.66,2.66,0,0,1-1.12-1.11h0v4.63H281V479.39h1.56v1.32h0a2.65,2.65,0,0,1,1.11-1.14,3.7,3.7,0,0,1,3.7.18Zm-4.23,1.63a5.26,5.26,0,0,0,0,5.14,2.11,2.11,0,0,0,1.81,1,2.18,2.18,0,0,0,1.87-1,5,5,0,0,0,0-5.12,2.21,2.21,0,0,0-1.87-.95A2.12,2.12,0,0,0,283.14,481.38Z" transform="translate(-0.33 -0.33)"/><path class="cls-6" d="M297.24,480a3.49,3.49,0,0,1,.94,2.66v3.51a10.45,10.45,0,0,0,.22,2.34H297a5.94,5.94,0,0,1-.13-1.33h0a3.22,3.22,0,0,1-1.27,1.13,4.25,4.25,0,0,1-1.89.4,3.25,3.25,0,0,1-2.25-.75,2.45,2.45,0,0,1-.85-1.94,2.4,2.4,0,0,1,.78-1.88,5.53,5.53,0,0,1,2.69-1c.89-.14,1.77-.24,2.65-.3v-.36a2.13,2.13,0,0,0-.55-1.62,2.09,2.09,0,0,0-1.52-.52,2.15,2.15,0,0,0-1.51.49,1.85,1.85,0,0,0-.58,1.32h-1.58a3,3,0,0,1,1-2.19,3.79,3.79,0,0,1,2.64-.85A3.75,3.75,0,0,1,297.24,480Zm-3,4.33a3.79,3.79,0,0,0-1.63.54,1.23,1.23,0,0,0-.48,1.05,1.42,1.42,0,0,0,.5,1.14,2.06,2.06,0,0,0,1.37.42,2.89,2.89,0,0,0,1.06-.19,2.16,2.16,0,0,0,.83-.53,2.47,2.47,0,0,0,.58-.89,3.88,3.88,0,0,0,.16-1.27v-.56C295.73,484.15,294.93,484.24,294.26,484.36Z" transform="translate(-0.33 -0.33)"/><path class="cls-6" d="M306.45,479.58a3.56,3.56,0,0,1,1.37,1.24,3.89,3.89,0,0,1,.6,1.81h-1.65a2.49,2.49,0,0,0-.71-1.58,2.14,2.14,0,0,0-1.56-.61,2.25,2.25,0,0,0-1.91.94,4.24,4.24,0,0,0-.7,2.59,4.29,4.29,0,0,0,.69,2.58,2.24,2.24,0,0,0,1.92.94,2.06,2.06,0,0,0,1.56-.65,2.74,2.74,0,0,0,.71-1.67h1.65a4.29,4.29,0,0,1-.59,1.87,3.64,3.64,0,0,1-1.36,1.28,4,4,0,0,1-2,.47,4.36,4.36,0,0,1-2.29-.58,3.76,3.76,0,0,1-1.49-1.68,6.47,6.47,0,0,1,0-5.13,3.79,3.79,0,0,1,1.49-1.67,4.36,4.36,0,0,1,2.29-.59A4.19,4.19,0,0,1,306.45,479.58Z" transform="translate(-0.33 -0.33)"/><path class="cls-6" d="M314.36,487.21v1.29a4,4,0,0,1-1,.11,2.51,2.51,0,0,1-1.89-.61,2.87,2.87,0,0,1-.59-2v-5.33h-1.58v-1.26h1.58v-2.21h1.58v2.21h1.82v1.26h-1.82v5.17a1.74,1.74,0,0,0,.29,1.13,1.21,1.21,0,0,0,1,.35A2,2,0,0,0,314.36,487.21Z" transform="translate(-0.33 -0.33)"/><path class="cls-6" d="M317.28,491.13h-1l.69-2.59h-.65v-2.11h1.94v2.11Z" transform="translate(-0.33 -0.33)"/><path class="cls-6" d="M92.41,510.14l-1.08-4c-.13-.51-.22-.84-.25-1-.29-1.07-.54-2.05-.76-2.95h0c-.22.9-.47,1.88-.76,2.95,0,.17-.12.5-.25,1l-1.08,4H85.93L83.5,501h1.6l1,3.82c.29,1.15.63,2.52,1,4.1h0c.32-1.36.66-2.7,1-4l1-3.91h2.27l1,3.91,1,4h0c.38-1.58.72-3,1-4.1l1-3.82h1.6l-2.43,9.15Z" transform="translate(-0.33 -0.33)"/><path class="cls-6" d="M98.64,499.1v-1.78h1.58v1.78Zm0,11V501h1.58v9.15Z" transform="translate(-0.33 -0.33)"/><path class="cls-6" d="M103,510.14V497.32h1.58v12.82Z" transform="translate(-0.33 -0.33)"/><path class="cls-6" d="M107.42,510.14V497.32H109v12.82Z" transform="translate(-0.33 -0.33)"/><path class="cls-6" d="M119.82,508.81v1.29a4,4,0,0,1-1,.11,2.51,2.51,0,0,1-1.89-.61,2.87,2.87,0,0,1-.59-2v-5.33h-1.58V501h1.58v-2.21h1.59V501h1.81v1.26h-1.81v5.17a1.75,1.75,0,0,0,.28,1.13,1.21,1.21,0,0,0,1,.35A2,2,0,0,0,119.82,508.81Z" transform="translate(-0.33 -0.33)"/><path class="cls-6" d="M126.63,501v1.42l-.63-.06a2.5,2.5,0,0,0-2,.81,3.45,3.45,0,0,0-.7,2.33v4.66h-1.59V501h1.51v1.41h0a3,3,0,0,1,2.7-1.5A2.56,2.56,0,0,1,126.63,501Z" transform="translate(-0.33 -0.33)"/><path class="cls-6" d="M128.23,499.1v-1.78h1.58v1.78Zm0,11V501h1.58v9.15Z" transform="translate(-0.33 -0.33)"/><path class="cls-6" d="M138.56,502.33h0V501h1.53v8.59a4.1,4.1,0,0,1-1,3,4.06,4.06,0,0,1-3,1,4.4,4.4,0,0,1-2.74-.77,2.63,2.63,0,0,1-1-2.13h1.58a1.6,1.6,0,0,0,.63,1.24,2.61,2.61,0,0,0,1.59.44,2.27,2.27,0,0,0,1.83-.69,3.26,3.26,0,0,0,.6-2.19v-1h0a3.07,3.07,0,0,1-2.72,1.53,3.57,3.57,0,0,1-2-.58,3.71,3.71,0,0,1-1.35-1.63,6.47,6.47,0,0,1,0-4.89,3.74,3.74,0,0,1,1.35-1.62,3.64,3.64,0,0,1,2-.57A3,3,0,0,1,138.56,502.33Zm-4.27.65a4.63,4.63,0,0,0,0,4.83,2.13,2.13,0,0,0,1.79.91,2.25,2.25,0,0,0,1.87-.89,4,4,0,0,0,.68-2.43A3.92,3.92,0,0,0,138,503a2.23,2.23,0,0,0-1.87-.9A2.13,2.13,0,0,0,134.29,503Z" transform="translate(-0.33 -0.33)"/><path class="cls-6" d="M148.87,502.33h0V501h1.53v8.59a3.58,3.58,0,0,1-4,4,4.42,4.42,0,0,1-2.74-.77,2.66,2.66,0,0,1-1-2.13h1.59a1.56,1.56,0,0,0,.62,1.24,2.61,2.61,0,0,0,1.59.44,2.31,2.31,0,0,0,1.84-.69,3.32,3.32,0,0,0,.59-2.19v-1h0a3.09,3.09,0,0,1-2.72,1.53,3.57,3.57,0,0,1-3.39-2.21,6.47,6.47,0,0,1,0-4.89,3.56,3.56,0,0,1,3.39-2.19A3,3,0,0,1,148.87,502.33Zm-4.27.65a4.63,4.63,0,0,0,0,4.83,2.14,2.14,0,0,0,1.79.91,2.23,2.23,0,0,0,1.87-.89,3.9,3.9,0,0,0,.69-2.43,3.86,3.86,0,0,0-.69-2.43,2.21,2.21,0,0,0-1.87-.9A2.14,2.14,0,0,0,144.6,503Z" transform="translate(-0.33 -0.33)"/><path class="cls-6" d="M158.5,508.68a2.1,2.1,0,0,0,.8-1.28h1.62a3.62,3.62,0,0,1-1.31,2.14,4.73,4.73,0,0,1-5,.24,3.92,3.92,0,0,1-1.48-1.73,6,6,0,0,1-.52-2.61,5.41,5.41,0,0,1,.52-2.42,3.92,3.92,0,0,1,1.47-1.67,4.11,4.11,0,0,1,2.26-.61,4,4,0,0,1,2.58.85,4.08,4.08,0,0,1,1.42,2.34,8.53,8.53,0,0,1,.18,2h-6.84a3.7,3.7,0,0,0,.8,2.45,2.45,2.45,0,0,0,1.91.83A2.64,2.64,0,0,0,158.5,508.68Zm-3.49-6a3.2,3.2,0,0,0-.83,2h5.26a3.15,3.15,0,0,0-.83-2,2.4,2.4,0,0,0-1.78-.7A2.43,2.43,0,0,0,155,502.68Z" transform="translate(-0.33 -0.33)"/><path class="cls-6" d="M168.06,501v1.42l-.63-.06a2.51,2.51,0,0,0-2,.81,3.5,3.5,0,0,0-.7,2.33v4.66h-1.58V501h1.51v1.41h0a3,3,0,0,1,2.7-1.5A2.48,2.48,0,0,1,168.06,501Z" transform="translate(-0.33 -0.33)"/><path class="cls-6" d="M178.72,501v1.42l-.63-.06a2.5,2.5,0,0,0-2,.81,3.45,3.45,0,0,0-.7,2.33v4.66H173.8V501h1.52v1.41h0a3,3,0,0,1,2.7-1.5A2.51,2.51,0,0,1,178.72,501Z" transform="translate(-0.33 -0.33)"/><path class="cls-6" d="M180.32,499.1v-1.78h1.58v1.78Zm0,11V501h1.58v9.15Z" transform="translate(-0.33 -0.33)"/><path class="cls-6" d="M191.13,501.35a3.68,3.68,0,0,1,1.34,1.67,7,7,0,0,1,0,5.06,3.87,3.87,0,0,1-1.33,1.68,3.7,3.7,0,0,1-3.68.19,2.69,2.69,0,0,1-1.13-1.11h0v4.63h-1.59V501h1.57v1.32h0a2.67,2.67,0,0,1,1.12-1.14,3.47,3.47,0,0,1,1.67-.41A3.56,3.56,0,0,1,191.13,501.35ZM186.9,503a5.2,5.2,0,0,0,0,5.14,2.1,2.1,0,0,0,1.81,1,2.19,2.19,0,0,0,1.87-1,5,5,0,0,0,0-5.12,2.22,2.22,0,0,0-1.87-.95A2.11,2.11,0,0,0,186.9,503Z" transform="translate(-0.33 -0.33)"/><path class="cls-6" d="M201.5,501.35a3.68,3.68,0,0,1,1.34,1.67,7,7,0,0,1,0,5.06,3.87,3.87,0,0,1-1.33,1.68,3.72,3.72,0,0,1-3.69.19,2.72,2.72,0,0,1-1.12-1.11h0v4.63h-1.58V501h1.57v1.32h0a2.62,2.62,0,0,1,1.12-1.14,3.47,3.47,0,0,1,1.67-.41A3.59,3.59,0,0,1,201.5,501.35ZM197.27,503a5.2,5.2,0,0,0,0,5.14,2.1,2.1,0,0,0,1.81,1,2.19,2.19,0,0,0,1.87-1,5,5,0,0,0,0-5.12,2.22,2.22,0,0,0-1.87-.95A2.11,2.11,0,0,0,197.27,503Z" transform="translate(-0.33 -0.33)"/><path class="cls-6" d="M205.45,510.14V497.32H207v12.82Z" transform="translate(-0.33 -0.33)"/><path class="cls-6" d="M215.09,508.68a2.1,2.1,0,0,0,.8-1.28h1.62a3.62,3.62,0,0,1-1.31,2.14,4.17,4.17,0,0,1-2.72.85,4.24,4.24,0,0,1-2.31-.61,3.92,3.92,0,0,1-1.48-1.73,6,6,0,0,1-.52-2.61,5.41,5.41,0,0,1,.52-2.42,3.92,3.92,0,0,1,1.47-1.67,4.11,4.11,0,0,1,2.26-.61,4,4,0,0,1,2.58.85,4.08,4.08,0,0,1,1.42,2.34,8.53,8.53,0,0,1,.18,2h-6.84a3.7,3.7,0,0,0,.8,2.45,2.47,2.47,0,0,0,1.92.83A2.63,2.63,0,0,0,215.09,508.68Zm-3.49-6a3.26,3.26,0,0,0-.83,2H216a3.15,3.15,0,0,0-.83-2,2.4,2.4,0,0,0-1.78-.7A2.43,2.43,0,0,0,211.6,502.68Z" transform="translate(-0.33 -0.33)"/><path class="cls-6" d="M229.13,508.68a2.1,2.1,0,0,0,.8-1.28h1.62a3.62,3.62,0,0,1-1.31,2.14,4.17,4.17,0,0,1-2.72.85,4.24,4.24,0,0,1-2.31-.61,3.92,3.92,0,0,1-1.48-1.73,6,6,0,0,1-.52-2.61,5.41,5.41,0,0,1,.52-2.42,3.92,3.92,0,0,1,1.47-1.67,4.11,4.11,0,0,1,2.26-.61,4,4,0,0,1,2.58.85,4.08,4.08,0,0,1,1.42,2.34,8.53,8.53,0,0,1,.18,2H224.8a3.7,3.7,0,0,0,.8,2.45,2.47,2.47,0,0,0,1.92.83A2.63,2.63,0,0,0,229.13,508.68Zm-3.49-6a3.26,3.26,0,0,0-.83,2h5.26a3.15,3.15,0,0,0-.83-2,2.4,2.4,0,0,0-1.78-.7A2.43,2.43,0,0,0,225.64,502.68Z" transform="translate(-0.33 -0.33)"/><path class="cls-6" d="M241,498.85a1.75,1.75,0,0,0-.33,1.19V501h1.82v1.26h-1.82v7.89h-1.56v-7.89h-3.35v7.89h-1.57v-7.89h-1.6V501h1.6v-1.13a2.7,2.7,0,0,1,.64-2,2.48,2.48,0,0,1,1.86-.66,3.91,3.91,0,0,1,.92.09v1.23a1.63,1.63,0,0,0-.52-.06,1.3,1.3,0,0,0-1,.36,1.75,1.75,0,0,0-.32,1.19V501h3.35v-1.13a2.74,2.74,0,0,1,.63-2,2.49,2.49,0,0,1,1.87-.66,4.06,4.06,0,0,1,.91.09v1.23a1.72,1.72,0,0,0-.52-.06A1.27,1.27,0,0,0,241,498.85Z" transform="translate(-0.33 -0.33)"/><path class="cls-6" d="M249.16,508.68a2.06,2.06,0,0,0,.8-1.28h1.62a3.6,3.6,0,0,1-1.3,2.14,4.75,4.75,0,0,1-5,.24,4,4,0,0,1-1.48-1.73,6.2,6.2,0,0,1-.51-2.61,5.55,5.55,0,0,1,.51-2.42,3.87,3.87,0,0,1,1.48-1.67,4.08,4.08,0,0,1,2.25-.61,4,4,0,0,1,2.59.85,4.12,4.12,0,0,1,1.41,2.34,8.53,8.53,0,0,1,.18,2h-6.84a3.75,3.75,0,0,0,.8,2.45,2.48,2.48,0,0,0,1.92.83A2.61,2.61,0,0,0,249.16,508.68Zm-3.48-6a3.15,3.15,0,0,0-.83,2h5.26a3.26,3.26,0,0,0-.83-2,2.65,2.65,0,0,0-3.6,0Z" transform="translate(-0.33 -0.33)"/><path class="cls-6" d="M259.56,501.18a3.56,3.56,0,0,1,1.37,1.24,3.89,3.89,0,0,1,.6,1.81h-1.65a2.49,2.49,0,0,0-.71-1.58,2.14,2.14,0,0,0-1.56-.61,2.26,2.26,0,0,0-1.91.94,5.15,5.15,0,0,0,0,5.17,2.25,2.25,0,0,0,1.92.94,2.06,2.06,0,0,0,1.56-.65,2.74,2.74,0,0,0,.71-1.67h1.65a4.16,4.16,0,0,1-.59,1.87,3.64,3.64,0,0,1-1.36,1.28,4,4,0,0,1-1.95.47,4.45,4.45,0,0,1-2.29-.58,3.82,3.82,0,0,1-1.49-1.68,6.59,6.59,0,0,1,0-5.13,3.85,3.85,0,0,1,1.49-1.67,4.36,4.36,0,0,1,2.29-.59A4.19,4.19,0,0,1,259.56,501.18Z" transform="translate(-0.33 -0.33)"/><path class="cls-6" d="M267.47,508.81v1.29a4,4,0,0,1-1,.11,2.52,2.52,0,0,1-1.9-.61,2.87,2.87,0,0,1-.59-2v-5.33H262.4V501H264v-2.21h1.59V501h1.81v1.26h-1.81v5.17a1.75,1.75,0,0,0,.28,1.13,1.23,1.23,0,0,0,1,.35A2,2,0,0,0,267.47,508.81Z" transform="translate(-0.33 -0.33)"/><path class="cls-6" d="M274.89,501.55a2.9,2.9,0,0,1,.94,2.31h-1.55a1.83,1.83,0,0,0-.53-1.41,2.19,2.19,0,0,0-1.51-.48,2.11,2.11,0,0,0-1.3.35,1.11,1.11,0,0,0-.48.94,1.05,1.05,0,0,0,.23.72,1.5,1.5,0,0,0,.64.4c.27.1.72.21,1.33.36a14.65,14.65,0,0,1,1.84.54,2.78,2.78,0,0,1,1.14.82,2.32,2.32,0,0,1,.47,1.55,2.35,2.35,0,0,1-1,2,5,5,0,0,1-5.45-.1,3,3,0,0,1-1-2.44h1.6a1.93,1.93,0,0,0,.59,1.5,2.4,2.4,0,0,0,1.66.53,2.48,2.48,0,0,0,1.44-.38,1.15,1.15,0,0,0,.54-1,1.17,1.17,0,0,0-.25-.81,1.77,1.77,0,0,0-.74-.46q-.48-.17-1.53-.42a14.17,14.17,0,0,1-1.67-.49,2.47,2.47,0,0,1-1-.74,2.24,2.24,0,0,1-.42-1.45,2.31,2.31,0,0,1,.94-1.91,4.53,4.53,0,0,1,5.07.07Z" transform="translate(-0.33 -0.33)"/><path class="cls-6" d="M282.4,499.1v-1.78H284v1.78Zm0,11V501H284v9.15Z" transform="translate(-0.33 -0.33)"/><path class="cls-6" d="M293.57,501.75a4,4,0,0,1,.87,2.81v5.58h-1.59v-5.46a2.93,2.93,0,0,0-.54-2,2,2,0,0,0-1.56-.61,2.2,2.2,0,0,0-1.7.74,3,3,0,0,0-.68,2.07v5.24h-1.58V501h1.53v1.21h0a3.21,3.21,0,0,1,1.16-1,3.42,3.42,0,0,1,1.62-.37A3.1,3.1,0,0,1,293.57,501.75Z" transform="translate(-0.33 -0.33)"/><path class="cls-6" d="M305.17,508.81v1.29a4.1,4.1,0,0,1-1,.11,2.52,2.52,0,0,1-1.9-.61,2.87,2.87,0,0,1-.59-2v-5.33h-1.58V501h1.58v-2.21h1.59V501h1.82v1.26h-1.82v5.17a1.75,1.75,0,0,0,.28,1.13,1.23,1.23,0,0,0,1,.35A2.08,2.08,0,0,0,305.17,508.81Z" transform="translate(-0.33 -0.33)"/><path class="cls-6" d="M308.67,502.15a2.86,2.86,0,0,1,1.17-1,3.55,3.55,0,0,1,1.55-.34,3.12,3.12,0,0,1,2.45.95,4,4,0,0,1,.87,2.81v5.58h-1.59v-5.46a2.93,2.93,0,0,0-.54-2,2,2,0,0,0-1.57-.61,2.22,2.22,0,0,0-1.7.74,3,3,0,0,0-.67,2.07v5.24h-1.59V497.32h1.59v4.83Z" transform="translate(-0.33 -0.33)"/><path class="cls-6" d="M322.67,508.68a2.06,2.06,0,0,0,.8-1.28h1.62a3.6,3.6,0,0,1-1.3,2.14,4.75,4.75,0,0,1-5,.24,4,4,0,0,1-1.48-1.73,6.2,6.2,0,0,1-.51-2.61,5.55,5.55,0,0,1,.51-2.42,3.87,3.87,0,0,1,1.48-1.67,4.08,4.08,0,0,1,2.25-.61,4,4,0,0,1,2.59.85,4.12,4.12,0,0,1,1.41,2.34,8.53,8.53,0,0,1,.18,2h-6.84a3.75,3.75,0,0,0,.8,2.45,2.48,2.48,0,0,0,1.92.83A2.61,2.61,0,0,0,322.67,508.68Zm-3.48-6a3.15,3.15,0,0,0-.83,2h5.26a3.26,3.26,0,0,0-.83-2,2.65,2.65,0,0,0-3.6,0Z" transform="translate(-0.33 -0.33)"/><path class="cls-6" d="M87.1,520.45a1.75,1.75,0,0,0-.32,1.19v1h1.81v1.26H86.78v7.89H85.21v-7.89h-1.6v-1.26h1.6v-1.13a2.7,2.7,0,0,1,.64-2,2.47,2.47,0,0,1,1.86-.66,3.91,3.91,0,0,1,.92.09v1.23a1.63,1.63,0,0,0-.52-.06A1.3,1.3,0,0,0,87.1,520.45Z" transform="translate(-0.33 -0.33)"/><path class="cls-6" d="M96.86,523.64a5.9,5.9,0,0,1,0,7.05,4.55,4.55,0,0,1-6.37,0,5.94,5.94,0,0,1,0-7.05,4.55,4.55,0,0,1,6.37,0Zm-5.15.94a5,5,0,0,0,0,5.17,2.32,2.32,0,0,0,2,.94,2.35,2.35,0,0,0,2-.94,5,5,0,0,0,0-5.17,2.35,2.35,0,0,0-2-.94A2.32,2.32,0,0,0,91.71,524.58Z" transform="translate(-0.33 -0.33)"/><path class="cls-6" d="M105.08,522.58V524l-.63-.06a2.51,2.51,0,0,0-2,.81,3.5,3.5,0,0,0-.7,2.33v4.66h-1.58v-9.15h1.51V524h0a3,3,0,0,1,2.7-1.5A2.48,2.48,0,0,1,105.08,522.58Z" transform="translate(-0.33 -0.33)"/><path class="cls-6" d="M118.7,523.33a4.17,4.17,0,0,1,.8,2.76v5.65h-1.58v-5.53a3,3,0,0,0-.48-1.92,1.68,1.68,0,0,0-1.4-.6,1.86,1.86,0,0,0-1.57.78,3.36,3.36,0,0,0-.59,2.08v5.19H112.3V526a2.57,2.57,0,0,0-.49-1.68,1.63,1.63,0,0,0-1.36-.61,1.9,1.9,0,0,0-1.6.79,3.62,3.62,0,0,0-.58,2.18v5.08h-1.59v-9.15h1.53v1.14h0a3.19,3.19,0,0,1,4.21-.89,2.7,2.7,0,0,1,1.06,1.28,3.14,3.14,0,0,1,2.9-1.72A2.85,2.85,0,0,1,118.7,523.33Z" transform="translate(-0.33 -0.33)"/><path class="cls-6" d="M133.22,523.64a5.9,5.9,0,0,1,0,7.05,4.55,4.55,0,0,1-6.37,0,5.94,5.94,0,0,1,0-7.05,4.55,4.55,0,0,1,6.37,0Zm-5.15.94a5,5,0,0,0,0,5.17,2.32,2.32,0,0,0,2,.94,2.35,2.35,0,0,0,2-.94,5,5,0,0,0,0-5.17,2.35,2.35,0,0,0-2-.94A2.32,2.32,0,0,0,128.07,524.58Z" transform="translate(-0.33 -0.33)"/><path class="cls-6" d="M138.85,520.45a1.75,1.75,0,0,0-.32,1.19v1h1.81v1.26h-1.81v7.89H137v-7.89h-1.6v-1.26H137v-1.13a2.7,2.7,0,0,1,.64-2,2.47,2.47,0,0,1,1.86-.66,3.91,3.91,0,0,1,.92.09v1.23a1.63,1.63,0,0,0-.52-.06A1.3,1.3,0,0,0,138.85,520.45Z" transform="translate(-0.33 -0.33)"/><path class="cls-6" d="M146.16,520.7v-1.78h1.58v1.78Zm0,11v-9.15h1.58v9.15Z" transform="translate(-0.33 -0.33)"/><path class="cls-6" d="M157.33,523.35a4,4,0,0,1,.87,2.81v5.58h-1.58v-5.46a2.93,2.93,0,0,0-.54-2,2,2,0,0,0-1.57-.61,2.22,2.22,0,0,0-1.7.74,3,3,0,0,0-.68,2.07v5.24h-1.58v-9.15h1.53v1.21h0a3.1,3.1,0,0,1,1.15-1,3.45,3.45,0,0,1,1.62-.37A3.1,3.1,0,0,1,157.33,523.35Z" transform="translate(-0.33 -0.33)"/><path class="cls-6" d="M162.36,531.74,159,522.59h1.7l1.29,3.84c.55,1.64,1,3,1.33,4.07h0c.48-1.54.92-2.9,1.31-4.07l1.32-3.84h1.69l-3.31,9.15Z" transform="translate(-0.33 -0.33)"/><path class="cls-6" d="M174.21,530.28A2.06,2.06,0,0,0,175,529h1.62a3.63,3.63,0,0,1-1.3,2.14,4.75,4.75,0,0,1-5,.24,4,4,0,0,1-1.48-1.73,6.2,6.2,0,0,1-.51-2.61,5.55,5.55,0,0,1,.51-2.42,3.9,3.9,0,0,1,1.48-1.68,4.16,4.16,0,0,1,2.25-.6,4,4,0,0,1,2.59.85,4.12,4.12,0,0,1,1.41,2.34,8.53,8.53,0,0,1,.18,2h-6.84a3.75,3.75,0,0,0,.8,2.45,2.48,2.48,0,0,0,1.92.83A2.61,2.61,0,0,0,174.21,530.28Zm-3.48-6a3.15,3.15,0,0,0-.83,2h5.26a3.26,3.26,0,0,0-.83-2,2.65,2.65,0,0,0-3.6,0Z" transform="translate(-0.33 -0.33)"/><path class="cls-6" d="M184.5,523.15a2.9,2.9,0,0,1,.93,2.31h-1.55a1.8,1.8,0,0,0-.53-1.41,2.15,2.15,0,0,0-1.5-.48,2.09,2.09,0,0,0-1.3.35,1.11,1.11,0,0,0-.48.94,1.05,1.05,0,0,0,.22.72,1.56,1.56,0,0,0,.64.4c.28.09.72.21,1.34.36a15.18,15.18,0,0,1,1.84.54,2.68,2.68,0,0,1,1.13.82,2.3,2.3,0,0,1,.48,1.55,2.37,2.37,0,0,1-1,2,4.22,4.22,0,0,1-2.64.75,4.18,4.18,0,0,1-2.81-.85,3,3,0,0,1-1-2.44h1.6a1.93,1.93,0,0,0,.59,1.5,2.4,2.4,0,0,0,1.66.53,2.48,2.48,0,0,0,1.44-.38,1.15,1.15,0,0,0,.54-1,1.17,1.17,0,0,0-.25-.81,1.77,1.77,0,0,0-.74-.46q-.48-.17-1.53-.42a14.17,14.17,0,0,1-1.67-.49,2.49,2.49,0,0,1-1-.74,2.24,2.24,0,0,1-.43-1.45,2.32,2.32,0,0,1,1-1.91,3.85,3.85,0,0,1,2.44-.74A3.9,3.9,0,0,1,184.5,523.15Z" transform="translate(-0.33 -0.33)"/><path class="cls-6" d="M191.73,530.41v1.29a4,4,0,0,1-1,.11,2.51,2.51,0,0,1-1.89-.61,2.87,2.87,0,0,1-.59-2v-5.33h-1.58v-1.26h1.58v-2.21h1.58v2.21h1.82v1.26h-1.82V529a1.74,1.74,0,0,0,.29,1.13,1.21,1.21,0,0,0,1,.35A2,2,0,0,0,191.73,530.41Z" transform="translate(-0.33 -0.33)"/><path class="cls-6" d="M205.64,523.33a4.17,4.17,0,0,1,.8,2.76v5.65h-1.59v-5.53a3,3,0,0,0-.47-1.92,1.69,1.69,0,0,0-1.4-.6,1.86,1.86,0,0,0-1.57.78,3.36,3.36,0,0,0-.59,2.08v5.19h-1.58V526a2.57,2.57,0,0,0-.49-1.68,1.64,1.64,0,0,0-1.37-.61,1.89,1.89,0,0,0-1.59.79,3.62,3.62,0,0,0-.58,2.18v5.08h-1.59v-9.15h1.53v1.14h0a3.19,3.19,0,0,1,4.21-.89,2.7,2.7,0,0,1,1.06,1.28,3.14,3.14,0,0,1,2.9-1.72A2.86,2.86,0,0,1,205.64,523.33Z" transform="translate(-0.33 -0.33)"/><path class="cls-6" d="M214.4,530.28a2,2,0,0,0,.8-1.28h1.62a3.59,3.59,0,0,1-1.3,2.14,4.73,4.73,0,0,1-5,.24,3.94,3.94,0,0,1-1.49-1.73,6.2,6.2,0,0,1-.51-2.61,5.55,5.55,0,0,1,.51-2.42,4,4,0,0,1,1.48-1.68,4.17,4.17,0,0,1,2.26-.6,4,4,0,0,1,2.58.85,4.12,4.12,0,0,1,1.41,2.34,8.53,8.53,0,0,1,.18,2h-6.84a3.76,3.76,0,0,0,.81,2.45,2.45,2.45,0,0,0,1.91.83A2.59,2.59,0,0,0,214.4,530.28Zm-3.48-6a3.2,3.2,0,0,0-.83,2h5.26a3.21,3.21,0,0,0-.83-2,2.65,2.65,0,0,0-3.6,0Z" transform="translate(-0.33 -0.33)"/><path class="cls-6" d="M225.84,523.35a4,4,0,0,1,.87,2.81v5.58h-1.59v-5.46a2.93,2.93,0,0,0-.54-2,2,2,0,0,0-1.56-.61,2.23,2.23,0,0,0-1.71.74,3,3,0,0,0-.67,2.07v5.24h-1.58v-9.15h1.53v1.21h0a3.18,3.18,0,0,1,1.15-1,3.45,3.45,0,0,1,1.62-.37A3.11,3.11,0,0,1,225.84,523.35Z" transform="translate(-0.33 -0.33)"/><path class="cls-6" d="M233.11,530.41v1.29a4,4,0,0,1-1,.11,2.52,2.52,0,0,1-1.9-.61,2.87,2.87,0,0,1-.59-2v-5.33H228v-1.26h1.58v-2.21h1.59v2.21H233v1.26h-1.81V529a1.75,1.75,0,0,0,.28,1.13,1.23,1.23,0,0,0,1,.35A2,2,0,0,0,233.11,530.41Z" transform="translate(-0.33 -0.33)"/><path class="cls-6" d="M240.53,523.15a2.9,2.9,0,0,1,.94,2.31h-1.55a1.83,1.83,0,0,0-.53-1.41,2.19,2.19,0,0,0-1.51-.48,2.11,2.11,0,0,0-1.3.35,1.11,1.11,0,0,0-.48.94,1.05,1.05,0,0,0,.23.72,1.5,1.5,0,0,0,.64.4c.27.09.72.21,1.33.36a15.18,15.18,0,0,1,1.84.54,2.78,2.78,0,0,1,1.14.82,2.62,2.62,0,0,1-.51,3.54,5,5,0,0,1-5.45-.1,3,3,0,0,1-1-2.44h1.6a1.93,1.93,0,0,0,.59,1.5,2.4,2.4,0,0,0,1.66.53,2.48,2.48,0,0,0,1.44-.38,1.15,1.15,0,0,0,.54-1,1.17,1.17,0,0,0-.25-.81,1.77,1.77,0,0,0-.74-.46q-.48-.17-1.53-.42a14.17,14.17,0,0,1-1.67-.49,2.56,2.56,0,0,1-1-.74,2.24,2.24,0,0,1-.42-1.45,2.31,2.31,0,0,1,.94-1.91,4.53,4.53,0,0,1,5.07.07Z" transform="translate(-0.33 -0.33)"/><path class="cls-6" d="M254,523.23a3.49,3.49,0,0,1,.94,2.66v3.51a11.07,11.07,0,0,0,.22,2.34h-1.44a6.59,6.59,0,0,1-.13-1.33h0a3.25,3.25,0,0,1-1.28,1.13,4.25,4.25,0,0,1-1.89.4,3.25,3.25,0,0,1-2.25-.75,2.48,2.48,0,0,1-.85-1.94,2.38,2.38,0,0,1,.79-1.88,5.49,5.49,0,0,1,2.69-1q1.34-.21,2.64-.3v-.36a2.13,2.13,0,0,0-.55-1.62,2.09,2.09,0,0,0-1.52-.52,2.16,2.16,0,0,0-1.51.49,1.8,1.8,0,0,0-.57,1.32h-1.59a3,3,0,0,1,1-2.19,3.81,3.81,0,0,1,2.64-.85A3.75,3.75,0,0,1,254,523.23Zm-3,4.33a3.79,3.79,0,0,0-1.63.54,1.23,1.23,0,0,0-.48,1,1.42,1.42,0,0,0,.5,1.14,2.07,2.07,0,0,0,1.38.42,2.84,2.84,0,0,0,1-.19,2.27,2.27,0,0,0,.84-.53,2.58,2.58,0,0,0,.57-.89,3.88,3.88,0,0,0,.16-1.27v-.56C252.44,527.35,251.64,527.44,251,527.56Z" transform="translate(-0.33 -0.33)"/><path class="cls-6" d="M264.38,523.35a4,4,0,0,1,.86,2.81v5.58h-1.58v-5.46a2.93,2.93,0,0,0-.54-2,2,2,0,0,0-1.57-.61,2.22,2.22,0,0,0-1.7.74,3,3,0,0,0-.67,2.07v5.24h-1.59v-9.15h1.53v1.21h0a3.18,3.18,0,0,1,1.15-1,3.45,3.45,0,0,1,1.62-.37A3.12,3.12,0,0,1,264.38,523.35Z" transform="translate(-0.33 -0.33)"/><path class="cls-6" d="M274,531.74v-1.33h0a2.79,2.79,0,0,1-1.13,1.13,3.37,3.37,0,0,1-1.68.41,3.51,3.51,0,0,1-2-.59,3.82,3.82,0,0,1-1.34-1.68,7,7,0,0,1,0-5.06,3.82,3.82,0,0,1,1.33-1.68,3.6,3.6,0,0,1,2-.58,3.36,3.36,0,0,1,1.67.41,2.72,2.72,0,0,1,1.12,1.08h0v-4.93h1.58v12.82Zm-4.32-7.15a5,5,0,0,0,0,5.12,2.21,2.21,0,0,0,1.87,1,2.12,2.12,0,0,0,1.82-1,5.13,5.13,0,0,0,0-5.14,2.12,2.12,0,0,0-1.82-.94A2.22,2.22,0,0,0,269.65,524.59Z" transform="translate(-0.33 -0.33)"/><path class="cls-6" d="M289.25,523.35a4,4,0,0,1,.87,2.81v5.58h-1.59v-5.46a2.93,2.93,0,0,0-.54-2,2,2,0,0,0-1.56-.61,2.2,2.2,0,0,0-1.7.74,3,3,0,0,0-.68,2.07v5.24h-1.58v-9.15H284v1.21h0a3.21,3.21,0,0,1,1.16-1,3.45,3.45,0,0,1,1.62-.37A3.1,3.1,0,0,1,289.25,523.35Z" transform="translate(-0.33 -0.33)"/><path class="cls-6" d="M298.08,530.28a2,2,0,0,0,.8-1.28h1.62a3.59,3.59,0,0,1-1.3,2.14,4.73,4.73,0,0,1-5,.24,3.94,3.94,0,0,1-1.49-1.73,6.2,6.2,0,0,1-.51-2.61,5.55,5.55,0,0,1,.51-2.42,4,4,0,0,1,1.48-1.68,4.17,4.17,0,0,1,2.26-.6,4,4,0,0,1,2.58.85,4.12,4.12,0,0,1,1.41,2.34,8.53,8.53,0,0,1,.18,2h-6.84a3.76,3.76,0,0,0,.81,2.45,2.45,2.45,0,0,0,1.91.83A2.59,2.59,0,0,0,298.08,530.28Zm-3.48-6a3.2,3.2,0,0,0-.83,2H299a3.21,3.21,0,0,0-.83-2,2.65,2.65,0,0,0-3.6,0Z" transform="translate(-0.33 -0.33)"/><path class="cls-6" d="M310.31,531.74l-1.08-4c-.13-.51-.21-.84-.25-1-.29-1.07-.54-2-.75-2.95h0c-.22.9-.47,1.88-.76,2.95,0,.17-.12.5-.25,1l-1.08,4h-2.27l-2.43-9.15H303l1,3.82c.29,1.15.62,2.52,1,4.1h0c.33-1.36.66-2.7,1-4l1-3.91h2.27l1.05,3.91,1,4h0c.38-1.58.72-3,1-4.1l1-3.82H315l-2.43,9.15Z" transform="translate(-0.33 -0.33)"/><path class="cls-6" d="M86.4,545.45a2.8,2.8,0,0,1,1.12-1.09,3.58,3.58,0,0,1,1.67-.4,3.48,3.48,0,0,1,2,.59,3.75,3.75,0,0,1,1.34,1.67,7.19,7.19,0,0,1,0,5.06A3.84,3.84,0,0,1,91.19,553a3.46,3.46,0,0,1-2,.59,3.36,3.36,0,0,1-1.67-.41A2.6,2.6,0,0,1,86.38,552h0v1.33H84.78V540.52h1.58v4.93Zm.56.73a5.26,5.26,0,0,0,0,5.14,2.13,2.13,0,0,0,1.81,1,2.21,2.21,0,0,0,1.88-1,5,5,0,0,0,0-5.12,2.24,2.24,0,0,0-1.88-1A2.13,2.13,0,0,0,87,546.18Z" transform="translate(-0.33 -0.33)"/><path class="cls-6" d="M95.91,552.58a4.07,4.07,0,0,1-.85-2.81v-5.58h1.58v5.46a3,3,0,0,0,.54,2,2,2,0,0,0,1.57.6,2.2,2.2,0,0,0,1.69-.75,2.94,2.94,0,0,0,.68-2.06v-5.24h1.59v9.15h-1.53v-1.21h0a3.12,3.12,0,0,1-1.16,1,3.53,3.53,0,0,1-1.63.38A3.09,3.09,0,0,1,95.91,552.58Z" transform="translate(-0.33 -0.33)"/><path class="cls-6" d="M111,544.75a2.9,2.9,0,0,1,.94,2.31h-1.55a1.83,1.83,0,0,0-.53-1.41,2.19,2.19,0,0,0-1.51-.48,2.11,2.11,0,0,0-1.3.35,1.11,1.11,0,0,0-.48.94,1.05,1.05,0,0,0,.23.72,1.5,1.5,0,0,0,.64.4c.27.09.72.21,1.33.36a15.18,15.18,0,0,1,1.84.54,2.78,2.78,0,0,1,1.14.82,2.62,2.62,0,0,1-.51,3.54,5,5,0,0,1-5.45-.1,3,3,0,0,1-1-2.44h1.6a1.93,1.93,0,0,0,.59,1.5,2.4,2.4,0,0,0,1.66.53,2.48,2.48,0,0,0,1.44-.38,1.15,1.15,0,0,0,.54-1,1.17,1.17,0,0,0-.25-.81,1.77,1.77,0,0,0-.74-.46q-.48-.16-1.53-.42a12.22,12.22,0,0,1-1.67-.5,2.36,2.36,0,0,1-1-.73,2.26,2.26,0,0,1-.42-1.45,2.31,2.31,0,0,1,.94-1.91,4.53,4.53,0,0,1,5.07.07Z" transform="translate(-0.33 -0.33)"/><path class="cls-6" d="M114.4,542.3v-1.78H116v1.78Zm0,11v-9.15H116v9.15Z" transform="translate(-0.33 -0.33)"/><path class="cls-6" d="M125.58,545a4,4,0,0,1,.87,2.81v5.58h-1.59v-5.46a3,3,0,0,0-.54-2,2,2,0,0,0-1.56-.6,2.2,2.2,0,0,0-1.7.74,3,3,0,0,0-.68,2.07v5.24H118.8v-9.15h1.53v1.21h0a3.18,3.18,0,0,1,1.15-1,3.45,3.45,0,0,1,1.62-.37A3.11,3.11,0,0,1,125.58,545Z" transform="translate(-0.33 -0.33)"/><path class="cls-6" d="M134.41,551.88a2.06,2.06,0,0,0,.8-1.28h1.62a3.55,3.55,0,0,1-1.3,2.13,4.13,4.13,0,0,1-2.73.86,4.18,4.18,0,0,1-2.3-.61,3.94,3.94,0,0,1-1.49-1.73,6.2,6.2,0,0,1-.51-2.61,5.55,5.55,0,0,1,.51-2.42,3.94,3.94,0,0,1,1.48-1.67,4.09,4.09,0,0,1,2.26-.61,4,4,0,0,1,2.58.85,4.12,4.12,0,0,1,1.41,2.34,8.53,8.53,0,0,1,.18,2h-6.84a3.81,3.81,0,0,0,.8,2.45,2.48,2.48,0,0,0,1.92.83A2.59,2.59,0,0,0,134.41,551.88Zm-3.48-6a3.15,3.15,0,0,0-.83,2h5.26a3.21,3.21,0,0,0-.83-2,2.65,2.65,0,0,0-3.6,0Z" transform="translate(-0.33 -0.33)"/><path class="cls-6" d="M144.7,544.75a2.9,2.9,0,0,1,.93,2.31h-1.54a1.83,1.83,0,0,0-.53-1.41,2.19,2.19,0,0,0-1.51-.48,2.09,2.09,0,0,0-1.3.35,1.11,1.11,0,0,0-.48.94,1,1,0,0,0,.23.72,1.52,1.52,0,0,0,.63.4c.28.09.72.21,1.34.36a15.18,15.18,0,0,1,1.84.54,2.68,2.68,0,0,1,1.13.82,2.32,2.32,0,0,1,.48,1.55,2.35,2.35,0,0,1-1,2,4.22,4.22,0,0,1-2.64.75,4.18,4.18,0,0,1-2.81-.85,3,3,0,0,1-1-2.44h1.6a1.93,1.93,0,0,0,.59,1.5,2.4,2.4,0,0,0,1.66.53,2.48,2.48,0,0,0,1.44-.38,1.15,1.15,0,0,0,.54-1,1.17,1.17,0,0,0-.25-.81,1.77,1.77,0,0,0-.74-.46q-.48-.16-1.53-.42a12.22,12.22,0,0,1-1.67-.5,2.3,2.3,0,0,1-1-.73,2.26,2.26,0,0,1-.42-1.45,2.31,2.31,0,0,1,.94-1.91,3.85,3.85,0,0,1,2.44-.74A3.9,3.9,0,0,1,144.7,544.75Z" transform="translate(-0.33 -0.33)"/><path class="cls-6" d="M153.59,544.75a2.9,2.9,0,0,1,.94,2.31H153a1.83,1.83,0,0,0-.53-1.41,2.19,2.19,0,0,0-1.51-.48,2.11,2.11,0,0,0-1.3.35,1.11,1.11,0,0,0-.48.94,1.05,1.05,0,0,0,.23.72,1.5,1.5,0,0,0,.64.4c.27.09.72.21,1.33.36a15.18,15.18,0,0,1,1.84.54,2.78,2.78,0,0,1,1.14.82,2.62,2.62,0,0,1-.51,3.54,5,5,0,0,1-5.45-.1,3,3,0,0,1-1-2.44H149a1.93,1.93,0,0,0,.59,1.5,2.4,2.4,0,0,0,1.66.53,2.48,2.48,0,0,0,1.44-.38,1.15,1.15,0,0,0,.54-1,1.17,1.17,0,0,0-.25-.81,1.77,1.77,0,0,0-.74-.46q-.48-.16-1.53-.42a12.22,12.22,0,0,1-1.67-.5,2.36,2.36,0,0,1-1-.73,2.26,2.26,0,0,1-.42-1.45,2.31,2.31,0,0,1,.94-1.91,4.53,4.53,0,0,1,5.07.07Z" transform="translate(-0.33 -0.33)"/><path class="cls-6" d="M167,544.83a3.49,3.49,0,0,1,.94,2.66V551a11.07,11.07,0,0,0,.22,2.34h-1.44a6.59,6.59,0,0,1-.13-1.33h0a3.25,3.25,0,0,1-1.28,1.13,4.25,4.25,0,0,1-1.89.4,3.25,3.25,0,0,1-2.25-.75,2.48,2.48,0,0,1-.85-1.94,2.38,2.38,0,0,1,.79-1.88,5.49,5.49,0,0,1,2.69-1q1.33-.21,2.64-.3v-.36a2.13,2.13,0,0,0-.55-1.62,2.09,2.09,0,0,0-1.52-.52,2.16,2.16,0,0,0-1.51.49,1.8,1.8,0,0,0-.57,1.32h-1.59a3,3,0,0,1,1-2.19,3.81,3.81,0,0,1,2.64-.85A3.75,3.75,0,0,1,167,544.83Zm-3,4.33a3.79,3.79,0,0,0-1.63.54,1.23,1.23,0,0,0-.48,1,1.42,1.42,0,0,0,.5,1.14,2.07,2.07,0,0,0,1.38.42,2.84,2.84,0,0,0,1-.19,2.27,2.27,0,0,0,.84-.53,2.58,2.58,0,0,0,.57-.89,3.93,3.93,0,0,0,.16-1.27v-.56C165.5,549,164.7,549,164,549.16Z" transform="translate(-0.33 -0.33)"/><path class="cls-6" d="M176.22,544.38a3.56,3.56,0,0,1,1.37,1.24,3.89,3.89,0,0,1,.6,1.81h-1.65a2.49,2.49,0,0,0-.71-1.58,2.13,2.13,0,0,0-1.56-.61,2.26,2.26,0,0,0-1.91.94,5.15,5.15,0,0,0,0,5.17,2.26,2.26,0,0,0,1.92.94,2,2,0,0,0,1.56-.65,2.74,2.74,0,0,0,.71-1.67h1.65a4.16,4.16,0,0,1-.59,1.87,3.56,3.56,0,0,1-1.36,1.28,4,4,0,0,1-2,.47A4.45,4.45,0,0,1,172,553a3.88,3.88,0,0,1-1.49-1.68,6.59,6.59,0,0,1,0-5.13,3.91,3.91,0,0,1,1.49-1.67,4.36,4.36,0,0,1,2.29-.59A4.19,4.19,0,0,1,176.22,544.38Z" transform="translate(-0.33 -0.33)"/><path class="cls-6" d="M184.13,552v1.29a4,4,0,0,1-1,.11,2.52,2.52,0,0,1-1.9-.61,2.87,2.87,0,0,1-.59-2v-5.33h-1.58v-1.26h1.58V542h1.59v2.21H184v1.26h-1.81v5.17a1.75,1.75,0,0,0,.28,1.13,1.23,1.23,0,0,0,1,.35A2,2,0,0,0,184.13,552Z" transform="translate(-0.33 -0.33)"/><path class="cls-6" d="M186,542.3v-1.78h1.59v1.78Zm0,11v-9.15h1.59v9.15Z" transform="translate(-0.33 -0.33)"/><path class="cls-6" d="M192.22,553.34l-3.32-9.15h1.7l1.29,3.84c.55,1.64,1,3,1.33,4.07h0c.48-1.54.92-2.9,1.31-4.07l1.32-3.84h1.69l-3.31,9.15Z" transform="translate(-0.33 -0.33)"/><path class="cls-6" d="M198.88,542.3v-1.78h1.58v1.78Zm0,11v-9.15h1.58v9.15Z" transform="translate(-0.33 -0.33)"/><path class="cls-6" d="M207.14,552v1.29a4,4,0,0,1-1,.11,2.52,2.52,0,0,1-1.9-.61,2.87,2.87,0,0,1-.58-2v-5.33h-1.59v-1.26h1.59V542h1.58v2.21h1.82v1.26h-1.82v5.17a1.74,1.74,0,0,0,.29,1.13,1.19,1.19,0,0,0,1,.35A2.08,2.08,0,0,0,207.14,552Z" transform="translate(-0.33 -0.33)"/><path class="cls-6" d="M209,542.3v-1.78h1.58v1.78Zm0,11v-9.15h1.58v9.15Z" transform="translate(-0.33 -0.33)"/><path class="cls-6" d="M218.67,551.88a2.1,2.1,0,0,0,.8-1.28h1.62a3.57,3.57,0,0,1-1.31,2.13,4.12,4.12,0,0,1-2.72.86,4.24,4.24,0,0,1-2.31-.61,3.92,3.92,0,0,1-1.48-1.73,6,6,0,0,1-.52-2.61,5.41,5.41,0,0,1,.52-2.42,3.92,3.92,0,0,1,1.47-1.67,4.11,4.11,0,0,1,2.26-.61,4,4,0,0,1,2.58.85,4.08,4.08,0,0,1,1.42,2.34,8.53,8.53,0,0,1,.18,2h-6.84a3.7,3.7,0,0,0,.8,2.45,2.47,2.47,0,0,0,1.92.83A2.63,2.63,0,0,0,218.67,551.88Zm-3.49-6a3.19,3.19,0,0,0-.82,2h5.25a3.15,3.15,0,0,0-.83-2,2.4,2.4,0,0,0-1.78-.7A2.43,2.43,0,0,0,215.18,545.88Z" transform="translate(-0.33 -0.33)"/><path class="cls-6" d="M229,544.75a2.87,2.87,0,0,1,.94,2.31h-1.55a1.83,1.83,0,0,0-.53-1.41,2.15,2.15,0,0,0-1.5-.48,2.12,2.12,0,0,0-1.31.35,1.11,1.11,0,0,0-.48.94,1.05,1.05,0,0,0,.23.72,1.5,1.5,0,0,0,.64.4c.28.09.72.21,1.33.36a15.43,15.43,0,0,1,1.85.54,2.81,2.81,0,0,1,1.13.82,2.32,2.32,0,0,1,.48,1.55,2.37,2.37,0,0,1-1,2,4.26,4.26,0,0,1-2.64.75,4.22,4.22,0,0,1-2.82-.85,3.07,3.07,0,0,1-1-2.44h1.6a1.92,1.92,0,0,0,.58,1.5,2.42,2.42,0,0,0,1.67.53A2.48,2.48,0,0,0,228,552a1.15,1.15,0,0,0,.54-1,1.22,1.22,0,0,0-.25-.81,1.84,1.84,0,0,0-.74-.46q-.49-.16-1.53-.42a12.44,12.44,0,0,1-1.68-.5,2.42,2.42,0,0,1-1-.73,2.26,2.26,0,0,1-.42-1.45,2.32,2.32,0,0,1,.95-1.91,3.84,3.84,0,0,1,2.43-.74A3.89,3.89,0,0,1,229,544.75Z" transform="translate(-0.33 -0.33)"/><path class="cls-7" d="M.33,126V.33h55c-.06.65-.18,1.31-.18,2,0,8.66,0,17.33,0,26,0,1.36-.24,2.06-1.76,2.32a61,61,0,0,0-7.68,1.87c-.76.23-1.77,1.08-1.86,1.76a39.2,39.2,0,0,0-.09,5.53H74.31c-.15-2.44-.29-4.77-.43-7.13-3.07-.7-6-1.49-9-2-1.32-.23-1.54-.8-1.55-2,0-8.66-.14-17.32-.22-26,0-.59-.07-1.18-.11-1.79L57,.33H325.23V116c-.5,0-1,.07-1.49.07q-25.35,0-50.7,0a3,3,0,0,0-2.58,1.09c-2.08,2.43-4.3,4.75-6.37,7.19a3.51,3.51,0,0,1-3,1.32q-57.49,0-115,0-60.9.06-121.79.26ZM102.74,85.11H15.33v34.77h87.41ZM43.87,45.72V77.83H74.15V45.72Zm135.72,74.83V92.69c-.38,0-.65-.07-.92-.07-10,0-20,0-30,0-1.28,0-1.42.57-1.41,1.6,0,8.28,0,16.56,0,24.83,0,.49.06,1,.1,1.53ZM256.53,92.7c-.4,0-.67-.08-.94-.08-10,0-20,0-30,0-1.24,0-1.43.51-1.43,1.58,0,8.34,0,16.67,0,25,0,.42.07.85.12,1.37h32.2Zm-76.92-3.94V61H147.42V88.76ZM224.34,61V88.71h32.15V61ZM140.85,92.7c-.43,0-.7-.08-1-.08-9.78,0-19.55,0-29.32,0-1.26,0-1.42.55-1.42,1.59,0,8.29,0,16.57,0,24.85,0,.48.07,1,.11,1.52h31.57Zm45.32,0v27.85h31.56V92.69ZM140.87,61H109.29V88.72h31.58ZM186.21,61V88.71h31.5V61Z" transform="translate(-0.33 -0.33)"/><path d="M.33,126l24,0q60.9-.14,121.79-.26,57.5-.08,115,0a3.51,3.51,0,0,0,3-1.32c2.07-2.44,4.29-4.76,6.37-7.19a3,3,0,0,1,2.58-1.09q25.35,0,50.7,0c.5,0,1,0,1.49-.07v.34a9.54,9.54,0,0,0-.67.9l-52.38,87.94H30.5c-.09-.31-.15-.63-.26-.93q-11.2-29-22.4-57.91c-2.54-6.57-5-13.15-7.51-19.73Zm257.3,26.69a6.62,6.62,0,0,0-6.73-6.5c-3.2,0-6.37,3.27-6.42,6.59a6.91,6.91,0,0,0,6.74,6.59A6.75,6.75,0,0,0,257.63,152.67Zm-32.13,0c0-3.38-3.36-6.44-7.09-6.45-3.22,0-6.28,3.26-6.24,6.69,0,3.17,3.51,6.51,6.78,6.51C222,159.4,225.5,155.83,225.5,152.65Z" transform="translate(-0.33 -0.33)"/><path class="cls-7" d="M272.18,205.21l52.38-87.94a9.54,9.54,0,0,1,.67-.9v88.84Z" transform="translate(-0.33 -0.33)"/><path class="cls-7" d="M.33,126.64c2.5,6.58,5,13.16,7.51,19.73q11.18,29,22.4,57.91c.11.3.17.62.26.93H.33Z" transform="translate(-0.33 -0.33)"/><path d="M57,.33l6,.55c0,.61.1,1.2.11,1.79.08,8.67.18,17.33.22,26,0,1.16.23,1.73,1.55,2,3,.52,5.9,1.31,9,2,.14,2.36.28,4.69.43,7.13H43.8a39.2,39.2,0,0,1,.09-5.53c.09-.68,1.1-1.53,1.86-1.76a61,61,0,0,1,7.68-1.87c1.52-.26,1.77-1,1.76-2.32,0-8.66,0-17.33,0-26,0-.65.12-1.31.18-2Z" transform="translate(-0.33 -0.33)"/><path d="M102.74,85.11v34.77H15.33V85.11Z" transform="translate(-0.33 -0.33)"/><path d="M43.87,45.72H74.15V77.83H43.87Z" transform="translate(-0.33 -0.33)"/><path d="M179.59,120.55H147.42c0-.56-.1-1-.1-1.53,0-8.27,0-16.55,0-24.83,0-1,.13-1.61,1.41-1.6,10,0,20,0,30,0,.27,0,.54,0,.92.07Z" transform="translate(-0.33 -0.33)"/><path d="M256.53,92.7v27.85h-32.2c-.05-.52-.12-1-.12-1.37,0-8.34,0-16.67,0-25,0-1.07.19-1.59,1.43-1.58,10,0,20,0,30,0C255.86,92.62,256.13,92.66,256.53,92.7Z" transform="translate(-0.33 -0.33)"/><path d="M179.61,88.76H147.42V61h32.19Z" transform="translate(-0.33 -0.33)"/><path d="M224.34,61h32.15V88.71H224.34Z" transform="translate(-0.33 -0.33)"/><path d="M140.85,92.7v27.85H109.28c0-.56-.11-1-.11-1.52,0-8.28,0-16.56,0-24.85,0-1,.16-1.6,1.42-1.59,9.77,0,19.54,0,29.32,0C140.15,92.62,140.42,92.66,140.85,92.7Z" transform="translate(-0.33 -0.33)"/><path d="M186.17,92.69h31.56v27.85H186.17Z" transform="translate(-0.33 -0.33)"/><path d="M140.87,61V88.72H109.29V61Z" transform="translate(-0.33 -0.33)"/><path d="M186.21,61h31.5V88.71h-31.5Z" transform="translate(-0.33 -0.33)"/><path class="cls-7" d="M257.63,152.67a6.75,6.75,0,0,1-6.41,6.68,6.91,6.91,0,0,1-6.74-6.59c.05-3.32,3.22-6.58,6.42-6.59A6.62,6.62,0,0,1,257.63,152.67Z" transform="translate(-0.33 -0.33)"/><path class="cls-7" d="M225.5,152.65c0,3.18-3.46,6.75-6.55,6.75-3.27,0-6.74-3.34-6.78-6.51,0-3.43,3-6.7,6.24-6.69C222.14,146.21,225.5,149.27,225.5,152.65Z" transform="translate(-0.33 -0.33)"/></g></g></svg>