<svg id="Layer_1" data-name="Layer 1" xmlns="http://www.w3.org/2000/svg" viewBox="0 0 1433.33 812.74"><defs><style>.cls-1,.cls-13,.cls-4{fill:none;}.cls-1{stroke:#ed1c24;}.cls-1,.cls-13,.cls-24,.cls-26,.cls-27,.cls-28,.cls-3,.cls-35,.cls-4{stroke-miterlimit:10;}.cls-2,.cls-26,.cls-27{fill:#8dc63f;}.cls-28,.cls-3,.cls-35,.cls-8{fill:#fff;}.cls-3{stroke:#a7a9ac;}.cls-24,.cls-4{stroke:#8dc63f;}.cls-4{stroke-width:16px;}.cls-5,.cls-8{font-size:18px;font-family:MyriadPro-Regular, Myriad Pro;}.cls-5{fill:#231f20;}.cls-6{letter-spacing:-0.01em;}.cls-7{letter-spacing:-0.01em;}.cls-9{letter-spacing:-0.01em;}.cls-10{letter-spacing:-0.01em;}.cls-11{letter-spacing:0.01em;}.cls-12{letter-spacing:0em;}.cls-13,.cls-28{stroke:#231f20;}.cls-14{letter-spacing:0em;}.cls-15{letter-spacing:0em;}.cls-16{letter-spacing:-0.01em;}.cls-17{letter-spacing:0em;}.cls-18{letter-spacing:-0.02em;}.cls-19{letter-spacing:0.02em;}.cls-20{letter-spacing:-0.07em;}.cls-21{letter-spacing:-0.05em;}.cls-22{letter-spacing:0em;}.cls-23{letter-spacing:0.02em;}.cls-24{fill:#d7df23;}.cls-25{fill:#39b54a;}.cls-26{stroke:#006838;}.cls-26,.cls-27{stroke-width:3px;}.cls-27{stroke:#009444;}.cls-29{letter-spacing:-0.03em;}.cls-30{letter-spacing:-0.01em;}.cls-31{letter-spacing:0em;}.cls-32{letter-spacing:0.01em;}.cls-33{letter-spacing:-0.02em;}.cls-34{letter-spacing:0.01em;}.cls-35{stroke:#6d6e71;}.cls-36{letter-spacing:-0.01em;}</style></defs><title>Infratructure supply chain</title><line class="cls-1" y1="443.63" x2="1433.33" y2="443.63"/><rect class="cls-2" x="128.89" width="164" height="25.67" rx="12"/><rect class="cls-2" x="1145.9" width="164" height="25.67" rx="12"/><rect class="cls-2" x="635.18" width="164" height="25.67" rx="12"/><rect class="cls-3" x="52.72" y="53.18" width="312.22" height="759.06" rx="12"/><rect class="cls-3" x="504.18" y="53.18" width="418.67" height="759.06" rx="12"/><rect class="cls-3" x="1071.79" y="53.18" width="312.22" height="759.06" rx="12"/><line class="cls-4" x1="1227.9" y1="167.41" x2="1227.9" y2="707.64"/><text class="cls-5" transform="translate(1191.61 101.46)"><tspan class="cls-6">C</tspan><tspan x="10.22" y="0">us</tspan><tspan class="cls-7" x="27.27" y="0">t</tspan><tspan x="33.12" y="0">omers</tspan></text><text class="cls-8" transform="translate(1183.26 17.47)">Supply chain</text><text class="cls-5" transform="translate(1196.75 789.7)">Suppliers</text><text class="cls-5" transform="translate(270.62 709.5)"><tspan class="cls-9">L</tspan><tspan class="cls-10" x="8.24" y="0">o</tspan><tspan x="18" y="0">w</tspan></text><text class="cls-5" transform="translate(268.16 180.19)"><tspan class="cls-11">H</tspan><tspan x="11.92" y="0">igh</tspan></text><polygon class="cls-2" points="1192.34 167.41 1227.9 131.85 1263.45 167.41 1192.34 167.41"/><polygon class="cls-2" points="1263.45 707.64 1227.89 743.2 1192.34 707.65 1263.45 707.64"/><line class="cls-4" x1="212.32" y1="167.41" x2="212.32" y2="707.64"/><text class="cls-8" transform="translate(165.05 17.53)"><tspan class="cls-6">A</tspan><tspan x="10.8" y="0">dded </tspan><tspan class="cls-12" x="54.09" y="0">v</tspan><tspan x="62.68" y="0">alue</tspan></text><polygon class="cls-2" points="247.88 707.64 212.32 743.2 176.76 707.65 247.88 707.64"/><polygon class="cls-2" points="176.76 167.41 212.32 131.85 247.88 167.41 176.76 167.41"/><line class="cls-13" x1="719.41" y1="167.41" x2="719.41" y2="681.68"/><line class="cls-13" x1="629.63" y1="368.35" x2="719.41" y2="437.53"/><line class="cls-13" x1="611.85" y1="736.57" x2="719.41" y2="663.9"/><line class="cls-13" x1="719.41" y1="663.9" x2="819.85" y2="736.57"/><line class="cls-13" x1="719.68" y1="437.53" x2="802.07" y2="368.35"/><text class="cls-5" transform="translate(763.58 291.69)">Dist<tspan class="cls-14" x="29.29" y="0">r</tspan><tspan x="35.24" y="0">ibution </tspan><tspan class="cls-7" x="93.47" y="0">c</tspan><tspan x="101.43" y="0">e</tspan><tspan class="cls-15" x="110.45" y="0">n</tspan><tspan x="120.36" y="0">t</tspan><tspan class="cls-16" x="126.32" y="0">r</tspan><tspan class="cls-17" x="132.03" y="0">e</tspan></text><text class="cls-5" transform="translate(766.25 590.94)"><tspan class="cls-18">P</tspan><tspan x="9.13" y="0">o</tspan><tspan class="cls-19" x="19.01" y="0">r</tspan><tspan x="25.33" y="0">t</tspan></text><text class="cls-5" transform="translate(769.63 445.49)"><tspan class="cls-20">T</tspan><tspan x="7.67" y="0">e</tspan><tspan class="cls-14" x="16.69" y="0">r</tspan><tspan x="22.64" y="0">minal</tspan></text><text class="cls-5" transform="translate(751.19 172.13)"><tspan class="cls-6">C</tspan><tspan x="10.22" y="0">us</tspan><tspan class="cls-7" x="27.27" y="0">t</tspan><tspan x="33.12" y="0">omer</tspan></text><text class="cls-5" transform="translate(580.53 780.81)">Supplier</text><text class="cls-8" transform="translate(661.24 17.47)"><tspan class="cls-21">T</tspan><tspan class="cls-22" x="8.14" y="0">r</tspan><tspan x="13.93" y="0">anspo</tspan><tspan class="cls-23" x="59.85" y="0">r</tspan><tspan x="66.17" y="0">t chain</tspan></text><rect class="cls-24" x="683.85" y="258.79" width="71.11" height="71.11"/><rect class="cls-2" x="802.07" y="332.79" width="35.56" height="35.56"/><rect class="cls-2" x="701.63" y="646.13" width="35.56" height="35.56"/><rect class="cls-25" x="594.07" y="718.79" width="35.56" height="35.56"/><rect class="cls-25" x="802.07" y="718.79" width="35.56" height="35.56"/><rect class="cls-2" x="594.07" y="332.79" width="35.56" height="35.56"/><rect class="cls-2" x="700.52" y="149.64" width="35.56" height="35.56"/><circle class="cls-26" cx="719.41" cy="437.53" r="38.84"/><circle class="cls-27" cx="719.41" cy="583.97" r="21.92"/><line class="cls-13" x1="629.63" y1="368.35" x2="629.63" y2="377.99"/><line class="cls-13" x1="629.63" y1="368.35" x2="639.85" y2="368.35"/><line class="cls-13" x1="802.07" y1="368.35" x2="794.18" y2="368.35"/><line class="cls-13" x1="803.51" y1="375.66" x2="803.51" y2="368.35"/><line class="cls-13" x1="719.41" y1="185.19" x2="711.85" y2="192.66"/><line class="cls-13" x1="727.55" y1="192.03" x2="719.41" y2="185.19"/><line class="cls-13" x1="719.18" y1="477.91" x2="715.18" y2="482.78"/><line class="cls-13" x1="723.93" y1="481.91" x2="719.18" y2="477.91"/><line class="cls-13" x1="719.18" y1="607.41" x2="714.3" y2="611.53"/><line class="cls-13" x1="725.55" y1="610.91" x2="719.18" y2="607.41"/><line class="cls-13" x1="701.63" y1="675.92" x2="697.48" y2="675.53"/><rect class="cls-28" x="88.11" y="255.14" width="236.1" height="31.03" rx="12"/><rect class="cls-28" x="88.11" y="420.57" width="236.1" height="31.03" rx="12"/><rect class="cls-28" x="88.11" y="587.53" width="236.1" height="31.03" rx="12"/><rect class="cls-28" x="1113.58" y="255.14" width="236.1" height="31.03" rx="12"/><rect class="cls-28" x="1113.58" y="418.57" width="236.1" height="31.03" rx="12"/><rect class="cls-28" x="1113.58" y="584.48" width="236.1" height="31.03" rx="12"/><line class="cls-13" x1="700.93" y1="680.78" x2="702.18" y2="675.28"/><line class="cls-13" x1="737.19" y1="676.77" x2="741.33" y2="675.72"/><line class="cls-13" x1="739.26" y1="681.16" x2="736.46" y2="676.24"/><text class="cls-5" transform="translate(148.12 275.6)"><tspan class="cls-29">V</tspan><tspan x="9.45" y="0">alue c</tspan><tspan class="cls-30" x="53.19" y="0">r</tspan><tspan x="58.9" y="0">e</tspan><tspan class="cls-15" x="67.91" y="0">a</tspan><tspan x="76.52" y="0">tion</tspan></text><text class="cls-5" transform="translate(140.13 439.39)"><tspan class="cls-29">V</tspan><tspan x="9.45" y="0">alue </tspan><tspan class="cls-31" x="45.13" y="0">e</tspan><tspan x="54.09" y="0">xpansion</tspan></text><text class="cls-5" transform="translate(144.06 604.91)"><tspan class="cls-29">V</tspan><tspan x="9.45" y="0">alue </tspan><tspan class="cls-30" x="45.13" y="0">r</tspan><tspan x="50.83" y="0">e</tspan><tspan class="cls-7" x="59.85" y="0">t</tspan><tspan x="65.7" y="0">e</tspan><tspan class="cls-15" x="74.72" y="0">n</tspan><tspan x="84.64" y="0">tion</tspan></text><text class="cls-5" transform="translate(1169.41 275.6)"><tspan class="cls-32">M</tspan><tspan x="14.58" y="0">a</tspan><tspan class="cls-14" x="23.26" y="0">r</tspan><tspan x="29.21" y="0">ket po</tspan><tspan class="cls-7" x="76.57" y="0">t</tspan><tspan x="82.42" y="0">e</tspan><tspan class="cls-15" x="91.44" y="0">n</tspan><tspan x="101.36" y="0">tial</tspan></text><text class="cls-5" transform="translate(1150.89 439.39)">Dist<tspan class="cls-14" x="29.29" y="0">r</tspan><tspan x="35.24" y="0">ibution po</tspan><tspan class="cls-7" x="113.6" y="0">t</tspan><tspan x="119.45" y="0">e</tspan><tspan class="cls-15" x="128.46" y="0">n</tspan><tspan x="138.38" y="0">tial</tspan></text><text class="cls-5" transform="translate(1169.06 604.91)"><tspan class="cls-33">P</tspan><tspan class="cls-16" x="9.29" y="0">r</tspan><tspan x="14.99" y="0">odu</tspan><tspan class="cls-34" x="44.95" y="0">c</tspan><tspan x="53.24" y="0">tion </tspan><tspan class="cls-7" x="87.1" y="0">c</tspan><tspan x="95.06" y="0">osts</tspan></text><rect class="cls-35" x="384.72" y="429.5" width="99" height="25.05" rx="12"/><rect class="cls-35" x="947.82" y="429.5" width="99" height="25.05" rx="12"/><text class="cls-5" transform="translate(410.66 445.49)"><tspan class="cls-22">W</tspan><tspan x="15.14" y="0">he</tspan><tspan class="cls-16" x="34.15" y="0">r</tspan><tspan x="39.85" y="0">e</tspan></text><text class="cls-5" transform="translate(973.37 445.49)">H<tspan class="cls-36" x="11.74" y="0">o</tspan><tspan x="21.49" y="0">w</tspan></text></svg>