<svg id="Layer_1" data-name="Layer 1" xmlns="http://www.w3.org/2000/svg" viewBox="0 0 1433.06 808.48"><defs><style>.cls-1,.cls-10,.cls-43,.cls-44,.cls-45,.cls-46{fill:none;stroke-miterlimit:10;}.cls-1{stroke:#ed1c24;}.cls-15,.cls-2{fill:#8ccc96;}.cls-2{opacity:0.44;}.cls-17,.cls-3{font-size:18px;}.cls-20,.cls-3{fill:#231f20;}.cls-17,.cls-27,.cls-3,.cls-34{font-family:MyriadPro-Regular, Myriad Pro;}.cls-4{letter-spacing:-0.01em;}.cls-5{letter-spacing:-0.01em;}.cls-6{letter-spacing:-0.01em;}.cls-7{letter-spacing:-0.01em;}.cls-8{letter-spacing:0.01em;}.cls-9{fill:#179570;}.cls-10{stroke:#231f20;}.cls-11{letter-spacing:0em;}.cls-12{letter-spacing:0em;}.cls-13{letter-spacing:-0.01em;}.cls-14{letter-spacing:0em;}.cls-16{fill:#174b5f;}.cls-17{fill:#fff;}.cls-18{letter-spacing:0em;}.cls-19{letter-spacing:-0.01em;}.cls-21{fill:#f4ead3;}.cls-22{letter-spacing:0em;}.cls-23{letter-spacing:-0.05em;}.cls-24{letter-spacing:0.02em;}.cls-25{letter-spacing:-0.03em;}.cls-26{letter-spacing:-0.01em;}.cls-27,.cls-34{font-size:12px;}.cls-27{fill:#939598;}.cls-28{letter-spacing:-0.01em;}.cls-29{letter-spacing:0.01em;}.cls-30{letter-spacing:0.01em;}.cls-31{letter-spacing:0em;}.cls-32{letter-spacing:-0.01em;}.cls-33{letter-spacing:-0.01em;}.cls-34,.cls-37{fill:#a7a9ac;}.cls-35{letter-spacing:-0.02em;}.cls-36{letter-spacing:-0.01em;}.cls-38{letter-spacing:0em;}.cls-39{letter-spacing:0.01em;}.cls-40{letter-spacing:-0.02em;}.cls-41{letter-spacing:0.01em;}.cls-42{letter-spacing:-0.07em;}.cls-43,.cls-44,.cls-45,.cls-46{stroke:#808285;}.cls-44{stroke-dasharray:11.57 11.57;}.cls-45{stroke-dasharray:11.62 11.62;}.cls-46{stroke-dasharray:12.29 12.29;}</style></defs><title>Infratructure supply chain</title><line class="cls-1" x1="312.22" y1="390.45" x2="457.99" y2="390.45"/><line class="cls-1" x1="870.12" y1="390.45" x2="1019.83" y2="390.45"/><rect class="cls-2" width="312.22" height="759.06" rx="12"/><rect class="cls-2" x="457.99" width="412.13" height="759.06" rx="12"/><rect class="cls-2" x="1019.06" width="312.22" height="759.06" rx="12"/><text class="cls-3" transform="translate(1138.89 48.27)"><tspan class="cls-4">C</tspan><tspan x="10.22" y="0">us</tspan><tspan class="cls-5" x="27.27" y="0">t</tspan><tspan x="33.12" y="0">omers</tspan></text><text class="cls-3" transform="translate(1144.02 736.52)">Suppliers</text><text class="cls-3" transform="translate(217.9 656.32)"><tspan class="cls-6">L</tspan><tspan class="cls-7" x="8.24" y="0">o</tspan><tspan x="18" y="0">w</tspan></text><text class="cls-3" transform="translate(215.43 127.01)"><tspan class="cls-8">H</tspan><tspan x="11.92" y="0">igh</tspan></text><polygon class="cls-9" points="1139.62 114.23 1175.18 78.67 1210.73 114.22 1139.62 114.23"/><polygon class="cls-9" points="1210.73 654.46 1175.17 690.02 1139.62 654.47 1210.73 654.46"/><line class="cls-9" x1="159.6" y1="114.23" x2="159.6" y2="654.46"/><polygon class="cls-9" points="195.16 654.46 159.59 690.02 124.04 654.47 195.16 654.46"/><polygon class="cls-9" points="124.04 114.23 159.6 78.67 195.16 114.22 124.04 114.23"/><line class="cls-10" x1="666.68" y1="114.23" x2="666.68" y2="628.5"/><line class="cls-10" x1="576.91" y1="315.17" x2="666.68" y2="384.34"/><line class="cls-10" x1="559.13" y1="683.39" x2="666.68" y2="610.72"/><line class="cls-10" x1="666.68" y1="610.72" x2="767.13" y2="683.39"/><line class="cls-10" x1="666.96" y1="384.34" x2="749.35" y2="315.17"/><text class="cls-3" transform="translate(716.91 243.03)">Dist<tspan class="cls-11" x="29.29" y="0">r</tspan><tspan x="35.24" y="0">ibution </tspan><tspan class="cls-5" x="93.47" y="0">c</tspan><tspan x="101.43" y="0">e</tspan><tspan class="cls-12" x="110.45" y="0">n</tspan><tspan x="120.36" y="0">t</tspan><tspan class="cls-13" x="126.32" y="0">r</tspan><tspan class="cls-14" x="132.03" y="0">e</tspan></text><text class="cls-3" transform="translate(631.97 45.27)"><tspan class="cls-4">C</tspan><tspan x="10.22" y="0">us</tspan><tspan class="cls-5" x="27.27" y="0">t</tspan><tspan x="33.12" y="0">omer</tspan></text><text class="cls-3" transform="translate(527.81 727.63)">Supplier</text><rect class="cls-15" x="648.9" y="592.94" width="35.56" height="35.56"/><rect class="cls-15" x="541.35" y="665.61" width="35.56" height="35.56"/><rect class="cls-15" x="749.35" y="665.61" width="35.56" height="35.56"/><rect class="cls-15" x="647.79" y="96.45" width="35.56" height="35.56"/><circle class="cls-15" cx="666.68" cy="384.34" r="38.84"/><line class="cls-10" x1="576.91" y1="315.17" x2="576.91" y2="324.8"/><line class="cls-10" x1="576.91" y1="315.17" x2="587.12" y2="315.17"/><line class="cls-10" x1="749.35" y1="315.17" x2="741.46" y2="315.17"/><line class="cls-10" x1="750.79" y1="322.47" x2="750.79" y2="315.17"/><line class="cls-10" x1="666.68" y1="132.01" x2="659.12" y2="139.47"/><line class="cls-10" x1="674.83" y1="138.85" x2="666.68" y2="132.01"/><line class="cls-10" x1="666.46" y1="424.72" x2="662.46" y2="429.6"/><line class="cls-10" x1="671.21" y1="428.72" x2="666.46" y2="424.72"/><line class="cls-10" x1="666.46" y1="554.22" x2="661.58" y2="558.35"/><line class="cls-10" x1="672.83" y1="557.72" x2="666.46" y2="554.22"/><line class="cls-10" x1="648.9" y1="622.73" x2="644.76" y2="622.35"/><line class="cls-10" x1="648.21" y1="627.6" x2="649.46" y2="622.1"/><line class="cls-10" x1="684.46" y1="623.58" x2="688.61" y2="622.54"/><line class="cls-10" x1="686.53" y1="627.97" x2="683.74" y2="623.06"/><rect class="cls-16" x="331.99" y="376.32" width="99" height="25.05" rx="12"/><rect class="cls-16" x="895.09" y="376.32" width="99" height="25.05" rx="12"/><text class="cls-17" transform="translate(357.94 392.31)"><tspan class="cls-18">W</tspan><tspan x="15.14" y="0">he</tspan><tspan class="cls-13" x="34.15" y="0">r</tspan><tspan x="39.85" y="0">e</tspan></text><text class="cls-17" transform="translate(920.65 392.31)">H<tspan class="cls-19" x="11.74" y="0">o</tspan><tspan x="21.49" y="0">w</tspan></text><rect class="cls-20" x="205.16" y="22.2" width="164" height="25.67" rx="12"/><rect class="cls-21" x="281.93" y="110.3" width="207.56" height="59.88" rx="12"/><text class="cls-17" transform="translate(241.33 39.73)"><tspan class="cls-4">A</tspan><tspan x="10.8" y="0">dded </tspan><tspan class="cls-22" x="54.09" y="0">v</tspan><tspan x="62.68" y="0">alue</tspan></text><rect class="cls-20" x="770.38" y="21.77" width="164" height="25.67" rx="12"/><text class="cls-17" transform="translate(796.45 39.24)"><tspan class="cls-23">T</tspan><tspan class="cls-18" x="8.14" y="0">r</tspan><tspan x="13.93" y="0">anspo</tspan><tspan class="cls-24" x="59.85" y="0">r</tspan><tspan x="66.17" y="0">t chain</tspan></text><rect class="cls-20" x="1237.84" y="24.61" width="164" height="25.67" rx="12"/><text class="cls-17" transform="translate(1275.2 42.08)">Supply chain</text><rect class="cls-9" x="152.6" y="114.23" width="14" height="540.23"/><rect class="cls-9" x="1168.17" y="114.23" width="14" height="540.23"/><rect class="cls-15" x="35.39" y="201.95" width="236.1" height="31.03" rx="12"/><rect class="cls-15" x="35.39" y="367.39" width="236.1" height="31.03" rx="12"/><rect class="cls-15" x="35.39" y="534.34" width="236.1" height="31.03" rx="12"/><text class="cls-17" transform="translate(95.4 222.41)"><tspan class="cls-25">V</tspan><tspan x="9.45" y="0">alue c</tspan><tspan class="cls-26" x="53.19" y="0">r</tspan><tspan x="58.9" y="0">e</tspan><tspan class="cls-12" x="67.91" y="0">a</tspan><tspan x="76.52" y="0">tion</tspan></text><text class="cls-27" transform="translate(902.47 330.11)"><tspan class="cls-28">A</tspan><tspan x="7.27" y="0">ssembly</tspan></text><text class="cls-27" transform="translate(901.62 301.46)"><tspan class="cls-29">M</tspan><tspan x="9.72" y="0">anufa</tspan><tspan class="cls-30" x="38.06" y="0">c</tspan><tspan class="cls-28" x="43.59" y="0">t</tspan><tspan x="47.49" y="0">o</tspan><tspan class="cls-11" x="54.08" y="0">r</tspan><tspan x="58.05" y="0">ing</tspan></text><text class="cls-27" transform="translate(903.45 356.98)"><tspan class="cls-31">S</tspan><tspan class="cls-28" x="5.88" y="0">t</tspan><tspan x="9.78" y="0">o</tspan><tspan class="cls-32" x="16.37" y="0">r</tspan><tspan x="20.23" y="0">age</tspan></text><text class="cls-27" transform="translate(901.62 273.41)"><tspan class="cls-33">C</tspan><tspan x="6.82" y="0">us</tspan><tspan class="cls-28" x="18.18" y="0">t</tspan><tspan x="22.08" y="0">omiz</tspan><tspan class="cls-12" x="46.62" y="0">a</tspan><tspan x="52.36" y="0">tion</tspan></text><text class="cls-27" transform="translate(901.62 249.44)">Dist<tspan class="cls-11" x="19.52" y="0">r</tspan><tspan x="23.5" y="0">ibution</tspan></text><text class="cls-34" transform="translate(389.17 230.03)"><tspan class="cls-35">P</tspan><tspan x="6.08" y="0">o</tspan><tspan class="cls-36" x="12.67" y="0">t</tspan><tspan x="16.57" y="0">e</tspan><tspan class="cls-12" x="22.58" y="0">n</tspan><tspan x="29.2" y="0">tial</tspan></text><path class="cls-37" d="M469.39,907.92V906l2.49-2.41c6-5.69,8.67-8.71,8.71-12.24,0-2.37-1.15-4.57-4.64-4.57a8,8,0,0,0-5,2l-1-2.23a10.25,10.25,0,0,1,6.62-2.38c5,0,7.17,3.46,7.17,6.81,0,4.32-3.13,7.81-8.07,12.56l-1.87,1.73v.07h10.51v2.63Z" transform="translate(-103.51 -172.18)"/><path class="cls-37" d="M490.35,890.49l2.48,3.75c.65,1,1.19,1.87,1.76,2.84h.11c.58-1,1.15-1.94,1.73-2.88l2.45-3.71h3.42l-5.94,8.43,6.12,9h-3.6L496.32,904c-.68-1-1.26-2-1.87-3h-.07c-.58,1-1.19,2-1.84,3L490,907.92h-3.49l6.19-8.9-5.9-8.53Z" transform="translate(-103.51 -172.18)"/><path class="cls-37" d="M455,929.52h-2.46v-.89h6v.89h-2.47v7.2H455Z" transform="translate(-103.51 -172.18)"/><path class="cls-37" d="M458.86,932.72c0-.68,0-1.27,0-1.81h.92l0,1.14h0a1.75,1.75,0,0,1,1.61-1.27,1,1,0,0,1,.3,0v1a1.88,1.88,0,0,0-.36,0,1.48,1.48,0,0,0-1.41,1.36,2.38,2.38,0,0,0,0,.49v3.1h-1.05Z" transform="translate(-103.51 -172.18)"/><path class="cls-37" d="M465.94,936.72l-.08-.74h0a2.14,2.14,0,0,1-1.77.87,1.66,1.66,0,0,1-1.78-1.67c0-1.4,1.25-2.17,3.49-2.16v-.12a1.19,1.19,0,0,0-1.32-1.34,2.93,2.93,0,0,0-1.51.43l-.24-.7a3.63,3.63,0,0,1,1.91-.51c1.77,0,2.21,1.21,2.21,2.37v2.18a8.47,8.47,0,0,0,.09,1.39Zm-.15-3c-1.16,0-2.46.18-2.46,1.31a.93.93,0,0,0,1,1,1.45,1.45,0,0,0,1.41-1,1.35,1.35,0,0,0,.06-.34Z" transform="translate(-103.51 -172.18)"/><path class="cls-37" d="M473.53,928.2v7c0,.51,0,1.1,0,1.5h-.94l-.05-1h0a2.13,2.13,0,0,1-2,1.14c-1.41,0-2.49-1.19-2.49-3,0-1.93,1.19-3.12,2.6-3.12a2,2,0,0,1,1.76.89h0V928.2Zm-1.06,5.07a1.65,1.65,0,0,0-.05-.44,1.54,1.54,0,0,0-1.52-1.22c-1.09,0-1.74,1-1.74,2.24s.58,2.15,1.72,2.15a1.59,1.59,0,0,0,1.54-1.26,1.71,1.71,0,0,0,.05-.46Z" transform="translate(-103.51 -172.18)"/><path class="cls-37" d="M475.87,934a1.85,1.85,0,0,0,2,2,3.83,3.83,0,0,0,1.61-.3l.18.76a4.9,4.9,0,0,1-1.94.36,2.7,2.7,0,0,1-2.85-2.93c0-1.75,1-3.13,2.72-3.13a2.46,2.46,0,0,1,2.4,2.73,4.92,4.92,0,0,1,0,.5Zm3.09-.76a1.5,1.5,0,0,0-1.46-1.71,1.74,1.74,0,0,0-1.62,1.71Z" transform="translate(-103.51 -172.18)"/><path class="cls-37" d="M481.7,930.91l1.14,3.26c.19.53.35,1,.47,1.49h0c.13-.48.3-1,.49-1.49l1.13-3.26h1.1l-2.27,5.81h-1l-2.21-5.81Z" transform="translate(-103.51 -172.18)"/><path class="cls-37" d="M492.2,933.77a2.84,2.84,0,0,1-2.89,3.08,2.77,2.77,0,0,1-2.79-3,2.84,2.84,0,0,1,2.88-3.08A2.75,2.75,0,0,1,492.2,933.77Zm-4.61.06c0,1.27.73,2.23,1.76,2.23s1.77-.95,1.77-2.26c0-1-.49-2.23-1.74-2.23S487.59,932.72,487.59,933.83Z" transform="translate(-103.51 -172.18)"/><path class="cls-37" d="M493.53,928.2h1.06v8.52h-1.06Z" transform="translate(-103.51 -172.18)"/><path class="cls-37" d="M501.22,935.13c0,.6,0,1.13,0,1.59h-.94l-.06-1h0a2.19,2.19,0,0,1-1.92,1.08c-.91,0-2-.51-2-2.54v-3.4h1.05v3.22c0,1.1.34,1.84,1.3,1.84a1.52,1.52,0,0,0,1.39-1,1.49,1.49,0,0,0,.1-.54v-3.56h1.05Z" transform="translate(-103.51 -172.18)"/><path class="cls-37" d="M503,932.48c0-.6,0-1.09-.05-1.57h.92l0,.94h0a2,2,0,0,1,1.82-1.07,1.71,1.71,0,0,1,1.64,1.16h0a2.27,2.27,0,0,1,.64-.75,2,2,0,0,1,1.29-.41c.76,0,1.9.5,1.9,2.52v3.42h-1v-3.29c0-1.12-.41-1.79-1.26-1.79a1.35,1.35,0,0,0-1.24,1,1.73,1.73,0,0,0-.09.53v3.59h-1v-3.48c0-.93-.41-1.6-1.21-1.6a1.45,1.45,0,0,0-1.31,1.06,1.4,1.4,0,0,0-.08.51v3.51h-1Z" transform="translate(-103.51 -172.18)"/><path class="cls-37" d="M513.57,934a1.86,1.86,0,0,0,2,2,3.8,3.8,0,0,0,1.61-.3l.18.76a4.84,4.84,0,0,1-1.93.36,2.7,2.7,0,0,1-2.86-2.93c0-1.75,1-3.13,2.73-3.13a2.46,2.46,0,0,1,2.4,2.73,4.36,4.36,0,0,1,0,.5Zm3.1-.76a1.5,1.5,0,0,0-1.47-1.71,1.75,1.75,0,0,0-1.62,1.71Z" transform="translate(-103.51 -172.18)"/><text x="-103.51" y="-172.18"/><text class="cls-17" transform="translate(87.41 386.21)"><tspan class="cls-25">V</tspan><tspan x="9.45" y="0">alue </tspan><tspan class="cls-38" x="45.13" y="0">e</tspan><tspan x="54.09" y="0">xpansion</tspan></text><text class="cls-17" transform="translate(91.34 551.72)"><tspan class="cls-25">V</tspan><tspan x="9.45" y="0">alue </tspan><tspan class="cls-26" x="45.13" y="0">r</tspan><tspan x="50.83" y="0">e</tspan><tspan class="cls-5" x="59.85" y="0">t</tspan><tspan x="65.7" y="0">e</tspan><tspan class="cls-12" x="74.72" y="0">n</tspan><tspan x="84.64" y="0">tion</tspan></text><rect class="cls-15" x="1060.86" y="201.95" width="236.1" height="31.03" rx="12"/><rect class="cls-15" x="1060.86" y="365.39" width="236.1" height="31.03" rx="12"/><rect class="cls-15" x="1060.86" y="531.3" width="236.1" height="31.03" rx="12"/><text class="cls-17" transform="translate(1116.68 222.41)"><tspan class="cls-39">M</tspan><tspan x="14.58" y="0">a</tspan><tspan class="cls-11" x="23.26" y="0">r</tspan><tspan x="29.21" y="0">ket po</tspan><tspan class="cls-5" x="76.57" y="0">t</tspan><tspan x="82.42" y="0">e</tspan><tspan class="cls-12" x="91.44" y="0">n</tspan><tspan x="101.36" y="0">tial</tspan></text><text class="cls-17" transform="translate(1098.17 386.21)">Dist<tspan class="cls-11" x="29.29" y="0">r</tspan><tspan x="35.24" y="0">ibution po</tspan><tspan class="cls-5" x="113.6" y="0">t</tspan><tspan x="119.45" y="0">e</tspan><tspan class="cls-12" x="128.46" y="0">n</tspan><tspan x="138.38" y="0">tial</tspan></text><text class="cls-17" transform="translate(1116.33 551.72)"><tspan class="cls-40">P</tspan><tspan class="cls-13" x="9.29" y="0">r</tspan><tspan x="14.99" y="0">odu</tspan><tspan class="cls-41" x="44.95" y="0">c</tspan><tspan x="53.24" y="0">tion </tspan><tspan class="cls-5" x="87.1" y="0">c</tspan><tspan x="95.06" y="0">osts</tspan></text><rect class="cls-15" x="535.91" y="276.72" width="41" height="35.56" rx="12"/><rect class="cls-15" x="745.4" y="276.72" width="41" height="35.56" rx="12"/><path class="cls-20" d="M440.47,295.89a16.42,16.42,0,0,1,3-.25,5,5,0,0,1,3.51,1,3,3,0,0,1,1,2.31,3.18,3.18,0,0,1-2.29,3.09v.06a3,3,0,0,1,1.78,2.45,19.89,19.89,0,0,0,.94,3.33h-1.62a15.68,15.68,0,0,1-.81-2.9c-.36-1.68-1-2.31-2.43-2.36H442v5.26h-1.56Zm1.56,5.53h1.6c1.68,0,2.74-.92,2.74-2.3,0-1.57-1.13-2.25-2.79-2.27A6.6,6.6,0,0,0,442,297Z" transform="translate(-103.51 -172.18)"/><path class="cls-20" d="M451.05,303.8a2.79,2.79,0,0,0,3,3,5.59,5.59,0,0,0,2.41-.45l.27,1.14a7.09,7.09,0,0,1-2.9.54,4,4,0,0,1-4.28-4.4c0-2.63,1.55-4.7,4.08-4.7,2.85,0,3.61,2.51,3.61,4.11a5.45,5.45,0,0,1-.06.74Zm4.64-1.14a2.25,2.25,0,0,0-2.19-2.57,2.62,2.62,0,0,0-2.43,2.57Z" transform="translate(-103.51 -172.18)"/><path class="cls-20" d="M459,306.25a4.23,4.23,0,0,0,2.09.63c1.15,0,1.69-.58,1.69-1.3s-.45-1.17-1.62-1.6c-1.57-.56-2.3-1.42-2.3-2.47,0-1.4,1.13-2.56,3-2.56a4.49,4.49,0,0,1,2.15.54l-.4,1.16a3.33,3.33,0,0,0-1.78-.51c-.94,0-1.46.54-1.46,1.19s.52,1.05,1.65,1.48c1.52.57,2.29,1.33,2.29,2.63,0,1.53-1.19,2.61-3.26,2.61a5,5,0,0,1-2.45-.6Z" transform="translate(-103.51 -172.18)"/><path class="cls-20" d="M474.2,303.44a4.26,4.26,0,0,1-4.34,4.63,4.15,4.15,0,0,1-4.18-4.49c0-2.91,1.91-4.63,4.32-4.63S474.2,300.77,474.2,303.44Zm-6.91.09c0,1.91,1.09,3.35,2.64,3.35s2.65-1.43,2.65-3.39c0-1.47-.74-3.35-2.61-3.35S467.29,301.87,467.29,303.53Z" transform="translate(-103.51 -172.18)"/><path class="cls-20" d="M483.49,305.49c0,.9,0,1.69.07,2.38h-1.41l-.09-1.43h0a3.27,3.27,0,0,1-2.88,1.63c-1.37,0-3-.76-3-3.82v-5.1h1.59V304c0,1.65.5,2.77,1.94,2.77a2.22,2.22,0,0,0,2.23-2.25v-5.35h1.59Z" transform="translate(-103.51 -172.18)"/><path class="cls-20" d="M486.11,301.87c0-1,0-1.91-.07-2.72h1.39l.05,1.71h.07A2.62,2.62,0,0,1,490,299a1.58,1.58,0,0,1,.45.06v1.49a2.92,2.92,0,0,0-.54-.05,2.23,2.23,0,0,0-2.13,2,5.32,5.32,0,0,0-.07.74v4.65h-1.57Z" transform="translate(-103.51 -172.18)"/><path class="cls-20" d="M498,307.54a5.73,5.73,0,0,1-2.5.51,4.14,4.14,0,0,1-4.34-4.45,4.43,4.43,0,0,1,4.68-4.63,5.39,5.39,0,0,1,2.2.45l-.36,1.23a3.66,3.66,0,0,0-1.84-.42,3.29,3.29,0,0,0-.05,6.56,4.44,4.44,0,0,0,1.94-.44Z" transform="translate(-103.51 -172.18)"/><path class="cls-20" d="M500.66,303.8a2.78,2.78,0,0,0,3,3,5.63,5.63,0,0,0,2.41-.45l.27,1.14a7.09,7.09,0,0,1-2.9.54,4,4,0,0,1-4.28-4.4c0-2.63,1.54-4.7,4.08-4.7,2.85,0,3.6,2.51,3.6,4.11a5.82,5.82,0,0,1-.05.74Zm4.64-1.14a2.25,2.25,0,0,0-2.19-2.57,2.62,2.62,0,0,0-2.43,2.57Z" transform="translate(-103.51 -172.18)"/><path class="cls-20" d="M508.58,306.25a4.2,4.2,0,0,0,2.09.63c1.15,0,1.69-.58,1.69-1.3s-.45-1.17-1.62-1.6c-1.57-.56-2.31-1.42-2.31-2.47,0-1.4,1.14-2.56,3-2.56a4.42,4.42,0,0,1,2.14.54l-.39,1.16a3.41,3.41,0,0,0-1.79-.51c-.93,0-1.45.54-1.45,1.19s.52,1.05,1.65,1.48c1.51.57,2.29,1.33,2.29,2.63,0,1.53-1.19,2.61-3.26,2.61a5,5,0,0,1-2.45-.6Z" transform="translate(-103.51 -172.18)"/><path class="cls-20" d="M527.39,307.87c-.34-.35-.67-.69-1.13-1.19a5,5,0,0,1-3.55,1.39,3.44,3.44,0,0,1-3.73-3.41,4,4,0,0,1,2.38-3.54v-.06a4.16,4.16,0,0,1-1-2.54,3,3,0,0,1,3.08-3,2.53,2.53,0,0,1,2.68,2.58c0,1.28-.74,2.29-2.66,3.24v0c1,1.19,2.18,2.52,2.95,3.39a8.85,8.85,0,0,0,1.17-3.55H529a9.16,9.16,0,0,1-1.75,4.48l2,2.15Zm-1.91-2.09c-.72-.79-2.07-2.27-3.42-3.82a3,3,0,0,0-1.57,2.47,2.4,2.4,0,0,0,2.49,2.45A3.4,3.4,0,0,0,525.48,305.78Zm-3.69-7.4a3.43,3.43,0,0,0,.92,2.18c1.22-.71,2-1.35,2-2.38a1.43,1.43,0,0,0-1.4-1.57A1.58,1.58,0,0,0,521.79,298.38Z" transform="translate(-103.51 -172.18)"/><path class="cls-20" d="M442,317.33v12.14h-1.56V317.33Z" transform="translate(-103.51 -172.18)"/><path class="cls-20" d="M444.89,323.11c0-.9,0-1.64-.07-2.36h1.41l.09,1.44h0a3.2,3.2,0,0,1,2.88-1.64c1.21,0,3.08.72,3.08,3.71v5.21h-1.58v-5c0-1.4-.53-2.57-2-2.57a2.25,2.25,0,0,0-2.12,1.62,2.1,2.1,0,0,0-.11.74v5.24h-1.59Z" transform="translate(-103.51 -172.18)"/><path class="cls-20" d="M462.41,316.68v10.54c0,.77,0,1.65.07,2.25h-1.42L461,328h0a3.22,3.22,0,0,1-3,1.72c-2.11,0-3.73-1.79-3.73-4.43,0-2.9,1.79-4.69,3.91-4.69a2.93,2.93,0,0,1,2.63,1.34h0v-5.21Zm-1.59,7.62a2.55,2.55,0,0,0-.07-.67,2.33,2.33,0,0,0-2.28-1.83c-1.64,0-2.62,1.44-2.62,3.36,0,1.77.87,3.23,2.58,3.23a2.39,2.39,0,0,0,2.32-1.89,2.57,2.57,0,0,0,.07-.69Z" transform="translate(-103.51 -172.18)"/><path class="cls-20" d="M472.33,327.09c0,.9,0,1.69.07,2.38H471L470.9,328h0a3.27,3.27,0,0,1-2.88,1.63c-1.37,0-3-.76-3-3.82v-5.1h1.58v4.83c0,1.65.51,2.77,1.95,2.77a2.22,2.22,0,0,0,2.23-2.25v-5.35h1.59Z" transform="translate(-103.51 -172.18)"/><path class="cls-20" d="M474.74,327.85a4.17,4.17,0,0,0,2.09.63c1.15,0,1.69-.58,1.69-1.3s-.45-1.17-1.62-1.6c-1.57-.56-2.31-1.42-2.31-2.47,0-1.4,1.14-2.56,3-2.56a4.42,4.42,0,0,1,2.14.54l-.39,1.16a3.41,3.41,0,0,0-1.79-.51c-.93,0-1.46.54-1.46,1.19s.53,1.05,1.66,1.48c1.51.57,2.29,1.33,2.29,2.63,0,1.53-1.19,2.61-3.26,2.61a5,5,0,0,1-2.45-.6Z" transform="translate(-103.51 -172.18)"/><path class="cls-20" d="M484,318.25v2.5h2.27V322H484v4.7c0,1.08.31,1.69,1.19,1.69a3.31,3.31,0,0,0,.92-.11l.07,1.19a3.8,3.8,0,0,1-1.41.22,2.2,2.2,0,0,1-1.71-.67,3.23,3.23,0,0,1-.61-2.27V322h-1.35v-1.21h1.35v-2.09Z" transform="translate(-103.51 -172.18)"/><path class="cls-20" d="M488,323.47c0-1,0-1.91-.07-2.72h1.38l.06,1.71h.07a2.62,2.62,0,0,1,2.41-1.91,1.53,1.53,0,0,1,.45.06v1.49a2.76,2.76,0,0,0-.54-.05,2.22,2.22,0,0,0-2.12,2,4.09,4.09,0,0,0-.08.74v4.65H488Z" transform="translate(-103.51 -172.18)"/><path class="cls-20" d="M495,320.75l1.91,5.15c.2.58.41,1.26.56,1.78h0c.17-.52.35-1.18.56-1.81l1.73-5.12h1.67L499,327c-1.14,3-1.91,4.52-3,5.46a4.46,4.46,0,0,1-1.95,1l-.39-1.34a4,4,0,0,0,1.38-.77,4.69,4.69,0,0,0,1.34-1.76.75.75,0,0,0,0-.8l-3.22-8Z" transform="translate(-103.51 -172.18)"/><rect class="cls-21" x="847.96" y="106.13" width="207.56" height="59.88" rx="12"/><path class="cls-20" d="M1008.8,292.9h-3.69v-1.34h9v1.34h-3.71v10.8h-1.58Z" transform="translate(-103.51 -172.18)"/><path class="cls-20" d="M1015,299.63a2.79,2.79,0,0,0,3,3,5.78,5.78,0,0,0,2.41-.45l.27,1.13a7.09,7.09,0,0,1-2.9.54,4,4,0,0,1-4.28-4.39c0-2.63,1.54-4.7,4.08-4.7,2.85,0,3.6,2.5,3.6,4.1a5.67,5.67,0,0,1,0,.74Zm4.64-1.13a2.25,2.25,0,0,0-2.19-2.58,2.62,2.62,0,0,0-2.43,2.58Z" transform="translate(-103.51 -172.18)"/><path class="cls-20" d="M1023.12,297.7c0-1,0-1.9-.07-2.71h1.39l0,1.71h.07a2.62,2.62,0,0,1,2.42-1.91,2.06,2.06,0,0,1,.45,0v1.5a2.17,2.17,0,0,0-2.67,2,5,5,0,0,0-.07.73v4.65h-1.57Z" transform="translate(-103.51 -172.18)"/><path class="cls-20" d="M1029.08,297.34c0-.9,0-1.63-.07-2.35h1.39l.07,1.4h0a3,3,0,0,1,2.74-1.6,2.58,2.58,0,0,1,2.47,1.74h0a3.63,3.63,0,0,1,1-1.13,3,3,0,0,1,1.93-.61c1.15,0,2.86.75,2.86,3.78v5.13H1040v-4.93c0-1.68-.61-2.69-1.89-2.69a2.05,2.05,0,0,0-1.87,1.44,2.73,2.73,0,0,0-.13.8v5.38h-1.54v-5.22c0-1.39-.62-2.4-1.82-2.4a2.39,2.39,0,0,0-2.09,2.36v5.26h-1.55Z" transform="translate(-103.51 -172.18)"/><path class="cls-20" d="M1045.86,292.54a1,1,0,0,1-2,0,1,1,0,0,1,1-1A.94.94,0,0,1,1045.86,292.54Zm-1.77,11.16V295h1.59v8.71Z" transform="translate(-103.51 -172.18)"/><path class="cls-20" d="M1048.31,297.34c0-.9,0-1.63-.08-2.35h1.41l.09,1.44h0a3.21,3.21,0,0,1,2.88-1.64c1.21,0,3.08.72,3.08,3.71v5.2h-1.58v-5c0-1.41-.52-2.58-2-2.58a2.25,2.25,0,0,0-2.12,1.62,2.35,2.35,0,0,0-.11.74v5.24h-1.58Z" transform="translate(-103.51 -172.18)"/><path class="cls-20" d="M1063.12,303.7l-.13-1.1h0a3.23,3.23,0,0,1-2.66,1.3,2.48,2.48,0,0,1-2.67-2.5c0-2.11,1.87-3.26,5.24-3.25V298a1.79,1.79,0,0,0-2-2,4.31,4.31,0,0,0-2.27.65l-.36-1.05a5.4,5.4,0,0,1,2.86-.77c2.67,0,3.32,1.82,3.32,3.56v3.26a12.06,12.06,0,0,0,.14,2.09Zm-.23-4.45c-1.73,0-3.69.27-3.69,2a1.4,1.4,0,0,0,1.49,1.52,2.18,2.18,0,0,0,2.11-1.46,1.76,1.76,0,0,0,.09-.51Z" transform="translate(-103.51 -172.18)"/><path class="cls-20" d="M1067,290.92h1.59V303.7H1067Z" transform="translate(-103.51 -172.18)"/><path class="cls-20" d="M1012.78,319.61h-4.72V324h5.26v1.31h-6.83V313.16h6.56v1.32h-5v3.83h4.72Z" transform="translate(-103.51 -172.18)"/><path class="cls-20" d="M1016,316.58l1.24,1.88c.33.48.6.93.89,1.42h.05c.29-.52.58-1,.87-1.44l1.22-1.86H1022l-3,4.22,3.06,4.5h-1.8l-1.28-2c-.34-.51-.63-1-.94-1.52h0c-.29.53-.6,1-.92,1.52l-1.26,2h-1.75l3.1-4.45-3-4.27Z" transform="translate(-103.51 -172.18)"/><path class="cls-20" d="M1023.63,319.43c0-1.12,0-2-.07-2.85H1025l.07,1.5h0a3.41,3.41,0,0,1,3.09-1.69c2.11,0,3.69,1.78,3.69,4.43,0,3.13-1.9,4.68-4,4.68a3.06,3.06,0,0,1-2.68-1.37h0v4.73h-1.56Zm1.56,2.32a3.21,3.21,0,0,0,.08.65,2.44,2.44,0,0,0,2.37,1.86c1.68,0,2.65-1.37,2.65-3.37,0-1.75-.92-3.24-2.59-3.24a2.53,2.53,0,0,0-2.4,2,2.76,2.76,0,0,0-.11.65Z" transform="translate(-103.51 -172.18)"/><path class="cls-20" d="M1038.69,325.3l-.12-1.1h-.06a3.22,3.22,0,0,1-2.66,1.3,2.47,2.47,0,0,1-2.66-2.5c0-2.11,1.87-3.26,5.23-3.25v-.18a1.79,1.79,0,0,0-2-2,4.27,4.27,0,0,0-2.26.65l-.36-1a5.38,5.38,0,0,1,2.86-.77c2.66,0,3.31,1.82,3.31,3.56v3.26a13.14,13.14,0,0,0,.14,2.09Zm-.23-4.45c-1.73,0-3.69.27-3.69,2a1.4,1.4,0,0,0,1.49,1.52,2.16,2.16,0,0,0,2.11-1.46,1.76,1.76,0,0,0,.09-.51Z" transform="translate(-103.51 -172.18)"/><path class="cls-20" d="M1042.54,318.94c0-.9,0-1.63-.07-2.36h1.41L1044,318h0a3.21,3.21,0,0,1,2.88-1.64c1.21,0,3.08.72,3.08,3.71v5.2h-1.58v-5c0-1.41-.52-2.58-2-2.58a2.25,2.25,0,0,0-2.12,1.62,2.35,2.35,0,0,0-.11.74v5.24h-1.59Z" transform="translate(-103.51 -172.18)"/><path class="cls-20" d="M1052.32,323.68a4.13,4.13,0,0,0,2.09.63c1.15,0,1.69-.58,1.69-1.3s-.45-1.17-1.62-1.6c-1.57-.56-2.31-1.42-2.31-2.47,0-1.4,1.14-2.55,3-2.55a4.31,4.31,0,0,1,2.14.54l-.39,1.15a3.34,3.34,0,0,0-1.78-.5c-.94,0-1.46.54-1.46,1.18s.52,1.05,1.65,1.48c1.52.58,2.29,1.33,2.29,2.63,0,1.53-1.19,2.61-3.26,2.61a5,5,0,0,1-2.45-.59Z" transform="translate(-103.51 -172.18)"/><path class="cls-20" d="M1061.43,314.14a1,1,0,0,1-2,0,1,1,0,0,1,1-1A.94.94,0,0,1,1061.43,314.14Zm-1.77,11.16v-8.72h1.59v8.72Z" transform="translate(-103.51 -172.18)"/><path class="cls-20" d="M1071.76,320.87a4.26,4.26,0,0,1-4.34,4.63,4.15,4.15,0,0,1-4.18-4.49,4.26,4.26,0,0,1,4.33-4.62C1070.07,316.39,1071.76,318.21,1071.76,320.87Zm-6.91.09c0,1.91,1.1,3.35,2.64,3.35s2.65-1.42,2.65-3.39c0-1.47-.74-3.34-2.61-3.34S1064.85,319.3,1064.85,321Z" transform="translate(-103.51 -172.18)"/><path class="cls-20" d="M1073.76,318.94c0-.9,0-1.63-.08-2.36h1.41l.09,1.45h0a3.23,3.23,0,0,1,2.89-1.64c1.2,0,3.07.72,3.07,3.71v5.2h-1.58v-5c0-1.41-.52-2.58-2-2.58a2.25,2.25,0,0,0-2.12,1.62,2.35,2.35,0,0,0-.11.74v5.24h-1.58Z" transform="translate(-103.51 -172.18)"/><text class="cls-17" transform="translate(635.2 392.31)"><tspan class="cls-42">T</tspan><tspan x="7.67" y="0">e</tspan><tspan class="cls-11" x="16.69" y="0">r</tspan><tspan x="22.64" y="0">minal</tspan></text><line class="cls-43" x1="665.57" y1="239.58" x2="659.57" y2="239.58"/><line class="cls-44" x1="648" y1="239.58" x2="399.31" y2="239.58"/><line class="cls-43" x1="393.53" y1="239.58" x2="387.53" y2="239.58"/><line class="cls-43" x1="666.68" y1="534.34" x2="660.68" y2="534.34"/><line class="cls-45" x1="649.07" y1="534.34" x2="399.33" y2="534.34"/><line class="cls-43" x1="393.53" y1="534.34" x2="387.53" y2="534.34"/><line class="cls-43" x1="387.53" y1="534.34" x2="387.53" y2="528.34"/><line class="cls-46" x1="387.53" y1="516.05" x2="387.53" y2="251.73"/><line class="cls-43" x1="387.53" y1="245.58" x2="387.53" y2="239.58"/><rect class="cls-15" x="631.13" y="205.61" width="71.11" height="71.11"/><circle class="cls-15" cx="666.68" cy="530.78" r="21.92"/></svg>