<svg id="Layer_1" data-name="Layer 1" xmlns="http://www.w3.org/2000/svg" viewBox="0 0 860.8 992.5"><defs><style>.cls-1,.cls-2{fill:none;}.cls-1,.cls-2,.cls-3{stroke:#231f20;stroke-miterlimit:10;}.cls-2{stroke-dasharray:12.26 12.26;}.cls-18,.cls-3,.cls-5{fill:#fff;}.cls-4{fill:#414042;}.cls-5,.cls-9{font-size:18px;font-family:MyriadPro-Regular, Myriad Pro;}.cls-6{letter-spacing:-0.04em;}.cls-7{letter-spacing:-0.01em;}.cls-8{letter-spacing:-0.01em;}.cls-9{fill:#231f20;}.cls-10{letter-spacing:0.01em;}.cls-11{letter-spacing:-0.01em;}.cls-12{letter-spacing:0em;}.cls-13{letter-spacing:-0.01em;}.cls-14{letter-spacing:0.02em;}.cls-15{letter-spacing:0.03em;}.cls-16{letter-spacing:0em;}.cls-17{letter-spacing:-0.01em;}</style></defs><title>Transport map</title><line class="cls-1" x1="566.8" y1="260.17" x2="716.14" y2="260.17"/><line class="cls-1" x1="434.86" y1="502.5" x2="566.8" y2="502.5"/><line class="cls-1" x1="566.8" y1="502.5" x2="566.8" y2="992.5"/><line class="cls-1" x1="566.8" y1="7.33" x2="566.8" y2="13.33"/><line class="cls-2" x1="566.8" y1="25.58" x2="566.8" y2="485.2"/><line class="cls-1" x1="566.8" y1="491.33" x2="566.8" y2="497.33"/><line class="cls-1" x1="155.47" y1="502.5" x2="444.14" y2="502.5"/><circle class="cls-3" cx="566.8" cy="502.5" r="17.33"/><circle class="cls-3" cx="155.47" cy="502.5" r="17.33"/><circle class="cls-3" cx="434.86" cy="502.5" r="17.33"/><circle class="cls-3" cx="566.8" cy="17.83" r="17.33"/><circle class="cls-3" cx="566.8" cy="260.17" r="17.33"/><circle class="cls-3" cx="710.47" cy="260.17" r="17.33"/><circle class="cls-3" cx="566.8" cy="744.83" r="17.33"/><rect class="cls-4" x="602.14" y="0.5" width="114" height="22.67" rx="11.33"/><text class="cls-5" transform="translate(618.47 17.28)"><tspan class="cls-6">T</tspan><tspan class="cls-7" x="8.14" y="0">r</tspan><tspan x="13.84" y="0">omsø</tspan></text><rect class="cls-4" x="746.8" y="248.33" width="114" height="22.67" rx="11.33"/><text class="cls-5" transform="translate(763.14 265.11)"><tspan class="cls-8">S</tspan><tspan class="cls-7" x="8.73" y="0">w</tspan><tspan x="21.8" y="0">eden</tspan></text><text class="cls-9" transform="translate(763.14 295.11)"><tspan class="cls-10">K</tspan><tspan x="9.94" y="0">iruna</tspan></text><text class="cls-9" transform="translate(763.14 317.11)"><tspan class="cls-11">L</tspan><tspan x="8.23" y="0">uleå</tspan></text><text class="cls-9" transform="translate(763.14 338.44)"><tspan class="cls-12">S</tspan><tspan class="cls-13" x="8.82" y="0">t</tspan><tspan x="14.67" y="0">oc</tspan><tspan class="cls-14" x="32.62" y="0">k</tspan><tspan x="41.36" y="0">holm</tspan></text><rect class="cls-4" x="413.47" y="248.33" width="114" height="22.67" rx="11.33"/><text class="cls-5" transform="translate(429.8 265.11)">Na<tspan class="cls-15" x="20.52" y="0">r</tspan><tspan x="26.86" y="0">vik</tspan></text><rect class="cls-4" x="602.14" y="492.37" width="114" height="22.67" rx="11.33"/><text class="cls-5" transform="translate(618.47 509.15)"><tspan class="cls-6">F</tspan><tspan x="7.96" y="0">auske</tspan></text><rect class="cls-4" x="286.67" y="492.37" width="114" height="22.67" rx="11.33"/><text class="cls-5" transform="translate(303 509.15)"><tspan class="cls-16">B</tspan><tspan x="9.83" y="0">odø</tspan></text><rect class="cls-4" y="492.37" width="114" height="22.67" rx="11.33"/><text class="cls-5" transform="translate(16.33 509.15)"><tspan class="cls-16">R</tspan><tspan x="9.76" y="0">ot</tspan><tspan class="cls-13" x="25.6" y="0">t</tspan><tspan x="31.45" y="0">e</tspan><tspan class="cls-17" x="40.46" y="0">r</tspan><tspan x="46.17" y="0">dam</tspan></text><rect class="cls-4" x="81.14" y="223.5" width="114" height="22.67" rx="11.33"/><text class="cls-5" transform="translate(97.47 240.28)">China</text><text class="cls-9" transform="translate(485.3 487.82)">40 min</text><text class="cls-9" transform="translate(497.47 381.53)">1-2 t</text><text class="cls-9" transform="translate(485.3 662.12)">8-9 t</text><text class="cls-9" transform="translate(500.83 143.03)">1,5 t</text><rect class="cls-4" x="602.14" y="734.12" width="114" height="22.67" rx="11.33"/><text class="cls-5" transform="translate(618.47 750.9)"><tspan class="cls-6">T</tspan><tspan class="cls-7" x="8.14" y="0">r</tspan><tspan x="13.84" y="0">ondheim</tspan></text><path class="cls-18" d="M645.59,523.26h-58v-58h58Zm-52.89-20.8,0,.47c2.18.33,4.36.79,6.56,1a22.36,22.36,0,0,0,6.64-.08c3.69-.87,7.27-2.27,10.89-3.48q12.09-4,24.16-8.05a7.65,7.65,0,0,0,4.07-3.19c.68-1,.5-2-.68-2.21a10.69,10.69,0,0,0-4.89-.17c-5.26,1.53-10.43,3.4-15.66,5.06a3.53,3.53,0,0,1-2.18-.07c-5.84-2.26-11.65-4.58-17.46-6.91a1.26,1.26,0,0,0-1.68.38c-.39.48-.85.92-1.3,1.4l8.3,10Zm-4.89-5.54c1.18,1.36,2.36,2.75,3.59,4.11a1.07,1.07,0,0,0,.87.35c1.73-.54,3.44-1.15,5.16-1.73-2.22-1.39-4.48-2.37-6.63-3.56C589.45,495.35,588.61,495.63,587.81,496.92Z" transform="translate(-186.53 -46.5)"/><path d="M592.7,502.46l16.79-5.87-8.3-10c.45-.48.91-.92,1.3-1.4a1.26,1.26,0,0,1,1.68-.38c5.81,2.33,11.62,4.65,17.46,6.91a3.53,3.53,0,0,0,2.18.07c5.23-1.66,10.4-3.53,15.66-5.06a10.69,10.69,0,0,1,4.89.17c1.18.23,1.36,1.16.68,2.21a7.65,7.65,0,0,1-4.07,3.19q-12.09,4-24.16,8.05c-3.62,1.21-7.2,2.61-10.89,3.48a22.36,22.36,0,0,1-6.64.08c-2.2-.17-4.38-.63-6.56-1Z" transform="translate(-186.53 -46.5)"/><path d="M587.81,496.92c.8-1.29,1.64-1.57,3-.83,2.15,1.19,4.41,2.17,6.63,3.56-1.72.58-3.43,1.19-5.16,1.73a1.07,1.07,0,0,1-.87-.35C590.17,499.67,589,498.28,587.81,496.92Z" transform="translate(-186.53 -46.5)"/><path class="cls-18" d="M588.89,605.36V582.09h10.2a2.2,2.2,0,0,0,0,.36c0,1.61,0,3.21,0,4.81,0,.26,0,.38-.32.43a13.38,13.38,0,0,0-1.42.35.53.53,0,0,0-.35.33,6.92,6.92,0,0,0,0,1h5.65l-.07-1.32c-.57-.13-1.12-.28-1.67-.37-.24-.05-.28-.15-.28-.37,0-1.6,0-3.2,0-4.81,0-.11,0-.22,0-.33l-1.12-.1h49.67v21.42l-.27,0H639.4a.56.56,0,0,0-.48.21c-.39.45-.8.88-1.18,1.33a.63.63,0,0,1-.55.24h-21.3l-22.55.05Zm19-7.57H591.67v6.44h16.19Zm-10.9-7.3v6h5.6v-6Zm25.13,13.86v-5.16h-5.72c-.23,0-.26.11-.26.3,0,1.53,0,3.07,0,4.6,0,.09,0,.18,0,.28Zm14.25-5.16h-5.73c-.23,0-.26.1-.26.3,0,1.54,0,3.08,0,4.63,0,.08,0,.15,0,.25h6Zm-14.24-.73v-5.14h-6v5.14Zm8.28-5.14v5.13h6v-5.13Zm-15.46,5.87h-5.61c-.23,0-.26.1-.26.3v4.6c0,.09,0,.18,0,.28h5.85Zm8.39,0v5.16h5.84v-5.16Zm-8.39-5.86h-5.85v5.13h5.85Zm8.4,0v5.13h5.83v-5.13Z" transform="translate(-186.53 -46.5)"/><path d="M588.89,605.36h4.45l22.55-.05h21.3a.63.63,0,0,0,.55-.24c.38-.45.79-.88,1.18-1.33a.56.56,0,0,1,.48-.21h9.39l.27,0v.07a1,1,0,0,0-.12.16q-4.86,8.14-9.7,16.29H594.48a.84.84,0,0,0-.05-.17q-2.07-5.37-4.15-10.73c-.46-1.21-.92-2.43-1.39-3.65Zm47.65,4.94a1.21,1.21,0,0,0-1.24-1.2,1.29,1.29,0,0,0-1.19,1.22,1.28,1.28,0,0,0,1.25,1.22A1.25,1.25,0,0,0,636.54,610.3Zm-5.95,0a1.3,1.3,0,0,0-1.31-1.2,1.25,1.25,0,0,0-1.15,1.24,1.36,1.36,0,0,0,1.25,1.21A1.38,1.38,0,0,0,630.59,610.3Z" transform="translate(-186.53 -46.5)"/><path class="cls-18" d="M639.24,620q4.85-8.14,9.7-16.29a1,1,0,0,1,.12-.16V620Z" transform="translate(-186.53 -46.5)"/><path class="cls-18" d="M588.89,605.48c.47,1.22.93,2.44,1.39,3.65q2.09,5.37,4.15,10.73a.84.84,0,0,1,.05.17h-5.59Z" transform="translate(-186.53 -46.5)"/><path d="M599.39,582.09l1.12.1c0,.11,0,.22,0,.33,0,1.61,0,3.21,0,4.81,0,.22,0,.32.28.37.55.09,1.1.24,1.67.37l.07,1.32h-5.65a6.92,6.92,0,0,1,0-1,.53.53,0,0,1,.35-.33,13.38,13.38,0,0,1,1.42-.35c.28-.05.33-.17.32-.43,0-1.6,0-3.2,0-4.81a2.2,2.2,0,0,1,0-.36Z" transform="translate(-186.53 -46.5)"/><path d="M607.86,597.79v6.44H591.67v-6.44Z" transform="translate(-186.53 -46.5)"/><path d="M597,590.49h5.6v6H597Z" transform="translate(-186.53 -46.5)"/><path d="M622.09,604.35h-6c0-.1,0-.19,0-.28,0-1.53,0-3.07,0-4.6,0-.19,0-.3.26-.3h5.72Z" transform="translate(-186.53 -46.5)"/><path d="M636.34,599.19v5.16h-6c0-.1,0-.17,0-.25,0-1.55,0-3.09,0-4.63,0-.2,0-.3.26-.3h5.73Z" transform="translate(-186.53 -46.5)"/><path d="M622.1,598.46h-6v-5.14h6Z" transform="translate(-186.53 -46.5)"/><path d="M630.38,593.32h6v5.13h-6Z" transform="translate(-186.53 -46.5)"/><path d="M614.92,599.19v5.16h-5.85c0-.1,0-.19,0-.28v-4.6c0-.2,0-.3.26-.3h5.61Z" transform="translate(-186.53 -46.5)"/><path d="M623.31,599.19h5.84v5.16h-5.84Z" transform="translate(-186.53 -46.5)"/><path d="M614.92,593.33v5.13h-5.85v-5.13Z" transform="translate(-186.53 -46.5)"/><path d="M623.32,593.32h5.83v5.13h-5.83Z" transform="translate(-186.53 -46.5)"/><path class="cls-18" d="M636.54,610.3a1.25,1.25,0,0,1-1.18,1.24,1.28,1.28,0,0,1-1.25-1.22,1.29,1.29,0,0,1,1.19-1.22A1.21,1.21,0,0,1,636.54,610.3Z" transform="translate(-186.53 -46.5)"/><path class="cls-18" d="M630.59,610.3a1.38,1.38,0,0,1-1.21,1.25,1.36,1.36,0,0,1-1.25-1.21,1.25,1.25,0,0,1,1.15-1.24A1.3,1.3,0,0,1,630.59,610.3Z" transform="translate(-186.53 -46.5)"/><path class="cls-18" d="M879.1,523.1H812.44V456.44H879.1Zm-45.93-28.19h38.5v-17h-38.5ZM822,498.72c.46-2.14,1.58-3.25,3.33-3.3a3.23,3.23,0,0,1,2,.62,3.49,3.49,0,0,1,1.45,2.93h2c.2.89.56,1.26,1.31,1.27,1.65,0,3.29,0,4.94,0a1,1,0,0,0,1.1-.71c.13-.66.53-.6,1-.58a3.18,3.18,0,0,1,.62,0,2.22,2.22,0,0,1,.52.29c.28.17.56.48.84.49,1.84.05,3.68,0,5.52,0a1,1,0,0,0,.74-.37.78.78,0,0,1,.87-.44c.85,0,1.7,0,2.55,0a3.42,3.42,0,0,0,.45,0,3.56,3.56,0,0,1,2.2-3.43H832.52c-.9,0-.79.11-.79-.82V480.53a5.37,5.37,0,0,0-3.14.42c-2,.73-3.91,1.63-6.11,1.33h-.11a2.45,2.45,0,0,0-2.11,1.62c-.13.34-.2.69-.3,1l-.49.09v.77l.89.06c0,1,0,2,0,2.93a.53.53,0,0,1-.2.32,1.9,1.9,0,0,0-.72,1.54c0,2.41,0,4.82,0,7.24v.51Zm40.9-2.81a2.87,2.87,0,0,0-2.9,2.91,2.93,2.93,0,0,0,2.89,2.83,2.87,2.87,0,1,0,0-5.74Zm-11.29,2.82a2.87,2.87,0,1,0,2.95-2.82A2.82,2.82,0,0,0,851.58,498.73Zm-29.06.06a2.78,2.78,0,0,0,2.87,2.79,2.84,2.84,0,1,0,0-5.67A2.82,2.82,0,0,0,822.52,498.79Zm49.56-3.35h-8.33a3.48,3.48,0,0,1,2.48,3.44h5.85Zm-10.16.08h-6.49a3.45,3.45,0,0,1,2.38,3.38h1.74A3.46,3.46,0,0,1,861.92,495.52Z" transform="translate(-186.53 -46.5)"/><path d="M833.17,494.91v-17h38.5v17Z" transform="translate(-186.53 -46.5)"/><path d="M822,498.72l-2.53-.32v-.51c0-2.42,0-4.83,0-7.24a1.9,1.9,0,0,1,.72-1.54.53.53,0,0,0,.2-.32c0-1,0-1.93,0-2.93l-.89-.06V485l.49-.09c.1-.34.17-.69.3-1a2.45,2.45,0,0,1,2.11-1.62h.11c2.2.3,4.13-.6,6.11-1.33a5.37,5.37,0,0,1,3.14-.42v14.13c0,.93-.11.82.79.82h20.83a3.56,3.56,0,0,0-2.2,3.43,3.42,3.42,0,0,1-.45,0c-.85,0-1.7,0-2.55,0a.78.78,0,0,0-.87.44,1,1,0,0,1-.74.37c-1.84,0-3.68,0-5.52,0-.28,0-.56-.32-.84-.49a2.22,2.22,0,0,0-.52-.29,3.18,3.18,0,0,0-.62,0c-.45,0-.85-.08-1,.58a1,1,0,0,1-1.1.71c-1.65,0-3.29,0-4.94,0-.75,0-1.11-.38-1.31-1.27h-2A3.49,3.49,0,0,0,827.3,496a3.23,3.23,0,0,0-2-.62C823.55,495.47,822.43,496.58,822,498.72Zm-.26-9.4h5.65v-3.07h-5.65Z" transform="translate(-186.53 -46.5)"/><path d="M862.87,495.91a2.87,2.87,0,1,1,0,5.74,2.93,2.93,0,0,1-2.89-2.83A2.87,2.87,0,0,1,862.87,495.91Z" transform="translate(-186.53 -46.5)"/><path d="M851.58,498.73a2.82,2.82,0,0,1,2.95-2.82,2.87,2.87,0,1,1-2.95,2.82Z" transform="translate(-186.53 -46.5)"/><path d="M822.52,498.79a2.82,2.82,0,0,1,2.85-2.88,2.84,2.84,0,1,1,0,5.67A2.78,2.78,0,0,1,822.52,498.79Z" transform="translate(-186.53 -46.5)"/><path d="M872.08,495.44v3.44h-5.85a3.48,3.48,0,0,0-2.48-3.44Z" transform="translate(-186.53 -46.5)"/><path d="M861.92,495.52a3.46,3.46,0,0,0-2.37,3.38h-1.74a3.45,3.45,0,0,0-2.38-3.38Z" transform="translate(-186.53 -46.5)"/><path class="cls-18" d="M821.71,489.32v-3.07h5.65v3.07Z" transform="translate(-186.53 -46.5)"/><path class="cls-18" d="M846.3,593.67h35.19V635H810V593.67h33a2.17,2.17,0,0,1-.35.07c-.89.11-1.79.17-2.67.34a12.54,12.54,0,0,0-6.68,3.48,5.54,5.54,0,0,0-1.79,4.31c.1,2.59,0,5.19,0,7.79,0,2.89,0,5.79,0,8.69a4.77,4.77,0,0,0,3.27,4.63l.18.09-5.15,7.46c1.68,0,3.27,0,4.85,0a.44.44,0,0,0,.31-.22c.27-.59.54-1.18.78-1.77a.53.53,0,0,1,.58-.39c1.29,0,2.57,0,3.85,0h13.55a.44.44,0,0,1,.49.33c.24.59.52,1.16.75,1.74a.45.45,0,0,0,.5.33h4.37l.32,0L855,623.05l.24-.08a4.91,4.91,0,0,0,3.3-4.72c0-5.59,0-11.17,0-16.76a5,5,0,0,0-1.91-4.08,15.42,15.42,0,0,0-8.15-3.5Z" transform="translate(-186.53 -46.5)"/><path d="M846.3,593.67l2.16.24a15.42,15.42,0,0,1,8.15,3.5,5,5,0,0,1,1.91,4.08c0,5.59,0,11.17,0,16.76a4.91,4.91,0,0,1-3.3,4.72l-.24.08,5.18,7.45-.32,0h-4.37a.45.45,0,0,1-.5-.33c-.23-.58-.51-1.15-.75-1.74a.44.44,0,0,0-.49-.33H840.18c-1.28,0-2.56,0-3.85,0a.53.53,0,0,0-.58.39c-.24.59-.51,1.18-.78,1.77a.44.44,0,0,1-.31.22c-1.58,0-3.17,0-4.85,0l5.15-7.46-.18-.09a4.77,4.77,0,0,1-3.27-4.63c0-2.9,0-5.8,0-8.69,0-2.6.08-5.2,0-7.79a5.54,5.54,0,0,1,1.79-4.31,12.54,12.54,0,0,1,6.68-3.48c.88-.17,1.78-.23,2.67-.34a2.17,2.17,0,0,0,.35-.07ZM856,608.5v-7.34H833.94v7.34Zm-3.09,17.18c-.32-.74-.65-1.43-.94-2.13a.44.44,0,0,0-.49-.33c-1.65,0-3.31,0-5,0h-8c-.14,0-.36,0-.41.12-.37.75-.71,1.52-1.08,2.32Zm-7.89-27h3.65a1.17,1.17,0,0,0,1.3-1.21,1.19,1.19,0,0,0-1.29-1.25h-7.3a1.2,1.2,0,0,0-1.28,1.25,1.18,1.18,0,0,0,1.27,1.22Zm9.81,22.57a1.69,1.69,0,0,0,1.74-1.72,1.76,1.76,0,1,0-1.74,1.72Zm-19.68,0a1.73,1.73,0,0,0,1.77-1.7,1.77,1.77,0,0,0-1.75-1.78,1.72,1.72,0,0,0-1.74,1.72A1.69,1.69,0,0,0,835.15,621.26Z" transform="translate(-186.53 -46.5)"/><path class="cls-18" d="M856,608.5H833.94v-7.34H856Z" transform="translate(-186.53 -46.5)"/><path class="cls-18" d="M852.91,625.68H837.05c.37-.8.71-1.57,1.08-2.32,0-.09.27-.12.41-.12h8c1.65,0,3.31,0,5,0a.44.44,0,0,1,.49.33C852.26,624.25,852.59,624.94,852.91,625.68Z" transform="translate(-186.53 -46.5)"/><path class="cls-18" d="M845,598.69h-3.65a1.18,1.18,0,0,1-1.27-1.22,1.2,1.2,0,0,1,1.28-1.25h7.3a1.19,1.19,0,0,1,1.29,1.25,1.17,1.17,0,0,1-1.3,1.21Z" transform="translate(-186.53 -46.5)"/><path class="cls-18" d="M854.83,621.26a1.74,1.74,0,1,1,1.74-1.72A1.69,1.69,0,0,1,854.83,621.26Z" transform="translate(-186.53 -46.5)"/><path class="cls-18" d="M835.15,621.26a1.69,1.69,0,0,1-1.72-1.76,1.72,1.72,0,0,1,1.74-1.72,1.77,1.77,0,0,1,1.75,1.78A1.73,1.73,0,0,1,835.15,621.26Z" transform="translate(-186.53 -46.5)"/><line class="cls-1" x1="227.8" y1="502.5" x2="227.8" y2="235.83"/><circle class="cls-3" cx="227.8" cy="235.83" r="17.33"/><path class="cls-18" d="M950.35,526.24h22.3V572H926.89V526.24H949.1a1.76,1.76,0,0,1-.2.09,3.78,3.78,0,0,0-.44,7.27.43.43,0,0,1,.32.49q0,3.54,0,7.09c0,.12,0,.25,0,.38a7.77,7.77,0,0,0-5,2.91l-.34-.16c-2-1.15-4-2.31-5.94-3.42a.76.76,0,0,1-.45-.9,3.78,3.78,0,0,0-4.63-4.07,3.66,3.66,0,0,0-2.83,3.09,3.79,3.79,0,0,0,6.11,3.48.53.53,0,0,1,.73-.06c2,1.16,4,2.29,5.94,3.44l.41.26a7.84,7.84,0,0,0,0,5.89l-.41.25c-2,1.14-3.94,2.27-5.9,3.42a.58.58,0,0,1-.8-.06,3.73,3.73,0,0,0-4.33-.29A3.8,3.8,0,1,0,937,558a.53.53,0,0,1,.3-.66c2-1.14,4-2.3,6-3.45l.42-.22,0,.12A20.3,20.3,0,0,0,946,555.6a20.57,20.57,0,0,0,2.79,1.13s0,0,0,.07q0,3.66,0,7.31c0,.3-.16.36-.38.45a3.8,3.8,0,0,0-2.48,3.53,3.8,3.8,0,0,0,7.48.95,3.77,3.77,0,0,0-2.33-4.47.51.51,0,0,1-.4-.57c0-2.33,0-4.67,0-7,0-.14,0-.28,0-.42a7.75,7.75,0,0,0,5-2.9l.16.05c2.14,1.23,4.27,2.46,6.4,3.71a.53.53,0,0,1,.18.41c0,.44-.06.89,0,1.32a3.73,3.73,0,0,0,3.21,3.18,3.79,3.79,0,0,0,2.78-6.8,3.73,3.73,0,0,0-4.66.12.5.5,0,0,1-.69.05c-2-1.18-4-2.34-6-3.5l-.32-.22a7.79,7.79,0,0,0,0-5.85.81.81,0,0,1,.15-.13c2.11-1.22,4.22-2.43,6.32-3.66.27-.16.4,0,.57.12a3.81,3.81,0,1,0-1.32-2.37.57.57,0,0,1-.33.7c-1,.58-2.09,1.2-3.13,1.8l-3.26,1.88a7.78,7.78,0,0,0-5.09-2.94V541c0-2.26,0-4.52,0-6.78a.6.6,0,0,1,.44-.68,3.75,3.75,0,0,0,2.42-3.61,3.83,3.83,0,0,0-2.64-3.51Z" transform="translate(-186.53 -46.5)"/><path d="M950.35,526.24l.54.18a3.83,3.83,0,0,1,2.64,3.51,3.75,3.75,0,0,1-2.42,3.61.6.6,0,0,0-.44.68c0,2.26,0,4.52,0,6.78v.55a7.78,7.78,0,0,1,5.09,2.94l3.26-1.88c1-.6,2.08-1.22,3.13-1.8a.57.57,0,0,0,.33-.7,3.77,3.77,0,0,1,3-4.28,3.79,3.79,0,1,1-1.69,6.65c-.17-.15-.3-.28-.57-.12-2.1,1.23-4.21,2.44-6.32,3.66a.81.81,0,0,0-.15.13,7.79,7.79,0,0,1,0,5.85l.32.22c2,1.16,4,2.32,6,3.5a.5.5,0,0,0,.69-.05,3.73,3.73,0,0,1,4.66-.12,3.79,3.79,0,0,1-2.78,6.8,3.73,3.73,0,0,1-3.21-3.18c-.06-.43,0-.88,0-1.32a.53.53,0,0,0-.18-.41c-2.13-1.25-4.26-2.48-6.4-3.71l-.16-.05a7.75,7.75,0,0,1-5,2.9c0,.14,0,.28,0,.42,0,2.33,0,4.67,0,7a.51.51,0,0,0,.4.57A3.77,3.77,0,0,1,953.4,569a3.8,3.8,0,1,1-5-4.48c.22-.09.38-.15.38-.45q0-3.65,0-7.31c0-.06,0-.11,0-.07A20.57,20.57,0,0,1,946,555.6a20.3,20.3,0,0,1-2.34-1.81l0-.12-.42.22c-2,1.15-4,2.31-6,3.45a.53.53,0,0,0-.3.66,3.79,3.79,0,0,1-3.08,4.33,3.8,3.8,0,0,1-2.63-7,3.73,3.73,0,0,1,4.33.29.58.58,0,0,0,.8.06c2-1.15,3.93-2.28,5.9-3.42l.41-.25a7.84,7.84,0,0,1,0-5.89l-.41-.26c-2-1.15-4-2.28-5.94-3.44a.53.53,0,0,0-.73.06,3.79,3.79,0,0,1-6.11-3.48,3.66,3.66,0,0,1,2.83-3.09A3.78,3.78,0,0,1,937,540a.76.76,0,0,0,.45.9c2,1.11,4,2.27,5.94,3.42l.34.16a7.77,7.77,0,0,1,5-2.91c0-.13,0-.26,0-.38q0-3.55,0-7.09a.43.43,0,0,0-.32-.49,3.78,3.78,0,0,1,.44-7.27,1.76,1.76,0,0,0,.2-.09Zm-.64,28.55a5.72,5.72,0,1,0-5.71-5.7A5.73,5.73,0,0,0,949.71,554.79Zm-16.45,5.71a2,2,0,0,0,1.93-2,1.9,1.9,0,0,0-1.8-1.86,2,2,0,0,0-2,2A1.94,1.94,0,0,0,933.26,560.5Zm18.36-30.44a1.9,1.9,0,1,0-1.93,1.89A1.89,1.89,0,0,0,951.62,530.06Zm0,38a1.91,1.91,0,1,0-1.89,1.92A1.91,1.91,0,0,0,951.63,568.1Zm14.68-30.46a1.81,1.81,0,0,0-2,1.87,1.91,1.91,0,1,0,3.82-.07A1.8,1.8,0,0,0,966.31,537.64Zm-.2,19a1.8,1.8,0,0,0-1.76,1.8,1.91,1.91,0,0,0,1.84,1.95,1.81,1.81,0,0,0,1.92-1.69A1.92,1.92,0,0,0,966.11,556.66Zm-33-19a1.75,1.75,0,0,0-1.75,1.73,1.9,1.9,0,0,0,1.86,2,1.85,1.85,0,0,0,1.9-1.77A1.94,1.94,0,0,0,933.16,537.64Z" transform="translate(-186.53 -46.5)"/><path class="cls-18" d="M949.71,554.79a5.72,5.72,0,1,1,5.73-5.76A5.73,5.73,0,0,1,949.71,554.79Z" transform="translate(-186.53 -46.5)"/><path class="cls-18" d="M933.26,560.5a1.94,1.94,0,0,1-1.92-1.9,2,2,0,0,1,2-2,1.9,1.9,0,0,1,1.8,1.86A2,2,0,0,1,933.26,560.5Z" transform="translate(-186.53 -46.5)"/><path class="cls-18" d="M951.62,530.06a1.9,1.9,0,1,1-1.9-1.93A1.88,1.88,0,0,1,951.62,530.06Z" transform="translate(-186.53 -46.5)"/><path class="cls-18" d="M951.63,568.1a1.91,1.91,0,1,1-1.88-1.92A1.92,1.92,0,0,1,951.63,568.1Z" transform="translate(-186.53 -46.5)"/><path class="cls-18" d="M966.31,537.64a1.8,1.8,0,0,1,1.81,1.8,1.91,1.91,0,1,1-3.82.07A1.81,1.81,0,0,1,966.31,537.64Z" transform="translate(-186.53 -46.5)"/><path class="cls-18" d="M966.11,556.66a1.92,1.92,0,0,1,2,2.06,1.81,1.81,0,0,1-1.92,1.69,1.91,1.91,0,0,1-1.84-1.95A1.8,1.8,0,0,1,966.11,556.66Z" transform="translate(-186.53 -46.5)"/><path class="cls-18" d="M933.16,537.64a1.94,1.94,0,0,1,2,2,1.85,1.85,0,0,1-1.9,1.77,1.9,1.9,0,0,1-1.86-2A1.75,1.75,0,0,1,933.16,537.64Z" transform="translate(-186.53 -46.5)"/><path class="cls-18" d="M812.43,722.92H772.2V682.69h40.23Zm-8.3-32.06c0-.16,0-.44-.08-.72a5.3,5.3,0,0,0-3.65-4.37,5.15,5.15,0,0,0-5.62,1.21q-7.06,7-14,14a5.18,5.18,0,0,0-1.45,4.83,5.54,5.54,0,0,0,9.37,2.9q7-6.9,13.87-13.86A5.56,5.56,0,0,0,804.13,690.86Zm6.22,10.2a5.26,5.26,0,0,0-3.37-4.77,5.14,5.14,0,0,0-5.92,1.05c-4.75,4.66-9.44,9.38-14.13,14.11a5.12,5.12,0,0,0-1.45,4.46,5.53,5.53,0,0,0,9.37,3.25c4.65-4.6,9.27-9.25,13.9-13.88A5.64,5.64,0,0,0,810.35,701.06Zm-32,6.51c-.8.75-1.61,1.49-2.4,2.26a12.65,12.65,0,0,0-2.22,2.72,5.22,5.22,0,0,0-.68,3.58,5.3,5.3,0,0,0,3.5,4.26,5.21,5.21,0,0,0,5.47-.91,23.18,23.18,0,0,0,2.16-2.27.61.61,0,0,0,.05-.39c-.05-.55-.17-1.09-.18-1.63a5.49,5.49,0,0,0-4.1-5.3c-.54-.14-1.11-.19-1.8-.3l.91-.74Z" transform="translate(-186.53 -46.5)"/><path d="M804.13,690.86a5.56,5.56,0,0,1-1.6,4q-6.93,6.95-13.87,13.86a5.54,5.54,0,0,1-9.37-2.9,5.18,5.18,0,0,1,1.45-4.83q7-7.05,14-14a5.15,5.15,0,0,1,5.62-1.21,5.3,5.3,0,0,1,3.65,4.37C804.09,690.42,804.11,690.7,804.13,690.86Zm-13.84,14.27.16-.13q5.56-5.57,11.14-11.15a3.84,3.84,0,0,0,1.12-3.14,3.91,3.91,0,0,0-2.65-3.59,3.86,3.86,0,0,0-4.37.9c-3.7,3.66-7.37,7.35-11,11a2,2,0,0,0-.2.25A5.61,5.61,0,0,1,790.29,705.13Zm-5.56-4.44a4.15,4.15,0,1,0,4.16,4.15A4.14,4.14,0,0,0,784.73,700.69Z" transform="translate(-186.53 -46.5)"/><path d="M810.35,701.06a5.64,5.64,0,0,1-1.6,4.22c-4.63,4.63-9.25,9.28-13.9,13.88a5.53,5.53,0,0,1-9.37-3.25,5.12,5.12,0,0,1,1.45-4.46c4.69-4.73,9.38-9.45,14.13-14.11a5.14,5.14,0,0,1,5.92-1.05A5.26,5.26,0,0,1,810.35,701.06Zm-13.82,14.46.16-.14q5.53-5.53,11.08-11.09a4,4,0,0,0,1.2-2.81,4.15,4.15,0,0,0-7.09-3l-11,11a3.11,3.11,0,0,0-.2.25A5.65,5.65,0,0,1,796.53,715.52Zm-1.42-.31a4.13,4.13,0,0,0-4.16-4.14,4.16,4.16,0,1,0,4.16,4.14Z" transform="translate(-186.53 -46.5)"/><path d="M778.34,707.57l.71,1.28-.91.74c.69.11,1.26.16,1.8.3a5.49,5.49,0,0,1,4.1,5.3c0,.54.13,1.08.18,1.63a.61.61,0,0,1-.05.39,23.18,23.18,0,0,1-2.16,2.27,5.21,5.21,0,0,1-5.47.91,5.3,5.3,0,0,1-3.5-4.26,5.22,5.22,0,0,1,.68-3.58,12.65,12.65,0,0,1,2.22-2.72C776.73,709.06,777.54,708.32,778.34,707.57Zm4.31,7.64a4.16,4.16,0,1,0-4.14,4.18A4.15,4.15,0,0,0,782.65,715.21Z" transform="translate(-186.53 -46.5)"/><path class="cls-18" d="M790.29,705.13a5.61,5.61,0,0,0-5.84-5.83,2,2,0,0,1,.2-.25c3.67-3.68,7.34-7.37,11-11a3.86,3.86,0,0,1,4.37-.9,3.91,3.91,0,0,1,2.65,3.59,3.84,3.84,0,0,1-1.12,3.14Q796,699.45,790.45,705Zm.92-2.84,5-5,4.27-4.27a2.53,2.53,0,0,0,.76-2.59l-10.68,10.67Z" transform="translate(-186.53 -46.5)"/><path class="cls-18" d="M784.73,700.69a4.15,4.15,0,1,1-4.15,4.08A4.14,4.14,0,0,1,784.73,700.69Zm2.76,4.14a2.76,2.76,0,1,0-2.77,2.79A2.77,2.77,0,0,0,787.49,704.83Z" transform="translate(-186.53 -46.5)"/><path class="cls-18" d="M796.53,715.52a5.65,5.65,0,0,0-5.82-5.86,3.11,3.11,0,0,1,.2-.25l11-11a4.15,4.15,0,0,1,7.09,3,4,4,0,0,1-1.2,2.81q-5.53,5.57-11.08,11.09Zm11-14.79-10.71,10.71.64,1.22a3,3,0,0,0,.25-.23l9-9a3.16,3.16,0,0,0,.38-.44A2.71,2.71,0,0,0,807.5,700.73Z" transform="translate(-186.53 -46.5)"/><path class="cls-18" d="M795.11,715.21a4.16,4.16,0,1,1-4.16-4.14A4.15,4.15,0,0,1,795.11,715.21ZM790.89,718a2.76,2.76,0,1,0-2.76-2.77A2.79,2.79,0,0,0,790.89,718Z" transform="translate(-186.53 -46.5)"/><path class="cls-18" d="M782.65,715.21a4.16,4.16,0,1,1-4.22-4.14A4.16,4.16,0,0,1,782.65,715.21ZM778.59,718a2.76,2.76,0,1,0-2.78-2.75A2.76,2.76,0,0,0,778.59,718Z" transform="translate(-186.53 -46.5)"/><path d="M791.21,702.29l-.64-1.21,10.68-10.67a2.53,2.53,0,0,1-.76,2.59l-4.27,4.27Z" transform="translate(-186.53 -46.5)"/><path d="M787.49,704.83a2.76,2.76,0,1,1-2.76-2.77A2.77,2.77,0,0,1,787.49,704.83Zm-2.76,1.39a1.38,1.38,0,1,0-1.39-1.4A1.4,1.4,0,0,0,784.73,706.22Z" transform="translate(-186.53 -46.5)"/><path d="M807.5,700.73a2.71,2.71,0,0,1-.43,2.25,3.16,3.16,0,0,1-.38.44l-9,9a3,3,0,0,1-.25.23l-.64-1.22Z" transform="translate(-186.53 -46.5)"/><path d="M790.89,718a2.76,2.76,0,1,1,2.79-2.73A2.75,2.75,0,0,1,790.89,718Zm1.39-2.75a1.38,1.38,0,1,0-2.75,0,1.38,1.38,0,0,0,2.75,0Z" transform="translate(-186.53 -46.5)"/><path d="M778.59,718a2.76,2.76,0,1,1,2.77-2.79A2.78,2.78,0,0,1,778.59,718ZM780,715.2a1.38,1.38,0,1,0-2.75,0,1.38,1.38,0,1,0,2.75,0Z" transform="translate(-186.53 -46.5)"/><path class="cls-18" d="M784.73,706.22a1.38,1.38,0,1,1,0-2.76,1.38,1.38,0,0,1,0,2.76Z" transform="translate(-186.53 -46.5)"/><path class="cls-18" d="M792.28,715.23a1.38,1.38,0,0,1-2.75,0,1.38,1.38,0,1,1,2.75,0Z" transform="translate(-186.53 -46.5)"/><path class="cls-18" d="M780,715.2a1.38,1.38,0,1,1-2.75,0,1.38,1.38,0,1,1,2.75,0Z" transform="translate(-186.53 -46.5)"/><path class="cls-18" d="M772.19,440.89V400.65h40.23v40.24Zm13.24-12.47a5.21,5.21,0,0,0,3.22-1.61q7-6.94,13.89-13.9a5.54,5.54,0,0,0-2.34-9.16,5.31,5.31,0,0,0-5.5,1.34c-.87.83-1.71,1.7-2.56,2.55L780.83,419a5.49,5.49,0,0,0-1.22,6C780.47,427.07,782.47,428.41,785.43,428.42Zm5.41,10.39a5.47,5.47,0,0,0,4-1.61l13.87-13.87a5.53,5.53,0,0,0-7.83-7.82Q794,422.41,787,429.37a5.53,5.53,0,0,0,3.8,9.44Zm-12.52-13.23c-1.14,1.13-2.28,2.21-3.36,3.35a9.5,9.5,0,0,0-1.24,1.7,5,5,0,0,0-.68,3.53,5.29,5.29,0,0,0,3.53,4.29,5.2,5.2,0,0,0,5.46-.94,23.77,23.77,0,0,0,2.13-2.24.51.51,0,0,0,.06-.39c-.05-.55-.17-1.09-.18-1.63a5.54,5.54,0,0,0-4.2-5.35c-.51-.12-1-.15-1.66-.24l.87-.75Z" transform="translate(-186.53 -46.5)"/><path d="M785.43,428.42c-3,0-5-1.35-5.82-3.42a5.49,5.49,0,0,1,1.22-6l11.31-11.32c.85-.85,1.69-1.72,2.56-2.55a5.31,5.31,0,0,1,5.5-1.34,5.54,5.54,0,0,1,2.34,9.16q-6.93,7-13.89,13.9A5.21,5.21,0,0,1,785.43,428.42Zm4.86-5.23.18-.16q5.55-5.55,11.09-11.1a4.16,4.16,0,0,0-1.5-6.76,3.87,3.87,0,0,0-4.37.9c-3.7,3.66-7.37,7.35-11,11a1.8,1.8,0,0,0-.2.24A5.62,5.62,0,0,1,790.29,423.19Zm-5.56-4.45a4.15,4.15,0,1,0,4.16,4.15A4.14,4.14,0,0,0,784.73,418.74Z" transform="translate(-186.53 -46.5)"/><path d="M790.84,438.81a5.53,5.53,0,0,1-3.8-9.44q6.93-6.94,13.87-13.86a5.53,5.53,0,0,1,7.83,7.82L794.87,437.2A5.47,5.47,0,0,1,790.84,438.81Zm5.67-5.24.13-.09c3.73-3.73,7.46-7.44,11.16-11.18a3.86,3.86,0,0,0,1.05-3.83,3.94,3.94,0,0,0-2.9-3,4,4,0,0,0-4.11,1.09L791,427.42c-.08.07-.15.16-.29.3a5.65,5.65,0,0,1,4.21,1.63A5.57,5.57,0,0,1,796.51,433.57Zm-1.4-.28a4.13,4.13,0,0,0-4.09-4.17,4.16,4.16,0,1,0,4.09,4.17Z" transform="translate(-186.53 -46.5)"/><path d="M778.32,425.58l.73,1.33-.87.75c.62.09,1.15.12,1.66.24a5.54,5.54,0,0,1,4.2,5.35c0,.54.13,1.08.18,1.63a.51.51,0,0,1-.06.39,23.77,23.77,0,0,1-2.13,2.24,5.2,5.2,0,0,1-5.46.94,5.29,5.29,0,0,1-3.53-4.29,5,5,0,0,1,.68-3.53,9.5,9.5,0,0,1,1.24-1.7C776,427.79,777.18,426.71,778.32,425.58Zm-4,7.69a4.16,4.16,0,1,0,8.31,0,4.16,4.16,0,0,0-8.31,0Z" transform="translate(-186.53 -46.5)"/><path class="cls-18" d="M790.29,423.19a5.62,5.62,0,0,0-5.84-5.85,1.8,1.8,0,0,1,.2-.24c3.67-3.68,7.34-7.37,11-11a3.87,3.87,0,0,1,4.37-.9,4.16,4.16,0,0,1,1.5,6.76Q796,417.5,790.47,423Zm.92-2.84,1-1.05,8.21-8.21a2.75,2.75,0,0,0,.83-2.67l-10.7,10.71Z" transform="translate(-186.53 -46.5)"/><path class="cls-18" d="M784.73,418.74a4.15,4.15,0,1,1-4.15,4.08A4.14,4.14,0,0,1,784.73,418.74Zm2.76,4.14a2.76,2.76,0,1,0-2.78,2.78A2.77,2.77,0,0,0,787.49,422.88Z" transform="translate(-186.53 -46.5)"/><path class="cls-18" d="M796.51,433.57a5.57,5.57,0,0,0-1.64-4.22,5.65,5.65,0,0,0-4.21-1.63c.14-.14.21-.23.29-.3l10.89-10.9a4,4,0,0,1,4.11-1.09,3.94,3.94,0,0,1,2.9,3,3.86,3.86,0,0,1-1.05,3.83c-3.7,3.74-7.43,7.45-11.16,11.18Zm11-14.78L796.8,429.5l.63,1.21.24-.22q4.51-4.51,9-9a3.31,3.31,0,0,0,.35-.41A2.76,2.76,0,0,0,807.51,418.79Z" transform="translate(-186.53 -46.5)"/><path class="cls-18" d="M795.11,433.29a4.15,4.15,0,0,1-4.16,4.15,4.16,4.16,0,1,1,.07-8.32A4.13,4.13,0,0,1,795.11,433.29ZM790.89,436a2.76,2.76,0,1,0-2.76-2.77A2.76,2.76,0,0,0,790.89,436Z" transform="translate(-186.53 -46.5)"/><path class="cls-18" d="M774.34,433.27a4.16,4.16,0,1,1,4.17,4.17A4.16,4.16,0,0,1,774.34,433.27Zm4.24,2.76a2.76,2.76,0,1,0-2.77-2.76A2.76,2.76,0,0,0,778.58,436Z" transform="translate(-186.53 -46.5)"/><path d="M791.21,420.35l-.63-1.22,10.7-10.71a2.75,2.75,0,0,1-.83,2.67l-8.21,8.21Z" transform="translate(-186.53 -46.5)"/><path d="M787.49,422.88a2.76,2.76,0,1,1-2.76-2.77A2.76,2.76,0,0,1,787.49,422.88Zm-2.77,1.38a1.38,1.38,0,1,0,0-2.75,1.38,1.38,0,1,0,0,2.75Z" transform="translate(-186.53 -46.5)"/><path d="M807.51,418.79a2.76,2.76,0,0,1-.45,2.25,3.31,3.31,0,0,1-.35.41q-4.51,4.53-9,9l-.24.22-.63-1.21Z" transform="translate(-186.53 -46.5)"/><path d="M790.89,436a2.76,2.76,0,1,1,0-5.52,2.76,2.76,0,1,1,0,5.52Zm1.39-2.77a1.38,1.38,0,0,0-1.39-1.38,1.41,1.41,0,0,0-1.37,1.37,1.39,1.39,0,0,0,1.38,1.4A1.35,1.35,0,0,0,792.28,433.26Z" transform="translate(-186.53 -46.5)"/><path d="M778.58,436a2.76,2.76,0,1,1,2.78-2.78A2.78,2.78,0,0,1,778.58,436Zm1.38-2.76a1.37,1.37,0,0,0-1.38-1.39,1.39,1.39,0,0,0-1.37,1.37,1.37,1.37,0,0,0,1.37,1.4A1.35,1.35,0,0,0,780,433.27Z" transform="translate(-186.53 -46.5)"/><path class="cls-18" d="M784.72,424.26a1.38,1.38,0,1,1,0-2.75,1.38,1.38,0,1,1,0,2.75Z" transform="translate(-186.53 -46.5)"/><path class="cls-18" d="M792.28,433.26a1.35,1.35,0,0,1-1.38,1.39,1.39,1.39,0,0,1-1.38-1.4,1.41,1.41,0,0,1,1.37-1.37A1.38,1.38,0,0,1,792.28,433.26Z" transform="translate(-186.53 -46.5)"/><path class="cls-18" d="M780,433.27a1.35,1.35,0,0,1-1.38,1.38,1.37,1.37,0,0,1-1.37-1.4,1.39,1.39,0,0,1,1.37-1.37A1.37,1.37,0,0,1,780,433.27Z" transform="translate(-186.53 -46.5)"/><path class="cls-18" d="M783.09,285.17V244.93h40.24v40.24Zm13.24-12.47a5.24,5.24,0,0,0,3.22-1.62q7-6.93,13.89-13.9A5.53,5.53,0,0,0,811.1,248a5.34,5.34,0,0,0-5.5,1.35c-.87.83-1.7,1.7-2.55,2.55l-11.32,11.31a5.51,5.51,0,0,0-1.21,6C791.38,271.35,793.37,272.69,796.33,272.7Zm5.41,10.39a5.5,5.5,0,0,0,4-1.62q6.94-6.92,13.86-13.86a5.53,5.53,0,0,0-7.82-7.83q-7,6.92-13.87,13.86a5.54,5.54,0,0,0,3.79,9.45Zm-12.52-13.23c-1.14,1.13-2.28,2.2-3.35,3.34a10.48,10.48,0,0,0-1.25,1.7,5,5,0,0,0-.67,3.54,5.31,5.31,0,0,0,3.52,4.29,5.22,5.22,0,0,0,5.47-.94,26.69,26.69,0,0,0,2.13-2.25.61.61,0,0,0,.06-.39c-.06-.54-.17-1.08-.18-1.63a5.54,5.54,0,0,0-4.2-5.34c-.51-.13-1-.15-1.66-.24l.87-.75Z" transform="translate(-186.53 -46.5)"/><path d="M796.33,272.7c-3,0-5-1.35-5.81-3.43a5.51,5.51,0,0,1,1.21-6l11.32-11.31c.85-.85,1.68-1.72,2.55-2.55a5.34,5.34,0,0,1,5.5-1.35,5.53,5.53,0,0,1,2.34,9.16q-6.91,7-13.89,13.9A5.24,5.24,0,0,1,796.33,272.7Zm4.86-5.24.19-.16c3.69-3.69,7.4-7.39,11.08-11.09a4.15,4.15,0,0,0-5.87-5.86c-3.7,3.65-7.36,7.34-11,11l-.19.25A5.6,5.6,0,0,1,801.19,267.46ZM795.63,263a4.15,4.15,0,1,0,4.17,4.16A4.14,4.14,0,0,0,795.63,263Z" transform="translate(-186.53 -46.5)"/><path d="M801.74,283.09a5.54,5.54,0,0,1-3.79-9.45q6.93-6.93,13.87-13.86a5.53,5.53,0,0,1,7.82,7.83q-6.92,6.94-13.86,13.86A5.5,5.5,0,0,1,801.74,283.09Zm5.68-5.25.13-.09c3.72-3.72,7.46-7.43,11.16-11.17a4.15,4.15,0,0,0-1.86-6.87,4,4,0,0,0-4.1,1.09q-5.46,5.43-10.89,10.89l-.29.3a5.67,5.67,0,0,1,4.2,1.63A5.6,5.6,0,0,1,807.42,277.84Zm-1.41-.28a4.15,4.15,0,1,0-8.3,0,4.18,4.18,0,0,0,4.15,4.17A4.14,4.14,0,0,0,806,277.56Z" transform="translate(-186.53 -46.5)"/><path d="M789.22,269.86l.74,1.33-.87.75c.61.09,1.15.11,1.66.24a5.54,5.54,0,0,1,4.2,5.34c0,.55.12,1.09.18,1.63a.61.61,0,0,1-.06.39,26.69,26.69,0,0,1-2.13,2.25,5.22,5.22,0,0,1-5.47.94,5.31,5.31,0,0,1-3.52-4.29,5,5,0,0,1,.67-3.54,10.48,10.48,0,0,1,1.25-1.7C786.94,272.06,788.08,271,789.22,269.86Zm-4,7.69a4.15,4.15,0,1,0,4.17-4.15A4.16,4.16,0,0,0,785.25,277.55Z" transform="translate(-186.53 -46.5)"/><path class="cls-18" d="M801.19,267.46a5.6,5.6,0,0,0-5.83-5.84l.19-.25c3.68-3.68,7.34-7.37,11-11a4.15,4.15,0,0,1,5.87,5.86c-3.68,3.7-7.39,7.4-11.08,11.09Zm.93-2.83,1-1.06,8.2-8.2a2.76,2.76,0,0,0,.84-2.67l-10.71,10.71Z" transform="translate(-186.53 -46.5)"/><path class="cls-18" d="M795.63,263a4.15,4.15,0,1,1-4.14,4.09A4.16,4.16,0,0,1,795.63,263Zm2.77,4.14a2.76,2.76,0,1,0-2.78,2.79A2.77,2.77,0,0,0,798.4,267.15Z" transform="translate(-186.53 -46.5)"/><path class="cls-18" d="M807.42,277.84a5.6,5.6,0,0,0-1.65-4.22,5.67,5.67,0,0,0-4.2-1.63l.29-.3q5.45-5.44,10.89-10.89a4.15,4.15,0,0,1,7,1.95,3.91,3.91,0,0,1-1,3.83c-3.7,3.74-7.44,7.45-11.16,11.17Zm11-14.77L807.7,273.78l.64,1.2.23-.21,9-9a3.62,3.62,0,0,0,.36-.42A2.69,2.69,0,0,0,818.41,263.07Z" transform="translate(-186.53 -46.5)"/><path class="cls-18" d="M806,277.56a4.14,4.14,0,0,1-4.15,4.15,4.16,4.16,0,1,1,.06-8.31A4.12,4.12,0,0,1,806,277.56Zm-4.22,2.75a2.77,2.77,0,1,0-2.75-2.78A2.77,2.77,0,0,0,801.79,280.31Z" transform="translate(-186.53 -46.5)"/><path class="cls-18" d="M785.25,277.55a4.15,4.15,0,1,1,4.16,4.16A4.15,4.15,0,0,1,785.25,277.55Zm4.23,2.76a2.77,2.77,0,1,0-2.76-2.77A2.77,2.77,0,0,0,789.48,280.31Z" transform="translate(-186.53 -46.5)"/><path d="M802.12,264.63l-.64-1.22,10.71-10.71a2.76,2.76,0,0,1-.84,2.67l-8.2,8.2Z" transform="translate(-186.53 -46.5)"/><path d="M798.4,267.15a2.76,2.76,0,1,1-2.76-2.76A2.78,2.78,0,0,1,798.4,267.15Zm-2.78,1.39a1.38,1.38,0,0,0,0-2.76,1.38,1.38,0,1,0,0,2.76Z" transform="translate(-186.53 -46.5)"/><path d="M818.41,263.07a2.69,2.69,0,0,1-.44,2.24,3.62,3.62,0,0,1-.36.42l-9,9-.23.21-.64-1.2Z" transform="translate(-186.53 -46.5)"/><path d="M801.79,280.31a2.77,2.77,0,1,1,2.8-2.73A2.79,2.79,0,0,1,801.79,280.31Zm1.4-2.77a1.38,1.38,0,1,0-2.76,0,1.37,1.37,0,0,0,1.38,1.39A1.35,1.35,0,0,0,803.19,277.54Z" transform="translate(-186.53 -46.5)"/><path d="M789.48,280.31a2.77,2.77,0,1,1,2.79-2.78A2.78,2.78,0,0,1,789.48,280.31Zm1.39-2.76a1.38,1.38,0,1,0-2.76,0,1.38,1.38,0,1,0,2.76,0Z" transform="translate(-186.53 -46.5)"/><path class="cls-18" d="M795.62,268.54a1.38,1.38,0,1,1,0-2.76,1.38,1.38,0,0,1,0,2.76Z" transform="translate(-186.53 -46.5)"/><path class="cls-18" d="M803.19,277.54a1.35,1.35,0,0,1-1.38,1.38,1.37,1.37,0,0,1-1.38-1.39,1.38,1.38,0,1,1,2.76,0Z" transform="translate(-186.53 -46.5)"/><path class="cls-18" d="M790.87,277.55a1.38,1.38,0,1,1-2.76,0,1.38,1.38,0,1,1,2.76,0Z" transform="translate(-186.53 -46.5)"/><path d="M385.7,404.3v1c-.2.38-.38.78-.6,1.15a19.16,19.16,0,0,1-5.34,5.35c-5.46,3.92-11.61,5.11-18.2,4.52a1.78,1.78,0,0,0-1,.16c-2.89,1.47-5.77,3-8.65,4.46h-.19c-1-.48-.7-1.32-.49-2,.42-1.52.93-3,1.4-4.51a.35.35,0,0,0-.14-.13,49,49,0,0,1-9.63-4.9,1.07,1.07,0,0,0-.94.17c-3,2.52-6.6,4-10.25,5.3a1.19,1.19,0,0,1-1.51-.37v-.57a29.3,29.3,0,0,1,1.25-2.73c1.27-2.14,2.61-4.24,4-6.41-.24-.28-.6-.67-.94-1.09a28.86,28.86,0,0,1-4.27-7.89v-.57c.63-.67,1.32-.39,2-.14a31.31,31.31,0,0,1,10.41,5.7,48.73,48.73,0,0,1,12.61-6c-.09-.29-.13-.47-.19-.65-.45-1.45-.91-2.89-1.33-4.35-.2-.68-.29-1.38.53-1.79h.19a47.65,47.65,0,0,1,9,4.71,3.65,3.65,0,0,0,1.65.56c1.6.2,3.24.16,4.81.46C376.68,394.94,382.21,398.13,385.7,404.3Zm-53.12,8.36a26.8,26.8,0,0,0,8.8-5,1.37,1.37,0,0,1,2.05-.15,40,40,0,0,0,10.36,5.32c1.11.4,1.19.57.78,1.66s-.82,2.06-1.2,3.1a4.81,4.81,0,0,0-.18.88c.28-.11.43-.15.56-.22,2-1.13,4-2.28,6.05-3.37a3.3,3.3,0,0,1,1.49-.32c2.29,0,4.57.06,6.85,0a18.72,18.72,0,0,0,3-.58c-3.63-6.22-3.59-12.29,0-18.37a9.48,9.48,0,0,0-1.14-.27c-1.86-.18-3.73-.3-5.59-.53a4.66,4.66,0,0,1-1.71-.63c-2.27-1.3-4.51-2.65-6.76-4l-.33.29c.43,1.2.85,2.41,1.32,3.6.62,1.57.57,1.73-1,2.2a44.64,44.64,0,0,0-11.61,5.34c-2.17,1.4-1.48,1.54-3.61-.26a27.31,27.31,0,0,0-8-4.35,17.24,17.24,0,0,0,3.91,6.35c1.46,1.48,1.45,1.47,0,3A22.79,22.79,0,0,0,332.58,412.66Zm37.49-7.8a14.9,14.9,0,0,0,2.43,8c.3.45.55.58,1.07.37a23.13,23.13,0,0,0,9.38-6.77c1.32-1.6,1.29-1.76,0-3.4a21.6,21.6,0,0,0-8.94-6.56c-.83-.36-1.23-.14-1.67.56A15.2,15.2,0,0,0,370.07,404.86Z" transform="translate(-186.53 -46.5)"/><path class="cls-18" d="M354.23,387.9c-.82.41-.73,1.11-.53,1.79.42,1.46.88,2.9,1.33,4.35.06.18.1.36.19.65a48.73,48.73,0,0,0-12.61,6A31.31,31.31,0,0,0,332.2,395c-.69-.25-1.38-.53-2,.14V387.9Z" transform="translate(-186.53 -46.5)"/><path class="cls-18" d="M385.7,404.3c-3.49-6.17-9-9.36-15.78-10.67-1.57-.3-3.21-.26-4.81-.46a3.65,3.65,0,0,1-1.65-.56,47.65,47.65,0,0,0-9-4.71H385.7Z" transform="translate(-186.53 -46.5)"/><path class="cls-18" d="M351.94,420.9c2.88-1.49,5.76-3,8.65-4.46a1.78,1.78,0,0,1,1-.16c6.59.59,12.74-.6,18.2-4.52a19.16,19.16,0,0,0,5.34-5.35c.22-.37.4-.77.6-1.15V420.9Z" transform="translate(-186.53 -46.5)"/><path class="cls-18" d="M330.19,414.41a1.19,1.19,0,0,0,1.51.37c3.65-1.32,7.22-2.78,10.25-5.3a1.07,1.07,0,0,1,.94-.17,49,49,0,0,0,9.63,4.9.35.35,0,0,1,.14.13c-.47,1.5-1,3-1.4,4.51-.21.73-.51,1.57.49,2H330.19Z" transform="translate(-186.53 -46.5)"/><path class="cls-18" d="M330.19,395.72a28.86,28.86,0,0,0,4.27,7.89c.34.42.7.81.94,1.09-1.35,2.17-2.69,4.27-4,6.41a29.3,29.3,0,0,0-1.25,2.73Z" transform="translate(-186.53 -46.5)"/><path class="cls-18" d="M332.58,412.66a22.79,22.79,0,0,1,4-6.29c1.44-1.53,1.45-1.52,0-3A17.24,17.24,0,0,1,332.7,397a27.31,27.31,0,0,1,8,4.35c2.13,1.8,1.44,1.66,3.61.26a44.64,44.64,0,0,1,11.61-5.34c1.59-.47,1.64-.63,1-2.2-.47-1.19-.89-2.4-1.32-3.6l.33-.29c2.25,1.33,4.49,2.68,6.76,4a4.66,4.66,0,0,0,1.71.63c1.86.23,3.73.35,5.59.53a9.48,9.48,0,0,1,1.14.27c-3.63,6.08-3.67,12.15,0,18.37a18.72,18.72,0,0,1-3,.58c-2.28.07-4.56,0-6.85,0a3.3,3.3,0,0,0-1.49.32c-2,1.09-4,2.24-6.05,3.37-.13.07-.28.11-.56.22a4.81,4.81,0,0,1,.18-.88c.38-1,.8-2.06,1.2-3.1s.33-1.26-.78-1.66a40,40,0,0,1-10.36-5.32,1.37,1.37,0,0,0-2.05.15A26.8,26.8,0,0,1,332.58,412.66Z" transform="translate(-186.53 -46.5)"/><path class="cls-18" d="M370.07,404.86a15.2,15.2,0,0,1,2.29-7.83c.44-.7.84-.92,1.67-.56A21.6,21.6,0,0,1,383,403c1.27,1.64,1.3,1.8,0,3.4a23.13,23.13,0,0,1-9.38,6.77c-.52.21-.77.08-1.07-.37A14.9,14.9,0,0,1,370.07,404.86Zm6.09-3.43a1.68,1.68,0,0,0-1.69,1.66,1.83,1.83,0,0,0,1.7,1.72,1.71,1.71,0,0,0,1.71-1.76A1.65,1.65,0,0,0,376.16,401.43Z" transform="translate(-186.53 -46.5)"/><path d="M376.16,401.43a1.65,1.65,0,0,1,1.72,1.62,1.71,1.71,0,0,1-1.71,1.76,1.83,1.83,0,0,1-1.7-1.72A1.68,1.68,0,0,1,376.16,401.43Z" transform="translate(-186.53 -46.5)"/><path d="M873.61,420.06V421c-.2.38-.37.79-.6,1.15a19.29,19.29,0,0,1-5.33,5.36c-5.47,3.91-11.61,5.11-18.2,4.51a1.82,1.82,0,0,0-1,.16c-2.89,1.47-5.77,3-8.65,4.46h-.19c-1-.48-.7-1.32-.49-2,.42-1.52.93-3,1.4-4.51a.8.8,0,0,0-.13-.13,48.58,48.58,0,0,1-9.64-4.9,1,1,0,0,0-.94.18,33.39,33.39,0,0,1-10.24,5.3,1.2,1.2,0,0,1-1.52-.38v-.57a28,28,0,0,1,1.26-2.72c1.26-2.15,2.6-4.24,3.95-6.42-.23-.27-.6-.67-.93-1.09a28.89,28.89,0,0,1-4.28-7.89v-.57c.63-.67,1.33-.39,2-.14a31.34,31.34,0,0,1,10.41,5.71,48.76,48.76,0,0,1,12.61-6c-.08-.29-.13-.47-.19-.65-.44-1.45-.91-2.89-1.33-4.35-.19-.68-.29-1.38.53-1.79h.19a47.65,47.65,0,0,1,9,4.71,3.78,3.78,0,0,0,1.65.57c1.6.19,3.24.15,4.81.46C864.6,410.69,870.12,413.88,873.61,420.06Zm-53.12,8.35a26.77,26.77,0,0,0,8.8-5,1.38,1.38,0,0,1,2.06-.16,40.29,40.29,0,0,0,10.35,5.33c1.11.4,1.19.56.78,1.65s-.81,2.06-1.2,3.1a5.84,5.84,0,0,0-.18.88,3.23,3.23,0,0,0,.56-.22c2-1.12,4-2.28,6.06-3.37a3.23,3.23,0,0,1,1.48-.32c2.29,0,4.57.07,6.86,0a18.39,18.39,0,0,0,3-.58c-3.63-6.22-3.58-12.29.05-18.37-.48-.11-.81-.23-1.15-.27-1.86-.18-3.73-.3-5.59-.53a4.66,4.66,0,0,1-1.71-.63c-2.27-1.3-4.51-2.65-6.76-4l-.33.29c.44,1.2.85,2.41,1.32,3.6.62,1.58.58,1.73-1,2.2a44.79,44.79,0,0,0-11.61,5.34c-2.17,1.4-1.48,1.54-3.6-.26a27.54,27.54,0,0,0-8-4.34,17.26,17.26,0,0,0,3.9,6.34c1.46,1.48,1.45,1.47,0,3A23,23,0,0,0,820.49,428.41Zm37.49-7.8a14.87,14.87,0,0,0,2.43,8c.3.46.56.58,1.07.37a23.13,23.13,0,0,0,9.39-6.77c1.31-1.6,1.29-1.76,0-3.4a21.78,21.78,0,0,0-8.95-6.56,1.13,1.13,0,0,0-1.67.56A15.2,15.2,0,0,0,858,420.61Z" transform="translate(-186.53 -46.5)"/><path class="cls-18" d="M842.14,403.65c-.82.41-.72,1.11-.53,1.79.42,1.46.89,2.9,1.33,4.35.06.18.11.36.19.65a48.76,48.76,0,0,0-12.61,6,31.34,31.34,0,0,0-10.41-5.71c-.68-.25-1.38-.53-2,.14v-7.25Z" transform="translate(-186.53 -46.5)"/><path class="cls-18" d="M873.61,420.06c-3.49-6.18-9-9.37-15.78-10.67-1.57-.31-3.21-.27-4.81-.46a3.78,3.78,0,0,1-1.65-.57,47.65,47.65,0,0,0-9-4.71h31.28Z" transform="translate(-186.53 -46.5)"/><path class="cls-18" d="M839.85,436.65c2.88-1.49,5.76-3,8.65-4.46a1.82,1.82,0,0,1,1-.16c6.59.6,12.73-.6,18.2-4.51a19.29,19.29,0,0,0,5.33-5.36c.23-.36.4-.77.6-1.15v15.64Z" transform="translate(-186.53 -46.5)"/><path class="cls-18" d="M818.1,430.16a1.2,1.2,0,0,0,1.52.38,33.39,33.39,0,0,0,10.24-5.3,1,1,0,0,1,.94-.18,48.58,48.58,0,0,0,9.64,4.9.8.8,0,0,1,.13.13c-.47,1.5-1,3-1.4,4.51-.21.73-.51,1.57.49,2H818.1Z" transform="translate(-186.53 -46.5)"/><path class="cls-18" d="M818.1,411.47a28.89,28.89,0,0,0,4.28,7.89c.33.42.7.82.93,1.09-1.35,2.18-2.69,4.27-3.95,6.42a28,28,0,0,0-1.26,2.72Z" transform="translate(-186.53 -46.5)"/><path class="cls-18" d="M820.49,428.41a23,23,0,0,1,4-6.29c1.43-1.53,1.44-1.52,0-3a17.26,17.26,0,0,1-3.9-6.34,27.54,27.54,0,0,1,8,4.34c2.12,1.8,1.43,1.66,3.6.26A44.79,44.79,0,0,1,843.83,412c1.6-.47,1.64-.62,1-2.2-.47-1.19-.88-2.4-1.32-3.6l.33-.29c2.25,1.33,4.49,2.68,6.76,4a4.66,4.66,0,0,0,1.71.63c1.86.23,3.73.35,5.59.53.34,0,.67.16,1.15.27-3.63,6.08-3.68,12.15-.05,18.37a18.39,18.39,0,0,1-3,.58c-2.29.08-4.57,0-6.86,0a3.23,3.23,0,0,0-1.48.32c-2,1.09-4,2.25-6.06,3.37a3.23,3.23,0,0,1-.56.22,5.84,5.84,0,0,1,.18-.88c.39-1,.8-2.06,1.2-3.1s.33-1.25-.78-1.65a40.29,40.29,0,0,1-10.35-5.33,1.38,1.38,0,0,0-2.06.16A26.77,26.77,0,0,1,820.49,428.41Z" transform="translate(-186.53 -46.5)"/><path class="cls-18" d="M858,420.61a15.2,15.2,0,0,1,2.29-7.83,1.13,1.13,0,0,1,1.67-.56,21.78,21.78,0,0,1,8.95,6.56c1.27,1.64,1.29,1.8,0,3.4a23.13,23.13,0,0,1-9.39,6.77c-.51.21-.77.09-1.07-.37A14.87,14.87,0,0,1,858,420.61Zm6.09-3.43a1.68,1.68,0,0,0-1.69,1.67,1.85,1.85,0,0,0,1.7,1.72,1.72,1.72,0,0,0,1.71-1.77A1.65,1.65,0,0,0,864.07,417.18Z" transform="translate(-186.53 -46.5)"/><path d="M864.07,417.18a1.65,1.65,0,0,1,1.72,1.62,1.72,1.72,0,0,1-1.71,1.77,1.85,1.85,0,0,1-1.7-1.72A1.68,1.68,0,0,1,864.07,417.18Z" transform="translate(-186.53 -46.5)"/><path d="M883.7,263.1v.95c-.2.38-.38.79-.6,1.15a19.19,19.19,0,0,1-5.34,5.36c-5.46,3.91-11.61,5.11-18.2,4.51a1.88,1.88,0,0,0-1,.16c-2.89,1.47-5.77,3-8.65,4.46h-.19c-1-.48-.7-1.32-.49-2.05.42-1.52.93-3,1.4-4.51a.58.58,0,0,0-.14-.13,48.5,48.5,0,0,1-9.63-4.9,1,1,0,0,0-.94.18,33.33,33.33,0,0,1-10.25,5.3,1.2,1.2,0,0,1-1.51-.37v-.58a28,28,0,0,1,1.25-2.72c1.27-2.15,2.61-4.24,4-6.42-.24-.27-.6-.67-.94-1.09a28.86,28.86,0,0,1-4.27-7.89v-.57c.63-.67,1.32-.39,2-.14a31.34,31.34,0,0,1,10.41,5.71,48.76,48.76,0,0,1,12.61-6c-.09-.29-.13-.47-.19-.65-.45-1.45-.91-2.89-1.33-4.35-.2-.68-.29-1.38.53-1.79h.19a47.65,47.65,0,0,1,9,4.71,3.78,3.78,0,0,0,1.65.57c1.6.19,3.24.15,4.81.46C874.68,253.73,880.21,256.92,883.7,263.1Zm-53.12,8.35a26.77,26.77,0,0,0,8.8-5,1.37,1.37,0,0,1,2-.16,40.35,40.35,0,0,0,10.36,5.33c1.11.4,1.19.56.78,1.65s-.82,2.06-1.2,3.1a4.81,4.81,0,0,0-.18.88,3.23,3.23,0,0,0,.56-.22c2-1.12,4-2.28,6-3.37a3.3,3.3,0,0,1,1.49-.32c2.29,0,4.57.07,6.85,0a18.72,18.72,0,0,0,3-.58c-3.63-6.22-3.59-12.29,0-18.37-.47-.11-.8-.23-1.14-.27-1.86-.18-3.73-.3-5.59-.53a4.66,4.66,0,0,1-1.71-.63c-2.27-1.3-4.51-2.65-6.76-4l-.33.3c.43,1.19.85,2.4,1.32,3.59.62,1.58.57,1.73-1,2.2a44.64,44.64,0,0,0-11.61,5.34c-2.17,1.4-1.48,1.54-3.61-.26a27.29,27.29,0,0,0-8-4.34,17.29,17.29,0,0,0,3.91,6.34c1.46,1.48,1.45,1.47,0,3A22.94,22.94,0,0,0,830.58,271.45Zm37.49-7.8a14.87,14.87,0,0,0,2.43,8c.3.46.55.58,1.07.37a23,23,0,0,0,9.38-6.77c1.32-1.6,1.29-1.76,0-3.4a21.69,21.69,0,0,0-8.94-6.56,1.13,1.13,0,0,0-1.67.56A15.2,15.2,0,0,0,868.07,263.65Z" transform="translate(-186.53 -46.5)"/><path class="cls-18" d="M852.23,246.69c-.82.41-.73,1.11-.53,1.79.42,1.46.88,2.9,1.33,4.35.06.18.1.36.19.65a48.76,48.76,0,0,0-12.61,6,31.34,31.34,0,0,0-10.41-5.71c-.69-.25-1.38-.53-2,.14v-7.25Z" transform="translate(-186.53 -46.5)"/><path class="cls-18" d="M883.7,263.1c-3.49-6.18-9-9.37-15.78-10.67-1.57-.31-3.21-.27-4.81-.46a3.78,3.78,0,0,1-1.65-.57,47.65,47.65,0,0,0-9-4.71H883.7Z" transform="translate(-186.53 -46.5)"/><path class="cls-18" d="M849.94,279.69c2.88-1.49,5.76-3,8.65-4.46a1.88,1.88,0,0,1,1-.16c6.59.6,12.74-.6,18.2-4.51a19.19,19.19,0,0,0,5.34-5.36c.22-.36.4-.77.6-1.15v15.64Z" transform="translate(-186.53 -46.5)"/><path class="cls-18" d="M828.19,273.21a1.2,1.2,0,0,0,1.51.37,33.33,33.33,0,0,0,10.25-5.3,1,1,0,0,1,.94-.18,48.5,48.5,0,0,0,9.63,4.9.58.58,0,0,1,.14.13c-.47,1.5-1,3-1.4,4.51-.21.73-.51,1.57.49,2.05H828.19Z" transform="translate(-186.53 -46.5)"/><path class="cls-18" d="M828.19,254.51a28.86,28.86,0,0,0,4.27,7.89c.34.42.7.82.94,1.09-1.35,2.18-2.69,4.27-4,6.42a28,28,0,0,0-1.25,2.72Z" transform="translate(-186.53 -46.5)"/><path class="cls-18" d="M830.58,271.45a22.94,22.94,0,0,1,4-6.29c1.44-1.53,1.45-1.52,0-3a17.29,17.29,0,0,1-3.91-6.34,27.29,27.29,0,0,1,8,4.34c2.13,1.8,1.44,1.66,3.61.26a44.64,44.64,0,0,1,11.61-5.34c1.59-.47,1.64-.62,1-2.2-.47-1.19-.89-2.4-1.32-3.59l.33-.3c2.25,1.33,4.49,2.68,6.76,4a4.66,4.66,0,0,0,1.71.63c1.86.23,3.73.35,5.59.53.34,0,.67.16,1.14.27-3.63,6.08-3.67,12.15,0,18.37a18.72,18.72,0,0,1-3,.58c-2.28.08-4.56,0-6.85,0a3.3,3.3,0,0,0-1.49.32c-2,1.09-4,2.25-6,3.37a3.23,3.23,0,0,1-.56.22,4.81,4.81,0,0,1,.18-.88c.38-1,.8-2.06,1.2-3.1s.33-1.25-.78-1.65a40.35,40.35,0,0,1-10.36-5.33,1.37,1.37,0,0,0-2,.16A26.77,26.77,0,0,1,830.58,271.45Z" transform="translate(-186.53 -46.5)"/><path class="cls-18" d="M868.07,263.65a15.2,15.2,0,0,1,2.29-7.83,1.13,1.13,0,0,1,1.67-.56,21.69,21.69,0,0,1,8.94,6.56c1.27,1.64,1.3,1.8,0,3.4a23,23,0,0,1-9.38,6.77c-.52.21-.77.09-1.07-.37A14.87,14.87,0,0,1,868.07,263.65Zm6.09-3.43a1.68,1.68,0,0,0-1.69,1.67,1.85,1.85,0,0,0,1.7,1.72,1.72,1.72,0,0,0,1.71-1.77A1.66,1.66,0,0,0,874.16,260.22Z" transform="translate(-186.53 -46.5)"/><path d="M874.16,260.22a1.66,1.66,0,0,1,1.72,1.62,1.72,1.72,0,0,1-1.71,1.77,1.85,1.85,0,0,1-1.7-1.72A1.68,1.68,0,0,1,874.16,260.22Z" transform="translate(-186.53 -46.5)"/><path d="M879,702.8v1c-.2.38-.38.78-.61,1.15a19.12,19.12,0,0,1-5.33,5.35c-5.47,3.92-11.61,5.11-18.2,4.52a1.84,1.84,0,0,0-1,.16c-2.89,1.47-5.77,3-8.65,4.46H845c-1-.48-.69-1.32-.49-2,.43-1.52.93-3,1.41-4.51,0-.05-.09-.11-.14-.13a49,49,0,0,1-9.63-4.9,1.06,1.06,0,0,0-.94.17,33.22,33.22,0,0,1-10.25,5.3,1.18,1.18,0,0,1-1.51-.37v-.57a26.92,26.92,0,0,1,1.25-2.73c1.26-2.14,2.61-4.24,4-6.41-.24-.28-.61-.67-.94-1.09a28.86,28.86,0,0,1-4.27-7.89v-.57c.62-.67,1.32-.39,2-.14a31.36,31.36,0,0,1,10.42,5.7,48.66,48.66,0,0,1,12.6-6l-.18-.65c-.45-1.45-.92-2.89-1.34-4.35-.19-.68-.28-1.38.53-1.79h.19a47.06,47.06,0,0,1,9,4.71,3.73,3.73,0,0,0,1.66.56c1.59.2,3.23.16,4.81.46C869.93,693.44,875.46,696.63,879,702.8Zm-53.12,8.36a26.65,26.65,0,0,0,8.79-5,1.38,1.38,0,0,1,2.06-.15A40,40,0,0,0,847,711.34c1.11.4,1.2.57.78,1.66s-.81,2.06-1.2,3.1a6,6,0,0,0-.17.88c.27-.11.42-.15.55-.22,2-1.13,4-2.28,6.06-3.37a3.28,3.28,0,0,1,1.49-.32c2.28,0,4.57.06,6.85,0a18.72,18.72,0,0,0,3-.58c-3.64-6.22-3.59-12.29,0-18.37a10,10,0,0,0-1.15-.27c-1.86-.18-3.73-.3-5.58-.53a4.77,4.77,0,0,1-1.72-.63c-2.27-1.3-4.51-2.65-6.76-4l-.33.29c.44,1.2.86,2.41,1.32,3.6.62,1.57.58,1.73-1,2.2a44.79,44.79,0,0,0-11.61,5.34c-2.17,1.4-1.48,1.54-3.6-.26a27.57,27.57,0,0,0-8-4.35,17.11,17.11,0,0,0,3.91,6.35c1.45,1.48,1.44,1.47,0,3A22.56,22.56,0,0,0,825.83,711.16Zm37.48-7.8a15,15,0,0,0,2.43,8c.31.45.56.58,1.07.37a23.22,23.22,0,0,0,9.39-6.77c1.31-1.6,1.29-1.76,0-3.4a21.66,21.66,0,0,0-8.94-6.56c-.83-.36-1.23-.14-1.67.56A15.21,15.21,0,0,0,863.31,703.36Z" transform="translate(-186.53 -46.5)"/><path class="cls-18" d="M847.47,686.4c-.81.41-.72,1.11-.53,1.79.42,1.46.89,2.9,1.34,4.35l.18.65a48.66,48.66,0,0,0-12.6,6,31.36,31.36,0,0,0-10.42-5.7c-.68-.25-1.38-.53-2,.14V686.4Z" transform="translate(-186.53 -46.5)"/><path class="cls-18" d="M879,702.8c-3.49-6.17-9-9.36-15.78-10.67-1.58-.3-3.22-.26-4.81-.46a3.73,3.73,0,0,1-1.66-.56,47.06,47.06,0,0,0-9-4.71H879Z" transform="translate(-186.53 -46.5)"/><path class="cls-18" d="M845.18,719.4c2.88-1.49,5.76-3,8.65-4.46a1.84,1.84,0,0,1,1-.16c6.59.59,12.73-.6,18.2-4.52a19.12,19.12,0,0,0,5.33-5.35c.23-.37.41-.77.61-1.15V719.4Z" transform="translate(-186.53 -46.5)"/><path class="cls-18" d="M823.44,712.91a1.18,1.18,0,0,0,1.51.37A33.22,33.22,0,0,0,835.2,708a1.06,1.06,0,0,1,.94-.17,49,49,0,0,0,9.63,4.9c.05,0,.09.08.14.13-.48,1.5-1,3-1.41,4.51-.2.73-.5,1.57.49,2H823.44Z" transform="translate(-186.53 -46.5)"/><path class="cls-18" d="M823.44,694.22a28.86,28.86,0,0,0,4.27,7.89c.33.42.7.81.94,1.09-1.35,2.17-2.7,4.27-4,6.41a26.92,26.92,0,0,0-1.25,2.73Z" transform="translate(-186.53 -46.5)"/><path class="cls-18" d="M825.83,711.16a22.56,22.56,0,0,1,4-6.29c1.43-1.53,1.44-1.52,0-3a17.11,17.11,0,0,1-3.91-6.35,27.57,27.57,0,0,1,8,4.35c2.12,1.8,1.43,1.66,3.6.26a44.79,44.79,0,0,1,11.61-5.34c1.6-.47,1.64-.63,1-2.2-.46-1.19-.88-2.4-1.32-3.6l.33-.29c2.25,1.33,4.49,2.68,6.76,4a4.77,4.77,0,0,0,1.72.63c1.85.23,3.72.35,5.58.53a10,10,0,0,1,1.15.27c-3.63,6.08-3.68,12.15,0,18.37a18.72,18.72,0,0,1-3,.58c-2.28.07-4.57,0-6.85,0a3.28,3.28,0,0,0-1.49.32c-2,1.09-4,2.24-6.06,3.37-.13.07-.28.11-.55.22a6,6,0,0,1,.17-.88c.39-1,.81-2.06,1.2-3.1s.33-1.26-.78-1.66A40,40,0,0,1,836.68,706a1.38,1.38,0,0,0-2.06.15A26.65,26.65,0,0,1,825.83,711.16Z" transform="translate(-186.53 -46.5)"/><path class="cls-18" d="M863.31,703.36a15.21,15.21,0,0,1,2.3-7.83c.44-.7.84-.92,1.67-.56a21.66,21.66,0,0,1,8.94,6.56c1.27,1.64,1.29,1.8,0,3.4a23.22,23.22,0,0,1-9.39,6.77c-.51.21-.76.08-1.07-.37A15,15,0,0,1,863.31,703.36Zm6.1-3.43a1.67,1.67,0,0,0-1.69,1.66,1.82,1.82,0,0,0,1.69,1.72,1.72,1.72,0,0,0,1.72-1.76A1.66,1.66,0,0,0,869.41,699.93Z" transform="translate(-186.53 -46.5)"/><path d="M869.41,699.93a1.66,1.66,0,0,1,1.72,1.62,1.72,1.72,0,0,1-1.72,1.76,1.82,1.82,0,0,1-1.69-1.72A1.67,1.67,0,0,1,869.41,699.93Z" transform="translate(-186.53 -46.5)"/><path class="cls-18" d="M879.77,674.11h57.34v57.34H879.77Zm22.92,45.49a3.15,3.15,0,0,0,.58-.18l4.69-2.34a2.1,2.1,0,0,1,.67-.25l11-1.6c1.75-.25,3.49-.5,5.24-.77.71-.11.86-.36.66-1-1.2-3.84-2.39-7.69-3.6-11.53a1.5,1.5,0,0,0-.34-.62q-6.28-6.59-12.6-13.15a1.87,1.87,0,0,0-.74-.47c-1.76-.52-3.52-1-5.3-1.51a1.65,1.65,0,0,0-1.09.14c-1.72.93-3.38,2-5.11,2.87-.91.47-1.52,1-1.4,2.11a3,3,0,0,1-.09.89c-.18.8.07,1.71-.55,2.4a6.4,6.4,0,0,0-1.6,5.34,4.76,4.76,0,0,1-.06,2.26c-.28.65-1,1.09-1.58,1.62a1.24,1.24,0,0,1-.21.19.78.78,0,0,0-.24,1c1.35,3.81,2.68,7.63,4,11.45a1.32,1.32,0,0,0,.46.59c.94.66,1.91,1.29,2.87,1.92a1.69,1.69,0,0,0,.66.29C900.23,719.37,901.38,719.47,902.69,719.6Z" transform="translate(-186.53 -46.5)"/><path d="M902.69,719.6c-1.31-.13-2.46-.23-3.6-.37a1.69,1.69,0,0,1-.66-.29c-1-.63-1.93-1.26-2.87-1.92a1.32,1.32,0,0,1-.46-.59c-1.36-3.82-2.69-7.64-4-11.45a.78.78,0,0,1,.24-1,1.24,1.24,0,0,0,.21-.19c.54-.53,1.3-1,1.58-1.62a4.76,4.76,0,0,0,.06-2.26,6.4,6.4,0,0,1,1.6-5.34c.62-.69.37-1.6.55-2.4a3,3,0,0,0,.09-.89c-.12-1.11.49-1.64,1.4-2.11,1.73-.9,3.39-1.94,5.11-2.87a1.65,1.65,0,0,1,1.09-.14c1.78.47,3.54,1,5.3,1.51a1.87,1.87,0,0,1,.74.47q6.32,6.55,12.6,13.15a1.5,1.5,0,0,1,.34.62c1.21,3.84,2.4,7.69,3.6,11.53.2.65,0,.9-.66,1-1.75.27-3.49.52-5.24.77l-11,1.6a2.1,2.1,0,0,0-.67.25l-4.69,2.34A3.15,3.15,0,0,1,902.69,719.6Zm5.75-8,7-3.7a1,1,0,0,0,0-.23c-1.19-3.07-2.37-6.13-3.57-9.19a1.66,1.66,0,0,0-.41-.58c-1.69-1.56-3.4-3.11-5.11-4.66-.11-.11-.25-.19-.42-.33-.18,1.11-.34,2.13-.51,3.15a42.32,42.32,0,0,1-1.36,6.7c-.41,1.21-.75,2.45-1.09,3.68a.62.62,0,0,0,.14.55C904.82,708.51,906.61,710,908.44,711.58Zm-14.68-8.47c-.35.41-.68.86-1.08,1.25a.7.7,0,0,0-.2.87c1.08,3,2.17,6.08,3.16,9.16a4.28,4.28,0,0,0,2.07,2.7c.91.49,1.7,1.22,2.83,1.15a2.18,2.18,0,0,1,.72.06,1.87,1.87,0,0,0,2.24-.86c1.27-1.76,2.68-3.42,4.06-5.16-.22-.19-.41-.36-.61-.52-2.57-2.07-4.89-4.46-8-5.87C897.25,705.09,895.61,704.1,893.76,703.11ZM924,712.47a.58.58,0,0,0,0-.2q-1.54-4.92-3.1-9.83a1.48,1.48,0,0,0-.34-.56c-3.49-3.64-7.05-7.22-10.46-10.94a8.47,8.47,0,0,0-4.79-2.86c-.46-.09-.91-.25-1.53-.42.63,1.11,1.17,2.07,1.74,3a4.56,4.56,0,0,0,.75,1c2,1.86,4.05,3.7,6.06,5.55a2.21,2.21,0,0,1,.51.77c.94,2.37,2,4.71,2.73,7.13a6.62,6.62,0,0,0,3.38,4.13C920.7,710.21,922.3,711.38,924,712.47Zm-21.69-25.08c-1.83,1.06-3.61,2.08-5.39,3.13a.71.71,0,0,0-.27.48c-.11.85-.16,1.7-.29,2.55a.65.65,0,0,0,.32.73c1.42,1,2.82,2,4.23,3l2.74,2c0-.17.08-.28.1-.38.35-2.2.71-4.4,1.06-6.6a1,1,0,0,0,0-.59C904,690.24,903.14,688.83,902.31,687.39Zm2.87,29.78.08.06,2.6-1.27a2.3,2.3,0,0,1,.68-.24c3.91-.58,7.83-1.14,11.74-1.71l3.15-.48a2.23,2.23,0,0,0-.19-.18c-2.26-1.45-4.53-2.92-6.8-4.36a.78.78,0,0,0-.65,0q-3.36,1.75-6.7,3.54a1.31,1.31,0,0,0-.44.33Zm-9.33-22c-.47.72-.92,1.36-1.33,2a1.06,1.06,0,0,0-.12.53c0,1.38,0,2.76,0,4.13a.78.78,0,0,0,.35.59c1.34.76,2.71,1.49,4.06,2.22l2.92,1.58c.53-1.81,1-3.55,1.54-5.31a.65.65,0,0,0-.18-.53c-.72-.55-1.47-1.08-2.21-1.61Z" transform="translate(-186.53 -46.5)"/><path class="cls-18" d="M908.44,711.58c-1.83-1.56-3.62-3.07-5.39-4.61a.62.62,0,0,1-.14-.55c.34-1.23.68-2.47,1.09-3.68a42.32,42.32,0,0,0,1.36-6.7c.17-1,.33-2,.51-3.15.17.14.31.22.42.33,1.71,1.55,3.42,3.1,5.11,4.66a1.66,1.66,0,0,1,.41.58c1.2,3.06,2.38,6.12,3.57,9.19a1,1,0,0,1,0,.23Z" transform="translate(-186.53 -46.5)"/><path class="cls-18" d="M893.76,703.11c1.85,1,3.49,2,5.23,2.78,3.07,1.41,5.39,3.8,8,5.87.2.16.39.33.61.52-1.38,1.74-2.79,3.4-4.06,5.16a1.87,1.87,0,0,1-2.24.86,2.18,2.18,0,0,0-.72-.06c-1.13.07-1.92-.66-2.83-1.15a4.28,4.28,0,0,1-2.07-2.7c-1-3.08-2.08-6.11-3.16-9.16a.7.7,0,0,1,.2-.87C893.08,704,893.41,703.52,893.76,703.11Z" transform="translate(-186.53 -46.5)"/><path class="cls-18" d="M924,712.47c-1.7-1.09-3.3-2.26-5-3.19a6.62,6.62,0,0,1-3.38-4.13c-.76-2.42-1.79-4.76-2.73-7.13a2.21,2.21,0,0,0-.51-.77c-2-1.85-4.05-3.69-6.06-5.55a4.56,4.56,0,0,1-.75-1c-.57-.95-1.11-1.91-1.74-3,.62.17,1.07.33,1.53.42a8.47,8.47,0,0,1,4.79,2.86c3.41,3.72,7,7.3,10.46,10.94a1.48,1.48,0,0,1,.34.56q1.56,4.9,3.1,9.83A.58.58,0,0,1,924,712.47Z" transform="translate(-186.53 -46.5)"/><path class="cls-18" d="M902.31,687.39c.83,1.44,1.65,2.85,2.45,4.28a1,1,0,0,1,0,.59c-.35,2.2-.71,4.4-1.06,6.6,0,.1-.06.21-.1.38l-2.74-2c-1.41-1-2.81-2-4.23-3a.65.65,0,0,1-.32-.73c.13-.85.18-1.7.29-2.55a.71.71,0,0,1,.27-.48C898.7,689.47,900.48,688.45,902.31,687.39Z" transform="translate(-186.53 -46.5)"/><path class="cls-18" d="M905.18,717.17l3.47-4.3a1.31,1.31,0,0,1,.44-.33q3.35-1.78,6.7-3.54a.78.78,0,0,1,.65,0c2.27,1.44,4.54,2.91,6.8,4.36a2.23,2.23,0,0,1,.19.18l-3.15.48c-3.91.57-7.83,1.13-11.74,1.71a2.3,2.3,0,0,0-.68.24l-2.6,1.27Z" transform="translate(-186.53 -46.5)"/><path class="cls-18" d="M895.85,695.12l5,3.62c.74.53,1.49,1.06,2.21,1.61a.65.65,0,0,1,.18.53c-.49,1.76-1,3.5-1.54,5.31l-2.92-1.58c-1.35-.73-2.72-1.46-4.06-2.22a.78.78,0,0,1-.35-.59c0-1.37,0-2.75,0-4.13a1.06,1.06,0,0,1,.12-.53C894.93,696.48,895.38,695.84,895.85,695.12Z" transform="translate(-186.53 -46.5)"/></svg>