<svg id="Layer_1" data-name="Layer 1" xmlns="http://www.w3.org/2000/svg" viewBox="0 0 1370.23 992.5"><defs><style>.cls-1,.cls-2,.cls-21{fill:none;}.cls-1,.cls-2,.cls-21,.cls-3{stroke:#231f20;stroke-miterlimit:10;}.cls-2{stroke-dasharray:12.26 12.26;}.cls-20,.cls-3,.cls-5{fill:#fff;}.cls-4{fill:#414042;}.cls-5,.cls-9{font-size:18px;font-family:MyriadPro-Regular, Myriad Pro;}.cls-6{letter-spacing:-0.04em;}.cls-7{letter-spacing:-0.01em;}.cls-8{letter-spacing:-0.01em;}.cls-9{fill:#231f20;}.cls-10{letter-spacing:0.01em;}.cls-11{letter-spacing:-0.07em;}.cls-12{letter-spacing:-0.01em;}.cls-13{letter-spacing:-0.01em;}.cls-14{letter-spacing:0em;}.cls-15{letter-spacing:-0.01em;}.cls-16{letter-spacing:0.02em;}.cls-17{letter-spacing:0.03em;}.cls-18{letter-spacing:0em;}.cls-19{letter-spacing:-0.01em;}.cls-21{stroke-dasharray:12.13 12.13;}</style></defs><title>Transport map</title><line class="cls-1" x1="1076.23" y1="260.17" x2="1225.56" y2="260.17"/><line class="cls-1" x1="944.29" y1="502.5" x2="1076.23" y2="502.5"/><line class="cls-1" x1="1076.23" y1="502.5" x2="1076.23" y2="992.5"/><line class="cls-1" x1="1076.23" y1="7.33" x2="1076.23" y2="13.33"/><line class="cls-2" x1="1076.23" y1="25.58" x2="1076.23" y2="485.2"/><line class="cls-1" x1="1076.23" y1="491.33" x2="1076.23" y2="497.33"/><line class="cls-1" x1="123.23" y1="399.42" x2="123.23" y2="494.91"/><line class="cls-1" x1="664.9" y1="502.5" x2="953.56" y2="502.5"/><circle class="cls-3" cx="1076.23" cy="502.5" r="17.33"/><circle class="cls-3" cx="664.9" cy="502.5" r="17.33"/><circle class="cls-3" cx="944.29" cy="502.5" r="17.33"/><circle class="cls-3" cx="1076.23" cy="17.83" r="17.33"/><circle class="cls-3" cx="1076.23" cy="260.17" r="17.33"/><circle class="cls-3" cx="123.23" cy="401" r="17.33"/><circle class="cls-3" cx="1219.9" cy="260.17" r="17.33"/><circle class="cls-3" cx="1076.23" cy="744.83" r="17.33"/><line class="cls-1" x1="123.23" y1="500.09" x2="123.23" y2="990.09"/><circle class="cls-3" cx="123.23" cy="742.42" r="17.33"/><rect class="cls-4" x="1111.56" y="0.5" width="114" height="22.67" rx="11.33"/><text class="cls-5" transform="translate(1127.9 17.28)"><tspan class="cls-6">T</tspan><tspan class="cls-7" x="8.14" y="0">r</tspan><tspan x="13.84" y="0">omsø</tspan></text><rect class="cls-4" x="1256.23" y="248.33" width="114" height="22.67" rx="11.33"/><text class="cls-5" transform="translate(1272.56 265.11)"><tspan class="cls-8">S</tspan><tspan class="cls-7" x="8.73" y="0">w</tspan><tspan x="21.8" y="0">eden</tspan></text><text class="cls-9" transform="translate(1272.56 295.11)"><tspan class="cls-10">K</tspan><tspan x="9.94" y="0">iruna</tspan></text><text class="cls-9" transform="translate(163.56 970.61)"><tspan class="cls-11">T</tspan><tspan x="7.67" y="0">od</tspan><tspan class="cls-8" x="27.7" y="0">a</tspan><tspan x="36.23" y="0">y</tspan></text><text class="cls-9" transform="translate(1111.56 970.61)"><tspan class="cls-12">T</tspan><tspan x="8.82" y="0">he Hub</tspan></text><text class="cls-9" transform="translate(1272.56 317.11)"><tspan class="cls-13">L</tspan><tspan x="8.23" y="0">uleå</tspan></text><text class="cls-9" transform="translate(1272.56 338.44)"><tspan class="cls-14">S</tspan><tspan class="cls-15" x="8.82" y="0">t</tspan><tspan x="14.67" y="0">oc</tspan><tspan class="cls-16" x="32.62" y="0">k</tspan><tspan x="41.36" y="0">holm</tspan></text><rect class="cls-4" x="922.9" y="248.33" width="114" height="22.67" rx="11.33"/><text class="cls-5" transform="translate(939.23 265.11)">Na<tspan class="cls-17" x="20.52" y="0">r</tspan><tspan x="26.86" y="0">vik</tspan></text><rect class="cls-4" x="1111.56" y="492.37" width="114" height="22.67" rx="11.33"/><text class="cls-5" transform="translate(1127.9 509.15)"><tspan class="cls-6">F</tspan><tspan x="7.96" y="0">auske</tspan></text><rect class="cls-4" x="163.56" y="388.09" width="114" height="22.67" rx="11.33"/><text class="cls-5" transform="translate(179.9 404.87)"><tspan class="cls-18">B</tspan><tspan x="9.83" y="0">odø</tspan></text><rect class="cls-4" x="794.95" y="490.37" width="114" height="22.67" rx="11.33"/><text class="cls-5" transform="translate(811.29 507.15)"><tspan class="cls-18">B</tspan><tspan x="9.83" y="0">odø</tspan></text><rect class="cls-4" x="509.42" y="492.37" width="114" height="22.67" rx="11.33"/><text class="cls-5" transform="translate(525.76 509.15)"><tspan class="cls-18">R</tspan><tspan x="9.76" y="0">ot</tspan><tspan class="cls-15" x="25.6" y="0">t</tspan><tspan x="31.45" y="0">e</tspan><tspan class="cls-19" x="40.46" y="0">r</tspan><tspan x="46.17" y="0">dam</tspan></text><rect class="cls-4" x="590.56" y="223.5" width="114" height="22.67" rx="11.33"/><text class="cls-5" transform="translate(606.9 240.28)">China</text><text class="cls-9" transform="translate(994.73 487.82)">40 min</text><text class="cls-9" transform="translate(1006.9 381.53)">1-2 t</text><text class="cls-9" transform="translate(994.73 662.12)">8-9 t</text><text class="cls-9" transform="translate(1010.26 143.03)">1,5 t</text><rect class="cls-4" x="1111.56" y="734.12" width="114" height="22.67" rx="11.33"/><text class="cls-5" transform="translate(1127.9 750.9)"><tspan class="cls-6">T</tspan><tspan class="cls-7" x="8.14" y="0">r</tspan><tspan x="13.84" y="0">ondheim</tspan></text><path class="cls-20" d="M1046.26,541.8h-58v-58h58ZM993.37,521l0,.47c2.18.33,4.36.79,6.55,1a22.35,22.35,0,0,0,6.64-.08c3.7-.87,7.28-2.27,10.9-3.48q12.07-4,24.16-8.05a7.59,7.59,0,0,0,4.06-3.19c.69-1.05.51-2-.68-2.21a10.78,10.78,0,0,0-4.88-.17c-5.27,1.53-10.43,3.4-15.66,5.06a3.53,3.53,0,0,1-2.18-.07c-5.84-2.26-11.66-4.58-17.46-6.91a1.25,1.25,0,0,0-1.68.38c-.4.48-.85.92-1.3,1.4l8.3,10Zm-4.89-5.54c1.17,1.36,2.36,2.75,3.59,4.11a1.06,1.06,0,0,0,.86.35c1.74-.54,3.45-1.15,5.17-1.73-2.22-1.39-4.49-2.37-6.64-3.56C990.12,513.89,989.27,514.17,988.48,515.46Z" transform="translate(-77.77 -65.04)"/><path d="M993.37,521l16.79-5.87-8.3-10c.45-.48.9-.92,1.3-1.4a1.25,1.25,0,0,1,1.68-.38c5.8,2.33,11.62,4.65,17.46,6.91a3.53,3.53,0,0,0,2.18.07c5.23-1.66,10.39-3.53,15.66-5.06a10.78,10.78,0,0,1,4.88.17c1.19.23,1.37,1.16.68,2.21a7.59,7.59,0,0,1-4.06,3.19q-12.09,4-24.16,8.05c-3.62,1.21-7.2,2.61-10.9,3.48a22.35,22.35,0,0,1-6.64.08c-2.19-.17-4.37-.63-6.55-1Z" transform="translate(-77.77 -65.04)"/><path d="M988.48,515.46c.79-1.29,1.64-1.57,3-.83,2.15,1.19,4.42,2.17,6.64,3.56-1.72.58-3.43,1.19-5.17,1.73a1.06,1.06,0,0,1-.86-.35C990.84,518.21,989.65,516.82,988.48,515.46Z" transform="translate(-77.77 -65.04)"/><path class="cls-20" d="M431.42,488.59h-58v-58h58Zm-52.88-20.8v.47c2.19.33,4.36.8,6.56,1a22.35,22.35,0,0,0,6.64-.08c3.7-.87,7.27-2.27,10.89-3.47l24.16-8.06a7.6,7.6,0,0,0,4.07-3.19c.68-1.05.51-2-.68-2.21a10.79,10.79,0,0,0-4.88-.17c-5.27,1.53-10.44,3.4-15.67,5.07a3.53,3.53,0,0,1-2.18-.08c-5.84-2.25-11.65-4.57-17.46-6.91a1.26,1.26,0,0,0-1.68.38c-.39.49-.85.92-1.29,1.4l8.3,10Zm-4.9-5.54c1.18,1.36,2.37,2.76,3.59,4.11a1.08,1.08,0,0,0,.87.35c1.73-.54,3.45-1.14,5.17-1.73-2.22-1.39-4.49-2.37-6.64-3.55C375.29,460.68,374.44,461,373.64,462.25Z" transform="translate(-77.77 -65.04)"/><path d="M378.54,467.79l16.79-5.87-8.3-10c.44-.48.9-.91,1.29-1.4a1.26,1.26,0,0,1,1.68-.38c5.81,2.34,11.62,4.66,17.46,6.91a3.53,3.53,0,0,0,2.18.08c5.23-1.67,10.4-3.54,15.67-5.07a10.79,10.79,0,0,1,4.88.17c1.19.24,1.36,1.16.68,2.21a7.6,7.6,0,0,1-4.07,3.19l-24.16,8.06c-3.62,1.2-7.19,2.6-10.89,3.47a22.35,22.35,0,0,1-6.64.08c-2.2-.16-4.37-.63-6.56-1Z" transform="translate(-77.77 -65.04)"/><path d="M373.64,462.25c.8-1.29,1.65-1.57,3-.82,2.15,1.18,4.42,2.16,6.64,3.55-1.72.59-3.44,1.19-5.17,1.73a1.08,1.08,0,0,1-.87-.35C376,465,374.82,463.61,373.64,462.25Z" transform="translate(-77.77 -65.04)"/><path class="cls-20" d="M989.56,623.9V600.63h10.19c0,.12,0,.24,0,.36,0,1.61,0,3.21,0,4.81,0,.26,0,.39-.33.43a14,14,0,0,0-1.42.35.53.53,0,0,0-.34.33,6.92,6.92,0,0,0,0,1h5.65l-.08-1.32c-.57-.13-1.11-.28-1.66-.37-.24,0-.28-.15-.29-.37,0-1.6,0-3.2,0-4.81,0-.11,0-.22,0-.33l-1.11-.1h49.67v21.42l-.28,0h-9.39a.55.55,0,0,0-.47.21c-.39.45-.8.88-1.18,1.33a.66.66,0,0,1-.55.24h-21.3l-22.55,0Zm19-7.57H992.34v6.44h16.19ZM997.62,609v6h5.61v-6Zm25.14,13.86v-5.16H1017c-.24,0-.26.11-.26.3v4.6c0,.09,0,.18,0,.28Zm14.25-5.16h-5.73c-.23,0-.26.1-.26.3v4.63a2.29,2.29,0,0,0,0,.25h6Zm-14.25-.73v-5.14h-6V617Zm8.29-5.14V617h6v-5.13Zm-15.47,5.87H1010c-.24,0-.27.1-.27.3,0,1.53,0,3.07,0,4.6,0,.09,0,.18,0,.28h5.84Zm8.4,0v5.16h5.84v-5.16Zm-8.39-5.86h-5.85V617h5.85Zm8.39,0V617h5.84v-5.13Z" transform="translate(-77.77 -65.04)"/><path d="M989.56,623.9H994l22.55,0h21.3a.66.66,0,0,0,.55-.24c.38-.45.79-.88,1.18-1.33a.55.55,0,0,1,.47-.21h9.39l.28,0v.07s-.09.1-.13.16q-4.85,8.15-9.7,16.29H995.15c0-.06,0-.12,0-.17Q993,633,991,627.67c-.47-1.21-.93-2.43-1.39-3.65Zm47.65,4.94a1.21,1.21,0,0,0-1.25-1.2,1.22,1.22,0,0,0,.06,2.44A1.26,1.26,0,0,0,1037.21,628.84Zm-6,0a1.3,1.3,0,0,0-1.31-1.2,1.26,1.26,0,0,0-1.16,1.24,1.37,1.37,0,0,0,1.26,1.21A1.38,1.38,0,0,0,1031.26,628.84Z" transform="translate(-77.77 -65.04)"/><path class="cls-20" d="M1039.9,638.57q4.86-8.15,9.7-16.29c0-.06.09-.11.13-.16v16.45Z" transform="translate(-77.77 -65.04)"/><path class="cls-20" d="M989.56,624c.46,1.22.92,2.44,1.39,3.65Q993,633,995.1,638.4c0,.05,0,.11,0,.17h-5.59Z" transform="translate(-77.77 -65.04)"/><path d="M1000.06,600.63l1.11.1c0,.11,0,.22,0,.33,0,1.61,0,3.21,0,4.81,0,.22,0,.32.29.37.55.09,1.09.24,1.66.37l.08,1.32h-5.65a6.92,6.92,0,0,1,0-1,.53.53,0,0,1,.34-.33,14,14,0,0,1,1.42-.35c.29,0,.33-.17.33-.43,0-1.6,0-3.2,0-4.81,0-.12,0-.24,0-.36Z" transform="translate(-77.77 -65.04)"/><path d="M1008.53,616.33v6.44H992.34v-6.44Z" transform="translate(-77.77 -65.04)"/><path d="M997.62,609h5.61v6h-5.61Z" transform="translate(-77.77 -65.04)"/><path d="M1022.76,622.89h-6c0-.1,0-.19,0-.28V618c0-.19,0-.3.26-.3h5.72Z" transform="translate(-77.77 -65.04)"/><path d="M1037,617.73v5.16h-6a2.29,2.29,0,0,1,0-.25V618c0-.2,0-.3.26-.3H1037Z" transform="translate(-77.77 -65.04)"/><path d="M1022.76,617h-6v-5.14h6Z" transform="translate(-77.77 -65.04)"/><path d="M1031.05,611.86h6V617h-6Z" transform="translate(-77.77 -65.04)"/><path d="M1015.58,617.73v5.16h-5.84c0-.1,0-.19,0-.28,0-1.53,0-3.07,0-4.6,0-.2,0-.3.27-.3h5.6Z" transform="translate(-77.77 -65.04)"/><path d="M1024,617.73h5.84v5.16H1024Z" transform="translate(-77.77 -65.04)"/><path d="M1015.59,611.87V617h-5.85v-5.13Z" transform="translate(-77.77 -65.04)"/><path d="M1024,611.86h5.84V617H1024Z" transform="translate(-77.77 -65.04)"/><path class="cls-20" d="M1037.21,628.84a1.22,1.22,0,1,1-2.43,0,1.28,1.28,0,0,1,1.18-1.22A1.21,1.21,0,0,1,1037.21,628.84Z" transform="translate(-77.77 -65.04)"/><path class="cls-20" d="M1031.26,628.84a1.38,1.38,0,0,1-1.21,1.25,1.37,1.37,0,0,1-1.26-1.21,1.26,1.26,0,0,1,1.16-1.24A1.3,1.3,0,0,1,1031.26,628.84Z" transform="translate(-77.77 -65.04)"/><path class="cls-20" d="M1279.77,541.64H1213.1V475h66.67Zm-45.93-28.19h38.5v-17h-38.5Zm-11.21,3.81c.46-2.14,1.59-3.25,3.33-3.3a3.19,3.19,0,0,1,2,.62,3.48,3.48,0,0,1,1.46,2.93h1.95c.21.89.57,1.26,1.31,1.27,1.65,0,3.3,0,5,0a1,1,0,0,0,1.1-.71c.13-.66.53-.6,1-.58a3.2,3.2,0,0,1,.62,0,2.44,2.44,0,0,1,.52.29c.28.17.55.49.84.49,1.84.05,3.68,0,5.52,0a1,1,0,0,0,.73-.37.79.79,0,0,1,.88-.44c.85,0,1.7,0,2.55,0a3.58,3.58,0,0,0,.45,0A3.54,3.54,0,0,1,1254,514h-20.82c-.91,0-.79.11-.79-.82,0-4.51,0-9,0-13.54v-.59a5.39,5.39,0,0,0-3.15.42c-2,.73-3.91,1.63-6.11,1.33h-.1a2.44,2.44,0,0,0-2.11,1.62c-.13.34-.2.69-.3,1l-.49.09v.77l.89.06c0,1,0,2,0,2.93a.53.53,0,0,1-.2.32,1.87,1.87,0,0,0-.72,1.54q0,3.62,0,7.24v.51Zm40.9-2.81a2.88,2.88,0,0,0-2.89,2.91,2.89,2.89,0,1,0,2.89-2.91Zm-11.29,2.82a2.88,2.88,0,1,0,3-2.82A2.83,2.83,0,0,0,1252.24,517.27Zm-29,.06a2.78,2.78,0,0,0,2.87,2.79,2.84,2.84,0,1,0,0-5.67A2.82,2.82,0,0,0,1223.19,517.33Zm49.55-3.35h-8.32a3.48,3.48,0,0,1,2.48,3.44h5.84Zm-10.15.08h-6.49a3.44,3.44,0,0,1,2.37,3.38h1.75A3.43,3.43,0,0,1,1262.59,514.06Z" transform="translate(-77.77 -65.04)"/><path d="M1233.84,513.45v-17h38.5v17Z" transform="translate(-77.77 -65.04)"/><path d="M1222.63,517.26l-2.52-.32v-.51q0-3.63,0-7.24a1.87,1.87,0,0,1,.72-1.54.53.53,0,0,0,.2-.32c0-1,0-1.93,0-2.93l-.89-.06v-.77l.49-.09c.1-.34.17-.69.3-1a2.44,2.44,0,0,1,2.11-1.62h.1c2.2.3,4.14-.6,6.11-1.33a5.39,5.39,0,0,1,3.15-.42v.59c0,4.52,0,9,0,13.54,0,.93-.12.82.79.82H1254a3.54,3.54,0,0,0-2.19,3.43,3.58,3.58,0,0,1-.45,0c-.85,0-1.7,0-2.55,0a.79.79,0,0,0-.88.44,1,1,0,0,1-.73.37c-1.84,0-3.68,0-5.52,0-.29,0-.56-.32-.84-.49a2.44,2.44,0,0,0-.52-.29,3.2,3.2,0,0,0-.62,0c-.45,0-.85-.08-1,.58a1,1,0,0,1-1.1.71c-1.65,0-3.3,0-5,0-.74,0-1.1-.38-1.31-1.27h-1.95a3.48,3.48,0,0,0-1.46-2.93,3.19,3.19,0,0,0-2-.62C1224.22,514,1223.09,515.12,1222.63,517.26Zm-.25-9.4H1228v-3.07h-5.65Z" transform="translate(-77.77 -65.04)"/><path d="M1263.53,514.45a2.87,2.87,0,1,1-2.89,2.91A2.89,2.89,0,0,1,1263.53,514.45Z" transform="translate(-77.77 -65.04)"/><path d="M1252.24,517.27a2.83,2.83,0,0,1,3-2.82,2.87,2.87,0,1,1-3,2.82Z" transform="translate(-77.77 -65.04)"/><path d="M1223.19,517.33a2.87,2.87,0,0,1,5.74-.08,2.86,2.86,0,0,1-2.87,2.87A2.78,2.78,0,0,1,1223.19,517.33Z" transform="translate(-77.77 -65.04)"/><path d="M1272.74,514v3.44h-5.84a3.48,3.48,0,0,0-2.48-3.44Z" transform="translate(-77.77 -65.04)"/><path d="M1262.59,514.06a3.43,3.43,0,0,0-2.37,3.38h-1.75a3.44,3.44,0,0,0-2.37-3.38Z" transform="translate(-77.77 -65.04)"/><path class="cls-20" d="M1222.38,507.86v-3.07H1228v3.07Z" transform="translate(-77.77 -65.04)"/><rect class="cls-4" x="163.56" y="489.96" width="114" height="22.67" rx="11.33"/><text class="cls-5" transform="translate(179.9 506.74)"><tspan class="cls-6">F</tspan><tspan x="7.96" y="0">auske</tspan></text><rect class="cls-4" x="163.56" y="731.71" width="114" height="22.67" rx="11.33"/><text class="cls-5" transform="translate(179.9 748.49)"><tspan class="cls-6">T</tspan><tspan class="cls-7" x="8.14" y="0">r</tspan><tspan x="13.84" y="0">ondheim</tspan></text><path class="cls-20" d="M144.44,545.64H77.77V479h66.67ZM98.5,517.45H137v-17H98.5Zm-11.2,3.81c.46-2.14,1.58-3.25,3.33-3.3a3.21,3.21,0,0,1,2,.62,3.48,3.48,0,0,1,1.46,2.93h2c.2.89.57,1.26,1.31,1.27,1.65,0,3.3,0,5,0a1,1,0,0,0,1.1-.71c.12-.66.52-.6,1-.58a3.3,3.3,0,0,1,.63,0,2.38,2.38,0,0,1,.51.29c.28.17.56.49.84.49,1.84.05,3.68,0,5.52,0a1,1,0,0,0,.74-.37.79.79,0,0,1,.87-.44c.85,0,1.7,0,2.55,0a3.73,3.73,0,0,0,.46,0,3.54,3.54,0,0,1,2.19-3.43H97.85c-.9,0-.79.11-.79-.82V503.07a5.37,5.37,0,0,0-3.14.42c-2,.73-3.91,1.63-6.11,1.33h-.1a2.44,2.44,0,0,0-2.11,1.62,10,10,0,0,0-.3,1l-.5.09v.77l.89.06c0,1,0,2,0,2.93a.49.49,0,0,1-.2.32,1.86,1.86,0,0,0-.71,1.54c0,2.41,0,4.82,0,7.24v.51Zm40.9-2.81a2.86,2.86,0,0,0-2.89,2.91,2.89,2.89,0,1,0,2.89-2.91Zm-11.29,2.82a2.88,2.88,0,1,0,3-2.82A2.82,2.82,0,0,0,116.91,521.27Zm-29.06.06a2.78,2.78,0,0,0,2.87,2.79,2.84,2.84,0,1,0-2.87-2.79ZM137.41,518h-8.33a3.48,3.48,0,0,1,2.49,3.44h5.84Zm-10.15.08h-6.49a3.44,3.44,0,0,1,2.37,3.38h1.74A3.45,3.45,0,0,1,127.26,518.06Z" transform="translate(-77.77 -65.04)"/><path d="M98.5,517.45v-17H137v17Z" transform="translate(-77.77 -65.04)"/><path d="M87.3,521.26l-2.53-.32v-.51c0-2.42,0-4.83,0-7.24a1.86,1.86,0,0,1,.71-1.54.49.49,0,0,0,.2-.32c0-1,0-1.93,0-2.93l-.89-.06v-.77l.5-.09a10,10,0,0,1,.3-1,2.44,2.44,0,0,1,2.11-1.62h.1c2.2.3,4.14-.6,6.11-1.33a5.37,5.37,0,0,1,3.14-.42V517.2c0,.93-.11.82.79.82h20.83a3.54,3.54,0,0,0-2.19,3.43,3.73,3.73,0,0,1-.46,0c-.85,0-1.7,0-2.55,0a.79.79,0,0,0-.87.44,1,1,0,0,1-.74.37c-1.84,0-3.68,0-5.52,0-.28,0-.56-.32-.84-.49a2.38,2.38,0,0,0-.51-.29,3.3,3.3,0,0,0-.63,0c-.45,0-.85-.08-1,.58a1,1,0,0,1-1.1.71c-1.65,0-3.3,0-5,0-.74,0-1.11-.38-1.31-1.27h-2a3.48,3.48,0,0,0-1.46-2.93,3.21,3.21,0,0,0-2-.62C88.88,518,87.76,519.12,87.3,521.26Zm-.26-9.4H92.7v-3.07H87Z" transform="translate(-77.77 -65.04)"/><path d="M128.2,518.45a2.87,2.87,0,1,1-2.89,2.91A2.89,2.89,0,0,1,128.2,518.45Z" transform="translate(-77.77 -65.04)"/><path d="M116.91,521.27a2.82,2.82,0,0,1,3-2.82,2.87,2.87,0,1,1-3,2.82Z" transform="translate(-77.77 -65.04)"/><path d="M87.85,521.33a2.88,2.88,0,1,1,2.87,2.79A2.78,2.78,0,0,1,87.85,521.33Z" transform="translate(-77.77 -65.04)"/><path d="M137.41,518v3.44h-5.84a3.48,3.48,0,0,0-2.49-3.44Z" transform="translate(-77.77 -65.04)"/><path d="M127.26,518.06a3.45,3.45,0,0,0-2.38,3.38h-1.74a3.44,3.44,0,0,0-2.37-3.38Z" transform="translate(-77.77 -65.04)"/><path class="cls-20" d="M87,511.86v-3.07H92.7v3.07Z" transform="translate(-77.77 -65.04)"/><path class="cls-20" d="M1247,612.21h35.19v41.31h-71.48V612.21h33a2.05,2.05,0,0,1-.34.07c-.9.11-1.8.17-2.67.34a12.57,12.57,0,0,0-6.69,3.48,5.54,5.54,0,0,0-1.79,4.31c.1,2.59,0,5.19,0,7.79,0,2.9,0,5.79,0,8.69a4.78,4.78,0,0,0,3.27,4.63l.19.09-5.15,7.46c1.67,0,3.26,0,4.85,0a.44.44,0,0,0,.3-.22c.28-.59.55-1.18.79-1.77a.52.52,0,0,1,.58-.39c1.28,0,2.57,0,3.85,0h13.54a.45.45,0,0,1,.5.33c.24.59.51,1.16.75,1.74a.46.46,0,0,0,.49.34c1.46,0,2.92,0,4.37,0l.33,0-5.18-7.45.24-.08a4.89,4.89,0,0,0,3.29-4.72c0-5.59,0-11.17,0-16.76a5,5,0,0,0-1.91-4.08,15.46,15.46,0,0,0-8.15-3.5Z" transform="translate(-77.77 -65.04)"/><path d="M1247,612.21l2.16.24a15.46,15.46,0,0,1,8.15,3.5,5,5,0,0,1,1.91,4.08c0,5.59,0,11.17,0,16.76a4.89,4.89,0,0,1-3.29,4.72l-.24.08,5.18,7.45-.33,0c-1.45,0-2.91,0-4.37,0a.46.46,0,0,1-.49-.34c-.24-.58-.51-1.15-.75-1.74a.45.45,0,0,0-.5-.33h-13.54c-1.28,0-2.57,0-3.85,0a.52.52,0,0,0-.58.39c-.24.59-.51,1.18-.79,1.77a.44.44,0,0,1-.3.22c-1.59,0-3.18,0-4.85,0l5.15-7.46-.19-.09a4.78,4.78,0,0,1-3.27-4.63c0-2.9,0-5.79,0-8.69,0-2.6.08-5.2,0-7.79a5.54,5.54,0,0,1,1.79-4.31,12.57,12.57,0,0,1,6.69-3.48c.87-.17,1.77-.23,2.67-.34a2.05,2.05,0,0,0,.34-.07Zm9.7,14.83V619.7h-22.06V627Zm-3.09,17.18c-.33-.74-.65-1.43-.94-2.13a.44.44,0,0,0-.49-.33c-1.66,0-3.31,0-5,0h-8c-.14,0-.37,0-.41.12-.37.75-.72,1.52-1.09,2.32Zm-7.89-27h3.65a1.17,1.17,0,0,0,1.3-1.21,1.2,1.2,0,0,0-1.29-1.25h-7.3a1.19,1.19,0,0,0-1.28,1.25,1.18,1.18,0,0,0,1.27,1.22Zm9.81,22.57a1.69,1.69,0,0,0,1.73-1.72,1.76,1.76,0,1,0-1.73,1.72Zm-19.68,0a1.74,1.74,0,0,0,1.77-1.7,1.77,1.77,0,0,0-1.75-1.78,1.73,1.73,0,0,0-1.75,1.72A1.69,1.69,0,0,0,1235.82,639.8Z" transform="translate(-77.77 -65.04)"/><path class="cls-20" d="M1256.67,627h-22.06V619.7h22.06Z" transform="translate(-77.77 -65.04)"/><path class="cls-20" d="M1253.58,644.22h-15.87c.37-.8.72-1.57,1.09-2.32,0-.09.27-.12.41-.12h8c1.65,0,3.3,0,5,0a.44.44,0,0,1,.49.33C1252.93,642.79,1253.25,643.48,1253.58,644.22Z" transform="translate(-77.77 -65.04)"/><path class="cls-20" d="M1245.69,617.23H1242a1.18,1.18,0,0,1-1.27-1.22,1.19,1.19,0,0,1,1.28-1.25h7.3a1.2,1.2,0,0,1,1.29,1.25,1.17,1.17,0,0,1-1.3,1.21Z" transform="translate(-77.77 -65.04)"/><path class="cls-20" d="M1255.5,639.8a1.74,1.74,0,1,1,1.73-1.72A1.69,1.69,0,0,1,1255.5,639.8Z" transform="translate(-77.77 -65.04)"/><path class="cls-20" d="M1235.82,639.8a1.69,1.69,0,0,1-1.73-1.76,1.73,1.73,0,0,1,1.75-1.72,1.77,1.77,0,0,1,1.75,1.78A1.74,1.74,0,0,1,1235.82,639.8Z" transform="translate(-77.77 -65.04)"/><path class="cls-20" d="M277.72,661h35.19v41.31H241.43V661h32.95a2.05,2.05,0,0,1-.34.07c-.9.11-1.8.17-2.67.34a12.57,12.57,0,0,0-6.69,3.48,5.54,5.54,0,0,0-1.79,4.31c.1,2.59,0,5.19,0,7.79,0,2.89,0,5.79,0,8.69a4.78,4.78,0,0,0,3.27,4.63l.19.09-5.15,7.46c1.67,0,3.26,0,4.85,0a.44.44,0,0,0,.3-.22c.28-.59.55-1.18.79-1.77a.52.52,0,0,1,.58-.39c1.28,0,2.57,0,3.85,0h13.54a.45.45,0,0,1,.5.33c.24.59.51,1.16.75,1.74a.44.44,0,0,0,.49.33h4.37l.33,0-5.18-7.45.24-.08a4.89,4.89,0,0,0,3.29-4.72c0-5.59,0-11.17,0-16.76a5,5,0,0,0-1.91-4.08,15.46,15.46,0,0,0-8.15-3.5Z" transform="translate(-77.77 -65.04)"/><path d="M277.72,661l2.16.24a15.46,15.46,0,0,1,8.15,3.5,5,5,0,0,1,1.91,4.08c0,5.59,0,11.17,0,16.76a4.89,4.89,0,0,1-3.29,4.72l-.24.08,5.18,7.45-.33,0h-4.37a.44.44,0,0,1-.49-.33c-.24-.58-.51-1.15-.75-1.74a.45.45,0,0,0-.5-.33H271.6c-1.28,0-2.57,0-3.85,0a.52.52,0,0,0-.58.39c-.24.59-.51,1.18-.79,1.77a.44.44,0,0,1-.3.22c-1.59,0-3.18,0-4.85,0l5.15-7.46-.19-.09a4.78,4.78,0,0,1-3.27-4.63c0-2.9,0-5.8,0-8.69,0-2.6.08-5.2,0-7.79a5.54,5.54,0,0,1,1.79-4.31,12.57,12.57,0,0,1,6.69-3.48c.87-.17,1.77-.23,2.67-.34a2.05,2.05,0,0,0,.34-.07Zm9.7,14.83v-7.34H265.36v7.34ZM284.33,693c-.33-.74-.65-1.43-.94-2.13a.44.44,0,0,0-.49-.33c-1.66,0-3.31,0-5,0h-8c-.14,0-.37,0-.41.12-.37.75-.72,1.52-1.09,2.32Zm-7.89-27h3.65a1.17,1.17,0,0,0,1.3-1.21,1.2,1.2,0,0,0-1.29-1.25h-7.3a1.19,1.19,0,0,0-1.28,1.25,1.18,1.18,0,0,0,1.27,1.22Zm9.81,22.57a1.69,1.69,0,0,0,1.73-1.72,1.76,1.76,0,1,0-1.73,1.72Zm-19.68,0a1.74,1.74,0,0,0,1.77-1.7,1.77,1.77,0,0,0-1.75-1.78,1.73,1.73,0,0,0-1.75,1.72A1.69,1.69,0,0,0,266.57,688.54Z" transform="translate(-77.77 -65.04)"/><path class="cls-20" d="M287.42,675.78H265.36v-7.34h22.06Z" transform="translate(-77.77 -65.04)"/><path class="cls-20" d="M284.33,693H268.46c.37-.8.72-1.57,1.09-2.32,0-.09.27-.12.41-.12h8c1.65,0,3.3,0,5,0a.44.44,0,0,1,.49.33C283.68,691.53,284,692.22,284.33,693Z" transform="translate(-77.77 -65.04)"/><path class="cls-20" d="M276.44,666h-3.65a1.18,1.18,0,0,1-1.27-1.22,1.19,1.19,0,0,1,1.28-1.25h7.3a1.2,1.2,0,0,1,1.29,1.25,1.17,1.17,0,0,1-1.3,1.21Z" transform="translate(-77.77 -65.04)"/><path class="cls-20" d="M286.25,688.54a1.74,1.74,0,1,1,1.73-1.72A1.69,1.69,0,0,1,286.25,688.54Z" transform="translate(-77.77 -65.04)"/><path class="cls-20" d="M266.57,688.54a1.69,1.69,0,0,1-1.73-1.76,1.73,1.73,0,0,1,1.75-1.72,1.77,1.77,0,0,1,1.75,1.78A1.74,1.74,0,0,1,266.57,688.54Z" transform="translate(-77.77 -65.04)"/><line class="cls-1" x1="737.23" y1="502.5" x2="737.23" y2="496.5"/><line class="cls-21" x1="737.23" y1="484.37" x2="737.23" y2="247.9"/><line class="cls-1" x1="737.23" y1="241.83" x2="737.23" y2="235.83"/><circle class="cls-3" cx="737.23" cy="235.83" r="17.33"/><path class="cls-20" d="M1351,544.78h22.29v45.75h-45.75V544.78h22.21a1.76,1.76,0,0,1-.2.09,3.78,3.78,0,0,0-.45,7.27.41.41,0,0,1,.32.49v7.09c0,.13,0,.25,0,.38a7.75,7.75,0,0,0-5,2.91l-.34-.16c-2-1.15-4-2.31-6-3.42a.75.75,0,0,1-.44-.9,3.77,3.77,0,0,0-4.63-4.06,3.66,3.66,0,0,0-2.84,3.08,3.8,3.8,0,0,0,6.12,3.48.53.53,0,0,1,.73-.06c2,1.16,4,2.29,5.93,3.44l.42.26a7.8,7.8,0,0,0,0,5.89l-.41.25c-2,1.14-3.94,2.27-5.89,3.42a.59.59,0,0,1-.81-.06,3.73,3.73,0,0,0-4.33-.29,3.8,3.8,0,1,0,5.71,2.66.54.54,0,0,1,.31-.66c2-1.14,4-2.3,6-3.45l.43-.22-.06.12a21.31,21.31,0,0,0,2.35,1.81,19.57,19.57,0,0,0,2.79,1.13s0,0,0,.07c0,2.44,0,4.88,0,7.31,0,.3-.16.36-.38.45a3.8,3.8,0,0,0-2.48,3.53,3.8,3.8,0,0,0,7.48,1,3.77,3.77,0,0,0-2.34-4.47.52.52,0,0,1-.4-.57c0-2.33,0-4.67,0-7,0-.14,0-.28,0-.42a7.8,7.8,0,0,0,5-2.9l.16,0c2.13,1.23,4.27,2.46,6.4,3.71a.56.56,0,0,1,.18.41c0,.44-.06.89,0,1.33a3.71,3.71,0,0,0,3.21,3.17,3.79,3.79,0,0,0,2.78-6.8,3.73,3.73,0,0,0-4.66.12.5.5,0,0,1-.69,0c-2-1.18-4-2.34-6-3.5l-.32-.22a7.74,7.74,0,0,0,0-5.85,1.31,1.31,0,0,1,.16-.13c2.11-1.22,4.22-2.43,6.32-3.66.27-.16.39,0,.57.12a3.81,3.81,0,1,0-1.32-2.37.57.57,0,0,1-.33.7c-1.06.58-2.09,1.2-3.13,1.8l-3.26,1.88a7.8,7.8,0,0,0-5.09-2.94v-.55c0-2.26,0-4.52,0-6.78a.6.6,0,0,1,.45-.68,3.75,3.75,0,0,0,2.42-3.61,3.83,3.83,0,0,0-2.64-3.51Z" transform="translate(-77.77 -65.04)"/><path d="M1351,544.78l.54.18a3.83,3.83,0,0,1,2.64,3.51,3.75,3.75,0,0,1-2.42,3.61.6.6,0,0,0-.45.68c0,2.26,0,4.52,0,6.78v.55a7.8,7.8,0,0,1,5.09,2.94l3.26-1.88c1-.6,2.07-1.22,3.13-1.8a.57.57,0,0,0,.33-.7,3.77,3.77,0,1,1,1.32,2.37c-.18-.15-.3-.28-.57-.12-2.1,1.23-4.21,2.44-6.32,3.66a1.31,1.31,0,0,0-.16.13,7.74,7.74,0,0,1,0,5.85l.32.22c2,1.16,4,2.32,6,3.5a.5.5,0,0,0,.69,0,3.73,3.73,0,0,1,4.66-.12,3.79,3.79,0,0,1-2.78,6.8,3.71,3.71,0,0,1-3.21-3.17c-.06-.44,0-.89,0-1.33a.56.56,0,0,0-.18-.41c-2.13-1.25-4.27-2.48-6.4-3.71l-.16,0a7.8,7.8,0,0,1-5,2.9c0,.14,0,.28,0,.42,0,2.33,0,4.67,0,7a.52.52,0,0,0,.4.57,3.77,3.77,0,0,1,2.34,4.47,3.8,3.8,0,1,1-5-4.48c.22-.09.38-.15.38-.45,0-2.43,0-4.87,0-7.31,0-.06,0-.11,0-.07a19.57,19.57,0,0,1-2.79-1.13,21.31,21.31,0,0,1-2.35-1.81l.06-.12-.43.22c-2,1.15-4,2.31-6,3.45a.54.54,0,0,0-.31.66,3.78,3.78,0,0,1-3.07,4.33,3.8,3.8,0,0,1-2.64-7,3.73,3.73,0,0,1,4.33.29.59.59,0,0,0,.81.06c2-1.15,3.93-2.28,5.89-3.42l.41-.25a7.8,7.8,0,0,1,0-5.89l-.42-.26c-2-1.15-4-2.28-5.93-3.44a.53.53,0,0,0-.73.06,3.8,3.8,0,0,1-6.12-3.48,3.66,3.66,0,0,1,2.84-3.08,3.77,3.77,0,0,1,4.63,4.06.75.75,0,0,0,.44.9c2,1.11,4,2.27,6,3.42l.34.16a7.75,7.75,0,0,1,5-2.91c0-.13,0-.25,0-.38v-7.09a.41.41,0,0,0-.32-.49,3.78,3.78,0,0,1,.45-7.27,1.76,1.76,0,0,0,.2-.09Zm-.65,28.55a5.72,5.72,0,1,0-5.7-5.7A5.73,5.73,0,0,0,1350.37,573.33ZM1333.92,579a2,2,0,0,0,1.93-2,1.89,1.89,0,0,0-1.79-1.86,1.93,1.93,0,1,0-.14,3.85Zm18.37-30.44a1.9,1.9,0,1,0-1.94,1.89A1.89,1.89,0,0,0,1352.29,548.6Zm0,38a1.9,1.9,0,1,0-1.88,1.92A1.9,1.9,0,0,0,1352.29,586.64ZM1367,556.18a1.8,1.8,0,0,0-2,1.87,1.91,1.91,0,1,0,3.81-.07A1.79,1.79,0,0,0,1367,556.18Zm-.2,19A1.8,1.8,0,0,0,1365,577a1.92,1.92,0,0,0,1.84,2,1.82,1.82,0,0,0,1.93-1.69A1.93,1.93,0,0,0,1366.77,575.2Zm-32.94-19a1.76,1.76,0,0,0-1.76,1.74,1.9,1.9,0,0,0,1.86,2,1.86,1.86,0,0,0,1.91-1.77A2,2,0,0,0,1333.83,556.18Z" transform="translate(-77.77 -65.04)"/><path class="cls-20" d="M1350.37,573.33a5.72,5.72,0,1,1,5.74-5.76A5.73,5.73,0,0,1,1350.37,573.33Z" transform="translate(-77.77 -65.04)"/><path class="cls-20" d="M1333.92,579a1.93,1.93,0,1,1,.14-3.85,1.89,1.89,0,0,1,1.79,1.86A2,2,0,0,1,1333.92,579Z" transform="translate(-77.77 -65.04)"/><path class="cls-20" d="M1352.29,548.6a1.9,1.9,0,1,1-1.91-1.93A1.89,1.89,0,0,1,1352.29,548.6Z" transform="translate(-77.77 -65.04)"/><path class="cls-20" d="M1352.29,586.64a1.9,1.9,0,1,1-1.87-1.92A1.92,1.92,0,0,1,1352.29,586.64Z" transform="translate(-77.77 -65.04)"/><path class="cls-20" d="M1367,556.18a1.79,1.79,0,0,1,1.81,1.8,1.91,1.91,0,1,1-3.81.07A1.8,1.8,0,0,1,1367,556.18Z" transform="translate(-77.77 -65.04)"/><path class="cls-20" d="M1366.77,575.2a1.93,1.93,0,0,1,2,2.06,1.82,1.82,0,0,1-1.93,1.69,1.92,1.92,0,0,1-1.84-2A1.8,1.8,0,0,1,1366.77,575.2Z" transform="translate(-77.77 -65.04)"/><path class="cls-20" d="M1333.83,556.18a2,2,0,0,1,2,2,1.86,1.86,0,0,1-1.91,1.77,1.9,1.9,0,0,1-1.86-2A1.76,1.76,0,0,1,1333.83,556.18Z" transform="translate(-77.77 -65.04)"/><path class="cls-20" d="M1213.1,741.46h-40.24V701.23h40.24Zm-8.31-32.06a6.76,6.76,0,0,0-.08-.72,5.28,5.28,0,0,0-3.64-4.37,5.17,5.17,0,0,0-5.63,1.21q-7.07,7-14,14a5.16,5.16,0,0,0-1.45,4.83,5.53,5.53,0,0,0,9.36,2.9q7-6.9,13.87-13.86A5.52,5.52,0,0,0,1204.79,709.4Zm6.23,10.2a5.26,5.26,0,0,0-3.38-4.77,5.15,5.15,0,0,0-5.92,1c-4.75,4.66-9.43,9.38-14.12,14.11a5.13,5.13,0,0,0-1.46,4.46,5.53,5.53,0,0,0,9.37,3.25c4.66-4.6,9.28-9.25,13.9-13.88A5.61,5.61,0,0,0,1211,719.6Zm-32,6.51c-.8.75-1.61,1.49-2.39,2.26a12.36,12.36,0,0,0-2.22,2.72,5.17,5.17,0,0,0-.68,3.58,5.28,5.28,0,0,0,3.5,4.26,5.21,5.21,0,0,0,5.47-.91,25.82,25.82,0,0,0,2.16-2.27.56.56,0,0,0,0-.39c-.05-.55-.16-1.09-.17-1.63a5.51,5.51,0,0,0-4.1-5.3c-.54-.14-1.11-.19-1.8-.3l.9-.74Z" transform="translate(-77.77 -65.04)"/><path d="M1204.79,709.4a5.52,5.52,0,0,1-1.6,4q-6.92,6.95-13.87,13.86a5.53,5.53,0,0,1-9.36-2.9,5.16,5.16,0,0,1,1.45-4.83q7-7,14-14a5.17,5.17,0,0,1,5.63-1.21,5.28,5.28,0,0,1,3.64,4.37A6.76,6.76,0,0,1,1204.79,709.4ZM1191,723.67a.92.92,0,0,0,.16-.13q5.58-5.56,11.14-11.15a3.88,3.88,0,0,0,1.13-3.14,3.92,3.92,0,0,0-2.65-3.59,3.88,3.88,0,0,0-4.38.9c-3.7,3.66-7.36,7.35-11,11l-.19.25A5.59,5.59,0,0,1,1191,723.67Zm-5.55-4.44a4.15,4.15,0,1,0,4.16,4.15A4.14,4.14,0,0,0,1185.4,719.23Z" transform="translate(-77.77 -65.04)"/><path d="M1211,719.6a5.61,5.61,0,0,1-1.61,4.22c-4.62,4.63-9.24,9.28-13.9,13.88a5.53,5.53,0,0,1-9.37-3.25,5.13,5.13,0,0,1,1.46-4.46c4.69-4.73,9.37-9.45,14.12-14.11a5.15,5.15,0,0,1,5.92-1A5.26,5.26,0,0,1,1211,719.6Zm-13.83,14.46.17-.14q5.54-5.53,11.08-11.09a4,4,0,0,0,1.2-2.81,4.15,4.15,0,0,0-7.09-3l-11,11-.2.25A5.65,5.65,0,0,1,1197.19,734.06Zm-1.41-.31a4.16,4.16,0,0,0-8.31,0,4.16,4.16,0,1,0,8.31,0Z" transform="translate(-77.77 -65.04)"/><path d="M1179,726.11l.71,1.28-.9.74c.69.11,1.26.16,1.8.3a5.51,5.51,0,0,1,4.1,5.3c0,.54.12,1.08.17,1.63a.56.56,0,0,1,0,.39,25.82,25.82,0,0,1-2.16,2.27,5.21,5.21,0,0,1-5.47.91,5.28,5.28,0,0,1-3.5-4.26,5.17,5.17,0,0,1,.68-3.58,12.36,12.36,0,0,1,2.22-2.72C1177.39,727.6,1178.2,726.86,1179,726.11Zm4.31,7.64a4.15,4.15,0,1,0-8.3,0,4.15,4.15,0,1,0,8.3,0Z" transform="translate(-77.77 -65.04)"/><path class="cls-20" d="M1191,723.67a5.59,5.59,0,0,0-5.83-5.83l.19-.25c3.68-3.68,7.34-7.37,11-11a3.88,3.88,0,0,1,4.38-.9,3.92,3.92,0,0,1,2.65,3.59,3.88,3.88,0,0,1-1.13,3.14q-5.55,5.6-11.14,11.15A.92.92,0,0,1,1191,723.67Zm.92-2.84,5-5,4.27-4.27a2.57,2.57,0,0,0,.76-2.59l-10.68,10.67Z" transform="translate(-77.77 -65.04)"/><path class="cls-20" d="M1185.4,719.23a4.15,4.15,0,1,1-4.15,4.08A4.15,4.15,0,0,1,1185.4,719.23Zm2.76,4.14a2.76,2.76,0,1,0-2.78,2.79A2.77,2.77,0,0,0,1188.16,723.37Z" transform="translate(-77.77 -65.04)"/><path class="cls-20" d="M1197.19,734.06a5.65,5.65,0,0,0-5.82-5.86l.2-.25,11-11a4.15,4.15,0,0,1,7.09,3,4,4,0,0,1-1.2,2.81q-5.54,5.56-11.08,11.09Zm11-14.79L1197.46,730l.64,1.22.25-.23,9-9a4,4,0,0,0,.38-.44A2.75,2.75,0,0,0,1208.17,719.27Z" transform="translate(-77.77 -65.04)"/><path class="cls-20" d="M1195.78,733.75a4.16,4.16,0,1,1-4.16-4.14A4.16,4.16,0,0,1,1195.78,733.75Zm-4.22,2.77a2.76,2.76,0,1,0-2.76-2.77A2.75,2.75,0,0,0,1191.56,736.52Z" transform="translate(-77.77 -65.04)"/><path class="cls-20" d="M1183.31,733.75a4.15,4.15,0,1,1-4.21-4.14A4.15,4.15,0,0,1,1183.31,733.75Zm-4,2.77a2.76,2.76,0,1,0-2.78-2.75A2.76,2.76,0,0,0,1179.26,736.52Z" transform="translate(-77.77 -65.04)"/><path d="M1191.87,720.83l-.63-1.21L1201.92,709a2.57,2.57,0,0,1-.76,2.59l-4.27,4.27Z" transform="translate(-77.77 -65.04)"/><path d="M1188.16,723.37a2.76,2.76,0,1,1-2.76-2.77A2.78,2.78,0,0,1,1188.16,723.37Zm-2.77,1.39a1.39,1.39,0,0,0,1.4-1.39,1.39,1.39,0,0,0-2.78,0A1.39,1.39,0,0,0,1185.39,724.76Z" transform="translate(-77.77 -65.04)"/><path d="M1208.17,719.27a2.75,2.75,0,0,1-.43,2.25,4,4,0,0,1-.38.44l-9,9-.25.23-.64-1.22Z" transform="translate(-77.77 -65.04)"/><path d="M1191.56,736.52a2.76,2.76,0,1,1,2.79-2.73A2.77,2.77,0,0,1,1191.56,736.52Zm1.39-2.75a1.38,1.38,0,0,0-1.37-1.4,1.4,1.4,0,0,0-1.39,1.4,1.36,1.36,0,0,0,1.36,1.37A1.35,1.35,0,0,0,1193,733.77Z" transform="translate(-77.77 -65.04)"/><path d="M1179.26,736.52a2.76,2.76,0,1,1,2.77-2.79A2.77,2.77,0,0,1,1179.26,736.52Zm1.37-2.78a1.38,1.38,0,0,0-1.37-1.37,1.39,1.39,0,0,0-1.39,1.39,1.37,1.37,0,0,0,1.39,1.38A1.35,1.35,0,0,0,1180.63,733.74Z" transform="translate(-77.77 -65.04)"/><path class="cls-20" d="M1185.39,724.76a1.38,1.38,0,1,1,0-2.76,1.37,1.37,0,0,1,1.37,1.37A1.39,1.39,0,0,1,1185.39,724.76Z" transform="translate(-77.77 -65.04)"/><path class="cls-20" d="M1193,733.77a1.35,1.35,0,0,1-1.4,1.37,1.36,1.36,0,0,1-1.36-1.37,1.4,1.4,0,0,1,1.39-1.4A1.38,1.38,0,0,1,1193,733.77Z" transform="translate(-77.77 -65.04)"/><path class="cls-20" d="M1180.63,733.74a1.35,1.35,0,0,1-1.37,1.4,1.37,1.37,0,0,1-1.39-1.38,1.39,1.39,0,0,1,1.39-1.39A1.38,1.38,0,0,1,1180.63,733.74Z" transform="translate(-77.77 -65.04)"/><path class="cls-20" d="M1172.86,459.43V419.19h40.23v40.24ZM1186.1,447a5.16,5.16,0,0,0,3.21-1.61q7-6.94,13.89-13.9a5.53,5.53,0,0,0-2.34-9.16,5.3,5.3,0,0,0-5.49,1.34c-.88.83-1.71,1.7-2.56,2.55q-5.65,5.65-11.31,11.32a5.49,5.49,0,0,0-1.22,6C1181.14,445.61,1183.13,447,1186.1,447Zm5.41,10.39a5.49,5.49,0,0,0,4-1.61q6.95-6.93,13.87-13.87a5.53,5.53,0,0,0-7.83-7.82q-7,6.9-13.87,13.86a5.53,5.53,0,0,0,3.8,9.44ZM1179,444.12c-1.15,1.13-2.28,2.21-3.36,3.35a9.5,9.5,0,0,0-1.24,1.7,4.91,4.91,0,0,0-.68,3.53,5.3,5.3,0,0,0,3.52,4.29,5.22,5.22,0,0,0,5.47-.94,25.12,25.12,0,0,0,2.13-2.24.61.61,0,0,0,.06-.39c-.05-.55-.17-1.09-.18-1.63a5.54,5.54,0,0,0-4.2-5.35c-.51-.12-1-.15-1.66-.24l.87-.75Z" transform="translate(-77.77 -65.04)"/><path d="M1186.1,447c-3,0-5-1.35-5.82-3.42a5.49,5.49,0,0,1,1.22-6q5.64-5.67,11.31-11.32c.85-.85,1.68-1.72,2.56-2.55a5.54,5.54,0,0,1,9.3,2.84,5.22,5.22,0,0,1-1.47,5q-6.92,7-13.89,13.9A5.16,5.16,0,0,1,1186.1,447Zm4.85-5.23.19-.16q5.55-5.55,11.09-11.1a4.16,4.16,0,0,0-1.5-6.76,3.86,3.86,0,0,0-4.37.9c-3.7,3.66-7.37,7.35-11,11-.06.06-.11.14-.19.24A5.61,5.61,0,0,1,1191,441.73Zm-5.55-4.45a4.15,4.15,0,1,0,4.16,4.15A4.14,4.14,0,0,0,1185.4,437.28Z" transform="translate(-77.77 -65.04)"/><path d="M1191.51,457.35a5.53,5.53,0,0,1-3.8-9.44q6.93-6.95,13.87-13.86a5.53,5.53,0,0,1,7.83,7.82q-6.93,6.94-13.87,13.87A5.49,5.49,0,0,1,1191.51,457.35Zm5.67-5.24.13-.09c3.72-3.73,7.46-7.44,11.16-11.18a3.88,3.88,0,0,0,1-3.83,4,4,0,0,0-2.91-3,4,4,0,0,0-4.1,1.09L1191.62,446l-.29.3a5.6,5.6,0,0,1,5.85,5.85Zm-1.4-.28a4.16,4.16,0,1,0-8.31,0,4.16,4.16,0,1,0,8.31,0Z" transform="translate(-77.77 -65.04)"/><path d="M1179,444.12l.73,1.33-.87.75c.62.09,1.15.12,1.66.24a5.54,5.54,0,0,1,4.2,5.35c0,.54.13,1.08.18,1.63a.61.61,0,0,1-.06.39,25.12,25.12,0,0,1-2.13,2.24,5.22,5.22,0,0,1-5.47.94,5.3,5.3,0,0,1-3.52-4.29,4.91,4.91,0,0,1,.68-3.53,9.5,9.5,0,0,1,1.24-1.7C1176.71,446.33,1177.84,445.25,1179,444.12Zm-4,7.69a4.15,4.15,0,1,0,8.3,0,4.15,4.15,0,0,0-8.3,0Z" transform="translate(-77.77 -65.04)"/><path class="cls-20" d="M1191,441.73a5.61,5.61,0,0,0-5.83-5.85c.08-.1.13-.18.19-.24,3.68-3.68,7.35-7.37,11-11a3.86,3.86,0,0,1,4.37-.9,4.16,4.16,0,0,1,1.5,6.76q-5.54,5.56-11.09,11.1Zm.93-2.84,1-1.05,8.2-8.21A2.75,2.75,0,0,0,1202,427l-10.71,10.71Z" transform="translate(-77.77 -65.04)"/><path class="cls-20" d="M1185.4,437.28a4.15,4.15,0,1,1-4.15,4.08A4.15,4.15,0,0,1,1185.4,437.28Zm2.76,4.14a2.76,2.76,0,1,0-2.78,2.78A2.77,2.77,0,0,0,1188.16,441.42Z" transform="translate(-77.77 -65.04)"/><path class="cls-20" d="M1197.18,452.11a5.6,5.6,0,0,0-5.85-5.85l.29-.3,10.89-10.9a4,4,0,0,1,4.1-1.09,4,4,0,0,1,2.91,3,3.88,3.88,0,0,1-1,3.83c-3.7,3.74-7.44,7.45-11.16,11.18Zm11-14.78L1197.47,448l.63,1.21.24-.22,9-9a3.41,3.41,0,0,0,.36-.41A2.72,2.72,0,0,0,1208.17,437.33Z" transform="translate(-77.77 -65.04)"/><path class="cls-20" d="M1195.78,451.83a4.16,4.16,0,1,1-4.1-4.17A4.16,4.16,0,0,1,1195.78,451.83Zm-4.22,2.74a2.76,2.76,0,1,0-2.76-2.77A2.77,2.77,0,0,0,1191.56,454.57Z" transform="translate(-77.77 -65.04)"/><path class="cls-20" d="M1175,451.81a4.15,4.15,0,1,1,4.16,4.17A4.15,4.15,0,0,1,1175,451.81Zm4.23,2.76a2.76,2.76,0,1,0-2.76-2.76A2.77,2.77,0,0,0,1179.24,454.57Z" transform="translate(-77.77 -65.04)"/><path d="M1191.88,438.89l-.64-1.22L1202,427a2.75,2.75,0,0,1-.84,2.67l-8.2,8.21Z" transform="translate(-77.77 -65.04)"/><path d="M1188.16,441.42a2.76,2.76,0,1,1-2.76-2.77A2.76,2.76,0,0,1,1188.16,441.42Zm-2.77,1.38a1.38,1.38,0,1,0,0-2.75,1.38,1.38,0,1,0,0,2.75Z" transform="translate(-77.77 -65.04)"/><path d="M1208.17,437.33a2.72,2.72,0,0,1-.44,2.25,3.41,3.41,0,0,1-.36.41l-9,9-.24.22-.63-1.21Z" transform="translate(-77.77 -65.04)"/><path d="M1191.56,454.57a2.76,2.76,0,1,1,2.79-2.73A2.78,2.78,0,0,1,1191.56,454.57Zm1.39-2.77a1.38,1.38,0,0,0-1.39-1.38,1.41,1.41,0,0,0-1.37,1.37,1.38,1.38,0,0,0,1.38,1.4A1.35,1.35,0,0,0,1193,451.8Z" transform="translate(-77.77 -65.04)"/><path d="M1179.24,454.57a2.76,2.76,0,1,1,2.79-2.77A2.77,2.77,0,0,1,1179.24,454.57Zm1.39-2.76a1.38,1.38,0,0,0-1.38-1.39,1.39,1.39,0,0,0-1.38,1.37,1.37,1.37,0,0,0,1.37,1.4A1.35,1.35,0,0,0,1180.63,451.81Z" transform="translate(-77.77 -65.04)"/><path class="cls-20" d="M1185.39,442.8a1.38,1.38,0,1,1,1.4-1.37A1.38,1.38,0,0,1,1185.39,442.8Z" transform="translate(-77.77 -65.04)"/><path class="cls-20" d="M1193,451.8a1.35,1.35,0,0,1-1.38,1.39,1.38,1.38,0,0,1-1.38-1.4,1.41,1.41,0,0,1,1.37-1.37A1.38,1.38,0,0,1,1193,451.8Z" transform="translate(-77.77 -65.04)"/><path class="cls-20" d="M1180.63,451.81a1.35,1.35,0,0,1-1.39,1.38,1.37,1.37,0,0,1-1.37-1.4,1.39,1.39,0,0,1,1.38-1.37A1.38,1.38,0,0,1,1180.63,451.81Z" transform="translate(-77.77 -65.04)"/><path class="cls-20" d="M1183.76,303.71V263.47H1224v40.24ZM1197,291.24a5.28,5.28,0,0,0,3.22-1.62q7-6.93,13.89-13.9a5.53,5.53,0,0,0-2.34-9.16,5.34,5.34,0,0,0-5.5,1.35c-.87.83-1.71,1.7-2.56,2.55l-11.31,11.31a5.51,5.51,0,0,0-1.22,6C1192,289.89,1194,291.23,1197,291.24Zm5.41,10.39a5.48,5.48,0,0,0,4-1.62q6.94-6.92,13.87-13.86a5.31,5.31,0,0,0,1.55-4.74,5.53,5.53,0,0,0-9.37-3.09q-7,6.92-13.87,13.87a5.53,5.53,0,0,0,3.79,9.44Zm-12.52-13.23c-1.14,1.13-2.28,2.2-3.36,3.34a9.87,9.87,0,0,0-1.24,1.7,5,5,0,0,0-.68,3.54,5.32,5.32,0,0,0,3.53,4.29,5.2,5.2,0,0,0,5.46-.94,25.17,25.17,0,0,0,2.13-2.25.51.51,0,0,0,.06-.39c0-.54-.17-1.08-.18-1.62a5.53,5.53,0,0,0-4.19-5.35c-.51-.13-1.05-.15-1.67-.24l.88-.75Z" transform="translate(-77.77 -65.04)"/><path d="M1197,291.24c-3,0-5-1.35-5.82-3.43a5.51,5.51,0,0,1,1.22-6l11.31-11.31c.85-.85,1.69-1.72,2.56-2.55a5.54,5.54,0,0,1,9.31,2.84,5.25,5.25,0,0,1-1.47,5q-6.91,7-13.89,13.9A5.28,5.28,0,0,1,1197,291.24Zm4.86-5.24a1.74,1.74,0,0,0,.18-.16l11.09-11.09a4.15,4.15,0,0,0-5.87-5.86c-3.7,3.65-7.36,7.34-11,11a3.11,3.11,0,0,0-.2.25A5.61,5.61,0,0,1,1201.86,286Zm-5.56-4.45a4.15,4.15,0,1,0,4.17,4.16A4.15,4.15,0,0,0,1196.3,281.55Z" transform="translate(-77.77 -65.04)"/><path d="M1202.41,301.63a5.53,5.53,0,0,1-3.79-9.44q6.92-6.94,13.87-13.87a5.53,5.53,0,0,1,9.37,3.09,5.31,5.31,0,0,1-1.55,4.74q-6.91,6.94-13.87,13.86A5.48,5.48,0,0,1,1202.41,301.63Zm5.68-5.25.12-.09c3.73-3.72,7.46-7.43,11.17-11.17a3.89,3.89,0,0,0,1-3.83,4.14,4.14,0,0,0-7-2q-5.46,5.43-10.9,10.89l-.28.3a5.67,5.67,0,0,1,4.2,1.63A5.6,5.6,0,0,1,1208.09,296.38Zm-1.41-.28a4.12,4.12,0,0,0-4.09-4.16,4.16,4.16,0,1,0,4.09,4.16Z" transform="translate(-77.77 -65.04)"/><path d="M1189.89,288.4l.74,1.33-.88.75c.62.09,1.16.11,1.67.24a5.53,5.53,0,0,1,4.19,5.35c0,.54.13,1.08.18,1.62a.51.51,0,0,1-.06.39,25.17,25.17,0,0,1-2.13,2.25,5.2,5.2,0,0,1-5.46.94,5.32,5.32,0,0,1-3.53-4.29,5,5,0,0,1,.68-3.54,9.87,9.87,0,0,1,1.24-1.7C1187.61,290.6,1188.75,289.53,1189.89,288.4Zm-4,7.69a4.16,4.16,0,1,0,8.31,0,4.16,4.16,0,0,0-8.31,0Z" transform="translate(-77.77 -65.04)"/><path class="cls-20" d="M1201.86,286a5.61,5.61,0,0,0-5.84-5.84,3.11,3.11,0,0,1,.2-.25c3.68-3.68,7.34-7.37,11-11a4.15,4.15,0,0,1,5.87,5.86L1202,285.84A1.74,1.74,0,0,1,1201.86,286Zm.92-2.83,1-1.06,8.21-8.2a2.76,2.76,0,0,0,.83-2.67L1202.15,282Z" transform="translate(-77.77 -65.04)"/><path class="cls-20" d="M1196.3,281.55a4.15,4.15,0,1,1-4.15,4.09A4.17,4.17,0,0,1,1196.3,281.55Zm2.76,4.14a2.76,2.76,0,1,0-2.77,2.79A2.76,2.76,0,0,0,1199.06,285.69Z" transform="translate(-77.77 -65.04)"/><path class="cls-20" d="M1208.09,296.38a5.6,5.6,0,0,0-1.65-4.22,5.67,5.67,0,0,0-4.2-1.63l.28-.3q5.45-5.44,10.9-10.89a4.14,4.14,0,0,1,7,2,3.89,3.89,0,0,1-1,3.83c-3.71,3.74-7.44,7.45-11.17,11.17Zm11-14.77-10.71,10.71.63,1.2.24-.21,9-9a3.62,3.62,0,0,0,.36-.42A2.77,2.77,0,0,0,1219.08,281.61Z" transform="translate(-77.77 -65.04)"/><path class="cls-20" d="M1206.68,296.1a4.14,4.14,0,0,1-4.16,4.15,4.16,4.16,0,1,1,.07-8.31A4.12,4.12,0,0,1,1206.68,296.1Zm-4.22,2.75a2.77,2.77,0,1,0-2.75-2.78A2.76,2.76,0,0,0,1202.46,298.85Z" transform="translate(-77.77 -65.04)"/><path class="cls-20" d="M1185.91,296.09a4.16,4.16,0,1,1,4.17,4.16A4.16,4.16,0,0,1,1185.91,296.09Zm4.24,2.76a2.77,2.77,0,1,0-2.77-2.77A2.78,2.78,0,0,0,1190.15,298.85Z" transform="translate(-77.77 -65.04)"/><path d="M1202.78,283.17l-.63-1.22,10.7-10.71a2.76,2.76,0,0,1-.83,2.67l-8.21,8.2Z" transform="translate(-77.77 -65.04)"/><path d="M1199.06,285.69a2.76,2.76,0,1,1-2.76-2.76A2.77,2.77,0,0,1,1199.06,285.69Zm-2.77,1.39a1.38,1.38,0,1,0-1.38-1.4A1.38,1.38,0,0,0,1196.29,287.08Z" transform="translate(-77.77 -65.04)"/><path d="M1219.08,281.61a2.77,2.77,0,0,1-.44,2.24,3.62,3.62,0,0,1-.36.42l-9,9-.24.21-.63-1.2Z" transform="translate(-77.77 -65.04)"/><path d="M1202.46,298.85a2.77,2.77,0,1,1,2.79-2.73A2.78,2.78,0,0,1,1202.46,298.85Zm1.4-2.77a1.38,1.38,0,1,0-2.76,0,1.37,1.37,0,0,0,1.38,1.39A1.35,1.35,0,0,0,1203.86,296.08Z" transform="translate(-77.77 -65.04)"/><path d="M1190.15,298.85a2.77,2.77,0,1,1,2.79-2.78A2.8,2.8,0,0,1,1190.15,298.85Zm1.39-2.76a1.38,1.38,0,1,0-2.76,0,1.38,1.38,0,1,0,2.76,0Z" transform="translate(-77.77 -65.04)"/><path class="cls-20" d="M1196.29,287.08a1.38,1.38,0,1,1,1.4-1.38A1.39,1.39,0,0,1,1196.29,287.08Z" transform="translate(-77.77 -65.04)"/><path class="cls-20" d="M1203.86,296.08a1.35,1.35,0,0,1-1.38,1.38,1.37,1.37,0,0,1-1.38-1.39,1.38,1.38,0,1,1,2.76,0Z" transform="translate(-77.77 -65.04)"/><path class="cls-20" d="M1191.54,296.09a1.38,1.38,0,1,1-2.76,0,1.38,1.38,0,1,1,2.76,0Z" transform="translate(-77.77 -65.04)"/><path d="M786.37,422.84v1c-.2.38-.38.78-.61,1.15a19.29,19.29,0,0,1-5.33,5.36c-5.47,3.91-11.61,5.1-18.2,4.51a1.78,1.78,0,0,0-1,.16c-2.9,1.47-5.77,3-8.66,4.46h-.19c-1-.48-.69-1.32-.49-2.05.43-1.52.94-3,1.41-4.51-.05-.05-.09-.11-.14-.13a49,49,0,0,1-9.63-4.9,1.06,1.06,0,0,0-.94.17c-3,2.52-6.6,4-10.25,5.31a1.2,1.2,0,0,1-1.51-.38v-.57a26.92,26.92,0,0,1,1.25-2.73c1.26-2.14,2.61-4.24,4-6.41-.24-.28-.6-.67-.94-1.09a28.86,28.86,0,0,1-4.27-7.89v-.57c.62-.67,1.32-.39,2-.14a31.36,31.36,0,0,1,10.42,5.7,48.57,48.57,0,0,1,12.61-6c-.09-.29-.14-.47-.19-.65-.45-1.45-.92-2.89-1.33-4.35-.2-.68-.29-1.38.52-1.79h.19a47.06,47.06,0,0,1,9,4.71,3.73,3.73,0,0,0,1.66.56c1.6.2,3.23.16,4.81.46C777.35,413.48,782.88,416.67,786.37,422.84Zm-53.12,8.36a26.65,26.65,0,0,0,8.79-5,1.38,1.38,0,0,1,2.06-.15,40,40,0,0,0,10.35,5.32c1.11.4,1.2.57.78,1.66s-.81,2.06-1.2,3.1a6,6,0,0,0-.17.88c.27-.11.42-.15.56-.22,2-1.13,4-2.28,6.05-3.37a3.28,3.28,0,0,1,1.49-.32c2.28,0,4.57.06,6.85,0a18.72,18.72,0,0,0,3-.58c-3.63-6.22-3.59-12.29,0-18.37a9.58,9.58,0,0,0-1.15-.27c-1.86-.18-3.73-.3-5.58-.53a4.77,4.77,0,0,1-1.72-.63c-2.27-1.3-4.51-2.65-6.76-4l-.33.29c.44,1.2.86,2.41,1.32,3.6.62,1.58.58,1.73-1,2.2A44.79,44.79,0,0,0,745,420.17c-2.17,1.4-1.47,1.54-3.6-.26a27.57,27.57,0,0,0-8-4.35,17.11,17.11,0,0,0,3.91,6.35c1.46,1.48,1.45,1.47,0,3A22.71,22.71,0,0,0,733.25,431.2Zm37.48-7.8a15.07,15.07,0,0,0,2.43,8c.31.45.56.58,1.08.37a23.26,23.26,0,0,0,9.38-6.77c1.31-1.6,1.29-1.76,0-3.4A21.66,21.66,0,0,0,774.7,415c-.83-.36-1.23-.14-1.67.56A15.21,15.21,0,0,0,770.73,423.4Z" transform="translate(-77.77 -65.04)"/><path class="cls-20" d="M754.89,406.44c-.81.41-.72,1.11-.52,1.79.41,1.46.88,2.9,1.33,4.35,0,.18.1.36.19.65a48.57,48.57,0,0,0-12.61,6,31.36,31.36,0,0,0-10.42-5.7c-.68-.25-1.38-.53-2,.14v-7.25Z" transform="translate(-77.77 -65.04)"/><path class="cls-20" d="M786.37,422.84c-3.49-6.17-9-9.36-15.78-10.67-1.58-.3-3.21-.26-4.81-.46a3.73,3.73,0,0,1-1.66-.56,47.06,47.06,0,0,0-9-4.71h31.29Z" transform="translate(-77.77 -65.04)"/><path class="cls-20" d="M752.6,439.44c2.89-1.49,5.76-3,8.66-4.46a1.78,1.78,0,0,1,1-.16c6.59.59,12.73-.6,18.2-4.51a19.29,19.29,0,0,0,5.33-5.36c.23-.37.41-.77.61-1.15v15.64Z" transform="translate(-77.77 -65.04)"/><path class="cls-20" d="M730.86,433a1.2,1.2,0,0,0,1.51.38c3.65-1.33,7.22-2.79,10.25-5.31a1.06,1.06,0,0,1,.94-.17,49,49,0,0,0,9.63,4.9s.09.08.14.13c-.47,1.5-1,3-1.41,4.51-.2.73-.5,1.57.49,2.05H730.86Z" transform="translate(-77.77 -65.04)"/><path class="cls-20" d="M730.86,414.26a28.86,28.86,0,0,0,4.27,7.89c.34.42.7.81.94,1.09-1.35,2.17-2.7,4.27-4,6.41a26.92,26.92,0,0,0-1.25,2.73Z" transform="translate(-77.77 -65.04)"/><path class="cls-20" d="M733.25,431.2a22.71,22.71,0,0,1,4-6.29c1.44-1.53,1.45-1.52,0-3a17.11,17.11,0,0,1-3.91-6.35,27.57,27.57,0,0,1,8,4.35c2.13,1.8,1.43,1.66,3.6.26a44.79,44.79,0,0,1,11.61-5.34c1.6-.47,1.64-.62,1-2.2-.46-1.19-.88-2.4-1.32-3.6l.33-.29c2.25,1.33,4.49,2.68,6.76,4a4.77,4.77,0,0,0,1.72.63c1.85.23,3.72.35,5.58.53a9.58,9.58,0,0,1,1.15.27c-3.63,6.08-3.67,12.15,0,18.37a18.72,18.72,0,0,1-3,.58c-2.28.07-4.57,0-6.85,0a3.28,3.28,0,0,0-1.49.32c-2,1.09-4,2.24-6.05,3.37-.14.07-.29.11-.56.22a6,6,0,0,1,.17-.88c.39-1,.81-2.06,1.2-3.1s.33-1.26-.78-1.66a40,40,0,0,1-10.35-5.32,1.38,1.38,0,0,0-2.06.15A26.65,26.65,0,0,1,733.25,431.2Z" transform="translate(-77.77 -65.04)"/><path class="cls-20" d="M770.73,423.4a15.21,15.21,0,0,1,2.3-7.83c.44-.7.84-.92,1.67-.56a21.66,21.66,0,0,1,8.94,6.56c1.27,1.64,1.29,1.8,0,3.4a23.26,23.26,0,0,1-9.38,6.77c-.52.21-.77.08-1.08-.37A15.07,15.07,0,0,1,770.73,423.4Zm6.1-3.43a1.67,1.67,0,0,0-1.69,1.66,1.82,1.82,0,0,0,1.69,1.72,1.72,1.72,0,0,0,1.72-1.76A1.66,1.66,0,0,0,776.83,420Z" transform="translate(-77.77 -65.04)"/><path d="M776.83,420a1.66,1.66,0,0,1,1.72,1.62,1.72,1.72,0,0,1-1.72,1.76,1.82,1.82,0,0,1-1.69-1.72A1.67,1.67,0,0,1,776.83,420Z" transform="translate(-77.77 -65.04)"/><path d="M1274.28,438.6v.95c-.2.38-.38.79-.6,1.15a19.19,19.19,0,0,1-5.34,5.36c-5.46,3.91-11.61,5.11-18.2,4.51a1.88,1.88,0,0,0-1,.16c-2.89,1.47-5.77,3-8.65,4.46h-.2c-1-.48-.69-1.32-.48-2.05.42-1.52.93-3,1.4-4.51a.58.58,0,0,0-.14-.13,48.5,48.5,0,0,1-9.63-4.9,1,1,0,0,0-.94.18,33.33,33.33,0,0,1-10.25,5.3,1.2,1.2,0,0,1-1.51-.37v-.58a28,28,0,0,1,1.25-2.72c1.27-2.15,2.61-4.24,4-6.42-.24-.27-.6-.67-.94-1.09a28.86,28.86,0,0,1-4.27-7.89v-.57c.63-.67,1.32-.39,2-.14a31.44,31.44,0,0,1,10.41,5.71,48.76,48.76,0,0,1,12.61-6c-.09-.29-.14-.47-.19-.65-.45-1.45-.91-2.89-1.33-4.35-.2-.68-.29-1.38.52-1.79h.2a47.65,47.65,0,0,1,9,4.71,3.78,3.78,0,0,0,1.65.57c1.6.19,3.24.15,4.81.46C1265.26,429.23,1270.79,432.42,1274.28,438.6ZM1221.16,447a26.77,26.77,0,0,0,8.8-5,1.37,1.37,0,0,1,2-.16,40.19,40.19,0,0,0,10.36,5.33c1.11.4,1.19.56.77,1.65s-.81,2.06-1.2,3.1a6,6,0,0,0-.17.88,3.23,3.23,0,0,0,.56-.22c2-1.12,4-2.28,6.05-3.37a3.3,3.3,0,0,1,1.49-.32c2.29,0,4.57.07,6.85,0a18.72,18.72,0,0,0,3-.58c-3.63-6.22-3.59-12.29,0-18.37-.47-.11-.8-.23-1.14-.27-1.87-.18-3.73-.3-5.59-.53a4.77,4.77,0,0,1-1.72-.63c-2.26-1.3-4.5-2.65-6.75-4l-.34.3c.44,1.19.86,2.4,1.33,3.59.62,1.58.57,1.73-1,2.2a44.58,44.58,0,0,0-11.6,5.34c-2.17,1.4-1.48,1.54-3.61-.26a27.41,27.41,0,0,0-8-4.34,17.29,17.29,0,0,0,3.91,6.34c1.46,1.48,1.45,1.47,0,3A22.71,22.71,0,0,0,1221.16,447Zm37.49-7.8a14.87,14.87,0,0,0,2.43,8c.3.46.55.58,1.07.37a23.1,23.1,0,0,0,9.38-6.77c1.31-1.6,1.29-1.76,0-3.4a21.69,21.69,0,0,0-8.94-6.56,1.13,1.13,0,0,0-1.67.56A15.1,15.1,0,0,0,1258.65,439.15Z" transform="translate(-77.77 -65.04)"/><path class="cls-20" d="M1242.8,422.19c-.81.41-.72,1.11-.52,1.79.42,1.46.88,2.9,1.33,4.35.05.18.1.36.19.65a48.76,48.76,0,0,0-12.61,6,31.44,31.44,0,0,0-10.41-5.71c-.69-.25-1.38-.53-2,.14v-7.25Z" transform="translate(-77.77 -65.04)"/><path class="cls-20" d="M1274.28,438.6c-3.49-6.18-9-9.37-15.78-10.67-1.57-.31-3.21-.27-4.81-.46a3.78,3.78,0,0,1-1.65-.57,47.65,47.65,0,0,0-9-4.71h31.28Z" transform="translate(-77.77 -65.04)"/><path class="cls-20" d="M1240.52,455.19c2.88-1.49,5.76-3,8.65-4.46a1.88,1.88,0,0,1,1-.16c6.59.6,12.74-.6,18.2-4.51a19.19,19.19,0,0,0,5.34-5.36c.22-.36.4-.77.6-1.15v15.64Z" transform="translate(-77.77 -65.04)"/><path class="cls-20" d="M1218.77,448.71a1.2,1.2,0,0,0,1.51.37,33.33,33.33,0,0,0,10.25-5.3,1,1,0,0,1,.94-.18,48.5,48.5,0,0,0,9.63,4.9.58.58,0,0,1,.14.13c-.47,1.5-1,3-1.4,4.51-.21.73-.51,1.57.48,2.05h-21.55Z" transform="translate(-77.77 -65.04)"/><path class="cls-20" d="M1218.77,430a28.86,28.86,0,0,0,4.27,7.89c.34.42.7.82.94,1.09-1.35,2.18-2.69,4.27-4,6.42a28,28,0,0,0-1.25,2.72Z" transform="translate(-77.77 -65.04)"/><path class="cls-20" d="M1221.16,447a22.71,22.71,0,0,1,4-6.29c1.44-1.53,1.45-1.52,0-3a17.29,17.29,0,0,1-3.91-6.34,27.41,27.41,0,0,1,8,4.34c2.13,1.8,1.44,1.66,3.61.26a44.58,44.58,0,0,1,11.6-5.34c1.6-.47,1.65-.62,1-2.2-.47-1.19-.89-2.4-1.33-3.59l.34-.3c2.25,1.33,4.49,2.68,6.75,4a4.77,4.77,0,0,0,1.72.63c1.86.23,3.72.35,5.59.53.34,0,.67.16,1.14.27-3.63,6.08-3.67,12.15,0,18.37a18.72,18.72,0,0,1-3,.58c-2.28.08-4.56,0-6.85,0a3.3,3.3,0,0,0-1.49.32c-2,1.09-4,2.25-6.05,3.37a3.23,3.23,0,0,1-.56.22,6,6,0,0,1,.17-.88c.39-1,.81-2.06,1.2-3.1s.34-1.25-.77-1.65a40.19,40.19,0,0,1-10.36-5.33,1.37,1.37,0,0,0-2,.16A26.77,26.77,0,0,1,1221.16,447Z" transform="translate(-77.77 -65.04)"/><path class="cls-20" d="M1258.65,439.15a15.1,15.1,0,0,1,2.29-7.83,1.13,1.13,0,0,1,1.67-.56,21.69,21.69,0,0,1,8.94,6.56c1.27,1.64,1.29,1.8,0,3.4a23.1,23.1,0,0,1-9.38,6.77c-.52.21-.77.09-1.07-.37A14.87,14.87,0,0,1,1258.65,439.15Zm6.09-3.43a1.68,1.68,0,0,0-1.69,1.67,1.85,1.85,0,0,0,1.7,1.72,1.72,1.72,0,0,0,1.71-1.77A1.66,1.66,0,0,0,1264.74,435.72Z" transform="translate(-77.77 -65.04)"/><path d="M1264.74,435.72a1.66,1.66,0,0,1,1.72,1.62,1.72,1.72,0,0,1-1.71,1.77,1.85,1.85,0,0,1-1.7-1.72A1.68,1.68,0,0,1,1264.74,435.72Z" transform="translate(-77.77 -65.04)"/><path d="M1284.37,281.64v.95c-.2.38-.38.79-.61,1.15a19.16,19.16,0,0,1-5.33,5.36c-5.47,3.91-11.61,5.11-18.2,4.51a1.88,1.88,0,0,0-1,.16c-2.9,1.47-5.77,3-8.66,4.46h-.19c-1-.48-.69-1.32-.49-2.05.43-1.52.94-3,1.41-4.51a1.66,1.66,0,0,0-.14-.13,48.5,48.5,0,0,1-9.63-4.9,1,1,0,0,0-.94.18,33.33,33.33,0,0,1-10.25,5.3,1.19,1.19,0,0,1-1.51-.37v-.58a25.79,25.79,0,0,1,1.25-2.72c1.26-2.15,2.61-4.24,4-6.42-.24-.27-.6-.67-.94-1.09a28.86,28.86,0,0,1-4.27-7.89v-.57c.62-.66,1.32-.39,2-.14a31.38,31.38,0,0,1,10.42,5.71,48.6,48.6,0,0,1,12.61-6c-.09-.29-.14-.47-.19-.65-.45-1.45-.92-2.89-1.33-4.35-.2-.68-.29-1.38.52-1.79h.19a47.06,47.06,0,0,1,9,4.71,3.87,3.87,0,0,0,1.66.57c1.6.19,3.23.15,4.81.46C1275.35,272.27,1280.88,275.46,1284.37,281.64ZM1231.25,290a26.63,26.63,0,0,0,8.79-5,1.38,1.38,0,0,1,2.06-.16,40.29,40.29,0,0,0,10.35,5.33c1.11.4,1.2.56.78,1.66s-.81,2.05-1.2,3.09a6,6,0,0,0-.17.88,4.07,4.07,0,0,0,.56-.22c2-1.12,4-2.28,6-3.37a3.28,3.28,0,0,1,1.49-.32c2.28,0,4.57.07,6.85,0a18.72,18.72,0,0,0,3-.58c-3.63-6.22-3.59-12.29,0-18.37-.47-.11-.81-.23-1.15-.27-1.86-.18-3.73-.3-5.58-.53a4.77,4.77,0,0,1-1.72-.63c-2.27-1.3-4.51-2.65-6.76-4l-.33.3c.44,1.19.86,2.4,1.32,3.59.62,1.58.58,1.73-1,2.2A44.79,44.79,0,0,0,1243,279c-2.17,1.4-1.47,1.54-3.6-.26a27.54,27.54,0,0,0-8-4.34,17.16,17.16,0,0,0,3.91,6.34c1.46,1.48,1.45,1.47,0,3A22.71,22.71,0,0,0,1231.25,290Zm37.48-7.8a15,15,0,0,0,2.43,8c.31.46.56.58,1.08.37a23.17,23.17,0,0,0,9.38-6.77c1.31-1.6,1.29-1.76,0-3.4a21.75,21.75,0,0,0-8.94-6.56,1.13,1.13,0,0,0-1.67.56A15.21,15.21,0,0,0,1268.73,282.19Z" transform="translate(-77.77 -65.04)"/><path class="cls-20" d="M1252.89,265.23c-.81.41-.72,1.11-.52,1.79.41,1.46.88,2.9,1.33,4.35,0,.18.1.36.19.65a48.6,48.6,0,0,0-12.61,6,31.38,31.38,0,0,0-10.42-5.71c-.68-.25-1.38-.52-2,.14v-7.25Z" transform="translate(-77.77 -65.04)"/><path class="cls-20" d="M1284.37,281.64c-3.49-6.18-9-9.37-15.78-10.67-1.58-.31-3.21-.27-4.81-.46a3.87,3.87,0,0,1-1.66-.57,47.06,47.06,0,0,0-9-4.71h31.29Z" transform="translate(-77.77 -65.04)"/><path class="cls-20" d="M1250.6,298.23c2.89-1.49,5.76-3,8.66-4.46a1.88,1.88,0,0,1,1-.16c6.59.6,12.73-.6,18.2-4.51a19.16,19.16,0,0,0,5.33-5.36c.23-.36.41-.77.61-1.15v15.64Z" transform="translate(-77.77 -65.04)"/><path class="cls-20" d="M1228.86,291.75a1.19,1.19,0,0,0,1.51.37,33.33,33.33,0,0,0,10.25-5.3,1,1,0,0,1,.94-.18,48.5,48.5,0,0,0,9.63,4.9,1.66,1.66,0,0,1,.14.13c-.47,1.5-1,3-1.41,4.51-.2.73-.5,1.57.49,2.05h-21.55Z" transform="translate(-77.77 -65.04)"/><path class="cls-20" d="M1228.86,273.05a28.86,28.86,0,0,0,4.27,7.89c.34.42.7.82.94,1.09-1.35,2.18-2.7,4.27-4,6.42a25.79,25.79,0,0,0-1.25,2.72Z" transform="translate(-77.77 -65.04)"/><path class="cls-20" d="M1231.25,290a22.71,22.71,0,0,1,4-6.29c1.44-1.53,1.45-1.52,0-3a17.16,17.16,0,0,1-3.91-6.34,27.54,27.54,0,0,1,8,4.34c2.13,1.8,1.43,1.66,3.6.26a44.79,44.79,0,0,1,11.61-5.34c1.6-.47,1.64-.62,1-2.2-.46-1.19-.88-2.4-1.32-3.59l.33-.3c2.25,1.33,4.49,2.68,6.76,4a4.77,4.77,0,0,0,1.72.63c1.85.23,3.72.35,5.58.53.34,0,.68.16,1.15.27-3.63,6.08-3.67,12.15,0,18.37a18.72,18.72,0,0,1-3,.58c-2.28.08-4.57,0-6.85,0a3.28,3.28,0,0,0-1.49.32c-2,1.09-4,2.25-6,3.37a4.07,4.07,0,0,1-.56.22,6,6,0,0,1,.17-.88c.39-1,.81-2.06,1.2-3.09s.33-1.26-.78-1.66a40.29,40.29,0,0,1-10.35-5.33,1.38,1.38,0,0,0-2.06.16A26.63,26.63,0,0,1,1231.25,290Z" transform="translate(-77.77 -65.04)"/><path class="cls-20" d="M1268.73,282.19a15.21,15.21,0,0,1,2.3-7.83,1.13,1.13,0,0,1,1.67-.56,21.75,21.75,0,0,1,8.94,6.56c1.27,1.64,1.29,1.8,0,3.4a23.17,23.17,0,0,1-9.38,6.77c-.52.21-.77.09-1.08-.37A15,15,0,0,1,1268.73,282.19Zm6.1-3.43a1.67,1.67,0,0,0-1.69,1.67,1.84,1.84,0,0,0,1.69,1.72,1.73,1.73,0,0,0,1.72-1.77A1.66,1.66,0,0,0,1274.83,278.76Z" transform="translate(-77.77 -65.04)"/><path d="M1274.83,278.76a1.66,1.66,0,0,1,1.72,1.62,1.73,1.73,0,0,1-1.72,1.77,1.84,1.84,0,0,1-1.69-1.72A1.67,1.67,0,0,1,1274.83,278.76Z" transform="translate(-77.77 -65.04)"/><path d="M1279.61,721.34v1c-.2.38-.37.78-.6,1.15a19.43,19.43,0,0,1-5.33,5.36c-5.47,3.91-11.61,5.1-18.2,4.51a1.82,1.82,0,0,0-1,.16c-2.89,1.47-5.77,3-8.65,4.46h-.19c-1-.48-.7-1.32-.49-2.05.42-1.52.93-3,1.4-4.51,0,0-.08-.11-.13-.13a49.12,49.12,0,0,1-9.64-4.9,1.07,1.07,0,0,0-.94.17c-3,2.52-6.6,4-10.24,5.31a1.21,1.21,0,0,1-1.52-.38v-.57a29.37,29.37,0,0,1,1.26-2.73c1.26-2.14,2.6-4.24,4-6.41-.23-.28-.6-.67-.93-1.09a28.89,28.89,0,0,1-4.28-7.89v-.57c.63-.67,1.33-.39,2-.14a31.31,31.31,0,0,1,10.41,5.7,48.73,48.73,0,0,1,12.61-6c-.08-.29-.13-.47-.19-.65-.44-1.45-.91-2.89-1.33-4.35-.19-.68-.29-1.38.53-1.79h.19a47.65,47.65,0,0,1,9,4.71,3.65,3.65,0,0,0,1.65.56c1.6.2,3.24.16,4.81.46C1270.6,712,1276.12,715.17,1279.61,721.34Zm-53.12,8.36a26.8,26.8,0,0,0,8.8-5,1.38,1.38,0,0,1,2.06-.15,40,40,0,0,0,10.35,5.32c1.11.4,1.19.57.78,1.66s-.81,2.06-1.2,3.1a5.84,5.84,0,0,0-.18.88c.28-.11.43-.15.56-.22,2-1.13,4-2.28,6.06-3.37a3.23,3.23,0,0,1,1.48-.32c2.29,0,4.57.06,6.86,0a18.39,18.39,0,0,0,3-.58c-3.63-6.22-3.58-12.29,0-18.37a10,10,0,0,0-1.15-.27c-1.86-.18-3.73-.3-5.59-.53a4.66,4.66,0,0,1-1.71-.63c-2.27-1.3-4.51-2.65-6.76-4l-.33.29c.44,1.2.85,2.41,1.32,3.6.62,1.58.58,1.73-1,2.2a44.79,44.79,0,0,0-11.61,5.34c-2.17,1.4-1.48,1.54-3.6-.26a27.57,27.57,0,0,0-8-4.35,17.21,17.21,0,0,0,3.9,6.35c1.46,1.48,1.45,1.47,0,3A23,23,0,0,0,1226.49,729.7Zm37.49-7.8a14.9,14.9,0,0,0,2.43,8c.3.45.56.58,1.07.37a23.22,23.22,0,0,0,9.39-6.77c1.31-1.6,1.29-1.76,0-3.4a21.69,21.69,0,0,0-9-6.56c-.83-.36-1.23-.14-1.67.56A15.2,15.2,0,0,0,1264,721.9Z" transform="translate(-77.77 -65.04)"/><path class="cls-20" d="M1248.14,704.94c-.82.41-.72,1.11-.53,1.79.42,1.46.89,2.9,1.33,4.35.06.18.11.36.19.65a48.73,48.73,0,0,0-12.61,6,31.31,31.31,0,0,0-10.41-5.7c-.68-.25-1.38-.53-2,.14v-7.25Z" transform="translate(-77.77 -65.04)"/><path class="cls-20" d="M1279.61,721.34c-3.49-6.17-9-9.36-15.78-10.67-1.57-.3-3.21-.26-4.81-.46a3.65,3.65,0,0,1-1.65-.56,47.65,47.65,0,0,0-9-4.71h31.28Z" transform="translate(-77.77 -65.04)"/><path class="cls-20" d="M1245.85,737.94c2.88-1.49,5.76-3,8.65-4.46a1.82,1.82,0,0,1,1-.16c6.59.59,12.73-.6,18.2-4.51a19.43,19.43,0,0,0,5.33-5.36c.23-.37.4-.77.6-1.15v15.64Z" transform="translate(-77.77 -65.04)"/><path class="cls-20" d="M1224.1,731.45a1.21,1.21,0,0,0,1.52.38c3.64-1.33,7.21-2.79,10.24-5.31a1.07,1.07,0,0,1,.94-.17,49.12,49.12,0,0,0,9.64,4.9s.09.08.13.13c-.47,1.5-1,3-1.4,4.51-.21.73-.51,1.57.49,2.05H1224.1Z" transform="translate(-77.77 -65.04)"/><path class="cls-20" d="M1224.1,712.76a28.89,28.89,0,0,0,4.28,7.89c.33.42.7.81.93,1.09-1.35,2.17-2.69,4.27-4,6.41a29.37,29.37,0,0,0-1.26,2.73Z" transform="translate(-77.77 -65.04)"/><path class="cls-20" d="M1226.49,729.7a23,23,0,0,1,4-6.29c1.43-1.53,1.44-1.52,0-3a17.21,17.21,0,0,1-3.9-6.35,27.57,27.57,0,0,1,8,4.35c2.12,1.8,1.43,1.66,3.6.26a44.79,44.79,0,0,1,11.61-5.34c1.6-.47,1.64-.62,1-2.2-.47-1.19-.88-2.4-1.32-3.6l.33-.29c2.25,1.33,4.49,2.68,6.76,4a4.66,4.66,0,0,0,1.71.63c1.86.23,3.73.35,5.59.53a10,10,0,0,1,1.15.27c-3.63,6.08-3.68,12.15,0,18.37a18.39,18.39,0,0,1-3,.58c-2.29.07-4.57,0-6.86,0a3.23,3.23,0,0,0-1.48.32c-2,1.09-4,2.24-6.06,3.37-.13.07-.28.11-.56.22a5.84,5.84,0,0,1,.18-.88c.39-1,.8-2.06,1.2-3.1s.33-1.26-.78-1.66a40,40,0,0,1-10.35-5.32,1.38,1.38,0,0,0-2.06.15A26.8,26.8,0,0,1,1226.49,729.7Z" transform="translate(-77.77 -65.04)"/><path class="cls-20" d="M1264,721.9a15.2,15.2,0,0,1,2.29-7.83c.44-.7.84-.92,1.67-.56a21.69,21.69,0,0,1,9,6.56c1.27,1.64,1.29,1.8,0,3.4a23.22,23.22,0,0,1-9.39,6.77c-.51.21-.77.08-1.07-.37A14.9,14.9,0,0,1,1264,721.9Zm6.09-3.43a1.68,1.68,0,0,0-1.69,1.66,1.83,1.83,0,0,0,1.7,1.72,1.7,1.7,0,0,0,1.71-1.76A1.65,1.65,0,0,0,1270.07,718.47Z" transform="translate(-77.77 -65.04)"/><path d="M1270.07,718.47a1.65,1.65,0,0,1,1.72,1.62,1.7,1.7,0,0,1-1.71,1.76,1.83,1.83,0,0,1-1.7-1.72A1.68,1.68,0,0,1,1270.07,718.47Z" transform="translate(-77.77 -65.04)"/><path class="cls-20" d="M1280.44,692.65h57.34V750h-57.34Zm22.91,45.5a4.14,4.14,0,0,0,.58-.19l4.69-2.34a2.24,2.24,0,0,1,.68-.25l11-1.6c1.75-.25,3.5-.5,5.24-.77.72-.11.87-.36.67-1l-3.6-11.53a1.52,1.52,0,0,0-.35-.62q-6.29-6.58-12.59-13.15a1.87,1.87,0,0,0-.74-.47c-1.76-.52-3.53-1-5.3-1.51a1.68,1.68,0,0,0-1.1.14c-1.71.93-3.37,2-5.1,2.87-.91.47-1.52,1-1.4,2.11a2.71,2.71,0,0,1-.1.89c-.17.8.08,1.71-.54,2.4a6.43,6.43,0,0,0-1.61,5.34,4.64,4.64,0,0,1-.06,2.26c-.27.65-1,1.09-1.58,1.62a1.19,1.19,0,0,1-.2.19.8.8,0,0,0-.25,1c1.36,3.81,2.69,7.63,4,11.45a1.4,1.4,0,0,0,.46.59c1,.66,1.91,1.29,2.88,1.92a1.72,1.72,0,0,0,.65.29C1300.9,737.91,1302.05,738,1303.35,738.15Z" transform="translate(-77.77 -65.04)"/><path d="M1303.35,738.15c-1.3-.14-2.45-.24-3.6-.38a1.72,1.72,0,0,1-.65-.29c-1-.63-1.93-1.26-2.88-1.92a1.4,1.4,0,0,1-.46-.59c-1.35-3.82-2.68-7.64-4-11.45a.8.8,0,0,1,.25-1,1.19,1.19,0,0,0,.2-.19c.55-.53,1.31-1,1.58-1.62a4.64,4.64,0,0,0,.06-2.26,6.43,6.43,0,0,1,1.61-5.34c.62-.69.37-1.6.54-2.4a2.71,2.71,0,0,0,.1-.89c-.12-1.11.49-1.64,1.4-2.11,1.73-.9,3.39-1.94,5.1-2.87a1.68,1.68,0,0,1,1.1-.14c1.77.47,3.54,1,5.3,1.51a1.87,1.87,0,0,1,.74.47q6.3,6.55,12.59,13.15a1.52,1.52,0,0,1,.35.62l3.6,11.53c.2.65,0,.9-.67,1-1.74.27-3.49.52-5.24.77l-11,1.6a2.24,2.24,0,0,0-.68.25l-4.69,2.34A4.14,4.14,0,0,1,1303.35,738.15Zm5.76-8,7-3.7c0-.13,0-.18,0-.23-1.19-3.07-2.37-6.13-3.57-9.19a1.66,1.66,0,0,0-.41-.58l-5.11-4.66c-.12-.11-.25-.19-.43-.33-.17,1.11-.33,2.13-.5,3.15a42.32,42.32,0,0,1-1.36,6.7c-.41,1.21-.75,2.45-1.09,3.68a.6.6,0,0,0,.14.55C1305.49,727.05,1307.28,728.56,1309.11,730.12Zm-14.69-8.47a15.56,15.56,0,0,1-1.08,1.25.71.71,0,0,0-.19.87c1.07,3.05,2.17,6.08,3.15,9.16a4.29,4.29,0,0,0,2.08,2.7c.91.49,1.69,1.22,2.82,1.15a2.55,2.55,0,0,1,.73.06,1.86,1.86,0,0,0,2.23-.86c1.27-1.76,2.69-3.42,4.07-5.16-.22-.19-.41-.36-.61-.52-2.57-2.07-4.89-4.46-8-5.87C1297.92,723.63,1296.28,722.64,1294.42,721.65Zm30.25,9.36a1.16,1.16,0,0,0,0-.2q-1.55-4.92-3.1-9.83a1.48,1.48,0,0,0-.34-.56c-3.49-3.64-7-7.22-10.46-10.94a8.47,8.47,0,0,0-4.79-2.86c-.47-.09-.92-.25-1.54-.42.64,1.11,1.18,2.07,1.75,3a4.27,4.27,0,0,0,.75,1c2,1.86,4,3.7,6,5.55a2.23,2.23,0,0,1,.52.77c.93,2.37,2,4.71,2.73,7.13a6.62,6.62,0,0,0,3.38,4.13C1321.37,728.75,1323,729.92,1324.67,731ZM1303,705.93c-1.83,1.06-3.62,2.08-5.39,3.13a.76.76,0,0,0-.28.48c-.11.85-.15,1.7-.28,2.55a.63.63,0,0,0,.32.73c1.41,1,2.82,2,4.23,3l2.74,1.95a3.81,3.81,0,0,0,.09-.38q.54-3.3,1.07-6.6a1,1,0,0,0,0-.59C1304.63,708.78,1303.81,707.37,1303,705.93Zm2.87,29.78.08.06,2.6-1.27a2.34,2.34,0,0,1,.67-.24l11.75-1.71,3.15-.48-.19-.18c-2.27-1.45-4.53-2.92-6.81-4.36a.76.76,0,0,0-.64,0c-2.24,1.17-4.47,2.35-6.71,3.54a1.27,1.27,0,0,0-.43.33Zm-9.33-22.05c-.48.72-.92,1.36-1.33,2a1.07,1.07,0,0,0-.13.53c0,1.38,0,2.76,0,4.13a.82.82,0,0,0,.36.59c1.34.76,2.7,1.49,4.06,2.22l2.92,1.58c.52-1.81,1-3.55,1.53-5.31a.59.59,0,0,0-.18-.53c-.72-.55-1.47-1.08-2.21-1.61Z" transform="translate(-77.77 -65.04)"/><path class="cls-20" d="M1309.11,730.12c-1.83-1.56-3.62-3.07-5.39-4.61a.6.6,0,0,1-.14-.55c.34-1.23.68-2.47,1.09-3.68a42.32,42.32,0,0,0,1.36-6.7c.17-1,.33-2,.5-3.15.18.14.31.22.43.33l5.11,4.66a1.66,1.66,0,0,1,.41.58c1.2,3.06,2.38,6.12,3.57,9.19,0,0,0,.1,0,.23Z" transform="translate(-77.77 -65.04)"/><path class="cls-20" d="M1294.42,721.65c1.86,1,3.5,2,5.23,2.78,3.08,1.41,5.4,3.8,8,5.87.2.16.39.33.61.52-1.38,1.74-2.8,3.4-4.07,5.16a1.86,1.86,0,0,1-2.23.86,2.55,2.55,0,0,0-.73-.06c-1.13.07-1.91-.66-2.82-1.15a4.29,4.29,0,0,1-2.08-2.7c-1-3.08-2.08-6.11-3.15-9.16a.71.71,0,0,1,.19-.87A15.56,15.56,0,0,0,1294.42,721.65Z" transform="translate(-77.77 -65.04)"/><path class="cls-20" d="M1324.67,731c-1.7-1.09-3.3-2.26-5-3.19a6.62,6.62,0,0,1-3.38-4.13c-.76-2.42-1.8-4.76-2.73-7.13a2.23,2.23,0,0,0-.52-.77c-2-1.85-4-3.69-6-5.55a4.27,4.27,0,0,1-.75-1c-.57-1-1.11-1.91-1.75-3,.62.17,1.07.33,1.54.42a8.47,8.47,0,0,1,4.79,2.86c3.41,3.72,7,7.3,10.46,10.94a1.48,1.48,0,0,1,.34.56q1.56,4.9,3.1,9.83A1.16,1.16,0,0,1,1324.67,731Z" transform="translate(-77.77 -65.04)"/><path class="cls-20" d="M1303,705.93c.83,1.44,1.65,2.85,2.45,4.28a1,1,0,0,1,0,.59q-.52,3.3-1.07,6.6a3.81,3.81,0,0,1-.09.38l-2.74-1.95c-1.41-1-2.82-2-4.23-3a.63.63,0,0,1-.32-.73c.13-.85.17-1.7.28-2.55a.76.76,0,0,1,.28-.48C1299.36,708,1301.15,707,1303,705.93Z" transform="translate(-77.77 -65.04)"/><path class="cls-20" d="M1305.85,735.71l3.47-4.3a1.27,1.27,0,0,1,.43-.33c2.24-1.19,4.47-2.37,6.71-3.54a.76.76,0,0,1,.64,0c2.28,1.44,4.54,2.91,6.81,4.36l.19.18-3.15.48-11.75,1.71a2.34,2.34,0,0,0-.67.24l-2.6,1.27Z" transform="translate(-77.77 -65.04)"/><path class="cls-20" d="M1296.52,713.66l5,3.62c.74.53,1.49,1.06,2.21,1.61a.59.59,0,0,1,.18.53c-.49,1.76-1,3.5-1.53,5.31l-2.92-1.58c-1.36-.73-2.72-1.46-4.06-2.22a.82.82,0,0,1-.36-.59c0-1.37,0-2.75,0-4.13a1.07,1.07,0,0,1,.13-.53C1295.6,715,1296,714.38,1296.52,713.66Z" transform="translate(-77.77 -65.04)"/><circle class="cls-3" cx="123.23" cy="500.09" r="17.33"/></svg>