<svg id="Layer_1" data-name="Layer 1" xmlns="http://www.w3.org/2000/svg" viewBox="0 0 1446.33 1025.95"><defs><style>.cls-1,.cls-2,.cls-27,.cls-58,.cls-59{fill:#fff;}.cls-1,.cls-4,.cls-5,.cls-6{stroke:#808285;}.cls-1,.cls-2,.cls-4,.cls-5,.cls-56,.cls-58,.cls-6,.cls-60,.cls-7{stroke-miterlimit:10;}.cls-2,.cls-58,.cls-7{stroke:#231f20;}.cls-3{fill:#8dc63f;}.cls-4,.cls-5,.cls-56,.cls-6,.cls-60,.cls-7{fill:none;}.cls-5{stroke-dasharray:12.12 12.12;}.cls-6{stroke-dasharray:11.8 11.8;}.cls-8{font-size:12px;}.cls-34,.cls-8{fill:#231f20;}.cls-27,.cls-34,.cls-8{font-family:MyriadPro-Regular, Myriad Pro;}.cls-9{letter-spacing:0.01em;}.cls-10{letter-spacing:-0.01em;}.cls-11{letter-spacing:0.01em;}.cls-12{letter-spacing:-0.01em;}.cls-13{letter-spacing:0em;}.cls-14{letter-spacing:-0.01em;}.cls-15{letter-spacing:0.01em;}.cls-16{letter-spacing:-0.01em;}.cls-17{letter-spacing:0em;}.cls-18{letter-spacing:-0.01em;}.cls-19{letter-spacing:0em;}.cls-20{letter-spacing:-0.01em;}.cls-21{letter-spacing:0.02em;}.cls-22{letter-spacing:-0.03em;}.cls-23{letter-spacing:-0.01em;}.cls-24{letter-spacing:0em;}.cls-25{letter-spacing:0em;}.cls-26{letter-spacing:0em;}.cls-27,.cls-34{font-size:17.67px;}.cls-28{letter-spacing:-0.01em;}.cls-29{letter-spacing:-0.01em;}.cls-30{letter-spacing:0.01em;}.cls-31{letter-spacing:-0.01em;}.cls-32{letter-spacing:0em;}.cls-33{letter-spacing:0em;}.cls-35{letter-spacing:0em;}.cls-36{letter-spacing:-0.01em;}.cls-37{letter-spacing:0em;}.cls-38{letter-spacing:-0.01em;}.cls-39{letter-spacing:0.01em;}.cls-40{letter-spacing:-0.04em;}.cls-41{letter-spacing:-0.01em;}.cls-42{letter-spacing:0.02em;}.cls-43{letter-spacing:-0.01em;}.cls-44{letter-spacing:0em;}.cls-45{letter-spacing:-0.01em;}.cls-46{letter-spacing:0.02em;}.cls-47{letter-spacing:0.01em;}.cls-48{letter-spacing:-0.01em;}.cls-49{letter-spacing:0.01em;}.cls-50{letter-spacing:-0.01em;}.cls-51{letter-spacing:-0.01em;}.cls-52{letter-spacing:-0.01em;}.cls-53{letter-spacing:-0.03em;}.cls-54{letter-spacing:0em;}.cls-55{letter-spacing:0.01em;}.cls-56{stroke:#a7a9ac;}.cls-57{fill:#fefefe;}.cls-58{stroke-width:0.5px;}.cls-60{stroke:#939598;}</style></defs><title>Value chain</title><rect class="cls-1" x="314.08" y="61.33" width="407.23" height="192.42" rx="12"/><rect class="cls-1" x="314.08" y="282.7" width="553.03" height="145.46" rx="12"/><rect class="cls-1" x="314.08" y="459.17" width="688.02" height="145.46" rx="12"/><rect class="cls-2" x="328.89" y="197.21" width="162.56" height="36.65" rx="12"/><rect class="cls-2" x="328.89" y="356.17" width="198.8" height="36.65" rx="12"/><rect class="cls-3" x="501" y="635.09" width="108.33" height="24" rx="12"/><rect class="cls-3" x="293.65" width="121.7" height="24" rx="12"/><rect class="cls-3" x="450.37" width="147.58" height="24" rx="12"/><rect class="cls-3" x="638.92" width="162.25" height="24" rx="12"/><rect class="cls-3" x="1008.5" y="519.89" width="140" height="24" rx="12"/><rect class="cls-2" x="328.89" y="518.31" width="189.96" height="36.65" rx="12"/><rect class="cls-2" x="565.8" y="518.31" width="219.17" height="36.65" rx="12"/><rect class="cls-2" x="823.99" y="518.31" width="160.66" height="36.65" rx="12"/><rect class="cls-2" x="633.22" y="356.17" width="219.17" height="36.65" rx="12"/><rect class="cls-2" x="539.8" y="196.48" width="168.61" height="36.65" rx="12"/><line class="cls-4" x1="1361" y1="911.28" x2="1355" y2="911.28"/><line class="cls-5" x1="1342.88" y1="911.28" x2="500.68" y2="911.28"/><line class="cls-4" x1="494.63" y1="911.28" x2="488.63" y2="911.28"/><line class="cls-4" x1="488.63" y1="982.28" x2="488.63" y2="976.28"/><line class="cls-6" x1="488.63" y1="964.48" x2="488.63" y2="923.18"/><line class="cls-4" x1="488.63" y1="917.28" x2="488.63" y2="911.28"/><line class="cls-7" x1="7" y1="982.28" x2="1363" y2="982.28"/><rect class="cls-2" x="0.5" y="969.28" width="74.33" height="26" rx="12"/><rect class="cls-2" x="668.5" y="969.28" width="74.33" height="26" rx="12"/><rect class="cls-2" x="1061.83" y="969.28" width="74.33" height="26" rx="12"/><rect class="cls-2" x="1323.83" y="969.28" width="74.33" height="26" rx="12"/><rect class="cls-2" x="1211.25" y="971.28" width="37.5" height="24" rx="12"/><rect class="cls-2" x="883.58" y="971.28" width="37.5" height="24" rx="12"/><rect class="cls-2" x="883.58" y="899.28" width="37.5" height="24" rx="12"/><rect class="cls-2" x="1342.25" y="899.28" width="37.5" height="24" rx="12"/><rect class="cls-2" x="1211.25" y="899.28" width="37.5" height="24" rx="12"/><rect class="cls-2" x="469.88" y="971.28" width="37.5" height="24" rx="12"/><rect class="cls-2" x="235.96" y="971.28" width="37.5" height="24" rx="12"/><text class="cls-8" transform="translate(9.67 1012.14)">E<tspan class="cls-9" x="5.9" y="0">x</tspan><tspan x="11.62" y="0">t</tspan><tspan class="cls-10" x="15.59" y="0">r</tspan><tspan x="19.45" y="0">a</tspan><tspan class="cls-11" x="25.24" y="0">c</tspan><tspan x="30.77" y="0">tion</tspan></text><text class="cls-8" transform="translate(230.5 1012.14)"><tspan class="cls-12">C</tspan><tspan x="6.83" y="0">olle</tspan><tspan class="cls-9" x="25.09" y="0">c</tspan><tspan x="30.62" y="0">tion</tspan></text><text class="cls-8" transform="translate(469.88 1012.14)"><tspan class="cls-13">S</tspan><tspan class="cls-14" x="5.88" y="0">t</tspan><tspan x="9.78" y="0">o</tspan><tspan class="cls-10" x="16.37" y="0">r</tspan><tspan x="20.23" y="0">age</tspan></text><text class="cls-8" transform="translate(671.67 1012.14)"><tspan class="cls-15">M</tspan><tspan x="9.72" y="0">anufa</tspan><tspan class="cls-9" x="38.06" y="0">c</tspan><tspan class="cls-16" x="43.6" y="0">t</tspan><tspan x="47.5" y="0">o</tspan><tspan class="cls-17" x="54.08" y="0">r</tspan><tspan x="58.05" y="0">ing</tspan></text><text class="cls-8" transform="translate(1066.83 1012.14)"><tspan class="cls-18">C</tspan><tspan x="6.82" y="0">us</tspan><tspan class="cls-16" x="18.18" y="0">t</tspan><tspan x="22.08" y="0">omiz</tspan><tspan class="cls-19" x="46.62" y="0">a</tspan><tspan x="52.35" y="0">tion</tspan></text><text class="cls-8" transform="translate(1211.25 1012.14)"><tspan class="cls-17">D</tspan><tspan x="8.04" y="0">eli</tspan><tspan class="cls-20" x="19.69" y="0">v</tspan><tspan x="25.34" y="0">e</tspan><tspan class="cls-21" x="31.36" y="0">r</tspan><tspan x="35.58" y="0">y</tspan></text><text class="cls-8" transform="translate(880.25 1012.14)"><tspan class="cls-16">A</tspan><tspan x="7.27" y="0">ssembly</tspan></text><text class="cls-8" transform="translate(875.75 938.64)"><tspan class="cls-22">W</tspan><tspan x="9.76" y="0">a</tspan><tspan class="cls-20" x="15.54" y="0">r</tspan><tspan x="19.34" y="0">ehouse</tspan></text><text class="cls-8" transform="translate(1192.25 938.64)">Dist<tspan class="cls-17" x="19.52" y="0">r</tspan><tspan x="23.5" y="0">ibution </tspan><tspan class="cls-16" x="62.31" y="0">c</tspan><tspan x="67.62" y="0">e</tspan><tspan class="cls-19" x="73.63" y="0">n</tspan><tspan x="80.24" y="0">t</tspan><tspan class="cls-23" x="84.21" y="0">r</tspan><tspan x="88.02" y="0">e</tspan></text><text class="cls-8" transform="translate(1342.25 938.64)"><tspan class="cls-15">M</tspan><tspan x="9.72" y="0">a</tspan><tspan class="cls-24" x="15.5" y="0">r</tspan><tspan x="19.48" y="0">ket</tspan></text><text class="cls-8" transform="translate(1327.83 1012.14)"><tspan class="cls-25">S</tspan><tspan class="cls-26" x="5.95" y="0">ales &amp; </tspan><tspan class="cls-15" x="37.68" y="0">S</tspan><tspan x="43.67" y="0">e</tspan><tspan class="cls-21" x="49.68" y="0">r</tspan><tspan x="53.9" y="0">vi</tspan><tspan class="cls-16" x="62.48" y="0">c</tspan><tspan x="67.79" y="0">e</tspan></text><text class="cls-27" transform="translate(298.52 18.41)">G<tspan class="cls-28" x="11.42" y="0">r</tspan><tspan class="cls-29" x="17.02" y="0">o</tspan><tspan x="26.59" y="0">wth fa</tspan><tspan class="cls-30" x="72.68" y="0">c</tspan><tspan class="cls-31" x="80.82" y="0">t</tspan><tspan x="86.57" y="0">ors</tspan></text><text class="cls-27" transform="translate(460.56 18.41)">Empl<tspan class="cls-29" x="37.66" y="0">o</tspan><tspan x="47.23" y="0">yme</tspan><tspan class="cls-32" x="79.15" y="0">n</tspan><tspan x="88.88" y="0">t d</tspan><tspan class="cls-33" x="108.44" y="0">a</tspan><tspan x="116.89" y="0">ta</tspan></text><rect class="cls-2" x="447.28" y="111.07" width="133.14" height="36.65" rx="12"/><text class="cls-34" transform="translate(461.94 135.07)">Establishme<tspan class="cls-32" x="88.81" y="0">n</tspan><tspan x="98.55" y="0">t</tspan></text><text class="cls-34" transform="translate(341.14 220.15)"><tspan class="cls-35">A</tspan><tspan x="10.76" y="0">nnual p</tspan><tspan class="cls-28" x="66.6" y="0">r</tspan><tspan x="72.2" y="0">odu</tspan><tspan class="cls-30" x="101.61" y="0">c</tspan><tspan x="109.75" y="0">tion</tspan></text><text class="cls-34" transform="translate(343.68 86.64)"><tspan class="cls-36">S</tspan><tspan x="8.57" y="0">y</tspan><tspan class="cls-32" x="16.89" y="0">n</tspan><tspan x="26.63" y="0">thesis</tspan></text><text class="cls-34" transform="translate(343.42 374.4)">Bu<tspan class="cls-28" x="19.31" y="0">y</tspan><tspan x="27.46" y="0">e</tspan><tspan class="cls-37" x="36.31" y="0">r</tspan><tspan x="42" y="0">-seller m</tspan><tspan class="cls-32" x="104.73" y="0">a</tspan><tspan class="cls-31" x="113.18" y="0">t</tspan><tspan x="118.92" y="0">ching</tspan></text><text class="cls-34" transform="translate(343.68 305.23)"><tspan class="cls-38">C</tspan><tspan x="10.05" y="0">ommodi</tspan><tspan class="cls-39" x="73.03" y="0">t</tspan><tspan x="79.04" y="0">y fl</tspan><tspan class="cls-29" x="100.35" y="0">o</tspan><tspan class="cls-31" x="109.93" y="0">w</tspan><tspan x="122.83" y="0">s</tspan></text><text class="cls-34" transform="translate(341.96 482.43)"><tspan class="cls-40">T</tspan><tspan class="cls-41" x="7.99" y="0">r</tspan><tspan x="13.68" y="0">anspo</tspan><tspan class="cls-42" x="58.75" y="0">r</tspan><tspan x="64.96" y="0">t &amp; </tspan><tspan class="cls-43" x="88.99" y="0">L</tspan><tspan x="97.08" y="0">o</tspan><tspan class="cls-31" x="106.78" y="0">g</tspan><tspan x="116.56" y="0">istics chain models</tspan></text><text class="cls-34" transform="translate(343.68 541.01)">Dist<tspan class="cls-44" x="28.75" y="0">r</tspan><tspan x="34.6" y="0">ibution channels</tspan></text><text class="cls-27" transform="translate(512.68 652.59)">Shipme<tspan class="cls-32" x="56.3" y="0">n</tspan><tspan x="66.03" y="0">ts</tspan></text><text class="cls-34" transform="translate(575.87 541.01)">Shipme<tspan class="cls-32" x="56.3" y="0">n</tspan><tspan x="66.03" y="0">t si</tspan><tspan class="cls-29" x="86.76" y="0">z</tspan><tspan x="94.2" y="0">e &amp; f</tspan><tspan class="cls-45" x="126.4" y="0">r</tspan><tspan x="132" y="0">equen</tspan><tspan class="cls-46" x="179.2" y="0">c</tspan><tspan x="187.43" y="0">y</tspan></text><text class="cls-34" transform="translate(841.32 538.96)"><tspan class="cls-47">M</tspan><tspan x="14.31" y="0">odes &amp; t</tspan><tspan class="cls-41" x="73.86" y="0">r</tspan><tspan x="79.55" y="0">ans</tspan><tspan class="cls-48" x="104.88" y="0">f</tspan><tspan x="109.81" y="0">er</tspan></text><text class="cls-8" transform="translate(1066.83 821.53)">Ne<tspan class="cls-49" x="13.91" y="0">t</tspan><tspan class="cls-23" x="17.99" y="0">w</tspan><tspan x="26.7" y="0">o</tspan><tspan class="cls-24" x="33.29" y="0">r</tspan><tspan x="37.26" y="0">k fl</tspan><tspan class="cls-50" x="51.71" y="0">o</tspan><tspan x="58.21" y="0">w</tspan></text><text class="cls-27" transform="translate(1016.32 535.53)"><tspan class="cls-40">T</tspan><tspan class="cls-51" x="7.99" y="0">r</tspan><tspan x="13.68" y="0">ans</tspan><tspan class="cls-52" x="39" y="0">f</tspan><tspan x="43.93" y="0">er facilities</tspan></text><text class="cls-34" transform="translate(180.83 591.05)"><tspan class="cls-53">F</tspan><tspan x="7.99" y="0">uel p</tspan><tspan class="cls-54" x="44.55" y="0">r</tspan><tspan x="50.4" y="0">i</tspan><tspan class="cls-31" x="54.53" y="0">c</tspan><tspan x="62.34" y="0">es</tspan></text><text class="cls-34" transform="translate(645.06 374.4)"><tspan class="cls-38">C</tspan><tspan x="10.05" y="0">ommodi</tspan><tspan class="cls-39" x="73.03" y="0">t</tspan><tspan x="79.04" y="0">y fl</tspan><tspan class="cls-29" x="100.35" y="0">o</tspan><tspan x="109.93" y="0">w alloc</tspan><tspan class="cls-32" x="161.16" y="0">a</tspan><tspan x="169.6" y="0">tion</tspan></text><text class="cls-34" transform="translate(545.83 220.15)"><tspan class="cls-35">A</tspan><tspan x="10.76" y="0">nnual </tspan><tspan class="cls-31" x="56.55" y="0">c</tspan><tspan x="64.36" y="0">onsumption</tspan></text><text class="cls-27" transform="translate(648.3 18.41)"><tspan class="cls-55">I</tspan><tspan x="4.4" y="0">ndu / </tspan><tspan class="cls-32" x="47.46" y="0">E</tspan><tspan x="56.09" y="0">du link</tspan></text><line class="cls-7" x1="517.7" y1="147.72" x2="517.7" y2="166.28"/><line class="cls-7" x1="406.36" y1="197.21" x2="406.36" y2="166.06"/><line class="cls-7" x1="628.07" y1="166.37" x2="405.87" y2="166.37"/><line class="cls-7" x1="633.22" y1="374.49" x2="528.92" y2="374.49"/><line class="cls-7" x1="627.58" y1="196.48" x2="627.58" y2="166.37"/><line class="cls-7" x1="415.34" y1="275.69" x2="415.34" y2="253.74"/><line class="cls-7" x1="405.95" y1="275.75" x2="415.19" y2="282.38"/><line class="cls-7" x1="415.34" y1="282.49" x2="424.59" y2="275.86"/><line class="cls-7" x1="406.33" y1="275.88" x2="424.32" y2="275.96"/><line class="cls-7" x1="600" y1="452.37" x2="600" y2="428.16"/><line class="cls-7" x1="590.6" y1="452.43" x2="599.84" y2="459.06"/><line class="cls-7" x1="600" y1="459.17" x2="609.24" y2="452.54"/><line class="cls-7" x1="590.99" y1="452.56" x2="608.98" y2="452.64"/><line class="cls-7" x1="666.14" y1="626.57" x2="666.14" y2="604.62"/><line class="cls-56" x1="666.14" y1="834.67" x2="666.14" y2="814.55"/><line class="cls-7" x1="666.14" y1="687.3" x2="666.14" y2="632.92"/><line class="cls-7" x1="656.74" y1="626.63" x2="665.99" y2="633.26"/><line class="cls-7" x1="666.14" y1="633.37" x2="675.39" y2="626.74"/><line class="cls-7" x1="657.13" y1="626.76" x2="675.12" y2="626.84"/><line class="cls-7" x1="355.4" y1="54.53" x2="355.4" y2="32.58"/><line class="cls-7" x1="346" y1="54.59" x2="355.24" y2="61.22"/><line class="cls-7" x1="355.4" y1="61.33" x2="364.64" y2="54.7"/><line class="cls-7" x1="346.39" y1="54.72" x2="364.38" y2="54.8"/><line class="cls-7" x1="517.05" y1="54.53" x2="517.05" y2="32.58"/><line class="cls-7" x1="507.65" y1="54.59" x2="516.89" y2="61.22"/><line class="cls-7" x1="517.05" y1="61.33" x2="526.29" y2="54.7"/><line class="cls-7" x1="508.04" y1="54.72" x2="526.03" y2="54.8"/><line class="cls-7" x1="675.68" y1="54.53" x2="675.68" y2="32.58"/><line class="cls-7" x1="666.28" y1="54.59" x2="675.53" y2="61.22"/><line class="cls-7" x1="675.68" y1="61.33" x2="684.93" y2="54.7"/><line class="cls-7" x1="666.67" y1="54.72" x2="684.66" y2="54.8"/><path class="cls-57" d="M485.4,856.89q-29.81,0-59.62,0c-.65,0-.77-.13-.77-.77q0-59.71,0-119.43c0-.65.12-.78.77-.78q59.72,0,119.43,0c.64,0,.77.13.77.78q0,59.71,0,119.43c0,.64-.13.77-.77.77Q515.3,856.88,485.4,856.89ZM497.7,775q-17,0-34,0c-.79,0-1,.2-1,1q0,14.47,0,28.95c0,.74.12,1,.95,1q34,0,68,0c.81,0,1-.24,1-1q0-14.48,0-28.94c0-.89-.27-1-1.05-1Q514.63,775,497.7,775Zm1.72,31.85h-.66q-18.76,0-37.54,0c-.86,0-1.08-.22-1.08-1.08,0-8.43,0-16.86,0-25.28,0-.71-.19-.84-.88-.9-2-.19-3.68.52-5.46,1.14-3.08,1.08-6,2.51-9.49,2.24-3.14-.25-4.7,1.21-5.36,4.33-.06.25,0,.55-.4.5-.95-.12-.67.57-.7,1-.05.81.58.52.92.5.67-.05.78.23.76.81,0,1.41,0,2.83,0,4.24a1.08,1.08,0,0,1-.48,1,2.68,2.68,0,0,0-1.19,2.15c0,4.68,0,9.37,0,14,0,.48.2.57.6.61a32.09,32.09,0,0,1,3.27.41c.68.15.8,0,.91-.67a6,6,0,0,1,12,.55c0,.48.15.66.64.64.82,0,1.64,0,2.45,0,.33,0,.56,0,.66.45a2.16,2.16,0,0,0,2.4,1.9h8.68c.95,0,1.89-.34,2.1-1.26.27-1.16,1-1.15,1.82-1.09a8.51,8.51,0,0,0,1.13,0,.78.78,0,0,1,.92.56,1.51,1.51,0,0,0,1.52.92h10a1.46,1.46,0,0,0,1.51-.92c.2-.58.56-.55,1-.55h5.19c.31,0,.66.14.67-.47C495.41,809.86,496.9,808,499.42,806.85Zm17.15.77a5.22,5.22,0,0,0-5.27,5.24,5.32,5.32,0,0,0,5.18,5.17,5.21,5.21,0,1,0,.09-10.41Zm-20.48,5.18a5.22,5.22,0,1,0,5.28-5.18A5.14,5.14,0,0,0,496.09,812.8Zm-52.62,0a5.06,5.06,0,0,0,5.2,5.15,5.15,5.15,0,1,0,0-10.3A5.14,5.14,0,0,0,443.47,812.77Zm74.58-6.06c2.81,1.08,4.44,2.95,4.54,6,0,.43.3.4.58.4,3.17,0,6.35,0,9.52,0,.53,0,.61-.24.61-.68,0-1.7,0-3.39,0-5.09,0-.5-.17-.64-.65-.64C527.78,806.72,522.92,806.71,518.05,806.71Zm-15.11.19a6.28,6.28,0,0,1,4.23,4.31c.19.62-.27,1.54.47,1.83a8.15,8.15,0,0,0,2.05.07c.76.08.91-.22,1-.93a5.68,5.68,0,0,1,3.5-4.94c.18-.09.47-.06.56-.34Z" transform="translate(-66.67 -35.38)"/><path class="cls-58" d="M497.7,775q16.94,0,33.85,0c.78,0,1.05.1,1.05,1q-.06,14.46,0,28.94c0,.76-.14,1-1,1q-34,0-68,0c-.83,0-.95-.27-.95-1q0-14.48,0-28.95c0-.78.17-1,1-1Q480.68,775,497.7,775Z" transform="translate(-66.67 -35.38)"/><path class="cls-3" d="M499.42,806.85c-2.52,1.18-4,3-4.05,5.83,0,.61-.36.47-.67.47h-5.19c-.45,0-.81,0-1,.55a1.46,1.46,0,0,1-1.51.92H477a1.51,1.51,0,0,1-1.52-.92.78.78,0,0,0-.92-.56,8.51,8.51,0,0,1-1.13,0c-.86-.06-1.55-.07-1.82,1.09-.21.92-1.15,1.26-2.1,1.26h-8.68a2.16,2.16,0,0,1-2.4-1.9c-.1-.46-.33-.45-.66-.45-.81,0-1.63,0-2.45,0-.49,0-.61-.16-.64-.64a6,6,0,0,0-12-.55c-.11.64-.23.82-.91.67a32.09,32.09,0,0,0-3.27-.41c-.4,0-.6-.13-.6-.61,0-4.68,0-9.37,0-14a2.68,2.68,0,0,1,1.19-2.15,1.08,1.08,0,0,0,.48-1c0-1.41,0-2.83,0-4.24,0-.58-.09-.86-.76-.81-.34,0-1,.31-.92-.5,0-.47-.25-1.16.7-1,.36,0,.34-.25.4-.5.66-3.12,2.22-4.58,5.36-4.33,3.46.27,6.41-1.16,9.49-2.24,1.78-.62,3.5-1.33,5.46-1.14.69.06.88.19.88.9,0,8.42,0,16.85,0,25.28,0,.86.22,1.08,1.08,1.08q18.78,0,37.54,0Zm-52.28-11.08c1.47,0,2.94,0,4.42,0,.64,0,.79-.2.77-.8,0-1.41,0-2.82,0-4.23,0-.54-.15-.7-.69-.69q-4.51,0-9,0c-.55,0-.67.18-.65.69,0,1.41,0,2.82,0,4.23,0,.6.12.82.76.8C444.19,795.73,445.66,795.77,447.14,795.77Z" transform="translate(-66.67 -35.38)"/><path class="cls-3" d="M516.57,807.62a5.21,5.21,0,1,1-.09,10.41,5.32,5.32,0,0,1-5.18-5.17A5.22,5.22,0,0,1,516.57,807.62Z" transform="translate(-66.67 -35.38)"/><path class="cls-3" d="M496.09,812.8a5.14,5.14,0,0,1,5.28-5.18,5.21,5.21,0,1,1-5.28,5.18Z" transform="translate(-66.67 -35.38)"/><path class="cls-3" d="M443.47,812.77a5.21,5.21,0,0,1,10.42.06,5.2,5.2,0,0,1-5.22,5.09A5.06,5.06,0,0,1,443.47,812.77Z" transform="translate(-66.67 -35.38)"/><path class="cls-3" d="M518.05,806.71c4.87,0,9.73,0,14.6,0,.48,0,.66.14.65.64,0,1.7,0,3.39,0,5.09,0,.44-.08.68-.61.68-3.17,0-6.35,0-9.52,0-.28,0-.57,0-.58-.4C522.49,809.66,520.86,807.79,518.05,806.71Z" transform="translate(-66.67 -35.38)"/><path class="cls-3" d="M502.94,806.9h11.78c-.09.28-.38.25-.56.34a5.68,5.68,0,0,0-3.5,4.94c-.06.71-.21,1-1,.93a8.15,8.15,0,0,1-2.05-.07c-.74-.29-.28-1.21-.47-1.83A6.28,6.28,0,0,0,502.94,806.9Z" transform="translate(-66.67 -35.38)"/><path class="cls-57" d="M447.14,795.77c-1.48,0-2.95,0-4.43,0-.64,0-.77-.2-.76-.8,0-1.41,0-2.82,0-4.23,0-.51.1-.7.65-.69q4.51,0,9,0c.54,0,.7.15.69.69,0,1.41,0,2.82,0,4.23,0,.6-.13.82-.77.8C450.08,795.73,448.61,795.77,447.14,795.77Z" transform="translate(-66.67 -35.38)"/><path class="cls-57" d="M597.74,747.15q51.84,0,103.68,0c1.6,0,1.92.31,1.92,1.91q-.09,50.91,0,101.82c0,1.6-.32,1.91-1.92,1.91q-50.89-.09-101.81,0c-1.6,0-1.92-.31-1.91-1.91Q597.79,799,597.74,747.15Zm8.54,68.15A27.87,27.87,0,0,0,614,817c7.31,1,14.62,2.16,21.81-.88,2.7-1.14,5.58-1.87,8.37-2.8,16.79-5.55,33.65-10.86,50.34-16.72a14.43,14.43,0,0,0,7.24-5.61c1.41-2.06,1-3.49-1.29-4.41a12.73,12.73,0,0,0-8.67-.24c-9.6,3.08-19.17,6.27-28.73,9.48a4,4,0,0,1-3.11,0c-3.36-1.42-6.76-2.74-10.15-4.08-7.35-2.91-14.74-5.75-22.06-8.75-2.85-1.17-3.36,1.49-4.73,2.64s.33,1.74.84,2.37q6,7.42,12.22,14.73c1.07,1.26,1.26,1.78-.62,2.4-6.7,2.21-13.35,4.59-20,6.93C612.55,813,609.67,814.08,606.28,815.3Zm9.36-5.37,0-.6q-7-3.35-14-6.67c-1.62-.77-2,.92-3,1.51-.76.46-.41,1,.06,1.52q3,3.42,6,6.85a1.5,1.5,0,0,0,1.83.55C609.53,812,612.59,811,615.64,809.93Z" transform="translate(-66.67 -35.38)"/><path class="cls-3" d="M606.28,815.3c3.39-1.22,6.27-2.26,9.15-3.27,6.66-2.34,13.31-4.72,20-6.93,1.88-.62,1.69-1.14.62-2.4q-6.19-7.31-12.22-14.73c-.51-.63-2.12-1.29-.84-2.37s1.88-3.81,4.73-2.64c7.32,3,14.71,5.84,22.06,8.75,3.39,1.34,6.79,2.66,10.15,4.08a4,4,0,0,0,3.11,0c9.56-3.21,19.13-6.4,28.73-9.48a12.73,12.73,0,0,1,8.67.24c2.32.92,2.7,2.35,1.29,4.41a14.43,14.43,0,0,1-7.24,5.61c-16.69,5.86-33.55,11.17-50.34,16.72-2.79.93-5.67,1.66-8.37,2.8-7.19,3-14.5,1.87-21.81.88A27.87,27.87,0,0,1,606.28,815.3Z" transform="translate(-66.67 -35.38)"/><path class="cls-58" d="M615.64,809.93c-3,1.05-6.11,2.08-9.15,3.16a1.5,1.5,0,0,1-1.83-.55q-3-3.43-6-6.85c-.47-.52-.82-1.06-.06-1.52,1-.59,1.38-2.28,3-1.51q7,3.32,14,6.67Z" transform="translate(-66.67 -35.38)"/><path class="cls-59" d="M775,797.08V762.16h90.14V819H850.37l14.7-24.67-.29,0H850.49a.88.88,0,0,0-.54.25c-.62.66-1.23,1.33-1.81,2a1,1,0,0,1-.86.38q-16,0-32.07,0-16.77,0-33.54.07Zm4.16-11.34v9.65h24.21v-9.65Zm16.32-10.89h-8.41v8.89h8.41Zm29.22,13-.26,0c-2.77,0-5.53,0-8.3,0-.35,0-.4.15-.4.44,0,2.31,0,4.62,0,6.93a2.58,2.58,0,0,0,0,.39h8.91Zm21.32,0-.2,0h-8.4c-.39,0-.37.21-.36.47v6.84c0,.14,0,.29,0,.43H846Zm-21.32-1.1v-7.7h-8.92v7.7Zm12.4-7.71v7.69H846v-7.69ZM814,787.85l-.26,0c-2.71,0-5.42,0-8.13,0-.35,0-.39.16-.39.45,0,2.29,0,4.59,0,6.88,0,.14,0,.27,0,.42H814Zm21.32,0h-8.75v7.7h8.75ZM814,786.76v-7.69h-8.75v7.69Zm12.58-7.7v7.69h8.73v-7.69Zm-31.14-7.85c-.85-.2-1.66-.42-2.48-.56-.37-.07-.43-.22-.43-.54q0-3.61-.07-7.21c0-.17,0-.33,0-.56h-2.18v.53c0,2.4,0,4.81,0,7.21,0,.33-.08.48-.43.55a21,21,0,0,0-2.18.53.81.81,0,0,0-.52.48,11.14,11.14,0,0,0,0,1.53h8.44c0-.18,0-.32,0-.45C795.47,772.23,795.43,771.74,795.4,771.21Z" transform="translate(-66.67 -35.38)"/><path class="cls-58" d="M775,797.08h6.66q16.77,0,33.54-.07,16,0,32.07,0a1,1,0,0,0,.86-.38c.58-.69,1.19-1.36,1.81-2a.88.88,0,0,1,.54-.25h14.29l.29,0L850.37,819h-67c0-.08,0-.17-.08-.26l-6.21-16c-.7-1.82-1.38-3.64-2.08-5.47Zm71.32,7.42a1.83,1.83,0,0,0-1.84-1.82,1.94,1.94,0,0,0-1.8,1.85,1.91,1.91,0,0,0,1.85,1.8A1.86,1.86,0,0,0,846.33,804.5Zm-10.88-1.82a1.89,1.89,0,0,0-1.72,1.83,2,2,0,0,0,1.9,1.83,2.08,2.08,0,0,0,1.8-1.88A2,2,0,0,0,835.45,802.68Z" transform="translate(-66.67 -35.38)"/><path class="cls-59" d="M775,797.26c.7,1.83,1.38,3.65,2.08,5.47l6.21,16c0,.09.05.18.08.26H775Z" transform="translate(-66.67 -35.38)"/><path class="cls-3" d="M779.17,785.74h24.21v9.65H779.17Z" transform="translate(-66.67 -35.38)"/><path class="cls-3" d="M795.49,774.85v8.89h-8.41v-8.89Z" transform="translate(-66.67 -35.38)"/><path class="cls-3" d="M824.71,787.86v7.72H815.8a2.58,2.58,0,0,1,0-.39c0-2.31,0-4.62,0-6.93,0-.29,0-.44.4-.44,2.77,0,5.53,0,8.3,0Z" transform="translate(-66.67 -35.38)"/><path class="cls-3" d="M846,787.87v7.7h-8.94c0-.14,0-.29,0-.43V788.3c0-.26,0-.48.36-.47h8.4Z" transform="translate(-66.67 -35.38)"/><path class="cls-3" d="M824.71,786.77h-8.92v-7.7h8.92Z" transform="translate(-66.67 -35.38)"/><path class="cls-3" d="M837.11,779.06H846v7.69h-8.91Z" transform="translate(-66.67 -35.38)"/><path class="cls-3" d="M814,787.85v7.72h-8.75c0-.15,0-.28,0-.42,0-2.29,0-4.59,0-6.88,0-.29,0-.45.39-.45,2.71,0,5.42,0,8.13,0Z" transform="translate(-66.67 -35.38)"/><path class="cls-3" d="M835.28,787.87v7.7h-8.75v-7.7Z" transform="translate(-66.67 -35.38)"/><path class="cls-3" d="M814,786.76h-8.75v-7.69H814Z" transform="translate(-66.67 -35.38)"/><path class="cls-3" d="M826.54,779.06h8.73v7.69h-8.73Z" transform="translate(-66.67 -35.38)"/><path class="cls-3" d="M795.4,771.21c0,.53.07,1,.1,1.51,0,.13,0,.27,0,.45h-8.44a11.14,11.14,0,0,1,0-1.53.81.81,0,0,1,.52-.48,21,21,0,0,1,2.18-.53c.35-.07.43-.22.43-.55,0-2.4,0-4.81,0-7.21v-.53h2.18c0,.23,0,.39,0,.56q0,3.6.07,7.21c0,.32.06.47.43.54C793.74,770.79,794.55,771,795.4,771.21Z" transform="translate(-66.67 -35.38)"/><path class="cls-59" d="M846.33,804.5a1.86,1.86,0,0,1-1.79,1.83,1.91,1.91,0,0,1-1.85-1.8,1.94,1.94,0,0,1,1.8-1.85A1.83,1.83,0,0,1,846.33,804.5Z" transform="translate(-66.67 -35.38)"/><path class="cls-59" d="M835.45,802.68a2,2,0,0,1,2,1.78,2.08,2.08,0,0,1-1.8,1.88,2,2,0,0,1-1.9-1.83A1.89,1.89,0,0,1,835.45,802.68Z" transform="translate(-66.67 -35.38)"/><path class="cls-59" d="M994.63,749.74h64.73v76H927.73v-76h60.62a2.85,2.85,0,0,1-.48.13c-1.64.21-3.3.31-4.92.63a23.18,23.18,0,0,0-12.29,6.38,10.2,10.2,0,0,0-3.3,7.94c.18,4.76,0,9.54,0,14.31,0,5.34,0,10.67,0,16a8.77,8.77,0,0,0,6.08,8.54,1.73,1.73,0,0,1,.28.16c-3.16,4.56-6.28,9.09-9.47,13.72,3.08,0,6,0,8.91,0a.87.87,0,0,0,.6-.47c.51-1.07,1-2.15,1.45-3.26a.9.9,0,0,1,1-.64c2.36,0,4.72,0,7.08,0h24.91a.81.81,0,0,1,.91.59c.44,1.08.95,2.13,1.39,3.21a.83.83,0,0,0,.9.62c2.68,0,5.36,0,8,0a5.88,5.88,0,0,0,.61-.06l-9.53-13.69.51-.2a9,9,0,0,0,6-8.64c0-10.27,0-20.55,0-30.82a9.16,9.16,0,0,0-3.51-7.52,28.64,28.64,0,0,0-15-6.43Z" transform="translate(-66.67 -35.38)"/><path class="cls-3" d="M994.63,749.74l4,.44a28.64,28.64,0,0,1,15,6.43,9.16,9.16,0,0,1,3.51,7.52c-.05,10.27,0,20.55,0,30.82a9,9,0,0,1-6,8.64l-.51.2,9.53,13.69a5.88,5.88,0,0,1-.61.06c-2.68,0-5.36,0-8,0a.83.83,0,0,1-.9-.62c-.44-1.08-1-2.13-1.39-3.21a.81.81,0,0,0-.91-.59H983.37c-2.36,0-4.72,0-7.08,0a.9.9,0,0,0-1,.64c-.44,1.11-.94,2.19-1.45,3.26a.87.87,0,0,1-.6.47c-2.91,0-5.83,0-8.91,0,3.19-4.63,6.31-9.16,9.47-13.72a1.73,1.73,0,0,0-.28-.16,8.77,8.77,0,0,1-6.08-8.54c0-5.33,0-10.66,0-16,0-4.77.14-9.55,0-14.31a10.2,10.2,0,0,1,3.3-7.94A23.18,23.18,0,0,1,983,750.5c1.62-.32,3.28-.42,4.92-.63a2.85,2.85,0,0,0,.48-.13Zm17.86,13.78H971.91V777h40.58Zm-34.88,45.09h29.17c-.58-1.32-1.16-2.57-1.68-3.85a.92.92,0,0,0-1-.67c-3,0-6,0-9.05,0H980.37c-.26,0-.68.06-.76.22C978.92,805.72,978.29,807.13,977.61,808.61ZM992.27,759H999a2.15,2.15,0,0,0,2.39-2.24,2.19,2.19,0,0,0-2.37-2.29H985.58a2.2,2.2,0,0,0-2.36,2.31,2.17,2.17,0,0,0,2.34,2.23Zm18,41.52a3.11,3.11,0,0,0,3.23-3.13,3.23,3.23,0,1,0-3.23,3.13ZM971,797.28a3.11,3.11,0,0,0,3.21,3.21,3.19,3.19,0,0,0,3.21-3.17,3.24,3.24,0,0,0-3.17-3.24A3.19,3.19,0,0,0,971,797.28Z" transform="translate(-66.67 -35.38)"/><path class="cls-59" d="M1012.49,763.52V777H971.91V763.52Z" transform="translate(-66.67 -35.38)"/><path class="cls-59" d="M977.61,808.61c.68-1.48,1.31-2.89,2-4.27.08-.16.5-.22.76-.22H995c3,0,6,0,9.05,0a.92.92,0,0,1,1,.67c.52,1.28,1.1,2.53,1.68,3.85Z" transform="translate(-66.67 -35.38)"/><path class="cls-59" d="M992.27,759h-6.71a2.17,2.17,0,0,1-2.34-2.23,2.2,2.2,0,0,1,2.36-2.31H999a2.19,2.19,0,0,1,2.37,2.29A2.15,2.15,0,0,1,999,759h-6.72Z" transform="translate(-66.67 -35.38)"/><path class="cls-59" d="M1010.28,800.49a3.2,3.2,0,1,1,3.23-3.13A3.11,3.11,0,0,1,1010.28,800.49Z" transform="translate(-66.67 -35.38)"/><path class="cls-59" d="M971,797.28a3.19,3.19,0,0,1,3.25-3.2,3.24,3.24,0,0,1,3.17,3.24,3.19,3.19,0,0,1-3.21,3.17A3.11,3.11,0,0,1,971,797.28Z" transform="translate(-66.67 -35.38)"/><line class="cls-7" x1="424.18" y1="722.15" x2="424.18" y2="686.81"/><line class="cls-7" x1="424.18" y1="815.03" x2="424.18" y2="791.45"/><line class="cls-7" x1="578.86" y1="815.03" x2="578.86" y2="791.45"/><line class="cls-7" x1="760.11" y1="815.03" x2="760.11" y2="791.45"/><line class="cls-7" x1="924.55" y1="815.03" x2="924.55" y2="791.45"/><line class="cls-7" x1="578.86" y1="722.15" x2="578.86" y2="686.81"/><line class="cls-7" x1="760.11" y1="722.15" x2="760.11" y2="686.81"/><line class="cls-7" x1="924.55" y1="704.48" x2="924.55" y2="686.81"/><line class="cls-7" x1="423.93" y1="687.3" x2="924.55" y2="687.3"/><line class="cls-7" x1="423.93" y1="814.55" x2="924.55" y2="814.55"/><path class="cls-59" d="M251.6,608.12V529.77H330v78.35Zm57.2-58.69c-1.27-.13-2.64.13-3.35-.43-1.73-1.38-3.61-2.73-3.27-5.6.32-2.69-1.08-3.89-3.81-3.89h-27.9c-2.59,0-3.9,1.25-3.9,3.78q0,25.49,0,51a3.5,3.5,0,0,0,3.8,3.78q14.11,0,28.25,0a3.41,3.41,0,0,0,3.63-3.7c0-4.62,0-9.25,0-13.87v-1.79c2.74-.43,3.39.11,3.4,2.59,0,2,0,4,0,6.07a3.94,3.94,0,0,0,3.29,4.07c3.74.88,6.31-1.07,6.36-4.91.05-4.39-.23-8.79.08-13.16.29-4.2-.7-7.6-4.12-10.18a3.52,3.52,0,0,1-1.12-1.31,12.48,12.48,0,0,1-1.3-3.78C308.67,555.24,308.8,552.4,308.8,549.43Z" transform="translate(-66.67 -35.38)"/><path class="cls-3" d="M308.8,549.43c0,3-.13,5.81.06,8.62a12.48,12.48,0,0,0,1.3,3.78,3.52,3.52,0,0,0,1.12,1.31c3.42,2.58,4.41,6,4.12,10.18-.31,4.37,0,8.77-.08,13.16-.05,3.84-2.62,5.79-6.36,4.91a3.94,3.94,0,0,1-3.29-4.07c-.05-2,0-4,0-6.07,0-2.48-.66-3-3.4-2.59v1.79c0,4.62,0,9.25,0,13.87a3.41,3.41,0,0,1-3.63,3.7q-14.13,0-28.25,0a3.5,3.5,0,0,1-3.8-3.78q0-25.49,0-51c0-2.53,1.31-3.78,3.9-3.78h27.9c2.73,0,4.13,1.2,3.81,3.89-.34,2.87,1.54,4.22,3.27,5.6C306.16,549.56,307.53,549.3,308.8,549.43ZM273.16,559h22.63V546.15H273.16Zm29.17,16.27h2.52q3.93.09,3.95,4c0,2.25,0,4.5,0,6.74,0,1.25.23,2.32,1.65,2.33s1.69-1.13,1.68-2.33c0-3.18,0-6.35,0-9.52-.11-8.41,1-6.45-4.75-12.48l-.23-.25a4.86,4.86,0,0,1-1.5-3.89c.09-1.3,0-2.61,0-3.93h-3.32Z" transform="translate(-66.67 -35.38)"/><path class="cls-59" d="M273.16,559V546.15h22.63V559Z" transform="translate(-66.67 -35.38)"/><path class="cls-59" d="M302.33,575.25V555.88h3.32c0,1.32.08,2.63,0,3.93a4.86,4.86,0,0,0,1.5,3.89l.23.25c5.72,6,4.64,4.07,4.75,12.48,0,3.17,0,6.34,0,9.52,0,1.2-.25,2.33-1.68,2.33s-1.68-1.08-1.65-2.33c0-2.24,0-4.49,0-6.74q0-3.87-3.95-4Z" transform="translate(-66.67 -35.38)"/><line class="cls-56" x1="1159.65" y1="531.89" x2="1192.25" y2="531.89"/><line class="cls-56" x1="666.14" y1="834.67" x2="1192.25" y2="834.67"/><line class="cls-56" x1="1192.25" y1="531.89" x2="1192.25" y2="834.67"/><line class="cls-60" x1="314.08" y1="536.64" x2="263.28" y2="536.64"/></svg>