<svg id="Ebene_1" data-name="Ebene 1" xmlns="http://www.w3.org/2000/svg" xmlns:xlink="http://www.w3.org/1999/xlink" viewBox="0 0 1464 764"><defs><style>.cls-1,.cls-19,.cls-50,.cls-51,.cls-52,.cls-53,.cls-54,.cls-55,.cls-56,.cls-57,.cls-58,.cls-59,.cls-60,.cls-61,.cls-62,.cls-63,.cls-64,.cls-65{fill:none;}.cls-2{clip-path:url(#clip-path);}.cls-3,.cls-9{font-size:24px;font-family:NeueHaasUnicaW06-Bold;font-weight:700;}.cls-12,.cls-22,.cls-29,.cls-3,.cls-36,.cls-47,.cls-9{fill:#1d1d1b;}.cls-4{letter-spacing:-0.01em;}.cls-5{letter-spacing:-0.01em;}.cls-6{letter-spacing:-0.01em;}.cls-7{letter-spacing:0em;}.cls-8{letter-spacing:-0.01em;}.cls-9{letter-spacing:-0.01em;}.cls-10{letter-spacing:0.01em;}.cls-11{letter-spacing:0em;}.cls-12,.cls-22,.cls-29,.cls-36,.cls-47{font-size:18px;font-family:NeueHaasUnicaW06-Regular;}.cls-13{letter-spacing:-0.02em;}.cls-14{letter-spacing:-0.02em;}.cls-15{letter-spacing:0.01em;}.cls-16{letter-spacing:-0.01em;}.cls-17{letter-spacing:-0.02em;}.cls-18{letter-spacing:0em;}.cls-19,.cls-50,.cls-51,.cls-55,.cls-56,.cls-57,.cls-58,.cls-59,.cls-60,.cls-61,.cls-62,.cls-63,.cls-64,.cls-65{stroke:#1d1d1b;}.cls-19{stroke-width:0.5px;}.cls-20,.cls-36{letter-spacing:0.01em;}.cls-21{letter-spacing:0em;}.cls-22{letter-spacing:0em;}.cls-23{letter-spacing:0em;}.cls-24{letter-spacing:-0.02em;}.cls-25{letter-spacing:-0.01em;}.cls-26{letter-spacing:0.01em;}.cls-27{letter-spacing:-0.01em;}.cls-28{letter-spacing:-0.01em;}.cls-29{letter-spacing:0em;}.cls-30{letter-spacing:-0.02em;}.cls-31{letter-spacing:0.01em;}.cls-32{letter-spacing:-0.02em;}.cls-33{letter-spacing:0em;}.cls-34{letter-spacing:0.01em;}.cls-35{letter-spacing:-0.01em;}.cls-37{letter-spacing:0em;}.cls-38{letter-spacing:-0.01em;}.cls-39{letter-spacing:-0.01em;}.cls-40{letter-spacing:-0.01em;}.cls-41{letter-spacing:-0.02em;}.cls-42{letter-spacing:0.01em;}.cls-43{letter-spacing:-0.02em;}.cls-44{letter-spacing:0.01em;}.cls-45{letter-spacing:-0.01em;}.cls-46{letter-spacing:0em;}.cls-47{letter-spacing:0.01em;}.cls-48{letter-spacing:0em;}.cls-49{letter-spacing:0.01em;}.cls-50{stroke-dasharray:12.16 12.16;}.cls-52,.cls-53,.cls-54{stroke:#3fa535;}.cls-53{stroke-dasharray:11.92 11.92;}.cls-54{stroke-dasharray:12.18 12.18;}.cls-55{stroke-dasharray:11.84 11.84;}.cls-56{stroke-dasharray:13.64 13.64;}.cls-57{stroke-dasharray:11.48 11.48;}.cls-58{stroke-dasharray:5.82 5.82;}.cls-59{stroke-dasharray:12.75 12.75;}.cls-60{stroke-dasharray:11.8 11.8;}.cls-61{stroke-dasharray:12.39 12.39;}.cls-62{stroke-dasharray:12.44 12.44;}.cls-63{stroke-dasharray:10.66 10.66;}.cls-64{stroke-dasharray:12.05 12.05;}.cls-65{stroke-dasharray:10.95 10.95;}</style><clipPath id="clip-path" transform="translate(-20.92 -20.13)"><rect class="cls-1" x="0.42" y="0.13" width="1505" height="804"/></clipPath></defs><title>1.1</title><g class="cls-2"><text class="cls-3" transform="translate(682.79 27.98)">acti<tspan class="cls-4" x="41.81" y="0">v</tspan><tspan class="cls-5" x="53.74" y="0">a</tspan><tspan class="cls-6" x="66.65" y="0">t</tspan><tspan class="cls-7" x="74.9" y="0">or</tspan></text><text class="cls-3" transform="translate(199.87 27.98)">trigge<tspan class="cls-8" x="66.72" y="0">r</tspan><tspan x="75.96" y="0">s</tspan></text><text class="cls-9" transform="translate(1190.51 27.98)">r<tspan class="cls-10" x="9.14" y="0">o</tspan><tspan class="cls-11" x="23.52" y="0">o</tspan><tspan class="cls-7" x="37.58" y="0">ts</tspan></text><text class="cls-12" transform="translate(1200.94 406.12)"><tspan class="cls-13">f</tspan><tspan x="5.22" y="0">o</tspan><tspan class="cls-14" x="15.39" y="0">r</tspan><tspan class="cls-15" x="21.56" y="0">e</tspan><tspan x="31.57" y="0" xml:space="preserve">st  </tspan></text><text class="cls-12" transform="translate(1170.7 427.72)"><tspan class="cls-16">k</tspan><tspan x="8.82" y="0">inde</tspan><tspan class="cls-17" x="43.85" y="0">r</tspan><tspan x="50.02" y="0">ga</tspan><tspan class="cls-17" x="69.89" y="0">r</tspan><tspan class="cls-18" x="76.07" y="0">den</tspan></text><rect class="cls-19" x="1165.3" y="384.89" width="117.5" height="48.5"/><text class="cls-12" transform="translate(1200.63 251.42)">g<tspan class="cls-17" x="10.31" y="0">r</tspan><tspan class="cls-20" x="16.49" y="0">e</tspan><tspan class="cls-21" x="26.57" y="0">en </tspan></text><text class="cls-12" transform="translate(1182.26 273.02)">class<tspan class="cls-17" x="41.34" y="0">r</tspan><tspan class="cls-20" x="47.52" y="0">o</tspan><tspan x="57.87" y="0">om</tspan></text><rect class="cls-19" x="1165.3" y="230.19" width="117.5" height="48.5"/><text class="cls-22" transform="translate(222.07 574.49)">y<tspan class="cls-23" x="8.46" y="0">outh </tspan></text><text class="cls-12" transform="translate(206.42 596.09)">mig<tspan class="cls-24" x="30.24" y="0">r</tspan><tspan class="cls-25" x="36.34" y="0">a</tspan><tspan x="45.74" y="0">tion</tspan></text><rect class="cls-19" x="185.88" y="553.25" width="117.5" height="48.5"/><text class="cls-12" transform="translate(1187.07 483.47)"><tspan class="cls-20">be</tspan><tspan class="cls-15" x="20.63" y="0">e</tspan><tspan x="30.64" y="0">s and </tspan></text><text class="cls-12" transform="translate(1168.39 505.07)">in<tspan class="cls-15" x="14.76" y="0">s</tspan><tspan class="cls-26" x="23.76" y="0">e</tspan><tspan class="cls-18" x="33.82" y="0">cts h</tspan><tspan class="cls-27" x="72.59" y="0">o</tspan><tspan class="cls-28" x="82.67" y="0">t</tspan><tspan x="88.16" y="0">els</tspan></text><rect class="cls-19" x="1165.3" y="462.23" width="117.5" height="48.5"/><text class="cls-29" transform="translate(1184.63 638.17)">w<tspan class="cls-18" x="13.82" y="0">or</tspan><tspan class="cls-30" x="30.51" y="0">k</tspan><tspan class="cls-21" x="39.08" y="0">shop</tspan></text><rect class="cls-19" x="1165.3" y="616.93" width="117.5" height="48.5"/><text class="cls-12" transform="translate(1174.35 560.82)"><tspan class="cls-15">s</tspan><tspan class="cls-20" x="9" y="0">e</tspan><tspan class="cls-31" x="19.08" y="0">e</tspan><tspan class="cls-18" x="29.14" y="0">d mar</tspan><tspan class="cls-32" x="75.26" y="0">k</tspan><tspan class="cls-33" x="83.83" y="0">e</tspan><tspan x="93.63" y="0">t</tspan></text><rect class="cls-19" x="1165.3" y="539.59" width="117.5" height="48.5"/><text class="cls-12" transform="translate(1185.87 174.07)">high <tspan class="cls-14" x="39.58" y="0">r</tspan><tspan x="45.75" y="0">o</tspan><tspan class="cls-26" x="55.92" y="0">p</tspan><tspan x="66.46" y="0">e </tspan></text><text class="cls-12" transform="translate(1196.33 195.67)"><tspan class="cls-34">c</tspan><tspan x="9.72" y="0">ou</tspan><tspan class="cls-6" x="30.26" y="0">r</tspan><tspan class="cls-15" x="36.54" y="0">s</tspan><tspan class="cls-21" x="45.54" y="0">e</tspan></text><rect class="cls-19" x="1165.3" y="152.84" width="117.5" height="48.5"/><text class="cls-12" transform="translate(1179.12 715.52)">m<tspan class="cls-25" x="15.53" y="0">a</tspan><tspan x="24.93" y="0">t</tspan><tspan class="cls-35" x="30.69" y="0">a</tspan><tspan x="40.03" y="0">uk (fb)</tspan></text><rect class="cls-19" x="1165.3" y="694.28" width="117.5" height="48.5"/><text class="cls-36" transform="translate(691.75 674.69)">e<tspan class="cls-37" x="10.08" y="0">duc</tspan><tspan class="cls-38" x="40.43" y="0">a</tspan><tspan class="cls-21" x="49.8" y="0">tion </tspan></text><rect class="cls-19" x="673.25" y="653.46" width="117.5" height="48.5"/><text class="cls-12" transform="translate(676.83 565.85)">i<tspan class="cls-39" x="4.39" y="0">n</tspan><tspan x="14.63" y="0">frustructu</tspan><tspan class="cls-14" x="94.28" y="0">r</tspan><tspan class="cls-21" x="100.46" y="0">e</tspan></text><rect class="cls-19" x="673.25" y="544.61" width="117.5" height="48.5"/><text class="cls-12" transform="translate(187.19 233.45)">learning in the </text><text class="cls-12" transform="translate(218.65 255.05)">n<tspan class="cls-40" x="10.37" y="0">a</tspan><tspan x="19.76" y="0">tu</tspan><tspan class="cls-14" x="35.89" y="0">r</tspan><tspan class="cls-23" x="42.07" y="0">e</tspan></text><rect class="cls-19" x="185.88" y="212.21" width="117.5" height="48.5"/><text class="cls-12" transform="translate(198.55 403.97)">demand <tspan class="cls-41" x="70.23" y="0">f</tspan><tspan x="75.45" y="0">or </tspan></text><text class="cls-12" transform="translate(190.83 425.57)">l<tspan class="cls-42" x="4.39" y="0">o</tspan><tspan x="14.74" y="0">cal m</tspan><tspan class="cls-38" x="57.98" y="0">a</tspan><tspan class="cls-28" x="67.35" y="0">t</tspan><tspan class="cls-23" x="72.84" y="0">erial</tspan></text><rect class="cls-19" x="185.88" y="382.73" width="117.5" height="48.5"/><text class="cls-12" transform="translate(701.38 348.17)"><tspan class="cls-41">f</tspan><tspan x="5.22" y="0">o</tspan><tspan class="cls-43" x="15.39" y="0">r</tspan><tspan class="cls-44" x="21.58" y="0">e</tspan><tspan x="31.59" y="0">stry</tspan></text><rect class="cls-19" x="673.25" y="326.93" width="117.5" height="48.5"/><text class="cls-12" transform="translate(687.2 130.49)">inhabita<tspan class="cls-45" x="64.76" y="0">n</tspan><tspan x="74.95" y="0">ts</tspan></text><rect class="cls-19" x="673.25" y="109.25" width="117.5" height="48.5"/><text class="cls-12" transform="translate(1170.34 96.72)">simple hou<tspan class="cls-46" x="88.52" y="0">s</tspan><tspan x="97.5" y="0">e</tspan></text><rect class="cls-19" x="1165.3" y="75.49" width="117.5" height="48.5"/><text class="cls-47" transform="translate(680.95 239.33)">c<tspan class="cls-23" x="9.7" y="0">onstruction</tspan></text><rect class="cls-19" x="673.25" y="218.09" width="117.5" height="48.5"/><text class="cls-12" transform="translate(706.56 457.01)"><tspan class="cls-42">p</tspan><tspan class="cls-48" x="10.55" y="0">ow</tspan><tspan x="34.51" y="0">er</tspan></text><rect class="cls-19" x="673.25" y="435.77" width="117.5" height="48.5"/><text class="cls-12" transform="translate(1181.12 328.77)">t<tspan class="cls-14" x="5.76" y="0">r</tspan><tspan class="cls-49" x="11.93" y="0">e</tspan><tspan x="22.01" y="0">e hou</tspan><tspan class="cls-46" x="66.96" y="0">s</tspan><tspan x="75.94" y="0">e </tspan></text><text class="cls-12" transform="translate(1203.96 350.37)">h<tspan class="cls-27" x="10.37" y="0">o</tspan><tspan class="cls-28" x="20.45" y="0">t</tspan><tspan x="25.94" y="0">el</tspan></text><rect class="cls-19" x="1165.3" y="307.54" width="117.5" height="48.5"/><line class="cls-50" x1="1309" y1="372.81" x2="1309" y2="111.4"/><path class="cls-51" d="M1310.08,119.36h-6.61m26.45,6.08v-6.08h-6.62m0,291.82h6.62V405.1m-26.45,6.08h6.61" transform="translate(-20.92 -20.13)"/><g class="cls-2"><rect class="cls-52" x="0.5" y="0.5" width="1462.75" height="41"/><rect class="cls-52" x="0.5" y="0.5" width="1463" height="763"/><line class="cls-53" x1="488.5" y1="18.38" x2="488.5" y2="751.58"/><line class="cls-54" x1="506.76" y1="763.5" x2="963.32" y2="763.5"/><line class="cls-53" x1="975.5" y1="745.62" x2="975.5" y2="12.42"/><line class="cls-54" x1="957.24" y1="0.5" x2="500.68" y2="0.5"/><path class="cls-52" d="M515.5,20.63h-6.08v6m487,0v-6h-6.09m0,763h6.09v-6m-487,0v6h6.08" transform="translate(-20.92 -20.13)"/></g><polyline class="cls-51" points="303.63 400.58 518.25 400.58 518.25 351.18 673.5 351.18"/><polyline class="cls-51" points="518.75 351.18 518.75 236.46 673 236.46"/><polyline class="cls-51" points="303.63 235.96 446.5 235.96 446.5 687.5 673.5 687.5"/><polyline class="cls-51" points="302.63 563.84 555.5 563.84 555.5 133.5 673 133.5"/><polyline class="cls-51" points="790.5 677.71 1011.5 677.71 1011.5 254.94 1165.05 254.94"/><line class="cls-51" x1="1165.05" y1="409.14" x2="1010.5" y2="409.14"/><line class="cls-51" x1="1165.05" y1="641.18" x2="1010.5" y2="641.18"/><polyline class="cls-51" points="790.5 456.83 944.5 456.83 944.5 342.61 1165.05 342.61"/><polyline class="cls-51" points="790.5 235.46 1036.5 235.46 1036.5 99.74 1165.55 99.74"/><polyline class="cls-51" points="1035.5 235.96 1035.5 320.5 1165.55 320.5"/><polyline class="cls-51" points="1165.05 563.84 916.5 563.84 916.5 141.07 790.5 141.07"/><line class="cls-51" x1="791" y1="348.67" x2="915.5" y2="348.67"/><polyline class="cls-51" points="791 123.74 1079.5 123.74 1079.5 177.09 1165.55 177.09"/><line class="cls-55" x1="808.5" y1="373.54" x2="808.5" y2="557.03"/><path class="cls-51" d="M815.92,589h-4.5m18-5.92V589h-4.5M825,375.91h4.38v5.92m-17.5-5.92h4.37" transform="translate(-20.92 -20.13)"/><line class="cls-56" x1="1308.5" y1="466.03" x2="1308.5" y2="418.31"/><path class="cls-51" d="M1310.33,424.8H1304m25.45,6.82V424.8h-6.37m0,81.81h6.37v-6.82M1304,506.61h6.36" transform="translate(-20.92 -20.13)"/><line class="cls-57" x1="1304.5" y1="575.23" x2="1304.5" y2="707.3"/><path class="cls-51" d="M1309.33,738.91H1304m21.45-5.74v5.74h-5.37m0-160.78h5.37v5.74M1304,578.13h5.36" transform="translate(-20.92 -20.13)"/><line class="cls-58" x1="1283.05" y1="638.39" x2="1300.5" y2="638.39"/><line class="cls-59" x1="809.63" y1="153.09" x2="879.75" y2="153.09"/><line class="cls-60" x1="892.5" y1="170.78" x2="892.5" y2="707.49"/><line class="cls-61" x1="911.08" y1="719.28" x2="1152.66" y2="719.28"/><path class="cls-51" d="M1179.77,739.41h6.2m-272.55-5.9v5.9h6.19M907,173.21h6.38v5.9m-102-5.9h6.37" transform="translate(-20.92 -20.13)"/><line class="cls-62" x1="322.29" y1="581.51" x2="540.06" y2="581.51"/><line class="cls-63" x1="552.5" y1="597.49" x2="552.5" y2="656.1"/><line class="cls-64" x1="570.58" y1="666.76" x2="660.95" y2="666.76"/><path class="cls-51" d="M687.89,686.89h6m-120.5-5.33v5.33h6m-12.25-85.26h6.23V607m-248.88-5.33h6.22" transform="translate(-20.92 -20.13)"/><line class="cls-65" x1="552.5" y1="581.01" x2="673" y2="581.01"/></g></svg>