<svg id="Ebene_1" data-name="Ebene 1" xmlns="http://www.w3.org/2000/svg" xmlns:xlink="http://www.w3.org/1999/xlink" viewBox="0 0 1420.5 680.45"><defs><style>.cls-1,.cls-18,.cls-19,.cls-20,.cls-21,.cls-22,.cls-23,.cls-24,.cls-25,.cls-27,.cls-61,.cls-62,.cls-63,.cls-64,.cls-65,.cls-66,.cls-67,.cls-68,.cls-69,.cls-70,.cls-71,.cls-72,.cls-73,.cls-74,.cls-75{fill:none;}.cls-2{clip-path:url(#clip-path);}.cls-26,.cls-3{font-size:24px;}.cls-26,.cls-28,.cls-3,.cls-39,.cls-46,.cls-56,.cls-6,.cls-60{fill:#1d1d1b;}.cls-28,.cls-3,.cls-39,.cls-46,.cls-60{font-family:NeueHaasUnicaW06-Regular;}.cls-4{letter-spacing:-0.01em;}.cls-5{letter-spacing:0.01em;}.cls-28,.cls-39,.cls-46,.cls-6,.cls-60{font-size:18px;}.cls-6{font-family:NeueHaasUnicaW06-Thin;font-weight:200;}.cls-7{letter-spacing:0em;}.cls-8{letter-spacing:-0.01em;}.cls-9{letter-spacing:-0.02em;}.cls-10{letter-spacing:-0.02em;}.cls-11{letter-spacing:-0.03em;}.cls-12{letter-spacing:0.01em;}.cls-13{letter-spacing:-0.02em;}.cls-14{letter-spacing:-0.01em;}.cls-15{letter-spacing:0em;}.cls-16{letter-spacing:-0.03em;}.cls-17{letter-spacing:0.01em;}.cls-18,.cls-19,.cls-20,.cls-25,.cls-61,.cls-62,.cls-63,.cls-64,.cls-65,.cls-66,.cls-67,.cls-68,.cls-69,.cls-70,.cls-71,.cls-72,.cls-73,.cls-74,.cls-75{stroke:#1d1d1b;}.cls-18{stroke-width:0.25px;}.cls-20{stroke-dasharray:10.8 10.8;}.cls-21,.cls-27{stroke:#f7a512;}.cls-21,.cls-22,.cls-23,.cls-24,.cls-25{stroke-width:2px;}.cls-22{stroke:#009fe3;}.cls-23{stroke:#cd1719;}.cls-24{stroke:#3fa535;}.cls-26{font-family:NeueHaasUnicaW06-Bold;font-weight:700;}.cls-27{stroke-width:5px;}.cls-29{letter-spacing:0em;}.cls-30{letter-spacing:0em;}.cls-31{letter-spacing:-0.03em;}.cls-32{letter-spacing:-0.01em;}.cls-33,.cls-60{letter-spacing:-0.01em;}.cls-34{letter-spacing:0em;}.cls-35{letter-spacing:-0.01em;}.cls-36{letter-spacing:-0.02em;}.cls-37{letter-spacing:-0.01em;}.cls-38{letter-spacing:0.01em;}.cls-39,.cls-44{letter-spacing:0.01em;}.cls-40{letter-spacing:0em;}.cls-41{letter-spacing:0em;}.cls-42{letter-spacing:0.01em;}.cls-43{letter-spacing:-0.01em;}.cls-45{letter-spacing:-0.01em;}.cls-46,.cls-49{letter-spacing:-0.02em;}.cls-47{letter-spacing:-0.01em;}.cls-48{letter-spacing:0em;}.cls-50{letter-spacing:-0.02em;}.cls-51{letter-spacing:-0.02em;}.cls-52{letter-spacing:0.01em;}.cls-53{letter-spacing:-0.02em;}.cls-54{letter-spacing:-0.01em;}.cls-55{letter-spacing:0em;}.cls-57{letter-spacing:0.01em;}.cls-58{letter-spacing:-0.02em;}.cls-59{letter-spacing:-0.01em;}.cls-61{stroke-dasharray:12.24 12.24;}.cls-62{stroke-dasharray:12.04 12.04;}.cls-63{stroke-dasharray:11.61 11.61;}.cls-64{stroke-dasharray:13.56 13.56;}.cls-65{stroke-dasharray:11.7 11.7;}.cls-66{stroke-dasharray:11.85 11.85;}.cls-67{stroke-dasharray:11.94 11.94;}.cls-68{stroke-dasharray:5 5;}.cls-69{stroke-dasharray:12.89 12.89;}.cls-70{stroke-dasharray:10.96 10.96;}.cls-71{stroke-dasharray:11.87 11.87;}.cls-72{stroke-dasharray:13.65 13.65;}.cls-73{stroke-dasharray:11.86 11.86;}.cls-74{stroke-dasharray:11.81 11.81;}.cls-75{stroke-dasharray:12.13 12.13;}</style><clipPath id="clip-path" transform="translate(-49.8 -86.41)"><rect class="cls-1" x="-0.2" y="-0.43" width="1505" height="804"/></clipPath></defs><title>2.2</title><g class="cls-2"><g class="cls-2"><text class="cls-3" transform="translate(3.25 310.4)"><tspan class="cls-4">L</tspan><tspan class="cls-5" x="13.18" y="0">e</tspan><tspan x="26.62" y="0">gend</tspan></text><text class="cls-6" transform="translate(3.25 375.2)">Vision</text><text class="cls-6" transform="translate(3.25 418.4)">Acti<tspan class="cls-7" x="29.66" y="0">v</tspan><tspan class="cls-8" x="37.48" y="0">a</tspan><tspan class="cls-9" x="46.44" y="0">t</tspan><tspan x="51.21" y="0">o</tspan><tspan class="cls-10" x="60.91" y="0">r</tspan><tspan x="66.56" y="0">s</tspan></text><text class="cls-6" transform="translate(3.25 461.6)">P<tspan class="cls-11" x="10.6" y="0">r</tspan><tspan x="16.07" y="0">oj</tspan><tspan class="cls-12" x="29.74" y="0">e</tspan><tspan x="39.36" y="0">cts</tspan></text><text class="cls-6" transform="translate(3.25 504.8)"><tspan class="cls-13">E</tspan><tspan x="10.44" y="0">ve</tspan><tspan class="cls-14" x="27.79" y="0">n</tspan><tspan class="cls-15" x="37.44" y="0">ts</tspan></text><text class="cls-6" transform="translate(3.25 548)">Other</text><text class="cls-6" transform="translate(3.25 591.2)">Di<tspan class="cls-16" x="16.61" y="0">r</tspan><tspan class="cls-17" x="22.09" y="0">e</tspan><tspan x="31.73" y="0">ct </tspan></text><text class="cls-6" transform="translate(3.25 634.4)">Indi<tspan class="cls-16" x="28.06" y="0">r</tspan><tspan class="cls-17" x="33.53" y="0">e</tspan><tspan x="43.18" y="0">ct</tspan></text><rect class="cls-18" x="0.13" y="282.29" width="154.5" height="398.03"/><line class="cls-19" x1="89.5" y1="586.72" x2="143.5" y2="586.72"/><line class="cls-20" x1="89.5" y1="628.42" x2="143.5" y2="628.42"/><rect class="cls-21" x="91" y="353.71" width="53" height="25.25"/><rect class="cls-22" x="90" y="397.92" width="53" height="25.25"/><rect class="cls-23" x="90" y="442.13" width="53" height="25.25"/><rect class="cls-24" x="90" y="486.34" width="53" height="25.25"/><rect class="cls-25" x="90" y="530.54" width="53" height="25.25"/></g><text class="cls-26" transform="translate(822.38 277.98)">marble park</text><rect class="cls-27" x="801.5" y="247.49" width="176" height="42"/><text class="cls-28" transform="translate(962.83 355.82)"><tspan class="cls-29">w</tspan><tspan class="cls-30" x="13.82" y="0">or</tspan><tspan class="cls-31" x="30.51" y="0">k</tspan><tspan x="39.06" y="0">shop</tspan></text><rect class="cls-23" x="943.5" y="333.83" width="117.5" height="48.5"/><text class="cls-28" transform="translate(1191.28 231.04)">h<tspan class="cls-32" x="10.37" y="0">o</tspan><tspan class="cls-33" x="20.45" y="0">t</tspan><tspan x="25.94" y="0">el</tspan></text><rect class="cls-23" x="1152.63" y="209.05" width="117.5" height="48.5"/><text class="cls-28" transform="translate(586.95 188.82)">o<tspan class="cls-17" x="10.17" y="0">p</tspan><tspan class="cls-34" x="20.72" y="0">en air </tspan></text><text class="cls-28" transform="translate(590.06 210.42)">cinema</text><rect class="cls-23" x="561" y="166.83" width="117.5" height="48.5"/><text class="cls-28" transform="translate(591.13 272.57)">the<tspan class="cls-35" x="26.03" y="0">a</tspan><tspan x="35.42" y="0">t</tspan><tspan class="cls-36" x="41.18" y="0">r</tspan><tspan x="47.38" y="0">e</tspan></text><rect class="cls-23" x="561" y="250.58" width="117.5" height="48.5"/><text class="cls-28" transform="translate(580.46 355.82)"><tspan class="cls-37">e</tspan><tspan x="9.74" y="0">xhibition</tspan></text><rect class="cls-23" x="561" y="333.83" width="117.5" height="48.5"/><text class="cls-28" transform="translate(717.06 427.07)">b<tspan class="cls-37" x="10.37" y="0">a</tspan><tspan x="19.76" y="0">th</tspan></text><rect class="cls-23" x="676.25" y="405.08" width="117.5" height="48.5"/><text class="cls-28" transform="translate(892.07 543.32)">ga<tspan class="cls-36" x="19.87" y="0">r</tspan><tspan x="26.06" y="0">dens</tspan></text><rect class="cls-23" x="866.11" y="521.33" width="117.5" height="48.5"/><text class="cls-28" transform="translate(367.45 165.24)"><tspan class="cls-38">c</tspan><tspan x="9.72" y="0">onstruction</tspan></text><rect class="cls-22" x="359.75" y="143.25" width="117.5" height="48.5"/><text class="cls-39" transform="translate(899.42 138.32)">p<tspan class="cls-40" x="10.55" y="0">ow</tspan><tspan class="cls-41" x="34.5" y="0">er</tspan></text><rect class="cls-22" x="866.11" y="116.33" width="117.5" height="48.5"/><text class="cls-28" transform="translate(1115.26 427.07)">a<tspan class="cls-42" x="9.56" y="0">r</tspan><tspan x="16.27" y="0">tists</tspan></text><rect class="cls-22" x="1081.5" y="405.08" width="117.5" height="48.5"/><text class="cls-28" transform="translate(1005.83 164.54)">i<tspan class="cls-43" x="4.39" y="0">n</tspan><tspan class="cls-30" x="14.63" y="0">frustructu</tspan><tspan class="cls-9" x="94.28" y="0">r</tspan><tspan class="cls-41" x="100.46" y="0">e</tspan></text><rect class="cls-22" x="1002.25" y="142.55" width="117.5" height="48.5"/><text class="cls-28" transform="translate(413.25 239.99)"><tspan class="cls-44">e</tspan><tspan class="cls-15" x="10.08" y="0">duc</tspan><tspan class="cls-45" x="40.43" y="0">a</tspan><tspan x="49.81" y="0">tion</tspan></text><rect class="cls-22" x="394.75" y="218" width="117.5" height="48.5"/><text class="cls-46" transform="translate(557.56 427.07)">f<tspan class="cls-38" x="5.22" y="0">e</tspan><tspan class="cls-15" x="15.23" y="0">sti</tspan><tspan class="cls-47" x="34.27" y="0">v</tspan><tspan class="cls-15" x="42.53" y="0">als</tspan></text><rect class="cls-24" x="531.5" y="405.08" width="117.5" height="48.5"/><text class="cls-28" transform="translate(883.65 66.32)">lig<tspan class="cls-37" x="19.1" y="0">h</tspan><tspan x="29.3" y="0">t sh</tspan><tspan class="cls-48" x="58.46" y="0">o</tspan><tspan class="cls-41" x="68.58" y="0">w</tspan></text><rect class="cls-24" x="866.11" y="44.33" width="117.5" height="48.5"/><text class="cls-28" transform="translate(582.35 104.44)">his<tspan class="cls-49" x="23.65" y="0">t</tspan><tspan x="29.14" y="0">ory</tspan></text><rect class="cls-25" x="550.75" y="82.45" width="117.5" height="48.5"/><text class="cls-28" transform="translate(712.46 104.44)">cultu<tspan class="cls-50" x="40.5" y="0">r</tspan><tspan x="46.69" y="0">e</tspan></text><rect class="cls-25" x="682" y="82.45" width="117.5" height="48.5"/><text class="cls-28" transform="translate(581.37 33.32)">marble </text><text class="cls-28" transform="translate(566.81 54.92)"><tspan class="cls-37">ex</tspan><tspan x="18.22" y="0">c</tspan><tspan class="cls-51" x="27.83" y="0">a</tspan><tspan class="cls-8" x="37.1" y="0">v</tspan><tspan class="cls-37" x="45.38" y="0">a</tspan><tspan x="54.77" y="0">tion</tspan></text><rect class="cls-25" x="550.75" y="11.33" width="117.5" height="48.5"/><text class="cls-28" transform="translate(396.21 22.99)">marble bl<tspan class="cls-52" x="75.17" y="0">o</tspan><tspan x="85.5" y="0">c</tspan><tspan class="cls-31" x="95.11" y="0">k</tspan><tspan class="cls-15" x="103.66" y="0">s</tspan></text><rect class="cls-25" x="393.75" y="1" width="117.5" height="48.5"/><text class="cls-28" transform="translate(258.88 22.99)">clean marble</text><rect class="cls-25" x="252.25" y="1" width="117.5" height="48.5"/><text class="cls-28" transform="translate(207.04 96.11)">aquacultu<tspan class="cls-53" x="80.35" y="0">r</tspan><tspan x="86.52" y="0">e</tspan></text><rect class="cls-25" x="196.5" y="74.13" width="117.5" height="48.5"/><text class="cls-28" transform="translate(235.65 165.24)"><tspan class="cls-38">c</tspan><tspan x="9.72" y="0">onc</tspan><tspan class="cls-53" x="39.87" y="0">r</tspan><tspan class="cls-54" x="46.04" y="0">e</tspan><tspan class="cls-33" x="55.85" y="0">t</tspan><tspan class="cls-34" x="61.34" y="0">e</tspan></text><rect class="cls-25" x="212.5" y="143.25" width="117.5" height="48.5"/><text class="cls-28" transform="translate(429.7 96.11)"><tspan class="cls-55">w</tspan><tspan class="cls-15" x="13.81" y="0">as</tspan><tspan class="cls-49" x="32.26" y="0">t</tspan><tspan x="37.75" y="0">e</tspan></text><rect class="cls-25" x="394.75" y="74.13" width="117.5" height="48.5"/><path class="cls-56" d="M333.32,317a3.71,3.71,0,0,1,2.66.89,3.47,3.47,0,0,1,.94,2.65v3.51a10.33,10.33,0,0,0,.22,2.34H335.7a5.82,5.82,0,0,1-.13-1.33h0a3.35,3.35,0,0,1-1.28,1.14,4.25,4.25,0,0,1-1.89.39,3.25,3.25,0,0,1-2.25-.75,2.43,2.43,0,0,1-.85-1.93,2.36,2.36,0,0,1,.79-1.88,5.36,5.36,0,0,1,2.69-1c.88-.14,1.77-.25,2.64-.31v-.36a2.19,2.19,0,0,0-3.58-1.64,1.85,1.85,0,0,0-.58,1.32h-1.58a3,3,0,0,1,1-2.2,3.84,3.84,0,0,1,2.64-.84Zm2.07,4.93c-.92.07-1.72.17-2.39.29a3.79,3.79,0,0,0-1.63.54,1.22,1.22,0,0,0-.48,1,1.42,1.42,0,0,0,.5,1.14,2,2,0,0,0,1.37.43,3.07,3.07,0,0,0,1.06-.19,2.28,2.28,0,0,0,.83-.53,2.56,2.56,0,0,0,.58-.89,3.93,3.93,0,0,0,.16-1.27v-.56Zm8.48-4.77a2.6,2.6,0,0,1,.67.07v1.42l-.63,0a2.5,2.5,0,0,0-2,.81,3.42,3.42,0,0,0-.7,2.32v4.66h-1.59v-9.14h1.51v1.4h0a3,3,0,0,1,2.7-1.49Zm5.71,8a2,2,0,0,0,.64-.09v1.3a4,4,0,0,1-1,.11,2.52,2.52,0,0,1-1.9-.62,2.84,2.84,0,0,1-.59-2v-5.33h-1.58v-1.26h1.58V315h1.59v2.21h1.81v1.26h-1.81v5.17a1.79,1.79,0,0,0,.28,1.13,1.23,1.23,0,0,0,1,.34Zm2.53-9.79v-1.78h1.59v1.78Zm0,11v-9.14h1.59v9.14Zm4.83-10.27a2.73,2.73,0,0,1,.64-2,2.49,2.49,0,0,1,1.86-.65,3.91,3.91,0,0,1,.92.09v1.22a2.09,2.09,0,0,0-.52-.05,1.28,1.28,0,0,0-1,.36,1.73,1.73,0,0,0-.33,1.19v.95h1.82v1.26H358.5v7.88h-1.56v-7.88h-1.6v-1.26h1.6v-1.13Zm6.64-.76H362v-1.78h1.58Zm0,1.89v9.14H362v-9.14ZM370,317a4.11,4.11,0,0,1,1.94.44,3.46,3.46,0,0,1,1.37,1.23,4,4,0,0,1,.6,1.82h-1.66a2.4,2.4,0,0,0-.71-1.58,2.11,2.11,0,0,0-1.55-.62,2.25,2.25,0,0,0-1.91.95,4.23,4.23,0,0,0-.7,2.58,4.29,4.29,0,0,0,.69,2.58,2.25,2.25,0,0,0,1.92,1,2,2,0,0,0,1.55-.66,2.66,2.66,0,0,0,.71-1.66h1.66a4.29,4.29,0,0,1-.59,1.86,3.59,3.59,0,0,1-1.36,1.29,4,4,0,0,1-2,.47,4.35,4.35,0,0,1-2.28-.59,3.87,3.87,0,0,1-1.5-1.67,6.59,6.59,0,0,1,0-5.13,3.84,3.84,0,0,1,1.5-1.68A4.34,4.34,0,0,1,370,317Zm6-1.64v-1.78h1.58v1.78Zm0,11v-9.14h1.58v9.14Zm7.65-9.39a3.71,3.71,0,0,1,2.66.89,3.47,3.47,0,0,1,.94,2.65v3.51a10.33,10.33,0,0,0,.22,2.34H386a5.82,5.82,0,0,1-.13-1.33h0a3.32,3.32,0,0,1-1.27,1.14,4.25,4.25,0,0,1-1.89.39,3.25,3.25,0,0,1-2.25-.75,2.43,2.43,0,0,1-.85-1.93,2.39,2.39,0,0,1,.78-1.88,5.44,5.44,0,0,1,2.69-1c.89-.14,1.77-.25,2.65-.31v-.36a2.19,2.19,0,0,0-3.58-1.64,1.85,1.85,0,0,0-.58,1.32H380a3.07,3.07,0,0,1,1-2.2,3.88,3.88,0,0,1,2.65-.84Zm2.07,4.93c-.92.07-1.72.17-2.39.29a3.79,3.79,0,0,0-1.63.54,1.22,1.22,0,0,0-.48,1,1.42,1.42,0,0,0,.5,1.14,2,2,0,0,0,1.37.43,3.11,3.11,0,0,0,1.06-.19,2.37,2.37,0,0,0,.83-.53,2.56,2.56,0,0,0,.58-.89,3.93,3.93,0,0,0,.16-1.27v-.56Zm4.23,4.46V313.58h1.58v12.81Z" transform="translate(-49.8 -86.41)"/><text class="cls-28" transform="translate(282.87 261.59)">marble</text><rect class="cls-25" x="252.25" y="218" width="117.5" height="48.5"/><text class="cls-28" transform="translate(744.09 355.82)">quarry</text><rect class="cls-25" x="711.25" y="333.83" width="117.5" height="48.5"/><text class="cls-28" transform="translate(886.89 427.07)"><tspan class="cls-57">s</tspan><tspan class="cls-30" x="9" y="0">culptu</tspan><tspan class="cls-9" x="59.87" y="0">r</tspan><tspan x="66.04" y="0">e</tspan></text><rect class="cls-25" x="866.11" y="405.08" width="117.5" height="48.5"/><text class="cls-28" transform="translate(1008 494.82)">c<tspan class="cls-58" x="9.61" y="0">r</tspan><tspan class="cls-59" x="15.73" y="0">a</tspan><tspan class="cls-44" x="25.13" y="0">f</tspan><tspan x="30.8" y="0">tmanship</tspan></text><rect class="cls-25" x="1002.25" y="472.83" width="117.5" height="48.5"/><text class="cls-60" transform="translate(1330.08 231.04)">t<tspan class="cls-30" x="5.49" y="0">ourism</tspan></text><rect class="cls-25" x="1302" y="209.05" width="117.5" height="48.5"/><text class="cls-28" transform="translate(1016.49 231.04)">s<tspan class="cls-37" x="8.89" y="0">h</tspan><tspan x="19.1" y="0">uttle bus</tspan></text><rect class="cls-25" x="1002.25" y="209.05" width="117.5" height="48.5"/><path class="cls-56" d="M774.51,570.19v-1.78h1.59v1.78Zm0,11v-9.14h1.59v9.14Zm8.73-9.34a3.13,3.13,0,0,1,2.45,1,4,4,0,0,1,.86,2.8v5.58H785v-5.45a3,3,0,0,0-.54-2,2,2,0,0,0-1.57-.6,2.19,2.19,0,0,0-1.7.74,3,3,0,0,0-.67,2.07v5.23H778.9v-9.14h1.53v1.21h0a3,3,0,0,1,1.15-1,3.46,3.46,0,0,1,1.62-.38Zm6.32-.93a2.69,2.69,0,0,1,.64-2,2.47,2.47,0,0,1,1.86-.66,3.91,3.91,0,0,1,.92.09v1.22a2.09,2.09,0,0,0-.52,0,1.3,1.3,0,0,0-1,.36,1.73,1.73,0,0,0-.32,1.19v1h1.81v1.26h-1.81v7.88h-1.57v-7.88H788v-1.26h1.6V571Zm6.64-.76h-1.58v-1.78h1.58Zm0,1.89v9.14h-1.58v-9.14Zm7.15-.2a3.14,3.14,0,0,1,2.45,1,4.06,4.06,0,0,1,.86,2.8v5.58h-1.58v-5.45a3,3,0,0,0-.54-2,2,2,0,0,0-1.57-.6,2.19,2.19,0,0,0-1.7.74,3,3,0,0,0-.68,2.07v5.23H799v-9.14h1.53v1.21h0a2.94,2.94,0,0,1,1.15-1,3.46,3.46,0,0,1,1.62-.38Zm6-1.69v-1.78H811v1.78Zm0,11v-9.14H811v9.14ZM817,580a2.08,2.08,0,0,0,.65-.09v1.3a4,4,0,0,1-1,.11,2.54,2.54,0,0,1-1.9-.62,2.84,2.84,0,0,1-.58-2v-5.33h-1.59v-1.26h1.59v-2.21h1.58v2.21h1.82v1.26h-1.82v5.17a1.78,1.78,0,0,0,.29,1.13,1.2,1.2,0,0,0,1,.34Zm6.34,1.66a7.31,7.31,0,0,1-1,1.83,2.81,2.81,0,0,1-1.15.9,4.65,4.65,0,0,1-1.67.26,2.85,2.85,0,0,1-.82-.09V583.2a2.12,2.12,0,0,0,.75.11,2.39,2.39,0,0,0,1-.18,1.7,1.7,0,0,0,.68-.61,6.29,6.29,0,0,0,.59-1.26l-3.47-9.18H820l2.62,7.27h0l2.66-7.27H827l-3.67,9.56Zm13.5-9.79a3.55,3.55,0,0,1,2,.58,3.71,3.71,0,0,1,1.34,1.68,7,7,0,0,1,0,5,3.78,3.78,0,0,1-1.33,1.69,3.53,3.53,0,0,1-2,.59,3.42,3.42,0,0,1-1.66-.4,2.75,2.75,0,0,1-1.13-1.11h0v4.62h-1.59V572.08H834v1.31h0a2.63,2.63,0,0,1,1.11-1.13,3.4,3.4,0,0,1,1.68-.41Zm-.4,1.27a2.12,2.12,0,0,0-1.81,1,4.32,4.32,0,0,0-.67,2.56,4.41,4.41,0,0,0,.67,2.58,2.12,2.12,0,0,0,1.81.95,2.2,2.2,0,0,0,1.87-1,4.25,4.25,0,0,0,.7-2.57,4.19,4.19,0,0,0-.7-2.55,2.2,2.2,0,0,0-1.87-1Zm10.22-1.29a4.09,4.09,0,0,1,3.19,1.29,5.91,5.91,0,0,1,0,7.06,4.09,4.09,0,0,1-3.19,1.3,4,4,0,0,1-3.17-1.3,6,6,0,0,1,0-7.06,4,4,0,0,1,3.17-1.29Zm0,1.29a2.34,2.34,0,0,0-2,1,5,5,0,0,0,0,5.17,2.53,2.53,0,0,0,3.94,0,5,5,0,0,0,0-5.17,2.36,2.36,0,0,0-2-1ZM857,571.83a4.09,4.09,0,0,1,3.19,1.29,5.91,5.91,0,0,1,0,7.06,4.09,4.09,0,0,1-3.19,1.3,4,4,0,0,1-3.17-1.3,6,6,0,0,1,0-7.06,4,4,0,0,1,3.17-1.29Zm0,1.29a2.34,2.34,0,0,0-2,1,5,5,0,0,0,0,5.17,2.53,2.53,0,0,0,3.94,0,5,5,0,0,0,0-5.17,2.36,2.36,0,0,0-2-1Zm6.5,8.1V568.41h1.59v12.81Z" transform="translate(-49.8 -86.41)"/><rect class="cls-25" x="711.25" y="472.83" width="117.5" height="48.5"/><text class="cls-28" transform="translate(902.25 610.32)">c<tspan class="cls-36" x="9.61" y="0">r</tspan><tspan x="15.8" y="0">ops</tspan></text><rect class="cls-25" x="866.11" y="588.33" width="117.5" height="48.5"/><text class="cls-28" transform="translate(720.77 580.32)"><tspan class="cls-57">s</tspan><tspan x="9" y="0">elf g</tspan><tspan class="cls-9" x="43.24" y="0">r</tspan><tspan class="cls-40" x="49.41" y="0">o</tspan><tspan x="59.54" y="0">wing</tspan></text><rect class="cls-25" x="711.25" y="558.33" width="117.5" height="48.5"/><text class="cls-28" transform="translate(1087.61 355.82)">l<tspan class="cls-44" x="4.39" y="0">o</tspan><tspan x="14.74" y="0">cal sta</tspan><tspan class="cls-42" x="66.65" y="0">r</tspan><tspan x="73.37" y="0">t-up</tspan></text><rect class="cls-25" x="1081.5" y="333.83" width="117.5" height="48.5"/><line class="cls-19" x1="815.25" y1="288.49" x2="815.25" y2="335.83"/><polyline class="cls-19" points="677.25 263.33 743.5 263.33 743.5 333.83"/><line class="cls-19" x1="582.5" y1="384.33" x2="582.5" y2="406.33"/><line class="cls-19" x1="744" y1="382.33" x2="744" y2="406.33"/><line class="cls-19" x1="809.5" y1="384.33" x2="809.5" y2="473.83"/><line class="cls-19" x1="609.25" y1="300.08" x2="609.25" y2="333.83"/><line class="cls-19" x1="608.75" y1="249.58" x2="608.75" y2="214.33"/><line class="cls-19" x1="917.85" y1="163.83" x2="917.85" y2="246.49"/><polyline class="cls-19" points="843.88 246.49 843.88 31.33 669 31.33"/><polyline class="cls-19" points="800.5 262.83 777.5 262.83 777.5 131.83"/><line class="cls-19" x1="683" y1="108.58" x2="669.5" y2="108.58"/><polyline class="cls-19" points="551.29 58.83 473.62 58.83 473.62 75"/><line class="cls-19" x1="549.5" y1="30.83" x2="510.25" y2="30.83"/><line class="cls-19" x1="368.75" y1="17.33" x2="392.75" y2="17.33"/><line class="cls-19" x1="394.5" y1="98.5" x2="313" y2="98.5"/><line class="cls-19" x1="889.5" y1="568.83" x2="889.5" y2="589.33"/><line class="cls-19" x1="865.11" y1="599.83" x2="828.5" y2="599.83"/><line class="cls-19" x1="1024.5" y1="382.33" x2="1024.5" y2="471.83"/><polyline class="cls-19" points="1047.5 382.33 1047.5 438.45 1080.5 438.45"/><line class="cls-19" x1="1060" y1="359.08" x2="1080.5" y2="359.08"/><line class="cls-19" x1="959.5" y1="290.49" x2="959.5" y2="331.83"/><line class="cls-19" x1="410.5" y1="123.75" x2="410.5" y2="142.25"/><line class="cls-19" x1="358.75" y1="173.33" x2="329" y2="173.33"/><line class="cls-19" x1="369.88" y1="191.08" x2="369.88" y2="218"/><line class="cls-19" x1="454.5" y1="192.75" x2="454.5" y2="218"/><line class="cls-19" x1="918.35" y1="115.33" x2="918.35" y2="91.83"/><polyline class="cls-19" points="960 246.49 960 180.33 1002.25 180.33"/><line class="cls-19" x1="1060" y1="191.08" x2="1060" y2="208.05"/><line class="cls-19" x1="1121.75" y1="241.33" x2="1153.63" y2="241.33"/><line class="cls-19" x1="1269.13" y1="241.83" x2="1303" y2="241.83"/><line class="cls-61" x1="195.5" y1="140.11" x2="195.5" y2="623.59"/><line class="cls-62" x1="213.57" y1="635.83" x2="833.83" y2="635.83"/><path class="cls-19" d="M889.65,722.24h6M245.3,716.12v6.12h6m-6-514.08v6.12" transform="translate(-49.8 -86.41)"/><line class="cls-63" x1="476.25" y1="283.92" x2="476.25" y2="417.47"/><line class="cls-64" x1="496.59" y1="429.08" x2="516.94" y2="429.08"/><path class="cls-19" d="M573.52,515.49h6.78m-54.25-5.81v5.81h6.78m-6.78-162.58v5.8" transform="translate(-49.8 -86.41)"/><line class="cls-65" x1="449.5" y1="284.06" x2="449.5" y2="559.13"/><line class="cls-66" x1="467.28" y1="570.83" x2="698.4" y2="570.83"/><path class="cls-19" d="M754.12,657.24h5.93M499.3,651.38v5.86h5.92M499.3,352.91v5.85" transform="translate(-49.8 -86.41)"/><path class="cls-19" d="M659.55,486.74v6m0-24v6" transform="translate(-49.8 -86.41)"/><line class="cls-67" x1="949.47" y1="393.83" x2="621.19" y2="393.83"/><path class="cls-19" d="M665,480.24h-6m358.12-11.5v11.5h-6" transform="translate(-49.8 -86.41)"/><line class="cls-68" x1="744" y1="456.83" x2="744" y2="471.83"/><line class="cls-69" x1="828.5" y1="348.04" x2="944.5" y2="348.04"/><line class="cls-70" x1="907.63" y1="402.33" x2="907.63" y2="347.54"/><line class="cls-71" x1="761.31" y1="311.16" x2="1348.88" y2="311.16"/><line class="cls-72" x1="1360.75" y1="290.68" x2="1360.75" y2="270.2"/><path class="cls-19" d="M1410.55,349.78V343m-5.94,54.61h5.94v-6.83M793.3,397.57h5.93" transform="translate(-49.8 -86.41)"/><line class="cls-73" x1="995.39" y1="274.83" x2="1321.64" y2="274.83"/><path class="cls-19" d="M1383.3,349V345m-5.93,16.28h5.93v-4.07m-355.9,4.07h5.93" transform="translate(-49.8 -86.41)"/><line class="cls-74" x1="849.4" y1="66.66" x2="548.31" y2="66.66"/><line class="cls-75" x1="536.5" y1="84.86" x2="536.5" y2="394.2"/><path class="cls-19" d="M586.3,486.67v6.07m5.9-339.67h-5.9v6.07m330.61-6.07H911" transform="translate(-49.8 -86.41)"/><polyline class="cls-19" points="828.5 368.33 840.5 368.33 840.5 545.58 865.11 545.58"/></g></svg>