<svg id="Ebene_1" data-name="Ebene 1" xmlns="http://www.w3.org/2000/svg" viewBox="0 0 1452.87 459.62"><defs><style>	@font-face {font-family: "NeueHaasUnicaW06-ThinItalic";
    src: url("/Blog/main/fonts/NeueHaasUnicaW06/OnlineWebFonts_COM_0ed68d0a6f9c1234e2d43bdd27b951f2/@font-face/3842220656142ccef91508c98b0eb6ed.eot"); /* IE9*/
    src: url("/Blog/main/fonts/NeueHaasUnicaW06/OnlineWebFonts_COM_0ed68d0a6f9c1234e2d43bdd27b951f2/@font-face/3842220656142ccef91508c98b0eb6ed.eot?#iefix") format("embedded-opentype"), /* IE6-IE8 */
    url("/Blog/main/fonts/NeueHaasUnicaW06/OnlineWebFonts_COM_0ed68d0a6f9c1234e2d43bdd27b951f2/@font-face/3842220656142ccef91508c98b0eb6ed.woff2") format("woff2"), /* chrome、firefox */
    url("/Blog/main/fonts/NeueHaasUnicaW06/OnlineWebFonts_COM_0ed68d0a6f9c1234e2d43bdd27b951f2/@font-face/3842220656142ccef91508c98b0eb6ed.woff") format("woff"), /* chrome、firefox */
    url("/Blog/main/fonts/NeueHaasUnicaW06/OnlineWebFonts_COM_0ed68d0a6f9c1234e2d43bdd27b951f2/@font-face/3842220656142ccef91508c98b0eb6ed.ttf") format("truetype"), /* chrome、firefox、opera、Safari, Android, iOS 4.2+*/
    url("/Blog/main/fonts/NeueHaasUnicaW06/OnlineWebFonts_COM_0ed68d0a6f9c1234e2d43bdd27b951f2/@font-face/3842220656142ccef91508c98b0eb6ed.svg#Neue Haas Unica W06 Thin It") format("svg"); /* iOS 4.1- */
    }
    @font-face {font-family: "NeueHaasUnicaW06-ExtraBlack";
    src: url("/Blog/main/fonts/NeueHaasUnicaW06/OnlineWebFonts_COM_3dad734723cd1eada75c00f4d4322909/@font-face/46ff6b5a1511006aeadd4a46a3efd9ae.eot"); /* IE9*/
    src: url("/Blog/main/fonts/NeueHaasUnicaW06/OnlineWebFonts_COM_3dad734723cd1eada75c00f4d4322909/@font-face/46ff6b5a1511006aeadd4a46a3efd9ae.eot?#iefix") format("embedded-opentype"), /* IE6-IE8 */
    url("/Blog/main/fonts/NeueHaasUnicaW06/OnlineWebFonts_COM_3dad734723cd1eada75c00f4d4322909/@font-face/46ff6b5a1511006aeadd4a46a3efd9ae.woff") format("woff2"), /* chrome、firefox */
    url("/Blog/main/fonts/NeueHaasUnicaW06/OnlineWebFonts_COM_3dad734723cd1eada75c00f4d4322909/@font-face/46ff6b5a1511006aeadd4a46a3efd9ae.woff2") format("woff"), /* chrome、firefox */
    url("/Blog/main/fonts/NeueHaasUnicaW06/OnlineWebFonts_COM_3dad734723cd1eada75c00f4d4322909/@font-face/46ff6b5a1511006aeadd4a46a3efd9ae.ttf") format("truetype"), /* chrome、firefox、opera、Safari, Android, iOS 4.2+*/
    url("/Blog/main/fonts/NeueHaasUnicaW06/OnlineWebFonts_COM_3dad734723cd1eada75c00f4d4322909/@font-face/46ff6b5a1511006aeadd4a46a3efd9ae.svg#Neue Haas Unica W06 X Black") format("svg"); /* iOS 4.1- */
    }
    @font-face {font-family: "NeueHaasUnicaW06-Regular";
    src: url("/Blog/main/fonts/NeueHaasUnicaW06/OnlineWebFonts_COM_7a298e4d1b42d5d0485b479c3bcf69bf/@font-face/7250d52844cced73ed70675d1b78c60c.eot"); /* IE9*/
    src: url("/Blog/main/fonts/NeueHaasUnicaW06/OnlineWebFonts_COM_7a298e4d1b42d5d0485b479c3bcf69bf/@font-face/7250d52844cced73ed70675d1b78c60c.eot?#iefix") format("embedded-opentype"), /* IE6-IE8 */
    url("/Blog/main/fonts/NeueHaasUnicaW06/OnlineWebFonts_COM_7a298e4d1b42d5d0485b479c3bcf69bf/@font-face/7250d52844cced73ed70675d1b78c60c.woff") format("woff2"), /* chrome、firefox */
    url("/Blog/main/fonts/NeueHaasUnicaW06/OnlineWebFonts_COM_7a298e4d1b42d5d0485b479c3bcf69bf/@font-face/7250d52844cced73ed70675d1b78c60c.woff2") format("woff"), /* chrome、firefox */
    url("/Blog/main/fonts/NeueHaasUnicaW06/OnlineWebFonts_COM_7a298e4d1b42d5d0485b479c3bcf69bf/@font-face/7250d52844cced73ed70675d1b78c60c.ttf") format("truetype"), /* chrome、firefox、opera、Safari, Android, iOS 4.2+*/
    url("/Blog/main/fonts/NeueHaasUnicaW06/OnlineWebFonts_COM_7a298e4d1b42d5d0485b479c3bcf69bf/@font-face/7250d52844cced73ed70675d1b78c60c.svg#Neue Haas Unica W06 X Black") format("svg"); /* iOS 4.1- */
    }
    @font-face {font-family: "NeueHaasUnicaW06-XBlackIt";
    src: url("/Blog/main/fonts/NeueHaasUnicaW06/OnlineWebFonts_COM_7ded04d499cfd92c5afc12ffac484c5a/@font-face/5ef047f0e72e70adeba30f0c829c33e0.eot"); /* IE9*/
    src: url("/Blog/main/fonts/NeueHaasUnicaW06/OnlineWebFonts_COM_7ded04d499cfd92c5afc12ffac484c5a/@font-face/5ef047f0e72e70adeba30f0c829c33e0.eot?#iefix") format("embedded-opentype"), /* IE6-IE8 */
    url("/Blog/main/fonts/NeueHaasUnicaW06/OnlineWebFonts_COM_7ded04d499cfd92c5afc12ffac484c5a/@font-face/5ef047f0e72e70adeba30f0c829c33e0.woff") format("woff2"), /* chrome、firefox */
    url("/Blog/main/fonts/NeueHaasUnicaW06/OnlineWebFonts_COM_7ded04d499cfd92c5afc12ffac484c5a/@font-face/5ef047f0e72e70adeba30f0c829c33e0.woff2") format("woff"), /* chrome、firefox */
    url("/Blog/main/fonts/NeueHaasUnicaW06/OnlineWebFonts_COM_7ded04d499cfd92c5afc12ffac484c5a/@font-face/5ef047f0e72e70adeba30f0c829c33e0.ttf") format("truetype"), /* chrome、firefox、opera、Safari, Android, iOS 4.2+*/
    url("/Blog/main/fonts/NeueHaasUnicaW06/OnlineWebFonts_COM_7ded04d499cfd92c5afc12ffac484c5a/@font-face/5ef047f0e72e70adeba30f0c829c33e0.svg#Neue Haas Unica W06 X Black") format("svg"); /* iOS 4.1- */
    }
    @font-face {font-family: "NeueHaasUnicaW06-LightIt";
    src: url("/Blog/main/fonts/NeueHaasUnicaW06/OnlineWebFonts_COM_19d2b951c44c457e1bc515a2e9e486fb/@font-face/7f69054324b2adbc60f29dfd260c3d30.eot"); /* IE9*/
    src: url("/Blog/main/fonts/NeueHaasUnicaW06/OnlineWebFonts_COM_19d2b951c44c457e1bc515a2e9e486fb/@font-face/7f69054324b2adbc60f29dfd260c3d30.eot?#iefix") format("embedded-opentype"), /* IE6-IE8 */
    url("/Blog/main/fonts/NeueHaasUnicaW06/OnlineWebFonts_COM_19d2b951c44c457e1bc515a2e9e486fb/@font-face/7f69054324b2adbc60f29dfd260c3d30.woff") format("woff2"), /* chrome、firefox */
    url("/Blog/main/fonts/NeueHaasUnicaW06/OnlineWebFonts_COM_19d2b951c44c457e1bc515a2e9e486fb/@font-face/7f69054324b2adbc60f29dfd260c3d30.woff2") format("woff"), /* chrome、firefox */
    url("/Blog/main/fonts/NeueHaasUnicaW06/OnlineWebFonts_COM_19d2b951c44c457e1bc515a2e9e486fb/@font-face/7f69054324b2adbc60f29dfd260c3d30.ttf") format("truetype"), /* chrome、firefox、opera、Safari, Android, iOS 4.2+*/
    url("/Blog/main/fonts/NeueHaasUnicaW06/OnlineWebFonts_COM_19d2b951c44c457e1bc515a2e9e486fb/@font-face/7f69054324b2adbc60f29dfd260c3d30.svg#Neue Haas Unica W06 X Black") format("svg"); /* iOS 4.1- */
    }
    @font-face {font-family: "NeueHaasUnicaW06-Italic";
    src: url("/Blog/main/fonts/NeueHaasUnicaW06/OnlineWebFonts_COM_059c6c90764b5b58f635dc550a3dd784/@font-face/0aa6b2719638cacfa0e8abce9099a39b.eot"); /* IE9*/
    src: url("/Blog/main/fonts/NeueHaasUnicaW06/OnlineWebFonts_COM_059c6c90764b5b58f635dc550a3dd784/@font-face/0aa6b2719638cacfa0e8abce9099a39b.eot?#iefix") format("embedded-opentype"), /* IE6-IE8 */
    url("/Blog/main/fonts/NeueHaasUnicaW06/OnlineWebFonts_COM_059c6c90764b5b58f635dc550a3dd784/@font-face/0aa6b2719638cacfa0e8abce9099a39b.woff") format("woff2"), /* chrome、firefox */
    url("/Blog/main/fonts/NeueHaasUnicaW06/OnlineWebFonts_COM_059c6c90764b5b58f635dc550a3dd784/@font-face/0aa6b2719638cacfa0e8abce9099a39b.woff2") format("woff"), /* chrome、firefox */
    url("/Blog/main/fonts/NeueHaasUnicaW06/OnlineWebFonts_COM_059c6c90764b5b58f635dc550a3dd784/@font-face/0aa6b2719638cacfa0e8abce9099a39b.ttf") format("truetype"), /* chrome、firefox、opera、Safari, Android, iOS 4.2+*/
    url("/Blog/main/fonts/NeueHaasUnicaW06/OnlineWebFonts_COM_059c6c90764b5b58f635dc550a3dd784/@font-face/0aa6b2719638cacfa0e8abce9099a39b.svg#Neue Haas Unica W06 X Black") format("svg"); /* iOS 4.1- */
    }
    @font-face {font-family: "NeueHaasUnicaW06-Bold";
    src: url("/Blog/main/fonts/NeueHaasUnicaW06/OnlineWebFonts_COM_073d72f89a764f9fcbc574a8bd4cb553/@font-face/bb87c8dd3cc47b366f6bb7738fee180c.eot"); /* IE9*/
    src: url("/Blog/main/fonts/NeueHaasUnicaW06/OnlineWebFonts_COM_073d72f89a764f9fcbc574a8bd4cb553/@font-face/bb87c8dd3cc47b366f6bb7738fee180c.eot?#iefix") format("embedded-opentype"), /* IE6-IE8 */
    url("/Blog/main/fonts/NeueHaasUnicaW06/OnlineWebFonts_COM_073d72f89a764f9fcbc574a8bd4cb553/@font-face/bb87c8dd3cc47b366f6bb7738fee180c.woff") format("woff2"), /* chrome、firefox */
    url("/Blog/main/fonts/NeueHaasUnicaW06/OnlineWebFonts_COM_073d72f89a764f9fcbc574a8bd4cb553/@font-face/bb87c8dd3cc47b366f6bb7738fee180c.woff2") format("woff"), /* chrome、firefox */
    url("/Blog/main/fonts/NeueHaasUnicaW06/OnlineWebFonts_COM_073d72f89a764f9fcbc574a8bd4cb553/@font-face/bb87c8dd3cc47b366f6bb7738fee180c.ttf") format("truetype"), /* chrome、firefox、opera、Safari, Android, iOS 4.2+*/
    url("/Blog/main/fonts/NeueHaasUnicaW06/OnlineWebFonts_COM_073d72f89a764f9fcbc574a8bd4cb553/@font-face/bb87c8dd3cc47b366f6bb7738fee180c.svg#Neue Haas Unica W06 X Black") format("svg"); /* iOS 4.1- */
    }
    @font-face {font-family: "NeueHaasUnicaW06-Heavy";
    src: url("/Blog/main/fonts/NeueHaasUnicaW06/OnlineWebFonts_COM_559d73454fad999c45ebbdaaa3ebacdd/@font-face/d04fc9492a6f504ee79cb87d63393fe0.eot"); /* IE9*/
    src: url("/Blog/main/fonts/NeueHaasUnicaW06/OnlineWebFonts_COM_559d73454fad999c45ebbdaaa3ebacdd/@font-face/d04fc9492a6f504ee79cb87d63393fe0.eot?#iefix") format("embedded-opentype"), /* IE6-IE8 */
    url("/Blog/main/fonts/NeueHaasUnicaW06/OnlineWebFonts_COM_559d73454fad999c45ebbdaaa3ebacdd/@font-face/d04fc9492a6f504ee79cb87d63393fe0.woff") format("woff2"), /* chrome、firefox */
    url("/Blog/main/fonts/NeueHaasUnicaW06/OnlineWebFonts_COM_559d73454fad999c45ebbdaaa3ebacdd/@font-face/d04fc9492a6f504ee79cb87d63393fe0.woff2") format("woff"), /* chrome、firefox */
    url("/Blog/main/fonts/NeueHaasUnicaW06/OnlineWebFonts_COM_559d73454fad999c45ebbdaaa3ebacdd/@font-face/d04fc9492a6f504ee79cb87d63393fe0.ttf") format("truetype"), /* chrome、firefox、opera、Safari, Android, iOS 4.2+*/
    url("/Blog/main/fonts/NeueHaasUnicaW06/OnlineWebFonts_COM_559d73454fad999c45ebbdaaa3ebacdd/@font-face/d04fc9492a6f504ee79cb87d63393fe0.svg#Neue Haas Unica W06 X Black") format("svg"); /* iOS 4.1- */
    }
    @font-face {font-family: "NeueHaasUnicaW06-HeavyIt";
    src: url("/Blog/main/fonts/NeueHaasUnicaW06/OnlineWebFonts_COM_507355e12251f27746763ec4f975a633/@font-face/a9820d1a66a09f97371b7ec92a271a92.eot"); /* IE9*/
    src: url("/Blog/main/fonts/NeueHaasUnicaW06/OnlineWebFonts_COM_507355e12251f27746763ec4f975a633/@font-face/a9820d1a66a09f97371b7ec92a271a92.eot?#iefix") format("embedded-opentype"), /* IE6-IE8 */
    url("/Blog/main/fonts/NeueHaasUnicaW06/OnlineWebFonts_COM_507355e12251f27746763ec4f975a633/@font-face/a9820d1a66a09f97371b7ec92a271a92.woff") format("woff2"), /* chrome、firefox */
    url("/Blog/main/fonts/NeueHaasUnicaW06/OnlineWebFonts_COM_507355e12251f27746763ec4f975a633/@font-face/a9820d1a66a09f97371b7ec92a271a92.woff2") format("woff"), /* chrome、firefox */
    url("/Blog/main/fonts/NeueHaasUnicaW06/OnlineWebFonts_COM_507355e12251f27746763ec4f975a633/@font-face/a9820d1a66a09f97371b7ec92a271a92.ttf") format("truetype"), /* chrome、firefox、opera、Safari, Android, iOS 4.2+*/
    url("/Blog/main/fonts/NeueHaasUnicaW06/OnlineWebFonts_COM_507355e12251f27746763ec4f975a633/@font-face/a9820d1a66a09f97371b7ec92a271a92.svg#Neue Haas Unica W06 X Black") format("svg"); /* iOS 4.1- */
    }
    @font-face {font-family: "NeueHaasUnicaW06-Light";
    src: url("/Blog/main/fonts/NeueHaasUnicaW06/OnlineWebFonts_COM_c59b16964f2eec693c72eb9c925ef088/@font-face/145bf6f8eebf1ad036f74d821af7d94b.eot"); /* IE9*/
    src: url("/Blog/main/fonts/NeueHaasUnicaW06/OnlineWebFonts_COM_c59b16964f2eec693c72eb9c925ef088/@font-face/145bf6f8eebf1ad036f74d821af7d94b.eot?#iefix") format("embedded-opentype"), /* IE6-IE8 */
    url("/Blog/main/fonts/NeueHaasUnicaW06/OnlineWebFonts_COM_c59b16964f2eec693c72eb9c925ef088/@font-face/145bf6f8eebf1ad036f74d821af7d94b.woff") format("woff2"), /* chrome、firefox */
    url("/Blog/main/fonts/NeueHaasUnicaW06/OnlineWebFonts_COM_c59b16964f2eec693c72eb9c925ef088/@font-face/145bf6f8eebf1ad036f74d821af7d94b.woff2") format("woff"), /* chrome、firefox */
    url("/Blog/main/fonts/NeueHaasUnicaW06/OnlineWebFonts_COM_c59b16964f2eec693c72eb9c925ef088/@font-face/145bf6f8eebf1ad036f74d821af7d94b.ttf") format("truetype"), /* chrome、firefox、opera、Safari, Android, iOS 4.2+*/
    url("/Blog/main/fonts/NeueHaasUnicaW06/OnlineWebFonts_COM_c59b16964f2eec693c72eb9c925ef088/@font-face/145bf6f8eebf1ad036f74d821af7d94b.svg#Neue Haas Unica W06 X Black") format("svg"); /* iOS 4.1- */
    }
    @font-face {font-family: "NeueHaasUnicaW06-MediumIt";
    src: url("/Blog/main/fonts/NeueHaasUnicaW06/OnlineWebFonts_COM_d179b86ccc44b19f872ad2ce5d9141f0/@font-face/2a415f48f53c15b960c82ad93f0a2ee0.eot"); /* IE9*/
    src: url("/Blog/main/fonts/NeueHaasUnicaW06/OnlineWebFonts_COM_d179b86ccc44b19f872ad2ce5d9141f0/@font-face/2a415f48f53c15b960c82ad93f0a2ee0.eot?#iefix") format("embedded-opentype"), /* IE6-IE8 */
    url("/Blog/main/fonts/NeueHaasUnicaW06/OnlineWebFonts_COM_d179b86ccc44b19f872ad2ce5d9141f0/@font-face/2a415f48f53c15b960c82ad93f0a2ee0.woff") format("woff2"), /* chrome、firefox */
    url("/Blog/main/fonts/NeueHaasUnicaW06/OnlineWebFonts_COM_d179b86ccc44b19f872ad2ce5d9141f0/@font-face/2a415f48f53c15b960c82ad93f0a2ee0.woff2") format("woff"), /* chrome、firefox */
    url("/Blog/main/fonts/NeueHaasUnicaW06/OnlineWebFonts_COM_d179b86ccc44b19f872ad2ce5d9141f0/@font-face/2a415f48f53c15b960c82ad93f0a2ee0.ttf") format("truetype"), /* chrome、firefox、opera、Safari, Android, iOS 4.2+*/
    url("/Blog/main/fonts/NeueHaasUnicaW06/OnlineWebFonts_COM_d179b86ccc44b19f872ad2ce5d9141f0/@font-face/2a415f48f53c15b960c82ad93f0a2ee0.svg#Neue Haas Unica W06 X Black") format("svg"); /* iOS 4.1- */
    }
    @font-face {font-family: "NeueHaasUnicaW06-Thin";
    src: url("/Blog/main/fonts/NeueHaasUnicaW06/OnlineWebFonts_COM_e0d1d8bcd90f325e7a7f4a8b9636d78a/@font-face/740a2bcf13582a2a0ed99e15dffe7b9f.eot"); /* IE9*/
    src: url("/Blog/main/fonts/NeueHaasUnicaW06/OnlineWebFonts_COM_e0d1d8bcd90f325e7a7f4a8b9636d78a/@font-face/740a2bcf13582a2a0ed99e15dffe7b9f.eot?#iefix") format("embedded-opentype"), /* IE6-IE8 */
    url("/Blog/main/fonts/NeueHaasUnicaW06/OnlineWebFonts_COM_e0d1d8bcd90f325e7a7f4a8b9636d78a/@font-face/740a2bcf13582a2a0ed99e15dffe7b9f.woff") format("woff2"), /* chrome、firefox */
    url("/Blog/main/fonts/NeueHaasUnicaW06/OnlineWebFonts_COM_e0d1d8bcd90f325e7a7f4a8b9636d78a/@font-face/740a2bcf13582a2a0ed99e15dffe7b9f.woff2") format("woff"), /* chrome、firefox */
    url("/Blog/main/fonts/NeueHaasUnicaW06/OnlineWebFonts_COM_e0d1d8bcd90f325e7a7f4a8b9636d78a/@font-face/740a2bcf13582a2a0ed99e15dffe7b9f.ttf") format("truetype"), /* chrome、firefox、opera、Safari, Android, iOS 4.2+*/
    url("/Blog/main/fonts/NeueHaasUnicaW06/OnlineWebFonts_COM_e0d1d8bcd90f325e7a7f4a8b9636d78a/@font-face/740a2bcf13582a2a0ed99e15dffe7b9f.svg#Neue Haas Unica W06 X Black") format("svg"); /* iOS 4.1- */
    }
    @font-face {font-family: "NeueHaasUnicaW06-BoldItalic";
    src: url("/Blog/main/fonts/NeueHaasUnicaW06/OnlineWebFonts_COM_e4e54e1eb6c480425902156a32fef7d6/@font-face/61742cae2dd974e3c9604f614a4c57f1.eot"); /* IE9*/
    src: url("/Blog/main/fonts/NeueHaasUnicaW06/OnlineWebFonts_COM_e4e54e1eb6c480425902156a32fef7d6/@font-face/61742cae2dd974e3c9604f614a4c57f1.eot?#iefix") format("embedded-opentype"), /* IE6-IE8 */
    url("/Blog/main/fonts/NeueHaasUnicaW06/OnlineWebFonts_COM_e4e54e1eb6c480425902156a32fef7d6/@font-face/61742cae2dd974e3c9604f614a4c57f1.woff") format("woff2"), /* chrome、firefox */
    url("/Blog/main/fonts/NeueHaasUnicaW06/OnlineWebFonts_COM_e4e54e1eb6c480425902156a32fef7d6/@font-face/61742cae2dd974e3c9604f614a4c57f1.woff2") format("woff"), /* chrome、firefox */
    url("/Blog/main/fonts/NeueHaasUnicaW06/OnlineWebFonts_COM_e4e54e1eb6c480425902156a32fef7d6/@font-face/61742cae2dd974e3c9604f614a4c57f1.ttf") format("truetype"), /* chrome、firefox、opera、Safari, Android, iOS 4.2+*/
    url("/Blog/main/fonts/NeueHaasUnicaW06/OnlineWebFonts_COM_e4e54e1eb6c480425902156a32fef7d6/@font-face/61742cae2dd974e3c9604f614a4c57f1.svg#Neue Haas Unica W06 X Black") format("svg"); /* iOS 4.1- */
    }
    @font-face {font-family: "NeueHaasUnicaW06-Medium";
    src: url("/Blog/main/fonts/NeueHaasUnicaW06/OnlineWebFonts_COM_e009de3bc4003d481f48e90c6efd332f/@font-face/9c0afb6841117a1e2256b49b040cb768.eot"); /* IE9*/
    src: url("/Blog/main/fonts/NeueHaasUnicaW06/OnlineWebFonts_COM_e009de3bc4003d481f48e90c6efd332f/@font-face/9c0afb6841117a1e2256b49b040cb768.eot?#iefix") format("embedded-opentype"), /* IE6-IE8 */
    url("/Blog/main/fonts/NeueHaasUnicaW06/OnlineWebFonts_COM_e009de3bc4003d481f48e90c6efd332f/@font-face/9c0afb6841117a1e2256b49b040cb768.woff") format("woff2"), /* chrome、firefox */
    url("/Blog/main/fonts/NeueHaasUnicaW06/OnlineWebFonts_COM_e009de3bc4003d481f48e90c6efd332f/@font-face/9c0afb6841117a1e2256b49b040cb768.woff2") format("woff"), /* chrome、firefox */
    url("/Blog/main/fonts/NeueHaasUnicaW06/OnlineWebFonts_COM_e009de3bc4003d481f48e90c6efd332f/@font-face/9c0afb6841117a1e2256b49b040cb768.ttf") format("truetype"), /* chrome、firefox、opera、Safari, Android, iOS 4.2+*/
    url("/Blog/main/fonts/NeueHaasUnicaW06/OnlineWebFonts_COM_e009de3bc4003d481f48e90c6efd332f/@font-face/9c0afb6841117a1e2256b49b040cb768.svg#Neue Haas Unica W06 X Black") format("svg"); /* iOS 4.1- */
    }
    @font-face {font-family: "NeueHaasUnicaW06-BlackIt";
    src: url("/Blog/main/fonts/NeueHaasUnicaW06/OnlineWebFonts_COM_f0d250fc9c4208c6c78408a38db68150/@font-face/15e7a19454566924256299df2a72ab91.eot"); /* IE9*/
    src: url("/Blog/main/fonts/NeueHaasUnicaW06/OnlineWebFonts_COM_f0d250fc9c4208c6c78408a38db68150/@font-face/15e7a19454566924256299df2a72ab91.eot?#iefix") format("embedded-opentype"), /* IE6-IE8 */
    url("/Blog/main/fonts/NeueHaasUnicaW06/OnlineWebFonts_COM_f0d250fc9c4208c6c78408a38db68150/@font-face/15e7a19454566924256299df2a72ab91.woff") format("woff2"), /* chrome、firefox */
    url("/Blog/main/fonts/NeueHaasUnicaW06/OnlineWebFonts_COM_f0d250fc9c4208c6c78408a38db68150/@font-face/15e7a19454566924256299df2a72ab91.woff2") format("woff"), /* chrome、firefox */
    url("/Blog/main/fonts/NeueHaasUnicaW06/OnlineWebFonts_COM_f0d250fc9c4208c6c78408a38db68150/@font-face/15e7a19454566924256299df2a72ab91.ttf") format("truetype"), /* chrome、firefox、opera、Safari, Android, iOS 4.2+*/
    url("/Blog/main/fonts/NeueHaasUnicaW06/OnlineWebFonts_COM_f0d250fc9c4208c6c78408a38db68150/@font-face/15e7a19454566924256299df2a72ab91.svg#Neue Haas Unica W06 X Black") format("svg"); /* iOS 4.1- */
    }.cls-1{font-size:24px;}.cls-1,.cls-6{fill:#1d1d1b;font-family:NeueHaasUnicaW06-Regular;}.cls-2{letter-spacing:0em;}.cls-3{letter-spacing:-0.02em;}.cls-4{letter-spacing:0em;}.cls-5{letter-spacing:-0.01em;}.cls-6{font-size:18px;}.cls-7{letter-spacing:-0.02em;}.cls-8{letter-spacing:0.01em;}.cls-9{letter-spacing:0.01em;}.cls-10{letter-spacing:-0.01em;}.cls-11{letter-spacing:0em;}.cls-12{letter-spacing:-0.02em;}.cls-13{letter-spacing:-0.02em;}.cls-14{letter-spacing:0.01em;}.cls-15{letter-spacing:-0.01em;}.cls-16{letter-spacing:-0.02em;}.cls-17{letter-spacing:-0.01em;}.cls-18{letter-spacing:0em;}.cls-19{letter-spacing:-0.04em;}.cls-20{letter-spacing:-0.02em;}.cls-21{letter-spacing:0.01em;}.cls-22{letter-spacing:-0.01em;}.cls-23{letter-spacing:0.01em;}.cls-24{letter-spacing:0.01em;}.cls-25{letter-spacing:0em;}.cls-26{letter-spacing:-0.07em;}.cls-27{letter-spacing:-0.01em;}.cls-28{letter-spacing:0em;}.cls-29{letter-spacing:-0.01em;}.cls-30{letter-spacing:-0.03em;}.cls-31{letter-spacing:-0.02em;}.cls-32{letter-spacing:-0.01em;}.cls-33{letter-spacing:-0.01em;}.cls-34{letter-spacing:-0.02em;}.cls-35{letter-spacing:-0.01em;}.cls-36{letter-spacing:-0.02em;}.cls-37{letter-spacing:-0.02em;}.cls-38{letter-spacing:0em;}.cls-39{letter-spacing:-0.04em;}.cls-40{letter-spacing:-0.02em;}.cls-41{letter-spacing:-0.03em;}.cls-42{letter-spacing:-0.03em;}.cls-43{letter-spacing:-0.02em;}.cls-44{letter-spacing:0.01em;}.cls-45{letter-spacing:-0.02em;}.cls-46{letter-spacing:0em;}.cls-47{letter-spacing:-0.01em;}.cls-48{letter-spacing:-0.02em;}.cls-49{letter-spacing:0.02em;}.cls-50{letter-spacing:0em;}.cls-51{letter-spacing:-0.09em;}.cls-52{letter-spacing:0.01em;}.cls-53{letter-spacing:-0.11em;}.cls-54{letter-spacing:0.02em;}.cls-55{letter-spacing:0.02em;}.cls-56{letter-spacing:-0.04em;}</style></defs><title>3. Map Marble Park</title><text class="cls-1" transform="translate(30.69 22.25)"><tspan class="cls-2">w</tspan><tspan x="18.38" y="0">as</tspan><tspan class="cls-3" x="42.98" y="0">t</tspan><tspan class="cls-4" x="50.28" y="0">e manageme</tspan><tspan class="cls-5" x="189.88" y="0">n</tspan><tspan x="203.47" y="0">t</tspan></text><text class="cls-6" transform="translate(0.11 98.27)">The Marble industry p<tspan class="cls-7" x="176.54" y="0">r</tspan><tspan class="cls-8" x="182.71" y="0">o</tspan><tspan x="193.06" y="0">du</tspan><tspan class="cls-9" x="213.8" y="0">ce</tspan><tspan x="233.53" y="0">s </tspan><tspan x="0" y="21.6">la</tspan><tspan class="cls-7" x="13.95" y="21.6">r</tspan><tspan x="20.12" y="21.6">ge amou</tspan><tspan class="cls-10" x="90.11" y="21.6">n</tspan><tspan x="100.29" y="21.6">t of </tspan><tspan class="cls-11" x="129.99" y="21.6">w</tspan><tspan x="143.78" y="21.6">as</tspan><tspan class="cls-12" x="162.23" y="21.6">t</tspan><tspan x="167.7" y="21.6">e during </tspan><tspan x="0" y="43.2">mining and p</tspan><tspan class="cls-7" x="104.31" y="43.2">r</tspan><tspan class="cls-8" x="110.48" y="43.2">o</tspan><tspan class="cls-9" x="120.83" y="43.2">ce</tspan><tspan x="140.56" y="43.2">ssing stag</tspan><tspan class="cls-9" x="222.08" y="43.2">e</tspan><tspan x="232.09" y="43.2">s. </tspan><tspan x="0" y="64.8">This </tspan><tspan class="cls-11" x="38.57" y="64.8">w</tspan><tspan x="52.36" y="64.8">as</tspan><tspan class="cls-13" x="70.81" y="64.8">t</tspan><tspan x="76.28" y="64.8">e is dum</tspan><tspan class="cls-8" x="144.01" y="64.8">pe</tspan><tspan x="164.64" y="64.8">d on </tspan><tspan class="cls-12" x="203.83" y="64.8">t</tspan><tspan x="209.3" y="64.8">o o</tspan><tspan class="cls-8" x="233.78" y="64.8">p</tspan><tspan x="244.33" y="64.8">en </tspan><tspan x="0" y="86.4">land which c</tspan><tspan class="cls-7" x="101.18" y="86.4">r</tspan><tspan x="107.35" y="86.4">e</tspan><tspan class="cls-10" x="117.25" y="86.4">a</tspan><tspan class="cls-12" x="126.63" y="86.4">t</tspan><tspan class="cls-14" x="132.1" y="86.4">e</tspan><tspan x="142.11" y="86.4">s a l</tspan><tspan class="cls-15" x="173.23" y="86.4">o</tspan><tspan x="183.29" y="86.4">t of en</tspan><tspan x="233.26" y="86.4">-</tspan><tspan x="0" y="108">vi</tspan><tspan class="cls-7" x="12.85" y="108">r</tspan><tspan x="19.03" y="108">onme</tspan><tspan class="cls-10" x="65" y="108">n</tspan><tspan x="75.19" y="108">tal p</tspan><tspan class="cls-16" x="109.4" y="108">r</tspan><tspan x="115.58" y="108" xml:space="preserve">oblems.  N</tspan><tspan class="cls-15" x="200.77" y="108">o</tspan><tspan x="210.83" y="108" xml:space="preserve">t only  </tspan><tspan class="cls-17" x="0" y="129.6">f</tspan><tspan x="5.22" y="129.6">or </tspan><tspan class="cls-8" x="26.05" y="129.6">e</tspan><tspan class="cls-14" x="36.13" y="129.6">c</tspan><tspan x="45.84" y="129.6">ol</tspan><tspan class="cls-8" x="60.41" y="129.6">o</tspan><tspan x="70.76" y="129.6">gical </tspan><tspan class="cls-16" x="113.16" y="129.6">r</tspan><tspan x="119.34" y="129.6">ea</tspan><tspan class="cls-9" x="138.79" y="129.6">s</tspan><tspan x="147.79" y="129.6">ons, but al</tspan><tspan class="cls-14" x="230.02" y="129.6">s</tspan><tspan x="239.02" y="129.6">o </tspan><tspan x="0" y="151.2">in </tspan><tspan class="cls-12" x="18.9" y="151.2">t</tspan><tspan x="24.37" y="151.2">erms of </tspan><tspan class="cls-7" x="89.15" y="151.2">r</tspan><tspan x="95.33" y="151.2" xml:space="preserve">eusing  the </tspan><tspan class="cls-18" x="188" y="151.2">v</tspan><tspan x="196.41" y="151.2">ery s</tspan><tspan class="cls-8" x="234.35" y="151.2">p</tspan><tspan x="244.9" y="151.2">e</tspan><tspan x="254.8" y="151.2">-</tspan><tspan x="0" y="172.8">cial and l</tspan><tspan class="cls-8" x="70.92" y="172.8">o</tspan><tspan x="81.27" y="172.8">cal m</tspan><tspan class="cls-10" x="124.5" y="172.8">a</tspan><tspan class="cls-12" x="133.88" y="172.8">t</tspan><tspan x="139.35" y="172.8">erial, the p</tspan><tspan class="cls-7" x="222.85" y="172.8">r</tspan><tspan x="229.03" y="172.8">o</tspan><tspan x="239.2" y="172.8">-</tspan><tspan x="0" y="194.4">long</tspan><tspan class="cls-10" x="35.24" y="194.4">a</tspan><tspan x="44.62" y="194.4">tion of the s</tspan><tspan class="cls-12" x="138.31" y="194.4">t</tspan><tspan x="143.78" y="194.4">one</tspan><tspan class="cls-19" x="174.22" y="194.4">’</tspan><tspan x="177.76" y="194.4">s li</tspan><tspan class="cls-20" x="199.58" y="194.4">f</tspan><tspan class="cls-21" x="204.8" y="194.4">e</tspan><tspan class="cls-22" x="214.88" y="194.4">c</tspan><tspan class="cls-18" x="224.33" y="194.4">y</tspan><tspan x="232.77" y="194.4">cle </tspan><tspan x="0" y="216">is highly demand</tspan><tspan class="cls-8" x="135.99" y="216">e</tspan><tspan x="146.07" y="216">d. </tspan></text><text class="cls-1" transform="translate(341.12 22.25)"><tspan class="cls-23">e</tspan><tspan x="13.44" y="0">duc</tspan><tspan class="cls-5" x="53.9" y="0">a</tspan><tspan x="66.41" y="0">tion/industry</tspan></text><text class="cls-6" transform="translate(304.96 98.27)">The link <tspan class="cls-8" x="67.48" y="0">b</tspan><tspan class="cls-15" x="78.03" y="0">e</tspan><tspan class="cls-8" x="87.82" y="0">t</tspan><tspan class="cls-18" x="93.76" y="0">w</tspan><tspan class="cls-8" x="107.57" y="0">e</tspan><tspan x="117.64" y="0">en </tspan><tspan class="cls-8" x="142.05" y="0">e</tspan><tspan x="152.13" y="0">duc</tspan><tspan class="cls-10" x="182.48" y="0">a</tspan><tspan x="191.86" y="0">tion and </tspan><tspan x="0" y="21.6">industry </tspan><tspan class="cls-12" x="69.3" y="21.6">t</tspan><tspan class="cls-8" x="74.77" y="21.6">o</tspan><tspan x="85.12" y="21.6">d</tspan><tspan class="cls-13" x="95.49" y="21.6">a</tspan><tspan x="104.76" y="21.6">y is mo</tspan><tspan class="cls-7" x="160.52" y="21.6">r</tspan><tspan x="166.7" y="21.6">e im</tspan><tspan class="cls-8" x="200.66" y="21.6">p</tspan><tspan x="211.21" y="21.6">o</tspan><tspan class="cls-24" x="221.38" y="21.6">r</tspan><tspan x="228.11" y="21.6">tn</tspan><tspan class="cls-10" x="244.24" y="21.6">a</tspan><tspan x="253.62" y="21.6">t </tspan><tspan x="0" y="43.2">than sin</tspan><tspan class="cls-9" x="63.84" y="43.2">c</tspan><tspan x="73.57" y="43.2">e </tspan><tspan class="cls-25" x="87.6" y="43.2">ev</tspan><tspan x="105.86" y="43.2">e</tspan><tspan class="cls-26" x="115.75" y="43.2">r</tspan><tspan x="120.99" y="43.2">. </tspan><tspan class="cls-27" x="129.2" y="43.2">L</tspan><tspan class="cls-8" x="139.06" y="43.2">o</tspan><tspan class="cls-28" x="149.41" y="43.2">cal s</tspan><tspan class="cls-8" x="186.01" y="43.2">pe</tspan><tspan x="206.63" y="43.2">cific </tspan><tspan x="0" y="64.8">jobs and an early </tspan><tspan class="cls-9" x="139.55" y="64.8">c</tspan><tspan x="149.27" y="64.8">onn</tspan><tspan class="cls-8" x="180.18" y="64.8">e</tspan><tspan x="190.26" y="64.8">ction </tspan><tspan class="cls-8" x="0" y="86.4">b</tspan><tspan class="cls-15" x="10.55" y="86.4">e</tspan><tspan class="cls-8" x="20.34" y="86.4">t</tspan><tspan class="cls-18" x="26.28" y="86.4">w</tspan><tspan class="cls-8" x="40.08" y="86.4">e</tspan><tspan x="50.16" y="86.4">en the </tspan><tspan class="cls-8" x="104.74" y="86.4">t</tspan><tspan class="cls-18" x="110.68" y="86.4">w</tspan><tspan x="124.48" y="86.4">o </tspan><tspan class="cls-9" x="138.79" y="86.4">s</tspan><tspan class="cls-8" x="147.79" y="86.4">e</tspan><tspan x="157.87" y="86.4">c</tspan><tspan class="cls-12" x="167.48" y="86.4">t</tspan><tspan x="172.96" y="86.4">o</tspan><tspan class="cls-29" x="183.13" y="86.4">r</tspan><tspan x="189.41" y="86.4">s lin</tspan><tspan class="cls-30" x="221.59" y="86.4">k</tspan><tspan x="230.14" y="86.4">s </tspan><tspan x="0" y="108">the </tspan><tspan class="cls-8" x="30.17" y="108">pe</tspan><tspan x="50.79" y="108">ople mo</tspan><tspan class="cls-7" x="115.47" y="108">r</tspan><tspan x="121.64" y="108">e </tspan><tspan class="cls-13" x="135.68" y="108">t</tspan><tspan x="141.15" y="108">o their home</tspan><tspan x="242.51" y="108">-</tspan><tspan class="cls-12" x="0" y="129.6">t</tspan><tspan class="cls-18" x="5.47" y="129.6">o</tspan><tspan x="15.59" y="129.6">wn and p</tspan><tspan class="cls-7" x="88.76" y="129.6">r</tspan><tspan class="cls-18" x="94.93" y="129.6">o</tspan><tspan x="105.05" y="129.6">vid</tspan><tspan class="cls-14" x="128.27" y="129.6">e</tspan><tspan x="138.27" y="129.6">s s</tspan><tspan class="cls-21" x="160.2" y="129.6">pe</tspan><tspan x="180.82" y="129.6">ciali</tspan><tspan class="cls-27" x="213.17" y="129.6">z</tspan><tspan class="cls-21" x="221.38" y="129.6">e</tspan><tspan x="231.46" y="129.6">d </tspan><tspan class="cls-18" x="0" y="151.2">w</tspan><tspan x="13.81" y="151.2">or</tspan><tspan class="cls-10" x="30.49" y="151.2">k</tspan><tspan class="cls-20" x="39.31" y="151.2">f</tspan><tspan x="44.53" y="151.2">o</tspan><tspan class="cls-7" x="54.7" y="151.2">r</tspan><tspan class="cls-9" x="60.88" y="151.2">c</tspan><tspan x="70.6" y="151.2">e. Ex</tspan><tspan class="cls-8" x="108.47" y="151.2">p</tspan><tspan x="119.01" y="151.2">erien</tspan><tspan class="cls-14" x="160.09" y="151.2">c</tspan><tspan class="cls-21" x="169.81" y="151.2">e</tspan><tspan x="179.89" y="151.2">d </tspan><tspan class="cls-8" x="194.4" y="151.2">pe</tspan><tspan x="215.02" y="151.2">ople, </tspan><tspan x="0" y="172.8">who can gi</tspan><tspan class="cls-18" x="86.92" y="172.8">v</tspan><tspan x="95.33" y="172.8">e their </tspan><tspan class="cls-10" x="150.44" y="172.8">k</tspan><tspan x="159.26" y="172.8">n</tspan><tspan class="cls-18" x="169.63" y="172.8">o</tspan><tspan x="179.75" y="172.8">wl</tspan><tspan class="cls-8" x="198" y="172.8">e</tspan><tspan x="208.08" y="172.8">dge </tspan><tspan class="cls-12" x="242.8" y="172.8">t</tspan><tspan x="248.27" y="172.8">o </tspan><tspan x="0" y="194.4">the </tspan><tspan class="cls-17" x="30.17" y="194.4">f</tspan><tspan x="35.39" y="194.4">oll</tspan><tspan class="cls-25" x="54.34" y="194.4">o</tspan><tspan x="64.46" y="194.4">wing gene</tspan><tspan class="cls-31" x="148.01" y="194.4">r</tspan><tspan class="cls-32" x="154.11" y="194.4">a</tspan><tspan x="163.49" y="194.4">tions is cru</tspan><tspan x="251.13" y="194.4">-</tspan><tspan x="0" y="216">cial </tspan><tspan class="cls-17" x="32.09" y="216">f</tspan><tspan x="37.31" y="216">or the surviving of l</tspan><tspan class="cls-8" x="188.8" y="216">o</tspan><tspan x="199.15" y="216">cal </tspan><tspan x="0" y="237.6">industri</tspan><tspan class="cls-9" x="61.05" y="237.6">e</tspan><tspan x="71.06" y="237.6">s.</tspan></text><text class="cls-1" transform="translate(673.2 20.54)">surplus </text><text class="cls-6" transform="translate(590.17 97.8)"><tspan class="cls-33">F</tspan><tspan class="cls-29" x="10.21" y="0">a</tspan><tspan x="19.53" y="0">us</tspan><tspan class="cls-34" x="38.79" y="0">k</tspan><tspan x="47.36" y="0">e has the </tspan><tspan class="cls-18" x="124.52" y="0">v</tspan><tspan x="132.93" y="0">ery lu</tspan><tspan class="cls-35" x="176.74" y="0">x</tspan><tspan x="185.18" y="0">ury situa</tspan><tspan x="253.67" y="0">-</tspan><tspan x="0" y="21.6">tion of h</tspan><tspan class="cls-36" x="65" y="21.6">a</tspan><tspan x="74.25" y="21.6">ving a surplu of g</tspan><tspan class="cls-7" x="210.78" y="21.6">r</tspan><tspan class="cls-8" x="216.95" y="21.6">e</tspan><tspan x="227.03" y="21.6">en </tspan><tspan x="0" y="43.2">(</tspan><tspan class="cls-37" x="5.26" y="43.2">h</tspan><tspan class="cls-38" x="15.26" y="43.2">y</tspan><tspan x="23.67" y="43.2">d</tspan><tspan class="cls-16" x="34.04" y="43.2">r</tspan><tspan x="40.21" y="43.2">o</tspan><tspan class="cls-21" x="50.38" y="43.2">p</tspan><tspan class="cls-18" x="60.93" y="43.2">ow</tspan><tspan x="84.85" y="43.2">er-ba</tspan><tspan class="cls-9" x="126.59" y="43.2">s</tspan><tspan class="cls-8" x="135.59" y="43.2">e</tspan><tspan x="145.67" y="43.2">d) ene</tspan><tspan class="cls-7" x="195.6" y="43.2">r</tspan><tspan class="cls-17" x="201.78" y="43.2">g</tspan><tspan class="cls-39" x="211.82" y="43.2">y</tspan><tspan x="219.65" y="43.2">. No</tspan><tspan x="251.62" y="43.2">-</tspan><tspan class="cls-11" x="0" y="64.8">w</tspan><tspan x="13.79" y="64.8">ad</tspan><tspan class="cls-13" x="33.71" y="64.8">a</tspan><tspan x="42.98" y="64.8">y s, ene</tspan><tspan class="cls-16" x="102.89" y="64.8">r</tspan><tspan class="cls-17" x="109.06" y="64.8">g</tspan><tspan x="119.1" y="64.8">y g</tspan><tspan class="cls-33" x="142.05" y="64.8">e</tspan><tspan x="151.84" y="64.8">ts a mo</tspan><tspan class="cls-7" x="210.04" y="64.8">r</tspan><tspan x="216.21" y="64.8">e and </tspan><tspan x="0" y="86.4">mo</tspan><tspan class="cls-7" x="25.7" y="86.4">r</tspan><tspan x="31.88" y="86.4">e </tspan><tspan class="cls-10" x="45.92" y="86.4">e</tspan><tspan x="55.64" y="86.4">x</tspan><tspan class="cls-8" x="64.28" y="86.4">p</tspan><tspan x="74.82" y="86.4">ensi</tspan><tspan class="cls-18" x="108.38" y="86.4">v</tspan><tspan x="116.78" y="86.4">e </tspan><tspan class="cls-8" x="130.82" y="86.4">be</tspan><tspan class="cls-9" x="151.45" y="86.4">c</tspan><tspan x="161.17" y="86.4">oming </tspan><tspan class="cls-7" x="216.08" y="86.4">r</tspan><tspan x="222.26" y="86.4">e</tspan><tspan x="232.16" y="86.4">-</tspan><tspan class="cls-9" x="0" y="108">s</tspan><tspan x="9" y="108">ou</tspan><tspan class="cls-16" x="29.54" y="108">r</tspan><tspan class="cls-9" x="35.71" y="108">c</tspan><tspan x="45.43" y="108">e and the whole </tspan><tspan class="cls-18" x="176.9" y="108">w</tspan><tspan x="190.71" y="108">orld tri</tspan><tspan class="cls-14" x="242.96" y="108">e</tspan><tspan x="252.96" y="108">s </tspan><tspan class="cls-12" x="0" y="129.6">t</tspan><tspan x="5.47" y="129.6" xml:space="preserve">o  m</tspan><tspan class="cls-8" x="39.46" y="129.6">e</tspan><tspan class="cls-15" x="49.53" y="129.6">e</tspan><tspan x="59.33" y="129.6">t th</tspan><tspan class="cls-10" x="85.35" y="129.6">a</tspan><tspan x="94.73" y="129.6">t g</tspan><tspan class="cls-7" x="114.94" y="129.6">r</tspan><tspan class="cls-25" x="121.12" y="129.6">o</tspan><tspan x="131.23" y="129.6">wing demand </tspan><tspan x="0" y="151.2">without emmitting </tspan><tspan class="cls-12" x="150.91" y="151.2">t</tspan><tspan class="cls-8" x="156.38" y="151.2">o</tspan><tspan x="166.73" y="151.2">o </tspan><tspan class="cls-10" x="181.04" y="151.2">m</tspan><tspan x="196.39" y="151.2">uch </tspan><tspan x="0" y="172.8">g</tspan><tspan class="cls-7" x="10.31" y="172.8">r</tspan><tspan class="cls-8" x="16.49" y="172.8">e</tspan><tspan x="26.57" y="172.8">enhou</tspan><tspan class="cls-9" x="77.74" y="172.8">s</tspan><tspan x="86.74" y="172.8">e ga</tspan><tspan class="cls-14" x="120.65" y="172.8">se</tspan><tspan x="139.66" y="172.8" xml:space="preserve">s.  So w</tspan><tspan class="cls-40" x="200.03" y="172.8">h</tspan><tspan x="210.04" y="172.8">y n</tspan><tspan class="cls-15" x="233.04" y="172.8">o</tspan><tspan x="243.1" y="172.8">t </tspan><tspan x="0" y="194.4">u</tspan><tspan class="cls-9" x="10.37" y="194.4">s</tspan><tspan x="19.37" y="194.4">e the ene</tspan><tspan class="cls-16" x="93.74" y="194.4">r</tspan><tspan class="cls-17" x="99.91" y="194.4">g</tspan><tspan x="109.96" y="194.4">y wi</tspan><tspan class="cls-14" x="140.85" y="194.4">s</tspan><tspan x="149.84" y="194.4">ely </tspan><tspan class="cls-13" x="176.77" y="194.4">t</tspan><tspan x="182.24" y="194.4">o </tspan><tspan class="cls-14" x="196.55" y="194.4">s</tspan><tspan class="cls-8" x="205.55" y="194.4">e</tspan><tspan x="215.63" y="194.4">cu</tspan><tspan class="cls-7" x="235.61" y="194.4">r</tspan><tspan x="241.79" y="194.4">e </tspan><tspan x="0" y="216">no</tspan><tspan class="cls-24" x="20.54" y="216">r</tspan><tspan x="27.27" y="216">thern-no</tspan><tspan class="cls-7" x="96.12" y="216">r</tspan><tspan x="102.29" y="216">dic cultu</tspan><tspan class="cls-7" x="171.3" y="216">r</tspan><tspan class="cls-41" x="177.48" y="216">e</tspan><tspan class="cls-42" x="186.84" y="216">?</tspan></text><text class="cls-1" transform="translate(890.79 22.25)">demand <tspan class="cls-43" x="93.65" y="0">f</tspan><tspan x="100.61" y="0">or l</tspan><tspan class="cls-23" x="134.23" y="0">o</tspan><tspan x="148.03" y="0">cal m</tspan><tspan class="cls-5" x="205.68" y="0">a</tspan><tspan class="cls-13" x="218.18" y="0">t</tspan><tspan class="cls-4" x="225.48" y="0">erial</tspan></text><text class="cls-6" transform="translate(893.49 98.27)">The u<tspan class="cls-9" x="45.56" y="0">s</tspan><tspan x="54.56" y="0">e of l</tspan><tspan class="cls-8" x="92.79" y="0">o</tspan><tspan x="103.14" y="0">cal m</tspan><tspan class="cls-10" x="146.37" y="0">a</tspan><tspan class="cls-12" x="155.75" y="0">t</tspan><tspan x="161.22" y="0">erial </tspan><tspan class="cls-44" x="200.12" y="0">s</tspan><tspan class="cls-36" x="209.28" y="0">a</tspan><tspan class="cls-18" x="218.53" y="0">v</tspan><tspan class="cls-14" x="226.94" y="0">e</tspan><tspan x="236.94" y="0">s </tspan><tspan class="cls-18" x="0" y="21.6">y</tspan><tspan x="8.44" y="21.6">ou </tspan><tspan class="cls-8" x="33.12" y="21.6">b</tspan><tspan class="cls-15" x="43.67" y="21.6">o</tspan><tspan x="53.73" y="21.6">th mon</tspan><tspan class="cls-38" x="110.07" y="21.6">e</tspan><tspan x="119.88" y="21.6">y and time. Shor</tspan><tspan x="248.76" y="21.6">-</tspan><tspan class="cls-12" x="0" y="43.2">t</tspan><tspan x="5.47" y="43.2">er t</tspan><tspan class="cls-45" x="31.79" y="43.2">r</tspan><tspan x="37.89" y="43.2">ans</tspan><tspan class="cls-21" x="66.71" y="43.2">p</tspan><tspan x="77.25" y="43.2">o</tspan><tspan class="cls-24" x="87.42" y="43.2">r</tspan><tspan x="94.16" y="43.2">t</tspan><tspan class="cls-32" x="99.92" y="43.2">a</tspan><tspan x="109.29" y="43.2">tion </tspan><tspan class="cls-46" x="144.12" y="43.2">w</tspan><tspan class="cls-12" x="157.91" y="43.2">a</tspan><tspan class="cls-47" x="167.18" y="43.2">y</tspan><tspan x="175.42" y="43.2">s means </tspan><tspan x="0" y="64.8">l</tspan><tspan class="cls-9" x="4.39" y="64.8">e</tspan><tspan x="14.4" y="64.8">ss emissions and a quic</tspan><tspan class="cls-48" x="204.76" y="64.8">k</tspan><tspan x="213.33" y="64.8">er </tspan><tspan class="cls-36" x="0" y="86.4">a</tspan><tspan class="cls-35" x="9.25" y="86.4">v</tspan><tspan x="17.51" y="86.4">ailabili</tspan><tspan class="cls-49" x="68.96" y="86.4">t</tspan><tspan class="cls-39" x="74.99" y="86.4">y</tspan><tspan x="82.82" y="86.4">. Fu</tspan><tspan class="cls-24" x="111.71" y="86.4">r</tspan><tspan x="118.44" y="86.4">thermo</tspan><tspan class="cls-7" x="176.68" y="86.4">r</tspan><tspan x="182.86" y="86.4">e it gi</tspan><tspan class="cls-18" x="225.89" y="86.4">v</tspan><tspan class="cls-14" x="234.3" y="86.4">e</tspan><tspan x="244.31" y="86.4">s </tspan><tspan x="0" y="108">the obj</tspan><tspan class="cls-8" x="55.19" y="108">e</tspan><tspan x="65.27" y="108">ct or the si</tspan><tspan class="cls-12" x="149.05" y="108">t</tspan><tspan x="154.52" y="108">e, the m</tspan><tspan class="cls-10" x="218.33" y="108">a</tspan><tspan class="cls-13" x="227.71" y="108">t</tspan><tspan class="cls-50" x="233.18" y="108">eri</tspan><tspan x="253.99" y="108">-</tspan><tspan x="0" y="129.6">al </tspan><tspan class="cls-11" x="18.09" y="129.6">w</tspan><tspan x="31.88" y="129.6">as u</tspan><tspan class="cls-9" x="64.83" y="129.6">s</tspan><tspan class="cls-8" x="73.83" y="129.6">e</tspan><tspan x="83.91" y="129.6">d </tspan><tspan class="cls-17" x="98.42" y="129.6">f</tspan><tspan x="103.64" y="129.6">or</tspan><tspan class="cls-51" x="120.33" y="129.6">/</tspan><tspan class="cls-10" x="126.93" y="129.6">a</tspan><tspan x="136.31" y="129.6">t a s</tspan><tspan class="cls-8" x="168.8" y="129.6">pe</tspan><tspan x="189.42" y="129.6">cial and </tspan><tspan x="0" y="151.2">l</tspan><tspan class="cls-8" x="4.39" y="151.2">o</tspan><tspan x="14.74" y="151.2">cal </tspan><tspan class="cls-12" x="42.44" y="151.2">t</tspan><tspan x="47.91" y="151.2">ouch, which is o</tspan><tspan class="cls-21" x="176.97" y="151.2">f</tspan><tspan class="cls-12" x="182.64" y="151.2">t</tspan><tspan x="188.12" y="151.2">en an </tspan><tspan x="0" y="172.8">ad</tspan><tspan class="cls-35" x="19.93" y="172.8">v</tspan><tspan class="cls-28" x="28.19" y="172.8">a</tspan><tspan class="cls-32" x="37.75" y="172.8">n</tspan><tspan x="47.93" y="172.8">tage </tspan><tspan class="cls-13" x="87.6" y="172.8">t</tspan><tspan x="93.08" y="172.8">o gene</tspan><tspan class="cls-45" x="147.87" y="172.8">r</tspan><tspan class="cls-32" x="153.97" y="172.8">a</tspan><tspan class="cls-13" x="163.35" y="172.8">t</tspan><tspan x="168.82" y="172.8">e higher </tspan><tspan class="cls-12" x="0" y="194.4">t</tspan><tspan x="5.47" y="194.4">ourism </tspan><tspan class="cls-10" x="65.48" y="194.4">n</tspan><tspan x="75.67" y="194.4">um</tspan><tspan class="cls-8" x="101.57" y="194.4">b</tspan><tspan x="112.12" y="194.4">e</tspan><tspan class="cls-29" x="122.02" y="194.4">r</tspan><tspan x="128.3" y="194.4">s.</tspan></text><text class="cls-1" transform="translate(1282.39 22.25)">sta<tspan class="cls-52" x="32.28" y="0">r</tspan><tspan x="41.25" y="0">t up</tspan></text><text class="cls-6" transform="translate(1183.02 97.79)"><tspan class="cls-53">Y</tspan><tspan x="9.13" y="0">oung </tspan><tspan class="cls-8" x="54.49" y="0">pe</tspan><tspan x="75.11" y="0">ople with s</tspan><tspan class="cls-21" x="161.49" y="0">pe</tspan><tspan x="182.12" y="0">cial </tspan><tspan x="0" y="21.6">tale</tspan><tspan class="cls-10" x="29.61" y="21.6">n</tspan><tspan x="39.8" y="21.6">ts and inn</tspan><tspan class="cls-18" x="118.15" y="21.6">o</tspan><tspan class="cls-35" x="128.27" y="21.6">v</tspan><tspan class="cls-10" x="136.53" y="21.6">a</tspan><tspan x="145.91" y="21.6">ti</tspan><tspan class="cls-18" x="156.06" y="21.6">v</tspan><tspan x="164.46" y="21.6">e thin</tspan><tspan class="cls-10" x="209.39" y="21.6">k</tspan><tspan x="218.21" y="21.6">ing </tspan><tspan x="0" y="43.2">n</tspan><tspan class="cls-8" x="10.37" y="43.2">ee</tspan><tspan x="30.53" y="43.2">d a </tspan><tspan class="cls-9" x="58.73" y="43.2">s</tspan><tspan class="cls-8" x="67.73" y="43.2">e</tspan><tspan x="77.81" y="43.2">cu</tspan><tspan class="cls-7" x="97.79" y="43.2">r</tspan><tspan x="103.96" y="43.2">e e</tspan><tspan class="cls-37" x="127.9" y="43.2">n</tspan><tspan x="137.91" y="43.2">vi</tspan><tspan class="cls-16" x="150.76" y="43.2">r</tspan><tspan x="156.94" y="43.2">onme</tspan><tspan class="cls-10" x="202.91" y="43.2">n</tspan><tspan x="213.1" y="43.2">t </tspan><tspan class="cls-12" x="223" y="43.2">t</tspan><tspan x="228.47" y="43.2">o </tspan><tspan x="0" y="64.8">d</tspan><tspan class="cls-18" x="10.37" y="64.8">ev</tspan><tspan x="28.62" y="64.8">elop their ideas. Th</tspan><tspan class="cls-14" x="181.13" y="64.8">os</tspan><tspan x="200.41" y="64.8">e </tspan><tspan x="0" y="86.4">sta</tspan><tspan class="cls-24" x="24.21" y="86.4">r</tspan><tspan x="30.94" y="86.4">t-u</tspan><tspan class="cls-54" x="52.47" y="86.4">p-</tspan><tspan class="cls-14" x="68.96" y="86.4">c</tspan><tspan x="78.68" y="86.4">ompani</tspan><tspan class="cls-9" x="139.06" y="86.4">e</tspan><tspan x="149.07" y="86.4">s o</tspan><tspan class="cls-8" x="172.27" y="86.4">f</tspan><tspan class="cls-12" x="177.94" y="86.4">t</tspan><tspan x="183.42" y="86.4">en p</tspan><tspan class="cls-7" x="218.19" y="86.4">r</tspan><tspan x="224.36" y="86.4">omi</tspan><tspan x="254.46" y="86.4">-</tspan><tspan class="cls-9" x="0" y="108">s</tspan><tspan x="9" y="108">e a high g</tspan><tspan class="cls-16" x="86.63" y="108">r</tspan><tspan class="cls-18" x="92.81" y="108">o</tspan><tspan class="cls-54" x="102.92" y="108">w</tspan><tspan x="117.14" y="108">th </tspan><tspan class="cls-8" x="137.41" y="108">p</tspan><tspan class="cls-33" x="147.96" y="108">o</tspan><tspan class="cls-13" x="158.02" y="108">t</tspan><tspan x="163.49" y="108">e</tspan><tspan class="cls-32" x="173.39" y="108">n</tspan><tspan x="183.58" y="108">tial, but a </tspan><tspan x="0" y="129.6">high risk al</tspan><tspan class="cls-9" x="86.47" y="129.6">s</tspan><tspan x="95.47" y="129.6">o </tspan><tspan class="cls-14" x="109.78" y="129.6">c</tspan><tspan x="119.5" y="129.6">om</tspan><tspan class="cls-9" x="145.2" y="129.6">e</tspan><tspan x="155.21" y="129.6">s along with </tspan><tspan x="0" y="151.2">i</tspan><tspan class="cls-55" x="4.39" y="151.2">t</tspan><tspan x="10.51" y="151.2">. Sta</tspan><tspan class="cls-24" x="45" y="151.2">r</tspan><tspan x="51.73" y="151.2">t-ups can enhan</tspan><tspan class="cls-9" x="180.9" y="151.2">c</tspan><tspan x="190.62" y="151.2">e the </tspan><tspan x="0" y="172.8">l</tspan><tspan class="cls-8" x="4.39" y="172.8">o</tspan><tspan x="14.74" y="172.8">cal industr</tspan><tspan class="cls-39" x="99.11" y="172.8">y</tspan><tspan x="106.94" y="172.8">, </tspan><tspan class="cls-21" x="115.14" y="172.8">b</tspan><tspan x="125.69" y="172.8">e ad</tspan><tspan class="cls-18" x="159.66" y="172.8">v</tspan><tspan x="168.06" y="172.8">e</tspan><tspan class="cls-24" x="177.96" y="172.8">r</tspan><tspan x="184.69" y="172.8">ti</tspan><tspan class="cls-14" x="194.85" y="172.8">s</tspan><tspan x="203.85" y="172.8">eme</tspan><tspan class="cls-10" x="239.18" y="172.8">n</tspan><tspan x="249.37" y="172.8">ts </tspan><tspan class="cls-17" x="0" y="194.4">f</tspan><tspan x="5.22" y="194.4">or the ci</tspan><tspan class="cls-44" x="70.22" y="194.4">t</tspan><tspan x="76.25" y="194.4">y th</tspan><tspan class="cls-38" x="105.01" y="194.4">e</tspan><tspan x="114.82" y="194.4">y a</tspan><tspan class="cls-7" x="137.01" y="194.4">r</tspan><tspan x="143.19" y="194.4">e </tspan><tspan class="cls-14" x="157.23" y="194.4">s</tspan><tspan class="cls-15" x="166.22" y="194.4">e</tspan><tspan x="176.02" y="194.4">ttl</tspan><tspan class="cls-8" x="191.93" y="194.4">e</tspan><tspan x="202.01" y="194.4">d in and </tspan><tspan x="0" y="216">h</tspan><tspan class="cls-36" x="10.37" y="216">a</tspan><tspan class="cls-18" x="19.62" y="216">v</tspan><tspan x="28.03" y="216">e the </tspan><tspan class="cls-8" x="72.23" y="216">p</tspan><tspan class="cls-33" x="82.78" y="216">o</tspan><tspan class="cls-13" x="92.84" y="216">t</tspan><tspan class="cls-50" x="98.31" y="216">e</tspan><tspan class="cls-10" x="108.21" y="216">n</tspan><tspan x="118.4" y="216">tial </tspan><tspan class="cls-13" x="146.64" y="216">t</tspan><tspan x="152.11" y="216">o ma</tspan><tspan class="cls-48" x="191.52" y="216">k</tspan><tspan x="200.08" y="216">e </tspan><tspan class="cls-8" x="0" y="237.6">pe</tspan><tspan x="20.63" y="237.6">ople, who </tspan><tspan class="cls-46" x="102.2" y="237.6">w</tspan><tspan x="115.99" y="237.6">a</tspan><tspan class="cls-10" x="125.55" y="237.6">n</tspan><tspan x="135.73" y="237.6">t </tspan><tspan class="cls-12" x="145.63" y="237.6">t</tspan><tspan x="151.11" y="237.6">o join the </tspan><tspan x="0" y="259.2">sta</tspan><tspan class="cls-24" x="24.21" y="259.2">r</tspan><tspan x="30.94" y="259.2">t-up, </tspan><tspan class="cls-9" x="71.04" y="259.2">c</tspan><tspan x="80.77" y="259.2">ome </tspan><tspan class="cls-12" x="120.51" y="259.2">t</tspan><tspan x="125.98" y="259.2">o the ci</tspan><tspan class="cls-44" x="184.46" y="259.2">t</tspan><tspan class="cls-56" x="190.49" y="259.2">y</tspan><tspan x="198.32" y="259.2">.</tspan></text></svg>