<svg xmlns="http://www.w3.org/2000/svg" xmlns:xlink="http://www.w3.org/1999/xlink" viewBox="0 0 3604 1802"><defs><style>.cls-1{fill:#010102;}.cls-2{fill:#010103;}.cls-3{font-size:85.04px;font-family:NeueHaasUnicaW06-Bold;font-weight:700;}.cls-3,.cls-8{fill:#f28a19;}.cls-4{letter-spacing:-0.01em;}.cls-5{letter-spacing:-0.01em;}.cls-6{letter-spacing:0.01em;}.cls-7{letter-spacing:0.01em;}</style></defs><title>1. Click to proceed page</title><g id="Ebene_1" data-name="Ebene 1"><image width="3604" height="1802" xlink:href="../../../../../Pictures/fauske.jpg"/><path class="cls-1" d="M1500.55,353.31h0Z" transform="translate(2 1)"/><path class="cls-2" d="M1577.55,1073.31l1.54-.94.46.94Z" transform="translate(2 1)"/><path class="cls-1" d="M1498.55,1073.31h0Z" transform="translate(2 1)"/><path class="cls-1" d="M1178.55,751.31v0Z" transform="translate(2 1)"/><path class="cls-1" d="M1178.55,672.31l.93.46-.93,1.54Z" transform="translate(2 1)"/><path class="cls-2" d="M1898.55,753.31l-.69,0,.69-1Z" transform="translate(2 1)"/><path class="cls-2" d="M1898.55,674.31l-.69-.95.69-.05Z" transform="translate(2 1)"/><path class="cls-2" d="M1578.55,353.31l0,.68-1-.68Z" transform="translate(2 1)"/></g><g id="Icon"><text class="cls-3" transform="translate(1469.41 1085.39)">Click <tspan class="cls-4" x="220.08" y="0">t</tspan><tspan x="249.25" y="0">o p</tspan><tspan class="cls-5" x="369.83" y="0">r</tspan><tspan class="cls-6" x="402.15" y="0">o</tspan><tspan class="cls-7" x="453.17" y="0">c</tspan><tspan class="cls-6" x="501.47" y="0">ee</tspan><tspan x="600.63" y="0">d</tspan></text><path class="cls-8" d="M1628.49,824.55c1.86-60.43,28-108.88,79.83-143.15,8.7-5.76,16.29-4.9,20.47,1.65,4.3,6.73,1.87,13.16-7.21,19.1-51.13,33.48-77.16,92.26-66.12,149.3,11.7,60.44,56,105.36,116.54,118.18,92,19.49,180.67-57.76,174.38-152.34-3.23-48.44-25.67-86.19-65.71-113.69-3.13-2.15-7.6-4.79-8.1-7.75-.75-4.52,0-10.54,2.67-14.08,4-5.38,10.34-4.3,15.85-.82a172.3,172.3,0,0,1,55.59,56.4c64.07,104.8-2.41,242.65-124.45,258.09-100.43,12.7-189.07-62-193.1-162.79C1629,830.39,1628.78,828.14,1628.49,824.55Z" transform="translate(2 1)"/><path class="cls-8" d="M1783.74,621.79c-13.67,0-26,.15-38.33,0-12.73-.18-20.56-7.36-20.55-18.43s7.76-18.21,20.57-18.24q56.61-.09,113.21,0c12.8,0,20.73,7,20.8,18.07s-7.88,18.39-20.48,18.6c-12.32.2-24.65,0-38.39,0v10.76c0,44.13-.06,88.27.06,132.41,0,9.74-3.16,17.3-12.84,20.58-12.45,4.23-23.93-4.67-24-18.65-.15-32.78,0-65.56,0-98.34Z" transform="translate(2 1)"/></g></svg>