<?xml version="1.0" encoding="utf-8"?>
<!-- Generator: Adobe Illustrator 23.0.6, SVG Export Plug-In . SVG Version: 6.00 Build 0)  -->
<svg version="1.1" id="Layer_1" xmlns="http://www.w3.org/2000/svg" xmlns:xlink="http://www.w3.org/1999/xlink" x="0px" y="0px"
	 viewBox="0 0 1920 951" style="enable-background:new 0 0 1920 951;" xml:space="preserve">
<style type="text/css">
		@font-face {font-family: "NeueHaasUnicaW06-ThinItalic";
	src: url("/Blog/main/fonts/NeueHaasUnicaW06/OnlineWebFonts_COM_0ed68d0a6f9c1234e2d43bdd27b951f2/@font-face/3842220656142ccef91508c98b0eb6ed.eot"); /* IE9*/
	src: url("/Blog/main/fonts/NeueHaasUnicaW06/OnlineWebFonts_COM_0ed68d0a6f9c1234e2d43bdd27b951f2/@font-face/3842220656142ccef91508c98b0eb6ed.eot?#iefix") format("embedded-opentype"), /* IE6-IE8 */
	url("/Blog/main/fonts/NeueHaasUnicaW06/OnlineWebFonts_COM_0ed68d0a6f9c1234e2d43bdd27b951f2/@font-face/3842220656142ccef91508c98b0eb6ed.woff2") format("woff2"), /* chrome、firefox */
	url("/Blog/main/fonts/NeueHaasUnicaW06/OnlineWebFonts_COM_0ed68d0a6f9c1234e2d43bdd27b951f2/@font-face/3842220656142ccef91508c98b0eb6ed.woff") format("woff"), /* chrome、firefox */
	url("/Blog/main/fonts/NeueHaasUnicaW06/OnlineWebFonts_COM_0ed68d0a6f9c1234e2d43bdd27b951f2/@font-face/3842220656142ccef91508c98b0eb6ed.ttf") format("truetype"), /* chrome、firefox、opera、Safari, Android, iOS 4.2+*/
	url("/Blog/main/fonts/NeueHaasUnicaW06/OnlineWebFonts_COM_0ed68d0a6f9c1234e2d43bdd27b951f2/@font-face/3842220656142ccef91508c98b0eb6ed.svg#Neue Haas Unica W06 Thin It") format("svg"); /* iOS 4.1- */
	}
	@font-face {font-family: "NeueHaasUnicaW06-ExtraBlack";
		src: url("/Blog/main/fonts/NeueHaasUnicaW06/OnlineWebFonts_COM_3dad734723cd1eada75c00f4d4322909/@font-face/46ff6b5a1511006aeadd4a46a3efd9ae.eot"); /* IE9*/
		src: url("/Blog/main/fonts/NeueHaasUnicaW06/OnlineWebFonts_COM_3dad734723cd1eada75c00f4d4322909/@font-face/46ff6b5a1511006aeadd4a46a3efd9ae.eot?#iefix") format("embedded-opentype"), /* IE6-IE8 */
		url("/Blog/main/fonts/NeueHaasUnicaW06/OnlineWebFonts_COM_3dad734723cd1eada75c00f4d4322909/@font-face/46ff6b5a1511006aeadd4a46a3efd9ae.woff") format("woff2"), /* chrome、firefox */
		url("/Blog/main/fonts/NeueHaasUnicaW06/OnlineWebFonts_COM_3dad734723cd1eada75c00f4d4322909/@font-face/46ff6b5a1511006aeadd4a46a3efd9ae.woff2") format("woff"), /* chrome、firefox */
		url("/Blog/main/fonts/NeueHaasUnicaW06/OnlineWebFonts_COM_3dad734723cd1eada75c00f4d4322909/@font-face/46ff6b5a1511006aeadd4a46a3efd9ae.ttf") format("truetype"), /* chrome、firefox、opera、Safari, Android, iOS 4.2+*/
		url("/Blog/main/fonts/NeueHaasUnicaW06/OnlineWebFonts_COM_3dad734723cd1eada75c00f4d4322909/@font-face/46ff6b5a1511006aeadd4a46a3efd9ae.svg#Neue Haas Unica W06 X Black") format("svg"); /* iOS 4.1- */
	}
	@font-face {font-family: "NeueHaasUnicaW06-Regular";
		src: url("/Blog/main/fonts/NeueHaasUnicaW06/OnlineWebFonts_COM_7a298e4d1b42d5d0485b479c3bcf69bf/@font-face/7250d52844cced73ed70675d1b78c60c.eot"); /* IE9*/
		src: url("/Blog/main/fonts/NeueHaasUnicaW06/OnlineWebFonts_COM_7a298e4d1b42d5d0485b479c3bcf69bf/@font-face/7250d52844cced73ed70675d1b78c60c.eot?#iefix") format("embedded-opentype"), /* IE6-IE8 */
		url("/Blog/main/fonts/NeueHaasUnicaW06/OnlineWebFonts_COM_7a298e4d1b42d5d0485b479c3bcf69bf/@font-face/7250d52844cced73ed70675d1b78c60c.woff") format("woff2"), /* chrome、firefox */
		url("/Blog/main/fonts/NeueHaasUnicaW06/OnlineWebFonts_COM_7a298e4d1b42d5d0485b479c3bcf69bf/@font-face/7250d52844cced73ed70675d1b78c60c.woff2") format("woff"), /* chrome、firefox */
		url("/Blog/main/fonts/NeueHaasUnicaW06/OnlineWebFonts_COM_7a298e4d1b42d5d0485b479c3bcf69bf/@font-face/7250d52844cced73ed70675d1b78c60c.ttf") format("truetype"), /* chrome、firefox、opera、Safari, Android, iOS 4.2+*/
		url("/Blog/main/fonts/NeueHaasUnicaW06/OnlineWebFonts_COM_7a298e4d1b42d5d0485b479c3bcf69bf/@font-face/7250d52844cced73ed70675d1b78c60c.svg#Neue Haas Unica W06 X Black") format("svg"); /* iOS 4.1- */
	}
	@font-face {font-family: "NeueHaasUnicaW06-XBlackIt";
		src: url("/Blog/main/fonts/NeueHaasUnicaW06/OnlineWebFonts_COM_7ded04d499cfd92c5afc12ffac484c5a/@font-face/5ef047f0e72e70adeba30f0c829c33e0.eot"); /* IE9*/
		src: url("/Blog/main/fonts/NeueHaasUnicaW06/OnlineWebFonts_COM_7ded04d499cfd92c5afc12ffac484c5a/@font-face/5ef047f0e72e70adeba30f0c829c33e0.eot?#iefix") format("embedded-opentype"), /* IE6-IE8 */
		url("/Blog/main/fonts/NeueHaasUnicaW06/OnlineWebFonts_COM_7ded04d499cfd92c5afc12ffac484c5a/@font-face/5ef047f0e72e70adeba30f0c829c33e0.woff") format("woff2"), /* chrome、firefox */
		url("/Blog/main/fonts/NeueHaasUnicaW06/OnlineWebFonts_COM_7ded04d499cfd92c5afc12ffac484c5a/@font-face/5ef047f0e72e70adeba30f0c829c33e0.woff2") format("woff"), /* chrome、firefox */
		url("/Blog/main/fonts/NeueHaasUnicaW06/OnlineWebFonts_COM_7ded04d499cfd92c5afc12ffac484c5a/@font-face/5ef047f0e72e70adeba30f0c829c33e0.ttf") format("truetype"), /* chrome、firefox、opera、Safari, Android, iOS 4.2+*/
		url("/Blog/main/fonts/NeueHaasUnicaW06/OnlineWebFonts_COM_7ded04d499cfd92c5afc12ffac484c5a/@font-face/5ef047f0e72e70adeba30f0c829c33e0.svg#Neue Haas Unica W06 X Black") format("svg"); /* iOS 4.1- */
	}
	@font-face {font-family: "NeueHaasUnicaW06-LightIt";
		src: url("/Blog/main/fonts/NeueHaasUnicaW06/OnlineWebFonts_COM_19d2b951c44c457e1bc515a2e9e486fb/@font-face/7f69054324b2adbc60f29dfd260c3d30.eot"); /* IE9*/
		src: url("/Blog/main/fonts/NeueHaasUnicaW06/OnlineWebFonts_COM_19d2b951c44c457e1bc515a2e9e486fb/@font-face/7f69054324b2adbc60f29dfd260c3d30.eot?#iefix") format("embedded-opentype"), /* IE6-IE8 */
		url("/Blog/main/fonts/NeueHaasUnicaW06/OnlineWebFonts_COM_19d2b951c44c457e1bc515a2e9e486fb/@font-face/7f69054324b2adbc60f29dfd260c3d30.woff") format("woff2"), /* chrome、firefox */
		url("/Blog/main/fonts/NeueHaasUnicaW06/OnlineWebFonts_COM_19d2b951c44c457e1bc515a2e9e486fb/@font-face/7f69054324b2adbc60f29dfd260c3d30.woff2") format("woff"), /* chrome、firefox */
		url("/Blog/main/fonts/NeueHaasUnicaW06/OnlineWebFonts_COM_19d2b951c44c457e1bc515a2e9e486fb/@font-face/7f69054324b2adbc60f29dfd260c3d30.ttf") format("truetype"), /* chrome、firefox、opera、Safari, Android, iOS 4.2+*/
		url("/Blog/main/fonts/NeueHaasUnicaW06/OnlineWebFonts_COM_19d2b951c44c457e1bc515a2e9e486fb/@font-face/7f69054324b2adbc60f29dfd260c3d30.svg#Neue Haas Unica W06 X Black") format("svg"); /* iOS 4.1- */
	}
	@font-face {font-family: "NeueHaasUnicaW06-Italic";
		src: url("/Blog/main/fonts/NeueHaasUnicaW06/OnlineWebFonts_COM_059c6c90764b5b58f635dc550a3dd784/@font-face/0aa6b2719638cacfa0e8abce9099a39b.eot"); /* IE9*/
		src: url("/Blog/main/fonts/NeueHaasUnicaW06/OnlineWebFonts_COM_059c6c90764b5b58f635dc550a3dd784/@font-face/0aa6b2719638cacfa0e8abce9099a39b.eot?#iefix") format("embedded-opentype"), /* IE6-IE8 */
		url("/Blog/main/fonts/NeueHaasUnicaW06/OnlineWebFonts_COM_059c6c90764b5b58f635dc550a3dd784/@font-face/0aa6b2719638cacfa0e8abce9099a39b.woff") format("woff2"), /* chrome、firefox */
		url("/Blog/main/fonts/NeueHaasUnicaW06/OnlineWebFonts_COM_059c6c90764b5b58f635dc550a3dd784/@font-face/0aa6b2719638cacfa0e8abce9099a39b.woff2") format("woff"), /* chrome、firefox */
		url("/Blog/main/fonts/NeueHaasUnicaW06/OnlineWebFonts_COM_059c6c90764b5b58f635dc550a3dd784/@font-face/0aa6b2719638cacfa0e8abce9099a39b.ttf") format("truetype"), /* chrome、firefox、opera、Safari, Android, iOS 4.2+*/
		url("/Blog/main/fonts/NeueHaasUnicaW06/OnlineWebFonts_COM_059c6c90764b5b58f635dc550a3dd784/@font-face/0aa6b2719638cacfa0e8abce9099a39b.svg#Neue Haas Unica W06 X Black") format("svg"); /* iOS 4.1- */
	}
	@font-face {font-family: "NeueHaasUnicaW06-Bold";
		src: url("/Blog/main/fonts/NeueHaasUnicaW06/OnlineWebFonts_COM_073d72f89a764f9fcbc574a8bd4cb553/@font-face/bb87c8dd3cc47b366f6bb7738fee180c.eot"); /* IE9*/
		src: url("/Blog/main/fonts/NeueHaasUnicaW06/OnlineWebFonts_COM_073d72f89a764f9fcbc574a8bd4cb553/@font-face/bb87c8dd3cc47b366f6bb7738fee180c.eot?#iefix") format("embedded-opentype"), /* IE6-IE8 */
		url("/Blog/main/fonts/NeueHaasUnicaW06/OnlineWebFonts_COM_073d72f89a764f9fcbc574a8bd4cb553/@font-face/bb87c8dd3cc47b366f6bb7738fee180c.woff") format("woff2"), /* chrome、firefox */
		url("/Blog/main/fonts/NeueHaasUnicaW06/OnlineWebFonts_COM_073d72f89a764f9fcbc574a8bd4cb553/@font-face/bb87c8dd3cc47b366f6bb7738fee180c.woff2") format("woff"), /* chrome、firefox */
		url("/Blog/main/fonts/NeueHaasUnicaW06/OnlineWebFonts_COM_073d72f89a764f9fcbc574a8bd4cb553/@font-face/bb87c8dd3cc47b366f6bb7738fee180c.ttf") format("truetype"), /* chrome、firefox、opera、Safari, Android, iOS 4.2+*/
		url("/Blog/main/fonts/NeueHaasUnicaW06/OnlineWebFonts_COM_073d72f89a764f9fcbc574a8bd4cb553/@font-face/bb87c8dd3cc47b366f6bb7738fee180c.svg#Neue Haas Unica W06 X Black") format("svg"); /* iOS 4.1- */
	}
	@font-face {font-family: "NeueHaasUnicaW06-Heavy";
		src: url("/Blog/main/fonts/NeueHaasUnicaW06/OnlineWebFonts_COM_559d73454fad999c45ebbdaaa3ebacdd/@font-face/d04fc9492a6f504ee79cb87d63393fe0.eot"); /* IE9*/
		src: url("/Blog/main/fonts/NeueHaasUnicaW06/OnlineWebFonts_COM_559d73454fad999c45ebbdaaa3ebacdd/@font-face/d04fc9492a6f504ee79cb87d63393fe0.eot?#iefix") format("embedded-opentype"), /* IE6-IE8 */
		url("/Blog/main/fonts/NeueHaasUnicaW06/OnlineWebFonts_COM_559d73454fad999c45ebbdaaa3ebacdd/@font-face/d04fc9492a6f504ee79cb87d63393fe0.woff") format("woff2"), /* chrome、firefox */
		url("/Blog/main/fonts/NeueHaasUnicaW06/OnlineWebFonts_COM_559d73454fad999c45ebbdaaa3ebacdd/@font-face/d04fc9492a6f504ee79cb87d63393fe0.woff2") format("woff"), /* chrome、firefox */
		url("/Blog/main/fonts/NeueHaasUnicaW06/OnlineWebFonts_COM_559d73454fad999c45ebbdaaa3ebacdd/@font-face/d04fc9492a6f504ee79cb87d63393fe0.ttf") format("truetype"), /* chrome、firefox、opera、Safari, Android, iOS 4.2+*/
		url("/Blog/main/fonts/NeueHaasUnicaW06/OnlineWebFonts_COM_559d73454fad999c45ebbdaaa3ebacdd/@font-face/d04fc9492a6f504ee79cb87d63393fe0.svg#Neue Haas Unica W06 X Black") format("svg"); /* iOS 4.1- */
	}
	@font-face {font-family: "NeueHaasUnicaW06-HeavyIt";
		src: url("/Blog/main/fonts/NeueHaasUnicaW06/OnlineWebFonts_COM_507355e12251f27746763ec4f975a633/@font-face/a9820d1a66a09f97371b7ec92a271a92.eot"); /* IE9*/
		src: url("/Blog/main/fonts/NeueHaasUnicaW06/OnlineWebFonts_COM_507355e12251f27746763ec4f975a633/@font-face/a9820d1a66a09f97371b7ec92a271a92.eot?#iefix") format("embedded-opentype"), /* IE6-IE8 */
		url("/Blog/main/fonts/NeueHaasUnicaW06/OnlineWebFonts_COM_507355e12251f27746763ec4f975a633/@font-face/a9820d1a66a09f97371b7ec92a271a92.woff") format("woff2"), /* chrome、firefox */
		url("/Blog/main/fonts/NeueHaasUnicaW06/OnlineWebFonts_COM_507355e12251f27746763ec4f975a633/@font-face/a9820d1a66a09f97371b7ec92a271a92.woff2") format("woff"), /* chrome、firefox */
		url("/Blog/main/fonts/NeueHaasUnicaW06/OnlineWebFonts_COM_507355e12251f27746763ec4f975a633/@font-face/a9820d1a66a09f97371b7ec92a271a92.ttf") format("truetype"), /* chrome、firefox、opera、Safari, Android, iOS 4.2+*/
		url("/Blog/main/fonts/NeueHaasUnicaW06/OnlineWebFonts_COM_507355e12251f27746763ec4f975a633/@font-face/a9820d1a66a09f97371b7ec92a271a92.svg#Neue Haas Unica W06 X Black") format("svg"); /* iOS 4.1- */
	}
	@font-face {font-family: "NeueHaasUnicaW06-Light";
		src: url("/Blog/main/fonts/NeueHaasUnicaW06/OnlineWebFonts_COM_c59b16964f2eec693c72eb9c925ef088/@font-face/145bf6f8eebf1ad036f74d821af7d94b.eot"); /* IE9*/
		src: url("/Blog/main/fonts/NeueHaasUnicaW06/OnlineWebFonts_COM_c59b16964f2eec693c72eb9c925ef088/@font-face/145bf6f8eebf1ad036f74d821af7d94b.eot?#iefix") format("embedded-opentype"), /* IE6-IE8 */
		url("/Blog/main/fonts/NeueHaasUnicaW06/OnlineWebFonts_COM_c59b16964f2eec693c72eb9c925ef088/@font-face/145bf6f8eebf1ad036f74d821af7d94b.woff") format("woff2"), /* chrome、firefox */
		url("/Blog/main/fonts/NeueHaasUnicaW06/OnlineWebFonts_COM_c59b16964f2eec693c72eb9c925ef088/@font-face/145bf6f8eebf1ad036f74d821af7d94b.woff2") format("woff"), /* chrome、firefox */
		url("/Blog/main/fonts/NeueHaasUnicaW06/OnlineWebFonts_COM_c59b16964f2eec693c72eb9c925ef088/@font-face/145bf6f8eebf1ad036f74d821af7d94b.ttf") format("truetype"), /* chrome、firefox、opera、Safari, Android, iOS 4.2+*/
		url("/Blog/main/fonts/NeueHaasUnicaW06/OnlineWebFonts_COM_c59b16964f2eec693c72eb9c925ef088/@font-face/145bf6f8eebf1ad036f74d821af7d94b.svg#Neue Haas Unica W06 X Black") format("svg"); /* iOS 4.1- */
	}
	@font-face {font-family: "NeueHaasUnicaW06-MediumIt";
		src: url("/Blog/main/fonts/NeueHaasUnicaW06/OnlineWebFonts_COM_d179b86ccc44b19f872ad2ce5d9141f0/@font-face/2a415f48f53c15b960c82ad93f0a2ee0.eot"); /* IE9*/
		src: url("/Blog/main/fonts/NeueHaasUnicaW06/OnlineWebFonts_COM_d179b86ccc44b19f872ad2ce5d9141f0/@font-face/2a415f48f53c15b960c82ad93f0a2ee0.eot?#iefix") format("embedded-opentype"), /* IE6-IE8 */
		url("/Blog/main/fonts/NeueHaasUnicaW06/OnlineWebFonts_COM_d179b86ccc44b19f872ad2ce5d9141f0/@font-face/2a415f48f53c15b960c82ad93f0a2ee0.woff") format("woff2"), /* chrome、firefox */
		url("/Blog/main/fonts/NeueHaasUnicaW06/OnlineWebFonts_COM_d179b86ccc44b19f872ad2ce5d9141f0/@font-face/2a415f48f53c15b960c82ad93f0a2ee0.woff2") format("woff"), /* chrome、firefox */
		url("/Blog/main/fonts/NeueHaasUnicaW06/OnlineWebFonts_COM_d179b86ccc44b19f872ad2ce5d9141f0/@font-face/2a415f48f53c15b960c82ad93f0a2ee0.ttf") format("truetype"), /* chrome、firefox、opera、Safari, Android, iOS 4.2+*/
		url("/Blog/main/fonts/NeueHaasUnicaW06/OnlineWebFonts_COM_d179b86ccc44b19f872ad2ce5d9141f0/@font-face/2a415f48f53c15b960c82ad93f0a2ee0.svg#Neue Haas Unica W06 X Black") format("svg"); /* iOS 4.1- */
	}
	@font-face {font-family: "NeueHaasUnicaW06-Thin";
		src: url("/Blog/main/fonts/NeueHaasUnicaW06/OnlineWebFonts_COM_e0d1d8bcd90f325e7a7f4a8b9636d78a/@font-face/740a2bcf13582a2a0ed99e15dffe7b9f.eot"); /* IE9*/
		src: url("/Blog/main/fonts/NeueHaasUnicaW06/OnlineWebFonts_COM_e0d1d8bcd90f325e7a7f4a8b9636d78a/@font-face/740a2bcf13582a2a0ed99e15dffe7b9f.eot?#iefix") format("embedded-opentype"), /* IE6-IE8 */
		url("/Blog/main/fonts/NeueHaasUnicaW06/OnlineWebFonts_COM_e0d1d8bcd90f325e7a7f4a8b9636d78a/@font-face/740a2bcf13582a2a0ed99e15dffe7b9f.woff") format("woff2"), /* chrome、firefox */
		url("/Blog/main/fonts/NeueHaasUnicaW06/OnlineWebFonts_COM_e0d1d8bcd90f325e7a7f4a8b9636d78a/@font-face/740a2bcf13582a2a0ed99e15dffe7b9f.woff2") format("woff"), /* chrome、firefox */
		url("/Blog/main/fonts/NeueHaasUnicaW06/OnlineWebFonts_COM_e0d1d8bcd90f325e7a7f4a8b9636d78a/@font-face/740a2bcf13582a2a0ed99e15dffe7b9f.ttf") format("truetype"), /* chrome、firefox、opera、Safari, Android, iOS 4.2+*/
		url("/Blog/main/fonts/NeueHaasUnicaW06/OnlineWebFonts_COM_e0d1d8bcd90f325e7a7f4a8b9636d78a/@font-face/740a2bcf13582a2a0ed99e15dffe7b9f.svg#Neue Haas Unica W06 X Black") format("svg"); /* iOS 4.1- */
	}
	@font-face {font-family: "NeueHaasUnicaW06-BoldItalic";
		src: url("/Blog/main/fonts/NeueHaasUnicaW06/OnlineWebFonts_COM_e4e54e1eb6c480425902156a32fef7d6/@font-face/61742cae2dd974e3c9604f614a4c57f1.eot"); /* IE9*/
		src: url("/Blog/main/fonts/NeueHaasUnicaW06/OnlineWebFonts_COM_e4e54e1eb6c480425902156a32fef7d6/@font-face/61742cae2dd974e3c9604f614a4c57f1.eot?#iefix") format("embedded-opentype"), /* IE6-IE8 */
		url("/Blog/main/fonts/NeueHaasUnicaW06/OnlineWebFonts_COM_e4e54e1eb6c480425902156a32fef7d6/@font-face/61742cae2dd974e3c9604f614a4c57f1.woff") format("woff2"), /* chrome、firefox */
		url("/Blog/main/fonts/NeueHaasUnicaW06/OnlineWebFonts_COM_e4e54e1eb6c480425902156a32fef7d6/@font-face/61742cae2dd974e3c9604f614a4c57f1.woff2") format("woff"), /* chrome、firefox */
		url("/Blog/main/fonts/NeueHaasUnicaW06/OnlineWebFonts_COM_e4e54e1eb6c480425902156a32fef7d6/@font-face/61742cae2dd974e3c9604f614a4c57f1.ttf") format("truetype"), /* chrome、firefox、opera、Safari, Android, iOS 4.2+*/
		url("/Blog/main/fonts/NeueHaasUnicaW06/OnlineWebFonts_COM_e4e54e1eb6c480425902156a32fef7d6/@font-face/61742cae2dd974e3c9604f614a4c57f1.svg#Neue Haas Unica W06 X Black") format("svg"); /* iOS 4.1- */
	}
	@font-face {font-family: "NeueHaasUnicaW06-Medium";
		src: url("/Blog/main/fonts/NeueHaasUnicaW06/OnlineWebFonts_COM_e009de3bc4003d481f48e90c6efd332f/@font-face/9c0afb6841117a1e2256b49b040cb768.eot"); /* IE9*/
		src: url("/Blog/main/fonts/NeueHaasUnicaW06/OnlineWebFonts_COM_e009de3bc4003d481f48e90c6efd332f/@font-face/9c0afb6841117a1e2256b49b040cb768.eot?#iefix") format("embedded-opentype"), /* IE6-IE8 */
		url("/Blog/main/fonts/NeueHaasUnicaW06/OnlineWebFonts_COM_e009de3bc4003d481f48e90c6efd332f/@font-face/9c0afb6841117a1e2256b49b040cb768.woff") format("woff2"), /* chrome、firefox */
		url("/Blog/main/fonts/NeueHaasUnicaW06/OnlineWebFonts_COM_e009de3bc4003d481f48e90c6efd332f/@font-face/9c0afb6841117a1e2256b49b040cb768.woff2") format("woff"), /* chrome、firefox */
		url("/Blog/main/fonts/NeueHaasUnicaW06/OnlineWebFonts_COM_e009de3bc4003d481f48e90c6efd332f/@font-face/9c0afb6841117a1e2256b49b040cb768.ttf") format("truetype"), /* chrome、firefox、opera、Safari, Android, iOS 4.2+*/
		url("/Blog/main/fonts/NeueHaasUnicaW06/OnlineWebFonts_COM_e009de3bc4003d481f48e90c6efd332f/@font-face/9c0afb6841117a1e2256b49b040cb768.svg#Neue Haas Unica W06 X Black") format("svg"); /* iOS 4.1- */
	}
	@font-face {font-family: "NeueHaasUnicaW06-BlackIt";
		src: url("/Blog/main/fonts/NeueHaasUnicaW06/OnlineWebFonts_COM_f0d250fc9c4208c6c78408a38db68150/@font-face/15e7a19454566924256299df2a72ab91.eot"); /* IE9*/
		src: url("/Blog/main/fonts/NeueHaasUnicaW06/OnlineWebFonts_COM_f0d250fc9c4208c6c78408a38db68150/@font-face/15e7a19454566924256299df2a72ab91.eot?#iefix") format("embedded-opentype"), /* IE6-IE8 */
		url("/Blog/main/fonts/NeueHaasUnicaW06/OnlineWebFonts_COM_f0d250fc9c4208c6c78408a38db68150/@font-face/15e7a19454566924256299df2a72ab91.woff") format("woff2"), /* chrome、firefox */
		url("/Blog/main/fonts/NeueHaasUnicaW06/OnlineWebFonts_COM_f0d250fc9c4208c6c78408a38db68150/@font-face/15e7a19454566924256299df2a72ab91.woff2") format("woff"), /* chrome、firefox */
		url("/Blog/main/fonts/NeueHaasUnicaW06/OnlineWebFonts_COM_f0d250fc9c4208c6c78408a38db68150/@font-face/15e7a19454566924256299df2a72ab91.ttf") format("truetype"), /* chrome、firefox、opera、Safari, Android, iOS 4.2+*/
		url("/Blog/main/fonts/NeueHaasUnicaW06/OnlineWebFonts_COM_f0d250fc9c4208c6c78408a38db68150/@font-face/15e7a19454566924256299df2a72ab91.svg#Neue Haas Unica W06 X Black") format("svg"); /* iOS 4.1- */
	}
	.st0{opacity:0.8;fill:#FFFFFF;enable-background:new    ;}
</style>
<title>1. Click to proceed page</title>
<g id="Ebene_1">
	
		<image style="overflow:visible;enable-background:new    ;" width="4158" height="2060" xlink:href="B813E63C.png"  transform="matrix(0.462 0 0 0.462 0.44 0)">
	</image>
</g>
<g id="Seitenrechteck">
	<rect x="0.4" y="0" class="st0" width="448.2" height="951"/>
</g>
<g id="Text">
	<path d="M331.6,493.2h24.2c-0.7,2.8-1.4,5.5-2.1,8.1s-1.4,5.3-2.1,7.9c0,0.5-0.5,0.9-1,0.9c0,0-0.1,0-0.1,0c-5.7,0-11.5,0-17.2,0
		c-1.6,0-1.6,0-1.7,1.6c-0.5,6.5-2.8,12.7-6.5,17.9c-3.7,5.6-9.3,9.7-15.8,11.6c-4,1-8.1,1.3-12.2,0.9c-3.3-0.3-6.5-1.1-9.6-2.4
		c-4.5-2.1-8.3-5.5-10.9-9.8c-0.2-0.3-0.4-0.6-0.6-1c-0.2,0.2-0.4,0.4-0.5,0.6c-4.3,7.3-10.8,11.3-19.1,12.4
		c-5.4,0.7-10.7,0.6-15.9-1.3c-6.2-2.4-11.4-6.8-14.8-12.5c-2.7-4.4-4.5-9.3-5.2-14.4c-0.1-0.9-0.2-1.8-0.2-2.7
		c0-0.7-0.2-0.9-0.9-0.9c-6,0-12,0-18.1,0c-0.4,0-0.8,0.1-1-0.5c-1.4-5.4-2.9-10.8-4.3-16.3h24.2v-20.4h-27.3l-2-16.9h27.8
		c1.6,0,1.6,0,1.7-1.5c0.5-7,3.1-13.8,7.5-19.3c3.7-4.9,8.9-8.5,14.8-10.2c4-1,8.1-1.3,12.2-0.8c2.8,0.2,5.6,0.9,8.3,1.9
		c5.1,2,9.4,5.6,12.1,10.3c0.2,0.3,0.4,0.6,0.6,1c0.2-0.3,0.4-0.5,0.6-0.8c4.3-7.1,10.7-11,18.9-12.2c5.4-0.7,10.8-0.6,16,1.3
		c6.2,2.4,11.4,6.8,14.8,12.5c2.7,4.4,4.5,9.3,5.2,14.4c0.1,0.9,0.2,1.8,0.2,2.7c0,0.7,0.2,0.8,0.8,0.8c4.1,0,8.2,0,12.3,0H361
		c-0.7,5.7-1.3,11.2-2,16.9h-27.4V493.2z M275.6,461.4c-3.1,2.9-6.6,5.3-10.6,6.9c-7,2.9-14.4,3.9-22,4.3c-2,0.1-4.1,0.1-6.1,0.2
		v20.3c2.8,0.1,5.5,0.3,8.3,0.4c4.4,0.2,8.7,0.9,13,1.9c6.1,1.5,11.7,4,16.4,8.2l1,0.9c1.5-1.2,2.9-2.4,4.5-3.4
		c1.5-1,3.1-1.9,4.8-2.7c7.4-3.5,15.4-4.6,23.4-5c2.1-0.1,4.1-0.1,6.2-0.2v-20.4h-0.9c-5.7,0-11.4-0.6-17-1.6
		c-5.3-0.9-10.4-2.8-15-5.5C279.6,464.4,277.7,462.9,275.6,461.4L275.6,461.4z M241,510.1c-1.1,0-2.2,0-3.4,0
		c-0.5,0-0.7,0.2-0.7,0.7c0.1,2.1,0.5,4.1,1.3,6c2.6,6.1,9,9.7,15.6,8.5c3.9-0.7,6.7-3.1,9-6.3c0.1-0.3,0-0.7-0.2-0.9
		c-2.4-2.9-5.6-5.1-9.1-6.3C249.5,510.6,245.3,510,241,510.1L241,510.1z M310.7,510.1v-0.2c-3.2,0.4-6.4,0.6-9.6,1.2
		c-4.7,0.9-9,3.4-12.1,7.1c-0.3,0.3-0.5,0.6-0.2,1c4.5,6.2,10.9,8.2,17.7,4.9c5.5-2.6,7.8-7.4,8.2-13.3c0-0.5-0.2-0.6-0.7-0.6
		L310.7,510.1z M237.1,455.9h3.8c4.3,0.1,8.7-0.3,12.9-1.4c3.7-0.9,6.9-3.3,9-6.5c0.2-0.4,0.4-0.6,0.1-1.1c-3.5-4.8-8.4-7.4-14.5-6
		C240.4,442.6,236.8,449.9,237.1,455.9z M314.6,455.8c0-2.3-0.4-4.5-1.3-6.6c-2.6-6.4-9.5-10-16.3-8.4c-3.5,0.9-6,3.1-8.1,5.8
		c-0.4,0.4-0.4,1,0,1.5c2,3,4.9,5.2,8.4,6.2c3.1,0.9,6.4,1.5,9.7,1.5C309.6,455.9,312,455.8,314.6,455.8z"/>
	<path d="M84.3,573.4c1.6,0.8,2.9,2,3.9,3.5c0.9,1.5,1.5,3.3,1.6,5.1H86c-0.1-1.8-0.9-3.6-2.3-4.8c-3.5-2.8-8.6-2.2-11.5,1.2
		c-1.5,2-2.3,4.7-2.3,8.1s0.8,6.1,2.3,8.1c1.5,1.9,3.8,3,6.2,3c4,0.2,7.4-2.8,7.7-6.8h3.8c-0.1,2.8-1.4,5.5-3.5,7.4
		c-2.3,1.9-5.1,2.8-8.1,2.7c-2.3,0.1-4.6-0.5-6.6-1.7c-1.9-1.2-3.3-2.9-4.2-5c-2-4.9-2-10.3,0-15.2c0.9-2,2.4-3.8,4.3-4.9
		c2-1.2,4.3-1.8,6.6-1.7C80.5,572.1,82.5,572.5,84.3,573.4z"/>
	<path d="M94.9,600.1v-27.4h3.5v27.4H94.9z"/>
	<path d="M104.6,576.5v-3.8h3.5v3.8H104.6z M104.6,600.1v-19.6h3.5v19.6H104.6z"/>
	<path d="M126.7,580.9c1.2,0.6,2.3,1.5,3,2.6c0.8,1.2,1.2,2.5,1.3,3.9h-3.7c-0.1-1.3-0.6-2.5-1.6-3.4c-0.9-0.9-2.2-1.3-3.5-1.3
		c-1.7-0.1-3.2,0.7-4.2,2c-2.1,3.4-2.1,7.7,0,11.1c1,1.3,2.6,2.1,4.2,2c1.3,0,2.6-0.5,3.5-1.4c0.9-1,1.5-2.2,1.6-3.6h3.7
		c-0.1,1.4-0.6,2.8-1.3,4c-0.7,1.2-1.8,2.1-3,2.8c-1.3,0.7-2.8,1-4.3,1c-1.8,0-3.5-0.4-5.1-1.3c-1.4-0.8-2.6-2.1-3.3-3.6
		c-1.5-3.5-1.5-7.5,0-11c0.7-1.5,1.9-2.7,3.3-3.6c1.5-0.9,3.3-1.3,5.1-1.3C123.9,579.9,125.4,580.2,126.7,580.9z"/>
	<path d="M148.3,600.1l-9-9.8h-0.1v9.8h-3.5v-27.4h3.5v16h0.1l8.2-8.1h4.4l-9.1,8.9l10.2,10.7H148.3z"/>
	<path d="M173.4,597.2v2.8c-0.7,0.2-1.5,0.2-2.2,0.2c-1.5,0.1-3-0.3-4.2-1.3c-0.9-0.9-1.3-2.3-1.3-4.3v-11.4h-3.5v-2.7h3.5v-4.8h3.5
		v4.8h4v2.7h-4v11.1c-0.1,0.9,0.1,1.7,0.6,2.4c0.6,0.5,1.4,0.8,2.1,0.7C172.4,597.4,172.9,597.4,173.4,597.2z"/>
	<path d="M192.1,582.7c3.5,4.4,3.5,10.7,0,15.1c-4,3.7-10.1,3.7-14.1,0c-3.4-4.4-3.4-10.7,0-15.1C182,579,188.2,579,192.1,582.7z
		 M180.7,584.7c-2.1,3.4-2.1,7.7,0,11.1c1,1.3,2.7,2.1,4.4,2c1.7,0.1,3.3-0.7,4.4-2c2.1-3.4,2.1-7.7,0-11.1c-1.1-1.3-2.7-2.1-4.4-2
		C183.4,582.7,181.8,583.4,180.7,584.7L180.7,584.7z"/>
	<path d="M222.9,581.3c1.3,0.9,2.4,2.1,3,3.6c1.4,3.5,1.4,7.4,0,10.8c-0.6,1.5-1.6,2.7-2.9,3.6c-1.3,0.9-2.9,1.3-4.5,1.3
		c-1.3,0-2.6-0.3-3.7-0.9c-1-0.5-1.9-1.4-2.5-2.4h-0.1v9.9h-3.5v-26.7h3.5v2.8h0.1c0.5-1,1.4-1.9,2.5-2.4c1.1-0.6,2.4-0.9,3.7-0.9
		C220,580,221.5,580.4,222.9,581.3z M213.5,584.8c-2,3.4-2,7.6,0,11c0.9,1.3,2.4,2,4,2c1.6,0,3.2-0.7,4.1-2.1c2.1-3.4,2.1-7.6,0-11
		c-1-1.3-2.5-2-4.1-2C215.9,582.7,214.4,583.4,213.5,584.8z"/>
	<path d="M242.6,580.5v3c-0.9-0.1-1.4-0.1-1.4-0.1c-1.7-0.1-3.3,0.5-4.4,1.7c-1.1,1.4-1.7,3.2-1.6,5v10h-3.5v-19.6h3.4v3h0.1
		c1.3-2.1,3.6-3.3,6-3.2C241.6,580.3,242.1,580.4,242.6,580.5z"/>
	<path d="M260.6,582.7c3.5,4.4,3.5,10.7,0,15.1c-4,3.7-10.1,3.7-14.1,0c-3.4-4.4-3.4-10.7,0-15.1C250.4,579,256.6,579,260.6,582.7z
		 M249.1,584.7c-2.1,3.4-2.1,7.7,0,11.1c1,1.3,2.7,2.1,4.4,2c1.7,0.1,3.3-0.7,4.4-2c2.1-3.4,2.1-7.7,0-11.1c-1.1-1.3-2.7-2.1-4.4-2
		C251.8,582.7,250.1,583.4,249.1,584.7L249.1,584.7z"/>
	<path d="M280.6,580.9c1.2,0.6,2.2,1.5,3,2.6c0.8,1.2,1.2,2.5,1.3,3.9h-3.7c-0.1-1.3-0.6-2.5-1.6-3.4c-0.9-0.9-2.2-1.3-3.5-1.3
		c-1.7-0.1-3.2,0.7-4.2,2c-2.1,3.4-2.1,7.7,0,11.1c1,1.3,2.6,2.1,4.3,2c1.3,0,2.5-0.5,3.5-1.4c0.9-1,1.5-2.2,1.6-3.6h3.7
		c-0.1,1.4-0.6,2.8-1.3,4c-0.7,1.2-1.8,2.1-3,2.8c-1.3,0.7-2.8,1-4.3,1c-1.8,0-3.5-0.4-5.1-1.3c-1.4-0.8-2.6-2.1-3.3-3.6
		c-1.5-3.5-1.5-7.5,0-11c0.7-1.5,1.9-2.7,3.3-3.6c1.5-0.9,3.3-1.3,5.1-1.3C277.8,579.9,279.2,580.2,280.6,580.9z"/>
	<path d="M301.4,597c0.9-0.7,1.6-1.6,1.8-2.7h3.6c-0.4,1.8-1.4,3.4-2.9,4.6c-1.7,1.3-3.9,1.9-6,1.8c-1.8,0-3.6-0.4-5.1-1.3
		c-1.4-0.9-2.6-2.2-3.3-3.7c-0.8-1.8-1.2-3.7-1.1-5.6c0-1.8,0.4-3.6,1.1-5.2c0.7-1.5,1.9-2.7,3.3-3.6c1.5-0.9,3.2-1.3,5-1.3
		c2.1-0.1,4.1,0.6,5.7,1.8c1.6,1.3,2.7,3,3.1,5c0.3,1.4,0.4,2.8,0.4,4.2h-15.2c-0.1,1.9,0.6,3.8,1.8,5.2c1.1,1.2,2.6,1.8,4.3,1.8
		C299.1,598.1,300.4,597.7,301.4,597z M293.7,584.2c-1.1,1.2-1.8,2.7-1.8,4.3h11.7c-0.1-1.6-0.7-3.1-1.8-4.3
		C299.4,582.1,296,582.1,293.7,584.2L293.7,584.2z"/>
	<path d="M323.8,597c0.9-0.7,1.6-1.6,1.8-2.7h3.6c-0.4,1.8-1.4,3.4-2.9,4.6c-1.7,1.3-3.9,1.9-6,1.8c-1.8,0-3.6-0.4-5.1-1.3
		c-1.4-0.9-2.6-2.2-3.3-3.7c-0.8-1.8-1.2-3.7-1.2-5.7c0-1.8,0.4-3.6,1.1-5.2c0.7-1.5,1.9-2.7,3.3-3.6c1.5-0.9,3.2-1.3,5-1.3
		c2.1-0.1,4.1,0.6,5.7,1.8c1.6,1.3,2.7,3,3.1,5c0.3,1.4,0.4,2.8,0.4,4.2h-15.2c-0.1,1.9,0.6,3.8,1.8,5.2c1.1,1.2,2.6,1.8,4.3,1.8
		C321.5,598,322.7,597.7,323.8,597z M316,584.2c-1.1,1.2-1.8,2.7-1.8,4.3h11.6c-0.1-1.6-0.7-3.1-1.8-4.3
		C321.7,582.1,318.3,582.1,316,584.2L316,584.2z"/>
	<path d="M347.8,600.1v-2.8h-0.1c-0.6,1-1.4,1.9-2.5,2.4c-1.1,0.6-2.4,0.9-3.7,0.9c-3.3,0.1-6.2-1.9-7.5-4.9
		c-1.4-3.5-1.4-7.4,0-10.8c0.6-1.5,1.7-2.7,3-3.6c1.3-0.9,2.9-1.3,4.5-1.3c1.3,0,2.6,0.3,3.7,0.9c1,0.5,1.9,1.3,2.5,2.3h0.1v-10.6
		h3.5v27.4H347.8z M338.2,584.8c-2.1,3.4-2.1,7.6,0,11c1,1.3,2.5,2.1,4.1,2.1c1.6,0,3.1-0.7,4-2c2-3.4,2-7.6,0-11
		c-0.9-1.3-2.4-2-4-2C340.8,582.8,339.2,583.5,338.2,584.8z"/>
	<path d="M358.4,593.3l-0.8-20.7h4.5l-0.8,20.7H358.4z M357.8,600.1V596h4.1v4.1H357.8z"/>
	<g>
		<path d="M69.4,493.6c0.5-17.2,8-30.9,22.7-40.7c2.5-1.6,4.6-1.4,5.8,0.5s0.5,3.7-2,5.4c-14.5,9.5-21.9,26.2-18.8,42.4
			c3.1,16.9,16.2,30.3,33.1,33.6c26.2,5.5,51.3-16.4,49.5-43.3c-0.9-13.8-7.3-24.5-18.7-32.3c-0.9-0.6-2.2-1.4-2.3-2.2
			c-0.2-1.4,0-2.8,0.8-4c1.1-1.5,2.9-1.2,4.5-0.2c6.4,4,11.8,9.5,15.8,16c18.2,29.8-0.7,68.9-35.4,73.3c-26.5,3.6-51-15.1-54.5-41.6
			c-0.2-1.5-0.3-3.1-0.4-4.6C69.6,495.3,69.5,494.6,69.4,493.6z"/>
		<path d="M113.6,436c-3.9,0-7.4,0-10.9,0s-5.8-2.1-5.8-5.2s2.2-5.2,5.8-5.2c10.7,0,21.4,0,32.2,0c3.6,0,5.9,2,5.9,5.1
			s-2.3,5.3-5.9,5.3s-7,0-10.9,0v3.1c0,12.5,0,25.1,0,37.6c0,2.8-0.9,4.9-3.7,5.9c-3.5,1.2-6.8-1.3-6.8-5.3c0-9.3,0-18.6,0-27.9
			L113.6,436z"/>
	</g>
</g>
</svg>
