<?xml version="1.0" encoding="utf-8"?>
<!-- Generator: Adobe Illustrator 23.0.6, SVG Export Plug-In . SVG Version: 6.00 Build 0)  -->
<svg version="1.1" id="Ebene_1" xmlns="http://www.w3.org/2000/svg" xmlns:xlink="http://www.w3.org/1999/xlink" x="0px" y="0px"
	 viewBox="0 0 1505 804" style="enable-background:new 0 0 1505 804;" xml:space="preserve">
<style type="text/css">
	.st0{opacity:0.25;fill:#FFFFFF;}
	.st1{fill:#919191;}
	.st2{font-family:'NeueHaasUnicaW06-Regular';}
	.st3{font-size:45.35px;}
	.st4{fill:#E01214;}
	.st5{fill:#3A3A3A;}
	.st6{font-size:22.68px;}
	.st7{font-size:13.32px;}
	.st8{fill:#E52032;}
	.st9{fill:#A5C83F;}
	.st10{fill:#1FB6EB;}
	.st11{fill:#A48587;}
	.st12{fill:#05589A;}
	.st13{fill:#991A19;}
	.st14{fill:#B6579D;}
	.st15{fill:#F0B61A;}
	.st16{fill:#3F8934;}
	.st17{fill:#30B08C;}
	.st18{fill:#D21417;}
	.st19{fill:#DA1516;}
	.st20{fill:#E84B4C;}
	.st21{fill:#DF1E1B;}
	.st22{fill:#E63939;}
	.st23{fill:#E84142;}
	.st24{fill:#E42523;}
	.st25{fill:#E52E2C;}
</style>
<title>2. Fauske hard fact page</title>
<image style="overflow:visible;enable-background:new    ;" width="1004" height="536" xlink:href="208F85A5.png"  transform="matrix(1.5007 0 0 1.5007 0 0)">
</image>
<rect y="451.7" class="st0" width="294.1" height="352.7"/>
<g id="Background">
	<rect x="1378.7" y="343.3" class="st0" width="126.3" height="460.7"/>
</g>
<path class="st1" d="M1412.6,417.9c-2.4-0.9-3.2-2.8-3.2-5.4c0.1-2.4,0-4.8,0-7.2c0-3,1.6-4.7,4.3-4.8c1.6,0,3.2,0,4.8,0
	c2.5,0.1,4,1.8,4.1,4.5s0,5.6,0,8.3c0.1,1.7-0.8,3.2-2.3,4c-0.8,0.4-0.8,0.9-0.8,1.6c0,2.6,0,5.1,0,7.7s-1.2,3.6-3.6,3.6
	s-3.4-1.1-3.5-3.6C1412.6,423.8,1412.6,420.9,1412.6,417.9z"/>
<path class="st1" d="M1495.8,409.1v4.4c0.1,1.6-0.7,3.1-2.2,3.8c-0.8,0.4-0.9,0.9-0.9,1.8c0,2.5,0,5,0,7.5s-1.2,3.7-3.5,3.7
	s-3.5-1.2-3.5-3.8s0-5,0-7.5c0-0.8-0.1-1.3-0.8-1.6c-1.5-0.7-2.4-2.3-2.3-4c0-2.8-0.1-5.6,0-8.4s1.6-4.4,4.1-4.5
	c1.7-0.1,3.3-0.1,5,0c2.5,0.1,4,1.8,4,4.5C1495.7,406.4,1495.7,407.8,1495.8,409.1L1495.8,409.1z"/>
<path class="st1" d="M1404.5,409.3c0,1.3,0,2.6,0,3.9c0.1,1.7-0.8,3.4-2.3,4.2c-0.5,0.4-0.7,0.9-0.8,1.5c-0.1,2.6,0,5.1,0,7.7
	s-1.2,3.7-3.5,3.7s-3.5-1.2-3.5-3.8s0-5,0-7.5c0-0.8-0.1-1.3-0.8-1.6c-1.5-0.8-2.4-2.4-2.2-4.1c0-2.8,0-5.6,0-8.4s1.5-4.4,3.9-4.5
	c1.7-0.1,3.4-0.1,5.2,0c2.4,0.1,3.9,1.7,4.1,4.4C1404.6,406.4,1404.5,407.9,1404.5,409.3L1404.5,409.3z"/>
<path class="st1" d="M1430.9,417.9c-2.5-0.9-3.2-3-3.1-5.7c0.1-2.3,0-4.7,0-7c0.1-3,1.6-4.6,4.2-4.7c1.6,0,3.1,0,4.7,0
	c2.6,0.1,4.2,1.7,4.2,4.5s0,5.5,0,8.3c0.1,1.7-0.8,3.2-2.3,4.1c-0.4,0.4-0.7,0.9-0.8,1.4c-0.1,2.6,0,5.2,0,7.9
	c0,2.4-1.1,3.6-3.4,3.6s-3.6-1.1-3.6-3.6C1430.9,423.8,1430.9,420.8,1430.9,417.9z"/>
<path class="st1" d="M1459.3,409.2c0,1.5,0,2.9,0,4.4c0.1,1.6-0.8,3-2.2,3.8c-0.8,0.4-0.9,1-0.9,1.8c0,2.5,0,5,0,7.5
	s-1.1,3.7-3.5,3.7s-3.5-1.1-3.5-3.7s0-5,0-7.5c0-0.8-0.1-1.4-0.9-1.8c-1.4-0.7-2.3-2.2-2.2-3.8c0-2.9-0.1-5.9,0-8.8
	c0.1-2.6,1.6-4.2,4-4.3c1.7-0.1,3.4-0.1,5.2,0c2.5,0.1,3.9,1.8,4,4.6C1459.3,406.5,1459.3,407.8,1459.3,409.2L1459.3,409.2z"/>
<path class="st1" d="M1467.5,417.9c-2.4-1-3.2-2.9-3-5.5c0.1-2.4,0-4.8,0-7.2c0-2.8,1.5-4.5,4-4.6c1.7-0.1,3.4-0.1,5.2,0
	c2.4,0.1,3.9,1.8,4,4.5s0,5.7,0,8.5c0.1,1.6-0.8,3.2-2.2,3.9c-0.7,0.4-0.8,0.9-0.8,1.6c0,2.6,0,5.1,0,7.7s-1.1,3.6-3.4,3.6
	s-3.5-1.1-3.6-3.6C1467.5,423.8,1467.5,420.8,1467.5,417.9z"/>
<path class="st1" d="M1485.4,395.2c-0.2-2.1,1.3-4,3.3-4.2c2.1-0.2,4,1.3,4.2,3.3c0,0.3,0,0.5,0,0.8c0.1,2.2-1.6,4.1-3.8,4.3
	C1487.1,399.2,1485.4,397.4,1485.4,395.2z"/>
<path class="st1" d="M1397.9,390.9c2.2,0.1,3.9,2,3.8,4.2c0,0,0,0,0,0.1c0.2,2.1-1.3,4-3.4,4.2s-4-1.3-4.2-3.4c0-0.3,0-0.6,0-0.9
	C1394,392.9,1395.7,391.1,1397.9,390.9z"/>
<path class="st1" d="M1416.2,390.9c2.2,0.2,3.8,2,3.8,4.2c0,2.3-1.8,4.3-3.8,4.3c-2.2-0.2-3.8-2-3.8-4.2
	C1412.2,393,1413.9,391.1,1416.2,390.9C1416.1,390.9,1416.2,390.9,1416.2,390.9z"/>
<path class="st1" d="M1471,390.9c2.2,0.1,3.9,2.1,3.8,4.3c0.2,2.1-1.3,4-3.4,4.2c-2.1,0.2-4-1.3-4.2-3.4c0-0.3,0-0.5,0-0.8
	C1467.1,393,1468.8,391.1,1471,390.9z"/>
<path class="st1" d="M1452.7,390.9c2.2,0.1,3.9,2,3.8,4.3c0.2,2.1-1.4,4-3.5,4.2c-2.1,0.2-4-1.4-4.2-3.5c0-0.3,0-0.6,0-0.9
	C1448.9,392.9,1450.5,391.1,1452.7,390.9z"/>
<path class="st1" d="M1434.4,390.9c2.2,0.1,3.9,2,3.8,4.2c0,0,0,0.1,0,0.1c0.2,2.1-1.4,4-3.5,4.2c-2.1,0.2-4-1.4-4.2-3.5
	c0-0.3,0-0.5,0-0.8C1430.6,392.9,1432.2,391.1,1434.4,390.9z"/>
<text transform="matrix(1 0 0 1 1391.92 383.28)" class="st1 st2 st3">9760</text>
<path class="st1" d="M1410.2,668.9h59.4c0,0.3,0,0.5,0,0.8c0.1,3.3,0.2,6.7,0.1,10c0,2.5-0.1,4.9-0.3,7.3c-0.2,2.1-0.3,4.2-0.6,6.3
	c-0.5,5.2-1.5,10.2-2.8,15.3c-1.7,6.4-4.2,12.4-7.6,18.1c-3.2,5.4-7.2,10.3-11.8,14.6c-2.1,1.9-4.3,3.8-6.6,5.5l-0.2,0.1l-1.7-1.3
	c-3.9-3-7.5-6.4-10.7-10.2c-3.3-3.9-6.1-8.1-8.3-12.6c-2.1-4.2-3.8-8.5-5.1-13c-0.9-3.1-1.6-6.3-2.2-9.5c-0.3-1.8-0.6-3.6-0.8-5.4
	s-0.4-3.5-0.6-5.3s-0.3-3.8-0.4-5.7c-0.2-3.7-0.2-7.5-0.1-11.2C1410.1,671.5,1410.2,670.2,1410.2,668.9z M1465.9,691.8h-8.9
	c0-0.4,0-0.7-0.1-1c-0.3-2.3-1.4-4.5-3-6.1c-1.3-1.4-3-2.3-4.9-2.5c-1.2-0.2-2.4-0.1-3.6,0.1c-2.1,0.3-4,1.6-5.2,3.4
	c-0.1,0.1-0.1,0.2-0.2,0.3l0,0c-0.1-0.1-0.1-0.2-0.2-0.3c-1-1.6-2.6-2.7-4.4-3.2c-1.3-0.4-2.7-0.5-4.1-0.3c-1.9,0.2-3.6,1-5,2.3
	c-1.8,1.7-2.9,3.9-3.3,6.3c0,0.3-0.1,0.7-0.1,1.1h-3c-1,0-2,0-2.9,0s-2,0-3,0l0.7,5.4h8.3v5.8h-7c-0.1,0-0.2,0-0.4,0l1.4,5.4h5.9
	c0.1,0.5,0.1,1,0.2,1.5c0.4,2.2,1.5,4.3,3.1,5.9c1.3,1.3,3,2.1,4.8,2.3c1.2,0.1,2.4,0.1,3.6-0.1c2.1-0.4,4-1.6,5.1-3.4l0.2-0.3
	l0.3,0.4c0.9,1.4,2.2,2.4,3.7,2.9c1.1,0.4,2.2,0.6,3.3,0.6c2.3,0.1,4.6-0.7,6.3-2.3c1.7-1.5,2.8-3.6,3.2-5.8
	c0.1-0.5,0.2-1.1,0.3-1.7h5.9c0.2-0.5,1.4-5.2,1.4-5.5h-7.3v-5.8h8.3L1465.9,691.8z"/>
<path class="st1" d="M1465.9,691.8l-0.7,5.4h-8.3v5.8h7.3c0,0.3-1.2,4.9-1.4,5.5h-5.9c-0.1,0.6-0.1,1.1-0.3,1.7
	c-0.4,2.2-1.6,4.3-3.2,5.8c-1.7,1.6-4,2.4-6.3,2.3c-1.1,0-2.2-0.2-3.3-0.6c-1.5-0.5-2.8-1.6-3.7-2.9l-0.3-0.4l-0.2,0.3
	c-1.1,1.8-3,3-5.1,3.4c-1.2,0.2-2.4,0.3-3.6,0.1c-1.8-0.2-3.5-1-4.8-2.3c-1.6-1.6-2.7-3.6-3.1-5.9c-0.1-0.5-0.1-1-0.2-1.5h-5.9
	l-1.4-5.4c0.1,0,0.2,0,0.4,0h7v-5.8h-8.3l-0.7-5.4c1,0,2,0,3,0s2,0,2.9,0h3c0-0.4,0.1-0.7,0.1-1.1c0.3-2.4,1.5-4.7,3.3-6.3
	c1.4-1.3,3.1-2.1,5-2.3c1.4-0.1,2.7,0,4.1,0.3c1.8,0.5,3.4,1.6,4.4,3.2c0.1,0.1,0.1,0.2,0.2,0.3l0,0c0.1-0.1,0.1-0.2,0.2-0.3
	c1.2-1.8,3-3.1,5.2-3.4c1.2-0.2,2.4-0.3,3.6-0.1c1.9,0.2,3.6,1.1,4.9,2.5c1.6,1.7,2.7,3.8,3,6.1c0,0.3,0.1,0.7,0.1,1L1465.9,691.8z
	 M1423.1,708.4c0,0.1,0,0.2,0,0.3c0.1,0.6,0.1,1.2,0.3,1.8c0.5,2.2,1.6,4.1,3.3,5.6c1.3,1.1,2.9,1.8,4.6,2c1.1,0.1,2.1,0.1,3.2-0.1
	c1-0.2,2-0.5,2.9-1.1c1-0.6,1.8-1.5,2.4-2.4c0.1-0.1,0.1-0.2,0.2-0.3c0.1,0.2,0.2,0.3,0.3,0.4c0.9,1.5,2.3,2.6,4,3.2
	c1.3,0.4,2.7,0.6,4.1,0.5c1.6-0.1,3.2-0.6,4.5-1.6c1.3-1,2.3-2.2,3-3.7c0.6-1.3,1-2.7,1.1-4.1c0-0.1,0-0.1,0-0.2h6l1.3-5.1h-7.3
	c0-0.1,0-0.3,0-0.3v-5.7c0-0.1,0.1-0.2,0.2-0.2h8.1l0.6-5.1h-8.5h-0.4c-0.1-0.5-0.1-1-0.2-1.5c-0.4-2.4-1.6-4.6-3.5-6.3
	c-1.4-1.2-3.2-2-5.1-2c-0.6,0-1.2,0-1.9,0.1c-0.9,0.1-1.7,0.3-2.6,0.6c-1.4,0.6-2.7,1.7-3.5,3l-0.2,0.3l-0.3-0.4
	c-0.9-1.6-2.4-2.7-4.2-3.3c-1.4-0.4-2.9-0.6-4.4-0.4c-1.7,0.2-3.2,0.9-4.5,2c-2,1.8-3.3,4.3-3.5,7c0,0.2,0,0.4-0.1,0.7h-8.9l0.6,5.1
	h8.3v6.2h-7.3l1.3,5.1L1423.1,708.4z"/>
<path class="st4" d="M1423.1,708.4h-5.9l-1.3-5.1h7.3v-6.2h-8.3l-0.6-5.1h8.9c0-0.3,0-0.5,0.1-0.7c0.2-2.7,1.5-5.2,3.5-7
	c1.2-1.1,2.8-1.8,4.5-2c1.5-0.2,3-0.1,4.4,0.4c1.8,0.5,3.3,1.7,4.2,3.3l0.3,0.4l0.2-0.3c0.8-1.3,2-2.4,3.5-3
	c0.8-0.3,1.7-0.5,2.6-0.6c0.6-0.1,1.2-0.1,1.9-0.1c1.9,0,3.7,0.8,5.1,2c1.9,1.6,3.1,3.8,3.5,6.3c0.1,0.5,0.1,1,0.2,1.5h0.4h8.5
	l-0.6,5.1h-8.1c-0.1,0-0.2,0.1-0.2,0.2v5.7c0,0.1,0,0.2,0,0.3h7.3l-1.3,5.1h-6c0,0.1,0,0.1,0,0.2c-0.1,1.4-0.4,2.9-1.1,4.1
	c-0.7,1.5-1.7,2.7-3,3.7c-1.3,1-2.9,1.5-4.5,1.6c-1.4,0.1-2.8-0.1-4.1-0.5c-1.7-0.5-3.1-1.7-4-3.2c-0.1-0.1-0.2-0.2-0.3-0.4
	c-0.1,0.2-0.2,0.3-0.2,0.3c-0.6,1-1.4,1.8-2.4,2.4c-0.9,0.5-1.9,0.9-2.9,1.1c-1.1,0.2-2.1,0.2-3.2,0.1c-1.7-0.2-3.3-0.9-4.6-2
	c-1.7-1.5-2.8-3.4-3.3-5.6c-0.1-0.6-0.2-1.2-0.3-1.8C1423.1,708.6,1423.1,708.5,1423.1,708.4z M1451.7,703.3c0,0,0-0.1,0-0.2v-5.8
	c0,0,0-0.1,0-0.1l0,0l0,0h-0.2c-1.2,0-2.4-0.1-3.5-0.2c-1.2-0.1-2.4-0.4-3.6-0.7c-1.6-0.5-3-1.3-4.2-2.4l-0.2-0.1l-0.2,0.2
	c-0.7,0.6-1.4,1.1-2.2,1.5c-1.7,0.8-3.6,1.4-5.5,1.5c-1.2,0.1-2.5,0.2-3.7,0.2c-0.1,0-0.1,0-0.2,0v6.2h0.2c1.1,0,2.3,0.1,3.4,0.2
	c1.2,0.1,2.3,0.3,3.5,0.7c1.6,0.4,3,1.2,4.3,2.3l0.4,0.3l0.2-0.1c0.8-0.8,1.7-1.4,2.8-1.8c2.1-0.9,4.4-1.4,6.6-1.4
	C1450.2,703.3,1451,703.3,1451.7,703.3z M1451.7,692c0-0.3,0-0.7-0.1-1c-0.3-2.2-2.3-3.8-4.6-3.7c-1.4,0.1-2.6,0.9-3.3,2.1l0.2,0.3
	c0.5,0.7,1.2,1.3,2,1.6c0.8,0.3,1.7,0.5,2.5,0.6c0.7,0,1.4,0.1,2.1,0.1C1451,692,1451.3,692,1451.7,692L1451.7,692z M1436.1,711
	c-0.1-0.1-0.1-0.2-0.2-0.3c-0.9-1-2-1.7-3.3-2c-1.4-0.3-2.8-0.4-4.3-0.3h-0.1c-0.1,1.9,1,3.6,2.7,4.3
	C1432.9,713.5,1435.1,712.8,1436.1,711L1436.1,711z M1451.7,708.4c-0.6,0-1.2,0-1.8,0c-0.9,0-1.7,0.1-2.6,0.3c-1.3,0.3-2.5,1-3.4,2
	c-0.2,0.2-0.2,0.2,0,0.5s0.4,0.4,0.6,0.6c1.4,1.5,3.7,1.6,5.3,0.4c1-0.7,1.7-1.9,1.8-3.2C1451.7,708.9,1451.7,708.6,1451.7,708.4
	L1451.7,708.4z M1428.2,692h0.3c1.2,0,2.4,0,3.6-0.2c0.7-0.1,1.5-0.3,2.1-0.6c0.9-0.4,1.6-1,2-1.9c-0.2-0.3-0.4-0.5-0.7-0.8
	c-0.6-0.7-1.5-1.1-2.4-1.3c-1.7-0.2-3.4,0.6-4.3,2.2C1428.4,690.2,1428.2,691.1,1428.2,692z"/>
<path class="st1" d="M1451.7,703.3c-0.8,0-1.5,0-2.2,0.1c-2.3,0.1-4.5,0.6-6.6,1.4c-1,0.4-2,1.1-2.8,1.8l-0.2,0.1l-0.4-0.3
	c-1.2-1.1-2.7-1.8-4.3-2.3c-1.1-0.3-2.3-0.5-3.5-0.7c-1.1-0.1-2.3-0.2-3.4-0.2h-0.2v-6.2c0.1,0,0.1,0,0.2,0c1.2,0,2.5-0.1,3.7-0.2
	c1.9-0.2,3.8-0.7,5.5-1.5c0.8-0.4,1.5-0.9,2.2-1.5l0.2-0.2l0.2,0.1c1.2,1.1,2.6,1.9,4.2,2.4c1.2,0.4,2.4,0.6,3.6,0.7
	c1.2,0.1,2.3,0.2,3.5,0.2h0.2l0,0l0,0c0,0,0,0.1,0,0.1v5.8C1451.7,703.1,1451.7,703.2,1451.7,703.3z M1440,706.5l0.1-0.1
	c1-1,2.3-1.7,3.6-2.2c2-0.7,4-1,6.1-1.1l1.8-0.1v-5.8h-0.6c-1.9,0-3.8-0.2-5.6-0.6c-1.5-0.3-3-1-4.3-1.9c-0.4-0.3-0.7-0.6-1.1-0.8
	c-0.5,0.4-0.9,0.8-1.4,1.1c-1.6,1-3.3,1.6-5.2,1.9c-1.5,0.3-3.1,0.4-4.7,0.4h-0.3v5.8h0.3c1.5,0,3,0.1,4.6,0.4
	c1.3,0.2,2.6,0.6,3.8,1.1C1438.2,705.1,1439.2,705.7,1440,706.5z"/>
<path class="st1" d="M1451.7,692c-0.4,0-0.8,0-1.1,0c-0.7,0-1.4,0-2.1-0.1c-0.9-0.1-1.7-0.3-2.5-0.6c-0.8-0.3-1.5-0.9-2-1.6
	l-0.2-0.3c0.7-1.2,1.9-1.9,3.3-2.1c2.2-0.2,4.2,1.4,4.6,3.7C1451.7,691.3,1451.7,691.7,1451.7,692z M1444,689.4
	c0.4,0.6,0.9,1.2,1.6,1.5c0.8,0.4,1.8,0.7,2.7,0.8c1,0.1,1.9,0.1,2.9,0.1h0.3c0-0.1,0-0.1,0-0.1c0-1.1-0.4-2.1-1.1-2.9
	c-1.5-1.6-4-1.8-5.6-0.3C1444.4,688.8,1444.2,689.1,1444,689.4z"/>
<path class="st1" d="M1436.1,711c-1,1.8-3.3,2.6-5.2,1.8c-1.7-0.7-2.8-2.5-2.7-4.3h0.1c1.4-0.1,2.9,0,4.3,0.3c1.3,0.3,2.5,1,3.3,2
	C1436,710.8,1436.1,710.9,1436.1,711z M1428.4,708.6c0,1.9,1.2,3.6,3,4.2c1.7,0.5,3.6-0.2,4.5-1.7l-0.1-0.2
	c-0.7-0.9-1.7-1.5-2.8-1.8c-0.7-0.2-1.5-0.4-2.2-0.4C1430,708.6,1429.2,708.6,1428.4,708.6L1428.4,708.6z"/>
<path class="st1" d="M1451.7,708.4c0,0.3,0,0.5,0,0.7c-0.1,1.3-0.8,2.4-1.8,3.2c-1.6,1.3-3.9,1.1-5.3-0.4c-0.2-0.2-0.4-0.4-0.6-0.6
	s-0.2-0.3,0-0.5c0.9-1,2.1-1.7,3.4-2c0.8-0.2,1.7-0.3,2.6-0.3C1450.5,708.4,1451.1,708.4,1451.7,708.4z M1451.5,708.6L1451.5,708.6
	c-1.3,0-2.5,0-3.7,0.2c-1.4,0.2-2.7,0.9-3.6,2c-0.1,0.1-0.1,0.2-0.2,0.3c0.3,0.4,0.6,0.7,0.9,1c0.9,0.7,2,1,3.2,0.8
	C1450.1,712.5,1451.6,710.7,1451.5,708.6z"/>
<path class="st1" d="M1428.2,692c0-0.9,0.2-1.7,0.6-2.5c0.8-1.5,2.5-2.4,4.3-2.2c0.9,0.1,1.8,0.6,2.4,1.3c0.2,0.2,0.4,0.5,0.7,0.8
	c-0.4,0.8-1.1,1.5-2,1.9c-0.7,0.3-1.4,0.5-2.1,0.6c-1.2,0.1-2.4,0.2-3.6,0.2L1428.2,692z M1435.9,689.4c-1-1.7-3.1-2.4-4.9-1.6
	c-1.6,0.7-2.7,2.3-2.6,4h0.2c0.8,0,1.5,0,2.3-0.1c0.9,0,1.8-0.2,2.7-0.5C1434.6,690.9,1435.4,690.3,1435.9,689.4L1435.9,689.4z"/>
<path class="st1" d="M1440,706.5c-0.8-0.8-1.8-1.4-2.9-1.9c-1.2-0.5-2.5-0.9-3.8-1.1c-1.5-0.2-3-0.4-4.6-0.4h-0.3v-5.8h0.3
	c1.6,0,3.1-0.1,4.7-0.4c1.8-0.3,3.6-0.9,5.2-1.9c0.5-0.3,1-0.7,1.4-1.1c0.3,0.3,0.7,0.6,1.1,0.8c1.3,0.9,2.8,1.5,4.3,1.9
	c1.8,0.4,3.7,0.6,5.6,0.6h0.6v5.8l-1.8,0.1c-2.1,0.1-4.1,0.4-6.1,1.1c-1.3,0.5-2.6,1.2-3.6,2.2L1440,706.5z"/>
<path class="st1" d="M1444,689.4c1.2-1.9,3.6-2.5,5.5-1.3c0.3,0.2,0.6,0.4,0.9,0.7c0.7,0.8,1.1,1.8,1.1,2.9c0,0,0,0.1,0,0.1h-0.3
	c-1,0-1.9,0-2.9-0.1c-1-0.1-1.9-0.3-2.7-0.8C1444.9,690.6,1444.4,690,1444,689.4z"/>
<path class="st1" d="M1428.4,708.5c0.8,0,1.6,0,2.4,0.1c0.8,0,1.5,0.2,2.2,0.4c1.1,0.3,2,1,2.8,1.8l0.1,0.2
	c-0.9,1.5-2.8,2.3-4.5,1.7C1429.6,712.1,1428.4,710.4,1428.4,708.5z"/>
<path class="st1" d="M1451.5,708.6c0,2-1.4,3.8-3.4,4.2c-1.1,0.2-2.3-0.1-3.1-0.8c-0.4-0.3-0.7-0.6-0.9-1c0.1-0.1,0.1-0.2,0.2-0.3
	c1-1.1,2.2-1.8,3.6-2C1449.1,708.6,1450.3,708.5,1451.5,708.6L1451.5,708.6z"/>
<path class="st1" d="M1435.9,689.4c-0.5,0.9-1.3,1.5-2.3,1.9c-0.9,0.3-1.8,0.5-2.7,0.5c-0.8,0-1.5,0-2.3,0.1h-0.2c0-1.7,1-3.3,2.6-4
	C1432.8,687.1,1434.9,687.7,1435.9,689.4z"/>
<text transform="matrix(1 0 0 1 1396.39 770.31)" class="st5 st2 st6">E</text>
<text transform="matrix(1 0 0 1 1410.11 770.31)" class="st5 st2 st6">mblem</text>
<text transform="matrix(1 0 0 1 1391.5601 654.21)" class="st5 st2 st6">1.112 </text>
<text transform="matrix(1 0 0 1 1452.88 654.21)" class="st5 st2 st6">k</text>
<text transform="matrix(1 0 0 1 1463.9901 654.21)" class="st5 st2 st6">m</text>
<text transform="matrix(1 0 0 1 1483.1101 654.21)" class="st5 st2 st6">²</text>
<text transform="matrix(1 0 0 1 1391.3101 451.68)" class="st5 st2 st7">9 inhabita</text>
<text transform="matrix(1 0 0 1 1449.8 451.68)" class="st5 st2 st7">n</text>
<text transform="matrix(1 0 0 1 1457.3401 451.68)" class="st5 st2 st7">ts/</text>
<text transform="matrix(1 0 0 1 1474.27 451.68)" class="st5 st2 st7">k</text>
<text transform="matrix(1 0 0 1 1480.8 451.68)" class="st5 st2 st7">m</text>
<text transform="matrix(1 0 0 1 1492.03 451.68)" class="st5 st2 st7">²</text>
<path class="st8" d="M178.2,509.7v18.2H52.9v-18.2H178.2z"/>
<path class="st9" d="M52.9,556.9v-18h119.3v18H52.9z"/>
<path class="st10" d="M52.9,586.1v-18.2h110.8v18.2H52.9z"/>
<path class="st11" d="M137.6,597.1v17.9H52.9v-17.9H137.6z"/>
<path class="st12" d="M128.8,626.1v18.2H52.9v-18.2H128.8z"/>
<path class="st13" d="M105,655.3v18H52.9v-18H105z"/>
<path class="st14" d="M52.9,702.4v-18.2h44.8v18.2H52.9z"/>
<path class="st15" d="M76.8,713.5v17.9H52.9v-17.9H76.8z"/>
<path class="st16" d="M65.4,760.7H52.9v-18.2h12.5V760.7z"/>
<path class="st17" d="M52.9,789.6v-17.9h9.2v17.9L52.9,789.6z"/>
<path class="st5" d="M25.3,751.8l-1.3,4h-1.3l-1.5-4.6h-0.3l-0.5,4.5H19l0.7-7.9h1.7l1.9,5.7c0.6-1.7,1.1-3.1,1.5-4.5
	c0.3-1.1,0.8-1.6,2.1-1.2l0.8,7.8h-1.4l-0.6-4L25.3,751.8z"/>
<path class="st5" d="M29.2,755.8v-8c2.1,0.2,4.5-0.7,5.9,1.6c1,1.5,1,3.4,0,4.9C33.7,756.5,31.3,755.6,29.2,755.8z M30.6,749.1v5.3
	c2.8,0.1,3.6-0.5,3.6-2.7S33.3,748.9,30.6,749.1z"/>
<path class="st5" d="M23.9,665.4l1.6,3.2H24c-1.2-0.9-0.6-3.5-3.2-3v3h-1.5v-8c1.2,0,2.4-0.1,3.5,0c1,0,1.8,0.7,2.1,1.6
	C25.4,663.4,25,664.8,23.9,665.4z M20.9,664.9c0.9-0.3,1.7-0.6,2.5-1.1c0.3-0.5,0.3-1,0-1.5c-0.8-0.4-1.6-0.7-2.5-0.9L20.9,664.9z"
	/>
<path class="st5" d="M31.9,639.3c-1.7,0.6-2-0.6-2.4-1.6c-0.7-1.5-0.7-1.5-2.2-1.3v2.9h-1.5v-7.9c1.3-0.1,2.5-0.1,3.8,0.1
	c0.8,0.3,1.5,0.9,1.9,1.7c0.5,1.1,0,2.4-1.1,2.9L31.9,639.3z M27.3,635.6c0.9-0.2,1.7-0.6,2.4-1c0.3-0.5,0.3-1.1,0-1.6
	c-0.8-0.4-1.6-0.6-2.4-0.8L27.3,635.6z"/>
<path class="st5" d="M43.9,750.3c-0.7,0.1-1.3,0.3-1.8-0.6c-0.3-0.4-1.3-0.6-1.9-0.5c-1,0.2-1.8,1.9-1.6,3.1
	c0.1,1.3,1.2,2.2,2.4,2.2c1.1,0,1.8-0.3,1.5-1.7c-0.3-0.4-1.8,0.4-1.2-1.1H44c0,0.9,0,1.7,0,2.5c0,0.3-0.1,0.6-0.3,0.8
	c-1.2,0.9-2.9,1.1-4.3,0.6c-1.3-0.4-2.1-1.6-2.2-2.9c-0.4-3.2,1.2-5,4.1-4.8C42.8,747.9,43.6,748.6,43.9,750.3z"/>
<path class="st5" d="M24.1,573.3h1.4v7.9h-1.4V578h-3.3v3.2h-1.4v-7.9h1.3v3.2h3.4V573.3z"/>
<path class="st5" d="M20.8,723.5v3.3l-1.5,0.1v-8l1.4-0.1v3.7c0.5-0.3,1-0.6,1.5-1c0.4-0.4,0.6-0.9,0.8-1.5c0.2-0.9,1.1-1.4,2-1.2
	c0.1,0,0.2,0.1,0.3,0.1c-0.6,1-1.2,2-1.7,3.1c-0.2,0.4-0.2,0.9,0,1.3c0.6,1.1,1.3,2.2,2,3.3c-1.6,0.3-1.6,0.3-2.4-1
	c-0.3-0.6-0.6-1.2-1-1.8c-0.4-0.3-0.8-0.6-1.2-0.9L20.8,723.5z"/>
<path class="st5" d="M31.5,723.6l1.6,3.1c-1.1,0.4-1.7,0.1-2.1-1s-0.7-2.6-2.6-1.8v2.9l-1.3,0.1v-8c1.2-0.1,2.5-0.1,3.7,0.1
	c0.8,0.2,1.5,0.8,1.8,1.5C33,721.6,32.6,723,31.5,723.6z M28.3,723c0.9-0.2,1.8-0.6,2.7-1c0.2-0.5,0.2-1.1-0.1-1.6
	c-0.8-0.3-1.7-0.6-2.6-0.7V723z"/>
<path class="st5" d="M23.7,521.3h-2.8c-0.4,1-0.5,2.4-2.2,1.6c0.9-2.4,1.7-4.9,2.6-7.3c0.2-0.3,0.5-0.5,0.9-0.5c0.4,0,0.8,0.3,1,0.6
	c0.9,2.4,1.8,4.8,2.7,7.3h-1.6L23.7,521.3z M23.3,520.2l-1-3.4l-1,3.4H23.3z"/>
<path class="st5" d="M27.6,697.5c-0.8-2.6-1.6-5.2-2.5-7.8h1.6l1.7,5.6h0.3l1.7-5.7H32c-0.8,2.6-1.7,5.2-2.5,7.9L27.6,697.5z"/>
<path class="st5" d="M20.2,777.1c0.5,1.8,1.1,3.6,1.6,5.4l0.3,0.1l1.8-5.6h1.5l-2.5,7.9c-1.8,0.3-1.8,0.3-2.3-1.3
	c-0.7-2.1-1.3-4.3-2-6.5H20.2z"/>
<path class="st5" d="M24.6,545.4L24,546c-0.7-0.3-1.4-0.5-2.1-0.7c-0.5,0.1-0.9,0.4-1.1,0.8c-0.1,0.2,0.4,0.8,0.7,1
	c0.6,0.3,1.2,0.5,1.9,0.8c0.9,0.3,1.4,1.1,1.4,2c0,1-0.6,1.9-1.5,2.1c-1.5,0.5-3.2,0.1-4.4-1l0.6-0.8c0.7,0.4,1.4,0.7,2.1,0.9
	c0.6,0,1.1-0.3,1.4-0.7c0-0.5-0.2-1.1-0.7-1.4c-0.6-0.3-1.2-0.6-1.9-0.7c-0.8-0.3-1.3-1-1.3-1.9c0-0.9,0.6-1.7,1.4-1.9
	C21.9,543.9,23.5,544.3,24.6,545.4z"/>
<path class="st5" d="M24.6,690.7l-0.6,0.7c-0.7-0.3-1.5-0.5-2.2-0.7c-0.4,0.1-0.8,0.3-1,0.7c-0.1,0.3,0.3,0.8,0.6,1
	c0.6,0.3,1.3,0.6,2,0.8c0.8,0.3,1.4,1.1,1.3,2c0,0.9-0.6,1.8-1.5,2.1c-1.6,0.6-3.3,0.2-4.5-1l0.7-0.8c0.6,0.4,1.3,0.7,2,0.9
	c0.5,0.1,1-0.4,1.5-0.6c-0.3-0.5-0.4-1.2-0.8-1.5c-0.6-0.3-1.2-0.6-1.9-0.7c-0.8-0.3-1.4-1-1.2-1.9c0.2-0.8,0.7-1.4,1.3-1.8
	C21.9,689.3,23.6,689.6,24.6,690.7z"/>
<path class="st5" d="M27.1,515.1c1.1,0,2.1,0,3.1,0c1.3-0.1,2.4,0.9,2.5,2.2c0,0.1,0,0.2,0,0.3c0.1,1.3-0.9,2.5-2.2,2.7
	c-0.1,0-0.2,0-0.3,0c-0.5,0-1.1,0-1.7,0v2.8h-1.5V515.1z M28.6,516.2v3c2,0.2,2.7-0.3,2.6-1.5S30.6,516,28.6,516.2z"/>
<path class="st5" d="M27.7,549.5v2.8h-1.5v-8c1.1,0,2.1,0,3.2,0c1.3-0.1,2.4,0.9,2.5,2.2c0,0.1,0,0.2,0,0.3c0.1,1.3-0.8,2.5-2.2,2.6
	c-0.1,0-0.1,0-0.2,0C28.9,549.5,28.4,549.5,27.7,549.5z M27.8,545.4v3c2,0.1,2.6-0.3,2.6-1.5S29.8,545.2,27.8,545.4z"/>
<path class="st5" d="M34.7,636.6v2.8h-1.5v-7.9c1.2,0,2.4-0.1,3.5,0c1.3,0.1,2.2,1.2,2.1,2.5c0,0,0,0.1,0,0.1
	c0.1,1.3-0.9,2.4-2.2,2.5c0,0,0,0,0,0C36,636.6,35.3,636.6,34.7,636.6z M34.8,632.5v3c2,0.1,2.6-0.2,2.6-1.5S36.8,632.4,34.8,632.5z
	"/>
<path class="st5" d="M20.9,605.6c1,0.7,2.5-0.6,3.3,1.2h-3.4v3.6l-1.5,0.1v-8h5v1.2h-3.4V605.6z"/>
<path class="st5" d="M20.8,635.8v3.5h-1.5v-7.9h5v1.3h-3.4v2h2.9c0.1,1,0.1,1.1-0.9,1.1L20.8,635.8z"/>
<path class="st5" d="M34.4,718.8h4.9l0.1,1.2h-3.7v2.1h2.9c0.1,1.1,0.1,1.1-0.9,1.1h-2v3.6h-1.3V718.8z"/>
<path class="st5" d="M27.2,609.2h3.3l0.1,1.3h-4.9v-7.9l1.5-0.1V609.2z"/>
<g>
	<text transform="matrix(1 0 0 1 17.47 485.12)" class="st5 st2 st6">m</text>
	<text transform="matrix(1 0 0 1 36.81 485.12)" class="st5 st2 st6">unicipal el</text>
	<text transform="matrix(1 0 0 1 139.97 485.12)" class="st5 st2 st6">e</text>
	<text transform="matrix(1 0 0 1 152.67 485.12)" class="st5 st2 st6">ctions 2019</text>
</g>
<path class="st1" d="M1488.8,488.9c0.3-0.1,0.4,0,0.6,0.2c0.3,0.5,0.6,1,0.9,1.4c0.5,0.7,0.7,1.5,0.7,2.3c0.1,2.9,0.3,5.9,0.4,8.8
	c0,0.4,0.1,0.8,0.1,1.2c0,0.1,0.1,0.1,0.2,0.2v3.3c-0.1,0.1-0.2,0.2-0.3,0.4c-0.7,1.9-1.4,3.8-2.2,5.7c-0.1,0.2-0.2,0.4-0.3,0.6
	c-0.1-0.2-0.1-0.4-0.1-0.6v-4.9C1488.8,501.4,1488.8,495.1,1488.8,488.9z"/>
<path class="st1" d="M1407.1,624.7c1.3-1.3,2.6-2.6,3.9-3.8l0.8,0.7c-0.1,0.1-0.1,0.3-0.2,0.5c0,2.8,0,5.5,0,8.3
	c0,0.1,0.1,0.3,0.2,0.4c-0.2,0.4-0.7,0.7-1.1,0.6l-1.4-0.2l0.2,1.2h-1.8l-0.5-0.2c0-0.2,0.1-0.4,0.1-0.7c0-2.1,0-4.2,0-6.4
	C1407.2,625,1407.2,624.8,1407.1,624.7z"/>
<path class="st1" d="M1462,462c0.2,0.4,0.4,0.9,0.6,1.4c0.1,0.3,0,0.6-0.1,0.8c-0.7,1-1,2.1-0.9,3.3c0,0.4-0.1,0.8-0.4,1.1
	c-0.7,0.8-1.3,1.7-1.9,2.6c-0.3,0.5-0.5,1.1-0.6,1.7c-0.1-0.2-0.1-0.4-0.2-0.6c0-1.5,0-3,0-4.6c0-0.2-0.2-0.4-0.3-0.6
	c0.1-0.6,0.1-1.2,0.3-1.8c0-0.3,0.2-0.7,0.4-1c0.6-0.6,1.3-1.1,2-1.6C1461.3,462.6,1461.6,462.3,1462,462L1462,462z"/>
<path class="st1" d="M1432.6,566.4c0.1,0,0.1-0.1,0.2-0.1c0.9-0.5,1.1-0.4,1.2,0.6c0,0.2,0.1,0.4,0.1,0.8c0.4-0.3,0.7-0.6,1-0.8
	c0.4-0.4,0.9-0.8,1.3-1.2c0.1-0.2,0.4-0.2,0.6-0.1c0,0,0,0,0.1,0.1c0.3,0.1,0.6,0.2,0.9,0.2v11.3c0,3.7,0,7.4,0,11.1
	c-0.8-0.2-1.6-0.4-2.4-0.7c-0.7-0.2-1.1-0.9-1.1-1.5c-0.1-1-1-1.8-2-1.8c-0.7,0-1.4,0.2-2,0.2c-0.3,0-0.6,0-0.8-0.2
	c-0.4-0.3-0.8-0.7-1.1-1.1c0.3-0.1,0.6-0.2,0.8-0.4c0.3-0.2,0.5-0.5,0.7-0.8c0.1-0.2,0.2-0.4,0.3-0.5c0.5-0.3,1-0.5,1.5-0.8
	c0.5-0.2,0.9-0.7,1-1.3c0.1-0.3,0-0.5-0.4-0.6C1432.6,574.6,1432.6,570.5,1432.6,566.4z"/>
<path class="st1" d="M1448.5,584.8l-2.4,1.8c-0.1,0.1-0.3,0.1-0.4,0.1c-0.8,0-1.7,0-2.5,0v-19.1c0-0.3-0.1-0.6-0.1-0.9
	c0.2-0.1,0.3-0.2,0.5-0.3c0.1,0,0.3-0.1,0.3,0c0.3,0.4,0.7,0.2,1,0s0.6-0.3,0.9-0.4c0.4-0.1,0.6-0.5,0.5-0.9c0-0.8-0.1-1.6-0.2-2.4
	s-0.1-0.8,0.6-0.9c0.5-0.1,0.9-0.2,1.4-0.3c0.2-0.1,0.5,0,0.6,0.3c0,0,0,0,0,0.1c0.4,0.8,0.4,1.7,0.1,2.5c-0.3,0.8-0.4,1.6-0.1,2.5
	c0,0.2-0.1,0.4-0.1,0.7L1448.5,584.8z"/>
<path class="st1" d="M1443.1,566.6c0.1,0.3,0.1,0.6,0.1,0.9v19.1l-4,0.4l-0.5,0.1c-0.1,1.1-0.1,1.1-0.7,1.1c0-3.7,0-7.4,0-11.1
	v-11.3c0.5-0.3,1.1-0.5,1.6-0.8c0.4-0.2,0.7-0.6,0.9-1c0.3-0.6,0.8-1,1.4-1.3c0,0.8,0,1.5,0,2.1c0.1,0.7,0.3,1.3,0.7,1.9
	L1443.1,566.6z"/>
<path class="st1" d="M1435.8,621.5c-0.3,1.4-0.5,2.8-0.8,4.3c-0.2,0.9-0.5,1.1-1.3,0.7c-0.3-0.2-0.7-0.3-1-0.5
	c0.1-0.2,0.1-0.5,0.1-0.7c0-8.7,0-17.5,0-26.2c0-0.2-0.1-0.5-0.1-0.7c0.5-0.5,0.9-1,1.4-1.5c0.2-0.1,0.5-0.1,0.7-0.1
	c0.3,0.1,0.6,0.3,0.8,0.4v16c0,2.6,0,5.1,0,7.7C1435.7,621.1,1435.8,621.3,1435.8,621.5z"/>
<path class="st1" d="M1452.2,547.4v0.6c-0.1,0.6-0.2,1.2-0.2,1.8c0,6.4,0,12.8,0,19.2c0,0.2-0.1,0.5-0.2,0.7c-0.5-0.1-1-0.1-1.6-0.2
	s-0.7-0.4-0.6-0.9c0.1-0.5,0-1-0.4-1.4c-0.7-0.8-0.8-1.9-0.3-2.8c0.3-0.6,0.3-1.2,0.2-1.8c-0.4-1.3-0.3-1.3-1.7-1.2
	c-0.5,0-0.9,0.2-1.4,0.2c0.1-1.1,0.2-2.3,0.3-3.4c0-0.5,0.1-1.1,0.3-1.6c0.1-0.3,0.3-0.6,0.4-0.8c0-0.1,0.1-0.2,0.1-0.3
	c0.1-0.2,0.2-0.3,0.3-0.4c0.2-0.3,0.6-0.5,0.7-0.8c0.4-1.2,0.6-2.5,1-3.7c0.1-0.3,0.2-0.7,0.3-1c0.1-0.3,0.2-0.5,0.3-0.8
	c0.2-1.2,1.1-2.2,2.3-2.7L1452.2,547.4z"/>
<path class="st1" d="M1432.7,598.3c0.1,0.2,0.1,0.5,0.1,0.7c0,8.7,0,17.5,0,26.2c0,0.2,0,0.5-0.1,0.7c-0.7-0.2-1.4-0.2-2.1,0
	c-0.2,0-0.4,0-0.6,0v-25.3c0.6-0.2,1.1-0.4,1.6-0.6c0.5-0.2,0.8-0.7,0.9-1.2C1432.4,598.6,1432.6,598.5,1432.7,598.3z"/>
<path class="st1" d="M1460.1,523c0.7,0.2,0.8,0.4,0.8,1.2c0,0.2,0.1,0.5,0.1,0.7c0.2-0.1,0.5-0.2,0.7-0.3c0.1-0.1,0.3-0.2,0.4-0.3
	c0.1,0.2,0.2,0.3,0.2,0.5s0.2,0.3,0.3,0.4c0.6,0.1,0.7,0.6,0.8,1.1c0,0.5,0,0.9-0.1,1.4c-0.1,0.3,0,0.6,0.3,0.9
	c0.9,0.9,1.8,1.9,2.8,2.8c0.1,0.1,0.2,0.3,0.4,0.5c-0.4,0.1-0.7,0.2-1,0.3s-0.5,0.1-0.7,0.1c-0.9,0-1.6,0.6-1.7,1.5
	c-0.2,0.5-0.3,1-0.6,1.5c-0.2,0.5-0.1,1.1,0.2,1.5c0.9,1.5,1.7,3,2.5,4.5c0.2,0.3,0.3,0.6,0.4,0.9l-6-0.4v-5.2
	C1460,532,1460.1,527.5,1460.1,523z"/>
<path class="st1" d="M1429.9,600.7v25.3c-1.1,0.1-2.1,0.2-3.2,0.3c-0.6,0.1-1.2,0.2-1.8,0.3c-0.2,0-0.4,0-0.6-0.1
	c-0.1,0-0.2-0.1-0.2-0.2s0.1-0.2,0.2-0.3s0.4-0.5,0.5-0.7s0.3-0.7,0.6-1c0.6-1,1.3-1.9,2-2.9c0.3-0.4,0.2-0.6-0.3-0.8
	c-0.8-0.2-0.8-0.3-0.3-0.9c0.3-0.4,0.3-0.7-0.3-1c0.2-0.4,0.3-0.8,0.5-1.2c0.1-0.2,0.2-0.4-0.1-0.7c-0.2-0.3-0.2-0.8,0.1-1
	c0,0,0.1-0.1,0.1-0.1c0.5-0.3,0.7-0.6,0.3-1.2c-0.3-0.5-0.2-1.1,0.2-1.5l0.2-0.2c0.7-0.7,0.7-0.7,0-1.5c0.1-0.2,0.2-0.4,0.2-0.7
	c0-3.2,0-6.4,0-9.6c0.5-0.2,1-0.4,1.6-0.5C1429.7,600.7,1429.8,600.7,1429.9,600.7z"/>
<path class="st1" d="M1454.5,545.3c0.8,0.1,1.4,0.7,1.5,1.5c0.1,0.9,0.7,1.6,1.5,1.9v15.9c0,0.3,0.1,0.5,0.1,0.8
	c-0.8,1.4-1.5,2.8-2.3,4.1c-0.2,0.3-0.4,0.5-0.7,0.6c0-0.3-0.1-0.5-0.1-0.8v-22.8C1454.4,546.2,1454.5,545.8,1454.5,545.3z"/>
<path class="st1" d="M1435.8,621.5c-0.1-0.2-0.2-0.4-0.2-0.6c0-2.6,0-5.1,0-7.7v-16c0.6,0.4,1.3,0.5,2.1,0.5c0.6,0,1.2,0,1.8,0.1
	c0.3,0,0.4,0.2,0.5,0.5c0.2,1,0.1,2-0.4,2.9c-0.7,1.8-1.1,3.6-1.2,5.5c-0.4,4-0.6,7.9-0.5,11.9c0,0.3-0.1,0.5-0.3,0.8
	C1437,620.1,1436.4,620.8,1435.8,621.5z"/>
<path class="st1" d="M1460.1,523c0,4.5,0,9,0,13.5v5.2c-0.4-0.1-0.8-0.2-1.2-0.4c-0.8-0.5-1.2-0.5-1.8,0.2c-0.4,0.4-0.8,0.8-1.2,1.2
	c0-0.3-0.1-0.5-0.1-0.8c0-0.9,0-1.8,0-2.7c0.3-0.2,0.4-0.6,0.2-0.9c0,0,0,0-0.1-0.1c-0.3-0.5-0.2-0.8,0.3-1.1s0.7-0.5,0.9-0.8
	c0.1-0.1,0.1-0.3,0.1-0.5c-0.1,0-0.3,0-0.4,0c-0.3,0.1-0.6,0.3-0.9,0.5c-0.5,0.3-0.5,0.3-0.8-0.2c-0.1-0.2-0.2-0.3-0.3-0.5
	s-0.3-0.6,0.1-0.9s0.3-0.5-0.1-0.6c0-0.1,0-0.1,0-0.1c0.7-1.2,1.7-2.3,2.9-3c0.5-0.2,1-0.3,1.5-0.2c0.6,0,0.7-0.1,0.4-0.7
	c0-0.2,0-0.5,0-0.8l-2.3,0.9c0-1.4-0.1-2.8-0.1-4.2c0-0.1-0.1-0.3-0.2-0.4l-0.1-0.4l0.3-0.8c0.3-0.1,0.3,0.2,0.3,0.3
	c0.1,0.5,0.2,0.9,0.8,1c0.2,0,0.5,0,0.7-0.1c-0.1-0.2,0-0.5-0.2-0.6c-0.4-0.3-0.7-0.8-0.8-1.3c0-0.1-0.3-0.2-0.4-0.4
	c-0.2-0.1-0.3-0.2-0.5-0.4c-0.1-0.2-0.1-0.4-0.1-0.6c0.2,0,0.3,0,0.5,0L1460.1,523z"/>
<path class="st1" d="M1423.3,601.1c0.7,0.6,0.6,1.4,0.8,2.2s0.3,1.5,0.6,2.2c0.1,0.4,0.4,0.7,0.8,0.8c0.4,0.1,0.4,0.3,0.2,0.6
	s-0.4,0.7-0.6,1c-0.2,0.4-0.3,0.8-0.5,1.2c0,0.2,0,0.3,0.1,0.5c0.1,0.1,0.3,0,0.5-0.1c0.1-0.1,0.2-0.1,0.3-0.2
	c0.3,0.2,0.4,0.4,0,0.6c-0.2,0.1-0.4,0.3-0.3,0.5s0.3,0.3,0.4,0.4c0.7,0.4,1.3,0.7,2,1.1c0.5,0.3,0.4,0.4,0,0.8
	c-0.3,0.3-0.5,0.6-0.7,0.9c-0.2,0.3-0.2,0.8,0,1.1c0.3,0.5,0.3,0.6-0.2,0.9c-0.4,0.3-0.6,0.9-0.3,1.3c0.1,0.3,0.1,0.6-0.1,0.9
	c-0.1,0.2-0.2,0.4-0.3,0.5c-0.2,0.6-0.2,0.7,0.3,0.8c-0.1,0.4-0.5,0.9-0.4,1.2s0.7,0.5,1.1,0.7c-0.2,0.3-0.4,0.6-0.6,0.9l-1.8,2.3
	c-0.1,0.1-0.1,0.2-0.2,0.3c-0.1,0.6-0.4,1.1-0.8,1.5c-0.2,0.2-0.3,0.5-0.7,0.5c0-7.6,0-15.1,0-22.7
	C1423.2,602.8,1423.3,601.9,1423.3,601.1z"/>
<path class="st1" d="M1427.3,584.6c0.1-0.1,0.3-0.1,0.4-0.3c0.1-0.1,0.1-0.3,0.1-0.4c0.3-0.6,0.6-0.6,1-0.2l0.7,0.7c0,0.3,0,0.7,0,1
	v14.9c-0.4,0.1-0.8,0.3-1.2,0.4c-0.2,0-0.4,0-0.6,0c-0.3-0.1-0.7-0.2-1.1-0.2c-0.7,0-0.9-0.4-0.6-1c0.4-0.9,0.4-1.2-0.4-1.9
	c-0.3-0.2-0.5-0.6-0.5-1c0-0.4-0.2-0.6-0.6-0.5c-1,0.2-1.2,0-0.8-1c0.1-0.4,0.4-0.6,0.8-0.5c0,0,0.1,0,0.1,0c0.6,0.1,0.8,0,0.9-0.6
	c0.1-1,0.2-2,0.2-3c0-1.7-0.1-3.3-0.1-5c0-0.1,0.2-0.3,0.3-0.4c0.3-0.2,0.6-0.2,0.9,0l0.9,0.8c0.4-0.4,0.4-1,0-1.4
	c-0.1-0.1-0.2-0.1-0.3-0.2L1427.3,584.6L1427.3,584.6z"/>
<path class="st1" d="M1488.8,488.9c0,6.2,0,12.5,0,18.7v4.9c0,0.2,0,0.4,0.1,0.6c0,0.1-0.1,0.1-0.1,0.2c-0.5,1-0.7,1-1.5,0.3
	c-0.4-0.4-0.9-0.8-1.3-1.2c0-0.3,0.1-0.6,0.1-0.9c0-4.9,0-9.7,0-14.6c0.2,0.1,0.4,0.2,0.6,0.2c0.1,0,0.3,0,0.4-0.1
	c0-0.1,0-0.3-0.1-0.3c-0.2-0.2-0.4-0.5-0.6-0.7c0-0.3,0.1-0.5,0.1-0.8c0-2,0-4.1,0-6.1L1488.8,488.9z"/>
<path class="st1" d="M1448.5,584.8v-17.3c0-0.2,0.1-0.4,0.1-0.7c0.1,0.2,0.2,0.4,0.4,0.6c0.3,0.4,0.5,0.9,0.4,1.4
	c-0.1,0.7,0.2,0.9,0.9,1c1.2,0.2,2.3,0.4,3.5,0.7c0.5,0.1,0.5,0.3,0.2,0.6c-0.5,0.6-1,1.1-1.5,1.7c-0.3,0.4-0.5,0.9-0.4,1.3
	c0.3,1.9,0.7,3.8,1.2,5.7c0.2,1.3,0.3,1.3-0.8,2C1451.2,582.8,1449.9,583.8,1448.5,584.8z"/>
<path class="st1" d="M1423.3,601.1c0,0.9-0.1,1.8-0.1,2.6c0,7.6,0,15.2,0,22.7l-2.4,0.1v-19.7c0-1.3,0-2.5,0-3.7
	c-0.1-0.2-0.2-0.5-0.3-0.7c0.1-0.2,0.2-0.3,0.2-0.5c0.3-0.8,1.1-1.3,1.9-1.3C1422.9,600.6,1423.1,600.9,1423.3,601.1z"/>
<path class="st1" d="M1428.3,581.2h-0.5c-0.7,0-0.7,0-0.8-0.7c0-0.1,0-0.2,0-0.2c-0.1-0.1-0.2-0.2-0.3-0.3c-0.1,0.1-0.3,0.2-0.3,0.3
	c-0.1,0.8-0.8,1.5-1.6,1.6c-0.2,0-0.5,0-0.7,0c0.1-0.2,0.2-0.4,0.4-0.6c0.4-0.5,0.5-0.9,0.3-1.1s-0.7,0-1.1,0.4
	c-0.8,0.9-2,1.4-3.2,1.3c-0.3,0-0.5-0.1-0.5-0.5c-0.1-1.3,0.2-1.5,1.6-1.4c0.7,0,1.3,0,2-0.1c0.1,0,0.3-0.2,0.4-0.3
	c-0.1-0.1-0.2-0.3-0.4-0.4c-0.2-0.1-0.5-0.1-0.7-0.1l-0.9-0.2v-0.1c0.1,0,0.2-0.1,0.3-0.1c0.1-0.1,0.2-0.2,0.4-0.3
	c-0.1-0.1-0.2-0.4-0.3-0.4c-0.4,0-0.8,0.1-1.2,0.3c-0.7,0.3-1.4,0.6-2.1,1c-0.2,0.1-0.4,0.1-0.5,0.2c-0.1-0.3-0.2-0.6,0.2-0.7
	c0.4,0,0.6-0.3,0.7-0.7c0.1-0.4-0.1-0.7-0.4-0.9l-0.1-0.1c0.2-0.3,0.5-0.6,0.7-0.9c0.9-0.7,1.8-1.4,2.7-2.1c0.3-0.1,0.6-0.2,0.9-0.2
	c1.5,0.1,3-0.3,4.3-1c0.4-0.2,0.6-0.6,0.7-1c0.1,0.2,0.1,0.4,0.2,0.5C1428.3,575.4,1428.4,578.3,1428.3,581.2z"/>
<path class="st1" d="M1420.6,602.4c0.1,0.2,0.2,0.4,0.3,0.7c0,1.3,0,2.5,0,3.7v19.7l-2.5,0.1v-15.7c0.3-0.1,0.4-0.4,0.4-0.7
	c0-0.6-0.2-1.3-0.6-1.8c-0.2-0.3-0.4-0.7-0.4-1.1c-0.1-1-0.2-2-0.3-3c0-0.4,0.2-0.5,0.5-0.4c0.3,0.1,0.6,0.3,0.8,0.4
	c0.2,0.1,0.4,0.3,0.6,0.4s0.5,0.2,0.6-0.3c0-0.5,0.1-0.9,0.2-1.4C1420.2,602.8,1420.4,602.6,1420.6,602.4z"/>
<path class="st1" d="M1454.5,545.3c0,0.4-0.1,0.8-0.1,1.3v22.8c0,0.3,0,0.5,0.1,0.8c-0.3,0-0.6,0-0.9-0.1c-0.6-0.1-1.2-0.3-1.8-0.5
	c0.1-0.2,0.1-0.4,0.2-0.7c0-6.4,0-12.8,0-19.2c0-0.6,0.1-1.2,0.2-1.8c0.1,0.2,0.1,0.4,0.2,0.6s0,0.4,0.1,0.5
	c0.1,0.2,0.3,0.3,0.5,0.3c0.1,0,0.3-0.2,0.3-0.4c-0.1-1.2,0.6-2.2,0.4-3.4c0-0.1,0.2-0.3,0.3-0.3
	C1454.1,545.3,1454.3,545.3,1454.5,545.3z"/>
<path class="st1" d="M1428.3,581.2c0-2.9,0-5.8,0-8.8c0-0.2-0.1-0.4-0.2-0.5c0.1-0.4-0.1-0.9-0.4-1.2c-0.1-0.2-0.1-0.5-0.1-0.7
	c0.3-0.8,0.7-1.5,1.1-2.3c0.1-0.1,0.2-0.2,0.3-0.2c1.2,0,2.3-0.3,3.2-1.1c0.1,0,0.1-0.1,0.2-0.1v12.4c-0.3,0.3-0.7,0.5-1.1,0.7
	c-0.3,0.2-0.6,0.3-1,0.3c-0.6,0-1.2,0.3-1.3,0.9c0,0.3-0.3,0.6-0.7,0.6C1428.4,581.2,1428.4,581.2,1428.3,581.2z"/>
<path class="st1" d="M1414.4,594.6c0.7,0,0.9,0.2,1,0.9c0,0.4,0.4,0.7,0.8,0.7c0.2,0,0.3,0.2,0.4,0.3c0.2,0.4,0.3,0.8,0.4,1.2
	c0.1,0.2,0.4,0.3,0.6,0.5v5.5c-0.3,0-0.4,0.1-0.4,0.5c0.1,1.2,0.2,2.5,0.4,3.7c0.1,0.4,0.3,0.7,0.5,1c0.7,0.8,0.6,1.5-0.3,2
	c-1,0.6-2.1,1.1-3.3,1.7c0-0.4,0-0.6,0-0.9c0.1-0.9,0.2-1.7,0.2-2.6c0-0.5-0.1-1-0.2-1.5c-0.1-0.4-0.2-0.9-0.2-1.3s-0.2-1-0.3-1.6
	c0.4-0.1,0.3-0.4,0.3-0.6c0-2.8,0-5.6,0-8.3C1414.3,595.3,1414.3,595,1414.4,594.6z"/>
<path class="st1" d="M1417.6,603.6v-5.5c0-0.3,0-0.6,0-0.8c-0.1-0.6-0.2-1.2-0.3-1.8c0-0.2-0.1-0.3-0.2-0.5c-0.2-0.3-0.4-0.6,0-0.9
	c0.1-0.1,0-0.4-0.1-0.4c-0.2,0-0.5,0-0.7,0.1c-0.2,0.1-0.2,0.3-0.4,0.5c-0.1-0.6-0.5-0.7-0.9-0.7c-0.5,0-0.9-0.4-0.8-0.9
	c0-0.1,0-0.1,0-0.2c0-0.1,0.3-0.3,0.3-0.2c0.6,0.3,1,0,1.5-0.3s0.6-0.5,0.9,0c0.1,0.1,0.3,0.1,0.4,0c0.2-0.1,0.3-0.2,0.4-0.4
	c0.5-1.1,1.2-2.2,2.1-3.1c0.2-0.3,0.4-0.5,0.7-0.7c0.4,0.1,0.3,0.4,0.3,0.7c0,4,0,7.9,0,11.9c0,0.3,0.1,0.6,0.1,0.9
	c-0.1,0.5-0.3,1-0.7,1.3c-0.2,0.2-0.2,0.7-0.3,1.1s-0.1,0.7-0.1,1L1417.6,603.6z"/>
<path class="st1" d="M1418.4,610.9v15.7c-1.1,0-2.1-0.2-3.1-0.7c0.4-0.1,0.6-0.6,0.5-1c0,0,0,0,0,0c-0.2-0.8-0.4-1.5-0.7-2.3
	c-0.1-0.2-0.1-0.3-0.2-0.5c-0.3-0.8-0.3-1.4,0.8-1.6c0.2,0,0.4-0.3,0.6-0.5c-0.2-0.2-0.3-0.4-0.5-0.6c-0.2-0.1-0.4-0.2-0.5-0.3
	s-0.4-0.4-0.1-0.7c0.2-0.3,0.1-0.6-0.1-0.8c-0.1,0-0.1-0.1-0.2-0.1c-0.4-0.2-0.5-0.4-0.2-0.7c0.2-0.2,0.2-0.5,0.1-0.7
	c-0.3-0.5-0.8-0.9-1.4-1c-0.7-0.1-0.8-0.3-0.4-0.9c0.4-0.7,1.1-1.3,1.8-1.6C1416.1,612.1,1417.2,611.4,1418.4,610.9z"/>
<path class="st1" d="M1429.5,600.4v-14.9c0-0.3,0-0.7,0-1c0.6,0.3,1.2,0,1.7,0s1,0,1.5-0.1v12.2c0,0.3,0,0.5,0.1,0.8
	c-0.3,0.5-0.5,1-0.8,1.5c-0.3,0.6-0.8,1-1.5,1.2C1430.3,600.3,1429.9,600.4,1429.5,600.4z"/>
<path class="st1" d="M1486.2,496.9c0,4.9,0,9.8,0,14.6c0,0.3-0.1,0.6-0.1,0.9l-3.1-2c0.1-0.2,0.2-0.5,0.2-0.7c0-1.9,0-3.9,0-5.8
	s-0.1-3.6-0.1-5.4h0.6c-0.1-0.4-0.3-0.8-0.7-0.9c-0.3-0.2-0.7-0.4-1-0.6c-0.3-0.2-0.5-0.5-0.6-0.9c-0.1-0.5-0.4-0.2-0.8-0.3
	c0.7-0.3,1.6-0.5,2.4-0.4C1484.2,495.5,1485.3,496,1486.2,496.9z"/>
<path class="st1" d="M1460.6,512.5c0.5,0,0.6,0.3,0.8,0.6l0.9,1.5c-0.6,0.3-0.4,0.9-0.2,1.5c0.2,0.5,0.1,1.1-0.2,1.5
	c-0.1,0.3-0.1,0.5,0,0.8c0.1,0.2,0.2,0.4,0.4,0.6c0.7,0.8,1.1,1.7,1.3,2.7c0.1,0.5,0.2,1.2,0.9,1.3v5.9l-0.1-0.1
	c-0.7-0.4-1-1.3-0.7-2c0.1-0.4,0-0.7-0.1-1.1c0-0.2-0.2-0.5-0.3-0.6c-0.4-0.2-0.7-0.5-0.8-0.9c-0.2-0.4-0.5-0.2-0.8,0
	c-0.2,0.2-0.3,0.4-0.4,0.6l-0.2-0.2c0-0.4,0-0.7-0.1-1.1c-0.1-0.6-0.3-0.7-1-0.8c-0.3,0-0.6-0.1-0.9-0.2c0.6-0.8,0.5-1.2-0.3-2.2
	c-0.1-0.2-0.3-0.3-0.5-0.4c-0.7-0.1-1.1-0.8-1-1.4c0-0.1-0.2-0.3-0.2-0.4s-0.1-0.6-0.2-0.8s0.2-0.5,0.4-0.6s0.4-0.4,0-0.6
	c-0.2-0.1-0.3-0.8-0.1-1c0.2-0.2,0.4-0.2,0.6,0c0,0,0.1,0.1,0.1,0.1c0.2,0.4,0.4,0.8,0.6,1.2c0.1,0.1,0,0.3,0.1,0.4s0.2,0.3,0.3,0.3
	c0.2,0,0.3-0.1,0.3-0.3c0.1-0.9,0.9-1.5,1.2-2.3c0,0,0-0.1,0.1-0.1c0.4-0.4,0.4-0.5-0.2-0.7l-0.1-0.8L1460.6,512.5z"/>
<path class="st1" d="M1412.9,617.6c-0.4,0.3-0.8,0.6-1.2,0.9c-0.8,0.8-1.6,1.7-2.4,2.6c0-1,0-1.9,0-2.8s-0.1-1.8-0.1-2.7
	c0.4,0,0.4-0.3,0.2-0.5c-0.3-0.4-0.8-0.8-1.1-1.2l-0.8-0.9l0.1-0.1l0.6,0.3c0.1-0.5,0.5-0.6,0.9-0.7c0.2,0,0.5-0.1,0.7-0.2
	c0.1-0.1,0.2-0.2,0.3-0.4c-0.1-0.1-0.3-0.1-0.4-0.2c-0.4,0-0.8,0.1-1.2,0.1h-0.3l0.4-0.8h-1c-0.3,0-0.4-0.2-0.3-0.4s0.4-0.4,0.6-0.6
	s0.2-0.4,0.2-0.5c-0.3-0.3-0.2-0.7-0.2-1s0.1-0.7,0-1.1c0-0.1-0.1-0.3-0.2-0.4c-0.1,0.1-0.3,0.2-0.3,0.3c-0.2,0.5-0.3,1.1-0.6,1.7
	c-0.1,0.6-0.6,1-1.2,1.1c0.2-0.3,0.2-0.5,0.3-0.7c0.3-0.5,0.5-0.9,0.8-1.4c0-0.1,0.2-0.2,0.2-0.3c0-0.2,0-0.4,0-0.6
	c-0.2,0-0.4,0-0.6,0.1c-0.2,0.3-0.5,0.7-0.7,1c-0.1,0.2-0.3,0.4-0.5,0.6c-0.1,0.1-0.3,0.1-0.4,0.1c0-0.2,0-0.3,0.1-0.5
	c0.2-0.3,0.4-0.5,0.6-0.8c0.3-0.3,0.3-0.7,0.2-1.1c-0.2-0.3,0-0.5,0.3-0.6c0.8-0.4,1.4,0.1,2.1,0.5l1,0.6c-0.3,0.3-0.3,0.8,0,1.1
	c0,0.1-0.1,0.3-0.2,0.5c-0.4,0.6-0.4,1,0.4,1.2c1,0.4,2.2,0.3,3.1-0.3c0.4,0.2,0.5,0.6,0.4,1c0,0.3,0,0.7,0,1v2.1
	c-0.2,0.4-0.4,0.8,0,1.3L1412.9,617.6z"/>
<path class="st1" d="M1457.6,565.4c-0.1-0.3-0.1-0.5-0.1-0.8v-15.9c1.4,0.5,2.6,1.2,3.7,2.1c-0.1,0.2-0.2,0.4-0.2,0.6
	c0,2,0,4.1,0,6.1c0,0.2,0.1,0.4,0.2,0.5c-1.1,2.3-2.3,4.7-3.4,7C1457.7,565.2,1457.7,565.3,1457.6,565.4z"/>
<path class="st1" d="M1414.4,594.6c0,0.4-0.1,0.8-0.1,1.1c0,2.8,0,5.6,0,8.3c0,0.2,0.1,0.5-0.3,0.6c-0.1-0.1-0.2-0.3-0.4-0.4
	c-0.6-0.1-0.7-0.5-0.7-1s-0.3-0.7-0.8-0.7c-0.3-0.1-0.6-0.2-0.9-0.3c-0.2-0.1-0.3-0.2-0.5-0.2c-0.5-0.1-1-0.5-1.2-1
	c-0.3-0.4-0.5-0.7-0.7-1.1c-0.1-0.3-0.1-0.6,0.1-0.9c0.1-0.3,0.5-0.2,0.6,0.2c0.1,0.3,0.1,0.7,0.1,1c0.4,0,0.9-0.2,1.1-0.5
	c0.2-0.2,0.3-0.4,0-0.7c-0.2-0.3-0.4-0.6-0.5-0.9c-0.2-0.3-0.3-0.5-0.5-0.9l-0.5,0.9h-0.2c0-0.1-0.1-0.2-0.1-0.3
	c0.2-0.9,0.3-1.8,0.5-2.7c0.1-0.5,0.5-1,1-1.2c0.6-0.4,1.2-0.8,1.8-1.3c0.4,0.5,0.8,0.9,1.2,1.5
	C1413.8,594.3,1413.9,594.6,1414.4,594.6z"/>
<path class="st1" d="M1427,558.9c0.3-0.3,0.2-0.7-0.1-1c0,0,0,0,0,0c-0.3-0.4-0.6-0.8-0.8-1.2c-0.1-0.4-0.5-0.6-0.9-0.5
	c0,0-0.1,0-0.1,0c-0.7,0.2-0.7,0.2-0.7-0.5c0-0.3-0.1-0.5-0.4-0.6c-0.2,0-0.3-0.2-0.4-0.4l0.2-0.1c0.3,0.3,0.8,0.4,1.2,0.2
	c0.1,0,0.2,0.1,0.3,0.2c0.5,0.6,1.2,0.9,2,1c0.8,0.1,1.7,0.1,2.5,0.2c0.2,0,0.5,0.2,0.5,0.3s-0.1,0.4-0.2,0.6c0,0.2,0,0.4,0,0.6
	c0.1,0.2,0.2,0.4,0.3,0.5c0.1,0.4,0.4,0.7,0.8,0.9c0.4,0.2,0.9,0.4,1.4,0.4c0.4,0,0.4,0.2,0.3,0.6c-0.1,0.3,0,0.6,0.1,0.8
	c0.2,0.3,0.4,0.7,0.6,1c-0.1,0.2-0.1,0.4-0.1,0.6c0,1-0.1,2-0.1,3c-0.7,0.4-1.3,0.8-2,1.1c-0.5,0.3-1.1,0.4-1.6,0.6V561
	c0.3,0,0.6,0,0.9,0c0.1,0,0.3-0.1,0.4-0.2c-0.1-0.2-0.2-0.4-0.3-0.4c-0.5-0.1-0.9-0.2-1.4-0.2c-0.6,0-1.3-0.2-1.8-0.6l0.2-0.6
	l-0.6-0.1C1427.2,558.9,1427.1,558.9,1427,558.9L1427,558.9z"/>
<path class="st1" d="M1441.6,562.7c-0.6,0.3-1.2,0.8-1.5,1.5c-0.2,0.4-0.7,0.5-1.1,0.8v-14.3c0.8,0,1,0.3,0.8,1c0,0.2,0,0.3,0,0.5
	c0.2,0,0.3-0.1,0.5-0.1s0.1-0.1,0.1-0.1c0.8,0,0.6-0.6,0.6-1c0-0.5-0.4-0.9-0.9-1c-0.7-0.1-1.4-0.3-2-0.8c-0.2-0.2-0.6-0.1-0.8-0.3
	s-0.3-0.3-0.5-0.4c0.2-0.2,0.3-0.4,0.5-0.5c0.6-0.1,1.1,0.1,1.5,0.5c0.3,0.4,0.9,0.4,1.3,0.2c0.4-0.2,0.7-0.4,1.2-0.6l0.4,0.9
	c-0.1,0.1-0.1,0.3-0.1,0.4C1441.5,553.9,1441.5,558.3,1441.6,562.7z"/>
<path class="st1" d="M1432.9,597.5c0-0.3-0.1-0.5-0.1-0.8v-12.3c0.8,0.2,1.4,1,1.6,1.8c0,0.7,0.4,1.3,1.1,1.5c0.3,0.1,0.7,0.3,1,0.4
	c0,2.8,0,5.6,0,8.4c0,0.2,0,0.5-0.1,0.7l-1.3-0.7c-0.4-0.2-0.9-0.2-1.2,0.1C1433.5,597,1433.2,597.2,1432.9,597.5z"/>
<path class="st1" d="M1467,519.9l1.5,1.2c0.2-0.2,0.2-0.6,0-0.8c0,0,0,0-0.1-0.1c-0.3-0.2-0.4-0.7-0.2-1c0.2-0.3,0.1-0.6-0.3-0.6
	c-0.2,0-0.5-0.1-0.7-0.2c-0.7-0.4-1.3-0.8-2-1.2c-0.1-0.1-0.1-0.2-0.1-0.3c0-0.2,0.1-0.4,0.2-0.5c0.6-0.9,0.1-1.8-0.1-2.6
	c0-0.2-0.2-0.3-0.4-0.5c-0.6-0.4-0.6-0.5,0-1.1c0.8,1.6,1.7,3.2,2.8,4.6l0.7-1.5c-0.1-0.1-0.2-0.1-0.2-0.1c-0.7,0.2-1.1-0.3-1.3-0.9
	s-0.4-0.9-0.6-1.4c-0.1-0.2-0.1-0.4-0.1-0.6c0.3,0.3,0.4,1,1,0.5c0.3,0.6,0.5,1.1,0.8,1.7c0.1,0.4,0.5,0.6,0.9,0.5c0,0,0,0,0.1,0
	c0.1,0,0.2-0.1,0.3-0.2c0-0.1-0.1-0.2-0.2-0.3c-0.3-0.3-0.5-0.7-0.7-1c0.4-0.3,0.7-0.6,1-0.9c0.2-0.3,0.1-0.5-0.3-0.5h-1.5
	c-0.7,0-0.8-0.2-0.5-0.9c0.2-0.4,0.4-0.7,0.6-1.1c0.2-0.3,0.4-0.6,0.6-0.9c0.5,0.4,0.7,1.2,1.5,1.3c0,5.3,0,10.6,0,15.8
	c0,0.2-0.1,0.4-0.2,0.6c-0.1-0.2-0.2-0.4-0.3-0.7c-0.2-0.5-0.4-0.8-1-0.7c-0.1,0-0.3-0.2-0.4-0.3c-0.2-0.2-0.3-0.5-0.5-0.8
	c0-0.3,0.1-0.5,0.1-0.8C1467,522.3,1467,521.1,1467,519.9z"/>
<path class="st1" d="M1471.5,507.1c0.3,0.1,0.7,0.2,1,0.2c0.1,0,0.3-0.1,0.3-0.3s-0.1-0.2-0.2-0.3l-1.8-1.6c0.3,0,0.3-0.3,0.3-0.5
	c0-2.4,0-4.7,0-7.1c0-0.2,0-0.4-0.1-0.5c0.3,0,0.5,0.1,0.8,0.2c0.4,0.2,0.8,0.5,1.3,0.6c0.6,0.2,0.7,0.4,0.4,1
	c-0.2,0.3-0.4,0.5-0.5,0.8c0,0.1,0,0.3,0,0.5c0.2,0,0.3,0,0.5,0c0.5-0.2,1.1-0.5,1.6-0.7c0.1,0.2,0.1,0.5,0.1,0.7c0,2.4,0,4.8,0,7.2
	c0,0.3-0.1,0.7-0.2,1c-0.2-0.4-0.6-0.6-1-0.5c-0.6,0-1.3-0.2-1.7,0.5c0,0.1-0.2,0-0.3,0c-0.2-0.1-0.4-0.2-0.5-0.3L1471.5,507.1z"/>
<path class="st1" d="M1472.7,516.3c-1.2,1-1.2,2.5-1.6,3.8s-0.7,2.8-1,4.2c0-0.2-0.1-0.3-0.1-0.5c0-4.1,0-8.2,0-12.2
	c0-0.2,0.1-0.4,0.1-0.5l0,0l0.6,0.1l0.1-0.8c0.2,0,0.5,0,0.7,0c0.2-0.1,0.4-0.1,0.5-0.3c-0.1-0.1-0.3-0.4-0.4-0.4
	c-0.6-0.1-1.3-0.1-1.9-0.1c-0.5,0-0.9-0.3-1.1-0.7c-0.2-0.4-0.6-0.7-1-0.6c-0.4,0-0.8,0.3-0.8,0.7c0,0.1-0.1,0.2-0.1,0.3
	c-0.2,0.2-0.6,0.7-0.7,0.6c-0.4-0.2-0.6-0.4-0.8-0.8c-0.2-0.4-0.2-0.6-0.6-0.8c0,0,0-0.1-0.1-0.3l0.6,0.3c0.4,0.2,0.6,0.1,0.7-0.4
	c0-0.2,0.1-0.5,0.1-0.7h0.1c0,0.2,0.1,0.3,0.2,0.5c0.2,0.2,0.3,0.3,0.5,0.5c0.1-0.2,0.1-0.4,0.2-0.6c-0.1-0.3-0.1-0.6-0.2-0.9
	c0.3-0.1,0.6-0.2,0.3-0.6l0.1-0.1c0.3,0.2,0.5,0.4,0.8,0.6c0.3,0.2,0.5,0.4,0.8,0.6c0.5,0.2,0.8-0.1,0.7-0.6
	c0.5,0.2,0.7,0.7,0.7,1.2c0,0.5,0.2,0.8,0.8,0.9c0.2,0,0.4,0.2,0.6,0.3c0.2,0.1,0.4,0.1,0.7,0.1c0.1,0.2,0.2,0.4,0.2,0.7
	c0,2,0,4.1,0,6.1C1472.5,515.9,1472.6,516.1,1472.7,516.3z"/>
<path class="st1" d="M1420.8,601c0-0.3-0.1-0.6-0.1-0.9c0-4,0-7.9,0-11.9c0-0.3,0.1-0.6-0.3-0.7c0.9-1.1,2.1-2,3.3-2.6
	c-0.5,0.7-0.7,1.6-0.6,2.5c0,0.1,0,0.2,0,0.3c0,2.7,0.1,5.4,0.1,8c0,1.3,0,2.7-0.1,4c0,0.1-0.1,0.3-0.1,0.4L1420.8,601z"/>
<path class="st1" d="M1439,550.7V565c-0.4,0.2-0.7,0.4-1.1,0.5c-0.2,0-0.5,0-0.7-0.2c-0.1-0.2-0.1-0.5,0.1-0.7
	c0.3-0.6,0.3-0.8-0.3-1c-0.3-0.1-0.5-0.5-0.4-0.8c0-0.1,0.1-0.1,0.1-0.2c0.1-0.2,0.3-0.3,0.4-0.5c0.3-0.5,0.2-0.7-0.3-0.9
	c-0.1,0-0.1,0-0.2-0.1c0-0.1,0.1-0.2,0.2-0.4c0.2-0.3,0.2-0.6,0-0.9c-0.4-0.5-0.5-1.2-0.4-1.8c0-1.2,0-2.4,0-3.6
	c-0.1-1,0.2-2,0.7-2.8c0.4-0.4,0.5-1,0.3-1.5c0-0.1,0-0.2,0-0.4L1439,550.7z"/>
<path class="st1" d="M1409.2,615.6c0,0.9,0.1,1.8,0.1,2.7s0,1.9,0,2.8l-0.3,0.4h-0.1c0-0.2,0-0.3,0-0.4c0-0.4-0.3-0.8-0.7-0.9
	c0,0,0,0-0.1,0c-0.7,0-1.3-0.5-1.4-1.1c-0.1-0.4-0.4-0.3-0.6-0.1s-0.4,0.3-0.6,0s-0.6-0.4-0.3-0.9c0.1-0.2,0.2-0.4,0.2-0.5
	c0.1-0.4,0-0.6-0.4-0.8c0.3-0.3,0.3-0.6,0.1-0.9c-0.4-0.8-0.8-1.5-1.3-2.3c-0.1-0.3-0.2-0.3-0.4-0.2l0,0c0.1-0.3,0-0.3-0.3-0.3
	c-0.5,0.1-0.8,0.5-0.9,0.9c0,0.4-0.2,0.5-0.6,0.5c-0.2,0-0.4,0.1-0.6,0.2l-0.5,0.2l-0.1-0.1c0.1-0.2,0.3-0.4,0.4-0.5
	c0.5-0.5,1.1-0.9,1.6-1.3c0.6-0.4,1-1.1,1.1-1.8c0-0.2-0.1-0.3-0.1-0.4c-0.2,0.1-0.4,0.1-0.5,0.2c-0.3,0.3-0.5,0.7-0.9,1.1
	c0.1-1.3,0.2-2.5,0.3-3.7c0.1-0.2,0.2-0.4,0.3-0.6c0.2,0.2,0.4,0.4,0.4,0.6c0.1,0.9,0.5,1.8,1.2,2.4c0.4,0.5,0.6,1.1,0.6,1.7
	c0,0.9,0.1,1.8,0.5,2.6c0.1,0.2,0.2,0.4,0.3,0.5c0.2,0.1,0.4,0.2,0.6,0.3c0-0.2,0-0.4,0-0.6c-0.2-0.6-0.4-1.1-0.7-1.7
	c-0.1-0.2-0.1-0.5-0.2-0.9c0.6,0.2,1.1,0,1.5,0.5c-0.6,0.5-0.5,1.1-0.4,1.7c0,0.2,0.2,0.3,0.3,0.4c0.1-0.1,0.2-0.3,0.2-0.5
	c0-0.2,0-0.5,0-0.7L1409.2,615.6z"/>
<path class="st1" d="M1403.6,630.6c-0.5-0.2-1.1,0-1.5,0.4c-0.1,0.1-0.3,0.2-0.4,0.3c-0.2,0.2-0.5,0.2-0.7,0
	c-0.2-0.1-0.5-0.2-0.7-0.2c-0.4,0-0.6-0.2-0.6-0.5s0-0.8-0.1-1.1c0-0.2-0.1-0.4-0.2-0.6l-1,0.8c-0.7-0.4-1-1.2-0.9-2
	c0.1-0.5-0.2-0.7-0.7-0.7c-0.4,0-0.7,0-1.2-0.1c0.2-0.5,0.4-0.8,0.6-1.2c0.2-0.3,0.2-0.7,0-1c-0.2-0.2-0.2-0.6,0.1-0.8
	c0,0,0.1-0.1,0.1-0.1c0.1-0.1,0.3-0.2,0.4-0.3c0.2-0.1,0.5-0.2,0.6-0.1c0.2,0.2,0.3,0.4,0.3,0.7c-0.2,0.4-0.4,0.8-0.7,1.2
	c-0.1,0.1-0.2,0.2-0.3,0.3c-0.2,0.3-0.1,0.5,0.3,0.5c0.2,0,0.5,0.1,0.7,0.2c0.3,0.2,0.4-0.1,0.5-0.3c0.1-0.3,0.2-0.6,0.3-0.9
	c0.9,0.3,1.1,0.2,1.3-0.4l-0.7-0.2c0.2-1.1,0.5-2.2,1.7-2.7c0.3-0.1,0.4-0.1,0.5,0.2c0.2,0.5,0.4,1,0.6,1.5c0,0.3,0,0.6-0.2,0.8
	c-0.2,0.3-0.4,0.5-0.6,0.8c-0.1,0.1-0.1,0.3,0,0.5c0.1,0.1,0.3,0,0.5,0s0.3,0,0.5-0.1c0,0.2,0,0.4-0.1,0.5c-0.6,0.5-1.2,0.9-1.9,1.3
	c-0.4,0.2-0.9,0.1-1.2-0.2c-0.2-0.4-0.7-0.6-1.1-0.5c0.1,0.7,0.6,1.2,1.3,1.5c0.8,0.3,0.9,0.9,1,1.5c0,0.3,0,0.8,0.4,0.7
	s0.3-0.5,0.2-0.8c-0.1-0.4-0.2-0.7-0.3-1.1c-0.1-0.3-0.1-0.4,0.2-0.5c0.7-0.2,1.4-0.5,1.9-1c0.4-0.3,0.8-0.5,1.2,0L1403.6,630.6z"/>
<path class="st1" d="M1444.6,537.9c0.1-0.2,0.2-0.3,0.2-0.5c0.1-1.1,0.8-1.4,1.7-1.6c0.2,0,0.4-0.1,0.6-0.3c0.1-0.2,0.2-0.4,0.2-0.6
	c-0.2,0-0.5-0.2-0.6-0.1c-0.5,0.4-1.3,0.4-1.9,0c-0.4-0.3-0.9-0.3-1.3-0.1c-0.8,0.4-1.4,0.1-2-0.5c2-1.5,3.5-3.7,6-4.6
	c0.3,0.4,0.6,0.8,0.9,1.2c0.1,0.2,0,0.4,0,0.7c-0.2-0.1-0.4-0.2-0.6-0.3c-0.2-0.2-0.4-0.5-0.6-0.8s-0.3-0.1-0.5-0.2
	c-0.1,0.2-0.2,0.4-0.1,0.6c0.2,0.4,0.4,0.8,0.7,1.1c0.1,0.1,0.1,0.2,0.3,0.4l-2,1.3c0.1,0.4,0.4,0.6,0.8,0.5c0.1,0,0.2-0.1,0.3-0.1
	c0.5-0.3,0.9-0.6,1.4-1c0.3-0.2,0.6-0.5,0.9-0.7l0.1,0.1c-0.3,0.3-0.6,0.6-0.9,0.9c-0.5,0.3-0.7,0.9-0.4,1.5
	c0.1,0.3,0.1,0.6,0.2,0.9c0.1,0.5,0.2,1,0.7,1.2c0.3,0.1,0.5,0.5,0.4,0.9c-0.1,0.5-0.4,0.9-0.9,1c-0.5,0.2-0.8,0.5-1,1
	c0,0.9-0.7,1.6-1.6,1.6c-0.1,0-0.2,0-0.4,0h-0.3c0-1,0-2,0-3C1444.7,538.3,1444.6,538.1,1444.6,537.9z"/>
<path class="st1" d="M1409.3,605.7c0.2,0.3,0.5,0.5,0.7,0.8s0.4,0.7,1,0.6c-0.1-0.3-0.2-0.5-0.3-0.8s-0.2-0.4,0-0.6
	c0.1,0,0-0.4-0.1-0.5c-0.2-0.1-0.5-0.2-0.7-0.2c-0.5,0-0.9-0.4-0.9-0.9c0,0,0-0.1,0-0.1c0.1-0.4-0.1-0.9-0.4-1.2
	c-0.4-0.5-0.8-1-1.1-1.5c0,0,0-0.1,0-0.1c0.3-0.3,0.6-0.6,0.9-0.8c0.2-0.2,0.5,0,0.6,0.3s0.3,0.6,0.4,0.8c0.2,0.4,0.6,0.8,1.1,0.9
	c0.2,0,0.3,0.1,0.4,0.2c0.4,0.2,0.7,0.3,1.1,0.4c0.4,0.1,0.6,0.2,0.6,0.6c0,0.5,0.3,1,0.8,1.2c0.3,0.1,0.4,0.6,0.5,1
	c0.1,0.9,0.2,1.7,0.5,2.6c0.3,0.8,0,1.1-0.8,1.1c-0.6,0-1.2,0.2-1.8,0.5c-0.9,0.6-2.1,0.4-2.8-0.4c0.6-0.9,0.6-0.9,0.2-1.6
	c0.2-0.3,0.5-0.5,0.1-0.9L1409.3,605.7z"/>
<path class="st1" d="M1483.1,498.5c0,1.8,0.1,3.6,0.1,5.4s0,3.9,0,5.8c0,0.2-0.1,0.5-0.2,0.7l-2.2-1.2c0.1-0.2,0.2-0.4,0.2-0.6
	c0-1.5,0-3,0-4.5c0-0.3-0.1-0.5-0.2-0.7c0.6-0.2,0.7-0.4,0.3-0.9c-0.5-0.6-1-1.1-1.5-1.6c-0.2-0.2-0.3-0.4-0.4-0.6
	c-0.1-0.8-0.1-1.6-0.1-2.5c0-0.1,0-0.3,0-0.4c0.1-0.7,0.7-0.9,1.2-0.5C1481.3,497.4,1482.2,497.9,1483.1,498.5z"/>
<path class="st1" d="M1441.6,562.7c0-4.4,0-8.7,0-13.1c0-0.1,0.1-0.3,0.1-0.4c0.1,0.5,0.5,0.9,1,1.1c0.4,0.3,0.8,0.6,1.2,0.9
	c0,0.3,0,0.5,0,0.8v14c-0.2,0.1-0.5,0.2-0.7,0.3c-0.3,0.2-0.4,0.1-0.6-0.2c-0.4-0.8-0.5-1.7-0.4-2.6v-0.2
	C1442.3,562.6,1442.2,562.6,1441.6,562.7z"/>
<path class="st1" d="M1465.5,522.7h-0.3c-1,0-1.1,0.1-1.3-0.9c-0.3-1.2-0.8-2.3-1.6-3.3c-0.2-0.2-0.3-0.5-0.1-0.8c0,0,0-0.1,0.1-0.1
	c0.4-0.5,0.4-1.1,0.2-1.6c-0.2-0.4-0.3-0.8,0.2-1.2c0.1,0,0.1-0.4,0-0.5c-0.3-0.5-0.7-0.9-0.9-1.3c-0.2-0.3-0.3-0.6-0.8-0.7
	c-0.2-0.1-0.3-0.2-0.3-0.4c-0.1-0.5-0.3-0.9-0.8-1c0,0-0.1-0.1-0.2-0.3c0.7,0,0.8-0.5,1.2-0.8c0.5-0.3,0.7-0.9,0.5-1.4
	c0-0.6-0.2-1.1-0.6-1.5c-0.1-0.2-0.2-0.4-0.1-0.6c0.1-0.2,0.2-0.4,0.3-0.6c0.2-0.3,0.2-0.6-0.2-0.8c-0.1,0-0.2-0.3-0.2-0.4
	c0-0.2-0.1-0.4-0.1-0.6c-0.2-0.4,0-0.5,0.4-0.5c0.8-0.1,1.1,0.3,1.1,1.1c0,0.3-0.1,0.6,0.4,0.6c-0.2,0.2-0.4,0.4-0.5,0.6
	s-0.3,0.6,0,0.7c0.2,0.1,0.5,0,0.7-0.1c0.2-0.1,0.3-0.3,0.4-0.4h0.2c0,0.5,0,1-0.1,1.4c-0.1,0.8-0.2,1.5-0.4,2.3
	c-0.1,0.5-0.3,1-0.4,1.4c-0.1,0.3-0.2,0.5,0.2,0.8c0.5,0.4,0.9,0.9,1.3,1.5c0.2,0.2,0.2,0.5,0.4,0.7c0.6,0.7,0.7,1.7,0.2,2.5
	c-0.3,0.7-0.2,1,0.5,1.3c0.4,0.2,0.8,0.5,1.1,0.8L1465.5,522.7z"/>
<path class="st18" d="M1463.8,542.1c0.8,0.1,1.5,0.1,2.3,0.2c0.1,0,0.3,0.1,0.4,0.3c0.3,0.6,0.7,1.2,1,1.9c0.1,0.2,0.1,0.3,0.1,0.5
	c0,1.8-0.1,3.5-0.1,5.3c-0.1,0.8-0.7,1.4-1.4,1.6c-0.7,0-1.4-0.1-2.1-0.1C1463.8,548.5,1463.8,545.3,1463.8,542.1z"/>
<path class="st1" d="M1453.1,489.2l1.3-0.1l0,0c0.1,0.4,0.5,0.7,0.8,0.5c0.1-0.1,0.2-0.3,0.1-0.4c-0.2-0.3-0.4-0.5-0.7-0.6
	c-0.6-0.2-1-0.7-1.1-1.3c-0.1-0.3-0.2-0.6-0.4-0.8s0-0.7,0.4-0.8c0.1,0,0.3,0,0.4-0.1c0.4-0.4,0.8-0.2,1.1,0s0.6,0.5,1,0.8
	c0.1,0.1,0.3,0.1,0.5,0.2c0-0.1,0-0.3,0-0.5c-0.3-0.9-1.1-1.5-2.1-1.5h-0.3c-0.6,0-1-0.1-0.7-1c0.1-0.4,0-0.8-0.1-1.2
	c-0.1-0.3-0.2-0.5,0-0.7l0.8,0.6l0.1-0.5c0.5,0.1,1.1,0.2,1.6,0.4c0.1,0.1,0.3,0.2,0.3,0.4c0.1,0.8,0.2,1.5,0.3,2.3
	c0,0.2,0.1,0.4,0.1,0.6c0,0.3,0.3,0.5,0.6,0.5c0.3,0,0.5,0.2,0.5,0.5c-0.1,0.6-0.2,1.2-0.4,1.7c-0.2,0.2-0.4,0.4-0.7,0.4
	c-0.7,0.1-1,0.4-0.7,1.1s0.2,1-0.5,1.6c-0.1,0.2-0.2,0.5-0.1,0.7c0.1,0.4,0,0.5-0.4,0.5s-1,0.1-1.5,0.1c-0.3,0-0.5,0.1-0.6-0.3
	c0-0.2-0.3-0.3-0.5-0.4c-0.7-0.2-0.8-0.8-1-1.4c-0.1-0.3,0.1-0.3,0.3-0.3c0.4,0.1,0.8-0.1,0.9-0.4c0-0.1,0-0.2,0-0.2l0.8,0.5
	l0.1-0.1L1453.1,489.2L1453.1,489.2z"/>
<path class="st1" d="M1443.8,566v-14c0-0.3,0-0.5,0-0.8c0.3,0.2,0.7,0.3,1,0.5c0.2,0.2,0.4,0.4,0.5,0.7c0.3,0.6,0.5,1.3,0.8,1.9
	c0.3,1,0.4,2,0.2,3c-0.4,2.2-0.5,4.4-0.2,6.6c0,0.2,0,0.5,0,0.7c0,0.9,0,0.9-0.8,1.3c-0.3,0.1-0.5,0.3-0.8,0.4L1443.8,566z"/>
<path class="st1" d="M1429.8,561v6.3c-0.6,0.1-1.2,0-1.7-0.4c-0.7-0.4-1.5-0.8-2.3-1c-0.8-0.3-1.6-0.7-2.3-1.2
	c-0.6-0.3-1.2-0.7-1.7-1.2l1.9,0.4c0.3,0.9,0.4,0.9,1.4,1c0.5,0,0.9,0.1,1.4,0.2c0.1,0,0.3,0,0.4-0.1c0-0.1,0-0.3-0.2-0.4
	c-0.4-0.4-1.1-0.6-1.7-0.5c-0.4,0.1-0.5-0.1-0.6-0.4c-0.2-0.3-0.4-0.7-0.6-1c0.3-0.1,0.5-0.2,0.8-0.3c0.3-0.1,0.6,0,0.8-0.1
	s0.3-0.2,0.4-0.3c-0.1-0.1-0.3-0.2-0.4-0.2c-0.1,0-0.3,0-0.4,0c-0.8,0.1-1.5-0.4-1.8-1.2c1-0.1,2-0.3,3-0.4c0.1,0,0.3,0,0.4,0.1
	c0.7,0.5,1.6,0.8,2.4,0.7L1429.8,561z"/>
<path class="st1" d="M1474.9,508.5c0.1-0.3,0.2-0.7,0.2-1c0-2.4,0-4.8,0-7.2c0-0.2-0.1-0.5-0.1-0.7l1-1c0,0.1,0,0.4,0.1,0.6
	c0,0.7,0.2,1.4,0.7,1.9c0.2,0.3,0.4,0.6,0.5,1c0.1,0.1,0.1,0.3,0.2,0.4c0.6,0.4,0.7,1.2,0.4,1.9c-0.3,0.4-0.3,1,0.1,1.4
	c0.2,0.2,0.1,0.5,0.2,0.7c0.2,0.6,0.4,1.1,0.6,1.6c0.3,0.4,0.4,1,0.1,1.4c-0.3,0.5-0.6,1.1-0.9,1.6l-1.5-1.1L1474.9,508.5z"/>
<path class="st1" d="M1444.6,537.9c0.1,0.2,0.1,0.4,0.1,0.6c0,1,0,2,0,3c-0.2,0-0.4,0-0.5,0c-0.2,0.1-0.4,0.2-0.5,0.3l0.4,0.3h0.1
	l-2.1,1.3l0.6-2.5c-0.6,0.1-1.2,0.3-1.7,0.7c-0.1,0.1-0.3,0.2-0.5,0.3c-1,0.3-2,0.5-3,0.8c-0.2,0-0.4,0.1-0.7,0.1
	c0.3-0.8,0.8-1.5,1.5-1.9c0.3-0.2,0.6-0.5,0.9-0.8c0.6-0.6,1.1-1.2,1.7-1.9c0.1-0.1,0.2-0.2,0.3-0.4c0.3-0.5,0.2-0.7-0.4-0.7
	c-0.1,0-0.1,0-0.2,0c0.5-0.1,0.8-0.5,0.9-1c0.1-0.4,0.4-0.5,0.9-0.4c0.5,0.1,1,0.2,1.5,0.3c0.5,0.1,0.6,0.2,0.4,0.7
	c-0.1,0.2-0.1,0.3-0.2,0.5C1443.7,537.7,1443.9,538,1444.6,537.9z"/>
<path class="st1" d="M1428.1,601.2c0,3.2,0,6.4,0,9.6c0,0.2-0.1,0.4-0.2,0.7c-0.7-0.3-1.4-0.7-2-1c-0.1-0.1-0.2-0.1-0.2-0.2
	c0,0,0.1-0.2,0.2-0.2c0.5-0.3,0.6-0.5,0.3-0.8s-0.5-0.3-0.9-0.1l-0.3,0.2c0.1-0.2,0.1-0.5,0.2-0.7c0.3-0.5,0.6-1,0.8-1.6
	s0.2-0.8-0.4-1.2c-0.3-0.2-0.5-0.4-0.6-0.8c-0.2-0.9-0.4-1.8-0.5-2.7c0-0.2,0.1-0.4,0.2-0.5C1425.4,600.9,1426.9,600.5,1428.1,601.2
	z"/>
<path class="st1" d="M1446.5,544.8l0.3-0.8c0.5-0.2,1.2,0,1.4,0.5c0.1,0.3,0.5,0.4,0.7,0.3c0,0,0.1,0,0.1-0.1
	c0.3-0.2,0.6-0.1,0.8,0.1l1.5,1c-0.3,0.3-0.5,0.6-0.8,0.8c-0.6,0.5-1,1.2-1.1,2c-0.3,1.7-0.8,3.3-1.3,5c-0.1,0.5-0.3,1-0.9,1.2
	c-0.1,0-0.2,0.2-0.3,0.4c0,0.1-0.1,0.3-0.1,0.4h-0.2l-0.2-1.1c0.1-0.1,0.1-0.3,0.2-0.5c0-3,0-5.9,0-8.8
	C1446.6,545.1,1446.6,545,1446.5,544.8z"/>
<path class="st1" d="M1446.5,544.8c0.1,0.1,0.2,0.3,0.2,0.5c0,2.9,0,5.9,0,8.8c0,0.2-0.1,0.3-0.2,0.5c-0.3-0.8-0.6-1.6-1-2.4
	c-0.2-0.3-0.4-0.5-0.6-0.7c-0.6-0.4-1.1-0.8-1.7-1.2l-0.7-0.5c0.1-0.2,0.1-0.4,0.1-0.6c0-1.3,0-2.6,0-3.9c-0.1-0.3-0.2-0.5-0.3-0.7
	l1.4-0.7c0.1,0,0.2,0,0.3,0c0.6,0.4,1.4,0.2,1.8-0.4c0.1-0.1,0.2-0.1,0.3-0.2c-0.1,0.3-0.2,0.5-0.3,0.7c-0.3,0.5-0.6,1.1-0.9,1.6
	c-0.3,0.4-0.3,1,0,1.5c0.3,0.5,0.6,1,0.9,1.5c0.1,0.1,0.2,0.2,0.4,0.3c0.1-0.1,0.2-0.3,0.2-0.4c-0.1-0.4-0.2-0.9-0.4-1.3
	c-0.5-1-0.5-1,0.2-1.9C1446.2,545.1,1446.3,545,1446.5,544.8z"/>
<path class="st1" d="M1436.3,597.2c0.1-0.2,0.1-0.5,0.1-0.7c0-2.8,0-5.6,0-8.4l1.8,0.3c0.3,0,0.6,0.3,0.6,0.6
	c0.2,1.7,0.4,3.5,0.7,5.2c0.1,0.9,0.3,1.9,0.4,2.8c0,0.1,0,0.3,0,0.3c-1,0-2,0-3.1,0C1436.6,597.4,1436.5,597.3,1436.3,597.2z"/>
<path class="st19" d="M1463.8,542.1c0,3.2,0,6.4,0,9.6l-3-1.5c0.1-0.2,0.2-0.4,0.2-0.7c0-2.5,0-5.1,0-7.6L1463.8,542.1z"/>
<path class="st1" d="M1423,600.3c0-0.1,0.1-0.3,0.1-0.4c0-1.3,0.1-2.6,0.1-4c0-2.7,0-5.3-0.1-8c0-0.1,0-0.2,0-0.3
	c0.3,0.3,0.4,0,0.6-0.2c0.3-0.4,0.6-0.8,0.9-1.2c0.4,0,0.3,0.3,0.3,0.5v7.8c-0.1,0-0.2,0-0.3,0c-0.7-0.1-0.8-0.1-1,0.6
	c-0.1,0.3-0.1,0.7-0.2,1c0,0.5,0.1,0.6,0.6,0.5l0.9-0.1c0,0.2,0.1,0.3,0.1,0.5c0,0.4,0.2,0.8,0.6,1.1c0.2,0.1,0.3,0.3,0.5,0.5
	c0.1,0.1,0.1,0.3,0.1,0.5c-0.1,0.5-0.2,1.1-0.5,1.5c-0.4,0.5-0.9,0.9-1.4,1.3L1423,600.3z"/>
<path class="st1" d="M1464.4,528.8V523h0.7c0.7,0,0.8,0.1,0.9,0.8c0.1,0.2,0.2,0.5,0.3,0.7c0.2,0.4,0.4,0.7,0.7,1
	c0.2,0.2,0.4,0.3,0.6,0.3c0.3-0.1,0.6,0.1,0.7,0.4c0,0,0,0.1,0.1,0.1c0.8,2,1.1,1.4-0.1,3.5c-0.4,0.7-0.9,1.4-1.3,2L1464.4,528.8z"
	/>
<path class="st1" d="M1453.6,516.5l0.7-0.5c0.2,0.2,0.2,0.5,0.1,0.7c0,0,0,0,0,0c-0.1,0.2,0,0.4,0,0.6c0.2-0.1,0.4-0.1,0.5-0.3
	c0.1-0.1,0.2-0.3,0.3-0.5c0-0.9,0.9-1,1.4-1.4c0.1-0.1,0.2,0,0.3,0c0.2,0.5-0.5,1.1,0.4,1.4c-0.7,0.4-0.8,1-0.4,1.9
	c0.1,0.3,0.2,0.5,0.2,0.8c0,0.4,0.2,0.7,0.6,0.9c0.4,0.2,0.8,0.5,1.1,0.8c0.2,0.3,0.4,0.6,0.4,1c0,0.5-0.3,0.7-0.7,0.7
	c-0.3,0-0.5,0-0.8-0.1h-0.7c-0.1,0-0.1,0-0.2,0.1l0.1,0.6c-0.2-0.1-0.3-0.2-0.5-0.3c-0.6-0.3-1.2-0.5-1.8-0.7l-1-0.5
	c0.1-0.2,0.1-0.4,0.1-0.6c0-1.3,0-2.7,0-4.1C1453.7,516.8,1453.7,516.6,1453.6,516.5z"/>
<path class="st1" d="M1430.4,505.6c-0.1,0.7-0.6,1.1-1.2,1.4l0.4,0.3v1.1c-0.2,0.1-0.4,0-0.4-0.2c0-0.2-0.1-0.5-0.2-0.7
	c-0.1-0.1-0.3-0.2-0.4-0.3c-0.1,0.1-0.3,0.3-0.3,0.4c-0.1,0.5-0.1,1.1-0.2,1.6c0,0.3,0,0.7-0.5,0.6c-0.1,0-0.3,0.1-0.5,0.3l-0.3-0.9
	c0.1-0.1,0.1-0.2,0.2-0.3c0.1-0.2,0.2-0.5,0.1-0.7c-0.2-0.2-0.4-0.4-0.7-0.4c-0.4-0.1-0.8,0.1-0.8,0.5c0,0.2,0,0.3,0.1,0.5
	c0.2,0.4,0.3,0.9-0.3,1.2c-0.1,0.1-0.2,0.4-0.2,0.6c-0.4-0.1-0.5-0.5-0.5-0.9c0-0.8,0.4-1.5,0.9-2c0.3-0.3,0.6-0.6,0.8-0.9
	c0.1-0.2,0.2-0.4,0.2-0.6c-0.2,0-0.4,0.1-0.7,0.2c-0.2,0.2-0.5,0.4-0.7,0.6c-0.1,0.1-0.2,0.1-0.3,0.1l0.4-0.8l-0.6-0.1
	c0.2-0.3,1,0,0.8-0.7c0-0.2-0.4-0.3-0.6-0.5l1.4-0.9c0.2-0.1,0.4-0.3,0.6-0.4c-0.2-0.1-0.4-0.3-0.6-0.4c-0.1-0.1-0.3-0.1-0.4-0.1
	c0.2-0.3,0.6-0.5,0.3-0.9c0,0,0.1-0.1,0.1-0.2l1.4-1l1.3,3c0.3,0.1,0.7-0.1,0.9-0.3c0.1,0.2,0.2,0.4,0.3,0.6
	C1430.4,504.8,1430.4,505.2,1430.4,505.6z"/>
<path class="st1" d="M1453.6,516.5c0.1,0.1,0.1,0.3,0.1,0.5c0,1.4,0,2.7,0,4.1c0,0.2-0.1,0.4-0.1,0.6l-0.5-0.4
	c0.4-0.7,0.3-1.6-0.2-2.2l-0.3,0.8l-0.4-0.9h-0.2c-0.1,0.2-0.1,0.4-0.1,0.7c0.1,1.1-0.3,2.2-1.2,2.9c-0.6,0.5-1.1,1.1-1.4,1.8
	c-0.1,0.2-0.4,0.4-0.7,0.5l-0.2-1.3c0.2-0.2,0.5-0.2,0.2-0.6c0-1.1,0-2.2,0-3.2c0-0.2-0.1-0.4-0.2-0.5l0.2-0.6
	c-1.5-0.3-2.7,0.6-4.1,0.6c0.7-0.8,1.7-1.4,2.7-1.6c0.3-0.1,0.6,0,0.9,0.1c0.5,0.4,1.2,0.4,1.8,0c-0.1,0.3-0.1,0.5-0.2,0.6
	s-0.2,0.5-0.3,0.7c0,0.1,0,0.3,0,0.4c0.1,0,0.3,0,0.4-0.1c0.2-0.3,0.4-0.6,0.6-0.9c0.3-0.4,0.5-0.8,0.9-1.2l0.1,0.5L1453.6,516.5z"
	/>
<path class="st1" d="M1471,497.1c0.1,0.2,0.1,0.3,0.1,0.5c0,2.4,0,4.7,0,7.1c0,0.2,0,0.5-0.3,0.5c-0.3-0.5-0.5-1.1-0.8-1.6
	c0-0.1,0.1-0.2,0.2-0.3c0.2-0.3,0.1-0.6-0.2-0.8c-0.1,0-0.1-0.1-0.2-0.1c-0.5-0.2-1-0.5-1.4-0.6c-0.7-0.3-1.4-0.5-2.1-0.7l0.1-0.6
	c-0.2-0.1-0.4-0.1-0.5-0.1c-0.5,0.1-0.8,0-0.9-0.6c-0.1-0.8-0.2-0.9,0.7-1c0.2,0,0.4,0,0.6,0s0.4,0,0.4-0.1c0.3-0.7,1-0.6,1.5-1
	c0.3-0.2,0.5-0.3,0.8-0.4c0.2-0.2,0.6-0.1,0.8,0.1c0.3,0.3,0.7,0.5,0.9-0.1C1470.8,497.1,1470.9,497.1,1471,497.1z"/>
<path class="st1" d="M1472.7,516.3c-0.1-0.2-0.1-0.4-0.2-0.6c0-2,0-4.1,0-6.1c0-0.2-0.1-0.5-0.2-0.7c0.3-0.6,1-0.8,1.6-0.7
	c0.2,0,0.3,0.1,0.5,0.2c0.9,0.7,1.8,1.5,2.7,2.2c0.7,0.6,0.8,0.6,0.1,1.3C1475.7,513.3,1474.2,514.8,1472.7,516.3z"/>
<path class="st1" d="M1414.5,586c0.5-0.2,0.9-0.5,1.4,0c0.2,0.2,0.5,0.3,0.6-0.2c0.1-0.2,0.2-0.3,0.4-0.4c0.4-0.2,0.8-0.5,1.2-0.7
	c0.1,0.2,0.1,0.4,0.1,0.5c0,1.2,0,2.3,0,3.5c0,0.2,0.1,0.5,0.2,0.7c-0.2,0.2-0.3,0.4-0.4,0.6s-0.4,0.7-0.6,1.1s-0.2,0.4-0.4,0.6
	c-0.6-0.6-0.6-0.6-1.3-0.1c-0.4,0.3-0.8,0.6-1.4,0.3c-0.1-0.1-0.4,0.2-0.8,0.3c-0.4-0.2-0.4-0.2-0.2-0.7c0.1-0.1,0.1-0.3,0.1-0.5
	c0-0.8,0.5-1.4,1.2-1.7c0.4-0.2,0.5-0.4,0.4-0.8h-0.6c0-0.7,0-1.4,0-2C1414.7,586.4,1414.6,586.2,1414.5,586z"/>
<path class="st1" d="M1411.8,630.8c-0.1-0.1-0.2-0.3-0.2-0.4c0-2.8,0-5.5,0-8.3c0-0.2,0.1-0.3,0.2-0.5c0.4,0.7,0.6,0.7,1.3,0.3
	c0.2-0.2,0.3-0.4,0.3-0.6c0-0.1,0-0.3,0-0.4l0.1-0.1c0.3,0.2,0.7,0.3,0.8,0.6c0.4,0.9,0.8,1.8,1.1,2.7c0.3,0.8,0.1,1.6-0.5,2.2
	c-0.4,0.7-1,1.2-1.7,1.5c-0.2,0.1-0.3,0.4-0.4,0.5s-0.4,0.4-0.6,0.6s-0.2,0.2-0.2,0.3s0.1,0.4,0,0.6S1411.9,630.5,1411.8,630.8z"/>
<path class="st1" d="M1431.7,554c0.5-0.7,0.5-1.6-0.1-2.3c-0.2-0.2-0.2-0.6,0-0.8c0,0,0.1-0.1,0.1-0.1c0.2-0.1,0.2-0.4,0.3-0.7
	c0.4,0.2,0.7,0.6,0.7,1.1c0.1,0.5,0.2,1.1,0.3,1.6c0,0.3,0.2,0.5,0.5,0.5c0,0,0.1,0,0.1,0c0.3,0,0.6,0.1,0.9,0.3c0,2.4,0,4.8,0,7.1
	c0,0.2,0.1,0.4,0.1,0.6l-0.7,0.6c-0.3-0.4-0.6-0.8-0.8-1.3c-0.1-0.1-0.1-0.3,0-0.4c0.3-0.5,0.1-0.8-0.5-0.9
	c-0.3-0.1-0.6-0.2-0.9-0.3v-4.5C1431.8,554.4,1431.7,554.2,1431.7,554z"/>
<path class="st1" d="M1425.3,567.7h-0.5c-0.6,0-1.2,0.4-1.4,1c-0.1,0.5-0.6,0.9-1.2,0.9c-0.7,0-1.4,0.3-2.1,0.3
	c-0.4,0-0.7-0.2-1-0.4c-0.1-0.1-0.1-0.6,0.1-0.9c0.4-0.8,1.1-1.3,1.9-1.6c0.2-0.1,0.4-0.2,0.6-0.3v-0.2c-0.2,0-0.3-0.2-0.5-0.2
	c-0.4,0-0.8,0.1-1.2,0.2c-0.7,0.2-1.1,0.1-1.3-0.6c0-0.2,0.1-0.3,0.2-0.4c0.1-0.1,0.3-0.2,0.5-0.2c0.4,0.1,0.8,0.2,1.3,0.3
	c0.2,0,0.3,0.1,0.5,0.1c0.5,0.3,1.1,0.3,1.7,0.3c0.4,0,0.8,0.1,0.9,0.7c0.3-0.2,0.5-0.3,0.6-0.5c0-0.2-0.1-0.4-0.2-0.6
	c-0.9-0.7-1.9-1.1-3-1.3c-0.4,0-0.7-0.2-0.9-0.5c-0.1-0.2-0.4-0.3-0.6-0.4c0.5-0.3,1.1-0.3,1.6-0.2c0.1,0,0.2,0,0.2,0.1
	c0.6,0.9,1.7,1.1,2.4,1.8c0.1,0.1,0.3,0.1,0.4,0.2l1,0.5L1425.3,567.7z"/>
<path class="st1" d="M1425.5,573.4l-2.5,0.3c-0.3,0-0.5,0-0.8,0.1c-0.9,0.4-1.8,1-2.4,1.8c-0.2,0.2-0.4,0.3-0.7,0.2
	c-0.1,0-0.3-0.3-0.4-0.4c-0.5-0.7-0.2-1.5-0.5-2.3c-0.2-0.7-0.5-1.3-0.9-1.9c-0.2-0.4-0.7-0.5-1-0.3c0,0-0.1,0-0.1,0.1
	c-0.2,0.1-0.5,0.3-0.7,0c0.5-0.2,0.9-0.4,1.4-0.5c0.2-0.1,0.4-0.1,0.5,0.1c0,0,0,0,0,0.1c0.1,0.2,0.3,0.5,0.6,0.6
	c0.3,0.3,0.7,0.5,0.6,1c0,0.1,0,0.2,0.1,0.3c0.4,0.3,0.4,0.6,0.3,1s0,0.7,0.6,0.7c0.2,0,0.5-0.1,0.7-0.1c0.5-0.1,1-0.3,1.4-0.4
	c0.1,0,0.2-0.2,0.3-0.3c-0.1-0.1-0.2-0.2-0.3-0.2c-0.6-0.2-1.3-0.1-1.9,0.2c0.1-0.4,0.2-0.7,0.3-1c0.2-0.5,0-1-0.5-1.2
	c0.8-0.2,1.6-0.4,2.4-0.5c1.1-0.3,2.2,0,3,0.8c0.1,0.1,0.3,0.2,0.4,0.3L1425.5,573.4z"/>
<path class="st1" d="M1457.2,497c-0.1,0.4-0.4,0.9,0.2,1.3c-0.3,0.1-0.6,0.1-0.9,0.2c-0.2,0.1-0.3,0.2-0.5,0.3
	c0.2,0.1,0.3,0.2,0.5,0.3c0.2,0,0.4,0.1,0.7,0c-0.6,0.4-1,0.8-1.5,1.1c-0.3,0.2-0.5,0.3-0.4,0.7c0,0.1-0.1,0.3-0.1,0.4l-0.1,0
	c0.1-0.5-0.2-1.1-0.7-1.2c0,0-0.1-0.1-0.1-0.1c-0.4-0.6-0.4-0.6-1-0.1c-0.1,0.1-0.3,0.1-0.4,0.1c-0.3-0.1-0.6-0.3-0.8-0.5
	c-0.1-0.1-0.1-0.3-0.1-0.5s0.1-0.1,0.1-0.2l2.9-3.5c0.1-0.1,0.3-0.3,0.4-0.5c0.1-0.3,0.3-0.7,0.2-0.9c-0.3-0.3-0.6-0.5-1-0.7
	c0,0-0.1,0-0.2,0.1l-0.1-0.6h0.1c1.6-0.1,1.9,0.1,1.8,1.7c-0.1,0.2-0.2,0.5-0.3,0.7c-0.1,0.1-0.2,0.3-0.2,0.4c0,0.2,0.1,0.4,0.2,0.6
	c0.2-0.1,0.3-0.2,0.4-0.4c0.3-0.4,0.5-0.8,0.7-1.3c0.1,0.3,0.2,0.5,0.3,0.8C1457.2,495.8,1457.2,496.4,1457.2,497z"/>
<path class="st1" d="M1447.1,488.2c0.2-0.6,0.4-1.2,0.7-1.7c0.2-0.3,0.4-0.4,0.7-0.1c0.1,0.1,0.2,0.2,0.4,0.2c0.2,0.1,0.4,0,0.4-0.3
	c-0.2-0.8-0.3-1.5-0.5-2.3c0-0.1-0.3-0.2-0.4-0.2l-1-0.4v-0.2c0.3,0,0.6-0.1,0.8-0.1c1.3-0.2,2.3-1.1,2.7-2.3
	c0.1-0.3,0.2-0.6,0.3-0.8c0.6,0.2,0.7,0.5,0.6,1c-0.1,0.3-0.1,0.6-0.1,0.9c0,0.3-0.1,0.4-0.4,0.4c-0.2,0-0.5,0-0.7,0.1
	c-0.1,0.1-0.2,0.2-0.3,0.4c0,0.1,0.1,0.2,0.3,0.3c0.3,0.1,0.3,0.3,0.2,0.5s-0.3,0.5-0.4,0.8s0,0.3,0.2,0.5c0.6,0.4,1.1,0.7,1.6,1.2
	c0.3,0.2,0.4,0.7,0.1,1c0,0-0.1,0.1-0.1,0.1c-0.3,0.4-0.7,0.7-1.1,1c-0.4,0.3-0.8,0.5-1.2,0.7c-0.5,0.3-0.8,0.2-1.1-0.3
	s-0.5-0.6-1.1-0.3l-0.4,0.3L1447.1,488.2z"/>
<path class="st1" d="M1480.8,503.3c0.1,0.2,0.2,0.5,0.2,0.7c0,1.5,0,3,0,4.5c0,0.2-0.1,0.4-0.2,0.6c-1.3-0.5-2.2-1.8-2.3-3.2
	c0-0.2-0.1-0.4-0.2-0.6c-0.3-0.3-0.3-0.7-0.1-1.1c0.4-0.8,0.2-1.7-0.5-2.2c-0.1,0-0.2-0.1-0.2-0.2c-0.1-0.6-0.4-1.2-0.9-1.6
	c-0.4-0.6-0.5-1.3-0.3-2c0.1-0.4,1-0.6,1.3-0.3c0.5,0.4,0.8,1.1,0.6,1.7c-0.1,0.5,0,1.1,0.5,1.5c0.3,0.2,0.4,0.5,0.7,0.8
	c0.4,0.3,0.6,0.8,0.5,1.4c-0.1,0.8-0.2,1.6-0.3,2.4c0,0.2,0.1,0.3,0.1,0.4c0.2-0.1,0.4-0.1,0.4-0.2c0.2-0.4,0.3-0.8,0.3-1.2
	c0-0.3,0-0.6,0-1C1480.7,503.6,1480.7,503.5,1480.8,503.3z"/>
<path class="st1" d="M1486.5,489.1c0,2,0,4.1,0,6.1c0,0.3,0,0.5-0.1,0.8c-0.5-0.4-1-0.8-1.5-1.1c-0.7-0.5-1.6-0.7-2.4-0.6
	c-0.2,0-0.4,0.2-0.7,0.2c0.1-0.2,0.3-0.4,0.4-0.6c0.3-0.4,0.6-0.9,0.8-1.4c0.1-0.3,0.1-0.6,0-0.9c0.3-0.7,0.3-1.4,0.1-2.1
	L1486.5,489.1z"/>
<path class="st1" d="M1403.6,630.6v-3.7h0.1c0.3,0.1,0.8,0.5,0.8,0.4c0.3-0.3,0.6-0.7,0.7-1.2c0-0.3,0.2-0.6,0.5-0.7
	c0.5-0.2,0.9-0.5,1.4-0.7c0.1,0.2,0.1,0.4,0.1,0.5c0,2.1,0,4.3,0,6.4c0,0.2,0,0.4-0.1,0.7c-0.4,0-0.7-0.2-1-0.5
	c-0.3-0.3-0.7-0.5-1.1-0.7C1404.6,630.9,1404.1,630.7,1403.6,630.6z"/>
<path class="st1" d="M1402.3,620.2c0.1-0.1,0.2-0.2,0.2-0.3c0.2-1,1.1-1.1,1.8-1.3c0.2,0,0.4,0.1,0.6,0.3c0.6,0.6,0.8,0.7,1.5,0.2
	c0,0.8,0.7,1.4,1.5,1.3c0.6,0.1,0.9,0.7,0.5,1.3c-0.2,0.3-0.4,0.6-0.7,0.9c-0.8,0.7-1.7,1.4-2.5,2c-0.7,0.3-1.6,0-2-0.7
	c-0.2-0.4,0.3-0.9,0.8-0.9c0.3,0,0.5,0,0.8-0.1c0.2-0.1,0.3-0.2,0.4-0.4c0-0.1-0.1-0.4-0.3-0.5s-0.6-0.3-0.6-0.8s-0.4-0.3-0.8-0.3
	l-0.6,0.2c0-0.5,0.4-0.6,0.7-0.6s0.4,0,0.6,0c0.2-0.1,0.4-0.1,0.5-0.3c-0.1-0.2-0.2-0.5-0.3-0.5c-0.6-0.3-1.3-0.3-1.8,0.1
	L1402.3,620.2L1402.3,620.2z"/>
<path class="st1" d="M1458.7,475.6c0,0.3,0,0.5,0,0.8c-0.1,1-0.2,1.9-0.3,2.9c-0.1,0.7-0.2,1.3-0.4,2c-0.3,0.6-0.4,1.1-0.6,1.7
	c0,0.4-0.4,0.7-0.7,1.1h-0.1c0-0.3,0-0.5,0-0.8c0.1-1.1-0.4-2.1-1.4-2.7c-0.2-0.1-0.4-0.3-0.5-0.6c-0.2-0.3-0.1-0.7,0.1-0.9
	c0,0,0,0,0.1,0c0.5-0.2,0.5-0.6,0.5-1c0.1-0.6,0.2-1.1,0.4-1.7c0.2-0.6,0.6-0.7,1.2-0.4c0.4,0.3,0.9,0.2,1.3-0.1L1458.7,475.6z"/>
<path class="st1" d="M1462.8,495.7l0.2-0.8l0.4-0.1c0-0.1,0-0.3,0-0.4c0-1.1,0.8-2.1,1.8-2.3c0.5-0.2,1,0,1.3,0.4
	c0.5,0.7,0.9,1.5,1.4,2.3l-1.1,0.3c-0.1,0-0.3,0.1-0.3,0.2c0,0.1,0.1,0.3,0.2,0.4c0.2,0.1,0.4,0.3,0.6,0.4c-0.3,0.4-0.8,0.7-1.3,0.7
	c-1,0.1-2,0.5-2.8,1.2c-0.1,0.1-0.2,0.1-0.2,0.2h-0.1c0,0-0.1,0-0.1,0c-0.2-0.3-0.6-0.8-0.5-0.9c0.3-0.3,0.6-0.5,1-0.7
	c0.2-0.1,0.4,0,0.6-0.1c0.1-0.1,0.2-0.2,0.3-0.3c-0.1-0.1-0.2-0.2-0.4-0.2C1463.6,495.7,1463.2,495.7,1462.8,495.7z"/>
<path class="st1" d="M1442.2,544.5c0.1,0.2,0.3,0.5,0.3,0.7c0,1.3,0,2.6,0,3.9c0,0.2-0.1,0.4-0.1,0.6c-0.2-0.2-0.3-0.4-0.4-0.6
	c-0.4-1.3-0.5-1.4-1.7-0.7c-0.5,0.3-0.9,0.4-1.4-0.1c-0.2-0.2-0.5-0.3-0.8-0.4c-0.3-0.1-0.6-0.3-0.6-0.7c0-0.1-0.2-0.3-0.3-0.4
	c-0.4-0.3-0.4-0.6,0.1-0.8c1-0.4,2-0.8,3-1.2C1440.9,544.8,1441.5,544.6,1442.2,544.5z"/>
<path class="st1" d="M1440.1,504.6c-0.5,0.4-1,0.9-1.7,0.9c-0.1,0-0.3,0.1-0.4,0.2s-0.3-0.2-0.4-0.2s-0.4,0.2-0.4,0.2
	c0.1,0.6-0.3,0.6-0.7,0.8c-0.3,0.1-0.5,0.2-0.8,0.2c-0.4-1,0-2.1,1-2.5c0.1,0,0.2-0.1,0.3-0.1c0.3-0.1,0.7-0.3,1-0.4v-0.2
	c-0.2,0-0.4,0-0.7-0.1h-0.8c0.1-0.4,0.4-0.5,0.7-0.5s0.6-0.2,0.3-0.5c-0.3-0.4-0.4-0.9-0.2-1.4c0.1-0.3,0.1-0.6,0-0.9
	c0.6,0.5,0.8,1.3,1.6,1.6l-0.2-1.3h0.1l0.4,1h0.2c0-0.2,0.1-0.5,0.1-0.7c0-0.4,0-0.7-0.1-1.1c0-0.1-0.1-0.4-0.2-0.4
	c-0.6,0-0.6-0.6-1.1-0.9c0.9-0.5,1.2-0.5,1.9,0.3c-0.1,0.2-0.1,0.3-0.2,0.5C1440.1,501,1440.1,502.8,1440.1,504.6z"/>
<path class="st1" d="M1425.5,573.4v-1.7c0.3-0.1,0.4-0.5,0.3-0.8c-0.1-0.1-0.2-0.2-0.3-0.3c-0.3-0.2-0.7-0.4-1.1-0.6
	c-0.7-0.4-0.7-0.8-0.1-1.3c0.3-0.2,0.6-0.3,1-0.4c0.3-0.1,0.7,0,1,0c0.2-0.1,0.4-0.2,0.5-0.3c-0.2-0.1-0.3-0.2-0.5-0.3
	c-0.3,0-0.7,0-1,0v-1.8c0.4,0.1,0.7,0.2,1.1,0.3c0.6,0.3,1.2,0.7,1.8,1.1c0.2,0.1,0.3,0.5,0.2,0.7c0,0,0,0,0,0
	c-0.3,0.7-0.7,1.4-1,2.1c-0.1,0.2-0.1,0.5,0.1,0.6c0.8,0.9,0.7,1.4-0.3,2C1426.6,573,1426.1,573.3,1425.5,573.4z"/>
<path class="st1" d="M1434.7,561.3c-0.1-0.2-0.1-0.4-0.1-0.6c0-2.4,0-4.7,0-7.1c0.5-0.5,0.9-1.2,0.9-1.9c0-0.4,0-0.8,0-1.2
	c0-0.3,0.1-0.4,0.4-0.4c0.2,0,0.4,0,0.5-0.1c0.2-0.1,0.5,0,0.7,0.2c0,0,0,0,0,0c0.2,0.3,0.2,0.6,0,0.9c-0.8,1.2-1.2,2.6-0.9,4.1
	c0,1.1,0,2.1-0.1,3.2c-0.1,0.6,0.1,1.2,0.3,1.7c0.3,0.5,0.1,0.9-0.5,1C1435.5,561.2,1435.1,561.2,1434.7,561.3z"/>
<path class="st1" d="M1442.2,486c0.1,0.8-0.2,1.6-0.8,2.2c-0.1,0.1-0.1,0.2-0.1,0.4c0,0.3-0.2,0.4-0.5,0.5c-0.3,0.1-0.5,0.3-0.7,0.5
	c-0.3,0.3-0.6,0.3-0.8-0.1c-0.4-0.5-0.3-1.2,0.1-1.7c0.1-0.2,0.1-0.4,0-0.5c-0.1-0.1-0.3-0.1-0.5-0.1s-0.3,0.1-0.5,0.3
	c-0.1-0.2-0.1-0.5-0.1-0.8c0-0.1,0.4-0.1,0.6-0.2l0.4-0.1c-0.1-0.1-0.1-0.3-0.2-0.4s-0.1-0.1-0.2-0.2c0.5-0.8,1.3-0.5,2-0.7l0.1-0.2
	c-0.2-0.2-0.5-0.4-0.8-0.6c-1-0.5-1-0.5-0.2-1.3c0.3-0.3,0.5-0.6,0.7-1c0.2,0.2,0.2,0.2,0.3,1.6c0,0.6,0.1,1.2,0.3,1.7
	c0.4,0.1,0.6,0,0.6-0.6c0-0.9-0.1-1.7-0.1-2.6c0-0.3,0.1-0.6,0.2-0.9c0-0.1,0.2-0.1,0.3-0.2c0.1,0.1,0.1,0.2,0.2,0.3
	c0,0.1,0,0.2,0,0.3c0,0.7,0,1.4,0.1,2c-0.1,0-0.2,0.1-0.2,0.2C1442.2,484.5,1442.2,485.3,1442.2,486z"/>
<path class="st1" d="M1455.7,539.2c0,0.9,0,1.8,0,2.7c0,0.3,0.1,0.5,0.1,0.8l-0.6,0.5c-0.1-0.8,0-1.6,0.2-2.3c0-0.2,0-0.4-0.2-0.6
	c-0.3-0.4-0.6-0.7-0.9-1.1c-0.3-0.3-0.5-0.7-0.5-1.2c0-0.9-0.4-1.7-0.9-2.3c-0.3-0.4-0.8-0.5-1.2-0.3c-0.1,0.1-0.3,0.1-0.5,0.1
	c-0.6-0.2-1.1,0.2-1.6,0.3c-0.1,0-0.2,0.2-0.3,0.4s0.1,0.7-0.4,0.7c-0.5,0-0.9-0.3-1-0.8c0-0.3,0-0.5-0.1-0.8
	c-0.5-0.9-0.1-1.5,0.6-2c0.3-0.3,0.6-0.6,0.8-1l0.4,0.8c-0.3,0.1-0.7,0.3-1,0.5c0.1,0.2,0.1,0.4,0.2,0.5c-0.2,0.3-0.4,0.7-0.6,1.1
	c-0.1,0.1,0.1,0.3,0.1,0.5c0.2-0.1,0.3-0.2,0.5-0.3c0.2-0.3,0.5-0.5,0.7-0.8c0.1-0.1,0.2-0.3,0.3-0.5c0.2-0.6,0.8-1,1.4-0.9
	c1-0.1,2,0.6,2.1,1.7c0.2,0.6,0.5,1.1,0.7,1.7c0.2,0.4,0.2,0.9,0.3,1.3c0,0.1,0.1,0.3,0.2,0.4c0.1,0.1,0.2,0.2,0.2,0.3
	C1455.1,539.4,1455.1,539.4,1455.7,539.2z"/>
<path class="st20" d="M1450.7,542.5c-0.4,0.1-0.8,0.2-1.2,0.3c-0.2,0-0.5,0-0.5-0.1c-0.3-0.4-0.8-0.5-1.2-0.4c-0.1,0-0.3,0-0.4-0.1
	c0.2-0.1,0.4-0.2,0.6-0.2c0.6-0.1,1.1-0.6,1-1.2c0,0,0-0.1,0-0.1c0-0.3-0.1-0.4-0.4-0.4l-1,0.1c-0.3,0-0.4-0.1-0.4-0.4
	c0.1-0.4,0.4-0.8,0.8-1c0.7-0.2,1.1-0.8,1.2-1.5c0-0.2,0.1-0.4,0.2-0.6c0-0.1,0.1-0.2,0.2-0.3s0.1-0.5,0.2-0.6
	c0.4-0.2,0.7-0.3,1.1-0.4c0,0,0.1,0,0.2,0c0,2,0,4,0,6C1450.9,542,1450.8,542.3,1450.7,542.5z"/>
<path class="st1" d="M1450.2,528L1450.2,528l-0.1-0.2c0.5-0.5,0.6-0.5,1.2-0.1c0.3,0.2,0.5,0.1,0.6-0.2c0.1-0.1,0.2-0.3,0.3-0.4
	l0.4,0.3l0,0c0.2,0.2,0.4,0.6,0.6,0.5c0.4,0,0.8-0.3,0.9-0.8c0-0.1,0.1-0.1,0.2-0.2l0.4,0.3c0,0.3-0.1,0.5-0.1,0.8
	c0,1.4-0.1,2.8-0.1,4.2c-0.2,0-0.4,0-0.5-0.1c-0.3-0.3-0.7-0.4-1.2-0.4c-0.8-0.1-1.5-0.2-2.2-0.4c-0.7-0.2-0.8-0.7-0.5-1.3
	c0-0.1,0-0.2,0-0.3c-0.1-0.3,0-0.6,0.3-0.8c0.2-0.2,0.6-0.2,0.9,0c0.6,0.3,1.1,0.7,1.7,1c0.2,0.1,0.4,0.2,0.6,0.2
	c0.1-0.5-0.1-0.9-0.5-1.2c-0.5-0.3-1-0.6-1.4-0.9c-0.3-0.3-0.8-0.4-1.2-0.3L1450.2,528z"/>
<path class="st1" d="M1409.3,605.7l-0.1,1.3c-0.2-0.1-0.5-0.2-0.7-0.3c-0.5-0.3-1-0.5-1.5-0.8c-0.5-0.2-1,0-1.4,0.3
	c-0.1,0.2-0.2,0.4-0.1,0.5c0.2,0.7-0.1,1.3-0.7,1.7c-0.1,0-0.2,0-0.3,0c0,0-0.1-0.2,0-0.3c0.1-0.2,0.3-0.4,0.4-0.6s0.3-0.4,0.4-0.6
	l-0.2-0.1c-0.2,0.1-0.3,0.1-0.4,0.2c-0.3,0.2-0.5,0.1-0.5-0.2c-0.1-0.4-0.1-0.8,0-1.2c0.6-1.2,1.3-2.4,2-3.5c0.3-0.5,0.6-0.4,0.9,0
	s0.8,0.9,0.4,1.5c-0.1,0.1,0,0.3,0,0.3c0.1,0,0.2,0,0.4,0c0.2-0.1,0.3-0.1,0.4-0.2l0.1,0.1c-0.1,0.2-0.2,0.5-0.3,0.7
	s-0.1,0.5-0.2,0.7c0.2,0,0.4,0,0.6,0.1C1408.8,605.4,1409.1,605.6,1409.3,605.7z"/>
<path class="st1" d="M1456.2,474.7l-0.6,0.4c-0.1-0.8-0.3-1-0.8-1.1c-0.2,0-0.4,0-0.5,0.2c-0.1,0.2-0.1,0.4,0,0.5
	c0.5,0.6,0.6,1.3,0.3,2c-0.2,1-0.7,1.9-1.3,2.6c-0.4-0.4-0.6-0.9-0.5-1.5c0.1-0.8,0.1-1.5,0.2-2.3c0-0.8,0.3-1.6,0.8-2.3
	c0.2-0.3,0.3-0.7,0.4-1.1c0.3-0.8,0.7-1.6,1.1-2.4c0.1-0.2,0.4-0.4,0.7-0.6c0,1.6,0,3.3,0,4.9C1456,474.3,1456.1,474.5,1456.2,474.7
	z"/>
<path class="st1" d="M1461.2,558.1c-0.1-0.2-0.1-0.4-0.2-0.5c0-2,0-4.1,0-6.1c0-0.2,0.1-0.4,0.2-0.6c0.3,0.1,0.5,0.2,0.8,0.4
	c1.1,0.7,2.3,1,3.5,0.9c0.1,0,0.3,0,0.4,0C1464,553.8,1462.4,555.9,1461.2,558.1z"/>
<path class="st1" d="M1403.4,613.5L1403.4,613.5c0.2,0.3,0.3,0.7,0.5,1s0.5,0.9,0.7,1.2c-0.4,0.3-0.8,0.7-1.3,1.1
	c-0.3,0.2-0.6,0.4-0.9,0.6c-0.2,0.2-0.5,0.1-0.7-0.1c0,0,0,0,0-0.1c-0.1-0.1-0.3-0.1-0.5-0.2c0,0.2-0.1,0.3-0.1,0.4
	c0.1,0.3,0.3,0.6,0.4,0.9c0.1,0.2,0.1,0.4,0,0.7c-0.5,0.5-0.9,1-1.4,1.4c-0.2,0.2-0.5,0.4-0.8,0.5c-0.3,0.2-0.5,0.3-0.8,0.4
	l-0.1-0.2c0.1-0.1,0.1-0.2,0.2-0.2c0.5-0.3,0.8-0.8,0.9-1.4c0.1-0.4,0.3-0.8,0.4-1.1c0-0.1,0.2-0.3,0.2-0.4c0.1-0.3,0-0.6-0.4-0.5
	c-0.1,0-0.2,0-0.3,0c0.3-0.4,0.5-0.8,0.7-1.2c0.2-0.4,0.6-0.6,1-0.6c0.7-0.1,1.2-0.7,1.4-1.3c0.1-0.4,0.3-0.7,0.5-1
	C1403,613.4,1403.2,613.5,1403.4,613.5z"/>
<path class="st1" d="M1431.7,554c0,0.2,0.1,0.4,0.1,0.6v4.4c-0.9-0.1-1.1-1-1.5-1.7c0.3-0.3,0.4-0.8,0.2-1.2
	c-0.1-0.1-0.2-0.2-0.4-0.2c-1-0.1-2-0.2-3.1-0.3c-0.7-0.1-1.3-0.5-1.7-1h0.8c0.4,0,0.7,0,1.1,0c0.3-0.1,0.6-0.3,0.8-0.5l-0.6-0.5
	c0.6-0.4,1.3,0,1.9-0.1c0.1-0.3,0.1-0.6,0.2-0.7c0.4-0.2,0.8-0.3,1.3-0.4c0,0,0.2,0.3,0.2,0.4c-0.3,0.4-0.6,0.7-0.9,1.1
	c-0.1,0.2-0.3,0.3-0.4,0.5c0.2,0.2,0.4,0.4,0.6,0.4C1430.9,554.8,1431.3,554.4,1431.7,554z"/>
<path class="st21" d="M1460.9,542c0,2.5,0,5.1,0,7.6c0,0.2-0.1,0.5-0.2,0.7l-1.9-1.3c0.1-0.2,0.2-0.4,0.2-0.6c0-2.2,0-4.4,0-6.6
	L1460.9,542z"/>
<path class="st22" d="M1453,536.3c0.5,0.6,0.7,1.3,0.6,2c0,0.3,0.1,0.6,0.3,0.8c0.9,0.6,1.4,1.8,1.1,2.9c-0.2,0.4,0,1,0.4,1.2
	l-0.1,2c-0.4-0.1-0.9-0.1-1.3-0.2c-0.2-0.1-0.4-0.2-0.5-0.3l-1.1-0.6c0.2-0.5,1-0.7,0.5-1.3c0.1-0.2,0.1-0.4,0.1-0.6
	c0-1.7,0-3.5,0-5.2C1452.9,536.8,1453,536.5,1453,536.3z"/>
<path class="st1" d="M1456.5,511.5h-1.3l-0.1-0.1c0.1-0.4,0-0.8-0.3-1.1c-0.1-0.1-0.1-0.3-0.2-0.5s-0.2-0.3-0.2-0.3
	c-0.1,0-0.2,0.1-0.3,0.3c-0.1,0.3-0.1,0.5-0.1,0.8c0,0.8-0.1,0.8-0.8,1.1c-0.2,0-0.3,0.1-0.5,0.1c-0.2,0.1-0.3,0.3-0.5,0.5l0.5,0.4
	c-0.1,0.2-0.2,0.4-0.3,0.5c-0.1,0.1-0.3,0.1-0.4,0.1c-0.3-0.6-1.1-0.8-1.2-1.5c-0.1-0.5-0.1-0.5,0.4-0.6s0.5-0.2,0.4-0.7
	c-0.1-0.2-0.1-0.4,0-0.6c0.4-0.6,0.9-1.2,1.3-1.8c0.2-0.4,0.7-0.5,1-0.3c0,0,0,0,0.1,0c-0.4,0.2-0.6,0.6-0.5,1.1
	c0,0.2,0.2,0.3,0.3,0.4c0.1-0.1,0.2-0.3,0.3-0.4c0-0.1,0-0.1,0-0.2l0.7,0c0-0.2-0.1-0.4-0.1-0.6s0-0.2,0-0.2c0.3,0,0.8,0,0.9-0.1
	c0.4-0.5-0.1-0.9-0.3-1.3c0.3-0.3,0.5-0.1,0.6,0.2c0.1,0.2,0.3,0.4,0.5,0.5v1.9c-0.2,0-0.4,0-0.7,0.1s-0.6,0-0.6,0.1
	c-0.1,0.3-0.1,0.5,0,0.8c0.1,0.3,0.1,0.5,0.2,0.8c0,0.2,0.1,0.4,0.2,0.5l0.6-0.3L1456.5,511.5z"/>
<path class="st1" d="M1448.5,481.6c0.4,0.2,0.5,0.1,0.6-0.3c0.1-0.5-0.1-0.9-0.5-1.2c-0.2-0.1-0.3-0.3-0.5-0.4
	c-0.1-0.1-0.1-0.3-0.1-0.5c0-0.3,0-0.5,0.1-0.9l-0.7,0.4c0.5-1,0-2-0.1-2.9c-0.1-0.6-0.1-1.2,0.6-1.5c0.1-0.1,0.2-0.1,0.2-0.2
	c0.2-0.4,0.5-0.3,0.8-0.2s0.3,0.5,0.2,0.7s-0.4,0.5-0.6,0.8s-0.2,0.4-0.4,0.6l0.6,0.1h0.1l0.3,0.8c-0.1,0.1-0.2,0.3-0.2,0.4
	c0.1,0.2,0.2,0.3,0.4,0.3c0.5,0.1,1,0.1,1.5,0.1l0,0c-0.2,0.3-0.3,0.5-0.1,0.9c0.1,0.1,0,0.4-0.1,0.6c-0.5,0.6-0.7,1.4-0.6,2.1
	c0.1,0.4-0.4,0.9-0.8,1.3c-0.1,0.2-0.5,0.2-0.7,0.2L1448.5,481.6z"/>
<path class="st1" d="M1412.9,617.6v-2.5c0.2,0.1,0.4,0.1,0.7,0.2c0.5,0.1,0.9,0.4,1.1,0.9c0,0.1,0,0.3-0.1,0.4
	c-0.4,0.5-0.3,0.9,0.3,1.1c0.2,0.1,0.4,0.3,0.2,0.5c-0.4,0.4-0.1,0.8,0.2,1c0.2,0.2,0.4,0.3,0.6,0.4l0.6,0.3
	c-0.3,0.2-0.6,0.2-0.8,0.3s-0.6,0.3-0.8,0.5c-0.1,0-0.3,0-0.4,0c-0.4-0.1-0.7-0.2-1.2-0.3c0,0.3,0,0.5,0,0.7c0,0.4-0.3,0.5-0.5,0.6
	s-0.4-0.1-0.5-0.3c-0.1-0.1-0.2-0.2-0.3-0.3c-0.4-0.2-0.5-0.6-0.4-1c0-0.1,0.1-0.1,0.1-0.1c0.5-0.6,1-1.3,1.6-1.9
	C1413.2,618,1413.3,617.7,1412.9,617.6z"/>
<path class="st1" d="M1456.2,474.7c-0.1-0.2-0.1-0.4-0.2-0.6c0-1.6,0-3.3,0-4.9c0.4-0.1,0.8-0.2,1.1-0.4c0.6-0.4,1-0.9,1.2-1.5
	c0.1,0.2,0.3,0.4,0.3,0.6c0,1.5,0,3,0,4.6c0,0.2,0.1,0.4,0.2,0.6c-0.1,0.1-0.3,0.3-0.5,0.4L1456.2,474.7z"/>
<path class="st1" d="M1433.5,565.6c0-1,0.1-2,0.1-3c0-0.2,0.1-0.4,0.1-0.6c0.3,0.4,0.5,0.2,0.8,0c0.6-0.6,1.5-0.7,2.3-0.4
	c0.1,0.1,0.1,0.2,0.1,0.3c-0.1,0.2-0.2,0.3-0.3,0.4c-0.3,0.5-0.2,1.1,0.3,1.4c0,0,0.1,0,0.1,0.1l0.4,0.3l-3.1,3.3
	C1434,566.7,1434.4,565.9,1433.5,565.6z"/>
<path class="st23" d="M1453,536.3c-0.1,0.3-0.1,0.5-0.1,0.8c0,1.7,0,3.5,0,5.2c0,0.2-0.1,0.4-0.1,0.6c-0.3,0.1-0.6,0.3-0.9,0.5
	c-0.3,0.3-0.7,0.4-1.1,0.2l0.3-0.1c0.2,0,0.6-0.1,0.5-0.4s-0.3-0.4-0.5-0.5s-0.2,0-0.3,0c0.1-0.2,0.2-0.5,0.3-0.8c0-2,0-4,0-6
	c0.2,0,0.4,0,0.6,0C1452.4,535.5,1452.6,535.5,1453,536.3z"/>
<path class="st1" d="M1430.4,505.6c0-0.4,0-0.8,0-1.2c-0.1-0.2-0.1-0.4-0.3-0.6v-0.2c0.4-0.5,0.4-1.2,0.1-1.7l0.6-1.6
	c0.2,0.2,0.5,0.5,0.6-0.2c0-0.1,0.3-0.2,0.5-0.3c0.1,0.1,0.2,0.3,0.2,0.4c0.1,0.4,0.2,0.8,0.3,1.2c0.2,0.4,0,0.8-0.3,1.1
	c-0.2-0.2-0.4-0.4-0.6-0.6c-0.1-0.1-0.3-0.1-0.5-0.1c0,0.2-0.1,0.4-0.1,0.5c0.2,0.7,1,1.1,1.7,0.8c0.2-0.1,0.4-0.2,0.5-0.3
	c0.1-0.1,0.1-0.1,0.2-0.2c0.1-0.1,0.3-0.2,0.4-0.3c0.1,0.2,0.3,0.4,0.3,0.5c0,0.5-0.1,1.1-0.1,1.7l-0.5-0.3l-0.8,1.4
	c-0.6-0.5-0.6-0.5-1.7,0.3l-0.2-0.7L1430.4,505.6z"/>
<path class="st1" d="M1419.2,576.4l-0.4,0.3c-0.3,0.2-0.3,0.4,0,0.7c0.5,0.6,0.4,0.9-0.3,1.2c-0.2,0.1-0.3,0.3-0.3,0.5
	c0,0.5-0.3,0.6-0.6,0.5c-0.7-0.3-1.4-0.6-2-1c-0.4-0.3-0.4-0.7,0-1c0.4-0.2,0.7-0.5,1.1-0.7c0.9-0.4,1.3-1.5,0.9-2.4
	c-0.1-0.2-0.3-0.4-0.5-0.6c-0.1,0-0.2,0-0.2-0.1l0.1-0.1c0.2,0,0.4,0,0.7-0.1c0.1,0,0.2-0.2,0.3-0.4c-0.1-0.1-0.2-0.2-0.3-0.3
	c0,0-0.1,0-0.2-0.1l-1.7-1.4c0.3-0.1,0.5-0.3,0.8-0.3c0.2,0,0.5,0.1,0.7,0.2c0.6,0.6,1,1.4,1,2.3
	C1418.1,574.7,1418.5,575.7,1419.2,576.4z"/>
<path class="st1" d="M1456.5,511.5l-0.3-0.5c0-0.5,0-1,0.7-1.1c0.2,0,0.3-0.3,0.5-0.5c0.2,0.3,0.6,0.3,0.9,0.1
	c0.1-0.1,0.2-0.1,0.2-0.2c0.3-0.3,0.8-0.5,0.8-1c0-0.1,0.2-0.3,0.3-0.4s0.3-0.2,0.3-0.3s-0.1-0.3-0.2-0.4c-0.3-0.3-0.6-0.7-0.8-1.1
	c-0.1-0.2,0.1-0.5,0.2-0.8c0.4,0.3,0.6,1,1.2,0.4l0.1,0.1c-0.2,0.5-0.3,1,0.3,1.5c0.2,0.1,0.2,0.4,0.3,0.6c-0.1,0.1-0.2,0.3-0.3,0.4
	c0,0.3,0,0.7,0,1c-0.3,0.4-0.5,0.9-1.1,1c-0.2,0-0.2,0.5,0.1,0.7c0.3,0.2,0.6,0.5,0.7,0.9c0.1,0.2,0.2,0.4,0.3,0.5l-0.2,0.3
	c-0.2-0.4-0.5-0.7-1-0.8c-0.3,0-0.4-0.3-0.7-0.4s-0.7-0.3-1.2-0.4c0,0.7,0.5,0.8,0.7,1.2L1456.5,511.5z"/>
<path class="st1" d="M1448.4,519.2c0.1,0.2,0.2,0.3,0.2,0.5c0,1.1,0,2.2,0,3.2c-0.4,0-0.8,0.1-1.2,0.1c-0.2,0-0.4-0.1-0.5-0.3
	c-0.1-0.2,0.1-0.4,0.1-0.6s0.1-0.3,0.1-0.4c-0.1-0.1-0.2-0.2-0.4-0.1c-0.3,0.1-0.5,0.2-0.8,0.3c-0.6,0.2-1.2,0.4-1.8,0.6
	c0.2-0.2,0.3-0.5,0.4-0.8c0.1-0.2,0-0.3,0-0.5c-0.2,0-0.3,0-0.5,0.1c-0.2,0.1-0.4,0.2-0.5,0.3c-0.1-0.4-0.3-0.7,0-1
	c0.2-0.2,0.3-0.5,0.3-0.8l0.4,0.3c0.5,0.3,0.7,0.3,1.1-0.1c0.7-0.5,1.5-0.8,2.3-0.8C1448,519.3,1448.2,519.2,1448.4,519.2z"/>
<path class="st1" d="M1394.5,605.7c0-0.2,0-0.3,0-0.4c0.5-0.9,1-1.7,1.6-2.5c0.6-0.7,1.5-0.8,2.3-0.3c0.2,0.1,0.3,0.3,0.4,0.5
	c0.3,0.6,0.4,0.6,0.9,0.2s0.7-0.3,0.9,0.1c-0.2,0.4-0.6,0.5-1,0.4c-0.5-0.1-0.7,0.1-0.9,0.5c-0.5,0.7-1,1.4-1.5,2
	c-0.2,0.3-0.5,0.3-0.8,0.1C1395.8,605.8,1395.1,605.6,1394.5,605.7z"/>
<path class="st1" d="M1470.2,510.9c-0.1,0.2-0.1,0.4-0.1,0.5c0,4.1,0,8.2,0,12.2c0,0.2,0,0.3,0.1,0.5l-0.7,3h-0.2l-0.2-0.5
	c0.1-0.2,0.2-0.4,0.2-0.6c0-5.3,0-10.5,0-15.8C1469.7,510.3,1470.1,510.6,1470.2,510.9z"/>
<path class="st1" d="M1418.5,589.4c-0.1-0.2-0.2-0.4-0.2-0.7c0-1.2,0-2.3,0-3.5c0-0.2-0.1-0.4-0.1-0.5l1.5-1.2
	c0.5-0.3,1-0.5,1.6-0.4c0.4,0,0.7,0,1.2,0c-0.4,0.5-0.8,1-1.1,1.5s-0.7,1.4-1.1,2s-0.7,1.2-1,1.7
	C1419.1,588.7,1418.8,589.1,1418.5,589.4z"/>
<path class="st24" d="M1459.1,541.8c0,2.2,0,4.4,0,6.6c0,0.2-0.1,0.4-0.2,0.6l-1.7-0.8c0.1-0.2,0.2-0.4,0.2-0.6c0-1.8,0-3.5,0-5.3
	c0-0.2-0.1-0.4-0.1-0.6C1458,541.1,1458,541.1,1459.1,541.8z"/>
<path class="st1" d="M1457.2,497c0-0.6,0-1.2,0-1.8c-0.1-0.3-0.1-0.6-0.3-0.8c0.4-0.5,0.7-1.1,1.2-1.6c0.1-0.2,0.3-0.3,0.6-0.4
	c0.3,0,0.6-0.3,0.7-0.7c0.2-0.7,0.4-1.5,0.6-2.2h0.2l0,0v8.4l-0.6,0.2c0-0.2-0.1-0.4-0.1-0.6c0-0.9,0.1-1.9,0.1-2.8
	c0-0.2,0-0.3-0.1-0.4c-0.1-0.1-0.2-0.3-0.4-0.4c-0.1,0.2-0.2,0.3-0.2,0.5c0,0.6,0,1.1,0.1,1.7l-0.2,0.1c-0.1-0.2-0.3-0.4-0.4-0.6
	c-0.1-0.1-0.3-0.1-0.5-0.1c0,0.2,0,0.4,0.1,0.5c0.1,0.2,0.3,0.4,0.5,0.6c0.3,0.4,0.3,0.6-0.1,1c-0.1-0.3-0.1-0.5-0.2-0.7
	c-0.1-0.2-0.1-0.3-0.2-0.5c-0.2,0.1-0.3,0.2-0.5,0.3C1457.3,496.9,1457.2,496.9,1457.2,497z"/>
<path class="st1" d="M1483.2,489.5c0.2,0.7,0.2,1.4-0.1,2.1c-0.3-0.1-0.7,0-0.9,0.2c-0.4,0.3-0.9,0.6-1.3,0.9
	c-0.2,0.1-0.3,0.2-0.4,0.4c-0.1,0.1-0.2,0.2-0.3,0.3c-0.8,1.1-2,1.8-3.4,2.1c0.4-0.2,0.7-0.5,1-0.7c0.3-0.3,0.6-0.6,0.8-1
	c0.3-0.8,0.6-1.6,0.8-2.4c0-0.1,0.1-0.2,0.2-0.3C1480.6,490.2,1481.8,489.7,1483.2,489.5z"/>
<path class="st1" d="M1455.9,525.3c0.2,0.1,0.3,0.2,0.4,0.2c0.6,0,0.5,0.4,0.5,0.8s-0.2,0.4-0.4,0.4s-0.7,0.3-1,0.4
	c-0.2,0.1-0.4,0.1-0.6,0c-0.6-0.3-0.7-0.3-1,0.3s-0.7,0.5-1,0l0,0c-0.2-0.3-0.4-0.6-0.8-0.4c-0.2,0.1-0.3,0.4-0.5,0.6
	c-0.1-0.1-0.3-0.1-0.5-0.2c-0.4-0.2-0.8-0.1-1.1,0.2c-0.2,0.2-0.4,0.3-0.7,0.4v-0.1c0.2-0.5,0.4-0.9,0.6-1.3
	c0.1-0.2,0.5-0.2,0.7-0.3c0.4,0,0.7-0.1,1.1-0.1c-0.4-0.7-1-0.5-1.4-0.7l0.8-1.2c0.1,0.1,0.3,0.2,0.4,0.3c0.5,0.3,1.1,0.6,1.6,1
	c0.2,0.1,0.3,0.3,0.5,0.5c0.2,0.1,0.3,0.2,0.5,0.2c0-0.2,0.1-0.3,0.1-0.5s0-0.3,0.1-0.5c0.2,0,0.3,0.1,0.4,0.2
	c0.2,0.2,0.4,0.4,0.6,0.5c0.2,0.1,0.4,0.1,0.6,0.2c0-0.2,0-0.5,0-0.7c0-0.1-0.1-0.1-0.1-0.2L1455.9,525.3z"/>
<path class="st1" d="M1448.4,523.5l0.2,1.3c-0.5,0.4-1,0.8-1.5,1.1c-0.8,0.7-1.8,1.1-2.8,1.2c-0.4,0.1-0.9,0-1.2-0.3
	c-0.1-0.1-0.4-0.1-0.7-0.2c0.3-0.2,0.5-0.3,0.8-0.4c0.5-0.2,1.1-0.3,1.6-0.6c0.2-0.1,0.4-0.3,0.4-0.6c0-0.3-0.3-0.4-0.6-0.4h-1.8
	c0.6-0.4,1.2-0.6,1.9-0.6c0.4,0,0.8-0.1,1.2-0.2c0.1,0,0.2-0.1,0.4-0.1C1446.9,523.9,1447.7,523.8,1448.4,523.5z"/>
<path class="st1" d="M1454.4,532.4c0-1.4,0.1-2.8,0.1-4.2c0-0.3,0.1-0.5,0.1-0.8c0.3,0.2,0.7,0.1,1-0.2c0.2-0.2,0.5-0.3,0.8-0.3
	c0.5,0,0.7-0.2,0.6-0.7c0-0.1,0-0.3,0-0.4c0.1,0.1,0.1,0.2,0.2,0.4c0,1.4,0.1,2.8,0.1,4.2c-1,0.3-1.8,0.9-2.4,1.7
	C1454.7,532.2,1454.6,532.3,1454.4,532.4z"/>
<path class="st1" d="M1450,493.6c0.4,0.3,0.8,0.5,1.2,0.8c0.2,0.1,0.5,0.1,0.6-0.1c0,0,0-0.1,0.1-0.1c0.1-0.3-0.1-0.5-0.4-0.5
	c-0.1,0-0.3-0.1-0.4-0.2c-0.3-0.5-0.9-0.9-1.6-0.8c0.1-0.4,0.2-0.7,0.3-1.1s0.2-0.5,0.5-0.3c0.6,0.3,1.3,0.6,1.9,0.9
	c0.3,0.1,0.5,0.4,0.4,0.7c0,0,0,0,0,0.1c-0.1,0.5-0.2,0.9-0.2,1.4c-0.1,0.3-0.1,0.7,0.2,1c0.1,0.1,0.1,0.3,0,0.4
	c-0.1,0.1-0.2,0.2-0.4,0.2c-0.9-0.3-1.3,0.4-1.8,1c-0.3,0.4-0.5,0.7-0.9,1c-0.7,0.5-1.3,1-1.2,2c0,0.5-0.4,0.5-0.8,0.5
	c0.1-0.2,0.1-0.4,0.2-0.5c0.5-1,1.1-1.9,1.6-2.9c0.2-0.3,0.4-0.7,0.5-1.1c0.1-0.3,0.3-0.5,0.6-0.4c0,0,0,0,0,0
	c0.4,0,0.8,0.1,1.2,0.1c0.1,0,0.3-0.1,0.4-0.2c-0.1-0.1-0.2-0.2-0.4-0.3c-0.4-0.2-0.9-0.4-1.3-0.7
	C1450.2,494.1,1450.2,493.8,1450,493.6z"/>
<path class="st1" d="M1406.7,584.5c0-0.3,0.1-0.5,0.2-0.7c0.1-0.1,0.2-0.2,0.3-0.2c0.2,0,0.5,0,0.7-0.1c0.6-0.1,0.7-0.3,0.5-0.8
	l0.1-0.1c0.1,0.2,0.4,0.5,0.4,0.7c0.2,0.8,0,1.7-0.7,2.3c-0.1,0.1-0.2,0.2-0.2,0.3c-0.2,0.2-0.3,0.5,0,0.7s0.5,0,0.7-0.3l0.2-0.3
	c0.6,0.6,0.6,0.9,0,1.4c-1.1,1.2-2.6,2.1-4.2,2.4h-0.3l-0.1-0.1l1.7-1.4c0.1-0.1,0.3-0.2,0.4-0.3c0.1-0.2,0.1-0.4,0.1-0.5
	c-0.2,0-0.3,0-0.5,0c-0.4,0.1-0.8,0.2-1.3,0.3c0.3-0.4,0.8-0.7,1.3-0.8c0.4-0.1,0.8-0.2,1-0.7c0-0.1,0.3-0.2,0.4-0.3
	c0.1-0.2,0.3-0.4,0.4-0.5c0.1-0.1,0.1-0.2,0.2-0.3c0.3-0.3,0.3-0.5,0-0.8C1407.5,584.1,1407,584.2,1406.7,584.5L1406.7,584.5z"/>
<path class="st1" d="M1443.1,493.9c-0.2-0.3-0.4-0.6-0.6-0.9s-0.4-0.4-0.6-0.7s-0.6-0.4-0.3-0.9s0.8-0.8,1.3-0.6
	c0.9,0.3,1.8,0.5,2.7,0.6c0.3,0.1,0.6,0.2,0.8,0.5c0.3,0.3,0,0.6-0.2,0.8s-0.3,0.4-0.5,0.6c-0.4,0.5-1.1,0.8-1.8,0.6
	C1443.7,493.9,1443.4,493.9,1443.1,493.9z"/>
<path class="st1" d="M1440.1,504.6c0-1.8,0-3.6,0-5.3c0-0.2,0.1-0.4,0.2-0.5l0.3,0.3c0.6,0.5,0.7,0.5,1.3,0.1c0.1-0.2,0.4-0.2,0.6,0
	c0,0,0,0,0,0c0.2,0.1,0.4,0.3,0.6,0.4v0.2c-0.3-0.1-0.4,0.1-0.5,0.4c0,0.8-0.3,1.6-0.9,2.2c-0.1,0.1,0,0.3,0,0.4
	c0.1,0.1,0.2,0.3,0.4,0.4l-0.7,0.4l0.4,0.7C1441.1,503.8,1440.6,504.3,1440.1,504.6z"/>
<path class="st1" d="M1435.8,545.4c0,0.2,0,0.4,0,0.6c-0.2,0.6-0.4,1.2-0.7,1.8c-0.4,0.8-0.6,1.7-0.5,2.5c0,0.6,0,1.2-0.1,1.8
	c-0.1,0.2-0.1,0.4-0.3,0.5c-0.4-0.4-0.6-0.9-0.6-1.5c-0.1-0.9-0.6-1.6-1.4-2l-0.7-0.4c1-0.5,0.7-1.5,1-2.3c0.3,0.4,0.6,0.8,0.9,1.2
	c0.5,0.5,0.8,0.5,1-0.2s0.5-1.1,0.7-1.6c0.1-0.2,0.3-0.3,0.4-0.5L1435.8,545.4z"/>
<path class="st1" d="M1475.6,490.9h3.5c-0.1,0.3-0.1,0.5-0.2,0.6c-0.2,0.6-0.4,1.3-0.7,1.9c-0.2,0.4-0.5,0.8-0.8,1.1
	c-0.3,0.3-0.7,0.6-1.1,0.8c-0.3,0.1-0.6,0.2-0.9,0.1c0.3-0.3,0.6-0.6,0.9-0.9c0.2-0.2,0.2-0.5,0.1-0.7c0,0,0,0-0.1-0.1
	c-0.3-0.3-0.6-0.6-0.9-0.9L1475.6,490.9z"/>
<path class="st1" d="M1414.5,586c0.1,0.2,0.2,0.4,0.2,0.5c0,0.7,0,1.4,0,2c-1.7,0.6-3.4,0.9-5.2,1c0.3-0.9,0.9-1.6,1.7-2.1
	c0.6-0.3,1.2-0.5,1.8-0.7S1414.1,586.2,1414.5,586z"/>
<path class="st1" d="M1445.6,499.1v0.2l0.1,1c-0.6,0.7-0.8,0.7-1.2,0s-1.2-1-1.9-1.5c-0.2-0.1-0.6,0.1-0.8,0.2s-0.3,0.2-0.4,0.4
	c-0.1-0.2-0.1-0.3-0.2-0.4c-0.2-0.5-0.3-0.9-0.5-1.4c0-0.1,0-0.4,0-0.4c0.3-0.2,0.7-0.4,1.2-0.6c0,0.3,0,0.5,0.1,0.6
	c0,0.2,0.1,0.5,0.1,0.7c0.1,0.2,0.3,0.3,0.4,0.4c0.1-0.2,0.1-0.4,0.2-0.5c0-0.4-0.1-0.8-0.2-1.2c0.4,0,0.8,0,1.2,0.1
	c0.8,0.2,0.9,0.6,0.6,1.3c-0.1,0.3-0.2,0.6-0.3,0.8c0.3-0.1,0.6-0.1,0.9-0.3c0.2-0.1,0.3-0.2,0.4-0.3L1445.6,499.1z"/>
<path class="st1" d="M1443.8,488.8c0.3-0.4,0.8-0.6,1.3-0.6c0.3,0,0.5-0.1,0.7-0.2l1.3-0.5v1.4l1.3-0.7l0.7,1.1
	c-0.1,0.1-0.3,0.2-0.4,0.3c-0.4,0.4-0.9,0.8-1.3,1.2c-0.2,0.2-0.3,0.3-0.6,0.1c-0.2-0.1-0.5-0.2-0.7-0.2c-0.4-0.1-0.9-0.1-1.5-0.1
	l0.2-0.1l0.7-0.4c-0.2-0.2-0.4-0.4-0.6-0.6C1444.4,489.1,1444.1,488.9,1443.8,488.8z"/>
<path class="st1" d="M1421.7,512.1c-0.1-0.3-0.1-0.7-0.2-1c0-0.1-0.2-0.3-0.3-0.4c-0.1,0.1-0.2,0.2-0.2,0.4c-0.1,0.6-0.2,1.2-0.3,2
	c-0.2-0.4-0.1-0.8-0.8-0.7l0.2,1.8c-0.8,0-1.6-0.6-1.8-1.4c0-0.2-0.1-0.4-0.2-0.5c-0.4-0.8,0-1.7,0.7-2.1c0,0,0,0,0,0
	c0.3-0.1,0.5-0.4,0.4-0.7c0-0.3,0-0.5,0.1-0.8h0.2v0.7l0.8-0.1l0.1,0.1c-0.2,0.2-0.3,0.4-0.5,0.5c-0.2,0.1-0.4,0.3-0.6,0.4
	c-0.1,0.1-0.2,0.4-0.1,0.5c0.4,0.4,0,0.5-0.2,0.6s-0.5,0.2-0.4,0.5s0.3,0.4,0.6,0.5c0.1,0,0.2,0,0.3-0.1c0.6-0.9,1.3-1.9,1.9-2.8
	c0.1-0.1,0.1-0.3,0.2-0.4c0.1-0.1,0.3-0.1,0.4-0.1c0,0.9,0,1.7,0,2.6C1421.9,511.8,1421.8,512,1421.7,512.1z"/>
<path class="st1" d="M1454.1,492.7l0.1,0.6v0.2l-0.1,1c-0.4,0.7-0.9,1.3-1.4,2c-0.2,0.2-0.7,0.2-1,0.4c-0.2,1.1-1,1.9-2.1,2.1
	c-0.1,0-0.2,0.2-0.3,0.2c0.1,0.1,0.2,0.2,0.3,0.3c0.1,0,0.2,0.1,0.3,0.2c-0.3,0-0.7,0.1-1,0.1s-0.5-0.2-0.3-0.5
	c0.3-0.4,0.6-0.8,0.9-1.1c0.5-0.3,0.8-0.8,1.1-1.3c0.3-0.5,0.8-0.9,1.4-0.9c0.9-0.1,1.1-0.4,0.6-1.2c-0.1-0.1-0.1-0.2-0.1-0.4
	c0-0.2,0-0.3,0.1-0.5C1452.9,492.8,1452.9,492.8,1454.1,492.7z"/>
<path class="st25" d="M1457.3,541.7c0,0.2,0.1,0.4,0.1,0.6c0,1.8,0,3.5,0,5.3c0,0.2-0.1,0.4-0.2,0.6c-0.4-0.2-0.7-0.6-0.8-1
	c-0.1-0.8-0.5-1.5-1.2-1.9c0-0.7,0.1-1.3,0.1-2l1.5-1.2L1457.3,541.7z"/>
<path class="st1" d="M1475.6,490.9l-0.1,2c-0.6-0.2-1.3,0-1.7,0.6c-0.4,0.5-0.9,0.9-1.4,1.3c0-0.9,0-1.8,0-2.6c0-0.2,0-0.4-0.3-0.4
	v-0.1c0.6-1.2,1.7-0.9,2.7-0.8L1475.6,490.9z"/>
<path class="st1" d="M1471.5,507.1l-0.1,1.1c-0.8-0.1-0.8-0.2-0.9-1c0-0.5-0.3-0.9-0.7-1.1c-0.5-0.2-0.9-0.7-0.9-1.2
	c0-0.2-0.3-0.4-0.4-0.6c-0.6-0.7-1.6-0.9-2.4-1.5c-0.6-0.6-1.4-0.8-2.2-0.7c-0.2,0-0.6-0.1-0.6-0.3c0-0.2,0.1-0.5,0.2-0.7
	c0.3-0.2,0.6-0.5,0.9-0.7l-0.2,0.8h0.9v-0.1l0.7,0.5l-0.1,0.6c0.3,0,0.5,0,0.8-0.1c0.4-0.1,0.8,0,1.1,0.3c0.4,0.4,0.9,0.9,1.3,1.3
	c0.4,0.3,0.6,0.8,0.5,1.4c0,0.3,0.1,0.4,0.3,0.5C1470.4,506.1,1470.9,506.6,1471.5,507.1z"/>
<path class="st1" d="M1410.8,591.3c-0.3,0.3-0.7,0.5-1.1,0.7c-0.2,0.1-0.4,0.3-0.4,0.6c0,0.3-0.1,0.6-0.3,0.8
	c-0.5,0.5-1,0.9-1.5,1.3c-0.1,0-0.1,0.1-0.2,0.1l-2.4,0.8c0-0.2,0.1-0.4,0.2-0.6c0.3-0.3,0.6-0.7,0.9-1c0.3-0.2,0.4-0.6,0.4-0.9
	c0-0.2,0.1-0.4,0.2-0.5c0.6-0.6,1.1-1.1,1.7-1.7c0,0,0.1,0,0.3-0.1c-0.2,0.4-0.4,0.7-0.6,1.1c0,0.2-0.1,0.4-0.1,0.5
	c0.2,0,0.4,0,0.6-0.1c0.6-0.3,1.2-0.7,1.8-1.1l0.3-0.2L1410.8,591.3z"/>
<path class="st1" d="M1448.5,481.6v1.2l-1.3,0.2c-0.4,0.1-0.7,0.2-0.8,0.8c0,0.1-0.3,0.3-0.5,0.4s-0.6,0.2-0.7,0.6s-0.6,0.4-1,0.3
	c0.1-0.3,0.2-0.7,0.2-1c-0.1-0.3-0.4-0.5-0.7-0.8c0.3-0.2,0.6-0.4,0.9-0.5s0.4,0,0.3,0.3c-0.1,0.2-0.1,0.5-0.1,0.7
	c0,0.2,0.1,0.4,0.4,0.3c0.6-0.4,0.7-1.2,0.4-1.8c0,0,0-0.1,0-0.1c0.8-0.4,0.7-0.4,0.2-1c-0.1-0.2-0.2-0.5-0.1-0.7
	c0-0.1,0.3-0.2,0.4-0.2s0.3,0.2,0.3,0.3c0.1,0.2,0.1,0.5,0.2,0.7c0,0.3,0,0.7,0,1c0,0.1,0.1,0.3,0.2,0.4c0.1-0.1,0.3-0.2,0.3-0.3
	c0.1-0.3,0.1-0.5,0.1-0.8c0-0.4,0-0.8,0-1.2C1447.8,480.6,1448.4,480.9,1448.5,481.6z"/>
<path class="st1" d="M1472,491.6c0.3,0,0.3,0.2,0.3,0.4c0,0.9,0,1.8,0,2.6c-0.6,0.2-1.3,0.4-1.9,0.6c-0.4,0.1-0.8,0.2-1.3,0.2
	s-0.5-0.1-0.5-0.5c0-0.4,0.2-0.9,0.3-1.3c0.1-0.2,0.5-0.3,0.7-0.3c0.5,0,0.9-0.2,1.2-0.6C1471.3,492.4,1471.6,492,1472,491.6z"/>
<path class="st1" d="M1460.1,498v-8.4c0.5,0.6,0.8,1.4,0.6,2.2c-0.2,0.9,0.4,1.4,1.5,1.3c0,0.2,0,0.3-0.1,0.5
	c-0.3,0.7-0.7,1.5-1,2.2c-0.2,0.5-0.4,1.1-0.6,1.6C1460.4,497.6,1460.2,497.8,1460.1,498z"/>
<path class="st1" d="M1417.5,515.9c0.1-0.1,0.3-0.1,0.4-0.2c0.2,0,0.4,0,0.5,0.1s0.1,0.5,0,0.5c-0.6,0.6-0.8,1.4-1.8,1.6
	c-0.3,0.1-0.6,0.5-0.8,0.8s-0.5,0.6-0.7,0.8l-0.1-0.1c0-0.1,0-0.2,0-0.2c0.5-0.4,0.4-0.9,0.5-1.5c0.1-0.4,0.2-0.8,0.4-1.2
	c0.1-0.2,0.3-0.4,0.4-0.7c0.1-0.5,0.3-1,0.7-1.4c0.1-0.1,0.1-0.3,0.1-0.5c0.1-0.6-0.1-1.4,0.7-1.7l0.3,1.3h-0.4v0.1
	c-0.1,0.3-0.1,0.5-0.2,0.8s-0.2,0.8-0.3,1.2L1417.5,515.9z"/>
<path class="st1" d="M1445.6,499.1l-0.3-0.9c0-0.4-0.1-0.7-0.1-1.1c0-0.2-0.2-0.4-0.1-0.5c0.2-0.2,0.5-0.4,0.7-0.5
	c0.1,0,0.2,0,0.3,0.1c0.5,0.4,0.9,0.2,1.4-0.2c0.5-0.4,1.2-0.6,1.8-0.6c-0.7,1.1-1.3,2.1-1.9,3c-0.2,0.3-0.7,0.3-1,0.5L1445.6,499.1
	z"/>
<path class="st1" d="M1464.3,491.4l-1.4,1c-0.1-0.1-0.2-0.3-0.4-0.4c-0.2-0.1-0.4-0.1-0.6-0.2c0,0.2,0.1,0.4,0.1,0.6
	c0,0,0,0.1,0.1,0.1c-0.4,0.5-0.5,0.5-0.8,0c-0.4-0.4-0.4-1.1,0-1.5c0,0,0.1-0.1,0.1-0.1c0.7-0.6,1.3-1.2,2-1.8
	c0.2-0.2,0.5-0.3,0.8-0.4c0,0.2,0.1,0.4,0.1,0.5C1464.3,490,1464.3,490.7,1464.3,491.4z"/>
<path class="st1" d="M1421.7,512.1c0.1-0.2,0.3-0.3,0.3-0.5c0-0.9,0-1.7,0-2.6c0.1,0.3,0.2,0.5,0.2,0.8s0,0.5,0.3,0.5
	s0.4-0.2,0.4-0.5c0.1-0.6,0-1.2-0.3-1.8c-0.2-0.3,0-0.8,0.2-1.2c0.2-0.1,0.5-0.1,0.7,0c0.7,0.2,0.7,0.2,0.5,1s-0.3,1.5-0.3,2.3
	c0,0.7-0.4,1.4-0.9,1.9c-0.3,0.2-0.5,0.5-0.8,0.7l-0.2-0.4L1421.7,512.1z"/>
<path class="st1" d="M1451.1,516.1c-0.3,0.5-0.8,0.8-1.4,0.8c-0.8,0-1.6-0.1-2.4-0.1c-0.3,0-0.7,0-1.1,0c0-0.4,0.1-0.8,0.3-1.2
	c0.1-0.2,0.1-0.5,0.1-0.9l0.3,0.1c0.3,0.1,0.6,0.3,0.8-0.3c0.1-0.3,0.4-0.5,0.7-0.8c0,0.3,0,0.5,0,0.7c0,0.6,0.4,1,0.9,1.1
	c0,0,0,0,0.1,0c0.5,0,1,0,1,0.7c0.1,0.1,0.2,0.1,0.4,0.1C1450.8,516.3,1451,516.2,1451.1,516.1z"/>
<path class="st1" d="M1465.5,522.7l0.1-4l1.4,1.3c0,1.2,0,2.4,0,3.6c0,0.3-0.1,0.5-0.1,0.8c-0.2-0.3-0.4-0.6-0.5-1
	C1466.3,523,1465.9,522.6,1465.5,522.7C1465.5,522.6,1465.5,522.6,1465.5,522.7z"/>
<path class="st1" d="M1419.7,580.3c0,0.5,0,0.9,0,1.3c0,0.1-0.1,0.2-0.1,0.2c-0.5,0.4-1,0.8-1.6,1.2s-1.3,0.8-1.9,1.1
	c-0.2,0.1-0.5,0.1-0.8,0C1416.4,582.6,1417.9,581.3,1419.7,580.3z"/>
<path class="st1" d="M1412.9,613.8v-2.1c0-0.3,0-0.7,0-1c0.1-0.4,0-0.8-0.4-1l2-0.3c-0.2,1.5,0.1,2.9-1.2,3.9
	C1413.2,613.5,1413,613.7,1412.9,613.8z"/>
<path class="st1" d="M1413,582.4c-0.4-0.4-0.5-0.1-0.7,0.1s-0.4,0.4-0.5,0.3c-0.2-0.1-0.6-0.4-0.6-0.6c0-0.5-0.3-0.5-0.7-0.6
	c0.6-0.5,1-0.9,1.5-1.3c0.2-0.2,0.6-0.3,0.9-0.1c0.4,0.2,0.5,0.6,0.5,1C1413.3,581.5,1413.1,581.9,1413,582.4z"/>
<path class="st1" d="M1424.9,594.4v-7.8c0-0.2,0.1-0.5-0.3-0.5l0.5-0.3c0.1,0.2,0.2,0.3,0.2,0.5c0.1,0.6,0.1,1.2,0.1,1.9
	c0,1.8,0,3.7-0.1,5.5C1425.4,594,1425.4,594.4,1424.9,594.4z"/>
<path class="st1" d="M1420.6,587c0-0.3,0-0.5,0.1-0.8c0.3-0.7,0.7-1.3,1.1-1.9c0.2-0.4,0.4-0.7,0.7-1.1c0.4-0.7,0.7-0.7,1.2,0.1
	c-0.2,0.1-0.4,0.2-0.6,0.4c-0.1,0.1-0.2,0.3-0.2,0.5c0.1,0.1,0.3,0.1,0.4,0.2c0.2,0,0.5,0,0.8,0c0.1,0.3,0,0.5-0.3,0.5
	c-0.1,0-0.2,0-0.3,0C1422.5,585.5,1421.3,585.9,1420.6,587L1420.6,587z"/>
<path class="st1" d="M1453.6,513.7c0.8-0.9,2-1.3,3.2-0.9c0.7,0.1,1.4,0.2,2.2,0.3c0.2,0,0.5,0.1,0.6,0.3c0.1,0.2,0,0.5-0.2,0.7
	s-0.4,0.2-0.7,0c-0.5-0.3-1-0.6-1.5-0.8c-0.2-0.1-0.4-0.1-0.6,0C1455.8,513.8,1454.7,513.9,1453.6,513.7z"/>
<path class="st1" d="M1442.2,486c0-0.8-0.1-1.5-0.1-2.3c0,0,0.1-0.1,0.2-0.2c0.1,0.2,0.2,0.4,0.3,0.6c0.2,0.4,0.5,0.4,0.8,0.1
	l0.4-0.5c0.7,0.4,0.5,0.8,0.2,1.3c-0.1,0.3-0.3,0.6-0.3,0.9c-0.1,0.5-0.2,1-0.3,1.5h-0.2c-0.1-0.4-0.2-0.9-0.3-1.3
	S1442.5,485.7,1442.2,486z"/>
<path class="st1" d="M1467.6,504.2l-0.4-0.2c0,0.6-0.4,0.6-0.8,0.6s-0.9,0.3-1.3,0.3s-0.9,0.1-1.4,0.1c0.1-0.7,0.3-0.8,0.8-0.8
	c0.5,0,1.1-0.2,1.4-0.5c0.3-0.3,0.2-0.5-0.2-0.6c-0.5-0.2-1-0.4-1.6-0.6v-0.2c0.2,0,0.5-0.1,0.7,0c0.8,0.5,1.5,1,2.2,1.4
	c0.2,0.1,0.5,0.2,0.7,0.3L1467.6,504.2z"/>
<path class="st1" d="M1464.3,491.4c0-0.7,0-1.4,0-2.1c0-0.2-0.1-0.4-0.1-0.5c0.1,0,0.3,0,0.4,0c0.7,0.6,1.3,1.2,2,1.8
	c0.2,0.1,0.5,0.3,0.7,0.3c0,0-0.1,0.1-0.1,0.1C1466.2,491,1465.2,491.1,1464.3,491.4z"/>
<path class="st1" d="M1435,501.3c-0.6,0-1.2,0.2-1.6-0.4c0.4,0,0.6-0.1,0.5-0.5s0.2-0.4,0.4-0.3c0.2,0.1,0.3,0.2,0.5,0.3
	c0.2,0.2,0.4,0.3,0.7,0.5c0.6,0.4,0.9,1.1,0.6,1.8c-0.1,0.1-0.3,0.2-0.5,0.2c-0.1,0-0.2-0.2-0.3-0.3s0-0.1-0.1-0.2
	C1434.8,502.2,1434.8,501.8,1435,501.3z"/>
<path class="st1" d="M1427.3,584.6L1427.3,584.6c-0.4-0.2-0.8-0.4-1.3,0c-0.1,0.1-0.3,0-0.4,0s-0.4-0.1-0.6-0.2l-0.1-1.2l2.5-0.6
	l0.1,0.2c-0.1,0.2-0.2,0.4-0.4,0.6C1426.8,584,1426.8,584.1,1427.3,584.6z"/>
<path class="st1" d="M1455.6,525.1c-0.5-0.4-1-0.5-1.6-0.6c-0.4,0-0.8-0.2-1.1-0.5c-0.3-0.2-0.3-0.5,0.1-0.7s0.8-0.3,1.2-0.5
	s0.9,0.3,1,0.8s0.3,0.9,0.4,1.3L1455.6,525.1z"/>
<path class="st1" d="M1414.4,581.4c0.8-0.6,1.9-0.9,2.9-0.9l-1,1.1c-0.1,0.2-0.2,0.5-0.4,0.5c-0.5,0.1-1,0.3-1.5,0.3L1414.4,581.4z"
	/>
<path class="st1" d="M1443.1,499.7v-0.2c0.3,0.2,0.5,0.4,0.8,0.6c0.3,0.3,0.6,0.7,0.9,1.1c-0.5,0.7-1.1,1.2-1.8,1.7
	c-0.2-0.7,0-1.4,0.6-1.9c0.3-0.2,0.2-0.3,0.1-0.5S1443.3,500,1443.1,499.7z"/>
<path class="st1" d="M1437.5,535.6c0.5,1.1,0.2,1.7-1,2c-0.3,0.1-0.6,0.2-0.8,0.3l-0.5,0.3C1435.6,537.1,1436.4,536.1,1437.5,535.6z
	"/>
<path class="st1" d="M1413.6,577.6l-1.1-1.3l0.8-0.3c-0.2-0.1-0.4-0.3-0.5-0.5c-0.3-0.2-0.4-0.7-0.2-1c0.2-0.3,0.4-0.5,0.7-0.6
	c0.3-0.1,0.5,0,0.5,0.4s-0.2,0.6-0.2,1s-0.1,0.7-0.1,1c0,0,0,0.1,0,0.1c-0.4,0.5,0,0.8,0.2,1.1L1413.6,577.6z"/>
<path class="st1" d="M1446.2,485.3c-0.2,0.2-0.3,0.5-0.5,0.7c-0.3,0.3-0.6,0.6-0.9,0.9c-0.3,0.2-0.4,0-0.5-0.3s-0.1-0.7-0.2-1.2
	l0.8-0.1c0.3-0.1,0.7-0.1,0.8-0.6c0-0.1,0.3-0.2,0.5-0.4L1446.2,485.3z"/>
<path class="st1" d="M1467.5,492.5c0.5-0.4,0.8-1,1.7-1.1c-0.7,0.9,0,2.1-0.7,3L1467.5,492.5z"/>
<path class="st1" d="M1449.9,500.1c-0.2,0.4-0.6,0.6-1,0.6c-0.3,0-0.4,0.1-0.4,0.4c-0.1,0.5-0.7,0.9-1.2,0.7c-0.1,0-0.2-0.1-0.3-0.1
	c-0.3-0.3-0.3-0.6,0.1-0.8s0.7-0.3,1.1-0.4c0.1,0,0.2-0.1,0.4-0.1C1448.9,500,1449.4,499.9,1449.9,500.1z"/>
<path class="st1" d="M1445.1,477.2c0.4,0,0.7,0.1,1.1,0.3c0.3,0.3,0.4,0.6,0.4,1c0,0.4-0.6,0.7-1,0.6c-0.4,0-0.7-0.4-0.7-0.8
	c0-0.1,0-0.1,0-0.2C1445,477.9,1445.1,477.5,1445.1,477.2z"/>
<path class="st1" d="M1444.7,504.7c-0.8-0.8-0.8-1.1-0.2-1.8c0.3-0.3,0.6-0.6,0.9-0.8c0.1-0.1,0.3-0.2,0.4-0.2l0.2,0.1L1444.7,504.7
	z"/>
<path class="st1" d="M1449.6,512.6l1.4,2.3l-0.1,0.2c-0.4-0.1-1.2-0.1-1.3-0.4C1449.4,514,1448.6,513.3,1449.6,512.6z"/>
<path class="st1" d="M1424.6,559.2c-1.1,0.3-2.2,0.5-3.3,0.6l-0.1-0.2c0.2-0.2,0.4-0.3,0.6-0.5
	C1422.6,558.5,1423.8,558.6,1424.6,559.2z"/>
<path class="st1" d="M1409.7,592.7c0-0.1,0-0.1,0-0.1c0.9-0.6,1.5-1.7,2.6-2.1c0.2,0,0.3,0,0.5,0c0,0.2,0,0.4-0.1,0.5
	c-0.9,0.6-1.8,1.2-2.8,1.8C1409.8,592.8,1409.7,592.7,1409.7,592.7z"/>
<path class="st1" d="M1420.1,562.1c0.4-0.4,0.9-0.7,1.4-0.8c0.5,0,1,0.1,1.5,0.2C1422.8,562.1,1421.6,562.4,1420.1,562.1z"/>
<path class="st1" d="M1416.4,574.4c0.2,0.3,0.3,0.5,0.4,0.7c0.3,0.7,0.3,0.8-0.4,1c-0.2,0.1-0.4,0.2-0.5,0.4
	c-0.1,0.1-0.3,0.1-0.4,0.1c-0.1-0.1-0.2-0.2-0.1-0.4C1415.6,575.5,1415.9,574.9,1416.4,574.4z"/>
<path class="st1" d="M1446.2,485.3v-0.9l0.8-0.5c0.4,0.1,0.6,0.4,0.6,0.8c0,0.1-0.1,0.2-0.2,0.3c-0.2,0.3-0.5,0.6-0.7,0.9
	C1446.5,485.7,1446.7,485.2,1446.2,485.3z"/>
<path class="st1" d="M1465,509.8c0.2,0.4,0.4,0.7,0.6,1.1c0.1,0.2,0,0.5-0.1,0.7c-0.2,0-0.4,0-0.6-0.1c-1.1-0.6-1.1-0.6-0.3-1.4
	L1465,509.8z"/>
<path class="st1" d="M1436.9,545.4c0.3-1,2.3-1.8,3.1-1.2L1436.9,545.4z"/>
<path class="st1" d="M1404.6,600.9l0.5-0.6l-0.2-0.3l0.4-0.7c0.3-0.1,0.4-0.1,0.6-0.2c0.1,0,0.3,0,0.4,0c0.1,0.1,0.2,0.2,0.1,0.4
	c-0.1,0.3-0.3,0.5-0.5,0.7c-0.4,0.2-0.8,0.5-1.2,0.7C1404.7,600.9,1404.7,600.9,1404.6,600.9L1404.6,600.9z"/>
<path class="st1" d="M1435.4,549.1c0.7-0.5,1.2-1.4,1.2-2.3c0.3,0.2,0.5,0.4,0.7,0.7c0,0.1-0.2,0.3-0.3,0.5s-0.3,0.2-0.3,0.3
	C1436.5,549,1436,549.1,1435.4,549.1z"/>
<path class="st1" d="M1457.3,524.7l-0.3,0.8c-0.5-0.1-1-0.4-1.3-0.9c-0.1-0.2-0.2-0.4-0.3-0.6L1457.3,524.7z"/>
<path class="st1" d="M1402.4,590.1c0.5,0,0.7-0.1,0.9,0.3c0.2,0.5,0.8,0.7,1.3,0.5l-0.6,1.1c-0.5-0.8-0.9,0.4-1.4-0.1l1.4-0.7
	L1402.4,590.1z"/>
<path class="st1" d="M1413.1,585.1c-0.4-0.3-0.2-0.6-0.1-0.8c0.2-0.5,0.7-0.8,1.3-0.8C1414.2,584.3,1413.6,584.6,1413.1,585.1z"/>
<path class="st1" d="M1400.4,611.9l-1,2.7c-0.3-0.2,0.2-1-0.6-0.9c0-0.1,0-0.1,0-0.2c0.4-0.5,0.8-0.9,1.2-1.4
	C1400.1,612,1400.2,611.9,1400.4,611.9L1400.4,611.9z"/>
<path class="st1" d="M1413.1,525l-0.4,1.3c-0.4-0.5-0.9-0.3-1.6,0.7C1411.1,526.3,1412.2,525.2,1413.1,525z"/>
<path class="st1" d="M1409.9,584.2l1,0.2c-0.3,0.6-0.3,0.6,0.3,0.7c0.2,0.1,0.3,0.2,0.5,0.3l-0.7,0.2c-0.3,0.1-0.6-0.1-0.7-0.3
	c0,0,0-0.1,0-0.1C1410.2,584.8,1410.1,584.5,1409.9,584.2z"/>
<path class="st1" d="M1429.3,550.1c-0.3,0.2-0.7,0.3-1,0.4c-0.1,0-0.4-0.1-0.4-0.1c0-0.2,0-0.4,0.1-0.6
	C1428.3,549.4,1428.9,549.5,1429.3,550.1z"/>
<path class="st1" d="M1430.2,502c0.3,0.5,0.3,1.2-0.1,1.7c-0.1-0.2-0.2-0.4-0.4-0.6s-0.3-0.3-0.4-0.4L1430.2,502z"/>
<path class="st1" d="M1463.4,500.1l-1.8,0.3C1462,499.5,1462.7,499.4,1463.4,500.1z"/>
<path class="st1" d="M1400.5,609.7c-0.1,0.3-0.2,0.6-0.4,0.9c-0.5,0.7-0.7,1.6-1.8,1.7C1399.6,611.8,1399.6,610.4,1400.5,609.7z"/>
<path class="st1" d="M1444.2,505.5l-1.5,0.6c0.1-0.6,0.3-0.9,0.7-1c0.3,0,0.6,0.1,0.8,0.2L1444.2,505.5z"/>
<path class="st1" d="M1406.9,597.1c-0.2,0.2-0.4,0.3-0.5,0.5l-0.8,0.8c-0.1,0-0.1,0.1-0.2,0.1c0-0.1-0.1-0.2-0.1-0.3
	C1405.6,597.4,1406.2,597,1406.9,597.1z"/>
<path class="st1" d="M1416.5,566.5c-0.2,0.5-0.3,0.9-0.4,1.2c0,0.1-0.2,0.2-0.3,0.2c-0.1-0.1-0.2-0.2-0.2-0.3
	C1415.5,567.2,1415.8,566.8,1416.5,566.5z"/>
<path class="st1" d="M1396.7,621l0.7-0.6c0.3,0.3,0.5,0.8,0.3,1.3L1396.7,621z"/>
<path class="st1" d="M1401.1,593.9l-0.7,0.9c-0.1-0.2-0.2-0.5-0.3-0.7c0-0.2,0-0.4,0.1-0.5c0.2,0,0.3,0.1,0.5,0.1
	C1400.8,593.7,1401,593.8,1401.1,593.9L1401.1,593.9z"/>
<path class="st1" d="M1413.6,569.5c-0.5,0.2-0.2,1.1-1.1,0.9c0.1-0.3,0.3-0.5,0.4-0.8c0.1-0.1,0.4-0.2,0.6-0.2L1413.6,569.5z"/>
<path class="st1" d="M1417.4,564.2l-0.4,1.8c-0.4-0.5-0.3-1.2,0.1-1.6C1417.2,564.3,1417.3,564.2,1417.4,564.2z"/>
<path class="st1" d="M1408,576.6c0.3-0.6,0.3-0.6,1-0.1l-0.5,0.2l0.2,0.2l0.5-0.2c0,0.4-0.3,0.5-0.5,0.4
	C1408.4,577,1408.2,576.8,1408,576.6z"/>
<path class="st1" d="M1430.6,547.9c-0.1-0.8,0.4-1.6,1-1.5L1430.6,547.9z"/>
<path class="st1" d="M1416.6,569.2c-0.2,0.1-0.4,0.3-0.6,0.3s-0.3-0.3-0.4-0.5c0.2-0.1,0.3-0.3,0.5-0.3c0.2,0,0.4,0.1,0.6,0.2
	L1416.6,569.2z"/>
<path class="st1" d="M1419.9,514.8c-0.3-0.2-0.6-0.3-1,0c0,0-0.3-0.1-0.3-0.2c0-0.2,0-0.4,0-0.6
	C1419.1,514.1,1419.6,514.3,1419.9,514.8z"/>
<path class="st1" d="M1431.6,541.4c0,0.6-0.4,1.1-1,1.1c-0.1,0-0.2,0-0.3,0L1431.6,541.4z"/>
<path class="st1" d="M1404.5,584.8c-0.1,0.6-0.3,1.1-0.8,1.5l-0.2-0.1l0.8-1.4L1404.5,584.8z"/>
<path class="st1" d="M1448.2,526.7c0,0.6-0.6,1.2-1.2,1.1c0,0-0.1,0-0.1,0L1448.2,526.7z"/>
<path class="st1" d="M1430,548.7c-0.3-0.1-0.6-0.2-0.8-0.3c-0.1-0.1-0.1-0.2-0.1-0.4c0.1-0.1,0.3-0.2,0.3-0.1
	c0.2,0.2,0.5,0.4,0.7,0.6L1430,548.7z"/>
<path class="st1" d="M1407.1,599.3l0.4-1.7c0.2,0.6,0.1,1.2-0.2,1.7L1407.1,599.3z"/>
<path class="st1" d="M1401,604.8c0,0.6-0.2,1.2-0.7,1.6h-0.1l0.6-1.6L1401,604.8z"/>
<path class="st1" d="M1429.6,508.5v-1.1l0.6,0.1c-0.1,0.2-0.1,0.4-0.2,0.6C1429.9,508.3,1429.8,508.4,1429.6,508.5z"/>
<path class="st1" d="M1405.7,585.6l-0.7,0.5l0.3-1.4L1405.7,585.6z"/>
<path class="st1" d="M1460.7,509.4c0-0.3,0-0.7,0-1c0-0.2,0.2-0.3,0.3-0.4c0.1,0.3,0.1,0.7,0.1,1
	C1461,509.1,1460.8,509.2,1460.7,509.4z"/>
<path class="st1" d="M1458.3,508.6c-0.3-0.3-0.5-0.5-0.6-0.7s0.3-0.4,0.4-0.6l0.1,0.1V508.6z"/>
<path class="st1" d="M1452.2,547.4l-0.2-1.3c0.4-0.1,0.6,0.2,0.5,0.5C1452.4,546.9,1452.3,547.2,1452.2,547.4z"/>
<path class="st1" d="M1468.4,504.6c0.1,0.2,0.2,0.5,0.3,0.7c0.1,0.2,0.1,0.4,0.1,0.7l-0.6-0.9L1468.4,504.6z"/>
<path class="st1" d="M1402.7,624.6l1.3,0.8C1403.3,625.6,1403,625.4,1402.7,624.6z"/>
<path class="st1" d="M1417.6,567.2l-0.2,1.4C1417,568.1,1417.1,567.7,1417.6,567.2z"/>
<path class="st1" d="M1403.3,618.5c0.3-0.5,0.8-0.4,1.3-0.3l-1.3,0.5L1403.3,618.5z"/>
<path class="st1" d="M1445.6,500.3l-0.1-1l0.6,0.3L1445.6,500.3z"/>
<path class="st1" d="M1444.5,481.8V481l0.2-0.1c0.1,0.1,0.2,0.3,0.2,0.4c0,0.2-0.1,0.4-0.2,0.5L1444.5,481.8z"/>
<path class="st1" d="M1401.4,611.5l-0.4,1.1l-0.3-1L1401.4,611.5L1401.4,611.5z"/>
<path class="st1" d="M1392.3,617.8l-0.3,0.4c-0.1-0.2-0.3-0.4-0.4-0.6c0,0,0.1-0.2,0.2-0.3L1392.3,617.8z"/>
<path class="st1" d="M1404.7,602.8l-0.8,1.3l-0.2-0.1C1403.9,603.5,1404.3,603.1,1404.7,602.8L1404.7,602.8z"/>
<path class="st1" d="M1413.7,570.6l-1,0.6C1412.7,570.7,1412.9,570.6,1413.7,570.6z"/>
<path class="st1" d="M1425.4,558.2c0.3,0,0.5,0.1,0.8,0.1c0,0,0,0.2,0,0.3l-0.8-0.1L1425.4,558.2z"/>
<path class="st1" d="M1431.1,536.5l0.1-1h0.3l-0.1,1H1431.1z"/>
<path class="st1" d="M1402.1,593.7l1-1.2l0.2,0.2L1402.1,593.7L1402.1,593.7z"/>
<path class="st1" d="M1404.6,594.1l-1.1,0.3C1403.8,593.9,1404.2,593.8,1404.6,594.1z"/>
<path class="st1" d="M1410.3,568.6c-0.3-0.1-0.4-0.4-0.3-0.6c0-0.1,0.1-0.1,0.1-0.2c0.1,0,0.2-0.1,0.3,0c0.1,0.1,0.1,0.2,0.1,0.3
	C1410.5,568.3,1410.4,568.5,1410.3,568.6z"/>
<path class="st1" d="M1399.6,588.3c0,0.1,0.1,0.2,0.1,0.3c0,0.1,0,0.2,0,0.3l-0.7,0.3l0.5-0.9L1399.6,588.3z"/>
<path class="st1" d="M1473.4,494.8l0.9-0.5c0,0.5-0.2,0.7-0.8,0.7L1473.4,494.8z"/>
<path class="st1" d="M1393.4,602.8l0.3-0.3l0.6,1l-0.1,0.1L1393.4,602.8z"/>
<path class="st1" d="M1450.8,476.2l-0.3,0.7l-0.4-0.2l0.5-0.7L1450.8,476.2z"/>
<path class="st1" d="M1410.6,569.1l-0.8,0.6c0-0.6,0.2-0.7,0.7-0.7L1410.6,569.1z"/>
<path class="st1" d="M1446.6,503.1c0-0.4,0.2-0.7,0.6-0.7l0.1,0.1l-0.6,0.7L1446.6,503.1z"/>
<path class="st1" d="M1403.7,531.7l0.8-0.6l0.2,0.2l-0.8,0.6L1403.7,531.7z"/>
<path class="st1" d="M1422.6,555.1c0.4,0.1,0.5,0.4,0.5,0.8l-0.1,0.1l-0.6-0.7L1422.6,555.1z"/>
<path class="st1" d="M1405,577.3c-0.1-0.2-0.2-0.3-0.2-0.4c0.1-0.1,0.2-0.2,0.3-0.2c0.1,0,0.2,0.2,0.3,0.3L1405,577.3z"/>
<path class="st1" d="M1425.6,557.3l-0.9,0.5C1424.7,557.2,1425,557,1425.6,557.3z"/>
<path class="st1" d="M1442.2,530.8l-0.7,0.8l-0.2-0.1l0.6-0.8L1442.2,530.8z"/>
<path class="st1" d="M1436.6,541.1l-0.5,0.9l-0.2-0.1l0.5-0.9L1436.6,541.1z"/>
<path class="st1" d="M1441.6,543.9h-1v-0.1h1V543.9z"/>
<path class="st1" d="M1443.2,482.5l0.6-0.7l0.2,0.1l-0.6,0.7L1443.2,482.5z"/>
<path class="st1" d="M1398.8,589.5l0.1,0.4l0.5-0.2l0.1,0.1c-0.1,0.1-0.3,0.3-0.4,0.2c-0.2-0.1-0.3-0.2-0.5-0.3c0,0,0-0.2,0.1-0.3
	L1398.8,589.5z"/>
<path class="st1" d="M1456.5,509v-0.9C1457,508.6,1457,508.8,1456.5,509z"/>
<path class="st1" d="M1454.2,494.6l0.1-1C1454.6,493.9,1454.4,494.2,1454.2,494.6z"/>
<path class="st1" d="M1456.5,507.6v-0.5h0.5l0.1,0.1L1456.5,507.6z"/>
<path class="st1" d="M1468.4,504.6l-0.3,0.4l-0.3-0.5l0.2-0.2L1468.4,504.6z"/>
<path class="st1" d="M1460.4,505.9l-0.1-0.1l0.2-0.5l0.1,0L1460.4,505.9z"/>
<path class="st1" d="M1450.1,527.9v0.2l-0.5,0.1v-0.1L1450.1,527.9z"/>
<path class="st1" d="M1421.7,512.4l0.2,0.4l-0.2,0.2L1421.7,512.4z"/>
<path class="st1" d="M1467.8,504.5l-0.2-0.3l0.2-0.1l0.2,0.2L1467.8,504.5z"/>
<path class="st1" d="M1467.2,505.8l-0.2-0.1v0L1467.2,505.8L1467.2,505.8z"/>
<path class="st1" d="M1404.7,602.8l0.1-0.1L1404.7,602.8L1404.7,602.8z"/>
<path class="st1" d="M1401.1,593.9l-0.1-0.2h0.1L1401.1,593.9L1401.1,593.9z"/>
<path class="st1" d="M1469.4,506.2L1469.4,506.2L1469.4,506.2L1469.4,506.2L1469.4,506.2z"/>
<path class="st1" d="M1401.4,611.5L1401.4,611.5L1401.4,611.5z"/>
<path class="st1" d="M1402.1,593.7h-0.1v-0.1L1402.1,593.7z"/>
<path class="st1" d="M1454.4,489L1454.4,489L1454.4,489z"/>
<path class="st1" d="M1406.7,584.5L1406.7,584.5L1406.7,584.5L1406.7,584.5z"/>
<path class="st1" d="M1450.2,528l0.1-0.1L1450.2,528z"/>
<path class="st1" d="M1449.3,528h-0.1H1449.3L1449.3,528z"/>
<path class="st1" d="M1427,558.9L1427,558.9L1427,558.9L1427,558.9L1427,558.9z"/>
<path class="st1" d="M1455.8,525.3l-0.1-0.1h0.1L1455.8,525.3z"/>
<path class="st1" d="M1450.8,477.7L1450.8,477.7L1450.8,477.7z"/>
<path class="st1" d="M1402.2,620.3L1402.2,620.3l0.2,0L1402.2,620.3L1402.2,620.3z"/>
<path class="st1" d="M1402.3,620.3L1402.3,620.3L1402.3,620.3L1402.3,620.3z"/>
<path class="st1" d="M1455.6,525l0.1,0.1h-0.1L1455.6,525z"/>
<polygon class="st1" points="1404.6,600.9 1404.6,600.9 1404.6,600.9 "/>
<path class="st1" d="M1460.1,489.6h-0.2H1460.1z"/>
<path class="st1" d="M1408.8,621.5h0.1l-0.1,0.2l0,0L1408.8,621.5z"/>
<path class="st1" d="M1408.9,621.7"/>
<path class="st1" d="M1420.6,587L1420.6,587z"/>
<path class="st1" d="M1455.2,511.4l0.1,0.1L1455.2,511.4z"/>
<path class="st1" d="M1453.1,489.2L1453.1,489.2L1453.1,489.2L1453.1,489.2z"/>
<path class="st1" d="M1400.3,611.8h0.1H1400.3L1400.3,611.8z"/>
</svg>
