<?xml version="1.0" encoding="utf-8"?>
<!-- Generator: Adobe Illustrator 23.0.6, SVG Export Plug-In . SVG Version: 6.00 Build 0)  -->
<svg version="1.1" id="Ebene_1" xmlns="http://www.w3.org/2000/svg" xmlns:xlink="http://www.w3.org/1999/xlink" x="0px" y="0px"
	 viewBox="0 0 3312.3 1961.1" style="enable-background:new 0 0 3312.3 1961.1;" xml:space="preserve">
<style type="text/css">
	.st0{fill-rule:evenodd;clip-rule:evenodd;fill:#89ADCD;enable-background:new    ;}
	.st1{fill:none;stroke:#000000;stroke-width:0.33;stroke-linecap:round;stroke-linejoin:round;}
	.st2{fill-rule:evenodd;clip-rule:evenodd;fill:#597E63;}
</style>
<title>forest</title>
<polyline class="st0" points="2439.7,1401.6 2451,1404.8 2460.2,1407.4 2468.1,1407.4 2475.2,1405.2 2487.3,1401.5 2498.3,1401.5 
	2504.3,1407.4 2513.5,1416.7 2529.3,1416.7 2538.5,1411.3 2547.7,1411.3 2564.4,1411.3 2578.7,1416.7 2615.5,1430.7 2626.3,1430.7 
	2628.7,1435.7 2619.2,1440.2 2607.8,1445.6 2591.8,1449.6 2573.3,1452.1 2558.4,1452.1 2544.3,1447.4 2534,1444 2526.4,1436.4 
	2530.4,1447.6 2538.5,1463.2 2544.8,1475.3 2553.1,1483.7 2569.3,1479.3 2573.3,1476.5 2581.5,1473.1 2588.8,1474 2603.5,1475.8 
	2615.9,1477.3 2628.3,1474.5 2639,1473.6 2650.7,1475.9 2657.7,1478.6 2663.3,1481.6 2669.6,1485 2675.7,1487.5 2679.1,1490.1 
	2679.1,1494.4 2674.4,1490.8 2669.9,1489.3 2663,1487 2659.4,1483.5 2653.6,1483.5 2650.2,1481.4 2643.1,1480.6 2638.8,1478.9 
	2633.7,1479.4 2623.8,1479.4 2615.5,1480.6 2605.1,1479.4 2602.8,1477.2 2592.2,1476.2 2587.6,1476.2 2581.3,1475.3 2576.3,1479.4 
	2571.5,1483.5 2566.8,1488.2 2566.8,1491.8 2563.1,1493.6 2555.8,1496.6 2548.6,1495.7 2541.9,1492.5 2538.2,1488.8 2532.4,1483 
	2530.4,1479.4 2527.8,1474.9 2521.9,1469.1 2512,1462.7 2501.5,1459.6 2494.9,1455.5 2491.6,1452.1 2487,1443.2 2485.1,1437.1 
	2482,1438.1 2473.2,1433.8 2464.9,1432 2457.4,1432 2449,1426.8 2443,1423 2432.9,1420 2420,1422.4 2409.5,1422.2 2413.9,1416.7 
	2424.1,1411.3 2432.9,1411.3 2437.1,1405.8 2439.7,1401.6 "/>
<line class="st1" x1="2439.7" y1="1401.6" x2="2451" y2="1404.8"/>
<line class="st1" x1="2451" y1="1404.8" x2="2460.2" y2="1407.4"/>
<line class="st1" x1="2460.2" y1="1407.4" x2="2468.1" y2="1407.4"/>
<line class="st1" x1="2468.1" y1="1407.4" x2="2475.2" y2="1405.2"/>
<line class="st1" x1="2475.2" y1="1405.2" x2="2487.3" y2="1401.5"/>
<line class="st1" x1="2487.3" y1="1401.5" x2="2498.3" y2="1401.5"/>
<line class="st1" x1="2498.3" y1="1401.5" x2="2504.3" y2="1407.4"/>
<line class="st1" x1="2504.3" y1="1407.4" x2="2513.5" y2="1416.7"/>
<line class="st1" x1="2513.5" y1="1416.7" x2="2529.3" y2="1416.7"/>
<line class="st1" x1="2529.3" y1="1416.7" x2="2538.5" y2="1411.2"/>
<line class="st1" x1="2538.5" y1="1411.2" x2="2547.7" y2="1411.2"/>
<line class="st1" x1="2547.7" y1="1411.2" x2="2564.4" y2="1411.2"/>
<line class="st1" x1="2564.4" y1="1411.2" x2="2578.7" y2="1416.7"/>
<line class="st1" x1="2578.7" y1="1416.7" x2="2615.5" y2="1430.7"/>
<line class="st1" x1="2615.5" y1="1430.7" x2="2626.3" y2="1430.7"/>
<line class="st1" x1="2626.3" y1="1430.7" x2="2628.7" y2="1435.7"/>
<line class="st1" x1="2628.7" y1="1435.7" x2="2619.2" y2="1440.2"/>
<line class="st1" x1="2619.2" y1="1440.2" x2="2607.8" y2="1445.6"/>
<line class="st1" x1="2607.8" y1="1445.6" x2="2591.8" y2="1449.6"/>
<line class="st1" x1="2591.8" y1="1449.6" x2="2573.3" y2="1452.1"/>
<line class="st1" x1="2573.3" y1="1452.1" x2="2558.4" y2="1452.1"/>
<line class="st1" x1="2558.4" y1="1452.1" x2="2544.3" y2="1447.4"/>
<line class="st1" x1="2544.3" y1="1447.4" x2="2534" y2="1444"/>
<line class="st1" x1="2534" y1="1444" x2="2526.4" y2="1436.4"/>
<line class="st1" x1="2526.4" y1="1436.4" x2="2530.4" y2="1447.6"/>
<line class="st1" x1="2530.4" y1="1447.6" x2="2538.5" y2="1463.2"/>
<line class="st1" x1="2538.5" y1="1463.2" x2="2544.8" y2="1475.3"/>
<line class="st1" x1="2544.8" y1="1475.3" x2="2553.1" y2="1483.7"/>
<line class="st1" x1="2553.1" y1="1483.7" x2="2569.3" y2="1479.3"/>
<line class="st1" x1="2569.3" y1="1479.3" x2="2573.3" y2="1476.5"/>
<line class="st1" x1="2573.3" y1="1476.5" x2="2581.5" y2="1473.1"/>
<line class="st1" x1="2581.5" y1="1473.1" x2="2588.8" y2="1474"/>
<line class="st1" x1="2588.8" y1="1474" x2="2603.5" y2="1475.8"/>
<line class="st1" x1="2603.5" y1="1475.8" x2="2615.9" y2="1477.3"/>
<line class="st1" x1="2615.9" y1="1477.3" x2="2628.3" y2="1474.5"/>
<line class="st1" x1="2628.3" y1="1474.5" x2="2639" y2="1473.6"/>
<line class="st1" x1="2639" y1="1473.6" x2="2650.7" y2="1475.9"/>
<line class="st1" x1="2650.7" y1="1475.9" x2="2657.7" y2="1478.6"/>
<line class="st1" x1="2657.7" y1="1478.6" x2="2663.3" y2="1481.6"/>
<line class="st1" x1="2663.3" y1="1481.6" x2="2669.6" y2="1485"/>
<line class="st1" x1="2669.6" y1="1485" x2="2675.7" y2="1487.5"/>
<line class="st1" x1="2675.7" y1="1487.5" x2="2679.1" y2="1490.1"/>
<line class="st1" x1="2679.1" y1="1490.1" x2="2679.1" y2="1494.4"/>
<line class="st1" x1="2679.1" y1="1494.4" x2="2674.4" y2="1490.8"/>
<line class="st1" x1="2674.4" y1="1490.8" x2="2669.9" y2="1489.3"/>
<line class="st1" x1="2669.9" y1="1489.3" x2="2663" y2="1487"/>
<line class="st1" x1="2663" y1="1487" x2="2659.4" y2="1483.5"/>
<line class="st1" x1="2659.4" y1="1483.5" x2="2653.6" y2="1483.5"/>
<line class="st1" x1="2653.6" y1="1483.5" x2="2650.2" y2="1481.4"/>
<line class="st1" x1="2650.2" y1="1481.4" x2="2643.1" y2="1480.6"/>
<line class="st1" x1="2643.1" y1="1480.6" x2="2638.8" y2="1478.9"/>
<line class="st1" x1="2638.8" y1="1478.9" x2="2633.7" y2="1479.4"/>
<line class="st1" x1="2633.7" y1="1479.4" x2="2623.8" y2="1479.4"/>
<line class="st1" x1="2623.8" y1="1479.4" x2="2615.5" y2="1480.6"/>
<line class="st1" x1="2615.5" y1="1480.6" x2="2605.1" y2="1479.4"/>
<line class="st1" x1="2605.1" y1="1479.4" x2="2602.8" y2="1477.2"/>
<line class="st1" x1="2602.8" y1="1477.2" x2="2592.2" y2="1476.2"/>
<line class="st1" x1="2592.2" y1="1476.2" x2="2587.6" y2="1476.2"/>
<line class="st1" x1="2587.6" y1="1476.2" x2="2581.3" y2="1475.3"/>
<line class="st1" x1="2581.3" y1="1475.3" x2="2576.3" y2="1479.4"/>
<line class="st1" x1="2576.3" y1="1479.4" x2="2571.5" y2="1483.5"/>
<line class="st1" x1="2571.5" y1="1483.5" x2="2566.8" y2="1488.2"/>
<line class="st1" x1="2566.8" y1="1488.2" x2="2566.8" y2="1491.8"/>
<line class="st1" x1="2566.8" y1="1491.8" x2="2563.1" y2="1493.7"/>
<line class="st1" x1="2563.1" y1="1493.7" x2="2555.8" y2="1496.6"/>
<line class="st1" x1="2555.8" y1="1496.6" x2="2548.6" y2="1495.7"/>
<line class="st1" x1="2548.6" y1="1495.7" x2="2541.9" y2="1492.5"/>
<line class="st1" x1="2541.9" y1="1492.5" x2="2538.2" y2="1488.8"/>
<line class="st1" x1="2538.2" y1="1488.8" x2="2532.4" y2="1483"/>
<line class="st1" x1="2532.4" y1="1483" x2="2530.4" y2="1479.4"/>
<line class="st1" x1="2530.4" y1="1479.4" x2="2527.8" y2="1474.9"/>
<line class="st1" x1="2527.8" y1="1474.9" x2="2521.9" y2="1469.1"/>
<line class="st1" x1="2521.9" y1="1469.1" x2="2512" y2="1462.7"/>
<line class="st1" x1="2512" y1="1462.7" x2="2501.5" y2="1459.6"/>
<line class="st1" x1="2501.5" y1="1459.6" x2="2494.9" y2="1455.5"/>
<line class="st1" x1="2494.9" y1="1455.5" x2="2491.6" y2="1452.1"/>
<line class="st1" x1="2491.6" y1="1452.1" x2="2487" y2="1443.2"/>
<line class="st1" x1="2487" y1="1443.2" x2="2485.1" y2="1437.1"/>
<line class="st1" x1="2485.1" y1="1437.1" x2="2482" y2="1438.1"/>
<line class="st1" x1="2482" y1="1438.1" x2="2473.2" y2="1433.8"/>
<line class="st1" x1="2473.2" y1="1433.8" x2="2464.9" y2="1432"/>
<line class="st1" x1="2464.9" y1="1432" x2="2457.4" y2="1432"/>
<line class="st1" x1="2457.4" y1="1432" x2="2449" y2="1426.8"/>
<line class="st1" x1="2449" y1="1426.8" x2="2443" y2="1423"/>
<line class="st1" x1="2443" y1="1423" x2="2432.9" y2="1420"/>
<line class="st1" x1="2432.9" y1="1420" x2="2420" y2="1422.4"/>
<line class="st1" x1="2420" y1="1422.4" x2="2409.5" y2="1422.2"/>
<line class="st1" x1="2409.5" y1="1422.2" x2="2413.9" y2="1416.7"/>
<line class="st1" x1="2413.9" y1="1416.7" x2="2424.1" y2="1411.2"/>
<line class="st1" x1="2424.1" y1="1411.2" x2="2432.9" y2="1411.2"/>
<line class="st1" x1="2432.9" y1="1411.2" x2="2437.1" y2="1405.8"/>
<line class="st1" x1="2437.1" y1="1405.8" x2="2439.7" y2="1401.6"/>
<polyline class="st2" points="1246.9,1185.5 1264.1,1181.4 1277.9,1181.4 1277.9,1191.2 1276.5,1201.7 1267,1211.9 1261,1225.1 
	1245.2,1256.7 1237.4,1265.2 1225.3,1282.6 1186.8,1301.8 1186.4,1288.9 1174.1,1276.6 1160.1,1262.5 1145.4,1269.7 1141,1281.2 
	1130.6,1291.3 1121.7,1300.2 1122,1307.2 1141,1307.2 1152.8,1315.7 1144.9,1322.8 1121.5,1332.9 1116.5,1337 1079.5,1358 
	1072.2,1370.3 1061,1381.5 1047.5,1395 1019.2,1417.9 1007.4,1418.4 992.8,1422.3 987.1,1414.5 979.4,1411.4 973.5,1402.9 
	973.2,1391.4 957.3,1367.1 945.1,1368 936,1364.1 929.5,1349.8 919.5,1338.8 917.3,1337.5 908.7,1336.7 898.9,1332.4 890.5,1325.5 
	877.2,1324.6 867.3,1329.6 854,1326.9 847.8,1325.6 840.4,1324.6 823.2,1321.7 816.4,1320.3 796.2,1317.5 789.2,1317.4 
	783.5,1305.8 780.4,1299.5 773.1,1297.2 754.3,1281.7 747.8,1268.1 747.4,1253.2 744.8,1248.1 742.5,1232.9 731.7,1227.4 
	718.5,1225.1 711.7,1235.8 694.4,1245.9 694.7,1262.5 697.1,1278.2 728.4,1295.9 730.8,1307.2 711.6,1318.5 690,1328.3 
	677.8,1337.4 660.4,1333.1 642.4,1322.8 647.1,1306.2 649,1290.1 656.2,1273.8 660.3,1259.2 663.1,1249.1 665.6,1240.4 
	672.8,1221.8 691,1208.2 716.9,1191.9 735.1,1182.8 751.3,1173.8 759.5,1169 788.8,1150.7 797.2,1144 816.5,1143.4 829,1142.6 
	840.3,1144 866.6,1137.8 879.1,1135.8 896.4,1129.4 912.1,1127.3 927.4,1129.4 945.8,1126.9 960.8,1127.6 984,1130 982.5,1134.4 
	1002.7,1136.5 1023.9,1134.7 1035.7,1138.2 1054.8,1144.4 1074.6,1149.4 1099.6,1154.8 1109,1156.8 1129,1153 1137.1,1149.7 
	1156,1144.7 1166.6,1148.9 1181.9,1145.4 1189.7,1140.8 1210.1,1130.9 1216.6,1125.6 1230.5,1112.5 1235.9,1101.7 1257.6,1091.7 
	1291.4,1069 1264.1,1106.5 1241.1,1130.9 1226.6,1158 1221.5,1177.1 1216.4,1189 1217.1,1201.8 1246.9,1185.5 "/>
<line class="st1" x1="1264.1" y1="1181.4" x2="1246.9" y2="1185.5"/>
<line class="st1" x1="1277.9" y1="1181.4" x2="1264.1" y2="1181.4"/>
<line class="st1" x1="1277.9" y1="1191.2" x2="1277.9" y2="1181.4"/>
<line class="st1" x1="1276.5" y1="1201.7" x2="1277.9" y2="1191.2"/>
<line class="st1" x1="1267" y1="1211.9" x2="1276.5" y2="1201.7"/>
<line class="st1" x1="1261" y1="1225.1" x2="1267" y2="1211.9"/>
<line class="st1" x1="1245.2" y1="1256.7" x2="1261" y2="1225.1"/>
<line class="st1" x1="1237.4" y1="1265.2" x2="1245.2" y2="1256.7"/>
<line class="st1" x1="1225.3" y1="1282.6" x2="1237.4" y2="1265.2"/>
<line class="st1" x1="1186.8" y1="1301.8" x2="1225.3" y2="1282.6"/>
<line class="st1" x1="1186.4" y1="1288.9" x2="1186.8" y2="1301.8"/>
<line class="st1" x1="1174.1" y1="1276.6" x2="1186.4" y2="1288.9"/>
<line class="st1" x1="1160.1" y1="1262.5" x2="1174.1" y2="1276.6"/>
<line class="st1" x1="1145.4" y1="1269.7" x2="1160.1" y2="1262.5"/>
<line class="st1" x1="1141" y1="1281.2" x2="1145.4" y2="1269.7"/>
<line class="st1" x1="1130.6" y1="1291.3" x2="1141" y2="1281.2"/>
<line class="st1" x1="1121.7" y1="1300.2" x2="1130.6" y2="1291.3"/>
<line class="st1" x1="1122" y1="1307.2" x2="1121.7" y2="1300.2"/>
<line class="st1" x1="1141" y1="1307.2" x2="1122" y2="1307.2"/>
<line class="st1" x1="1152.8" y1="1315.7" x2="1141" y2="1307.2"/>
<line class="st1" x1="1144.9" y1="1322.8" x2="1152.8" y2="1315.7"/>
<line class="st1" x1="1121.5" y1="1332.9" x2="1144.9" y2="1322.8"/>
<line class="st1" x1="1116.5" y1="1337" x2="1121.5" y2="1332.9"/>
<line class="st1" x1="1079.5" y1="1358" x2="1116.5" y2="1337"/>
<line class="st1" x1="1072.2" y1="1370.3" x2="1079.5" y2="1358"/>
<line class="st1" x1="1061" y1="1381.5" x2="1072.2" y2="1370.3"/>
<line class="st1" x1="1047.5" y1="1395" x2="1061" y2="1381.5"/>
<line class="st1" x1="1019.2" y1="1417.9" x2="1047.5" y2="1395"/>
<line class="st1" x1="1007.3" y1="1418.4" x2="1019.2" y2="1417.9"/>
<line class="st1" x1="992.8" y1="1422.3" x2="1007.3" y2="1418.4"/>
<line class="st1" x1="987.1" y1="1414.5" x2="992.8" y2="1422.3"/>
<line class="st1" x1="979.4" y1="1411.4" x2="987.1" y2="1414.5"/>
<line class="st1" x1="973.5" y1="1402.9" x2="979.4" y2="1411.4"/>
<line class="st1" x1="973.2" y1="1391.4" x2="973.5" y2="1402.9"/>
<line class="st1" x1="957.3" y1="1367.1" x2="973.2" y2="1391.4"/>
<line class="st1" x1="945.1" y1="1368" x2="957.3" y2="1367.1"/>
<line class="st1" x1="936" y1="1364.1" x2="945.1" y2="1368"/>
<line class="st1" x1="929.5" y1="1349.8" x2="936" y2="1364.1"/>
<line class="st1" x1="919.5" y1="1338.8" x2="929.5" y2="1349.8"/>
<line class="st1" x1="917.3" y1="1337.5" x2="919.5" y2="1338.8"/>
<line class="st1" x1="908.7" y1="1336.7" x2="917.3" y2="1337.5"/>
<line class="st1" x1="898.9" y1="1332.4" x2="908.7" y2="1336.7"/>
<line class="st1" x1="890.5" y1="1325.5" x2="898.9" y2="1332.4"/>
<line class="st1" x1="877.2" y1="1324.6" x2="890.5" y2="1325.5"/>
<line class="st1" x1="867.3" y1="1329.6" x2="877.2" y2="1324.6"/>
<line class="st1" x1="854" y1="1326.9" x2="867.3" y2="1329.6"/>
<line class="st1" x1="847.8" y1="1325.6" x2="854" y2="1326.9"/>
<line class="st1" x1="840.4" y1="1324.6" x2="847.8" y2="1325.6"/>
<line class="st1" x1="823.2" y1="1321.7" x2="840.4" y2="1324.6"/>
<line class="st1" x1="816.4" y1="1320.3" x2="823.2" y2="1321.7"/>
<line class="st1" x1="796.2" y1="1317.5" x2="816.4" y2="1320.3"/>
<line class="st1" x1="789.2" y1="1317.4" x2="796.2" y2="1317.5"/>
<line class="st1" x1="783.5" y1="1305.8" x2="789.2" y2="1317.4"/>
<line class="st1" x1="780.4" y1="1299.5" x2="783.5" y2="1305.8"/>
<line class="st1" x1="773.1" y1="1297.2" x2="780.4" y2="1299.5"/>
<line class="st1" x1="754.3" y1="1281.7" x2="773.1" y2="1297.2"/>
<line class="st1" x1="747.8" y1="1268.1" x2="754.3" y2="1281.7"/>
<line class="st1" x1="747.4" y1="1253.2" x2="747.8" y2="1268.1"/>
<line class="st1" x1="744.8" y1="1248.1" x2="747.4" y2="1253.2"/>
<line class="st1" x1="742.5" y1="1232.9" x2="744.8" y2="1248.1"/>
<line class="st1" x1="731.7" y1="1227.4" x2="742.5" y2="1232.9"/>
<line class="st1" x1="718.5" y1="1225.1" x2="731.7" y2="1227.4"/>
<line class="st1" x1="711.7" y1="1235.8" x2="718.5" y2="1225.1"/>
<line class="st1" x1="694.4" y1="1245.9" x2="711.7" y2="1235.8"/>
<line class="st1" x1="694.7" y1="1262.5" x2="694.4" y2="1245.9"/>
<line class="st1" x1="697.1" y1="1278.2" x2="694.7" y2="1262.5"/>
<line class="st1" x1="728.4" y1="1295.9" x2="697.1" y2="1278.2"/>
<line class="st1" x1="730.8" y1="1307.2" x2="728.4" y2="1295.9"/>
<line class="st1" x1="711.6" y1="1318.5" x2="730.8" y2="1307.2"/>
<line class="st1" x1="690" y1="1328.3" x2="711.6" y2="1318.5"/>
<line class="st1" x1="677.8" y1="1337.4" x2="690" y2="1328.3"/>
<line class="st1" x1="660.4" y1="1333.1" x2="677.8" y2="1337.4"/>
<line class="st1" x1="642.4" y1="1322.8" x2="660.4" y2="1333.1"/>
<line class="st1" x1="647.1" y1="1306.2" x2="642.4" y2="1322.8"/>
<line class="st1" x1="649" y1="1290.1" x2="647.1" y2="1306.2"/>
<line class="st1" x1="656.2" y1="1273.8" x2="649" y2="1290.1"/>
<line class="st1" x1="660.3" y1="1259.2" x2="656.2" y2="1273.8"/>
<line class="st1" x1="663.1" y1="1249.1" x2="660.3" y2="1259.2"/>
<line class="st1" x1="665.6" y1="1240.4" x2="663.1" y2="1249.1"/>
<line class="st1" x1="672.8" y1="1221.8" x2="665.6" y2="1240.4"/>
<line class="st1" x1="691" y1="1208.2" x2="672.8" y2="1221.8"/>
<line class="st1" x1="716.9" y1="1191.9" x2="691" y2="1208.2"/>
<line class="st1" x1="735.1" y1="1182.8" x2="716.9" y2="1191.9"/>
<line class="st1" x1="751.3" y1="1173.8" x2="735.1" y2="1182.8"/>
<line class="st1" x1="759.5" y1="1169" x2="751.3" y2="1173.8"/>
<line class="st1" x1="788.8" y1="1150.7" x2="759.5" y2="1169"/>
<line class="st1" x1="797.2" y1="1144" x2="788.8" y2="1150.7"/>
<line class="st1" x1="816.5" y1="1143.4" x2="797.2" y2="1144"/>
<line class="st1" x1="829" y1="1142.6" x2="816.5" y2="1143.4"/>
<line class="st1" x1="840.3" y1="1144" x2="829" y2="1142.6"/>
<line class="st1" x1="866.6" y1="1137.8" x2="840.3" y2="1144"/>
<line class="st1" x1="879.1" y1="1135.8" x2="866.6" y2="1137.8"/>
<line class="st1" x1="896.4" y1="1129.4" x2="879.1" y2="1135.8"/>
<line class="st1" x1="912.1" y1="1127.3" x2="896.4" y2="1129.4"/>
<line class="st1" x1="927.4" y1="1129.4" x2="912.1" y2="1127.3"/>
<line class="st1" x1="945.8" y1="1126.9" x2="927.4" y2="1129.4"/>
<line class="st1" x1="960.8" y1="1127.6" x2="945.8" y2="1126.9"/>
<line class="st1" x1="984" y1="1130" x2="960.8" y2="1127.6"/>
<line class="st1" x1="982.5" y1="1134.4" x2="984" y2="1130"/>
<line class="st1" x1="1002.7" y1="1136.5" x2="982.5" y2="1134.4"/>
<line class="st1" x1="1023.9" y1="1134.7" x2="1002.7" y2="1136.5"/>
<line class="st1" x1="1035.7" y1="1138.2" x2="1023.9" y2="1134.7"/>
<line class="st1" x1="1054.8" y1="1144.4" x2="1035.7" y2="1138.2"/>
<line class="st1" x1="1074.6" y1="1149.4" x2="1054.8" y2="1144.4"/>
<line class="st1" x1="1099.6" y1="1154.8" x2="1074.6" y2="1149.4"/>
<line class="st1" x1="1109" y1="1156.8" x2="1099.6" y2="1154.8"/>
<line class="st1" x1="1129" y1="1153" x2="1109" y2="1156.8"/>
<line class="st1" x1="1137.1" y1="1149.7" x2="1129" y2="1153"/>
<line class="st1" x1="1156" y1="1144.7" x2="1137.1" y2="1149.7"/>
<line class="st1" x1="1166.6" y1="1148.9" x2="1156" y2="1144.7"/>
<line class="st1" x1="1181.9" y1="1145.4" x2="1166.6" y2="1148.9"/>
<line class="st1" x1="1189.7" y1="1140.8" x2="1181.9" y2="1145.4"/>
<line class="st1" x1="1210.1" y1="1130.9" x2="1189.7" y2="1140.8"/>
<line class="st1" x1="1216.6" y1="1125.6" x2="1210.1" y2="1130.9"/>
<line class="st1" x1="1230.5" y1="1112.5" x2="1216.6" y2="1125.6"/>
<line class="st1" x1="1235.9" y1="1101.7" x2="1230.5" y2="1112.5"/>
<line class="st1" x1="1257.6" y1="1091.7" x2="1235.9" y2="1101.7"/>
<line class="st1" x1="1291.4" y1="1069" x2="1257.6" y2="1091.7"/>
<line class="st1" x1="1264.1" y1="1106.5" x2="1291.4" y2="1069"/>
<line class="st1" x1="1241.1" y1="1130.9" x2="1264.1" y2="1106.5"/>
<line class="st1" x1="1226.6" y1="1158" x2="1241.1" y2="1130.9"/>
<line class="st1" x1="1221.5" y1="1177.1" x2="1226.6" y2="1158"/>
<line class="st1" x1="1216.4" y1="1189" x2="1221.5" y2="1177.1"/>
<line class="st1" x1="1217.1" y1="1201.8" x2="1216.4" y2="1189"/>
<line class="st1" x1="1246.9" y1="1185.5" x2="1217.1" y2="1201.8"/>
<polyline class="st2" points="1687.9,1587.7 1706.9,1577.2 1709.7,1576.5 1725.9,1566.6 1736.1,1564 1744.6,1557.7 1747.5,1555.5 
	1756.4,1549 1764.8,1538.1 1777.2,1512.7 1787.6,1498.4 1788.8,1492.9 1795.6,1481.3 1786.9,1457.1 1806.1,1430.9 1861.9,1442.1 
	1873.5,1430.5 1870.4,1410 1884.3,1397.4 1897.2,1403 1965.5,1382.6 1976.2,1371.9 1992.4,1368.4 2013.7,1370.5 2019.3,1390.3 
	2036.3,1407.4 2047.5,1414 2058.7,1416.3 2115.7,1402.8 2133.1,1414 2179.4,1414 2198.5,1399.4 2202.3,1387.8 2214.3,1372.2 
	2225.2,1349.5 2251.6,1338.6 2265,1325.2 2291.9,1316.7 2317.5,1317.2 2342.2,1310 2359.8,1303.8 2388.2,1293.9 2391.9,1268.1 
	2426.9,1263.2 2445.3,1238.6 2443.5,1215.9 2454.5,1203 2469.9,1207.3 2479.2,1215.1 2480.1,1217.9 2480.4,1228.5 2485.5,1231.1 
	2481.7,1238.6 2434.2,1308.6 2437.2,1322.1 2437.2,1332.8 2441.4,1341.7 2448.7,1347.1 2456.4,1347.1 2463.3,1354 2483,1363.7 
	2484.2,1365.4 2487.8,1366.6 2495.3,1369.2 2496.5,1369.7 2505.4,1373.7 2511.6,1374.8 2518.3,1377.1 2526.1,1382.9 2539.3,1384.3 
	2551.4,1388.5 2560,1390.3 2574.2,1396.3 2603.4,1406.4 2623.8,1406.4 2638.2,1402.5 2650.9,1396.3 2669.5,1394.5 2680.3,1394.5 
	2703.3,1406.9 2721.4,1417.8 2733,1421.7 2752.6,1429.9 2759.7,1426.8 2774.1,1435.5 2796.4,1436.9 2811.2,1428.3 2812.6,1428 
	2822.1,1426.3 2829.3,1419.1 2840.5,1411.3 2854.2,1403.2 2857.2,1399.5 2878.6,1384.5 2900.5,1379.6 2911.4,1392.2 2916.1,1405.5 
	2929.7,1412 2937.2,1421.9 2933.3,1430.6 2928.7,1432.6 2923.1,1434.1 2916.3,1434.5 2900.9,1440.2 2892.8,1450.6 2887,1454.2 
	2880.4,1460.4 2873.1,1463 2865.7,1464 2859.1,1463.4 2858.1,1468.7 2853.7,1468.6 2846.7,1467.9 2838.1,1468.6 2831.7,1470.6 
	2825.2,1473 2815.3,1479.2 2805.2,1487.9 2799.8,1489.4 2793,1495.9 2791.6,1503.5 2788.3,1505.3 2783.7,1509.4 2772.7,1512.4 
	2760.2,1517.5 2751.9,1518.9 2746.9,1522.8 2743.2,1518.2 2730.2,1506.6 2712.8,1501.5 2709,1508.6 2715.6,1516.2 2725.4,1523.3 
	2731.8,1523.7 2738.1,1529.5 2741.6,1533.2 2744.2,1536.9 2751.9,1545.6 2756.3,1544.5 2755.2,1537.5 2754.6,1535.3 2756,1529.9 
	2766.5,1524.3 2772.9,1525.1 2779.7,1524.7 2785.1,1523.8 2791.4,1522.5 2796.8,1517.8 2802.9,1509.9 2814.1,1504.2 2819.2,1499.7 
	2826.3,1497.8 2831.1,1494.9 2836,1492 2842.6,1492.5 2848.4,1491.9 2855.1,1485.6 2862.7,1482.7 2879.1,1472.3 2887.8,1466.7 
	2898,1453.4 2898.2,1450.3 2905.7,1445.5 2911.1,1442.1 2925.3,1440.6 2931.6,1439.1 2941.5,1438.4 2949.3,1434.5 2960.9,1437.5 
	2970.4,1437.5 2977.7,1444.8 2974.6,1448 2971.1,1454.6 2964,1463.9 2956.3,1471.6 2954.2,1476.7 2949.5,1488 2956.7,1510.7 
	2950.4,1525 2937.5,1529.9 2928.4,1539 2922.7,1552.7 2914.6,1560.8 2922.7,1575.5 2922.7,1587.8 1687.9,1587.7 "/>
<line class="st1" x1="1706.9" y1="1577.2" x2="1687.9" y2="1587.7"/>
<line class="st1" x1="1709.7" y1="1576.5" x2="1706.9" y2="1577.2"/>
<line class="st1" x1="1725.9" y1="1566.6" x2="1709.7" y2="1576.5"/>
<line class="st1" x1="1736.1" y1="1564" x2="1725.9" y2="1566.6"/>
<line class="st1" x1="1744.6" y1="1557.7" x2="1736.1" y2="1564"/>
<line class="st1" x1="1747.5" y1="1555.5" x2="1744.6" y2="1557.7"/>
<line class="st1" x1="1756.4" y1="1549" x2="1747.5" y2="1555.5"/>
<line class="st1" x1="1764.8" y1="1538.1" x2="1756.4" y2="1549"/>
<line class="st1" x1="1777.2" y1="1512.7" x2="1764.8" y2="1538.1"/>
<line class="st1" x1="1787.6" y1="1498.4" x2="1777.2" y2="1512.7"/>
<line class="st1" x1="1788.8" y1="1492.9" x2="1787.6" y2="1498.4"/>
<line class="st1" x1="1795.6" y1="1481.3" x2="1788.8" y2="1492.9"/>
<line class="st1" x1="1786.9" y1="1457.1" x2="1795.6" y2="1481.3"/>
<line class="st1" x1="1806.1" y1="1430.9" x2="1786.9" y2="1457.1"/>
<line class="st1" x1="1861.9" y1="1442.1" x2="1806.1" y2="1430.9"/>
<line class="st1" x1="1873.5" y1="1430.5" x2="1861.9" y2="1442.1"/>
<line class="st1" x1="1870.4" y1="1410" x2="1873.5" y2="1430.5"/>
<line class="st1" x1="1884.3" y1="1397.4" x2="1870.4" y2="1410"/>
<line class="st1" x1="1897.2" y1="1403" x2="1884.3" y2="1397.4"/>
<line class="st1" x1="1965.5" y1="1382.6" x2="1897.2" y2="1403"/>
<line class="st1" x1="1976.2" y1="1371.9" x2="1965.5" y2="1382.6"/>
<line class="st1" x1="1992.4" y1="1368.4" x2="1976.2" y2="1371.9"/>
<line class="st1" x1="2013.7" y1="1370.5" x2="1992.4" y2="1368.4"/>
<line class="st1" x1="2019.3" y1="1390.3" x2="2013.7" y2="1370.5"/>
<line class="st1" x1="2036.3" y1="1407.4" x2="2019.3" y2="1390.3"/>
<line class="st1" x1="2047.5" y1="1414" x2="2036.3" y2="1407.4"/>
<line class="st1" x1="2058.7" y1="1416.3" x2="2047.5" y2="1414"/>
<line class="st1" x1="2115.7" y1="1402.8" x2="2058.7" y2="1416.3"/>
<line class="st1" x1="2133.1" y1="1414" x2="2115.7" y2="1402.8"/>
<line class="st1" x1="2179.4" y1="1414" x2="2133.1" y2="1414"/>
<line class="st1" x1="2198.5" y1="1399.4" x2="2179.4" y2="1414"/>
<line class="st1" x1="2202.3" y1="1387.8" x2="2198.5" y2="1399.4"/>
<line class="st1" x1="2214.3" y1="1372.2" x2="2202.3" y2="1387.8"/>
<line class="st1" x1="2225.2" y1="1349.5" x2="2214.3" y2="1372.2"/>
<line class="st1" x1="2251.6" y1="1338.6" x2="2225.2" y2="1349.5"/>
<line class="st1" x1="2265" y1="1325.2" x2="2251.6" y2="1338.6"/>
<line class="st1" x1="2291.9" y1="1316.7" x2="2265" y2="1325.2"/>
<line class="st1" x1="2317.5" y1="1317.2" x2="2291.9" y2="1316.7"/>
<line class="st1" x1="2342.2" y1="1310" x2="2317.5" y2="1317.2"/>
<line class="st1" x1="2359.8" y1="1303.8" x2="2342.2" y2="1310"/>
<line class="st1" x1="2388.2" y1="1293.9" x2="2359.8" y2="1303.8"/>
<line class="st1" x1="2391.9" y1="1268.1" x2="2388.2" y2="1293.9"/>
<line class="st1" x1="2426.9" y1="1263.2" x2="2391.9" y2="1268.1"/>
<line class="st1" x1="2445.3" y1="1238.6" x2="2426.9" y2="1263.2"/>
<line class="st1" x1="2443.5" y1="1215.9" x2="2445.3" y2="1238.6"/>
<line class="st1" x1="2454.5" y1="1203" x2="2443.5" y2="1215.9"/>
<line class="st1" x1="2469.9" y1="1207.3" x2="2454.5" y2="1203"/>
<line class="st1" x1="2479.2" y1="1215.1" x2="2469.9" y2="1207.3"/>
<line class="st1" x1="2480.1" y1="1217.9" x2="2479.2" y2="1215.1"/>
<line class="st1" x1="2480.4" y1="1228.5" x2="2480.1" y2="1217.9"/>
<line class="st1" x1="2485.5" y1="1231.1" x2="2480.4" y2="1228.5"/>
<line class="st1" x1="2481.7" y1="1238.6" x2="2485.5" y2="1231.1"/>
<line class="st1" x1="2434.2" y1="1308.6" x2="2481.7" y2="1238.6"/>
<line class="st1" x1="2437.2" y1="1322.1" x2="2434.2" y2="1308.6"/>
<line class="st1" x1="2437.2" y1="1332.8" x2="2437.2" y2="1322.1"/>
<line class="st1" x1="2441.4" y1="1341.7" x2="2437.2" y2="1332.8"/>
<line class="st1" x1="2448.7" y1="1347.1" x2="2441.4" y2="1341.7"/>
<line class="st1" x1="2456.4" y1="1347.1" x2="2448.7" y2="1347.1"/>
<line class="st1" x1="2463.3" y1="1354" x2="2456.4" y2="1347.1"/>
<line class="st1" x1="2483" y1="1363.7" x2="2463.3" y2="1354"/>
<line class="st1" x1="2484.2" y1="1365.4" x2="2483" y2="1363.7"/>
<line class="st1" x1="2487.8" y1="1366.6" x2="2484.2" y2="1365.4"/>
<line class="st1" x1="2495.3" y1="1369.2" x2="2487.8" y2="1366.6"/>
<line class="st1" x1="2496.5" y1="1369.7" x2="2495.3" y2="1369.2"/>
<line class="st1" x1="2505.4" y1="1373.7" x2="2496.5" y2="1369.7"/>
<line class="st1" x1="2511.6" y1="1374.8" x2="2505.4" y2="1373.7"/>
<line class="st1" x1="2518.3" y1="1377.1" x2="2511.6" y2="1374.8"/>
<line class="st1" x1="2526.1" y1="1382.9" x2="2518.3" y2="1377.1"/>
<line class="st1" x1="2539.3" y1="1384.3" x2="2526.1" y2="1382.9"/>
<line class="st1" x1="2551.4" y1="1388.5" x2="2539.3" y2="1384.3"/>
<line class="st1" x1="2560" y1="1390.3" x2="2551.4" y2="1388.5"/>
<line class="st1" x1="2574.2" y1="1396.3" x2="2560" y2="1390.3"/>
<line class="st1" x1="2603.4" y1="1406.4" x2="2574.2" y2="1396.3"/>
<line class="st1" x1="2623.8" y1="1406.4" x2="2603.4" y2="1406.4"/>
<line class="st1" x1="2638.2" y1="1402.5" x2="2623.8" y2="1406.4"/>
<line class="st1" x1="2650.9" y1="1396.3" x2="2638.2" y2="1402.5"/>
<line class="st1" x1="2669.5" y1="1394.5" x2="2650.9" y2="1396.3"/>
<line class="st1" x1="2680.3" y1="1394.5" x2="2669.5" y2="1394.5"/>
<line class="st1" x1="2703.3" y1="1406.9" x2="2680.3" y2="1394.5"/>
<line class="st1" x1="2721.4" y1="1417.8" x2="2703.3" y2="1406.9"/>
<line class="st1" x1="2733" y1="1421.7" x2="2721.4" y2="1417.8"/>
<line class="st1" x1="2752.6" y1="1429.9" x2="2733" y2="1421.7"/>
<line class="st1" x1="2759.7" y1="1426.8" x2="2752.6" y2="1429.9"/>
<line class="st1" x1="2774.1" y1="1435.5" x2="2759.7" y2="1426.8"/>
<line class="st1" x1="2796.4" y1="1436.9" x2="2774.1" y2="1435.5"/>
<line class="st1" x1="2811.2" y1="1428.3" x2="2796.4" y2="1436.9"/>
<line class="st1" x1="2812.6" y1="1428" x2="2811.2" y2="1428.3"/>
<line class="st1" x1="2822.1" y1="1426.3" x2="2812.6" y2="1428"/>
<line class="st1" x1="2829.3" y1="1419.1" x2="2822.1" y2="1426.3"/>
<line class="st1" x1="2840.5" y1="1411.3" x2="2829.3" y2="1419.1"/>
<line class="st1" x1="2854.2" y1="1403.2" x2="2840.5" y2="1411.3"/>
<line class="st1" x1="2857.2" y1="1399.5" x2="2854.2" y2="1403.2"/>
<line class="st1" x1="2878.6" y1="1384.5" x2="2857.2" y2="1399.5"/>
<line class="st1" x1="2900.5" y1="1379.6" x2="2878.6" y2="1384.5"/>
<line class="st1" x1="2911.4" y1="1392.2" x2="2900.5" y2="1379.6"/>
<line class="st1" x1="2916.1" y1="1405.5" x2="2911.4" y2="1392.2"/>
<line class="st1" x1="2929.7" y1="1412" x2="2916.1" y2="1405.5"/>
<line class="st1" x1="2937.2" y1="1421.9" x2="2929.7" y2="1412"/>
<line class="st1" x1="2933.3" y1="1430.6" x2="2937.2" y2="1421.9"/>
<line class="st1" x1="2928.7" y1="1432.6" x2="2933.3" y2="1430.6"/>
<line class="st1" x1="2923.1" y1="1434.1" x2="2928.7" y2="1432.6"/>
<line class="st1" x1="2916.3" y1="1434.5" x2="2923.1" y2="1434.1"/>
<line class="st1" x1="2900.9" y1="1440.2" x2="2916.3" y2="1434.5"/>
<line class="st1" x1="2892.8" y1="1450.6" x2="2900.9" y2="1440.2"/>
<line class="st1" x1="2887" y1="1454.2" x2="2892.8" y2="1450.6"/>
<line class="st1" x1="2880.4" y1="1460.4" x2="2887" y2="1454.2"/>
<line class="st1" x1="2873.1" y1="1463" x2="2880.4" y2="1460.4"/>
<line class="st1" x1="2865.7" y1="1464" x2="2873.1" y2="1463"/>
<line class="st1" x1="2859.1" y1="1463.4" x2="2865.7" y2="1464"/>
<line class="st1" x1="2858.1" y1="1468.7" x2="2859.1" y2="1463.4"/>
<line class="st1" x1="2853.7" y1="1468.6" x2="2858.1" y2="1468.7"/>
<line class="st1" x1="2846.7" y1="1467.9" x2="2853.7" y2="1468.6"/>
<line class="st1" x1="2838.1" y1="1468.6" x2="2846.7" y2="1467.9"/>
<line class="st1" x1="2831.7" y1="1470.6" x2="2838.1" y2="1468.6"/>
<line class="st1" x1="2825.2" y1="1473" x2="2831.7" y2="1470.6"/>
<line class="st1" x1="2815.3" y1="1479.2" x2="2825.2" y2="1473"/>
<line class="st1" x1="2805.2" y1="1487.9" x2="2815.3" y2="1479.2"/>
<line class="st1" x1="2799.8" y1="1489.4" x2="2805.2" y2="1487.9"/>
<line class="st1" x1="2793" y1="1495.9" x2="2799.8" y2="1489.4"/>
<line class="st1" x1="2791.6" y1="1503.5" x2="2793" y2="1495.9"/>
<line class="st1" x1="2788.3" y1="1505.3" x2="2791.6" y2="1503.5"/>
<line class="st1" x1="2783.7" y1="1509.4" x2="2788.3" y2="1505.3"/>
<line class="st1" x1="2772.7" y1="1512.4" x2="2783.7" y2="1509.4"/>
<line class="st1" x1="2760.2" y1="1517.5" x2="2772.7" y2="1512.4"/>
<line class="st1" x1="2751.9" y1="1518.9" x2="2760.2" y2="1517.5"/>
<line class="st1" x1="2746.9" y1="1522.8" x2="2751.9" y2="1518.9"/>
<line class="st1" x1="2743.2" y1="1518.2" x2="2746.9" y2="1522.8"/>
<line class="st1" x1="2730.2" y1="1506.6" x2="2743.2" y2="1518.2"/>
<line class="st1" x1="2712.8" y1="1501.5" x2="2730.2" y2="1506.6"/>
<line class="st1" x1="2709" y1="1508.6" x2="2712.8" y2="1501.5"/>
<line class="st1" x1="2715.6" y1="1516.2" x2="2709" y2="1508.6"/>
<line class="st1" x1="2725.4" y1="1523.3" x2="2715.6" y2="1516.2"/>
<line class="st1" x1="2731.8" y1="1523.7" x2="2725.4" y2="1523.3"/>
<line class="st1" x1="2738.1" y1="1529.5" x2="2731.8" y2="1523.7"/>
<line class="st1" x1="2741.6" y1="1533.2" x2="2738.1" y2="1529.5"/>
<line class="st1" x1="2744.2" y1="1536.9" x2="2741.6" y2="1533.2"/>
<line class="st1" x1="2751.9" y1="1545.6" x2="2744.2" y2="1536.9"/>
<line class="st1" x1="2756.3" y1="1544.5" x2="2751.9" y2="1545.6"/>
<line class="st1" x1="2755.2" y1="1537.5" x2="2756.3" y2="1544.5"/>
<line class="st1" x1="2754.6" y1="1535.3" x2="2755.2" y2="1537.5"/>
<line class="st1" x1="2756" y1="1529.9" x2="2754.6" y2="1535.3"/>
<line class="st1" x1="2766.5" y1="1524.3" x2="2756" y2="1529.9"/>
<line class="st1" x1="2772.9" y1="1525.1" x2="2766.5" y2="1524.3"/>
<line class="st1" x1="2779.7" y1="1524.7" x2="2772.9" y2="1525.1"/>
<line class="st1" x1="2785.1" y1="1523.8" x2="2779.7" y2="1524.7"/>
<line class="st1" x1="2791.4" y1="1522.5" x2="2785.1" y2="1523.8"/>
<line class="st1" x1="2796.8" y1="1517.8" x2="2791.4" y2="1522.5"/>
<line class="st1" x1="2802.9" y1="1509.9" x2="2796.8" y2="1517.8"/>
<line class="st1" x1="2814.1" y1="1504.2" x2="2802.9" y2="1509.9"/>
<line class="st1" x1="2819.2" y1="1499.7" x2="2814.1" y2="1504.2"/>
<line class="st1" x1="2826.3" y1="1497.8" x2="2819.2" y2="1499.7"/>
<line class="st1" x1="2831.1" y1="1494.9" x2="2826.3" y2="1497.8"/>
<line class="st1" x1="2836" y1="1492" x2="2831.1" y2="1494.9"/>
<line class="st1" x1="2842.6" y1="1492.5" x2="2836" y2="1492"/>
<line class="st1" x1="2848.4" y1="1491.9" x2="2842.6" y2="1492.5"/>
<line class="st1" x1="2855.1" y1="1485.6" x2="2848.4" y2="1491.9"/>
<line class="st1" x1="2862.7" y1="1482.7" x2="2855.1" y2="1485.6"/>
<line class="st1" x1="2879.1" y1="1472.3" x2="2862.7" y2="1482.7"/>
<line class="st1" x1="2887.8" y1="1466.7" x2="2879.1" y2="1472.3"/>
<line class="st1" x1="2898" y1="1453.4" x2="2887.8" y2="1466.7"/>
<line class="st1" x1="2898.2" y1="1450.3" x2="2898" y2="1453.4"/>
<line class="st1" x1="2905.7" y1="1445.5" x2="2898.2" y2="1450.3"/>
<line class="st1" x1="2911.1" y1="1442.1" x2="2905.7" y2="1445.5"/>
<line class="st1" x1="2925.3" y1="1440.6" x2="2911.1" y2="1442.1"/>
<line class="st1" x1="2931.6" y1="1439.1" x2="2925.3" y2="1440.6"/>
<line class="st1" x1="2941.5" y1="1438.4" x2="2931.6" y2="1439.1"/>
<line class="st1" x1="2949.3" y1="1434.5" x2="2941.5" y2="1438.4"/>
<line class="st1" x1="2960.9" y1="1437.5" x2="2949.3" y2="1434.5"/>
<line class="st1" x1="2970.4" y1="1437.5" x2="2960.9" y2="1437.5"/>
<line class="st1" x1="2977.7" y1="1444.8" x2="2970.4" y2="1437.5"/>
<line class="st1" x1="2974.6" y1="1448" x2="2977.7" y2="1444.8"/>
<line class="st1" x1="2971.1" y1="1454.6" x2="2974.6" y2="1448"/>
<line class="st1" x1="2964" y1="1463.9" x2="2971.1" y2="1454.6"/>
<line class="st1" x1="2956.3" y1="1471.6" x2="2964" y2="1463.9"/>
<line class="st1" x1="2954.2" y1="1476.7" x2="2956.3" y2="1471.6"/>
<line class="st1" x1="2949.5" y1="1488" x2="2954.2" y2="1476.7"/>
<line class="st1" x1="2956.7" y1="1510.7" x2="2949.5" y2="1488"/>
<line class="st1" x1="2950.4" y1="1525" x2="2956.7" y2="1510.7"/>
<line class="st1" x1="2937.5" y1="1529.9" x2="2950.4" y2="1525"/>
<line class="st1" x1="2928.4" y1="1539" x2="2937.5" y2="1529.9"/>
<line class="st1" x1="2922.7" y1="1552.7" x2="2928.4" y2="1539"/>
<line class="st1" x1="2914.6" y1="1560.8" x2="2922.7" y2="1552.7"/>
<line class="st1" x1="2922.7" y1="1575.5" x2="2914.6" y2="1560.8"/>
<line class="st1" x1="2922.7" y1="1587.8" x2="2922.7" y2="1575.5"/>
<line class="st1" x1="1687.9" y1="1587.7" x2="2922.7" y2="1587.8"/>
<polyline class="st2" points="1417.3,1543.8 1411.4,1542 1399.1,1542 1386.7,1549.4 1363.5,1537.1 1365.4,1533.5 1369.9,1526.3 
	1375.7,1518.7 1378.2,1505.2 1394.8,1500.7 1401.1,1496.6 1418.1,1483.9 1426.4,1477.5 1430.4,1472 1445.9,1463 1459.3,1456.1 
	1478.4,1444.3 1487.8,1447.3 1490,1444.9 1506.4,1439.3 1518.3,1438.2 1526.9,1442.5 1531.6,1433.5 1531.8,1424.1 1521.9,1419.4 
	1514.8,1420.3 1508.3,1421.6 1499.3,1424 1467.4,1440.1 1465.4,1432.7 1486.9,1409.9 1499.3,1404.6 1497.8,1399.7 1516.4,1378 
	1529.7,1368.5 1537.6,1357.1 1550.8,1350.4 1560.2,1347.9 1572.6,1340 1567.9,1337.1 1572.3,1330.1 1582.2,1327 1585,1318.8 
	1582.2,1310.4 1595.7,1304.3 1600.6,1293.8 1623.6,1273.4 1633.2,1269.3 1643,1261.3 1649.3,1252.6 1681.1,1237.9 1687.8,1232.7 
	1700.9,1221.2 1716.1,1220.1 1734.7,1216.3 1756,1212.1 1765.3,1211.8 1773.2,1211.5 1776.7,1210.9 1783.3,1209.8 1791.9,1207.6 
	1794.7,1204.8 1813.8,1197.4 1822.7,1194 1836.5,1185.6 1848,1189.8 1860.6,1198.9 1883.1,1190.1 1899.9,1194.5 1918.2,1200.6 
	1936.3,1182.5 1941.4,1185.5 1953.7,1182.8 1959.3,1184.3 1967,1182.5 1977,1182.8 1982.1,1188.8 1984.2,1195.9 1981.4,1203.1 
	1983.7,1214.1 1989.3,1213.7 1994.3,1212.2 2002.2,1215.4 2009.2,1228.4 2004.9,1241 2008.3,1247.4 2014.9,1243.6 2028.6,1247.2 
	2029.2,1253.7 2029.2,1269.1 2023.8,1281.4 2018,1287.8 2009.3,1292.4 1996.3,1295.1 1980.8,1304.5 1976.3,1293.3 1975.1,1287.5 
	1963.6,1264.4 1936.9,1264.4 1907.7,1285.6 1865.3,1316.3 1837.1,1333.5 1822.6,1358.5 1803.9,1354.4 1767.5,1346.4 1737.6,1346.4 
	1728.7,1365.7 1745.6,1382.6 1756.2,1393.2 1756,1409.6 1765.7,1429.6 1756.2,1443.5 1740.1,1437.6 1719.3,1430.1 1698.7,1450.8 
	1676.2,1457.9 1654.2,1464.9 1649.6,1450.5 1629.7,1456.8 1620.2,1469.8 1595,1473.5 1569.2,1469.8 1556.9,1469.8 1532.7,1478.8 
	1520.1,1491.5 1505,1500.3 1502.3,1517.8 1486.9,1517.8 1482.3,1503.4 1475.4,1496.4 1466.1,1505.6 1453.7,1507.3 1441.4,1495 
	1435.9,1507.9 1419.5,1517.8 1419.5,1536.3 1417.3,1543.8 "/>
<line class="st1" x1="1411.4" y1="1542" x2="1417.3" y2="1543.8"/>
<line class="st1" x1="1399.1" y1="1542" x2="1411.4" y2="1542"/>
<line class="st1" x1="1386.7" y1="1549.4" x2="1399.1" y2="1542"/>
<line class="st1" x1="1363.5" y1="1537.1" x2="1386.7" y2="1549.4"/>
<line class="st1" x1="1365.4" y1="1533.5" x2="1363.5" y2="1537.1"/>
<line class="st1" x1="1369.9" y1="1526.3" x2="1365.4" y2="1533.5"/>
<line class="st1" x1="1375.7" y1="1518.7" x2="1369.9" y2="1526.3"/>
<line class="st1" x1="1378.2" y1="1505.2" x2="1375.7" y2="1518.7"/>
<line class="st1" x1="1394.8" y1="1500.7" x2="1378.2" y2="1505.2"/>
<line class="st1" x1="1401.1" y1="1496.6" x2="1394.8" y2="1500.7"/>
<line class="st1" x1="1418.1" y1="1484" x2="1401.1" y2="1496.6"/>
<line class="st1" x1="1426.4" y1="1477.5" x2="1418.1" y2="1484"/>
<line class="st1" x1="1430.4" y1="1472" x2="1426.4" y2="1477.5"/>
<line class="st1" x1="1445.9" y1="1463" x2="1430.4" y2="1472"/>
<line class="st1" x1="1459.3" y1="1456.1" x2="1445.9" y2="1463"/>
<line class="st1" x1="1478.4" y1="1444.3" x2="1459.3" y2="1456.1"/>
<line class="st1" x1="1487.8" y1="1447.3" x2="1478.4" y2="1444.3"/>
<line class="st1" x1="1490" y1="1444.9" x2="1487.8" y2="1447.3"/>
<line class="st1" x1="1506.4" y1="1439.3" x2="1490" y2="1444.9"/>
<line class="st1" x1="1518.3" y1="1438.2" x2="1506.4" y2="1439.3"/>
<line class="st1" x1="1526.9" y1="1442.5" x2="1518.3" y2="1438.2"/>
<line class="st1" x1="1531.6" y1="1433.5" x2="1526.9" y2="1442.5"/>
<line class="st1" x1="1531.8" y1="1424.1" x2="1531.6" y2="1433.5"/>
<line class="st1" x1="1521.9" y1="1419.4" x2="1531.8" y2="1424.1"/>
<line class="st1" x1="1514.8" y1="1420.3" x2="1521.9" y2="1419.4"/>
<line class="st1" x1="1508.3" y1="1421.6" x2="1514.8" y2="1420.3"/>
<line class="st1" x1="1499.3" y1="1424" x2="1508.3" y2="1421.6"/>
<line class="st1" x1="1467.4" y1="1440.1" x2="1499.3" y2="1424"/>
<line class="st1" x1="1465.4" y1="1432.7" x2="1467.4" y2="1440.1"/>
<line class="st1" x1="1486.9" y1="1409.9" x2="1465.4" y2="1432.7"/>
<line class="st1" x1="1499.3" y1="1404.6" x2="1486.9" y2="1409.9"/>
<line class="st1" x1="1497.8" y1="1399.7" x2="1499.3" y2="1404.6"/>
<line class="st1" x1="1516.4" y1="1378" x2="1497.8" y2="1399.7"/>
<line class="st1" x1="1529.7" y1="1368.5" x2="1516.4" y2="1378"/>
<line class="st1" x1="1537.6" y1="1357.1" x2="1529.7" y2="1368.5"/>
<line class="st1" x1="1550.8" y1="1350.4" x2="1537.6" y2="1357.1"/>
<line class="st1" x1="1560.2" y1="1347.9" x2="1550.8" y2="1350.4"/>
<line class="st1" x1="1572.6" y1="1340" x2="1560.2" y2="1347.9"/>
<line class="st1" x1="1567.9" y1="1337.1" x2="1572.6" y2="1340"/>
<line class="st1" x1="1572.3" y1="1330.1" x2="1567.9" y2="1337.1"/>
<line class="st1" x1="1582.2" y1="1327" x2="1572.3" y2="1330.1"/>
<line class="st1" x1="1585" y1="1318.8" x2="1582.2" y2="1327"/>
<line class="st1" x1="1582.2" y1="1310.4" x2="1585" y2="1318.8"/>
<line class="st1" x1="1595.7" y1="1304.3" x2="1582.2" y2="1310.4"/>
<line class="st1" x1="1600.6" y1="1293.8" x2="1595.7" y2="1304.3"/>
<line class="st1" x1="1623.6" y1="1273.4" x2="1600.6" y2="1293.8"/>
<line class="st1" x1="1633.2" y1="1269.3" x2="1623.6" y2="1273.4"/>
<line class="st1" x1="1643" y1="1261.3" x2="1633.2" y2="1269.3"/>
<line class="st1" x1="1649.3" y1="1252.6" x2="1643" y2="1261.3"/>
<line class="st1" x1="1681.1" y1="1237.9" x2="1649.3" y2="1252.6"/>
<line class="st1" x1="1687.8" y1="1232.7" x2="1681.1" y2="1237.9"/>
<line class="st1" x1="1700.9" y1="1221.2" x2="1687.8" y2="1232.7"/>
<line class="st1" x1="1716.1" y1="1220.1" x2="1700.9" y2="1221.2"/>
<line class="st1" x1="1734.7" y1="1216.3" x2="1716.1" y2="1220.1"/>
<line class="st1" x1="1756" y1="1212.1" x2="1734.7" y2="1216.3"/>
<line class="st1" x1="1765.3" y1="1211.8" x2="1756" y2="1212.1"/>
<line class="st1" x1="1773.2" y1="1211.5" x2="1765.3" y2="1211.8"/>
<line class="st1" x1="1776.7" y1="1210.9" x2="1773.2" y2="1211.5"/>
<line class="st1" x1="1783.3" y1="1209.8" x2="1776.7" y2="1210.9"/>
<line class="st1" x1="1791.9" y1="1207.6" x2="1783.3" y2="1209.8"/>
<line class="st1" x1="1794.7" y1="1204.8" x2="1791.9" y2="1207.6"/>
<line class="st1" x1="1813.8" y1="1197.4" x2="1794.7" y2="1204.8"/>
<line class="st1" x1="1822.7" y1="1194" x2="1813.8" y2="1197.4"/>
<line class="st1" x1="1836.5" y1="1185.6" x2="1822.7" y2="1194"/>
<line class="st1" x1="1848" y1="1189.8" x2="1836.5" y2="1185.6"/>
<line class="st1" x1="1860.6" y1="1198.9" x2="1848" y2="1189.8"/>
<line class="st1" x1="1883.1" y1="1190.1" x2="1860.6" y2="1198.9"/>
<line class="st1" x1="1899.9" y1="1194.5" x2="1883.1" y2="1190.1"/>
<line class="st1" x1="1918.2" y1="1200.6" x2="1899.9" y2="1194.5"/>
<line class="st1" x1="1936.3" y1="1182.5" x2="1918.2" y2="1200.6"/>
<line class="st1" x1="1941.4" y1="1185.5" x2="1936.3" y2="1182.5"/>
<line class="st1" x1="1953.7" y1="1182.8" x2="1941.4" y2="1185.5"/>
<line class="st1" x1="1959.3" y1="1184.3" x2="1953.7" y2="1182.8"/>
<line class="st1" x1="1967" y1="1182.5" x2="1959.3" y2="1184.3"/>
<line class="st1" x1="1977" y1="1182.8" x2="1967" y2="1182.5"/>
<line class="st1" x1="1982.1" y1="1188.8" x2="1977" y2="1182.8"/>
<line class="st1" x1="1984.2" y1="1195.9" x2="1982.1" y2="1188.8"/>
<line class="st1" x1="1981.4" y1="1203.1" x2="1984.2" y2="1195.9"/>
<line class="st1" x1="1983.7" y1="1214.1" x2="1981.4" y2="1203.1"/>
<line class="st1" x1="1989.3" y1="1213.7" x2="1983.7" y2="1214.1"/>
<line class="st1" x1="1994.3" y1="1212.2" x2="1989.3" y2="1213.7"/>
<line class="st1" x1="2002.2" y1="1215.4" x2="1994.3" y2="1212.2"/>
<line class="st1" x1="2009.2" y1="1228.4" x2="2002.2" y2="1215.4"/>
<line class="st1" x1="2004.9" y1="1241" x2="2009.2" y2="1228.4"/>
<line class="st1" x1="2008.3" y1="1247.4" x2="2004.9" y2="1241"/>
<line class="st1" x1="2014.9" y1="1243.6" x2="2008.3" y2="1247.4"/>
<line class="st1" x1="2028.6" y1="1247.2" x2="2014.9" y2="1243.6"/>
<line class="st1" x1="2029.2" y1="1253.7" x2="2028.6" y2="1247.2"/>
<line class="st1" x1="2029.2" y1="1269.1" x2="2029.2" y2="1253.7"/>
<line class="st1" x1="2023.8" y1="1281.4" x2="2029.2" y2="1269.1"/>
<line class="st1" x1="2018" y1="1287.8" x2="2023.8" y2="1281.4"/>
<line class="st1" x1="2009.3" y1="1292.4" x2="2018" y2="1287.8"/>
<line class="st1" x1="1996.3" y1="1295.1" x2="2009.3" y2="1292.4"/>
<line class="st1" x1="1980.8" y1="1304.5" x2="1996.3" y2="1295.1"/>
<line class="st1" x1="1976.3" y1="1293.3" x2="1980.8" y2="1304.5"/>
<line class="st1" x1="1975.1" y1="1287.5" x2="1976.3" y2="1293.3"/>
<line class="st1" x1="1963.6" y1="1264.4" x2="1975.1" y2="1287.5"/>
<line class="st1" x1="1936.9" y1="1264.4" x2="1963.6" y2="1264.4"/>
<line class="st1" x1="1907.7" y1="1285.5" x2="1936.9" y2="1264.4"/>
<line class="st1" x1="1865.3" y1="1316.3" x2="1907.7" y2="1285.5"/>
<line class="st1" x1="1837.1" y1="1333.5" x2="1865.3" y2="1316.3"/>
<line class="st1" x1="1822.6" y1="1358.5" x2="1837.1" y2="1333.5"/>
<line class="st1" x1="1803.9" y1="1354.4" x2="1822.6" y2="1358.5"/>
<line class="st1" x1="1767.5" y1="1346.4" x2="1803.9" y2="1354.4"/>
<line class="st1" x1="1737.6" y1="1346.4" x2="1767.5" y2="1346.4"/>
<line class="st1" x1="1728.7" y1="1365.7" x2="1737.6" y2="1346.4"/>
<line class="st1" x1="1745.6" y1="1382.6" x2="1728.7" y2="1365.7"/>
<line class="st1" x1="1756.2" y1="1393.2" x2="1745.6" y2="1382.6"/>
<line class="st1" x1="1756" y1="1409.6" x2="1756.2" y2="1393.2"/>
<line class="st1" x1="1765.7" y1="1429.6" x2="1756" y2="1409.6"/>
<line class="st1" x1="1756.2" y1="1443.5" x2="1765.7" y2="1429.6"/>
<line class="st1" x1="1740.1" y1="1437.6" x2="1756.2" y2="1443.5"/>
<line class="st1" x1="1719.3" y1="1430.1" x2="1740.1" y2="1437.6"/>
<line class="st1" x1="1698.7" y1="1450.8" x2="1719.3" y2="1430.1"/>
<line class="st1" x1="1676.2" y1="1457.9" x2="1698.7" y2="1450.8"/>
<line class="st1" x1="1654.2" y1="1464.9" x2="1676.2" y2="1457.9"/>
<line class="st1" x1="1649.6" y1="1450.5" x2="1654.2" y2="1464.9"/>
<line class="st1" x1="1629.7" y1="1456.8" x2="1649.6" y2="1450.5"/>
<line class="st1" x1="1620.2" y1="1469.8" x2="1629.7" y2="1456.8"/>
<line class="st1" x1="1595" y1="1473.5" x2="1620.2" y2="1469.8"/>
<line class="st1" x1="1569.2" y1="1469.8" x2="1595" y2="1473.5"/>
<line class="st1" x1="1556.9" y1="1469.8" x2="1569.2" y2="1469.8"/>
<line class="st1" x1="1532.7" y1="1478.8" x2="1556.9" y2="1469.8"/>
<line class="st1" x1="1520.1" y1="1491.5" x2="1532.7" y2="1478.8"/>
<line class="st1" x1="1505" y1="1500.3" x2="1520.1" y2="1491.5"/>
<line class="st1" x1="1502.3" y1="1517.8" x2="1505" y2="1500.3"/>
<line class="st1" x1="1486.9" y1="1517.8" x2="1502.3" y2="1517.8"/>
<line class="st1" x1="1482.3" y1="1503.4" x2="1486.9" y2="1517.8"/>
<line class="st1" x1="1475.4" y1="1496.4" x2="1482.3" y2="1503.4"/>
<line class="st1" x1="1466.1" y1="1505.6" x2="1475.4" y2="1496.4"/>
<line class="st1" x1="1453.7" y1="1507.3" x2="1466.1" y2="1505.6"/>
<line class="st1" x1="1441.4" y1="1495" x2="1453.7" y2="1507.3"/>
<line class="st1" x1="1435.9" y1="1507.9" x2="1441.4" y2="1495"/>
<line class="st1" x1="1419.5" y1="1517.8" x2="1435.9" y2="1507.9"/>
<line class="st1" x1="1419.5" y1="1536.3" x2="1419.5" y2="1517.8"/>
<line class="st1" x1="1417.3" y1="1543.8" x2="1419.5" y2="1536.3"/>
<polyline class="st2" points="2974.3,1535.6 2979.4,1529.2 2979.4,1517.8 2989.2,1507.2 2997,1492.1 3013.4,1486.7 3032.7,1486.7 
	3047.2,1482.2 3057.4,1477.7 3067.4,1478.9 3070,1487 3076.8,1490.8 3097.9,1492.1 3110.2,1492.1 3116.8,1495.9 3119.6,1502.6 
	3119.6,1514.7 3129.7,1525.3 3143.9,1528.3 3155.8,1535 3167.3,1539.3 3245.6,1548.3 3265.7,1541 3284.4,1544.3 3312.1,1555.3 
	3312.1,1587.8 2980.6,1587.8 2979.4,1582.6 2979.9,1575.5 2986.6,1571.9 2989.2,1559.9 2987.9,1549.1 2974.3,1535.6 "/>
<line class="st1" x1="2980.6" y1="1587.8" x2="2979.4" y2="1582.6"/>
<line class="st1" x1="2979.4" y1="1582.6" x2="2979.9" y2="1575.5"/>
<line class="st1" x1="2979.9" y1="1575.5" x2="2986.6" y2="1571.9"/>
<line class="st1" x1="2986.6" y1="1571.9" x2="2989.2" y2="1559.9"/>
<line class="st1" x1="2989.2" y1="1559.9" x2="2987.9" y2="1549.1"/>
<line class="st1" x1="2987.9" y1="1549.1" x2="2974.3" y2="1535.6"/>
<line class="st1" x1="2974.3" y1="1535.6" x2="2979.4" y2="1529.2"/>
<line class="st1" x1="2979.4" y1="1529.2" x2="2979.4" y2="1517.8"/>
<line class="st1" x1="2979.4" y1="1517.8" x2="2989.2" y2="1507.2"/>
<line class="st1" x1="2989.2" y1="1507.2" x2="2997" y2="1492.1"/>
<line class="st1" x1="2997" y1="1492.1" x2="3013.4" y2="1486.7"/>
<line class="st1" x1="3013.4" y1="1486.7" x2="3032.7" y2="1486.7"/>
<line class="st1" x1="3032.7" y1="1486.7" x2="3047.2" y2="1482.2"/>
<line class="st1" x1="3047.2" y1="1482.2" x2="3057.4" y2="1477.7"/>
<line class="st1" x1="3057.4" y1="1477.7" x2="3067.4" y2="1478.9"/>
<line class="st1" x1="3067.4" y1="1478.9" x2="3070" y2="1487"/>
<line class="st1" x1="3070" y1="1487" x2="3076.8" y2="1490.8"/>
<line class="st1" x1="3076.8" y1="1490.8" x2="3097.9" y2="1492.1"/>
<line class="st1" x1="3097.9" y1="1492.1" x2="3110.2" y2="1492.1"/>
<line class="st1" x1="3110.2" y1="1492.1" x2="3116.8" y2="1495.9"/>
<line class="st1" x1="3116.8" y1="1495.9" x2="3119.6" y2="1502.6"/>
<line class="st1" x1="3119.6" y1="1502.6" x2="3119.6" y2="1514.7"/>
<line class="st1" x1="3119.6" y1="1514.7" x2="3129.7" y2="1525.3"/>
<line class="st1" x1="3129.7" y1="1525.3" x2="3143.9" y2="1528.3"/>
<line class="st1" x1="3143.9" y1="1528.3" x2="3155.8" y2="1535"/>
<line class="st1" x1="3155.8" y1="1535" x2="3167.3" y2="1539.3"/>
<line class="st1" x1="3167.3" y1="1539.3" x2="3245.6" y2="1548.3"/>
<line class="st1" x1="3245.6" y1="1548.3" x2="3265.7" y2="1541"/>
<line class="st1" x1="3265.7" y1="1541" x2="3284.4" y2="1544.3"/>
<line class="st1" x1="3284.4" y1="1544.3" x2="3312.1" y2="1555.3"/>
<line class="st1" x1="3312.1" y1="1555.3" x2="3312.1" y2="1587.8"/>
<line class="st1" x1="3312.1" y1="1587.8" x2="2980.6" y2="1587.8"/>
<path class="st2" d="M1558.2,179.8l-5.9,39.1l22.5-22.5l7.7-12.8l-15-9L1558.2,179.8 M1385.4,333.6l14.3,5.4l8.1,8.1l2.8,11.7h8.9
	l8.9-8.9l6.8-17.8l-14.6-5.5l-1.1-7.3l-12.1,1.8l-13.9,4.4L1385.4,333.6 M1325.2,393.4l-1.7,6.8v9.8l21.5,21.5l21.6-21.5v-9.8
	l-6-3.4l-10.6-3.4L1325.2,393.4 M1248,438.6l-1.8,10.2h10.2l8.2,3.5l15.3,0.2l4.6-4.6l-2.1-3.9l-3.8-7.1l-2.1-6.8l4.7-2.7l1.3-1.5
	v-7.2l-3.9-3.9l-10.7,2.5l-4.8,6l-7.8,4.3L1248,438.6 M21.4,715.6l70.3-70.3l53.6-34.5l29.9-49l77.1-77l-20.8-35.4l31.4-31.4l31-5.1
	l16.4-42.3l55.9-33.5l74-40.3l93.2-24.1l42.7-40.3l49.5-46.8l12.1-11.4l17.3-13.1l72.3-54.9l5.5-11.1l46.9-94.9h91l-27.3,36
	l-32,42.2l-17.9,118.4v87.9l48.1,81l-15.3,35l-13,29.8L793.7,450l24.3,24.3l-5,44.4l11.5,47.2l22.9,48.4l25.7,5.8l56.9-9.1l61.6-8.2
	l24.5-34l92.5-51.9l8.6-55.9l24.9-63.7l44.6-44.8l77.7,19.3l88.8-56.3l76.6-96l63.3-63.3l29.8-58l82-98.1H1752l-31.6,75l-16.2,34.8
	l-63.4,132.1l-92.8,92.8l-54.9-9.9l-8.6,47.5l-39.7,43.2l18,18v32.5l-21,46.9l-41.1-12.5l-47.4,6.7l0.4,21.3l10.8,58.5l-46.7-8.3
	l-37.3,5.2l-44.7,40.8l-22.3,26.2l7.2,18l-28,24.7l-29.1,18.5l-29.7,14.5l-37.6-35.2l-22.5-14.4l-29.1,15.4l4,12.6l-7,41l-66.1,5.9
	L911,765.2l-62.5-31.1l-30.7-12.7l-47.3-14.8l-4.7-8.3l-18.7-31l-14.1-18l-10.5-22.2l-17.7-28.9l-96.5-5.5l-62.3,67l-37.6,18
	l-8.2,65.6l-20.1,39.2l-33.7,34.8l-9.7,34.5l-15,19.5l-55.7,27.4l-45.1,3.5l-28.3-8l-38.9,0.9l-38.9,8.8l-19.5,21.2l-24.8-38.9
	l-32.7-22.8l-45.1-6.8L42.3,821l-0.8-5.6l-5.9-41.7L21.4,715.6"/>
<line class="st1" x1="873.2" y1="620.2" x2="847.5" y2="614.4"/>
<line class="st1" x1="930.1" y1="611.1" x2="873.2" y2="620.2"/>
<line class="st1" x1="991.7" y1="602.8" x2="930.1" y2="611.1"/>
<line class="st1" x1="1016.2" y1="568.9" x2="991.7" y2="602.8"/>
<line class="st1" x1="1108.8" y1="517" x2="1016.2" y2="568.9"/>
<line class="st1" x1="1117.3" y1="461.1" x2="1108.8" y2="517"/>
<line class="st1" x1="1142.2" y1="397.4" x2="1117.3" y2="461.1"/>
<line class="st1" x1="1186.7" y1="352.6" x2="1142.2" y2="397.4"/>
<line class="st1" x1="1264.5" y1="371.9" x2="1186.7" y2="352.6"/>
<line class="st1" x1="1353.3" y1="315.5" x2="1264.5" y2="371.9"/>
<line class="st1" x1="1429.8" y1="219.5" x2="1353.3" y2="315.5"/>
<line class="st1" x1="1493.1" y1="156.2" x2="1429.8" y2="219.5"/>
<line class="st1" x1="1522.9" y1="98.2" x2="1493.1" y2="156.2"/>
<line class="st1" x1="1604.9" y1="0.2" x2="1522.9" y2="98.2"/>
<line class="st1" x1="1720.3" y1="75.2" x2="1752" y2="0.2"/>
<line class="st1" x1="1704.2" y1="109.9" x2="1720.3" y2="75.2"/>
<line class="st1" x1="1640.8" y1="242" x2="1704.2" y2="109.9"/>
<line class="st1" x1="1548" y1="334.9" x2="1640.8" y2="242"/>
<line class="st1" x1="1493.1" y1="325" x2="1548" y2="334.9"/>
<line class="st1" x1="1484.5" y1="372.5" x2="1493.1" y2="325"/>
<line class="st1" x1="1444.8" y1="415.7" x2="1484.5" y2="372.5"/>
<line class="st1" x1="1462.8" y1="433.7" x2="1444.8" y2="415.7"/>
<line class="st1" x1="1462.8" y1="466.2" x2="1462.8" y2="433.7"/>
<line class="st1" x1="1441.8" y1="513.1" x2="1462.8" y2="466.2"/>
<line class="st1" x1="1400.7" y1="500.6" x2="1441.8" y2="513.1"/>
<line class="st1" x1="1353.3" y1="507.3" x2="1400.7" y2="500.6"/>
<line class="st1" x1="1353.7" y1="528.6" x2="1353.3" y2="507.3"/>
<line class="st1" x1="1364.5" y1="587.1" x2="1353.7" y2="528.6"/>
<line class="st1" x1="1317.8" y1="578.8" x2="1364.5" y2="587.1"/>
<line class="st1" x1="1280.5" y1="584" x2="1317.8" y2="578.8"/>
<line class="st1" x1="1235.7" y1="624.8" x2="1280.5" y2="584"/>
<line class="st1" x1="1213.5" y1="651" x2="1235.7" y2="624.8"/>
<line class="st1" x1="1220.7" y1="669" x2="1213.5" y2="651"/>
<line class="st1" x1="1192.6" y1="693.7" x2="1220.7" y2="669"/>
<line class="st1" x1="1163.5" y1="712.2" x2="1192.6" y2="693.7"/>
<line class="st1" x1="1133.8" y1="726.7" x2="1163.5" y2="712.2"/>
<line class="st1" x1="1096.2" y1="691.6" x2="1133.8" y2="726.7"/>
<line class="st1" x1="1073.6" y1="677.1" x2="1096.2" y2="691.6"/>
<line class="st1" x1="1044.5" y1="692.6" x2="1073.6" y2="677.1"/>
<line class="st1" x1="1048.5" y1="705.2" x2="1044.5" y2="692.6"/>
<line class="st1" x1="1041.6" y1="746.2" x2="1048.5" y2="705.2"/>
<line class="st1" x1="975.5" y1="752" x2="1041.6" y2="746.2"/>
<line class="st1" x1="911" y1="765.2" x2="975.5" y2="752"/>
<line class="st1" x1="848.5" y1="734.2" x2="911" y2="765.2"/>
<line class="st1" x1="817.8" y1="721.4" x2="848.5" y2="734.2"/>
<line class="st1" x1="770.5" y1="706.7" x2="817.8" y2="721.4"/>
<line class="st1" x1="765.8" y1="698.4" x2="770.5" y2="706.7"/>
<line class="st1" x1="747.1" y1="667.3" x2="765.8" y2="698.4"/>
<line class="st1" x1="733" y1="649.4" x2="747.1" y2="667.3"/>
<line class="st1" x1="722.6" y1="627.2" x2="733" y2="649.4"/>
<line class="st1" x1="704.9" y1="598.3" x2="722.6" y2="627.2"/>
<line class="st1" x1="608.4" y1="592.8" x2="704.9" y2="598.3"/>
<line class="st1" x1="546.1" y1="659.8" x2="608.4" y2="592.8"/>
<line class="st1" x1="508.5" y1="677.8" x2="546.1" y2="659.8"/>
<line class="st1" x1="500.3" y1="743.4" x2="508.5" y2="677.8"/>
<line class="st1" x1="480.3" y1="782.7" x2="500.3" y2="743.4"/>
<line class="st1" x1="446.6" y1="817.4" x2="480.3" y2="782.7"/>
<line class="st1" x1="436.9" y1="851.9" x2="446.6" y2="817.4"/>
<line class="st1" x1="421.8" y1="871.4" x2="436.9" y2="851.9"/>
<line class="st1" x1="366.1" y1="898.8" x2="421.8" y2="871.4"/>
<line class="st1" x1="321" y1="902.4" x2="366.1" y2="898.8"/>
<line class="st1" x1="292.6" y1="894.4" x2="321" y2="902.4"/>
<line class="st1" x1="253.7" y1="895.3" x2="292.6" y2="894.4"/>
<line class="st1" x1="214.8" y1="904.1" x2="253.7" y2="895.3"/>
<line class="st1" x1="195.3" y1="925.4" x2="214.8" y2="904.1"/>
<line class="st1" x1="170.6" y1="886.4" x2="195.3" y2="925.4"/>
<line class="st1" x1="137.8" y1="863.7" x2="170.6" y2="886.4"/>
<line class="st1" x1="92.7" y1="856.9" x2="137.8" y2="863.7"/>
<line class="st1" x1="42.3" y1="821" x2="92.7" y2="856.9"/>
<line class="st1" x1="41.5" y1="815.4" x2="42.3" y2="821"/>
<line class="st1" x1="35.7" y1="773.6" x2="41.5" y2="815.4"/>
<line class="st1" x1="21.4" y1="715.6" x2="35.7" y2="773.6"/>
<line class="st1" x1="91.7" y1="645.3" x2="21.4" y2="715.6"/>
<line class="st1" x1="145.3" y1="610.8" x2="91.7" y2="645.3"/>
<line class="st1" x1="175.2" y1="561.8" x2="145.3" y2="610.8"/>
<line class="st1" x1="252.2" y1="484.8" x2="175.2" y2="561.8"/>
<line class="st1" x1="231.5" y1="449.4" x2="252.2" y2="484.8"/>
<line class="st1" x1="262.9" y1="418" x2="231.5" y2="449.4"/>
<line class="st1" x1="294" y1="412.8" x2="262.9" y2="418"/>
<line class="st1" x1="310.4" y1="370.5" x2="294" y2="412.8"/>
<line class="st1" x1="366.2" y1="337" x2="310.4" y2="370.5"/>
<line class="st1" x1="440.3" y1="296.8" x2="366.2" y2="337"/>
<line class="st1" x1="533.4" y1="272.7" x2="440.3" y2="296.8"/>
<line class="st1" x1="576" y1="232.4" x2="533.4" y2="272.7"/>
<line class="st1" x1="625.5" y1="185.6" x2="576" y2="232.4"/>
<line class="st1" x1="637.6" y1="174.2" x2="625.5" y2="185.6"/>
<line class="st1" x1="654.9" y1="161.1" x2="637.6" y2="174.2"/>
<line class="st1" x1="727.2" y1="106.2" x2="654.9" y2="161.1"/>
<line class="st1" x1="732.7" y1="95.1" x2="727.2" y2="106.2"/>
<line class="st1" x1="779.7" y1="0.2" x2="732.7" y2="95.1"/>
<line class="st1" x1="843.3" y1="36.1" x2="870.6" y2="0.2"/>
<line class="st1" x1="811.3" y1="78.3" x2="843.3" y2="36.1"/>
<line class="st1" x1="793.5" y1="196.8" x2="811.3" y2="78.3"/>
<line class="st1" x1="793.5" y1="284.7" x2="793.5" y2="196.8"/>
<line class="st1" x1="841.6" y1="365.7" x2="793.5" y2="284.7"/>
<line class="st1" x1="826.3" y1="400.7" x2="841.6" y2="365.7"/>
<line class="st1" x1="813.3" y1="430.5" x2="826.3" y2="400.7"/>
<line class="st1" x1="793.7" y1="450.1" x2="813.3" y2="430.5"/>
<line class="st1" x1="818.1" y1="474.4" x2="793.7" y2="450.1"/>
<line class="st1" x1="813.1" y1="518.8" x2="818.1" y2="474.4"/>
<line class="st1" x1="824.6" y1="566" x2="813.1" y2="518.8"/>
<line class="st1" x1="847.5" y1="614.4" x2="824.6" y2="566"/>
<line class="st1" x1="1263" y1="423.2" x2="1267.8" y2="417.2"/>
<line class="st1" x1="1255.2" y1="427.5" x2="1263" y2="423.2"/>
<line class="st1" x1="1247.9" y1="438.6" x2="1255.2" y2="427.5"/>
<line class="st1" x1="1246.1" y1="448.8" x2="1247.9" y2="438.6"/>
<line class="st1" x1="1256.3" y1="448.8" x2="1246.1" y2="448.8"/>
<line class="st1" x1="1264.5" y1="452.3" x2="1256.3" y2="448.8"/>
<line class="st1" x1="1279.8" y1="452.5" x2="1264.5" y2="452.3"/>
<line class="st1" x1="1284.4" y1="447.9" x2="1279.8" y2="452.5"/>
<line class="st1" x1="1282.3" y1="443.9" x2="1284.4" y2="447.9"/>
<line class="st1" x1="1278.4" y1="436.8" x2="1282.3" y2="443.9"/>
<line class="st1" x1="1276.3" y1="430" x2="1278.4" y2="436.8"/>
<line class="st1" x1="1281.1" y1="427.3" x2="1276.3" y2="430"/>
<line class="st1" x1="1282.4" y1="425.8" x2="1281.1" y2="427.3"/>
<line class="st1" x1="1282.4" y1="418.6" x2="1282.4" y2="425.8"/>
<line class="st1" x1="1278.4" y1="414.7" x2="1282.4" y2="418.6"/>
<line class="st1" x1="1267.8" y1="417.2" x2="1278.4" y2="414.7"/>
<line class="st1" x1="1323.5" y1="400.2" x2="1325.2" y2="393.4"/>
<line class="st1" x1="1323.5" y1="410.1" x2="1323.5" y2="400.2"/>
<line class="st1" x1="1345" y1="431.6" x2="1323.5" y2="410.1"/>
<line class="st1" x1="1366.6" y1="410.1" x2="1345" y2="431.6"/>
<line class="st1" x1="1366.6" y1="400.2" x2="1366.6" y2="410.1"/>
<line class="st1" x1="1360.6" y1="396.8" x2="1366.6" y2="400.2"/>
<line class="st1" x1="1349.9" y1="393.4" x2="1360.6" y2="396.8"/>
<line class="st1" x1="1325.2" y1="393.4" x2="1349.9" y2="393.4"/>
<line class="st1" x1="1419.4" y1="319.2" x2="1407.3" y2="321"/>
<line class="st1" x1="1407.3" y1="321" x2="1393.5" y2="325.5"/>
<line class="st1" x1="1393.5" y1="325.5" x2="1385.4" y2="333.6"/>
<line class="st1" x1="1385.4" y1="333.6" x2="1399.6" y2="339"/>
<line class="st1" x1="1399.6" y1="339" x2="1407.8" y2="347.1"/>
<line class="st1" x1="1407.8" y1="347.1" x2="1410.5" y2="358.8"/>
<line class="st1" x1="1410.5" y1="358.8" x2="1419.4" y2="358.8"/>
<line class="st1" x1="1419.4" y1="358.8" x2="1428.3" y2="349.9"/>
<line class="st1" x1="1428.3" y1="349.9" x2="1435.1" y2="332.1"/>
<line class="st1" x1="1435.1" y1="332.1" x2="1420.5" y2="326.6"/>
<line class="st1" x1="1420.5" y1="326.6" x2="1419.4" y2="319.2"/>
<line class="st1" x1="1567.5" y1="174.6" x2="1558.2" y2="179.8"/>
<line class="st1" x1="1558.2" y1="179.8" x2="1552.3" y2="219"/>
<line class="st1" x1="1552.3" y1="219" x2="1574.8" y2="196.4"/>
<line class="st1" x1="1574.8" y1="196.4" x2="1582.5" y2="183.6"/>
<line class="st1" x1="1582.5" y1="183.6" x2="1567.5" y2="174.6"/>
<path class="st2" d="M2610.1,1178.3l-1.4,10.6l4.7,7.4l27.8-7l9.8-7.1l15.1-4.4l13.3-8l9.8-2.1l7.9-7.8v-4.9l-8.1-3.3l-15.7,3.3
	l-13.3,8.6l-13.2,3.9l-26.7,12L2610.1,1178.3 M2553,990.9l-5.9,16.3l2.6,9.3l10.5,10.5l24.5-6l9.8-7.4l2.7-14.5l6.8-22l5.4-5.4
	l1.7-11.4l-0.4-5l-5-13.4l-7.7-3.6l-11.2-11.3l-3.9,6.8l-5.6,5.6l-8.8,2l-9.4,17.7v7.7l5.5,15.2l-3.2,3.2L2553,990.9 M1745.5,716.4
	l-1.3-28.4l27.6-16.8l13.5-8.2l24.3-12.4l15.5-7.9l31.7-21.9l15.8-10.9l9.6-5.1l32-17.2l21.1-21.1l3-24.2l25.7-36.6l43-61.2l4.9-8.8
	l19.9-35.3l51-51l30.7-30.7l33-43.8l30-39.8l3-4l13.7-12.7l28.9-26.8l42.6-39.6l21.3-27l29.2-37.1L2429,0.2h155.6l-49.5,76.7
	l-89.3,89.4l-191.3,273.2l-64.7,80l-35,78.3l-30.1,107.2l48.8,73.1l98.9-18.1l100-77.6l91.2-17.6l106.5,38.7l77.6,43.7l78.5,111.7
	l46.8,46.8l-12.5,59.7l-6,111.1l21.5,41.6l87.1,3.3l61.9,8.5l92.7-5.4l93.7-28.2l84.5-30l70.2-9.4l46,5.7V1507h-27.8l-15.4-4.7
	l-8.5-8.5l-12.4-6.8l-10.4-2.5l-17.2-9.8l-4.9-9.4l-19-5.5l-9.9-9.6l-14.7-3.2l-7.6-4.4h-12.3l-12.3-2.7l-11.7-6.6l-20.2-20.3
	l1.2-8.6l2.4-9.5l-2.4-9.8h-8.9l-8.6,2.4l-4.3,7.2l-13.1,6.4l-51.4,6.3h-11.3l-9.2,3.3h-23.1l-19.1-8.7l-29.7-42l-2.4-14.6l-7.1-7.9
	l-18.5-3.2l-5.8-6l-4.4-8.6l0.6-7l-5.6-17.2l-2-14.6l-5-11.3l-11.9-8.6l-16.5-10.4l-17.4,9.9l-6.3-5.9l-26.8-10.7l-4.8-4.5l-6.8-2.2
	l-9.4-1.7l-4.9,6.4l-11.1,2.5l-6.6,6.5l-9.7,4l-15.2,5.6l-8.9-1.4l-4.9,4.9l-19.8-3.2l-10,4.3l-7.7,1l-8.5-2.6l-18.1,6.1l-5.3,8
	l-16.5,6.4l-6.9-5.4l-5.4,0.4l-7.3,0.5l-6.7,3.4l-7.8,2.7l-5.6-1.4l-9.1-1l-7.4,3.4l-11.1,3.4l-21.6-2.9l-6.4-2l-5.1-9.8l6.8-35.8
	l6.2-14.3l-4.6-15l-7-4.1l-10.9-1.8l-10.5,1.6l-9.8,5.5l-13.3,1.6l-3.8-2.3l-1-4l-5.9-7.6l-1.2-4.6l-4.3-4.8l-1.9-6.7l-3.1-3.5
	l-6.4-9.4l-0.7-5.2l-0.4-7.7l1.1-4.2l-0.1-5.5l-3.9-6.7l-1.5-12l-3.1-9.4l-5.4-8.5l-3.7-7.3l-8-2.1l-8-0.1l-9.5-0.1l-9.1,3.1
	l-9.9-0.4l-6.9,1l-7.4,2l-11.9,5.1l-9.9,4.6l-46.2,9.7l-13.2,5.3l-34.4,4.8l-32.3,8.1l-19,3.5l-7.4,2.6l-12.1,3.8l-15.5,3.6
	l-10.1,1.6l-14.2,3.7l-12.4-3.4l-22.1,6.3h-26.7l-16.5-3l-11.2-16.2l-5.6-14l-11.4-11.4l-9.7-13.1l-12.8-7.1l-10.1-24.2l1.3-13
	l-11.5-28.9l-7.9-7.9l-3.4-12l-8-11.2l-7.6-16.3l-10-10h33.3l13.6-13.6l-10.9-22.9l-2.7-11.8l2.6-14.7l17.1-18.7l5.6-24.2l3.8-8.4
	v-55.1l1.6-18.7l-8.5-26.5l-12.8-21l-9.3-25.7l3-13.7l-15.7-21.6l-22.6-12.3h-33.5l-7.9-15.8l-14.3-14.3l-24.6,15l-11.1,15.1
	l-7.1,12.7l-21.6,26.6l-34.6,21.1l-22.4,5.3l-28.8-14.8l-20.3-3.4"/>
<line class="st1" x1="2535.1" y1="76.9" x2="2584.6" y2="0.2"/>
<line class="st1" x1="2445.8" y1="166.4" x2="2535.1" y2="76.9"/>
<line class="st1" x1="2254.5" y1="439.6" x2="2445.8" y2="166.4"/>
<line class="st1" x1="2189.8" y1="519.6" x2="2254.5" y2="439.6"/>
<line class="st1" x1="2154.8" y1="597.9" x2="2189.8" y2="519.6"/>
<line class="st1" x1="2124.7" y1="705.1" x2="2154.8" y2="597.9"/>
<line class="st1" x1="2173.5" y1="778.2" x2="2124.7" y2="705.1"/>
<line class="st1" x1="2272.4" y1="760.1" x2="2173.5" y2="778.2"/>
<line class="st1" x1="2372.4" y1="682.5" x2="2272.4" y2="760.1"/>
<line class="st1" x1="2463.6" y1="664.9" x2="2372.4" y2="682.5"/>
<line class="st1" x1="2570.1" y1="703.6" x2="2463.6" y2="664.9"/>
<line class="st1" x1="2647.8" y1="747.3" x2="2570.1" y2="703.6"/>
<line class="st1" x1="2726.2" y1="859" x2="2647.8" y2="747.3"/>
<line class="st1" x1="2773" y1="905.8" x2="2726.2" y2="859"/>
<line class="st1" x1="2760.5" y1="965.4" x2="2773" y2="905.8"/>
<line class="st1" x1="2754.5" y1="1076.6" x2="2760.5" y2="965.4"/>
<line class="st1" x1="2776" y1="1118.2" x2="2754.5" y2="1076.6"/>
<line class="st1" x1="2863.1" y1="1121.5" x2="2776" y2="1118.2"/>
<line class="st1" x1="2925" y1="1130" x2="2863.1" y2="1121.5"/>
<line class="st1" x1="3017.7" y1="1124.5" x2="2925" y2="1130"/>
<line class="st1" x1="3111.4" y1="1096.3" x2="3017.7" y2="1124.5"/>
<line class="st1" x1="3195.9" y1="1066.3" x2="3111.4" y2="1096.3"/>
<line class="st1" x1="3266.1" y1="1056.9" x2="3195.9" y2="1066.3"/>
<line class="st1" x1="3312.1" y1="1062.5" x2="3266.1" y2="1056.9"/>
<line class="st1" x1="3312.1" y1="1506.9" x2="3312.1" y2="1062.5"/>
<line class="st1" x1="3284.4" y1="1506.9" x2="3312.1" y2="1506.9"/>
<line class="st1" x1="3269" y1="1502.3" x2="3284.4" y2="1506.9"/>
<line class="st1" x1="3260.5" y1="1493.8" x2="3269" y2="1502.3"/>
<line class="st1" x1="3248.1" y1="1486.9" x2="3260.5" y2="1493.8"/>
<line class="st1" x1="3237.7" y1="1484.4" x2="3248.1" y2="1486.9"/>
<line class="st1" x1="3220.6" y1="1474.6" x2="3237.7" y2="1484.4"/>
<line class="st1" x1="3215.7" y1="1465.2" x2="3220.6" y2="1474.6"/>
<line class="st1" x1="3196.7" y1="1459.7" x2="3215.7" y2="1465.2"/>
<line class="st1" x1="3186.8" y1="1450.2" x2="3196.7" y2="1459.7"/>
<line class="st1" x1="3172.1" y1="1446.9" x2="3186.8" y2="1450.2"/>
<line class="st1" x1="3164.5" y1="1442.6" x2="3172.1" y2="1446.9"/>
<line class="st1" x1="3152.1" y1="1442.6" x2="3164.5" y2="1442.6"/>
<line class="st1" x1="3139.9" y1="1439.9" x2="3152.1" y2="1442.6"/>
<line class="st1" x1="3128.2" y1="1433.2" x2="3139.9" y2="1439.9"/>
<line class="st1" x1="3107.9" y1="1413" x2="3128.2" y2="1433.2"/>
<line class="st1" x1="3109.1" y1="1404.4" x2="3107.9" y2="1413"/>
<line class="st1" x1="3111.5" y1="1394.9" x2="3109.1" y2="1404.4"/>
<line class="st1" x1="3109.1" y1="1385.2" x2="3111.5" y2="1394.9"/>
<line class="st1" x1="3100.3" y1="1385.2" x2="3109.1" y2="1385.2"/>
<line class="st1" x1="3091.7" y1="1387.5" x2="3100.3" y2="1385.2"/>
<line class="st1" x1="3087.4" y1="1394.7" x2="3091.7" y2="1387.5"/>
<line class="st1" x1="3074.3" y1="1401.1" x2="3087.4" y2="1394.7"/>
<line class="st1" x1="3022.9" y1="1407.4" x2="3074.3" y2="1401.1"/>
<line class="st1" x1="3011.7" y1="1407.4" x2="3022.9" y2="1407.4"/>
<line class="st1" x1="3002.5" y1="1410.6" x2="3011.7" y2="1407.4"/>
<line class="st1" x1="2979.4" y1="1410.6" x2="3002.5" y2="1410.6"/>
<line class="st1" x1="2960.3" y1="1401.9" x2="2979.4" y2="1410.6"/>
<line class="st1" x1="2930.5" y1="1359.9" x2="2960.3" y2="1401.9"/>
<line class="st1" x1="2928.2" y1="1345.3" x2="2930.5" y2="1359.9"/>
<line class="st1" x1="2921" y1="1337.3" x2="2928.2" y2="1345.3"/>
<line class="st1" x1="2902.5" y1="1334.1" x2="2921" y2="1337.3"/>
<line class="st1" x1="2896.6" y1="1328.1" x2="2902.5" y2="1334.1"/>
<line class="st1" x1="2892.3" y1="1319.4" x2="2896.6" y2="1328.1"/>
<line class="st1" x1="2892.9" y1="1312.5" x2="2892.3" y2="1319.4"/>
<line class="st1" x1="2887.3" y1="1295.3" x2="2892.9" y2="1312.5"/>
<line class="st1" x1="2885.3" y1="1280.7" x2="2887.3" y2="1295.3"/>
<line class="st1" x1="2880.4" y1="1269.4" x2="2885.3" y2="1280.7"/>
<line class="st1" x1="2868.5" y1="1260.9" x2="2880.4" y2="1269.4"/>
<line class="st1" x1="2852" y1="1250.5" x2="2868.5" y2="1260.9"/>
<line class="st1" x1="2834.6" y1="1260.4" x2="2852" y2="1250.5"/>
<line class="st1" x1="2828.3" y1="1254.5" x2="2834.6" y2="1260.4"/>
<line class="st1" x1="2801.5" y1="1243.8" x2="2828.3" y2="1254.5"/>
<line class="st1" x1="2796.8" y1="1239.3" x2="2801.5" y2="1243.8"/>
<line class="st1" x1="2790" y1="1237.1" x2="2796.8" y2="1239.3"/>
<line class="st1" x1="2780.6" y1="1235.4" x2="2790" y2="1237.1"/>
<line class="st1" x1="2775.6" y1="1241.8" x2="2780.6" y2="1235.4"/>
<line class="st1" x1="2764.5" y1="1244.3" x2="2775.6" y2="1241.8"/>
<line class="st1" x1="2757.9" y1="1250.8" x2="2764.5" y2="1244.3"/>
<line class="st1" x1="2748.2" y1="1254.8" x2="2757.9" y2="1250.8"/>
<line class="st1" x1="2733" y1="1260.4" x2="2748.2" y2="1254.8"/>
<line class="st1" x1="2724" y1="1259" x2="2733" y2="1260.4"/>
<line class="st1" x1="2719.1" y1="1263.9" x2="2724" y2="1259"/>
<line class="st1" x1="2699.3" y1="1260.7" x2="2719.1" y2="1263.9"/>
<line class="st1" x1="2689.4" y1="1265" x2="2699.3" y2="1260.7"/>
<line class="st1" x1="2681.7" y1="1266" x2="2689.4" y2="1265"/>
<line class="st1" x1="2673.2" y1="1263.4" x2="2681.7" y2="1266"/>
<line class="st1" x1="2655.1" y1="1269.5" x2="2673.2" y2="1263.4"/>
<line class="st1" x1="2649.8" y1="1277.5" x2="2655.1" y2="1269.5"/>
<line class="st1" x1="2633.2" y1="1283.9" x2="2649.8" y2="1277.5"/>
<line class="st1" x1="2626.3" y1="1278.4" x2="2633.2" y2="1283.9"/>
<line class="st1" x1="2620.9" y1="1278.8" x2="2626.3" y2="1278.4"/>
<line class="st1" x1="2613.6" y1="1279.4" x2="2620.9" y2="1278.8"/>
<line class="st1" x1="2606.8" y1="1282.8" x2="2613.6" y2="1279.4"/>
<line class="st1" x1="2599" y1="1285.5" x2="2606.8" y2="1282.8"/>
<line class="st1" x1="2593.4" y1="1284.1" x2="2599" y2="1285.5"/>
<line class="st1" x1="2584.3" y1="1283.1" x2="2593.4" y2="1284.1"/>
<line class="st1" x1="2576.9" y1="1286.5" x2="2584.3" y2="1283.1"/>
<line class="st1" x1="2565.8" y1="1289.9" x2="2576.9" y2="1286.5"/>
<line class="st1" x1="2544.1" y1="1287" x2="2565.8" y2="1289.9"/>
<line class="st1" x1="2537.8" y1="1285" x2="2544.1" y2="1287"/>
<line class="st1" x1="2532.6" y1="1275.2" x2="2537.8" y2="1285"/>
<line class="st1" x1="2539.4" y1="1239.3" x2="2532.6" y2="1275.2"/>
<line class="st1" x1="2545.6" y1="1225.1" x2="2539.4" y2="1239.3"/>
<line class="st1" x1="2541" y1="1210.1" x2="2545.6" y2="1225.1"/>
<line class="st1" x1="2534" y1="1206" x2="2541" y2="1210.1"/>
<line class="st1" x1="2523" y1="1204.2" x2="2534" y2="1206"/>
<line class="st1" x1="2512.5" y1="1205.9" x2="2523" y2="1204.2"/>
<line class="st1" x1="2502.7" y1="1211.4" x2="2512.5" y2="1205.9"/>
<line class="st1" x1="2489.4" y1="1212.9" x2="2502.7" y2="1211.4"/>
<line class="st1" x1="2485.6" y1="1210.6" x2="2489.4" y2="1212.9"/>
<line class="st1" x1="2484.7" y1="1206.7" x2="2485.6" y2="1210.6"/>
<line class="st1" x1="2478.7" y1="1199" x2="2484.7" y2="1206.7"/>
<line class="st1" x1="2477.5" y1="1194.4" x2="2478.7" y2="1199"/>
<line class="st1" x1="2473.3" y1="1189.7" x2="2477.5" y2="1194.4"/>
<line class="st1" x1="2471.3" y1="1183" x2="2473.3" y2="1189.7"/>
<line class="st1" x1="2468.3" y1="1179.5" x2="2471.3" y2="1183"/>
<line class="st1" x1="2461.9" y1="1170.1" x2="2468.3" y2="1179.5"/>
<line class="st1" x1="2461.1" y1="1164.9" x2="2461.9" y2="1170.1"/>
<line class="st1" x1="2460.7" y1="1157.2" x2="2461.1" y2="1164.9"/>
<line class="st1" x1="2461.8" y1="1153" x2="2460.7" y2="1157.2"/>
<line class="st1" x1="2461.7" y1="1147.5" x2="2461.8" y2="1153"/>
<line class="st1" x1="2457.8" y1="1140.8" x2="2461.7" y2="1147.5"/>
<line class="st1" x1="2456.3" y1="1128.8" x2="2457.8" y2="1140.8"/>
<line class="st1" x1="2453.2" y1="1119.4" x2="2456.3" y2="1128.8"/>
<line class="st1" x1="2447.8" y1="1110.9" x2="2453.2" y2="1119.4"/>
<line class="st1" x1="2444.1" y1="1103.5" x2="2447.8" y2="1110.9"/>
<line class="st1" x1="2436.1" y1="1101.4" x2="2444.1" y2="1103.5"/>
<line class="st1" x1="2428.1" y1="1101.3" x2="2436.1" y2="1101.4"/>
<line class="st1" x1="2418.7" y1="1101.2" x2="2428.1" y2="1101.3"/>
<line class="st1" x1="2409.5" y1="1104.3" x2="2418.7" y2="1101.2"/>
<line class="st1" x1="2399.7" y1="1104" x2="2409.5" y2="1104.3"/>
<line class="st1" x1="2392.8" y1="1104.9" x2="2399.7" y2="1104"/>
<line class="st1" x1="2385.4" y1="1106.9" x2="2392.8" y2="1104.9"/>
<line class="st1" x1="2373.5" y1="1112" x2="2385.4" y2="1106.9"/>
<line class="st1" x1="2363.6" y1="1116.7" x2="2373.5" y2="1112"/>
<line class="st1" x1="2317.4" y1="1126.4" x2="2363.6" y2="1116.7"/>
<line class="st1" x1="2304.3" y1="1131.7" x2="2317.4" y2="1126.4"/>
<line class="st1" x1="2269.9" y1="1136.5" x2="2304.3" y2="1131.7"/>
<line class="st1" x1="2237.6" y1="1144.6" x2="2269.9" y2="1136.5"/>
<line class="st1" x1="2218.6" y1="1148" x2="2237.6" y2="1144.6"/>
<line class="st1" x1="2211.2" y1="1150.6" x2="2218.6" y2="1148"/>
<line class="st1" x1="2199" y1="1154.5" x2="2211.2" y2="1150.6"/>
<line class="st1" x1="2183.5" y1="1158.1" x2="2199" y2="1154.5"/>
<line class="st1" x1="2173.4" y1="1159.7" x2="2183.5" y2="1158.1"/>
<line class="st1" x1="2159.2" y1="1163.4" x2="2173.4" y2="1159.7"/>
<line class="st1" x1="2146.8" y1="1160" x2="2159.2" y2="1163.4"/>
<line class="st1" x1="2124.7" y1="1166.3" x2="2146.8" y2="1160"/>
<line class="st1" x1="2098.1" y1="1166.3" x2="2124.7" y2="1166.3"/>
<line class="st1" x1="2081.6" y1="1163.2" x2="2098.1" y2="1166.3"/>
<line class="st1" x1="2070.4" y1="1147" x2="2081.6" y2="1163.2"/>
<line class="st1" x1="2064.8" y1="1133" x2="2070.4" y2="1147"/>
<line class="st1" x1="2053.4" y1="1121.6" x2="2064.8" y2="1133"/>
<line class="st1" x1="2043.7" y1="1108.5" x2="2053.4" y2="1121.6"/>
<line class="st1" x1="2030.9" y1="1101.4" x2="2043.7" y2="1108.5"/>
<line class="st1" x1="2020.8" y1="1077.2" x2="2030.9" y2="1101.4"/>
<line class="st1" x1="2022.1" y1="1064.2" x2="2020.8" y2="1077.2"/>
<line class="st1" x1="2010.6" y1="1035.3" x2="2022.1" y2="1064.2"/>
<line class="st1" x1="2002.7" y1="1027.4" x2="2010.6" y2="1035.3"/>
<line class="st1" x1="1999.3" y1="1015.5" x2="2002.7" y2="1027.4"/>
<line class="st1" x1="1991.3" y1="1004.3" x2="1999.3" y2="1015.5"/>
<line class="st1" x1="1983.7" y1="988" x2="1991.3" y2="1004.3"/>
<line class="st1" x1="1973.7" y1="977.9" x2="1983.7" y2="988"/>
<line class="st1" x1="2007" y1="977.9" x2="1973.7" y2="977.9"/>
<line class="st1" x1="2020.6" y1="964.4" x2="2007" y2="977.9"/>
<line class="st1" x1="2009.7" y1="941.5" x2="2020.6" y2="964.4"/>
<line class="st1" x1="2007" y1="929.7" x2="2009.7" y2="941.5"/>
<line class="st1" x1="2009.6" y1="915" x2="2007" y2="929.7"/>
<line class="st1" x1="2026.7" y1="896.3" x2="2009.6" y2="915"/>
<line class="st1" x1="2032.3" y1="872" x2="2026.7" y2="896.3"/>
<line class="st1" x1="2036" y1="863.7" x2="2032.3" y2="872"/>
<line class="st1" x1="2036" y1="859" x2="2036" y2="863.7"/>
<line class="st1" x1="2036" y1="808.6" x2="2036" y2="859"/>
<line class="st1" x1="2037.6" y1="789.9" x2="2036" y2="808.6"/>
<line class="st1" x1="2029.1" y1="763.3" x2="2037.6" y2="789.9"/>
<line class="st1" x1="2016.3" y1="742.3" x2="2029.1" y2="763.3"/>
<line class="st1" x1="2007" y1="716.6" x2="2016.3" y2="742.3"/>
<line class="st1" x1="2010" y1="702.9" x2="2007" y2="716.6"/>
<line class="st1" x1="1994.3" y1="681.3" x2="2010" y2="702.9"/>
<line class="st1" x1="1971.7" y1="669" x2="1994.3" y2="681.3"/>
<line class="st1" x1="1938.2" y1="669" x2="1971.7" y2="669"/>
<line class="st1" x1="1930.4" y1="653.3" x2="1938.2" y2="669"/>
<line class="st1" x1="1916.1" y1="638.9" x2="1930.4" y2="653.3"/>
<line class="st1" x1="1891.5" y1="653.9" x2="1916.1" y2="638.9"/>
<line class="st1" x1="1880.4" y1="669" x2="1891.5" y2="653.9"/>
<line class="st1" x1="1873.3" y1="681.7" x2="1880.4" y2="669"/>
<line class="st1" x1="1851.7" y1="708.3" x2="1873.3" y2="681.7"/>
<line class="st1" x1="1817.1" y1="729.4" x2="1851.7" y2="708.3"/>
<line class="st1" x1="1794.7" y1="734.7" x2="1817.1" y2="729.4"/>
<line class="st1" x1="1765.8" y1="719.8" x2="1794.7" y2="734.7"/>
<line class="st1" x1="1745.5" y1="716.4" x2="1765.8" y2="719.8"/>
<line class="st1" x1="1744.2" y1="688" x2="1745.5" y2="716.4"/>
<line class="st1" x1="1771.8" y1="671.2" x2="1744.2" y2="688"/>
<line class="st1" x1="1785.3" y1="663" x2="1771.8" y2="671.2"/>
<line class="st1" x1="1809.6" y1="650.6" x2="1785.3" y2="663"/>
<line class="st1" x1="1825.1" y1="642.7" x2="1809.6" y2="650.6"/>
<line class="st1" x1="1856.8" y1="620.8" x2="1825.1" y2="642.7"/>
<line class="st1" x1="1872.6" y1="609.8" x2="1856.8" y2="620.8"/>
<line class="st1" x1="1882.2" y1="604.7" x2="1872.6" y2="609.8"/>
<line class="st1" x1="1914.2" y1="587.6" x2="1882.2" y2="604.7"/>
<line class="st1" x1="1935.3" y1="566.4" x2="1914.2" y2="587.6"/>
<line class="st1" x1="1938.2" y1="542.3" x2="1935.3" y2="566.4"/>
<line class="st1" x1="1964" y1="505.6" x2="1938.2" y2="542.3"/>
<line class="st1" x1="2007" y1="444.3" x2="1964" y2="505.6"/>
<line class="st1" x1="2012" y1="435.6" x2="2007" y2="444.3"/>
<line class="st1" x1="2031.9" y1="400.3" x2="2012" y2="435.6"/>
<line class="st1" x1="2082.9" y1="349.3" x2="2031.9" y2="400.3"/>
<line class="st1" x1="2113.6" y1="318.5" x2="2082.9" y2="349.3"/>
<line class="st1" x1="2146.6" y1="274.8" x2="2113.6" y2="318.5"/>
<line class="st1" x1="2176.6" y1="235" x2="2146.6" y2="274.8"/>
<line class="st1" x1="2179.6" y1="231" x2="2176.6" y2="235"/>
<line class="st1" x1="2193.4" y1="218.3" x2="2179.6" y2="231"/>
<line class="st1" x1="2222.3" y1="191.5" x2="2193.4" y2="218.3"/>
<line class="st1" x1="2264.9" y1="151.9" x2="2222.3" y2="191.5"/>
<line class="st1" x1="2286.2" y1="124.9" x2="2264.9" y2="151.9"/>
<line class="st1" x1="2315.3" y1="87.8" x2="2286.2" y2="124.9"/>
<line class="st1" x1="2429.1" y1="0.2" x2="2315.3" y2="87.8"/>
<line class="st1" x1="2608.8" y1="1188.9" x2="2610.1" y2="1178.3"/>
<line class="st1" x1="2613.4" y1="1196.4" x2="2608.8" y2="1188.9"/>
<line class="st1" x1="2641.2" y1="1189.4" x2="2613.4" y2="1196.4"/>
<line class="st1" x1="2651" y1="1182.3" x2="2641.2" y2="1189.4"/>
<line class="st1" x1="2666.1" y1="1177.9" x2="2651" y2="1182.3"/>
<line class="st1" x1="2679.4" y1="1169.9" x2="2666.1" y2="1177.9"/>
<line class="st1" x1="2689.2" y1="1167.8" x2="2679.4" y2="1169.9"/>
<line class="st1" x1="2697.1" y1="1160" x2="2689.2" y2="1167.8"/>
<line class="st1" x1="2697.1" y1="1155.1" x2="2697.1" y2="1160"/>
<line class="st1" x1="2688.9" y1="1151.8" x2="2697.1" y2="1155.1"/>
<line class="st1" x1="2673.2" y1="1155.1" x2="2688.9" y2="1151.8"/>
<line class="st1" x1="2659.9" y1="1163.7" x2="2673.2" y2="1155.1"/>
<line class="st1" x1="2646.6" y1="1167.6" x2="2659.9" y2="1163.7"/>
<line class="st1" x1="2620" y1="1179.6" x2="2646.6" y2="1167.6"/>
<line class="st1" x1="2610.1" y1="1178.3" x2="2620" y2="1179.6"/>
<line class="st1" x1="2549.7" y1="1016.5" x2="2547.2" y2="1007.2"/>
<line class="st1" x1="2560.2" y1="1027" x2="2549.7" y2="1016.5"/>
<line class="st1" x1="2584.7" y1="1020.9" x2="2560.2" y2="1027"/>
<line class="st1" x1="2594.4" y1="1013.5" x2="2584.7" y2="1020.9"/>
<line class="st1" x1="2597.1" y1="999" x2="2594.4" y2="1013.5"/>
<line class="st1" x1="2603.9" y1="977" x2="2597.1" y2="999"/>
<line class="st1" x1="2609.4" y1="971.6" x2="2603.9" y2="977"/>
<line class="st1" x1="2611" y1="960.2" x2="2609.4" y2="971.6"/>
<line class="st1" x1="2610.7" y1="955.2" x2="2611" y2="960.2"/>
<line class="st1" x1="2605.7" y1="941.8" x2="2610.7" y2="955.2"/>
<line class="st1" x1="2598" y1="938.3" x2="2605.7" y2="941.8"/>
<line class="st1" x1="2586.8" y1="927" x2="2598" y2="938.3"/>
<line class="st1" x1="2582.9" y1="933.8" x2="2586.8" y2="927"/>
<line class="st1" x1="2577.3" y1="939.5" x2="2582.9" y2="933.8"/>
<line class="st1" x1="2568.4" y1="941.5" x2="2577.3" y2="939.5"/>
<line class="st1" x1="2559.1" y1="959.1" x2="2568.4" y2="941.5"/>
<line class="st1" x1="2559.1" y1="966.8" x2="2559.1" y2="959.1"/>
<line class="st1" x1="2564.6" y1="982" x2="2559.1" y2="966.8"/>
<line class="st1" x1="2561.4" y1="985.2" x2="2564.6" y2="982"/>
<line class="st1" x1="2553" y1="990.9" x2="2561.4" y2="985.2"/>
<line class="st1" x1="2547.2" y1="1007.2" x2="2553" y2="990.9"/>
</svg>
