<?xml version="1.0" encoding="utf-8"?>
<!-- Generator: Adobe Illustrator 23.0.6, SVG Export Plug-In . SVG Version: 6.00 Build 0)  -->
<svg version="1.1" id="Ebene_1" xmlns="http://www.w3.org/2000/svg" xmlns:xlink="http://www.w3.org/1999/xlink" x="0px" y="0px"
	 viewBox="0 0 3312.3 1961" style="enable-background:new 0 0 3312.3 1961;" xml:space="preserve">
<style type="text/css">
	.st0{fill:#FFFFFF;}
	.st1{font-family:'ArialMT';}
	.st2{font-size:4px;}
	.st3{fill-rule:evenodd;clip-rule:evenodd;fill:#FFFFA8;enable-background:new    ;}
	.st4{fill:none;stroke:#000000;stroke-width:0.33;stroke-linecap:round;stroke-linejoin:round;}
</style>
<title>land</title>
<text transform="matrix(1 0 0 1 416.4418 1959.6866)" class="st0 st1 st2">GSEducationalVersio</text>
<text transform="matrix(1 0 0 1 454.1618 1959.6866)" class="st0 st1 st2">n</text>
<text transform="matrix(1 0 0 1 -217.4577 2143.5481)" class="st0 st1 st2">GSEducationalVersio</text>
<text transform="matrix(1 0 0 1 -179.7378 2143.5481)" class="st0 st1 st2">n</text>
<polyline class="st3" points="731,1307.1 728.6,1295.9 697.3,1278.2 694.9,1262.4 694.9,1245.6 711.9,1235.8 718.7,1225.1 
	731.9,1227.4 742.7,1232.8 745,1248.1 747.6,1253.2 748,1266.5 754.5,1281.7 773.3,1297.1 780.6,1299.5 789.4,1317.4 778.6,1317.4 
	764.2,1309.2 747.1,1307 731,1307.1 "/>
<line class="st4" x1="731" y1="1307.1" x2="728.6" y2="1295.9"/>
<line class="st4" x1="728.6" y1="1295.9" x2="697.3" y2="1278.2"/>
<line class="st4" x1="697.3" y1="1278.2" x2="694.9" y2="1262.4"/>
<line class="st4" x1="694.9" y1="1262.4" x2="694.9" y2="1245.6"/>
<line class="st4" x1="694.9" y1="1245.6" x2="711.9" y2="1235.8"/>
<line class="st4" x1="711.9" y1="1235.8" x2="718.7" y2="1225.1"/>
<line class="st4" x1="718.7" y1="1225.1" x2="731.9" y2="1227.4"/>
<line class="st4" x1="731.9" y1="1227.4" x2="742.7" y2="1232.8"/>
<line class="st4" x1="742.7" y1="1232.8" x2="745" y2="1248.1"/>
<line class="st4" x1="745" y1="1248.1" x2="747.6" y2="1253.2"/>
<line class="st4" x1="747.6" y1="1253.2" x2="748" y2="1266.5"/>
<line class="st4" x1="748" y1="1266.5" x2="754.5" y2="1281.7"/>
<line class="st4" x1="754.5" y1="1281.7" x2="773.3" y2="1297.1"/>
<line class="st4" x1="773.3" y1="1297.1" x2="780.6" y2="1299.5"/>
<line class="st4" x1="780.6" y1="1299.5" x2="789.4" y2="1317.4"/>
<line class="st4" x1="789.4" y1="1317.4" x2="778.6" y2="1317.4"/>
<line class="st4" x1="778.6" y1="1317.4" x2="764.2" y2="1309.2"/>
<line class="st4" x1="764.2" y1="1309.2" x2="747.1" y2="1307"/>
<line class="st4" x1="747.1" y1="1307" x2="731" y2="1307.1"/>
<polyline class="st3" points="1153,1315.7 1141.2,1307.1 1122.2,1307.1 1121.9,1300.2 1141.2,1281.2 1145.6,1269.7 1160.3,1262.5 
	1186.6,1288.9 1187,1301.7 1153,1315.7 "/>
<line class="st4" x1="1153" y1="1315.7" x2="1141.2" y2="1307.1"/>
<line class="st4" x1="1141.2" y1="1307.1" x2="1122.2" y2="1307.1"/>
<line class="st4" x1="1122.2" y1="1307.1" x2="1121.9" y2="1300.2"/>
<line class="st4" x1="1121.9" y1="1300.2" x2="1141.2" y2="1281.2"/>
<line class="st4" x1="1141.2" y1="1281.2" x2="1145.6" y2="1269.7"/>
<line class="st4" x1="1145.6" y1="1269.7" x2="1160.3" y2="1262.5"/>
<line class="st4" x1="1160.3" y1="1262.5" x2="1186.6" y2="1288.9"/>
<line class="st4" x1="1186.6" y1="1288.9" x2="1187" y2="1301.7"/>
<line class="st4" x1="1187" y1="1301.7" x2="1153" y2="1315.7"/>
<polyline class="st3" points="1417.5,1543.7 1419.7,1536.3 1419.7,1517.7 1436.1,1507.9 1441.6,1495 1453.9,1507.3 1466.3,1505.6 
	1475.6,1496.4 1482.5,1503.4 1487.1,1517.7 1502.5,1517.7 1505.2,1500.2 1520.3,1491.4 1532.9,1478.8 1557.1,1469.8 1577.1,1470.9 
	1590.3,1472.8 1600.1,1472.8 1620.4,1469.8 1629.9,1456.7 1649.8,1450.4 1654.4,1464.8 1698.9,1450.8 1719.5,1430.1 1756.4,1443.4 
	1765.9,1429.6 1756.2,1409.6 1756.4,1393.2 1728.9,1365.7 1737.8,1346.3 1770.2,1346.9 1822.8,1358.4 1837.3,1333.4 1865.5,1316.2 
	1937.1,1264.4 1963.8,1264.4 1975.3,1287.5 1943.6,1294.9 1899.8,1326.6 1892.1,1345 1874.3,1362.7 1874.3,1377.8 1884.5,1397.4 
	1870.6,1410 1873.7,1430.5 1862.1,1442 1806.3,1430.9 1787.1,1457 1795.8,1481.2 1789,1492.9 1787.3,1499.1 1777.4,1512.7 
	1765,1538 1756.6,1548.9 1736.3,1563.9 1726.1,1566.6 1709.9,1576.5 1707.1,1577.1 1688.1,1587.7 1496.9,1587.8 1496.3,1583.2 
	1490.2,1573.9 1490.1,1566.6 1489,1554.9 1475.8,1550.2 1471.5,1548 1463.8,1543.2 1449,1543.8 1436.8,1546.9 1417.5,1543.7 "/>
<line class="st4" x1="1417.5" y1="1543.7" x2="1419.7" y2="1536.3"/>
<line class="st4" x1="1419.7" y1="1536.3" x2="1419.7" y2="1517.7"/>
<line class="st4" x1="1419.7" y1="1517.7" x2="1436.1" y2="1507.9"/>
<line class="st4" x1="1436.1" y1="1507.9" x2="1441.6" y2="1495"/>
<line class="st4" x1="1441.6" y1="1495" x2="1453.9" y2="1507.3"/>
<line class="st4" x1="1453.9" y1="1507.3" x2="1466.3" y2="1505.6"/>
<line class="st4" x1="1466.3" y1="1505.6" x2="1475.6" y2="1496.4"/>
<line class="st4" x1="1475.6" y1="1496.4" x2="1482.5" y2="1503.4"/>
<line class="st4" x1="1482.5" y1="1503.4" x2="1487.1" y2="1517.7"/>
<line class="st4" x1="1487.1" y1="1517.7" x2="1502.5" y2="1517.7"/>
<line class="st4" x1="1502.5" y1="1517.7" x2="1505.2" y2="1500.2"/>
<line class="st4" x1="1505.2" y1="1500.2" x2="1520.3" y2="1491.4"/>
<line class="st4" x1="1520.3" y1="1491.4" x2="1532.9" y2="1478.8"/>
<line class="st4" x1="1532.9" y1="1478.8" x2="1557.1" y2="1469.8"/>
<line class="st4" x1="1557.1" y1="1469.8" x2="1577.1" y2="1470.9"/>
<line class="st4" x1="1577.1" y1="1470.9" x2="1590.3" y2="1472.8"/>
<line class="st4" x1="1590.3" y1="1472.8" x2="1600.1" y2="1472.8"/>
<line class="st4" x1="1600.1" y1="1472.8" x2="1620.4" y2="1469.8"/>
<line class="st4" x1="1620.4" y1="1469.8" x2="1629.9" y2="1456.7"/>
<line class="st4" x1="1629.9" y1="1456.7" x2="1649.8" y2="1450.4"/>
<line class="st4" x1="1649.8" y1="1450.4" x2="1654.4" y2="1464.8"/>
<line class="st4" x1="1654.4" y1="1464.8" x2="1698.9" y2="1450.8"/>
<line class="st4" x1="1698.9" y1="1450.8" x2="1719.5" y2="1430.1"/>
<line class="st4" x1="1719.5" y1="1430.1" x2="1756.4" y2="1443.4"/>
<line class="st4" x1="1756.4" y1="1443.4" x2="1765.9" y2="1429.6"/>
<line class="st4" x1="1765.9" y1="1429.6" x2="1756.2" y2="1409.6"/>
<line class="st4" x1="1756.2" y1="1409.6" x2="1756.4" y2="1393.2"/>
<line class="st4" x1="1756.4" y1="1393.2" x2="1728.9" y2="1365.7"/>
<line class="st4" x1="1728.9" y1="1365.7" x2="1737.8" y2="1346.3"/>
<line class="st4" x1="1737.8" y1="1346.3" x2="1770.2" y2="1346.9"/>
<line class="st4" x1="1770.2" y1="1346.9" x2="1822.8" y2="1358.4"/>
<line class="st4" x1="1822.8" y1="1358.4" x2="1837.3" y2="1333.4"/>
<line class="st4" x1="1837.3" y1="1333.4" x2="1865.5" y2="1316.2"/>
<line class="st4" x1="1865.5" y1="1316.2" x2="1937.1" y2="1264.4"/>
<line class="st4" x1="1937.1" y1="1264.4" x2="1963.8" y2="1264.4"/>
<line class="st4" x1="1963.8" y1="1264.4" x2="1975.3" y2="1287.5"/>
<line class="st4" x1="1975.3" y1="1287.5" x2="1943.6" y2="1294.9"/>
<line class="st4" x1="1943.6" y1="1294.9" x2="1899.8" y2="1326.6"/>
<line class="st4" x1="1899.8" y1="1326.6" x2="1892.1" y2="1345"/>
<line class="st4" x1="1892.1" y1="1345" x2="1874.3" y2="1362.7"/>
<line class="st4" x1="1874.3" y1="1362.7" x2="1874.3" y2="1377.8"/>
<line class="st4" x1="1874.3" y1="1377.8" x2="1884.5" y2="1397.4"/>
<line class="st4" x1="1884.5" y1="1397.4" x2="1870.6" y2="1410"/>
<line class="st4" x1="1870.6" y1="1410" x2="1873.7" y2="1430.5"/>
<line class="st4" x1="1873.7" y1="1430.5" x2="1862.1" y2="1442"/>
<line class="st4" x1="1862.1" y1="1442" x2="1806.3" y2="1430.9"/>
<line class="st4" x1="1806.3" y1="1430.9" x2="1787.1" y2="1457"/>
<line class="st4" x1="1787.1" y1="1457" x2="1795.8" y2="1481.2"/>
<line class="st4" x1="1795.8" y1="1481.2" x2="1789" y2="1492.9"/>
<line class="st4" x1="1789" y1="1492.9" x2="1787.3" y2="1499.1"/>
<line class="st4" x1="1787.3" y1="1499.1" x2="1777.4" y2="1512.7"/>
<line class="st4" x1="1777.4" y1="1512.7" x2="1765" y2="1538"/>
<line class="st4" x1="1765" y1="1538" x2="1756.6" y2="1548.9"/>
<line class="st4" x1="1756.6" y1="1548.9" x2="1736.3" y2="1563.9"/>
<line class="st4" x1="1736.3" y1="1563.9" x2="1726.1" y2="1566.6"/>
<line class="st4" x1="1726.1" y1="1566.6" x2="1709.9" y2="1576.5"/>
<line class="st4" x1="1709.9" y1="1576.5" x2="1707.1" y2="1577.1"/>
<line class="st4" x1="1707.1" y1="1577.1" x2="1688.1" y2="1587.7"/>
<line class="st4" x1="1688.1" y1="1587.7" x2="1496.9" y2="1587.8"/>
<line class="st4" x1="1496.9" y1="1587.8" x2="1496.3" y2="1583.2"/>
<line class="st4" x1="1496.3" y1="1583.2" x2="1490.2" y2="1573.9"/>
<line class="st4" x1="1490.2" y1="1573.9" x2="1490.1" y2="1566.6"/>
<line class="st4" x1="1490.1" y1="1566.6" x2="1489" y2="1554.9"/>
<line class="st4" x1="1489" y1="1554.9" x2="1475.8" y2="1550.2"/>
<line class="st4" x1="1475.8" y1="1550.2" x2="1471.5" y2="1548"/>
<line class="st4" x1="1471.5" y1="1548" x2="1463.8" y2="1543.2"/>
<line class="st4" x1="1463.8" y1="1543.2" x2="1449" y2="1543.8"/>
<line class="st4" x1="1449" y1="1543.8" x2="1436.8" y2="1546.9"/>
<line class="st4" x1="1436.8" y1="1546.9" x2="1417.5" y2="1543.7"/>
<polyline class="st3" points="2479.4,1215.1 2470.1,1207.3 2454.7,1202.9 2443.7,1215.8 2445.5,1238.6 2427.1,1263.2 2392.1,1268.1 
	2388.4,1293.9 2342.4,1310 2317.7,1317.2 2292.1,1316.6 2302.4,1306.4 2310.7,1287.7 2289.7,1212.2 2243.1,1182.1 2227.6,1176.2 
	2211.6,1174.1 2193.6,1171.8 2185.3,1171.5 2178.3,1168.5 2170.5,1166.4 2168.5,1164.4 2182.8,1160.9 2193.9,1161.2 2197.6,1160.6 
	2214.5,1158.2 2235.5,1156.3 2248.9,1147.6 2271.4,1140.1 2295.8,1137.4 2303.7,1138.9 2307.4,1140.1 2313.7,1134.7 2330.5,1129.9 
	2355.2,1126.4 2367.4,1119.2 2374.2,1116.1 2379.5,1113.2 2386.9,1110.3 2392,1109.6 2398.3,1108 2406.2,1108.4 2416.8,1107.5 
	2432.2,1106.2 2435.8,1105.5 2441.3,1110 2444.4,1117.1 2450,1124.6 2453.9,1132.8 2453.8,1138 2451.8,1141 2451.8,1149 
	2456.6,1160.7 2456.5,1166.8 2458.4,1172.7 2467,1183.7 2468.1,1190 2471.7,1199.7 2474.1,1205.2 2479.4,1215.1 "/>
<line class="st4" x1="2470.1" y1="1207.2" x2="2479.4" y2="1215.1"/>
<line class="st4" x1="2454.7" y1="1202.9" x2="2470.1" y2="1207.2"/>
<line class="st4" x1="2443.7" y1="1215.8" x2="2454.7" y2="1202.9"/>
<line class="st4" x1="2445.5" y1="1238.6" x2="2443.7" y2="1215.8"/>
<line class="st4" x1="2427.1" y1="1263.2" x2="2445.5" y2="1238.6"/>
<line class="st4" x1="2392.1" y1="1268.1" x2="2427.1" y2="1263.2"/>
<line class="st4" x1="2388.4" y1="1293.9" x2="2392.1" y2="1268.1"/>
<line class="st4" x1="2342.4" y1="1310" x2="2388.4" y2="1293.9"/>
<line class="st4" x1="2317.7" y1="1317.2" x2="2342.4" y2="1310"/>
<line class="st4" x1="2292.1" y1="1316.6" x2="2317.7" y2="1317.2"/>
<line class="st4" x1="2302.4" y1="1306.4" x2="2292.1" y2="1316.6"/>
<line class="st4" x1="2310.7" y1="1287.7" x2="2302.4" y2="1306.4"/>
<line class="st4" x1="2289.7" y1="1212.2" x2="2310.7" y2="1287.7"/>
<line class="st4" x1="2243.1" y1="1182.1" x2="2289.7" y2="1212.2"/>
<line class="st4" x1="2227.6" y1="1176.2" x2="2243.1" y2="1182.1"/>
<line class="st4" x1="2211.6" y1="1174.1" x2="2227.6" y2="1176.2"/>
<line class="st4" x1="2193.6" y1="1171.8" x2="2211.6" y2="1174.1"/>
<line class="st4" x1="2185.3" y1="1171.5" x2="2193.6" y2="1171.8"/>
<line class="st4" x1="2178.3" y1="1168.5" x2="2185.3" y2="1171.5"/>
<line class="st4" x1="2170.5" y1="1166.4" x2="2178.3" y2="1168.5"/>
<line class="st4" x1="2168.5" y1="1164.4" x2="2170.5" y2="1166.4"/>
<line class="st4" x1="2182.8" y1="1160.9" x2="2168.5" y2="1164.4"/>
<line class="st4" x1="2193.9" y1="1161.2" x2="2182.8" y2="1160.9"/>
<line class="st4" x1="2197.6" y1="1160.6" x2="2193.9" y2="1161.2"/>
<line class="st4" x1="2214.5" y1="1158.2" x2="2197.6" y2="1160.6"/>
<line class="st4" x1="2235.5" y1="1156.3" x2="2214.5" y2="1158.2"/>
<line class="st4" x1="2248.9" y1="1147.6" x2="2235.5" y2="1156.3"/>
<line class="st4" x1="2271.4" y1="1140.1" x2="2248.9" y2="1147.6"/>
<line class="st4" x1="2295.7" y1="1137.4" x2="2271.4" y2="1140.1"/>
<line class="st4" x1="2303.7" y1="1138.9" x2="2295.7" y2="1137.4"/>
<line class="st4" x1="2307.4" y1="1140.1" x2="2303.7" y2="1138.9"/>
<line class="st4" x1="2313.7" y1="1134.7" x2="2307.4" y2="1140.1"/>
<line class="st4" x1="2330.5" y1="1129.9" x2="2313.7" y2="1134.7"/>
<line class="st4" x1="2355.2" y1="1126.4" x2="2330.5" y2="1129.9"/>
<line class="st4" x1="2367.4" y1="1119.2" x2="2355.2" y2="1126.4"/>
<line class="st4" x1="2374.2" y1="1116.1" x2="2367.4" y2="1119.2"/>
<line class="st4" x1="2379.5" y1="1113.2" x2="2374.2" y2="1116.1"/>
<line class="st4" x1="2386.9" y1="1110.3" x2="2379.5" y2="1113.2"/>
<line class="st4" x1="2392" y1="1109.6" x2="2386.9" y2="1110.3"/>
<line class="st4" x1="2398.3" y1="1108" x2="2392" y2="1109.6"/>
<line class="st4" x1="2406.2" y1="1108.4" x2="2398.3" y2="1108"/>
<line class="st4" x1="2416.8" y1="1107.5" x2="2406.2" y2="1108.4"/>
<line class="st4" x1="2432.2" y1="1106.2" x2="2416.8" y2="1107.5"/>
<line class="st4" x1="2435.8" y1="1105.5" x2="2432.2" y2="1106.2"/>
<line class="st4" x1="2441.3" y1="1110" x2="2435.8" y2="1105.5"/>
<line class="st4" x1="2444.4" y1="1117.1" x2="2441.3" y2="1110"/>
<line class="st4" x1="2450" y1="1124.6" x2="2444.4" y2="1117.1"/>
<line class="st4" x1="2453.9" y1="1132.8" x2="2450" y2="1124.6"/>
<line class="st4" x1="2453.8" y1="1138" x2="2453.9" y2="1132.8"/>
<line class="st4" x1="2451.8" y1="1141" x2="2453.8" y2="1138"/>
<line class="st4" x1="2451.8" y1="1149" x2="2451.8" y2="1141"/>
<line class="st4" x1="2456.6" y1="1160.7" x2="2451.8" y2="1149"/>
<line class="st4" x1="2456.5" y1="1166.8" x2="2456.6" y2="1160.7"/>
<line class="st4" x1="2458.4" y1="1172.7" x2="2456.5" y2="1166.8"/>
<line class="st4" x1="2467" y1="1183.7" x2="2458.4" y2="1172.7"/>
<line class="st4" x1="2468.1" y1="1190" x2="2467" y2="1183.7"/>
<line class="st4" x1="2471.7" y1="1199.7" x2="2468.1" y2="1190"/>
<line class="st4" x1="2474.1" y1="1205.2" x2="2471.7" y2="1199.7"/>
<line class="st4" x1="2479.4" y1="1215.1" x2="2474.1" y2="1205.2"/>
<polyline class="st3" points="28.5,886.5 14.2,869.6 14.3,692.7 21.6,715.6 35.9,773.6 42.5,820.9 92.9,856.8 138,863.6 
	170.8,886.4 195.5,925.3 215,904.1 253.9,895.3 292.8,894.4 321.2,902.3 366.3,898.8 422,871.4 437.1,851.9 446.8,817.4 
	480.5,782.6 500.5,743.4 505.1,706.4 508.7,677.8 546.3,659.7 586.7,614.9 608.6,592.8 655.4,595.4 705.1,598.3 722.8,627.2 
	733.2,649.4 747.3,667.3 751.1,673.6 763.3,693.8 766.1,698.5 770.7,706.7 818,721.4 838.5,729.9 848.8,734.2 872.6,746 
	911.2,765.2 935.5,760.2 975.7,752 1006.5,749.3 1041.8,746.1 1048.7,705.2 1044.7,692.6 1073.8,677.1 1096.4,691.5 1117.1,710.9 
	1134,726.7 1163.7,712.2 1193.1,693.4 1206.7,681.4 1220.9,669 1213.7,651 1235.9,624.8 1263.4,601.3 1280.7,584 1318,578.8 
	1364.7,587.1 1362.6,572.5 1353.5,526.3 1353.5,507.3 1400.9,500.6 1442,513.1 1463,466.2 1463,433.7 1445,415.7 1452.4,406.1 
	1477.9,375 1493.3,324.9 1548.2,334.8 1615.1,268 1641,242 1682.5,155.5 1716.5,84.7 1752.1,0.1 2429.3,0.1 2315.5,87.8 
	2265.1,151.9 2179.8,231 2113.8,318.5 2032.1,400.3 2007.2,444.3 1938.4,542.3 1935.5,566.4 1914.4,587.5 1872.8,609.8 
	1825.3,642.7 1785.5,662.9 1744.4,688 1745.7,716.4 1766,719.8 1794.9,734.7 1817.3,729.4 1851.9,708.3 1873.5,681.7 1880.6,669 
	1891.7,653.9 1916.3,638.9 1930.6,653.2 1938.4,669 1971.9,669 1994.5,681.3 2010.2,702.9 2007.2,716.5 2016.5,742.3 2029.5,763.6 
	2037.8,789.8 2036.2,808.5 2036.2,863.6 2032.5,872 2026.9,896.2 2009.8,915 2007.2,929.6 2009.9,941.5 2020.8,964.4 2007.2,977.9 
	1996.3,977.9 1973.9,977.9 1940,1002.8 1934.6,1010.6 1924.5,1028.9 1920.4,1039.5 1923.1,1048 1921.3,1053 1915.6,1053.8 
	1915.5,1058.9 1909.2,1061.7 1907.4,1067.4 1911.1,1069.6 1918.4,1074.6 1932.5,1086.4 1938.5,1096 1943.9,1111.4 1940.4,1127.1 
	1935.3,1140.6 1933.7,1173.2 1936.5,1182.5 1918.4,1200.6 1903.6,1195.7 1883.3,1190 1860.8,1198.8 1848.2,1189.7 1836.7,1185.6 
	1822.9,1194 1814,1197.4 1818.9,1189.4 1815.8,1184.5 1831.8,1139 1867.6,1105.5 1872.2,1073.9 1880.7,1054 1878.2,1035.9 
	1882.9,1013.8 1886.4,1003.9 1898.2,984.9 1906.3,972.2 1912.7,958.4 1910.2,945.6 1905.2,937.4 1899.9,922.2 1905.2,910.7 
	1907.7,890.8 1907.7,873.3 1895.3,864.8 1891.5,860.1 1884,849.3 1878.6,843.2 1868.6,837.8 1852.3,834.6 1838,834.6 1826,837.8 
	1815.6,845 1805.3,851.4 1791.6,862.3 1783.7,869.1 1776.5,868.8 1770,873.1 1749.5,877.5 1741.7,884.1 1728.2,884.1 1706.1,888.7 
	1692.3,893.7 1690.9,905 1680.6,905 1680.6,893.7 1664.2,893.7 1653.9,899.9 1641.8,905 1630.4,909.8 1616.8,913 1611.4,921.3 
	1605.4,929.2 1595.5,939.7 1588.4,944.1 1579.1,946.9 1567.9,955.2 1550.4,965.5 1541.9,974.3 1527,988.2 1512.4,998.2 1486.4,1011 
	1475.8,1011.7 1468,1018.1 1458,1022 1442.7,1043.7 1443.8,1054 1437.7,1063.2 1433.8,1062.2 1428.8,1061.7 1422.5,1062 
	1413,1065.3 1397.8,1067.3 1379.8,1073.2 1372.5,1083.2 1362,1089.2 1359.2,1101.6 1359.9,1111.6 1348.9,1124.5 1340.1,1136.1 
	1333.6,1147.9 1311.7,1170.6 1303.4,1179.9 1280.4,1196.7 1276.7,1201.7 1278.1,1191.2 1278.1,1181.4 1264.3,1181.4 1247.1,1185.4 
	1217.3,1201.8 1216.6,1189 1221.7,1177.1 1226.8,1158 1241.3,1130.9 1264.3,1106.5 1291.6,1068.9 1298.7,1063.6 1302.4,1057.3 
	1306,1045.9 1313.3,1041.2 1320.1,1034.8 1322.2,1022 1323,1016.2 1325,1001 1323.9,975.1 1323.3,945.9 1316.5,916.4 1313.7,909.3 
	1310.6,901.7 1300.9,880.5 1292,868.1 1284.5,841 1276,827.5 1264,815.2 1256.6,808.7 1249.7,802.6 1227.6,794.8 1213.8,787.7 
	1184.3,788.1 1168.8,781.3 1148.5,777.3 1134.5,774.9 1114.9,775 1101.4,775.5 1090,776 1079,771.4 1069.5,770.1 1063,769.2 
	1060.3,769.6 1044.2,772 1029.3,773.3 1015.5,776.3 1005.1,772.4 993.9,761.5 978.4,765.3 964.7,776 954.1,781.8 938.6,789.5 
	925.1,789.8 902.8,796.1 890,796.9 884.7,791.6 880.6,773.8 871.2,767.9 856.5,753.2 845.5,747.1 839,740.6 789,726.6 783.6,726.6 
	775,718 760.9,709.4 738.2,704 725.6,711.3 692.8,738.7 685.5,753.3 677.3,763.8 674.9,766.9 657,794.8 657,814.7 639.6,845 
	632.5,859.1 608.9,875.5 598.9,881.3 597.2,882.3 590.8,888.7 590.8,905.5 580.6,915.8 563.5,922.2 552.9,918.5 546.8,916.4 
	535.1,913 496.5,910.7 484.2,914.2 471.4,915.2 456.8,916.4 425.9,916.4 418.4,912.8 409.3,913 374.6,914.9 342,921.9 315.7,914.2 
	303.7,914.2 284.1,922.2 271.6,922.2 260.1,910.7 254.2,908.6 247,908.6 223.9,917.4 212.9,928.4 200.1,952.6 192.4,954.3 
	190.7,954.6 182.3,958.4 176,961.2 168.9,965.5 153.9,965.5 147.6,962.3 142.4,967.5 133.5,965.5 133.5,951.5 124.9,945.6 
	117.7,944.1 115.9,939.5 115.9,933.5 114.1,928.9 96,910.7 85.7,905 79.6,905 79.6,910.7 68.6,913 50.5,913 46.9,907.5 46.9,902.2 
	51.6,895.4 46.9,893.7 42.3,893.7 34.4,897 28.5,893.7 28.5,886.5 "/>
<line class="st4" x1="1818.9" y1="1189.4" x2="1814" y2="1197.4"/>
<line class="st4" x1="1815.8" y1="1184.5" x2="1818.9" y2="1189.4"/>
<line class="st4" x1="1831.8" y1="1139" x2="1815.8" y2="1184.5"/>
<line class="st4" x1="1867.6" y1="1105.5" x2="1831.8" y2="1139"/>
<line class="st4" x1="1872.2" y1="1073.9" x2="1867.6" y2="1105.5"/>
<line class="st4" x1="1880.7" y1="1054" x2="1872.2" y2="1073.9"/>
<line class="st4" x1="1878.2" y1="1035.9" x2="1880.7" y2="1054"/>
<line class="st4" x1="1882.9" y1="1013.8" x2="1878.2" y2="1035.9"/>
<line class="st4" x1="1886.4" y1="1003.9" x2="1882.9" y2="1013.8"/>
<line class="st4" x1="1898.2" y1="984.9" x2="1886.4" y2="1003.9"/>
<line class="st4" x1="1906.3" y1="972.2" x2="1898.2" y2="984.9"/>
<line class="st4" x1="1912.7" y1="958.4" x2="1906.3" y2="972.2"/>
<line class="st4" x1="1910.2" y1="945.6" x2="1912.7" y2="958.4"/>
<line class="st4" x1="1905.2" y1="937.4" x2="1910.2" y2="945.6"/>
<line class="st4" x1="1899.9" y1="922.2" x2="1905.2" y2="937.4"/>
<line class="st4" x1="1905.2" y1="910.7" x2="1899.9" y2="922.2"/>
<line class="st4" x1="1907.7" y1="890.8" x2="1905.2" y2="910.7"/>
<line class="st4" x1="1907.7" y1="873.3" x2="1907.7" y2="890.8"/>
<line class="st4" x1="1895.3" y1="864.8" x2="1907.7" y2="873.3"/>
<line class="st4" x1="1891.5" y1="860.1" x2="1895.3" y2="864.8"/>
<line class="st4" x1="1884" y1="849.3" x2="1891.5" y2="860.1"/>
<line class="st4" x1="1878.6" y1="843.2" x2="1884" y2="849.3"/>
<line class="st4" x1="1868.6" y1="837.8" x2="1878.6" y2="843.2"/>
<line class="st4" x1="1852.3" y1="834.6" x2="1868.6" y2="837.8"/>
<line class="st4" x1="1838" y1="834.6" x2="1852.3" y2="834.6"/>
<line class="st4" x1="1826" y1="837.8" x2="1838" y2="834.6"/>
<line class="st4" x1="1815.6" y1="845" x2="1826" y2="837.8"/>
<line class="st4" x1="1805.3" y1="851.4" x2="1815.6" y2="845"/>
<line class="st4" x1="1791.6" y1="862.3" x2="1805.3" y2="851.4"/>
<line class="st4" x1="1783.7" y1="869.1" x2="1791.6" y2="862.3"/>
<line class="st4" x1="1776.5" y1="868.8" x2="1783.7" y2="869.1"/>
<line class="st4" x1="1770" y1="873.1" x2="1776.5" y2="868.8"/>
<line class="st4" x1="1749.5" y1="877.5" x2="1770" y2="873.1"/>
<line class="st4" x1="1741.7" y1="884.1" x2="1749.5" y2="877.5"/>
<line class="st4" x1="1728.2" y1="884.1" x2="1741.7" y2="884.1"/>
<line class="st4" x1="1706.1" y1="888.7" x2="1728.2" y2="884.1"/>
<line class="st4" x1="1692.3" y1="893.7" x2="1706.1" y2="888.7"/>
<line class="st4" x1="1690.9" y1="905" x2="1692.3" y2="893.7"/>
<line class="st4" x1="1680.5" y1="905" x2="1690.9" y2="905"/>
<line class="st4" x1="1680.5" y1="893.7" x2="1680.5" y2="905"/>
<line class="st4" x1="1664.2" y1="893.7" x2="1680.5" y2="893.7"/>
<line class="st4" x1="1653.9" y1="899.9" x2="1664.2" y2="893.7"/>
<line class="st4" x1="1641.8" y1="905" x2="1653.9" y2="899.9"/>
<line class="st4" x1="1630.4" y1="909.8" x2="1641.8" y2="905"/>
<line class="st4" x1="1616.8" y1="913" x2="1630.4" y2="909.8"/>
<line class="st4" x1="1611.4" y1="921.3" x2="1616.8" y2="913"/>
<line class="st4" x1="1605.4" y1="929.2" x2="1611.4" y2="921.3"/>
<line class="st4" x1="1595.5" y1="939.7" x2="1605.4" y2="929.2"/>
<line class="st4" x1="1588.4" y1="944.1" x2="1595.5" y2="939.7"/>
<line class="st4" x1="1579.1" y1="946.9" x2="1588.4" y2="944.1"/>
<line class="st4" x1="1567.9" y1="955.2" x2="1579.1" y2="946.9"/>
<line class="st4" x1="1550.4" y1="965.5" x2="1567.9" y2="955.2"/>
<line class="st4" x1="1541.9" y1="974.3" x2="1550.4" y2="965.5"/>
<line class="st4" x1="1527" y1="988.2" x2="1541.9" y2="974.3"/>
<line class="st4" x1="1512.4" y1="998.2" x2="1527" y2="988.2"/>
<line class="st4" x1="1486.4" y1="1011" x2="1512.4" y2="998.2"/>
<line class="st4" x1="1475.8" y1="1011.7" x2="1486.4" y2="1011"/>
<line class="st4" x1="1468" y1="1018.1" x2="1475.8" y2="1011.7"/>
<line class="st4" x1="1458" y1="1022" x2="1468" y2="1018.1"/>
<line class="st4" x1="1442.7" y1="1043.7" x2="1458" y2="1022"/>
<line class="st4" x1="1443.8" y1="1054" x2="1442.7" y2="1043.7"/>
<line class="st4" x1="1437.7" y1="1063.2" x2="1443.8" y2="1054"/>
<line class="st4" x1="1433.8" y1="1062.2" x2="1437.7" y2="1063.2"/>
<line class="st4" x1="1428.8" y1="1061.7" x2="1433.8" y2="1062.2"/>
<line class="st4" x1="1422.5" y1="1062" x2="1428.8" y2="1061.7"/>
<line class="st4" x1="1413" y1="1065.3" x2="1422.5" y2="1062"/>
<line class="st4" x1="1397.8" y1="1067.3" x2="1413" y2="1065.3"/>
<line class="st4" x1="1379.8" y1="1073.2" x2="1397.8" y2="1067.3"/>
<line class="st4" x1="1372.5" y1="1083.2" x2="1379.8" y2="1073.2"/>
<line class="st4" x1="1362" y1="1089.2" x2="1372.5" y2="1083.2"/>
<line class="st4" x1="1359.2" y1="1101.6" x2="1362" y2="1089.2"/>
<line class="st4" x1="1359.9" y1="1111.6" x2="1359.2" y2="1101.6"/>
<line class="st4" x1="1348.9" y1="1124.5" x2="1359.9" y2="1111.6"/>
<line class="st4" x1="1340.1" y1="1136.1" x2="1348.9" y2="1124.5"/>
<line class="st4" x1="1333.6" y1="1147.9" x2="1340.1" y2="1136.1"/>
<line class="st4" x1="1311.7" y1="1170.6" x2="1333.6" y2="1147.9"/>
<line class="st4" x1="1303.4" y1="1179.8" x2="1311.7" y2="1170.6"/>
<line class="st4" x1="1280.4" y1="1196.7" x2="1303.4" y2="1179.8"/>
<line class="st4" x1="1276.7" y1="1201.7" x2="1280.4" y2="1196.7"/>
<line class="st4" x1="1278.1" y1="1191.2" x2="1276.7" y2="1201.7"/>
<line class="st4" x1="1278.1" y1="1181.4" x2="1278.1" y2="1191.2"/>
<line class="st4" x1="1264.3" y1="1181.4" x2="1278.1" y2="1181.4"/>
<line class="st4" x1="1247.1" y1="1185.4" x2="1264.3" y2="1181.4"/>
<line class="st4" x1="1217.3" y1="1201.8" x2="1247.1" y2="1185.4"/>
<line class="st4" x1="1216.6" y1="1189" x2="1217.3" y2="1201.8"/>
<line class="st4" x1="1221.7" y1="1177.1" x2="1216.6" y2="1189"/>
<line class="st4" x1="1226.8" y1="1158" x2="1221.7" y2="1177.1"/>
<line class="st4" x1="1241.3" y1="1130.9" x2="1226.8" y2="1158"/>
<line class="st4" x1="1264.3" y1="1106.5" x2="1241.3" y2="1130.9"/>
<line class="st4" x1="1291.6" y1="1068.9" x2="1264.3" y2="1106.5"/>
<line class="st4" x1="1298.7" y1="1063.6" x2="1291.6" y2="1068.9"/>
<line class="st4" x1="1302.4" y1="1057.3" x2="1298.7" y2="1063.6"/>
<line class="st4" x1="1306" y1="1045.9" x2="1302.4" y2="1057.3"/>
<line class="st4" x1="1313.3" y1="1041.2" x2="1306" y2="1045.9"/>
<line class="st4" x1="1320.1" y1="1034.8" x2="1313.3" y2="1041.2"/>
<line class="st4" x1="1322.2" y1="1022" x2="1320.1" y2="1034.8"/>
<line class="st4" x1="1323" y1="1016.2" x2="1322.2" y2="1022"/>
<line class="st4" x1="1325" y1="1001" x2="1323" y2="1016.2"/>
<line class="st4" x1="1323.9" y1="975.1" x2="1325" y2="1001"/>
<line class="st4" x1="1323.3" y1="945.9" x2="1323.9" y2="975.1"/>
<line class="st4" x1="1316.5" y1="916.4" x2="1323.3" y2="945.9"/>
<line class="st4" x1="1313.7" y1="909.3" x2="1316.5" y2="916.4"/>
<line class="st4" x1="1310.6" y1="901.7" x2="1313.7" y2="909.3"/>
<line class="st4" x1="1300.9" y1="880.5" x2="1310.6" y2="901.7"/>
<line class="st4" x1="1292" y1="868.1" x2="1300.9" y2="880.5"/>
<line class="st4" x1="1284.5" y1="841" x2="1292" y2="868.1"/>
<line class="st4" x1="1276" y1="827.5" x2="1284.5" y2="841"/>
<line class="st4" x1="1264" y1="815.2" x2="1276" y2="827.5"/>
<line class="st4" x1="1256.6" y1="808.7" x2="1264" y2="815.2"/>
<line class="st4" x1="1249.7" y1="802.6" x2="1256.6" y2="808.7"/>
<line class="st4" x1="1227.6" y1="794.8" x2="1249.7" y2="802.6"/>
<line class="st4" x1="1213.8" y1="787.7" x2="1227.6" y2="794.8"/>
<line class="st4" x1="1184.3" y1="788.1" x2="1213.8" y2="787.7"/>
<line class="st4" x1="1168.8" y1="781.3" x2="1184.3" y2="788.1"/>
<line class="st4" x1="1148.5" y1="777.3" x2="1168.8" y2="781.3"/>
<line class="st4" x1="1134.5" y1="774.9" x2="1148.5" y2="777.3"/>
<line class="st4" x1="1114.9" y1="775" x2="1134.5" y2="774.9"/>
<line class="st4" x1="1101.4" y1="775.5" x2="1114.9" y2="775"/>
<line class="st4" x1="1090" y1="776" x2="1101.4" y2="775.5"/>
<line class="st4" x1="1079" y1="771.4" x2="1090" y2="776"/>
<line class="st4" x1="1069.5" y1="770.1" x2="1079" y2="771.4"/>
<line class="st4" x1="1063" y1="769.2" x2="1069.5" y2="770.1"/>
<line class="st4" x1="1060.3" y1="769.6" x2="1063" y2="769.2"/>
<line class="st4" x1="1044.2" y1="772" x2="1060.3" y2="769.6"/>
<line class="st4" x1="1029.3" y1="773.3" x2="1044.2" y2="772"/>
<line class="st4" x1="1015.5" y1="776.3" x2="1029.3" y2="773.3"/>
<line class="st4" x1="1005.1" y1="772.4" x2="1015.5" y2="776.3"/>
<line class="st4" x1="993.9" y1="761.5" x2="1005.1" y2="772.4"/>
<line class="st4" x1="978.4" y1="765.3" x2="993.9" y2="761.5"/>
<line class="st4" x1="964.7" y1="776" x2="978.4" y2="765.3"/>
<line class="st4" x1="954.1" y1="781.8" x2="964.7" y2="776"/>
<line class="st4" x1="938.6" y1="789.5" x2="954.1" y2="781.8"/>
<line class="st4" x1="925.1" y1="789.8" x2="938.6" y2="789.5"/>
<line class="st4" x1="902.8" y1="796.1" x2="925.1" y2="789.8"/>
<line class="st4" x1="890" y1="796.9" x2="902.8" y2="796.1"/>
<line class="st4" x1="884.7" y1="791.6" x2="890" y2="796.9"/>
<line class="st4" x1="880.6" y1="773.8" x2="884.7" y2="791.6"/>
<line class="st4" x1="871.2" y1="767.9" x2="880.6" y2="773.8"/>
<line class="st4" x1="856.5" y1="753.2" x2="871.2" y2="767.9"/>
<line class="st4" x1="845.5" y1="747.1" x2="856.5" y2="753.2"/>
<line class="st4" x1="839" y1="740.6" x2="845.5" y2="747.1"/>
<line class="st4" x1="789" y1="726.6" x2="839" y2="740.6"/>
<line class="st4" x1="783.6" y1="726.6" x2="789" y2="726.6"/>
<line class="st4" x1="775" y1="718" x2="783.6" y2="726.6"/>
<line class="st4" x1="760.9" y1="709.4" x2="775" y2="718"/>
<line class="st4" x1="738.2" y1="704" x2="760.9" y2="709.4"/>
<line class="st4" x1="725.6" y1="711.3" x2="738.2" y2="704"/>
<line class="st4" x1="692.8" y1="738.7" x2="725.6" y2="711.3"/>
<line class="st4" x1="685.5" y1="753.3" x2="692.8" y2="738.7"/>
<line class="st4" x1="677.3" y1="763.8" x2="685.5" y2="753.3"/>
<line class="st4" x1="674.9" y1="766.9" x2="677.3" y2="763.8"/>
<line class="st4" x1="657" y1="794.8" x2="674.9" y2="766.9"/>
<line class="st4" x1="657" y1="814.7" x2="657" y2="794.8"/>
<line class="st4" x1="639.6" y1="845" x2="657" y2="814.7"/>
<line class="st4" x1="632.5" y1="859.1" x2="639.6" y2="845"/>
<line class="st4" x1="608.9" y1="875.5" x2="632.5" y2="859.1"/>
<line class="st4" x1="598.9" y1="881.3" x2="608.9" y2="875.5"/>
<line class="st4" x1="597.2" y1="882.3" x2="598.9" y2="881.3"/>
<line class="st4" x1="590.8" y1="888.7" x2="597.2" y2="882.3"/>
<line class="st4" x1="590.8" y1="905.5" x2="590.8" y2="888.7"/>
<line class="st4" x1="580.6" y1="915.8" x2="590.8" y2="905.5"/>
<line class="st4" x1="563.5" y1="922.2" x2="580.6" y2="915.8"/>
<line class="st4" x1="552.9" y1="918.5" x2="563.5" y2="922.2"/>
<line class="st4" x1="546.8" y1="916.4" x2="552.9" y2="918.5"/>
<line class="st4" x1="535.1" y1="913" x2="546.8" y2="916.4"/>
<line class="st4" x1="496.5" y1="910.7" x2="535.1" y2="913"/>
<line class="st4" x1="484.2" y1="914.2" x2="496.5" y2="910.7"/>
<line class="st4" x1="471.4" y1="915.2" x2="484.2" y2="914.2"/>
<line class="st4" x1="456.8" y1="916.4" x2="471.4" y2="915.2"/>
<line class="st4" x1="425.9" y1="916.4" x2="456.8" y2="916.4"/>
<line class="st4" x1="418.4" y1="912.8" x2="425.9" y2="916.4"/>
<line class="st4" x1="409.3" y1="913" x2="418.4" y2="912.8"/>
<line class="st4" x1="374.6" y1="914.9" x2="409.3" y2="913"/>
<line class="st4" x1="342" y1="921.9" x2="374.6" y2="914.9"/>
<line class="st4" x1="315.7" y1="914.2" x2="342" y2="921.9"/>
<line class="st4" x1="303.7" y1="914.2" x2="315.7" y2="914.2"/>
<line class="st4" x1="284.1" y1="922.2" x2="303.7" y2="914.2"/>
<line class="st4" x1="271.6" y1="922.2" x2="284.1" y2="922.2"/>
<line class="st4" x1="260.1" y1="910.7" x2="271.6" y2="922.2"/>
<line class="st4" x1="254.2" y1="908.6" x2="260.1" y2="910.7"/>
<line class="st4" x1="247" y1="908.6" x2="254.2" y2="908.6"/>
<line class="st4" x1="223.9" y1="917.4" x2="247" y2="908.6"/>
<line class="st4" x1="212.9" y1="928.4" x2="223.9" y2="917.4"/>
<line class="st4" x1="200.1" y1="952.6" x2="212.9" y2="928.4"/>
<line class="st4" x1="192.4" y1="954.3" x2="200.1" y2="952.6"/>
<line class="st4" x1="190.7" y1="954.6" x2="192.4" y2="954.3"/>
<line class="st4" x1="182.3" y1="958.4" x2="190.7" y2="954.6"/>
<line class="st4" x1="176" y1="961.2" x2="182.3" y2="958.4"/>
<line class="st4" x1="168.9" y1="965.5" x2="176" y2="961.2"/>
<line class="st4" x1="153.9" y1="965.5" x2="168.9" y2="965.5"/>
<line class="st4" x1="147.6" y1="962.3" x2="153.9" y2="965.5"/>
<line class="st4" x1="142.4" y1="967.5" x2="147.6" y2="962.3"/>
<line class="st4" x1="133.5" y1="965.5" x2="142.4" y2="967.5"/>
<line class="st4" x1="133.5" y1="951.5" x2="133.5" y2="965.5"/>
<line class="st4" x1="124.9" y1="945.6" x2="133.5" y2="951.5"/>
<line class="st4" x1="117.7" y1="944.1" x2="124.9" y2="945.6"/>
<line class="st4" x1="115.9" y1="939.5" x2="117.7" y2="944.1"/>
<line class="st4" x1="115.9" y1="933.5" x2="115.9" y2="939.5"/>
<line class="st4" x1="114.1" y1="928.9" x2="115.9" y2="933.5"/>
<line class="st4" x1="96" y1="910.7" x2="114.1" y2="928.9"/>
<line class="st4" x1="85.7" y1="905" x2="96" y2="910.7"/>
<line class="st4" x1="79.6" y1="905" x2="85.7" y2="905"/>
<line class="st4" x1="79.6" y1="910.7" x2="79.6" y2="905"/>
<line class="st4" x1="68.6" y1="913" x2="79.6" y2="910.7"/>
<line class="st4" x1="50.5" y1="913" x2="68.6" y2="913"/>
<line class="st4" x1="46.9" y1="907.5" x2="50.5" y2="913"/>
<line class="st4" x1="46.9" y1="902.2" x2="46.9" y2="907.5"/>
<line class="st4" x1="51.6" y1="895.4" x2="46.9" y2="902.2"/>
<line class="st4" x1="46.9" y1="893.7" x2="51.6" y2="895.4"/>
<line class="st4" x1="42.3" y1="893.7" x2="46.9" y2="893.7"/>
<line class="st4" x1="34.4" y1="897" x2="42.3" y2="893.7"/>
<line class="st4" x1="28.5" y1="893.7" x2="34.4" y2="897"/>
<line class="st4" x1="28.5" y1="886.5" x2="28.5" y2="893.7"/>
<line class="st4" x1="14.2" y1="869.6" x2="28.5" y2="886.5"/>
<line class="st4" x1="14.3" y1="692.7" x2="14.2" y2="869.6"/>
<line class="st4" x1="21.6" y1="715.6" x2="14.3" y2="692.7"/>
<line class="st4" x1="35.9" y1="773.6" x2="21.6" y2="715.6"/>
<line class="st4" x1="42.5" y1="820.9" x2="35.9" y2="773.6"/>
<line class="st4" x1="92.9" y1="856.8" x2="42.5" y2="820.9"/>
<line class="st4" x1="138" y1="863.6" x2="92.9" y2="856.8"/>
<line class="st4" x1="170.8" y1="886.4" x2="138" y2="863.6"/>
<line class="st4" x1="195.5" y1="925.3" x2="170.8" y2="886.4"/>
<line class="st4" x1="215" y1="904.1" x2="195.5" y2="925.3"/>
<line class="st4" x1="253.9" y1="895.3" x2="215" y2="904.1"/>
<line class="st4" x1="292.8" y1="894.4" x2="253.9" y2="895.3"/>
<line class="st4" x1="321.2" y1="902.3" x2="292.8" y2="894.4"/>
<line class="st4" x1="366.3" y1="898.8" x2="321.2" y2="902.3"/>
<line class="st4" x1="422" y1="871.4" x2="366.3" y2="898.8"/>
<line class="st4" x1="437.1" y1="851.9" x2="422" y2="871.4"/>
<line class="st4" x1="446.8" y1="817.4" x2="437.1" y2="851.9"/>
<line class="st4" x1="480.5" y1="782.6" x2="446.8" y2="817.4"/>
<line class="st4" x1="500.5" y1="743.4" x2="480.5" y2="782.6"/>
<line class="st4" x1="505.1" y1="706.4" x2="500.5" y2="743.4"/>
<line class="st4" x1="508.7" y1="677.8" x2="505.1" y2="706.4"/>
<line class="st4" x1="546.3" y1="659.7" x2="508.7" y2="677.8"/>
<line class="st4" x1="586.7" y1="614.9" x2="546.3" y2="659.7"/>
<line class="st4" x1="608.6" y1="592.8" x2="586.7" y2="614.9"/>
<line class="st4" x1="655.4" y1="595.4" x2="608.6" y2="592.8"/>
<line class="st4" x1="705.1" y1="598.3" x2="655.4" y2="595.4"/>
<line class="st4" x1="722.8" y1="627.2" x2="705.1" y2="598.3"/>
<line class="st4" x1="733.2" y1="649.4" x2="722.8" y2="627.2"/>
<line class="st4" x1="747.3" y1="667.3" x2="733.2" y2="649.4"/>
<line class="st4" x1="751.1" y1="673.6" x2="747.3" y2="667.3"/>
<line class="st4" x1="763.3" y1="693.8" x2="751.1" y2="673.6"/>
<line class="st4" x1="766.1" y1="698.5" x2="763.3" y2="693.8"/>
<line class="st4" x1="770.7" y1="706.7" x2="766.1" y2="698.5"/>
<line class="st4" x1="818" y1="721.4" x2="770.7" y2="706.7"/>
<line class="st4" x1="838.5" y1="729.9" x2="818" y2="721.4"/>
<line class="st4" x1="848.8" y1="734.2" x2="838.5" y2="729.9"/>
<line class="st4" x1="872.6" y1="746" x2="848.8" y2="734.2"/>
<line class="st4" x1="911.2" y1="765.2" x2="872.6" y2="746"/>
<line class="st4" x1="935.5" y1="760.2" x2="911.2" y2="765.2"/>
<line class="st4" x1="975.7" y1="752" x2="935.5" y2="760.2"/>
<line class="st4" x1="1006.5" y1="749.3" x2="975.7" y2="752"/>
<line class="st4" x1="1041.8" y1="746.1" x2="1006.5" y2="749.3"/>
<line class="st4" x1="1048.7" y1="705.2" x2="1041.8" y2="746.1"/>
<line class="st4" x1="1044.7" y1="692.6" x2="1048.7" y2="705.2"/>
<line class="st4" x1="1073.8" y1="677.1" x2="1044.7" y2="692.6"/>
<line class="st4" x1="1096.4" y1="691.5" x2="1073.8" y2="677.1"/>
<line class="st4" x1="1117.1" y1="710.9" x2="1096.4" y2="691.5"/>
<line class="st4" x1="1134" y1="726.7" x2="1117.1" y2="710.9"/>
<line class="st4" x1="1163.7" y1="712.2" x2="1134" y2="726.7"/>
<line class="st4" x1="1193.1" y1="693.4" x2="1163.7" y2="712.2"/>
<line class="st4" x1="1206.7" y1="681.4" x2="1193.1" y2="693.4"/>
<line class="st4" x1="1220.9" y1="669" x2="1206.7" y2="681.4"/>
<line class="st4" x1="1213.7" y1="651" x2="1220.9" y2="669"/>
<line class="st4" x1="1235.9" y1="624.8" x2="1213.7" y2="651"/>
<line class="st4" x1="1263.4" y1="601.3" x2="1235.9" y2="624.8"/>
<line class="st4" x1="1280.7" y1="584" x2="1263.4" y2="601.3"/>
<line class="st4" x1="1318" y1="578.8" x2="1280.7" y2="584"/>
<line class="st4" x1="1364.7" y1="587.1" x2="1318" y2="578.8"/>
<line class="st4" x1="1362.6" y1="572.5" x2="1364.7" y2="587.1"/>
<line class="st4" x1="1353.5" y1="526.3" x2="1362.6" y2="572.5"/>
<line class="st4" x1="1353.5" y1="507.2" x2="1353.5" y2="526.3"/>
<line class="st4" x1="1400.9" y1="500.6" x2="1353.5" y2="507.2"/>
<line class="st4" x1="1442" y1="513.1" x2="1400.9" y2="500.6"/>
<line class="st4" x1="1463" y1="466.2" x2="1442" y2="513.1"/>
<line class="st4" x1="1463" y1="433.7" x2="1463" y2="466.2"/>
<line class="st4" x1="1445" y1="415.7" x2="1463" y2="433.7"/>
<line class="st4" x1="1452.4" y1="406.1" x2="1445" y2="415.7"/>
<line class="st4" x1="1477.9" y1="375" x2="1452.4" y2="406.1"/>
<line class="st4" x1="1493.3" y1="324.9" x2="1477.9" y2="375"/>
<line class="st4" x1="1548.2" y1="334.8" x2="1493.3" y2="324.9"/>
<line class="st4" x1="1615.1" y1="268" x2="1548.2" y2="334.8"/>
<line class="st4" x1="1641" y1="242" x2="1615.1" y2="268"/>
<line class="st4" x1="1682.5" y1="155.5" x2="1641" y2="242"/>
<line class="st4" x1="1716.5" y1="84.7" x2="1682.5" y2="155.5"/>
<line class="st4" x1="1752.2" y1="0.1" x2="1716.5" y2="84.7"/>
<line class="st4" x1="2315.5" y1="87.8" x2="2429.3" y2="0.1"/>
<line class="st4" x1="2265.1" y1="151.9" x2="2315.5" y2="87.8"/>
<line class="st4" x1="2179.8" y1="231" x2="2265.1" y2="151.9"/>
<line class="st4" x1="2113.8" y1="318.5" x2="2179.8" y2="231"/>
<line class="st4" x1="2032.1" y1="400.3" x2="2113.8" y2="318.5"/>
<line class="st4" x1="2007.2" y1="444.3" x2="2032.1" y2="400.3"/>
<line class="st4" x1="1938.4" y1="542.3" x2="2007.2" y2="444.3"/>
<line class="st4" x1="1935.5" y1="566.4" x2="1938.4" y2="542.3"/>
<line class="st4" x1="1914.4" y1="587.5" x2="1935.5" y2="566.4"/>
<line class="st4" x1="1872.8" y1="609.8" x2="1914.4" y2="587.5"/>
<line class="st4" x1="1825.3" y1="642.7" x2="1872.8" y2="609.8"/>
<line class="st4" x1="1785.5" y1="662.9" x2="1825.3" y2="642.7"/>
<line class="st4" x1="1744.4" y1="688" x2="1785.5" y2="662.9"/>
<line class="st4" x1="1745.7" y1="716.4" x2="1744.4" y2="688"/>
<line class="st4" x1="1766" y1="719.8" x2="1745.7" y2="716.4"/>
<line class="st4" x1="1794.9" y1="734.7" x2="1766" y2="719.8"/>
<line class="st4" x1="1817.3" y1="729.4" x2="1794.9" y2="734.7"/>
<line class="st4" x1="1851.9" y1="708.3" x2="1817.3" y2="729.4"/>
<line class="st4" x1="1873.5" y1="681.7" x2="1851.9" y2="708.3"/>
<line class="st4" x1="1880.6" y1="669" x2="1873.5" y2="681.7"/>
<line class="st4" x1="1891.7" y1="653.9" x2="1880.6" y2="669"/>
<line class="st4" x1="1916.3" y1="638.9" x2="1891.7" y2="653.9"/>
<line class="st4" x1="1930.6" y1="653.2" x2="1916.3" y2="638.9"/>
<line class="st4" x1="1938.4" y1="669" x2="1930.6" y2="653.2"/>
<line class="st4" x1="1971.9" y1="669" x2="1938.4" y2="669"/>
<line class="st4" x1="1994.5" y1="681.3" x2="1971.9" y2="669"/>
<line class="st4" x1="2010.2" y1="702.9" x2="1994.5" y2="681.3"/>
<line class="st4" x1="2007.2" y1="716.5" x2="2010.2" y2="702.9"/>
<line class="st4" x1="2016.5" y1="742.3" x2="2007.2" y2="716.5"/>
<line class="st4" x1="2029.5" y1="763.6" x2="2016.5" y2="742.3"/>
<line class="st4" x1="2037.8" y1="789.8" x2="2029.5" y2="763.6"/>
<line class="st4" x1="2036.2" y1="808.5" x2="2037.8" y2="789.8"/>
<line class="st4" x1="2036.2" y1="863.6" x2="2036.2" y2="808.5"/>
<line class="st4" x1="2032.5" y1="872" x2="2036.2" y2="863.6"/>
<line class="st4" x1="2026.9" y1="896.2" x2="2032.5" y2="872"/>
<line class="st4" x1="2009.8" y1="915" x2="2026.9" y2="896.2"/>
<line class="st4" x1="2007.2" y1="929.6" x2="2009.8" y2="915"/>
<line class="st4" x1="2009.9" y1="941.5" x2="2007.2" y2="929.6"/>
<line class="st4" x1="2020.8" y1="964.4" x2="2009.9" y2="941.5"/>
<line class="st4" x1="2007.2" y1="977.9" x2="2020.8" y2="964.4"/>
<line class="st4" x1="1996.3" y1="977.9" x2="2007.2" y2="977.9"/>
<line class="st4" x1="1973.9" y1="977.9" x2="1996.3" y2="977.9"/>
<line class="st4" x1="1940" y1="1002.8" x2="1973.9" y2="977.9"/>
<line class="st4" x1="1934.6" y1="1010.6" x2="1940" y2="1002.8"/>
<line class="st4" x1="1924.5" y1="1028.9" x2="1934.6" y2="1010.6"/>
<line class="st4" x1="1920.4" y1="1039.5" x2="1924.5" y2="1028.9"/>
<line class="st4" x1="1923.1" y1="1048" x2="1920.4" y2="1039.5"/>
<line class="st4" x1="1921.3" y1="1053" x2="1923.1" y2="1048"/>
<line class="st4" x1="1915.6" y1="1053.8" x2="1921.3" y2="1053"/>
<line class="st4" x1="1915.5" y1="1058.9" x2="1915.6" y2="1053.8"/>
<line class="st4" x1="1909.2" y1="1061.7" x2="1915.5" y2="1058.9"/>
<line class="st4" x1="1907.4" y1="1067.4" x2="1909.2" y2="1061.7"/>
<line class="st4" x1="1911.1" y1="1069.6" x2="1907.4" y2="1067.4"/>
<line class="st4" x1="1918.4" y1="1074.6" x2="1911.1" y2="1069.6"/>
<line class="st4" x1="1932.5" y1="1086.4" x2="1918.4" y2="1074.6"/>
<line class="st4" x1="1938.5" y1="1096" x2="1932.5" y2="1086.4"/>
<line class="st4" x1="1943.9" y1="1111.4" x2="1938.5" y2="1096"/>
<line class="st4" x1="1940.4" y1="1127.1" x2="1943.9" y2="1111.4"/>
<line class="st4" x1="1935.3" y1="1140.6" x2="1940.4" y2="1127.1"/>
<line class="st4" x1="1933.7" y1="1173.2" x2="1935.3" y2="1140.6"/>
<line class="st4" x1="1936.5" y1="1182.5" x2="1933.7" y2="1173.2"/>
<line class="st4" x1="1918.4" y1="1200.6" x2="1936.5" y2="1182.5"/>
<line class="st4" x1="1903.6" y1="1195.7" x2="1918.4" y2="1200.6"/>
<line class="st4" x1="1883.3" y1="1190" x2="1903.6" y2="1195.7"/>
<line class="st4" x1="1860.8" y1="1198.8" x2="1883.3" y2="1190"/>
<line class="st4" x1="1848.2" y1="1189.7" x2="1860.8" y2="1198.8"/>
<line class="st4" x1="1836.7" y1="1185.6" x2="1848.2" y2="1189.7"/>
<line class="st4" x1="1822.9" y1="1194" x2="1836.7" y2="1185.6"/>
<line class="st4" x1="1814" y1="1197.4" x2="1822.9" y2="1194"/>
<polyline class="st3" points="21.6,715.6 14.3,692.7 14.3,287.8 33.9,307.4 49.4,307.4 70.7,298.1 102.5,298.1 123.4,243.1 
	149.4,207 146.3,195.1 117.5,202.6 96.5,223.6 64.5,233.6 49.4,232.9 24.8,239.3 14.4,249.8 14.4,0.1 779.9,0.1 758.2,44 
	727.4,106.2 637.8,174.1 533.6,272.7 440.5,296.7 365.6,337.5 310.6,370.5 294.2,412.8 263.1,417.9 231.7,449.4 252.4,484.7 
	221.2,515.9 175.4,561.8 145.5,610.8 91.9,645.3 47,690.2 21.6,715.6 "/>
<line class="st4" x1="14.3" y1="692.7" x2="21.6" y2="715.6"/>
<line class="st4" x1="14.3" y1="287.8" x2="14.3" y2="692.7"/>
<line class="st4" x1="33.9" y1="307.4" x2="14.3" y2="287.8"/>
<line class="st4" x1="49.4" y1="307.4" x2="33.9" y2="307.4"/>
<line class="st4" x1="70.7" y1="298.1" x2="49.4" y2="307.4"/>
<line class="st4" x1="102.5" y1="298.1" x2="70.7" y2="298.1"/>
<line class="st4" x1="123.4" y1="243.1" x2="102.5" y2="298.1"/>
<line class="st4" x1="149.4" y1="207" x2="123.4" y2="243.1"/>
<line class="st4" x1="146.3" y1="195.1" x2="149.4" y2="207"/>
<line class="st4" x1="117.5" y1="202.6" x2="146.3" y2="195.1"/>
<line class="st4" x1="96.5" y1="223.6" x2="117.5" y2="202.6"/>
<line class="st4" x1="64.5" y1="233.6" x2="96.5" y2="223.6"/>
<line class="st4" x1="49.4" y1="232.9" x2="64.5" y2="233.6"/>
<line class="st4" x1="24.8" y1="239.3" x2="49.4" y2="232.9"/>
<line class="st4" x1="14.4" y1="249.8" x2="24.8" y2="239.3"/>
<line class="st4" x1="14.4" y1="0.1" x2="14.4" y2="249.8"/>
<line class="st4" x1="758.2" y1="44" x2="779.9" y2="0.1"/>
<line class="st4" x1="727.4" y1="106.2" x2="758.2" y2="44"/>
<line class="st4" x1="637.8" y1="174.1" x2="727.4" y2="106.2"/>
<line class="st4" x1="533.6" y1="272.7" x2="637.8" y2="174.1"/>
<line class="st4" x1="440.5" y1="296.7" x2="533.6" y2="272.7"/>
<line class="st4" x1="365.6" y1="337.5" x2="440.5" y2="296.7"/>
<line class="st4" x1="310.6" y1="370.5" x2="365.6" y2="337.5"/>
<line class="st4" x1="294.2" y1="412.8" x2="310.6" y2="370.5"/>
<line class="st4" x1="263.1" y1="417.9" x2="294.2" y2="412.8"/>
<line class="st4" x1="231.7" y1="449.4" x2="263.1" y2="417.9"/>
<line class="st4" x1="252.4" y1="484.7" x2="231.7" y2="449.4"/>
<line class="st4" x1="221.2" y1="515.9" x2="252.4" y2="484.7"/>
<line class="st4" x1="175.4" y1="561.8" x2="221.2" y2="515.9"/>
<line class="st4" x1="145.5" y1="610.8" x2="175.4" y2="561.8"/>
<line class="st4" x1="91.9" y1="645.3" x2="145.5" y2="610.8"/>
<line class="st4" x1="47" y1="690.2" x2="91.9" y2="645.3"/>
<line class="st4" x1="21.6" y1="715.6" x2="47" y2="690.2"/>
</svg>
