<?xml version="1.0" encoding="utf-8"?>
<!-- Generator: Adobe Illustrator 24.0.0, SVG Export Plug-In . SVG Version: 6.00 Build 0)  -->
<svg version="1.1" xmlns="http://www.w3.org/2000/svg" xmlns:xlink="http://www.w3.org/1999/xlink" x="0px" y="0px"
	 viewBox="0 0 3600 1800" style="enable-background:new 0 0 3600 1800;" xml:space="preserve">
<style type="text/css">
	.st0{opacity:0.8;fill:#BE8C53;}
	.st1{opacity:0.8;fill:#90C682;}
	.st2{fill:#FFFFFF;}
	.st3{opacity:0.8;fill:#73C0EC;}
	.st4{opacity:0.8;fill:#AFCE66;}
	.st5{opacity:0.8;fill:#D56DA8;}
	.st6{opacity:0.8;fill:#8ABF46;}
	.st7{opacity:0.8;fill:#698BC5;}
	.st8{opacity:0.8;fill:#9D72AF;}
	.st9{opacity:0.8;fill:#E94B53;}
	.st10{opacity:0.3;fill:#BAD47B;}
	.st11{fill:none;}
	.st12{font-family:'MyriadPro-Regular';}
	.st13{font-size:28.3465px;}
	.st14{font-size:25.7617px;}
	.st15{opacity:0.8;}
	.st16{fill:#73C0EC;}
	.st17{font-size:25.5118px;}
	.st18{fill:#FFFFFF;stroke:#FFFFFF;stroke-miterlimit:10;}
	.st19{display:none;}
</style>
<g id="Icons">
	<path class="st0" d="M217.78,298.93L217.78,298.93c-70.44,0-128.08-57.63-128.08-128.08v0c0-70.44,57.63-128.08,128.08-128.08h0
		c70.44,0,128.08,57.63,128.08,128.08v0C345.86,241.3,288.23,298.93,217.78,298.93z"/>
	<path class="st1" d="M2986.66,298.93L2986.66,298.93c-70.44,0-128.08-57.63-128.08-128.08v0c0-70.44,57.63-128.08,128.08-128.08h0
		c70.44,0,128.08,57.63,128.08,128.08v0C3114.74,241.3,3057.11,298.93,2986.66,298.93z"/>
	<g>
		<path class="st2" d="M319.51,223.25c-36.13-27-77.32-33.07-120.84-30.02c-29.31,2.06-73.08,18.05-81.19,30.02
			C184.82,223.25,252.17,223.25,319.51,223.25z M186.85,175.45c-19.72,4.65-38.16,11.29-55.12,22.08
			c63.82-23.01,125.92-19,186.54,11.18c-32.94-24.06-68.78-38.88-110.45-36.38c0-6.46,0-12.59,0-18.72
			c5.92-0.17,6.32-0.39,6.21-5.91c-0.2-10.34-3.9-19.81-7.8-30.61c-2.35,7.86-4.44,14.43-6.23,21.07c-0.71,2.61-0.98,5.39-1.08,8.1
			c-0.26,6.84-0.17,6.84,6.53,7.48c0,6.13,0,12.28,0,18.77c-4.77,0.68-9.4,1.35-14.32,2.05c0-7.95,0-15.5,0-22.05
			c1.78-1.25,3.55-1.87,3.86-2.92c0.25-0.86-1.18-2.28-1.98-3.37c-1.42-1.95-3.04-3.76-4.36-5.77c-0.79-1.2-1.16-2.67-1.73-4.02
			c-1.27,0.63-2.55,1.25-4.14,2.03c-0.35-0.24-1.18-0.6-1.74-1.2c-3.02-3.25-5.74-2.61-8.86,0.08c-3.59,3.1-7.62,5.68-11.31,8.68
			c-1.1,0.89-1.69,2.4-2.52,3.63c1.29,0.79,2.58,1.58,4.1,2.51c0,3.65,0,7.8,0,11.89c-0.29,0.09-0.46,0.21-0.56,0.17
			c-1.06-0.41-2.13-0.82-3.17-1.27c-12.24-5.32-25.09-7.31-38.33-6.76c-1.44,0.06-3.9,1.38-4.04,2.37
			c-0.49,3.61-0.19,7.33-0.19,11.2c20.79-3.12,40.66-2.1,60.31,5.06c-6.07-4.43-10.55-8.6-10.36-17.49c0.19-8.83,3.6-13.48,11-16.97
			c2.59,1.92,5.44,3.87,8.07,6.07c0.85,0.71,1.59,2.1,1.6,3.19C186.91,158.09,186.85,166.59,186.85,175.45z"/>
		<path class="st2" d="M319.51,223.25c-67.34,0-134.69,0-202.03,0c8.11-11.96,51.88-27.96,81.19-30.01
			C242.18,190.18,283.38,196.25,319.51,223.25z"/>
		<path class="st2" d="M186.85,175.45c0-8.86,0.06-17.35-0.07-25.84c-0.02-1.09-0.75-2.47-1.6-3.19c-2.63-2.21-5.48-4.15-8.07-6.07
			c-7.41,3.49-10.81,8.14-11,16.97c-0.19,8.9,4.29,13.06,10.36,17.49c-19.65-7.16-39.52-8.18-60.31-5.06c0-3.86-0.3-7.58,0.19-11.2
			c0.13-0.99,2.6-2.31,4.04-2.37c13.25-0.55,26.1,1.44,38.33,6.76c1.04,0.45,2.11,0.86,3.17,1.27c0.11,0.04,0.27-0.07,0.56-0.17
			c0-4.09,0-8.24,0-11.89c-1.52-0.93-2.81-1.72-4.1-2.51c0.82-1.23,1.42-2.74,2.52-3.63c3.69-2.99,7.72-5.58,11.31-8.68
			c3.12-2.69,5.84-3.33,8.86-0.08c0.56,0.61,1.39,0.97,1.74,1.2c1.59-0.78,2.87-1.41,4.14-2.03c0.56,1.35,0.94,2.82,1.73,4.02
			c1.32,2.01,2.93,3.82,4.36,5.77c0.8,1.09,2.23,2.51,1.98,3.37c-0.31,1.05-2.09,1.67-3.86,2.92c0,6.55,0,14.11,0,22.05
			c4.92-0.71,9.56-1.37,14.32-2.05c0-6.49,0-12.64,0-18.77c-6.7-0.63-6.78-0.64-6.53-7.48c0.1-2.71,0.38-5.49,1.08-8.1
			c1.8-6.64,3.88-13.2,6.23-21.07c3.91,10.8,7.6,20.26,7.8,30.61c0.11,5.52-0.3,5.73-6.21,5.91c0,6.13,0,12.27,0,18.72
			c41.67-2.5,77.51,12.32,110.45,36.38c-60.62-30.18-122.72-34.19-186.54-11.18C148.69,186.73,167.13,180.09,186.85,175.45z"/>
	</g>
	<path class="st3" d="M613.34,298.93L613.34,298.93c-70.44,0-128.08-57.63-128.08-128.08v0c0-70.44,57.63-128.08,128.08-128.08h0
		c70.44,0,128.08,57.63,128.08,128.08v0C741.41,241.3,683.78,298.93,613.34,298.93z"/>
	<path class="st4" d="M1008.89,298.93L1008.89,298.93c-70.44,0-128.08-57.63-128.08-128.08v0c0-70.44,57.63-128.08,128.08-128.08h0
		c70.44,0,128.08,57.63,128.08,128.08v0C1136.97,241.3,1079.33,298.93,1008.89,298.93z"/>
	<path class="st5" d="M1404.45,298.93L1404.45,298.93c-70.44,0-128.08-57.63-128.08-128.08v0c0-70.44,57.63-128.08,128.08-128.08h0
		c70.44,0,128.08,57.63,128.08,128.08v0C1532.52,241.3,1474.89,298.93,1404.45,298.93z"/>
	<path class="st6" d="M1800.71,298.93L1800.71,298.93c-70.44,0-128.08-57.63-128.08-128.08v0c0-70.44,57.63-128.08,128.08-128.08h0
		c70.44,0,128.08,57.63,128.08,128.08v0C1928.79,241.3,1871.15,298.93,1800.71,298.93z"/>
	<path class="st7" d="M2195.55,298.93L2195.55,298.93c-70.44,0-128.08-57.63-128.08-128.08v0c0-70.44,57.63-128.08,128.08-128.08h0
		c70.44,0,128.08,57.63,128.08,128.08v0C2323.63,241.3,2266,298.93,2195.55,298.93z"/>
	<path class="st8" d="M2591.11,298.93L2591.11,298.93c-70.44,0-128.08-57.63-128.08-128.08v0c0-70.44,57.63-128.08,128.08-128.08h0
		c70.44,0,128.08,57.63,128.08,128.08v0C2719.19,241.3,2661.55,298.93,2591.11,298.93z"/>
	<path class="st9" d="M3382.22,298.93L3382.22,298.93c-70.44,0-128.08-57.63-128.08-128.08v0c0-70.44,57.63-128.08,128.08-128.08h0
		c70.44,0,128.08,57.63,128.08,128.08v0C3510.29,241.3,3452.66,298.93,3382.22,298.93z"/>
	<g>
		<path class="st2" d="M614.5,98.82c9.51,17.95,19.53,35.66,28.36,53.94c5.82,12.04,11.09,24.6,14.55,37.48
			c6.54,24.38-14.38,51.33-39.65,52.57c-23.55,1.16-41.47-11.01-48.04-32.71c-2.75-9.09-1.89-18.14,1.17-26.95
			c10.38-29.82,26.19-56.91,41.87-84.06C613.34,99.01,613.92,98.91,614.5,98.82z M627.61,228.43c-12.42,1.33-23.74-0.65-33.19-9.53
			c-9.35-8.8-12.16-20.01-11.99-32.43c-6.16,12.56-2.62,27.74,8.32,37.69C600.79,233.28,616.9,235.38,627.61,228.43z"/>
		<path class="st10" d="M627.61,228.43c-10.71,6.95-26.82,4.86-36.85-4.27c-10.94-9.95-14.49-25.13-8.32-37.69
			c-0.17,12.41,2.63,23.63,11.99,32.43C603.87,227.78,615.19,229.76,627.61,228.43z"/>
	</g>
	<g>
		<path class="st2" d="M981.19,234.27c0,2.9-0.02,5.79,0.01,8.69c0.02,1.94,0.98,3.07,2.52,3.07c1.55,0.01,2.54-1.12,2.55-3.05
			c0.02-5.79,0.02-11.58,0-17.37c-0.01-1.9-1.01-3.09-2.52-3.1c-1.51-0.01-2.53,1.17-2.55,3.07
			C981.17,228.48,981.19,231.38,981.19,234.27z M1031.55,234.27c0,2.9-0.02,5.79,0.01,8.69c0.02,1.94,0.97,3.07,2.51,3.08
			c1.55,0.01,2.55-1.12,2.56-3.04c0.02-5.79,0.02-11.58,0-17.37c-0.01-1.91-1-3.09-2.52-3.11c-1.51-0.02-2.54,1.18-2.55,3.07
			C1031.53,228.48,1031.55,231.37,1031.55,234.27z"/>
		<path class="st2" d="M929.36,213.74c0.93-2.54,1.91-5.06,2.77-7.63c7.9-23.64,15.78-47.28,23.65-70.92
			c0.47-1.41,1.06-2.68,2.75-2.7c1.7-0.02,2.34,1.24,2.8,2.65c1.55,4.71,3.12,9.41,4.68,14.11c0.94,2.83,1.9,5.67,2.96,8.84
			c1.58-4.74,3.06-9.13,4.52-13.53c2.5-7.49,4.97-14.99,7.53-22.46c0.31-0.9,0.99-1.9,1.78-2.35c1.41-0.81,2.87,0.09,3.51,1.98
			c1.84,5.42,3.64,10.86,5.46,16.29c0.15,0.43,0.3,0.86,0.54,1.55c0.39-1.08,0.73-1.94,1.02-2.81c4.25-12.72,8.49-25.44,12.74-38.16
			c0.08-0.24,0.17-0.49,0.24-0.73c0.4-1.31,1.18-2.21,2.64-2.18c1.38,0.03,2.1,0.9,2.51,2.14c1.41,4.26,2.85,8.51,4.27,12.77
			c3.04,9.1,6.07,18.2,9.11,27.3c0.16,0.48,0.38,0.94,0.67,1.65c1.97-5.9,3.86-11.55,5.75-17.21c0.1-0.29,0.2-0.59,0.3-0.88
			c0.42-1.19,1.19-1.92,2.52-1.91c1.33,0.01,2.09,0.74,2.49,1.94c1.85,5.53,3.71,11.06,5.56,16.59c2.06,6.17,4.13,12.34,6.19,18.5
			c0.13,0.39,0.29,0.76,0.53,1.41c1.44-4.29,2.8-8.34,4.15-12.39c1.18-3.53,2.35-7.05,3.5-10.59c0.45-1.37,1.13-2.54,2.74-2.54
			c1.6,0,2.28,1.17,2.74,2.53c8.7,26.09,17.41,52.17,26.1,78.26c0.91,2.74-0.14,4.19-3.02,4.2c-7.15,0.01-14.29,0-21.44,0
			c-0.56,0-1.11,0-1.84,0c0,0.72,0,1.27,0,1.83c0,7.61,0,15.23,0,22.84c0,0.62,0.02,1.25-0.09,1.86c-0.24,1.29-1.12,2-2.39,2.02
			c-1.34,0.03-2.26-0.7-2.52-2.05c-0.12-0.6-0.08-1.24-0.08-1.86c0-7.56,0-15.12,0-22.68c0-0.56,0-1.13,0-1.82
			c-15.07,0-30.05,0-45.27,0c0,0.5,0,1.05,0,1.6c0,7.66,0,15.33,0,22.99c0,0.62,0.04,1.26-0.09,1.86c-0.28,1.27-1.16,1.97-2.44,1.97
			c-1.28,0-2.16-0.7-2.45-1.96c-0.14-0.6-0.09-1.24-0.09-1.86c-0.01-7.61,0-15.23,0-22.84c0-0.56,0-1.12,0-1.79
			c-15.11,0-30.09,0-45.27,0c0,0.58,0,1.13,0,1.68c0,7.61,0,15.23,0,22.84c0,0.57,0.01,1.14-0.06,1.71
			c-0.17,1.35-1.24,2.32-2.54,2.23c-1.33-0.09-2.23-0.79-2.42-2.18c-0.08-0.56-0.07-1.14-0.07-1.7c0-7.61,0-15.23,0-22.84
			c0-0.56,0-1.11,0-1.84c-0.72,0-1.27,0-1.82,0c-7.15,0-14.29-0.03-21.44,0.02c-1.56,0.01-2.72-0.43-3.4-1.88
			C929.36,214.98,929.36,214.36,929.36,213.74z M1009.1,106.91c-0.12,0-0.24-0.01-0.36-0.01c-11.7,35.05-23.39,70.1-35.14,105.32
			c11.03,0,21.82,0,32.66,0c0.05-0.34,0.12-0.59,0.12-0.83c0.01-4.09,0.03-8.18-0.03-12.27c-0.01-0.54-0.34-1.18-0.73-1.59
			c-3.6-3.86-7.25-7.68-10.88-11.52c-0.6-0.64-1.25-1.27-1.7-2c-0.67-1.09-0.53-2.21,0.42-3.1c0.94-0.88,2.03-1.01,3.11-0.25
			c0.46,0.32,0.87,0.73,1.26,1.13c2.46,2.59,4.91,5.19,7.37,7.78c0.3,0.31,0.64,0.58,1.17,1.07c0-0.92,0-1.53,0-2.14
			c0.01-5.75-0.01-11.5,0.03-17.24c0.01-1.62,1.02-2.58,2.48-2.59c1.47-0.01,2.43,0.93,2.54,2.53c0.03,0.46,0.02,0.93,0.02,1.4
			c0,5.54,0,11.08,0.01,16.62c0,0.43,0.06,0.86,0.12,1.61c2.9-3.11,5.57-5.98,8.26-8.84c0.42-0.45,0.86-0.9,1.35-1.27
			c1.12-0.84,2.26-0.71,3.23,0.23c0.94,0.9,0.99,2.01,0.36,3.12c-0.28,0.49-0.68,0.91-1.07,1.32c-3.78,4.05-7.59,8.08-11.31,12.18
			c-0.52,0.58-0.88,1.52-0.9,2.3c-0.09,3.62-0.04,7.25-0.04,10.87c0,0.49,0.06,0.98,0.09,1.49c10.93,0,21.68,0,32.7,0
			C1032.49,177.02,1020.79,141.96,1009.1,106.91z M956.02,212.26c0-0.72,0-1.28,0-1.84c0-4.2,0-8.39,0-12.59
			c0-2.61,0.83-3.81,2.58-3.78c1.73,0.03,2.51,1.22,2.51,3.86c0,4.2,0,8.39,0,12.59c0,0.55,0,1.11,0,1.83c2,0,3.81-0.06,5.6,0.02
			c1.05,0.05,1.53-0.29,1.87-1.32c1.86-5.74,3.78-11.47,5.74-17.18c0.43-1.24,0.41-2.34-0.01-3.59
			c-4.56-13.55-9.06-27.11-13.58-40.67c-0.66-1.98-1.34-3.94-2.02-5.91c-0.11,0-0.22,0.01-0.33,0.01
			c-7.61,22.81-15.22,45.61-22.88,68.56C942.42,212.26,949.08,212.26,956.02,212.26z M1082.32,212.24
			c-7.66-22.94-15.27-45.75-22.93-68.71c-0.26,0.29-0.36,0.35-0.39,0.44c-5.26,15.76-10.52,31.52-15.76,47.28
			c-0.15,0.46-0.2,1.05-0.05,1.5c2.04,6.23,4.11,12.45,6.22,18.65c0.12,0.36,0.56,0.86,0.87,0.87c2.1,0.08,4.2,0.04,6.45,0.04
			c0-0.79,0-1.35,0-1.91c0-4.3-0.01-8.6,0.01-12.9c0-0.66-0.02-1.4,0.24-1.98c0.52-1.15,1.51-1.67,2.8-1.4
			c1.36,0.29,2.01,1.2,2.01,2.55c0.02,4.61,0.02,9.22,0.02,13.83c0,0.55,0,1.11,0,1.72
			C1068.73,212.24,1075.44,212.24,1082.32,212.24z M977.6,183.89c3.18-9.48,6.2-18.52,9.23-27.56c0.93-2.79,2.58-5.58,2.57-8.36
			c-0.01-2.84-1.63-5.68-2.56-8.52c-0.96-2.91-1.95-5.8-3.06-9.09c-0.32,0.8-0.5,1.2-0.64,1.61c-3.22,9.63-6.27,19.32-9.73,28.85
			c-1.38,3.81-1.52,7.2,0.04,10.95C975.04,175.56,976.14,179.54,977.6,183.89z M1040.14,183.62c0.22-0.33,0.36-0.49,0.42-0.67
			c1.77-5.28,3.55-10.55,5.26-15.86c0.2-0.61,0.07-1.42-0.14-2.07c-3.64-11.01-7.31-22-10.98-33c-0.15-0.45-0.35-0.87-0.67-1.66
			c-1.87,5.62-3.65,10.83-5.31,16.08c-0.27,0.85-0.29,1.93-0.02,2.77c2.06,6.43,4.22,12.82,6.36,19.23
			C1036.72,173.45,1038.41,178.45,1040.14,183.62z"/>
		<path class="st2" d="M981.19,234.27c0-2.9-0.02-5.79,0.01-8.69c0.02-1.9,1.04-3.08,2.55-3.07c1.51,0.01,2.51,1.2,2.52,3.1
			c0.02,5.79,0.02,11.58,0,17.37c-0.01,1.93-0.99,3.06-2.55,3.05c-1.55-0.01-2.5-1.13-2.52-3.07
			C981.17,240.07,981.19,237.17,981.19,234.27z"/>
		<path class="st2" d="M1031.55,234.27c0-2.9-0.02-5.79,0.01-8.69c0.02-1.89,1.04-3.08,2.55-3.07c1.51,0.02,2.51,1.19,2.52,3.11
			c0.02,5.79,0.02,11.58,0,17.37c-0.01,1.93-1.01,3.06-2.56,3.04c-1.55-0.01-2.5-1.14-2.51-3.08
			C1031.53,240.06,1031.55,237.16,1031.55,234.27z"/>
	</g>
	<g>
		<path class="st2" d="M1428.81,155.12c-2.83,2.43-5.62,4.82-8.46,7.25c-4.2-3.6-8.39-7.19-12.61-10.8
			c-4.2,3.6-8.39,7.19-12.61,10.8c-3.3-2.83-6.6-5.64-9.96-8.52c-5.33,9.21-10.64,18.39-15.94,27.55
			c-3.54-3.54-7.06-7.07-10.66-10.68c-0.56,1.04-1.06,1.94-1.54,2.85c-4.87,9.2-9.73,18.4-14.6,27.6
			c-4.29,8.12-8.59,16.24-12.88,24.36c-0.2,0.39-0.44,0.56-0.91,0.56c-2.36-0.03-4.73-0.01-7.09-0.02c-0.11,0-0.22-0.02-0.46-0.04
			c11.88-22.43,23.72-44.8,35.6-67.22c3.66,3.66,7.27,7.28,10.94,10.94c13.53-23.37,27.03-46.68,40.57-70.06
			c0.54,1.02,1.04,1.98,1.54,2.94c2.97,5.73,5.94,11.47,8.91,17.2c4.19,8.08,8.39,16.17,12.59,24.25c0.65,1.25,1.4,2.45,2.04,3.7
			c0.95,1.86,1.82,3.75,2.78,5.61c3.75,7.25,7.52,14.5,11.28,21.75c2.57,4.96,5.15,9.93,7.72,14.89c1.26,2.42,2.51,4.84,3.8,7.32
			c2.37-3.56,4.71-7.07,7.09-10.64c7.3,13.14,14.55,26.2,21.84,39.33c-0.24,0.02-0.4,0.04-0.56,0.04c-2.38,0-4.77-0.01-7.15,0.01
			c-0.39,0-0.61-0.12-0.8-0.46c-4.59-8.28-9.18-16.56-13.78-24.84c-0.02-0.03-0.05-0.05-0.15-0.14c-2.42,3.62-4.83,7.24-7.29,10.91
			C1448.3,192.72,1438.57,173.95,1428.81,155.12z M1420.35,152.86c1.61-1.37,3.21-2.72,4.78-4.09c0.11-0.1,0.16-0.41,0.09-0.55
			c-2.17-4.22-4.36-8.42-6.54-12.63c-3.53-6.81-7.06-13.63-10.58-20.44c-0.06-0.12-0.15-0.24-0.26-0.41
			c-0.4,0.69-0.77,1.32-1.14,1.96c-3.29,5.68-6.59,11.37-9.88,17.05c-2.58,4.46-5.16,8.93-7.76,13.38
			c-0.18,0.31-0.12,0.45,0.13,0.65c0.37,0.29,0.72,0.61,1.08,0.92c1.62,1.38,3.24,2.77,4.88,4.17c4.22-3.61,8.41-7.2,12.61-10.8
			C1411.97,145.68,1416.15,149.26,1420.35,152.86z"/>
	</g>
	<g>
		<path class="st2" d="M1779.77,144.62c0.49-2.25,1.09-4.32,1.87-6.34c4.83-12.48,15.88-21.9,28.97-24.72
			c2.85-0.61,5.72-0.92,8.63-0.92c6.76,0.01,13.52,0.01,20.28,0c1.53,0,2.85,0.49,3.91,1.58c0.85,0.87,1.32,1.87,1.32,3.16
			c-0.02,23.7-0.02,47.4,0,71.1c0,0.82-0.24,1.48-0.75,2.08c-1.04,1.22-2.36,1.92-3.98,1.92c-7.13,0.01-14.26,0.06-21.39-0.01
			c-6.79-0.07-13.18-1.83-19.05-5.23c-9.86-5.71-16.29-14.09-19.2-25.13c-0.12-0.45-0.22-0.91-0.33-1.36
			c-0.02-0.07-0.07-0.13-0.14-0.26c-0.21,0-0.45,0-0.7,0c-5.75,0-11.51-0.02-17.26,0c-9.39,0.03-17.55,6.36-19.63,15.49
			c-1.84,8.09,0.74,14.79,7.13,19.99c3.08,2.51,6.67,3.94,10.63,4.37c1.49,0.16,2.99,0.15,4.49,0.26
			c12.16,0.88,21.65,6.38,28.37,16.54c2.97,4.5,4.66,9.51,5.28,14.87c0.16,1.36,0.22,2.75,0.22,4.12
			c0.02,6.66-0.04,13.33,0.03,19.99c0.04,3.92-2.69,7.12-6.38,7.82c-5.19,0.98-8.76-2.34-9.49-6.14c-0.13-0.67-0.18-1.37-0.18-2.05
			c-0.01-6.32-0.07-12.64,0.01-18.95c0.11-9.17-6.57-17.89-16.47-19.79c-1.17-0.23-2.39-0.32-3.59-0.33
			c-9.94-0.06-18.57-3.43-25.73-10.35c-5.65-5.46-9.14-12.11-10.5-19.86c-0.54-3.09-0.7-6.2-0.39-9.33c0.63-6.27,2.76-12,6.49-17.09
			c5.68-7.74,13.27-12.55,22.64-14.61c2.68-0.59,5.39-0.82,8.12-0.82c5.29,0,10.57,0,15.86,0
			C1779.14,144.62,1779.43,144.62,1779.77,144.62z M1808.28,183.15c0.06,0.02,0.12,0.05,0.18,0.07
			c8.32-12.21,16.65-24.42,25.08-36.8c-2.02-0.01-3.85,0-5.68,0c-1.87,0-3.74,0.01-5.61,0c-1.83-0.01-3.66,0.05-5.58-0.04
			c2.16-7.96,4.3-15.81,6.44-23.72c-0.14,0.04-0.2,0.04-0.22,0.07c-0.1,0.11-0.19,0.23-0.27,0.35
			c-8.2,12.08-16.41,24.15-24.61,36.23c-0.01,0.01,0,0.05,0.01,0.07c0.01,0.02,0.02,0.05,0.05,0.13c5.5,0,11.02,0,16.64,0
			C1812.55,167.44,1810.41,175.29,1808.28,183.15z"/>
		<path class="st2" d="M1848.83,143.29c0-4.94,0-9.78,0-14.68c0.24-0.03,0.45-0.07,0.66-0.07c8.31,0,16.62-0.06,24.93,0.02
			c4.08,0.04,6.66,3.23,7.06,6.31c0.57,4.33-2.49,7.56-5.99,8.29c-0.5,0.11-1.02,0.16-1.53,0.16c-8.11,0.01-16.23,0.01-24.34,0.01
			C1849.38,143.33,1849.15,143.31,1848.83,143.29z"/>
		<path class="st2" d="M1848.84,176.2c0-4.86,0-9.62,0-14.44c0.27-0.02,0.51-0.06,0.75-0.06c6.22-0.05,12.43-0.1,18.65-0.15
			c1.96-0.02,3.93-0.09,5.89-0.1c1.51,0,2.92,0.38,4.17,1.25c2.39,1.69,3.43,3.99,3.2,6.92c-0.22,2.74-2.4,5.64-5.93,6.44
			c-0.59,0.13-1.22,0.18-1.82,0.18c-8.04,0.01-16.07,0.01-24.11,0.01C1849.39,176.24,1849.15,176.22,1848.84,176.2z"/>
	</g>
	<g>
		<path class="st2" d="M2230.37,163.98c0-0.44,0-0.81,0-1.17c0-14.77,0-29.53,0-44.3c0-1.63,0.36-3.11,1.6-4.28
			c0.19-0.18,0.37-0.48,0.37-0.73c0.03-2.14,0.02-4.29,0.02-6.61c-2.19,0.67-4.23,1.26-6.24,1.96c-0.27,0.1-0.46,0.79-0.46,1.21
			c-0.03,5.5-0.06,11,0.01,16.5c0.01,1.12-0.37,1.67-1.31,2.21c-14.76,8.39-33.64,4.03-43.45-10.13c-0.62-0.89-1.13-0.93-2.01-0.62
			c-5.02,1.75-8.57,5.17-11.11,9.74c-0.2,0.35-0.38,0.71-0.74,1.38c-0.03-0.74-0.07-1.17-0.07-1.59c0-5.83-0.02-11.66,0.02-17.5
			c0.01-0.86-0.26-1.21-1.08-1.46c-5.81-1.76-11.6-3.58-17.4-5.38c-0.5-0.16-1-0.33-1.78-0.59c4.74-1.47,9.19-2.84,13.64-4.22
			c11.6-3.59,23.19-7.19,34.81-10.75c0.73-0.22,1.65-0.24,2.38-0.01c15.67,4.81,31.33,9.67,46.99,14.52
			c0.39,0.12,0.78,0.25,1.49,0.48c-2.38,0.74-4.48,1.4-6.58,2.04c-2.53,0.78-2.53,0.77-2.53,3.46c0,0.95,0,1.9,0,2.85
			c0,1.5-0.16,2.96,1.15,4.22c0.61,0.59,0.85,1.82,0.86,2.76c0.05,15.18,0.03,30.36,0.03,45.54c0,0.12-0.03,0.24-0.06,0.46
			C2236.12,163.98,2233.33,163.98,2230.37,163.98z"/>
		<path class="st2" d="M2196.48,197.51c5.77-10,11.46-19.86,17.15-29.72c-5.11,4-10.38,7.64-17.15,7.67
			c-6.82,0.03-12.12-3.59-17.31-7.63c5.68,9.85,11.37,19.71,17.13,29.7c-14.27,0-28.35,0-42.43,0
			c-0.63-13.39,6.25-32.59,22.48-42.05c1.73,1.52,3.33,3.24,5.22,4.52c2.58,1.75,5.28,3.42,8.13,4.67c5.45,2.4,10.82,1.54,16-1.11
			c3.64-1.86,6.83-4.33,9.7-7.24c0.29-0.29,0.56-0.6,0.82-0.88c12.45,5.5,24.45,27.73,22.69,42.06
			C2224.83,197.51,2210.75,197.51,2196.48,197.51z"/>
		<path class="st2" d="M2198.04,236.74c-14.31,0-28.62,0.01-42.93-0.01c-5.25-0.01-9.99-1.55-13.69-5.4
			c-4.69-4.9-5.93-10.76-3.64-17.09c2.32-6.41,7.1-10.08,13.9-11.01c0.98-0.13,1.98-0.15,2.97-0.15c28.95-0.01,57.9-0.01,86.86,0
			c0.58,0,1.17,0,1.72,0.12c1.11,0.25,1.77,1.16,1.71,2.26c-0.06,1.14-0.69,1.84-1.78,2.08c-0.48,0.11-0.98,0.09-1.48,0.09
			c-19.44,0-38.88,0-58.32,0.01c-6.15,0-11.15,3.89-12.39,9.59c-1.69,7.78,4.08,14.94,12.17,14.99c8.19,0.05,16.38,0.01,24.57,0.01
			c11.29,0,22.58,0,33.87,0c0.41,0,0.83-0.02,1.24,0.01c1.23,0.09,2.09,0.98,2.12,2.16c0.03,1.17-0.8,2.15-1.99,2.3
			c-0.41,0.05-0.83,0.03-1.24,0.03C2227.16,236.74,2212.6,236.74,2198.04,236.74z"/>
		<path class="st2" d="M2191.37,266.08c-17.08,0-34.16,0-51.24,0c-0.41,0-0.83,0.02-1.24-0.01c-1.24-0.08-2.11-0.94-2.15-2.13
			c-0.03-1.15,0.81-2.16,1.98-2.33c0.45-0.06,0.91-0.03,1.36-0.03c19.69,0,39.37,0,59.06,0c3.16,0,5.51-1.41,6.86-4.24
			c1.33-2.8,0.94-5.49-1-7.9c-1.59-1.98-3.75-2.72-6.25-2.72c-19.56,0.01-39.12,0.01-58.69,0.01c-0.45,0-0.91,0.03-1.36-0.03
			c-1.12-0.13-1.95-1.08-1.97-2.19c-0.02-1.11,0.79-2.08,1.91-2.25c0.36-0.06,0.74-0.03,1.11-0.03c34.08,0,68.16,0,102.24,0
			c4.03,0,7.7,1.06,10.6,4.01c5.65,5.73,3.67,15.2-3.85,18.55c-2.19,0.97-4.5,1.31-6.89,1.31
			C2225.04,266.08,2208.21,266.08,2191.37,266.08z"/>
		<path class="st2" d="M2212.88,217.32c-9.64,0-19.27,0-28.91,0c-0.37,0-0.75,0.02-1.12-0.02c-1.26-0.14-2.12-1.01-2.15-2.17
			c-0.03-1.14,0.78-2.09,2.01-2.31c0.36-0.07,0.74-0.06,1.11-0.06c19.15,0,38.3,0,57.45,0c0.66,0,1.33,0.02,1.97,0.15
			c1.11,0.24,1.77,1.15,1.7,2.26c-0.07,1.14-0.7,1.83-1.8,2.06c-0.44,0.09-0.9,0.08-1.36,0.08
			C2232.15,217.32,2222.51,217.32,2212.88,217.32z"/>
		<path class="st2" d="M2212.91,222.56c9.76,0,19.52,0,29.28,0c1.75,0,2.71,0.75,2.75,2.14c0.04,1.44-0.99,2.36-2.71,2.36
			c-19.6,0-39.21,0-58.81,0c-1.64,0-2.69-0.89-2.71-2.26c-0.03-1.37,0.98-2.24,2.68-2.24
			C2193.22,222.56,2203.07,222.56,2212.91,222.56z"/>
		<path class="st2" d="M2168.25,256.41c-9.47,0-18.93,0-28.4,0c-0.33,0-0.66,0.01-0.99-0.01c-1.18-0.09-2.02-0.92-2.11-2.05
			c-0.09-1.15,0.72-2.2,1.88-2.4c0.4-0.07,0.82-0.04,1.24-0.04c18.93,0,37.87,0,56.8,0c0.37,0,0.75-0.02,1.11,0.03
			c1.19,0.16,2.01,1.15,1.98,2.31c-0.03,1.18-0.89,2.06-2.13,2.15c-0.33,0.02-0.66,0.01-0.99,0.01
			C2187.19,256.41,2177.72,256.41,2168.25,256.41z"/>
	</g>
	<g>
		<path class="st2" d="M2529.63,155.4c-4.7,3.62-8.41,6.48-12.11,9.35c-1.73,1.34-3.87,2.68-5.15,0.13
			c-0.58-1.16,0.3-4.03,1.45-4.93c24.43-19.17,49-38.14,73.49-57.23c2.7-2.1,4.75-1.92,7.4,0.15
			c24.24,18.91,48.57,37.73,72.88,56.54c2.02,1.56,3.98,3.49,1.79,5.69c-0.82,0.82-4.09,0.11-5.62-0.88
			c-3.77-2.42-7.17-5.41-11.49-8.77c0,2.35,0,3.75,0,5.15c0,19.59,0,39.19-0.01,58.78c0,5.4-0.32,5.73-5.77,5.73
			c-37.12,0.01-74.25-0.05-111.37,0.08c-4.28,0.01-5.62-1.45-5.58-5.66c0.17-19.44,0.08-38.89,0.08-58.34
			C2529.63,159.63,2529.63,158.06,2529.63,155.4z M2646.02,219.02c0-22.49,0.04-44.56-0.11-66.63c-0.01-1.26-1.33-2.82-2.46-3.7
			c-16.57-12.95-33.26-25.75-49.8-38.74c-2.22-1.75-3.49-1.57-5.58,0.07c-16.44,12.88-33.02,25.58-49.4,38.53
			c-1.54,1.22-2.85,3.76-2.87,5.71c-0.21,20.17-0.13,40.34-0.11,60.51c0,1.4,0.18,2.8,0.27,4.18c6,0,11.51,0,17.26,0
			c0-12.87,0.11-25.38-0.06-37.88c-0.05-3.93,1.19-5.66,5.29-5.57c8.09,0.18,16.2,0.18,24.29-0.02c4.12-0.1,5.35,1.63,5.28,5.56
			c-0.19,11.04-0.08,22.08-0.07,33.12c0,1.57,0.14,3.13,0.23,4.88C2607.54,219.02,2626.47,219.02,2646.02,219.02z M2559.71,219.28
			c6.32,0,12.6-0.1,18.87,0.05c2.73,0.07,3.55-0.92,3.51-3.59c-0.14-8.08-0.05-16.17-0.05-24.25c0-3.18,0-6.36,0-9.59
			c-7.8,0-14.94,0-22.32,0C2559.71,194.29,2559.71,206.43,2559.71,219.28z"/>
		<path class="st2" d="M2647.72,286.12c0.36,0,0.72,0,1.09,0c0,0.08,0,0.17,0,0.25c-0.36,0-0.72,0-1.09,0
			C2647.72,286.29,2647.72,286.21,2647.72,286.12z"/>
		<path class="st2" d="M2600.64,181.31c0-3.97,0.04-7.93-0.02-11.9c-0.04-2.73,1.09-4.04,3.93-4.01c7.93,0.07,15.86,0.07,23.79,0
			c3.03-0.03,4.25,1.39,4.24,4.28c-0.03,7.78-0.01,15.57,0,23.35c0,2.87-1.3,4.32-4.28,4.3c-7.78-0.04-15.57-0.04-23.35,0.03
			c-3.2,0.03-4.49-1.48-4.41-4.59c0.1-3.82,0.02-7.64,0.02-11.45C2600.59,181.31,2600.61,181.31,2600.64,181.31z M2626.24,190.91
			c0-6.69,0-12.83,0-19.19c-6.61,0-12.97,0-19.36,0c0,6.57,0,12.81,0,19.19C2613.48,190.91,2619.74,190.91,2626.24,190.91z"/>
	</g>
	<g>
		<path class="st2" d="M2908.19,160.98c-0.16,0-0.32,0-0.48,0c-1.04,0-2.08,0.01-3.12,0c-0.84-0.01-1.4-0.57-1.42-1.41
			c0-0.1,0-0.21,0-0.31c0-13.68,0.02-27.36-0.02-41.04c-0.01-3.11,2.41-5.75,5.74-5.74c13.96,0.03,27.92,0.01,41.88,0.01
			c3.18,0,5.62,2.44,5.62,5.63c0,2.16,0,4.31,0,6.47c0,0.16,0,0.32,0,0.54c0.24,0,0.44,0,0.64,0c5.97,0,11.94,0.01,17.9-0.01
			c0.8,0,1.28,0.32,1.61,1.03c2.03,4.4,4.08,8.78,6.11,13.18c0.15,0.33,0.24,0.73,0.24,1.09c0.01,6.33,0.01,12.67,0.01,19
			c0,1.01-0.53,1.55-1.54,1.55c-1.72,0-3.43,0-5.15,0.01c-0.03,0-0.05,0.02-0.13,0.04c0.27,2.69-0.56,4.98-2.65,6.75
			c-1.47,1.25-3.21,1.81-5.13,1.71c-2.17-0.12-3.98-1.02-5.38-2.7c-1.38-1.66-1.89-3.61-1.65-5.77c-7.04,0-14.04,0-21.08,0
			c0.26,2.62-0.51,4.85-2.47,6.61c-1.47,1.32-3.23,1.92-5.2,1.88c-3.85-0.08-7.8-3.63-7.17-8.49c-0.76,0-1.51,0-2.32,0
			c0.26,2.64-0.51,4.88-2.49,6.64c-1.46,1.3-3.21,1.89-5.17,1.85C2911.62,169.43,2907.53,165.91,2908.19,160.98z M2953.61,150.58
			c0-0.19,0-0.35,0-0.51c0-10.63,0-21.26,0-31.89c0-1.77-1.14-2.91-2.91-2.91c-13.96,0-27.91,0-41.87,0c-1.72,0-2.9,1.17-2.9,2.9
			c0,10.64,0,21.29,0,31.93c0,0.15,0,0.31,0,0.47C2921.84,150.58,2937.69,150.58,2953.61,150.58z M2980.16,150.57
			c0-0.2,0-0.36,0-0.52c0-3.02,0.01-6.04-0.01-9.06c0-0.3-0.07-0.61-0.19-0.88c-1.82-3.94-3.67-7.88-5.49-11.82
			c-0.15-0.32-0.31-0.41-0.65-0.41c-5.64,0.01-11.29,0.01-16.93,0.01c-0.16,0-0.31,0-0.47,0c0,7.59,0,15.13,0,22.69
			C2964.33,150.57,2972.21,150.57,2980.16,150.57z M2941.62,153.4c-11.91,0-23.78,0-35.67,0c0,1.6,0,3.18,0,4.81
			c0.96,0,1.89-0.02,2.83,0.01c0.33,0.01,0.52-0.1,0.71-0.38c1.49-2.12,3.55-3.26,6.14-3.26c2.59,0,4.65,1.13,6.15,3.25
			c0.2,0.29,0.41,0.39,0.75,0.38c1.14-0.02,2.29-0.02,3.43,0c0.32,0.01,0.49-0.1,0.67-0.36c1.5-2.14,3.57-3.28,6.18-3.28
			c2.61,0,4.67,1.16,6.18,3.29c0.09,0.12,0.21,0.31,0.33,0.31c0.77,0.03,1.54,0.01,2.31,0.01
			C2941.62,156.56,2941.62,155,2941.62,153.4z M2956.43,153.4c0,1.63,0,3.2,0,4.79c0.09,0.01,0.15,0.02,0.21,0.02
			c1.79,0,3.58,0.01,5.37-0.01c0.16,0,0.37-0.15,0.47-0.29c3.09-4.45,9.33-4.45,12.41,0c0.15,0.21,0.29,0.31,0.56,0.31
			c1.44-0.01,2.87-0.01,4.31-0.01c0.13,0,0.25-0.02,0.37-0.03c0-1.62,0-3.19,0-4.78C2972.21,153.4,2964.33,153.4,2956.43,153.4z
			 M2932.79,166.71c2.57,0,4.69-2.09,4.7-4.65c0.01-2.58-2.1-4.7-4.68-4.71c-2.58,0-4.73,2.14-4.71,4.69
			C2928.11,164.6,2930.23,166.71,2932.79,166.71z M2968.69,166.71c2.57-0.01,4.68-2.11,4.69-4.67c0.01-2.58-2.14-4.71-4.75-4.69
			c-2.55,0.01-4.65,2.14-4.64,4.71C2964,164.61,2966.13,166.72,2968.69,166.71z M2915.65,166.71c2.57-0.01,4.68-2.11,4.68-4.67
			c0.01-2.57-2.12-4.69-4.71-4.69c-2.56,0-4.68,2.12-4.68,4.67C2910.94,164.6,2913.07,166.72,2915.65,166.71z M2944.46,158.17
			c3.07,0,6.1,0,9.12,0c0-1.61,0-3.19,0-4.77c-3.06,0-6.08,0-9.12,0C2944.46,155.01,2944.46,156.57,2944.46,158.17z"/>
		<path class="st2" d="M2929.71,122.8c6.57,0,13.14,0,19.7,0c0.18,0,0.35-0.01,0.53,0c0.74,0.06,1.29,0.63,1.31,1.35
			c0.02,0.74-0.52,1.34-1.28,1.42c-0.13,0.01-0.26,0.01-0.4,0.01c-13.25,0-26.51,0-39.76,0c-0.91,0-1.52-0.44-1.62-1.16
			c-0.12-0.84,0.43-1.54,1.28-1.62c0.12-0.01,0.23,0,0.35,0C2916.46,122.8,2923.08,122.8,2929.71,122.8z"/>
		<path class="st2" d="M2929.7,141.53c6.67,0,13.34,0,20.01,0c0.94,0,1.56,0.58,1.54,1.42c-0.02,0.71-0.52,1.25-1.26,1.34
			c-0.17,0.02-0.35,0.02-0.53,0.02c-13.17,0-26.33,0-39.5,0c-0.23,0-0.47-0.01-0.7-0.05c-0.71-0.15-1.13-0.74-1.07-1.49
			c0.05-0.65,0.6-1.18,1.27-1.24c0.13-0.01,0.26,0,0.4,0C2916.47,141.53,2923.09,141.53,2929.7,141.53z"/>
		<path class="st2" d="M2967.92,140.63c-2.55,0-5.1,0-7.65,0c-1.1,0-1.64-0.54-1.64-1.65c0-2.32,0-4.63,0-6.95
			c0-1.09,0.52-1.62,1.61-1.62c4.09,0,8.18,0.01,12.26-0.01c0.78,0,1.26,0.33,1.56,1.03c0.98,2.36,1.98,4.72,2.96,7.08
			c0.49,1.17-0.14,2.1-1.41,2.1C2973.04,140.63,2970.48,140.63,2967.92,140.63z M2973.69,137.83c-0.06-0.17-0.1-0.29-0.15-0.41
			c-0.54-1.28-1.08-2.56-1.6-3.85c-0.12-0.3-0.27-0.41-0.6-0.41c-3.15,0.01-6.3,0.01-9.45,0.01c-0.14,0-0.29,0-0.45,0
			c0,1.57,0,3.1,0,4.65C2965.51,137.83,2969.57,137.83,2973.69,137.83z"/>
		<path class="st2" d="M2963.53,145.47c-1.13,0-2.25,0-3.38,0c-0.9,0-1.53-0.58-1.53-1.4c0-0.78,0.64-1.38,1.51-1.38
			c1.64-0.01,3.28,0,4.92,0c0.61,0,1.23-0.01,1.84,0c0.92,0.02,1.52,0.58,1.51,1.41c-0.01,0.83-0.61,1.37-1.54,1.37
			C2965.76,145.47,2964.65,145.47,2963.53,145.47z"/>
	</g>
	<g>
		<path class="st2" d="M3028.99,117.78c1.24,0.53,2.44,1.06,3.64,1.57c0.47,0.2,0.95,0.39,1.41,0.61c0.24,0.11,0.4,0.08,0.59-0.1
			c0.8-0.7,1.69-1.27,2.72-1.57c0.3-0.09,0.62-0.15,0.94-0.17c1.56-0.09,2.53,0.96,2.29,2.51c-0.1,0.65-0.35,1.28-0.55,1.99
			c0.78,0.34,1.66,0.65,2.46,1.1c0.79,0.44,1.29,0.32,1.95-0.32c3.12-3.02,6.31-5.96,9.82-8.53c1.41-1.03,2.85-2.02,4.5-2.65
			c0.49-0.19,1.01-0.34,1.53-0.4c2.61-0.3,4.38,1.78,3.75,4.4c-0.3,1.23-0.89,2.33-1.56,3.39c-1.93,3.06-4.29,5.78-6.71,8.45
			c-1.23,1.35-2.48,2.68-3.74,4.01c-0.21,0.22-0.25,0.39-0.12,0.66c0.47,1.04,0.92,2.1,1.37,3.12c0.62-0.23,1.17-0.5,1.75-0.64
			c1.68-0.4,2.85,0.8,2.46,2.49c-0.28,1.19-0.99,2.13-1.74,3.06c-0.11,0.14-0.18,0.42-0.12,0.57c0.77,1.79,1.57,3.57,2.37,5.36
			c0.03,0.07,0.08,0.13,0.11,0.19c0.49-0.17,0.95-0.37,1.42-0.47c1.89-0.42,3.08,0.84,2.58,2.72c-0.27,1.03-0.82,1.91-1.5,2.71
			c-0.21,0.25-0.22,0.44-0.09,0.72c1.02,2.33,2.02,4.67,3.03,7c0.5,1.15,0.28,2.16-0.54,3.06c-0.45,0.5-0.94,0.97-1.42,1.43
			c-1.31,1.23-3.09,1.05-4.17-0.39c-5.19-6.92-10.39-13.83-15.59-20.74c-0.06-0.08-0.12-0.15-0.22-0.28
			c-0.21,0.2-0.4,0.38-0.59,0.56c-3.47,3.37-7.02,6.66-10.84,9.64c-1.01,0.79-2.07,1.51-3.13,2.22c-0.37,0.25-0.52,0.51-0.45,0.95
			c0.43,2.98,0.84,5.96,1.28,8.94c0.09,0.59-0.07,1.09-0.47,1.5c-0.82,0.85-1.65,1.71-2.52,2.51c-1.02,0.95-2.45,0.59-2.97-0.71
			c-1.17-2.94-2.33-5.89-3.49-8.84c-0.04-0.1-0.09-0.2-0.19-0.43c-0.39,0.41-0.73,0.79-1.08,1.15c-0.49,0.49-1.07,0.53-1.49,0.13
			c-0.44-0.42-0.4-1.01,0.1-1.52c0.34-0.34,0.67-0.68,1.01-1.03c0.02-0.02,0.02-0.06,0.03-0.14c-0.73-0.3-1.46-0.6-2.2-0.89
			c-2.39-0.96-4.78-1.92-7.17-2.89c-1.04-0.42-1.56-1.5-1.21-2.5c0.1-0.28,0.28-0.54,0.48-0.76c0.66-0.7,1.37-1.35,2.03-2.05
			c0.53-0.57,1.17-0.75,1.91-0.63c2.2,0.34,4.4,0.68,6.6,1.01c0.9,0.14,1.8,0.28,2.71,0.42c0.31,0.05,0.56,0.01,0.75-0.28
			c2.99-4.55,6.7-8.49,10.39-12.45c0.7-0.75,1.42-1.48,2.15-2.24c-0.11-0.1-0.2-0.19-0.29-0.26c-7-5.27-13.99-10.54-20.99-15.81
			c-1.52-1.15-1.68-3.17-0.35-4.52c0.28-0.29,0.57-0.57,0.85-0.85c1.12-1.12,2.25-1.33,3.71-0.68c2.36,1.04,4.71,2.08,7.06,3.14
			c0.36,0.16,0.61,0.16,0.93-0.11c0.8-0.68,1.7-1.21,2.73-1.45c1.8-0.42,3.03,0.81,2.61,2.6c-0.07,0.29-0.18,0.58-0.29,0.86
			C3029.18,117.39,3029.1,117.55,3028.99,117.78z M3027.71,115.76c-0.05-0.05-0.11-0.09-0.16-0.14c-0.28,0.1-0.59,0.15-0.84,0.3
			c-0.62,0.39-1.24,0.8-1.8,1.26c-0.53,0.44-1.05,0.56-1.68,0.27c-0.89-0.41-1.78-0.79-2.68-1.19c-1.74-0.77-3.48-1.55-5.22-2.31
			c-0.66-0.29-0.91-0.24-1.41,0.26c-0.31,0.31-0.61,0.61-0.92,0.92c-0.43,0.45-0.41,1.01,0.05,1.43c0.09,0.09,0.2,0.16,0.31,0.23
			c7.07,5.33,14.15,10.66,21.22,15.99c1.08,0.81,1.13,1.83,0.19,2.81c-1.61,1.69-3.25,3.37-4.82,5.1c-2.73,3.02-5.44,6.05-7.66,9.48
			c-0.56,0.87-1.43,1.21-2.46,1.05c-3.09-0.46-6.17-0.94-9.26-1.4c-0.12-0.02-0.3-0.05-0.36,0.01c-0.68,0.66-1.35,1.35-2.07,2.08
			c0.24,0.11,0.41,0.19,0.58,0.26c3.22,1.3,6.44,2.6,9.66,3.89c0.71,0.28,1.16,0.74,1.43,1.44c1.22,3.13,2.46,6.25,3.7,9.38
			c0.06,0.14,0.12,0.27,0.23,0.51c0.73-0.75,1.39-1.41,2.03-2.1c0.09-0.1,0.1-0.32,0.08-0.48c-0.39-2.87-0.79-5.74-1.21-8.61
			c-0.17-1.2,0.25-2.08,1.25-2.74c1.03-0.68,2.05-1.38,3.02-2.13c4.02-3.14,7.74-6.62,11.38-10.18c1-0.97,2-0.89,2.84,0.22
			c5.28,7.03,10.56,14.06,15.85,21.08c0.42,0.55,0.81,0.58,1.31,0.1c0.37-0.36,0.73-0.72,1.09-1.09c0.54-0.55,0.56-0.65,0.26-1.34
			c-1.07-2.47-2.12-4.94-3.21-7.4c-0.29-0.65-0.17-1.17,0.27-1.72c0.5-0.62,0.92-1.3,1.35-1.97c0.12-0.2,0.14-0.46,0.21-0.69
			c-0.05-0.04-0.09-0.09-0.14-0.13c-0.48,0.23-0.98,0.43-1.44,0.69c-0.96,0.56-1.72,0.34-2.17-0.68c-0.21-0.47-0.42-0.94-0.62-1.4
			c-0.77-1.73-1.53-3.45-2.3-5.18c-0.3-0.68-0.22-1.26,0.32-1.84c0.56-0.61,1-1.32,1.47-2c0.12-0.17,0.14-0.4,0.21-0.6
			c-0.04-0.04-0.08-0.09-0.13-0.13c-0.51,0.27-1.04,0.51-1.53,0.82c-1,0.64-1.75,0.43-2.22-0.66c-0.61-1.39-1.21-2.79-1.82-4.18
			c-0.37-0.86-0.29-1.24,0.35-1.95c2.33-2.56,4.69-5.09,6.96-7.69c1.61-1.84,3.13-3.78,4.25-5.98c0.33-0.65,0.59-1.36,0.71-2.07
			c0.17-1.05-0.58-1.77-1.62-1.55c-0.8,0.17-1.6,0.48-2.32,0.87c-2.45,1.33-4.6,3.08-6.68,4.92c-2.29,2.02-4.52,4.12-6.77,6.19
			c-0.44,0.4-0.91,0.64-1.48,0.41c-1.65-0.69-3.3-1.4-4.93-2.15c-0.74-0.34-0.91-1.17-0.5-1.89c0.26-0.46,0.49-0.93,0.69-1.41
			c0.08-0.19,0.06-0.42,0.09-0.72c-0.36,0.09-0.65,0.09-0.87,0.22c-0.76,0.46-1.54,0.92-2.22,1.48c-0.65,0.54-0.9,0.66-1.67,0.33
			c-2.06-0.89-4.11-1.77-6.17-2.66c-1.1-0.47-1.3-1.18-0.69-2.22C3027.3,116.72,3027.49,116.23,3027.71,115.76z"/>
	</g>
	<g>
		<path class="st2" d="M2917.15,227.46c0,0.55,0.02,1.12-0.01,1.69c-0.04,0.89-0.7,1.4-1.44,1.14c-0.52-0.18-0.74-0.57-0.75-1.1
			c-0.01-0.55-0.01-1.11-0.02-1.66c0-0.03-0.03-0.07-0.09-0.19c-0.31,0-0.67,0-1.02,0c-1.2,0-2.41,0.02-3.61-0.01
			c-0.48-0.01-0.65,0.16-0.61,0.63c0.03,0.42,0.02,0.84,0.01,1.26c-0.02,0.68-0.49,1.16-1.1,1.15c-0.6-0.01-1.03-0.46-1.05-1.13
			c-0.01-0.42-0.03-0.84,0.01-1.26c0.04-0.52-0.18-0.66-0.67-0.65c-0.97,0.02-1.95,0.02-2.92-0.02c-0.58-0.03-0.98-0.52-0.96-1.08
			c0.02-0.56,0.45-1,1.03-1.04c0.17-0.01,0.34-0.01,0.52-0.01c2.16,0,4.32,0,6.48,0c0.17,0,0.34,0,0.63,0
			c-1.45-2.3-1.48-4.55-0.01-6.86c-0.28-0.02-0.48-0.04-0.68-0.04c-0.76-0.01-1.53,0.01-2.29-0.01c-0.7-0.01-1.05-0.31-1.1-0.98
			c-0.03-0.41-0.19-0.54-0.57-0.51c-0.29,0.02-0.57,0.02-0.86,0c-0.57-0.03-1.04-0.04-1.05,0.78c-0.01,0.49-0.51,0.74-1.08,0.71
			c-0.53-0.03-0.97-0.38-0.99-0.93c-0.04-1.09-0.04-2.18,0.01-3.27c0.03-0.6,0.51-0.96,1.09-0.95c0.58,0.01,0.99,0.38,1.02,1.01
			c0.02,0.41,0.19,0.53,0.57,0.5c0.4-0.03,0.81-0.04,1.2,0c0.52,0.06,0.65-0.17,0.64-0.65c-0.02-2.41-0.01-4.82-0.01-7.23
			c0-6.44,0-12.89,0-19.33c0-1.11,0.35-1.47,1.48-1.47c19.83,0,39.66,0,59.48,0c1.13,0,1.48,0.35,1.48,1.46c0,8.8,0,17.59,0,26.39
			c0,0.82,0,0.82,0.8,0.82c0.19,0,0.38-0.01,0.57,0c0.58,0.04,1.08,0.08,1.08-0.78c0-0.44,0.45-0.69,0.91-0.72
			c0.48-0.04,0.86,0.16,1.07,0.61c0.06,0.14,0.1,0.29,0.11,0.44c0.01,1.01,0.03,2.03,0,3.04c-0.02,0.64-0.45,1.04-1.06,1.05
			c-0.65,0.01-1.02-0.3-1.08-0.99c-0.03-0.37-0.16-0.51-0.53-0.5c-0.32,0.02-0.65,0.02-0.97,0c-0.55-0.04-0.94,0-0.97,0.73
			c-0.02,0.51-0.47,0.75-0.99,0.76c-0.78,0-1.57,0-2.35,0.01c-0.2,0-0.4,0.02-0.68,0.04c1.44,2.29,1.46,4.52,0,6.83
			c0.27,0.01,0.47,0.03,0.66,0.03c2.28,0,4.55,0,6.83,0.01c0.6,0,1.01,0.33,1.13,0.86c0.1,0.47-0.14,0.99-0.61,1.17
			c-0.22,0.09-0.48,0.11-0.72,0.11c-0.86,0.01-1.72,0.03-2.58,0c-0.49-0.02-0.65,0.17-0.62,0.64c0.03,0.44,0.02,0.88,0,1.32
			c-0.03,0.63-0.46,1.06-1.04,1.08c-0.59,0.02-1.08-0.44-1.11-1.08c-0.02-0.48-0.02-0.96,0-1.43c0.02-0.36-0.1-0.52-0.48-0.52
			c-1.47,0.01-2.94,0.01-4.42,0c-0.34,0-0.48,0.13-0.47,0.47c0.02,0.48,0.02,0.96,0,1.43c-0.02,0.63-0.43,1.06-1.02,1.11
			c-0.56,0.05-1.06-0.34-1.14-0.97c-0.06-0.53-0.05-1.07-0.04-1.6c0.01-0.32-0.12-0.45-0.44-0.44c-1.51,0.01-3.02-0.01-4.53,0.02
			c-0.13,0-0.36,0.25-0.38,0.41c-0.05,0.49-0.01,0.99-0.02,1.49c-0.02,0.65-0.48,1.11-1.07,1.11c-0.61-0.01-1.04-0.46-1.05-1.11
			c-0.01-0.48-0.02-0.96,0-1.43c0.01-0.35-0.13-0.48-0.47-0.47c-1.47,0.01-2.94,0.01-4.42,0c-0.36,0-0.52,0.13-0.51,0.5
			c0.01,0.48,0.01,0.96-0.01,1.43c-0.03,0.66-0.49,1.12-1.08,1.1c-0.61-0.02-1.05-0.48-1.07-1.12c-0.01-0.5-0.01-0.99,0-1.49
			c0.01-0.29-0.12-0.42-0.4-0.41c-1.51,0-3.02,0-4.53,0c-0.32,0-0.44,0.14-0.43,0.45c0.02,0.46,0.02,0.92,0,1.38
			c-0.02,0.72-0.5,1.22-1.12,1.2c-0.61-0.02-1.05-0.5-1.07-1.19c-0.01-0.46-0.01-0.92,0-1.38c0.01-0.31-0.09-0.46-0.42-0.46
			c-1.51,0-3.02,0.01-4.53,0c-0.33,0-0.42,0.16-0.41,0.46c0.01,0.48,0.01,0.96,0,1.43c-0.02,0.65-0.45,1.1-1.06,1.13
			c-0.59,0.03-1.05-0.43-1.09-1.09c-0.02-0.5-0.02-0.99-0.01-1.49c0-0.31-0.13-0.45-0.44-0.45c-1.51,0.01-3.02,0.01-4.53,0
			c-0.33,0-0.43,0.16-0.42,0.46c0.01,0.5,0.01,0.99,0,1.49c-0.02,0.62-0.45,1.05-1.04,1.07c-0.58,0.01-1.05-0.43-1.08-1.04
			c-0.02-0.52,0.02-1.03-0.02-1.55c-0.01-0.15-0.2-0.41-0.31-0.41c-1.6-0.02-3.21,0-4.82,0.01
			C2917.31,227.37,2917.26,227.41,2917.15,227.46z M2909.6,188.19c0,0.29,0,0.5,0,0.7c0,8.83,0.01,17.67-0.01,26.5
			c0,0.59,0.16,0.73,0.73,0.73c18.89-0.02,37.79-0.02,56.68,0c0.58,0,0.73-0.14,0.73-0.73c-0.02-8.83-0.01-17.67-0.01-26.5
			c0-0.22,0-0.45,0-0.7C2948.32,188.19,2929,188.19,2909.6,188.19z M2947.71,218.33c-6.07,0-12.04,0-18.11,0
			c1.48,2.3,1.45,4.54,0.02,6.79c6.06,0,12.04,0,18.09,0C2946.25,222.85,2946.26,220.62,2947.71,218.33z M2916.02,225.18
			c1.89,0.01,3.47-1.57,3.47-3.46c0-1.84-1.6-3.44-3.44-3.44c-1.84,0.01-3.43,1.59-3.44,3.44
			C2912.58,223.57,2914.17,225.17,2916.02,225.18z M2961.25,225.18c1.85,0.01,3.45-1.56,3.47-3.41c0.01-1.87-1.59-3.49-3.46-3.48
			c-1.84,0-3.43,1.6-3.43,3.45C2957.83,223.6,2959.39,225.17,2961.25,225.18z M2925.07,225.18c1.85,0.01,3.45-1.57,3.47-3.41
			c0.01-1.87-1.59-3.48-3.46-3.48c-1.85,0-3.43,1.6-3.43,3.45C2921.65,223.6,2923.22,225.17,2925.07,225.18z M2952.19,225.18
			c1.86,0.02,3.44-1.54,3.47-3.4c0.03-1.88-1.56-3.49-3.44-3.5c-1.84-0.01-3.42,1.57-3.45,3.43
			C2948.75,223.55,2950.34,225.16,2952.19,225.18z"/>
		<path class="st2" d="M2937.56,202.15c0-2.89,0-5.77,0-8.66c0-0.26,0.01-0.54,0.1-0.79c0.15-0.44,0.49-0.66,0.96-0.67
			c0.49-0.01,0.86,0.21,1.03,0.66c0.09,0.24,0.1,0.52,0.1,0.79c0,5.74,0,11.47,0,17.21c0,0.17,0.01,0.35-0.01,0.52
			c-0.06,0.66-0.51,1.08-1.12,1.07c-0.59-0.01-1-0.42-1.07-1.06c-0.02-0.17-0.01-0.34-0.01-0.52
			C2937.56,207.84,2937.56,204.99,2937.56,202.15z"/>
		<path class="st2" d="M2931.56,202.15c0-3,0-6,0-9c0-0.69,0.4-1.11,1.03-1.13c0.65-0.02,1.09,0.41,1.12,1.11
			c0.01,0.19,0,0.38,0,0.57c0,3.88,0,7.76,0,11.64c0,1.93,0,3.86,0,5.79c0,0.57-0.27,0.96-0.81,1.1c-0.49,0.13-0.93-0.04-1.18-0.49
			c-0.12-0.22-0.15-0.51-0.15-0.77C2931.55,208.04,2931.56,205.09,2931.56,202.15z"/>
		<path class="st2" d="M2945.76,202.14c0,2.94,0,5.89,0,8.83c0,0.82-0.37,1.28-1.04,1.3c-0.7,0.02-1.11-0.45-1.11-1.3
			c0-5.89,0-11.77-0.01-17.66c0-0.49,0.08-0.97,0.57-1.14c0.32-0.11,0.76-0.1,1.08,0.02c0.43,0.16,0.51,0.61,0.51,1.06
			C2945.75,196.22,2945.76,199.18,2945.76,202.14z"/>
		<path class="st2" d="M2921.65,202.15c0,2.96,0,5.92,0,8.89c0,0.95-0.79,1.54-1.54,1.1c-0.26-0.15-0.43-0.49-0.57-0.78
			c-0.08-0.17-0.04-0.41-0.04-0.62c0-5.7,0-11.39,0-17.09c0-0.25,0-0.5,0.03-0.74c0.08-0.54,0.53-0.89,1.09-0.88
			c0.53,0.02,0.96,0.38,1.02,0.9c0.03,0.21,0.01,0.42,0.01,0.63C2921.65,196.42,2921.65,199.28,2921.65,202.15z"/>
		<path class="st2" d="M2955.67,202.13c0-2.98,0-5.96,0-8.94c0-0.76,0.47-1.21,1.17-1.16c0.5,0.03,0.9,0.39,0.96,0.89
			c0.03,0.25,0.03,0.5,0.03,0.74c0,5.68,0,11.35,0,17.03c0,0.19,0,0.38-0.02,0.57c-0.06,0.63-0.5,1.03-1.1,1
			c-0.6-0.02-1.02-0.44-1.04-1.08c-0.02-0.84-0.01-1.68-0.01-2.52C2955.67,206.49,2955.67,204.31,2955.67,202.13z"/>
		<path class="st2" d="M2915.6,202.15c0,2.92,0,5.85-0.01,8.77c0,0.28-0.03,0.59-0.15,0.83c-0.22,0.43-0.64,0.6-1.12,0.5
			c-0.48-0.1-0.77-0.41-0.87-0.89c-0.03-0.15-0.02-0.3-0.02-0.46c0-5.85,0-11.7,0-17.54c0-0.15,0-0.31,0.02-0.46
			c0.11-0.58,0.56-0.92,1.16-0.88c0.56,0.04,0.95,0.41,0.97,1.01c0.03,0.84,0.01,1.68,0.01,2.52
			C2915.61,197.75,2915.6,199.95,2915.6,202.15z"/>
		<path class="st2" d="M2927.65,202.14c0,2.92,0,5.85-0.01,8.77c0,0.28,0.02,0.65-0.14,0.81c-0.26,0.26-0.67,0.52-0.99,0.5
			c-0.32-0.03-0.66-0.37-0.9-0.65c-0.13-0.16-0.1-0.47-0.1-0.72c0-5.81,0-11.62,0-17.43c0-0.13-0.01-0.27,0-0.4
			c0.06-0.62,0.5-1.02,1.11-1.01c0.61,0.01,1.02,0.42,1.02,1.06c0.01,1.59,0.01,3.17,0.01,4.76
			C2927.65,199.27,2927.65,200.71,2927.65,202.14z"/>
		<path class="st2" d="M2961.71,202.08c0-2.94,0-5.89,0-8.83c0-0.77,0.35-1.19,0.98-1.23c0.59-0.03,1.05,0.31,1.15,0.89
			c0.03,0.19,0.03,0.38,0.03,0.57c0,5.75,0,11.5,0,17.26c0,0.17,0.01,0.35-0.01,0.52c-0.06,0.61-0.52,1.02-1.11,1.01
			c-0.58-0.01-1.03-0.44-1.03-1.07c-0.02-1.39-0.01-2.79-0.01-4.19C2961.71,205.37,2961.71,203.73,2961.71,202.08z"/>
		<path class="st2" d="M2949.66,202.14c0-2.94,0-5.89,0-8.83c0-0.84,0.35-1.27,1.03-1.29c0.7-0.01,1.11,0.45,1.11,1.29
			c0,5.89,0,11.77,0,17.66c0,0.49-0.08,0.97-0.58,1.14c-0.32,0.11-0.75,0.09-1.08-0.03c-0.45-0.16-0.5-0.62-0.49-1.06
			C2949.67,208.06,2949.66,205.1,2949.66,202.14z"/>
	</g>
	<g>
		<path class="st2" d="M3078.8,221.93c0.73,1.96,1.31,3.53,2.1,5.65c-1.74,0-2.7,0-3.66,0c-24.51,0-49.02-0.02-73.53,0.05
			c-1.94,0.01-3.12-0.57-4.15-2.18c-1.89-2.94-4.01-5.73-5.96-8.64c-0.58-0.87-1.18-1.89-1.29-2.89c-0.15-1.35,0.11-2.66,2.11-2.64
			c7,0.06,14.01,0.01,21.01,0.05c0.57,0,1.38,0.21,1.65,0.61c1.58,2.32,3.89,2.1,6.24,2.1c12.57-0.03,25.14-0.13,37.71,0.05
			c3.83,0.06,7.12-0.75,10.35-2.78c4.93-3.1,9.46-3.67,15.88-2.49C3084.34,213.33,3081.5,217.75,3078.8,221.93z"/>
		<path class="st2" d="M2997.67,208.39c0-7.24,0-14.37,0-21.76c2,0,3.85,0,5.57,0c1.5-4.16,5.59-3.51,8.58-5.64
			c0.09,2.09,0.17,3.72,0.24,5.44c1,0.09,1.86,0.17,2.91,0.27c0,0.92,0,1.75,0,2.82c-4.72,0-9.36,0-13.98,0
			c-0.89,1.98-0.27,2.59,1.58,2.56c4.11-0.06,8.23-0.02,12.47-0.02c0,1.08,0,1.86,0,2.76c-0.98,0.14-1.91,0.28-3.02,0.44
			c0,4.33,0,8.62,0,13.12C3007.14,208.39,3002.46,208.39,2997.67,208.39z"/>
		<path class="st2" d="M3021.87,194.07c4.92,0,9.21,0,13.67,0c0,2.38,0,4.67,0,7.34c-4.15,0-8.32,0.03-12.5-0.05
			c-0.4-0.01-1.09-0.72-1.12-1.13C3021.8,198.2,3021.87,196.17,3021.87,194.07z"/>
		<path class="st2" d="M3038.54,194.12c4.56,0,8.99,0,13.61,0c0,2.32,0,4.59,0,7.1c-4.49,0-8.98,0-13.61,0
			C3038.54,198.83,3038.54,196.55,3038.54,194.12z"/>
		<path class="st2" d="M3035.53,211.28c-4.51,0-8.88,0-13.66,0c0-2.1-0.08-4.12,0.06-6.13c0.03-0.44,0.87-1.16,1.35-1.17
			c4.02-0.09,8.04-0.05,12.25-0.05C3035.53,206.41,3035.53,208.69,3035.53,211.28z"/>
		<path class="st2" d="M3038.58,204.1c4.65,0,9.07,0,13.63,0c0,2.39,0,4.59,0,7.04c-4.48,0-8.97,0-13.63,0
			C3038.58,208.88,3038.58,206.6,3038.58,204.1z"/>
		<path class="st2" d="M3068.56,201.3c-4.56,0-8.89,0-13.42,0c0-2.41,0-4.68,0-7.14c4.41,0,8.82,0,13.42,0
			C3068.56,196.46,3068.56,198.73,3068.56,201.3z"/>
		<path class="st2" d="M3055.07,211.39c0-2.67,0-4.89,0-7.29c4.55,0,8.96,0,13.36,0c1.08,5.98,0.04,7.29-5.69,7.29
			C3060.25,211.39,3057.76,211.39,3055.07,211.39z"/>
	</g>
	<g>
		<path class="st2" d="M3386.69,150.14c-15.49-0.07-27.94,12.28-27.99,27.76c-0.05,15.13,12.42,27.7,27.55,27.77
			c15.3,0.07,27.88-12.31,27.95-27.49C3414.28,162.7,3402.01,150.21,3386.69,150.14z"/>
		<path class="st2" d="M3455.43,138.55c-0.5-1.7-1.02-3.49-1.99-4.94c-2.39-3.58-6.15-4.17-10.14-4.15
			c-9.74,0.05-19.48,0-29.22,0.04c-0.99,0-1.53-0.32-1.96-1.21c-1.61-3.36-3.35-6.65-4.93-10.02c-0.85-1.8-2.09-2.66-4.1-2.65
			c-11.13,0.03-22.25,0.03-33.38,0c-1.95,0-3.15,0.86-3.97,2.6c-1.61,3.41-3.32,6.78-5.05,10.13c-0.25,0.48-0.87,1.05-1.34,1.07
			c-2.44,0.11-4.89,0.05-7.61,0.05c0-3.45,0.03-6.69-0.01-9.92c-0.03-2.69-1.25-3.9-3.93-3.91c-6.49-0.02-12.98-0.01-19.47,0
			c-2.49,0.01-3.97,1.41-4.03,3.91c-0.08,3.08-0.03,6.17-0.12,9.25c-0.02,0.52-0.34,1.28-0.75,1.49c-4.29,2.22-6.13,5.71-6.11,10.5
			c0.06,24.65,0.03,49.3,0.03,73.95c0,0.74,0.05,1.49,0.08,2.23c0.15,4.5,4.62,9.17,9.75,9.14c7.08-0.04,14.15,0.1,21.23,0.09
			c32.32-0.02,64.63-0.08,96.95-0.08c3.48,0,6.08-1.56,8.2-4.07c2.08-2.45,2.02-5.52,2.03-8.48c0.02-24.01,0-48.02-0.01-72.03
			C3455.57,140.56,3455.71,139.49,3455.43,138.55z M3344.91,129.38c-4.61,0-9.16,0-13.9,0c0-2.09-0.04-4.15,0.04-6.21
			c0.01-0.27,0.6-0.73,0.93-0.74c4.24-0.05,8.49-0.03,12.93-0.03C3344.91,124.86,3344.91,127.07,3344.91,129.38z M3386.92,212.44
			c-19.54,0.05-34.95-15.22-34.98-34.65c-0.03-18.96,15.41-34.31,34.37-34.43c19-0.12,34.82,15.45,34.65,34.62
			C3421.03,196.73,3405.56,212.39,3386.92,212.44z M3441.73,160.33c-0.01,2.31-1.35,3.59-3.7,3.6c-2.18,0.01-4.36,0-6.54,0
			c0,0,0,0,0-0.01c-2.29,0-4.57,0.02-6.86-0.01c-2.01-0.02-3.37-1.2-3.4-3.2c-0.08-4.73-0.07-9.46,0.01-14.19
			c0.03-1.91,1.23-3.08,3.16-3.11c4.68-0.07,9.36-0.08,14.03,0.01c2.09,0.04,3.29,1.41,3.3,3.51
			C3441.76,151.4,3441.75,155.86,3441.73,160.33z"/>
	</g>
	<path class="st3" d="M669.19,552.84h-111.7c-12.08,0-21.96-9.88-21.96-21.96v-111.7c0-12.08,9.88-21.96,21.96-21.96h111.7
		c12.08,0,21.96,9.88,21.96,21.96v111.7C691.15,542.95,681.27,552.84,669.19,552.84z"/>
	<path class="st2" d="M566.92,521.98c0-1.67,0-3.18,0-4.69c0-19.96,0.02-39.91-0.04-59.86c0-1.63,0.41-2.57,1.87-3.42
		c14.55-8.41,29.06-16.87,43.55-25.39c1.28-0.76,2.18-0.77,3.47-0.01c14.49,8.52,29.01,16.96,43.53,25.42
		c1.06,0.62,1.91,1.13,1.91,2.7c-0.07,21.4-0.05,42.79-0.05,64.19c0,0.3-0.04,0.59-0.08,1.06
		C629.77,521.98,598.49,521.98,566.92,521.98z M656.9,517.97c0.09-0.38,0.15-0.53,0.15-0.67c0.01-19.49,0.03-38.98-0.04-58.47
		c0-0.74-0.74-1.78-1.43-2.18c-13.29-7.84-26.63-15.6-39.93-23.43c-1.21-0.71-2.07-0.68-3.26,0.02
		c-13.17,7.75-26.35,15.48-39.58,23.13c-1.37,0.79-1.85,1.63-1.84,3.19c0.05,18.73,0.03,37.46,0.04,56.19c0,0.73,0.07,1.46,0.1,2.22
		C599.81,517.97,628.3,517.97,656.9,517.97z"/>
	<g>
		<path class="st2" d="M579.44,483.79c0.36-0.32,0.62-0.56,0.9-0.82c-0.3-0.27-0.57-0.52-0.9-0.83c0.76-0.75,1.45-1.46,2.16-2.13
			c4.21-3.93,9-6.89,14.51-8.6c2.43-0.76,4.94-1.22,7.49-1.38c9.33-0.59,17.77,2.15,25.64,6.95c1.99,1.22,3.84,2.67,5.76,4.01
			c0.14,0.1,0.27,0.2,0.44,0.33c4.89-4.43,9.08-9.34,11.55-15.61c0.77,0.13,1.55,0.27,2.34,0.41c0,11.24,0,22.43,0,33.66
			c-0.79,0.14-1.56,0.27-2.34,0.41c-2.45-6.25-6.64-11.16-11.56-15.62c-0.21,0.17-0.41,0.32-0.6,0.47c-5.69,4.48-11.95,7.86-19,9.66
			c-8.21,2.09-16.25,1.69-24.03-1.87c-3.88-1.78-7.31-4.2-10.4-7.12C580.77,485.1,580.15,484.47,579.44,483.79z M582.12,482.97
			c0.77,0.71,1.48,1.4,2.23,2.04c8.7,7.51,18.66,10.06,29.88,7.53c6.5-1.47,12.31-4.43,17.65-8.36c0.53-0.39,1.05-0.8,1.6-1.23
			c-2.09-1.66-4.2-3.13-6.44-4.42c-7.18-4.13-14.8-6.58-23.2-6.02c-1.3,0.09-2.59,0.3-4.01,0.46c0.19,0.21,0.28,0.31,0.37,0.41
			c1.41,1.58,2.24,3.42,2.48,5.52c0.36,3.22-0.37,6.24-1.65,9.17c-0.4,0.92-1.06,1.23-1.96,1.26c-0.75,0.02-0.81-0.08-0.48-0.77
			c1.3-2.8,2.07-5.71,1.73-8.84c-0.24-2.18-0.99-4.14-2.56-5.74c-0.29-0.3-0.54-0.31-0.89-0.2c-2.41,0.74-4.7,1.76-6.87,3.03
			C587.12,478.5,584.54,480.56,582.12,482.97z M637.34,482.95c3.7,3.31,6.91,6.97,9.52,11.27c0-7.57,0-14.99,0-22.56
			C644.25,476,641.03,479.63,637.34,482.95z"/>
		<path class="st2" d="M594.34,481.83c-1.05-0.01-1.87-0.87-1.85-1.92c0.02-1.05,0.86-1.87,1.91-1.87c1.03,0.01,1.9,0.87,1.89,1.9
			C596.29,481,595.41,481.85,594.34,481.83z"/>
	</g>
</g>
<g id="Text">
	<rect x="2890.14" y="304.34" class="st11" width="204.26" height="20.83"/>
	<text transform="matrix(1 0 0 1 2935.1118 324.4675)" class="st1 st12 st13">Transport</text>
	<rect x="116.36" y="308.59" class="st11" width="204.26" height="20.83"/>
	<text transform="matrix(1 0 0 1 189.1132 328.718)" class="st0 st12 st13">Land</text>
	<rect x="511.92" y="308.59" class="st11" width="204.26" height="20.83"/>
	<text transform="matrix(1 0 0 1 578.7997 328.718)" class="st3 st12 st13">Water</text>
	<rect x="907.47" y="308.59" class="st11" width="204.26" height="20.83"/>
	<text transform="matrix(1 0 0 1 972.8798 328.718)" class="st4 st12 st13">Forest</text>
	<rect x="1303.02" y="308.59" class="st11" width="204.26" height="20.83"/>
	<text transform="matrix(1 0 0 1 1347.6 328.718)" class="st5 st12 st13">Mountain</text>
	<rect x="1699.29" y="308.59" class="st11" width="204.26" height="20.83"/>
	<text transform="matrix(1 0 0 1 1764.0033 326.8826)" class="st6 st12 st14">Energy</text>
	<rect x="2094.13" y="308.59" class="st11" width="204.26" height="20.83"/>
	<text transform="matrix(1 0 0 1 2136.6538 328.718)" class="st7 st12 st13">Education</text>
	<rect x="2489.69" y="308.59" class="st11" width="204.26" height="20.83"/>
	<text transform="matrix(1 0 0 1 2542.27 328.718)" class="st8 st12 st13">Housing</text>
	<rect x="3280.8" y="308.59" class="st11" width="204.26" height="20.83"/>
	<text transform="matrix(1 0 0 1 3334.9097 328.718)" class="st9 st12 st13">Tourism</text>
	<rect x="535.53" y="557.42" class="st11" width="155.62" height="56.47"/>
	<text transform="matrix(1 0 0 1 535.5402 575.5333)" class="st15"><tspan x="0" y="0" class="st16 st12 st17">Fish education </tspan><tspan x="43.83" y="30.61" class="st16 st12 st17">center</tspan></text>
	<path class="st3" d="M2252.12,553.45h-111.7c-12.08,0-21.96-9.88-21.96-21.96v-111.7c0-12.08,9.88-21.96,21.96-21.96h111.7
		c12.08,0,21.96,9.88,21.96,21.96v111.7C2274.08,543.57,2264.19,553.45,2252.12,553.45z"/>
	<g>
		<path class="st2" d="M2149.85,522.59c0-1.67,0-3.18,0-4.69c0-19.96,0.02-39.91-0.04-59.86c0-1.63,0.41-2.57,1.87-3.42
			c14.55-8.41,29.06-16.87,43.55-25.39c1.28-0.76,2.18-0.77,3.47-0.01c14.49,8.52,29.01,16.96,43.53,25.42
			c1.06,0.62,1.91,1.13,1.91,2.7c-0.07,21.4-0.05,42.79-0.05,64.19c0,0.3-0.04,0.59-0.08,1.06
			C2212.7,522.59,2181.41,522.59,2149.85,522.59z M2239.83,518.59c0.09-0.38,0.15-0.53,0.15-0.67c0.01-19.49,0.03-38.98-0.04-58.47
			c0-0.74-0.74-1.78-1.43-2.18c-13.29-7.84-26.63-15.6-39.93-23.43c-1.21-0.71-2.07-0.68-3.26,0.02
			c-13.17,7.75-26.35,15.48-39.58,23.13c-1.37,0.79-1.85,1.63-1.84,3.19c0.05,18.73,0.03,37.46,0.04,56.19
			c0,0.73,0.07,1.46,0.1,2.22C2182.74,518.59,2211.23,518.59,2239.83,518.59z"/>
		<path class="st2" d="M2170.33,486.25c0.34,2.69-1.02,5.65,1.5,8c0.24,0.22,0.41,0.73,0.34,1.04c-0.54,2.58,0.11,5.21-0.16,7.68
			c-0.27,2.53-2.08,4.9-3.21,7.35c-0.33,0.03-0.66,0.07-0.98,0.1c-1.17-2.59-2.91-5.09-3.31-7.8c-0.31-2.13,0.61-4.49-0.18-6.77
			c-0.13-0.37-0.03-1.04,0.23-1.3c2.61-2.55,1.35-5.8,1.69-8.76c0.26-2.29-0.4-3.93-2.31-5.42c-2.64-2.05-2.56-3.5,0.23-5.29
			c10.07-6.46,20.16-12.88,30.38-19.09c1.21-0.73,3.64-0.72,4.85,0.02c10.22,6.21,20.31,12.63,30.38,19.09
			c2.75,1.76,2.76,3.14,0.21,5.33c-2.99,2.57-6.14,4.94-9.11,7.52c-0.68,0.59-1.26,1.65-1.31,2.54c-0.2,3.22-0.74,4.62-3.86,5.3
			c-4.93,1.08-9.96,1.92-14.99,2.26c-6.96,0.48-13.94,0.04-20.76-1.67c-4.55-1.14-4.83-1.89-5.66-6.55
			c-0.26-1.46-2.13-2.64-3.26-3.95C2170.8,486,2170.57,486.13,2170.33,486.25z M2226.65,478.05c-0.23-0.25-0.32-0.39-0.44-0.47
			c-9.4-5.94-18.8-11.9-28.24-17.78c-0.52-0.33-1.61-0.22-2.19,0.11c-2.64,1.49-5.2,3.1-7.76,4.71
			c-6.91,4.35-13.81,8.72-20.96,13.23c2.5,2.03,4.77,3.86,7.4,5.99c-0.51-4.2,1.91-5.7,4.93-6.2c4.98-0.82,10.01-1.57,15.05-1.82
			c6.81-0.35,13.64-0.12,20.28,1.82c3.77,1.1,4.55,2.03,4.98,6C2222.1,481.72,2224.37,479.89,2226.65,478.05z M2215.42,487.92
			c0-0.86,0-1.61,0-2.36c0-3.75,0.03-3.87-3.64-4.56c-9.23-1.74-18.54-1.93-27.76-0.3c-7.02,1.24-5.3,0.57-5.45,6.83
			c0,0.13,0.11,0.25,0.15,0.35C2190.87,485.17,2203,485.17,2215.42,487.92z M2179.78,491.77c5.84,3.15,30.56,2.93,34.01-0.08
			C2202.49,489.33,2191.45,489.32,2179.78,491.77z"/>
	</g>
	<rect x="2118.45" y="558.04" class="st11" width="155.62" height="56.47"/>
	<text transform="matrix(1 0 0 1 2148.4565 576.1514)" class="st15"><tspan x="0" y="0" class="st16 st12 st17">Research </tspan><tspan x="13.84" y="30.61" class="st16 st12 st17">center</tspan></text>
	<path class="st3" d="M3043.14,552.75h-111.7c-12.08,0-21.96-9.88-21.96-21.96v-111.7c0-12.08,9.88-21.96,21.96-21.96h111.7
		c12.08,0,21.96,9.88,21.96,21.96v111.7C3065.1,542.87,3055.22,552.75,3043.14,552.75z"/>
	<rect x="2909.48" y="557.34" class="st11" width="155.62" height="56.47"/>
	<text transform="matrix(1 0 0 1 2964.6882 575.4519)" class="st3 st12 st17">Hub</text>
	<g>
		<path class="st18" d="M2959.41,503.6c3.02-4.33,5.95-8.55,9.03-12.98c-5.76-4.77-9.23-10.84-9.71-18.34
			c-0.48-7.55,2.2-13.99,7.6-19.67c-4.11-4.75-8.21-9.47-12.26-14.15c-6.72,2.29-11.21,1.11-13.79-3.53
			c-2.2-3.96-1.22-9.01,2.3-11.89c3.41-2.79,8.46-2.8,11.89-0.03c4.07,3.29,4.57,7.97,1.35,13.76c4.07,4.66,8.18,9.38,12.28,14.08
			c11.66-8.04,24.56-6.43,34.06,2.58c3.6-3.03,7.29-6.02,10.79-9.22c0.44-0.4,0.13-2.02-0.27-2.87c-4.02-8.48,0.29-18.57,9.16-21.29
			c6.85-2.1,14.13,0.77,17.7,6.99c3.54,6.16,2.28,14.08-2.98,18.78c-5.36,4.79-13.16,5.27-19,1.14c-0.62-0.44-1.2-0.94-2.05-1.61
			c-3.87,3.26-7.77,6.54-11.44,9.63c1.4,3.45,3.11,6.59,3.92,9.94c0.79,3.26,0.65,6.74,0.95,10.51c3.77,0.93,7.98,1.96,12.28,3.01
			c2.03-4.02,4.96-6.53,9.65-6.37c4.88,0.16,8.89,4.07,9.06,8.9c0.19,5.36-3.42,9.63-8.45,10.03c-5.34,0.41-9.85-2.92-10.36-7.99
			c-0.18-1.8-0.88-2.41-2.47-2.75c-3.52-0.75-7.01-1.64-10.01-2.35c-3.1,4.49-6.03,8.74-9.24,13.39c1.78,2.6,3.96,5.81,6.15,9.01
			c2.15,3.14,4.32,6.26,6.24,9.05c2.01,0.17,3.76,0.01,5.3,0.51c3.64,1.17,5.32,5.05,3.95,8.53c-1.42,3.63-5.46,5.25-8.97,3.62
			c-3.37-1.57-4.9-5.6-3.05-8.91c0.89-1.6,0.69-2.57-0.29-3.96c-3.96-5.59-7.79-11.28-11.8-17.1c-8.84,4.83-17.65,4.83-26.5-0.08
			c-3.05,4.4-6.02,8.69-8.97,12.94c6.64,8.62,6.96,16.34,1.02,22.37c-5.11,5.19-13.49,5.88-19.36,1.6
			c-6.01-4.38-7.92-12.28-4.57-18.85C2942.32,502.64,2949.79,500.27,2959.41,503.6z M3006.27,470.54c0-12.54-9.89-22.51-22.4-22.55
			c-12.6-0.04-22.82,10.01-22.87,22.5c-0.06,12.37,10.3,22.76,22.71,22.79C2996.26,493.32,3006.27,483.23,3006.27,470.54z
			 M3038.82,434.57c-0.04-6.95-5.57-12.4-12.6-12.4c-7.12,0-12.67,5.58-12.63,12.69c0.04,6.81,5.8,12.53,12.63,12.53
			C3033.17,447.39,3038.86,441.6,3038.82,434.57z M2951.91,529.35c6.81-0.07,12.53-5.88,12.47-12.67
			c-0.06-6.78-5.93-12.55-12.68-12.47c-6.79,0.08-12.56,5.95-12.48,12.69C2939.3,523.7,2945.12,529.41,2951.91,529.35z
			 M3030.44,488.72c3.85-0.02,7.12-3.25,7.16-7.08c0.04-3.85-3.51-7.34-7.34-7.23c-3.85,0.11-6.99,3.4-6.94,7.27
			C3023.36,485.56,3026.58,488.74,3030.44,488.72z M2948.48,437.27c3.95,0.03,7.18-3.06,7.25-6.93c0.07-3.83-3.17-7.09-7.08-7.13
			c-3.96-0.05-7.14,3.03-7.19,6.96C2941.43,434.12,2944.51,437.24,2948.48,437.27z M3014.86,511.98c-2.41-0.02-4.16,1.72-4.15,4.1
			c0.01,2.3,1.92,4.16,4.2,4.11c2.22-0.05,3.9-1.75,3.96-4.02C3018.94,513.72,3017.3,512,3014.86,511.98z"/>
	</g>
</g>
<g id="Hilfslinien" class="st19">
</g>
</svg>
