<?xml version="1.0" encoding="utf-8"?>
<!-- Generator: Adobe Illustrator 24.0.0, SVG Export Plug-In . SVG Version: 6.00 Build 0)  -->
<svg version="1.1" xmlns="http://www.w3.org/2000/svg" xmlns:xlink="http://www.w3.org/1999/xlink" x="0px" y="0px"
	 viewBox="0 0 3600 1800" style="enable-background:new 0 0 3600 1800;" xml:space="preserve">
<style type="text/css">
	.st0{opacity:0.8;fill:#BE8C53;}
	.st1{opacity:0.8;fill:#90C682;}
	.st2{fill:#FFFFFF;}
	.st3{opacity:0.8;fill:#73C0EC;}
	.st4{opacity:0.8;fill:#AFCE66;}
	.st5{opacity:0.8;fill:#D56DA8;}
	.st6{opacity:0.8;fill:#8ABF46;}
	.st7{opacity:0.8;fill:#698BC5;}
	.st8{opacity:0.8;fill:#9D72AF;}
	.st9{opacity:0.8;fill:#E94B53;}
	.st10{opacity:0.3;fill:#BAD47B;}
	.st11{fill:none;}
	.st12{font-family:'MyriadPro-Regular';}
	.st13{font-size:25.5118px;}
	.st14{opacity:0.8;}
	.st15{fill:#90C682;}
	.st16{fill:#73C0EC;}
	.st17{fill:#BE8C53;}
	.st18{font-size:28.3465px;}
	.st19{fill:#8ABF46;}
	.st20{display:none;}
	.st21{display:inline;}
</style>
<g id="Icons">
	<path class="st0" d="M217.78,293.67L217.78,293.67c-70.44,0-128.08-57.63-128.08-128.08v0c0-70.44,57.63-128.08,128.08-128.08h0
		c70.44,0,128.08,57.63,128.08,128.08v0C345.86,236.03,288.23,293.67,217.78,293.67z"/>
	<path class="st1" d="M2986.66,293.67L2986.66,293.67c-70.44,0-128.08-57.63-128.08-128.08v0c0-70.44,57.63-128.08,128.08-128.08h0
		c70.44,0,128.08,57.63,128.08,128.08v0C3114.74,236.03,3057.11,293.67,2986.66,293.67z"/>
	<g>
		<path class="st2" d="M319.51,217.98c-36.13-27-77.32-33.07-120.84-30.02c-29.31,2.06-73.08,18.05-81.19,30.02
			C184.82,217.98,252.17,217.98,319.51,217.98z M186.85,170.18c-19.72,4.65-38.16,11.29-55.12,22.08
			c63.82-23.01,125.92-19,186.54,11.18c-32.94-24.06-68.78-38.88-110.45-36.38c0-6.46,0-12.59,0-18.72
			c5.92-0.17,6.32-0.39,6.21-5.91c-0.2-10.34-3.9-19.81-7.8-30.61c-2.35,7.86-4.44,14.43-6.23,21.07c-0.71,2.61-0.98,5.39-1.08,8.1
			c-0.26,6.84-0.17,6.84,6.53,7.48c0,6.13,0,12.28,0,18.77c-4.77,0.68-9.4,1.35-14.32,2.05c0-7.95,0-15.5,0-22.05
			c1.78-1.25,3.55-1.87,3.86-2.92c0.25-0.86-1.18-2.28-1.98-3.37c-1.42-1.95-3.04-3.76-4.36-5.77c-0.79-1.2-1.16-2.67-1.73-4.02
			c-1.27,0.63-2.55,1.25-4.14,2.03c-0.35-0.24-1.18-0.6-1.74-1.2c-3.02-3.25-5.74-2.61-8.86,0.08c-3.59,3.1-7.62,5.68-11.31,8.68
			c-1.1,0.89-1.69,2.4-2.52,3.63c1.29,0.79,2.58,1.58,4.1,2.51c0,3.65,0,7.8,0,11.89c-0.29,0.09-0.46,0.21-0.56,0.17
			c-1.06-0.41-2.13-0.82-3.17-1.27c-12.24-5.32-25.09-7.31-38.33-6.76c-1.44,0.06-3.9,1.38-4.04,2.37
			c-0.49,3.61-0.19,7.33-0.19,11.2c20.79-3.12,40.66-2.1,60.31,5.06c-6.07-4.43-10.55-8.6-10.36-17.49c0.19-8.83,3.6-13.48,11-16.97
			c2.59,1.92,5.44,3.87,8.07,6.07c0.85,0.71,1.59,2.1,1.6,3.19C186.91,152.83,186.85,161.32,186.85,170.18z"/>
		<path class="st2" d="M319.51,217.98c-67.34,0-134.69,0-202.03,0c8.11-11.96,51.88-27.96,81.19-30.01
			C242.18,184.92,283.38,190.98,319.51,217.98z"/>
		<path class="st2" d="M186.85,170.18c0-8.86,0.06-17.35-0.07-25.84c-0.02-1.09-0.75-2.47-1.6-3.19c-2.63-2.21-5.48-4.15-8.07-6.07
			c-7.41,3.49-10.81,8.14-11,16.97c-0.19,8.9,4.29,13.06,10.36,17.49c-19.65-7.16-39.52-8.18-60.31-5.06c0-3.86-0.3-7.58,0.19-11.2
			c0.13-0.99,2.6-2.31,4.04-2.37c13.25-0.55,26.1,1.44,38.33,6.76c1.04,0.45,2.11,0.86,3.17,1.27c0.11,0.04,0.27-0.07,0.56-0.17
			c0-4.09,0-8.24,0-11.89c-1.52-0.93-2.81-1.72-4.1-2.51c0.82-1.23,1.42-2.74,2.52-3.63c3.69-2.99,7.72-5.58,11.31-8.68
			c3.12-2.69,5.84-3.33,8.86-0.08c0.56,0.61,1.39,0.97,1.74,1.2c1.59-0.78,2.87-1.41,4.14-2.03c0.56,1.35,0.94,2.82,1.73,4.02
			c1.32,2.01,2.93,3.82,4.36,5.77c0.8,1.09,2.23,2.51,1.98,3.37c-0.31,1.05-2.09,1.67-3.86,2.92c0,6.55,0,14.11,0,22.05
			c4.92-0.71,9.56-1.37,14.32-2.05c0-6.49,0-12.64,0-18.77c-6.7-0.63-6.78-0.64-6.53-7.48c0.1-2.71,0.38-5.49,1.08-8.1
			c1.8-6.64,3.88-13.2,6.23-21.07c3.91,10.8,7.6,20.26,7.8,30.61c0.11,5.52-0.3,5.73-6.21,5.91c0,6.13,0,12.27,0,18.72
			c41.67-2.5,77.51,12.32,110.45,36.38c-60.62-30.18-122.72-34.19-186.54-11.18C148.69,181.46,167.13,174.83,186.85,170.18z"/>
	</g>
	<path class="st3" d="M613.34,293.67L613.34,293.67c-70.44,0-128.08-57.63-128.08-128.08v0c0-70.44,57.63-128.08,128.08-128.08h0
		c70.44,0,128.08,57.63,128.08,128.08v0C741.41,236.03,683.78,293.67,613.34,293.67z"/>
	<path class="st4" d="M1008.89,293.67L1008.89,293.67c-70.44,0-128.08-57.63-128.08-128.08v0c0-70.44,57.63-128.08,128.08-128.08h0
		c70.44,0,128.08,57.63,128.08,128.08v0C1136.97,236.03,1079.33,293.67,1008.89,293.67z"/>
	<path class="st5" d="M1404.45,293.67L1404.45,293.67c-70.44,0-128.08-57.63-128.08-128.08v0c0-70.44,57.63-128.08,128.08-128.08h0
		c70.44,0,128.08,57.63,128.08,128.08v0C1532.52,236.03,1474.89,293.67,1404.45,293.67z"/>
	<path class="st6" d="M1800.71,293.67L1800.71,293.67c-70.44,0-128.08-57.63-128.08-128.08v0c0-70.44,57.63-128.08,128.08-128.08h0
		c70.44,0,128.08,57.63,128.08,128.08v0C1928.79,236.03,1871.15,293.67,1800.71,293.67z"/>
	<path class="st7" d="M2195.55,293.67L2195.55,293.67c-70.44,0-128.08-57.63-128.08-128.08v0c0-70.44,57.63-128.08,128.08-128.08h0
		c70.44,0,128.08,57.63,128.08,128.08v0C2323.63,236.03,2266,293.67,2195.55,293.67z"/>
	<path class="st8" d="M2591.11,293.67L2591.11,293.67c-70.44,0-128.08-57.63-128.08-128.08v0c0-70.44,57.63-128.08,128.08-128.08h0
		c70.44,0,128.08,57.63,128.08,128.08v0C2719.19,236.03,2661.55,293.67,2591.11,293.67z"/>
	<path class="st9" d="M3382.22,293.67L3382.22,293.67c-70.44,0-128.08-57.63-128.08-128.08v0c0-70.44,57.63-128.08,128.08-128.08h0
		c70.44,0,128.08,57.63,128.08,128.08v0C3510.29,236.03,3452.66,293.67,3382.22,293.67z"/>
	<g>
		<path class="st2" d="M614.5,93.56c9.51,17.95,19.53,35.66,28.36,53.94c5.82,12.04,11.09,24.6,14.55,37.48
			c6.54,24.38-14.38,51.33-39.65,52.57c-23.55,1.16-41.47-11.01-48.04-32.71c-2.75-9.09-1.89-18.14,1.17-26.95
			c10.38-29.82,26.19-56.91,41.87-84.06C613.34,93.74,613.92,93.65,614.5,93.56z M627.61,223.16c-12.42,1.33-23.74-0.65-33.19-9.53
			c-9.35-8.8-12.16-20.01-11.99-32.43c-6.16,12.56-2.62,27.74,8.32,37.69C600.79,228.02,616.9,230.11,627.61,223.16z"/>
		<path class="st10" d="M627.61,223.16c-10.71,6.95-26.82,4.86-36.85-4.27c-10.94-9.95-14.49-25.13-8.32-37.69
			c-0.17,12.41,2.63,23.63,11.99,32.43C603.87,222.52,615.19,224.49,627.61,223.16z"/>
	</g>
	<g>
		<path class="st2" d="M981.19,229.01c0,2.9-0.02,5.79,0.01,8.69c0.02,1.94,0.98,3.07,2.52,3.07c1.55,0.01,2.54-1.12,2.55-3.05
			c0.02-5.79,0.02-11.58,0-17.37c-0.01-1.9-1.01-3.09-2.52-3.1c-1.51-0.01-2.53,1.17-2.55,3.07
			C981.17,223.22,981.19,226.11,981.19,229.01z M1031.55,229c0,2.9-0.02,5.79,0.01,8.69c0.02,1.94,0.97,3.07,2.51,3.08
			c1.55,0.01,2.55-1.12,2.56-3.04c0.02-5.79,0.02-11.58,0-17.37c-0.01-1.91-1-3.09-2.52-3.11c-1.51-0.02-2.54,1.18-2.55,3.07
			C1031.53,223.21,1031.55,226.11,1031.55,229z"/>
		<path class="st2" d="M929.36,208.47c0.93-2.54,1.91-5.06,2.77-7.63c7.9-23.64,15.78-47.28,23.65-70.92
			c0.47-1.41,1.06-2.68,2.75-2.7c1.7-0.02,2.34,1.24,2.8,2.65c1.55,4.71,3.12,9.41,4.68,14.11c0.94,2.83,1.9,5.67,2.96,8.84
			c1.58-4.74,3.06-9.13,4.52-13.53c2.5-7.49,4.97-14.99,7.53-22.46c0.31-0.9,0.99-1.9,1.78-2.35c1.41-0.81,2.87,0.09,3.51,1.98
			c1.84,5.42,3.64,10.86,5.46,16.29c0.15,0.43,0.3,0.86,0.54,1.55c0.39-1.08,0.73-1.94,1.02-2.81c4.25-12.72,8.49-25.44,12.74-38.16
			c0.08-0.24,0.17-0.49,0.24-0.73c0.4-1.31,1.18-2.21,2.64-2.18c1.38,0.03,2.1,0.9,2.51,2.14c1.41,4.26,2.85,8.51,4.27,12.77
			c3.04,9.1,6.07,18.2,9.11,27.3c0.16,0.48,0.38,0.94,0.67,1.65c1.97-5.9,3.86-11.55,5.75-17.21c0.1-0.29,0.2-0.59,0.3-0.88
			c0.42-1.19,1.19-1.92,2.52-1.91c1.33,0.01,2.09,0.74,2.49,1.94c1.85,5.53,3.71,11.06,5.56,16.59c2.06,6.17,4.13,12.34,6.19,18.5
			c0.13,0.39,0.29,0.76,0.53,1.41c1.44-4.29,2.8-8.34,4.15-12.39c1.18-3.53,2.35-7.05,3.5-10.59c0.45-1.37,1.13-2.54,2.74-2.54
			c1.6,0,2.28,1.17,2.74,2.53c8.7,26.09,17.41,52.17,26.1,78.26c0.91,2.74-0.14,4.19-3.02,4.2c-7.15,0.01-14.29,0-21.44,0
			c-0.56,0-1.11,0-1.84,0c0,0.72,0,1.27,0,1.83c0,7.61,0,15.23,0,22.84c0,0.62,0.02,1.25-0.09,1.86c-0.24,1.29-1.12,2-2.39,2.02
			c-1.34,0.03-2.26-0.7-2.52-2.05c-0.12-0.6-0.08-1.24-0.08-1.86c0-7.56,0-15.12,0-22.68c0-0.56,0-1.13,0-1.82
			c-15.07,0-30.05,0-45.27,0c0,0.5,0,1.05,0,1.6c0,7.66,0,15.33,0,22.99c0,0.62,0.04,1.26-0.09,1.86c-0.28,1.27-1.16,1.97-2.44,1.97
			c-1.28,0-2.16-0.7-2.45-1.96c-0.14-0.6-0.09-1.24-0.09-1.86c-0.01-7.61,0-15.23,0-22.84c0-0.56,0-1.12,0-1.79
			c-15.11,0-30.09,0-45.27,0c0,0.58,0,1.13,0,1.68c0,7.61,0,15.23,0,22.84c0,0.57,0.01,1.14-0.06,1.71
			c-0.17,1.35-1.24,2.32-2.54,2.23c-1.33-0.09-2.23-0.79-2.42-2.18c-0.08-0.56-0.07-1.14-0.07-1.7c0-7.61,0-15.23,0-22.84
			c0-0.56,0-1.11,0-1.84c-0.72,0-1.27,0-1.82,0c-7.15,0-14.29-0.03-21.44,0.02c-1.56,0.01-2.72-0.43-3.4-1.88
			C929.36,209.72,929.36,209.09,929.36,208.47z M1009.1,101.65c-0.12,0-0.24-0.01-0.36-0.01c-11.7,35.05-23.39,70.1-35.14,105.32
			c11.03,0,21.82,0,32.66,0c0.05-0.34,0.12-0.59,0.12-0.83c0.01-4.09,0.03-8.18-0.03-12.27c-0.01-0.54-0.34-1.18-0.73-1.59
			c-3.6-3.86-7.25-7.68-10.88-11.52c-0.6-0.64-1.25-1.27-1.7-2c-0.67-1.09-0.53-2.21,0.42-3.1c0.94-0.88,2.03-1.01,3.11-0.25
			c0.46,0.32,0.87,0.73,1.26,1.13c2.46,2.59,4.91,5.19,7.37,7.78c0.3,0.31,0.64,0.58,1.17,1.07c0-0.92,0-1.53,0-2.14
			c0.01-5.75-0.01-11.5,0.03-17.24c0.01-1.62,1.02-2.58,2.48-2.59c1.47-0.01,2.43,0.93,2.54,2.53c0.03,0.46,0.02,0.93,0.02,1.4
			c0,5.54,0,11.08,0.01,16.62c0,0.43,0.06,0.86,0.12,1.61c2.9-3.11,5.57-5.98,8.26-8.84c0.42-0.45,0.86-0.9,1.35-1.27
			c1.12-0.84,2.26-0.71,3.23,0.23c0.94,0.9,0.99,2.01,0.36,3.12c-0.28,0.49-0.68,0.91-1.07,1.32c-3.78,4.05-7.59,8.08-11.31,12.18
			c-0.52,0.58-0.88,1.52-0.9,2.3c-0.09,3.62-0.04,7.25-0.04,10.87c0,0.49,0.06,0.98,0.09,1.49c10.93,0,21.68,0,32.7,0
			C1032.49,171.75,1020.79,136.7,1009.1,101.65z M956.02,207c0-0.72,0-1.28,0-1.84c0-4.2,0-8.39,0-12.59c0-2.61,0.83-3.81,2.58-3.78
			c1.73,0.03,2.51,1.22,2.51,3.86c0,4.2,0,8.39,0,12.59c0,0.55,0,1.11,0,1.83c2,0,3.81-0.06,5.6,0.02c1.05,0.05,1.53-0.29,1.87-1.32
			c1.86-5.74,3.78-11.47,5.74-17.18c0.43-1.24,0.41-2.34-0.01-3.59c-4.56-13.55-9.06-27.11-13.58-40.67
			c-0.66-1.98-1.34-3.94-2.02-5.91c-0.11,0-0.22,0.01-0.33,0.01c-7.61,22.81-15.22,45.61-22.88,68.56
			C942.42,207,949.08,207,956.02,207z M1082.32,206.97c-7.66-22.94-15.27-45.75-22.93-68.71c-0.26,0.29-0.36,0.35-0.39,0.44
			c-5.26,15.76-10.52,31.52-15.76,47.28c-0.15,0.46-0.2,1.05-0.05,1.5c2.04,6.23,4.11,12.45,6.22,18.65
			c0.12,0.36,0.56,0.86,0.87,0.87c2.1,0.08,4.2,0.04,6.45,0.04c0-0.79,0-1.35,0-1.91c0-4.3-0.01-8.6,0.01-12.9
			c0-0.66-0.02-1.4,0.24-1.98c0.52-1.15,1.51-1.67,2.8-1.4c1.36,0.29,2.01,1.2,2.01,2.55c0.02,4.61,0.02,9.22,0.02,13.83
			c0,0.55,0,1.11,0,1.72C1068.73,206.97,1075.44,206.97,1082.32,206.97z M977.6,178.63c3.18-9.48,6.2-18.52,9.23-27.56
			c0.93-2.79,2.58-5.58,2.57-8.36c-0.01-2.84-1.63-5.68-2.56-8.52c-0.96-2.91-1.95-5.8-3.06-9.09c-0.32,0.8-0.5,1.2-0.64,1.61
			c-3.22,9.63-6.27,19.32-9.73,28.85c-1.38,3.81-1.52,7.2,0.04,10.95C975.04,170.29,976.14,174.28,977.6,178.63z M1040.14,178.36
			c0.22-0.33,0.36-0.49,0.42-0.67c1.77-5.28,3.55-10.55,5.26-15.86c0.2-0.61,0.07-1.42-0.14-2.07c-3.64-11.01-7.31-22-10.98-33
			c-0.15-0.45-0.35-0.87-0.67-1.66c-1.87,5.62-3.65,10.83-5.31,16.08c-0.27,0.85-0.29,1.93-0.02,2.77
			c2.06,6.43,4.22,12.82,6.36,19.23C1036.72,168.19,1038.41,173.19,1040.14,178.36z"/>
		<path class="st2" d="M981.19,229.01c0-2.9-0.02-5.79,0.01-8.69c0.02-1.9,1.04-3.08,2.55-3.07c1.51,0.01,2.51,1.2,2.52,3.1
			c0.02,5.79,0.02,11.58,0,17.37c-0.01,1.93-0.99,3.06-2.55,3.05c-1.55-0.01-2.5-1.13-2.52-3.07
			C981.17,234.8,981.19,231.9,981.19,229.01z"/>
		<path class="st2" d="M1031.55,229c0-2.9-0.02-5.79,0.01-8.69c0.02-1.89,1.04-3.08,2.55-3.07c1.51,0.02,2.51,1.19,2.52,3.11
			c0.02,5.79,0.02,11.58,0,17.37c-0.01,1.93-1.01,3.06-2.56,3.04c-1.55-0.01-2.5-1.14-2.51-3.08
			C1031.53,234.79,1031.55,231.9,1031.55,229z"/>
	</g>
	<g>
		<path class="st2" d="M1428.81,149.86c-2.83,2.43-5.62,4.82-8.46,7.25c-4.2-3.6-8.39-7.19-12.61-10.8
			c-4.2,3.6-8.39,7.19-12.61,10.8c-3.3-2.83-6.6-5.64-9.96-8.52c-5.33,9.21-10.64,18.39-15.94,27.55
			c-3.54-3.54-7.06-7.07-10.66-10.68c-0.56,1.04-1.06,1.94-1.54,2.85c-4.87,9.2-9.73,18.4-14.6,27.6
			c-4.29,8.12-8.59,16.24-12.88,24.36c-0.2,0.39-0.44,0.56-0.91,0.56c-2.36-0.03-4.73-0.01-7.09-0.02c-0.11,0-0.22-0.02-0.46-0.04
			c11.88-22.43,23.72-44.8,35.6-67.22c3.66,3.66,7.27,7.28,10.94,10.94c13.53-23.37,27.03-46.68,40.57-70.06
			c0.54,1.02,1.04,1.98,1.54,2.94c2.97,5.73,5.94,11.47,8.91,17.2c4.19,8.09,8.39,16.17,12.59,24.25c0.65,1.25,1.4,2.45,2.04,3.7
			c0.95,1.86,1.82,3.75,2.78,5.61c3.75,7.25,7.52,14.5,11.28,21.75c2.57,4.96,5.15,9.93,7.72,14.89c1.26,2.42,2.51,4.84,3.8,7.32
			c2.37-3.56,4.71-7.07,7.09-10.64c7.3,13.14,14.55,26.2,21.84,39.33c-0.24,0.02-0.4,0.04-0.56,0.04c-2.38,0-4.77-0.01-7.15,0.01
			c-0.39,0-0.61-0.12-0.8-0.46c-4.59-8.28-9.18-16.56-13.78-24.84c-0.02-0.03-0.05-0.05-0.15-0.14c-2.42,3.62-4.83,7.24-7.29,10.91
			C1448.3,187.45,1438.57,168.68,1428.81,149.86z M1420.35,147.6c1.61-1.37,3.21-2.72,4.78-4.09c0.11-0.1,0.16-0.41,0.09-0.55
			c-2.17-4.22-4.36-8.42-6.54-12.63c-3.53-6.81-7.06-13.63-10.58-20.44c-0.06-0.12-0.15-0.24-0.26-0.41
			c-0.4,0.69-0.77,1.32-1.14,1.96c-3.29,5.68-6.59,11.37-9.88,17.05c-2.58,4.46-5.16,8.93-7.76,13.38
			c-0.18,0.31-0.12,0.45,0.13,0.65c0.37,0.29,0.72,0.61,1.08,0.92c1.62,1.38,3.24,2.77,4.88,4.17c4.22-3.61,8.41-7.2,12.61-10.8
			C1411.97,140.41,1416.15,144,1420.35,147.6z"/>
	</g>
	<g>
		<path class="st2" d="M1779.77,139.36c0.49-2.25,1.09-4.32,1.87-6.34c4.83-12.48,15.88-21.9,28.97-24.72
			c2.85-0.61,5.72-0.92,8.63-0.92c6.76,0.01,13.52,0.01,20.28,0c1.53,0,2.85,0.49,3.91,1.58c0.85,0.87,1.32,1.87,1.32,3.16
			c-0.02,23.7-0.02,47.4,0,71.1c0,0.82-0.24,1.48-0.75,2.08c-1.04,1.22-2.36,1.92-3.98,1.92c-7.13,0.01-14.26,0.06-21.39-0.01
			c-6.79-0.07-13.18-1.83-19.05-5.23c-9.86-5.71-16.29-14.09-19.2-25.13c-0.12-0.45-0.22-0.91-0.33-1.36
			c-0.02-0.07-0.07-0.13-0.14-0.26c-0.21,0-0.45,0-0.7,0c-5.75,0-11.51-0.02-17.26,0c-9.39,0.03-17.55,6.36-19.63,15.49
			c-1.84,8.09,0.74,14.79,7.13,19.99c3.08,2.51,6.67,3.94,10.63,4.37c1.49,0.16,2.99,0.15,4.49,0.26
			c12.16,0.88,21.65,6.38,28.37,16.54c2.97,4.5,4.66,9.51,5.28,14.87c0.16,1.36,0.22,2.75,0.22,4.12
			c0.02,6.66-0.04,13.33,0.03,19.99c0.04,3.92-2.69,7.12-6.38,7.82c-5.19,0.98-8.76-2.34-9.49-6.14c-0.13-0.67-0.18-1.37-0.18-2.05
			c-0.01-6.32-0.07-12.64,0.01-18.95c0.11-9.17-6.57-17.89-16.47-19.79c-1.17-0.23-2.39-0.32-3.59-0.33
			c-9.94-0.06-18.57-3.43-25.73-10.35c-5.65-5.46-9.14-12.11-10.5-19.86c-0.54-3.09-0.7-6.2-0.39-9.33c0.63-6.27,2.76-12,6.49-17.09
			c5.68-7.74,13.27-12.55,22.64-14.61c2.68-0.59,5.39-0.82,8.12-0.82c5.29,0,10.57,0,15.86,0
			C1779.14,139.36,1779.43,139.36,1779.77,139.36z M1808.28,177.88c0.06,0.02,0.12,0.05,0.18,0.07
			c8.32-12.21,16.65-24.42,25.08-36.8c-2.02-0.01-3.85,0-5.68,0c-1.87,0-3.74,0.01-5.61,0c-1.83-0.01-3.66,0.05-5.58-0.04
			c2.16-7.96,4.3-15.81,6.44-23.72c-0.14,0.04-0.2,0.04-0.22,0.07c-0.1,0.11-0.19,0.23-0.27,0.35
			c-8.2,12.08-16.41,24.15-24.61,36.23c-0.01,0.01,0,0.05,0.01,0.07c0.01,0.02,0.02,0.05,0.05,0.13c5.5,0,11.02,0,16.64,0
			C1812.55,162.17,1810.41,170.03,1808.28,177.88z"/>
		<path class="st2" d="M1848.83,138.03c0-4.94,0-9.78,0-14.68c0.24-0.03,0.45-0.07,0.66-0.07c8.31,0,16.62-0.06,24.93,0.02
			c4.08,0.04,6.66,3.23,7.06,6.31c0.57,4.33-2.49,7.56-5.99,8.29c-0.5,0.11-1.02,0.16-1.53,0.16c-8.11,0.01-16.23,0.01-24.34,0.01
			C1849.38,138.07,1849.15,138.04,1848.83,138.03z"/>
		<path class="st2" d="M1848.84,170.93c0-4.86,0-9.62,0-14.44c0.27-0.02,0.51-0.06,0.75-0.06c6.22-0.05,12.43-0.1,18.65-0.15
			c1.96-0.02,3.93-0.09,5.89-0.1c1.51,0,2.92,0.38,4.17,1.25c2.39,1.69,3.43,3.99,3.2,6.92c-0.22,2.74-2.4,5.64-5.93,6.44
			c-0.59,0.13-1.22,0.18-1.82,0.18c-8.04,0.01-16.07,0.01-24.11,0.01C1849.39,170.97,1849.15,170.95,1848.84,170.93z"/>
	</g>
	<g>
		<path class="st2" d="M2230.37,158.71c0-0.44,0-0.81,0-1.17c0-14.77,0-29.53,0-44.3c0-1.63,0.36-3.11,1.6-4.28
			c0.19-0.18,0.37-0.48,0.37-0.73c0.03-2.14,0.02-4.29,0.02-6.61c-2.19,0.67-4.23,1.26-6.24,1.96c-0.27,0.1-0.46,0.79-0.46,1.21
			c-0.03,5.5-0.06,11,0.01,16.5c0.01,1.12-0.37,1.67-1.31,2.21c-14.76,8.39-33.64,4.03-43.45-10.13c-0.62-0.89-1.13-0.93-2.01-0.62
			c-5.02,1.75-8.57,5.17-11.11,9.74c-0.2,0.35-0.38,0.71-0.74,1.38c-0.03-0.74-0.07-1.17-0.07-1.59c0-5.83-0.02-11.66,0.02-17.5
			c0.01-0.86-0.26-1.21-1.08-1.46c-5.81-1.76-11.6-3.58-17.4-5.38c-0.5-0.16-1-0.33-1.78-0.59c4.74-1.47,9.19-2.84,13.64-4.22
			c11.6-3.59,23.19-7.19,34.81-10.75c0.73-0.22,1.65-0.24,2.38-0.01c15.67,4.81,31.33,9.67,46.99,14.52
			c0.39,0.12,0.78,0.25,1.49,0.48c-2.38,0.74-4.48,1.4-6.58,2.04c-2.53,0.78-2.53,0.77-2.53,3.46c0,0.95,0,1.9,0,2.85
			c0,1.5-0.16,2.96,1.15,4.22c0.61,0.59,0.85,1.82,0.86,2.76c0.05,15.18,0.03,30.36,0.03,45.54c0,0.12-0.03,0.24-0.06,0.46
			C2236.12,158.71,2233.33,158.71,2230.37,158.71z"/>
		<path class="st2" d="M2196.48,192.24c5.77-10,11.46-19.86,17.15-29.72c-5.11,4-10.38,7.64-17.15,7.67
			c-6.82,0.03-12.12-3.59-17.31-7.63c5.68,9.85,11.37,19.71,17.13,29.7c-14.27,0-28.35,0-42.43,0
			c-0.63-13.39,6.25-32.59,22.48-42.05c1.73,1.52,3.33,3.24,5.22,4.52c2.58,1.75,5.28,3.42,8.13,4.67c5.45,2.4,10.82,1.54,16-1.11
			c3.64-1.86,6.83-4.33,9.7-7.24c0.29-0.29,0.56-0.6,0.82-0.88c12.45,5.5,24.45,27.73,22.69,42.06
			C2224.83,192.24,2210.75,192.24,2196.48,192.24z"/>
		<path class="st2" d="M2198.04,231.47c-14.31,0-28.62,0.01-42.93-0.01c-5.25-0.01-9.99-1.55-13.69-5.4
			c-4.69-4.9-5.93-10.76-3.64-17.09c2.32-6.41,7.1-10.08,13.9-11.01c0.98-0.13,1.98-0.15,2.97-0.15c28.95-0.01,57.9-0.01,86.86,0
			c0.58,0,1.17,0,1.72,0.12c1.11,0.25,1.77,1.16,1.71,2.26c-0.06,1.14-0.69,1.84-1.78,2.08c-0.48,0.11-0.98,0.09-1.48,0.09
			c-19.44,0-38.88,0-58.32,0.01c-6.15,0-11.15,3.89-12.39,9.59c-1.69,7.78,4.08,14.94,12.17,14.99c8.19,0.05,16.38,0.01,24.57,0.01
			c11.29,0,22.58,0,33.87,0c0.41,0,0.83-0.02,1.24,0.01c1.23,0.09,2.09,0.98,2.12,2.16c0.03,1.17-0.8,2.15-1.99,2.3
			c-0.41,0.05-0.83,0.03-1.24,0.03C2227.16,231.47,2212.6,231.47,2198.04,231.47z"/>
		<path class="st2" d="M2191.37,260.82c-17.08,0-34.16,0-51.24,0c-0.41,0-0.83,0.02-1.24-0.01c-1.24-0.08-2.11-0.94-2.15-2.13
			c-0.03-1.15,0.81-2.16,1.98-2.33c0.45-0.06,0.91-0.03,1.36-0.03c19.69,0,39.37,0,59.06,0c3.16,0,5.51-1.41,6.86-4.24
			c1.33-2.8,0.94-5.49-1-7.9c-1.59-1.98-3.75-2.72-6.25-2.72c-19.56,0.01-39.12,0.01-58.69,0.01c-0.45,0-0.91,0.03-1.36-0.03
			c-1.12-0.13-1.95-1.08-1.97-2.19c-0.02-1.11,0.79-2.08,1.91-2.25c0.36-0.06,0.74-0.03,1.11-0.03c34.08,0,68.16,0,102.24,0
			c4.03,0,7.7,1.06,10.6,4.01c5.65,5.73,3.67,15.2-3.85,18.55c-2.19,0.97-4.5,1.31-6.89,1.31
			C2225.04,260.81,2208.21,260.82,2191.37,260.82z"/>
		<path class="st2" d="M2212.88,212.05c-9.64,0-19.27,0-28.91,0c-0.37,0-0.75,0.02-1.12-0.02c-1.26-0.14-2.12-1.01-2.15-2.17
			c-0.03-1.14,0.78-2.09,2.01-2.31c0.36-0.07,0.74-0.06,1.11-0.06c19.15,0,38.3,0,57.45,0c0.66,0,1.33,0.02,1.97,0.15
			c1.11,0.24,1.77,1.15,1.7,2.26c-0.07,1.14-0.7,1.83-1.8,2.06c-0.44,0.09-0.9,0.08-1.36,0.08
			C2232.15,212.05,2222.51,212.05,2212.88,212.05z"/>
		<path class="st2" d="M2212.91,217.29c9.76,0,19.52,0,29.28,0c1.75,0,2.71,0.75,2.75,2.14c0.04,1.44-0.99,2.36-2.71,2.36
			c-19.6,0-39.21,0-58.81,0c-1.64,0-2.69-0.89-2.71-2.26c-0.03-1.37,0.98-2.24,2.68-2.24
			C2193.22,217.29,2203.07,217.29,2212.91,217.29z"/>
		<path class="st2" d="M2168.25,251.14c-9.47,0-18.93,0-28.4,0c-0.33,0-0.66,0.01-0.99-0.01c-1.18-0.09-2.02-0.92-2.11-2.05
			c-0.09-1.15,0.72-2.2,1.88-2.4c0.4-0.07,0.82-0.04,1.24-0.04c18.93,0,37.87,0,56.8,0c0.37,0,0.75-0.02,1.11,0.03
			c1.19,0.16,2.01,1.15,1.98,2.31c-0.03,1.18-0.89,2.06-2.13,2.15c-0.33,0.02-0.66,0.01-0.99,0.01
			C2187.19,251.14,2177.72,251.14,2168.25,251.14z"/>
	</g>
	<g>
		<path class="st2" d="M2529.63,150.13c-4.7,3.62-8.41,6.48-12.11,9.35c-1.73,1.34-3.87,2.68-5.15,0.13
			c-0.58-1.16,0.3-4.03,1.45-4.93c24.43-19.17,49-38.14,73.49-57.23c2.7-2.1,4.75-1.92,7.4,0.15
			c24.24,18.91,48.57,37.73,72.88,56.54c2.02,1.56,3.98,3.49,1.79,5.69c-0.82,0.82-4.09,0.11-5.62-0.88
			c-3.77-2.42-7.17-5.41-11.49-8.77c0,2.35,0,3.75,0,5.15c0,19.59,0,39.19-0.01,58.78c0,5.4-0.32,5.73-5.77,5.73
			c-37.12,0.01-74.25-0.05-111.37,0.08c-4.28,0.01-5.62-1.45-5.58-5.66c0.17-19.44,0.08-38.89,0.08-58.34
			C2529.63,154.37,2529.63,152.79,2529.63,150.13z M2646.02,213.76c0-22.49,0.04-44.56-0.11-66.63c-0.01-1.26-1.33-2.82-2.46-3.7
			c-16.57-12.95-33.26-25.75-49.8-38.74c-2.22-1.75-3.49-1.57-5.58,0.07c-16.44,12.88-33.02,25.58-49.4,38.53
			c-1.54,1.22-2.85,3.76-2.87,5.71c-0.21,20.17-0.13,40.34-0.11,60.51c0,1.4,0.18,2.8,0.27,4.18c6,0,11.51,0,17.26,0
			c0-12.87,0.11-25.38-0.06-37.88c-0.05-3.93,1.19-5.66,5.29-5.57c8.09,0.18,16.2,0.18,24.29-0.02c4.12-0.1,5.35,1.63,5.28,5.56
			c-0.19,11.04-0.08,22.08-0.07,33.12c0,1.57,0.14,3.13,0.23,4.88C2607.54,213.76,2626.47,213.76,2646.02,213.76z M2559.71,214.01
			c6.32,0,12.6-0.1,18.87,0.05c2.73,0.07,3.55-0.92,3.51-3.59c-0.14-8.08-0.05-16.17-0.05-24.25c0-3.18,0-6.36,0-9.59
			c-7.8,0-14.94,0-22.32,0C2559.71,189.03,2559.71,201.17,2559.71,214.01z"/>
		<path class="st2" d="M2647.72,280.86c0.36,0,0.72,0,1.09,0c0,0.08,0,0.17,0,0.25c-0.36,0-0.72,0-1.09,0
			C2647.72,281.03,2647.72,280.94,2647.72,280.86z"/>
		<path class="st2" d="M2600.64,176.05c0-3.97,0.04-7.93-0.02-11.9c-0.04-2.73,1.09-4.04,3.93-4.01c7.93,0.07,15.86,0.07,23.79,0
			c3.03-0.03,4.25,1.39,4.24,4.28c-0.03,7.78-0.01,15.57,0,23.35c0,2.87-1.3,4.32-4.28,4.3c-7.78-0.04-15.57-0.04-23.35,0.03
			c-3.2,0.03-4.49-1.48-4.41-4.59c0.1-3.82,0.02-7.64,0.02-11.45C2600.59,176.05,2600.61,176.05,2600.64,176.05z M2626.24,185.64
			c0-6.69,0-12.83,0-19.19c-6.61,0-12.97,0-19.36,0c0,6.57,0,12.81,0,19.19C2613.48,185.64,2619.74,185.64,2626.24,185.64z"/>
	</g>
	<g>
		<path class="st2" d="M2908.19,155.71c-0.16,0-0.32,0-0.48,0c-1.04,0-2.08,0.01-3.12,0c-0.84-0.01-1.4-0.57-1.42-1.41
			c0-0.1,0-0.21,0-0.31c0-13.68,0.02-27.36-0.02-41.04c-0.01-3.11,2.41-5.75,5.74-5.74c13.96,0.03,27.92,0.01,41.88,0.01
			c3.18,0,5.62,2.44,5.62,5.63c0,2.16,0,4.31,0,6.47c0,0.16,0,0.32,0,0.54c0.24,0,0.44,0,0.64,0c5.97,0,11.94,0.01,17.9-0.01
			c0.8,0,1.28,0.32,1.61,1.03c2.03,4.4,4.08,8.78,6.11,13.18c0.15,0.33,0.24,0.73,0.24,1.09c0.01,6.33,0.01,12.67,0.01,19
			c0,1.01-0.53,1.55-1.54,1.55c-1.72,0-3.43,0-5.15,0.01c-0.03,0-0.05,0.02-0.13,0.04c0.27,2.69-0.56,4.98-2.65,6.75
			c-1.47,1.25-3.21,1.81-5.13,1.71c-2.17-0.12-3.98-1.02-5.38-2.7c-1.38-1.66-1.89-3.61-1.65-5.77c-7.04,0-14.04,0-21.08,0
			c0.26,2.62-0.51,4.85-2.47,6.61c-1.47,1.32-3.23,1.92-5.2,1.88c-3.85-0.08-7.8-3.63-7.17-8.49c-0.76,0-1.51,0-2.32,0
			c0.26,2.64-0.51,4.88-2.49,6.64c-1.46,1.3-3.21,1.89-5.17,1.85C2911.62,164.16,2907.53,160.65,2908.19,155.71z M2953.61,145.31
			c0-0.19,0-0.35,0-0.51c0-10.63,0-21.26,0-31.89c0-1.77-1.14-2.91-2.91-2.91c-13.96,0-27.91,0-41.87,0c-1.72,0-2.9,1.17-2.9,2.9
			c0,10.64,0,21.29,0,31.93c0,0.15,0,0.31,0,0.47C2921.84,145.31,2937.69,145.31,2953.61,145.31z M2980.16,145.31
			c0-0.2,0-0.36,0-0.52c0-3.02,0.01-6.04-0.01-9.06c0-0.3-0.07-0.61-0.19-0.88c-1.82-3.94-3.67-7.88-5.49-11.82
			c-0.15-0.32-0.31-0.41-0.65-0.41c-5.64,0.01-11.29,0.01-16.93,0.01c-0.16,0-0.31,0-0.47,0c0,7.59,0,15.13,0,22.69
			C2964.33,145.31,2972.21,145.31,2980.16,145.31z M2941.62,148.14c-11.91,0-23.78,0-35.67,0c0,1.6,0,3.18,0,4.81
			c0.96,0,1.89-0.02,2.83,0.01c0.33,0.01,0.52-0.1,0.71-0.38c1.49-2.12,3.55-3.26,6.14-3.26c2.59,0,4.65,1.13,6.15,3.25
			c0.2,0.29,0.41,0.39,0.75,0.38c1.14-0.02,2.29-0.02,3.43,0c0.32,0.01,0.49-0.1,0.67-0.36c1.5-2.14,3.57-3.28,6.18-3.28
			c2.61,0,4.67,1.16,6.18,3.29c0.09,0.12,0.21,0.31,0.33,0.31c0.77,0.03,1.54,0.01,2.31,0.01
			C2941.62,151.3,2941.62,149.73,2941.62,148.14z M2956.43,148.13c0,1.63,0,3.2,0,4.79c0.09,0.01,0.15,0.02,0.21,0.02
			c1.79,0,3.58,0.01,5.37-0.01c0.16,0,0.37-0.15,0.47-0.29c3.09-4.45,9.33-4.45,12.41,0c0.15,0.21,0.29,0.31,0.56,0.31
			c1.44-0.01,2.87-0.01,4.31-0.01c0.13,0,0.25-0.02,0.37-0.03c0-1.62,0-3.19,0-4.78C2972.21,148.13,2964.33,148.13,2956.43,148.13z
			 M2932.79,161.44c2.57,0,4.69-2.09,4.7-4.65c0.01-2.58-2.1-4.7-4.68-4.71c-2.58,0-4.73,2.14-4.71,4.69
			C2928.11,159.34,2930.23,161.44,2932.79,161.44z M2968.69,161.44c2.57-0.01,4.68-2.11,4.69-4.67c0.01-2.58-2.14-4.71-4.75-4.69
			c-2.55,0.01-4.65,2.14-4.64,4.71C2964,159.35,2966.13,161.45,2968.69,161.44z M2915.65,161.44c2.57-0.01,4.68-2.11,4.68-4.67
			c0.01-2.57-2.12-4.69-4.71-4.69c-2.56,0-4.68,2.12-4.68,4.67C2910.94,159.33,2913.07,161.45,2915.65,161.44z M2944.46,152.91
			c3.07,0,6.1,0,9.12,0c0-1.61,0-3.19,0-4.77c-3.06,0-6.08,0-9.12,0C2944.46,149.74,2944.46,151.31,2944.46,152.91z"/>
		<path class="st2" d="M2929.71,117.54c6.57,0,13.14,0,19.7,0c0.18,0,0.35-0.01,0.53,0c0.74,0.06,1.29,0.63,1.31,1.35
			c0.02,0.74-0.52,1.34-1.28,1.42c-0.13,0.01-0.26,0.01-0.4,0.01c-13.25,0-26.51,0-39.76,0c-0.91,0-1.52-0.44-1.62-1.16
			c-0.12-0.84,0.43-1.54,1.28-1.62c0.12-0.01,0.23,0,0.35,0C2916.46,117.54,2923.08,117.54,2929.71,117.54z"/>
		<path class="st2" d="M2929.7,136.26c6.67,0,13.34,0,20.01,0c0.94,0,1.56,0.58,1.54,1.42c-0.02,0.71-0.52,1.25-1.26,1.34
			c-0.17,0.02-0.35,0.02-0.53,0.02c-13.17,0-26.33,0-39.5,0c-0.23,0-0.47-0.01-0.7-0.05c-0.71-0.15-1.13-0.74-1.07-1.49
			c0.05-0.65,0.6-1.18,1.27-1.24c0.13-0.01,0.26,0,0.4,0C2916.47,136.26,2923.09,136.26,2929.7,136.26z"/>
		<path class="st2" d="M2967.92,135.37c-2.55,0-5.1,0-7.65,0c-1.1,0-1.64-0.54-1.64-1.65c0-2.32,0-4.63,0-6.95
			c0-1.09,0.52-1.62,1.61-1.62c4.09,0,8.18,0.01,12.26-0.01c0.78,0,1.26,0.33,1.56,1.03c0.98,2.36,1.98,4.72,2.96,7.08
			c0.49,1.17-0.14,2.1-1.41,2.1C2973.04,135.37,2970.48,135.37,2967.92,135.37z M2973.69,132.56c-0.06-0.17-0.1-0.29-0.15-0.41
			c-0.54-1.28-1.08-2.56-1.6-3.85c-0.12-0.3-0.27-0.41-0.6-0.41c-3.15,0.01-6.3,0.01-9.45,0.01c-0.14,0-0.29,0-0.45,0
			c0,1.57,0,3.1,0,4.65C2965.51,132.56,2969.57,132.56,2973.69,132.56z"/>
		<path class="st2" d="M2963.53,140.21c-1.13,0-2.25,0-3.38,0c-0.9,0-1.53-0.58-1.53-1.4c0-0.78,0.64-1.38,1.51-1.38
			c1.64-0.01,3.28,0,4.92,0c0.61,0,1.23-0.01,1.84,0c0.92,0.02,1.52,0.58,1.51,1.41c-0.01,0.83-0.61,1.37-1.54,1.37
			C2965.76,140.21,2964.65,140.21,2963.53,140.21z"/>
	</g>
	<g>
		<path class="st2" d="M3028.99,112.51c1.24,0.53,2.44,1.06,3.64,1.57c0.47,0.2,0.95,0.39,1.41,0.61c0.24,0.11,0.4,0.08,0.59-0.1
			c0.8-0.7,1.69-1.27,2.72-1.57c0.3-0.09,0.62-0.15,0.94-0.17c1.56-0.09,2.53,0.96,2.29,2.51c-0.1,0.65-0.35,1.28-0.55,1.99
			c0.78,0.34,1.66,0.65,2.46,1.1c0.79,0.44,1.29,0.32,1.95-0.32c3.12-3.02,6.31-5.96,9.82-8.53c1.41-1.03,2.85-2.02,4.5-2.65
			c0.49-0.19,1.01-0.34,1.53-0.4c2.61-0.3,4.38,1.78,3.75,4.4c-0.3,1.23-0.89,2.33-1.56,3.39c-1.93,3.06-4.29,5.78-6.71,8.45
			c-1.23,1.35-2.48,2.68-3.74,4.01c-0.21,0.22-0.25,0.39-0.12,0.66c0.47,1.04,0.92,2.1,1.37,3.12c0.62-0.23,1.17-0.5,1.75-0.64
			c1.68-0.4,2.85,0.8,2.46,2.49c-0.28,1.19-0.99,2.13-1.74,3.06c-0.11,0.14-0.18,0.42-0.12,0.57c0.77,1.79,1.57,3.57,2.37,5.36
			c0.03,0.07,0.08,0.13,0.11,0.19c0.49-0.17,0.95-0.37,1.42-0.47c1.89-0.42,3.08,0.84,2.58,2.72c-0.27,1.03-0.82,1.91-1.5,2.71
			c-0.21,0.25-0.22,0.44-0.09,0.72c1.02,2.33,2.02,4.67,3.03,7c0.5,1.15,0.28,2.16-0.54,3.06c-0.45,0.5-0.94,0.97-1.42,1.43
			c-1.31,1.23-3.09,1.05-4.17-0.39c-5.19-6.92-10.39-13.83-15.59-20.74c-0.06-0.08-0.12-0.15-0.22-0.28
			c-0.21,0.2-0.4,0.38-0.59,0.56c-3.47,3.37-7.02,6.66-10.84,9.64c-1.01,0.79-2.07,1.51-3.13,2.22c-0.37,0.25-0.52,0.51-0.45,0.95
			c0.43,2.98,0.84,5.96,1.28,8.94c0.09,0.59-0.07,1.09-0.47,1.5c-0.82,0.85-1.65,1.71-2.52,2.51c-1.02,0.95-2.45,0.59-2.97-0.71
			c-1.17-2.94-2.33-5.89-3.49-8.84c-0.04-0.1-0.09-0.2-0.19-0.43c-0.39,0.41-0.73,0.79-1.08,1.15c-0.49,0.49-1.07,0.53-1.49,0.13
			c-0.44-0.42-0.4-1.01,0.1-1.52c0.34-0.34,0.67-0.68,1.01-1.03c0.02-0.02,0.02-0.06,0.03-0.14c-0.73-0.3-1.46-0.6-2.2-0.89
			c-2.39-0.96-4.78-1.92-7.17-2.89c-1.04-0.42-1.56-1.5-1.21-2.5c0.1-0.28,0.28-0.54,0.48-0.76c0.66-0.7,1.37-1.35,2.03-2.05
			c0.53-0.57,1.17-0.75,1.91-0.63c2.2,0.34,4.4,0.68,6.6,1.01c0.9,0.14,1.8,0.28,2.71,0.42c0.31,0.05,0.56,0.01,0.75-0.28
			c2.99-4.55,6.7-8.49,10.39-12.45c0.7-0.75,1.42-1.48,2.15-2.24c-0.11-0.1-0.2-0.19-0.29-0.26c-7-5.27-13.99-10.54-20.99-15.81
			c-1.52-1.15-1.68-3.17-0.35-4.52c0.28-0.29,0.57-0.57,0.85-0.85c1.12-1.12,2.25-1.33,3.71-0.68c2.36,1.04,4.71,2.08,7.06,3.14
			c0.36,0.16,0.61,0.16,0.93-0.11c0.8-0.68,1.7-1.21,2.73-1.45c1.8-0.42,3.03,0.81,2.61,2.6c-0.07,0.29-0.18,0.58-0.29,0.86
			C3029.18,112.13,3029.1,112.28,3028.99,112.51z M3027.71,110.5c-0.05-0.05-0.11-0.09-0.16-0.14c-0.28,0.1-0.59,0.15-0.84,0.3
			c-0.62,0.39-1.24,0.8-1.8,1.26c-0.53,0.44-1.05,0.56-1.68,0.27c-0.89-0.41-1.78-0.79-2.68-1.19c-1.74-0.77-3.48-1.55-5.22-2.31
			c-0.66-0.29-0.91-0.24-1.41,0.26c-0.31,0.31-0.61,0.61-0.92,0.92c-0.43,0.45-0.41,1.01,0.05,1.43c0.09,0.09,0.2,0.16,0.31,0.23
			c7.07,5.33,14.15,10.66,21.22,15.99c1.08,0.81,1.13,1.83,0.19,2.81c-1.61,1.69-3.25,3.37-4.82,5.1c-2.73,3.02-5.44,6.05-7.66,9.48
			c-0.56,0.87-1.43,1.21-2.46,1.05c-3.09-0.46-6.17-0.94-9.26-1.4c-0.12-0.02-0.3-0.05-0.36,0.01c-0.68,0.66-1.35,1.35-2.07,2.08
			c0.24,0.11,0.41,0.19,0.58,0.26c3.22,1.3,6.44,2.6,9.66,3.89c0.71,0.28,1.16,0.74,1.43,1.44c1.22,3.13,2.46,6.25,3.7,9.38
			c0.06,0.14,0.12,0.27,0.23,0.51c0.73-0.75,1.39-1.41,2.03-2.1c0.09-0.1,0.1-0.32,0.08-0.48c-0.39-2.87-0.79-5.74-1.21-8.61
			c-0.17-1.2,0.25-2.08,1.25-2.74c1.03-0.68,2.05-1.38,3.02-2.13c4.02-3.14,7.74-6.62,11.38-10.18c1-0.97,2-0.89,2.84,0.22
			c5.28,7.03,10.56,14.06,15.85,21.08c0.42,0.55,0.81,0.58,1.31,0.1c0.37-0.36,0.73-0.72,1.09-1.09c0.54-0.55,0.56-0.65,0.26-1.34
			c-1.07-2.47-2.12-4.94-3.21-7.4c-0.29-0.65-0.17-1.17,0.27-1.72c0.5-0.62,0.92-1.3,1.35-1.97c0.12-0.2,0.14-0.46,0.21-0.69
			c-0.05-0.04-0.09-0.09-0.14-0.13c-0.48,0.23-0.98,0.43-1.44,0.69c-0.96,0.56-1.72,0.34-2.17-0.68c-0.21-0.47-0.42-0.94-0.62-1.4
			c-0.77-1.73-1.53-3.45-2.3-5.18c-0.3-0.68-0.22-1.26,0.32-1.84c0.56-0.61,1-1.32,1.47-2c0.12-0.17,0.14-0.4,0.21-0.6
			c-0.04-0.04-0.08-0.09-0.13-0.13c-0.51,0.27-1.04,0.51-1.53,0.82c-1,0.64-1.75,0.43-2.22-0.66c-0.61-1.39-1.21-2.79-1.82-4.18
			c-0.37-0.86-0.29-1.24,0.35-1.95c2.33-2.56,4.69-5.09,6.96-7.69c1.61-1.84,3.13-3.78,4.25-5.98c0.33-0.65,0.59-1.36,0.71-2.07
			c0.17-1.05-0.58-1.77-1.62-1.55c-0.8,0.17-1.6,0.48-2.32,0.87c-2.45,1.33-4.6,3.08-6.68,4.92c-2.29,2.02-4.52,4.12-6.77,6.19
			c-0.44,0.4-0.91,0.64-1.48,0.41c-1.65-0.69-3.3-1.4-4.93-2.15c-0.74-0.34-0.91-1.17-0.5-1.89c0.26-0.46,0.49-0.93,0.69-1.41
			c0.08-0.19,0.06-0.42,0.09-0.72c-0.36,0.09-0.65,0.09-0.87,0.22c-0.76,0.46-1.54,0.92-2.22,1.48c-0.65,0.54-0.9,0.66-1.67,0.33
			c-2.06-0.89-4.11-1.77-6.17-2.66c-1.1-0.47-1.3-1.18-0.69-2.22C3027.3,111.45,3027.49,110.97,3027.71,110.5z"/>
	</g>
	<g>
		<path class="st2" d="M2917.15,222.2c0,0.55,0.02,1.12-0.01,1.69c-0.04,0.89-0.7,1.4-1.44,1.14c-0.52-0.18-0.74-0.57-0.75-1.1
			c-0.01-0.55-0.01-1.11-0.02-1.66c0-0.03-0.03-0.07-0.09-0.19c-0.31,0-0.67,0-1.02,0c-1.2,0-2.41,0.02-3.61-0.01
			c-0.48-0.01-0.65,0.16-0.61,0.63c0.03,0.42,0.02,0.84,0.01,1.26c-0.02,0.68-0.49,1.16-1.1,1.15c-0.6-0.01-1.03-0.46-1.05-1.13
			c-0.01-0.42-0.03-0.84,0.01-1.26c0.04-0.52-0.18-0.66-0.67-0.65c-0.97,0.02-1.95,0.02-2.92-0.02c-0.58-0.03-0.98-0.52-0.96-1.08
			c0.02-0.56,0.45-1,1.03-1.04c0.17-0.01,0.34-0.01,0.52-0.01c2.16,0,4.32,0,6.48,0c0.17,0,0.34,0,0.63,0
			c-1.45-2.3-1.48-4.55-0.01-6.86c-0.28-0.02-0.48-0.04-0.68-0.04c-0.76-0.01-1.53,0.01-2.29-0.01c-0.7-0.01-1.05-0.31-1.1-0.98
			c-0.03-0.41-0.19-0.54-0.57-0.51c-0.29,0.02-0.57,0.02-0.86,0c-0.57-0.03-1.04-0.04-1.05,0.78c-0.01,0.49-0.51,0.74-1.08,0.71
			c-0.53-0.03-0.97-0.38-0.99-0.93c-0.04-1.09-0.04-2.18,0.01-3.27c0.03-0.6,0.51-0.96,1.09-0.95c0.58,0.01,0.99,0.38,1.02,1.01
			c0.02,0.41,0.19,0.53,0.57,0.5c0.4-0.03,0.81-0.04,1.2,0c0.52,0.06,0.65-0.17,0.64-0.65c-0.02-2.41-0.01-4.82-0.01-7.23
			c0-6.44,0-12.89,0-19.33c0-1.11,0.35-1.47,1.48-1.47c19.83,0,39.66,0,59.48,0c1.13,0,1.48,0.35,1.48,1.46c0,8.8,0,17.59,0,26.39
			c0,0.82,0,0.82,0.8,0.82c0.19,0,0.38-0.01,0.57,0c0.58,0.04,1.08,0.08,1.08-0.78c0-0.44,0.45-0.69,0.91-0.72
			c0.48-0.04,0.86,0.16,1.07,0.61c0.06,0.14,0.1,0.29,0.11,0.44c0.01,1.01,0.03,2.03,0,3.04c-0.02,0.64-0.45,1.04-1.06,1.05
			c-0.65,0.01-1.02-0.3-1.08-0.99c-0.03-0.37-0.16-0.51-0.53-0.5c-0.32,0.02-0.65,0.02-0.97,0c-0.55-0.04-0.94,0-0.97,0.73
			c-0.02,0.51-0.47,0.75-0.99,0.76c-0.78,0-1.57,0-2.35,0.01c-0.2,0-0.4,0.02-0.68,0.04c1.44,2.29,1.46,4.52,0,6.83
			c0.27,0.01,0.47,0.03,0.66,0.03c2.28,0,4.55,0,6.83,0.01c0.6,0,1.01,0.33,1.13,0.86c0.1,0.47-0.14,0.99-0.61,1.17
			c-0.22,0.09-0.48,0.11-0.72,0.11c-0.86,0.01-1.72,0.03-2.58,0c-0.49-0.02-0.65,0.17-0.62,0.64c0.03,0.44,0.02,0.88,0,1.32
			c-0.03,0.63-0.46,1.06-1.04,1.08c-0.59,0.02-1.08-0.44-1.11-1.08c-0.02-0.48-0.02-0.96,0-1.43c0.02-0.36-0.1-0.52-0.48-0.52
			c-1.47,0.01-2.94,0.01-4.42,0c-0.34,0-0.48,0.13-0.47,0.47c0.02,0.48,0.02,0.96,0,1.43c-0.02,0.63-0.43,1.06-1.02,1.11
			c-0.56,0.05-1.06-0.34-1.14-0.97c-0.06-0.53-0.05-1.07-0.04-1.6c0.01-0.32-0.12-0.45-0.44-0.44c-1.51,0.01-3.02-0.01-4.53,0.02
			c-0.13,0-0.36,0.25-0.38,0.41c-0.05,0.49-0.01,0.99-0.02,1.49c-0.02,0.65-0.48,1.11-1.07,1.11c-0.61-0.01-1.04-0.46-1.05-1.11
			c-0.01-0.48-0.02-0.96,0-1.43c0.01-0.35-0.13-0.48-0.47-0.47c-1.47,0.01-2.94,0.01-4.42,0c-0.36,0-0.52,0.13-0.51,0.5
			c0.01,0.48,0.01,0.96-0.01,1.43c-0.03,0.66-0.49,1.12-1.08,1.1c-0.61-0.02-1.05-0.48-1.07-1.12c-0.01-0.5-0.01-0.99,0-1.49
			c0.01-0.29-0.12-0.42-0.4-0.41c-1.51,0-3.02,0-4.53,0c-0.32,0-0.44,0.14-0.43,0.45c0.02,0.46,0.02,0.92,0,1.38
			c-0.02,0.72-0.5,1.22-1.12,1.2c-0.61-0.02-1.05-0.5-1.07-1.19c-0.01-0.46-0.01-0.92,0-1.38c0.01-0.31-0.09-0.46-0.42-0.46
			c-1.51,0-3.02,0.01-4.53,0c-0.33,0-0.42,0.16-0.41,0.46c0.01,0.48,0.01,0.96,0,1.43c-0.02,0.65-0.45,1.1-1.06,1.13
			c-0.59,0.03-1.05-0.43-1.09-1.09c-0.02-0.5-0.02-0.99-0.01-1.49c0-0.31-0.13-0.45-0.44-0.45c-1.51,0.01-3.02,0.01-4.53,0
			c-0.33,0-0.43,0.16-0.42,0.46c0.01,0.5,0.01,0.99,0,1.49c-0.02,0.62-0.45,1.05-1.04,1.07c-0.58,0.01-1.05-0.43-1.08-1.04
			c-0.02-0.52,0.02-1.03-0.02-1.55c-0.01-0.15-0.2-0.41-0.31-0.41c-1.6-0.02-3.21,0-4.82,0.01
			C2917.31,222.11,2917.26,222.15,2917.15,222.2z M2909.6,182.93c0,0.29,0,0.5,0,0.7c0,8.83,0.01,17.67-0.01,26.5
			c0,0.59,0.16,0.73,0.73,0.73c18.89-0.02,37.79-0.02,56.68,0c0.58,0,0.73-0.14,0.73-0.73c-0.02-8.83-0.01-17.67-0.01-26.5
			c0-0.22,0-0.45,0-0.7C2948.32,182.93,2929,182.93,2909.6,182.93z M2947.71,213.07c-6.07,0-12.04,0-18.11,0
			c1.48,2.3,1.45,4.54,0.02,6.79c6.06,0,12.04,0,18.09,0C2946.25,217.58,2946.26,215.35,2947.71,213.07z M2916.02,219.91
			c1.89,0.01,3.47-1.57,3.47-3.46c0-1.84-1.6-3.44-3.44-3.44c-1.84,0.01-3.43,1.59-3.44,3.44
			C2912.58,218.3,2914.17,219.91,2916.02,219.91z M2961.25,219.91c1.85,0.01,3.45-1.56,3.47-3.41c0.01-1.87-1.59-3.49-3.46-3.48
			c-1.84,0-3.43,1.6-3.43,3.45C2957.83,218.33,2959.39,219.9,2961.25,219.91z M2925.07,219.91c1.85,0.01,3.45-1.57,3.47-3.41
			c0.01-1.87-1.59-3.48-3.46-3.48c-1.85,0-3.43,1.6-3.43,3.45C2921.65,218.33,2923.22,219.91,2925.07,219.91z M2952.19,219.91
			c1.86,0.02,3.44-1.54,3.47-3.4c0.03-1.88-1.56-3.49-3.44-3.5c-1.84-0.01-3.42,1.57-3.45,3.43
			C2948.75,218.28,2950.34,219.9,2952.19,219.91z"/>
		<path class="st2" d="M2937.56,196.88c0-2.89,0-5.77,0-8.66c0-0.26,0.01-0.54,0.1-0.79c0.15-0.44,0.49-0.66,0.96-0.67
			c0.49-0.01,0.86,0.21,1.03,0.66c0.09,0.24,0.1,0.52,0.1,0.79c0,5.74,0,11.47,0,17.21c0,0.17,0.01,0.35-0.01,0.52
			c-0.06,0.66-0.51,1.08-1.12,1.07c-0.59-0.01-1-0.42-1.07-1.06c-0.02-0.17-0.01-0.34-0.01-0.52
			C2937.56,202.58,2937.56,199.73,2937.56,196.88z"/>
		<path class="st2" d="M2931.56,196.88c0-3,0-6,0-9c0-0.69,0.4-1.11,1.03-1.13c0.65-0.02,1.09,0.41,1.12,1.11
			c0.01,0.19,0,0.38,0,0.57c0,3.88,0,7.76,0,11.64c0,1.93,0,3.86,0,5.79c0,0.57-0.27,0.96-0.81,1.1c-0.49,0.13-0.93-0.04-1.18-0.49
			c-0.12-0.22-0.15-0.51-0.15-0.77C2931.55,202.77,2931.56,199.83,2931.56,196.88z"/>
		<path class="st2" d="M2945.76,196.87c0,2.94,0,5.89,0,8.83c0,0.82-0.37,1.28-1.04,1.3c-0.7,0.02-1.11-0.45-1.11-1.3
			c0-5.89,0-11.77-0.01-17.66c0-0.49,0.08-0.97,0.57-1.14c0.32-0.11,0.76-0.1,1.08,0.02c0.43,0.16,0.51,0.61,0.51,1.06
			C2945.75,190.95,2945.76,193.91,2945.76,196.87z"/>
		<path class="st2" d="M2921.65,196.88c0,2.96,0,5.92,0,8.89c0,0.95-0.79,1.54-1.54,1.1c-0.26-0.15-0.43-0.49-0.57-0.78
			c-0.08-0.17-0.04-0.41-0.04-0.62c0-5.7,0-11.39,0-17.09c0-0.25,0-0.5,0.03-0.74c0.08-0.54,0.53-0.89,1.09-0.88
			c0.53,0.02,0.96,0.38,1.02,0.9c0.03,0.21,0.01,0.42,0.01,0.63C2921.65,191.15,2921.65,194.02,2921.65,196.88z"/>
		<path class="st2" d="M2955.67,196.87c0-2.98,0-5.96,0-8.94c0-0.76,0.47-1.21,1.17-1.16c0.5,0.03,0.9,0.39,0.96,0.89
			c0.03,0.25,0.03,0.5,0.03,0.74c0,5.68,0,11.35,0,17.03c0,0.19,0,0.38-0.02,0.57c-0.06,0.63-0.5,1.03-1.1,1
			c-0.6-0.02-1.02-0.44-1.04-1.08c-0.02-0.84-0.01-1.68-0.01-2.52C2955.67,201.22,2955.67,199.04,2955.67,196.87z"/>
		<path class="st2" d="M2915.6,196.88c0,2.92,0,5.85-0.01,8.77c0,0.28-0.03,0.59-0.15,0.83c-0.22,0.43-0.64,0.6-1.12,0.5
			c-0.48-0.1-0.77-0.41-0.87-0.89c-0.03-0.15-0.02-0.3-0.02-0.46c0-5.85,0-11.7,0-17.54c0-0.15,0-0.31,0.02-0.46
			c0.11-0.58,0.56-0.92,1.16-0.88c0.56,0.04,0.95,0.41,0.97,1.01c0.03,0.84,0.01,1.68,0.01,2.52
			C2915.61,192.48,2915.6,194.68,2915.6,196.88z"/>
		<path class="st2" d="M2927.65,196.87c0,2.92,0,5.85-0.01,8.77c0,0.28,0.02,0.65-0.14,0.81c-0.26,0.26-0.67,0.52-0.99,0.5
			c-0.32-0.03-0.66-0.37-0.9-0.65c-0.13-0.16-0.1-0.47-0.1-0.72c0-5.81,0-11.62,0-17.43c0-0.13-0.01-0.27,0-0.4
			c0.06-0.62,0.5-1.02,1.11-1.01c0.61,0.01,1.02,0.42,1.02,1.06c0.01,1.59,0.01,3.17,0.01,4.76
			C2927.65,194.01,2927.65,195.44,2927.65,196.87z"/>
		<path class="st2" d="M2961.71,196.82c0-2.94,0-5.89,0-8.83c0-0.77,0.35-1.19,0.98-1.23c0.59-0.03,1.05,0.31,1.15,0.89
			c0.03,0.19,0.03,0.38,0.03,0.57c0,5.75,0,11.5,0,17.26c0,0.17,0.01,0.35-0.01,0.52c-0.06,0.61-0.52,1.02-1.11,1.01
			c-0.58-0.01-1.03-0.44-1.03-1.07c-0.02-1.39-0.01-2.79-0.01-4.19C2961.71,200.1,2961.71,198.46,2961.71,196.82z"/>
		<path class="st2" d="M2949.66,196.87c0-2.94,0-5.89,0-8.83c0-0.84,0.35-1.27,1.03-1.29c0.7-0.01,1.11,0.45,1.11,1.29
			c0,5.89,0,11.77,0,17.66c0,0.49-0.08,0.97-0.58,1.14c-0.32,0.11-0.75,0.09-1.08-0.03c-0.45-0.16-0.5-0.62-0.49-1.06
			C2949.67,202.8,2949.66,199.83,2949.66,196.87z"/>
	</g>
	<g>
		<path class="st2" d="M3078.8,216.67c0.73,1.96,1.31,3.53,2.1,5.65c-1.74,0-2.7,0-3.66,0c-24.51,0-49.02-0.02-73.53,0.05
			c-1.94,0.01-3.12-0.57-4.15-2.18c-1.89-2.94-4.01-5.73-5.96-8.64c-0.58-0.87-1.18-1.89-1.29-2.89c-0.15-1.35,0.11-2.66,2.11-2.64
			c7,0.06,14.01,0.01,21.01,0.05c0.57,0,1.38,0.21,1.65,0.61c1.58,2.32,3.89,2.1,6.24,2.1c12.57-0.03,25.14-0.13,37.71,0.05
			c3.83,0.06,7.12-0.75,10.35-2.78c4.93-3.1,9.46-3.67,15.88-2.49C3084.34,208.07,3081.5,212.49,3078.8,216.67z"/>
		<path class="st2" d="M2997.67,203.12c0-7.24,0-14.37,0-21.76c2,0,3.85,0,5.57,0c1.5-4.16,5.59-3.51,8.58-5.64
			c0.09,2.09,0.17,3.72,0.24,5.44c1,0.09,1.86,0.17,2.91,0.27c0,0.92,0,1.75,0,2.82c-4.72,0-9.36,0-13.98,0
			c-0.89,1.98-0.27,2.59,1.58,2.56c4.11-0.06,8.23-0.02,12.47-0.02c0,1.08,0,1.86,0,2.76c-0.98,0.14-1.91,0.28-3.02,0.44
			c0,4.33,0,8.62,0,13.12C3007.14,203.12,3002.46,203.12,2997.67,203.12z"/>
		<path class="st2" d="M3021.87,188.8c4.92,0,9.21,0,13.67,0c0,2.38,0,4.67,0,7.34c-4.15,0-8.32,0.03-12.5-0.05
			c-0.4-0.01-1.09-0.72-1.12-1.13C3021.8,192.94,3021.87,190.9,3021.87,188.8z"/>
		<path class="st2" d="M3038.54,188.86c4.56,0,8.99,0,13.61,0c0,2.32,0,4.59,0,7.1c-4.49,0-8.98,0-13.61,0
			C3038.54,193.56,3038.54,191.28,3038.54,188.86z"/>
		<path class="st2" d="M3035.53,206.02c-4.51,0-8.88,0-13.66,0c0-2.1-0.08-4.12,0.06-6.13c0.03-0.44,0.87-1.16,1.35-1.17
			c4.02-0.09,8.04-0.05,12.25-0.05C3035.53,201.15,3035.53,203.42,3035.53,206.02z"/>
		<path class="st2" d="M3038.58,198.83c4.65,0,9.07,0,13.63,0c0,2.39,0,4.59,0,7.04c-4.48,0-8.97,0-13.63,0
			C3038.58,203.62,3038.58,201.33,3038.58,198.83z"/>
		<path class="st2" d="M3068.56,196.03c-4.56,0-8.89,0-13.42,0c0-2.41,0-4.68,0-7.14c4.41,0,8.82,0,13.42,0
			C3068.56,191.19,3068.56,193.46,3068.56,196.03z"/>
		<path class="st2" d="M3055.07,206.12c0-2.67,0-4.89,0-7.29c4.55,0,8.96,0,13.36,0c1.08,5.98,0.04,7.29-5.69,7.29
			C3060.25,206.12,3057.76,206.12,3055.07,206.12z"/>
	</g>
	<g>
		<path class="st2" d="M3386.69,144.87c-15.49-0.07-27.94,12.28-27.99,27.76c-0.05,15.13,12.42,27.7,27.55,27.77
			c15.3,0.07,27.88-12.31,27.95-27.49C3414.28,157.44,3402.01,144.94,3386.69,144.87z"/>
		<path class="st2" d="M3455.43,133.28c-0.5-1.7-1.02-3.49-1.99-4.94c-2.39-3.58-6.15-4.17-10.14-4.15
			c-9.74,0.05-19.48,0-29.22,0.04c-0.99,0-1.53-0.32-1.96-1.21c-1.61-3.36-3.35-6.65-4.93-10.02c-0.85-1.8-2.09-2.66-4.1-2.65
			c-11.13,0.03-22.25,0.03-33.38,0c-1.95,0-3.15,0.86-3.97,2.6c-1.61,3.41-3.32,6.78-5.05,10.13c-0.25,0.48-0.87,1.05-1.34,1.07
			c-2.44,0.11-4.89,0.05-7.61,0.05c0-3.45,0.03-6.69-0.01-9.92c-0.03-2.69-1.25-3.9-3.93-3.91c-6.49-0.02-12.98-0.01-19.47,0
			c-2.49,0.01-3.97,1.41-4.03,3.91c-0.08,3.08-0.03,6.17-0.12,9.25c-0.02,0.52-0.34,1.28-0.75,1.49c-4.29,2.22-6.13,5.71-6.11,10.5
			c0.06,24.65,0.03,49.3,0.03,73.95c0,0.74,0.05,1.49,0.08,2.23c0.15,4.5,4.62,9.17,9.75,9.14c7.08-0.04,14.15,0.1,21.23,0.09
			c32.32-0.02,64.63-0.08,96.95-0.08c3.48,0,6.08-1.56,8.2-4.07c2.08-2.45,2.02-5.52,2.03-8.48c0.02-24.01,0-48.02-0.01-72.03
			C3455.57,135.29,3455.71,134.22,3455.43,133.28z M3344.91,124.12c-4.61,0-9.16,0-13.9,0c0-2.09-0.04-4.15,0.04-6.21
			c0.01-0.27,0.6-0.73,0.93-0.74c4.24-0.05,8.49-0.03,12.93-0.03C3344.91,119.59,3344.91,121.8,3344.91,124.12z M3386.92,207.17
			c-19.54,0.05-34.95-15.22-34.98-34.65c-0.03-18.96,15.41-34.31,34.37-34.43c19-0.12,34.82,15.45,34.65,34.62
			C3421.03,191.47,3405.56,207.12,3386.92,207.17z M3441.73,155.07c-0.01,2.31-1.35,3.59-3.7,3.6c-2.18,0.01-4.36,0-6.54,0
			c0,0,0,0,0-0.01c-2.29,0-4.57,0.02-6.86-0.01c-2.01-0.02-3.37-1.2-3.4-3.2c-0.08-4.73-0.07-9.46,0.01-14.19
			c0.03-1.91,1.23-3.08,3.16-3.11c4.68-0.07,9.36-0.08,14.03,0.01c2.09,0.04,3.29,1.41,3.3,3.51
			C3441.76,146.13,3441.75,150.6,3441.73,155.07z"/>
	</g>
	<path class="st6" d="M1856.56,525.84h-111.7c-12.08,0-21.96-9.88-21.96-21.96v-111.7c0-12.08,9.88-21.96,21.96-21.96h111.7
		c12.08,0,21.96,9.88,21.96,21.96v111.7C1878.52,515.95,1868.64,525.84,1856.56,525.84z"/>
	<path class="st0" d="M274.34,525.84h-111.7c-12.08,0-21.96-9.88-21.96-21.96v-111.7c0-12.08,9.88-21.96,21.96-21.96h111.7
		c12.08,0,21.96,9.88,21.96,21.96v111.7C296.3,515.95,286.42,525.84,274.34,525.84z"/>
	<path class="st3" d="M669.9,525.84H558.2c-12.08,0-21.96-9.88-21.96-21.96v-111.7c0-12.08,9.88-21.96,21.96-21.96h111.7
		c12.08,0,21.96,9.88,21.96,21.96v111.7C691.86,515.95,681.98,525.84,669.9,525.84z"/>
	<path class="st8" d="M2647.67,525.84h-111.7c-12.08,0-21.96-9.88-21.96-21.96v-111.7c0-12.08,9.88-21.96,21.96-21.96h111.7
		c12.08,0,21.96,9.88,21.96,21.96v111.7C2669.63,515.95,2659.75,525.84,2647.67,525.84z"/>
	<path class="st9" d="M3438.78,525.84h-111.7c-12.08,0-21.96-9.88-21.96-21.96v-111.7c0-12.08,9.88-21.96,21.96-21.96h111.7
		c12.08,0,21.96,9.88,21.96,21.96v111.7C3460.74,515.95,3450.86,525.84,3438.78,525.84z"/>
	<path class="st1" d="M3042.51,525.84h-111.7c-12.08,0-21.96-9.88-21.96-21.96v-111.7c0-12.08,9.88-21.96,21.96-21.96h111.7
		c12.08,0,21.96,9.88,21.96,21.96v111.7C3064.47,515.95,3054.59,525.84,3042.51,525.84z"/>
	<path class="st1" d="M3042.51,828.3h-111.7c-12.08,0-21.96-9.88-21.96-21.96v-111.7c0-12.08,9.88-21.96,21.96-21.96h111.7
		c12.08,0,21.96,9.88,21.96,21.96v111.7C3064.47,818.41,3054.59,828.3,3042.51,828.3z"/>
	<path class="st1" d="M3042.51,1129.62h-111.7c-12.08,0-21.96-9.88-21.96-21.96v-111.7c0-12.08,9.88-21.96,21.96-21.96h111.7
		c12.08,0,21.96,9.88,21.96,21.96v111.7C3064.47,1119.74,3054.59,1129.62,3042.51,1129.62z"/>
	<g>
		<path class="st2" d="M266.24,471.29c-1.95,0-3.9-0.09-5.84,0.03c-1.8,0.11-3.15-0.62-4.35-1.82c-1.94-1.95-2.57-4.42-2.53-7.06
			c0.03-1.88,0.81-2.64,2.81-3.25c-2.06-2.54-5-2.63-6.87-0.85c-0.78,0.75-1.5,1.62-2.04,2.56c-1.56,2.7-3.14,5.37-5.51,7.46
			c-0.7,0.62-1.44,1.22-2.2,1.76c-3.22,2.28-6.71,1.32-8.77-1.81c-1.1-1.67-1.54-3.57-1.57-5.53c-0.03-2.07,0.71-2.91,2.86-3.61
			c-1.96-2.49-5.11-2.76-7.26-0.49c-0.89,0.94-1.57,2.1-2.26,3.22c-1.3,2.11-2.52,4.26-3.81,6.37c-0.31,0.51-0.71,0.96-1.1,1.41
			c-1.8,2.01-4.23,2.29-6.48,0.75c-2.55-1.75-4.17-5.81-3.55-8.69c0.33-1.56,1.34-2.25,2.78-2.55c-2.2-2.74-5.62-2.74-7.81,0.02
			c-0.75,0.95-1.32,2.05-1.97,3.09c-1.48,2.36-2.94,4.73-4.44,7.09c-1.69,2.66-5.3,2.33-7.18,0.71c-2.48-2.13-3.3-4.9-3.15-8
			c0.08-1.68,1.16-2.64,2.86-2.89c-2.3-2.78-5.72-2.76-7.89,0.09c-0.96,1.27-1.7,2.7-2.54,4.06c-1.74,2.81-3.85,5.26-6.69,7.02
			c-0.58,0.36-1.21,0.63-1.92,1c0-4.94,0-9.72,0-14.52c4-1.77,6.72-4.88,8.91-8.57c0.69-1.16,1.33-2.36,2.15-3.42
			c2.25-2.94,5.55-3,8.02-0.22c-0.03,0.05-0.06,0.13-0.1,0.14c-2.07,0.57-2.89,1.5-2.79,3.61c0.12,2.59,0.82,4.98,2.8,6.87
			c1.45,1.38,3.18,1.84,5.02,1.44c0.85-0.19,1.75-0.93,2.28-1.67c1.48-2.06,2.76-4.25,4.14-6.37c1.02-1.57,1.9-3.28,3.16-4.64
			c2.02-2.19,5.41-1.77,7.15,0.68c-2.49,0.9-3.1,1.87-2.77,4.62c0.25,2.15,0.9,4.15,2.51,5.73c1.44,1.42,3.09,2.09,5.18,1.61
			c0-8.66,0-17.37,0-26.15c-0.72,0.79-1.4,1.54-2.13,2.35c-0.92-1.03-1.64-1.84-2.45-2.75c7.47-6.29,15.1-12.71,22.77-19.17
			c7.66,6.45,15.29,12.87,22.87,19.26c-0.81,0.84-1.57,1.63-2.41,2.5c-0.71-0.77-1.41-1.51-2.1-2.26c-0.06,0.04-0.13,0.08-0.19,0.12
			c0,8.7,0,17.4,0,26.21c4.81,0,9.61,0,14.4,0C266.24,461.62,266.24,466.46,266.24,471.29z"/>
		<path class="st2" d="M266.24,495.42c-32.12,0-64.25,0-96.43,0c-0.03-0.29-0.06-0.53-0.06-0.77c0-2.7,0.01-5.4-0.01-8.1
			c0-0.52,0.1-0.8,0.65-1.04c2.72-1.19,4.79-3.21,6.51-5.56c1.11-1.51,2-3.18,3.02-4.76c0.42-0.66,0.86-1.32,1.4-1.88
			c2.32-2.45,5.34-2.3,7.6,0.38c-1.07,0.25-2.2,0.56-2.51,1.69c-0.28,0.99-0.38,2.1-0.28,3.12c0.26,2.48,1.19,4.64,3.27,6.21
			c1.87,1.4,5.04,1.81,6.74-0.71c1.5-2.23,2.9-4.53,4.34-6.81c0.72-1.14,1.32-2.37,2.15-3.42c2.29-2.91,5.43-2.95,7.94-0.18
			c-0.02,0.05-0.04,0.12-0.07,0.13c-2.29,0.73-3.02,1.88-2.75,4.3c0.3,2.67,1.17,5.04,3.42,6.74c1.82,1.37,5.03,1.71,6.67-0.74
			c1.41-2.11,2.74-4.26,4.12-6.39c0.98-1.52,1.82-3.18,3.02-4.51c2.12-2.34,5.34-2.02,7.31,0.52c-2.54,1.02-3.05,1.74-2.79,4.53
			c0.22,2.39,1.04,4.53,2.92,6.22c1.89,1.7,4.76,1.81,6.78,0.49c2.79-1.82,4.95-4.21,6.71-7.01c1-1.59,1.88-3.29,3.12-4.67
			c2.17-2.42,5.33-2.14,7.41,0.48c-0.22,0.07-0.41,0.15-0.61,0.2c-1.28,0.31-2.02,1.16-2.18,2.41c-0.37,2.91,0.69,7.01,3.98,8.83
			c0.68,0.38,1.53,0.59,2.31,0.62c2.1,0.09,4.21,0.05,6.31,0.06C266.24,489.01,266.24,492.21,266.24,495.42z"/>
	</g>
	<g>
		<path class="st2" d="M569.14,497.66c0-1.67,0-3.18,0-4.69c0-19.96,0.02-39.91-0.04-59.86c0-1.63,0.41-2.57,1.87-3.42
			c14.55-8.41,29.06-16.87,43.55-25.39c1.28-0.76,2.18-0.77,3.47-0.01c14.49,8.52,29.01,16.96,43.53,25.42
			c1.06,0.62,1.91,1.13,1.91,2.7c-0.07,21.4-0.05,42.79-0.05,64.19c0,0.3-0.04,0.59-0.08,1.06
			C631.99,497.66,600.71,497.66,569.14,497.66z M659.12,493.65c0.09-0.38,0.15-0.53,0.15-0.67c0.01-19.49,0.03-38.98-0.04-58.47
			c0-0.74-0.74-1.78-1.43-2.18c-13.29-7.84-26.63-15.6-39.93-23.43c-1.21-0.71-2.07-0.68-3.26,0.02
			c-13.17,7.75-26.35,15.48-39.58,23.13c-1.37,0.79-1.85,1.63-1.84,3.19c0.05,18.73,0.03,37.46,0.04,56.19
			c0,0.73,0.07,1.46,0.1,2.22C602.03,493.65,630.52,493.65,659.12,493.65z"/>
		<path class="st2" d="M589.62,461.32c0.34,2.69-1.02,5.65,1.5,8c0.24,0.22,0.41,0.73,0.34,1.04c-0.54,2.58,0.11,5.21-0.16,7.68
			c-0.27,2.53-2.08,4.9-3.21,7.35c-0.33,0.03-0.66,0.07-0.98,0.1c-1.17-2.59-2.91-5.09-3.31-7.8c-0.31-2.13,0.61-4.49-0.18-6.77
			c-0.13-0.37-0.03-1.04,0.23-1.3c2.61-2.55,1.35-5.8,1.69-8.76c0.26-2.28-0.4-3.93-2.31-5.42c-2.64-2.05-2.56-3.5,0.23-5.29
			c10.07-6.46,20.16-12.88,30.38-19.09c1.21-0.73,3.64-0.72,4.85,0.02c10.22,6.21,20.31,12.63,30.38,19.09
			c2.75,1.76,2.76,3.14,0.21,5.33c-2.99,2.57-6.14,4.94-9.11,7.52c-0.68,0.59-1.26,1.65-1.31,2.54c-0.2,3.22-0.74,4.62-3.86,5.3
			c-4.93,1.08-9.96,1.92-14.99,2.26c-6.96,0.48-13.94,0.04-20.76-1.67c-4.55-1.14-4.83-1.89-5.66-6.55
			c-0.26-1.46-2.13-2.64-3.26-3.95C590.09,461.07,589.86,461.19,589.62,461.32z M645.95,453.12c-0.23-0.25-0.32-0.39-0.44-0.47
			c-9.4-5.94-18.8-11.9-28.24-17.78c-0.52-0.33-1.61-0.22-2.19,0.11c-2.64,1.49-5.2,3.1-7.76,4.71
			c-6.91,4.35-13.81,8.72-20.96,13.23c2.5,2.03,4.77,3.86,7.4,5.99c-0.51-4.2,1.91-5.7,4.93-6.2c4.98-0.82,10.01-1.57,15.05-1.82
			c6.81-0.35,13.64-0.12,20.28,1.82c3.77,1.1,4.55,2.03,4.98,6C641.39,456.79,643.66,454.96,645.95,453.12z M634.71,462.99
			c0-0.86,0-1.61,0-2.36c0-3.75,0.03-3.87-3.64-4.56c-9.23-1.74-18.54-1.93-27.76-0.3c-7.02,1.24-5.3,0.57-5.45,6.83
			c0,0.13,0.11,0.25,0.15,0.35C610.16,460.24,622.3,460.24,634.71,462.99z M599.07,466.83c5.84,3.15,30.56,2.93,34.01-0.08
			C621.78,464.39,610.74,464.39,599.07,466.83z"/>
	</g>
	<g>
		<path class="st2" d="M1778.61,442.84c0-9.67,0-19.33,0-29c0-3.18,1.6-4.77,4.8-4.77c12.8,0,25.6,0,38.4,0
			c3.28,0,4.89,1.61,4.89,4.89c0,19.39,0,38.78,0,58.17c0,1.24,0,1.24-1.19,1.24c-15.3,0.01-30.61,0-45.91,0.04
			c-0.95,0-0.98-0.43-0.98-1.13C1778.62,462.47,1778.61,452.66,1778.61,442.84C1778.61,442.84,1778.61,442.84,1778.61,442.84z
			 M1820.04,438.41c0-0.44,0-0.76,0-1.09c0-2.12-0.03-4.24,0.03-6.35c0.02-0.82-0.22-1.05-1.04-1.05
			c-10.94,0.03-21.89,0.02-32.83,0.02c-0.29,0-0.58,0.03-0.89,0.05c0,2.85,0,5.63,0,8.42
			C1796.89,438.41,1808.39,438.41,1820.04,438.41z M1785.24,452.7c1.29,0,2.5,0,3.72,0c10.02,0,20.04-0.01,30.06,0.01
			c0.85,0,1.06-0.27,1.04-1.07c-0.05-2.06-0.07-4.12,0.02-6.17c0.04-0.94-0.27-1.13-1.15-1.13c-10.85,0.03-21.71,0.02-32.57,0.02
			c-0.21,0-0.44-0.06-0.62,0.02c-0.2,0.09-0.48,0.3-0.48,0.46C1785.23,447.43,1785.24,450.01,1785.24,452.7z M1785.28,423.92
			c11.59,0,23.13,0,34.76,0c0-2.47-0.04-4.85,0.02-7.23c0.02-0.84-0.24-1.05-1.05-1.04c-10.91,0.02-21.83,0.02-32.74,0.02
			c-0.32,0-0.64,0.03-0.99,0.05C1785.28,418.49,1785.28,421.19,1785.28,423.92z M1819.99,467.07c0-2.82,0-5.52,0-8.23
			c-11.61,0-23.15,0-34.7,0c0,2.78,0,5.48,0,8.23C1796.86,467.07,1808.38,467.07,1819.99,467.07z"/>
		<path class="st2" d="M1848.56,465.52c0-2.42,0-4.68,0-7.07c-0.4,0-0.75,0-1.09,0c-5.97,0-11.93-0.01-17.9,0.03
			c-0.88,0.01-1.14-0.26-1.08-1.11c0.07-1.01,0.06-2.03,0-3.04c-0.05-0.78,0.19-1.02,0.99-1.02c5.97,0.03,11.93,0.02,17.9,0.02
			c0.35,0,0.71,0,1.2,0c0-0.95,0-1.84,0-2.72c0.01-1.13-0.04-2.27,0.04-3.4c0.06-0.82-0.24-0.99-1.01-0.99
			c-6,0.03-11.99,0-17.99,0.05c-0.91,0.01-1.22-0.23-1.14-1.15c0.08-0.98,0.07-1.97,0-2.95c-0.05-0.8,0.23-1.02,1.01-1.01
			c5.97,0.03,11.93,0.02,17.9,0.02c0.35,0,0.7,0,1.13,0c0-2.4,0-4.71,0-7.15c-0.35,0-0.7,0-1.05,0c-6,0-11.99-0.01-17.99,0.03
			c-0.78,0-1.06-0.19-1.01-0.99c0.07-1.01,0.06-2.03,0-3.04c-0.05-0.81,0.19-1.08,1.04-1.07c3.85,0.04,7.7,0.02,11.55,0.02
			c2.44,0,4.89,0,7.44,0c0-2.35,0-4.66,0-7.07c-6.61,0-13.24,0-19.99,0c0-1.8-0.02-3.49,0.04-5.18c0.01-0.16,0.5-0.42,0.78-0.43
			c1.76-0.04,3.52-0.02,5.28-0.02c5.19,0,10.38,0,15.57,0c2.69,0,4.1,1.4,4.1,4.06c0,16.5-0.01,33,0.02,49.49
			c0,0.84-0.25,1.05-1.06,1.04c-7.94-0.02-15.87-0.01-23.81,0.01c-0.66,0-0.98-0.13-0.94-0.89c0.06-1.19,0.07-2.39,0-3.58
			c-0.05-0.83,0.36-0.9,1.02-0.9c5.97,0.02,11.93,0.01,17.9,0.01C1847.76,465.52,1848.11,465.52,1848.56,465.52z"/>
		<path class="st2" d="M1776.73,421.88c-6.79,0-13.4,0-20.08,0c0,2.38,0,4.68,0,7.06c0.32,0.02,0.61,0.04,0.89,0.04
			c6.06,0,12.11,0.01,18.17-0.03c0.86-0.01,1.07,0.28,1.03,1.07c-0.06,1.3-0.02,2.61-0.02,3.98c-6.77,0-13.38,0-20.07,0
			c0,2.4,0,4.73,0,7.18c0.34,0,0.66,0,0.98,0c6-0.01,11.99-0.01,17.99-0.02c1.12,0,1.11,0,1.1,1.16c-0.01,1.27,0,2.55,0,3.9
			c-6.78,0-13.39,0-20.07,0c0,2.39,0,4.69,0,7.09c6.66,0,13.3,0,20,0c0,1.72,0,3.34,0,5.1c-6.67,0-13.31,0-20,0c0,2.4,0,4.68,0,7.07
			c0.3,0.02,0.61,0.05,0.92,0.05c6.06,0,12.11,0.01,18.17-0.03c0.8,0,1.05,0.24,1,1.02c-0.07,1.13-0.08,2.27-0.03,3.4
			c0.03,0.76-0.24,0.95-0.97,0.95c-4.8-0.03-9.61-0.02-14.41-0.01c-3.13,0-6.27-0.02-9.4,0.03c-0.79,0.01-1.01-0.22-1.01-1.01
			c0.02-16.56,0.01-33.12,0.02-49.67c0-2.49,1.47-3.93,3.96-3.93c6.92,0,13.84,0.02,20.76-0.02c0.89,0,1.11,0.28,1.08,1.12
			C1776.68,418.83,1776.73,420.29,1776.73,421.88z"/>
		<path class="st2" d="M1802.68,474.95c8.09,0,16.17,0,24.26,0c2.56,0,3.72,1.16,3.72,3.71c0,2.27,0.01,4.54,0,6.8
			c-0.01,1.92-1.22,3.2-3.13,3.34c-0.33,0.02-0.66,0.01-0.98,0.01c-16.02,0-32.04,0-48.07,0c-2.69,0-3.88-1.19-3.88-3.87
			c0-2.15-0.01-4.3,0.01-6.44c0.01-2.29,1.27-3.55,3.55-3.55C1786.33,474.94,1794.51,474.94,1802.68,474.95
			C1802.68,474.95,1802.68,474.95,1802.68,474.95z"/>
		<path class="st2" d="M1763.23,472.16c4.15,0,8.29-0.01,12.44,0.01c0.38,0,0.94-0.27,1.05,0.46c0.09,0.61-0.17,0.87-0.75,1.08
			c-1.85,0.65-2.78,2.05-2.78,4.03c-0.01,1.82-0.02,3.64,0.01,5.46c0.01,0.58-0.19,0.78-0.77,0.78c-7.34-0.01-14.67,0-22.01-0.02
			c-1.82-0.01-2.84-1.12-2.85-2.95c-0.01-1.94-0.01-3.88,0-5.82c0-1.95,1.08-3.04,3.05-3.04c4.2-0.01,8.41,0,12.61,0
			C1763.23,472.15,1763.23,472.15,1763.23,472.16z"/>
		<path class="st2" d="M1842.09,472.16c4.12,0,8.23,0,12.35,0c2.18,0,3.2,1,3.2,3.15c0,1.88,0.01,3.76,0,5.64
			c-0.01,1.95-1.04,2.98-2.99,2.99c-7.22,0.01-14.44,0-21.66,0.04c-0.75,0-0.98-0.22-0.96-0.96c0.05-1.76,0.02-3.52,0.01-5.28
			c-0.01-1.96-0.98-3.39-2.82-4.01c-0.61-0.21-0.8-0.5-0.73-1.09c0.09-0.67,0.61-0.45,0.97-0.46
			C1833.68,472.14,1837.89,472.15,1842.09,472.16C1842.09,472.15,1842.09,472.15,1842.09,472.16z"/>
		<path class="st2" d="M1768.32,426.85c-0.75,0-1.42-0.68-1.4-1.43c0.02-0.73,0.63-1.36,1.36-1.38c0.77-0.02,1.44,0.61,1.44,1.38
			C1769.73,426.19,1769.08,426.85,1768.32,426.85z"/>
		<path class="st2" d="M1833.46,449.78c0,0.77-0.68,1.44-1.43,1.42c-0.74-0.02-1.34-0.65-1.35-1.41c-0.01-0.77,0.65-1.42,1.43-1.4
			C1832.86,448.4,1833.46,449.02,1833.46,449.78z"/>
		<path class="st2" d="M1832.06,426.85c-0.73,0-1.37-0.64-1.38-1.37c-0.01-0.79,0.62-1.44,1.41-1.43c0.77,0.01,1.36,0.59,1.37,1.36
			C1833.46,426.2,1832.83,426.85,1832.06,426.85z"/>
		<path class="st2" d="M1836.89,424.04c0.76,0,1.36,0.59,1.38,1.35c0.02,0.8-0.6,1.45-1.38,1.45c-0.72,0-1.37-0.63-1.4-1.36
			C1835.46,424.72,1836.11,424.05,1836.89,424.04z"/>
		<path class="st2" d="M1763.51,463.4c-0.77,0-1.43-0.67-1.41-1.43c0.02-0.75,0.62-1.32,1.4-1.33c0.79-0.01,1.37,0.54,1.4,1.32
			C1764.92,462.75,1764.29,463.4,1763.51,463.4z"/>
		<path class="st2" d="M1768.3,463.4c-0.74-0.01-1.36-0.63-1.37-1.37c-0.01-0.77,0.64-1.4,1.44-1.39c0.78,0.01,1.36,0.59,1.37,1.36
			C1769.74,462.77,1769.09,463.41,1768.3,463.4z"/>
		<path class="st2" d="M1774.51,425.38c0.02,0.81-0.58,1.45-1.35,1.46c-0.72,0.01-1.37-0.62-1.4-1.35c-0.03-0.78,0.6-1.44,1.38-1.45
			C1773.9,424.04,1774.49,424.61,1774.51,425.38z"/>
		<path class="st2" d="M1773.16,448.39c0.8,0.01,1.37,0.61,1.35,1.43c-0.02,0.76-0.6,1.36-1.33,1.38c-0.75,0.02-1.42-0.64-1.43-1.4
			C1771.74,449.04,1772.39,448.38,1773.16,448.39z"/>
		<path class="st2" d="M1832.08,460.64c0.79,0.01,1.37,0.57,1.37,1.34c0.01,0.8-0.63,1.43-1.41,1.42c-0.78-0.01-1.41-0.67-1.38-1.46
			C1830.7,461.19,1831.3,460.63,1832.08,460.64z"/>
		<path class="st2" d="M1836.91,460.64c0.8,0,1.36,0.55,1.36,1.33c0,0.81-0.6,1.43-1.4,1.42c-0.74-0.01-1.37-0.62-1.38-1.36
			C1835.47,461.25,1836.09,460.64,1836.91,460.64z"/>
		<path class="st2" d="M1773.14,463.4c-0.78-0.01-1.41-0.66-1.39-1.44c0.02-0.75,0.63-1.32,1.4-1.32c0.82,0,1.35,0.52,1.36,1.33
			C1774.52,462.79,1773.93,463.41,1773.14,463.4z"/>
		<path class="st2" d="M1843.1,462.03c-0.02,0.79-0.67,1.4-1.46,1.37c-0.74-0.03-1.33-0.67-1.32-1.42c0.01-0.8,0.64-1.37,1.47-1.34
			C1842.58,460.67,1843.12,461.25,1843.1,462.03z"/>
		<path class="st2" d="M1794.9,432.62c0.91,0,1.63,0.75,1.61,1.67c-0.02,0.93-0.74,1.61-1.68,1.59c-0.88-0.02-1.59-0.73-1.59-1.6
			C1793.23,433.39,1794.01,432.61,1794.9,432.62z"/>
		<path class="st2" d="M1790.81,434.2c0.01,0.97-0.63,1.66-1.57,1.67c-0.96,0.01-1.63-0.65-1.62-1.61c0-0.9,0.66-1.61,1.53-1.64
			C1790.07,432.58,1790.8,433.27,1790.81,434.2z"/>
		<path class="st2" d="M1794.87,446.89c0.92,0,1.64,0.73,1.64,1.65c0,0.93-0.7,1.62-1.65,1.62c-0.94,0-1.65-0.71-1.64-1.63
			C1793.23,447.61,1793.95,446.9,1794.87,446.89z"/>
		<path class="st2" d="M1802.17,448.59c-0.05,0.91-0.81,1.61-1.72,1.58c-0.92-0.03-1.6-0.79-1.54-1.73
			c0.05-0.91,0.85-1.61,1.75-1.54C1801.51,446.97,1802.22,447.75,1802.17,448.59z"/>
		<path class="st2" d="M1790.81,448.51c0.01,0.96-0.66,1.65-1.6,1.65c-0.94,0.01-1.6-0.68-1.6-1.65c0.01-0.93,0.73-1.64,1.64-1.62
			C1790.13,446.91,1790.8,447.61,1790.81,448.51z"/>
		<path class="st2" d="M1794.91,421.49c-0.93,0.02-1.66-0.67-1.69-1.59c-0.03-0.91,0.67-1.64,1.61-1.67
			c0.95-0.03,1.67,0.65,1.69,1.58C1796.53,420.73,1795.83,421.47,1794.91,421.49z"/>
		<path class="st2" d="M1802.18,419.8c0.02,0.89-0.72,1.67-1.62,1.69c-0.89,0.02-1.61-0.65-1.65-1.54
			c-0.04-0.94,0.63-1.69,1.55-1.72C1801.35,418.19,1802.15,418.92,1802.18,419.8z"/>
		<path class="st2" d="M1804.61,419.88c-0.01-0.94,0.67-1.65,1.6-1.65c0.9,0,1.58,0.66,1.6,1.56c0.03,0.94-0.64,1.67-1.56,1.7
			C1805.33,421.52,1804.62,420.82,1804.61,419.88z"/>
		<path class="st2" d="M1790.81,419.83c0,0.95-0.68,1.65-1.6,1.66c-0.91,0-1.61-0.72-1.6-1.66c0.01-0.94,0.71-1.62,1.65-1.6
			C1790.15,418.24,1790.81,418.92,1790.81,419.83z"/>
		<path class="st2" d="M1794.82,461.34c0.95-0.01,1.66,0.67,1.65,1.6c-0.01,0.91-0.74,1.63-1.66,1.62c-0.89-0.01-1.58-0.69-1.6-1.58
			C1793.2,462.06,1793.89,461.35,1794.82,461.34z"/>
		<path class="st2" d="M1811.92,461.34c0.95,0.01,1.63,0.71,1.6,1.65c-0.03,0.91-0.79,1.61-1.71,1.57
			c-0.88-0.03-1.57-0.75-1.57-1.63C1810.24,462.04,1810.98,461.33,1811.92,461.34z"/>
		<path class="st2" d="M1807.81,462.97c-0.02,0.94-0.72,1.62-1.65,1.6c-0.93-0.02-1.59-0.74-1.55-1.69c0.03-0.93,0.67-1.54,1.6-1.54
			C1807.17,461.34,1807.83,462,1807.81,462.97z"/>
		<path class="st2" d="M1800.56,461.34c0.94,0.01,1.65,0.74,1.61,1.65c-0.04,0.89-0.81,1.6-1.73,1.57
			c-0.89-0.03-1.54-0.72-1.54-1.63C1798.91,461.99,1799.59,461.33,1800.56,461.34z"/>
		<path class="st2" d="M1790.81,462.92c0.01,0.95-0.67,1.64-1.6,1.65c-0.91,0.01-1.61-0.7-1.6-1.65c0.01-0.93,0.64-1.57,1.56-1.58
			C1790.15,461.33,1790.8,461.96,1790.81,462.92z"/>
	</g>
	<g>
		<path class="st2" d="M2624.23,469.19c0-1.72-0.04-3.42,0.02-5.11c0.02-0.79-0.19-1.13-1.03-1.07c-0.97,0.07-1.94,0.02-2.96,0.02
			c0,11.24,0,22.34,0,33.55c1.86,0,3.71,0,5.63,0c0,1.28,0,2.44,0,3.68c-20.67,0-41.36,0-62.1,0c0-1.19,0-2.35,0-3.64
			c1.88,0,3.73,0,5.65,0c0-31.5,0-62.88,0-94.36c1.11,0,2.14,0,3.31,0c0-1.03,0-1.96,0-2.94c14.77,0,29.4,0,44.13,0
			c0,0.94,0,1.84,0,2.85c1.13,0,2.16,0,3.31,0c0,5.33,0,10.55,0,15.91c1.28,0,2.45,0.03,3.62-0.03c0.16-0.01,0.41-0.45,0.42-0.7
			c0.04-1.44,0.02-2.88,0.02-4.32c0-0.35,0-0.71,0-1.12c4.41,0,8.71,0,13.07,0c0,19.1,0,38.16,0,57.28
			C2632.97,469.19,2628.66,469.19,2624.23,469.19z M2587.44,476.93c0,6.62,0,13.12,0,19.6c4.99,0,9.91,0,14.81,0
			c0-6.58,0-13.08,0-19.6C2597.29,476.93,2592.39,476.93,2587.44,476.93z M2624.16,460.02c0-13,0-25.94,0-38.93
			c-1.33,0-2.58,0-3.89,0c0,13,0,25.95,0,38.93C2621.6,460.02,2622.85,460.02,2624.16,460.02z M2583.42,435.29
			c0-2.28,0.05-4.51-0.02-6.73c-0.04-1.2-1.03-2.08-2.3-2.12c-1.6-0.05-3.21-0.05-4.82,0c-1.42,0.04-2.3,0.96-2.36,2.37
			c-0.03,0.75-0.01,1.51-0.01,2.26c0,1.4,0,2.79,0,4.22C2577.17,435.29,2580.27,435.29,2583.42,435.29z M2590.11,435.28
			c3.22,0,6.31,0,9.45,0c0-2.3,0.04-4.52-0.02-6.75c-0.03-1.18-1.03-2.06-2.32-2.09c-1.6-0.05-3.21-0.05-4.81,0
			c-1.25,0.04-2.25,0.87-2.29,2.01C2590.06,430.7,2590.11,432.96,2590.11,435.28z M2615.76,435.29c0-0.46,0-0.82,0-1.17
			c-0.01-1.87,0.02-3.73-0.06-5.6c-0.05-1.15-0.94-2.01-2.13-2.06c-1.7-0.07-3.41-0.07-5.11-0.01c-1.18,0.04-2.16,0.92-2.19,2.01
			c-0.07,2.25-0.02,4.51-0.02,6.83C2609.42,435.29,2612.52,435.29,2615.76,435.29z M2599.57,451.47c0-2.32,0.04-4.54-0.01-6.76
			c-0.03-1.16-0.97-2.03-2.21-2.07c-1.67-0.05-3.34-0.05-5.01,0c-1.36,0.04-2.2,0.97-2.24,2.36c-0.03,0.82-0.01,1.64-0.01,2.45
			c0,1.33,0,2.65,0,4.02C2593.3,451.47,2596.36,451.47,2599.57,451.47z M2583.43,451.45c0-2.26,0.03-4.42-0.01-6.58
			c-0.03-1.26-0.91-2.18-2.17-2.23c-1.73-0.06-3.47-0.06-5.21,0c-1.07,0.04-2,0.81-2.04,1.79c-0.08,2.31-0.03,4.63-0.03,7.01
			C2577.13,451.45,2580.22,451.45,2583.43,451.45z M2615.76,451.46c0-0.44,0-0.76,0-1.09c-0.01-1.9,0.03-3.8-0.06-5.69
			c-0.05-1.2-0.97-2.01-2.23-2.05c-1.64-0.05-3.27-0.05-4.91,0c-1.43,0.04-2.3,0.96-2.32,2.39c-0.02,1.96-0.01,3.93,0,5.89
			c0,0.18,0.06,0.36,0.1,0.55C2609.48,451.46,2612.54,451.46,2615.76,451.46z M2599.57,467.64c0-2.33,0.04-4.55-0.01-6.77
			c-0.03-1.14-0.94-2.01-2.12-2.05c-1.73-0.05-3.47-0.06-5.21,0c-1.22,0.04-2.06,0.93-2.12,2.15c-0.05,0.91-0.02,1.83-0.02,2.75
			c0,1.3,0,2.59,0,3.92C2593.3,467.64,2596.37,467.64,2599.57,467.64z M2615.68,467.63c0-2.4,0.07-4.75-0.03-7.09
			c-0.04-1-1.06-1.71-2.19-1.73c-1.6-0.04-3.21-0.04-4.82-0.01c-1.52,0.03-2.38,0.96-2.4,2.51c-0.01,1.64,0,3.28,0,4.91
			c0,0.47,0,0.94,0,1.4C2609.49,467.63,2612.56,467.63,2615.68,467.63z M2583.43,467.63c0-2.27,0.03-4.42-0.01-6.58
			c-0.02-1.24-0.87-2.18-2.05-2.22c-1.79-0.07-3.59-0.06-5.39,0c-1,0.03-1.93,0.79-1.97,1.73c-0.08,2.34-0.03,4.68-0.03,7.07
			C2577.15,467.63,2580.24,467.63,2583.43,467.63z M2599.56,419.12c0-2.33,0.04-4.58-0.02-6.83c-0.03-1.07-0.98-1.94-2.09-1.98
			c-1.73-0.05-3.47-0.05-5.2,0c-1.03,0.03-2.04,0.79-2.08,1.76c-0.09,2.34-0.03,4.68-0.03,7.05
			C2593.29,419.12,2596.36,419.12,2599.56,419.12z M2606.25,419.1c3.21,0,6.31,0,9.45,0c0-2.33,0.05-4.61-0.02-6.89
			c-0.03-1.01-0.93-1.85-1.95-1.89c-1.8-0.07-3.6-0.07-5.4-0.01c-1.14,0.04-2.04,0.99-2.06,2.12
			C2606.22,414.62,2606.25,416.81,2606.25,419.1z M2583.44,419.1c0-2.07,0-4.03,0-5.99c0-0.2,0.01-0.39-0.01-0.59
			c-0.1-1.24-0.98-2.18-2.2-2.22c-1.7-0.05-3.4-0.04-5.11,0c-1.09,0.03-2.08,0.8-2.12,1.82c-0.08,2.31-0.03,4.62-0.03,6.98
			C2577.14,419.1,2580.23,419.1,2583.44,419.1z M2630.92,433.31c1.42-0.01,2.48-1.07,2.47-2.47c-0.01-1.36-1.16-2.46-2.53-2.44
			c-1.42,0.03-2.46,1.09-2.44,2.5C2628.43,432.33,2629.46,433.32,2630.92,433.31z M2632.16,421.37c-0.07,0.78-0.13,1.43-0.2,2.1
			c0.3,0,0.67,0,0.95,0c0-1.56,0-3.04,0-4.53c-0.32,0-0.69,0-0.91,0c0.04,0.71,0.08,1.37,0.12,2.06c-0.89,0-1.63,0-2.49,0
			c0.05-0.72,0.09-1.38,0.14-2.07c-0.28,0-0.66,0-0.91,0c0,1.54,0,3.03,0,4.57c0.29,0,0.63,0,0.91,0c-0.04-0.72-0.08-1.4-0.12-2.12
			C2630.53,421.37,2631.25,421.37,2632.16,421.37z M2632.5,452.13c-0.67,0.03-1.43,0.25-1.99,0.01c-0.27-0.11-0.18-1.08-0.28-1.82
			c0.8,0.1,1.37,0.18,1.98,0.26c-0.02-0.24-0.03-0.51-0.04-0.62c-0.65,0.05-1.24,0.09-1.83,0.13c0-0.7,0-1.25,0-1.9
			c0.72,0.03,1.37,0.06,1.99,0.09c-0.11-0.5-0.86-0.61-2.86-0.36c0,1.54,0,3.05,0,4.59C2631.88,452.77,2632.36,452.68,2632.5,452.13
			z M2631.35,442.89c0-1.49,0-2.89,0-4.46c0.55,0.15,1.08,0.29,1.65,0.44c-0.03-0.23-0.06-0.49-0.08-0.71c-1.39,0-2.69,0-4.05,0
			c0,0.26,0,0.53,0,0.65c0.53-0.11,1.05-0.22,1.53-0.32c0,1.59,0,2.99,0,4.41C2630.67,442.89,2631.05,442.89,2631.35,442.89z
			 M2632.52,461.64c-0.33,0.1-0.71,0.3-1.08,0.31c-0.45,0-1.16,0.31-1.18-0.57c-0.03-1.25-0.01-2.49-0.01-3.74c-0.19,0-0.54,0-0.8,0
			c0,1.55,0,3.04,0,4.54C2631.94,462.43,2632.36,462.35,2632.52,461.64z"/>
		<path class="st2" d="M2624.16,460.02c-1.31,0-2.57,0-3.89,0c0-12.98,0-25.93,0-38.93c1.31,0,2.56,0,3.89,0
			C2624.16,434.08,2624.16,447.02,2624.16,460.02z"/>
		<path class="st2" d="M2629.18,430.84c0.03-0.86,0.2-1.75,1.11-1.99c0.53-0.14,1.32,0.06,1.75,0.41c0.74,0.6,0.75,2.14,0.2,3.02
			c-0.41,0.66-1,0.94-1.76,0.76C2629.67,432.85,2629.18,431.97,2629.18,430.84z"/>
	</g>
	<g>
		<path class="st2" d="M3041.94,1072.46c-4.87,1.42-9.16,5.41-14.67,3.92c-2.92-0.79-5.58-2.54-8.44-3.62
			c-1.01-0.38-2.5-0.5-3.41-0.03c-10.67,5.48-11.08,5.27-21.44,0.01c-0.92-0.47-2.49-0.47-3.41,0c-10.35,5.24-10.75,5.48-21.44-0.01
			c-0.91-0.47-2.39-0.34-3.41,0.04c-2.05,0.76-3.88,2.17-5.96,2.78c-2.18,0.64-4.69,1.29-6.79,0.8c-3.56-0.82-6.91-2.54-10.36-3.88
			c0-0.44,0-0.88,0-1.32c1.97-1.73,3.88-0.37,5.71,0.22c1.69,0.54,3.26,1.44,5.38,2.41c-3.72-6.53-9.35-11.12-11.1-18.09
			c0-2.36,0-4.71,0-7.07c1.29-1.06,2.43-2.56,3.91-3.07c1.56-0.53,3.45-0.12,5.38-0.12c0-5.71,0-11.07,0-16.42
			c0-4.82,0.46-5.3,5.18-5.51c0.28-0.01,0.55-0.08,1.04-0.15c0-1.44-0.17-2.85,0.07-4.18c0.12-0.68,0.97-1.23,1.49-1.83
			c0.5,0.62,1.3,1.18,1.42,1.86c0.23,1.34,0.07,2.74,0.07,4.22c1.1,0,1.96,0,3.16,0c0-2.83,0-5.67,0-8.51
			c0-0.66-0.19-1.42,0.06-1.96c0.32-0.69,1-1.22,1.53-1.82c0.48,0.63,1.35,1.24,1.38,1.89c0.14,3.37,0.07,6.75,0.07,10.51
			c2.71,0,5.32,0,7.92,0c3.57,0.01,4.47,0.88,4.47,4.36c0,1.91,0.01,3.83-0.01,5.74c-0.02,2.07-0.98,3.81-2.95,4.15
			c-3.06,0.53-3.56,2.3-3.26,4.87c0.09,0.79,0.01,1.6,0.01,2.59c0.95,0.04,1.74,0.11,2.53,0.11c8.38,0.01,16.77-0.06,25.15,0.04
			c2.95,0.04,5.17-0.86,6.5-3.55c2.27-4.6,5.97-6.15,11.01-5.92c6.68,0.3,13.38,0.04,20.07,0.11c1.04,0.01,2.08,0.45,3.12,0.69
			c0,0.44,0,0.88,0,1.33c-5.72,11.35-11.45,22.71-17.18,34.06c2.93,1.95,5.72,2.04,8.68,0.59c1.76-0.86,3.62-1.58,5.51-2.05
			c0.9-0.22,1.98,0.32,2.98,0.51C3041.94,1071.58,3041.94,1072.02,3041.94,1072.46z M3022.03,1071.17
			c1.67-5.01,5.56-8.58,4.52-14.05c-0.46-2.44,0.66-2.92,3.2-1.78c2.67-5.35,5.33-10.7,8.05-16.14c-0.45-0.13-0.65-0.24-0.84-0.24
			c-6.99-0.01-13.98-0.14-20.96,0.09c-1.44,0.05-2.94,1.33-4.22,2.3c-0.77,0.59-1.22,1.64-1.74,2.52c-1.85,3.16-4.54,4.45-8.23,4.42
			c-17.5-0.1-35.01-0.04-52.51-0.04c-0.66,0-1.41-0.17-1.96,0.09c-0.64,0.3-1.58,1.02-1.55,1.5c0.21,2.89-0.13,6.22,1.2,8.55
			c3,5.25,6.86,10,10.4,14.98c1.69-0.83,3.25-1.38,4.55-2.28c3.71-2.57,7.29-2.6,10.95,0.03c4.79,3.43,9.57,3.08,14.27-0.19
			c3.4-2.37,6.76-2.45,10.15-0.02c4.88,3.49,9.74,3.46,14.69,0.07C3015.13,1068.85,3018.41,1067.91,3022.03,1071.17z
			 M2976.78,1026.69c-7.46,0-14.54,0-21.64,0c0,6.25,0,12.36,0,18.48c5.18,0,10.21,0,15.42,0c0-1.47-0.01-2.78,0-4.09
			c0.02-3.62,0.87-4.64,4.33-5.88c0.77-0.28,1.71-1.28,1.8-2.04C2976.94,1031.07,2976.78,1028.94,2976.78,1026.69z"/>
		<path class="st2" d="M2942.61,1086.6c1.38-0.1,2.82-0.49,4.12-0.23c1.54,0.32,3.01,1.13,4.44,1.85c2.63,1.32,5.2,1.3,7.8-0.05
			c1.95-1.01,3.97-1.91,5.89-2.96c1.78-0.98,3.46-0.92,5.22,0.02c1.87,1,3.83,1.86,5.69,2.87c2.75,1.49,5.44,1.45,8.19-0.02
			c1.94-1.04,3.96-1.93,5.91-2.96c1.63-0.86,3.2-0.84,4.82,0.02c2.08,1.09,4.2,2.11,6.3,3.15c2.47,1.23,4.94,1.23,7.4-0.01
			c2.1-1.05,4.22-2.05,6.29-3.15c1.64-0.87,3.19-0.85,4.82,0c2.01,1.05,4.06,2.03,6.09,3.06c2.2,1.11,4.46,1.44,6.79,0.45
			c1.15-0.49,2.38-0.63,2.63,0.8c0.1,0.58-0.92,1.69-1.67,2.03c-2.83,1.28-5.72,1.05-8.51-0.29c-2.12-1.02-4.16-2.2-6.33-3.08
			c-0.82-0.33-2-0.32-2.82,0.01c-1.96,0.79-3.82,1.85-5.71,2.82c-3.52,1.79-7.27,2.14-10.5-0.07c-4.95-3.38-9.4-3.45-14.37-0.03
			c-3.23,2.22-7.22,2.26-10.44,0.04c-5.04-3.47-9.56-3.37-14.57,0.04c-3.17,2.16-6.83,1.72-10.31,0.06
			c-2.35-1.12-4.79-2.04-7.19-3.05C2942.61,1087.48,2942.61,1087.04,2942.61,1086.6z"/>
		<path class="st2" d="M3041.94,1080.41c-3.33,1.27-6.6,2.73-10,3.75c-2.5,0.75-5.02,0.18-7.49-0.87c-2.96-1.26-5.46-3.81-9.09-3.37
			c-0.34,0.04-1.09-0.74-1.1-1.14c0-0.53,0.5-1.47,0.87-1.51c1.4-0.15,2.94-0.35,4.21,0.1c2.26,0.8,4.36,2.05,6.52,3.13
			c2.47,1.24,4.9,1.16,7.39-0.02c1.71-0.81,3.47-1.66,5.3-2.06c1.03-0.23,2.24,0.41,3.38,0.66
			C3041.94,1079.53,3041.94,1079.97,3041.94,1080.41z"/>
		<path class="st2" d="M2942.61,1055.68c1.75,6.97,7.38,11.56,11.1,18.09c-2.12-0.97-3.7-1.87-5.38-2.41
			c-1.84-0.59-3.75-1.95-5.71-0.22C2942.61,1065.99,2942.61,1060.83,2942.61,1055.68z"/>
		<path class="st2" d="M2992.31,1079.72c-0.53,0.21-1.08,0.4-1.6,0.65c-1.91,0.93-3.82,1.89-5.72,2.84
			c-3.38,1.69-7.04,2.08-10.11-0.02c-5.2-3.56-9.87-3.47-15,0.07c-2.64,1.82-5.91,1.68-8.88,0.38c-0.69-0.3-1.54-1.53-1.41-2.15
			c0.26-1.3,1.4-1.09,2.49-0.66c2.22,0.89,4.43,0.79,6.59-0.31c1.96-1,3.96-1.9,5.9-2.93c1.91-1.02,3.74-1.06,5.66-0.04
			c2.01,1.06,4.06,2.06,6.11,3.04c2.32,1.12,4.68,1.13,7.01,0.02c2.12-1.01,4.21-2.07,6.3-3.14c1.77-0.9,3.51-0.91,5.27,0
			c1.89,0.98,3.78,1.95,5.7,2.87c1.06,0.51,1.9,1.26,1.1,2.33c-0.35,0.47-1.69,0.62-2.37,0.36c-1.84-0.71-3.56-1.72-5.34-2.59
			C2993.47,1080.17,2992.92,1079.97,2992.31,1079.72z"/>
		<path class="st2" d="M3007.19,1084.38c-0.55-0.47-1.33-0.82-1.38-1.26c-0.07-0.58,0.28-1.48,0.75-1.78
			c1.1-0.71,2.33-1.28,3.59-1.64c0.62-0.18,1.42,0.26,2.14,0.41c-0.25,0.74-0.28,1.81-0.8,2.16
			C3010.23,1083.13,3008.75,1083.65,3007.19,1084.38z"/>
		<path class="st2" d="M3024.77,1046.74c0.03,2.67-1.82,4.57-4.49,4.61c-2.58,0.03-4.68-1.95-4.74-4.46
			c-0.05-2.47,2.06-4.6,4.59-4.65C3022.75,1042.19,3024.75,1044.14,3024.77,1046.74z M3020.26,1049.04
			c0.67-1.07,1.41-1.72,1.33-2.26c-0.09-0.58-0.93-1.05-1.44-1.57c-0.51,0.54-1.37,1.04-1.43,1.62
			C3018.67,1047.37,3019.48,1047.99,3020.26,1049.04z"/>
		<path class="st2" d="M2990.67,1057.7c0,0.58,0.22,1.32-0.05,1.71c-0.39,0.54-1.2,1.23-1.72,1.15c-1.82-0.27-1.2-1.86-1.24-2.99
			c-0.03-1.09-0.44-2.58,1.26-2.76c0.54-0.06,1.32,0.63,1.7,1.18C2990.89,1056.38,2990.67,1057.12,2990.67,1057.7z"/>
		<path class="st2" d="M2951.84,1057.67c0,0.58,0.17,1.24-0.05,1.72c-0.22,0.5-0.84,1.18-1.25,1.16c-0.57-0.03-1.51-0.57-1.59-1.02
			c-0.23-1.19-0.23-2.48-0.01-3.67c0.09-0.46,1.05-1.09,1.57-1.05c0.48,0.04,1.03,0.79,1.32,1.35c0.21,0.4,0.04,1,0.04,1.51
			C2951.86,1057.67,2951.85,1057.67,2951.84,1057.67z"/>
		<path class="st2" d="M2967.35,1057.68c0,0.51,0.17,1.12-0.04,1.52c-0.29,0.56-0.85,1.33-1.32,1.35c-0.52,0.02-1.37-0.61-1.53-1.13
			c-0.27-0.88-0.33-1.96-0.07-2.82c0.22-0.72,1.05-1.26,1.6-1.88c0.45,0.62,0.96,1.21,1.33,1.87
			C2967.49,1056.87,2967.36,1057.31,2967.35,1057.68z"/>
		<path class="st2" d="M2972.16,1057.67c0-0.44-0.15-0.95,0.04-1.29c0.33-0.61,0.86-1.11,1.3-1.66c0.57,0.52,1.41,0.94,1.66,1.58
			c0.29,0.76,0.31,1.81,0.01,2.57c-0.27,0.7-1.1,1.19-1.69,1.78c-0.44-0.63-0.93-1.23-1.29-1.9
			C2972.03,1058.46,2972.16,1058.03,2972.16,1057.67z"/>
		<path class="st2" d="M3006.32,1057.73c-0.14,0.83-0.03,1.88-0.49,2.3c-0.44,0.4-1.48,0.16-2.25,0.19
			c-0.01-1.67-0.01-3.35-0.02-5.02c0.77,0.01,1.89-0.29,2.22,0.09C3006.26,1055.85,3006.17,1056.9,3006.32,1057.73z"/>
		<path class="st2" d="M3011.01,1057.71c0-0.59-0.17-1.24,0.05-1.74c0.22-0.5,0.78-1.14,1.24-1.17c0.48-0.04,1.4,0.5,1.46,0.89
			c0.2,1.28,0.2,2.62,0.03,3.9c-0.06,0.41-1,1.05-1.4,0.96c-0.53-0.12-1.06-0.78-1.35-1.33c-0.21-0.4-0.04-1-0.04-1.52
			C3011,1057.71,3011.01,1057.71,3011.01,1057.71z"/>
		<path class="st2" d="M3021.65,1057.63c0,0.59,0.17,1.25-0.05,1.74c-0.22,0.51-0.78,1.15-1.24,1.19c-0.48,0.05-1.39-0.48-1.46-0.89
			c-0.23-1.2-0.29-2.48-0.11-3.69c0.08-0.49,1.07-1.28,1.45-1.18c0.57,0.15,1.05,0.91,1.39,1.51c0.19,0.33,0.03,0.86,0.03,1.3
			C3021.66,1057.63,3021.66,1057.63,3021.65,1057.63z"/>
		<path class="st2" d="M2959.68,1058.24c0-0.02,0.14,0.66-0.12,1.11c-0.31,0.54-0.98,1.2-1.49,1.2c-0.47-0.01-1.17-0.76-1.33-1.3
			c-0.23-0.81-0.24-1.78-0.03-2.6c0.18-0.7,0.82-1.28,1.25-1.92c0.57,0.6,1.19,1.17,1.68,1.83
			C2959.82,1056.79,2959.68,1057.27,2959.68,1058.24z"/>
		<path class="st2" d="M2982.85,1057.69c0,0.44,0.15,0.96-0.03,1.29c-0.33,0.61-0.87,1.11-1.31,1.66c-0.53-0.56-1.27-1.03-1.52-1.69
			c-0.27-0.7-0.28-1.66-0.01-2.36c0.27-0.72,1.02-1.25,1.56-1.87c0.44,0.63,0.93,1.22,1.3,1.89
			C2982.98,1056.9,2982.86,1057.33,2982.85,1057.69z"/>
		<path class="st2" d="M2998.39,1058.24c0,0.05,0.16,0.74-0.1,1.18c-0.31,0.52-0.95,1.08-1.5,1.14c-0.37,0.04-1.09-0.69-1.2-1.17
			c-0.2-0.9-0.25-1.92-0.03-2.81c0.17-0.69,0.84-1.25,1.29-1.87c0.52,0.64,1.08,1.24,1.52,1.92
			C2998.53,1056.89,2998.39,1057.34,2998.39,1058.24z"/>
		<path class="st2" d="M2965.88,1032.75c-1.98,0-3.98,0.12-5.94-0.07c-0.64-0.06-1.2-0.95-1.79-1.47c0.56-0.49,1.11-1.37,1.68-1.39
			c4.03-0.12,8.08-0.13,12.11,0.01c0.55,0.02,1.06,1.06,1.59,1.63c-0.57,0.43-1.11,1.18-1.71,1.22
			C2969.85,1032.84,2967.86,1032.75,2965.88,1032.75z"/>
	</g>
	<g>
		<path class="st2" d="M3046.02,788.81c-4.29,0-8.59,0.09-12.87-0.05c-0.95-0.03-2.33-0.64-2.75-1.4
			c-12.88-23.47-25.67-46.99-38.47-70.5c-0.13-0.24-0.15-0.53-0.22-0.82c2.05-1.06,2.8,0.47,3.7,1.72
			c14.6,20.47,29.2,40.95,43.82,61.4c2.2,3.07,4.53,6.04,6.8,9.06C3046.02,788.42,3046.02,788.62,3046.02,788.81z"/>
		<path class="st2" d="M2976.11,716.63c-8.21,17.97-16.42,35.94-24.62,53.91c-2.51,5.49-5.05,10.96-7.46,16.49
			c-0.71,1.64-1.58,2.39-3.47,2.31c-3.7-0.16-7.41-0.05-11.53-0.05c0.48-0.99,0.78-1.76,1.2-2.46c14.1-22.9,28.21-45.81,42.38-68.67
			c0.62-1,1.85-1.63,2.8-2.44C2975.64,716.02,2975.87,716.33,2976.11,716.63z"/>
		<path class="st2" d="M2993.23,783.47c-4.52,0-8.85,0-13.61,0c0.41-10.82,0.81-21.56,1.23-32.53c2.79,0,5.36,0,8.34,0
			C2990.51,761.61,2991.86,772.43,2993.23,783.47z"/>
		<path class="st2" d="M2987.09,732.82c0.39,3.5,0.77,6.95,1.17,10.64c-2.43,0-4.6,0-7.01,0c0.17-3.57,0.34-7.03,0.51-10.64
			C2983.59,732.82,2985.2,732.82,2987.09,732.82z"/>
		<path class="st2" d="M2981.88,729.52c0.12-1.73,0.22-3.26,0.34-4.98c1.28,0,2.48,0,3.85,0c0.2,1.61,0.39,3.2,0.61,4.98
			C2985.11,729.52,2983.69,729.52,2981.88,729.52z"/>
		<path class="st2" d="M2985.5,722.48c-1.02,0-2.04,0-3.24,0c0.13-1.45-0.71-3.39,1.72-3.08c0.82,0.1,1.47,1.61,2.2,2.47
			C2985.96,722.08,2985.73,722.28,2985.5,722.48z"/>
	</g>
	<g>
		<path class="st2" d="M2942.98,431.13c0.56-1.27,1.64-1.93,2.83-2.53c12.94-6.45,25.88-12.9,38.8-19.4c1.43-0.72,2.68-0.72,4.11,0
			c13.1,6.58,26.21,13.14,39.33,19.67c1.61,0.8,2.32,1.94,2.32,3.77c-0.04,18.2-0.05,36.4,0.01,54.59c0.01,2.07-1.24,3.75-3.66,3.66
			c-3.04-0.11-6.09-0.09-9.13-0.01c-2.41,0.07-3.61-1.59-3.61-3.66c0.03-15.3,0.01-30.59,0.01-45.89c0-0.36,0-0.73,0-1.14
			c-18.23,0-36.39,0-54.66,0c0,0.37,0,0.73,0,1.08c0,15.24,0,30.48,0,45.72c0,0.45-0.02,0.91-0.1,1.35
			c-0.29,1.49-1.41,2.47-2.92,2.49c-3.44,0.03-6.88,0.01-10.32,0.01c-1.55,0-2.37-0.99-3-2.23
			C2942.98,469.47,2942.98,450.3,2942.98,431.13z M2953.09,484.68c0-0.46,0-0.83,0-1.2c0-15.21,0-30.42,0-45.64
			c0-0.48,0.03-0.97,0.12-1.44c0.24-1.26,1.2-2.18,2.47-2.38c0.42-0.07,0.85-0.1,1.27-0.1c19.82,0,39.64,0,59.45,0
			c0.42,0,0.85,0.03,1.27,0.1c0.96,0.15,1.75,0.65,2.11,1.54c0.28,0.69,0.43,1.48,0.43,2.22c0.02,15.27,0.02,30.53,0.02,45.8
			c0,0.36,0,0.71,0,1.06c1.39,0,2.65,0,3.96,0c0-0.26,0-0.46,0-0.65c0-16.46,0-32.93,0.02-49.39c0-0.6-0.23-0.84-0.71-1.07
			c-12.04-6.01-24.07-12.02-36.1-18.05c-0.54-0.27-0.96-0.25-1.5,0.01c-12,6.02-24.01,12.02-36.02,18.01
			c-0.56,0.28-0.76,0.58-0.76,1.22c0.02,16.35,0.02,32.7,0.02,49.05c0,0.3,0,0.6,0,0.91
			C2950.5,484.68,2951.74,484.68,2953.09,484.68z"/>
		<path class="st2" d="M2984.47,465.3c0-0.45,0-0.79,0-1.13c0-5.46,0-10.92,0-16.38c0-1.94,0.86-2.8,2.8-2.8c6.37,0,12.74,0,19.11,0
			c1.9,0,2.78,0.87,2.78,2.74c0,13.16,0,26.33,0,39.49c0,1.9-0.86,2.75-2.75,2.76c-13.17,0-26.33,0-39.49,0
			c-1.89,0-2.75-0.86-2.75-2.76c0-6.34,0-12.68,0-19.02c0-2.08,0.82-2.9,2.87-2.9c5.43,0,10.86,0,16.29,0
			C2983.66,465.3,2984,465.3,2984.47,465.3z M2992.13,449.42c1.6,1.6,3.16,3.16,4.63,4.64c1.52-1.54,3.07-3.11,4.58-4.64
			C2998.37,449.42,2995.26,449.42,2992.13,449.42z M2971.9,469.73c1.55,1.55,3.11,3.11,4.55,4.55c1.49-1.5,3.05-3.07,4.53-4.55
			C2978.05,469.73,2974.95,469.73,2971.9,469.73z M2992.22,469.73c1.54,1.55,3.09,3.11,4.52,4.56c1.5-1.5,3.06-3.08,4.54-4.56
			C2998.36,469.73,2995.25,469.73,2992.22,469.73z M2993.48,457.37c-1.48-1.48-3.03-3.04-4.57-4.58c0,3.02,0,6.12,0,9.14
			C2990.46,460.38,2992.01,458.83,2993.48,457.37z M3000.14,457.35c1.48,1.48,3.04,3.03,4.58,4.56c0-3.01,0-6.1,0-9.13
			C3003.17,454.32,3001.62,455.88,3000.14,457.35z M2968.63,473.03c0,3.1,0,6.19,0,9.12c1.51-1.52,3.06-3.08,4.54-4.56
			C2971.72,476.13,2970.18,474.58,2968.63,473.03z M2984.41,482.22c0-3.02,0-6.11,0-9.15c-1.55,1.55-3.09,3.11-4.57,4.6
			C2981.31,479.13,2982.87,480.68,2984.41,482.22z M2993.39,477.74c-1.48-1.47-3.05-3.03-4.49-4.46c0,2.85,0,5.93,0,8.92
			C2990.44,480.68,2992,479.13,2993.39,477.74z M3000.17,477.51c1.53,1.53,3.1,3.1,4.51,4.51c0-2.84,0-5.93,0-9.07
			C3003.09,474.56,3001.55,476.12,3000.17,477.51z M2992.11,465.23c3.17,0,6.26,0,9.3,0c-1.58-1.56-3.14-3.11-4.66-4.62
			C2995.27,462.09,2993.73,463.62,2992.11,465.23z M2981.11,485.56c-1.58-1.59-3.13-3.14-4.55-4.57c-1.5,1.5-3.05,3.05-4.57,4.57
			C2974.97,485.56,2978.04,485.56,2981.11,485.56z M2992.23,485.55c3.07,0,6.14,0,9.15,0c-1.55-1.55-3.1-3.1-4.57-4.58
			C2995.34,482.44,2993.79,483.99,2992.23,485.55z"/>
	</g>
	<g>
		<path class="st2" d="M3329.69,436.34c-1.68,0-3.27,0.01-4.87,0c-0.77,0-1.23-0.48-1.05-1.12c0.07-0.25,0.29-0.48,0.49-0.66
			c3.4-2.96,6.8-5.91,10.21-8.86c5.59-4.84,11.18-9.69,16.77-14.53c0.74-0.64,1.03-0.64,1.77,0c2.16,1.86,4.31,3.73,6.46,5.59
			c0.15,0.13,0.3,0.25,0.54,0.45c0-1.34,0-2.56,0-3.79c0-0.51,0-1.01,0-1.52c0-0.92,0.3-1.22,1.24-1.22c2.32-0.01,4.65,0,6.97,0
			c0.71,0,1.41-0.01,2.12,0c0.95,0.01,1.23,0.29,1.23,1.24c0,4.89,0.01,9.78-0.01,14.68c0,0.49,0.16,0.81,0.53,1.13
			c2.66,2.27,5.29,4.57,7.94,6.86c0.37,0.32,0.6,0.68,0.43,1.16c-0.18,0.48-0.59,0.6-1.08,0.6c-1.57-0.01-3.15,0-4.82,0
			c0,0.28,0,0.54,0,0.79c0,10.27,0,20.54,0,30.81c0,1.13-0.22,1.36-1.34,1.36c-14.06,0-28.13,0-42.19,0c-1.12,0-1.35-0.23-1.35-1.35
			c0-10.21,0-20.42,0-30.63C3329.69,437.03,3329.69,436.73,3329.69,436.34z M3372.72,461.72c0-8.46,0-16.9,0-25.34
			c-13.75,0-27.46,0-41.18,0c0,8.47,0,16.9,0,25.31c1.69,0,3.34,0,5.03,0c0-0.32,0-0.58,0-0.84c0-5.11,0-10.23,0-15.34
			c0-1.13,0.24-1.37,1.4-1.37c3.5,0,6.99,0,10.49,0c1.08,0,1.36,0.27,1.36,1.36c0,5.15,0,10.31,0,15.46c0,0.24,0,0.47,0,0.75
			C3357.48,461.72,3365.09,461.72,3372.72,461.72z M3377.19,434.5c-8.41-7.28-16.72-14.48-25.06-21.71
			c-8.34,7.22-16.65,14.42-25.06,21.71C3343.83,434.5,3360.43,434.5,3377.19,434.5z M3338.42,445.99c0,7.17,0,14.31,0,21.47
			c3.2,0,6.36,0,9.55,0c0-7.17,0-14.31,0-21.47C3344.78,445.99,3341.62,445.99,3338.42,445.99z M3372.74,463.6
			c-7.67,0-15.27,0-22.89,0c0,1.3,0,2.57,0,3.84c7.65,0,15.26,0,22.89,0C3372.74,466.14,3372.74,464.89,3372.74,463.6z
			 M3369.73,425.66c0-4.45,0-8.78,0-13.11c-2.66,0-5.27,0-7.91,0c0,2.03-0.01,4.01,0.01,5.99c0,0.18,0.15,0.4,0.3,0.54
			c0.78,0.7,1.58,1.38,2.38,2.07C3366.22,422.62,3367.93,424.1,3369.73,425.66z M3336.53,467.46c0-1.32,0-2.58,0-3.86
			c-1.69,0-3.33,0-5,0c0,1.3,0,2.56,0,3.86C3333.2,467.46,3334.84,467.46,3336.53,467.46z"/>
		<path class="st2" d="M3353.5,449.33c0.53,0,0.99,0,1.52,0c0.01-0.26,0.03-0.47,0.03-0.68c0-2.65,0-5.3,0-7.95
			c0-0.95,0.28-1.23,1.22-1.23c3.68,0,7.36,0,11.03,0c0.97,0,1.22,0.25,1.22,1.21c0,2.63,0,5.26,0,7.88c0,0.22,0,0.44,0,0.72
			c0.53,0,1,0,1.51,0c0,0.62,0,1.18,0,1.82c-0.23,0-0.44,0-0.66,0c-5.07,0-10.15-0.01-15.22,0.01c-0.54,0-0.73-0.15-0.67-0.68
			C3353.53,450.1,3353.5,449.74,3353.5,449.33z M3356.89,441.32c0,2.7,0,5.32,0,7.96c1.33,0,2.64,0,3.94,0c0-2.68,0-5.31,0-7.96
			C3359.5,441.32,3358.21,441.32,3356.89,441.32z M3362.7,449.27c1.37,0,2.67,0,3.97,0c0-2.68,0-5.31,0-7.94c-1.35,0-2.65,0-3.97,0
			C3362.7,444,3362.7,446.62,3362.7,449.27z"/>
		<path class="st2" d="M3358.58,425.18c-0.04,3.6-2.98,6.48-6.57,6.43c-3.52-0.05-6.38-3-6.34-6.54c0.04-3.64,2.97-6.47,6.63-6.42
			C3355.77,418.7,3358.62,421.67,3358.58,425.18z M3347.48,425.08c-0.03,2.58,2.04,4.69,4.6,4.72c2.55,0.03,4.67-2.06,4.69-4.63
			c0.02-2.56-2.02-4.68-4.54-4.71C3349.61,420.43,3347.51,422.47,3347.48,425.08z"/>
	</g>
	<g>
		<path class="st2" d="M3385.28,449.16c0.07-0.37,0.15-0.75,0.22-1.12c0.52-2.65,1.98-4.45,4.01-5.7c4.25-2.62,8.71-3.1,13.21-1.14
			c4.55,1.98,8.56,5.01,11.79,9.23c1.69,2.19,2.86,4.7,3.3,7.61c0.39,2.55,0.11,5.02-0.64,7.43c-0.54,1.75-1.24,3.41-2.29,4.84
			c-1.95,2.66-4.48,4.18-7.46,4.74c-3.43,0.64-6.71-0.06-9.91-1.45c-1.11-0.48-2.21-1.03-3.26-1.67c-3.15-1.92-4.29-6.01-2.77-9.69
			c0.13-0.3,0.25-0.61,0.36-0.92c0.42-1.31,0.25-2.5-0.56-3.56c-0.8-1.05-1.83-1.73-2.89-2.35c-0.7-0.42-1.35-0.91-1.89-1.59
			c-0.64-0.81-1.02-1.76-1.17-2.84c-0.01-0.08-0.04-0.16-0.06-0.24C3385.28,450.21,3385.28,449.68,3385.28,449.16z M3397.45,462.22
			c-1.53-0.01-2.82,1.43-2.82,3.16c0,1.76,1.24,3.21,2.77,3.22c1.55,0.02,2.82-1.41,2.84-3.19
			C3400.26,463.68,3398.99,462.23,3397.45,462.22z M3404.19,450.95c0,1.47,1.05,2.68,2.33,2.67c1.28-0.01,2.32-1.19,2.33-2.64
			c0.01-1.47-1.04-2.68-2.32-2.68C3405.24,448.28,3404.19,449.48,3404.19,450.95z M3389.14,449.35c-0.02,1.47,1.01,2.69,2.3,2.71
			c1.25,0.02,2.34-1.17,2.37-2.61c0.03-1.47-1-2.69-2.29-2.71C3390.21,446.72,3389.16,447.87,3389.14,449.35z M3411.49,455.96
			c-1.27-0.01-2.31,1.16-2.33,2.63c-0.02,1.45,1.03,2.68,2.28,2.69c1.32,0.01,2.38-1.17,2.39-2.65
			C3413.83,457.16,3412.79,455.97,3411.49,455.96z M3402.18,447.11c0.01-1.48-1-2.66-2.28-2.68c-1.32-0.01-2.38,1.16-2.39,2.64
			c-0.01,1.45,1.06,2.67,2.34,2.67C3401.13,449.75,3402.17,448.57,3402.18,447.11z"/>
		<path class="st2" d="M3444.4,447.22c-0.09,0.73-0.15,1.46-0.26,2.18c-0.45,2.8-1.41,5.31-3.28,7.29
			c-1.56,1.65-3.43,2.56-5.49,2.98c-2.56,0.53-5.12,0.49-7.64-0.31c-3.73-1.19-6.11-3.96-7.23-8.16c-0.45-1.7-0.63-3.43-0.63-5.2
			c0-6.4,0-12.79,0-19.19c0-2.08,1.48-3.52,3.24-3.03c1.08,0.3,2.11,0.8,3.15,1.26c1.73,0.78,3.5,1.33,5.38,1.41
			c2.23,0.09,4.34-0.46,6.39-1.41c0.99-0.46,1.99-0.93,3.02-1.23c1.59-0.46,2.78,0.37,3.31,2.15c0.01,0.03,0.04,0.06,0.05,0.09
			C3444.4,433.1,3444.4,440.16,3444.4,447.22z M3424.82,448.83c0,0.07-0.01,0.09,0,0.12c0.01,0.06,0.03,0.12,0.05,0.18
			c0.63,1.88,1.71,3.32,3.29,4.25c1.71,1.01,3.53,1.19,5.4,0.91c2.09-0.32,3.82-1.39,5.04-3.39c0.38-0.62,0.7-1.28,0.88-2.06
			C3434.56,448.83,3429.7,448.83,3424.82,448.83z M3426.62,440.42c1.68-0.01,3.06-1.58,3.05-3.47c-0.01-1.96-1.38-3.51-3.09-3.5
			c-1.7,0.01-3.04,1.57-3.03,3.53C3423.56,438.89,3424.93,440.43,3426.62,440.42z M3434.59,436.93c-0.01,1.92,1.34,3.48,3.02,3.49
			c1.69,0.01,3.08-1.54,3.1-3.46c0.02-1.9-1.36-3.5-3.02-3.51C3435.95,433.44,3434.61,434.95,3434.59,436.93z"/>
		<path class="st2" d="M3427.22,422.26c-0.43-0.24-0.8-0.45-1.17-0.66c-0.71-0.4-1.41-0.8-2.12-1.18c-0.85-0.45-1.72-0.5-2.63-0.22
			c-2.32,0.73-3.67,2.49-3.83,5.23c-0.11,1.89-0.06,3.79-0.07,5.68c0,0.46,0,0.92,0,1.44c-0.14-0.05-0.25-0.09-0.35-0.13
			c-3.58-1.43-7.82,0.68-9.28,4.62c-0.06,0.17-0.11,0.35-0.18,0.57c3.28,0,6.52,0,9.79,0c0,2.76,0,5.48,0,8.26
			c-0.59,0.05-1.16,0.13-1.74,0.13c-0.78,0.01-1.55-0.03-2.33-0.07c-0.16-0.01-0.34-0.09-0.47-0.21c-2.58-2.41-5.4-4.37-8.42-5.97
			c-0.14-0.08-0.28-0.24-0.35-0.4c-0.93-2.14-1.37-4.42-1.38-6.79c-0.03-6.61-0.01-13.22-0.02-19.83c0-1.97,1.5-3.4,3.19-2.97
			c0.8,0.21,1.59,0.55,2.36,0.9c1.47,0.66,2.93,1.32,4.5,1.6c2.7,0.49,5.3,0.06,7.82-1.09c0.89-0.41,1.79-0.81,2.69-1.19
			c0.32-0.13,0.65-0.19,0.99-0.27c1.63-0.37,3.06,1.45,3.02,3.06c-0.07,2.97-0.02,5.94-0.02,8.9
			C3427.22,421.85,3427.22,422.02,3427.22,422.26z M3412.49,422.98c0.01-1.94-1.35-3.5-3.05-3.51c-1.68-0.01-3.05,1.54-3.07,3.46
			c-0.01,1.94,1.34,3.51,3.04,3.52C3411.11,426.46,3412.48,424.92,3412.49,422.98z"/>
	</g>
</g>
<g id="Text">
	<rect x="1725.59" y="530.42" class="st11" width="152.94" height="30.77"/>
	<text transform="matrix(1 0 0 1 1743.0712 548.5333)" class="st6 st12 st13">Datacenter</text>
	<rect x="2514.01" y="530.42" class="st11" width="156.34" height="39.86"/>
	<text transform="matrix(1 0 0 1 2563.2356 548.5333)" class="st8 st12 st13">Hotel</text>
	<rect x="2909.58" y="530.42" class="st11" width="154.89" height="90.42"/>
	<text transform="matrix(1 0 0 1 2918.8115 548.5333)" class="st14"><tspan x="0" y="0" class="st15 st12 st13">Expansion of </tspan><tspan x="1.61" y="30.61" class="st15 st12 st13">goods distri</tspan><tspan x="127" y="30.61" class="st15 st12 st13">-</tspan><tspan x="-4.03" y="61.23" class="st15 st12 st13">bution center</tspan></text>
	<rect x="2909.58" y="832.11" class="st11" width="152.35" height="53.61"/>
	<text transform="matrix(1 0 0 1 2911.344 850.2223)" class="st14"><tspan x="0" y="0" class="st15 st12 st13">Moving of the </tspan><tspan x="61.6" y="30.61" class="st15 st12 st13">E6</tspan></text>
	<rect x="2909.22" y="1134.18" class="st11" width="154.89" height="56.13"/>
	<text transform="matrix(1 0 0 1 2913.8149 1152.2931)" class="st14"><tspan x="0" y="0" class="st15 st12 st13">Deep sea har</tspan><tspan x="137.86" y="0" class="st15 st12 st13">-</tspan><tspan x="47.39" y="30.61" class="st15 st12 st13">bour</tspan></text>
	<rect x="3305.12" y="530.42" class="st11" width="155.62" height="18.37"/>
	<text transform="matrix(1 0 0 1 3308.4211 548.5333)" class="st9 st12 st13">Culture house</text>
	<rect x="536.24" y="530.42" class="st11" width="155.62" height="63.16"/>
	<text transform="matrix(1 0 0 1 536.251 548.5333)" class="st14"><tspan x="0" y="0" class="st16 st12 st13">Fish education </tspan><tspan x="43.83" y="30.61" class="st16 st12 st13">center</tspan></text>
	<rect x="140.68" y="530.42" class="st11" width="155.62" height="88.44"/>
	<text transform="matrix(1 0 0 1 160.8254 548.5332)" class="st14"><tspan x="0" y="0" class="st17 st12 st13">Housing at </tspan><tspan x="-19.25" y="30.61" class="st17 st12 st13">the waterfornt</tspan></text>
	<rect x="2890.14" y="299.08" class="st11" width="204.26" height="20.83"/>
	<text transform="matrix(1 0 0 1 2935.1118 319.2016)" class="st1 st12 st18">Transport</text>
	<rect x="116.36" y="303.33" class="st11" width="204.26" height="20.83"/>
	<text transform="matrix(1 0 0 1 189.1132 323.4521)" class="st0 st12 st18">Land</text>
	<rect x="511.92" y="303.33" class="st11" width="204.26" height="20.83"/>
	<text transform="matrix(1 0 0 1 578.7997 323.4521)" class="st3 st12 st18">Water</text>
	<rect x="907.47" y="303.33" class="st11" width="204.26" height="20.83"/>
	<text transform="matrix(1 0 0 1 972.8798 323.4521)" class="st4 st12 st18">Forest</text>
	<rect x="1303.02" y="303.33" class="st11" width="204.26" height="20.83"/>
	<text transform="matrix(1 0 0 1 1347.6 323.4521)" class="st5 st12 st18">Mountain</text>
	<rect x="1699.29" y="303.33" class="st11" width="204.26" height="20.83"/>
	<text transform="matrix(1 0 0 1 1760.2494 323.4521)" class="st6 st12 st18">Energy</text>
	<rect x="2094.13" y="303.33" class="st11" width="204.26" height="20.83"/>
	<text transform="matrix(1 0 0 1 2136.6538 323.4521)" class="st7 st12 st18">Education</text>
	<rect x="2489.69" y="303.33" class="st11" width="204.26" height="20.83"/>
	<text transform="matrix(1 0 0 1 2542.27 323.4521)" class="st8 st12 st18">Housing</text>
	<rect x="3280.8" y="303.33" class="st11" width="204.26" height="20.83"/>
	<text transform="matrix(1 0 0 1 3334.9097 323.4521)" class="st9 st12 st18">Tourism</text>
	<path class="st6" d="M1856.56,828.3h-111.7c-12.08,0-21.96-9.88-21.96-21.96v-111.7c0-12.08,9.88-21.96,21.96-21.96h111.7
		c12.08,0,21.96,9.88,21.96,21.96v111.7C1878.52,818.41,1868.64,828.3,1856.56,828.3z"/>
	<g>
		<path class="st2" d="M1778.61,745.31c0-9.67,0-19.33,0-29c0-3.18,1.6-4.77,4.8-4.77c12.8,0,25.6,0,38.4,0
			c3.28,0,4.89,1.61,4.89,4.89c0,19.39,0,38.78,0,58.17c0,1.24,0,1.24-1.19,1.24c-15.3,0.01-30.61,0-45.91,0.04
			c-0.95,0-0.98-0.43-0.98-1.13C1778.62,764.94,1778.61,755.12,1778.61,745.31C1778.61,745.31,1778.61,745.31,1778.61,745.31z
			 M1820.04,740.88c0-0.44,0-0.76,0-1.09c0-2.12-0.03-4.24,0.03-6.35c0.02-0.82-0.22-1.05-1.04-1.05
			c-10.94,0.03-21.89,0.02-32.83,0.02c-0.29,0-0.58,0.03-0.89,0.05c0,2.85,0,5.63,0,8.42
			C1796.89,740.88,1808.39,740.88,1820.04,740.88z M1785.24,755.16c1.29,0,2.5,0,3.72,0c10.02,0,20.04-0.01,30.06,0.01
			c0.85,0,1.06-0.27,1.04-1.07c-0.05-2.06-0.07-4.12,0.02-6.17c0.04-0.94-0.27-1.13-1.15-1.13c-10.85,0.03-21.71,0.02-32.57,0.02
			c-0.21,0-0.44-0.06-0.62,0.02c-0.2,0.09-0.48,0.3-0.48,0.46C1785.23,749.89,1785.24,752.48,1785.24,755.16z M1785.28,726.38
			c11.59,0,23.13,0,34.76,0c0-2.47-0.04-4.85,0.02-7.23c0.02-0.84-0.24-1.05-1.05-1.04c-10.91,0.02-21.83,0.02-32.74,0.02
			c-0.32,0-0.64,0.03-0.99,0.05C1785.28,720.95,1785.28,723.65,1785.28,726.38z M1819.99,769.53c0-2.82,0-5.52,0-8.23
			c-11.61,0-23.15,0-34.7,0c0,2.78,0,5.48,0,8.23C1796.86,769.53,1808.38,769.53,1819.99,769.53z"/>
		<path class="st2" d="M1848.56,767.98c0-2.42,0-4.68,0-7.07c-0.4,0-0.75,0-1.09,0c-5.97,0-11.93-0.02-17.9,0.03
			c-0.88,0.01-1.14-0.26-1.08-1.11c0.07-1.01,0.06-2.03,0-3.04c-0.05-0.78,0.19-1.02,0.99-1.02c5.97,0.03,11.93,0.02,17.9,0.02
			c0.35,0,0.71,0,1.2,0c0-0.95,0-1.84,0-2.72c0.01-1.13-0.04-2.27,0.04-3.4c0.06-0.82-0.24-0.99-1.01-0.99
			c-6,0.03-11.99,0-17.99,0.05c-0.91,0.01-1.22-0.23-1.14-1.15c0.08-0.98,0.07-1.97,0-2.95c-0.05-0.8,0.23-1.02,1.01-1.01
			c5.97,0.03,11.93,0.02,17.9,0.02c0.35,0,0.7,0,1.13,0c0-2.4,0-4.71,0-7.15c-0.35,0-0.7,0-1.05,0c-6,0-11.99-0.01-17.99,0.03
			c-0.78,0-1.06-0.19-1.01-0.99c0.07-1.01,0.06-2.03,0-3.04c-0.05-0.81,0.19-1.08,1.04-1.07c3.85,0.04,7.7,0.02,11.55,0.02
			c2.44,0,4.89,0,7.44,0c0-2.35,0-4.66,0-7.07c-6.61,0-13.24,0-19.99,0c0-1.8-0.02-3.49,0.04-5.18c0.01-0.16,0.5-0.42,0.78-0.43
			c1.76-0.04,3.52-0.02,5.28-0.02c5.19,0,10.38,0,15.57,0c2.69,0,4.1,1.4,4.1,4.06c0,16.5-0.01,33,0.02,49.49
			c0,0.84-0.25,1.05-1.06,1.04c-7.94-0.02-15.87-0.01-23.81,0.01c-0.66,0-0.98-0.13-0.94-0.89c0.06-1.19,0.07-2.39,0-3.58
			c-0.05-0.83,0.36-0.9,1.02-0.9c5.97,0.02,11.93,0.01,17.9,0.01C1847.76,767.98,1848.11,767.98,1848.56,767.98z"/>
		<path class="st2" d="M1776.73,724.34c-6.79,0-13.4,0-20.08,0c0,2.38,0,4.68,0,7.06c0.32,0.02,0.61,0.04,0.89,0.04
			c6.06,0,12.11,0.01,18.17-0.03c0.86-0.01,1.07,0.28,1.03,1.07c-0.06,1.3-0.02,2.61-0.02,3.98c-6.77,0-13.38,0-20.07,0
			c0,2.4,0,4.73,0,7.18c0.34,0,0.66,0,0.98,0c6-0.01,11.99-0.01,17.99-0.02c1.12,0,1.11,0,1.1,1.16c-0.01,1.27,0,2.55,0,3.9
			c-6.78,0-13.39,0-20.07,0c0,2.39,0,4.69,0,7.09c6.66,0,13.3,0,20,0c0,1.72,0,3.34,0,5.1c-6.67,0-13.31,0-20,0c0,2.4,0,4.68,0,7.07
			c0.3,0.02,0.61,0.05,0.92,0.05c6.06,0,12.11,0.01,18.17-0.03c0.8,0,1.05,0.24,1,1.02c-0.07,1.13-0.08,2.27-0.03,3.4
			c0.03,0.76-0.24,0.95-0.97,0.95c-4.8-0.03-9.61-0.02-14.41-0.01c-3.13,0-6.27-0.02-9.4,0.03c-0.79,0.01-1.01-0.22-1.01-1.01
			c0.02-16.56,0.01-33.12,0.02-49.67c0-2.49,1.47-3.93,3.96-3.93c6.92,0,13.84,0.02,20.76-0.02c0.89,0,1.11,0.28,1.08,1.12
			C1776.68,721.29,1776.73,722.75,1776.73,724.34z"/>
		<path class="st2" d="M1802.68,777.41c8.09,0,16.17,0,24.26,0c2.56,0,3.72,1.16,3.72,3.71c0,2.27,0.01,4.54,0,6.8
			c-0.01,1.92-1.22,3.2-3.13,3.34c-0.33,0.02-0.66,0.01-0.98,0.01c-16.02,0-32.04,0-48.07,0c-2.69,0-3.88-1.19-3.88-3.87
			c0-2.15-0.01-4.3,0.01-6.44c0.01-2.29,1.27-3.55,3.55-3.55C1786.33,777.4,1794.51,777.41,1802.68,777.41
			C1802.68,777.41,1802.68,777.41,1802.68,777.41z"/>
		<path class="st2" d="M1763.23,774.62c4.15,0,8.29-0.01,12.44,0.01c0.38,0,0.94-0.27,1.05,0.46c0.09,0.61-0.17,0.87-0.75,1.08
			c-1.85,0.65-2.78,2.05-2.78,4.03c-0.01,1.82-0.02,3.64,0.01,5.46c0.01,0.58-0.19,0.78-0.77,0.78c-7.34-0.01-14.67,0-22.01-0.02
			c-1.82-0.01-2.84-1.12-2.85-2.95c-0.01-1.94-0.01-3.88,0-5.82c0-1.95,1.08-3.04,3.05-3.04c4.2-0.01,8.41,0,12.61,0
			C1763.23,774.61,1763.23,774.62,1763.23,774.62z"/>
		<path class="st2" d="M1842.09,774.62c4.12,0,8.23,0,12.35,0c2.18,0,3.2,1,3.2,3.15c0,1.88,0.01,3.76,0,5.64
			c-0.01,1.95-1.04,2.98-2.99,2.99c-7.22,0.01-14.44,0-21.66,0.04c-0.75,0-0.98-0.22-0.96-0.96c0.05-1.76,0.02-3.52,0.01-5.28
			c-0.01-1.96-0.98-3.39-2.82-4.01c-0.61-0.21-0.8-0.5-0.73-1.09c0.09-0.67,0.61-0.45,0.97-0.46
			C1833.68,774.61,1837.89,774.61,1842.09,774.62C1842.09,774.61,1842.09,774.62,1842.09,774.62z"/>
		<path class="st2" d="M1768.32,729.31c-0.75,0-1.42-0.68-1.4-1.43c0.02-0.73,0.63-1.36,1.36-1.38c0.77-0.02,1.44,0.61,1.44,1.38
			C1769.73,728.65,1769.08,729.31,1768.32,729.31z"/>
		<path class="st2" d="M1833.46,752.24c0,0.77-0.68,1.44-1.43,1.42c-0.74-0.02-1.34-0.65-1.35-1.41c-0.01-0.77,0.65-1.42,1.43-1.4
			C1832.86,750.86,1833.46,751.48,1833.46,752.24z"/>
		<path class="st2" d="M1832.06,729.31c-0.73,0-1.37-0.64-1.38-1.37c-0.01-0.79,0.62-1.44,1.41-1.43c0.77,0.01,1.36,0.59,1.37,1.36
			C1833.46,728.66,1832.83,729.31,1832.06,729.31z"/>
		<path class="st2" d="M1836.89,726.51c0.76,0,1.36,0.59,1.38,1.35c0.02,0.8-0.6,1.45-1.38,1.45c-0.72,0-1.37-0.63-1.4-1.36
			C1835.46,727.19,1836.11,726.51,1836.89,726.51z"/>
		<path class="st2" d="M1763.51,765.87c-0.77,0-1.43-0.67-1.41-1.43c0.02-0.75,0.62-1.32,1.4-1.33c0.79-0.01,1.37,0.54,1.4,1.32
			C1764.92,765.21,1764.29,765.86,1763.51,765.87z"/>
		<path class="st2" d="M1768.3,765.87c-0.74-0.01-1.36-0.63-1.37-1.37c-0.01-0.77,0.64-1.4,1.44-1.39c0.78,0.01,1.36,0.59,1.37,1.36
			C1769.74,765.23,1769.09,765.87,1768.3,765.87z"/>
		<path class="st2" d="M1774.51,727.85c0.02,0.81-0.58,1.45-1.35,1.46c-0.72,0.01-1.37-0.62-1.4-1.35c-0.03-0.78,0.6-1.44,1.38-1.45
			C1773.9,726.5,1774.49,727.07,1774.51,727.85z"/>
		<path class="st2" d="M1773.16,750.85c0.8,0.01,1.37,0.61,1.35,1.43c-0.02,0.76-0.6,1.36-1.33,1.38c-0.75,0.02-1.42-0.64-1.43-1.4
			C1771.74,751.5,1772.39,750.84,1773.16,750.85z"/>
		<path class="st2" d="M1832.08,763.1c0.79,0.01,1.37,0.57,1.37,1.34c0.01,0.8-0.63,1.43-1.41,1.42c-0.78-0.01-1.41-0.67-1.38-1.46
			C1830.7,763.65,1831.3,763.09,1832.08,763.1z"/>
		<path class="st2" d="M1836.91,763.11c0.8,0,1.36,0.55,1.36,1.33c0,0.81-0.6,1.43-1.4,1.42c-0.74-0.01-1.37-0.62-1.38-1.36
			C1835.47,763.71,1836.09,763.1,1836.91,763.11z"/>
		<path class="st2" d="M1773.14,765.86c-0.78-0.01-1.41-0.66-1.39-1.44c0.02-0.75,0.63-1.32,1.4-1.32c0.82,0,1.35,0.52,1.36,1.33
			C1774.52,765.25,1773.93,765.87,1773.14,765.86z"/>
		<path class="st2" d="M1843.1,764.49c-0.02,0.79-0.67,1.4-1.46,1.37c-0.74-0.03-1.33-0.67-1.32-1.42c0.01-0.8,0.64-1.37,1.47-1.34
			C1842.58,763.14,1843.12,763.71,1843.1,764.49z"/>
		<path class="st2" d="M1794.9,735.08c0.91,0,1.63,0.75,1.61,1.67c-0.02,0.93-0.74,1.61-1.68,1.59c-0.88-0.02-1.59-0.73-1.59-1.6
			C1793.23,735.85,1794.01,735.07,1794.9,735.08z"/>
		<path class="st2" d="M1790.81,736.66c0.01,0.97-0.63,1.66-1.57,1.67c-0.96,0.01-1.63-0.65-1.62-1.61c0-0.9,0.66-1.61,1.53-1.64
			C1790.07,735.05,1790.8,735.73,1790.81,736.66z"/>
		<path class="st2" d="M1794.87,749.35c0.92,0,1.64,0.73,1.64,1.65c0,0.93-0.7,1.62-1.65,1.62c-0.94,0-1.65-0.71-1.64-1.63
			C1793.23,750.07,1793.95,749.36,1794.87,749.35z"/>
		<path class="st2" d="M1802.17,751.05c-0.05,0.91-0.81,1.61-1.72,1.58c-0.92-0.03-1.6-0.79-1.54-1.73
			c0.05-0.91,0.85-1.61,1.75-1.54C1801.51,749.43,1802.22,750.21,1802.17,751.05z"/>
		<path class="st2" d="M1790.81,750.97c0.01,0.96-0.66,1.65-1.6,1.65c-0.94,0.01-1.6-0.68-1.6-1.65c0.01-0.93,0.73-1.64,1.64-1.62
			C1790.13,749.38,1790.8,750.08,1790.81,750.97z"/>
		<path class="st2" d="M1794.91,723.95c-0.93,0.02-1.66-0.67-1.69-1.59c-0.03-0.91,0.67-1.64,1.61-1.67
			c0.95-0.03,1.67,0.65,1.69,1.58C1796.53,723.2,1795.83,723.93,1794.91,723.95z"/>
		<path class="st2" d="M1802.18,722.26c0.02,0.89-0.72,1.67-1.62,1.69c-0.89,0.02-1.61-0.65-1.65-1.54
			c-0.04-0.94,0.63-1.69,1.55-1.72C1801.35,720.65,1802.15,721.38,1802.18,722.26z"/>
		<path class="st2" d="M1804.61,722.34c-0.01-0.94,0.67-1.65,1.6-1.65c0.9,0,1.58,0.66,1.6,1.56c0.03,0.94-0.64,1.67-1.56,1.7
			C1805.33,723.98,1804.62,723.29,1804.61,722.34z"/>
		<path class="st2" d="M1790.81,722.29c0,0.95-0.68,1.65-1.6,1.66c-0.91,0-1.61-0.72-1.6-1.66c0.01-0.94,0.71-1.62,1.65-1.6
			C1790.15,720.71,1790.81,721.38,1790.81,722.29z"/>
		<path class="st2" d="M1794.82,763.81c0.95-0.01,1.66,0.67,1.65,1.6c-0.01,0.91-0.74,1.63-1.66,1.62c-0.89-0.01-1.58-0.69-1.6-1.58
			C1793.2,764.52,1793.89,763.82,1794.82,763.81z"/>
		<path class="st2" d="M1811.92,763.81c0.95,0.01,1.63,0.71,1.6,1.65c-0.03,0.91-0.79,1.61-1.71,1.57
			c-0.88-0.03-1.57-0.75-1.57-1.63C1810.24,764.5,1810.98,763.79,1811.92,763.81z"/>
		<path class="st2" d="M1807.81,765.43c-0.02,0.94-0.72,1.62-1.65,1.6c-0.93-0.02-1.59-0.74-1.55-1.69c0.03-0.93,0.67-1.54,1.6-1.54
			C1807.17,763.8,1807.83,764.47,1807.81,765.43z"/>
		<path class="st2" d="M1800.56,763.8c0.94,0.01,1.65,0.74,1.61,1.65c-0.04,0.89-0.81,1.6-1.73,1.57c-0.89-0.03-1.54-0.72-1.54-1.63
			C1798.91,764.45,1799.59,763.79,1800.56,763.8z"/>
		<path class="st2" d="M1790.81,765.38c0.01,0.95-0.67,1.64-1.6,1.65c-0.91,0.01-1.61-0.7-1.6-1.65c0.01-0.93,0.64-1.57,1.56-1.58
			C1790.15,763.79,1790.8,764.42,1790.81,765.38z"/>
	</g>
	<rect x="1725.59" y="832.88" class="st11" width="152.94" height="84.63"/>
	<text transform="matrix(1 0 0 1 1768.6591 850.9951)" class="st14"><tspan x="0" y="0" class="st19 st12 st13">Liquid </tspan><tspan x="-18.66" y="30.61" class="st19 st12 st13">hydrogen </tspan><tspan x="-26.26" y="61.23" class="st19 st12 st13">production</tspan></text>
</g>
<g id="Hilfslinien" class="st20">
	<line class="st21" x1="38.37" y1="0" x2="38.37" y2="370.21"/>
</g>
</svg>
