<?xml version="1.0" encoding="utf-8"?>
<!-- Generator: Adobe Illustrator 23.0.6, SVG Export Plug-In . SVG Version: 6.00 Build 0)  -->
<svg version="1.1" id="Ebene_1" xmlns="http://www.w3.org/2000/svg" xmlns:xlink="http://www.w3.org/1999/xlink" x="0px" y="0px"
	 viewBox="0 0 3312.3 1961.1" style="enable-background:new 0 0 3312.3 1961.1;" xml:space="preserve">
<style type="text/css">
	.st0{fill:#FFFFFF;}
	.st1{font-family:'ArialMT';}
	.st2{font-size:4px;}
	.st3{fill-rule:evenodd;clip-rule:evenodd;fill:#7F7F7F;enable-background:new    ;}
	.st4{fill:none;stroke:#000000;stroke-width:0.33;stroke-linecap:round;stroke-linejoin:round;}
</style>
<title>mountain</title>
<text transform="matrix(1 0 0 1 1.717635e-03 1959.7499)" class="st0 st1 st2">GSEducationalVersio</text>
<text transform="matrix(1 0 0 1 37.7217 1959.7499)" class="st0 st1 st2">n</text>
<path class="st3" d="M1091.9,237.2l3.7,25.8h18.4l12.6-12.6l-2.9-23.3l-2.3-4.7L1091.9,237.2 M1044,196l-6,18.7v15.1l20.2,15.4
	l18.4-9.2v-18.4l-6.8-13.2L1044,196 M1034.7,305.7v26.1l16.4,5.1l15.1,15.1l14.1,5.9l3.6,19.5l10.5,2.8l4.7-17.6l13.8,3.7l2.9-9.2
	l-10.3-18.4l-15.1-15.1h-7.7l-10.9-12v-13.8h10.9l3.3-3.3v-8.8l-5.7-6.1h-19.5l-15.4,9.2L1034.7,305.7 M995.7,384.1h-3.3v26.5
	l19.2,4.4l8.1,17.7l11.8,11.8l3.7-10.3l-13.3-13.3l-7.3-10.3l12.7-20.7l-11.3-17.6L995.7,384.1 M1002.5,169.7l-11.3,10.4v17.2h8.6
	l11.8-7.7l5.4-12.6l-1.2-16L1002.5,169.7 M962.9,332.5l-28,10.7l28,10.7l23.6-13.3l-4.4-8.1L962.9,332.5 M891.6,130.3l-10.4,5.5
	v19.7l11.3,1.7l6.5-6.5l-3.7-13.2L891.6,130.3 M891.6,244.1l-10.7,28l2.5,11.8l3.4,16l-4,4l21.2,10.2v-8.6l11.2-14.7l15.3-34.5V236
	l5.8-17.5l18.7-5.3l15.4-10.7l8.1-13.9l-1.4-8.5l-21.4,3.2l-24.6,8.4l-10.8,10.8h-16.3l-6.4,30.8L891.6,244.1 M793.5,284.7v-87.9
	l17.8-118.5l59.3-78.2h734.3l-82,98.1l-28.8,56l-64.3,65.3l-36.8,46.1l-39.8,49.9l-88.8,56.3l-77.7-19.3l-44.6,44.8l-24.9,63.7
	l-8.5,55.9l-92.5,51.9l-24.5,34l-118.5,17.3l-25.7-5.8l-21.7-45.9l-1.2-2.6l-11.5-47.1l5-44.4l7.7-22.5v-8.8l-12.5-12.5l28.3-64.8
	L793.5,284.7"/>
<line class="st4" x1="1522.9" y1="98.2" x2="1604.9" y2="0.2"/>
<line class="st4" x1="1494.1" y1="154.2" x2="1522.9" y2="98.2"/>
<line class="st4" x1="1429.8" y1="219.5" x2="1494.1" y2="154.2"/>
<line class="st4" x1="1393.1" y1="265.6" x2="1429.8" y2="219.5"/>
<line class="st4" x1="1353.3" y1="315.5" x2="1393.1" y2="265.6"/>
<line class="st4" x1="1264.5" y1="371.9" x2="1353.3" y2="315.5"/>
<line class="st4" x1="1186.7" y1="352.6" x2="1264.5" y2="371.9"/>
<line class="st4" x1="1142.2" y1="397.4" x2="1186.7" y2="352.6"/>
<line class="st4" x1="1117.3" y1="461.1" x2="1142.2" y2="397.4"/>
<line class="st4" x1="1108.8" y1="517" x2="1117.3" y2="461.1"/>
<line class="st4" x1="1016.2" y1="568.9" x2="1108.8" y2="517"/>
<line class="st4" x1="991.7" y1="602.8" x2="1016.2" y2="568.9"/>
<line class="st4" x1="873.2" y1="620.2" x2="991.7" y2="602.8"/>
<line class="st4" x1="847.5" y1="614.4" x2="873.2" y2="620.2"/>
<line class="st4" x1="825.8" y1="568.6" x2="847.5" y2="614.4"/>
<line class="st4" x1="824.6" y1="566" x2="825.8" y2="568.6"/>
<line class="st4" x1="813.1" y1="518.8" x2="824.6" y2="566"/>
<line class="st4" x1="818.1" y1="474.4" x2="813.1" y2="518.8"/>
<line class="st4" x1="825.8" y1="451.9" x2="818.1" y2="474.4"/>
<line class="st4" x1="825.8" y1="443.1" x2="825.8" y2="451.9"/>
<line class="st4" x1="813.3" y1="430.5" x2="825.8" y2="443.1"/>
<line class="st4" x1="841.6" y1="365.7" x2="813.3" y2="430.5"/>
<line class="st4" x1="793.5" y1="284.7" x2="841.6" y2="365.7"/>
<line class="st4" x1="793.5" y1="196.8" x2="793.5" y2="284.7"/>
<line class="st4" x1="811.3" y1="78.3" x2="793.5" y2="196.8"/>
<line class="st4" x1="870.6" y1="0.2" x2="811.3" y2="78.3"/>
<line class="st4" x1="881.2" y1="155.5" x2="881.2" y2="135.8"/>
<line class="st4" x1="892.5" y1="157.2" x2="881.2" y2="155.5"/>
<line class="st4" x1="899" y1="150.6" x2="892.5" y2="157.2"/>
<line class="st4" x1="895.4" y1="137.4" x2="899" y2="150.6"/>
<line class="st4" x1="891.6" y1="130.3" x2="895.4" y2="137.4"/>
<line class="st4" x1="881.2" y1="135.8" x2="891.6" y2="130.3"/>
<line class="st4" x1="903.9" y1="202.5" x2="920.2" y2="202.5"/>
<line class="st4" x1="897.5" y1="233.3" x2="903.9" y2="202.5"/>
<line class="st4" x1="891.6" y1="244.1" x2="897.5" y2="233.3"/>
<line class="st4" x1="880.8" y1="272.1" x2="891.6" y2="244.1"/>
<line class="st4" x1="883.3" y1="283.8" x2="880.8" y2="272.1"/>
<line class="st4" x1="886.7" y1="299.9" x2="883.3" y2="283.8"/>
<line class="st4" x1="882.7" y1="303.8" x2="886.7" y2="299.9"/>
<line class="st4" x1="903.9" y1="314" x2="882.7" y2="303.8"/>
<line class="st4" x1="903.9" y1="305.4" x2="903.9" y2="314"/>
<line class="st4" x1="915.1" y1="290.8" x2="903.9" y2="305.4"/>
<line class="st4" x1="930.3" y1="256.3" x2="915.1" y2="290.8"/>
<line class="st4" x1="930.3" y1="236" x2="930.3" y2="256.3"/>
<line class="st4" x1="936.2" y1="218.5" x2="930.3" y2="236"/>
<line class="st4" x1="954.9" y1="213.2" x2="936.2" y2="218.5"/>
<line class="st4" x1="970.3" y1="202.5" x2="954.9" y2="213.2"/>
<line class="st4" x1="978.4" y1="188.6" x2="970.3" y2="202.5"/>
<line class="st4" x1="977" y1="180.1" x2="978.4" y2="188.6"/>
<line class="st4" x1="955.6" y1="183.3" x2="977" y2="180.1"/>
<line class="st4" x1="931" y1="191.7" x2="955.6" y2="183.3"/>
<line class="st4" x1="920.2" y1="202.5" x2="931" y2="191.7"/>
<line class="st4" x1="991.2" y1="197.3" x2="991.2" y2="180.1"/>
<line class="st4" x1="999.8" y1="197.3" x2="991.2" y2="197.3"/>
<line class="st4" x1="1011.6" y1="189.6" x2="999.8" y2="197.3"/>
<line class="st4" x1="1017" y1="177" x2="1011.6" y2="189.6"/>
<line class="st4" x1="1015.7" y1="161" x2="1017" y2="177"/>
<line class="st4" x1="1002.5" y1="169.7" x2="1015.7" y2="161"/>
<line class="st4" x1="991.2" y1="180.1" x2="1002.5" y2="169.7"/>
<line class="st4" x1="1038" y1="214.7" x2="1044" y2="196"/>
<line class="st4" x1="1038" y1="229.8" x2="1038" y2="214.7"/>
<line class="st4" x1="1058.1" y1="245.2" x2="1038" y2="229.8"/>
<line class="st4" x1="1076.6" y1="236" x2="1058.1" y2="245.2"/>
<line class="st4" x1="1076.6" y1="217.6" x2="1076.6" y2="236"/>
<line class="st4" x1="1069.7" y1="204.4" x2="1076.6" y2="217.6"/>
<line class="st4" x1="1044" y1="196" x2="1069.7" y2="204.4"/>
<line class="st4" x1="1091.9" y1="237.2" x2="1121.4" y2="222.5"/>
<line class="st4" x1="1095.6" y1="263" x2="1091.9" y2="237.2"/>
<line class="st4" x1="1114" y1="263" x2="1095.6" y2="263"/>
<line class="st4" x1="1126.6" y1="250.4" x2="1114" y2="263"/>
<line class="st4" x1="1123.7" y1="227.1" x2="1126.6" y2="250.4"/>
<line class="st4" x1="1121.4" y1="222.5" x2="1123.7" y2="227.1"/>
<line class="st4" x1="1060.8" y1="279.6" x2="1080.3" y2="279.6"/>
<line class="st4" x1="1045.4" y1="288.8" x2="1060.8" y2="279.6"/>
<line class="st4" x1="1034.7" y1="305.7" x2="1045.4" y2="288.8"/>
<line class="st4" x1="1034.7" y1="331.8" x2="1034.7" y2="305.7"/>
<line class="st4" x1="1051.1" y1="336.9" x2="1034.7" y2="331.8"/>
<line class="st4" x1="1066.2" y1="352" x2="1051.1" y2="336.9"/>
<line class="st4" x1="1080.3" y1="357.9" x2="1066.2" y2="352"/>
<line class="st4" x1="1083.8" y1="377.4" x2="1080.3" y2="357.9"/>
<line class="st4" x1="1094.3" y1="380.2" x2="1083.8" y2="377.4"/>
<line class="st4" x1="1099.1" y1="362.6" x2="1094.3" y2="380.2"/>
<line class="st4" x1="1112.8" y1="366.3" x2="1099.1" y2="362.6"/>
<line class="st4" x1="1115.7" y1="357.1" x2="1112.8" y2="366.3"/>
<line class="st4" x1="1105.5" y1="338.7" x2="1115.7" y2="357.1"/>
<line class="st4" x1="1090.3" y1="323.6" x2="1105.5" y2="338.7"/>
<line class="st4" x1="1082.6" y1="323.6" x2="1090.3" y2="323.6"/>
<line class="st4" x1="1071.7" y1="311.6" x2="1082.6" y2="323.6"/>
<line class="st4" x1="1071.7" y1="308.7" x2="1071.7" y2="311.6"/>
<line class="st4" x1="1071.7" y1="297.8" x2="1071.7" y2="308.7"/>
<line class="st4" x1="1082.6" y1="297.8" x2="1071.7" y2="297.8"/>
<line class="st4" x1="1085.9" y1="294.5" x2="1082.6" y2="297.8"/>
<line class="st4" x1="1085.9" y1="285.7" x2="1085.9" y2="294.5"/>
<line class="st4" x1="1080.3" y1="279.6" x2="1085.9" y2="285.7"/>
<line class="st4" x1="995.7" y1="384.1" x2="1016" y2="372.3"/>
<line class="st4" x1="992.4" y1="384.1" x2="995.7" y2="384.1"/>
<line class="st4" x1="992.4" y1="410.6" x2="992.4" y2="384.1"/>
<line class="st4" x1="1011.6" y1="415" x2="992.4" y2="410.6"/>
<line class="st4" x1="1019.7" y1="432.7" x2="1011.6" y2="415"/>
<line class="st4" x1="1031.5" y1="444.5" x2="1019.7" y2="432.7"/>
<line class="st4" x1="1035.2" y1="434.2" x2="1031.5" y2="444.5"/>
<line class="st4" x1="1021.9" y1="420.9" x2="1035.2" y2="434.2"/>
<line class="st4" x1="1014.6" y1="410.6" x2="1021.9" y2="420.9"/>
<line class="st4" x1="1027.3" y1="389.9" x2="1014.6" y2="410.6"/>
<line class="st4" x1="1016" y1="372.3" x2="1027.3" y2="389.9"/>
<line class="st4" x1="986.5" y1="340.6" x2="982.1" y2="332.5"/>
<line class="st4" x1="982.1" y1="332.5" x2="962.9" y2="332.5"/>
<line class="st4" x1="962.9" y1="332.5" x2="934.9" y2="343.1"/>
<line class="st4" x1="934.9" y1="343.1" x2="962.9" y2="353.9"/>
<line class="st4" x1="962.9" y1="353.9" x2="986.5" y2="340.6"/>
<path class="st3" d="M3245.4,544.6l2.5,6.2l5.8,8.8l9.4,3.3l2.1-6v-12.2l-4-37l-2.8-6.3l-5,12.1l-5.7,18.8l1.8,8.2L3245.4,544.6
	 M3054.8,101l-18.6,12.3l9.2,13.9l24.9,11.4l9.7,26.3l56.2,4.8l16.6,16.6l16.1,5.3h27.9l25.1,4.9l9.1-5.6l-17-27.3l-4.4-18.4
	l-3.1-4.4l-12.3-17l-12.8-12.9l-18.4,18.4l-16.7,9.1h-41.3l-14,5.2l-12.9-12.9l-10.3-10.3L3054.8,101 M3004.1,754.8l-2.8,17.5
	l19.5,29.7l14.4,15.3l27.3,15.7l14.9,7.4h24.3l18,3.8l16.2,5.2h15.1l19.8-12.8l21.8-10.7l13.9-12.3l6.2-13.7l-8.7-34.1l11.7-17.6
	l11.9-11.9l25.7-16.7l15.9-12.5l3.2-17.5l1.1-53.8l-37.5-37.5l-48.2-25.3l-36.8,10.6l-2.2,21.3l-26.3,26.3v23.9l4.8,17.6l-20.3,11.1
	l-24.6,7.4l-16.8,19.2l-10.9,18.3l-21.9,9.3l-15.5,3.7L3004.1,754.8 M2982.6,840l-2.2,10.7l3.6,12.7l10.5,10.5l11.9,6l13.9,13.9
	l4.4,12.7l27,9.1l5.1,1.7l17.1,11l19.2,6.1l23.4,1.5l14.4,0.9h25.1l9.9-10l50.8-17.6l3.6-7.3v-8.2l-4.3-9l-10.1-10.1l-7-7l-13.9,2.8
	l-12.2,4.2l-17.1,1.7L3138,880l-21.5-3.6h-10.2l-24.8-15.4l-19.4-6.6l-10.6-10.6l-29.2-5.8h-9.8l-23.1-11.5L2982.6,840
	 M2124.7,705.2l30.1-107.2l35-78.3l64.7-80l69.1-98.7l122.2-174.6l89.3-89.5l49.5-76.7h513.9l12.4,12.3l25.9,10.7l30.7,7.8l15,14.9
	l4.5,7.4l8.5,13.8l11.6,18.8l8.4,10.3l7.3,9l5.6,15.1l10.8,17.5v11.8l7,15.9l16.6,16.5h35.4l14-7v887.5l-46-5.7l-70.2,9.4l-84.5,30
	l-93.7,28.2l-92.7,5.4l-61.9-8.5l-87.1-3.3l-21.5-41.6l6-111.1l12.5-59.7l-46.8-46.8l-78.5-111.7l-77.6-43.7l-106.5-38.7l-91.2,17.6
	l-100,77.6l-98.9,18.1L2124.7,705.2"/>
<line class="st4" x1="3110.9" y1="12.5" x2="3098.5" y2="0.2"/>
<line class="st4" x1="3136.8" y1="23.2" x2="3110.9" y2="12.5"/>
<line class="st4" x1="3167.5" y1="31" x2="3136.8" y2="23.2"/>
<line class="st4" x1="3182.5" y1="45.9" x2="3167.5" y2="31"/>
<line class="st4" x1="3187" y1="53.3" x2="3182.5" y2="45.9"/>
<line class="st4" x1="3195.5" y1="67.1" x2="3187" y2="53.3"/>
<line class="st4" x1="3207.1" y1="85.9" x2="3195.5" y2="67.1"/>
<line class="st4" x1="3215.5" y1="96.2" x2="3207.1" y2="85.9"/>
<line class="st4" x1="3222.7" y1="105.2" x2="3215.5" y2="96.2"/>
<line class="st4" x1="3228.3" y1="120.3" x2="3222.7" y2="105.2"/>
<line class="st4" x1="3239.1" y1="137.8" x2="3228.3" y2="120.3"/>
<line class="st4" x1="3239.1" y1="149.6" x2="3239.1" y2="137.8"/>
<line class="st4" x1="3246.2" y1="165.5" x2="3239.1" y2="149.6"/>
<line class="st4" x1="3262.7" y1="182" x2="3246.2" y2="165.5"/>
<line class="st4" x1="3298.1" y1="182" x2="3262.7" y2="182"/>
<line class="st4" x1="3312.1" y1="175" x2="3298.1" y2="182"/>
<line class="st4" x1="3312.1" y1="1062.5" x2="3312.1" y2="175"/>
<line class="st4" x1="3266.1" y1="1056.9" x2="3312.1" y2="1062.5"/>
<line class="st4" x1="3195.9" y1="1066.3" x2="3266.1" y2="1056.9"/>
<line class="st4" x1="3111.4" y1="1096.3" x2="3195.9" y2="1066.3"/>
<line class="st4" x1="3017.7" y1="1124.5" x2="3111.4" y2="1096.3"/>
<line class="st4" x1="2925" y1="1130" x2="3017.7" y2="1124.5"/>
<line class="st4" x1="2863.1" y1="1121.5" x2="2925" y2="1130"/>
<line class="st4" x1="2776" y1="1118.2" x2="2863.1" y2="1121.5"/>
<line class="st4" x1="2754.5" y1="1076.6" x2="2776" y2="1118.2"/>
<line class="st4" x1="2760.5" y1="965.4" x2="2754.5" y2="1076.6"/>
<line class="st4" x1="2773" y1="905.8" x2="2760.5" y2="965.4"/>
<line class="st4" x1="2726.2" y1="859" x2="2773" y2="905.8"/>
<line class="st4" x1="2647.8" y1="747.3" x2="2726.2" y2="859"/>
<line class="st4" x1="2570.1" y1="703.6" x2="2647.8" y2="747.3"/>
<line class="st4" x1="2463.6" y1="664.9" x2="2570.1" y2="703.6"/>
<line class="st4" x1="2372.4" y1="682.5" x2="2463.6" y2="664.9"/>
<line class="st4" x1="2272.4" y1="760.1" x2="2372.4" y2="682.5"/>
<line class="st4" x1="2173.5" y1="778.2" x2="2272.4" y2="760.1"/>
<line class="st4" x1="2124.7" y1="705.1" x2="2173.5" y2="778.2"/>
<line class="st4" x1="2154.8" y1="597.9" x2="2124.7" y2="705.1"/>
<line class="st4" x1="2189.8" y1="519.6" x2="2154.8" y2="597.9"/>
<line class="st4" x1="2254.5" y1="439.6" x2="2189.8" y2="519.6"/>
<line class="st4" x1="2323.6" y1="340.9" x2="2254.5" y2="439.6"/>
<line class="st4" x1="2445.8" y1="166.4" x2="2323.6" y2="340.9"/>
<line class="st4" x1="2535.1" y1="76.9" x2="2445.8" y2="166.4"/>
<line class="st4" x1="2584.6" y1="0.2" x2="2535.1" y2="76.9"/>
<line class="st4" x1="3162.9" y1="129.4" x2="3181.4" y2="111"/>
<line class="st4" x1="3146.2" y1="138.6" x2="3162.9" y2="129.4"/>
<line class="st4" x1="3104.9" y1="138.6" x2="3146.2" y2="138.6"/>
<line class="st4" x1="3090.9" y1="143.7" x2="3104.9" y2="138.6"/>
<line class="st4" x1="3078" y1="130.8" x2="3090.9" y2="143.7"/>
<line class="st4" x1="3067.7" y1="120.5" x2="3078" y2="130.8"/>
<line class="st4" x1="3054.8" y1="101" x2="3067.7" y2="120.5"/>
<line class="st4" x1="3036.2" y1="113.2" x2="3054.8" y2="101"/>
<line class="st4" x1="3045.4" y1="127.2" x2="3036.2" y2="113.2"/>
<line class="st4" x1="3070.3" y1="138.6" x2="3045.4" y2="127.2"/>
<line class="st4" x1="3080" y1="164.9" x2="3070.3" y2="138.6"/>
<line class="st4" x1="3136.2" y1="169.7" x2="3080" y2="164.9"/>
<line class="st4" x1="3152.8" y1="186.3" x2="3136.2" y2="169.7"/>
<line class="st4" x1="3169" y1="191.6" x2="3152.8" y2="186.3"/>
<line class="st4" x1="3196.9" y1="191.6" x2="3169" y2="191.6"/>
<line class="st4" x1="3222" y1="196.5" x2="3196.9" y2="191.6"/>
<line class="st4" x1="3231" y1="190.9" x2="3222" y2="196.5"/>
<line class="st4" x1="3214" y1="163.6" x2="3231" y2="190.9"/>
<line class="st4" x1="3209.6" y1="145.2" x2="3214" y2="163.6"/>
<line class="st4" x1="3206.5" y1="140.8" x2="3209.6" y2="145.2"/>
<line class="st4" x1="3194.1" y1="123.8" x2="3206.5" y2="140.8"/>
<line class="st4" x1="3181.4" y1="111" x2="3194.1" y2="123.8"/>
<line class="st4" x1="3253.4" y1="513.5" x2="3258.4" y2="501.4"/>
<line class="st4" x1="3247.7" y1="532.4" x2="3253.4" y2="513.5"/>
<line class="st4" x1="3249.5" y1="540.5" x2="3247.7" y2="532.4"/>
<line class="st4" x1="3245.4" y1="544.6" x2="3249.5" y2="540.5"/>
<line class="st4" x1="3247.9" y1="550.8" x2="3245.4" y2="544.6"/>
<line class="st4" x1="3253.6" y1="559.6" x2="3247.9" y2="550.8"/>
<line class="st4" x1="3263" y1="562.9" x2="3253.6" y2="559.6"/>
<line class="st4" x1="3265.2" y1="556.9" x2="3263" y2="562.9"/>
<line class="st4" x1="3265.2" y1="544.8" x2="3265.2" y2="556.9"/>
<line class="st4" x1="3261.2" y1="507.8" x2="3265.2" y2="544.8"/>
<line class="st4" x1="3258.4" y1="501.4" x2="3261.2" y2="507.8"/>
<line class="st4" x1="3151" y1="583.7" x2="3187.9" y2="573.1"/>
<line class="st4" x1="3148.8" y1="605" x2="3151" y2="583.7"/>
<line class="st4" x1="3122.5" y1="631.3" x2="3148.8" y2="605"/>
<line class="st4" x1="3122.5" y1="655.2" x2="3122.5" y2="631.3"/>
<line class="st4" x1="3127.3" y1="672.8" x2="3122.5" y2="655.2"/>
<line class="st4" x1="3107" y1="683.9" x2="3127.3" y2="672.8"/>
<line class="st4" x1="3082.5" y1="691.2" x2="3107" y2="683.9"/>
<line class="st4" x1="3065.6" y1="710.4" x2="3082.5" y2="691.2"/>
<line class="st4" x1="3054.7" y1="728.7" x2="3065.6" y2="710.4"/>
<line class="st4" x1="3032.8" y1="737.9" x2="3054.7" y2="728.7"/>
<line class="st4" x1="3017.3" y1="741.6" x2="3032.8" y2="737.9"/>
<line class="st4" x1="3004.1" y1="754.8" x2="3017.3" y2="741.6"/>
<line class="st4" x1="3001.4" y1="772.3" x2="3004.1" y2="754.8"/>
<line class="st4" x1="3020.8" y1="802" x2="3001.4" y2="772.3"/>
<line class="st4" x1="3035.3" y1="817.3" x2="3020.8" y2="802"/>
<line class="st4" x1="3062.6" y1="833.1" x2="3035.3" y2="817.3"/>
<line class="st4" x1="3077.4" y1="840.5" x2="3062.6" y2="833.1"/>
<line class="st4" x1="3101.7" y1="840.5" x2="3077.4" y2="840.5"/>
<line class="st4" x1="3119.7" y1="844.3" x2="3101.7" y2="840.5"/>
<line class="st4" x1="3135.9" y1="849.4" x2="3119.7" y2="844.3"/>
<line class="st4" x1="3151" y1="849.4" x2="3135.9" y2="849.4"/>
<line class="st4" x1="3170.9" y1="836.6" x2="3151" y2="849.4"/>
<line class="st4" x1="3192.6" y1="826" x2="3170.9" y2="836.6"/>
<line class="st4" x1="3206.5" y1="813.7" x2="3192.6" y2="826"/>
<line class="st4" x1="3212.7" y1="799.9" x2="3206.5" y2="813.7"/>
<line class="st4" x1="3204" y1="765.9" x2="3212.7" y2="799.9"/>
<line class="st4" x1="3215.7" y1="748.3" x2="3204" y2="765.9"/>
<line class="st4" x1="3227.6" y1="736.4" x2="3215.7" y2="748.3"/>
<line class="st4" x1="3253.3" y1="719.7" x2="3227.6" y2="736.4"/>
<line class="st4" x1="3269.2" y1="707.2" x2="3253.3" y2="719.7"/>
<line class="st4" x1="3272.4" y1="689.7" x2="3269.2" y2="707.2"/>
<line class="st4" x1="3273.5" y1="635.9" x2="3272.4" y2="689.7"/>
<line class="st4" x1="3236" y1="598.5" x2="3273.5" y2="635.9"/>
<line class="st4" x1="3187.9" y1="573.1" x2="3236" y2="598.5"/>
<line class="st4" x1="2982.6" y1="839.9" x2="2989.4" y2="826.3"/>
<line class="st4" x1="2980.4" y1="850.6" x2="2982.6" y2="839.9"/>
<line class="st4" x1="2984" y1="863.3" x2="2980.4" y2="850.6"/>
<line class="st4" x1="2994.5" y1="873.8" x2="2984" y2="863.3"/>
<line class="st4" x1="3006.4" y1="879.7" x2="2994.5" y2="873.8"/>
<line class="st4" x1="3020.3" y1="893.7" x2="3006.4" y2="879.7"/>
<line class="st4" x1="3024.7" y1="906.3" x2="3020.3" y2="893.7"/>
<line class="st4" x1="3051.7" y1="915.4" x2="3024.7" y2="906.3"/>
<line class="st4" x1="3056.8" y1="917.2" x2="3051.7" y2="915.4"/>
<line class="st4" x1="3073.9" y1="928.2" x2="3056.8" y2="917.2"/>
<line class="st4" x1="3093.1" y1="934.3" x2="3073.9" y2="928.2"/>
<line class="st4" x1="3116.5" y1="935.7" x2="3093.1" y2="934.3"/>
<line class="st4" x1="3130.9" y1="936.6" x2="3116.5" y2="935.7"/>
<line class="st4" x1="3156" y1="936.6" x2="3130.9" y2="936.6"/>
<line class="st4" x1="3166" y1="926.7" x2="3156" y2="936.6"/>
<line class="st4" x1="3216.8" y1="909.1" x2="3166" y2="926.7"/>
<line class="st4" x1="3220.4" y1="901.8" x2="3216.8" y2="909.1"/>
<line class="st4" x1="3220.4" y1="893.7" x2="3220.4" y2="901.8"/>
<line class="st4" x1="3216" y1="884.7" x2="3220.4" y2="893.7"/>
<line class="st4" x1="3205.9" y1="874.5" x2="3216" y2="884.7"/>
<line class="st4" x1="3198.9" y1="867.6" x2="3205.9" y2="874.5"/>
<line class="st4" x1="3185.1" y1="870.4" x2="3198.9" y2="867.6"/>
<line class="st4" x1="3172.9" y1="874.6" x2="3185.1" y2="870.4"/>
<line class="st4" x1="3155.8" y1="876.3" x2="3172.9" y2="874.6"/>
<line class="st4" x1="3138" y1="879.9" x2="3155.8" y2="876.3"/>
<line class="st4" x1="3116.5" y1="876.3" x2="3138" y2="879.9"/>
<line class="st4" x1="3106.3" y1="876.3" x2="3116.5" y2="876.3"/>
<line class="st4" x1="3081.5" y1="860.9" x2="3106.3" y2="876.3"/>
<line class="st4" x1="3062.1" y1="854.3" x2="3081.5" y2="860.9"/>
<line class="st4" x1="3051.5" y1="843.7" x2="3062.1" y2="854.3"/>
<line class="st4" x1="3022.2" y1="837.8" x2="3051.5" y2="843.7"/>
<line class="st4" x1="3012.4" y1="837.8" x2="3022.2" y2="837.8"/>
<line class="st4" x1="2989.4" y1="826.3" x2="3012.4" y2="837.8"/>
</svg>
