<svg xmlns="http://www.w3.org/2000/svg" viewBox="0 0 1505 804"><title>distribution</title><g id="Artboard_4" data-name="Artboard 4"><rect x="36.72" y="46.07" width="148.78" height="718.37" rx="14.17" fill="none" stroke="#1d1d1b" stroke-miterlimit="10" stroke-width="0.25"/><text transform="translate(448.89 78.13)" font-size="24" font-family="NeueHaasUnicaW06-Regular">Distribution<tspan font-size="18" font-family="NeueHaasUnicaW06-Thin" font-weight="200"><tspan x="-13.16" y="21.6">The </tspan><tspan x="20.76" y="21.6" letter-spacing="-0.01em">f</tspan><tspan x="25.29" y="21.6">o</tspan><tspan x="34.99" y="21.6" letter-spacing="-0.03em">r</tspan><tspan x="40.47" y="21.6" letter-spacing="0.01em">e</tspan><tspan x="50.1" y="21.6">st industry has </tspan><tspan x="164.11" y="21.6" letter-spacing="0.01em">be</tspan><tspan x="183.9" y="21.6">en a major u</tspan><tspan x="278.33" y="21.6" letter-spacing="0.01em">s</tspan><tspan x="286.79" y="21.6">er of t</tspan><tspan x="330.12" y="21.6" letter-spacing="-0.03em">r</tspan><tspan x="335.57" y="21.6">ans</tspan><tspan x="362.89" y="21.6" letter-spacing="0.01em">p</tspan><tspan x="373.04" y="21.6">o</tspan><tspan x="382.75" y="21.6" letter-spacing="0.01em">r</tspan><tspan x="388.92" y="21.6">t</tspan><tspan x="394.03" y="21.6" letter-spacing="-0.01em">a</tspan><tspan x="403" y="21.6">tion </tspan><tspan x="435.63" y="21.6" letter-spacing="0.01em">s</tspan><tspan x="444.09" y="21.6">ervi</tspan><tspan x="471.2" y="21.6" letter-spacing="0.01em">c</tspan><tspan x="480.39" y="21.6" letter-spacing="0.01em">e</tspan><tspan x="490.02" y="21.6">s. The t</tspan><tspan x="544.56" y="21.6" letter-spacing="-0.03em">r</tspan><tspan x="550.02" y="21.6">ans</tspan><tspan x="577.34" y="21.6" letter-spacing="0.01em">p</tspan><tspan x="587.49" y="21.6">o</tspan><tspan x="597.19" y="21.6" letter-spacing="0.01em">r</tspan><tspan x="603.37" y="21.6">t</tspan><tspan x="608.48" y="21.6" letter-spacing="-0.01em">a</tspan><tspan x="617.44" y="21.6">tion of </tspan><tspan x="668.73" y="21.6" letter-spacing="0em">w</tspan><tspan x="682.1" y="21.6" letter-spacing="0.01em">oo</tspan><tspan x="701.86" y="21.6">d and </tspan><tspan x="749.11" y="21.6" letter-spacing="-0.01em">f</tspan><tspan x="753.65" y="21.6">o</tspan><tspan x="763.35" y="21.6" letter-spacing="-0.03em">r</tspan><tspan x="768.82" y="21.6" letter-spacing="0.01em">e</tspan><tspan x="778.45" y="21.6">stry p</tspan><tspan x="819.89" y="21.6" letter-spacing="-0.03em">r</tspan><tspan x="825.36" y="21.6" letter-spacing="0.01em">o</tspan><tspan x="835.24" y="21.6">ducts was in 2012 </tspan><tspan x="976.83" y="21.6" letter-spacing="-0.01em">f</tspan><tspan x="981.36" y="21.6">or </tspan><tspan x="-13.16" y="43.2">15% of the e</tspan><tspan x="81.04" y="43.2" letter-spacing="-0.01em">n</tspan><tspan x="90.67" y="43.2">ti</tspan><tspan x="99.58" y="43.2" letter-spacing="-0.03em">r</tspan><tspan x="105.05" y="43.2">e </tspan><tspan x="118.66" y="43.2" letter-spacing="-0.03em">r</tspan><tspan x="124.13" y="43.2">oad t</tspan><tspan x="162.2" y="43.2" letter-spacing="-0.03em">r</tspan><tspan x="167.65" y="43.2">ans</tspan><tspan x="194.98" y="43.2" letter-spacing="0.01em">p</tspan><tspan x="205.13" y="43.2">o</tspan><tspan x="214.83" y="43.2" letter-spacing="0.01em">r</tspan><tspan x="221" y="43.2">t</tspan><tspan x="226.12" y="43.2" letter-spacing="-0.01em">a</tspan><tspan x="235.08" y="43.2">tion of g</tspan><tspan x="296.33" y="43.2" letter-spacing="0.01em">oo</tspan><tspan x="316.1" y="43.2">ds and 36 % of the </tspan><tspan x="460.51" y="43.2" letter-spacing="-0.03em">r</tspan><tspan x="465.96" y="43.2">ail</tspan><tspan x="482.7" y="43.2" letter-spacing="-0.03em">r</tspan><tspan x="488.17" y="43.2">oad i</tspan><tspan x="524.93" y="43.2" letter-spacing="-0.01em">n</tspan><tspan x="534.66" y="43.2">f</tspan><tspan x="539.47" y="43.2" letter-spacing="-0.03em">r</tspan><tspan x="544.92" y="43.2">astructu</tspan><tspan x="607.4" y="43.2" letter-spacing="-0.03em">r</tspan><tspan x="612.87" y="43.2">e t</tspan><tspan x="631.59" y="43.2" letter-spacing="-0.03em">r</tspan><tspan x="637.05" y="43.2">ans</tspan><tspan x="664.37" y="43.2" letter-spacing="0.01em">p</tspan><tspan x="674.52" y="43.2" letter-spacing="0em">o</tspan><tspan x="684.22" y="43.2" letter-spacing="0.01em">r</tspan><tspan x="690.4" y="43.2">t</tspan><tspan x="695.51" y="43.2" letter-spacing="-0.01em">a</tspan><tspan x="704.47" y="43.2">tion of g</tspan><tspan x="765.73" y="43.2" letter-spacing="0.01em">oo</tspan><tspan x="785.49" y="43.2">ds in Norw</tspan><tspan x="867.91" y="43.2" letter-spacing="-0.01em">a</tspan><tspan x="876.8" y="43.2" letter-spacing="-0.03em">y</tspan><tspan x="884.18" y="43.2">. Each </tspan><tspan x="934.4" y="43.2" letter-spacing="0em">y</tspan><tspan x="942.34" y="43.2">ear </tspan><tspan x="-13.16" y="64.8" letter-spacing="-0.03em">r</tspan><tspan x="-7.68" y="64.8">oughly 17 million </tspan><tspan x="124.65" y="64.8" letter-spacing="-0.02em">t</tspan><tspan x="129.42" y="64.8">ons of </tspan><tspan x="180.09" y="64.8" letter-spacing="-0.01em">f</tspan><tspan x="184.63" y="64.8">o</tspan><tspan x="194.33" y="64.8" letter-spacing="-0.03em">r</tspan><tspan x="199.8" y="64.8" letter-spacing="0.01em">e</tspan><tspan x="209.43" y="64.8">st p</tspan><tspan x="236.95" y="64.8" letter-spacing="-0.03em">r</tspan><tspan x="242.42" y="64.8" letter-spacing="0.01em">o</tspan><tspan x="252.31" y="64.8">ducts </tspan><tspan x="298.8" y="64.8" letter-spacing="0em">w</tspan><tspan x="312.17" y="64.8">e</tspan><tspan x="321.64" y="64.8" letter-spacing="-0.03em">r</tspan><tspan x="327.11" y="64.8">e t</tspan><tspan x="345.83" y="64.8" letter-spacing="-0.03em">r</tspan><tspan x="351.29" y="64.8">ans</tspan><tspan x="378.61" y="64.8" letter-spacing="0.01em">p</tspan><tspan x="388.76" y="64.8">o</tspan><tspan x="398.46" y="64.8" letter-spacing="0.01em">r</tspan><tspan x="404.64" y="64.8" letter-spacing="-0.02em">t</tspan><tspan x="409.41" y="64.8" letter-spacing="0.01em">e</tspan><tspan x="419.05" y="64.8">d </tspan><tspan x="433.17" y="64.8" letter-spacing="0em">b</tspan><tspan x="443.08" y="64.8">y </tspan><tspan x="455.18" y="64.8" letter-spacing="-0.03em">r</tspan><tspan x="460.65" y="64.8">oad, </tspan><tspan x="496.69" y="64.8" letter-spacing="-0.03em">r</tspan><tspan x="502.14" y="64.8">ail and al</tspan><tspan x="569.1" y="64.8" letter-spacing="0.01em">s</tspan><tspan x="577.56" y="64.8">o </tspan><tspan x="591.4" y="64.8" letter-spacing="0em">b</tspan><tspan x="601.32" y="64.8">y </tspan><tspan x="613.41" y="64.8" letter-spacing="0.01em">s</tspan><tspan x="621.87" y="64.8">ea. The </tspan><tspan x="681.61" y="64.8" letter-spacing="-0.02em">a</tspan><tspan x="690.47" y="64.8" letter-spacing="0em">v</tspan><tspan x="698.33" y="64.8">e</tspan><tspan x="707.8" y="64.8" letter-spacing="-0.03em">r</tspan><tspan x="713.26" y="64.8">age distan</tspan><tspan x="792.18" y="64.8" letter-spacing="0.01em">c</tspan><tspan x="801.38" y="64.8">e </tspan><tspan x="814.99" y="64.8" letter-spacing="-0.01em">f</tspan><tspan x="819.53" y="64.8">or </tspan><tspan x="839.33" y="64.8" letter-spacing="0em">ev</tspan><tspan x="856.64" y="64.8">ery </tspan><tspan x="884.16" y="64.8" letter-spacing="-0.02em">t</tspan><tspan x="888.93" y="64.8">on of </tspan><tspan x="931.3" y="64.8" letter-spacing="0.01em">c</tspan><tspan x="940.5" y="64.8">ompl</tspan><tspan x="978.84" y="64.8" letter-spacing="-0.01em">e</tspan><tspan x="988.15" y="64.8">t</tspan><tspan x="993.26" y="64.8">-</tspan><tspan x="-13.16" y="86.4" letter-spacing="0.01em">e</tspan><tspan x="-3.51" y="86.4">d and finish</tspan><tspan x="84.2" y="86.4" letter-spacing="0.01em">e</tspan><tspan x="93.85" y="86.4">d </tspan><tspan x="107.96" y="86.4" letter-spacing="-0.01em">f</tspan><tspan x="112.5" y="86.4">o</tspan><tspan x="122.2" y="86.4" letter-spacing="-0.03em">r</tspan><tspan x="127.67" y="86.4" letter-spacing="0.01em">e</tspan><tspan x="137.3" y="86.4">st p</tspan><tspan x="164.82" y="86.4" letter-spacing="-0.03em">r</tspan><tspan x="170.3" y="86.4" letter-spacing="0.01em">o</tspan><tspan x="180.18" y="86.4">duct was 4,200 </tspan><tspan x="298.72" y="86.4" letter-spacing="-0.01em">k</tspan><tspan x="306.77" y="86.4">m.</tspan></tspan><tspan x="-13.16" y="136.8">Consumption</tspan><tspan font-size="18" font-family="NeueHaasUnicaW06-Thin" font-weight="200"><tspan x="-13.16" y="158.4">I</tspan><tspan x="-8.75" y="158.4" letter-spacing="-0.01em">n</tspan><tspan x="0.88" y="158.4" letter-spacing="-0.02em">t</tspan><tspan x="5.66" y="158.4">ern</tspan><tspan x="30.96" y="158.4" letter-spacing="-0.01em">a</tspan><tspan x="39.93" y="158.4">tional and </tspan><tspan x="118.64" y="158.4" letter-spacing="-0.03em">r</tspan><tspan x="124.11" y="158.4" letter-spacing="0.01em">e</tspan><tspan x="133.76" y="158.4">gional </tspan><tspan x="184.19" y="158.4" letter-spacing="0.01em">c</tspan><tspan x="193.39" y="158.4">onsume</tspan><tspan x="255.49" y="158.4" letter-spacing="-0.02em">r</tspan><tspan x="261.12" y="158.4">s h</tspan><tspan x="283.44" y="158.4" letter-spacing="-0.02em">a</tspan><tspan x="292.3" y="158.4" letter-spacing="0em">v</tspan><tspan x="300.17" y="158.4">e </tspan><tspan x="313.77" y="158.4" letter-spacing="0.01em">s</tspan><tspan x="322.23" y="158.4">ome ni</tspan><tspan x="374.09" y="158.4" letter-spacing="0.01em">c</tspan><tspan x="383.29" y="158.4" letter-spacing="0em">e ad</tspan><tspan x="416.01" y="158.4" letter-spacing="-0.01em">v</tspan><tspan x="423.8" y="158.4" letter-spacing="0em">a</tspan><tspan x="432.95" y="158.4" letter-spacing="-0.01em">n</tspan><tspan x="442.58" y="158.4" letter-spacing="0em">tag</tspan><tspan x="466.81" y="158.4" letter-spacing="0.01em">e</tspan><tspan x="476.43" y="158.4" letter-spacing="0em">s of using </tspan><tspan x="553.49" y="158.4" letter-spacing="0em">w</tspan><tspan x="566.86" y="158.4" letter-spacing="0.01em">oo</tspan><tspan x="586.63" y="158.4" letter-spacing="0em">d. A </tspan><tspan x="619.62" y="158.4" letter-spacing="0em">w</tspan><tspan x="633" y="158.4" letter-spacing="0.01em">oo</tspan><tspan x="652.76" y="158.4" letter-spacing="0em">den hou</tspan><tspan x="715.69" y="158.4" letter-spacing="0.01em">s</tspan><tspan x="724.15" y="158.4" letter-spacing="0em">e has a </tspan><tspan x="782.5" y="158.4" letter-spacing="0em">v</tspan><tspan x="790.37" y="158.4" letter-spacing="0em">ery g</tspan><tspan x="827.86" y="158.4" letter-spacing="0.01em">oo</tspan><tspan x="847.62" y="158.4" letter-spacing="0em">d thermic i</tspan><tspan x="927.85" y="158.4" letter-spacing="0.01em">s</tspan><tspan x="936.31" y="158.4" letter-spacing="0em">ol</tspan><tspan x="949.81" y="158.4" letter-spacing="-0.01em">a</tspan><tspan x="958.77" y="158.4" letter-spacing="0em">tion </tspan><tspan x="-13.16" y="180">and high </tspan><tspan x="57.65" y="180" letter-spacing="0.01em">c</tspan><tspan x="66.85" y="180" letter-spacing="0.01em">o</tspan><tspan x="76.72" y="180">sts </tspan><tspan x="102.56" y="180" letter-spacing="-0.01em">f</tspan><tspan x="107.1" y="180">or he</tspan><tspan x="146.25" y="180" letter-spacing="-0.01em">a</tspan><tspan x="155.21" y="180" letter-spacing="0em">ting and </tspan><tspan x="221.25" y="180" letter-spacing="0.01em">c</tspan><tspan x="230.45" y="180" letter-spacing="0.01em">o</tspan><tspan x="240.33" y="180">oling a</tspan><tspan x="290.77" y="180" letter-spacing="-0.03em">r</tspan><tspan x="296.24" y="180">e </tspan><tspan x="309.85" y="180" letter-spacing="0.01em">s</tspan><tspan x="318.41" y="180" letter-spacing="-0.02em">a</tspan><tspan x="327.27" y="180" letter-spacing="0em">v</tspan><tspan x="335.14" y="180" letter-spacing="0.01em">e</tspan><tspan x="344.78" y="180">d. The living quali</tspan><tspan x="475.75" y="180" letter-spacing="0.01em">t</tspan><tspan x="481.13" y="180">y in a hou</tspan><tspan x="553.79" y="180" letter-spacing="0.01em">s</tspan><tspan x="562.25" y="180">e with the p</tspan><tspan x="650.76" y="180" letter-spacing="-0.03em">r</tspan><tspan x="656.23" y="180" letter-spacing="0.01em">es</tspan><tspan x="674.32" y="180">en</tspan><tspan x="693.67" y="180" letter-spacing="0.01em">c</tspan><tspan x="702.87" y="180">e of </tspan><tspan x="735.12" y="180" letter-spacing="0em">w</tspan><tspan x="748.49" y="180" letter-spacing="0.01em">oo</tspan><tspan x="768.26" y="180">d su</tspan><tspan x="800.55" y="180" letter-spacing="0.01em">r</tspan><tspan x="806.69" y="180" letter-spacing="-0.02em">f</tspan><tspan x="811.15" y="180">a</tspan><tspan x="820.29" y="180" letter-spacing="0.01em">c</tspan><tspan x="829.49" y="180" letter-spacing="0.01em">e</tspan><tspan x="839.12" y="180">s is </tspan><tspan x="867.79" y="180" letter-spacing="0.01em">s</tspan><tspan x="876.25" y="180">cie</tspan><tspan x="898.61" y="180" letter-spacing="-0.01em">n</tspan><tspan x="908.24" y="180">tifically </tspan><tspan x="-13.16" y="201.6">p</tspan><tspan x="-3.18" y="201.6" letter-spacing="-0.03em">r</tspan><tspan x="2.29" y="201.6" letter-spacing="0em">ov</tspan><tspan x="19.84" y="201.6" letter-spacing="0.01em">e</tspan><tspan x="29.49" y="201.6">d </tspan><tspan x="43.6" y="201.6" letter-spacing="0.01em">b</tspan><tspan x="53.75" y="201.6" letter-spacing="-0.01em">e</tspan><tspan x="63.06" y="201.6">t</tspan><tspan x="68.17" y="201.6" letter-spacing="-0.02em">t</tspan><tspan x="72.94" y="201.6">e</tspan><tspan x="82.41" y="201.6" letter-spacing="-0.06em">r</tspan><tspan x="87.21" y="201.6">. </tspan><tspan x="94.43" y="201.6" letter-spacing="-0.01em">P</tspan><tspan x="104.78" y="201.6">anels out of </tspan><tspan x="196.99" y="201.6" letter-spacing="-0.02em">f</tspan><tspan x="201.46" y="201.6">ast g</tspan><tspan x="238.12" y="201.6" letter-spacing="-0.03em">r</tspan><tspan x="243.59" y="201.6" letter-spacing="0em">o</tspan><tspan x="253.28" y="201.6">wing lig</tspan><tspan x="312.03" y="201.6" letter-spacing="-0.01em">h</tspan><tspan x="321.66" y="201.6">t </tspan><tspan x="330.91" y="201.6" letter-spacing="0em">w</tspan><tspan x="344.28" y="201.6" letter-spacing="0.01em">oo</tspan><tspan x="364.05" y="201.6">ds a</tspan><tspan x="395.6" y="201.6" letter-spacing="-0.03em">r</tspan><tspan x="401.07" y="201.6">e u</tspan><tspan x="424.56" y="201.6" letter-spacing="0.01em">s</tspan><tspan x="433.13" y="201.6">able in ma</tspan><tspan x="511.48" y="201.6" letter-spacing="-0.02em">n</tspan><tspan x="521" y="201.6">y di</tspan><tspan x="546.87" y="201.6" letter-spacing="-0.02em">ff</tspan><tspan x="555.61" y="201.6">e</tspan><tspan x="565.08" y="201.6" letter-spacing="-0.03em">r</tspan><tspan x="570.55" y="201.6">e</tspan><tspan x="580.02" y="201.6" letter-spacing="-0.01em">n</tspan><tspan x="589.65" y="201.6">t w</tspan><tspan x="612.3" y="201.6" letter-spacing="-0.01em">a</tspan><tspan x="621.19" y="201.6" letter-spacing="-0.01em">y</tspan><tspan x="628.95" y="201.6">s and p</tspan><tspan x="684.49" y="201.6" letter-spacing="-0.03em">r</tspan><tspan x="689.96" y="201.6" letter-spacing="0em">o</tspan><tspan x="699.65" y="201.6">vide the home </tspan><tspan x="811.57" y="201.6" letter-spacing="0em">w</tspan><tspan x="824.94" y="201.6">or</tspan><tspan x="840.6" y="201.6" letter-spacing="-0.02em">k</tspan><tspan x="848.45" y="201.6">er ma</tspan><tspan x="892.03" y="201.6" letter-spacing="-0.02em">n</tspan><tspan x="901.55" y="201.6">y op</tspan><tspan x="933.32" y="201.6" letter-spacing="0.01em">p</tspan><tspan x="943.47" y="201.6">o</tspan><tspan x="953.17" y="201.6" letter-spacing="0.01em">r</tspan><tspan x="959.35" y="201.6">tun</tspan><tspan x="988.02" y="201.6">-</tspan><tspan x="-13.16" y="223.2">ti</tspan><tspan x="-4.25" y="223.2" letter-spacing="0.01em">e</tspan><tspan x="5.38" y="223.2">s with an ea</tspan><tspan x="95.92" y="223.2" letter-spacing="-0.01em">s</tspan><tspan x="104" y="223.2">y handling. E</tspan><tspan x="200.39" y="223.2" letter-spacing="-0.01em">x</tspan><tspan x="208.35" y="223.2" letter-spacing="-0.01em">o</tspan><tspan x="217.89" y="223.2">tic </tspan><tspan x="240.03" y="223.2" letter-spacing="0em">w</tspan><tspan x="253.4" y="223.2" letter-spacing="0.01em">oo</tspan><tspan x="273.17" y="223.2">den furnitu</tspan><tspan x="355.95" y="223.2" letter-spacing="-0.03em">r</tspan><tspan x="361.42" y="223.2">e out of sustainable g</tspan><tspan x="523.41" y="223.2" letter-spacing="-0.03em">r</tspan><tspan x="528.88" y="223.2" letter-spacing="0em">o</tspan><tspan x="538.57" y="223.2">wn t</tspan><tspan x="571.09" y="223.2" letter-spacing="-0.03em">r</tspan><tspan x="576.57" y="223.2" letter-spacing="0.01em">e</tspan><tspan x="586.21" y="223.2">e s</tspan><tspan x="608.12" y="223.2" letter-spacing="0.01em">pe</tspan><tspan x="627.92" y="223.2">ci</tspan><tspan x="640.81" y="223.2" letter-spacing="0.01em">e</tspan><tspan x="650.44" y="223.2">s p</tspan><tspan x="672.85" y="223.2" letter-spacing="-0.03em">r</tspan><tspan x="678.32" y="223.2" letter-spacing="-0.01em">e</tspan><tspan x="687.62" y="223.2">ttifi</tspan><tspan x="710.25" y="223.2" letter-spacing="0.01em">e</tspan><tspan x="719.88" y="223.2">s the home of the cus</tspan><tspan x="883.5" y="223.2" letter-spacing="-0.02em">t</tspan><tspan x="888.27" y="223.2">omer while </tspan><tspan x="-13.16" y="244.8">h</tspan><tspan x="-3.27" y="244.8" letter-spacing="-0.02em">a</tspan><tspan x="5.58" y="244.8">ving no bad </tspan><tspan x="98.21" y="244.8" letter-spacing="0.01em">c</tspan><tspan x="107.41" y="244.8">on</tspan><tspan x="126.99" y="244.8" letter-spacing="0.01em">s</tspan><tspan x="135.45" y="244.8">cien</tspan><tspan x="167.69" y="244.8" letter-spacing="0.01em">c</tspan><tspan x="176.88" y="244.8">e a</tspan><tspan x="199.63" y="244.8" letter-spacing="0.01em">b</tspan><tspan x="209.79" y="244.8">out e</tspan><tspan x="248.09" y="244.8" letter-spacing="-0.02em">n</tspan><tspan x="257.61" y="244.8">vi</tspan><tspan x="269.29" y="244.8" letter-spacing="-0.03em">r</tspan><tspan x="274.77" y="244.8">onme</tspan><tspan x="318.69" y="244.8" letter-spacing="-0.01em">n</tspan><tspan x="328.32" y="244.8">tal impacts.</tspan></tspan></text><rect x="431.78" y="46.07" width="1028.6" height="719.74" rx="14.17" fill="none" stroke="#1d1d1b" stroke-miterlimit="10" stroke-width="0.25"/><rect x="217.81" y="47.43" width="148.78" height="718.37" rx="14.17" fill="none" stroke="#1d1d1b" stroke-miterlimit="10" stroke-width="0.25"/><text transform="translate(222.98 74.8)" font-size="24" font-family="NeueHaasUnicaW06-Regular">consumption</text><path d="M325.61,363.73l-.24-.37c.46-.24.83-.28.95.34l.59-.15.13.1-.5.71.17.57.86-.4a.75.75,0,0,1-.91.89c-.33-.08-.59-.22-.8.23-.08.16-.45.17-.88.31l1,.46c.14.07.39.15.39.22a.85.85,0,0,1-.23.45c-.14.17-.35.28-.47.45a1.86,1.86,0,0,0-.1.54l-1.85,2.33.46.24-.61.4.69,0-.74,1.63c.34,0,.6.12.25.43a2.15,2.15,0,0,0-.66,2.17l.7.18,1.18-2.34c-.47-.37-.25-.78.06-1.19.53-.71,1-1.43,1.55-2.15a1.1,1.1,0,0,0,.21-.36,8,8,0,0,1,1.66-3.1,4.82,4.82,0,0,1,.88-.8l.16.1a6.39,6.39,0,0,1,.12,1.56,6.88,6.88,0,0,1-.58,1.56c.06.12.25.32.24.52a13.63,13.63,0,0,1-.19,1.41c-.06.41-.09.81.52.92-.07-.92.58-.6,1-.48a9.94,9.94,0,0,1-.11-1.18c0-.72.56-.12.84-.34-.54-.42-.48-1-.29-1.55l.63,0-.05-.94.59.09c.24-.31.33-.56-.2-.7a5.5,5.5,0,0,1-.82-.38l0-.17.72-.29-.53-.84,1,.23a4.57,4.57,0,0,1,.39-.93c.07-.11.33-.1.51-.14l0,.52.41.24a12.81,12.81,0,0,1,1.27-.5s.24.29.26.46a2.31,2.31,0,0,1-.13.66,1.26,1.26,0,0,1,.37-.09c.24,0,.55,0,.7.11s.09.47,0,.65c-.23.45-.57.83-.79,1.27s-.57.3-.92.29a8.62,8.62,0,0,0-1.05.07l1.58.52-1.47,1.12.05.1,1.69-.9c.42,1.15-.68,1.55-1.23,2.22a1.39,1.39,0,0,0,1.93-.95,9.4,9.4,0,0,1,.86-2.54,1,1,0,0,1,1.59-.43,2.58,2.58,0,0,0,.44.2l.33.66v1.17l1.61-.59.23,1c.11-.14.2-.28.31-.4s.27-.34.36-.32.58.17.63.33c.13.45,1.07.88.11,1.42a1,1,0,0,0-.35.27c.63.1,1.21-.62,1.75,0l.66,1c-.07,0,0,0,0,0,.27,0,.73-.07.78,0a6.05,6.05,0,0,1,.34,1.41c0,.07-.19.21-.32.25a7.37,7.37,0,0,0-1.36.39c-.4.23-.93.39-1,1,0,.4-1.17,1-1.77.92-.31,0-.59-.2-.9-.26l-2.17-.37a2.13,2.13,0,0,1-.43-.21c-.47-.23-.8-.08-1.11.45l.58,0c.32.2.56.35.82.49s.71,0,.66.51c0,0,.15.09.24.1l1.74.32-.63.57,1,.38c0,.05,0,0,0-.14a2.6,2.6,0,0,1,1,.37.48.48,0,0,1-.26.79,4.11,4.11,0,0,0-.78.4l.07.17,1-.36.1.42h.14c0-.33.05-.67.1-1a2.76,2.76,0,0,1,.19-.55,5.88,5.88,0,0,1,.51.36.38.38,0,0,1,.1.19,6.63,6.63,0,0,1,1.64.49c.27.16.37.66.48,1a4.3,4.3,0,0,1,.07.88c.05.52-.23.78-.74.73a1.76,1.76,0,0,1-1.41-.73,2.22,2.22,0,0,0-.94-.65c.54.92,0,1.66-.27,2.42-.05.12-.29.19-.45.26s-.39,0-.52.14a3.79,3.79,0,0,1-1.57,1c-.15,0-.25.43-.31.68a6.92,6.92,0,0,1-.09.81c-.17.48-.42.92-.65,1.41-1-.73-1.1-1-1-2a.87.87,0,0,1,.24-.39,21,21,0,0,0,1.36-1.78,1.49,1.49,0,0,0,.14-1,11.84,11.84,0,0,0-.55-1.75.77.77,0,0,0-.37-.34c-.52-.26-1.06-.51-1.6-.74a1.68,1.68,0,0,1-1.07-1c-.12-.34-.6-.54-.82-.87a10.52,10.52,0,0,1-.64-1.34c-.35.05-1-.06-1.22.2s-.76.52-1.06.86c-.66.75-.89.79-1.73.31a1.27,1.27,0,0,0-1.63.71,4,4,0,0,1-1.46,1.83c-.21.16-.54.44-.19.83a.46.46,0,0,1,0,.44,3.41,3.41,0,0,0-.52,2.22A11.51,11.51,0,0,1,326,384a5.69,5.69,0,0,0-.06,2.05c.22.81-.26,1.29-.45,1.94l-.48-.24c-.25.21-.51.4-.73.62a1.69,1.69,0,0,0-.61,1.58c.06.33.06.69-.45.8-.17,0-.27.36-.41.56,0,0-.09,0-.1,0a1.89,1.89,0,0,0-1.53-1.45,4.57,4.57,0,0,1-1.47-1c-.63-.53-1-.5-1.15.28a.87.87,0,0,1-.85.79,5.08,5.08,0,0,0-1.18.55,6.71,6.71,0,0,0-3-.95c-.32-2-1.58-3.59-2.66-5.27a1.92,1.92,0,0,0-1.5-.62c-.35,0-.72.55-1,.91-.09.11.09.43.15.65l.24,1.05-.18.08-1.22-.77c-.53.91-1.5.53-2.38.8.4.81,1.29,1.42.94,2.49a4.32,4.32,0,0,1-1.42,2.44l1,.72-1.15,1.34c-.86-.41-1.73-.88-2.64-1.26a4.28,4.28,0,0,0-1.47-.3,1.27,1.27,0,0,1-1.1-.43c-.11-.13-.41-.26-.52-.2-.33.16-.84.14-.87.68a6.2,6.2,0,0,0,0,1.55c.31,1.37-.3,2.5-.8,3.71l-2.08-1.28c-.7.63-1.35,1.18-2,1.76a1.31,1.31,0,0,0-.34.53c-.34,1-.64,2-1,2.93a1,1,0,0,1-.54.49.82.82,0,0,0-.6,1.18c.23.5.53,1,.76,1.48a3,3,0,0,1,.21.78,2,2,0,0,1-.77,1.84,13.79,13.79,0,0,0-1.56,2.47,7.9,7.9,0,0,1-1,1.54,1.31,1.31,0,0,0-.3,1.49,1.1,1.1,0,0,1-.44,1.45,3.62,3.62,0,0,1-2.37.85,4,4,0,0,0-.51.08c.08.86.19,1.7.23,2.54,0,.41-.14.82-.17,1.23-.06,1-.07,1.93-.14,2.89a5.46,5.46,0,0,1-.29,1c0,.07-.08.14-.1.21-.46,1.94-1.72,3.5-2.55,5.26-.08.17-.14.35-.23.56a2.22,2.22,0,0,0,1.34.87c.16,0,.38.31.41.5a4.81,4.81,0,0,1-.57,3.48l-1.82-.45a2.83,2.83,0,0,0-3.2,1.2c-.44.67-.67,1.49-1.16,2.11a1.87,1.87,0,0,0-.44,1.63c.06.39-.38.85-.53,1.29a1.68,1.68,0,0,0-.05.83,3.89,3.89,0,0,0,.41,1,1.11,1.11,0,0,1-.15,1.49c-.13.14,0,.52,0,.79s.15.42.09.57a3.51,3.51,0,0,0,.37,2.95,4,4,0,0,1,.07,2.31c-.12,1-.26,2-.39,3h-8.06V439.65c0-.85,0-.88.7-.61l-.23-.66a4.77,4.77,0,0,1,.94-.23c.51,0,1,.07,1.52.08a1.52,1.52,0,0,0,.5-.15c-.67-.5-.66-.61.1-1l-.79-.39,2.68-1.42c-.16-.58-.51-.74-1.33-.44a2.24,2.24,0,0,1,1.5-1.27c-.41-.57-1.13-.35-2,.53.14.29.43.6.36.78a2.3,2.3,0,0,1-.7.86,7.61,7.61,0,0,1-1.05.69c-.4.24-.82.45-1.23.7a4,4,0,0,0-.37.35c-.14.13-.3.24-.58.47v-3l-1.13-.05,1.32-1.2-.63-.3a1.09,1.09,0,0,1,1-.74l.21,0-.08-.16c.08-.37.09-.76.6-.91a.74.74,0,0,0,.35-1c-.09-.16.39-.64.63-1s.36-.42.54-.64l-.11-.11,1,.12-.3-.57c.36-.2.72-.59,1.21-.18,0,0,.15.05.15.08,0,.54.51.48.78.62-.14-.17-.46-.38-.44-.55a2.1,2.1,0,0,1,.47-.79c.19-.28.41-.55.66-.87-.78-.6-1,.7-1.71.42l.16-.58-2.54-.44a3.28,3.28,0,0,0,.75-.5,1.92,1.92,0,0,0,.16-.65,2.14,2.14,0,0,1,2,.74c1.28-.67,1.23-.92.62-1.52a4.18,4.18,0,0,1,.68-.42c.09,0,.25.15.34.21l1-.55.21.09a5.36,5.36,0,0,1-.15-.78c0-.6,0-1.21,0-1.82,0-.1.05-.28.11-.3.81-.24.72-.92.84-1.54.06-.29.45-.5.68-.75a3.62,3.62,0,0,0,.2-.33l0-.05s0,0,0,0V418l-.69.24,1.4-1.81v0l-1.92,1.8-.2-.28-.43.36-.44-.57.78-.43-.18-.22h-.57c.05-.56,1.4-.25.74-1.23.36-.27,1.1-.34.54-1.09-.14-.19.61-.83,1.08-.72a5.5,5.5,0,0,1,.89.39l-.49.44.12.15.83-.52-1-.84.47-.59c.28.18.53.62,1,.23l-.32-.71c-.29-.1-.54-.11-.65-.24s.09-.35.14-.53a1,1,0,0,0,.07-.44c-.06-.31-.16-.62-.25-.93l.23.05.43-.93.34,0,.43.92.58-2-.1-.12-.47.8-.21-.1-.23-.5c.53-.66,1.21-.57,1.93-.49l0-.58-.65-.05-.07-.13c.92-.27,1.95-.38,2.32-1.61l-.72.29c0-.75.51-1,1.39-.71.29-.83,1-.94,1.75-1,.36,0,.71-.15,1.06-.13a1.92,1.92,0,0,1,.68.29l1.24.63c-.17-.85-.9-.67-1.24-1-.52-.49-1,.06-1.45,0l-1.37-.2c.45-.56,1.11-1,1.12-1.48,0-.85.65-1,1.07-1.33.17-.15.53-.06.82-.08-.18-.9.41-1.48,1.34-1.86-.43-.28-.83-.21-1,.13a1.82,1.82,0,0,1-1.74.89l0-.61.48-.25-.95-.45c.19-.18.33-.28.45-.4s.27-.22.25-.3c-.21-.91.7-.86,1.07-1.27.17-.18.44-.3.55-.51.55-1.1,1-1.33,2.11-1.06l.56-1c.53.07.46.58.53.91a3.47,3.47,0,0,1-.05,1.06l.21.09.94-1.7-.87.15c.34-.36.34-.59-.07-.76-.08,0-.12-.46,0-.52a4.15,4.15,0,0,1,1-.58c.64-.27,1.29-.45,1.81.27,0,.06.19.13.24.1.71-.34,1.69-.34,1.86-1.4a.63.63,0,0,0,.06-.31c-.29.12-.59.24-.87.37l-.67.34a.6.6,0,0,0-.08-.08l-.15-.33a5.09,5.09,0,0,1-1.2.42,5.62,5.62,0,0,0-1.79.63c-.51.23-.46-.23-.51-.49-.54.44-1,.87-1.54,1.26-.09.07-.29,0-.44,0s-.35,0-.43.05a.46.46,0,0,1-.66.11c-.14-.07-.45.21-.76.36-.84-.38-.71,1-1.4,1l-.05-.54a2.52,2.52,0,0,0-.55.08c-.36.13-.72.3-1.07.46l-.12-.64a7.9,7.9,0,0,0-1,.56c-.13.09-.12.39-.25.48-.4.25-.84.45-1.26.67a3.5,3.5,0,0,0-1,.58,20.06,20.06,0,0,0-1.33,1.81l-.27-.14a22.45,22.45,0,0,1,.83-2.3c.13-.25.62-.33,1-.52v-.5l.55.09a2.72,2.72,0,0,0,.35-.83c0-.46.16-.66.65-.55a.54.54,0,0,0,.45-.13,1.09,1.09,0,0,1,1.67.13,1.9,1.9,0,0,1,2.05-1.48,2.37,2.37,0,0,0,1-.31c.14-.07.36-.29.33-.36-.21-.48.14-.57.45-.75a.88.88,0,0,0,.51-1,5.22,5.22,0,0,1,.24-1.43c0-.15,0-.4,0-.45-.63-.43-.28-1-.22-1.51a1.58,1.58,0,0,1,.29-.71c.65-.87,1.33-1.73,2-2.63.51.79-.24,2.77-1.32,3.65l.65.22.49,1.11-.39.43.38.24a4.2,4.2,0,0,0,.67-.93,4.56,4.56,0,0,0,0-1.19l.8.21.25-1c.36.31-.08,1.17.8,1l-.11,1h-.27v2.38a5.89,5.89,0,0,1,.66-.34,5.58,5.58,0,0,1,1.28-.45c.48-.07.49-.23.33-.52-.35.17-.67.33-1,.47a.39.39,0,0,1-.32,0,.35.35,0,0,1,0-.32c.17-.4.37-.78.59-1.22l.36.56-.08-.91c.47-.09.94-.5,1.28.22,0,.07.29,0,.44,0s.39-.08.56-.12c-.15-.23-.15-.23-1-.08l.13-1-.49,0c.06-.88.09-.83.91-1a4.79,4.79,0,0,0,1.3-.62c-1.58-.25-2.56,0-2.68,1.33l-.6.19-.16-.52-.81.09c-.4-.9.45-.85.91-1.2l-.63-.6.41-.38-.3-.56.46-.32-.55-.3-.21-.22c.15,0,.31-.15.44-.12.67.12.74-.42,1-.81a3,3,0,0,1,.51-.61c.17-.18.38-.33.57-.5l-.1-.17,1.48.23.7,1.09-.17.26.47.69a1.9,1.9,0,0,1,.07-.54c.06-.15.21-.34.35-.36s.3.16.4.29.15.41.29.53c.3.26.79.38.53,1l.66-.36c-.51-.51-1.29-.9-1.24-1.93l1.5-.39.53,1.21c0,1,.82.92,1.48,1.08l-1.49-1.07c-.07-.61-.13-1.23-.21-1.84a.67.67,0,0,0-.26-.35c0,1-.81.86-1.37,1.07a1.54,1.54,0,0,1-1.7-.2l-.1-.78.91-1-.66-.16.2-.16,1.75-.52v-.11l-.7-.17,0-.19a2.59,2.59,0,0,1,.73-.27c.36,0,.46-.16.45-.5a1.27,1.27,0,0,1,.21-.52.8.8,0,0,0,.13-.41l-.3.17-.62-.57a2.13,2.13,0,0,0,1-1.33c0-.19.6-.25.94-.25l.43-.82.24,0a3.35,3.35,0,0,1,0,1.1c-.12.32-.46.55-.73.85l.9,0c.41,0,.61.12.36.4a2.74,2.74,0,0,1,.8.24c.36.23.67.38,1,.06.05,0,.16,0,.24,0a3.19,3.19,0,0,0-.31.73c-.19,1-1,1.1-1.75,1.41a8,8,0,0,0-1.06.52c-.16.11-.24.34-.33.46l2.6-1c.12.83-.7,1.66.43,2.18a1.94,1.94,0,0,1,.33-2c.43-.62.87-1.24,1.36-2,.74,1.18-.19,2.25.1,3.29s-.35,2-.35,3.07l.81-2,.38.09c0-.07.06-.12,0-.13a1.09,1.09,0,0,1-.25-1.19,6,6,0,0,0,.16-1.53c0-.72.33-1,1-.77,0-.37-.19-.77-.06-1.05s.54-.28.84-.42c.48.78.11,1.37-.38,1.93.35.29.34.29.55,0a1.69,1.69,0,0,1,.31-.21c.1-.08.26-.16.27-.25.06-.5.09-1,.14-1.65l1.64,1.28,1-.54,0-.2-1.58-.84c-.06,0-.15-.05-.19-.1-.3-.36-.61-.72-.87-1.1a.52.52,0,0,1,0-.47c.39-.33.82-.62,1.27-.95l.27.45L311,372l.58.72.06-.15c.51.23,1,.47,1.54.68.82.33,1.65.64,2.57,1l.13,1.72.52.75,1.22-.44-1.37-1,.86-.34-.59-1,.42-.2-.14-.45-.95-.11-.06.43a9.83,9.83,0,0,1-1.21-.08,1.57,1.57,0,0,1-.7-.3,3.73,3.73,0,0,1-.54-.65,3.1,3.1,0,0,1,.73-.41,1.81,1.81,0,0,0,1.33-.85c.26-.42.59-1.11,1.35-1.07a.2.2,0,0,0,.15-.12c.12-.45.27-.8.86-.73.1,0,.41-.51.34-.68-.26-.63.11-.64.53-.62a1.45,1.45,0,0,1,1.27,1.84,1.24,1.24,0,0,1-.39.57c-.47.39-.89.23-1.06-.35,0-.15-.09-.3-.14-.45l-.18,0a2.72,2.72,0,0,0-.19.94,3.13,3.13,0,0,0,.5.92c.44-.93,1.19-1.07,2.12-.47l0-.17-.69-.57c.19-.43.36-.85.55-1.26s.58-.47.92-.1a1.21,1.21,0,0,0,.51.34c-.19-.59-.33-1.16-1.06-1.29a.73.73,0,0,1-.43-.5c-.08-.34-.1-.72.37-.85l1,.94V366.4c-.46-.29-.19-.84-.09-1.43a2.47,2.47,0,0,1,.64.49c.44.63.42.65.8,0,.22.21.22.21-.07,1.15l.51-.74.74,1.23c.38-.07.41-.7.29-.85-.49-.59.09-.84.29-1.21a.79.79,0,0,0,.17-.43l-.82.26v-.76l1.19-.25.19.05Zm-38.13,33.2-.14-.05,0,.15.07.78.73-.38Zm-9.14,14,.48,1.16.34-.46-.53-.62h1C279.45,410.69,279.45,410.69,278.34,410.89ZM276,423.3c.23.12.47.38.67.35a3.34,3.34,0,0,0,.92-.47l-.09-.15C276.66,423.73,276.64,423.73,276,423.3ZM273,429.66l0-.14-1.06-.52.12.58Zm15.11-32.49.07.28.87-.27,0-.19Zm1.2.38.17,0-.12-.35-.15.05Zm39.63-28.74-.07-.11-.18.14,0,.06Z" fill="#ad1e20" stroke="#1d1d1b" stroke-miterlimit="10" stroke-width="0.1"/><path d="M248.3,458.81l1,.12,0-.15-1.11-.27c-.27-.87.62-.88,1-1.28.63-.7,1,.13,1.56.24.6-1,1.88-1.28,3.52-.35,1-1,1.69-.95,2.45.2-.2-.76.41-.71.72-.7.56,0,.8-.41,1.19-.69a2.92,2.92,0,0,1-3.63-.09,1,1,0,0,1,1.24-.88c.85.07,1.71,0,2.64,0v-2.16c0-2.66,0-5.32,0-8,0-.61.28-.79.8-.85a1,1,0,0,0,.63-.25l-1.38.09V441.1l.24.75,1.09.25,0-.1-.47-.31c.1-.14.18-.29.28-.42l.36-.43c.08.15.16.31.25.46a1.35,1.35,0,0,0,.2.27,2.08,2.08,0,0,1,.53.78c.13.33.66.51,1.07.68l-.95-.74.9-.37c-.49-.11-.9.05-1.24-.32s-.5-.71-.16-1.1h-1.22l-.05-.19,2.14-.95.32.87-.56.43,1.83-.56V440l-1.06.12-.38-.88-.46,0c.6-.91,1.56-1,2.63-1.18a4.75,4.75,0,0,1,.17.92c.08,5,.13,9.9.19,14.85,0,.34,0,.67,0,1.08h13.54c-.21.76-.39,1.44-.61,2.11,0,.08-.26.11-.41.13l-1.23.17,1.13,3.36H264.65v.74c0,4.15,0,8.31,0,12.46a3.4,3.4,0,0,1-1.14,2.29,9.45,9.45,0,0,1-.91.88c-.48.49-.94,1-1.46,1.45-.17.15-.5.12-.8.17l-1.46.66V460.73h-.59c-3,0-6,0-9.06,0-.43,0-.48-.23-.56-.52C248.58,459.76,248.45,459.3,248.3,458.81ZM262,444c-.27-.69-1.45-.6-1.26-1.68C260.43,443.42,261.47,443.48,262,444Z" fill="#042469"/><path d="M253.22,463.65h2.84v.8c0,4.59,0,9.19,0,13.78a1,1,0,0,1-.28.73c-.18.1-.51-.06-.88-.12a.71.71,0,0,0-.37-1.21,8.28,8.28,0,0,1-2.78-2,1.82,1.82,0,0,1-.6-2,9.32,9.32,0,0,0,.25-2.11l1.16-.62-.48-.32,1-.44a3.71,3.71,0,0,0-1.49.07c-.79.06-.45.79-.93,1l-.26-.54-.27.84a1.6,1.6,0,0,1-.19-1.71,2.93,2.93,0,0,0-.15-1.83c-.22-.67-.33-1.38-.49-2.07l1.19-.73-.06-.58c1.34.07,1.34.07,1.34-.63l-.61-.06c.48-.44.95-.27,1.36-.26.15,0,.44.4.41.44a9.14,9.14,0,0,1-.87,1.1c-.13.16-.36.25-.46.42-.34.56-.63,1.14-.89,1.61.26.08.58.16.9.27.54.2.42-.33.67-.44l-.09-.13-.51.29a1.4,1.4,0,0,1,.58-1.7,7.17,7.17,0,0,0,1-1.14C253.34,464.22,253.24,464,253.22,463.65Zm-.8,8.29-.76.31a2.8,2.8,0,0,0,1,.12s0-.07,0-.11Z" fill="#ad1e20" stroke="#1d1d1b" stroke-miterlimit="10" stroke-width="0.1"/><path d="M270.87,471.3a3.61,3.61,0,0,1-.84-2.89l-1.41.22.79.71.16,0-.25,2.57-.11,0-.22-.4-1.45,1.2v-9.06h9.58a2.7,2.7,0,0,1-2.58,2.43c.46.95.4,1.15-.33,1.77a.63.63,0,0,0-.15.53,7.08,7.08,0,0,1-.11,4.2c-.13.39-.32.62-.73.61l-.55-1.74c-.28.24-.45.38-.6.53a.78.78,0,0,1-1.27-.13C270.73,471.71,270.85,471.47,270.87,471.3Zm-.86-5.19.39.37.17-.09-.31-.66c-.23.11-.63.21-.64.35a1.78,1.78,0,0,0,.23,1.55Z" fill="#ad1e20" stroke="#1d1d1b" stroke-miterlimit="10" stroke-width="0.1"/><path d="M253.46,446.71l-.53-1.37.34-.15.27.64c.06-.71.42-.88,1-1,.27,0,.46-.45.72-.65a7.51,7.51,0,0,1,.79-.44c0,1.31,0,2.42,0,3.54s0,2.36,0,3.63c-.5-.47-.92-.59-1.33,0a.47.47,0,0,1-.38.08c-.77-.1-1.54-.22-2.31-.33-.05,0-.1,0-.17.1l1.51.38a4,4,0,0,1,.68-.06c.38,0,.75.24,1.08-.2.07-.09.57,0,.72.17a1.15,1.15,0,0,1,.17.79c0,.09-.32.23-.5.23-2,0-4,0-6,0-.56,0-.76-.2-.76-.72a2.51,2.51,0,0,0-.15-.62c.37-.22.9-.44.57-1.12.43,0,.92.61,1.27-.19l-1-.81s0-.3.15-.37.38.08.58.11.41,0,.55,0l1.71-.21a8.22,8.22,0,0,0,.64.89c.1.11.34.08.65.15-.48-.43-.8-.72-1.11-1-.06-.05-.09-.23,0-.27.38-.39.78-.76,1.19-1.11a1.11,1.11,0,0,1,.4.35c.21.41.38.83.57,1.25l.22-.09a4.91,4.91,0,0,0-.32-.86c-.39-.67-.4-.66.23-1.07.08,0,.12-.13.13-.3Z" fill="#ad1e20" stroke="#1d1d1b" stroke-miterlimit="10" stroke-width="0.1"/><path d="M285.62,388.21l.06-.6h.43l.5-1.07.19,0a7,7,0,0,1,.61,1.14,2.22,2.22,0,0,1,.06,1.14c-.08.3-.17.46.11.71s.1.78-.29,1-1.06.38-1.19,1.09c0,.11-.6.21-.9.16s-.38-.31-.68-.57l.94-.23-.11-.16.47-.48c.2-.2.69-.14.58-.71L284.24,391A2,2,0,0,1,285.62,388.21Z" fill="#ad1e20" stroke="#1d1d1b" stroke-miterlimit="10" stroke-width="0.1"/><path d="M317.13,366.93c.58.59.54,1-.22,1.67a1.22,1.22,0,0,0-.42.46c-.46,1.39-1.66,1.63-2.86,1.88-.3.06-.61.06-1,.1l.28-1.39c-.59.05-1.12.07-1.11-.72l1,.22.16-.41.48.3a.58.58,0,0,0,.05-.16c0-.33-.11-.66.47-.47a.64.64,0,0,0,.82-.38c.09-.18.58-.17.92-.26l0,.44c.44-.08.44-.08.35-.67Z" fill="#ad1e20" stroke="#1d1d1b" stroke-miterlimit="10" stroke-width="0.1"/><path d="M250.72,457l-1.09-.52L248,457.66c-.31-.42-.27-.66.17-1.17a3.06,3.06,0,0,0,.27-.59l.55.05c-.34-.56.15-.57.56-.76l-.67-.2h6.23a7.14,7.14,0,0,1-.48,1.32c-.08.16-.5.25-.72.19A3.51,3.51,0,0,0,250.72,457Z" fill="#042469"/><path d="M263.83,436.22l.13.57.58.25a1.75,1.75,0,0,1-.43.39,6.59,6.59,0,0,1-.79.24,2.15,2.15,0,0,0-.75.3c-.6.49-1,.42-1.33-.35a10.34,10.34,0,0,1,1.2-.89A9.81,9.81,0,0,1,263.83,436.22Z" fill="#042469"/><path d="M308.28,375.44a10.79,10.79,0,0,0-1.41.31c-.58.22-.69-.18-.79-.55a1.37,1.37,0,0,1,.87-1.5c.15,0,.44,0,.49.06C307.73,374.27,308,374.82,308.28,375.44Z" fill="#ad1e20" stroke="#1d1d1b" stroke-miterlimit="10" stroke-width="0.1"/><path d="M302.88,373.58l.32-.41a11,11,0,0,1,1.46,1.12,1.3,1.3,0,0,1,.3,1c0,.17-.49.41-.75.41-.43,0-.51-.38-.6-.79A5.73,5.73,0,0,0,302.88,373.58Z" fill="#ad1e20" stroke="#1d1d1b" stroke-miterlimit="10" stroke-width="0.1"/><path d="M261.25,436a2.19,2.19,0,0,1,.53-.14.9.9,0,0,0,.92-.51c.06-.14.29-.19.44-.28.08.17.23.34.22.51a.53.53,0,0,1-.3.39c-.58.11-1.17.17-1.76.24Z" fill="#042469"/><path d="M260.52,437.78l.43.94c-.21.29-.47.54-.87.3a3.71,3.71,0,0,1-.56-.49Z" fill="#042469"/><path d="M319.26,365l.37-.54.64,1.35c-.24.06-.62.25-.7.16a4,4,0,0,1-.52-.95Z" fill="#ad1e20" stroke="#1d1d1b" stroke-miterlimit="10" stroke-width="0.1"/><path d="M275.66,418.63c-.38.33-.65.59-1,.81a.48.48,0,0,1-.34,0,1.21,1.21,0,0,1-.08-.64.65.65,0,0,1,.45-.36A4.29,4.29,0,0,1,275.66,418.63Z" fill="#ad1e20" stroke="#1d1d1b" stroke-miterlimit="10" stroke-width="0.1"/><path d="M252.33,447.74c-.12-.2-.32-.37-.29-.48a3,3,0,0,1,.43-.79.6.6,0,0,1,.41.16.72.72,0,0,1,.08.58C252.85,447.41,252.59,447.53,252.33,447.74Z" fill="#ad1e20" stroke="#1d1d1b" stroke-miterlimit="10" stroke-width="0.1"/><path d="M252.12,448c-.83.33-.85.32-.92-.42l.67-.23Z" fill="#ad1e20" stroke="#1d1d1b" stroke-miterlimit="10" stroke-width="0.1"/><path d="M259.36,440.52c.13.13.36.25.38.39s-.14.37-.23.56l-.4-.74Z" fill="#042469"/><path d="M303.09,375.24a6.82,6.82,0,0,1-.81-.41,3.4,3.4,0,0,1,.21-.5l.68.75Z" fill="#ad1e20" stroke="#1d1d1b" stroke-miterlimit="10" stroke-width="0.1"/><path d="M322.17,364.77l-.42-.39.54-.49C322.76,364.1,322.52,364.38,322.17,364.77Z" fill="#ad1e20" stroke="#1d1d1b" stroke-miterlimit="10" stroke-width="0.1"/><path d="M293.93,392.35h-.13l.05-.09A.6.6,0,0,1,293.93,392.35Z" fill="#ad1e20" stroke="#1d1d1b" stroke-miterlimit="10" stroke-width="0.1"/><path d="M266.16,434.93h1.38a0,0,0,0,1,0,0v20a0,0,0,0,1,0,0h-2.88a0,0,0,0,1,0,0V436.43A1.5,1.5,0,0,1,266.16,434.93Z" fill="#fff"/><path d="M264.65,460.72h2.89a0,0,0,0,1,0,0v12a0,0,0,0,1,0,0h-1.38a1.51,1.51,0,0,1-1.51-1.51V460.72A0,0,0,0,1,264.65,460.72Z" fill="#fff"/><path d="M256.06,460.73h2.86a0,0,0,0,1,0,0v18.64a0,0,0,0,1,0,0h-1.37a1.49,1.49,0,0,1-1.49-1.49V460.73A0,0,0,0,1,256.06,460.73Z" fill="#fff"/><path d="M257.55,441.1h1.38a0,0,0,0,1,0,0V455a0,0,0,0,1,0,0H256a0,0,0,0,1,0,0V442.6A1.51,1.51,0,0,1,257.55,441.1Z" fill="#fff"/><path d="M270.12,449.49h1.37A1.5,1.5,0,0,1,273,451v6.55a0,0,0,0,1,0,0h-2.87a0,0,0,0,1,0,0v-8A0,0,0,0,1,270.12,449.49Z" transform="matrix(0, 1, -1, 0, 725.07, 181.96)" fill="#fff"/><path d="M251,450h2.87a0,0,0,0,1,0,0v7.12a0,0,0,0,1,0,0h-1.37a1.5,1.5,0,0,1-1.5-1.5V450A0,0,0,0,1,251,450Z" transform="translate(706.02 201.05) rotate(90)" fill="#fff"/><path d="M251.24,458.79h2.87a0,0,0,0,1,0,0v5.27a1.5,1.5,0,0,1-1.5,1.5h-1.37a0,0,0,0,1,0,0v-6.77A0,0,0,0,1,251.24,458.79Z" transform="translate(714.85 209.49) rotate(90)" fill="#fff"/><path d="M271.43,457.4h2.36a0,0,0,0,1,0,0V467a0,0,0,0,1,0,0h-2.92a0,0,0,0,1,0,0v-9A.57.57,0,0,1,271.43,457.4Z" transform="translate(734.51 189.85) rotate(90)" fill="#fff"/><path d="M334.91,613.88H322.66v9.29h10.85c-.52,2.45-.94,4.7-1.53,6.9a1.87,1.87,0,0,1-1.43.88c-2.58.09-5.17,0-7.92,0-.46,6.69-3.37,11.65-9.93,13.63-6.21,1.88-11.71.14-16.55-4.27-4.8,4.36-10.36,6.2-16.64,4.26s-9.41-6.82-9.81-13.62c-2.56,0-5.05-.06-7.54,0-1.33.05-1.91-.33-2.1-1.73-.26-2-.84-3.89-1.32-6h10.84V614H257.44c-.13-2.6-.25-5-.39-7.65h12.39c.18-7.19,3.77-11.93,10-14.38,6.48-2.54,11.9,0,16.66,4.57,5.05-4.75,10.68-7.26,17.39-4.25,5.8,2.59,9.12,7.12,9.27,13.92h12.11Z" fill="#ad1e20" stroke="#1d1d1b" stroke-miterlimit="10" stroke-width="0.1"/><path d="M341.67,589.79c-.08-3.68,0-14.72,0-14.72H250.24v14.72c0,68.68,45.72,95.3,45.72,95.3S343.18,659,341.67,589.79Zm-6.76,24.09H322.66v9.29h10.85c-.52,2.45-.94,4.7-1.53,6.9a1.87,1.87,0,0,1-1.43.88c-2.58.09-5.17,0-7.92,0-.46,6.69-3.37,11.65-9.93,13.63-6.21,1.88-11.71.14-16.55-4.27-4.8,4.36-10.36,6.2-16.64,4.26s-9.41-6.82-9.81-13.62c-2.56,0-5.05-.06-7.54,0-1.33.05-1.91-.33-2.1-1.73-.26-2-.84-3.89-1.32-6h10.84V614H257.44c-.13-2.6-.25-5-.39-7.65h12.39c.18-7.19,3.77-11.93,10-14.38,6.48-2.54,11.9,0,16.66,4.57,5.05-4.75,10.68-7.26,17.39-4.25,5.8,2.59,9.12,7.12,9.27,13.92h12.11Z" fill="#fff" stroke="#1d1d1b" stroke-miterlimit="10" stroke-width="0.1"/><path d="M312.86,613.58c-6.24.37-11.94-.71-16.74-5-4.81,4.31-10.54,5.28-16.66,5v9.51a27.35,27.35,0,0,1,16.72,5.34c5-3.87,10.66-5.19,16.68-5.41Z" fill="#fff" stroke="#1d1d1b" stroke-miterlimit="10" stroke-width="0.1"/><path d="M282.77,637.28c2.47.89,5.21-.14,7.15-2.75-3.05-3-6.93-3.6-10.95-3.93C278.78,633.92,280.2,636.36,282.77,637.28Z" fill="#fff" stroke="#1d1d1b" stroke-miterlimit="10" stroke-width="0.1"/><path d="M282.65,599.88c-2.43.9-3.8,3.23-3.73,6.59,4.06-.22,7.88-.92,11.13-4C287.62,599.81,285.12,599,282.65,599.88Z" fill="#fff" stroke="#1d1d1b" stroke-miterlimit="10" stroke-width="0.1"/><path d="M309.71,599.94c-3-1.17-5.3.22-7.61,2.45,3.38,3.15,7.21,4,11.44,4C313.39,603.36,312.43,601,309.71,599.94Z" fill="#fff" stroke="#1d1d1b" stroke-miterlimit="10" stroke-width="0.1"/><path d="M302.22,634.64c2.69,2.85,5.43,3.64,7.91,2.38a5.87,5.87,0,0,0,3.05-6.42C309.24,631,305.39,631.54,302.22,634.64Z" fill="#fff" stroke="#1d1d1b" stroke-miterlimit="10" stroke-width="0.1"/><text transform="translate(246.58 290.13)" font-size="18" font-family="NeueHaasUnicaW06-Thin" font-weight="200">international</text><text transform="translate(263.69 496.65)" font-size="18" font-family="NeueHaasUnicaW06-Thin" font-weight="200">national</text><text transform="translate(263.38 702.7)" font-size="18" font-family="NeueHaasUnicaW06-Thin" font-weight="200">regional</text><path d="M320.69,179l2.67,2.1c-.84.78-1.64,1.6-2.53,2.3a2.81,2.81,0,0,1-1.52.57,24.28,24.28,0,0,1-2.69-.1,3.3,3.3,0,0,0,1.05,1.16,2.2,2.2,0,0,1,1,2.18c0,.78-.33,1.06-1.09,1.06-1.18,0-2.35.07-3.52.16-.24,0-.65.26-.67.44-.22,1.54-.76,3.06,1,4.27,1.53,1,2.58,1.09,3.58-.47.18-.3.4-.58.55-.89.54-1.09,1.24-1.89,2.61-1.69,0,0,.09-.07.2-.17a3,3,0,0,1,0-.89c.08-.26.34-.69.5-.68,1.37.1,2.88,0,4.06.51,2.37,1.1,4.56,2.59,6.82,3.92l0,0,.17.18.79,1.74-.78-.24-.72,2.24c-.17.55-.47.76-1.07.56q-2.34-.78-4.7-1.51c-.64-.2-.88-.54-.66-1.2.15-.48.22-1,.36-1.62-1.52,0-2.94,0-4.35,0a2.53,2.53,0,0,0-2.07.71,6.88,6.88,0,0,1-4.64,2,2.29,2.29,0,0,0-2.31,2.51c0,.37-.17,1-.41,1-1.65.62-2.32,2.1-3.12,3.44a3.87,3.87,0,0,0-.51,1.86c-.07,1.65,0,3.3,0,4.95a2,2,0,0,0,.66,1.68,10.59,10.59,0,0,1,2.7,3.85,16.34,16.34,0,0,0,.94,1.87,1.06,1.06,0,0,0,.68.53c1.78.06,3.52.22,5.1-1.13s2.85-1.06,3.91.73a1.69,1.69,0,0,0,1.74,1c1.39-.08,1.38,0,1.43,1.44a5.2,5.2,0,0,0,.32,2.47,5.59,5.59,0,0,1,.87,3.4c-.13,2.26.32,4.56-.58,6.76a.94.94,0,0,0,.12.7c1,1.78,2,3.54,3,5.3a41.83,41.83,0,0,1-49.4,13.59,7.6,7.6,0,0,1-.76-.37c2.89-3.16,5.77-6.33,8.7-9.45a2.58,2.58,0,0,0,.88-2.27,1.35,1.35,0,0,1,.79-1.46c1-.64,2-1.4,3-2a2.72,2.72,0,0,0,1.34-2.05c.27-1.34.26-2.79,1.31-3.87a6.26,6.26,0,0,0,1.63-5.42.33.33,0,0,1,0-.1c.09-.61-.2-.88-.79-1.05-2.22-.64-4.42-1.37-6.64-2a2.33,2.33,0,0,1-1.57-1.25,27.76,27.76,0,0,0-1.59-2.81,2,2,0,0,0-1.12-.87,7.58,7.58,0,0,1-5.1-3.11,5.58,5.58,0,0,0-.86-.89,1.42,1.42,0,0,0-.73-.37c-2.49-.17-5-.47-7.26,1a1.87,1.87,0,0,1-1.25.21,10.79,10.79,0,0,1-2.37-.71,1.38,1.38,0,0,1-.68-.93,12.16,12.16,0,0,1,.12-2.08c0-.51-.12-.76-.66-.8a18.89,18.89,0,0,1-2-.29c-1-.17-1.08-.38-.71-1.26l.66-1.57c-1.75-.47-2-.41-3,.64a.88.88,0,0,1-.49.24,4.83,4.83,0,0,1-3.13-1.67,1.18,1.18,0,0,1,0-.38c0-1.1,0-2.21-.08-3.32a1.83,1.83,0,0,1,2.33-2c.61.1,1.45.34,1.82.05,1-.79,2.07-.63,3.16-.68a1.34,1.34,0,0,1,1.44.8c.43.84,1,1.63,1.41,2.41.93-.15,1.11-.66,1-1.39-.1-.47-.11-1-.25-1.41a2.65,2.65,0,0,1,.88-3.18c.46-.37.79-.91,1.24-1.31a2.82,2.82,0,0,0,1.06-2.59,1.07,1.07,0,0,1,.41-.93c.79-.29.8-.84.8-1.51,0-1.59,0-1.59,1.45-2.12a1.71,1.71,0,0,1,.62-.22c.39,0,.9,0,1.15.24a2.82,2.82,0,0,0,4.62-.76,3.63,3.63,0,0,0-3.17-1.56,3.59,3.59,0,0,1-1-.27l.08-.37a10.54,10.54,0,0,0,1.59,0c.54-.09,1.25-.14,1.55-.5a5.16,5.16,0,0,1,3.2-1.66,9.58,9.58,0,0,0,1-.32c-.6-1-.94-2.16-1.7-2.58a6.09,6.09,0,0,1-3.13-4.13,4.15,4.15,0,0,0-.29-.7l6-2.13c.88,1,1.75,2,2.65,3a1.26,1.26,0,0,0,.79.42c.75,0,1.51-.09,2.45-.15-.82-1.24-.05-1.93.69-2.67s1.28-1.4,1.91-2.1a41.6,41.6,0,0,1,17.7,2.81c1.18.44,2.32,1,3.47,1.54.14.45.25.91.43,1.35.76,1.86,1.43,3.72.45,5.72,0,.07,0,.18.05.54,1.3,0,2.62,0,3.93,0,.22,0,.55-.4.6-.65C320.38,181.14,320.52,180,320.69,179Z" fill="#1682db"/><path d="M279.05,174.59a4.15,4.15,0,0,1,.29.7,6.09,6.09,0,0,0,3.13,4.13c.76.42,1.1,1.61,1.7,2.58a9.58,9.58,0,0,1-1,.32A5.16,5.16,0,0,0,280,184c-.3.36-1,.41-1.55.5a10.54,10.54,0,0,1-1.59,0l-.08.37a3.59,3.59,0,0,0,1,.27,3.63,3.63,0,0,1,3.17,1.56,2.82,2.82,0,0,1-4.62.76c-.25-.23-.76-.21-1.15-.24a1.71,1.71,0,0,0-.62.22c-1.46.53-1.47.53-1.45,2.12,0,.67,0,1.22-.8,1.51a1.07,1.07,0,0,0-.41.93,2.82,2.82,0,0,1-1.06,2.59c-.45.4-.78.94-1.24,1.31a2.65,2.65,0,0,0-.88,3.18c.14.45.15.94.25,1.41.15.73,0,1.24-1,1.39-.46-.78-1-1.57-1.41-2.41a1.34,1.34,0,0,0-1.44-.8c-1.09.05-2.17-.11-3.16.68-.37.29-1.21,0-1.82-.05a1.83,1.83,0,0,0-2.33,2c.05,1.11.05,2.22.08,3.32a1.18,1.18,0,0,0,0,.38,4.83,4.83,0,0,0,3.13,1.67.88.88,0,0,0,.49-.24c1-1,1.23-1.11,3-.64l-.66,1.57c-.37.88-.26,1.09.71,1.26a18.89,18.89,0,0,0,2,.29c.54,0,.71.29.66.8a12.16,12.16,0,0,0-.12,2.08,1.38,1.38,0,0,0,.68.93,10.79,10.79,0,0,0,2.37.71,1.87,1.87,0,0,0,1.25-.21c2.27-1.51,4.77-1.21,7.26-1a1.42,1.42,0,0,1,.73.37,5.58,5.58,0,0,1,.86.89,7.58,7.58,0,0,0,5.1,3.11,2,2,0,0,1,1.12.87,27.76,27.76,0,0,1,1.59,2.81,2.33,2.33,0,0,0,1.57,1.25c2.22.64,4.42,1.37,6.64,2,.59.17.88.44.79,1.05a.33.33,0,0,0,0,.1,6.26,6.26,0,0,1-1.63,5.42c-1.05,1.08-1,2.53-1.31,3.87a2.72,2.72,0,0,1-1.34,2.05c-1,.6-2,1.36-3,2a1.35,1.35,0,0,0-.79,1.46,2.58,2.58,0,0,1-.88,2.27c-2.93,3.12-5.81,6.29-8.7,9.45l-5.85-3.11c.16-1.6.33-3.21.48-4.81.24-2.71.49-5.43.69-8.14a1.32,1.32,0,0,0-.35-1c-.85-.71-1.81-1.27-2.65-2a4.41,4.41,0,0,1-1.06-1.49,36.27,36.27,0,0,0-1.39-3.52,8.23,8.23,0,0,1-1.19-5.34,2.72,2.72,0,0,1,.59-1.59,4.13,4.13,0,0,0,1.47-4,.6.6,0,0,1,0-.19.89.89,0,0,0-.91-1.16c-1.66.12-2.85-.92-4.22-1.5a1,1,0,0,1-.7-1.18,1.56,1.56,0,0,0-1-1.83,6.4,6.4,0,0,1-1.31-.94,3.2,3.2,0,0,0-2.43-.78c-1.7,0-3.4-.11-5.09-.18a65.31,65.31,0,0,1,1.34-7.15,41.28,41.28,0,0,1,22.57-26.48C278.62,174.72,278.84,174.67,279.05,174.59Z" fill="#93bc72"/><path d="M329.57,238c-1-1.76-2-3.52-3-5.3a.94.94,0,0,1-.12-.7c.9-2.2.45-4.5.58-6.76a5.59,5.59,0,0,0-.87-3.4,5.2,5.2,0,0,1-.32-2.47c-.05-1.44,0-1.52-1.43-1.44a1.69,1.69,0,0,1-1.74-1c-1.06-1.79-2.3-2.1-3.91-.73s-3.32,1.19-5.1,1.13a1.06,1.06,0,0,1-.68-.53,16.34,16.34,0,0,1-.94-1.87,10.59,10.59,0,0,0-2.7-3.85,2,2,0,0,1-.66-1.68c0-1.65,0-3.3,0-4.95a3.87,3.87,0,0,1,.51-1.86c.8-1.34,1.47-2.82,3.12-3.44.24-.09.39-.67.41-1a2.29,2.29,0,0,1,2.31-2.51,6.88,6.88,0,0,0,4.64-2,2.53,2.53,0,0,1,2.07-.71c1.41,0,2.83,0,4.35,0-.14.64-.21,1.14-.36,1.62-.22.66,0,1,.66,1.2q2.35.73,4.7,1.51c.6.2.9,0,1.07-.56l.72-2.24.78.24h0l.18.22c.95,2.57,2.08,5.09,2.82,7.72a35.92,35.92,0,0,1,1.35,11.94,42.51,42.51,0,0,1-8.22,23.2A3.19,3.19,0,0,1,329.57,238Z" fill="#93bc72"/><path d="M254.52,208.44c1.69.07,3.39.19,5.09.18a3.2,3.2,0,0,1,2.43.78,6.4,6.4,0,0,0,1.31.94,1.56,1.56,0,0,1,1,1.83,1,1,0,0,0,.7,1.18c1.37.58,2.56,1.62,4.22,1.5a.89.89,0,0,1,.91,1.16.6.6,0,0,0,0,.19,4.13,4.13,0,0,1-1.47,4,2.72,2.72,0,0,0-.59,1.59,8.23,8.23,0,0,0,1.19,5.34,36.27,36.27,0,0,1,1.39,3.52,4.41,4.41,0,0,0,1.06,1.49c.84.72,1.8,1.28,2.65,2a1.32,1.32,0,0,1,.35,1c-.2,2.71-.45,5.43-.69,8.14-.15,1.6-.32,3.21-.48,4.81a40.51,40.51,0,0,1-14.24-15.25,42.34,42.34,0,0,1-5.15-21.37C254.19,210.44,254.4,209.44,254.52,208.44Z" fill="#1682db"/><path d="M332.77,192.73c-2.26-1.33-4.45-2.82-6.82-3.92-1.18-.55-2.69-.41-4.06-.51-.16,0-.42.42-.5.68a3,3,0,0,0,0,.89c-.11.1-.16.18-.2.17-1.37-.2-2.07.6-2.61,1.69-.15.31-.37.59-.55.89-1,1.56-2.05,1.51-3.58.47-1.8-1.21-1.26-2.73-1-4.27,0-.18.43-.42.67-.44,1.17-.09,2.34-.16,3.52-.16.76,0,1.05-.28,1.09-1.06a2.2,2.2,0,0,0-1-2.18,3.3,3.3,0,0,1-1.05-1.16,24.28,24.28,0,0,0,2.69.1,2.81,2.81,0,0,0,1.52-.57c.89-.7,1.69-1.52,2.53-2.3a36.89,36.89,0,0,1,7.86,8.9C331.8,190.83,332.25,191.8,332.77,192.73Z" fill="#93bc72"/><path d="M320.69,179c-.17,1.09-.31,2.19-.53,3.28-.05.25-.38.64-.6.65-1.31.06-2.63,0-3.93,0,0-.36-.08-.47-.05-.54,1-2,.31-3.86-.45-5.72-.18-.44-.29-.9-.43-1.35Z" fill="#93bc72"/><path d="M293.53,171c-.63.7-1.24,1.43-1.91,2.1s-1.51,1.43-.69,2.67c-.94.06-1.7.16-2.45.15a1.26,1.26,0,0,1-.79-.42c-.9-1-1.77-2-2.65-3Z" fill="#93bc72"/><path d="M332.92,192.89l-.17-.18Z" fill="#93bc72"/><path d="M333.88,194.84l-.18-.22Z" fill="#1682db"/><path d="M153.08,215.8a41.94,41.94,0,0,1-3.92,15.66,41,41,0,0,1-6,9.46,38.69,38.69,0,0,1-8.23,7.57c-1.9,1.22-3.78,2.5-5.78,3.54a44.54,44.54,0,0,1-10.56,3.62,13.49,13.49,0,0,1-1.91.25,71.79,71.79,0,0,1-12.8,0c-.87-.18-1.75-.29-2.61-.46A40.11,40.11,0,0,1,87.63,250,41.4,41.4,0,0,1,77,240.77a4.78,4.78,0,0,1,.76,0c4.41.9,8.81,1.89,13.24,2.68,3,.55,6,.91,9.07,1.2s6,.37,8.93.55a2,2,0,0,1-.06.43c-.25.71-.62,1.38,0,2.13.13.15-.1.76-.32,1-1,1.3-1,1.29.07,2.49l.29.33c.69.7.8.69,1.14-.21s.67-1.84,1-2.77c.18-.53.37-1,1-1.14.23-.06.44-.43.57-.7a14.23,14.23,0,0,0,.5-1.43l5.17-.24-.65,2.76c1.18-.88,2.13-1.6,3.1-2.29a14.61,14.61,0,0,1,1.29-.71l-.38,1.87c1.86-1.22,3.59-2.29,5.26-3.44a30.08,30.08,0,0,0,6.16-5.82c.43-.53.38-.75-.33-.71.89-.73,1.77-1.47,2.67-2.18.69-.55,1.4-1.06,2.21-1.68l-2-.35a2.56,2.56,0,0,1,.28-.7,30.89,30.89,0,0,0,4.52-8.83,2.78,2.78,0,0,1,.63-.8,1.29,1.29,0,0,0,1.42,0c.85-.38,1.72-.72,2.58-1.07l.64.06a6.33,6.33,0,0,1-1.33,4.68,1.09,1.09,0,0,0-.18.91c.69,1.56-.14,2.94-.62,4.29-.29.85-.82,1.55-.55,2.54a1.45,1.45,0,0,1-.3,1c-1.28,1.85-2.61,3.66-3.9,5.51-.38.53-.69,1.11-1,1.67l.32.21a39.81,39.81,0,0,0,6.32-8.32l.16-.24.09-.23.15-.21.08-.21.15-.23.06-.21.17-.23a.64.64,0,0,0,.06-.18l.17-.26a1.21,1.21,0,0,0,0-.18l.16-.26a1.17,1.17,0,0,1,0-.2l.16-.24.06-.2.16-.23.06-.23.14-.21.07-.25.19-.41c0-.06,0-.12.05-.18l.15-.26.05-.22.19-.43c0-.06,0-.12,0-.19l.16-.25,0-.24.17-.42,0-.22.18-.44,0-.22.17-.43,0-.24.17-.42,0-.26.19-.61,0-.24.16-.43.06-.42.17-.66,0-.25.18-.64,0-.46.18-.84c.2-2.34.43-4.69.59-7,0-.38-.22-1.07-.45-1.12-.91-.19-.91-.89-1.07-1.53l0-3.06c.36.14.74.26,1.1.44,1.16.58,2.32,1.18,3.48,1.77Z" fill="#1b4f83"/><polygon points="80.51 182.25 80.51 182.26 80.51 182.26 80.51 182.25" fill="#e6332a" stroke="#000" stroke-miterlimit="10" stroke-width="0.1"/><path d="M164.44,212.11a4.46,4.46,0,0,1-2.41,2.61,11.44,11.44,0,0,0-4.08-5.09,22.68,22.68,0,0,0-5.54-4.34l-.23-.22c-1.83-1.1-3.65-2.23-5.5-3.3-.74-.42-1.55-.73-2.33-1.09l-1.16-.46a2.4,2.4,0,0,0-2-1.08l-3.11-1.54c-1.91-.87-3.79-1.82-5.74-2.6q-4.8-1.92-9.67-3.67c-1.36-.49-2.78-.78-4.18-1.16a2.51,2.51,0,0,0-.65-.38c-3.77-1-7.54-1.91-11.33-2.82h0c-.28-.06-1.11-.22-1.32-.28a8.8,8.8,0,0,0-1.7-.23,5.08,5.08,0,0,0-.91.06c.67,1.34,1.25,2.57,1.91,3.75a10,10,0,0,0,1.2,1.42L106,193h0a14,14,0,0,1-1.44-.42l-14.07-5.77c-.39-.2-.76-.43-1.16-.6-2.43-1-4.87-2-7.3-3.06l-.79-.23-.67-.67,3.3-1.14,2.51-1.06.32-.21L91,178.1a9.56,9.56,0,0,0,1-.28l13-5.19c.33-.14.67-.25,1.14-.43-.15.43-.21.63-.28.84s-.1.32-.16.48c-.51.74-1,1.46-1.52,2.23-.84,1.38-1.64,2.79-2.61,4.45l4,.15c.23.66.78.37,1.17.31a8.6,8.6,0,0,0,1.44-.46c-.11.24-.22.47-.36.8l2,.37c.38.09.76.22,1.14.28.57.08,1.14.12,1.7.18l5.49,1.53h0l.15,0,1.91.64a8.13,8.13,0,0,0,.85.4c1.93.66,3.88,1.28,5.8,2,2.37.84,4.71,1.72,7.07,2.59l3.59,1.47.33.17,1.66.63,5.24,2.57,3.18,1.62,1.58.85c1.79,1.09,3.66,2.08,5.37,3.29,2.33,1.65,4.59,3.42,6.78,5.25a8.87,8.87,0,0,1,2.76,4.12A28,28,0,0,1,164.44,212.11Z" fill="#e6332a" stroke="#000" stroke-miterlimit="10" stroke-width="0.1"/><path d="M74.32,237.06a9.21,9.21,0,0,0-1.08-.46A49.25,49.25,0,0,1,63,232.93c-2-1.06-3.9-2.28-4.76-4.57a19.76,19.76,0,0,1,.15-2.83c.44-.54.87-1.1,1.3-1.65a9.18,9.18,0,0,0,4.61,3.52L70.46,230l1.52.44c2.06.56,4.11,1.21,6.2,1.66,2.59.55,5.21.94,7.82,1.41l3.12.48a125,125,0,0,0,19.43,1.29,7.15,7.15,0,0,0,1.12-.22,16.81,16.81,0,0,0,6.4-.22c.45,0,.91,0,1.36-.06.07,0,.12-.27.17-.41l-4.44-4.61c.17-.11.2-.14.22-.14,3.48.46,7,.94,10.43,1.38,1,.14,2.08.16,3.12.24,0,0,.1.14.16.14,2.88.41,5.76.8,8.65,1.2l2,.35c-.81.62-1.52,1.13-2.21,1.68-.9.71-1.78,1.45-2.67,2.18a1.7,1.7,0,0,0-.4.13c-2.3,1.7-4.61,3.38-6.88,5.12-1.11.85-2.15,1.78-3.23,2.68l-.21.18h0a14.61,14.61,0,0,0-1.29.71c-1,.69-1.92,1.41-3.1,2.29l.65-2.76c.35-1.21.71-2.42,1-3.63,0-.14-.2-.35-.32-.53l.57-.9a5.79,5.79,0,0,0-.62,0q-4,.31-8,.66a5,5,0,0,0-.73.21,13.15,13.15,0,0,0-1.38-.21c-3.52-.09-7.05-.14-10.58-.24a29.6,29.6,0,0,1-3.25-.24c-2.69-.32-5.38-.66-8.07-1.06-2.89-.43-5.78-.93-8.67-1.42C77,237.58,75.66,237.31,74.32,237.06Z" fill="#e6332a" stroke="#000" stroke-miterlimit="10" stroke-width="0.1"/><path d="M149.58,196.29l-1.58-.85a4.63,4.63,0,0,0-.34-1.13c-1.26-2.08-2.5-4.18-3.87-6.19a33.35,33.35,0,0,0-6.33-6.77,45.17,45.17,0,0,0-7.09-4.86,43.74,43.74,0,0,0-7.3-3.16,29.83,29.83,0,0,0-9.26-1.79,82,82,0,0,0-8.59.06,37.2,37.2,0,0,0-9.2,2.16,41.49,41.49,0,0,0-11.77,6.56c-.22.17-.29.53-.44.8l-3.3,1.14A37.5,37.5,0,0,1,87.19,177a43.41,43.41,0,0,1,13.24-5.63,26.43,26.43,0,0,1,4.42-.71,69.6,69.6,0,0,1,10.51,0,40,40,0,0,1,15.7,5.06,45,45,0,0,1,7.69,5.48,43,43,0,0,1,7.66,9A24.73,24.73,0,0,1,149.58,196.29Z" fill="#1b4f83"/><path d="M72,230.47,70.46,230,68.93,226l-1.14-5.15c-.21-2.82-.58-5.64-.59-8.46a35.36,35.36,0,0,1,1.74-11.12,57.5,57.5,0,0,1,2.6-6.76,33.43,33.43,0,0,1,5-7.85c1.29-1.49,2.66-2.91,4-4.37l.67.68.17.8,0,0c-.31.09-.71.09-.91.29a27.22,27.22,0,0,0-2.35,2.58,44.67,44.67,0,0,0-7.91,15,43.91,43.91,0,0,0-1.64,10,59.9,59.9,0,0,0,.39,7.06,34.23,34.23,0,0,0,2.18,9.07C71.42,228.6,71.68,229.54,72,230.47Z" fill="#1b4f83"/><path d="M67.79,220.81,68.93,226a5.12,5.12,0,0,1-.71.34c-1.3.38-2.6.73-3.9,1.1a9.18,9.18,0,0,1-4.61-3.52,15.34,15.34,0,0,1,2.83-1.71C64.24,221.58,66,221.25,67.79,220.81Z" fill="#922" stroke="#000" stroke-miterlimit="10" stroke-width="0.1"/><path d="M158,209.63a11.48,11.48,0,0,1,4.07,5.09,18.17,18.17,0,0,1-3.51,1c-1.8.18-3.62.06-5.44.06l-.05-5.91.06-.26a7.78,7.78,0,0,0,1.17.14C155.49,209.75,156.72,209.68,158,209.63Z" fill="#922" stroke="#000" stroke-miterlimit="10" stroke-width="0.1"/><path d="M135.74,232.61c-2.89-.4-5.77-.79-8.65-1.2-.06,0-.11-.09-.16-.14.27-.19.54-.36.8-.56,1-.78,1.07-1.4.15-2.3s-1.89-2-3.38-2.18c-.12,0-.23-.16-.34-.24.36-.45.74-.88,1.08-1.34a18.19,18.19,0,0,0,3.34-15.73,18.81,18.81,0,0,0-9.3-12.22,3,3,0,0,1-.62-.66c2.5.78,5,1.48,7.49,2.37,4.38,1.58,8.72,3.27,13.08,4.92a.13.13,0,0,0,.12.07.26.26,0,0,0,.09.17,9.89,9.89,0,0,0,.41,2,1.44,1.44,0,0,1-.06,1.31c-.56,1.17-1.12,2.35-1.57,3.57-.38,1.07.18,1.6,1.3,1.37l.95-.16c-.51.83-.9,1.43-1.27,2-.8,1.35-.79,1.74.29,2.88a2.85,2.85,0,0,1,.87,2.25,5.91,5.91,0,0,0,.81,3.45,2.78,2.78,0,0,0-.63.8,30.89,30.89,0,0,1-4.52,8.83A2.56,2.56,0,0,0,135.74,232.61Z" fill="#236591"/><path d="M141.17,222.28a5.91,5.91,0,0,1-.81-3.45,2.85,2.85,0,0,0-.87-2.25c-1.08-1.14-1.09-1.53-.29-2.88.37-.62.76-1.22,1.27-2l-.95.16c-1.12.23-1.68-.3-1.3-1.37.45-1.22,1-2.4,1.57-3.57a1.44,1.44,0,0,0,.06-1.31,9.89,9.89,0,0,1-.41-2,.85.85,0,0,1,.32,0c2.58,1.17,5.16,2.36,7.75,3.51a1.19,1.19,0,0,1,.75,1.29c0,.79.1,1.57.15,2.36.16.64.16,1.34,1.07,1.53.23,0,.47.74.45,1.12-.16,2.34-.39,4.69-.59,7l-.18.84,0,.46-.18.64,0,.25-.17.66-.06.42-.16.43,0,.24-.19.61,0,.26-.17.42,0,.24-.17.43,0,.22-.18.44,0,.22-.17.42,0,.24-.16.25c0,.07,0,.13,0,.19l-.19.43-.05.22-.15.26c0,.06,0,.12-.05.18l-.19.41-.07.25-.14.21-.06.23-.16.23-.06.2-.16.24a1.17,1.17,0,0,0,0,.2l-.16.26a1.21,1.21,0,0,1,0,.18l-.17.26a.64.64,0,0,1-.06.18l-.17.23-.06.21-.15.23-.08.21-.15.21-.09.23-.16.24a39.81,39.81,0,0,1-6.32,8.32l-.32-.21c.35-.56.66-1.14,1-1.67,1.29-1.85,2.62-3.66,3.9-5.51a1.45,1.45,0,0,0,.3-1c-.27-1,.26-1.69.55-2.54.48-1.35,1.31-2.73.62-4.29a1.09,1.09,0,0,1,.18-.91,6.33,6.33,0,0,0,1.33-4.68l-.64-.06c-.86.35-1.73.69-2.58,1.07A1.29,1.29,0,0,1,141.17,222.28Z" fill="#07893c"/><path d="M74.32,237.06c1.34.25,2.69.52,4,.75,2.89.49,5.78,1,8.67,1.42,2.69.4,5.38.74,8.07,1.06a29.6,29.6,0,0,0,3.25.24c3.53.1,7.06.15,10.58.24a13.15,13.15,0,0,1,1.38.21l0,.45-.16.42-.08.67-.14.2-.07.45-.14.22-.07.45-.16.41-.08.46-.14.2v.28l-.2,0c-3-.18-6-.27-8.93-.55S94,244,91,243.48c-4.43-.79-8.83-1.78-13.24-2.68a4.78,4.78,0,0,0-.76,0c0-.05-.62-.76-.68-.82s-.59-.85-.66-.93l-.84-1.09Z" fill="#174360"/><path d="M153.09,209.63l-.06.26c-1.16-.59-2.32-1.19-3.48-1.77-.36-.18-.74-.3-1.1-.44a6.8,6.8,0,0,1,0-1.19,1.48,1.48,0,0,0-.83-1.69l-.21-.19-.44-.25-.22-.19-1.1-.7-.2-.18-.68-.66-.17-.21-.05-.23-.13-.2,0-1.31c.78.36,1.59.67,2.33,1.09,1.85,1.07,3.67,2.2,5.5,3.3l.2.41c0,.06.14.93.2,1.31a11,11,0,0,1,.22,1.1Z" fill="#174360"/><path d="M144.73,202.63l.68.66.2.18,1.1.7.22.19.44.25.21.19a1.48,1.48,0,0,1,.83,1.69,6.8,6.8,0,0,0,0,1.19l0,3.06c0-.79-.16-1.57-.15-2.36a1.19,1.19,0,0,0-.75-1.29c-2.59-1.15-5.17-2.34-7.75-3.51a.85.85,0,0,0-.32,0,.26.26,0,0,1-.09-.17l.06-.32.05-.67.14-.2.74-.94.21-.16L141,201l.2-.14.67-.06.22-.15.22,0,.22-.17.44-.08.21-.14h0l1.17.46,0,1.31.13.2.05.23Z" fill="#055e29"/><path d="M122.36,244.75c1.08-.9,2.12-1.83,3.23-2.68,2.27-1.74,4.58-3.42,6.88-5.12a1.7,1.7,0,0,1,.4-.13c.71,0,.76.18.33.71a30.08,30.08,0,0,1-6.16,5.82c-1.67,1.15-3.4,2.22-5.26,3.44l.38-1.87h0Z" fill="#174360"/><path d="M109,245.23l.2,0,3.91.16.11.05a14.23,14.23,0,0,1-.5,1.43c-.13.27-.34.64-.57.7-.65.15-.84.61-1,1.14-.31.93-.64,1.85-1,2.77s-.45.91-1.14.21l-.29-.33c-1.09-1.2-1.07-1.19-.07-2.49.22-.28.45-.89.32-1-.65-.75-.28-1.42,0-2.13A2,2,0,0,0,109,245.23Z" fill="#07893c"/><path d="M119.13,241c.12.18.35.39.32.53-.32,1.21-.68,2.42-1,3.63l-5.17.24-.11-.05.37-.27h0l.1-.37.06-.22.16-.16,1.55-.05.42-.16.75-.51.14-.2,0-.45.17-.22.46-.43.2-.16.22-.07.22-.19Z" fill="#174360"/><path d="M149.16,221.26l.18-.84Z" fill="#8c8a8a"/><path d="M148.73,223.27l.17-.66Z" fill="#8c8a8a"/><path d="M148.28,225l.19-.61Z" fill="#8c8a8a"/><path d="M145.17,221.23l.64.06Z" fill="#055e29"/><path d="M148.94,222.36l.18-.64Z" fill="#8c8a8a"/><path d="M147.63,227l.18-.44Z" fill="#8c8a8a"/><path d="M147.41,227.62l.17-.42Z" fill="#8c8a8a"/><path d="M147,228.73l.19-.43Z" fill="#8c8a8a"/><path d="M146.53,229.8l.19-.41Z" fill="#8c8a8a"/><path d="M148.51,224.12l.16-.43Z" fill="#8c8a8a"/><path d="M148.07,225.65l.17-.42Z" fill="#8c8a8a"/><path d="M147.85,226.32l.17-.43Z" fill="#8c8a8a"/><path d="M147.2,228.11l.16-.25Z" fill="#8c8a8a"/><path d="M146.77,229.21l.15-.26Z" fill="#8c8a8a"/><path d="M146.32,230.26l.14-.21Z" fill="#8c8a8a"/><path d="M146.1,230.72l.16-.23Z" fill="#8c8a8a"/><path d="M145.88,231.16l.16-.24Z" fill="#8c8a8a"/><path d="M145.67,231.62l.16-.26Z" fill="#8c8a8a"/><path d="M145.45,232.06l.17-.26Z" fill="#8c8a8a"/><path d="M145.22,232.47l.17-.23Z" fill="#8c8a8a"/><path d="M145,232.91l.15-.23Z" fill="#8c8a8a"/><path d="M144.78,233.33l.15-.21Z" fill="#8c8a8a"/><path d="M144.53,233.8l.16-.24Z" fill="#8c8a8a"/><path d="M82,183.16c2.43,1,4.87,2,7.3,3.06.4.17.77.4,1.16.6l-5.21,1.89.47.28c1.89.84,3.79,1.67,5.67,2.53,1.49.67,3,1.41,4.44,2.07,3.76,1.66,7.52,3.29,11.28,4.94v.24a3.91,3.91,0,0,0-.43.87,4.22,4.22,0,0,1-1.35,2.4,2.82,2.82,0,0,0-.81,1.92,9,9,0,0,0,.56,2.73c.22.66.12,1.05-.51,1.3l-.81.34c-1,.39-1.2.27-1.28-.81,0-.18,0-.36,0-.55,0-1,.06-1.84-1.19-2.36s-1.54-.64-2.45.24-1.22.87-2.23.33a1.42,1.42,0,0,0-2.23,1.19c-.09,1.67-.09,3.35,0,5,0,1.05.42,1.43,1.44,1.33a2.59,2.59,0,0,0,1.38-.71,3.56,3.56,0,0,1,2.52-1.12c1.12,0,1.33.28.86,1.28a9.27,9.27,0,0,0-.71,1.7,2,2,0,0,0,.13,1.33c.07.15.75,0,1.15,0,.07,0,.15-.06.21-.05a2,2,0,0,1,.79.21c.09.07,0,.44-.08.67s-.14.52,0,.7c.57,1,1.18,2.07,1.78,3.1l0,0h.06l.1.37,0,.22-.33.13-.58,0-1.68-1-.12-.13-.12-.32-.09-.16-.11-.5-.14-.51a8.18,8.18,0,0,0-1-.76,11,11,0,0,0-1.29-.48v-.07h-.07l-.54-1.44-.12-.13a.48.48,0,0,0-.16-.12H95.8c-1.81-.63-3.92-.53-5.36-2.1a8.2,8.2,0,0,1-.78-1.29,32.41,32.41,0,0,0-6.27-9.8h0l-.13-.17v-.09l-.1,0L83,201l0-1.37.18-1.36L85,192.34v-.86a8,8,0,0,1-.19-.95c-.14-1.43-.82-2.84-.25-4.32v-.87a.4.4,0,0,1-.1-.18l-.2-.22h0l-1-.06L83,185l-.24.17-.17.06-.25.19h0l-.24.21h0l-.21.17-.21.1-.25.19-.13.05-.3.14-1-.49a.07.07,0,0,0,0-.12l1.39-1.85,0,0Z" fill="#07893c"/><path d="M83.81,181.12c.15-.27.22-.63.44-.8A41.49,41.49,0,0,1,96,173.76a37.2,37.2,0,0,1,9.2-2.16,82,82,0,0,1,8.59-.06,29.83,29.83,0,0,1,9.26,1.79,43.74,43.74,0,0,1,7.3,3.16,45.17,45.17,0,0,1,7.09,4.86,33.35,33.35,0,0,1,6.33,6.77c1.37,2,2.61,4.11,3.87,6.19a4.63,4.63,0,0,1,.34,1.13l-3.18-1.62-2.88-4.58a2.81,2.81,0,0,0-1.93-1.42c-.46-.08-.81-.23-.54-.87.11-.28-.14-.7-.23-1a.43.43,0,0,0-.11-.12.12.12,0,0,1-.11-.11l-.11-.11-1.66-1.65a.43.43,0,0,0-.09-.1.12.12,0,0,1-.11-.11l-.11-.11a.12.12,0,0,1-.11-.11.43.43,0,0,0-.12-.11l-1.43-1.21a.52.52,0,0,0-.1-.11c-.83-.41-1.64-.87-2.5-1.23-.24-.1-.6.11-.91.17a5.36,5.36,0,0,0,.21.88,4.43,4.43,0,0,0,.48.71.34.34,0,0,0,.12.12.11.11,0,0,1,.1.1.34.34,0,0,0,.12.12.11.11,0,0,1,.1.1.32.32,0,0,0,.1.1,3.78,3.78,0,0,1,1.44,2.2l.09.2.8.81.09,0,.08,0,1-.56a.32.32,0,0,0,.1-.1c.42-.45.74-.55,1,.18a6.35,6.35,0,0,0,1.15,2.55c.6.67.59,1.88.85,2.85l-1.65-.63,0-.38c0-.29.06-.74-.09-.85-1.48-1-3-2-4.51-2.93-.09-.06-.28,0-.42,0v.05l.19.42.07.07.37.58.07.08L134,189c-2.35-.86-4.7-1.75-7.07-2.59-1.92-.68-3.87-1.3-5.8-2a8.13,8.13,0,0,1-.85-.4l.51,0,.1-.61-.31-1.34V181c.46-.62.94-1.23,1.38-1.87.14-.21.34-.65.29-.68-1-.73-1.19-2.23-2.53-2.61a.47.47,0,0,0-.1-.1l-1-1-.12-.12-1.62-.93-1.73-.18-2.91-.1-.25-.08-5.2.12h-.2l-.67,0V173l.28-.84-1.14.43-13,5.19a9.51,9.51,0,0,1-1,.27c-.25-.24-.34-.82-.89-.48l-3.51,2.24h0l-.34.22Zm41.26-.9c-.44.14-.79.18-.81.27a.82.82,0,0,0,.17.67,29.41,29.41,0,0,0,2.46,2,1.22,1.22,0,0,0,.92,0c.09-.42.21-1.12,0-1.28A28.94,28.94,0,0,0,125.07,180.22Z" fill="#1f5b8c"/><path d="M141.87,200.82l-.67.06-.2.14-.45.09-.21.16-.74.94-.14.2-.05.67-.18.25c-4.36-1.65-8.7-3.34-13.08-4.92-2.46-.89-5-1.59-7.49-2.37l-1.71-.61-2.41-.81-.05-.3,1-1.32s0-.07,0-.08a1.49,1.49,0,0,0-.12-.14l-.88-.06-.22,0-.45,0-.2-.11-.88-.08-.22-.13-.22,0-.22-.17-.22-.06-.21-.17-.44-.24-.22-.19v-.65l.21-.15.45-.07.42-.15.46-.07.2-.13.67-.09.21-.14.45-.08.21-.13.45-.08.42-.16.66,0,.19.18.14.65s0,.06,0,.07a.59.59,0,0,0,.06.14l.08.67.14.21.08.45.14.21.52.3.21.14,1-.45.15-.42.06-.67s.06,0,.06-.06a1.42,1.42,0,0,0,0-.16v-.64c1.4.38,2.82.67,4.18,1.16,3.24,1.17,6.47,2.38,9.67,3.67,1.95.78,3.83,1.73,5.74,2.6l.05.68.19.21.47.28.21.15.23.06.21.16.44.07.22,0,.45,0,.21,0,.44-.09a2.36,2.36,0,0,1,2,1.08h0l-.21.14-.44.08-.22.17-.22,0Z" fill="#174360"/><path d="M118.52,190.82a1.49,1.49,0,0,0,0,.21l-.06.67-.15.42-1,.45-.21-.14-.52-.3c0-.07-.1-.14-.14-.21s0-.3-.08-.45l-.14-.21-.08-.66,0-.22c0-.22-.09-.44-.14-.65l-.19-.18-.66,0-.42.16-.45.07-.21.14-.45.08-.21.14-.67.09-.2.13-.46.06-.42.16-.45.07-.21.15v.65l.22.19.44.24.21.17.22.06.22.17.22,0,.22.13.88.08.2.11.45,0,.22,0,.88.07a1.8,1.8,0,0,0,.08.21l-1,1.32-.14.29a.08.08,0,0,1-.11,0l-7.2-1.73a3.88,3.88,0,0,0,.14.58l2,3.83-2.15,1.2c-3.76-1.65-7.52-3.28-11.28-4.94-1.49-.66-3-1.4-4.44-2.07-1.88-.86-3.78-1.69-5.67-2.53l-.47-.28,5.21-1.89,14.07,5.77a14,14,0,0,0,1.44.42.94.94,0,0,0,.1.1s0-.05,0-.07l-.08,0-.27-1.32c-.12-.52-.27-1-.38-1.56-.19-1-.42-2,.41-2.84.27-.11.56-.34.79-.32h0c3.79.91,7.56,1.86,11.33,2.82a2.51,2.51,0,0,1,.65.38C118.51,190.38,118.52,190.6,118.52,190.82Z" fill="#055e29"/><path d="M120.58,182l.31,1.34-.1.61-.51,0-1.91-.64a.42.42,0,0,0-.16,0h0c-.62-1-1.23-2.05-1.87-3.06-.18-.29-.44-.77-.66-.77-.8,0-1.14-.57-1.59-1-1-.94-1.86-1.94-2.85-2.84a1.82,1.82,0,0,0-1.36-.53c-1.49.32-2.59,1.39-3.84,2.21a1.51,1.51,0,0,0,.93.12c1.32-.39,2.35.42,3.47.83.23.09.36.42.54.64L108.59,180a.4.4,0,0,1-.15,0c-.19-.29-.37-.6-.59-.88-.09-.11-.34-.25-.4-.21-.59.44-1.86,0-1.74,1.37,0,0,0,.05-.07.07l-4-.16c1-1.65,1.77-3.06,2.61-4.44.47-.77,1-1.49,1.52-2.23a.25.25,0,0,0,.17-.06l.67,0,.1,0,.1,0,5.2-.12.25.08,2.91.1,1.73.18,1.62.93.12.12,1,1v.09h.09c1.34.38,1.54,1.88,2.53,2.61,0,0-.15.47-.29.68-.44.64-.92,1.25-1.38,1.87Z" fill="#07893c"/><path d="M135.33,186.33l-.8-.81-.09-.2a3.78,3.78,0,0,0-1.44-2.2V183h-.09a.11.11,0,0,0-.1-.1l-.12-.12a.11.11,0,0,0-.1-.1l-.12-.12a4.43,4.43,0,0,1-.48-.71,5.36,5.36,0,0,1-.21-.88c.31-.06.67-.27.91-.17.86.36,1.67.82,2.5,1.23v.1h.09l1.43,1.21.12.11a.12.12,0,0,0,.11.11l.11.11a.12.12,0,0,0,.11.11v.09h.09l1.66,1.65.11.11a.12.12,0,0,0,.11.11l.11.12c.09.35.34.77.23,1-.27.64.08.79.54.87a2.81,2.81,0,0,1,1.93,1.42l2.88,4.58-5.25-2.57c-.26-1-.25-2.18-.85-2.85a6.35,6.35,0,0,1-1.15-2.55c-.24-.73-.56-.63-1-.18h-.09v.09l-1,.56A.17.17,0,0,0,135.33,186.33Z" fill="#07893c"/><path d="M111,178.94c-.18-.22-.31-.55-.54-.64-1.12-.41-2.15-1.22-3.47-.83a1.51,1.51,0,0,1-.93-.12c1.25-.82,2.35-1.89,3.84-2.21a1.82,1.82,0,0,1,1.36.53c1,.9,1.89,1.9,2.85,2.84.45.45.79,1,1.59,1,.22,0,.48.48.66.77.64,1,1.25,2,1.87,3.06l-5.49-1.53-.78-.65,1-1.06c-.39-.22-.77-.44-1.17-.65a1,1,0,0,0-.31-.07Z" fill="#1b4f83"/><path d="M134,189l-.37-1.27v-.07h-.08l-.37-.58V187h-.08l-.19-.42v-.05c.14,0,.33-.11.42,0,1.51,1,3,1.92,4.51,2.93.15.11.07.56.09.85l-.36.21Z" fill="#07893c"/><path d="M106.5,187c-.23,0-.52.21-.79.32-.17-.21-.32-.54-.53-.6C105.39,186.74,106.22,186.9,106.5,187Z" fill="#055e29"/><path d="M105.3,190.12c.11.52.26,1,.38,1.56a10,10,0,0,1-1.2-1.42c-.66-1.18-1.24-2.41-1.91-3.75a5.08,5.08,0,0,1,.91-.06,8.8,8.8,0,0,1,1.7.23c.21.06.36.39.53.6C104.88,188.13,105.11,189.13,105.3,190.12Z" fill="#055e29"/><path d="M111.46,179.4a1,1,0,0,1,.31.07c.4.21.78.43,1.17.65l-1,1.06.78.65c-.56-.06-1.13-.1-1.7-.18-.38-.06-.76-.19-1.14-.28Z" fill="#07893c"/><path d="M111.46,179.4l-1.56,2-2-.37.35-.8h0l.31-.16,2.41-1.09Z" fill="#055e29"/><path d="M105.64,180.35s.08,0,.07-.07c-.12-1.33,1.15-.93,1.74-1.37.06,0,.31.1.4.21.22.28.4.59.59.88l-.16.19h0a8.21,8.21,0,0,1-1.43.46C106.41,180.72,105.87,181,105.64,180.35Z" fill="#1b4f83"/><path d="M86.64,179.85l3.51-2.24c.55-.34.64.24.89.48Z" fill="#07893c"/><path d="M138.81,198.77l-.47-.28-.19-.21-.05-.68,3.12,1.54-.44.09-.21,0-.45,0-.22,0-.44-.07-.21-.16-.23-.06Z" fill="#055e29"/><path d="M82,183.16l-.62.57-.17-.8Z" fill="#1f5b8c"/><path d="M137.59,190.45l.36-.21,0,.38Z" fill="#1b4f83"/><path d="M105.94,173.46a.25.25,0,0,1-.17.06l.16-.48Z" fill="#1b4f83"/><path d="M86.32,180.06l.34-.22Z" fill="#07893c"/><path d="M118.21,183.35a.42.42,0,0,1,.16,0Z" fill="#1b4f83"/><path d="M81.33,183.76l-1.39,1.85a.09.09,0,0,0,0,.12l1,.49.3-.14.13-.05.25-.19.21-.1.21-.17h0l.24-.21h0l.25-.19.17-.06L83,185l.2-.07,1,.06h0l.2.22a.4.4,0,0,0,.1.18v.87c-.57,1.48.11,2.89.25,4.32a8,8,0,0,0,.19.95v.86l-1.76,5.95c-.3.27-.7.48-.88.82A30.13,30.13,0,0,0,79,210.64,31.25,31.25,0,0,0,80.48,223a31.6,31.6,0,0,0,4.72,9,9.63,9.63,0,0,1,.8,1.53c-2.61-.47-5.23-.86-7.82-1.41-2.09-.45-4.14-1.1-6.2-1.66-.3-.93-.56-1.87-.89-2.79a34.23,34.23,0,0,1-2.18-9.07,59.9,59.9,0,0,1-.39-7.06,43.91,43.91,0,0,1,1.64-10,44.67,44.67,0,0,1,7.91-15,27.22,27.22,0,0,1,2.35-2.58C80.62,183.85,81,183.85,81.33,183.76Z" fill="#1f5b8c"/><path d="M86,233.54a9.63,9.63,0,0,0-.8-1.53,31.6,31.6,0,0,1-4.72-9A31.25,31.25,0,0,1,79,210.64a30.13,30.13,0,0,1,3.28-11.53c.18-.34.58-.55.88-.82L83,199.65,83,201l.16.41.11.11.13.17h0a32.41,32.41,0,0,1,6.27,9.8,8.2,8.2,0,0,0,.78,1.29,13.92,13.92,0,0,0,.46,5.49,20,20,0,0,0,14.34,14.32,5.14,5.14,0,0,0,1.41,0,4.32,4.32,0,0,1,.46.84c.18.62.54.77,1.17.85s.93.53,1.39.82a7.15,7.15,0,0,1-1.12.22A125,125,0,0,1,89.12,234Z" fill="#236591"/><path d="M109.67,235.09c-.46-.29-.9-.77-1.39-.82s-1-.23-1.17-.85a4.32,4.32,0,0,0-.46-.84c-.67-.7-1.38-1.37-2-2.11a3.33,3.33,0,0,1-.86-1.41,4.58,4.58,0,0,1,.62-3.76,7.75,7.75,0,0,0,.86-1.51c.52-1.19,1.16-2.39.07-3.63a1.27,1.27,0,0,1-.28-.7c0-.12.3-.39.34-.37,1,.55,1.36-.24,1.81-.83,1.06-1.39,1.34-1.43,2.69-.33l.25.22a1.61,1.61,0,0,0,2.46-.14c.81-.79,1.11-.83,2.1-.22.36.23.84.43,1,.77.89,1.53,3,1.85,3.64,3.63.05.16.35.24.53.35,1.31.77,1.31.77,1,2.33,0,.08,0,.19.1.34l1.11-.5c.61-.27,1.09-.35,1.28.54.06.29.5.49.77.74.11.08.22.23.34.24,1.49.18,2.4,1.22,3.38,2.18s.9,1.52-.15,2.3c-.26.2-.53.37-.8.56-1-.08-2.09-.1-3.12-.24-3.48-.44-7-.92-10.43-1.38,0,0,0,0-.22.14l4.44,4.61c-.35-.05-.72-.07-1.06-.15-.69-.18-.64.16-.47.62A16.81,16.81,0,0,1,109.67,235.09Z" fill="#07893c"/><path d="M116.55,243.61l-.75.51-.42.16-1.55.05-.16.16-.06.22-.1.33v0l-.37.27-3.91-.16v-.28l.14-.2.08-.46.16-.41.07-.45.14-.22.07-.45.14-.2.08-.67.16-.42,0-.45a5,5,0,0,1,.73-.21q4-.35,8-.66a5.79,5.79,0,0,1,.62,0l-.57.9-1.13.89-.22.19-.22.07-.2.16-.46.43-.17.22,0,.45Z" fill="#055e29"/><path d="M116.07,234.87c-.17-.46-.22-.8.47-.62.34.08.71.1,1.06.15,0,.14-.1.4-.17.41C117,234.86,116.52,234.85,116.07,234.87Z" fill="#055e29"/><path d="M122.36,244.75l-.21.18Z" fill="#1b4f83"/><path d="M124.16,226c-.27-.25-.71-.45-.77-.74-.19-.89-.67-.81-1.28-.54l-1.11.5c0-.15-.12-.26-.1-.34.32-1.56.32-1.56-1-2.33-.18-.11-.48-.19-.53-.35-.65-1.78-2.75-2.1-3.64-3.63-.2-.34-.68-.54-1-.77-1-.61-1.29-.57-2.1.22a1.61,1.61,0,0,1-2.46.14l-.25-.22c-1.35-1.1-1.63-1.06-2.69.33-.45.59-.82,1.38-1.81.83,0,0-.35.25-.34.37a1.27,1.27,0,0,0,.28.7c1.09,1.24.45,2.44-.07,3.63a7.75,7.75,0,0,1-.86,1.51,4.58,4.58,0,0,0-.62,3.76,3.33,3.33,0,0,0,.86,1.41c.63.74,1.34,1.41,2,2.11a5.14,5.14,0,0,1-1.41,0A20,20,0,0,1,90.9,218.28a13.92,13.92,0,0,1-.46-5.49c1.44,1.57,3.55,1.47,5.36,2.1h1.66a.48.48,0,0,1,.16.12.22.22,0,0,0,.12.13l.54,1.44.06.07a11,11,0,0,1,1.29.48,8.18,8.18,0,0,1,1,.76l.14.51.11.5a.26.26,0,0,0,.09.16l.12.32a.3.3,0,0,0,.12.13l1.68,1,.58,0,.33-.13s.06,0,.06-.06a1.1,1.1,0,0,0,0-.16l-.1-.37,0,0c-.6-1-1.21-2.06-1.78-3.1-.09-.18,0-.47,0-.7s.17-.6.08-.67a2,2,0,0,0-.79-.21c-.06,0-.14,0-.21.05-.4,0-1.08.2-1.15,0a2,2,0,0,1-.13-1.33,9.27,9.27,0,0,1,.71-1.7c.47-1,.26-1.31-.86-1.28A3.56,3.56,0,0,0,97.12,212a2.59,2.59,0,0,1-1.38.71c-1,.1-1.42-.28-1.44-1.33,0-1.67,0-3.35,0-5a1.42,1.42,0,0,1,2.23-1.19c1,.54,1.38.48,2.23-.33s1.33-.71,2.45-.24,1.17,1.39,1.19,2.36c0,.19,0,.37,0,.55.08,1.08.28,1.2,1.28.81l.81-.34c.63-.25.73-.64.51-1.3a9,9,0,0,1-.56-2.73,2.82,2.82,0,0,1,.81-1.92,4.22,4.22,0,0,0,1.35-2.4,3.91,3.91,0,0,1,.43-.87,7.23,7.23,0,0,1,1,.21c.78.31,1.55.66,2.42,1l-1-2.65a6.83,6.83,0,0,0,.73-.23c.85-.35.93-.59.65-1.51a6.73,6.73,0,0,1-.12-1.1,6.37,6.37,0,0,1,1.32.2c.32.12.56.47.88.63a2.15,2.15,0,0,0,.77.05.25.25,0,0,0,.11-.12l.41-.63a.08.08,0,0,0,.11,0l.09,0,.1,0,2.41.81,1.71.61a3,3,0,0,0,.62.66,18.81,18.81,0,0,1,9.3,12.22,18.19,18.19,0,0,1-3.34,15.73C124.9,225.11,124.52,225.54,124.16,226Zm-22.8-15.75a1.22,1.22,0,0,0,1.43.43c.41-.13,1.21,0,1.39.24.51.8,1.44.75,2.09,1.26.36.29,1.1.13,1.67.13,0,0,.2-.37.16-.41a4.8,4.8,0,0,0-1.3-1,5.18,5.18,0,0,1-1.62-.75C103.68,208.93,102.44,209,101.36,210.24Zm8.42,3.33c.83-.21,1.43-.35,2-.53,0,0,0-.51,0-.53-.79-.3-1.61-.55-2.42-.78-.09,0-.28.11-.34.21s-.32.62-.23.73A8.78,8.78,0,0,0,109.78,213.57Zm-3.35.06.06-.27a5.2,5.2,0,0,0-.87-.57c-.1,0-.32.23-.49.36a4.06,4.06,0,0,0,.72.66C106,213.88,106.23,213.7,106.43,213.63Z" fill="#267099"/><path d="M139.23,203.33l.18-.25-.06.32A.13.13,0,0,1,139.23,203.33Z" fill="#8c8a8a"/><path d="M110.26,241.43l-.16.42Z" fill="#8c8a8a"/><path d="M109.6,243.84l-.16.41Z" fill="#8c8a8a"/><path d="M110,242.52l-.14.2Z" fill="#8c8a8a"/><path d="M109.81,243.17l-.14.22Z" fill="#8c8a8a"/><path d="M109.36,244.71l-.14.2Z" fill="#8c8a8a"/><path d="M144.51,202.19l-.13-.2Z" fill="#8c8a8a"/><path d="M144.73,202.63l-.17-.21Z" fill="#8c8a8a"/><path d="M145.61,203.47l-.2-.18Z" fill="#8c8a8a"/><path d="M146.93,204.36l-.22-.19Z" fill="#8c8a8a"/><path d="M147.58,204.8l-.21-.19Z" fill="#8c8a8a"/><path d="M143,200.37l.21-.14Z" fill="#8c8a8a"/><path d="M141.87,200.82l.22-.15Z" fill="#8c8a8a"/><path d="M141,201l.2-.14Z" fill="#8c8a8a"/><path d="M140.34,201.27l.21-.16Z" fill="#8c8a8a"/><path d="M139.46,202.41l.14-.2Z" fill="#8c8a8a"/><path d="M142.31,200.62l.22-.17Z" fill="#8c8a8a"/><path d="M115.38,244.28l.42-.16Z" fill="#8c8a8a"/><path d="M117.78,242.08l.22-.19Z" fill="#8c8a8a"/><path d="M117.36,242.31l.2-.16Z" fill="#8c8a8a"/><path d="M116.73,243l.17-.22Z" fill="#8c8a8a"/><path d="M116.55,243.61l.14-.2Z" fill="#8c8a8a"/><path d="M113.67,244.49l.16-.16Z" fill="#8c8a8a"/><path d="M113.51,245l.1-.33-.1.37Z" fill="#8c8a8a"/><polygon points="113.51 245.04 113.51 245.08 113.51 245.08 113.51 245.04" fill="#1b4f83"/><path d="M109.49,197.36l1,2.65c-.87-.37-1.64-.72-2.42-1a7.23,7.23,0,0,0-1-.21v-.24l2.15-1.2Z" fill="#174360"/><path d="M83,201l0-1.37Z" fill="#1b4f83"/><path d="M97.46,214.88h0Z" fill="#174360"/><path d="M84.22,185l-1-.06Z" fill="#8c8a8a"/><path d="M84.51,186.21v0Z" fill="#055e29"/><path d="M85,192.34v0Z" fill="#055e29"/><path d="M100.79,218.39l-.14-.51Z" fill="#1b4f83"/><path d="M103.49,220.53l-.58,0Z" fill="#1b4f83"/><path d="M83.26,201.54l-.11-.11.1,0Z" fill="#1b4f83"/><path d="M83.39,201.7h0Z" fill="#1b4f83"/><path d="M83,185l-.24.17Z" fill="#8c8a8a"/><path d="M97.74,215.13a.22.22,0,0,1-.12-.13Z" fill="#1b4f83"/><path d="M84.41,185.16l-.2-.22Z" fill="#8c8a8a"/><polygon points="98.34 216.64 98.28 216.57 98.35 216.57 98.34 216.64" fill="#1b4f83"/><path d="M82.56,185.19l-.25.19Z" fill="#8c8a8a"/><path d="M101,219.05a.26.26,0,0,1-.09-.16Z" fill="#1b4f83"/><path d="M101.23,219.5a.3.3,0,0,1-.12-.13Z" fill="#1b4f83"/><polygon points="103.72 219.78 103.75 219.81 103.69 219.82 103.72 219.78" fill="#1b4f83"/><path d="M103.85,220.18a1.1,1.1,0,0,1,0,.16s0,0-.06.06Z" fill="#1b4f83"/><path d="M82.32,185.37l-.24.21Z" fill="#8c8a8a"/><path d="M79.94,185.73a.09.09,0,0,1,0-.12A.07.07,0,0,1,79.94,185.73Z" fill="#1b4f83"/><path d="M82.08,185.57l-.21.17Z" fill="#8c8a8a"/><path d="M81.66,185.84l-.25.19Z" fill="#8c8a8a"/><path d="M81.28,186.08l-.3.14Z" fill="#8c8a8a"/><path d="M125.07,180.22a28.94,28.94,0,0,1,2.74,1.63c.21.16.09.86,0,1.28a1.22,1.22,0,0,1-.92,0,29.41,29.41,0,0,1-2.46-2,.82.82,0,0,1-.17-.67C124.28,180.4,124.63,180.36,125.07,180.22Z" fill="#07893c"/><path d="M116.9,173.67l-1.73-.18Z" fill="#8c8a8a"/><path d="M120.58,182v0Z" fill="#055e29"/><path d="M120.79,184l.1-.61Z" fill="#8c8a8a"/><path d="M132.46,182.58l.12.12A.34.34,0,0,1,132.46,182.58Z" fill="#1b4f83"/><path d="M106.81,173.43l-.1,0-.1,0Z" fill="#1b4f83"/><path d="M112.26,173.39l-.25-.08Z" fill="#1b4f83"/><path d="M118.64,174.72l-.12-.12Z" fill="#1b4f83"/><path d="M119.72,175.8h-.09v-.09A.47.47,0,0,1,119.72,175.8Z" fill="#1b4f83"/><path d="M135.28,182.16h-.09v-.1A.52.52,0,0,1,135.28,182.16Z" fill="#1b4f83"/><path d="M132.68,182.8l.12.12A.34.34,0,0,1,132.68,182.8Z" fill="#1b4f83"/><path d="M132.9,183H133v.09A.32.32,0,0,1,132.9,183Z" fill="#1b4f83"/><path d="M136.83,183.48l-.12-.11A.43.43,0,0,1,136.83,183.48Z" fill="#1b4f83"/><path d="M137.05,183.7l-.11-.11Z" fill="#1b4f83"/><path d="M137.25,183.91h-.09v-.09A.43.43,0,0,1,137.25,183.91Z" fill="#1b4f83"/><path d="M134.44,185.32l.09.2Z" fill="#1b4f83"/><path d="M136.49,185.77v-.09h.09A.32.32,0,0,1,136.49,185.77Z" fill="#1b4f83"/><path d="M139,185.67l-.11-.11Z" fill="#1b4f83"/><path d="M139.24,185.9l-.11-.12A.43.43,0,0,1,139.24,185.9Z" fill="#1b4f83"/><path d="M135.33,186.33a.17.17,0,0,1,.17,0l-.08,0Z" fill="#1b4f83"/><path d="M132.93,186.51v0Z" fill="#1b4f83"/><polygon points="133.12 186.98 133.2 186.98 133.19 187.05 133.12 186.98" fill="#1b4f83"/><polygon points="133.56 187.63 133.63 187.64 133.63 187.71 133.56 187.63" fill="#1b4f83"/><path d="M111.65,190.6l.42-.15Z" fill="#8c8a8a"/><path d="M118.29,192.12l.15-.42Z" fill="#8c8a8a"/><path d="M114.72,189.73l.42-.16Z" fill="#8c8a8a"/><path d="M114.49,192.72l-.22,0Z" fill="#8c8a8a"/><path d="M115.45,193l-.08-.22a1.49,1.49,0,0,1,.12.14S115.46,193,115.45,193Z" fill="#8c8a8a"/><path d="M114.54,194.62l-.1,0-.09,0,.14-.29Z" fill="#8c8a8a"/><path d="M138.15,198.28l.19.21Z" fill="#8c8a8a"/><path d="M138.81,198.77l.21.15Z" fill="#8c8a8a"/><path d="M139.25,199l.21.16Z" fill="#8c8a8a"/><path d="M139.9,199.21l.22,0Z" fill="#8c8a8a"/><path d="M140.57,199.25l.21,0Z" fill="#8c8a8a"/><path d="M115.8,189.55l.19.18Z" fill="#8c8a8a"/><path d="M114.06,189.94l.21-.13Z" fill="#8c8a8a"/><path d="M113.4,190.16l.21-.14Z" fill="#8c8a8a"/><path d="M112.53,190.38l.2-.13Z" fill="#8c8a8a"/><path d="M116.13,190.38l0,.21a.59.59,0,0,1-.06-.14S116.12,190.41,116.13,190.38Z" fill="#8c8a8a"/><path d="M111,190.82l.21-.15Z" fill="#8c8a8a"/><path d="M118.5,191v-.22a1.42,1.42,0,0,1,0,.16S118.52,191,118.5,191Z" fill="#8c8a8a"/><path d="M116.24,191.26l.14.21Z" fill="#8c8a8a"/><path d="M111.21,191.66l-.22-.19Z" fill="#8c8a8a"/><path d="M111.86,192.07l-.21-.17Z" fill="#8c8a8a"/><path d="M116.46,191.92l.14.21Z" fill="#8c8a8a"/><path d="M112.3,192.3l-.22-.17Z" fill="#8c8a8a"/><path d="M112.74,192.48l-.22-.13Z" fill="#8c8a8a"/><path d="M117.12,192.43l.21.14Z" fill="#8c8a8a"/><path d="M113.82,192.67l-.2-.11Z" fill="#8c8a8a"/><path d="M109.49,197.36l-.26,0-2-3.83a3.53,3.53,0,0,1-.14-.58l7.2,1.73-.41.63-.11.12a2.15,2.15,0,0,1-.77-.05c-.32-.16-.56-.51-.88-.63a6.37,6.37,0,0,0-1.32-.2,6.73,6.73,0,0,0,.12,1.1c.28.92.2,1.16-.65,1.51A6.83,6.83,0,0,1,109.49,197.36Z" fill="#07893c"/><path d="M106,193l.08,0s0,.05,0,.07l-.1-.1Z" fill="#8c8a8a"/><path d="M108.28,180.19l.16-.19a.4.4,0,0,0,.15,0Z" fill="#8c8a8a"/><path d="M101.36,210.24c1.08-1.23,2.32-1.31,3.82-.12a5.18,5.18,0,0,0,1.62.75,4.8,4.8,0,0,1,1.3,1s-.11.41-.16.41c-.57,0-1.31.16-1.67-.13-.65-.51-1.58-.46-2.09-1.26-.18-.28-1-.37-1.39-.24A1.22,1.22,0,0,1,101.36,210.24Z" fill="#07893c"/><path d="M109.78,213.57a8.78,8.78,0,0,1-1-.9c-.09-.11.11-.49.23-.73s.25-.24.34-.21c.81.23,1.63.48,2.42.78.08,0,.08.52,0,.53C111.21,213.22,110.61,213.36,109.78,213.57Z" fill="#07893c"/><path d="M106.43,213.63c-.2.07-.46.25-.58.18a4.06,4.06,0,0,1-.72-.66c.17-.13.39-.4.49-.36a5.2,5.2,0,0,1,.87.57Z" fill="#07893c"/><path d="M113.72,195.4l.11-.12A.25.25,0,0,1,113.72,195.4Z" fill="#236591"/><text transform="translate(50.37 74.8)" font-size="24" font-family="NeueHaasUnicaW06-Regular">distribution</text><polygon points="108.65 389.08 108.65 408.72 132.53 408.72 132.53 398.9 123.7 389.08 108.65 389.08" fill="#c6c6c6" stroke="#000" stroke-miterlimit="10" stroke-width="0.1"/><line x1="114.45" y1="408.72" x2="114.45" y2="414.86" fill="none" stroke="#000" stroke-miterlimit="10" stroke-width="0.25"/><line x1="128.03" y1="408.72" x2="128.03" y2="414.86" fill="none" stroke="#000" stroke-miterlimit="10" stroke-width="0.25"/><polyline points="123.7 389.08 151.21 369.19 153.64 371.78 132.53 398.9" fill="none" stroke="#000" stroke-miterlimit="10" stroke-width="0.25"/><line x1="123.7" y1="389.08" x2="140.17" y2="389.08" fill="none" stroke="#000" stroke-miterlimit="10" stroke-width="0.25"/><line x1="140.17" y1="389.08" x2="140.17" y2="377.17" fill="none" stroke="#000" stroke-miterlimit="10" stroke-width="0.25"/><line x1="140.17" y1="377.17" x2="149.44" y2="377.17" fill="none" stroke="#000" stroke-miterlimit="10" stroke-width="0.25"/><line x1="149.44" y1="377.17" x2="149.44" y2="370.47" fill="none" stroke="#000" stroke-miterlimit="10" stroke-width="0.25"/><line x1="132.53" y1="398.9" x2="132.53" y2="382.7" fill="none" stroke="#000" stroke-miterlimit="10" stroke-width="0.25"/><line x1="132.53" y1="382.7" x2="145.14" y2="382.7" fill="none" stroke="#000" stroke-miterlimit="10" stroke-width="0.25"/><line x1="145.14" y1="382.7" x2="145.14" y2="373.58" fill="none" stroke="#000" stroke-miterlimit="10" stroke-width="0.25"/><line x1="145.14" y1="373.58" x2="152.24" y2="373.58" fill="none" stroke="#000" stroke-miterlimit="10" stroke-width="0.25"/><line x1="152.24" y1="373.58" x2="152.24" y2="370.47" fill="none" stroke="#000" stroke-miterlimit="10" stroke-width="0.25"/><line x1="153.64" y1="371.78" x2="153.98" y2="411.79" fill="none" stroke="#000" stroke-miterlimit="10" stroke-width="0.25"/><path d="M153.24,401c3.11,0,6.23,0,9.34,0,1.42,0,2,.17,2,.93-.07,3-.05,6.08,0,9.11,0,.67-.4.94-1.82.93q-9.52,0-19.06,0c-1.51,0-1.94-.28-1.93-1,0-3,.05-6,0-9,0-.72.46-1,2-1C146.88,401,150.06,401,153.24,401Zm-9.38.95v9h18.62v-9Z" fill="#225486" stroke="#1d1d1b" stroke-miterlimit="10" stroke-width="0.1"/><path d="M143.91,402h9.25v9h-9.25Zm4.06,4.55c0-1,0-2,0-3,0-.29-.31-.56-.48-.85-.18.28-.51.55-.52.82q-.06,3,0,5.94c0,.28.35.54.54.81.16-.29.44-.57.46-.87C148,408.44,148,407.48,148,406.52Zm-3.15,0c0,1,0,1.92,0,2.88a2.67,2.67,0,0,0,.42.87c.16-.28.46-.56.47-.84q.06-2.92,0-5.85c0-.28-.31-.55-.48-.83-.14.27-.4.53-.41.8C144.79,404.51,144.82,405.5,144.82,406.49Zm7.46,0c0-1,0-2,0-3.07,0-.25-.3-.49-.46-.74-.14.23-.42.46-.42.69q0,3.07,0,6.13c0,.24.28.46.43.7.16-.25.44-.49.46-.74C152.31,408.51,152.28,407.52,152.28,406.53Zm-2.2-.09c0-1,0-2,0-3.05,0-.23-.3-.45-.46-.67-.15.19-.44.39-.44.59q0,3.15,0,6.3c0,.21.33.41.51.62.13-.21.37-.42.38-.64C150.1,408.54,150.08,407.49,150.08,406.44Z" fill="#f6f9fa"/><path d="M148,406.52c0,1,0,1.92,0,2.88,0,.3-.3.58-.46.87-.19-.27-.53-.53-.54-.81q-.06-3,0-5.94c0-.27.34-.54.52-.82.17.29.46.56.48.85C148,404.54,148,405.53,148,406.52Z" fill="#6db5e2"/><path d="M144.82,406.49c0-1,0-2,0-3,0-.27.27-.53.41-.8.17.28.47.55.48.83q.06,2.93,0,5.85c0,.28-.31.56-.47.84a2.67,2.67,0,0,1-.42-.87C144.79,408.41,144.82,407.45,144.82,406.49Z" fill="#5dadde"/><path d="M152.28,406.53c0,1,0,2,0,3,0,.25-.3.49-.46.74-.15-.24-.42-.46-.43-.7q0-3.06,0-6.13c0-.23.28-.46.42-.69.16.25.45.49.46.74C152.31,404.48,152.28,405.5,152.28,406.53Z" fill="#5dadde"/><path d="M150.08,406.44c0,1.05,0,2.1,0,3.15,0,.22-.25.43-.38.64-.18-.21-.51-.41-.51-.62q-.06-3.15,0-6.3c0-.2.29-.4.44-.59.16.22.45.44.46.67C150.11,404.4,150.08,405.42,150.08,406.44Z" fill="#5dadde"/><path d="M153.16,402h9.26v9h-9.26Zm4.07,4.55c0-1,0-2,0-3,0-.29-.31-.56-.47-.85-.18.28-.52.55-.53.82q-.06,3,0,5.94c0,.28.35.54.53.81.16-.29.45-.57.46-.87C157.26,408.44,157.23,407.48,157.23,406.52Zm-3.15,0c0,1,0,1.92,0,2.88,0,.29.27.58.41.87.17-.28.46-.56.47-.84q.06-2.92,0-5.85c0-.28-.31-.55-.47-.83-.15.27-.4.53-.41.8C154,404.51,154.08,405.5,154.08,406.49Zm7.45,0c0-1,0-2,0-3.07,0-.25-.3-.49-.46-.74-.15.23-.42.46-.43.69q0,3.07,0,6.13c0,.24.27.46.42.7.16-.25.45-.49.46-.74C161.57,408.51,161.53,407.52,161.53,406.53Zm-2.2-.09c0-1,0-2,0-3.05,0-.23-.29-.45-.45-.67-.16.19-.44.39-.45.59q0,3.15,0,6.3c0,.21.34.41.52.62.13-.21.36-.42.37-.64C159.35,408.54,159.33,407.49,159.33,406.44Z" fill="#f6f9fa"/><path d="M157.23,406.52c0,1,0,1.92,0,2.88,0,.3-.3.58-.46.87-.18-.27-.53-.53-.53-.81q-.08-3,0-5.94c0-.27.35-.54.53-.82.16.29.46.56.47.85C157.26,404.54,157.23,405.53,157.23,406.52Z" fill="#6db5e2"/><path d="M154.08,406.49c0-1,0-2,0-3,0-.27.26-.53.41-.8.16.28.46.55.47.83q.06,2.93,0,5.85c0,.28-.3.56-.47.84-.14-.29-.4-.58-.41-.87C154,408.41,154.08,407.45,154.08,406.49Z" fill="#5dadde"/><path d="M161.53,406.53c0,1,0,2,0,3,0,.25-.3.49-.46.74-.15-.24-.42-.46-.42-.7q-.06-3.06,0-6.13c0-.23.28-.46.43-.69.16.25.45.49.46.74C161.56,404.48,161.53,405.5,161.53,406.53Z" fill="#5dadde"/><path d="M159.33,406.44c0,1.05,0,2.1,0,3.15,0,.22-.24.43-.37.64-.18-.21-.52-.41-.52-.62q-.06-3.15,0-6.3c0-.2.29-.4.45-.59.16.22.44.44.45.67C159.36,404.4,159.33,405.42,159.33,406.44Z" fill="#5dadde"/><polygon points="145.72 421.65 145.72 457.52 101.97 457.52 101.97 421.65 109.68 413.63 138.02 413.63 145.72 421.65" fill="#c6c6c6" stroke="#000" stroke-miterlimit="10" stroke-width="0.1"/><line x1="101.97" y1="422.46" x2="145.72" y2="422.46" fill="none" stroke="#000" stroke-miterlimit="10" stroke-width="0.1"/><polygon points="120.3 421.14 120.3 459.69 59.53 459.69 59.53 421.14 72.51 410.67 107.31 410.67 120.3 421.14" fill="#c6c6c6" stroke="#000" stroke-miterlimit="10" stroke-width="0.1"/><line x1="59.53" y1="421.14" x2="120.3" y2="421.14" fill="none" stroke="#000" stroke-miterlimit="10" stroke-width="0.1"/><path d="M59.94,454.75c-1.45,0-2.1.82-2.6,2.59-.2.7-1.22,3.91-.45,9.72.33,2.43,1.61,3.91,1.44,5.58-.28,2.79-1.38,5-.73,5.91a1.6,1.6,0,0,0,1.39.82,1.58,1.58,0,0,0,1-.76c1.66-2.3,1.33-6.25,1.33-6.25-.24-2.88-.69-3.11-.38-5a22.83,22.83,0,0,0,.28-4.25c0-2.53-.29-2.89-.16-3a10.51,10.51,0,0,0,2.34,2.36c1.68,1.25,2.47,1.05,2.75.95,0,0,.71-.27.82-.82a1.05,1.05,0,0,0-.41-1.07,17.09,17.09,0,0,1-3.16-2.27c-1.11-1.1-.58-1.77-1.78-3.51A1.81,1.81,0,0,0,59.94,454.75Z" fill="#1038d4" stroke="#000" stroke-miterlimit="10" stroke-width="0.3"/><path d="M65.16,451.48a2.9,2.9,0,0,1-5.57,1.13l.06.08c.72.85,5.28-1.07,5.16-2.57A2.83,2.83,0,0,1,65.16,451.48Z" fill="#ca9e67" stroke="#000" stroke-miterlimit="10" stroke-width="0.3"/><path d="M64.81,450.12c.12,1.5-4.44,3.42-5.16,2.57l-.06-.08a2.41,2.41,0,0,1-.35-1.59c.06-.56.49-1.33.4-1.49s-.46-.18-.79,0c-.85.49.37,2.55-.52,5.09-.12.35-.73,2.09-2,2.39-.53.13-1.17,0-1.21-.19s1-.61.91-.75-.68.15-.88-.08.31-.85.78-1.89a10.56,10.56,0,0,0,.76-2.39c.31-1.43.1-1.63.45-2.39s1-1.47,1.69-1.36.86,1.17,1.51,1.15c.25,0,.43-.15.82-.39a2.68,2.68,0,0,1,2.26,0c.19.07,1.36.66,1.43,1.4Z" fill="#351f06" stroke="#000" stroke-miterlimit="10" stroke-width="0.3"/><rect x="70.15" y="438.21" width="15.92" height="21.48" fill="#7a490e" stroke="#1d1d1b" stroke-miterlimit="10" stroke-width="0.1"/><line x1="78.11" y1="438.21" x2="78.11" y2="459.69" fill="none" stroke="#1d1d1b" stroke-miterlimit="10" stroke-width="0.1"/><path d="M144,453.15c3.12,0,6.24,0,9.35,0,1.41,0,2,.17,2,.93-.06,3,0,6.07,0,9.11,0,.66-.4.94-1.82.93q-9.54,0-19.07,0c-1.51,0-1.94-.29-1.93-1,.05-3,.05-6,0-9,0-.72.46-1,1.95-1C137.66,453.18,140.84,453.15,144,453.15Zm-9.37,1v9h18.61v-9Z" fill="#225486" stroke="#1d1d1b" stroke-miterlimit="10" stroke-width="0.1"/><path d="M134.68,454.14h9.26v9h-9.26Zm4.07,4.55c0-1,0-2,0-3,0-.29-.3-.57-.47-.85-.18.27-.52.54-.52.82q-.07,3,0,5.94c0,.27.35.53.53.8.17-.29.45-.57.47-.86C138.79,460.61,138.75,459.65,138.75,458.69Zm-3.15,0c0,1,0,1.92,0,2.88a2.8,2.8,0,0,0,.41.88c.17-.28.47-.56.47-.85,0-1.95,0-3.9,0-5.84,0-.28-.31-.56-.47-.83-.15.26-.4.52-.41.79C135.57,456.67,135.6,457.66,135.6,458.65Zm7.45,0c0-1,0-2,0-3.06,0-.26-.3-.5-.46-.75-.15.24-.42.47-.42.7q-.06,3.06,0,6.13c0,.23.27.46.42.69.16-.24.45-.48.46-.74C143.09,460.67,143.05,459.68,143.05,458.69Zm-2.2-.08c0-1,0-2,0-3.06,0-.23-.29-.44-.45-.67-.16.2-.44.39-.44.59,0,2.1,0,4.21,0,6.3,0,.21.34.42.52.62.13-.21.37-.42.37-.63C140.87,460.71,140.85,459.66,140.85,458.61Z" fill="#f6f9fa"/><path d="M138.75,458.69c0,1,0,1.92,0,2.88,0,.29-.3.57-.47.86-.18-.27-.53-.53-.53-.8q-.07-3,0-5.94c0-.28.34-.55.52-.82.17.28.46.56.47.85C138.78,456.7,138.75,457.7,138.75,458.69Z" fill="#6db5e2"/><path d="M135.6,458.65c0-1,0-2,0-3,0-.27.26-.53.41-.79.16.27.47.55.47.83,0,1.94,0,3.89,0,5.84,0,.29-.3.57-.47.85a2.8,2.8,0,0,1-.41-.88C135.56,460.57,135.6,459.61,135.6,458.65Z" fill="#5dadde"/><path d="M143.05,458.69c0,1,0,2,0,3,0,.26-.3.5-.46.74-.15-.23-.42-.46-.42-.69q-.06-3.07,0-6.13c0-.23.27-.46.42-.7.16.25.45.49.46.75C143.08,456.65,143.05,457.67,143.05,458.69Z" fill="#5dadde"/><path d="M140.85,458.61c0,1.05,0,2.1,0,3.15,0,.21-.24.42-.37.63-.18-.2-.52-.41-.52-.62,0-2.09,0-4.2,0-6.3,0-.2.28-.39.44-.59.16.23.44.44.45.67C140.88,456.57,140.85,457.59,140.85,458.61Z" fill="#5dadde"/><path d="M143.94,454.14h9.25v9h-9.25Zm4.06,4.55c0-1,0-2,0-3,0-.29-.31-.57-.48-.85-.18.27-.51.54-.52.82,0,2,0,4,0,5.94,0,.27.35.53.54.8.16-.29.44-.57.46-.86C148,460.61,148,459.65,148,458.69Zm-3.15,0c0,1,0,1.92,0,2.88a2.63,2.63,0,0,0,.42.88c.16-.28.46-.56.47-.85,0-1.95,0-3.9,0-5.84,0-.28-.31-.56-.48-.83-.14.26-.4.52-.41.79C144.82,456.67,144.85,457.66,144.85,458.65Zm7.46,0c0-1,0-2,0-3.06,0-.26-.3-.5-.46-.75-.14.24-.42.47-.42.7q0,3.06,0,6.13c0,.23.28.46.43.69.16-.24.44-.48.46-.74C152.34,460.67,152.31,459.68,152.31,458.69Zm-2.2-.08c0-1,0-2,0-3.06,0-.23-.3-.44-.46-.67-.15.2-.44.39-.44.59,0,2.1,0,4.21,0,6.3,0,.21.34.42.52.62.13-.21.37-.42.38-.63C150.13,460.71,150.11,459.66,150.11,458.61Z" fill="#f6f9fa"/><path d="M148,458.69c0,1,0,1.92,0,2.88,0,.29-.3.57-.46.86-.19-.27-.53-.53-.54-.8,0-2,0-4,0-5.94,0-.28.34-.55.52-.82.17.28.46.56.48.85C148,456.7,148,457.7,148,458.69Z" fill="#6db5e2"/><path d="M144.85,458.65c0-1,0-2,0-3,0-.27.27-.53.41-.79.17.27.47.55.48.83,0,1.94,0,3.89,0,5.84,0,.29-.31.57-.47.85a2.63,2.63,0,0,1-.42-.88C144.82,460.57,144.85,459.61,144.85,458.65Z" fill="#5dadde"/><path d="M152.31,458.69c0,1,0,2,0,3,0,.26-.3.5-.46.74-.15-.23-.42-.46-.43-.69q0-3.07,0-6.13c0-.23.28-.46.42-.7.16.25.45.49.46.75C152.34,456.65,152.31,457.67,152.31,458.69Z" fill="#5dadde"/><path d="M150.11,458.61c0,1.05,0,2.1,0,3.15,0,.21-.25.42-.38.63-.18-.2-.51-.41-.52-.62,0-2.09,0-4.2,0-6.3,0-.2.29-.39.44-.59.16.23.45.44.46.67C150.14,456.57,150.11,457.59,150.11,458.61Z" fill="#5dadde"/><path d="M120.36,453.19c3.12,0,6.23,0,9.35,0,1.41,0,2,.16,2,.93-.07,3,0,6.07,0,9.1,0,.67-.4.94-1.82.93-6.35,0-12.71,0-19.06,0-1.51,0-1.94-.29-1.93-1,0-3,.05-6,0-9,0-.71.46-1,2-1C114,453.22,117.18,453.19,120.36,453.19Zm-9.37.95v9H129.6v-9Z" fill="#225486" stroke="#1d1d1b" stroke-miterlimit="10" stroke-width="0.1"/><path d="M111,454.17h9.26v9H111Zm4.06,4.55c0-1,0-2,0-3,0-.29-.31-.56-.47-.84-.19.27-.52.54-.53.81,0,2,0,4,0,5.95,0,.27.34.53.53.8.16-.29.44-.57.46-.87C115.13,460.65,115.1,459.68,115.09,458.72Zm-3.14,0c0,1,0,1.92,0,2.88,0,.3.27.58.41.87.16-.28.46-.56.47-.84q.06-2.93,0-5.85c0-.28-.31-.55-.47-.83-.15.27-.4.53-.42.8C111.91,456.71,111.94,457.7,112,458.69Zm7.45,0c0-1,0-2.05,0-3.07,0-.25-.3-.49-.46-.74-.15.23-.42.46-.43.69q0,3.08,0,6.13c0,.24.28.47.43.7.16-.25.45-.49.46-.74C119.43,460.71,119.4,459.72,119.4,458.73Zm-2.2-.09c0-1,0-2,0-3.05,0-.23-.3-.45-.45-.67-.16.2-.44.39-.45.59q0,3.15,0,6.3c0,.21.34.41.52.62.13-.21.36-.42.37-.64C117.22,460.74,117.2,459.69,117.2,458.64Z" fill="#f6f9fa"/><path d="M115.09,458.72c0,1,0,1.93,0,2.88,0,.3-.3.58-.46.87-.19-.27-.53-.53-.53-.8,0-2,0-4,0-5.95,0-.27.34-.54.53-.81.16.28.45.55.47.84C115.13,456.74,115.09,457.73,115.09,458.72Z" fill="#f9b233"/><path d="M111.94,458.69c0-1,0-2,0-3,0-.27.27-.53.42-.8.16.28.46.55.47.83q.06,2.92,0,5.85c0,.28-.31.56-.47.84-.14-.29-.4-.57-.41-.87C111.91,460.61,112,459.65,111.94,458.69Z" fill="#f9b233"/><path d="M119.4,458.73c0,1,0,2,0,3,0,.25-.3.49-.46.74-.15-.23-.42-.46-.43-.7q0-3.06,0-6.13c0-.23.28-.46.43-.69.16.25.44.49.46.74C119.43,456.68,119.4,457.71,119.4,458.73Z" fill="#f9b233"/><path d="M117.2,458.64c0,1.05,0,2.1,0,3.15,0,.22-.24.43-.37.64-.18-.21-.52-.41-.52-.62q-.06-3.15,0-6.3c0-.2.29-.39.45-.59.15.22.44.44.45.67C117.23,456.6,117.2,457.62,117.2,458.64Z" fill="#f9b233"/><path d="M120.29,454.17h9.25v9h-9.25Zm4.06,4.55c0-1,0-2,0-3,0-.29-.31-.56-.48-.84-.18.27-.52.54-.52.81,0,2,0,4,0,5.95,0,.27.35.53.54.8.16-.29.44-.57.46-.87C124.39,460.65,124.35,459.68,124.35,458.72Zm-3.15,0c0,1,0,1.92,0,2.88a2.58,2.58,0,0,0,.42.87c.16-.28.46-.56.46-.84.05-2,0-3.9,0-5.85,0-.28-.3-.55-.47-.83-.14.27-.4.53-.41.8C121.17,456.71,121.2,457.7,121.2,458.69Zm7.45,0c0-1,0-2.05,0-3.07,0-.25-.3-.49-.46-.74-.15.23-.42.46-.42.69q-.06,3.08,0,6.13c0,.24.28.47.42.7.16-.25.45-.49.46-.74C128.69,460.71,128.66,459.72,128.65,458.73Zm-2.19-.09c0-1,0-2,0-3.05,0-.23-.29-.45-.45-.67-.15.2-.44.39-.44.59,0,2.1,0,4.2,0,6.3,0,.21.34.41.52.62.13-.21.37-.42.38-.64C126.47,460.74,126.45,459.69,126.46,458.64Z" fill="#f6f9fa"/><path d="M124.35,458.72c0,1,0,1.93,0,2.88,0,.3-.3.58-.46.87-.19-.27-.53-.53-.54-.8,0-2,0-4,0-5.95,0-.27.34-.54.52-.81.17.28.46.55.48.84C124.39,456.74,124.35,457.73,124.35,458.72Z" fill="#f9b233"/><path d="M121.2,458.69c0-1,0-2,0-3,0-.27.27-.53.41-.8.17.28.47.55.47.83,0,1.95.05,3.9,0,5.85,0,.28-.3.56-.46.84a2.58,2.58,0,0,1-.42-.87C121.17,460.61,121.2,459.65,121.2,458.69Z" fill="#f9b233"/><path d="M128.65,458.73c0,1,0,2,0,3,0,.25-.3.49-.46.74-.14-.23-.42-.46-.42-.7q-.06-3.06,0-6.13c0-.23.27-.46.42-.69.16.25.45.49.46.74C128.68,456.68,128.65,457.71,128.65,458.73Z" fill="#f9b233"/><path d="M126.45,458.64c0,1.05,0,2.1,0,3.15,0,.22-.25.43-.38.64-.18-.21-.51-.41-.52-.62,0-2.1,0-4.2,0-6.3,0-.2.29-.39.44-.59.16.22.44.44.45.67C126.48,456.6,126.46,457.62,126.45,458.64Z" fill="#f9b233"/><path d="M133.15,441.21c3.12,0,6.23,0,9.35,0,1.41,0,2,.17,2,.93-.07,3-.05,6.08,0,9.11,0,.67-.4.94-1.82.93q-9.53,0-19.06,0c-1.51,0-1.94-.28-1.93-1,0-3,0-6,0-9,0-.72.46-1,2-1C126.79,441.24,130,441.21,133.15,441.21Zm-9.37,1v9h18.61v-9Z" fill="#225486" stroke="#1d1d1b" stroke-miterlimit="10" stroke-width="0.1"/><path d="M123.82,442.19h9.25v9h-9.25Zm4.06,4.55c0-1,0-2,0-3,0-.29-.31-.56-.47-.85-.19.28-.52.54-.53.82q-.06,3,0,5.94c0,.28.35.54.54.81.16-.29.44-.57.46-.87C127.92,448.66,127.88,447.7,127.88,446.74Zm-3.15,0c0,1,0,1.92,0,2.87a2.63,2.63,0,0,0,.42.88c.16-.28.46-.56.47-.84q.06-2.92,0-5.85c0-.28-.31-.55-.48-.83-.14.27-.39.53-.41.8C124.7,444.73,124.73,445.72,124.73,446.71Zm7.46,0c0-1,0-2.05,0-3.07,0-.25-.3-.49-.47-.74-.14.23-.42.46-.42.69q0,3.08,0,6.13c0,.23.28.46.43.7.16-.25.44-.49.46-.74C132.22,448.73,132.19,447.74,132.19,446.75Zm-2.2-.09c0-1,0-2,0-3.06,0-.22-.3-.44-.46-.66-.15.19-.44.39-.44.59q0,3.15,0,6.3c0,.21.33.41.51.62.14-.21.37-.42.38-.64C130,448.76,130,447.71,130,446.66Z" fill="#f6f9fa"/><path d="M127.88,446.74c0,1,0,1.92,0,2.88,0,.3-.3.58-.46.87-.19-.27-.53-.53-.54-.81q-.06-3,0-5.94c0-.28.34-.54.53-.82.16.29.45.56.47.85C127.92,444.76,127.88,445.75,127.88,446.74Z" fill="#6db5e2"/><path d="M124.73,446.71c0-1,0-2,0-3,0-.27.27-.53.41-.8.17.28.47.55.48.83q.06,2.93,0,5.85c0,.28-.31.56-.47.84a2.63,2.63,0,0,1-.42-.88C124.7,448.63,124.73,447.67,124.73,446.71Z" fill="#5dadde"/><path d="M132.19,446.75c0,1,0,2,0,3,0,.25-.3.49-.46.74-.15-.24-.42-.47-.43-.7q0-3.06,0-6.13c0-.23.28-.46.42-.69.17.25.45.49.47.74C132.22,444.7,132.19,445.72,132.19,446.75Z" fill="#5dadde"/><path d="M130,446.66c0,1,0,2.1,0,3.15,0,.22-.24.43-.38.64-.18-.21-.51-.41-.51-.62q-.06-3.15,0-6.3c0-.2.29-.4.44-.59.16.22.45.44.46.66C130,444.62,130,445.64,130,446.66Z" fill="#5dadde"/><path d="M133.07,442.19h9.26v9h-9.26Zm4.07,4.55c0-1,0-2,0-3,0-.29-.3-.56-.47-.85-.18.28-.52.54-.52.82q-.08,3,0,5.94c0,.28.35.54.53.81.17-.29.45-.57.47-.87C137.18,448.66,137.14,447.7,137.14,446.74Zm-3.15,0c0,1,0,1.92,0,2.87a2.8,2.8,0,0,0,.41.88c.17-.28.47-.56.47-.84q.06-2.92,0-5.85c0-.28-.31-.55-.47-.83-.15.27-.4.53-.41.8C134,444.73,134,445.72,134,446.71Zm7.45,0c0-1,0-2.05,0-3.07,0-.25-.3-.49-.46-.74-.15.23-.42.46-.42.69q-.06,3.08,0,6.13c0,.23.27.46.42.7.16-.25.45-.49.46-.74C141.48,448.73,141.44,447.74,141.44,446.75Zm-2.2-.09c0-1,0-2,0-3.06,0-.22-.29-.44-.45-.66-.16.19-.44.39-.44.59q-.06,3.15,0,6.3c0,.21.34.41.52.62.13-.21.37-.42.37-.64C139.26,448.76,139.24,447.71,139.24,446.66Z" fill="#f6f9fa"/><path d="M137.14,446.74c0,1,0,1.92,0,2.88,0,.3-.3.58-.47.87-.18-.27-.53-.53-.53-.81q-.08-3,0-5.94c0-.28.34-.54.52-.82.17.29.46.56.47.85C137.17,444.76,137.14,445.75,137.14,446.74Z" fill="#6db5e2"/><path d="M134,446.71c0-1,0-2,0-3,0-.27.26-.53.41-.8.16.28.47.55.47.83q.06,2.93,0,5.85c0,.28-.3.56-.47.84a2.8,2.8,0,0,1-.41-.88C134,448.63,134,447.67,134,446.71Z" fill="#5dadde"/><path d="M141.44,446.75c0,1,0,2,0,3,0,.25-.3.49-.46.74-.15-.24-.42-.47-.42-.7q-.06-3.06,0-6.13c0-.23.27-.46.42-.69.16.25.45.49.46.74C141.47,444.7,141.44,445.72,141.44,446.75Z" fill="#5dadde"/><path d="M139.24,446.66c0,1,0,2.1,0,3.15,0,.22-.24.43-.37.64-.18-.21-.52-.41-.52-.62q-.06-3.15,0-6.3c0-.2.28-.4.44-.59.16.22.44.44.45.66C139.27,444.62,139.24,445.64,139.24,446.66Z" fill="#5dadde"/><text transform="translate(80.5 290.13)" font-size="18" font-family="NeueHaasUnicaW06-Thin" font-weight="200">export/<tspan x="3.21" y="27.04">import</tspan></text><text transform="translate(82.67 496.65)" font-size="18" font-family="NeueHaasUnicaW06-Thin" font-weight="200">retail &amp;<tspan x="-11.36" y="27.04">wholesale</tspan></text></g></svg>