<svg id="Layer_1" data-name="Layer 1" xmlns="http://www.w3.org/2000/svg" xmlns:xlink="http://www.w3.org/1999/xlink" viewBox="0 0 841.89 595.28"><defs><clipPath id="clip-path"><rect width="841.89" height="595.28" fill="none"/></clipPath></defs><title>Information</title><g clip-path="url(#clip-path)"><text transform="translate(28.35 42.34)" font-size="12" font-family="NeueHaasUnicaW06-Thin" font-weight="200">1)</text><text transform="translate(28.35 56.74)" font-size="12" font-family="NeueHaasUnicaW06-Thin" font-weight="200"><tspan letter-spacing="0.23em">-</tspan><tspan x="6.13" y="0" letter-spacing="-0.01em">h</tspan><tspan x="12.55" y="0">ttp</tspan><tspan x="26.02" y="0" letter-spacing="0em">:</tspan><tspan x="28.04" y="0" letter-spacing="-0.15em">/</tspan><tspan x="31.19" y="0" letter-spacing="-0.05em">/</tspan><tspan x="35.59" y="0">ww</tspan><tspan x="53.45" y="0" letter-spacing="-0.05em">f</tspan><tspan x="56.05" y="0">.panda.o</tspan><tspan x="98.7" y="0" letter-spacing="-0.03em">r</tspan><tspan x="102.36" y="0" letter-spacing="0em">g</tspan><tspan x="109.01" y="0" letter-spacing="-0.05em">/</tspan><tspan x="113.4" y="0">wwf_ne</tspan><tspan x="153.36" y="0" letter-spacing="-0.01em">w</tspan><tspan x="162.17" y="0">s/?207367/Industry-</tspan><tspan x="265.99" y="0" letter-spacing="-0.02em">k</tspan><tspan x="271.22" y="0" letter-spacing="0em">ey-</tspan><tspan x="286.21" y="0" letter-spacing="-0.02em">t</tspan><tspan x="289.4" y="0" letter-spacing="0.02em">o</tspan><tspan x="296.09" y="0" letter-spacing="0.02em">-</tspan><tspan x="299.71" y="0" letter-spacing="0.01em">c</tspan><tspan x="305.84" y="0" letter-spacing="0em">on</tspan><tspan x="318.89" y="0" letter-spacing="0.01em">s</tspan><tspan x="324.53" y="0">erving-</tspan><tspan x="359.21" y="0" letter-spacing="-0.01em">f</tspan><tspan x="362.24" y="0">or</tspan></text><text transform="translate(400.94 56.74)" font-size="12" font-family="NeueHaasUnicaW06-Thin" font-weight="200">-</text><text transform="translate(28.35 71.14)" font-size="12" font-family="NeueHaasUnicaW06-Thin" font-weight="200"><tspan letter-spacing="0.01em">e</tspan><tspan x="6.42" y="0">sts-as</tspan><tspan x="35.89" y="0" letter-spacing="0.02em">-</tspan><tspan x="39.49" y="0" letter-spacing="0em">demand-</tspan><tspan x="85.07" y="0" letter-spacing="-0.01em">f</tspan><tspan x="88.1" y="0">or-</tspan><tspan x="101.91" y="0" letter-spacing="0em">w</tspan><tspan x="110.83" y="0" letter-spacing="0.01em">oo</tspan><tspan x="124.01" y="0">d-p</tspan><tspan x="140.67" y="0" letter-spacing="-0.03em">r</tspan><tspan x="144.32" y="0">oj</tspan><tspan x="153.43" y="0" letter-spacing="0.01em">e</tspan><tspan x="159.86" y="0" letter-spacing="0em">c</tspan><tspan x="165.92" y="0" letter-spacing="-0.02em">t</tspan><tspan x="169.11" y="0" letter-spacing="0.01em">e</tspan><tspan x="175.54" y="0" letter-spacing="0em">d-</tspan><tspan x="185.56" y="0" letter-spacing="-0.02em">t</tspan><tspan x="188.74" y="0" letter-spacing="0.02em">o</tspan><tspan x="195.45" y="0">-tripl</tspan><tspan x="217.92" y="0" letter-spacing="0.02em">e</tspan><tspan x="224.47" y="0">-</tspan><tspan x="227.84" y="0" letter-spacing="0em">b</tspan><tspan x="234.45" y="0">y-2050</tspan></text><text transform="translate(28.35 85.54)" font-size="12" font-family="NeueHaasUnicaW06-Thin" font-weight="200">-</text><text transform="translate(28.35 114.34)" font-size="12" font-family="NeueHaasUnicaW06-Thin" font-weight="200">2)</text><text transform="translate(28.35 128.74)" font-size="12" font-family="NeueHaasUnicaW06-Thin" font-weight="200"><tspan letter-spacing="0.23em">-</tspan><tspan x="6.13" y="0" letter-spacing="-0.01em">h</tspan><tspan x="12.55" y="0">ttp</tspan><tspan x="26.02" y="0" letter-spacing="0.03em">s</tspan><tspan x="31.86" y="0" letter-spacing="0em">:</tspan><tspan x="33.89" y="0" letter-spacing="-0.16em">/</tspan><tspan x="37.02" y="0" letter-spacing="-0.07em">/</tspan><tspan x="41.18" y="0" letter-spacing="0em">no</tspan><tspan x="54.24" y="0" letter-spacing="-0.04em">.</tspan><tspan x="55.82" y="0" letter-spacing="0em">wi</tspan><tspan x="67.28" y="0" letter-spacing="-0.01em">k</tspan><tspan x="72.66" y="0">i</tspan><tspan x="75.19" y="0" letter-spacing="0.01em">p</tspan><tspan x="81.96" y="0" letter-spacing="0.01em">e</tspan><tspan x="88.38" y="0" letter-spacing="0em">dia.o</tspan><tspan x="112.17" y="0" letter-spacing="-0.03em">r</tspan><tspan x="115.83" y="0" letter-spacing="0em">g</tspan><tspan x="122.48" y="0" letter-spacing="-0.05em">/</tspan><tspan x="126.88" y="0">wi</tspan><tspan x="138.34" y="0" letter-spacing="-0.01em">k</tspan><tspan x="143.72" y="0">i/S</tspan><tspan x="158.28" y="0" letter-spacing="-0.02em">k</tspan><tspan x="163.51" y="0" letter-spacing="0.01em">o</tspan><tspan x="170.1" y="0">gbruk</tspan></text><text transform="translate(28.35 143.14)" font-size="12" font-family="NeueHaasUnicaW06-Thin" font-weight="200"><tspan letter-spacing="0.23em">-</tspan><tspan x="6.13" y="0" letter-spacing="-0.01em">h</tspan><tspan x="12.55" y="0">ttp</tspan><tspan x="26.02" y="0" letter-spacing="0.03em">s</tspan><tspan x="31.86" y="0" letter-spacing="0em">:</tspan><tspan x="33.89" y="0" letter-spacing="-0.16em">/</tspan><tspan x="37.02" y="0" letter-spacing="-0.04em">/</tspan><tspan x="41.54" y="0" letter-spacing="-0.02em">f</tspan><tspan x="44.53" y="0">airve</tspan><tspan x="68.7" y="0" letter-spacing="-0.01em">n</tspan><tspan x="75.12" y="0">tu</tspan><tspan x="85.11" y="0" letter-spacing="-0.03em">r</tspan><tspan x="88.77" y="0" letter-spacing="0.01em">e</tspan><tspan x="95.19" y="0">s.o</tspan><tspan x="109.25" y="0" letter-spacing="-0.03em">r</tspan><tspan x="112.91" y="0">g</tspan><tspan x="119.55" y="0" letter-spacing="-0.08em">/</tspan><tspan x="123.59" y="0">en</tspan><tspan x="136.49" y="0" letter-spacing="-0.09em">/</tspan><tspan x="140.41" y="0">a</tspan><tspan x="146.5" y="0" letter-spacing="0.01em">b</tspan><tspan x="153.27" y="0">out-us</tspan><tspan x="185.23" y="0" letter-spacing="-0.04em">/</tspan><tspan x="189.74" y="0" letter-spacing="0em">v</tspan><tspan x="194.95" y="0">alu</tspan><tspan x="210.16" y="0" letter-spacing="0.02em">e-</tspan><tspan x="220.33" y="0">chain/</tspan></text><text transform="translate(28.35 171.94)" font-size="12" font-family="NeueHaasUnicaW06-Thin" font-weight="200">3)</text><text transform="translate(28.35 188.74)" font-size="12" font-family="NeueHaasUnicaW06-Thin" font-weight="200">-</text><text transform="translate(34.48 188.74)" font-size="14" font-family="NeueHaasUnicaW06-Thin" font-weight="200"><tspan letter-spacing="-0.01em">h</tspan><tspan x="7.49" y="0">ttp</tspan><tspan x="23.2" y="0" letter-spacing="0em">:</tspan><tspan x="25.56" y="0" letter-spacing="-0.15em">/</tspan><tspan x="29.23" y="0" letter-spacing="0em">/</tspan></text><text transform="translate(69.51 188.74)" font-size="12" font-family="NeueHaasUnicaW06-Thin" font-weight="200">d2ouvy59p0dg6<tspan x="82.01" y="0" letter-spacing="0.02em">k</tspan><tspan x="87.69" y="0">.cloudf</tspan><tspan x="121.25" y="0" letter-spacing="-0.03em">r</tspan><tspan x="124.89" y="0">o</tspan><tspan x="131.36" y="0" letter-spacing="-0.01em">n</tspan><tspan x="137.78" y="0" letter-spacing="0.02em">t</tspan><tspan x="141.43" y="0">.n</tspan><tspan x="150.07" y="0" letter-spacing="-0.01em">e</tspan><tspan x="156.29" y="0">t</tspan><tspan x="159.69" y="0" letter-spacing="-0.08em">/</tspan><tspan x="163.74" y="0">d</tspan><tspan x="170.38" y="0" letter-spacing="0em">o</tspan><tspan x="176.84" y="0">wnloads</tspan><tspan x="219.63" y="0" letter-spacing="-0.08em">/</tspan><tspan x="223.68" y="0" letter-spacing="0.01em">e</tspan><tspan x="230.11" y="0" letter-spacing="0.01em">c</tspan><tspan x="236.24" y="0" letter-spacing="0.01em">o</tspan><tspan x="242.8" y="0" letter-spacing="-0.01em">s</tspan><tspan x="248.2" y="0" letter-spacing="-0.01em">y</tspan><tspan x="253.39" y="0">s</tspan><tspan x="258.92" y="0" letter-spacing="-0.02em">t</tspan><tspan x="262.11" y="0">em_</tspan><tspan x="284.33" y="0" letter-spacing="0.01em">s</tspan><tspan x="289.97" y="0" letter-spacing="0em">ervi</tspan><tspan x="308.05" y="0" letter-spacing="0em">c</tspan><tspan x="314.17" y="0" letter-spacing="0.01em">e</tspan><tspan x="320.59" y="0">s.pdf</tspan></text><text transform="translate(28.35 217.54)" font-size="12" font-family="NeueHaasUnicaW06-Thin" font-weight="200">4)</text><text transform="translate(28.35 231.94)" font-size="12" font-family="NeueHaasUnicaW06-Thin" font-weight="200"><tspan letter-spacing="0.23em">-</tspan><tspan x="6.13" y="0" letter-spacing="-0.01em">h</tspan><tspan x="12.55" y="0">ttp</tspan><tspan x="26.02" y="0" letter-spacing="0.03em">s</tspan><tspan x="31.86" y="0" letter-spacing="0em">:</tspan><tspan x="33.89" y="0" letter-spacing="-0.16em">/</tspan><tspan x="37.02" y="0" letter-spacing="-0.08em">/</tspan><tspan x="41.06" y="0">en</tspan><tspan x="53.96" y="0" letter-spacing="-0.04em">.</tspan><tspan x="55.55" y="0">wi</tspan><tspan x="67.01" y="0" letter-spacing="-0.01em">k</tspan><tspan x="72.38" y="0" letter-spacing="0em">i</tspan><tspan x="74.91" y="0" letter-spacing="0.01em">pe</tspan><tspan x="88.11" y="0">dia.o</tspan><tspan x="111.91" y="0" letter-spacing="-0.03em">r</tspan><tspan x="115.56" y="0">g</tspan><tspan x="122.21" y="0" letter-spacing="-0.05em">/</tspan><tspan x="126.61" y="0">wi</tspan><tspan x="138.07" y="0" letter-spacing="-0.01em">k</tspan><tspan x="143.44" y="0">i/</tspan><tspan x="150.97" y="0" letter-spacing="-0.02em">F</tspan><tspan x="157.38" y="0" letter-spacing="0em">o</tspan><tspan x="163.84" y="0" letter-spacing="-0.03em">r</tspan><tspan x="167.5" y="0" letter-spacing="0.01em">e</tspan><tspan x="173.92" y="0">stry</tspan></text><text transform="translate(28.35 246.34)" font-size="12" font-family="NeueHaasUnicaW06-Thin" font-weight="200"><tspan letter-spacing="0.23em">-</tspan><tspan x="6.13" y="0" letter-spacing="-0.01em">h</tspan><tspan x="12.55" y="0">ttp</tspan><tspan x="26.02" y="0" letter-spacing="0.03em">s</tspan><tspan x="31.86" y="0" letter-spacing="0em">:</tspan><tspan x="33.89" y="0" letter-spacing="-0.16em">/</tspan><tspan x="37.02" y="0" letter-spacing="-0.05em">/</tspan><tspan x="41.42" y="0">ww</tspan><tspan x="59.28" y="0" letter-spacing="-0.04em">w</tspan><tspan x="67.74" y="0" letter-spacing="0em">.nibio.no</tspan><tspan x="109.67" y="0" letter-spacing="-0.04em">/</tspan><tspan x="114.18" y="0" letter-spacing="-0.02em">t</tspan><tspan x="117.37" y="0" letter-spacing="0em">ema</tspan><tspan x="139.69" y="0" letter-spacing="-0.08em">/</tspan><tspan x="143.73" y="0" letter-spacing="0em">s</tspan><tspan x="149.26" y="0" letter-spacing="-0.02em">k</tspan><tspan x="154.51" y="0" letter-spacing="0.01em">o</tspan><tspan x="161.1" y="0">g</tspan><tspan x="167.74" y="0" letter-spacing="-0.08em">/</tspan><tspan x="171.79" y="0">s</tspan><tspan x="177.32" y="0" letter-spacing="-0.02em">k</tspan><tspan x="182.55" y="0" letter-spacing="0.01em">o</tspan><tspan x="189.14" y="0" letter-spacing="0em">g</tspan><tspan x="195.79" y="0" letter-spacing="0.02em">-</tspan><tspan x="199.4" y="0" letter-spacing="0.01em">o</tspan><tspan x="205.99" y="0" letter-spacing="0em">g-miljoi</tspan><tspan x="242.62" y="0" letter-spacing="-0.01em">n</tspan><tspan x="249.11" y="0" letter-spacing="-0.01em">f</tspan><tspan x="252.15" y="0">ormasjon-f</tspan><tspan x="306.4" y="0" letter-spacing="-0.03em">r</tspan><tspan x="310.04" y="0">a-landss</tspan><tspan x="352.43" y="0" letter-spacing="-0.02em">k</tspan><tspan x="357.68" y="0" letter-spacing="0.01em">o</tspan><tspan x="364.25" y="0">gtak</tspan></text><text transform="translate(413.91 246.34)" font-size="12" font-family="NeueHaasUnicaW06-Thin" font-weight="200">-</text><text transform="translate(28.35 263.14)" font-size="12" font-family="NeueHaasUnicaW06-Thin" font-weight="200"><tspan letter-spacing="0.01em">s</tspan><tspan x="5.64" y="0" letter-spacing="0em">eringen/N%C3%B8</tspan><tspan x="105.32" y="0" letter-spacing="-0.01em">k</tspan><tspan x="110.69" y="0" letter-spacing="-0.02em">k</tspan><tspan x="115.93" y="0">eltall</tspan></text><text transform="translate(28.35 277.54)" font-size="12" font-family="NeueHaasUnicaW06-Thin" font-weight="200"><tspan letter-spacing="0.23em">-</tspan><tspan x="6.13" y="0" letter-spacing="-0.01em">h</tspan><tspan x="12.55" y="0">ttp</tspan><tspan x="26.02" y="0" letter-spacing="0.03em">s</tspan><tspan x="31.86" y="0" letter-spacing="0em">:</tspan><tspan x="33.89" y="0" letter-spacing="-0.16em">/</tspan><tspan x="37.02" y="0" letter-spacing="-0.07em">/</tspan><tspan x="41.18" y="0" letter-spacing="0em">no</tspan><tspan x="54.24" y="0" letter-spacing="-0.04em">.</tspan><tspan x="55.82" y="0">wi</tspan><tspan x="67.28" y="0" letter-spacing="-0.01em">k</tspan><tspan x="72.66" y="0">i</tspan><tspan x="75.19" y="0" letter-spacing="0.01em">p</tspan><tspan x="81.96" y="0" letter-spacing="0.01em">e</tspan><tspan x="88.38" y="0" letter-spacing="0em">dia.o</tspan><tspan x="112.17" y="0" letter-spacing="-0.03em">r</tspan><tspan x="115.83" y="0" letter-spacing="0em">g</tspan><tspan x="122.48" y="0" letter-spacing="-0.05em">/</tspan><tspan x="126.88" y="0">wi</tspan><tspan x="138.34" y="0" letter-spacing="-0.01em">k</tspan><tspan x="143.72" y="0">i/H</tspan><tspan x="159.85" y="0" letter-spacing="0.01em">o</tspan><tspan x="166.42" y="0">gst</tspan><tspan x="182.01" y="0" letter-spacing="-0.01em">k</tspan><tspan x="187.39" y="0">las</tspan><tspan x="201.55" y="0" letter-spacing="0.01em">s</tspan><tspan x="207.19" y="0" letter-spacing="0em">e</tspan></text><text transform="translate(28.35 291.94)" font-size="12" font-family="NeueHaasUnicaW06-Thin" font-weight="200"><tspan letter-spacing="0.23em">-</tspan><tspan x="6.13" y="0" letter-spacing="-0.01em">h</tspan><tspan x="12.55" y="0">ttp</tspan><tspan x="26.02" y="0" letter-spacing="0.03em">s</tspan><tspan x="31.86" y="0" letter-spacing="0em">:</tspan><tspan x="33.89" y="0" letter-spacing="-0.16em">/</tspan><tspan x="37.02" y="0" letter-spacing="-0.05em">/</tspan><tspan x="41.42" y="0">ww</tspan><tspan x="59.28" y="0" letter-spacing="-0.04em">w</tspan><tspan x="67.74" y="0" letter-spacing="0em">.nc</tspan><tspan x="82.44" y="0" letter-spacing="-0.01em">f</tspan><tspan x="85.47" y="0">o</tspan><tspan x="91.94" y="0" letter-spacing="-0.03em">r</tspan><tspan x="95.6" y="0" letter-spacing="0.01em">e</tspan><tspan x="102.02" y="0">str</tspan><tspan x="114.93" y="0" letter-spacing="-0.03em">y</tspan><tspan x="119.85" y="0">.o</tspan><tspan x="128.37" y="0" letter-spacing="-0.03em">r</tspan><tspan x="132.03" y="0">g</tspan><tspan x="138.68" y="0" letter-spacing="-0.04em">/</tspan><tspan x="143.21" y="0" letter-spacing="-0.02em">t</tspan><tspan x="146.4" y="0" letter-spacing="0em">eache</tspan><tspan x="177.76" y="0" letter-spacing="-0.02em">r</tspan><tspan x="181.52" y="0" letter-spacing="0em">s</tspan><tspan x="187.05" y="0" letter-spacing="-0.08em">/</tspan><tspan x="191.1" y="0" letter-spacing="0em">gl</tspan><tspan x="200.28" y="0" letter-spacing="0.01em">o</tspan><tspan x="206.85" y="0">s</tspan><tspan x="212.38" y="0" letter-spacing="0.01em">s</tspan><tspan x="218.08" y="0">ary</tspan><tspan x="233.46" y="0" letter-spacing="0.02em">-</tspan><tspan x="237.06" y="0">of-</tspan><tspan x="250.1" y="0" letter-spacing="-0.01em">f</tspan><tspan x="253.13" y="0">o</tspan><tspan x="259.6" y="0" letter-spacing="-0.03em">r</tspan><tspan x="263.26" y="0" letter-spacing="0.01em">e</tspan><tspan x="269.68" y="0">stry-</tspan><tspan x="291.27" y="0" letter-spacing="-0.02em">t</tspan><tspan x="294.45" y="0">erms/</tspan></text><text transform="translate(28.35 306.34)" font-size="12" font-family="NeueHaasUnicaW06-Thin" font-weight="200"><tspan letter-spacing="0.23em">-</tspan><tspan x="6.13" y="0" letter-spacing="-0.01em">h</tspan><tspan x="12.55" y="0">ttp</tspan><tspan x="26.02" y="0" letter-spacing="0.03em">s</tspan><tspan x="31.86" y="0" letter-spacing="0em">:</tspan><tspan x="33.89" y="0" letter-spacing="-0.16em">/</tspan><tspan x="37.02" y="0" letter-spacing="-0.05em">/</tspan><tspan x="41.42" y="0">ww</tspan><tspan x="59.28" y="0" letter-spacing="-0.04em">w.</tspan><tspan x="69.32" y="0">ww</tspan><tspan x="87.18" y="0" letter-spacing="-0.05em">f</tspan><tspan x="89.78" y="0">.no/?39305%2</tspan><tspan x="163.34" y="0" letter-spacing="-0.02em">F</tspan><tspan x="169.75" y="0">S</tspan><tspan x="176.78" y="0" letter-spacing="-0.02em">k</tspan><tspan x="182.03" y="0" letter-spacing="0.01em">o</tspan><tspan x="188.61" y="0">gens-</tspan><tspan x="217.06" y="0" letter-spacing="-0.03em">r</tspan><tspan x="220.72" y="0">o (image)</tspan></text><text transform="translate(28.35 335.14)" font-size="12" font-family="NeueHaasUnicaW06-Thin" font-weight="200">5)</text><text transform="translate(28.35 349.54)" font-size="12" font-family="NeueHaasUnicaW06-Thin" font-weight="200"><tspan letter-spacing="0.23em">-</tspan><tspan x="6.13" y="0">A</tspan><tspan x="13.91" y="0" letter-spacing="-0.03em">r</tspan><tspan x="17.57" y="0" letter-spacing="0em">ela</tspan><tspan x="32.51" y="0" letter-spacing="-0.03em">r</tspan><tspan x="36.17" y="0" letter-spacing="0.01em">e</tspan><tspan x="42.58" y="0">ssu</tspan><tspan x="60.23" y="0" letter-spacing="-0.02em">r</tspan><tspan x="63.98" y="0" letter-spacing="0em">sst</tspan><tspan x="78.46" y="0" letter-spacing="-0.01em">a</tspan><tspan x="84.44" y="0" letter-spacing="0em">tisti</tspan><tspan x="101.85" y="0" letter-spacing="-0.01em">k</tspan><tspan x="107.23" y="0" letter-spacing="0em">k No</tspan><tspan x="130.7" y="0" letter-spacing="-0.03em">r</tspan><tspan x="134.36" y="0">ge - NIBIO</tspan></text><text transform="translate(28.35 363.94)" font-size="12" font-family="NeueHaasUnicaW06-Thin" font-weight="200"><tspan letter-spacing="0.23em">-</tspan><tspan x="6.13" y="0">St</tspan><tspan x="16.57" y="0" letter-spacing="-0.01em">a</tspan><tspan x="22.56" y="0" letter-spacing="-0.02em">t</tspan><tspan x="25.75" y="0">ens</tspan><tspan x="44.18" y="0" letter-spacing="-0.01em">k</tspan><tspan x="49.56" y="0">a</tspan><tspan x="55.66" y="0" letter-spacing="0.01em">r</tspan><tspan x="59.76" y="0">tverk No</tspan><tspan x="102.18" y="0" letter-spacing="-0.03em">r</tspan><tspan x="105.84" y="0" letter-spacing="0em">g</tspan><tspan x="112.49" y="0" letter-spacing="0.01em">e</tspan><tspan x="118.89" y="0">s s</tspan><tspan x="132.72" y="0" letter-spacing="-0.02em">k</tspan><tspan x="137.96" y="0" letter-spacing="0.01em">o</tspan><tspan x="144.55" y="0">g- </tspan><tspan x="157.33" y="0" letter-spacing="0.01em">o</tspan><tspan x="163.91" y="0">g jo</tspan><tspan x="182.42" y="0" letter-spacing="-0.03em">r</tspan><tspan x="186.08" y="0" letter-spacing="0em">dbru</tspan><tspan x="209.94" y="0" letter-spacing="-0.02em">k</tspan><tspan x="215.12" y="0" letter-spacing="0.01em">s</tspan><tspan x="220.76" y="0">om</tspan><tspan x="237.14" y="0" letter-spacing="-0.03em">r</tspan><tspan x="240.79" y="0">åder</tspan></text><text transform="translate(28.35 378.34)" font-size="12" font-family="NeueHaasUnicaW06-Thin" font-weight="200"><tspan letter-spacing="0.23em">-</tspan><tspan x="6.13" y="0" letter-spacing="-0.01em">h</tspan><tspan x="12.55" y="0">ttp</tspan><tspan x="26.02" y="0" letter-spacing="0.03em">s</tspan><tspan x="31.86" y="0" letter-spacing="0em">:</tspan><tspan x="33.89" y="0" letter-spacing="-0.16em">/</tspan><tspan x="37.02" y="0" letter-spacing="-0.05em">/</tspan><tspan x="41.42" y="0">ww</tspan><tspan x="59.28" y="0" letter-spacing="-0.04em">w</tspan><tspan x="67.74" y="0" letter-spacing="0em">.landbru</tspan><tspan x="108.86" y="0" letter-spacing="-0.02em">k</tspan><tspan x="114.05" y="0">sdi</tspan><tspan x="128.76" y="0" letter-spacing="-0.03em">r</tspan><tspan x="132.42" y="0">ek</tspan><tspan x="144.21" y="0" letter-spacing="-0.02em">t</tspan><tspan x="147.41" y="0">o</tspan><tspan x="153.87" y="0" letter-spacing="-0.03em">r</tspan><tspan x="157.52" y="0" letter-spacing="-0.01em">a</tspan><tspan x="163.51" y="0" letter-spacing="-0.02em">t</tspan><tspan x="166.7" y="0" letter-spacing="-0.01em">e</tspan><tspan x="172.92" y="0" letter-spacing="0.02em">t</tspan><tspan x="176.56" y="0">.no</tspan><tspan x="191.67" y="0" letter-spacing="-0.07em">/</tspan><tspan x="195.82" y="0">no</tspan><tspan x="208.88" y="0" letter-spacing="-0.08em">/</tspan><tspan x="212.92" y="0">st</tspan><tspan x="221.86" y="0" letter-spacing="-0.01em">a</tspan><tspan x="227.85" y="0">tisti</tspan><tspan x="245.26" y="0" letter-spacing="-0.01em">k</tspan><tspan x="250.64" y="0">k</tspan><tspan x="256.12" y="0" letter-spacing="-0.08em">/</tspan><tspan x="260.17" y="0">s</tspan><tspan x="265.7" y="0" letter-spacing="-0.02em">k</tspan><tspan x="270.94" y="0" letter-spacing="0.01em">o</tspan><tspan x="277.52" y="0">gbruk</tspan><tspan x="306.86" y="0" letter-spacing="-0.04em">/</tspan><tspan x="311.38" y="0" letter-spacing="-0.02em">t</tspan><tspan x="314.57" y="0" letter-spacing="0em">omme</tspan><tspan x="347.18" y="0" letter-spacing="-0.03em">r</tspan><tspan x="350.81" y="0" letter-spacing="-0.02em">a</tspan><tspan x="356.72" y="0">v</tspan></text><text transform="translate(390.15 378.34)" font-size="12" font-family="NeueHaasUnicaW06-Thin" font-weight="200">-</text><text transform="translate(28.35 392.74)" font-size="12" font-family="NeueHaasUnicaW06-Thin" font-weight="200">vir<tspan x="11.76" y="0" letter-spacing="-0.01em">k</tspan><tspan x="17.14" y="0">ning</tspan></text><text transform="translate(28.35 421.54)" font-size="12" font-family="NeueHaasUnicaW06-Thin" font-weight="200">6)</text><path d="M28.71,432.65v-.43h2.65v.43ZM36,430.93a2.08,2.08,0,0,1,.82-.89,2.29,2.29,0,0,1,1.17-.32,2,2,0,0,1,1.57.63,2.78,2.78,0,0,1,.55,1.88v3.71h-.43v-3.7q0-2.13-1.74-2.13a1.85,1.85,0,0,0-1.69,1,2.22,2.22,0,0,0-.26,1.11v3.73h-.44v-8.55H36v3.54Zm7.53,4.64a1.73,1.73,0,0,0,.42-.05v.39a1.85,1.85,0,0,1-.46,0,1.21,1.21,0,0,1-1-.35,1.74,1.74,0,0,1-.3-1.15v-4.23H41.05v-.39h1.14v-1.4h.44v1.4h1.24v.39H42.63v4.23a1.33,1.33,0,0,0,.2.85.83.83,0,0,0,.68.26Zm3.41,0a1.86,1.86,0,0,0,.42-.05v.39a1.88,1.88,0,0,1-.47,0,1.2,1.2,0,0,1-1-.35,1.74,1.74,0,0,1-.3-1.15v-4.23H44.46v-.39H45.6v-1.4H46v1.4h1.25v.39H46v4.23a1.32,1.32,0,0,0,.21.85.81.81,0,0,0,.68.26Zm4.32-5.86a2.27,2.27,0,0,1,1.87.85,4.26,4.26,0,0,1,0,4.65,2.3,2.3,0,0,1-1.87.85,2.09,2.09,0,0,1-2-1.43h0v3.53h-.43v-8.32h.43v1.3h0a2.09,2.09,0,0,1,2-1.43Zm-.05.38a1.74,1.74,0,0,0-1.47.75,3.46,3.46,0,0,0-.54,2.05,3.4,3.4,0,0,0,.54,2,1.74,1.74,0,0,0,1.47.75,1.89,1.89,0,0,0,1.58-.75,3.2,3.2,0,0,0,.58-2,3.26,3.26,0,0,0-.58-2.05,1.89,1.89,0,0,0-1.58-.75Zm5.82-.38a2.18,2.18,0,0,1,1.59.55,2.09,2.09,0,0,1,.59,1.54h-.45a1.68,1.68,0,0,0-.45-1.25,1.75,1.75,0,0,0-1.28-.44,1.83,1.83,0,0,0-1.13.33,1.05,1.05,0,0,0-.44.89,1,1,0,0,0,.18.62,1.12,1.12,0,0,0,.5.35,9.22,9.22,0,0,0,1,.27,8.93,8.93,0,0,1,1.26.36,1.75,1.75,0,0,1,.74.51,1.45,1.45,0,0,1,.27.93,1.51,1.51,0,0,1-.6,1.23,2.82,2.82,0,0,1-3.27-.11,2.18,2.18,0,0,1-.62-1.63h.43a1.77,1.77,0,0,0,.5,1.34,2,2,0,0,0,1.42.47,2,2,0,0,0,1.22-.35,1.11,1.11,0,0,0,.48-.93,1.07,1.07,0,0,0-.19-.69,1.46,1.46,0,0,0-.59-.4A9.37,9.37,0,0,0,57,433a6.86,6.86,0,0,1-1.09-.31,1.45,1.45,0,0,1-.64-.46,1.34,1.34,0,0,1-.24-.85,1.46,1.46,0,0,1,.56-1.19,2.25,2.25,0,0,1,1.44-.45ZM61,430.79v-1h.59v1Zm0,5.15V435h.59v.95ZM62.59,437l3.57-10h.45l-3.56,10Zm3.13,0,3.57-10h.45l-3.56,10ZM76,435.94l-1-3-.85-2.71h0L73.36,433l-1,3h-.63l-1.92-6.1h.45l.89,2.82.88,2.86h0l.9-2.85.87-2.83h.68l.87,2.83.9,2.85h0l.88-2.86.89-2.82h.45l-1.92,6.1Zm8.93,0L84,433l-.85-2.71h0L82.28,433l-.94,3h-.63l-1.92-6.1h.45l.88,2.82.89,2.86h0l.9-2.85.87-2.83h.67l.88,2.83.9,2.85h0l.89-2.86.89-2.82h.44l-1.92,6.1Zm8.93,0-1-3-.85-2.71h0L91.21,433l-.95,3h-.62l-1.92-6.1h.44l.89,2.82.89,2.86h0l.9-2.85.88-2.83h.67l.88,2.83.9,2.85h0l.89-2.86.89-2.82h.44l-1.92,6.1Zm2.9,0V435h.59v.95Zm4-6.23a2.18,2.18,0,0,1,1.59.55,2.09,2.09,0,0,1,.59,1.54h-.45a1.68,1.68,0,0,0-.45-1.25,1.75,1.75,0,0,0-1.28-.44,1.83,1.83,0,0,0-1.13.33,1.05,1.05,0,0,0-.44.89,1,1,0,0,0,.18.62,1.12,1.12,0,0,0,.5.35,9.22,9.22,0,0,0,1,.27,8.93,8.93,0,0,1,1.26.36,1.75,1.75,0,0,1,.74.51,1.45,1.45,0,0,1,.27.93,1.51,1.51,0,0,1-.6,1.23,2.82,2.82,0,0,1-3.27-.11,2.18,2.18,0,0,1-.62-1.63h.43a1.77,1.77,0,0,0,.5,1.34,2,2,0,0,0,1.42.47,2,2,0,0,0,1.22-.35,1.11,1.11,0,0,0,.48-.93,1.07,1.07,0,0,0-.19-.69,1.46,1.46,0,0,0-.59-.4,9.37,9.37,0,0,0-1.17-.33,6.86,6.86,0,0,1-1.09-.31,1.45,1.45,0,0,1-.64-.46,1.34,1.34,0,0,1-.24-.85,1.46,1.46,0,0,1,.56-1.19,2.25,2.25,0,0,1,1.44-.45Zm5.54,0a2.18,2.18,0,0,1,1.59.55,2.09,2.09,0,0,1,.58,1.54H108a1.68,1.68,0,0,0-.45-1.25,1.74,1.74,0,0,0-1.27-.44,1.84,1.84,0,0,0-1.14.33,1.05,1.05,0,0,0-.44.89,1,1,0,0,0,.18.62,1.12,1.12,0,0,0,.5.35,9.22,9.22,0,0,0,1,.27,9.13,9.13,0,0,1,1.27.36,1.78,1.78,0,0,1,.73.51,1.45,1.45,0,0,1,.27.93,1.51,1.51,0,0,1-.6,1.23,2.82,2.82,0,0,1-3.27-.11,2.22,2.22,0,0,1-.62-1.63h.43a1.74,1.74,0,0,0,.51,1.34,1.94,1.94,0,0,0,1.41.47,2,2,0,0,0,1.23-.35,1.11,1.11,0,0,0,.48-.93,1.07,1.07,0,0,0-.2-.69,1.4,1.4,0,0,0-.59-.4,9.37,9.37,0,0,0-1.17-.33,6.86,6.86,0,0,1-1.09-.31,1.51,1.51,0,0,1-.64-.46,1.34,1.34,0,0,1-.24-.85,1.45,1.45,0,0,1,.57-1.19,2.21,2.21,0,0,1,1.44-.45Zm4.38,1.43a2.07,2.07,0,0,1,.77-1.05,2.13,2.13,0,0,1,1.25-.38,2.27,2.27,0,0,1,1.87.85,4.26,4.26,0,0,1,0,4.65,2.3,2.3,0,0,1-1.87.85,2.13,2.13,0,0,1-1.25-.38,2.07,2.07,0,0,1-.77-1.05h0v1.31h-.43v-8.55h.43v3.75Zm2-1.05a1.72,1.72,0,0,0-1.47.75,3.39,3.39,0,0,0-.55,2.05,3.33,3.33,0,0,0,.55,2,1.72,1.72,0,0,0,1.47.75,1.87,1.87,0,0,0,1.57-.75,3.2,3.2,0,0,0,.59-2,3.27,3.27,0,0,0-.59-2.05,1.87,1.87,0,0,0-1.57-.75Zm3.9,5.85V435h.58v.95Zm4.81-6.22a2,2,0,0,1,1.57.63,2.78,2.78,0,0,1,.55,1.88v3.71h-.43v-3.7q0-2.13-1.74-2.13a2,2,0,0,0-1,.25,1.87,1.87,0,0,0-.71.74,2.23,2.23,0,0,0-.27,1.11v3.73h-.43v-6.1h.43v1.09h0a2,2,0,0,1,.79-.88,2.26,2.26,0,0,1,1.2-.33Zm6.32,0a2.41,2.41,0,0,1,2,.85,4.13,4.13,0,0,1,0,4.66,2.67,2.67,0,0,1-3.91,0,4.18,4.18,0,0,1,0-4.66,2.39,2.39,0,0,1,2-.85Zm0,.4a2,2,0,0,0-1.63.73,3.86,3.86,0,0,0,0,4.1,2,2,0,0,0,1.63.73,2,2,0,0,0,1.65-.73,3.91,3.91,0,0,0,0-4.1,2,2,0,0,0-1.65-.73Zm3.6,6.9,3.57-10h.45l-3.56,10Zm6.23-.54a1.91,1.91,0,0,1-.37,1.32,1.61,1.61,0,0,1-1.37.37v-.4l.28,0a1,1,0,0,0,.77-.3,1.56,1.56,0,0,0,.26-1v-6.63h.43v6.63Zm-.43-8.1v-1h.43v1Zm4.7,1.34a2.41,2.41,0,0,1,2,.85,4.13,4.13,0,0,1,0,4.66,2.67,2.67,0,0,1-3.91,0,4.18,4.18,0,0,1,0-4.66,2.39,2.39,0,0,1,1.95-.85Zm0,.4a2,2,0,0,0-1.63.73,3.86,3.86,0,0,0,0,4.1,2,2,0,0,0,1.63.73,2,2,0,0,0,1.65-.73,3.91,3.91,0,0,0,0-4.1,2,2,0,0,0-1.65-.73Zm6.7-.3a2,2,0,0,1,.36,0v.42l-.35,0a1.85,1.85,0,0,0-1.45.59,2.53,2.53,0,0,0-.53,1.72v3.39h-.43v-6.1h.43V431h0a2.17,2.17,0,0,1,.78-.91,2.14,2.14,0,0,1,1.18-.31Zm5.35,6.13v-1.31h0a2.09,2.09,0,0,1-2,1.43,2.3,2.3,0,0,1-1.87-.85,4.26,4.26,0,0,1,0-4.65,2.27,2.27,0,0,1,1.87-.85,2.09,2.09,0,0,1,2,1.43h0v-3.75h.43v8.55Zm-2-5.85a1.89,1.89,0,0,0-1.58.75,3.33,3.33,0,0,0-.57,2.05,3.26,3.26,0,0,0,.57,2,1.89,1.89,0,0,0,1.58.75,1.75,1.75,0,0,0,1.48-.75,3.4,3.4,0,0,0,.54-2,3.46,3.46,0,0,0-.54-2.05,1.75,1.75,0,0,0-1.48-.75Zm3.85,2.56v-.43h2.65v.43Zm5.66-2.94a2.18,2.18,0,0,1,1.59.55,2.05,2.05,0,0,1,.58,1.54h-.44a1.65,1.65,0,0,0-.46-1.25,1.71,1.71,0,0,0-1.27-.44,1.83,1.83,0,0,0-1.13.33,1.05,1.05,0,0,0-.44.89,1,1,0,0,0,.17.62,1.22,1.22,0,0,0,.51.35,8.58,8.58,0,0,0,1,.27,9.34,9.34,0,0,1,1.26.36,1.72,1.72,0,0,1,.73.51,1.45,1.45,0,0,1,.27.93,1.5,1.5,0,0,1-.59,1.23,2.44,2.44,0,0,1-1.54.47,2.4,2.4,0,0,1-1.73-.58,2.14,2.14,0,0,1-.62-1.63h.43a1.77,1.77,0,0,0,.5,1.34,2.34,2.34,0,0,0,2.64.12,1.11,1.11,0,0,0,.48-.93,1,1,0,0,0-.2-.69,1.42,1.42,0,0,0-.58-.4,9.37,9.37,0,0,0-1.17-.33,6.86,6.86,0,0,1-1.09-.31,1.45,1.45,0,0,1-.64-.46,1.34,1.34,0,0,1-.24-.85,1.46,1.46,0,0,1,.56-1.19,2.25,2.25,0,0,1,1.44-.45Zm7.8,6.23-3.42-3.22h0v3.22h-.43v-8.55h.43v5.09h0l3.07-2.64h.63l-3.23,2.75,3.58,3.35Zm3.54-6.23a2.41,2.41,0,0,1,2,.85,4.13,4.13,0,0,1,0,4.66,2.67,2.67,0,0,1-3.91,0,4.18,4.18,0,0,1,0-4.66,2.39,2.39,0,0,1,1.95-.85Zm0,.4a2,2,0,0,0-1.63.73,3.86,3.86,0,0,0,0,4.1,2,2,0,0,0,1.63.73,2,2,0,0,0,1.65-.73,3.91,3.91,0,0,0,0-4.1,2,2,0,0,0-1.65-.73Zm6.49-.4a2,2,0,0,1,1.22.37,2.27,2.27,0,0,1,.8,1.05h0v-1.29h.43v5.73a2.85,2.85,0,0,1-.61,2,2.43,2.43,0,0,1-1.85.67,2.59,2.59,0,0,1-1.7-.51,1.67,1.67,0,0,1-.62-1.39h.43a1.35,1.35,0,0,0,.52,1.12,2.21,2.21,0,0,0,1.37.39,1.92,1.92,0,0,0,1.53-.56,2.56,2.56,0,0,0,.5-1.72v-1.1h0a2.27,2.27,0,0,1-.8,1.05,2.1,2.1,0,0,1-1.22.37,2.31,2.31,0,0,1-1.87-.83,4,4,0,0,1,0-4.5,2.31,2.31,0,0,1,1.87-.83Zm0,.38a1.88,1.88,0,0,0-1.55.73,3.69,3.69,0,0,0,0,3.94,1.88,1.88,0,0,0,1.55.72,1.8,1.8,0,0,0,1.51-.72,3.82,3.82,0,0,0,0-3.95,1.8,1.8,0,0,0-1.51-.72Zm3.88,2.56v-.43h2.65v.43Zm4.61,3.82a2,2,0,0,1-.37,1.32,1.61,1.61,0,0,1-1.37.37v-.4l.27,0a1,1,0,0,0,.78-.3,1.56,1.56,0,0,0,.26-1v-6.63h.43v6.63Zm-.43-8.1v-1h.43v1Zm4.46,1.34a2.14,2.14,0,0,1,1.56.56,2.33,2.33,0,0,1,.58,1.71v2.53a7.06,7.06,0,0,0,.12,1.43h-.41a5.73,5.73,0,0,1-.1-1.15h0a2.3,2.3,0,0,1-.87.93,2.54,2.54,0,0,1-1.36.34,2.17,2.17,0,0,1-1.47-.48,1.57,1.57,0,0,1-.55-1.24,1.51,1.51,0,0,1,.51-1.19,3.38,3.38,0,0,1,1.69-.62c.77-.11,1.44-.19,2-.24v-.35a1.87,1.87,0,0,0-.47-1.39,1.7,1.7,0,0,0-1.25-.46,1.83,1.83,0,0,0-1.3.44,1.63,1.63,0,0,0-.51,1.15h-.45a2.07,2.07,0,0,1,.65-1.44,2.33,2.33,0,0,1,1.61-.53Zm1.72,3q-1,.09-2,.24a2.93,2.93,0,0,0-1.4.49,1.16,1.16,0,0,0-.4.93,1.2,1.2,0,0,0,.44,1,1.87,1.87,0,0,0,1.2.36,2.31,2.31,0,0,0,.89-.16,1.83,1.83,0,0,0,.66-.46,2.08,2.08,0,0,0,.46-.72,3.32,3.32,0,0,0,.13-1v-.64Zm6.31,3.27-3.42-3.22h0v3.22h-.44v-8.55h.44v5.09h0l3.07-2.64H200l-3.22,2.75,3.57,3.35Zm3.18-.37a1.86,1.86,0,0,0,.42-.05v.39a1.93,1.93,0,0,1-.47,0,1.19,1.19,0,0,1-1-.35,1.74,1.74,0,0,1-.3-1.15v-4.23h-1.14v-.39h1.14v-1.4H202v1.4h1.25v.39H202v4.23a1.39,1.39,0,0,0,.2.85.85.85,0,0,0,.69.26Zm1.15-2.92v-.43h2.65v.43Zm6.48-2.94a2.42,2.42,0,0,1,2,.85,4.18,4.18,0,0,1,0,4.66,2.68,2.68,0,0,1-3.92,0,4.18,4.18,0,0,1,0-4.66,2.41,2.41,0,0,1,2-.85Zm0,.4a2,2,0,0,0-1.63.73,3.86,3.86,0,0,0,0,4.1,2.2,2.2,0,0,0,3.27,0,3.86,3.86,0,0,0,0-4.1,2,2,0,0,0-1.64-.73Zm6.49-.4a2,2,0,0,1,1.22.37,2.27,2.27,0,0,1,.8,1.05h0v-1.29h.43v5.73a2.85,2.85,0,0,1-.62,2,2.4,2.4,0,0,1-1.84.67,2.59,2.59,0,0,1-1.7-.51,1.68,1.68,0,0,1-.63-1.39h.43a1.39,1.39,0,0,0,.53,1.12,2.19,2.19,0,0,0,1.37.39,1.92,1.92,0,0,0,1.53-.56,2.56,2.56,0,0,0,.5-1.72v-1.1h0a2.27,2.27,0,0,1-.8,1.05,2.12,2.12,0,0,1-1.22.37,2.33,2.33,0,0,1-1.88-.83,4,4,0,0,1,0-4.5,2.33,2.33,0,0,1,1.88-.83Zm0,.38a1.87,1.87,0,0,0-1.55.73,3.69,3.69,0,0,0,0,3.94,1.86,1.86,0,0,0,1.55.72,1.8,1.8,0,0,0,1.51-.72,3.88,3.88,0,0,0,0-3.95,1.8,1.8,0,0,0-1.51-.72Zm3.88,2.56v-.43h2.65v.43Zm4.32-3.77c0-1,.44-1.52,1.32-1.52a2.06,2.06,0,0,1,.39,0v.4a1.34,1.34,0,0,0-.35-.05.86.86,0,0,0-.7.28,1.39,1.39,0,0,0-.23.9v.92h1.27v.39h-1.27v5.71h-.43v-5.71H224.1v-.39h1.13v-1Zm3.38-.51h-.43v-1h.43Zm0,1.47v6.1h-.43v-6.1Zm3.7-.13a2.18,2.18,0,0,1,1.59.55,2.09,2.09,0,0,1,.58,1.54H234a1.68,1.68,0,0,0-.45-1.25,1.74,1.74,0,0,0-1.27-.44,1.84,1.84,0,0,0-1.14.33,1.05,1.05,0,0,0-.44.89,1,1,0,0,0,.18.62,1.12,1.12,0,0,0,.5.35,9.22,9.22,0,0,0,1,.27,9.13,9.13,0,0,1,1.27.36,1.78,1.78,0,0,1,.73.51,1.45,1.45,0,0,1,.27.93,1.51,1.51,0,0,1-.6,1.23,2.82,2.82,0,0,1-3.27-.11,2.22,2.22,0,0,1-.62-1.63h.43a1.74,1.74,0,0,0,.51,1.34,1.94,1.94,0,0,0,1.41.47,2,2,0,0,0,1.23-.35,1.11,1.11,0,0,0,.48-.93,1.07,1.07,0,0,0-.2-.69,1.4,1.4,0,0,0-.59-.4,9.37,9.37,0,0,0-1.17-.33,6.86,6.86,0,0,1-1.09-.31,1.51,1.51,0,0,1-.64-.46,1.34,1.34,0,0,1-.24-.85,1.45,1.45,0,0,1,.57-1.19,2.21,2.21,0,0,1,1.44-.45Zm7.8,6.23-3.42-3.22h0v3.22h-.43v-8.55h.43v5.09h0l3.07-2.64h.62l-3.23,2.75,3.58,3.35Zm3.55-.25a2.07,2.07,0,0,0,1.33-.42,1.75,1.75,0,0,0,.66-1.13h.45a2.21,2.21,0,0,1-.79,1.39,2.48,2.48,0,0,1-1.65.54,2.52,2.52,0,0,1-1.43-.4,2.61,2.61,0,0,1-.93-1.15,4.52,4.52,0,0,1-.32-1.75,3.81,3.81,0,0,1,.32-1.6,2.52,2.52,0,0,1,.9-1.08,2.55,2.55,0,0,1,1.38-.38,2.45,2.45,0,0,1,1.67.59,2.7,2.7,0,0,1,.84,1.61,5.38,5.38,0,0,1,.07,1h-4.75a3.09,3.09,0,0,0,.63,2,2,2,0,0,0,1.62.74Zm-.08-5.6a2,2,0,0,0-1.54.67,2.78,2.78,0,0,0-.63,1.78h4.33a2.69,2.69,0,0,0-.62-1.8,2,2,0,0,0-1.54-.65Zm6.6-.28a2,2,0,0,1,.36,0v.42l-.34,0a1.88,1.88,0,0,0-1.46.59,2.53,2.53,0,0,0-.52,1.72v3.39h-.44v-6.1h.44V431h0a2,2,0,0,1,2-1.22Zm1.58-1.44v-1h.43v1Zm0,7.57v-6.1h.43v6.1Zm1.83,1.07,3.57-10h.45l-3.56,10Zm6.54-7.3a2.14,2.14,0,0,1,1.56.56,2.28,2.28,0,0,1,.58,1.71v2.53a7.06,7.06,0,0,0,.12,1.43H262a6.57,6.57,0,0,1-.1-1.15h0a2.3,2.3,0,0,1-.87.93,2.52,2.52,0,0,1-1.36.34,2.12,2.12,0,0,1-1.46-.48,1.55,1.55,0,0,1-.56-1.24,1.51,1.51,0,0,1,.51-1.19,3.38,3.38,0,0,1,1.69-.62c.77-.11,1.44-.19,2-.24v-.35a1.91,1.91,0,0,0-.46-1.39,1.74,1.74,0,0,0-1.26-.46,1.83,1.83,0,0,0-1.3.44,1.63,1.63,0,0,0-.51,1.15h-.44a2.06,2.06,0,0,1,.64-1.44,2.35,2.35,0,0,1,1.61-.53Zm1.72,3q-1,.09-2,.24a2.84,2.84,0,0,0-1.39.49,1.13,1.13,0,0,0-.41.93,1.23,1.23,0,0,0,.44,1,1.87,1.87,0,0,0,1.2.36,2.28,2.28,0,0,0,.89-.16,1.83,1.83,0,0,0,.66-.46,2.08,2.08,0,0,0,.46-.72,3,3,0,0,0,.13-1v-.64Zm4.85-2.86.36,0v.42l-.35,0a1.85,1.85,0,0,0-1.45.59,2.48,2.48,0,0,0-.53,1.72v3.39h-.43v-6.1h.43V431h0a2.15,2.15,0,0,1,.77-.91,2.2,2.2,0,0,1,1.19-.31Zm3.27,5.76a1.86,1.86,0,0,0,.42-.05v.39a1.88,1.88,0,0,1-.47,0,1.2,1.2,0,0,1-1-.35,1.74,1.74,0,0,1-.3-1.15v-4.23h-1.14v-.39h1.14v-1.4h.43v1.4h1.25v.39h-1.25v4.23a1.32,1.32,0,0,0,.21.85.81.81,0,0,0,.68.26Zm1.85-7.2v-1h.43v1Zm0,7.57v-6.1h.43v6.1Zm6.4,0-3.42-3.22h0v3.22h-.43v-8.55h.43v5.09h0l3.07-2.64h.62l-3.23,2.75,3.58,3.35Zm1.5,0v-8.55h.43v8.55Zm4.71-.25a2.1,2.1,0,0,0,1.34-.42,1.74,1.74,0,0,0,.65-1.13h.46a2.25,2.25,0,0,1-.79,1.39,2.77,2.77,0,0,1-3.08.14,2.61,2.61,0,0,1-.93-1.15,4.34,4.34,0,0,1-.32-1.75,3.81,3.81,0,0,1,.31-1.6,2.62,2.62,0,0,1,.91-1.08,2.5,2.5,0,0,1,1.38-.38,2.43,2.43,0,0,1,1.66.59,2.66,2.66,0,0,1,.85,1.61,5.38,5.38,0,0,1,.07,1h-4.75a3.08,3.08,0,0,0,.62,2,2,2,0,0,0,1.62.74Zm-.07-5.6a2,2,0,0,0-1.55.67,2.83,2.83,0,0,0-.62,1.78h4.33a2.69,2.69,0,0,0-.62-1.8,2,2,0,0,0-1.54-.65Zm6.6-.28a2,2,0,0,1,.36,0v.42l-.35,0a1.86,1.86,0,0,0-1.45.59,2.53,2.53,0,0,0-.53,1.72v3.39h-.43v-6.1H289V431h0a2.25,2.25,0,0,1,.78-.91,2.14,2.14,0,0,1,1.18-.31Zm.88,2.84v-.43h2.65v.43Zm6.48-2.94a2.42,2.42,0,0,1,2,.85,4.18,4.18,0,0,1,0,4.66,2.42,2.42,0,0,1-2,.85,2.39,2.39,0,0,1-2-.85,4.18,4.18,0,0,1,0-4.66,2.39,2.39,0,0,1,2-.85Zm0,.4a2,2,0,0,0-1.64.73,3.91,3.91,0,0,0,0,4.1,2.21,2.21,0,0,0,3.28,0,3.86,3.86,0,0,0,0-4.1,2,2,0,0,0-1.64-.73Zm6.49-.4a2,2,0,0,1,1.22.37,2.26,2.26,0,0,1,.79,1.05h0v-1.29h.43v5.73a2.85,2.85,0,0,1-.62,2,2.41,2.41,0,0,1-1.84.67,2.64,2.64,0,0,1-1.71-.51,1.7,1.7,0,0,1-.62-1.39h.43a1.38,1.38,0,0,0,.52,1.12,2.22,2.22,0,0,0,1.38.39,1.92,1.92,0,0,0,1.53-.56,2.56,2.56,0,0,0,.5-1.72v-1.1h0a2.26,2.26,0,0,1-.79,1.05,2.12,2.12,0,0,1-1.22.37,2.33,2.33,0,0,1-1.88-.83,4,4,0,0,1,0-4.5,2.33,2.33,0,0,1,1.88-.83Zm0,.38a1.89,1.89,0,0,0-1.56.73,3.69,3.69,0,0,0,0,3.94,1.88,1.88,0,0,0,1.56.72,1.77,1.77,0,0,0,1.5-.72,3.82,3.82,0,0,0,0-3.95,1.77,1.77,0,0,0-1.5-.72Zm3.87,2.56v-.43h2.66v.43Zm6.54-2.94a2.27,2.27,0,0,1,1.87.85,4.26,4.26,0,0,1,0,4.65,2.3,2.3,0,0,1-1.87.85,2.13,2.13,0,0,1-1.25-.38,2.07,2.07,0,0,1-.77-1.05h0v3.53h-.43v-8.32h.43v1.3h0a2.07,2.07,0,0,1,.77-1.05,2.13,2.13,0,0,1,1.25-.38Zm0,.38a1.72,1.72,0,0,0-1.47.75,3.39,3.39,0,0,0-.55,2.05,3.33,3.33,0,0,0,.55,2,1.72,1.72,0,0,0,1.47.75,1.87,1.87,0,0,0,1.57-.75,3.2,3.2,0,0,0,.59-2,3.27,3.27,0,0,0-.59-2.05,1.87,1.87,0,0,0-1.57-.75Zm6.26,6a2,2,0,0,1-1.57-.63,2.83,2.83,0,0,1-.54-1.88v-3.71h.43v3.7c0,1.42.58,2.13,1.73,2.13a1.88,1.88,0,0,0,1.7-1,2.23,2.23,0,0,0,.27-1.11v-3.73h.43v6.1h-.43v-1.09h0a2.06,2.06,0,0,1-.8.88,2.2,2.2,0,0,1-1.19.33Zm5-4.92a2.09,2.09,0,0,1,2-1.43,2.28,2.28,0,0,1,1.87.85,4.26,4.26,0,0,1,0,4.65,2.31,2.31,0,0,1-1.87.85,2.09,2.09,0,0,1-2-1.43h0v1.31H326v-8.55h.43v3.75Zm2-1.05a1.74,1.74,0,0,0-1.47.75,3.46,3.46,0,0,0-.54,2.05,3.4,3.4,0,0,0,.54,2,1.74,1.74,0,0,0,1.47.75,1.89,1.89,0,0,0,1.58-.75,3.2,3.2,0,0,0,.58-2,3.26,3.26,0,0,0-.58-2.05,1.89,1.89,0,0,0-1.58-.75Zm4.23,5.85v-8.55h.43v8.55Zm2.53-7.57v-1h.43v1Zm0,7.57v-6.1h.43v6.1Zm6.39,0-3.42-3.22h0v3.22h-.43v-8.55h.43v5.09h0l3.08-2.64h.62l-3.23,2.75,3.58,3.35Zm3.43-6.23a2.14,2.14,0,0,1,1.56.56,2.28,2.28,0,0,1,.58,1.71v2.53a7.06,7.06,0,0,0,.12,1.43h-.41a6.63,6.63,0,0,1-.09-1.15h0a2.17,2.17,0,0,1-.87.93,2.52,2.52,0,0,1-1.36.34,2.14,2.14,0,0,1-1.46-.48,1.54,1.54,0,0,1-.55-1.24,1.51,1.51,0,0,1,.5-1.19,3.42,3.42,0,0,1,1.69-.62c.77-.11,1.45-.19,2-.24v-.35a1.87,1.87,0,0,0-.46-1.39,1.74,1.74,0,0,0-1.26-.46,1.83,1.83,0,0,0-1.3.44,1.63,1.63,0,0,0-.51,1.15h-.44a2,2,0,0,1,.65-1.44,2.3,2.3,0,0,1,1.6-.53Zm1.72,3q-1,.09-2,.24a2.84,2.84,0,0,0-1.39.49,1.16,1.16,0,0,0-.41.93,1.23,1.23,0,0,0,.44,1,1.87,1.87,0,0,0,1.2.36,2.28,2.28,0,0,0,.89-.16,1.67,1.67,0,0,0,.66-.46,1.94,1.94,0,0,0,.46-.72,3,3,0,0,0,.13-1v-.64Zm4-3a2.18,2.18,0,0,1,1.59.55,2.09,2.09,0,0,1,.59,1.54h-.45a1.68,1.68,0,0,0-.45-1.25,1.75,1.75,0,0,0-1.28-.44,1.83,1.83,0,0,0-1.13.33,1.05,1.05,0,0,0-.44.89,1,1,0,0,0,.18.62,1.12,1.12,0,0,0,.5.35,9.22,9.22,0,0,0,1,.27,8.93,8.93,0,0,1,1.26.36,1.75,1.75,0,0,1,.74.51,1.45,1.45,0,0,1,.27.93,1.51,1.51,0,0,1-.6,1.23,2.82,2.82,0,0,1-3.27-.11,2.18,2.18,0,0,1-.62-1.63h.43a1.77,1.77,0,0,0,.5,1.34,2,2,0,0,0,1.42.47,2,2,0,0,0,1.22-.35,1.11,1.11,0,0,0,.48-.93,1.07,1.07,0,0,0-.19-.69,1.46,1.46,0,0,0-.59-.4,9.37,9.37,0,0,0-1.17-.33,6.86,6.86,0,0,1-1.09-.31,1.45,1.45,0,0,1-.64-.46,1.34,1.34,0,0,1-.24-.85,1.46,1.46,0,0,1,.56-1.19,2.25,2.25,0,0,1,1.44-.45Zm4.48,6.76a1.91,1.91,0,0,1-.37,1.32,1.61,1.61,0,0,1-1.37.37v-.4l.28,0a1,1,0,0,0,.77-.3,1.56,1.56,0,0,0,.26-1v-6.63h.43v6.63Zm-.43-8.1v-1h.43v1Zm4.7,1.34a2.41,2.41,0,0,1,2,.85,4.13,4.13,0,0,1,0,4.66,2.67,2.67,0,0,1-3.91,0,4.18,4.18,0,0,1,0-4.66,2.39,2.39,0,0,1,1.95-.85Zm0,.4a2,2,0,0,0-1.63.73,3.86,3.86,0,0,0,0,4.1,2,2,0,0,0,1.63.73,2,2,0,0,0,1.65-.73,3.91,3.91,0,0,0,0-4.1,2,2,0,0,0-1.65-.73Zm6.73-.39a2,2,0,0,1,1.58.63,2.83,2.83,0,0,1,.55,1.88v3.71h-.43v-3.7q0-2.13-1.74-2.13a1.93,1.93,0,0,0-1,.25,2,2,0,0,0-.72.74,2.33,2.33,0,0,0-.26,1.11v3.73h-.43v-6.1h.43v1.09h0a2,2,0,0,1,.8-.88,2.22,2.22,0,0,1,1.19-.33Zm6.34,6a2.1,2.1,0,0,0,1.34-.42,1.78,1.78,0,0,0,.65-1.13H375a2.25,2.25,0,0,1-.79,1.39,2.53,2.53,0,0,1-1.66.54,2.44,2.44,0,0,1-2.35-1.55,4.34,4.34,0,0,1-.33-1.75,3.81,3.81,0,0,1,.32-1.6,2.54,2.54,0,0,1,.91-1.08,2.5,2.5,0,0,1,1.38-.38,2.43,2.43,0,0,1,1.66.59,2.71,2.71,0,0,1,.85,1.61,6.38,6.38,0,0,1,.07,1h-4.75a3,3,0,0,0,.62,2,2,2,0,0,0,1.62.74Zm-.07-5.6a2,2,0,0,0-1.55.67,2.83,2.83,0,0,0-.62,1.78h4.33a2.7,2.7,0,0,0-.63-1.8,2,2,0,0,0-1.53-.65Zm6.6-.28a2,2,0,0,1,.36,0v.42l-.35,0a1.85,1.85,0,0,0-1.45.59,2.53,2.53,0,0,0-.53,1.72v3.39h-.43v-6.1h.43V431h0a2.17,2.17,0,0,1,.78-.91,2.14,2.14,0,0,1,1.18-.31ZM380,437l3.57-10H384l-3.56,10Zm6.77-1.44a1.86,1.86,0,0,0,.42-.05v.39a1.88,1.88,0,0,1-.47,0,1.2,1.2,0,0,1-1-.35,1.74,1.74,0,0,1-.3-1.15v-4.23h-1.14v-.39h1.14v-1.4h.43v1.4h1.25v.39h-1.25v4.23a1.32,1.32,0,0,0,.21.85.81.81,0,0,0,.68.26Zm4.25-5.76a2,2,0,0,1,.36,0v.42l-.35,0a1.86,1.86,0,0,0-1.45.59,2.53,2.53,0,0,0-.53,1.72v3.39h-.43v-6.1H389V431h0a2.25,2.25,0,0,1,.78-.91,2.14,2.14,0,0,1,1.18-.31Zm3.3,6.31a6.9,6.9,0,0,1-.65,1.29,1.81,1.81,0,0,1-.66.62,2,2,0,0,1-.89.18,1.29,1.29,0,0,1-.45-.08v-.39a1.29,1.29,0,0,0,.45.07,1.68,1.68,0,0,0,.72-.14,1.52,1.52,0,0,0,.53-.54,7.73,7.73,0,0,0,.57-1.18l-2.42-6.11H392l2.16,5.53h0l2.22-5.53h.47l-2.53,6.28Zm5-6.41a2.18,2.18,0,0,1,1.59.55,2.09,2.09,0,0,1,.58,1.54h-.44a1.68,1.68,0,0,0-.46-1.25,1.72,1.72,0,0,0-1.27-.44,1.86,1.86,0,0,0-1.14.33,1,1,0,0,0-.43.89,1,1,0,0,0,.17.62,1.18,1.18,0,0,0,.5.35,9.22,9.22,0,0,0,1,.27,9.13,9.13,0,0,1,1.27.36,1.72,1.72,0,0,1,.73.51,1.45,1.45,0,0,1,.27.93,1.52,1.52,0,0,1-.59,1.23,2.45,2.45,0,0,1-1.55.47,2.37,2.37,0,0,1-1.72-.58,2.18,2.18,0,0,1-.63-1.63h.43a1.74,1.74,0,0,0,.51,1.34,2,2,0,0,0,1.41.47,2,2,0,0,0,1.23-.35,1.11,1.11,0,0,0,.48-.93,1.07,1.07,0,0,0-.2-.69,1.4,1.4,0,0,0-.59-.4,9.37,9.37,0,0,0-1.17-.33,6.7,6.7,0,0,1-1.08-.31,1.48,1.48,0,0,1-.65-.46,1.34,1.34,0,0,1-.24-.85,1.45,1.45,0,0,1,.57-1.19,2.21,2.21,0,0,1,1.44-.45Zm3.93-1.34v-1h.44v1Zm0,7.57v-6.1h.44v6.1Zm2.54,0v-8.55h.43v8.55Zm1.83-3.29v-.43h2.65v.43Z"/><text transform="translate(28.35 450.34)" font-size="12" font-family="NeueHaasUnicaW06-Thin" font-weight="200">har-m<tspan x="29.94" y="0" letter-spacing="0.01em">e</tspan><tspan x="36.35" y="0" letter-spacing="0em">st-s</tspan><tspan x="54.19" y="0" letter-spacing="-0.02em">k</tspan><tspan x="59.43" y="0" letter-spacing="0.01em">o</tspan><tspan x="66.02" y="0" letter-spacing="0em">g-men</tspan><tspan x="98.85" y="0" letter-spacing="0.02em">-</tspan><tspan x="102.45" y="0">elverum-</tspan><tspan x="146.71" y="0" letter-spacing="-0.02em">t</tspan><tspan x="149.89" y="0">op</tspan><tspan x="163" y="0" letter-spacing="0.01em">p</tspan><tspan x="169.77" y="0" letter-spacing="0em">er-h</tspan><tspan x="190.02" y="0" letter-spacing="0.01em">o</tspan><tspan x="196.59" y="0" letter-spacing="0em">gst-lista</tspan></text><path d="M28.71,461.45V461h2.65v.43ZM36,459.73a2.08,2.08,0,0,1,.82-.89,2.29,2.29,0,0,1,1.17-.32,2,2,0,0,1,1.57.63,2.78,2.78,0,0,1,.55,1.88v3.71h-.43V461q0-2.13-1.74-2.13a1.85,1.85,0,0,0-1.69,1A2.22,2.22,0,0,0,36,461v3.73h-.44v-8.55H36v3.54Zm7.53,4.64a1.73,1.73,0,0,0,.42-.05v.39a1.85,1.85,0,0,1-.46.05,1.21,1.21,0,0,1-1-.35,1.74,1.74,0,0,1-.3-1.15V459H41.05v-.39h1.14v-1.4h.44v1.4h1.24V459H42.63v4.23a1.33,1.33,0,0,0,.2.85.83.83,0,0,0,.68.26Zm3.41,0a1.86,1.86,0,0,0,.42-.05v.39a1.88,1.88,0,0,1-.47.05,1.2,1.2,0,0,1-1-.35,1.74,1.74,0,0,1-.3-1.15V459H44.46v-.39H45.6v-1.4H46v1.4h1.25V459H46v4.23a1.32,1.32,0,0,0,.21.85.81.81,0,0,0,.68.26Zm4.32-5.86a2.27,2.27,0,0,1,1.87.85,4.26,4.26,0,0,1,0,4.65,2.3,2.3,0,0,1-1.87.85,2.09,2.09,0,0,1-2-1.43h0V467h-.43v-8.32h.43v1.3h0a2.09,2.09,0,0,1,2-1.43Zm-.05.38a1.74,1.74,0,0,0-1.47.75,3.46,3.46,0,0,0-.54,2.05,3.4,3.4,0,0,0,.54,2,1.74,1.74,0,0,0,1.47.75,1.89,1.89,0,0,0,1.58-.75,3.2,3.2,0,0,0,.58-2,3.26,3.26,0,0,0-.58-2.05,1.89,1.89,0,0,0-1.58-.75Zm5.82-.38a2.18,2.18,0,0,1,1.59.55,2.09,2.09,0,0,1,.59,1.54h-.45a1.68,1.68,0,0,0-.45-1.25,1.75,1.75,0,0,0-1.28-.44,1.83,1.83,0,0,0-1.13.33,1.05,1.05,0,0,0-.44.89,1,1,0,0,0,.18.62,1.12,1.12,0,0,0,.5.35,9.22,9.22,0,0,0,1,.27,8.93,8.93,0,0,1,1.26.36,1.75,1.75,0,0,1,.74.51,1.45,1.45,0,0,1,.27.93,1.51,1.51,0,0,1-.6,1.23,2.82,2.82,0,0,1-3.27-.11,2.18,2.18,0,0,1-.62-1.63h.43a1.77,1.77,0,0,0,.5,1.34,2,2,0,0,0,1.42.47,2,2,0,0,0,1.22-.35,1.11,1.11,0,0,0,.48-.93,1.07,1.07,0,0,0-.19-.69,1.46,1.46,0,0,0-.59-.4,9.37,9.37,0,0,0-1.17-.33,6.86,6.86,0,0,1-1.09-.31,1.45,1.45,0,0,1-.64-.46,1.34,1.34,0,0,1-.24-.85,1.46,1.46,0,0,1,.56-1.19,2.25,2.25,0,0,1,1.44-.45ZM61,459.59v-.95h.59v.95Zm0,5.15v-.95h.59v.95Zm1.64,1.07,3.57-10h.45l-3.56,10Zm3.13,0,3.57-10h.45l-3.56,10ZM76,464.74l-1-3-.85-2.71h0l-.85,2.71-1,3h-.63l-1.92-6.1h.45l.89,2.82.88,2.86h0l.9-2.85.87-2.83h.68l.87,2.83.9,2.85h0l.88-2.86.89-2.82h.45l-1.92,6.1Zm8.93,0-.95-3-.85-2.71h0l-.86,2.71-.94,3h-.63l-1.92-6.1h.45l.88,2.82.89,2.86h0l.9-2.85.87-2.83h.67l.88,2.83.9,2.85h0l.89-2.86.89-2.82h.44l-1.92,6.1Zm8.93,0-1-3-.85-2.71h0l-.85,2.71-.95,3h-.62l-1.92-6.1h.44l.89,2.82.89,2.86h0l.9-2.85.88-2.83h.67l.88,2.83.9,2.85h0l.89-2.86.89-2.82h.44l-1.92,6.1Zm2.9,0v-.95h.59v.95Zm4-6.23a2.18,2.18,0,0,1,1.59.55,2.09,2.09,0,0,1,.59,1.54h-.45a1.68,1.68,0,0,0-.45-1.25,1.75,1.75,0,0,0-1.28-.44,1.83,1.83,0,0,0-1.13.33,1.05,1.05,0,0,0-.44.89,1,1,0,0,0,.18.62,1.12,1.12,0,0,0,.5.35,9.22,9.22,0,0,0,1,.27,8.93,8.93,0,0,1,1.26.36,1.75,1.75,0,0,1,.74.51,1.45,1.45,0,0,1,.27.93,1.51,1.51,0,0,1-.6,1.23,2.82,2.82,0,0,1-3.27-.11,2.18,2.18,0,0,1-.62-1.63h.43a1.77,1.77,0,0,0,.5,1.34,2,2,0,0,0,1.42.47,2,2,0,0,0,1.22-.35,1.11,1.11,0,0,0,.48-.93,1.07,1.07,0,0,0-.19-.69,1.46,1.46,0,0,0-.59-.4,9.37,9.37,0,0,0-1.17-.33,6.86,6.86,0,0,1-1.09-.31A1.45,1.45,0,0,1,99,461a1.34,1.34,0,0,1-.24-.85,1.46,1.46,0,0,1,.56-1.19,2.25,2.25,0,0,1,1.44-.45Zm5.54,0a2.18,2.18,0,0,1,1.59.55,2.09,2.09,0,0,1,.58,1.54H108a1.68,1.68,0,0,0-.45-1.25,1.74,1.74,0,0,0-1.27-.44,1.84,1.84,0,0,0-1.14.33,1.05,1.05,0,0,0-.44.89,1,1,0,0,0,.18.62,1.12,1.12,0,0,0,.5.35,9.22,9.22,0,0,0,1,.27,9.13,9.13,0,0,1,1.27.36,1.78,1.78,0,0,1,.73.51,1.45,1.45,0,0,1,.27.93,1.51,1.51,0,0,1-.6,1.23,2.82,2.82,0,0,1-3.27-.11,2.22,2.22,0,0,1-.62-1.63h.43a1.74,1.74,0,0,0,.51,1.34,1.94,1.94,0,0,0,1.41.47,2,2,0,0,0,1.23-.35,1.11,1.11,0,0,0,.48-.93,1.07,1.07,0,0,0-.2-.69,1.4,1.4,0,0,0-.59-.4,9.37,9.37,0,0,0-1.17-.33,6.86,6.86,0,0,1-1.09-.31,1.51,1.51,0,0,1-.64-.46,1.34,1.34,0,0,1-.24-.85,1.45,1.45,0,0,1,.57-1.19,2.21,2.21,0,0,1,1.44-.45Zm4.38,1.43a2.07,2.07,0,0,1,.77-1.05,2.13,2.13,0,0,1,1.25-.38,2.27,2.27,0,0,1,1.87.85,4.26,4.26,0,0,1,0,4.65,2.3,2.3,0,0,1-1.87.85,2.13,2.13,0,0,1-1.25-.38,2.07,2.07,0,0,1-.77-1.05h0v1.31h-.43v-8.55h.43v3.75Zm2-1.05a1.72,1.72,0,0,0-1.47.75,3.39,3.39,0,0,0-.55,2.05,3.33,3.33,0,0,0,.55,2,1.72,1.72,0,0,0,1.47.75,1.87,1.87,0,0,0,1.57-.75,3.2,3.2,0,0,0,.59-2,3.27,3.27,0,0,0-.59-2.05,1.87,1.87,0,0,0-1.57-.75Zm3.9,5.85v-.95h.58v.95Zm4.81-6.22a2,2,0,0,1,1.57.63,2.78,2.78,0,0,1,.55,1.88v3.71h-.43V461q0-2.13-1.74-2.13a2,2,0,0,0-1,.25,1.87,1.87,0,0,0-.71.74,2.23,2.23,0,0,0-.27,1.11v3.73h-.43v-6.1h.43v1.09h0a2,2,0,0,1,.79-.88,2.26,2.26,0,0,1,1.2-.33Zm6.32,0a2.41,2.41,0,0,1,2,.85,4.13,4.13,0,0,1,0,4.66,2.67,2.67,0,0,1-3.91,0,4.18,4.18,0,0,1,0-4.66,2.39,2.39,0,0,1,2-.85Zm0,.4a2,2,0,0,0-1.63.73,3.86,3.86,0,0,0,0,4.1,2,2,0,0,0,1.63.73,2,2,0,0,0,1.65-.73,3.91,3.91,0,0,0,0-4.1,2,2,0,0,0-1.65-.73Zm3.6,6.9,3.57-10h.45l-3.56,10Zm6.23-.54a1.91,1.91,0,0,1-.37,1.32,1.61,1.61,0,0,1-1.37.37v-.4l.28,0a1,1,0,0,0,.77-.3,1.56,1.56,0,0,0,.26-1v-6.63h.43v6.63Zm-.43-8.1v-1h.43v1Zm4.7,1.34a2.41,2.41,0,0,1,2,.85,4.13,4.13,0,0,1,0,4.66,2.67,2.67,0,0,1-3.91,0,4.18,4.18,0,0,1,0-4.66,2.39,2.39,0,0,1,1.95-.85Zm0,.4a2,2,0,0,0-1.63.73,3.86,3.86,0,0,0,0,4.1,2,2,0,0,0,1.63.73,2,2,0,0,0,1.65-.73,3.91,3.91,0,0,0,0-4.1,2,2,0,0,0-1.65-.73Zm6.7-.3a2,2,0,0,1,.36,0v.42l-.35,0a1.85,1.85,0,0,0-1.45.59,2.53,2.53,0,0,0-.53,1.72v3.39h-.43v-6.1h.43v1.19h0a2.17,2.17,0,0,1,.78-.91,2.14,2.14,0,0,1,1.18-.31Zm5.35,6.13v-1.31h0a2.09,2.09,0,0,1-2,1.43,2.3,2.3,0,0,1-1.87-.85,4.26,4.26,0,0,1,0-4.65,2.27,2.27,0,0,1,1.87-.85,2.09,2.09,0,0,1,2,1.43h0v-3.75h.43v8.55Zm-2-5.85a1.89,1.89,0,0,0-1.58.75,3.33,3.33,0,0,0-.57,2.05,3.26,3.26,0,0,0,.57,2,1.89,1.89,0,0,0,1.58.75,1.75,1.75,0,0,0,1.48-.75,3.4,3.4,0,0,0,.54-2,3.46,3.46,0,0,0-.54-2.05,1.75,1.75,0,0,0-1.48-.75Zm3.85,2.56V461h2.65v.43Zm5.66-2.94a2.18,2.18,0,0,1,1.59.55,2.05,2.05,0,0,1,.58,1.54h-.44a1.65,1.65,0,0,0-.46-1.25,1.71,1.71,0,0,0-1.27-.44,1.83,1.83,0,0,0-1.13.33,1.05,1.05,0,0,0-.44.89,1,1,0,0,0,.17.62,1.22,1.22,0,0,0,.51.35,8.58,8.58,0,0,0,1,.27,9.34,9.34,0,0,1,1.26.36,1.72,1.72,0,0,1,.73.51,1.45,1.45,0,0,1,.27.93,1.5,1.5,0,0,1-.59,1.23,2.44,2.44,0,0,1-1.54.47,2.4,2.4,0,0,1-1.73-.58,2.14,2.14,0,0,1-.62-1.63h.43a1.77,1.77,0,0,0,.5,1.34,2.34,2.34,0,0,0,2.64.12,1.11,1.11,0,0,0,.48-.93,1,1,0,0,0-.2-.69,1.42,1.42,0,0,0-.58-.4,9.37,9.37,0,0,0-1.17-.33,6.86,6.86,0,0,1-1.09-.31,1.45,1.45,0,0,1-.64-.46,1.34,1.34,0,0,1-.24-.85,1.46,1.46,0,0,1,.56-1.19,2.25,2.25,0,0,1,1.44-.45Zm7.8,6.23-3.42-3.22h0v3.22h-.43v-8.55h.43v5.09h0l3.07-2.64h.63l-3.23,2.75,3.58,3.35Zm3.54-6.23a2.41,2.41,0,0,1,2,.85,4.13,4.13,0,0,1,0,4.66,2.67,2.67,0,0,1-3.91,0,4.18,4.18,0,0,1,0-4.66,2.39,2.39,0,0,1,1.95-.85Zm0,.4a2,2,0,0,0-1.63.73,3.86,3.86,0,0,0,0,4.1,2,2,0,0,0,1.63.73,2,2,0,0,0,1.65-.73,3.91,3.91,0,0,0,0-4.1,2,2,0,0,0-1.65-.73Zm6.49-.4a2,2,0,0,1,1.22.37,2.27,2.27,0,0,1,.8,1.05h0v-1.29h.43v5.73a2.85,2.85,0,0,1-.61,2,2.43,2.43,0,0,1-1.85.67,2.59,2.59,0,0,1-1.7-.51,1.67,1.67,0,0,1-.62-1.39h.43a1.35,1.35,0,0,0,.52,1.12,2.21,2.21,0,0,0,1.37.39,1.92,1.92,0,0,0,1.53-.56,2.56,2.56,0,0,0,.5-1.72v-1.1h0a2.27,2.27,0,0,1-.8,1.05,2.1,2.1,0,0,1-1.22.37,2.31,2.31,0,0,1-1.87-.83,4,4,0,0,1,0-4.5,2.31,2.31,0,0,1,1.87-.83Zm0,.38a1.88,1.88,0,0,0-1.55.73,3.69,3.69,0,0,0,0,3.94,1.88,1.88,0,0,0,1.55.72,1.8,1.8,0,0,0,1.51-.72,3.82,3.82,0,0,0,0-3.95,1.8,1.8,0,0,0-1.51-.72Zm3.88,2.56V461h2.65v.43Zm4.61,3.82a2,2,0,0,1-.37,1.32,1.61,1.61,0,0,1-1.37.37v-.4l.27,0a1,1,0,0,0,.78-.3,1.56,1.56,0,0,0,.26-1v-6.63h.43v6.63Zm-.43-8.1v-1h.43v1Zm4.46,1.34a2.14,2.14,0,0,1,1.56.56,2.33,2.33,0,0,1,.58,1.71v2.53a7.06,7.06,0,0,0,.12,1.43h-.41a5.73,5.73,0,0,1-.1-1.15h0a2.3,2.3,0,0,1-.87.93,2.54,2.54,0,0,1-1.36.34,2.17,2.17,0,0,1-1.47-.48,1.57,1.57,0,0,1-.55-1.24,1.51,1.51,0,0,1,.51-1.19,3.38,3.38,0,0,1,1.69-.62c.77-.11,1.44-.19,2-.24v-.35a1.87,1.87,0,0,0-.47-1.39,1.7,1.7,0,0,0-1.25-.46,1.83,1.83,0,0,0-1.3.44,1.63,1.63,0,0,0-.51,1.15h-.45a2.07,2.07,0,0,1,.65-1.44,2.33,2.33,0,0,1,1.61-.53Zm1.72,3q-1,.09-2,.24a2.93,2.93,0,0,0-1.4.49,1.16,1.16,0,0,0-.4.93,1.2,1.2,0,0,0,.44,1,1.87,1.87,0,0,0,1.2.36,2.31,2.31,0,0,0,.89-.16,1.83,1.83,0,0,0,.66-.46,2.08,2.08,0,0,0,.46-.72,3.32,3.32,0,0,0,.13-1v-.64Zm6.31,3.27-3.42-3.22h0v3.22h-.44v-8.55h.44v5.09h0l3.07-2.64H200l-3.22,2.75,3.57,3.35Zm3.18-.37a1.86,1.86,0,0,0,.42-.05v.39a1.93,1.93,0,0,1-.47.05,1.19,1.19,0,0,1-1-.35,1.74,1.74,0,0,1-.3-1.15V459h-1.14v-.39h1.14v-1.4H202v1.4h1.25V459H202v4.23a1.39,1.39,0,0,0,.2.85.85.85,0,0,0,.69.26Zm1.15-2.92V461h2.65v.43Zm6.48-2.94a2.42,2.42,0,0,1,2,.85,4.18,4.18,0,0,1,0,4.66,2.68,2.68,0,0,1-3.92,0,4.18,4.18,0,0,1,0-4.66,2.41,2.41,0,0,1,2-.85Zm0,.4a2,2,0,0,0-1.63.73,3.86,3.86,0,0,0,0,4.1,2.2,2.2,0,0,0,3.27,0,3.86,3.86,0,0,0,0-4.1,2,2,0,0,0-1.64-.73Zm6.49-.4a2,2,0,0,1,1.22.37,2.27,2.27,0,0,1,.8,1.05h0v-1.29h.43v5.73a2.85,2.85,0,0,1-.62,2A2.4,2.4,0,0,1,217,467a2.59,2.59,0,0,1-1.7-.51,1.68,1.68,0,0,1-.63-1.39h.43a1.39,1.39,0,0,0,.53,1.12,2.19,2.19,0,0,0,1.37.39,1.92,1.92,0,0,0,1.53-.56,2.56,2.56,0,0,0,.5-1.72v-1.1h0a2.27,2.27,0,0,1-.8,1.05,2.12,2.12,0,0,1-1.22.37,2.33,2.33,0,0,1-1.88-.83,4,4,0,0,1,0-4.5,2.33,2.33,0,0,1,1.88-.83Zm0,.38a1.87,1.87,0,0,0-1.55.73,3.69,3.69,0,0,0,0,3.94,1.86,1.86,0,0,0,1.55.72,1.8,1.8,0,0,0,1.51-.72,3.88,3.88,0,0,0,0-3.95,1.8,1.8,0,0,0-1.51-.72Zm3.88,2.56V461h2.65v.43Zm4.32-3.77c0-1,.44-1.52,1.32-1.52a2.06,2.06,0,0,1,.39,0v.4a1.34,1.34,0,0,0-.35,0,.86.86,0,0,0-.7.28,1.39,1.39,0,0,0-.23.9v.92h1.27V459h-1.27v5.71h-.43V459H224.1v-.39h1.13v-1Zm3.38-.51h-.43v-1h.43Zm0,1.47v6.1h-.43v-6.1Zm3.7-.13a2.18,2.18,0,0,1,1.59.55,2.09,2.09,0,0,1,.58,1.54H234a1.68,1.68,0,0,0-.45-1.25,1.74,1.74,0,0,0-1.27-.44,1.84,1.84,0,0,0-1.14.33,1.05,1.05,0,0,0-.44.89,1,1,0,0,0,.18.62,1.12,1.12,0,0,0,.5.35,9.22,9.22,0,0,0,1,.27,9.13,9.13,0,0,1,1.27.36,1.78,1.78,0,0,1,.73.51,1.45,1.45,0,0,1,.27.93,1.51,1.51,0,0,1-.6,1.23,2.82,2.82,0,0,1-3.27-.11,2.22,2.22,0,0,1-.62-1.63h.43a1.74,1.74,0,0,0,.51,1.34,1.94,1.94,0,0,0,1.41.47,2,2,0,0,0,1.23-.35,1.11,1.11,0,0,0,.48-.93,1.07,1.07,0,0,0-.2-.69,1.4,1.4,0,0,0-.59-.4,9.37,9.37,0,0,0-1.17-.33,6.86,6.86,0,0,1-1.09-.31,1.51,1.51,0,0,1-.64-.46,1.34,1.34,0,0,1-.24-.85,1.45,1.45,0,0,1,.57-1.19,2.21,2.21,0,0,1,1.44-.45Zm7.8,6.23-3.42-3.22h0v3.22h-.43v-8.55h.43v5.09h0l3.07-2.64h.62l-3.23,2.75,3.58,3.35Zm3.55-.25a2.07,2.07,0,0,0,1.33-.42,1.75,1.75,0,0,0,.66-1.13h.45a2.21,2.21,0,0,1-.79,1.39,2.48,2.48,0,0,1-1.65.54,2.52,2.52,0,0,1-1.43-.4,2.61,2.61,0,0,1-.93-1.15,4.52,4.52,0,0,1-.32-1.75,3.81,3.81,0,0,1,.32-1.6,2.52,2.52,0,0,1,.9-1.08,2.55,2.55,0,0,1,1.38-.38,2.45,2.45,0,0,1,1.67.59,2.7,2.7,0,0,1,.84,1.61,5.38,5.38,0,0,1,.07,1h-4.75a3.09,3.09,0,0,0,.63,2,2,2,0,0,0,1.62.74Zm-.08-5.6a2,2,0,0,0-1.54.67,2.78,2.78,0,0,0-.63,1.78h4.33a2.69,2.69,0,0,0-.62-1.8,2,2,0,0,0-1.54-.65Zm6.6-.28a2,2,0,0,1,.36,0v.42l-.34,0a1.88,1.88,0,0,0-1.46.59,2.53,2.53,0,0,0-.52,1.72v3.39h-.44v-6.1h.44v1.19h0a2,2,0,0,1,2-1.22Zm1.58-1.44v-1h.43v1Zm0,7.57v-6.1h.43v6.1Zm1.83,1.07,3.57-10h.45l-3.56,10Zm6.33-7.3a2.18,2.18,0,0,1,1.59.55,2.09,2.09,0,0,1,.58,1.54h-.45a1.68,1.68,0,0,0-.45-1.25,1.74,1.74,0,0,0-1.27-.44,1.84,1.84,0,0,0-1.14.33,1.05,1.05,0,0,0-.44.89,1,1,0,0,0,.18.62,1.12,1.12,0,0,0,.5.35,9.22,9.22,0,0,0,1,.27,9.13,9.13,0,0,1,1.27.36,1.78,1.78,0,0,1,.73.51,1.45,1.45,0,0,1,.27.93,1.51,1.51,0,0,1-.6,1.23,2.82,2.82,0,0,1-3.27-.11,2.22,2.22,0,0,1-.62-1.63h.43a1.74,1.74,0,0,0,.51,1.34,1.94,1.94,0,0,0,1.41.47,2,2,0,0,0,1.23-.35,1.11,1.11,0,0,0,.48-.93,1.07,1.07,0,0,0-.2-.69,1.4,1.4,0,0,0-.59-.4,9.37,9.37,0,0,0-1.17-.33,6.86,6.86,0,0,1-1.09-.31,1.51,1.51,0,0,1-.64-.46,1.34,1.34,0,0,1-.24-.85,1.45,1.45,0,0,1,.57-1.19,2.21,2.21,0,0,1,1.44-.45Zm5.49,5.86a1.86,1.86,0,0,0,.42-.05v.39a1.88,1.88,0,0,1-.47.05,1.2,1.2,0,0,1-1-.35,1.74,1.74,0,0,1-.3-1.15V459H263v-.39h1.14v-1.4h.43v1.4h1.25V459h-1.25v4.23a1.32,1.32,0,0,0,.21.85.81.81,0,0,0,.68.26Zm3.78-5.86a2.14,2.14,0,0,1,1.56.56,2.28,2.28,0,0,1,.58,1.71v2.53a7.06,7.06,0,0,0,.12,1.43H271a6.57,6.57,0,0,1-.1-1.15h0a2.3,2.3,0,0,1-.87.93,2.52,2.52,0,0,1-1.36.34,2.12,2.12,0,0,1-1.46-.48,1.55,1.55,0,0,1-.56-1.24,1.51,1.51,0,0,1,.51-1.19,3.38,3.38,0,0,1,1.69-.62c.77-.11,1.44-.19,2-.24v-.35a1.91,1.91,0,0,0-.46-1.39,1.74,1.74,0,0,0-1.26-.46,1.83,1.83,0,0,0-1.3.44,1.63,1.63,0,0,0-.51,1.15h-.44a2.06,2.06,0,0,1,.64-1.44,2.35,2.35,0,0,1,1.61-.53Zm1.72,3q-1,.09-2,.24a2.84,2.84,0,0,0-1.39.49,1.13,1.13,0,0,0-.41.93,1.23,1.23,0,0,0,.44,1,1.87,1.87,0,0,0,1.2.36,2.28,2.28,0,0,0,.89-.16,1.83,1.83,0,0,0,.66-.46,2.08,2.08,0,0,0,.46-.72,3,3,0,0,0,.13-1v-.64Zm3.89,2.9a1.86,1.86,0,0,0,.42-.05v.39a1.93,1.93,0,0,1-.47.05,1.19,1.19,0,0,1-1-.35,1.74,1.74,0,0,1-.3-1.15V459h-1.14v-.39h1.14v-1.4h.43v1.4h1.25V459h-1.25v4.23a1.39,1.39,0,0,0,.2.85.85.85,0,0,0,.69.26Zm1.84-7.2v-1h.44v1Zm0,7.57v-6.1h.44v6.1Zm4.13-6.23a2.18,2.18,0,0,1,1.59.55,2.05,2.05,0,0,1,.58,1.54h-.44a1.65,1.65,0,0,0-.46-1.25,1.71,1.71,0,0,0-1.27-.44,1.83,1.83,0,0,0-1.13.33,1.05,1.05,0,0,0-.44.89,1,1,0,0,0,.17.62,1.22,1.22,0,0,0,.51.35,8.58,8.58,0,0,0,1,.27,9.34,9.34,0,0,1,1.26.36,1.72,1.72,0,0,1,.73.51,1.45,1.45,0,0,1,.27.93,1.5,1.5,0,0,1-.59,1.23,2.44,2.44,0,0,1-1.54.47,2.4,2.4,0,0,1-1.73-.58,2.14,2.14,0,0,1-.62-1.63h.43a1.77,1.77,0,0,0,.5,1.34,2.34,2.34,0,0,0,2.64.12,1.11,1.11,0,0,0,.48-.93,1,1,0,0,0-.2-.69,1.36,1.36,0,0,0-.58-.4,9.37,9.37,0,0,0-1.17-.33,6.86,6.86,0,0,1-1.09-.31A1.45,1.45,0,0,1,279,461a1.34,1.34,0,0,1-.24-.85,1.46,1.46,0,0,1,.56-1.19,2.25,2.25,0,0,1,1.44-.45Zm5.5,5.86a1.86,1.86,0,0,0,.42-.05v.39a1.93,1.93,0,0,1-.47.05,1.19,1.19,0,0,1-1-.35,1.74,1.74,0,0,1-.3-1.15V459h-1.14v-.39H285v-1.4h.43v1.4h1.25V459h-1.25v4.23a1.39,1.39,0,0,0,.2.85.85.85,0,0,0,.69.26Zm1.85-7.2v-1h.43v1Zm0,7.57v-6.1h.43v6.1Zm6.39,0-3.42-3.22h0v3.22h-.43v-8.55h.43v5.09h0l3.07-2.64h.63l-3.23,2.75,3.58,3.35Zm5.37,0-3.42-3.22h0v3.22H296v-8.55h.43v5.09h0l3.07-2.64h.62l-3.23,2.75,3.58,3.35Zm3.55-.25a2.12,2.12,0,0,0,1.34-.42,1.78,1.78,0,0,0,.65-1.13h.46a2.22,2.22,0,0,1-.8,1.39,2.56,2.56,0,0,1-4-1,4.34,4.34,0,0,1-.33-1.75,3.81,3.81,0,0,1,.32-1.6,2.48,2.48,0,0,1,.91-1.08,2.5,2.5,0,0,1,1.38-.38,2.44,2.44,0,0,1,1.66.59,2.7,2.7,0,0,1,.84,1.61,5.23,5.23,0,0,1,.08,1h-4.76a3.09,3.09,0,0,0,.63,2,2,2,0,0,0,1.62.74Zm-.07-5.6a2,2,0,0,0-1.55.67,2.83,2.83,0,0,0-.63,1.78h4.34a2.75,2.75,0,0,0-.63-1.8,2,2,0,0,0-1.53-.65Zm6.6-.28.36,0v.42l-.35,0a1.85,1.85,0,0,0-1.45.59,2.48,2.48,0,0,0-.53,1.72v3.39h-.43v-6.1H308v1.19h0a2.15,2.15,0,0,1,.77-.91,2.2,2.2,0,0,1,1.19-.31Zm.87,7.2,3.57-10h.45l-3.56,10Zm6.33-7.3a2.18,2.18,0,0,1,1.59.55,2.09,2.09,0,0,1,.58,1.54h-.45a1.68,1.68,0,0,0-.45-1.25,1.74,1.74,0,0,0-1.27-.44,1.84,1.84,0,0,0-1.14.33,1.05,1.05,0,0,0-.44.89,1,1,0,0,0,.18.62,1.12,1.12,0,0,0,.5.35,9.22,9.22,0,0,0,1,.27,9.13,9.13,0,0,1,1.27.36,1.78,1.78,0,0,1,.73.51,1.45,1.45,0,0,1,.27.93,1.51,1.51,0,0,1-.6,1.23,2.82,2.82,0,0,1-3.27-.11,2.22,2.22,0,0,1-.62-1.63h.43A1.74,1.74,0,0,0,316,464a1.94,1.94,0,0,0,1.41.47,2,2,0,0,0,1.23-.35,1.11,1.11,0,0,0,.48-.93,1.07,1.07,0,0,0-.2-.69,1.4,1.4,0,0,0-.59-.4,9.37,9.37,0,0,0-1.17-.33,6.86,6.86,0,0,1-1.09-.31,1.51,1.51,0,0,1-.64-.46,1.34,1.34,0,0,1-.24-.85,1.45,1.45,0,0,1,.57-1.19,2.21,2.21,0,0,1,1.44-.45Zm5.49,5.86a1.86,1.86,0,0,0,.42-.05v.39a1.88,1.88,0,0,1-.47.05,1.2,1.2,0,0,1-1-.35,1.74,1.74,0,0,1-.3-1.15V459h-1.14v-.39h1.14v-1.4h.43v1.4H323V459h-1.25v4.23a1.32,1.32,0,0,0,.21.85.81.81,0,0,0,.68.26Zm3.45-5.86a2.18,2.18,0,0,1,1.59.55,2.09,2.09,0,0,1,.58,1.54h-.45a1.68,1.68,0,0,0-.45-1.25,1.74,1.74,0,0,0-1.27-.44,1.84,1.84,0,0,0-1.14.33,1.05,1.05,0,0,0-.44.89,1,1,0,0,0,.18.62,1.12,1.12,0,0,0,.5.35,9.22,9.22,0,0,0,1,.27,9.13,9.13,0,0,1,1.27.36,1.78,1.78,0,0,1,.73.51,1.45,1.45,0,0,1,.27.93,1.51,1.51,0,0,1-.6,1.23,2.82,2.82,0,0,1-3.27-.11,2.22,2.22,0,0,1-.62-1.63h.43a1.74,1.74,0,0,0,.51,1.34,1.94,1.94,0,0,0,1.41.47,2,2,0,0,0,1.23-.35,1.11,1.11,0,0,0,.48-.93,1.07,1.07,0,0,0-.2-.69,1.4,1.4,0,0,0-.59-.4,9.37,9.37,0,0,0-1.17-.33,6.86,6.86,0,0,1-1.09-.31,1.51,1.51,0,0,1-.64-.46,1.34,1.34,0,0,1-.24-.85,1.45,1.45,0,0,1,.57-1.19,2.21,2.21,0,0,1,1.44-.45Zm7.8,6.23-3.42-3.22h0v3.22H330v-8.55h.43v5.09h0l3.07-2.64h.62l-3.23,2.75,3.58,3.35Zm3.54-6.23a2.42,2.42,0,0,1,2,.85,4.18,4.18,0,0,1,0,4.66,2.42,2.42,0,0,1-2,.85,2.39,2.39,0,0,1-2-.85,4.18,4.18,0,0,1,0-4.66,2.39,2.39,0,0,1,2-.85Zm0,.4a2,2,0,0,0-1.64.73,3.91,3.91,0,0,0,0,4.1,2.21,2.21,0,0,0,3.28,0,3.86,3.86,0,0,0,0-4.1,2,2,0,0,0-1.64-.73Zm6.49-.4a2,2,0,0,1,1.22.37,2.26,2.26,0,0,1,.79,1.05h0v-1.29h.43v5.73a2.85,2.85,0,0,1-.62,2,2.41,2.41,0,0,1-1.84.67,2.64,2.64,0,0,1-1.71-.51,1.7,1.7,0,0,1-.62-1.39H342a1.38,1.38,0,0,0,.52,1.12,2.22,2.22,0,0,0,1.38.39,1.92,1.92,0,0,0,1.53-.56,2.56,2.56,0,0,0,.5-1.72v-1.1h0a2.26,2.26,0,0,1-.79,1.05,2.12,2.12,0,0,1-1.22.37,2.33,2.33,0,0,1-1.88-.83,4,4,0,0,1,0-4.5,2.33,2.33,0,0,1,1.88-.83Zm0,.38a1.89,1.89,0,0,0-1.56.73,3.69,3.69,0,0,0,0,3.94,1.88,1.88,0,0,0,1.56.72,1.77,1.77,0,0,0,1.5-.72,3.82,3.82,0,0,0,0-3.95,1.77,1.77,0,0,0-1.5-.72Z"/><text transform="translate(28.35 479.14)" font-size="12" font-family="NeueHaasUnicaW06-Thin" font-weight="200"><tspan letter-spacing="0.23em">-</tspan><tspan x="6.13" y="0" letter-spacing="-0.01em">h</tspan><tspan x="12.55" y="0">ttp</tspan><tspan x="26.02" y="0" letter-spacing="0.03em">s</tspan><tspan x="31.86" y="0" letter-spacing="0em">:</tspan><tspan x="33.89" y="0" letter-spacing="-0.16em">/</tspan><tspan x="37.02" y="0" letter-spacing="-0.05em">/</tspan><tspan x="41.42" y="0">ww</tspan><tspan x="59.28" y="0" letter-spacing="-0.04em">w</tspan><tspan x="67.74" y="0" letter-spacing="0em">.s</tspan><tspan x="75.32" y="0" letter-spacing="-0.02em">k</tspan><tspan x="80.57" y="0" letter-spacing="0.01em">o</tspan><tspan x="87.15" y="0">gbru</tspan><tspan x="111.01" y="0" letter-spacing="0.02em">k</tspan><tspan x="116.7" y="0">.nibio.no/200-s</tspan><tspan x="191.6" y="0" letter-spacing="-0.02em">k</tspan><tspan x="196.83" y="0" letter-spacing="0.01em">o</tspan><tspan x="203.42" y="0">g</tspan><tspan x="210.07" y="0" letter-spacing="0.02em">-</tspan><tspan x="213.67" y="0" letter-spacing="0.01em">o</tspan><tspan x="220.26" y="0">g-lands</tspan><tspan x="257.67" y="0" letter-spacing="-0.01em">k</tspan><tspan x="263.05" y="0">a</tspan><tspan x="269.14" y="0" letter-spacing="0.02em">p</tspan><tspan x="276.02" y="0">-s</tspan><tspan x="284.92" y="0" letter-spacing="-0.02em">k</tspan><tspan x="290.17" y="0" letter-spacing="0.01em">o</tspan><tspan x="296.75" y="0" letter-spacing="0em">geiendommer-</tspan><tspan x="371.74" y="0" letter-spacing="-0.01em">s</tspan><tspan x="377.13" y="0" letter-spacing="-0.01em">y</tspan><tspan x="382.31" y="0">s</tspan></text><text transform="translate(416.15 479.14)" font-size="12" font-family="NeueHaasUnicaW06-Thin" font-weight="200">-</text><text transform="translate(28.35 493.54)" font-size="12" font-family="NeueHaasUnicaW06-Thin" font-weight="200"><tspan letter-spacing="0.01em">s</tspan><tspan x="5.64" y="0" letter-spacing="0em">el</tspan><tspan x="14.48" y="0" letter-spacing="0.01em">s</tspan><tspan x="20.12" y="0" letter-spacing="-0.01em">e</tspan><tspan x="26.34" y="0">tting-</tspan><tspan x="52.29" y="0" letter-spacing="-0.02em">k</tspan><tspan x="57.53" y="0">om</tspan><tspan x="73.91" y="0" letter-spacing="0.01em">p</tspan><tspan x="80.67" y="0" letter-spacing="-0.01em">e</tspan><tspan x="86.89" y="0" letter-spacing="0em">tan</tspan><tspan x="102.98" y="0" letter-spacing="0.01em">s</tspan><tspan x="108.61" y="0" letter-spacing="0.02em">e-</tspan><tspan x="118.77" y="0" letter-spacing="0.01em">o</tspan><tspan x="125.36" y="0" letter-spacing="0em">g-fritid-s</tspan><tspan x="166.58" y="0" letter-spacing="-0.02em">k</tspan><tspan x="171.81" y="0" letter-spacing="0.01em">o</tspan><tspan x="178.4" y="0" letter-spacing="0em">geiendommer</tspan></text><text transform="translate(28.35 507.94)" font-size="12" font-family="NeueHaasUnicaW06-Thin" font-weight="200"><tspan letter-spacing="0.23em">-</tspan><tspan x="6.13" y="0" letter-spacing="-0.01em">h</tspan><tspan x="12.55" y="0">ttp</tspan><tspan x="26.02" y="0" letter-spacing="0.03em">s</tspan><tspan x="31.86" y="0" letter-spacing="0em">:</tspan><tspan x="33.89" y="0" letter-spacing="-0.16em">/</tspan><tspan x="37.02" y="0" letter-spacing="-0.07em">/</tspan><tspan x="41.18" y="0" letter-spacing="0em">no</tspan><tspan x="54.24" y="0" letter-spacing="-0.04em">.</tspan><tspan x="55.82" y="0">wi</tspan><tspan x="67.28" y="0" letter-spacing="-0.01em">k</tspan><tspan x="72.66" y="0">i</tspan><tspan x="75.19" y="0" letter-spacing="0.01em">p</tspan><tspan x="81.96" y="0" letter-spacing="0.01em">e</tspan><tspan x="88.38" y="0" letter-spacing="0em">dia.o</tspan><tspan x="112.17" y="0" letter-spacing="-0.03em">r</tspan><tspan x="115.83" y="0" letter-spacing="0em">g</tspan><tspan x="122.48" y="0" letter-spacing="-0.05em">/</tspan><tspan x="126.88" y="0">wi</tspan><tspan x="138.34" y="0" letter-spacing="-0.01em">k</tspan><tspan x="143.72" y="0">i/S</tspan><tspan x="158.28" y="0" letter-spacing="-0.02em">k</tspan><tspan x="163.51" y="0" letter-spacing="0.01em">o</tspan><tspan x="170.1" y="0">gbruk_i_No</tspan><tspan x="229.2" y="0" letter-spacing="-0.03em">r</tspan><tspan x="232.86" y="0">ge</tspan></text><path d="M28.71,519.05v-.43h2.65v.43ZM36,517.33a2.08,2.08,0,0,1,.82-.89,2.29,2.29,0,0,1,1.17-.32,2,2,0,0,1,1.57.63,2.78,2.78,0,0,1,.55,1.88v3.71h-.43v-3.7q0-2.13-1.74-2.13a1.85,1.85,0,0,0-1.69,1,2.22,2.22,0,0,0-.26,1.11v3.73h-.44v-8.55H36v3.54ZM43.51,522a1.73,1.73,0,0,0,.42-.05v.39a1.85,1.85,0,0,1-.46.05,1.21,1.21,0,0,1-1-.35,1.74,1.74,0,0,1-.3-1.15v-4.23H41.05v-.39h1.14v-1.4h.44v1.4h1.24v.39H42.63v4.23a1.33,1.33,0,0,0,.2.85.83.83,0,0,0,.68.26Zm3.41,0a1.86,1.86,0,0,0,.42-.05v.39a1.88,1.88,0,0,1-.47.05,1.2,1.2,0,0,1-1-.35,1.74,1.74,0,0,1-.3-1.15v-4.23H44.46v-.39H45.6v-1.4H46v1.4h1.25v.39H46v4.23a1.32,1.32,0,0,0,.21.85.81.81,0,0,0,.68.26Zm4.32-5.86a2.27,2.27,0,0,1,1.87.85,4.26,4.26,0,0,1,0,4.65,2.3,2.3,0,0,1-1.87.85,2.09,2.09,0,0,1-2-1.43h0v3.53h-.43v-8.32h.43v1.3h0a2.09,2.09,0,0,1,2-1.43Zm-.05.38a1.74,1.74,0,0,0-1.47.75,3.46,3.46,0,0,0-.54,2,3.4,3.4,0,0,0,.54,2,1.74,1.74,0,0,0,1.47.75,1.89,1.89,0,0,0,1.58-.75,3.2,3.2,0,0,0,.58-2,3.26,3.26,0,0,0-.58-2,1.89,1.89,0,0,0-1.58-.75Zm5.82-.38a2.18,2.18,0,0,1,1.59.55,2.09,2.09,0,0,1,.59,1.54h-.45a1.68,1.68,0,0,0-.45-1.25,1.75,1.75,0,0,0-1.28-.44,1.83,1.83,0,0,0-1.13.33,1.05,1.05,0,0,0-.44.89,1,1,0,0,0,.18.62,1.12,1.12,0,0,0,.5.35,9.22,9.22,0,0,0,1,.27,8.93,8.93,0,0,1,1.26.36,1.75,1.75,0,0,1,.74.51,1.45,1.45,0,0,1,.27.93,1.51,1.51,0,0,1-.6,1.23,2.82,2.82,0,0,1-3.27-.11,2.18,2.18,0,0,1-.62-1.63h.43a1.77,1.77,0,0,0,.5,1.34,2,2,0,0,0,1.42.47,2,2,0,0,0,1.22-.35,1.11,1.11,0,0,0,.48-.93,1.07,1.07,0,0,0-.19-.69,1.46,1.46,0,0,0-.59-.4,9.37,9.37,0,0,0-1.17-.33,6.86,6.86,0,0,1-1.09-.31,1.45,1.45,0,0,1-.64-.46,1.34,1.34,0,0,1-.24-.85,1.46,1.46,0,0,1,.56-1.19,2.25,2.25,0,0,1,1.44-.45ZM61,517.19v-1h.59v1Zm0,5.15v-1h.59v1Zm1.64,1.07,3.57-10h.45l-3.56,10Zm3.13,0,3.57-10h.45l-3.56,10ZM76,522.34l-1-3-.85-2.71h0l-.85,2.71-1,3h-.63l-1.92-6.1h.45l.89,2.82.88,2.86h0l.9-2.85.87-2.83h.68l.87,2.83.9,2.85h0l.88-2.86.89-2.82h.45l-1.92,6.1Zm8.93,0-.95-3-.85-2.71h0l-.86,2.71-.94,3h-.63l-1.92-6.1h.45l.88,2.82.89,2.86h0l.9-2.85.87-2.83h.67l.88,2.83.9,2.85h0l.89-2.86.89-2.82h.44l-1.92,6.1Zm8.93,0-1-3-.85-2.71h0l-.85,2.71-.95,3h-.62l-1.92-6.1h.44l.89,2.82.89,2.86h0l.9-2.85.88-2.83h.67l.88,2.83.9,2.85h0l.89-2.86.89-2.82h.44l-1.92,6.1Zm2.9,0v-1h.59v1Zm4-6.23a2.18,2.18,0,0,1,1.59.55,2.09,2.09,0,0,1,.59,1.54h-.45A1.68,1.68,0,0,0,102,517a1.75,1.75,0,0,0-1.28-.44,1.83,1.83,0,0,0-1.13.33,1.05,1.05,0,0,0-.44.89,1,1,0,0,0,.18.62,1.12,1.12,0,0,0,.5.35,9.22,9.22,0,0,0,1,.27,8.93,8.93,0,0,1,1.26.36,1.75,1.75,0,0,1,.74.51,1.45,1.45,0,0,1,.27.93,1.51,1.51,0,0,1-.6,1.23,2.82,2.82,0,0,1-3.27-.11,2.18,2.18,0,0,1-.62-1.63h.43a1.77,1.77,0,0,0,.5,1.34,2,2,0,0,0,1.42.47,2,2,0,0,0,1.22-.35,1.11,1.11,0,0,0,.48-.93,1.07,1.07,0,0,0-.19-.69,1.46,1.46,0,0,0-.59-.4,9.37,9.37,0,0,0-1.17-.33,6.86,6.86,0,0,1-1.09-.31,1.45,1.45,0,0,1-.64-.46,1.34,1.34,0,0,1-.24-.85,1.46,1.46,0,0,1,.56-1.19,2.25,2.25,0,0,1,1.44-.45Zm5.54,0a2.18,2.18,0,0,1,1.59.55,2.09,2.09,0,0,1,.58,1.54H108a1.68,1.68,0,0,0-.45-1.25,1.74,1.74,0,0,0-1.27-.44,1.84,1.84,0,0,0-1.14.33,1.05,1.05,0,0,0-.44.89,1,1,0,0,0,.18.62,1.12,1.12,0,0,0,.5.35,9.22,9.22,0,0,0,1,.27,9.13,9.13,0,0,1,1.27.36,1.78,1.78,0,0,1,.73.51,1.45,1.45,0,0,1,.27.93,1.51,1.51,0,0,1-.6,1.23,2.82,2.82,0,0,1-3.27-.11,2.22,2.22,0,0,1-.62-1.63h.43a1.74,1.74,0,0,0,.51,1.34,1.94,1.94,0,0,0,1.41.47,2,2,0,0,0,1.23-.35,1.11,1.11,0,0,0,.48-.93,1.07,1.07,0,0,0-.2-.69,1.4,1.4,0,0,0-.59-.4,9.37,9.37,0,0,0-1.17-.33,6.86,6.86,0,0,1-1.09-.31,1.51,1.51,0,0,1-.64-.46,1.34,1.34,0,0,1-.24-.85,1.45,1.45,0,0,1,.57-1.19,2.21,2.21,0,0,1,1.44-.45Zm4.38,1.43a2.07,2.07,0,0,1,.77-1,2.13,2.13,0,0,1,1.25-.38,2.27,2.27,0,0,1,1.87.85,4.26,4.26,0,0,1,0,4.65,2.3,2.3,0,0,1-1.87.85,2.13,2.13,0,0,1-1.25-.38,2.07,2.07,0,0,1-.77-1.05h0v1.31h-.43v-8.55h.43v3.75Zm2-1a1.72,1.72,0,0,0-1.47.75,3.39,3.39,0,0,0-.55,2,3.33,3.33,0,0,0,.55,2,1.72,1.72,0,0,0,1.47.75,1.87,1.87,0,0,0,1.57-.75,3.2,3.2,0,0,0,.59-2,3.27,3.27,0,0,0-.59-2,1.87,1.87,0,0,0-1.57-.75Zm3.9,5.85v-1h.58v1Zm4.81-6.22a2,2,0,0,1,1.57.63,2.78,2.78,0,0,1,.55,1.88v3.71h-.43v-3.7q0-2.13-1.74-2.13a2,2,0,0,0-1,.25,1.87,1.87,0,0,0-.71.74,2.23,2.23,0,0,0-.27,1.11v3.73h-.43v-6.1h.43v1.09h0a2,2,0,0,1,.79-.88,2.26,2.26,0,0,1,1.2-.33Zm6.32,0a2.41,2.41,0,0,1,2,.85,4.13,4.13,0,0,1,0,4.66,2.67,2.67,0,0,1-3.91,0,4.18,4.18,0,0,1,0-4.66,2.39,2.39,0,0,1,2-.85Zm0,.4a2,2,0,0,0-1.63.73,3.86,3.86,0,0,0,0,4.1,2,2,0,0,0,1.63.73,2,2,0,0,0,1.65-.73,3.91,3.91,0,0,0,0-4.1,2,2,0,0,0-1.65-.73Zm3.6,6.9,3.57-10h.45l-3.56,10Zm6.91-1.32a2.08,2.08,0,0,0,1.34-.42,1.75,1.75,0,0,0,.66-1.13h.45a2.21,2.21,0,0,1-.79,1.39,2.77,2.77,0,0,1-3.08.14,2.61,2.61,0,0,1-.93-1.15,4.52,4.52,0,0,1-.32-1.75,3.66,3.66,0,0,1,.32-1.6,2.37,2.37,0,0,1,2.28-1.46,2.41,2.41,0,0,1,1.66.59,2.66,2.66,0,0,1,.85,1.61,5.38,5.38,0,0,1,.07,1H136a3.14,3.14,0,0,0,.62,2,2,2,0,0,0,1.62.74Zm-.07-5.6a2,2,0,0,0-1.55.67,2.83,2.83,0,0,0-.62,1.78h4.33a2.69,2.69,0,0,0-.62-1.8,2,2,0,0,0-1.54-.65Zm6.64-.37a2,2,0,0,1,1.57.63,2.78,2.78,0,0,1,.55,1.88v3.71h-.43v-3.7q0-2.13-1.74-2.13a2,2,0,0,0-1,.25,1.87,1.87,0,0,0-.71.74,2.23,2.23,0,0,0-.27,1.11v3.73h-.43v-6.1h.43v1.09h0a2,2,0,0,1,.79-.88,2.26,2.26,0,0,1,1.2-.33Zm3.45,7.29,3.57-10h.45l-3.56,10Zm6.23-.54a1.91,1.91,0,0,1-.37,1.32,1.61,1.61,0,0,1-1.37.37v-.4l.28,0a1,1,0,0,0,.77-.3,1.56,1.56,0,0,0,.26-1v-6.63h.43v6.63Zm-.43-8.1v-1h.43v1Zm4.7,1.34a2.43,2.43,0,0,1,2,.85,4.18,4.18,0,0,1,0,4.66,2.43,2.43,0,0,1-2,.85,2.39,2.39,0,0,1-1.95-.85,4.18,4.18,0,0,1,0-4.66,2.39,2.39,0,0,1,1.95-.85Zm0,.4a2,2,0,0,0-1.63.73,3.86,3.86,0,0,0,0,4.1,2.21,2.21,0,0,0,3.28,0,3.86,3.86,0,0,0,0-4.1,2,2,0,0,0-1.65-.73Zm6.7-.3a2,2,0,0,1,.36,0v.42l-.35,0a1.86,1.86,0,0,0-1.45.59,2.53,2.53,0,0,0-.53,1.72v3.39H163v-6.1h.43v1.19h0a2.25,2.25,0,0,1,.78-.91,2.14,2.14,0,0,1,1.18-.31Zm5.35,6.13V521h0a2.09,2.09,0,0,1-2,1.43,2.31,2.31,0,0,1-1.87-.85,4.26,4.26,0,0,1,0-4.65,2.28,2.28,0,0,1,1.87-.85,2.09,2.09,0,0,1,2,1.43h0v-3.75h.43v8.55Zm-2-5.85a1.89,1.89,0,0,0-1.58.75,3.33,3.33,0,0,0-.57,2,3.26,3.26,0,0,0,.57,2,1.89,1.89,0,0,0,1.58.75,1.75,1.75,0,0,0,1.48-.75,3.4,3.4,0,0,0,.54-2,3.46,3.46,0,0,0-.54-2,1.75,1.75,0,0,0-1.48-.75Zm3.85,2.56v-.43h2.65v.43Zm5.66-2.94a2.18,2.18,0,0,1,1.59.55,2.09,2.09,0,0,1,.59,1.54H180a1.68,1.68,0,0,0-.45-1.25,1.75,1.75,0,0,0-1.28-.44,1.83,1.83,0,0,0-1.13.33,1.05,1.05,0,0,0-.44.89,1,1,0,0,0,.18.62,1.12,1.12,0,0,0,.5.35,9.22,9.22,0,0,0,1,.27,8.93,8.93,0,0,1,1.26.36,1.75,1.75,0,0,1,.74.51,1.45,1.45,0,0,1,.27.93A1.51,1.51,0,0,1,180,522a2.82,2.82,0,0,1-3.27-.11,2.14,2.14,0,0,1-.62-1.63h.43a1.77,1.77,0,0,0,.5,1.34,2,2,0,0,0,1.42.47,2,2,0,0,0,1.22-.35,1.11,1.11,0,0,0,.48-.93,1.07,1.07,0,0,0-.19-.69,1.46,1.46,0,0,0-.59-.4,9.37,9.37,0,0,0-1.17-.33,6.86,6.86,0,0,1-1.09-.31,1.45,1.45,0,0,1-.64-.46,1.34,1.34,0,0,1-.24-.85,1.46,1.46,0,0,1,.56-1.19,2.25,2.25,0,0,1,1.44-.45Zm7.8,6.23-3.42-3.22h0v3.22h-.43v-8.55h.43v5.09h0l3.08-2.64h.62L183.13,519l3.58,3.35Zm3.54-6.23a2.43,2.43,0,0,1,2,.85,4.18,4.18,0,0,1,0,4.66,2.43,2.43,0,0,1-2,.85,2.39,2.39,0,0,1-2-.85,4.18,4.18,0,0,1,0-4.66,2.39,2.39,0,0,1,2-.85Zm0,.4a2,2,0,0,0-1.63.73,3.86,3.86,0,0,0,0,4.1,2.21,2.21,0,0,0,3.28,0,3.86,3.86,0,0,0,0-4.1,2,2,0,0,0-1.65-.73Zm6.49-.4a2,2,0,0,1,1.22.37,2.21,2.21,0,0,1,.8,1h0v-1.29h.43V522a2.85,2.85,0,0,1-.61,2,2.43,2.43,0,0,1-1.85.67,2.61,2.61,0,0,1-1.7-.51,1.67,1.67,0,0,1-.62-1.39h.43a1.38,1.38,0,0,0,.52,1.12,2.21,2.21,0,0,0,1.37.39,1.92,1.92,0,0,0,1.53-.56,2.51,2.51,0,0,0,.5-1.72v-1.1h0a2.21,2.21,0,0,1-.8,1,2.1,2.1,0,0,1-1.22.37,2.31,2.31,0,0,1-1.87-.83,4,4,0,0,1,0-4.5,2.31,2.31,0,0,1,1.87-.83Zm0,.38a1.88,1.88,0,0,0-1.55.73,3.69,3.69,0,0,0,0,3.94,1.88,1.88,0,0,0,1.55.72,1.79,1.79,0,0,0,1.51-.72,3.82,3.82,0,0,0,0-3.95,1.79,1.79,0,0,0-1.51-.72Zm3.88,2.56v-.43h2.65v.43Zm4.61,3.82a2,2,0,0,1-.37,1.32,1.61,1.61,0,0,1-1.37.37v-.4l.27,0a1,1,0,0,0,.78-.3,1.56,1.56,0,0,0,.26-1v-6.63h.43v6.63Zm-.43-8.1v-1h.43v1Zm4.46,1.34a2.14,2.14,0,0,1,1.56.56,2.33,2.33,0,0,1,.58,1.71v2.53a7.06,7.06,0,0,0,.12,1.43h-.41a5.73,5.73,0,0,1-.1-1.15h0a2.3,2.3,0,0,1-.87.93,2.54,2.54,0,0,1-1.36.34,2.17,2.17,0,0,1-1.47-.48,1.57,1.57,0,0,1-.55-1.24,1.51,1.51,0,0,1,.51-1.19,3.38,3.38,0,0,1,1.69-.62c.77-.11,1.44-.19,2-.24v-.35a1.87,1.87,0,0,0-.47-1.39,1.7,1.7,0,0,0-1.25-.46,1.83,1.83,0,0,0-1.3.44,1.63,1.63,0,0,0-.51,1.15h-.45a2.07,2.07,0,0,1,.65-1.44,2.33,2.33,0,0,1,1.61-.53Zm1.72,3q-1,.09-2,.24a2.93,2.93,0,0,0-1.4.49,1.16,1.16,0,0,0-.4.93,1.2,1.2,0,0,0,.44,1,1.87,1.87,0,0,0,1.2.36,2.31,2.31,0,0,0,.89-.16,1.83,1.83,0,0,0,.66-.46,2.08,2.08,0,0,0,.46-.72,3.32,3.32,0,0,0,.13-1v-.64Zm6.31,3.27-3.42-3.22h0v3.22h-.44v-8.55h.44v5.09h0l3.07-2.64h.62L213.71,519l3.57,3.35Zm3.18-.37a1.86,1.86,0,0,0,.42-.05v.39a1.93,1.93,0,0,1-.47.05,1.19,1.19,0,0,1-1-.35,1.74,1.74,0,0,1-.3-1.15v-4.23h-1.14v-.39h1.14v-1.4H219v1.4h1.25v.39H219v4.23a1.39,1.39,0,0,0,.2.85.85.85,0,0,0,.69.26Zm1.15-2.92v-.43h2.65v.43Zm6.48-2.94a2.41,2.41,0,0,1,2,.85,4.13,4.13,0,0,1,0,4.66,2.68,2.68,0,0,1-3.92,0,4.23,4.23,0,0,1,0-4.66,2.42,2.42,0,0,1,2-.85Zm0,.4a2,2,0,0,0-1.63.73,3.86,3.86,0,0,0,0,4.1,2.2,2.2,0,0,0,3.27,0,3.86,3.86,0,0,0,0-4.1,2,2,0,0,0-1.64-.73Zm6.49-.4a2,2,0,0,1,1.22.37,2.27,2.27,0,0,1,.8,1h0v-1.29h.43V522a2.85,2.85,0,0,1-.62,2,2.4,2.4,0,0,1-1.84.67,2.59,2.59,0,0,1-1.7-.51,1.68,1.68,0,0,1-.63-1.39h.43a1.39,1.39,0,0,0,.53,1.12,2.19,2.19,0,0,0,1.37.39,1.92,1.92,0,0,0,1.53-.56A2.56,2.56,0,0,0,236,522v-1.1h0a2.27,2.27,0,0,1-.8,1,2.12,2.12,0,0,1-1.22.37,2.33,2.33,0,0,1-1.88-.83,4,4,0,0,1,0-4.5,2.33,2.33,0,0,1,1.88-.83Zm0,.38a1.87,1.87,0,0,0-1.55.73,3.69,3.69,0,0,0,0,3.94,1.86,1.86,0,0,0,1.55.72,1.8,1.8,0,0,0,1.51-.72,3.88,3.88,0,0,0,0-3.95,1.8,1.8,0,0,0-1.51-.72Zm3.88,2.56v-.43h2.65v.43Zm4.32-3.77c0-1,.44-1.52,1.32-1.52a2.06,2.06,0,0,1,.39,0v.4a1.27,1.27,0,0,0-.34-.05.87.87,0,0,0-.71.28,1.39,1.39,0,0,0-.23.9v.92h1.27v.39h-1.27v5.71h-.43v-5.71H241v-.39h1.13v-1Zm3.38-.51h-.43v-1h.43Zm0,1.47v6.1h-.43v-6.1Zm3.7-.13a2.18,2.18,0,0,1,1.59.55,2.09,2.09,0,0,1,.58,1.54H251a1.68,1.68,0,0,0-.45-1.25,1.74,1.74,0,0,0-1.27-.44,1.84,1.84,0,0,0-1.14.33,1.05,1.05,0,0,0-.44.89,1,1,0,0,0,.18.62,1.12,1.12,0,0,0,.5.35,9.22,9.22,0,0,0,1,.27,9.13,9.13,0,0,1,1.27.36,1.78,1.78,0,0,1,.73.51,1.45,1.45,0,0,1,.27.93A1.51,1.51,0,0,1,251,522a2.82,2.82,0,0,1-3.27-.11,2.22,2.22,0,0,1-.62-1.63h.43a1.74,1.74,0,0,0,.51,1.34,1.94,1.94,0,0,0,1.41.47,2,2,0,0,0,1.23-.35,1.11,1.11,0,0,0,.48-.93,1.07,1.07,0,0,0-.2-.69,1.4,1.4,0,0,0-.59-.4,9.37,9.37,0,0,0-1.17-.33,6.86,6.86,0,0,1-1.09-.31,1.51,1.51,0,0,1-.64-.46,1.34,1.34,0,0,1-.24-.85,1.45,1.45,0,0,1,.57-1.19,2.21,2.21,0,0,1,1.44-.45Zm7.8,6.23-3.42-3.22h0v3.22h-.43v-8.55h.43v5.09h0l3.07-2.64h.62L254.08,519l3.58,3.35Zm3.55-.25a2.12,2.12,0,0,0,1.34-.42,1.78,1.78,0,0,0,.65-1.13H263a2.25,2.25,0,0,1-.79,1.39,2.53,2.53,0,0,1-1.66.54,2.44,2.44,0,0,1-2.35-1.55,4.34,4.34,0,0,1-.33-1.75,3.81,3.81,0,0,1,.32-1.6,2.48,2.48,0,0,1,.91-1.08,2.5,2.5,0,0,1,1.38-.38,2.43,2.43,0,0,1,1.66.59,2.71,2.71,0,0,1,.85,1.61,6.38,6.38,0,0,1,.07,1h-4.75a3,3,0,0,0,.62,2,2,2,0,0,0,1.62.74Zm-.07-5.6a2,2,0,0,0-1.55.67,2.83,2.83,0,0,0-.62,1.78h4.33a2.75,2.75,0,0,0-.63-1.8,2,2,0,0,0-1.53-.65Zm6.6-.28.36,0v.42l-.35,0a1.85,1.85,0,0,0-1.45.59,2.48,2.48,0,0,0-.53,1.72v3.39h-.43v-6.1h.43v1.19h0a2.11,2.11,0,0,1,.78-.91,2.14,2.14,0,0,1,1.18-.31Zm1.57-1.44v-1h.43v1Zm0,7.57v-6.1h.43v6.1Zm4.38-8.68a2.76,2.76,0,0,1,1.24.27,2.07,2.07,0,0,1,.86.74,1.92,1.92,0,0,1,.31,1.08,2.39,2.39,0,0,1-.11.76,2.11,2.11,0,0,1-.39.66,9.93,9.93,0,0,1-.84.79,4.62,4.62,0,0,0-.74.74,1.81,1.81,0,0,0-.33.73,5.89,5.89,0,0,0-.09,1.17h-.39v-.3a4.61,4.61,0,0,1,.1-1.08,2.17,2.17,0,0,1,.36-.75,5.51,5.51,0,0,1,.77-.79,8.1,8.1,0,0,0,.76-.72,1.75,1.75,0,0,0,.34-.57,2,2,0,0,0,.09-.64,1.52,1.52,0,0,0-.54-1.21,2.12,2.12,0,0,0-1.4-.46,1.87,1.87,0,0,0-2,1.91h-.43a2.41,2.41,0,0,1,.72-1.73,2.46,2.46,0,0,1,1.75-.6Zm-.55,8.68v-1h.54v1Zm8.6,0V521h0a2.09,2.09,0,0,1-2,1.43,2.31,2.31,0,0,1-1.87-.85,4.26,4.26,0,0,1,0-4.65,2.28,2.28,0,0,1,1.87-.85,2.09,2.09,0,0,1,2,1.43h0v-3.75h.43v8.55Zm-2-5.85a1.89,1.89,0,0,0-1.58.75,3.33,3.33,0,0,0-.57,2,3.26,3.26,0,0,0,.57,2,1.89,1.89,0,0,0,1.58.75,1.75,1.75,0,0,0,1.48-.75,3.4,3.4,0,0,0,.54-2,3.46,3.46,0,0,0-.54-2,1.75,1.75,0,0,0-1.48-.75Zm6.73,5.6a2.12,2.12,0,0,0,1.34-.42,1.78,1.78,0,0,0,.65-1.13h.46a2.22,2.22,0,0,1-.8,1.39,2.56,2.56,0,0,1-4-1,4.34,4.34,0,0,1-.33-1.75,3.81,3.81,0,0,1,.32-1.6,2.48,2.48,0,0,1,.91-1.08,2.5,2.5,0,0,1,1.38-.38,2.44,2.44,0,0,1,1.66.59,2.7,2.7,0,0,1,.84,1.61,5.23,5.23,0,0,1,.08,1H283.6a3.09,3.09,0,0,0,.63,2,2,2,0,0,0,1.62.74Zm-.07-5.6a2,2,0,0,0-1.55.67,2.83,2.83,0,0,0-.63,1.78h4.34a2.75,2.75,0,0,0-.63-1.8,2,2,0,0,0-1.53-.65Zm4,1.43v-.41h5v.41Zm0,1.65v-.41h5v.41Zm7.58-5.36v3.56h4.28v.42H297.4v4.15H297v-8.55h5v.42Zm8,1.9a2.42,2.42,0,0,1,2,.85,4.18,4.18,0,0,1,0,4.66,2.68,2.68,0,0,1-3.92,0,4.18,4.18,0,0,1,0-4.66,2.41,2.41,0,0,1,2-.85Zm0,.4a2,2,0,0,0-1.63.73,3.86,3.86,0,0,0,0,4.1,2.2,2.2,0,0,0,3.27,0,3.86,3.86,0,0,0,0-4.1,2,2,0,0,0-1.64-.73Zm6.69-.3a2,2,0,0,1,.36,0v.42l-.34,0a1.88,1.88,0,0,0-1.46.59,2.53,2.53,0,0,0-.52,1.72v3.39h-.44v-6.1h.44v1.19h0a2,2,0,0,1,2-1.22Zm3.44,5.88a2.07,2.07,0,0,0,1.33-.42,1.75,1.75,0,0,0,.66-1.13h.45a2.21,2.21,0,0,1-.79,1.39,2.48,2.48,0,0,1-1.65.54,2.52,2.52,0,0,1-1.43-.4,2.61,2.61,0,0,1-.93-1.15,4.52,4.52,0,0,1-.32-1.75,3.81,3.81,0,0,1,.32-1.6,2.52,2.52,0,0,1,.9-1.08,2.55,2.55,0,0,1,1.38-.38,2.45,2.45,0,0,1,1.67.59,2.7,2.7,0,0,1,.84,1.61,5.38,5.38,0,0,1,.07,1h-4.75a3.09,3.09,0,0,0,.63,2,2,2,0,0,0,1.62.74Zm-.08-5.6a2,2,0,0,0-1.54.67,2.78,2.78,0,0,0-.63,1.78h4.33a2.69,2.69,0,0,0-.62-1.8,2,2,0,0,0-1.54-.65Zm5.91-.38a2.18,2.18,0,0,1,1.59.55,2.09,2.09,0,0,1,.58,1.54H323a1.68,1.68,0,0,0-.46-1.25,1.72,1.72,0,0,0-1.27-.44,1.86,1.86,0,0,0-1.14.33,1,1,0,0,0-.43.89,1,1,0,0,0,.17.62,1.18,1.18,0,0,0,.5.35,9.22,9.22,0,0,0,1,.27,9.13,9.13,0,0,1,1.27.36,1.72,1.72,0,0,1,.73.51,1.45,1.45,0,0,1,.27.93,1.52,1.52,0,0,1-.59,1.23,2.45,2.45,0,0,1-1.55.47,2.37,2.37,0,0,1-1.72-.58,2.18,2.18,0,0,1-.63-1.63h.43a1.74,1.74,0,0,0,.51,1.34,2,2,0,0,0,1.41.47,2,2,0,0,0,1.23-.35,1.11,1.11,0,0,0,.48-.93,1.07,1.07,0,0,0-.2-.69,1.4,1.4,0,0,0-.59-.4,9.37,9.37,0,0,0-1.17-.33,6.7,6.7,0,0,1-1.08-.31,1.48,1.48,0,0,1-.65-.46,1.34,1.34,0,0,1-.24-.85,1.45,1.45,0,0,1,.57-1.19,2.21,2.21,0,0,1,1.44-.45ZM326.8,522a1.73,1.73,0,0,0,.42-.05v.39a1.85,1.85,0,0,1-.46.05,1.21,1.21,0,0,1-1-.35,1.74,1.74,0,0,1-.3-1.15v-4.23h-1.14v-.39h1.14v-1.4h.44v1.4h1.24v.39h-1.24v4.23a1.33,1.33,0,0,0,.2.85.83.83,0,0,0,.68.26Zm4.25-5.76a2,2,0,0,1,.36,0v.42l-.35,0a1.86,1.86,0,0,0-1.45.59,2.53,2.53,0,0,0-.53,1.72v3.39h-.43v-6.1h.43v1.19h0a2,2,0,0,1,1.95-1.22Zm3.3,6.31a6.9,6.9,0,0,1-.65,1.29,1.81,1.81,0,0,1-.66.62,1.94,1.94,0,0,1-.88.18,1.34,1.34,0,0,1-.46-.08v-.39a1.35,1.35,0,0,0,.46.07,1.66,1.66,0,0,0,.71-.14,1.44,1.44,0,0,0,.53-.54,7.73,7.73,0,0,0,.57-1.18l-2.41-6.11H332l2.16,5.53h0l2.22-5.53h.46l-2.53,6.28Zm8.41-4.19v.41h-2.29V521h-.41v-2.29h-2.29v-.41h2.29V516h.41v2.29Z"/><text transform="translate(28.35 551.14)" font-size="12" font-family="NeueHaasUnicaW06-Thin" font-weight="200">7)</text><text transform="translate(28.35 565.54)" font-size="12" font-family="NeueHaasUnicaW06-Thin" font-weight="200"><tspan letter-spacing="0.23em">-</tspan><tspan x="6.13" y="0">A</tspan><tspan x="13.91" y="0" letter-spacing="-0.03em">r</tspan><tspan x="17.56" y="0">eal</tspan><tspan x="32.5" y="0" letter-spacing="-0.03em">r</tspan><tspan x="36.14" y="0" letter-spacing="0.01em">e</tspan><tspan x="42.55" y="0">ssu</tspan><tspan x="60.2" y="0" letter-spacing="-0.02em">r</tspan><tspan x="63.96" y="0">sst</tspan><tspan x="78.43" y="0" letter-spacing="-0.01em">a</tspan><tspan x="84.42" y="0">tisti</tspan><tspan x="101.83" y="0" letter-spacing="-0.01em">k</tspan><tspan x="107.21" y="0">k No</tspan><tspan x="130.68" y="0" letter-spacing="-0.03em">r</tspan><tspan x="134.33" y="0">dland</tspan></text><text transform="translate(420.95 42.34)" font-size="12" font-family="NeueHaasUnicaW06-Thin" font-weight="200"><tspan letter-spacing="0.23em">-</tspan><tspan x="6.13" y="0" letter-spacing="-0.01em">h</tspan><tspan x="12.55" y="0">ttp</tspan><tspan x="26.02" y="0" letter-spacing="0.03em">s</tspan><tspan x="31.86" y="0" letter-spacing="0em">:</tspan><tspan x="33.89" y="0" letter-spacing="-0.16em">/</tspan><tspan x="37.02" y="0" letter-spacing="-0.04em">/</tspan><tspan x="41.54" y="0" letter-spacing="-0.01em">f</tspan><tspan x="44.58" y="0">o</tspan><tspan x="51.05" y="0" letter-spacing="-0.02em">r</tspan><tspan x="54.8" y="0">s</tspan><tspan x="60.33" y="0" letter-spacing="-0.01em">k</tspan><tspan x="65.71" y="0">ning.no</tspan><tspan x="103.17" y="0" letter-spacing="-0.07em">/</tspan><tspan x="107.34" y="0">pa</tspan><tspan x="120.08" y="0" letter-spacing="0.01em">r</tspan><tspan x="124.19" y="0">tner-s</tspan><tspan x="153.37" y="0" letter-spacing="-0.02em">k</tspan><tspan x="158.61" y="0" letter-spacing="0.01em">o</tspan><tspan x="165.2" y="0">g-no</tspan><tspan x="188.28" y="0" letter-spacing="-0.02em">r</tspan><tspan x="192.03" y="0">s</tspan><tspan x="197.56" y="0" letter-spacing="-0.02em">k</tspan><tspan x="202.82" y="0" letter-spacing="0em">-institutt-</tspan><tspan x="246.97" y="0" letter-spacing="-0.01em">f</tspan><tspan x="250" y="0" letter-spacing="0em">or-s</tspan><tspan x="269.35" y="0" letter-spacing="-0.02em">k</tspan><tspan x="274.58" y="0" letter-spacing="0.01em">o</tspan><tspan x="281.17" y="0">g</tspan><tspan x="287.81" y="0" letter-spacing="0.02em">-</tspan><tspan x="291.43" y="0" letter-spacing="0.01em">o</tspan><tspan x="298" y="0" letter-spacing="0em">g-lands</tspan><tspan x="335.42" y="0" letter-spacing="-0.01em">k</tspan><tspan x="340.79" y="0">ap</tspan><tspan x="353.54" y="0" letter-spacing="-0.08em">/</tspan><tspan x="357.58" y="0">s</tspan><tspan x="363.11" y="0" letter-spacing="-0.02em">k</tspan><tspan x="368.36" y="0" letter-spacing="0em">o</tspan></text><text transform="translate(795.91 42.34)" font-size="12" font-family="NeueHaasUnicaW06-Thin" font-weight="200">-</text><text transform="translate(420.95 56.74)" font-size="12" font-family="NeueHaasUnicaW06-Thin" font-weight="200">gen-b<tspan x="29.57" y="0" letter-spacing="-0.03em">r</tspan><tspan x="33.21" y="0" letter-spacing="0em">er</tspan><tspan x="43.5" y="0" letter-spacing="0.02em">-</tspan><tspan x="47.11" y="0">om-</tspan><tspan x="66.86" y="0" letter-spacing="0.01em">se</tspan><tspan x="78.92" y="0" letter-spacing="0em">g-i-no</tspan><tspan x="107.9" y="0" letter-spacing="-0.03em">r</tspan><tspan x="111.56" y="0">dland/724693</tspan></text><text transform="translate(420.95 71.14)" font-size="12" font-family="NeueHaasUnicaW06-Thin" font-weight="200"><tspan letter-spacing="0.23em">-</tspan><tspan x="6.13" y="0" letter-spacing="-0.01em">h</tspan><tspan x="12.55" y="0">ttp</tspan><tspan x="26.02" y="0" letter-spacing="0.03em">s</tspan><tspan x="31.86" y="0" letter-spacing="0em">:</tspan><tspan x="33.89" y="0" letter-spacing="-0.16em">/</tspan><tspan x="37.02" y="0" letter-spacing="-0.07em">/</tspan><tspan x="41.18" y="0" letter-spacing="0em">nibio.b</tspan><tspan x="74.65" y="0" letter-spacing="-0.03em">r</tspan><tspan x="78.3" y="0" letter-spacing="0em">age</tspan><tspan x="97.35" y="0" letter-spacing="-0.02em">.</tspan><tspan x="99.17" y="0">uni</tspan><tspan x="114.87" y="0" letter-spacing="0.02em">t</tspan><tspan x="118.52" y="0">.no</tspan><tspan x="133.63" y="0" letter-spacing="-0.07em">/</tspan><tspan x="137.79" y="0">nibi</tspan><tspan x="156.09" y="0" letter-spacing="0.02em">o</tspan><tspan x="162.79" y="0" letter-spacing="-0.02em">-</tspan><tspan x="165.93" y="0">xmlui/handle/11250/2463799</tspan></text><text transform="translate(420.95 99.94)" font-size="12" font-family="NeueHaasUnicaW06-Thin" font-weight="200">8)</text><text transform="translate(420.95 114.34)" font-size="12" font-family="NeueHaasUnicaW06-Thin" font-weight="200"><tspan letter-spacing="0.23em">-</tspan><tspan x="6.13" y="0" letter-spacing="-0.01em">h</tspan><tspan x="12.55" y="0">ttp</tspan><tspan x="26.02" y="0" letter-spacing="0.03em">s</tspan><tspan x="31.86" y="0" letter-spacing="0em">:</tspan><tspan x="33.89" y="0" letter-spacing="-0.16em">/</tspan><tspan x="37.02" y="0" letter-spacing="-0.05em">/</tspan><tspan x="41.42" y="0">ww</tspan><tspan x="59.28" y="0" letter-spacing="-0.04em">w</tspan><tspan x="67.73" y="0">.st</tspan><tspan x="78.72" y="0" letter-spacing="-0.01em">a</tspan><tspan x="84.71" y="0">ts</tspan><tspan x="93.65" y="0" letter-spacing="-0.02em">k</tspan><tspan x="98.89" y="0" letter-spacing="0.01em">o</tspan><tspan x="105.48" y="0" letter-spacing="0em">g.no</tspan><tspan x="127.23" y="0" letter-spacing="-0.08em">/</tspan><tspan x="131.27" y="0">eiendom</tspan><tspan x="176.04" y="0" letter-spacing="-0.08em">/</tspan><tspan x="180.08" y="0">st</tspan><tspan x="189.02" y="0" letter-spacing="-0.01em">a</tspan><tspan x="195.01" y="0">ts</tspan><tspan x="203.95" y="0" letter-spacing="-0.02em">k</tspan><tspan x="209.18" y="0" letter-spacing="0.01em">o</tspan><tspan x="215.77" y="0" letter-spacing="0em">gs</tspan><tspan x="227.95" y="0" letter-spacing="0.02em">-</tspan><tspan x="231.56" y="0">eiendommer</tspan></text><text transform="translate(420.95 128.74)" font-size="12" font-family="NeueHaasUnicaW06-Thin" font-weight="200"><tspan letter-spacing="0.23em">-</tspan><tspan x="6.13" y="0" letter-spacing="-0.01em">h</tspan><tspan x="12.55" y="0">ttp</tspan><tspan x="26.02" y="0" letter-spacing="0.03em">s</tspan><tspan x="31.86" y="0" letter-spacing="0em">:</tspan><tspan x="33.89" y="0" letter-spacing="-0.16em">/</tspan><tspan x="37.02" y="0" letter-spacing="-0.07em">/</tspan><tspan x="41.18" y="0" letter-spacing="0em">nibio.b</tspan><tspan x="74.65" y="0" letter-spacing="-0.03em">r</tspan><tspan x="78.3" y="0" letter-spacing="0em">age</tspan><tspan x="97.35" y="0" letter-spacing="-0.02em">.</tspan><tspan x="99.17" y="0">uni</tspan><tspan x="114.87" y="0" letter-spacing="0.02em">t</tspan><tspan x="118.52" y="0">.no</tspan><tspan x="133.63" y="0" letter-spacing="-0.07em">/</tspan><tspan x="137.79" y="0">nibi</tspan><tspan x="156.09" y="0" letter-spacing="0.02em">o</tspan><tspan x="162.79" y="0" letter-spacing="-0.02em">-</tspan><tspan x="165.93" y="0">xmlui/handle/11250/2463799</tspan></text></g></svg>